<?xml version="1.0" encoding="UTF-8"?>
<!--
  WikiPathways page: https://www.wikipathways.org/index.php/Pathway:WP1250
  URL for this compressed file: https://github.com/eweitz/cachome/tree/main/data/wikipathways/WP1250.svg
  Source code for compression: https://github.com/eweitz/cachome/tree/main/src/wikipathways.py
-->
<svg class="Diagram" width="800" height="600" color="black" baseProfile="full" prefix="schema:http://schema.org/" preserveAspectRatio="xMidYMid" version="1.1" viewBox="0 0 736 503" vocab="http://vocabularies.wikipathways.org/wp#" xmlns="http://www.w3.org/2000/svg" xmlns:xlink="http://www.w3.org/1999/xlink"><style>svg {font-family: 'Liberation Sans', Arial, sans-serif; }</style><defs><filter id="a" x="0" y="0" width="736" height="503" filterUnits="userSpaceOnUse"><feColorMatrix in="SourceGraphic" values="-1   0   0 0 0                   0  -1   0 0 0                   0   0  -1 0 0                   0   0   0 1 0"/></filter><marker id="c" stroke-dasharray="99999" markerHeight="12" markerUnits="userSpaceOnUse" markerWidth="12" orient="auto" preserveAspectRatio="none" refX="12" refY="6" viewBox="0 0 12 12"><path transform="rotate(180 6 6)" d="M12 11L0 6l12-5z" fill="currentColor" stroke-width="0"/></marker><symbol id="b" preserveAspectRatio="none" viewBox="0 0 100 100"/></defs><g class="Viewport" color="black"  name="Name: Arachidonate epoxygenase / epoxide hydrolase Organism: Mus musculus"><rect class="Icon" width="736" height="503" fill="#fff" stroke="#000" stroke-width="0"/><g id="d" class="DirectedInteraction" color="#000" ><g color="#000" fill="transparent"  filter="url(#a)" stroke="#000" stroke-dasharray="131.20364958642523, 5.8"><path class="EdgeBody" d="m489 307 137 1"   marker-end="url(#c)" /></g><g class="Burr Anchor" transform="translate(543.8,307.4)" ><use class="Icon" width="0" height="0" fill="#141414" stroke-width="0" xlink:href="#b"/></g></g><g id="e" class="DirectedInteraction" color="#000" ><g color="#000" fill="transparent"  filter="url(#a)" stroke="#000" stroke-dasharray="44.20999900019995, 5.8"><path class="EdgeBody" d="m168 256-1-50"   marker-end="url(#c)" /></g><g class="Burr Anchor" transform="translate(167.6,236)" ><use class="Icon" width="0" height="0" fill="#141414" stroke-width="0" xlink:href="#b"/></g></g><g id="f" class="Interaction" color="#000" ><g color="#000" fill="transparent"  filter="url(#a)" stroke="#000" stroke-dasharray="6.099999999999994, 0"><path class="EdgeBody" d="m161.5 236h6.1"   /></g></g><g id="g" class="DirectedInteraction" color="#000" ><g color="#000" fill="transparent"  filter="url(#a)" stroke="#000" stroke-dasharray="134.20357138301864, 5.8"><path class="EdgeBody" d="m348 267-140-1"   marker-end="url(#c)" /></g><g class="Burr Anchor" transform="translate(292,266.6)" ><use class="Icon" width="0" height="0" fill="#141414" stroke-width="0" xlink:href="#b"/></g></g><g id="h" class="Interaction" color="#000" ><g color="#000" fill="transparent"  filter="url(#a)" stroke="#000" stroke-dasharray="7.437909652583827, 0"><path class="EdgeBody" d="m291.25 274 0.75-7.4"   /></g></g><g id="i" class="DirectedInteraction" color="#000" ><g color="#000" fill="transparent"  filter="url(#a)" stroke="#000" stroke-dasharray="134.2, 5.8"><path class="EdgeBody" d="m349 307h-140"   marker-end="url(#c)" /></g><g class="Burr Anchor" transform="translate(293,307)" ><use class="Icon" width="0" height="0" fill="#141414" stroke-width="0" xlink:href="#b"/></g></g><g id="j" class="Interaction" color="#000" ><g color="#000" fill="transparent"  filter="url(#a)" stroke="#000" stroke-dasharray="7.1001760541553, 0"><path class="EdgeBody" d="m543.75 314.5 0.05-7.1"   /></g></g><g id="k" class="Interaction" color="#000" ><g color="#000" fill="transparent"  filter="url(#a)" stroke="#000" stroke-dasharray="7.5, 0"><path class="EdgeBody" d="m293 314.5v-7.5"   /></g></g><g id="l" class="DirectedInteraction" color="#000" ><g color="#000" fill="transparent"  filter="url(#a)" stroke="#000" stroke-dasharray="128.95371052405198, 5.8"><path class="EdgeBody" d="M489.25,267L624,266"   marker-end="url(#c)" /></g><g class="Burr Anchor" transform="translate(543.15 266.6)" ><use class="Icon" width="0" height="0" fill="#141414" stroke-width="0" xlink:href="#b"/></g></g><g id="m" class="Interaction" color="#000" ><g color="#000" fill="transparent"  filter="url(#a)" stroke="#000" stroke-dasharray="8.401339178964244, 0"><path class="EdgeBody" d="m543 275 0.15-8.4"   /></g></g><g id="n" class="DirectedInteraction" color="#000" ><g color="#000" fill="transparent"  filter="url(#a)" stroke="#000" stroke-dasharray="56.208063991709984, 5.8"><path class="EdgeBody" d="m348 267 1-62"   marker-end="url(#c)" /></g><g class="Burr Anchor" transform="translate(348.4,242.2)" ><use class="Icon" width="0" height="0" fill="#141414" stroke-width="0" xlink:href="#b"/></g></g><g id="o" class="Interaction" color="#000" ><g color="#000" fill="transparent"  filter="url(#a)" stroke="#000" stroke-dasharray="8.189169677079578, 0"><path class="EdgeBody" d="m340.25 243 8.15-0.8"   /></g></g><g id="p" class="DirectedInteraction" color="#000" ><g color="#000" fill="transparent"  filter="url(#a)" stroke="#000" stroke-dasharray="128.83335628662013, 5.8"><path class="EdgeBody" d="m419.12 315 71.625 114"   marker-end="url(#c)" /></g><g class="Burr Anchor" transform="translate(447.78 360.6)" ><use class="Icon" width="0" height="0" fill="#141414" stroke-width="0" xlink:href="#b"/></g></g><g id="q" class="DirectedInteraction" color="#000" ><g color="#000" fill="transparent"  filter="url(#a)" stroke="#000" stroke-dasharray="149.20609867034264, 5.8"><path class="EdgeBody" d="m420.5 104-1.375 155"   marker-end="url(#c)" /></g><g class="Burr Anchor" transform="translate(419.95,166)" ><use class="Icon" width="0" height="0" fill="#141414" stroke-width="0" xlink:href="#b"/></g></g><g id="r" class="DirectedInteraction" color="#000" ><g color="#000" fill="transparent"  filter="url(#a)" stroke="#000" stroke-dasharray="121.7118254319967, 5.8"><path class="EdgeBody" d="M419.125,315L362,429"   marker-end="url(#c)" /></g><g class="Burr Anchor" transform="translate(396.28 360.6)" ><use class="Icon" width="0" height="0" fill="#141414" stroke-width="0" xlink:href="#b"/></g></g><g id="s" class="Interaction" color="#000" ><g color="#000" fill="transparent"  filter="url(#a)" stroke="#000" stroke-dasharray="17.47528612069058, 0"><path class="EdgeBody" d="m465.25 360.5-17.475 0.1"   /></g></g><g id="t" class="Interaction" color="#000" ><g color="#000" fill="transparent"  filter="url(#a)" stroke="#000" stroke-dasharray="28.525175284299284, 0"><path class="EdgeBody" d="m367.75 360.5 28.525 0.1"   /></g></g><g id="u" class="Interaction" color="#000" ><g color="#000" fill="transparent"  filter="url(#a)" stroke="#000" stroke-dasharray="43.05000181475026, 0"><path class="EdgeBody" d="m419.95 166 43.05-0.0125"   /></g></g><g class="Label" transform="translate(303,453)" color="#000"  name="Product"><use class="Icon" width="119" height="20" fill="transparent"  stroke="#000" stroke-width="0" xlink:href="#b"/><text class="Text" transform="translate(59.5,13)"   font-size="10px"  text-anchor="middle"><tspan x="0" y="0">Product</tspan></text></g><g class="Label" transform="translate(429,451)" color="#000"  name="Product"><use class="Icon" width="119" height="20" fill="transparent"  stroke="#000" stroke-width="0" xlink:href="#b"/><text class="Text" transform="translate(59.5,13)"   font-size="10px"  text-anchor="middle"><tspan x="0" y="0">Product</tspan></text></g><g class="Metabolite" transform="translate(311.5,429)" color="#00f"  name="Glutathionyl-HETrEs"><rect class="Icon" transform="matrix(.9902 0 0 .95238 .4951 .47619)" width="101" height="20" fill="#fff" stroke="#00f"/><text class="Text" transform="translate(50.5,13)" fill="#00f"  font-size="10px"  text-anchor="middle"><tspan x="0" y="0">Glutathionyl-HETrEs</tspan></text></g><g class="Metabolite" transform="translate(123,186)" color="#00f"  name="5,6-DiH-PGF1a"><rect class="Icon" transform="matrix(.98876 0 0 .95238 .49438 .47619)" width="88" height="20" fill="#fff" stroke="#00f"/><text class="Text" transform="translate(44,13)" fill="#00f"  font-size="10px"  text-anchor="middle"><tspan x="0" y="0">5,6-DiH-PGF1a</tspan></text></g><a  class="GeneProduct P594_ENSMUSG00000022040 " transform="translate(269.75,314.5)"   name="Ephx2"  ><rect class="Icon" transform="matrix(.97895 0 0 .95238 .48947 .47619)" width="46.5" height="20" fill="#fff" stroke="#000"/><text class="Text" transform="translate(23.25,13)"   font-size="10px"  text-anchor="middle"><tspan x="0" y="0">Ephx2</tspan></text></a><g class="Metabolite" transform="translate(438,429)" color="#00f"  name="Phosphotidyl-EpETrEs"><rect class="Icon" transform="matrix(.99061 0 0 .95238 .49531 .47619)" width="105.5" height="20" fill="#fff" stroke="#00f"/><text class="Text" transform="translate(52.75,13)" fill="#00f"  font-size="10px"  text-anchor="middle"><tspan x="0" y="0">Phosphotidyl-EpETrEs</tspan></text></g><a class="Metabolite ChEBI_CHEBI_63969  " transform="translate(624,256)" color="#00f"  name="11,12-DiHETrE"  ><rect class="Icon" transform="matrix(.98765 0 0 .95238 .49383 .47619)" width="80" height="20" fill="#fff" stroke="#00f"/><text class="Text" transform="translate(40,13)" fill="#00f"  font-size="10px"  text-anchor="middle"><tspan x="0" y="0">11,12-DiHETrE</tspan></text></a><a  class="GeneProduct P594_ENSMUSG00000000088 " transform="translate(293.75,233)"   name="Cox5a"  ><rect class="Icon" transform="matrix(.97895 0 0 .95238 .48947 .47619)" width="46.5" height="20" fill="#fff" stroke="#000"/><text class="Text" transform="translate(23.25,13)"   font-size="10px"  text-anchor="middle"><tspan x="0" y="0">Cox5a</tspan></text></a><a  class="GeneProduct P594_ENSMUSG00000022040 " transform="translate(520.5,314.5)"   name="Ephx2"  ><rect class="Icon" transform="matrix(.97895 0 0 .95238 .48947 .47619)" width="46.5" height="20" fill="#fff" stroke="#000"/><text class="Text" transform="translate(23.25,13)"   font-size="10px"  text-anchor="middle"><tspan x="0" y="0">Ephx2</tspan></text></a><a  class="GeneProduct P594_ENSMUSG00000022040 " transform="translate(519.75,275)"   name="Ephx2"  ><rect class="Icon" transform="matrix(.97895 0 0 .95238 .48947 .47619)" width="46.5" height="20" fill="#fff" stroke="#000"/><text class="Text" transform="translate(23.25,13)"   font-size="10px"  text-anchor="middle"><tspan x="0" y="0">Ephx2</tspan></text></a><g class="Metabolite" transform="translate(283,185)" color="#00f"  name="5(6)-Epoxy-PGE1"><rect class="Icon" transform="matrix(.98876 0 0 .95238 .49438 .47619)" width="88" height="20" fill="#fff" stroke="#00f"/><text class="Text" transform="translate(44,13)" fill="#00f"  font-size="10px"  text-anchor="middle"><tspan x="0" y="0">5(6)-Epoxy-PGE1</tspan></text></g><a class="Metabolite ChEBI_CHEBI_63974  " transform="translate(128,256)" color="#00f"  name="5,6-DiHETrE"  ><rect class="Icon" transform="matrix(.98765 0 0 .95238 .49383 .47619)" width="80" height="20" fill="#fff" stroke="#00f"/><text class="Text" transform="translate(40,13)" fill="#00f"  font-size="10px"  text-anchor="middle"><tspan x="0" y="0">5,6-DiHETrE</tspan></text></a><g class="GeneProduct" transform="translate(321.25,350.5)" color="#000"  name="GST3"><rect class="Icon" transform="matrix(.97895 0 0 .95238 .48947 .47619)" width="46.5" height="20" fill="#fff" stroke="#000"/><text class="Text" transform="translate(23.25,13)"   font-size="10px"  text-anchor="middle"><tspan x="0" y="0">GST3</tspan></text></g><g class="GeneProduct" transform="translate(465.25,350.5)" color="#000"  name="Catalyst"><rect class="Icon" transform="matrix(.97895 0 0 .95238 .48947 .47619)" width="46.5" height="20" fill="#fff" stroke="#000"/><text class="Text" transform="translate(23.25,13)"   font-size="10px"  text-anchor="middle"><tspan x="0" y="0">Catalyst</tspan></text></g><a  class="GeneProduct P594_ENSMUSG00000035885 " transform="translate(115,226)"   name="Cox8a"  ><rect class="Icon" transform="matrix(.97895 0 0 .95238 .48947 .47619)" width="46.5" height="20" fill="#fff" stroke="#000"/><text class="Text" transform="translate(23.25,13)"   font-size="10px"  text-anchor="middle"><tspan x="0" y="0">Cox8a</tspan></text></a><a  class="GeneProduct P594_ENSMUSG00000022040 " transform="translate(268,274)"   name="Ephx2"  ><rect class="Icon" transform="matrix(.97895 0 0 .95238 .48947 .47619)" width="46.5" height="20" fill="#fff" stroke="#000"/><text class="Text" transform="translate(23.25,13)"   font-size="10px"  text-anchor="middle"><tspan x="0" y="0">Ephx2</tspan></text></a><a class="Metabolite ChEBI_CHEBI_63970  " transform="translate(129,297)" color="#00f"  name="8,9-DiHETrE"  ><rect class="Icon" transform="matrix(.98765 0 0 .95238 .49383 .47619)" width="80" height="20" fill="#fff" stroke="#00f"/><text class="Text" transform="translate(40,13)" fill="#00f"  font-size="10px"  text-anchor="middle"><tspan x="0" y="0">8,9-DiHETrE</tspan></text></a><a class="Metabolite ChEBI_CHEBI_63966  " transform="translate(626,298)" color="#00f"  name="14,15-DiHETrE"  ><rect class="Icon" transform="matrix(.98765 0 0 .95238 .49383 .47619)" width="80" height="20" fill="#fff" stroke="#00f"/><text class="Text" transform="translate(40,13)" fill="#00f"  font-size="10px"  text-anchor="middle"><tspan x="0" y="0">14,15-DiHETrE</tspan></text></a><a class="Metabolite ChEBI_CHEBI_15843  " transform="translate(374,84)" color="#00f"  name="Arachidonic acid"  ><rect class="Icon" transform="matrix(.98936 0 0 .95238 .49468 .47619)" width="93" height="20" fill="#fff" stroke="#00f"/><text class="Text" transform="translate(46.5,13)" fill="#00f"  font-size="10px"  text-anchor="middle"><tspan x="0" y="0">Arachidonic acid</tspan></text></a><g class="GroupGroup" transform="translate(463 129.48)" color="grey" ><use class="Icon" width="96" height="73.00833333333335" fill="transparent"  stroke="grey" stroke-dasharray="5,3" stroke-width="0" xlink:href="#b"/><g class="GeneProduct" transform="translate(8 45.008)" color="#000"  name="CYP2C9"><rect class="Icon" transform="matrix(.98765 0 0 .95238 .49383 .47619)" width="80" height="20" fill="#fff" stroke="#000"/><text class="Text" transform="translate(40,13)"   font-size="10px"  text-anchor="middle"><tspan x="0" y="0">CYP2C9</tspan></text></g><g class="GeneProduct" transform="translate(8,28)" color="#000"  name="CYP2C8"><rect class="Icon" transform="matrix(.98765 0 0 .95238 .49383 .47619)" width="80" height="20" fill="#fff" stroke="#000"/><text class="Text" transform="translate(40,13)"   font-size="10px"  text-anchor="middle"><tspan x="0" y="0">CYP2C8</tspan></text></g><g class="GeneProduct" transform="translate(8,8)" color="#000"  name="CYP2J2"><rect class="Icon" transform="matrix(.98765 0 0 .95238 .49383 .47619)" width="80" height="20" fill="#fff" stroke="#000"/><text class="Text" transform="translate(40,13)"   font-size="10px"  text-anchor="middle"><tspan x="0" y="0">CYP2J2</tspan></text></g></g><g class="GroupGroup" transform="translate(317,259)" color="grey" ><use class="Icon" width="204.25" height="56" fill="transparent"  stroke="grey" stroke-dasharray="5,3" stroke-width="0" xlink:href="#b"/><a class="Metabolite ChEBI_CHEBI_34157  " transform="translate(100,28)" color="#00f"  name="14(15)-EpETrE"  ><rect class="Icon" transform="matrix(.98969 0 0 .95238 .49485 .47619)" width="96" height="20" fill="#fff" stroke="#00f"/><text class="Text" transform="translate(48,13)" fill="#00f"  font-size="10px"  text-anchor="middle"><tspan x="0" y="0">14(15)-EpETrE</tspan></text></a><a class="Metabolite ChEBI_CHEBI_34490  " transform="translate(8,28)" color="#00f"  name="8(9)-EpETrE"  ><rect class="Icon" transform="matrix(.98969 0 0 .95238 .49485 .47619)" width="96" height="20" fill="#fff" stroke="#00f"/><text class="Text" transform="translate(48,13)" fill="#00f"  font-size="10px"  text-anchor="middle"><tspan x="0" y="0">8(9)-EpETrE</tspan></text></a><a class="Metabolite ChEBI_CHEBI_34450  " transform="translate(8,8)" color="#00f"  name="5(6)-EpETrE"  ><rect class="Icon" transform="matrix(.98925 0 0 .95238 .49462 .47619)" width="92" height="20" fill="#fff" stroke="#00f"/><text class="Text" transform="translate(46,13)" fill="#00f"  font-size="10px"  text-anchor="middle"><tspan x="0" y="0">5(6)-EpETrE</tspan></text></a><a class="Metabolite " transform="translate(100.25,8)" color="#00f"  name="11(12)-EpETrE"  ><rect class="Icon" transform="matrix(.98969 0 0 .95238 .49485 .47619)" width="96" height="20" fill="#fff" stroke="#00f"/><text class="Text" transform="translate(48,13)" fill="#00f"  font-size="10px"  text-anchor="middle"><tspan x="0" y="0">11(12)-EpETrE</tspan></text></a></g><text class="Text" transform="translate(5,27)" dominant-baseline="central" fill="black"  font-size="12px" font-weight="bold" overflow="visible" ><tspan x="0" y="-9">Name: Arachidonate epoxygenase / epoxide hydrolase</tspan> <tspan x="0" y="9">Organism: Mus musculus</tspan></text></g></svg>
