<?xml version="1.0" encoding="UTF-8"?>
<!--
  WikiPathways page: https://www.wikipathways.org/index.php/Pathway:WP1252
  URL for this compressed file: https://github.com/eweitz/cachome/tree/main/data/wikipathways/WP1252.svg
  Source code for compression: https://github.com/eweitz/cachome/tree/main/src/wikipathways.py
-->
<svg class="Diagram" width="800" height="600" color="black" baseProfile="full" prefix="schema:http://schema.org/" preserveAspectRatio="xMidYMid" version="1.1" viewBox="0 0 365.27 425.67" vocab="http://vocabularies.wikipathways.org/wp#" xmlns="http://www.w3.org/2000/svg" xmlns:xlink="http://www.w3.org/1999/xlink"><style>svg {font-family: 'Liberation Sans', Arial, sans-serif; }</style><defs><filter id="a" x="0" y="0" width="365.27" height="425.67" filterUnits="userSpaceOnUse"><feColorMatrix in="SourceGraphic" values="-1   0   0 0 0                   0  -1   0 0 0                   0   0  -1 0 0                   0   0   0 1 0"/></filter><marker id="e" stroke-dasharray="99999" markerHeight="12" markerUnits="userSpaceOnUse" markerWidth="12" orient="auto" preserveAspectRatio="none" refX="12" refY="6" viewBox="0 0 12 12"><path transform="rotate(180 6 6)" d="M12 11L0 6l12-5z" fill="currentColor" stroke-width="0"/></marker><marker id="d" stroke-dasharray="99999" markerHeight="12" markerUnits="userSpaceOnUse" markerWidth="12" orient="auto" preserveAspectRatio="none" refX="12" refY="6" viewBox="0 0 12 12"><circle transform="rotate(180 6 6)" cx="6" cy="6" r="5.3" fill="none" stroke="#000"/></marker><marker id="b" stroke-dasharray="99999" markerHeight="12" markerUnits="userSpaceOnUse" markerWidth="12" orient="auto" preserveAspectRatio="none" refX="12" refY="6" viewBox="0 0 12 12"><path transform="rotate(180 6 6)" d="M12 11L0 6l12-5z" fill="currentColor" stroke-width="0"/></marker><symbol id="f" overflow="visible" preserveAspectRatio="none" viewBox="0 0 100 100"><path d="M0 25L25 0h50l25 25v50l-25 25H25L0 75z" stroke="currentColor" vector-effect="non-scaling-stroke"/></symbol><symbol id="c" preserveAspectRatio="none" viewBox="0 0 100 100"/></defs><g class="Viewport" color="black"  name="Name: Amino acid conjugation of benzoic acid Last Modified: 2/21/2013 Organism: Mus musculus"><rect class="Icon" width="365.27" height="425.67" fill="#fff" stroke="#000" stroke-width="0"/><g id="g" class="DirectedInteraction" color="#000" ><g color="#000" fill="transparent"  filter="url(#a)" stroke="#000" stroke-dasharray="64.86666666666669, 5.8"><path class="EdgeBody" d="m193.33 305v70.667"   marker-end="url(#e)" /></g><g class="Burr Anchor" transform="translate(193.33 333.27)" ><use class="Icon" width="0" height="0" fill="#141414" stroke-width="0" xlink:href="#c"/></g></g><g id="h" class="Interaction" color="#000" ><g color="#000" fill="transparent"  filter="url(#a)" stroke="#000" stroke-dasharray="62.59702893676217, 5.8"><path class="EdgeBody" d="m193 199.67 62.267 28.3"   marker-end="url(#b)" /></g></g><g id="i" class="Interaction" color="#000" ><g color="#000" fill="transparent"  filter="url(#a)" stroke="#000" stroke-dasharray="55.63484122359198, 5.8"><path class="EdgeBody" d="m193.33 305 56.975 22.979"   marker-end="url(#b)" /></g></g><g id="j" class="Interaction" color="#000" ><g color="#000" fill="transparent"  filter="url(#a)" stroke="#000" stroke-dasharray="79.5339843725165, 5.8"><path class="EdgeBody" d="m193 199.67 0.33333 85.333"   marker-end="url(#b)" /></g><g class="Burr Anchor" transform="translate(193.15 237.02)" ><use class="Icon" width="0" height="0" fill="#141414" stroke-width="0" xlink:href="#c"/></g></g><g id="k" class="Interaction" color="#000" ><g color="#000" fill="transparent"  filter="url(#a)" stroke="#000" stroke-dasharray="43.15018356820597, 11"><path class="EdgeBody" d="m139 236.33 54.146 0.68172"   marker-end="url(#d)" /></g></g><g id="l" class="Interaction" color="#000" ><g color="#000" fill="transparent"  filter="url(#a)" stroke="#000" stroke-dasharray="56.03181925632267, 5.8"><path class="EdgeBody" d="m250.31 351.65-56.975 24.021"   marker-end="url(#b)" /></g></g><g id="m" class="DirectedInteraction" color="#000" ><g color="#000" fill="transparent"  filter="url(#a)" stroke="#000" stroke-dasharray="46.36814839817447, 5.8"><path class="EdgeBody" d="m255.27 253.97-41.934 31.033"   marker-end="url(#e)" /></g></g><g id="n" class="Interaction" color="#000" ><g color="#000" fill="transparent"  filter="url(#a)" stroke="#000" stroke-dasharray="104.2, 5.8"><path class="EdgeBody" d="m193 69.667v110"   marker-end="url(#b)" /></g><g class="Burr Anchor" transform="translate(193 113.67)" ><use class="Icon" width="0" height="0" fill="#141414" stroke-width="0" xlink:href="#c"/></g></g><g id="o" class="Interaction" color="#000" ><g color="#000" fill="transparent"  filter="url(#a)" stroke="#000" stroke-dasharray="39.70026588212111, 0"><path class="EdgeBody" d="m229.33 97.667-36.333 16"   /></g></g><g id="p" class="Interaction" color="#000" ><g color="#000" fill="transparent"  filter="url(#a)" stroke="#000" stroke-dasharray="40.84880610595637, 5.8"><path class="EdgeBody" d="m193 113.67 29.667 36"   marker-end="url(#b)" /></g></g><g id="q" class="Interaction" color="#000" ><g color="#000" fill="transparent"  filter="url(#a)" stroke="#000" stroke-dasharray="53.33388600798875, 11"><path class="EdgeBody" d="m129 333 64.333 0.26667"   marker-end="url(#d)" /></g></g><a class="Metabolite ChEBI_CHEBI_18089  " transform="translate(153.33 375.67)" color="#00f"  name="hippuric acid"  ><rect class="Icon" transform="matrix(.98765 0 0 .95238 .49383 .47619)" width="80" height="20" fill="#fff" stroke="#00f"/><text class="Text" transform="translate(40,13)" fill="#00f"  font-size="10px"  text-anchor="middle"><tspan x="0" y="0">hippuric acid</tspan></text></a><a  class="GeneProduct P594_ENSMUSG00000027605 " transform="translate(21 226.33)"   name="Acss2"  ><rect class="Icon" transform="matrix(.9916 0 0 .95238 .4958 .47619)" width="118" height="20" fill="#fff" stroke="#000"/><text class="Text" transform="translate(59,13)"   font-size="10px"  text-anchor="middle"><tspan x="0" y="0">Acss2</tspan></text></a><a class="Metabolite ChEBI_CHEBI_15346  " transform="translate(250.31 317.98)" color="#00f"  name="Coenzyme A"  ><rect class="Icon" transform="matrix(.98765 0 0 .95238 .49383 .47619)" width="80" height="20" fill="#fff" stroke="#00f"/><text class="Text" transform="translate(40,13)" fill="#00f"  font-size="10px"  text-anchor="middle"><tspan x="0" y="0">Coenzyme A</tspan></text></a><a class="CAS_72-89-9 Metabolite ChEBI_CHEBI_15351  " transform="translate(255.27 243.97)" color="#3333ff"  name="Acetyl CoA"  ><rect class="Icon" transform="matrix(.98765 0 0 .95238 .49383 .47619)" width="80" height="20" fill="#fff" stroke="#33f"/><text class="Text" transform="translate(40,13)" fill="#3333ff"  font-size="10px"  text-anchor="middle"><tspan x="0" y="0">Acetyl CoA</tspan></text></a><a class="Metabolite ChEBI_CHEBI_15428  " transform="translate(250.31 341.65)" color="#00f"  name="glycine"  ><rect class="Icon" transform="matrix(.98765 0 0 .95238 .49383 .47619)" width="80" height="20" fill="#fff" stroke="#00f"/><text class="Text" transform="translate(40,13)" fill="#00f"  font-size="10px"  text-anchor="middle"><tspan x="0" y="0">glycine</tspan></text></a><a class="Metabolite ChEBI_CHEBI_15422  " transform="translate(229.33 87.667)" color="#00f"  name="ATP"  ><rect class="Icon" transform="matrix(.98765 0 0 .95238 .49383 .47619)" width="80" height="20" fill="#fff" stroke="#00f"/><text class="Text" transform="translate(40,13)" fill="#00f"  font-size="10px"  text-anchor="middle"><tspan x="0" y="0">ATP</tspan></text></a><a class="Metabolite ChEBI_CHEBI_30746  " transform="translate(153 49.667)" color="#3333ff"  name="Benzoic acid"  ><rect class="Icon" transform="matrix(.98765 0 0 .95238 .49383 .47619)" width="80" height="20" fill="#fff" stroke="#33f"/><text class="Text" transform="translate(40,13)" fill="#3333ff"  font-size="10px"  text-anchor="middle"><tspan x="0" y="0">Benzoic acid</tspan></text></a><a class="Metabolite ChEBI_CHEBI_15515  " transform="translate(153.33 285)" color="#00f"  name="Benzoyl-CoA"  ><rect class="Icon" transform="matrix(.98765 0 0 .95238 .49383 .47619)" width="80" height="20" fill="#fff" stroke="#00f"/><text class="Text" transform="translate(40,13)" fill="#00f"  font-size="10px"  text-anchor="middle"><tspan x="0" y="0">Benzoyl-CoA</tspan></text></a><a class="Metabolite ChEBI_CHEBI_16027  " transform="translate(255.27 217.97)" color="#00f"  name="AMP"  ><rect class="Icon" transform="matrix(.98765 0 0 .95238 .49383 .47619)" width="80" height="20" fill="#fff" stroke="#00f"/><text class="Text" transform="translate(40,13)" fill="#00f"  font-size="10px"  text-anchor="middle"><tspan x="0" y="0">AMP</tspan></text></a><a class="Metabolite ChEBI_CHEBI_30746  " transform="translate(130 179.67)" color="#3333ff"  name="Benzoic acid AMP ester"  ><rect class="Icon" transform="matrix(.99213 0 0 .95238 .49606 .47619)" width="126" height="20" fill="#fff" stroke="#33f"/><text class="Text" transform="translate(63,13)" fill="#3333ff"  font-size="10px"  text-anchor="middle"><tspan x="0" y="0">Benzoic acid AMP ester</tspan></text></a><g class="GroupGroup" transform="translate(222.67 121.67)" color="grey" ><use class="Icon" width="96" height="56" fill="transparent"  stroke="grey" stroke-dasharray="5,3" stroke-width="0" xlink:href="#c"/><a class="Metabolite ChEBI_CHEBI_26078  " transform="translate(8,28)" color="#00f"  name="Phosphate"  ><rect class="Icon" transform="matrix(.98765 0 0 .95238 .49383 .47619)" width="80" height="20" fill="#fff" stroke="#00f"/><text class="Text" transform="translate(40,13)" fill="#00f"  font-size="10px"  text-anchor="middle"><tspan x="0" y="0">Phosphate</tspan></text></a><a class="Metabolite ChEBI_CHEBI_26078  " transform="translate(8,8)" color="#00f"  name="Phosphate"  ><rect class="Icon" transform="matrix(.98765 0 0 .95238 .49383 .47619)" width="80" height="20" fill="#fff" stroke="#00f"/><text class="Text" transform="translate(40,13)" fill="#00f"  font-size="10px"  text-anchor="middle"><tspan x="0" y="0">Phosphate</tspan></text></a></g><g class="GroupComplex" transform="translate(25,291)" color="grey" ><use class="Icon" transform="matrix(.99048 0 0 .98824 .49524 .49412)" width="104" height="84" fill="#b4b464" fill-opacity=".1" stroke="grey" xlink:href="#f"/><a  class="GeneProduct P594_ENSMUSG00000063683 " transform="translate(12,12)"   name="Glyat"  ><rect class="Icon" transform="matrix(.98765 0 0 .95238 .49383 .47619)" width="80" height="20" fill="#fff" stroke="#000"/><text class="Text" transform="translate(40,13)"   font-size="10px"  text-anchor="middle"><tspan x="0" y="0">Glyat</tspan></text></a><g class="GeneProduct" transform="translate(12,52)" color="#000"  name="GLYATL2"><rect class="Icon" transform="matrix(.98765 0 0 .95238 .49383 .47619)" width="80" height="20" fill="#fff" stroke="#000"/><text class="Text" transform="translate(40,13)"   font-size="10px"  text-anchor="middle"><tspan x="0" y="0">GLYATL2</tspan></text></g><g class="GeneProduct" transform="translate(12,32)" color="#000"  name="GLYATL1"><rect class="Icon" transform="matrix(.98765 0 0 .95238 .49383 .47619)" width="80" height="20" fill="#fff" stroke="#000"/><text class="Text" transform="translate(40,13)"   font-size="10px"  text-anchor="middle"><tspan x="0" y="0">GLYATL1</tspan></text></g></g><text class="Text" transform="translate(5,36)" dominant-baseline="central" fill="black"  font-size="12px" font-weight="bold" overflow="visible" ><tspan x="0" y="-18">Name: Amino acid conjugation of benzoic acid</tspan> <tspan x="0" y="0">Last Modified: 2/21/2013</tspan> <tspan x="0" y="18">Organism: Mus musculus</tspan></text></g></svg>
