<?xml version="1.0" encoding="UTF-8"?>
<svg xmlns="http://www.w3.org/2000/svg" xmlns:xlink="http://www.w3.org/1999/xlink" prefix="schema:http://schema.org/" id="wp1455-svg" version="1.1" baseProfile="full" preserveAspectRatio="xMidYMid" color="black" class="Diagram" viewBox="0 0 605 353" width="800px" height="600px" vocab="http://vocabularies.wikipathways.org/wp#">
  <style type="text/css">
</style>
  <defs>
    <g id="jit-defs">
      <filter x="0" y="0" height="353" width="605" id="kaaviowhitetofffffffilter" filterUnits="userSpaceOnUse">
        <feColorMatrix type="matrix" in="SourceGraphic" values="1  0  0 0 -1                  0  1  0 0 -1                  0  0  1 0 -1                  0  0  0 1 0"/>
      </filter>
      <filter x="0" y="0" height="353" width="605" id="kaavioblacktofffffffilter" filterUnits="userSpaceOnUse">
        <feColorMatrix type="matrix" in="SourceGraphic" values="-1   0   0 0 1                   0  -1   0 0 1                   0   0  -1 0 1                   0   0   0 1 0"/>
      </filter>
      <filter x="0" y="0" height="353" width="605" id="kaaviowhiteto000000filter" filterUnits="userSpaceOnUse">
        <feColorMatrix type="matrix" in="SourceGraphic" values="1  0  0 0 -0                  0  1  0 0 -0                  0  0  1 0 -0                  0  0  0 1 0"/>
      </filter>
      <filter x="0" y="0" height="353" width="605" id="kaavioblackto000000filter" filterUnits="userSpaceOnUse">
        <feColorMatrix type="matrix" in="SourceGraphic" values="-1   0   0 0 0                   0  -1   0 0 0                   0   0  -1 0 0                   0   0   0 1 0"/>
      </filter>
      <filter x="0" y="0" height="353" width="605" id="kaaviowhiteto0000fffilter" filterUnits="userSpaceOnUse">
        <feColorMatrix type="matrix" in="SourceGraphic" values="1  0  0 0 -0                  0  1  0 0 -0                  0  0  1 0 -1                  0  0  0 1 0"/>
      </filter>
      <filter x="0" y="0" height="353" width="605" id="kaavioblackto0000fffilter" filterUnits="userSpaceOnUse">
        <feColorMatrix type="matrix" in="SourceGraphic" values="-1   0   0 0 0                   0  -1   0 0 0                   0   0  -1 0 1                   0   0   0 1 0"/>
      </filter>
    </g>
    <g id="jic-defs">
      <clipPath id="ClipPathRoundedRectangle" clipPathUnits="objectBoundingBox">
        <rect width="1" height="1" rx=".125" ry=".25"/>
      </clipPath>
      <filter id="BlackToRed" width="100%" height="100%" x="0" y="0" filterUnits="userSpaceOnUse">
        <feComponentTransfer>
          <feFuncR intercept="1" type="linear"/>
          <feFuncG intercept="1" slope="-1" type="linear"/>
          <feFuncB intercept="1" slope="-1" type="linear"/>
        </feComponentTransfer>
      </filter>
      <filter id="BlackToGreen" width="100%" height="100%" x="0" y="0" filterUnits="userSpaceOnUse">
        <feComponentTransfer>
          <feFuncR intercept="1" type="linear"/>
          <feFuncG intercept="1" slope="-1" type="linear"/>
          <feFuncB intercept="1" slope="-1" type="linear"/>
        </feComponentTransfer>
      </filter>
      <filter id="Invert100" width="200%" height="200%" x="-100%" y="-100%" filterUnits="userSpaceOnUse">
        <feColorMatrix in="SourceGraphic" values="-1 0 0 0 1 0 -1 0 0 1 0 0 -1 0 1 0 0 0 1 0"/>
      </filter>
      <filter id="Invert95" width="200%" height="200%" x="-50%" y="-50%" filterUnits="userSpaceOnUse">
        <feComponentTransfer>
          <feFuncR tableValues="1 0.05" type="table"/>
          <feFuncG tableValues="1 0.05" type="table"/>
          <feFuncB tableValues="1 0.05" type="table"/>
        </feComponentTransfer>
      </filter>
      <filter id="WhiteTo33BFFF" width="100%" height="100%" x="0" y="0" filterUnits="userSpaceOnUse">
        <feColorMatrix in="SourceGraphic" values="1 0 0 0 0 0 1 0 0 0 0 0 1 0 0 0 0 0 1 0"/>
      </filter>
      <filter id="WhiteToRed" width="100%" height="100%" x="0" y="0" filterUnits="userSpaceOnUse">
        <feComponentTransfer>
          <feFuncR type="linear"/>
          <feFuncG intercept="1" slope="-.95" type="linear"/>
          <feFuncB intercept="1" slope="-1" type="linear"/>
        </feComponentTransfer>
      </filter>
      <filter id="WhiteToGreen" width="100%" height="100%" x="0" y="0" filterUnits="userSpaceOnUse">
        <feComponentTransfer>
          <feFuncR intercept="1" slope="-1" type="linear"/>
          <feFuncG type="linear"/>
          <feFuncB intercept="1" slope="-.95" type="linear"/>
        </feComponentTransfer>
      </filter>
      <marker id="markerArrow" stroke-dasharray="99999" markerHeight="12" markerUnits="userSpaceOnUse" markerWidth="12" orient="auto" preserveAspectRatio="none" refX="6" refY="6" viewBox="0 0 12 12">
        <path stroke-width="0" d="M12 11L0 6l12-5z" transform="rotate(180 6 6)" fill="currentColor"/>
      </marker>
      <marker id="markerStartArrow" stroke-dasharray="99999" markerHeight="12" markerUnits="userSpaceOnUse" markerWidth="12" orient="auto" preserveAspectRatio="none" refX="0" refY="6" viewBox="0 0 12 12">
        <path stroke-width="0" d="M12 11L0 6l12-5z" fill="currentColor"/>
      </marker>
      <marker id="markerMidArrow" stroke-dasharray="99999" markerHeight="12" markerUnits="userSpaceOnUse" markerWidth="12" orient="auto" preserveAspectRatio="none" refX="6" refY="6" viewBox="0 0 12 12">
        <path stroke-width="0" d="M12 11L0 6l12-5z" transform="rotate(180 6 6)" fill="currentColor"/>
      </marker>
      <marker id="markerEndArrow" stroke-dasharray="99999" markerHeight="12" markerUnits="userSpaceOnUse" markerWidth="12" orient="auto" preserveAspectRatio="none" refX="12" refY="6" viewBox="0 0 12 12">
        <path stroke-width="0" d="M12 11L0 6l12-5z" transform="rotate(180 6 6)" fill="currentColor"/>
      </marker>
      <marker id="markerMimBinding" stroke-dasharray="99999" markerHeight="12" markerUnits="userSpaceOnUse" markerWidth="12" orient="auto" preserveAspectRatio="none" refX="6" refY="6" viewBox="0 0 12 12">
        <path stroke-width="0" d="M12 12L0 6l12-6-7 6z" transform="rotate(180 6 6)" fill="currentColor"/>
      </marker>
      <marker id="markerStartMimBinding" stroke-dasharray="99999" markerHeight="12" markerUnits="userSpaceOnUse" markerWidth="12" orient="auto" preserveAspectRatio="none" refX="0" refY="6" viewBox="0 0 12 12">
        <path stroke-width="0" d="M12 12L0 6l12-6-7 6z" fill="currentColor"/>
      </marker>
      <marker id="markerMidMimBinding" stroke-dasharray="99999" markerHeight="12" markerUnits="userSpaceOnUse" markerWidth="12" orient="auto" preserveAspectRatio="none" refX="6" refY="6" viewBox="0 0 12 12">
        <path stroke-width="0" d="M12 12L0 6l12-6-7 6z" transform="rotate(180 6 6)" fill="currentColor"/>
      </marker>
      <marker id="markerEndMimBinding" stroke-dasharray="99999" markerHeight="12" markerUnits="userSpaceOnUse" markerWidth="12" orient="auto" preserveAspectRatio="none" refX="12" refY="6" viewBox="0 0 12 12">
        <path stroke-width="0" d="M12 12L0 6l12-6-7 6z" transform="rotate(180 6 6)" fill="currentColor"/>
      </marker>
      <marker id="markerMimCatalysis" stroke-dasharray="99999" markerHeight="12" markerUnits="userSpaceOnUse" markerWidth="12" orient="auto" preserveAspectRatio="none" refX="6" refY="6" viewBox="0 0 12 12">
        <circle cx="6" cy="6" r="5.3" fill="none" stroke="#000" transform="rotate(180 6 6)"/>
      </marker>
      <marker id="markerStartMimCatalysis" stroke-dasharray="99999" markerHeight="12" markerUnits="userSpaceOnUse" markerWidth="12" orient="auto" preserveAspectRatio="none" refX="0" refY="6" viewBox="0 0 12 12">
        <circle cx="6" cy="6" r="5.3" fill="none" stroke="#000"/>
      </marker>
      <marker id="markerMidMimCatalysis" stroke-dasharray="99999" markerHeight="12" markerUnits="userSpaceOnUse" markerWidth="12" orient="auto" preserveAspectRatio="none" refX="6" refY="6" viewBox="0 0 12 12">
        <circle cx="6" cy="6" r="5.3" fill="none" stroke="#000" transform="rotate(180 6 6)"/>
      </marker>
      <marker id="markerEndMimCatalysis" stroke-dasharray="99999" markerHeight="12" markerUnits="userSpaceOnUse" markerWidth="12" orient="auto" preserveAspectRatio="none" refX="12" refY="6" viewBox="0 0 12 12">
        <circle cx="6" cy="6" r="5.3" fill="none" stroke="#000" transform="rotate(180 6 6)"/>
      </marker>
      <marker id="markerMimCleavage" stroke-dasharray="99999" markerHeight="30" markerUnits="userSpaceOnUse" markerWidth="20" orient="auto" preserveAspectRatio="none" refX="10" refY="15" viewBox="0 0 20 30">
        <g stroke="#000" transform="rotate(180 10 15)">
          <path d="M18 14.5V30M18 30L0 0"/>
        </g>
      </marker>
      <marker id="markerStartMimCleavage" stroke-dasharray="99999" markerHeight="30" markerUnits="userSpaceOnUse" markerWidth="20" orient="auto" preserveAspectRatio="none" refX="0" refY="15" viewBox="0 0 20 30">
        <g stroke="#000">
          <path d="M18 14.5V30M18 30L0 0"/>
        </g>
      </marker>
      <marker id="markerMidMimCleavage" stroke-dasharray="99999" markerHeight="30" markerUnits="userSpaceOnUse" markerWidth="20" orient="auto" preserveAspectRatio="none" refX="10" refY="15" viewBox="0 0 20 30">
        <g stroke="#000" transform="rotate(180 10 15)">
          <path d="M18 14.5V30M18 30L0 0"/>
        </g>
      </marker>
      <marker id="markerEndMimCleavage" stroke-dasharray="99999" markerHeight="30" markerUnits="userSpaceOnUse" markerWidth="20" orient="auto" preserveAspectRatio="none" refX="20" refY="15" viewBox="0 0 20 30">
        <g stroke="#000" transform="rotate(180 10 15)">
          <path d="M18 14.5V30M18 30L0 0"/>
        </g>
      </marker>
      <marker id="markerMimConversion" stroke-dasharray="99999" markerHeight="12" markerUnits="userSpaceOnUse" markerWidth="12" orient="auto" preserveAspectRatio="none" refX="6" refY="6" viewBox="0 0 12 12">
        <path stroke-width="0" d="M12 11L0 6l12-5z" transform="rotate(180 6 6)" fill="currentColor"/>
      </marker>
      <marker id="markerStartMimConversion" stroke-dasharray="99999" markerHeight="12" markerUnits="userSpaceOnUse" markerWidth="12" orient="auto" preserveAspectRatio="none" refX="0" refY="6" viewBox="0 0 12 12">
        <path stroke-width="0" d="M12 11L0 6l12-5z" fill="currentColor"/>
      </marker>
      <marker id="markerMidMimConversion" stroke-dasharray="99999" markerHeight="12" markerUnits="userSpaceOnUse" markerWidth="12" orient="auto" preserveAspectRatio="none" refX="6" refY="6" viewBox="0 0 12 12">
        <path stroke-width="0" d="M12 11L0 6l12-5z" transform="rotate(180 6 6)" fill="currentColor"/>
      </marker>
      <marker id="markerEndMimConversion" stroke-dasharray="99999" markerHeight="12" markerUnits="userSpaceOnUse" markerWidth="12" orient="auto" preserveAspectRatio="none" refX="12" refY="6" viewBox="0 0 12 12">
        <path stroke-width="0" d="M12 11L0 6l12-5z" transform="rotate(180 6 6)" fill="currentColor"/>
      </marker>
      <marker id="markerMimCovalentBond" stroke-dasharray="99999" markerHeight="12" markerUnits="userSpaceOnUse" markerWidth="12" orient="auto" preserveAspectRatio="none" refX="6" refY="6" viewBox="0 0 12 12">
        <path fill="none" stroke="#000" d="M11 1H1v10h10"/>
      </marker>
      <marker id="markerStartMimCovalentBond" stroke-dasharray="99999" markerHeight="12" markerUnits="userSpaceOnUse" markerWidth="12" orient="auto" preserveAspectRatio="none" refX="0" refY="6" viewBox="0 0 12 12">
        <path fill="none" stroke="#000" d="M11 1H1v10h10" transform="rotate(180 6 6)"/>
      </marker>
      <marker id="markerMidMimCovalentBond" stroke-dasharray="99999" markerHeight="12" markerUnits="userSpaceOnUse" markerWidth="12" orient="auto" preserveAspectRatio="none" refX="6" refY="6" viewBox="0 0 12 12">
        <path fill="none" stroke="#000" d="M11 1H1v10h10"/>
      </marker>
      <marker id="markerEndMimCovalentBond" stroke-dasharray="99999" markerHeight="12" markerUnits="userSpaceOnUse" markerWidth="12" orient="auto" preserveAspectRatio="none" refX="12" refY="6" viewBox="0 0 12 12">
        <path fill="none" stroke="#000" d="M11 1H1v10h10"/>
      </marker>
      <marker id="markerMimGap" stroke-dasharray="99999" markerHeight="12" markerUnits="userSpaceOnUse" markerWidth="12" orient="auto" preserveAspectRatio="none" refX="6" refY="6" viewBox="0 0 12 12">
        <path fill="none" d="M0 5.3h8v1.4H0z" transform="rotate(180 6 6)"/>
      </marker>
      <marker id="markerStartMimGap" stroke-dasharray="99999" markerHeight="12" markerUnits="userSpaceOnUse" markerWidth="12" orient="auto" preserveAspectRatio="none" refX="0" refY="6" viewBox="0 0 12 12">
        <path fill="none" d="M0 5.3h8v1.4H0z"/>
      </marker>
      <marker id="markerMidMimGap" stroke-dasharray="99999" markerHeight="12" markerUnits="userSpaceOnUse" markerWidth="12" orient="auto" preserveAspectRatio="none" refX="6" refY="6" viewBox="0 0 12 12">
        <path fill="none" d="M0 5.3h8v1.4H0z" transform="rotate(180 6 6)"/>
      </marker>
      <marker id="markerEndMimGap" stroke-dasharray="99999" markerHeight="12" markerUnits="userSpaceOnUse" markerWidth="12" orient="auto" preserveAspectRatio="none" refX="12" refY="6" viewBox="0 0 12 12">
        <path fill="none" d="M0 5.3h8v1.4H0z" transform="rotate(180 6 6)"/>
      </marker>
      <marker id="markerMimInhibition" stroke-dasharray="99999" markerHeight="20" markerUnits="userSpaceOnUse" markerWidth="10" orient="auto" preserveAspectRatio="none" refX="5" refY="10" viewBox="0 0 10 20">
        <path stroke="currentColor" d="M3 0v20" fill="currentColor"/>
      </marker>
      <marker id="markerStartMimInhibition" stroke-dasharray="99999" markerHeight="20" markerUnits="userSpaceOnUse" markerWidth="10" orient="auto" preserveAspectRatio="none" refX="0" refY="10" viewBox="0 0 10 20">
        <path stroke="currentColor" d="M3 0v20" transform="rotate(180 5 10)" fill="currentColor"/>
      </marker>
      <marker id="markerMidMimInhibition" stroke-dasharray="99999" markerHeight="20" markerUnits="userSpaceOnUse" markerWidth="10" orient="auto" preserveAspectRatio="none" refX="5" refY="10" viewBox="0 0 10 20">
        <path stroke="currentColor" d="M3 0v20" fill="currentColor"/>
      </marker>
      <marker id="markerEndMimInhibition" stroke-dasharray="99999" markerHeight="20" markerUnits="userSpaceOnUse" markerWidth="10" orient="auto" preserveAspectRatio="none" refX="10" refY="10" viewBox="0 0 10 20">
        <path stroke="currentColor" d="M3 0v20" fill="currentColor"/>
      </marker>
      <marker id="markerMimModification" stroke-dasharray="99999" markerHeight="12" markerUnits="userSpaceOnUse" markerWidth="12" orient="auto" preserveAspectRatio="none" refX="6" refY="6" viewBox="0 0 12 12">
        <path stroke-width="0" d="M0 6l11 5V1z" transform="rotate(180 6 6)" fill="currentColor"/>
      </marker>
      <marker id="markerStartMimModification" stroke-dasharray="99999" markerHeight="12" markerUnits="userSpaceOnUse" markerWidth="12" orient="auto" preserveAspectRatio="none" refX="0" refY="6" viewBox="0 0 12 12">
        <path stroke-width="0" d="M0 6l11 5V1z" fill="currentColor"/>
      </marker>
      <marker id="markerMidMimModification" stroke-dasharray="99999" markerHeight="12" markerUnits="userSpaceOnUse" markerWidth="12" orient="auto" preserveAspectRatio="none" refX="6" refY="6" viewBox="0 0 12 12">
        <path stroke-width="0" d="M0 6l11 5V1z" transform="rotate(180 6 6)" fill="currentColor"/>
      </marker>
      <marker id="markerEndMimModification" stroke-dasharray="99999" markerHeight="12" markerUnits="userSpaceOnUse" markerWidth="12" orient="auto" preserveAspectRatio="none" refX="12" refY="6" viewBox="0 0 12 12">
        <path stroke-width="0" d="M0 6l11 5V1z" transform="rotate(180 6 6)" fill="currentColor"/>
      </marker>
      <marker id="markerMimNecessaryStimulation" stroke-dasharray="99999" markerHeight="12" markerUnits="userSpaceOnUse" markerWidth="16" orient="auto" preserveAspectRatio="none" refX="8" refY="6" viewBox="0 0 16 12">
        <g fill="none" transform="rotate(180 8 6)">
          <path stroke="#000" d="M14 0v12"/>
          <path d="M16 6"/>
          <path stroke="#000" d="M0 6l9 5V1z"/>
        </g>
      </marker>
      <marker id="markerStartMimNecessaryStimulation" stroke-dasharray="99999" markerHeight="12" markerUnits="userSpaceOnUse" markerWidth="16" orient="auto" preserveAspectRatio="none" refX="0" refY="6" viewBox="0 0 16 12">
        <g fill="none">
          <path stroke="#000" d="M14 0v12"/>
          <path d="M16 6"/>
          <path stroke="#000" d="M0 6l9 5V1z"/>
        </g>
      </marker>
      <marker id="markerMidMimNecessaryStimulation" stroke-dasharray="99999" markerHeight="12" markerUnits="userSpaceOnUse" markerWidth="16" orient="auto" preserveAspectRatio="none" refX="8" refY="6" viewBox="0 0 16 12">
        <g fill="none" transform="rotate(180 8 6)">
          <path stroke="#000" d="M14 0v12"/>
          <path d="M16 6"/>
          <path stroke="#000" d="M0 6l9 5V1z"/>
        </g>
      </marker>
      <marker id="markerEndMimNecessaryStimulation" stroke-dasharray="99999" markerHeight="12" markerUnits="userSpaceOnUse" markerWidth="16" orient="auto" preserveAspectRatio="none" refX="16" refY="6" viewBox="0 0 16 12">
        <g fill="none" transform="rotate(180 8 6)">
          <path stroke="#000" d="M14 0v12"/>
          <path d="M16 6"/>
          <path stroke="#000" d="M0 6l9 5V1z"/>
        </g>
      </marker>
      <marker id="markerMimStimulation" stroke-dasharray="99999" markerHeight="12" markerUnits="userSpaceOnUse" markerWidth="12" orient="auto" preserveAspectRatio="none" refX="6" refY="6" viewBox="0 0 12 12">
        <g fill="none" transform="rotate(180 6 6)">
          <path d="M12 6"/>
          <path stroke="#000" d="M0 6l11 5V1z"/>
        </g>
      </marker>
      <marker id="markerStartMimStimulation" stroke-dasharray="99999" markerHeight="12" markerUnits="userSpaceOnUse" markerWidth="12" orient="auto" preserveAspectRatio="none" refX="0" refY="6" viewBox="0 0 12 12">
        <g fill="none">
          <path d="M12 6"/>
          <path stroke="#000" d="M0 6l11 5V1z"/>
        </g>
      </marker>
      <marker id="markerMidMimStimulation" stroke-dasharray="99999" markerHeight="12" markerUnits="userSpaceOnUse" markerWidth="12" orient="auto" preserveAspectRatio="none" refX="6" refY="6" viewBox="0 0 12 12">
        <g fill="none" transform="rotate(180 6 6)">
          <path d="M12 6"/>
          <path stroke="#000" d="M0 6l11 5V1z"/>
        </g>
      </marker>
      <marker id="markerEndMimStimulation" stroke-dasharray="99999" markerHeight="12" markerUnits="userSpaceOnUse" markerWidth="12" orient="auto" preserveAspectRatio="none" refX="12" refY="6" viewBox="0 0 12 12">
        <g fill="none" transform="rotate(180 6 6)">
          <path d="M12 6"/>
          <path stroke="#000" d="M0 6l11 5V1z"/>
        </g>
      </marker>
      <marker id="markerMimTranscriptionTranslation" stroke-dasharray="99999" markerHeight="24" markerUnits="userSpaceOnUse" markerWidth="20" orient="auto" preserveAspectRatio="none" refX="10" refY="12" viewBox="0 0 20 24">
        <g fill="none" stroke="#000" transform="rotate(180 10 12)">
          <path d="M15 12V5M15.5 5H8M0 5l8-4v8z"/>
        </g>
      </marker>
      <marker id="markerStartMimTranscriptionTranslation" stroke-dasharray="99999" markerHeight="24" markerUnits="userSpaceOnUse" markerWidth="20" orient="auto" preserveAspectRatio="none" refX="0" refY="12" viewBox="0 0 20 24">
        <g fill="none" stroke="#000">
          <path d="M15 12V5M15.5 5H8M0 5l8-4v8z"/>
        </g>
      </marker>
      <marker id="markerMidMimTranscriptionTranslation" stroke-dasharray="99999" markerHeight="24" markerUnits="userSpaceOnUse" markerWidth="20" orient="auto" preserveAspectRatio="none" refX="10" refY="12" viewBox="0 0 20 24">
        <g fill="none" stroke="#000" transform="rotate(180 10 12)">
          <path d="M15 12V5M15.5 5H8M0 5l8-4v8z"/>
        </g>
      </marker>
      <marker id="markerEndMimTranscriptionTranslation" stroke-dasharray="99999" markerHeight="24" markerUnits="userSpaceOnUse" markerWidth="20" orient="auto" preserveAspectRatio="none" refX="20" refY="12" viewBox="0 0 20 24">
        <g fill="none" stroke="#000" transform="rotate(180 10 12)">
          <path d="M15 12V5M15.5 5H8M0 5l8-4v8z"/>
        </g>
      </marker>
      <marker id="markerTBar" stroke-dasharray="99999" markerHeight="20" markerUnits="userSpaceOnUse" markerWidth="10" orient="auto" preserveAspectRatio="none" refX="5" refY="10" viewBox="0 0 10 20">
        <path stroke="currentColor" d="M3 0v20" fill="currentColor"/>
      </marker>
      <marker id="markerStartTBar" stroke-dasharray="99999" markerHeight="20" markerUnits="userSpaceOnUse" markerWidth="10" orient="auto" preserveAspectRatio="none" refX="0" refY="10" viewBox="0 0 10 20">
        <path stroke="currentColor" d="M3 0v20" transform="rotate(180 5 10)" fill="currentColor"/>
      </marker>
      <marker id="markerMidTBar" stroke-dasharray="99999" markerHeight="20" markerUnits="userSpaceOnUse" markerWidth="10" orient="auto" preserveAspectRatio="none" refX="5" refY="10" viewBox="0 0 10 20">
        <path stroke="currentColor" d="M3 0v20" fill="currentColor"/>
      </marker>
      <marker id="markerEndTBar" stroke-dasharray="99999" markerHeight="20" markerUnits="userSpaceOnUse" markerWidth="10" orient="auto" preserveAspectRatio="none" refX="10" refY="10" viewBox="0 0 10 20">
        <path stroke="currentColor" d="M3 0v20" fill="currentColor"/>
      </marker>
      <symbol id="ArcPathVisio" overflow="visible" preserveAspectRatio="none" viewBox="0 0 100 100">
        <path stroke="currentColor" d="M99.5 50c0 27.338-22.162 49.5-49.5 49.5S.5 77.338.5 50" vector-effect="non-scaling-stroke"/>
      </symbol>
      <symbol id="Brace" overflow="visible" preserveAspectRatio="none" viewBox="0 0 100 100">
        <path stroke="currentColor" d="M1.5 49.5c0-16.167 8.167-24.25 24.5-24.25S50.5 17.167 50.5 1c0 16.167 8.167 24.25 24.5 24.25s24.5 8.083 24.5 24.25" vector-effect="non-scaling-stroke"/>
      </symbol>
      <symbol id="Complex" overflow="visible" preserveAspectRatio="none" viewBox="0 0 100 100">
        <path stroke="currentColor" d="M0 25L25 0h50l25 25v50l-25 25H25L0 75z" vector-effect="non-scaling-stroke"/>
      </symbol>
      <symbol id="Ellipse" overflow="visible" preserveAspectRatio="none" viewBox="0 0 50 50">
        <ellipse cx="25" cy="25" stroke="currentColor" rx="25" ry="25" vector-effect="non-scaling-stroke"/>
      </symbol>
      <symbol id="EndoplasmicReticulum" overflow="visible" preserveAspectRatio="none" viewBox="0 0 100 100">
        <path stroke="currentColor" d="M73.528 56.61c-5.625-18.607 23.514-32.434 23.401-45.066-.344-4.861-10.49-8.898-18.29-5.334C61.6 14.085 62.99 35.515 57.435 48.444c-.356 3.61-7.363 2.469-7.75-.487-5.85-11.39 17.136-24.487 5.961-29.426-19.634-8.17-28.752 21.153-22.068 28.818 7.496 14.176-2.18 24.406-6.747 15.496-2.442-5.306 6.066-11.084-.803-16.177-4.32-2.8-11.756-.646-16.155 3.094C-3.019 60.5 14.602 90.744 30.837 85.91c4.698-1.96-3.236-8.702 3.907-9.6 7.298-.812 5.176 6.19 7.687 9.227 2.307 4.051 4.833 8.355 10.763 11.624 4.786 2.537 15.294 2.112 16.771-1.958 2.032-9.263-26.11-28.359-10.689-31.282 18.556-2.714 4.749 23.846 24.31 29.695 9.502 2.028 15.64-.622 14.813-4.033-2.746-11.263-25.136-22.68-24.964-33.15" vector-effect="non-scaling-stroke"/>
      </symbol>
      <symbol id="HexagonPathVisio" overflow="visible" preserveAspectRatio="none" viewBox="0 8 100 86">
        <path stroke="currentColor" d="M1.42 50.996l21.073-42.14h56.191l21.067 42.14-21.067 42.145H22.493L1.42 50.996z" transform="scale(1 .85)" vector-effect="non-scaling-stroke"/>
      </symbol>
      <symbol id="GolgiApparatus" overflow="visible" preserveAspectRatio="none" viewBox="0 0 100 100">
        <path stroke="currentColor" d="M58.467 27.713c-22.205-29.9 37.31-30.258 25.567-4.823-8.807 18.581-17.066 58.135-.941 99.22 13.314 27.067-41.749 27.761-27.756-1.47 11.346-29.42 10.287-80.336 3.13-92.927z" vector-effect="non-scaling-stroke"/>
        <path stroke="currentColor" d="M31.214 36.214c-10.791-21.428 29.898-19.848 18.408.671-4.067 7.423-5.783 61.573 1.16 75.03 8.53 18.596-32.852 19.354-20.5-2.252 6.953-17.358 10.474-52.29.932-73.449z" vector-effect="non-scaling-stroke"/>
        <path stroke="currentColor" d="M29.804 52.16c1.584 11.476 2.723 16.738-1.483 38.362-3.732 12.99-3.6 16.341-11.732 19.413-6.684 1.659-11.865-9.79-4.794-16.114 4.856-5.623 6.141-10.882 6.66-22.954-.24-9.522.814-15.824-5.368-19.959C5.463 48.713 7 34.373 17.911 37.044c5.85 1.027 10.283 8.562 11.893 15.117z" vector-effect="non-scaling-stroke"/>
      </symbol>
      <symbol id="MimDegradation" overflow="visible" preserveAspectRatio="none" viewBox="0 0 100 100">
        <circle cx="50" cy="50" r="49" stroke="currentColor" vector-effect="non-scaling-stroke"/>
        <path stroke="currentColor" d="M1 1l99 99" vector-effect="non-scaling-stroke"/>
      </symbol>
      <symbol id="Mitochondria" overflow="visible" preserveAspectRatio="none" viewBox="0 0 100 100">
        <ellipse cx="50" cy="50" stroke="currentColor" rx="50" ry="50"/>
        <path stroke="currentColor" d="M14.895 26.347c4.364-.741 3.827 17.037 8.183 16.184 8.273.03 2.982-28.149 9.9-28.337 6.967-.187 2.246 29.948 9.204 29.44 7.633-.56.508-32.935 8.137-33.623 7.698-.689 2.919 32.04 10.628 32.225 6.547.16 3.026-27.643 9.56-26.921 7.193.793.665 29.842 7.782 31.667 4.748 1.216 4.42-18.258 9.204-17.44 11.129 7.577 8.628 37.698-2.18 44.644-3.138.699-3.966-10.502-7.113-9.905-5.59 1.059-3.982 22.284-9.603 21.8-5.24-.457-2.226-21.637-7.47-21.73-6.962-.117-3.358 28.924-10.317 28.495-6.14-.376-1.73-24.95-7.825-26.192-5.682-1.157-5.378 22.17-11.027 20.68-6.25-1.644-.47-26.673-6.76-27.865-3.728-.706-2.647 14.4-6.403 14.545-14.016-5.939-15.749-39.708-3.9-47.667z" vector-effect="non-scaling-stroke"/>
      </symbol>
      <symbol id="Octagon" overflow="visible" preserveAspectRatio="none" viewBox="0 0 100 100">
        <path stroke="currentColor" d="M0 25L25 0h50l25 25v50l-25 25H25L0 75z" vector-effect="non-scaling-stroke"/>
      </symbol>
      <symbol id="PentagonPathVisio" overflow="visible" preserveAspectRatio="none" viewBox="0 0 100 100">
        <path stroke="currentColor" d="M59.16 99.613L95 50.283 59.16.953 1.169 19.796V80.77z" transform="matrix(.95 0 0 1 8 0)" vector-effect="non-scaling-stroke"/>
      </symbol>
      <symbol id="Rectangle" overflow="visible" preserveAspectRatio="none" viewBox="0 0 100 100">
        <path stroke="currentColor" d="M0 0h100v100H0z" vector-effect="non-scaling-stroke"/>
      </symbol>
      <symbol id="RoundedRectangle" overflow="visible" preserveAspectRatio="none" viewBox="0 0 100 100">
        <rect width="100" height="100" stroke="currentColor" rx="15" ry="15" vector-effect="non-scaling-stroke"/>
      </symbol>
      <symbol id="SarcoplasmicReticulum" overflow="visible" preserveAspectRatio="none" viewBox="0 0 100 100">
        <path d="M46.602 1.407C14.23 2.75 10.282 24.177 20.099 39.535c9.318 18.343-18.766 30.15 2.57 49.378 16.82 13.116 46.33 6.105 52.126-8.568 5.899-15.249-10.951-26.027-3.294-40.962 10.854-19.884-.776-38.13-24.9-37.976z" vector-effect="non-scaling-stroke"/>
      </symbol>
      <symbol id="TrianglePathVisio" overflow="visible" preserveAspectRatio="none" viewBox="0 0 50 50">
        <path stroke="currentColor" d="M14.5 3.3v43.4L61 25z" vector-effect="non-scaling-stroke"/>
      </symbol>
      <symbol id="none" preserveAspectRatio="none" viewBox="0 0 100 100"/>
    </g>
  </defs>
  <g id="WP1455" about="WP1455" class="Viewport" color="black" name="Name: Serotonin transporter activity License: CC BY 2.0 Organism: Homo sapiens">
    <rect fill="white" stroke="black" stroke-width="0" fill-opacity="1" height="353px" id="WP1455-icon" width="605px" x="0" y="0" transform="matrix(1, 0, 0, 1, 0, 0)" class="Icon"/>
    <g id="id12e26589" about="id12e26589" class="Edge Interaction" color="#000000">
      <g filter="url(#kaavioblackto000000filter)" color="#000000" fill="transparent" fill-opacity="0" stroke="black" stroke-dasharray="109.62207806824317, 0" stroke-width="1">
        <path style="color:inherit;fill:inherit;fill-opacity:inherit;stroke:inherit;stroke-width:inherit" id="id12e26589" d="M181,169L270,105" class="EdgeBody"/>
      </g>
    </g>
    <g id="id1daa7d07" about="id1daa7d07" class="Edge Interaction" color="#000000">
      <g filter="url(#kaavioblackto000000filter)" color="#000000" fill="transparent" fill-opacity="0" stroke="black" stroke-dasharray="138.69751259485514, 0" stroke-width="1">
        <path style="color:inherit;fill:inherit;fill-opacity:inherit;stroke:inherit;stroke-width:inherit" id="id1daa7d07" d="M161,189L240,303" class="EdgeBody"/>
      </g>
    </g>
    <g id="id324bc54e" about="id324bc54e" class="Edge Interaction" color="#000000">
      <g filter="url(#kaavioblackto000000filter)" color="#000000" fill="transparent" fill-opacity="0" stroke="black" stroke-dasharray="92.86244606345932, 0" stroke-width="1">
        <path style="color:inherit;fill:inherit;fill-opacity:inherit;stroke:inherit;stroke-width:inherit" id="id324bc54e" d="M108.48333333333335,275.98333333333335L141,189" class="EdgeBody"/>
      </g>
    </g>
    <g id="id5ba1af8d" about="id5ba1af8d" class="Edge Interaction SBO_0000167 SBO_0000393 SBO_0000394 DirectedInteraction" color="#000000">
      <g filter="url(#kaavioblackto000000filter)" color="#000000" fill="transparent" fill-opacity="0" stroke="black" stroke-dasharray="244.2, 5.8" stroke-width="1">
        <path style="color:inherit;fill:inherit;fill-opacity:inherit;stroke:inherit;stroke-width:inherit" id="id5ba1af8d" d="M495,35L245,35" marker-end="url(#markerEndArrow)" class="EdgeBody"/>
      </g>
      <g id="ad4bc" about="ad4bc" class="Burr Anchor" transform="translate(395,35)">
        <use fill="#141414" stroke-width="0" fill-opacity="1" height="0" id="ad4bc-icon" width="0" x="0" y="0" xlink:href="#none" class="Icon"/>
      </g>
    </g>
    <g id="id6328f1c" about="id6328f1c" class="Edge Interaction" color="#000000">
      <g filter="url(#kaavioblackto000000filter)" color="#000000" fill="transparent" fill-opacity="0" stroke="black" stroke-dasharray="112.54915307102765, 7" stroke-width="1">
        <path style="color:inherit;fill:inherit;fill-opacity:inherit;stroke:inherit;stroke-width:inherit" id="id6328f1c" d="M125,55L161,169" marker-end="url(#markerEndMimInhibition)" class="EdgeBody"/>
      </g>
    </g>
    <g id="id6c15f063" about="id6c15f063" class="Edge Interaction" color="#000000">
      <g filter="url(#kaavioblackto000000filter)" color="#000000" fill="transparent" fill-opacity="0" stroke="black" stroke-dasharray="125.30122723077555, 1" stroke-width="1">
        <path style="color:inherit;fill:inherit;fill-opacity:inherit;stroke:inherit;stroke-width:inherit" id="id6c15f063" d="M205,45L181,169" marker-end="url(#markerEndMimBinding)" class="EdgeBody"/>
      </g>
    </g>
    <g id="id71bf00f3" about="id71bf00f3" class="Edge Interaction" color="#000000">
      <g filter="url(#kaavioblackto000000filter)" color="#000000" fill="transparent" fill-opacity="0" stroke="black" stroke-dasharray="107.28140824744777, 0" stroke-width="1">
        <path style="color:inherit;fill:inherit;fill-opacity:inherit;stroke:inherit;stroke-width:inherit" id="id71bf00f3" d="M61.483333333333334,96.98333333333333L141,169" class="EdgeBody"/>
      </g>
    </g>
    <g id="id82495ffb" about="id82495ffb" class="Edge Interaction" color="#000000">
      <g filter="url(#kaavioblackto000000filter)" color="#000000" fill="transparent" fill-opacity="0" stroke="black" stroke-dasharray="43, 7" stroke-width="1">
        <path style="color:inherit;fill:inherit;fill-opacity:inherit;stroke:inherit;stroke-width:inherit" id="id82495ffb" d="M395,35L395,85" marker-end="url(#markerEndMimInhibition)" class="EdgeBody"/>
      </g>
    </g>
    <g id="id82813149" about="id82813149" class="Edge Interaction" color="#000000">
      <g filter="url(#kaavioblackto000000filter)" color="#000000" fill="transparent" fill-opacity="0" stroke="black" stroke-dasharray="53.23532661682466, 0" stroke-width="1">
        <path style="color:inherit;fill:inherit;fill-opacity:inherit;stroke:inherit;stroke-width:inherit" id="id82813149" d="M121,179L96,226" class="EdgeBody"/>
      </g>
    </g>
    <g id="ida5487402" about="ida5487402" class="Edge Interaction" color="#000000">
      <g filter="url(#kaavioblackto000000filter)" color="#000000" fill="transparent" fill-opacity="0" stroke="black" stroke-dasharray="99.76472322419383, 0" stroke-width="1">
        <path style="color:inherit;fill:inherit;fill-opacity:inherit;stroke:inherit;stroke-width:inherit" id="ida5487402" d="M141,169L229,216" class="EdgeBody"/>
      </g>
    </g>
    <g id="idfdcadf51" about="idfdcadf51" class="Edge Interaction" color="#000000">
      <g filter="url(#kaavioblackto000000filter)" color="#000000" fill="transparent" fill-opacity="0" stroke="black" stroke-dasharray="67.52471812156979, 1" stroke-width="1">
        <path style="color:inherit;fill:inherit;fill-opacity:inherit;stroke:inherit;stroke-width:inherit" id="idfdcadf51" d="M455,198.48333333333332L456.0504201680672,267" marker-end="url(#markerEndMimBinding)" class="EdgeBody"/>
      </g>
    </g>
    <a id="aad29" about="aad29" class="SingleFreeNode DataNode Entrez_Gene_10066 GeneProduct Ensembl_ENSG00000140497 P594_ENSG00000140497 P351_10066 HGNC_SCAMP2 SCAMP2 P353_SCAMP2 Wikidata_Q18034998" color="#000000" name="SCAMP2" transform="translate(230,85)" xlink:href="https://tools.wmflabs.org/scholia/Q18034998" target="_blank">
      <rect fill="#ffffff" stroke="#000000" stroke-width="1" fill-opacity="1" height="20px" id="aad29-icon" width="80px" x="0" y="0" transform="matrix(0.9876543209876543, 0, 0, 0.9523809523809523, 0.49382716049382935, 0.4761904761904763)" class="Icon"/>
      <text id="aad29-text" class="Text" direction="ltr" fill="#000000" font-family="'Liberation Sans', Arial, sans-serif" font-size="10px" font-style="normal" font-weight="normal" stroke="white" stroke-width="0px" text-anchor="middle" transform="translate(40,13)">
        <tspan x="0" y="0">SCAMP2</tspan>
      </text>
    </a>
    <a id="b6412" about="b6412" class="SingleFreeNode DataNode Entrez_Gene_7041 GeneProduct Ensembl_ENSG00000140682 P594_ENSG00000140682 P351_7041 HGNC_TGFB1I1 TGFB1I1 P353_TGFB1I1 Wikidata_Q18031969" color="#000000" name="Hic-5" transform="translate(68.48333333333333,275.98333333333335)" xlink:href="https://tools.wmflabs.org/scholia/Q18031969" target="_blank">
      <rect fill="#ffffff" stroke="#000000" stroke-width="1" fill-opacity="1" height="20px" id="b6412-icon" width="80px" x="0" y="0" transform="matrix(0.9876543209876543, 0, 0, 0.9523809523809523, 0.49382716049382935, 0.4761904761904763)" class="Icon"/>
      <text id="b6412-text" class="Text" direction="ltr" fill="#000000" font-family="'Liberation Sans', Arial, sans-serif" font-size="10px" font-style="normal" font-weight="normal" stroke="white" stroke-width="0px" text-anchor="middle" transform="translate(40,13)">
        <tspan x="0" y="0">Hic-5</tspan>
      </text>
    </a>
    <a id="b9e35" about="b9e35" class="SingleFreeNode DataNode Entrez_Gene_6532 GeneProduct Ensembl_ENSG00000108576 P594_ENSG00000108576 P351_6532 HGNC_SLC6A4 SLC6A4 P353_SLC6A4 Wikidata_Q14860818" color="#000000" name="SLC6A4" transform="translate(121,169)" xlink:href="https://tools.wmflabs.org/scholia/Q14860818" target="_blank">
      <rect fill="#ffffff" stroke="#000000" stroke-width="1" fill-opacity="1" height="20px" id="b9e35-icon" width="80px" x="0" y="0" transform="matrix(0.9876543209876543, 0, 0, 0.9523809523809523, 0.49382716049382935, 0.4761904761904763)" class="Icon"/>
      <text id="b9e35-text" class="Text" direction="ltr" fill="#000000" font-family="'Liberation Sans', Arial, sans-serif" font-size="10px" font-style="normal" font-weight="normal" stroke="white" stroke-width="0px" text-anchor="middle" transform="translate(40,13)">
        <tspan x="0" y="0">SLC6A4</tspan>
      </text>
    </a>
    <a id="bc3ee" about="bc3ee" class="SingleFreeNode DataNode Entrez_Gene_3690 GeneProduct Ensembl_ENSG00000259207 P594_ENSG00000259207 P351_3690 HGNC_ITGB3 ITGB3 P353_ITGB3 Wikidata_Q14913635" color="#000000" name="ITGB3" transform="translate(16,216)" xlink:href="https://tools.wmflabs.org/scholia/Q14913635" target="_blank">
      <rect fill="#ffffff" stroke="#000000" stroke-width="1" fill-opacity="1" height="20px" id="bc3ee-icon" width="80px" x="0" y="0" transform="matrix(0.9876543209876543, 0, 0, 0.9523809523809523, 0.49382716049382935, 0.4761904761904763)" class="Icon"/>
      <text id="bc3ee-text" class="Text" direction="ltr" fill="#000000" font-family="'Liberation Sans', Arial, sans-serif" font-size="10px" font-style="normal" font-weight="normal" stroke="white" stroke-width="0px" text-anchor="middle" transform="translate(40,13)">
        <tspan x="0" y="0">ITGB3</tspan>
      </text>
    </a>
    <a id="bcccd" about="bcccd" class="SingleFreeNode DataNode HMDB_HMDB0000259 Metabolite ChEBI_CHEBI_28790 ChEBI_28790 P683_CHEBI_28790 P683_28790 HMDB_HMDB00259 P2057_HMDB0000259 P2057_HMDB00259 Wikidata_Q167934" color="#0000ff" name="Serotonin" transform="translate(165,25)" xlink:href="https://tools.wmflabs.org/scholia/Q167934" target="_blank">
      <rect fill="#ffffff" stroke="#0000ff" stroke-width="1" fill-opacity="1" height="20px" id="bcccd-icon" width="80px" x="0" y="0" transform="matrix(0.9876543209876543, 0, 0, 0.9523809523809523, 0.49382716049382935, 0.4761904761904763)" class="Icon"/>
      <text id="bcccd-text" class="Text" direction="ltr" fill="#0000ff" font-family="'Liberation Sans', Arial, sans-serif" font-size="10px" font-style="normal" font-weight="normal" stroke="white" stroke-width="0px" text-anchor="middle" transform="translate(40,13)">
        <tspan x="0" y="0">Serotonin</tspan>
      </text>
    </a>
    <a id="cd997" about="cd997" class="SingleFreeNode DataNode Entrez_Gene_3553 GeneProduct Ensembl_ENSG00000125538 P594_ENSG00000125538 P351_3553 HGNC_IL1B IL1B P353_IL1B Wikidata_Q14916410" color="#000000" name="IL1B" transform="translate(415,178.48333333333332)" xlink:href="https://tools.wmflabs.org/scholia/Q14916410" target="_blank">
      <rect fill="#ffffff" stroke="#000000" stroke-width="1" fill-opacity="1" height="20px" id="cd997-icon" width="80px" x="0" y="0" transform="matrix(0.9876543209876543, 0, 0, 0.9523809523809523, 0.49382716049382935, 0.4761904761904763)" class="Icon"/>
      <text id="cd997-text" class="Text" direction="ltr" fill="#000000" font-family="'Liberation Sans', Arial, sans-serif" font-size="10px" font-style="normal" font-weight="normal" stroke="white" stroke-width="0px" text-anchor="middle" transform="translate(40,13)">
        <tspan x="0" y="0">IL1B</tspan>
      </text>
    </a>
    <a id="d321e" about="d321e" class="SingleFreeNode DataNode HMDB_HMDB0000929 Metabolite ChEBI_CHEBI_16828 ChEBI_16828 P683_CHEBI_16828 P683_16828 HMDB_HMDB00929 P2057_HMDB0000929 P2057_HMDB00929 Wikidata_Q181003" color="#0000ff" name="L-Tryptophan" transform="translate(495,25)" xlink:href="https://tools.wmflabs.org/scholia/Q181003" target="_blank">
      <rect fill="#ffffff" stroke="#0000ff" stroke-width="1" fill-opacity="1" height="20px" id="d321e-icon" width="80px" x="0" y="0" transform="matrix(0.9876543209876543, 0, 0, 0.9523809523809523, 0.49382716049382935, 0.4761904761904763)" class="Icon"/>
      <text id="d321e-text" class="Text" direction="ltr" fill="#0000ff" font-family="'Liberation Sans', Arial, sans-serif" font-size="10px" font-style="normal" font-weight="normal" stroke="white" stroke-width="0px" text-anchor="middle" transform="translate(40,13)">
        <tspan x="0" y="0">L-Tryptophan</tspan>
      </text>
    </a>
    <a id="d5012" about="d5012" class="SingleFreeNode DataNode Entrez_Gene_5516 GeneProduct Ensembl_ENSG00000104695 P594_ENSG00000104695 P351_5516 HGNC_PPP2CB PPP2CB P353_PPP2CB Wikidata_Q18030715" color="#000000" name="PP2A" transform="translate(200,303)" xlink:href="https://tools.wmflabs.org/scholia/Q18030715" target="_blank">
      <rect fill="#ffffff" stroke="#000000" stroke-width="1" fill-opacity="1" height="20px" id="d5012-icon" width="80px" x="0" y="0" transform="matrix(0.9876543209876543, 0, 0, 0.9523809523809523, 0.49382716049382935, 0.4761904761904763)" class="Icon"/>
      <text id="d5012-text" class="Text" direction="ltr" fill="#000000" font-family="'Liberation Sans', Arial, sans-serif" font-size="10px" font-style="normal" font-weight="normal" stroke="white" stroke-width="0px" text-anchor="middle" transform="translate(40,13)">
        <tspan x="0" y="0">PP2A</tspan>
      </text>
    </a>
    <a id="d5f26" about="d5f26" class="SingleFreeNode DataNode Entrez_Gene_6804 GeneProduct Ensembl_ENSG00000106089 P594_ENSG00000106089 P351_6804 HGNC_STX1A STX1A P353_STX1A Wikidata_Q18031771" color="#000000" name="Syntaxin 1A" transform="translate(229,206)" xlink:href="https://tools.wmflabs.org/scholia/Q18031771" target="_blank">
      <rect fill="#ffffff" stroke="#000000" stroke-width="1" fill-opacity="1" height="20px" id="d5f26-icon" width="80px" x="0" y="0" transform="matrix(0.9876543209876543, 0, 0, 0.9523809523809523, 0.49382716049382935, 0.4761904761904763)" class="Icon"/>
      <text id="d5f26-text" class="Text" direction="ltr" fill="#000000" font-family="'Liberation Sans', Arial, sans-serif" font-size="10px" font-style="normal" font-weight="normal" stroke="white" stroke-width="0px" text-anchor="middle" transform="translate(40,13)">
        <tspan x="0" y="0">Syntaxin 1A</tspan>
      </text>
    </a>
    <a id="db27f" about="db27f" class="SingleFreeNode DataNode Entrez_Gene_4128 GeneProduct Ensembl_ENSG00000189221 P594_ENSG00000189221 P351_4128 HGNC_MAOA MAOA P353_MAOA Wikidata_Q14888415" color="#000000" name="MAOA" transform="translate(415,145)" xlink:href="https://tools.wmflabs.org/scholia/Q14888415" target="_blank">
      <rect fill="#ffffff" stroke="#000000" stroke-width="1" fill-opacity="1" height="20px" id="db27f-icon" width="80px" x="0" y="0" transform="matrix(0.9876543209876543, 0, 0, 0.9523809523809523, 0.49382716049382935, 0.4761904761904763)" class="Icon"/>
      <text id="db27f-text" class="Text" direction="ltr" fill="#000000" font-family="'Liberation Sans', Arial, sans-serif" font-size="10px" font-style="normal" font-weight="normal" stroke="white" stroke-width="0px" text-anchor="middle" transform="translate(40,13)">
        <tspan x="0" y="0">MAOA</tspan>
      </text>
    </a>
    <a id="e3155" about="e3155" class="SingleFreeNode DataNode Entrez_Gene_4842 GeneProduct Ensembl_ENSG00000089250 P594_ENSG00000089250 P351_4842 HGNC_NOS1 NOS1 P353_NOS1 Wikidata_Q18030177" color="#000000" name="nNOS" transform="translate(21.483333333333334,76.98333333333333)" xlink:href="https://tools.wmflabs.org/scholia/Q18030177" target="_blank">
      <rect fill="#ffffff" stroke="#000000" stroke-width="1" fill-opacity="1" height="20px" id="e3155-icon" width="80px" x="0" y="0" transform="matrix(0.9876543209876543, 0, 0, 0.9523809523809523, 0.49382716049382935, 0.4761904761904763)" class="Icon"/>
      <text id="e3155-text" class="Text" direction="ltr" fill="#000000" font-family="'Liberation Sans', Arial, sans-serif" font-size="10px" font-style="normal" font-weight="normal" stroke="white" stroke-width="0px" text-anchor="middle" transform="translate(40,13)">
        <tspan x="0" y="0">nNOS</tspan>
      </text>
    </a>
    <a id="e8cb4" about="e8cb4" class="SingleFreeNode DataNode Entrez_Gene_121278 GeneProduct Ensembl_ENSG00000139287 P594_ENSG00000139287 P351_121278 HGNC_TPH2 TPH2 P353_TPH2 Wikidata_Q18049432" color="#000000" name="TPH2" transform="translate(355,85)" xlink:href="https://tools.wmflabs.org/scholia/Q18049432" target="_blank">
      <rect fill="#ffffff" stroke="#000000" stroke-width="1" fill-opacity="1" height="20px" id="e8cb4-icon" width="80px" x="0" y="0" transform="matrix(0.9876543209876543, 0, 0, 0.9523809523809523, 0.49382716049382935, 0.4761904761904763)" class="Icon"/>
      <text id="e8cb4-text" class="Text" direction="ltr" fill="#000000" font-family="'Liberation Sans', Arial, sans-serif" font-size="10px" font-style="normal" font-weight="normal" stroke="white" stroke-width="0px" text-anchor="middle" transform="translate(40,13)">
        <tspan x="0" y="0">TPH2</tspan>
      </text>
    </a>
    <a id="f09f6" about="f09f6" class="SingleFreeNode DataNode HMDB_HMDB0005038 Metabolite ChEBI_77397 ChEBI_CHEBI_77397 P683_77397 P683_CHEBI_77397 HMDB_HMDB05038 P2057_HMDB05038 P2057_HMDB0005038 Wikidata_Q409672" color="#0000ff" name="Citalopram" transform="translate(65,35)" xlink:href="https://tools.wmflabs.org/scholia/Q409672" target="_blank">
      <rect fill="#ffffff" stroke="#0000ff" stroke-width="1" fill-opacity="1" height="20px" id="f09f6-icon" width="80px" x="0" y="0" transform="matrix(0.9876543209876543, 0, 0, 0.9523809523809523, 0.49382716049382935, 0.4761904761904763)" class="Icon"/>
      <text id="f09f6-text" class="Text" direction="ltr" fill="#0000ff" font-family="'Liberation Sans', Arial, sans-serif" font-size="10px" font-style="normal" font-weight="normal" stroke="white" stroke-width="0px" text-anchor="middle" transform="translate(40,13)">
        <tspan x="0" y="0">Citalopram</tspan>
      </text>
    </a>
    <a id="fcac9" about="fcac9" class="SingleFreeNode DataNode Entrez_Gene_3554 GeneProduct Ensembl_ENSG00000115594 P594_ENSG00000115594 P351_3554 HGNC_IL1R1 IL1R1 P353_IL1R1 Wikidata_Q18027814" color="#000000" name="IL1R1" transform="translate(414.0504201680672,267)" xlink:href="https://tools.wmflabs.org/scholia/Q18027814" target="_blank">
      <rect fill="#ffffff" stroke="#000000" stroke-width="1" fill-opacity="1" height="20px" id="fcac9-icon" width="84px" x="0" y="0" transform="matrix(0.9882352941176471, 0, 0, 0.9523809523809523, 0.4941176470588218, 0.4761904761904763)" class="Icon"/>
      <text id="fcac9-text" class="Text" direction="ltr" fill="#000000" font-family="'Liberation Sans', Arial, sans-serif" font-size="10px" font-style="normal" font-weight="normal" stroke="white" stroke-width="0px" text-anchor="middle" transform="translate(42,13)">
        <tspan x="0" y="0">IL1R1</tspan>
      </text>
    </a>
    <text id="WP1455-text" class="Text" direction="ltr" dominant-baseline="central" fill="black" font-family="'Liberation Sans', Arial, sans-serif" font-size="12px" font-style="normal" font-weight="bold" overflow="visible" stroke="white" stroke-width="0px" text-anchor="start" transform="translate(5,36)">
      <tspan x="0" y="-18">Name: Serotonin transporter activity</tspan>
      <tspan x="0" y="0">License: CC BY 2.0</tspan>
      <tspan x="0" y="18">Organism: Homo sapiens</tspan>
    </text>
  </g>
</svg>

