<?xml version="1.0" encoding="UTF-8"?>
<!--
  WikiPathways page: https://www.wikipathways.org/index.php/Pathway:WP1981
  URL for this compressed file: https://github.com/eweitz/cachome/tree/main/data/wikipathways/WP1981.svg
  Source code for compression: https://github.com/eweitz/cachome/tree/main/src/wikipathways.py
-->
<svg class="Diagram" width="800" height="600" color="black" baseProfile="full" prefix="schema:http://schema.org/" preserveAspectRatio="xMidYMid" version="1.1" viewBox="0 0 1309 617" vocab="http://vocabularies.wikipathways.org/wp#" xmlns="http://www.w3.org/2000/svg" xmlns:xlink="http://www.w3.org/1999/xlink"><style>svg {font-family: 'Liberation Sans', Arial, sans-serif; }</style><defs><filter id="f" x="-50%" y="-50%" width="200%" height="200%"><feComposite in="SourceGraphic" in2="SourceGraphic" result="doubleDark"/><feMorphology in="doubleDark" operator="dilate" radius="0.16666666666666666" result="in2Double"/><feMorphology in="SourceGraphic" operator="dilate" radius="3" result="inDouble"/><feComposite in="inDouble" in2="in2Double" operator="out" result="doubleResult"/></filter><filter id="a" x="0" y="0" width="1309" height="617" filterUnits="userSpaceOnUse"><feColorMatrix in="SourceGraphic" values="-1   0   0 0 0                   0  -1   0 0 0                   0   0  -1 0 0                   0   0   0 1 0"/></filter><marker id="e" stroke-dasharray="99999" markerHeight="12" markerUnits="userSpaceOnUse" markerWidth="12" orient="auto" preserveAspectRatio="none" refX="12" refY="6" viewBox="0 0 12 12"><path transform="rotate(180 6 6)" d="M12 11L0 6l12-5z" fill="currentColor" stroke-width="0"/></marker><marker id="g" stroke-dasharray="99999" markerHeight="12" markerUnits="userSpaceOnUse" markerWidth="12" orient="auto" preserveAspectRatio="none" refX="12" refY="6" viewBox="0 0 12 12"><circle transform="rotate(180 6 6)" cx="6" cy="6" r="5.3" fill="none" stroke="#000"/></marker><marker id="c" stroke-dasharray="99999" markerHeight="12" markerUnits="userSpaceOnUse" markerWidth="12" orient="auto" preserveAspectRatio="none" refX="12" refY="6" viewBox="0 0 12 12"><path transform="rotate(180 6 6)" d="M12 11L0 6l12-5z" fill="currentColor" stroke-width="0"/></marker><symbol id="d" overflow="visible" preserveAspectRatio="none" viewBox="0 0 50 50"><ellipse cx="25" cy="25" rx="25" ry="25" stroke="currentColor" vector-effect="non-scaling-stroke"/></symbol><symbol id="b" preserveAspectRatio="none" viewBox="0 0 100 100"/></defs><g class="Viewport" color="black"  name="Name: Thyroxine (thyroid hormone) production Organism: Homo sapiens"><rect class="Icon" width="1309" height="617" fill="#fff" stroke="#000" stroke-width="0"/><g class="SingleFreeNode Shape PhysicalEntity CellularComponent Nucleus" transform="translate(36,68)" color="#c0c0c0" ><g fill="transparent"  filter="url(#f)" stroke="#c0c0c0" stroke-width="3"><use class="Icon" transform="matrix(.95072 0 0 .8806 5.7043 5.2836)" width="231.5" height="88.5"    xlink:href="#d"/></g></g><g class="SingleFreeNode Shape PhysicalEntity CellularComponent Nucleus" transform="translate(34.5 223.31)" color="#c0c0c0" ><g fill="transparent"  filter="url(#f)" stroke="#c0c0c0" stroke-width="3"><use class="Icon" transform="matrix(.95072 0 0 .8806 5.7043 5.2836)" width="231.5" height="88.5"    xlink:href="#d"/></g></g><g class="SingleFreeNode Shape PhysicalEntity CellularComponent Nucleus" transform="translate(314,90)" color="#c0c0c0" ><g fill="transparent"  filter="url(#f)" stroke="#c0c0c0" stroke-width="3"><use class="Icon" transform="matrix(.98774 0 0 .97649 5.9264 5.859)" width="966.5" height="498.5"    xlink:href="#d"/></g></g><g id="h" class="Interaction" color="#000" ><g color="#000" fill="transparent"  filter="url(#a)" stroke="#000" stroke-dasharray="128.8932054596276, 5.8" stroke-width="2"><path class="EdgeBody" d="m383 137 109.98 77.765"   marker-end="url(#c)" /></g><g class="Burr Anchor" transform="translate(432.73 170.99)" ><use class="Icon" width="8" height="8" fill="#141414" stroke-width="0" xlink:href="#d"/></g></g><g id="i" class="DirectedInteraction" color="#000" ><g color="#000" fill="transparent"  filter="url(#a)" stroke="#000" stroke-dasharray="65.78605617204305, 5.8"><path class="EdgeBody" d="m679.43 240.68 1e-13 71.586"   marker-end="url(#e)" /></g><g class="Burr Anchor" transform="translate(679.43 276.44)" ><use class="Icon" width="0" height="0" fill="#141414" stroke-width="0" xlink:href="#b"/></g></g><g id="j" class="DirectedInteraction" color="#000" ><g color="#000" fill="transparent"  filter="url(#a)" stroke="#000" stroke-dasharray="118.58059146994745, 5.8" stroke-width="2"><path class="EdgeBody" d="m166.02 130.86-1.2262 124.37"   marker-end="url(#e)" /></g></g><g id="k" class="Interaction" color="#000" ><g color="#000" fill="transparent"  filter="url(#a)" stroke="#000" stroke-dasharray="119.30341928251507, 0"><path class="EdgeBody" d="m564.98 242.77 114.45 33.672"   /></g></g><g id="l" class="Interaction" color="#000" ><g color="#000" fill="transparent"  filter="url(#a)" stroke="#000" stroke-dasharray="37.08687921520546, 5.8"><path class="EdgeBody" d="m679.43 345.77-1e-13 42.887"   marker-end="url(#c)" /></g></g><g id="m" class="DirectedInteraction" color="#000" ><g color="#000" fill="transparent"  filter="url(#a)" stroke="#000" stroke-dasharray="63.21926333156637, 5.8" stroke-width="2"><path class="EdgeBody" d="m215.77 268.23 69.019-0.14156"   marker-end="url(#e)" /></g></g><g id="n" class="Interaction" color="#000" ><g color="#000" fill="transparent"  filter="url(#a)" stroke="#000" stroke-dasharray="162.9730086608034, 5.8"><path class="EdgeBody" d="m780.95 404.16 162.31-46.256"   marker-end="url(#c)" /></g></g><g id="o" class="Interaction" color="#000" ><g color="#000" fill="transparent"  filter="url(#a)" stroke="#000" stroke-dasharray="204.02838665638427, 5.8"><path class="EdgeBody" d="m733.43 404.16 209.83-1.4e-13"   marker-end="url(#c)" /></g><g class="Burr Anchor" transform="translate(780.95 404.16)" ><use class="Icon" width="0" height="0" fill="#141414" stroke-width="0" xlink:href="#b"/></g></g><g id="p" class="Interaction" color="#000" ><g color="#000" fill="transparent"  filter="url(#a)" stroke="#000" stroke-dasharray="90.02898120114344, 0" stroke-width="2"><path class="EdgeBody" d="m365.25 229.73 71.481-54.732"   /></g></g><g id="q" class="Interaction" color="#000" ><g color="#000" fill="transparent"  filter="url(#a)" stroke="#000" stroke-dasharray="52.712469789054126, 11"><path class="EdgeBody" d="m743.14 277.3-63.707-0.86149"   marker-end="url(#g)" /></g></g><g class="Label" transform="translate(671.89 279.63)" color="#000"  name="Iodination of  tyrosine"><use class="Icon" width="80" height="33.03523035230343" fill="transparent"  stroke="#000" stroke-width="0" xlink:href="#b"/><text class="Text" transform="translate(40 19.518)"   font-size="10px"  text-anchor="middle"><tspan x="0" y="-5.5">Iodination of </tspan> <tspan x="0" y="5.5">tyrosine</tspan></text></g><g class="Label" transform="translate(98,78)" color="#000"  name="Hypothalamus"><use class="Icon" width="109" height="25" fill="transparent"  stroke="#000" stroke-width="0" xlink:href="#b"/><text class="Text" transform="translate(54.5,16.5)"  font-family="Verdana" font-size="12px"  text-anchor="middle"><tspan x="0" y="0">Hypothalamus</tspan></text></g><g class="Label" transform="translate(625.43 388.66)" color="#000"  name="mono- and di-iodotyrosines"><rect class="Icon" transform="matrix(.99083 0 0 .96875 .49541 .48438)" width="108" height="31" fill="#fff" stroke="#000"/><text class="Text" transform="translate(54,18.5)"   font-size="10px"  text-anchor="middle"><tspan x="0" y="-5.5">mono- and</tspan> <tspan x="0" y="5.5">di-iodotyrosines</tspan></text></g><g class="Label" transform="translate(774.64 409.16)" color="#000"  name="Spontaneous crosslinking"><use class="Icon" width="80" height="20" fill="transparent"  stroke="#000" stroke-width="0" xlink:href="#b"/><text class="Text" transform="translate(40,13)"   font-size="10px"  text-anchor="middle"><tspan x="0" y="-5.5">Spontaneous</tspan> <tspan x="0" y="5.5">crosslinking</tspan></text></g><a class="Chemspider_5707 Metabolite ChEBI_CHEBI_533015 ChEBI_CHEBI_18258   " transform="translate(943.26 341.15)" color="#00f"  name="Triiodothyronine (T3)"  ><rect class="Icon" transform="matrix(.98792 0 0 .94366 .98792 .94366)" width="163.5" height="33.5" fill="#fff" stroke="#00f" stroke-width="2"/><text class="Text" transform="translate(81.75,20.75)" fill="#00f" font-family="Verdana" font-size="12px"  text-anchor="middle"><tspan x="0" y="0">Triiodothyronine (T3)</tspan></text></a><a  class="GeneProduct CGA " transform="translate(113.81 255.23)"   name="TSH"  ><rect class="Icon" transform="matrix(.98076 0 0 .92857 .98076 .92857)" width="101.96" height="26" fill="#fff" stroke="#000" stroke-width="2"/><text class="Text" transform="translate(50.98 17)"  font-family="Verdana" font-size="12px"  text-anchor="middle"><tspan x="0" y="0">TSH</tspan></text></a><g class="GroupGroup" transform="translate(468.98 214.77)" color="grey" ><use class="Icon" width="96" height="56.000000000000455" fill="transparent"  stroke="grey" stroke-dasharray="5,3" stroke-width="0" xlink:href="#b"/><a class="Metabolite ChEBI_CHEBI_16382  " transform="translate(8 28)" color="#00f"  name="127 Iodide"  ><rect class="Icon" transform="matrix(.97561 0 0 .90909 .97561 .90909)" width="80" height="20" fill="#fff" stroke="#00f" stroke-width="2"/><text class="Text" transform="translate(40,14)" fill="#00f" font-family="Verdana" font-size="12px"  text-anchor="middle"><tspan x="0" y="0">127 Iodide</tspan></text></a><a class="PubChem-compound_167195 Metabolite " transform="translate(8,8)" color="#00f"  name="131 Iodide"  ><rect class="Icon" transform="matrix(.97561 0 0 .90909 .97561 .90909)" width="80" height="20" fill="#fff" stroke="#00f" stroke-width="2"/><text class="Text" transform="translate(40,14)" fill="#00f" font-family="Verdana" font-size="12px"  text-anchor="middle"><tspan x="0" y="0">131 Iodide</tspan></text></a></g><a  class="GeneProduct TRH " transform="translate(115.04 104.86)"   name="TRH"  ><rect class="Icon" transform="matrix(.98076 0 0 .92857 .98076 .92857)" width="101.96" height="26" fill="#fff" stroke="#000" stroke-width="2"/><text class="Text" transform="translate(50.98 17)"  font-family="Verdana" font-size="12px"  text-anchor="middle"><tspan x="0" y="0">TRH</tspan></text></a><a  class="GeneProduct TSHR " transform="translate(284.79 255.09)"   name="TSHR"  ><rect class="Icon" transform="matrix(.98076 0 0 .92857 .98076 .92857)" width="101.96" height="26" fill="#fff" stroke="#000" stroke-width="2"/><text class="Text" transform="translate(50.98 17)"  font-family="Verdana" font-size="12px"  text-anchor="middle"><tspan x="0" y="0">TSHR</tspan></text></a><a  class="GeneProduct SLC5A5 " transform="translate(306.5 229.73)"   name="SLC5A5"  ><rect class="Icon" transform="matrix(.98326 0 0 .92727 .98326 .92727)" width="117.5" height="25.5" fill="#fff" stroke="#000" stroke-width="2"/><text class="Text" transform="translate(58.75,16.75)"  font-family="Verdana" font-size="12px"  text-anchor="middle"><tspan x="0" y="0">SLC5A5</tspan></text></a><a  class="GeneProduct TG " transform="translate(597.68 312.27)"   name="Thyruglobulin (Tg)"  ><rect class="Icon" transform="matrix(.98792 0 0 .94366 .98792 .94366)" width="163.5" height="33.5" fill="#fff" stroke="#000" stroke-width="2"/><text class="Text" transform="translate(81.75,20.75)"  font-family="Verdana" font-size="12px"  text-anchor="middle"><tspan x="0" y="0">Thyruglobulin (Tg)</tspan></text></a><a  class="GeneProduct TPO " transform="translate(743.14 260.55)"   name="Thyroidperoxidase"  ><rect class="Icon" transform="matrix(.98792 0 0 .94366 .98792 .94366)" width="163.5" height="33.5" fill="#fff" stroke="#000" stroke-width="2"/><text class="Text" transform="translate(81.75,20.75)"  font-family="Verdana" font-size="12px"  text-anchor="middle"><tspan x="0" y="0">Thyroidperoxidase</tspan></text></a><a class="Metabolite ChEBI_CHEBI_17895  " transform="translate(597.68 207.18)" color="#00f"  name="L-Tyrosine"  ><rect class="Icon" transform="matrix(.98792 0 0 .94366 .98792 .94366)" width="163.5" height="33.5" fill="#fff" stroke="#00f" stroke-width="2"/><text class="Text" transform="translate(81.75,20.75)" fill="#00f" font-family="Verdana" font-size="12px"  text-anchor="middle"><tspan x="0" y="0">L-Tyrosine</tspan></text></a><a class="Metabolite ChEBI_CHEBI_18332  " transform="translate(943.26 387.41)" color="#00f"  name="Thyroxine (T4)"  ><rect class="Icon" transform="matrix(.98792 0 0 .94366 .98792 .94366)" width="163.5" height="33.5" fill="#fff" stroke="#00f" stroke-width="2"/><text class="Text" transform="translate(81.75,20.75)" fill="#00f" font-family="Verdana" font-size="12px"  text-anchor="middle"><tspan x="0" y="0">Thyroxine (T4)</tspan></text></a><g class="Label" transform="translate(82.138 278.85)" color="#000"  name="Anterior pituitary"><use class="Icon" width="109" height="25" fill="transparent"  stroke="#000" stroke-width="0" xlink:href="#b"/><text class="Text" transform="translate(54.5,16.5)"  font-family="Verdana" font-size="12px"  text-anchor="middle"><tspan x="0" y="0">Anterior pituitary</tspan></text></g><g class="Label" transform="translate(978,505)" color="#000"  name="Thyroid"><use class="Icon" width="58" height="25" fill="transparent"  stroke="#000" stroke-width="0" xlink:href="#b"/><text class="Text" transform="translate(29,16.5)"  font-family="Verdana" font-size="12px"  text-anchor="middle"><tspan x="0" y="0">Thyroid</tspan></text></g><g class="GroupGroup" transform="translate(287,95)" color="grey" ><use class="Icon" width="96" height="56" fill="transparent"  stroke="grey" stroke-dasharray="5,3" stroke-width="0" xlink:href="#b"/><a class="PubChem-compound_167195 Metabolite " transform="translate(8,8)" color="#00f"  name="131 Iodide"  ><rect class="Icon" transform="matrix(.97561 0 0 .90909 .97561 .90909)" width="80" height="20" fill="#fff" stroke="#00f" stroke-width="2"/><text class="Text" transform="translate(40,14)" fill="#00f" font-family="Verdana" font-size="12px"  text-anchor="middle"><tspan x="0" y="0">131 Iodide</tspan></text></a><a class="Metabolite ChEBI_CHEBI_16382  " transform="translate(8,28)" color="#00f"  name="127 Iodide"  ><rect class="Icon" transform="matrix(.97561 0 0 .90909 .97561 .90909)" width="80" height="20" fill="#fff" stroke="#00f" stroke-width="2"/><text class="Text" transform="translate(40,14)" fill="#00f" font-family="Verdana" font-size="12px"  text-anchor="middle"><tspan x="0" y="0">127 Iodide</tspan></text></a></g><text class="Text" transform="translate(5,27)" dominant-baseline="central" fill="black"  font-size="12px" font-weight="bold" overflow="visible" ><tspan x="0" y="-9">Name: Thyroxine (thyroid hormone) production</tspan> <tspan x="0" y="9">Organism: Homo sapiens</tspan></text></g></svg>
