<?xml version="1.0" encoding="UTF-8"?>
<!--
  WikiPathways page: https://www.wikipathways.org/index.php/Pathway:WP1995
  URL for this compressed file: https://github.com/eweitz/cachome/tree/main/data/wikipathways/WP1995.svg
  Source code for compression: https://github.com/eweitz/cachome/tree/main/src/wikipathways.py
-->
<svg class="Diagram" width="800" height="600" color="black" baseProfile="full" prefix="schema:http://schema.org/" preserveAspectRatio="xMidYMid" version="1.1" viewBox="0 0 912.71 599" vocab="http://vocabularies.wikipathways.org/wp#" xmlns="http://www.w3.org/2000/svg" xmlns:xlink="http://www.w3.org/1999/xlink"><style>svg {font-family: 'Liberation Sans', Arial, sans-serif; }</style><defs><filter id="g" x="-50%" y="-50%" width="200%" height="200%"><feComposite in="SourceGraphic" in2="SourceGraphic" result="doubleDark"/><feMorphology in="doubleDark" operator="dilate" radius="0.16666666666666666" result="in2Double"/><feMorphology in="SourceGraphic" operator="dilate" radius="3" result="inDouble"/><feComposite in="inDouble" in2="in2Double" operator="out" result="doubleResult"/></filter><filter id="a" x="0" y="0" width="912.71" height="599" filterUnits="userSpaceOnUse"><feColorMatrix in="SourceGraphic" values="-1   0   0 0 0                   0  -1   0 0 0                   0   0  -1 0 0                   0   0   0 1 0"/></filter><marker id="c" stroke-dasharray="99999" markerHeight="12" markerUnits="userSpaceOnUse" markerWidth="12" orient="auto" preserveAspectRatio="none" refX="12" refY="6" viewBox="0 0 12 12"><path transform="rotate(180 6 6)" d="M12 11L0 6l12-5z" fill="currentColor" stroke-width="0"/></marker><marker id="d" stroke-dasharray="99999" markerHeight="12" markerUnits="userSpaceOnUse" markerWidth="12" orient="auto" preserveAspectRatio="none" refX="12" refY="6" viewBox="0 0 12 12"><circle transform="rotate(180 6 6)" cx="6" cy="6" r="5.3" fill="none" stroke="#000"/></marker><marker id="e" stroke-dasharray="99999" markerHeight="12" markerUnits="userSpaceOnUse" markerWidth="12" orient="auto" preserveAspectRatio="none" refX="12" refY="6" viewBox="0 0 12 12"><path transform="rotate(180 6 6)" d="M12 11L0 6l12-5z" fill="currentColor" stroke-width="0"/></marker><marker id="f" stroke-dasharray="99999" markerHeight="20" markerUnits="userSpaceOnUse" markerWidth="10" orient="auto" preserveAspectRatio="none" refX="10" refY="10" viewBox="0 0 10 20"><path d="m3 0v20" fill="currentColor" stroke="currentColor"/></marker><symbol id="b" preserveAspectRatio="none" viewBox="0 0 100 100"/></defs><g class="Viewport" color="black"  name="Name: Effects of nitric oxide Last Modified: 2/22/2013 Organism: Homo sapiens"><rect class="Icon" width="912.71" height="599" fill="#fff" stroke="#000" stroke-width="0"/><g class="SingleFreeNode Shape PhysicalEntity CellularComponent Mitochondria" transform="translate(44.833 295.1)" color="#c0c0c0" ><g fill="transparent"  filter="url(#g)" stroke="#c0c0c0" stroke-width="3"><rect class="Icon" transform="matrix(.95707 0 0 .93924 5.7424 5.6354)" width="267.5" height="185.5" rx="15" ry="15"   /></g></g><g class="Label" transform="translate(378,48)" color="#000"  name="Hypoxia"><use class="Icon" width="80" height="20" fill="transparent"  stroke="#000" stroke-width="0" xlink:href="#b"/><text class="Text" transform="translate(40,13)"   font-size="10px" font-style="italic"  text-anchor="middle"><tspan x="0" y="0">Hypoxia</tspan></text></g><g id="h" class="DirectedInteraction" color="#000" ><g color="#000" fill="transparent"  filter="url(#a)" stroke="#000" stroke-dasharray="112.2889495253472, 5.8"><path class="EdgeBody" d="m735 68 83 84"   marker-end="url(#c)" /></g></g><g id="i" class="Interaction" color="#000" ><g color="#000" fill="transparent"  filter="url(#a)" stroke="#000" stroke-dasharray="46.43141330279219, 11"><path class="EdgeBody" d="m728.65 219.43-0.64516-57.428"   marker-end="url(#d)" /></g></g><g id="j" class="Interaction" color="#000" ><g color="#000" fill="transparent"  filter="url(#a)" stroke="#000" stroke-dasharray="137.51237436760033, 7"><path class="EdgeBody" d="m418 68-109.99 93.731"   marker-end="url(#f)" /></g></g><g id="k" class="Interaction" color="#000" ><g color="#000" fill="transparent"  filter="url(#a)" stroke="#000" stroke-dasharray="117.28195934938768, 11"><path class="EdgeBody" d="m842.71 219.43-114.71-57.428"   marker-end="url(#d)" /></g></g><g id="l" class="Interaction" color="#000" ><g color="#000" fill="transparent"  filter="url(#a)" stroke="#000" stroke-dasharray="114.29106554309402, 11"><path class="EdgeBody" d="m616.65 219.43 111.35-57.428"   marker-end="url(#d)" /></g></g><g id="m" class="Interaction" color="#000" ><g color="#000" fill="transparent"  filter="url(#a)" stroke="#000" stroke-dasharray="112.45535022914301, 11"><path class="EdgeBody" d="m620.44 78.615-91.039 83.385"   marker-end="url(#d)" /></g></g><g id="n" class="Interaction" color="#000" ><g color="#000" fill="transparent"  filter="url(#a)" stroke="#000" stroke-dasharray="45.73189918668815, 5.8"><path class="EdgeBody" d="m245 161.51 39.998 32.491"   marker-end="url(#e)" /></g></g><g id="o" class="DirectedInteraction" color="#000" ><g color="#000" fill="transparent"  filter="url(#a)" stroke="#000" stroke-dasharray="99.1269042785511, 5.8"><path class="EdgeBody" d="m424 326 70.436 77.772"   marker-end="url(#c)" /></g></g><g id="p" class="DirectedInteraction" color="#000" ><g color="#000" fill="transparent"  filter="url(#a)" stroke="#000" stroke-dasharray="28.2, 5.8"><path class="EdgeBody" d="m207.83 369.1v34"   marker-end="url(#c)" /></g></g><g id="q" class="DirectedInteraction" color="#000" ><g color="#000" fill="transparent"  filter="url(#a)" stroke="#000" stroke-dasharray="125.2, 5.8"><path class="EdgeBody" d="m424 172v131"   marker-end="url(#c)" /></g></g><g id="r" class="Interaction" color="#000" ><g color="#000" fill="transparent"  filter="url(#a)" stroke="#000" stroke-dasharray="88.1378845932418, 0"><path class="EdgeBody" d="m101 204 77.089-42.728"   /></g></g><g id="s" class="Interaction" color="#000" ><g color="#000" fill="transparent"  filter="url(#a)" stroke="#000" stroke-dasharray="366.2672580645161, 7"><path class="EdgeBody" d="m404 172v69.234h-196.17v107.87"   marker-end="url(#f)" /></g></g><g id="t" class="DirectedInteraction" color="#000" ><g color="#000" fill="transparent"  filter="url(#a)" stroke="#000" stroke-dasharray="214.37015081409646, 5.8"><path class="EdgeBody" d="m444 172 135.25 173.73"   marker-end="url(#c)" /></g></g><g id="u" class="Interaction" color="#000" ><g color="#000" fill="transparent"  filter="url(#a)" stroke="#000" stroke-dasharray="64.22479672038544, 11"><path class="EdgeBody" d="m515.53 88.065 13.868 73.935"   marker-end="url(#d)" /></g></g><g id="v" class="DirectedInteraction" color="#000" ><g color="#000" fill="transparent"  filter="url(#a)" stroke="#000" stroke-dasharray="45.2, 5.8"><path class="EdgeBody" d="m424 479v51"   marker-end="url(#c)" /></g></g><g id="w" class="DirectedInteraction" color="#000" ><g color="#000" fill="transparent"  filter="url(#a)" stroke="#000" stroke-dasharray="119.59936203984452, 5.8"><path class="EdgeBody" d="m418 68 83 94"   marker-end="url(#c)" /></g></g><g id="x" class="Interaction" color="#000" ><g color="#000" fill="transparent"  filter="url(#a)" stroke="#000" stroke-dasharray="103.2, 5.8"><path class="EdgeBody" d="m573 162h-109"   marker-end="url(#e)" /></g><g class="Burr Anchor" transform="translate(501,162)" ><use class="Icon" width="0" height="0" fill="#141414" stroke-width="0" xlink:href="#b"/></g><g class="Burr Anchor" transform="translate(529.4 162)" ><use class="Icon" width="0" height="0" fill="#141414" stroke-width="0" xlink:href="#b"/></g></g><g id="y" class="DirectedInteraction" color="#000" ><g color="#000" fill="transparent"  filter="url(#a)" stroke="#000" stroke-dasharray="120.20000000000063, 5.8"><path class="EdgeBody" d="m579.25 385.73v126"   marker-end="url(#c)" /></g></g><g id="z" class="DirectedInteraction" color="#000" ><g color="#000" fill="transparent"  filter="url(#a)" stroke="#000" stroke-dasharray="127.2, 5.8"><path class="EdgeBody" d="m424 326-6e-14 133"   marker-end="url(#c)" /></g></g><g id="aa" class="Interaction" color="#000" ><g color="#000" fill="transparent"  filter="url(#a)" stroke="#000" stroke-dasharray="277.20176677893727, 5.8"><path class="EdgeBody" d="m101 161 283 1"   marker-end="url(#e)" /></g><g class="Burr Anchor" transform="translate(206.01 161.37)" ><use class="Icon" width="0" height="0" fill="#141414" stroke-width="0" xlink:href="#b"/></g><g class="Burr Anchor" transform="translate(178.09 161.27)" ><use class="Icon" width="0" height="0" fill="#141414" stroke-width="0" xlink:href="#b"/></g><g class="Burr Anchor" transform="translate(308.01 161.73)" ><use class="Icon" width="0" height="0" fill="#141414" stroke-width="0" xlink:href="#b"/></g><g class="Burr Anchor" transform="translate(245 161.51)" ><use class="Icon" width="0" height="0" fill="#141414" stroke-width="0" xlink:href="#b"/></g></g><g id="ab" class="DirectedInteraction" color="#000" ><g color="#000" fill="transparent"  filter="url(#a)" stroke="#000" stroke-dasharray="142.32157169028417, 5.8"><path class="EdgeBody" d="m735 68-122 84"   marker-end="url(#c)" /></g></g><g id="ac" class="Interaction" color="#000" ><g color="#000" fill="transparent"  filter="url(#a)" stroke="#000" stroke-dasharray="7.378005503262251, 11"><path class="EdgeBody" d="m205.5 143 0.50576 18.371"   marker-end="url(#d)" /></g></g><g id="ad" class="Interaction" color="#000" ><g color="#000" fill="transparent"  filter="url(#a)" stroke="#000" stroke-dasharray="93.44936174740374, 11"><path class="EdgeBody" d="m616.65 219.43-87.245-57.428"   marker-end="url(#d)" /></g></g><g class="Label" transform="translate(160.83 403.1)" color="#000"  name="Increased mitochondrial efficiency"><use class="Icon" width="94" height="42" fill="transparent"  stroke="#000" stroke-width="0" xlink:href="#b"/><text class="Text" transform="translate(47,24)"   font-size="10px"  text-anchor="middle"><tspan x="0" y="-11">Increased</tspan> <tspan x="0" y="0">mitochondrial</tspan> <tspan x="0" y="11">efficiency</tspan></text></g><g class="Label" transform="translate(357.5 530)" color="#000"  name="reduced risk of carciovascular disease"><use class="Icon" width="133" height="39" fill="transparent"  stroke="#000" stroke-width="0" xlink:href="#b"/><text class="Text" transform="translate(66.5,22.5)"   font-size="10px"  text-anchor="middle"><tspan x="0" y="-5.5">reduced risk of</tspan> <tspan x="0" y="5.5">carciovascular disease</tspan></text></g><g class="Label" transform="translate(388,303)" color="#000"  name="cGMP signalling"><use class="Icon" width="72" height="23" fill="transparent"  stroke="#000" stroke-width="0" xlink:href="#b"/><text class="Text" transform="translate(36,14.5)"   font-size="10px"  text-anchor="middle"><tspan x="0" y="-5.5">cGMP</tspan> <tspan x="0" y="5.5">signalling</tspan></text></g><g class="Label" transform="translate(385.5 459)" color="#000"  name="Vasodilation"><use class="Icon" width="77" height="20" fill="transparent"  stroke="#000" stroke-width="0" xlink:href="#b"/><text class="Text" transform="translate(38.5,13)"   font-size="10px"  text-anchor="middle"><tspan x="0" y="0">Vasodilation</tspan></text></g><g class="Label" transform="translate(437.94 403.77)" color="#000"  name="anti-inflammatory effects"><use class="Icon" width="113" height="28" fill="transparent"  stroke="#000" stroke-width="0" xlink:href="#b"/><text class="Text" transform="translate(56.5,17)"   font-size="10px"  text-anchor="middle"><tspan x="0" y="-5.5">anti-inflammatory</tspan> <tspan x="0" y="5.5">effects</tspan></text></g><g class="GroupNone" transform="translate(149,42)" color="grey" ><rect class="Icon" transform="matrix(.99123 0 0 .99029 .49561 .49515)" width="113" height="102" fill="#b4b464" fill-opacity=".1" stroke="grey" stroke-dasharray="5,3"/><g class="Label" transform="translate(23,9)" color="#000"  name="NOS family"><use class="Icon" width="67" height="24" fill="transparent"  stroke="#000" stroke-width="0" xlink:href="#b"/><text class="Text" transform="translate(33.5,15)"   font-size="10px"  text-anchor="middle"><tspan x="0" y="0">NOS family</tspan></text></g><a  class="GeneProduct NOS3 " transform="translate(9,73)"   name="NOS3 (endothelial)"  ><rect class="Icon" transform="matrix(.98958 0 0 .95238 .49479 .47619)" width="95" height="20" fill="#fff" stroke="#000"/><text class="Text" transform="translate(47.5,13)"   font-size="10px"  text-anchor="middle"><tspan x="0" y="0">NOS3 (endothelial)</tspan></text></a><a  class="GeneProduct NOS1 " transform="translate(9,33)"   name="NOS1 (neuronal)"  ><rect class="Icon" transform="matrix(.98958 0 0 .95238 .49479 .47619)" width="95" height="20" fill="#fff" stroke="#000"/><text class="Text" transform="translate(47.5,13)"   font-size="10px"  text-anchor="middle"><tspan x="0" y="0">NOS1 (neuronal)</tspan></text></a><a  class="GeneProduct NOS2 " transform="translate(9,53)"   name="NOS2 (inducible)"  ><rect class="Icon" transform="matrix(.98958 0 0 .95238 .49479 .47619)" width="95" height="20" fill="#fff" stroke="#000"/><text class="Text" transform="translate(47.5,13)"   font-size="10px"  text-anchor="middle"><tspan x="0" y="0">NOS2 (inducible)</tspan></text></a></g><g class="Label" transform="translate(523.75 511.73)" color="#000"  name="Increased risk of carcinogenesis"><use class="Icon" width="111" height="42" fill="transparent"  stroke="#000" stroke-width="0" xlink:href="#b"/><text class="Text" transform="translate(55.5,24)"   font-size="10px"  text-anchor="middle"><tspan x="0" y="-5.5">Increased risk</tspan> <tspan x="0" y="5.5">of carcinogenesis</tspan></text></g><g class="Label" transform="translate(277,62)" color="#000"  name="NOS Family"><use class="Icon" width="0" height="0" fill="transparent"  stroke="#000" stroke-width="0" xlink:href="#b"/><text class="Text" transform="translate(0,3)"   font-size="10px"  text-anchor="middle"><tspan x="0" y="0">NOS Family</tspan></text></g><g class="Label" transform="translate(535.75 345.73)" color="#000"  name="formation of nitrosilating species"><use class="Icon" width="87" height="40" fill="transparent"  stroke="#000" stroke-width="0" xlink:href="#b"/><text class="Text" transform="translate(43.5,23)"   font-size="10px"  text-anchor="middle"><tspan x="0" y="-11">formation of</tspan> <tspan x="0" y="0">nitrosilating</tspan> <tspan x="0" y="11">species</tspan></text></g><a class="Metabolite ChEBI_CHEBI_16480  " transform="translate(384,152)" color="#00f"  name="Nitric oxide"  ><rect class="Icon" transform="matrix(.98765 0 0 .95238 .49383 .47619)" width="80" height="20" fill="#fff" stroke="#00f"/><text class="Text" transform="translate(40,13)" fill="#00f"  font-size="10px"  text-anchor="middle"><tspan x="0" y="0">Nitric oxide</tspan></text></a><a  class="Protein AOX1 " transform="translate(688.65 219.43)"   name="AOX1"  ><rect class="Icon" transform="matrix(.98765 0 0 .95238 .49383 .47619)" width="80" height="20" fill="#fff" stroke="#000"/><text class="Text" transform="translate(40,13)"   font-size="10px"  text-anchor="middle"><tspan x="0" y="0">AOX1</tspan></text></a><a  class="GeneProduct HBA1 " transform="translate(562.44 58.615)"   name="deoxy-hemoglobin"  ><rect class="Icon" transform="matrix(.99145 0 0 .95238 .49573 .47619)" width="116" height="20" fill="#fff" stroke="#000"/><text class="Text" transform="translate(58,13)"   font-size="10px"  text-anchor="middle"><tspan x="0" y="0">deoxy-hemoglobin</tspan></text></a><a  class="GeneProduct MB " transform="translate(461.03 88.065)"   name="deoxy-myoglobin"  ><rect class="Icon" transform="matrix(.99091 0 0 .95238 .49545 .47619)" width="109" height="20" fill="#fff" stroke="#000"/><text class="Text" transform="translate(54.5,13)"   font-size="10px"  text-anchor="middle"><tspan x="0" y="0">deoxy-myoglobin</tspan></text></a><a class="Metabolite ChEBI_CHEBI_17632  " transform="translate(778,152)" color="#00f"  name="Nitrate"  ><rect class="Icon" transform="matrix(.98765 0 0 .95238 .49383 .47619)" width="80" height="20" fill="#fff" stroke="#00f"/><text class="Text" transform="translate(40,13)" fill="#00f"  font-size="10px"  text-anchor="middle"><tspan x="0" y="0">Nitrate</tspan></text></a><a  class="GeneProduct -CO1 MT-CO1 -CO1 " transform="translate(576.65 219.43)"   name="COX1"  ><rect class="Icon" transform="matrix(.98765 0 0 .95238 .49383 .47619)" width="80" height="20" fill="#fff" stroke="#000"/><text class="Text" transform="translate(40,13)"   font-size="10px"  text-anchor="middle"><tspan x="0" y="0">COX1</tspan></text></a><a class="Metabolite ChEBI_CHEBI_16349  " transform="translate(245,194)" color="#00f"  name="Citrulline"  ><rect class="Icon" transform="matrix(.98765 0 0 .95238 .49383 .47619)" width="80" height="20" fill="#fff" stroke="#00f"/><text class="Text" transform="translate(40,13)" fill="#00f"  font-size="10px"  text-anchor="middle"><tspan x="0" y="0">Citrulline</tspan></text></a><a class="Metabolite ChEBI_CHEBI_29073  " transform="translate(802.71 219.43)" color="#00f"  name="VItamin C"  ><rect class="Icon" transform="matrix(.98765 0 0 .95238 .49383 .47619)" width="80" height="20" fill="#fff" stroke="#00f"/><text class="Text" transform="translate(40,13)" fill="#00f"  font-size="10px"  text-anchor="middle"><tspan x="0" y="0">VItamin C</tspan></text></a><a class="Metabolite ChEBI_CHEBI_25567  " transform="translate(573,152)" color="#00f"  name="Nitrite"  ><rect class="Icon" transform="matrix(.98765 0 0 .95238 .49383 .47619)" width="80" height="20" fill="#fff" stroke="#00f"/><text class="Text" transform="translate(40,13)" fill="#00f"  font-size="10px"  text-anchor="middle"><tspan x="0" y="0">Nitrite</tspan></text></a><a  class="GeneProduct XDH " transform="translate(167.83 349.1)"   name="XDH"  ><rect class="Icon" transform="matrix(.98765 0 0 .95238 .49383 .47619)" width="80" height="20" fill="#fff" stroke="#000"/><text class="Text" transform="translate(40,13)"   font-size="10px"  text-anchor="middle"><tspan x="0" y="0">XDH</tspan></text></a><a class="Metabolite ChEBI_CHEBI_16467  " transform="translate(21,151)" color="#00f"  name="L-Arginine"  ><rect class="Icon" transform="matrix(.98765 0 0 .95238 .49383 .47619)" width="80" height="20" fill="#fff" stroke="#00f"/><text class="Text" transform="translate(40,13)" fill="#00f"  font-size="10px"  text-anchor="middle"><tspan x="0" y="0">L-Arginine</tspan></text></a><a class="Metabolite ChEBI_CHEBI_15379  " transform="translate(21,194)" color="#00f"  name="Oxygen"  ><rect class="Icon" transform="matrix(.98765 0 0 .95238 .49383 .47619)" width="80" height="20" fill="#fff" stroke="#00f"/><text class="Text" transform="translate(40,13)" fill="#00f"  font-size="10px"  text-anchor="middle"><tspan x="0" y="0">Oxygen</tspan></text></a><g id="ae" class="Interaction" color="#000" ><g color="#000" fill="transparent"  filter="url(#a)" stroke="#000" stroke-dasharray="119.2, 5.8"><path class="EdgeBody" d="m778 162h-125"   marker-end="url(#e)" /></g><g class="Burr Anchor" transform="translate(728,162)" ><use class="Icon" width="0" height="0" fill="#141414" stroke-width="0" xlink:href="#b"/></g></g><g class="Label" transform="translate(695,48)" color="#000"  name="Diet"><use class="Icon" width="80" height="20" fill="transparent"  stroke="#000" stroke-width="0" xlink:href="#b"/><text class="Text" transform="translate(40,13)"   font-size="10px" font-style="italic"  text-anchor="middle"><tspan x="0" y="0">Diet</tspan></text></g><text class="Text" transform="translate(5,36)" dominant-baseline="central" fill="black"  font-size="12px" font-weight="bold" overflow="visible" ><tspan x="0" y="-18">Name: Effects of nitric oxide</tspan> <tspan x="0" y="0">Last Modified: 2/22/2013</tspan> <tspan x="0" y="18">Organism: Homo sapiens</tspan></text></g></svg>
