<?xml version="1.0" encoding="UTF-8"?>
<!--
  WikiPathways page: https://www.wikipathways.org/index.php/Pathway:WP201
  URL for this compressed file: https://github.com/eweitz/cachome/tree/main/data/wikipathways/WP201.svg
  Source code for compression: https://github.com/eweitz/cachome/tree/main/src/wikipathways.py
-->
<svg class="Diagram" width="800" height="600" color="black" baseProfile="full" prefix="schema:http://schema.org/" preserveAspectRatio="xMidYMid" version="1.1" viewBox="0 0 811 818" vocab="http://vocabularies.wikipathways.org/wp#" xmlns="http://www.w3.org/2000/svg" xmlns:xlink="http://www.w3.org/1999/xlink"><style>svg {font-family: 'Liberation Sans', Arial, sans-serif; }</style><defs><filter id="j" x="0" y="0" width="811" height="818" filterUnits="userSpaceOnUse"><feColorMatrix in="SourceGraphic" values="-1   0   0 0 0                   0  -1   0 0 0                   0   0  -1 0 0                   0   0   0 1 0"/></filter><filter id="g" x="0" y="0" width="811" height="818" filterUnits="userSpaceOnUse"><feColorMatrix in="SourceGraphic" values="-1   0   0 0 0.8                   0  -1   0 0 0                   0   0  -1 0 0.8                   0   0   0 1 0"/></filter><filter id="h" x="0" y="0" width="811" height="818" filterUnits="userSpaceOnUse"><feColorMatrix in="SourceGraphic" values="-1   0   0 0 0.8                   0  -1   0 0 0                   0   0  -1 0 0.2                   0   0   0 1 0"/></filter><filter id="i" x="0" y="0" width="811" height="818" filterUnits="userSpaceOnUse"><feColorMatrix in="SourceGraphic" values="-1   0   0 0 0.8                   0  -1   0 0 0                   0   0  -1 0 0                   0   0   0 1 0"/></filter><filter id="b" x="0" y="0" width="811" height="818" filterUnits="userSpaceOnUse"><feColorMatrix in="SourceGraphic" values="-1   0   0 0 0                   0  -1   0 0 0.8                   0   0  -1 0 0.2                   0   0   0 1 0"/></filter><filter id="f" x="0" y="0" width="811" height="818" filterUnits="userSpaceOnUse"><feColorMatrix in="SourceGraphic" values="-1   0   0 0 0                   0  -1   0 0 0.8                   0   0  -1 0 0                   0   0   0 1 0"/></filter><filter id="e" x="0" y="0" width="811" height="818" filterUnits="userSpaceOnUse"><feColorMatrix in="SourceGraphic" values="-1   0   0 0 0.6                   0  -1   0 0 0                   0   0  -1 0 0.6                   0   0   0 1 0"/></filter><marker id="a" stroke-dasharray="99999" markerHeight="12" markerUnits="userSpaceOnUse" markerWidth="12" orient="auto" preserveAspectRatio="none" refX="12" refY="6" viewBox="0 0 12 12"><path transform="rotate(180 6 6)" d="M12 11L0 6l12-5z" fill="currentColor" stroke-width="0"/></marker><marker id="d" stroke-dasharray="99999" markerHeight="20" markerUnits="userSpaceOnUse" markerWidth="10" orient="auto" preserveAspectRatio="none" refX="10" refY="10" viewBox="0 0 10 20"><path d="m3 0v20" fill="currentColor" stroke="currentColor"/></marker><symbol id="c" preserveAspectRatio="none" viewBox="0 0 100 100"/></defs><g class="Viewport" color="black"  name="Name: Ptf1a related regulatory pathway Last Modified: 2/21/2013 Organism: Mus musculus"><rect class="Icon" width="811" height="818" fill="#fff" stroke="#000" stroke-width="0"/><g class="GroupGroup" transform="translate(558,444)" color="grey" ><use class="Icon" width="147" height="187" fill="transparent"  stroke="grey" stroke-dasharray="5,3" stroke-width="0" xlink:href="#c"/><g id="k" class="DirectedInteraction" color="#00cc33" ><g color="#00cc33" fill="transparent"  filter="url(#b)" stroke="#000" stroke-dasharray="53.20847396772772, 5.8"><path class="EdgeBody" d="m74 120 1 59"   marker-end="url(#a)" /></g></g><g class="Label" transform="translate(23,40)" color="#00c"  name="Trypsin"><rect class="Icon" transform="matrix(.99029 0 0 .95238 .49515 .47619)" width="102" height="20" fill="#fff" stroke="#00c"/><text class="Text" transform="translate(51,13)" fill="#00c"  font-size="10px"  text-anchor="middle"><tspan x="0" y="0">Trypsin</tspan></text></g><g class="Label" transform="translate(23,60)" color="#00c"  name="Elastase"><rect class="Icon" transform="matrix(.99029 0 0 .95238 .49515 .47619)" width="102" height="20" fill="#fff" stroke="#00c"/><text class="Text" transform="translate(51,13)" fill="#00c"  font-size="10px"  text-anchor="middle"><tspan x="0" y="0">Elastase</tspan></text></g><g class="Label" transform="translate(23,100)" color="#00c"  name="Chymotrypsinogen"><rect class="Icon" transform="matrix(.99029 0 0 .95238 .49515 .47619)" width="102" height="20" fill="#fff" stroke="#00c"/><text class="Text" transform="translate(51,13)" fill="#00c"  font-size="10px"  text-anchor="middle"><tspan x="0" y="0">Chymotrypsinogen</tspan></text></g><g class="Label" transform="translate(23,80)" color="#00c"  name="Carboxypeptidase"><rect class="Icon" transform="matrix(.99029 0 0 .95238 .49515 .47619)" width="102" height="20" fill="#fff" stroke="#00c"/><text class="Text" transform="translate(51,13)" fill="#00c"  font-size="10px"  text-anchor="middle"><tspan x="0" y="0">Carboxypeptidase</tspan></text></g><g class="Label" transform="translate(8,8)" color="#00c"  name="Acinar-specific genes"><use class="Icon" width="131" height="35" fill="transparent"  stroke="#00c" stroke-width="0" xlink:href="#c"/><text class="Text" transform="translate(65.5,21.5)" fill="#00c"  font-size="12px"  text-anchor="middle"><tspan x="0" y="0">Acinar-specific genes</tspan></text></g></g><g id="l" class="Edge GraphicalLine DirectedInteraction" color="#c0c" ><g color="#c0c" fill="transparent"  filter="url(#g)" stroke="#000" stroke-dasharray="66.2, 5.8"><path class="EdgeBody" d="m120 772h72"   marker-end="url(#a)" /></g></g><g id="m" class="DirectedInteraction" color="#00cc33" ><g color="#00cc33" fill="transparent"  filter="url(#b)" stroke="#000" stroke-dasharray="256.2, 5.8"><path class="EdgeBody" d="m679 232h66v196"   marker-end="url(#a)" /></g></g><g id="n" class="Edge GraphicalLine DirectedInteraction" color="#0c0" ><g color="#0c0" fill="transparent"  filter="url(#f)" stroke="#000" stroke-dasharray="66.2, 5.8"><path class="EdgeBody" d="m120 728h72"   marker-end="url(#a)" /></g></g><g id="o" class="DirectedInteraction" color="#00cc33" ><g color="#00cc33" fill="transparent"  filter="url(#b)" stroke="#000" stroke-dasharray="366.0712814940137, 5.8"><path class="EdgeBody" d="m297 289-163.5 334"   marker-end="url(#a)" /></g></g><g id="p" class="Edge GraphicalLine Inhibition" color="#c00" ><g color="#c00" fill="transparent"  filter="url(#i)" stroke="#000" stroke-dasharray="65, 7"><path class="EdgeBody" d="m120 751h72"   marker-end="url(#d)" /></g></g><g id="q" class="Edge GraphicalLine Inhibition" color="#c0c" ><g color="#c0c" fill="transparent"  filter="url(#g)" stroke="#000" stroke-dasharray="65, 7"><path class="EdgeBody" d="m120 788h72"   marker-end="url(#d)" /></g></g><g id="r" class="DirectedInteraction" color="#00cc33" ><g color="#00cc33" fill="transparent"  filter="url(#b)" stroke="#000" stroke-dasharray="170.2, 5.8"><path class="EdgeBody" d="m745 448v176"   marker-end="url(#a)" /></g></g><g id="s" class="Inhibition" color="#990099" ><g color="#990099" fill="transparent"  filter="url(#e)" stroke="#000" stroke-dasharray="266.0004578750739, 7"><path class="EdgeBody" d="m404.25 350 0.5 273"   marker-end="url(#d)" /></g></g><g id="t" class="Interaction" color="#00cc33" ><g color="#00cc33" fill="transparent"  filter="url(#b)" stroke="#000" stroke-dasharray="75.2850151159639, 0"><path class="EdgeBody" d="m614.98 370-75.284 0.33828"   /></g></g><g id="u" class="DirectedInteraction" color="#00cc33" ><g color="#00cc33" fill="transparent"  filter="url(#b)" stroke="#000" stroke-dasharray="112.2, 5.8"><path class="EdgeBody" d="m85.5 242v118"   marker-end="url(#a)" /></g><g class="Burr Anchor" transform="translate(85.5 289.84)" ><use class="Icon" width="0" height="0" fill="#141414" stroke-width="0" xlink:href="#c"/></g></g><g id="v" class="DirectedInteraction" color="#0c0" ><g color="#0c0" fill="transparent"  filter="url(#f)" stroke="#000" stroke-dasharray="74.71700476020922, 5.8"><path class="EdgeBody" d="m294.48 542.48-0.23333 80.517"   marker-end="url(#a)" /></g></g><g id="w" class="Interaction" color="#000" ><g color="#000" fill="transparent"  filter="url(#j)" stroke="#000" stroke-dasharray="10.796411440844592, 0"><path class="EdgeBody" d="m349.5 318-10.75-1"   /></g></g><g id="x" class="Interaction" color="#00cc33" ><g color="#00cc33" fill="transparent"  filter="url(#b)" stroke="#000" stroke-dasharray="182.9911471916863, 0"><path class="EdgeBody" d="m464 289 182.99-0.68224"   /></g></g><g id="y" class="DirectedInteraction" color="#990099" ><g color="#990099" fill="transparent"  filter="url(#e)" stroke="#000" stroke-dasharray="267.2, 5.8"><path class="EdgeBody" d="m349.5 350v273"   marker-end="url(#a)" /></g></g><g id="z" class="DirectedInteraction" color="#0c0" ><g color="#0c0" fill="transparent"  filter="url(#f)" stroke="#000" stroke-dasharray="99.43903611408751, 5.8"><path class="EdgeBody" d="m226.48 542.48 67.767 80.517"   marker-end="url(#a)" /></g></g><g id="aa" class="DirectedInteraction" color="#00cc33" ><g color="#00cc33" fill="transparent"  filter="url(#b)" stroke="#000" stroke-dasharray="57.18333333333335, 5.8"><path class="EdgeBody" d="m650 121h62.983"   marker-end="url(#a)" /></g></g><g id="ab" class="DirectedInteraction" color="#00cc33" ><g color="#00cc33" fill="transparent"  filter="url(#b)" stroke="#000" stroke-dasharray="149.44797457973843, 5.8"><path class="EdgeBody" d="m238.98 131 58.017 144"   marker-end="url(#a)" /></g></g><g id="ac" class="DirectedInteraction" color="#990099" ><g color="#990099" fill="transparent"  filter="url(#e)" stroke="#000" stroke-dasharray="297.5464397351648, 5.8"><path class="EdgeBody" d="M426.75,350L559,623"   marker-end="url(#a)" /></g></g><g id="ad" class="DirectedInteraction" color="#00cc33" ><g color="#00cc33" fill="transparent"  filter="url(#b)" stroke="#000" stroke-dasharray="127.94702592747414, 5.8"><path class="EdgeBody" d="m646.98 222 98.017-91"   marker-end="url(#a)" /></g></g><g id="ae" class="DirectedInteraction" color="#00cc33" ><g color="#00cc33" fill="transparent"  filter="url(#b)" stroke="#000" stroke-dasharray="218.38128824681152, 5.8"><path class="EdgeBody" d="m464 303 167.5 149"   marker-end="url(#a)" /></g><g class="Burr Anchor" transform="translate(539.7 370.34)" ><use class="Icon" width="0" height="0" fill="#141414" stroke-width="0" xlink:href="#c"/></g></g><g id="af" class="DirectedInteraction" color="#00cc33" ><g color="#00cc33" fill="transparent"  filter="url(#b)" stroke="#000" stroke-dasharray="112.20000117702448, 5.8"><path class="EdgeBody" d="m646.98 242 0.016667 118"   marker-end="url(#a)" /></g><g class="Burr Anchor" transform="translate(646.99 288.32)" ><use class="Icon" width="0" height="0" fill="#141414" stroke-width="0" xlink:href="#c"/></g></g><g id="ag" class="Interaction" color="#00cc33" ><g color="#00cc33" fill="transparent"  filter="url(#b)" stroke="#000" stroke-dasharray="211.50165950233702, 0"><path class="EdgeBody" d="m297 289-211.5 0.83784"   /></g></g><g id="ah" class="DirectedInteraction" color="#00cc33" ><g color="#00cc33" fill="transparent"  filter="url(#b)" stroke="#000" stroke-dasharray="192.27069445023915, 5.8"><path class="EdgeBody" d="m161 131 136 144"   marker-end="url(#a)" /></g></g><g id="ai" class="Interaction" color="#000" ><g color="#000" fill="transparent"  filter="url(#j)" stroke="#000" stroke-dasharray="6.823672031978091, 0"><path class="EdgeBody" d="m422.25 317-6.75 1"   /></g></g><g id="aj" class="DirectedInteraction" color="#00cc33" ><g color="#00cc33" fill="transparent"  filter="url(#b)" stroke="#000" stroke-dasharray="250.06764156493097, 5.8"><path class="EdgeBody" d="M85.5,131L297,275"   marker-end="url(#a)" /></g></g><g id="ak" class="DirectedInteraction" color="#00cc33" ><g color="#00cc33" fill="transparent"  filter="url(#b)" stroke="#000" stroke-dasharray="237.20012860078901, 5.8"><path class="EdgeBody" d="m85.5 380-0.25 243"   marker-end="url(#a)" /></g></g><g id="al" class="Inhibition" color="#cc0033" ><g color="#cc0033" fill="transparent"  filter="url(#h)" stroke="#000" stroke-dasharray="123.89335778071825, 7"><path class="EdgeBody" d="m323.48 131 15.267 130"   marker-end="url(#d)" /></g></g><g id="am" class="DirectedInteraction" color="#990099" ><g color="#990099" fill="transparent"  filter="url(#e)" stroke="#000" stroke-dasharray="224.7331513880138, 5.8"><path class="EdgeBody" d="m297 303-70.517 219.48"   marker-end="url(#a)" /></g></g><g id="an" class="Inhibition" color="#00cc33" ><g color="#00cc33" fill="transparent"  filter="url(#b)" stroke="#000" stroke-dasharray="285.76048278034006, 7"><path class="EdgeBody" d="m712.98 121-248.98 154"   marker-end="url(#d)" /></g></g><g id="ao" class="Inhibition" color="#c00" ><g color="#c00" fill="transparent"  filter="url(#i)" stroke="#000" stroke-dasharray="142.20831448384877, 7"><path class="EdgeBody" d="m495.48 131-73.233 130"   marker-end="url(#d)" /></g></g><g id="ap" class="Inhibition" color="#cc0033" ><g color="#cc0033" fill="transparent"  filter="url(#h)" stroke="#000" stroke-dasharray="126.30141388764204, 7"><path class="EdgeBody" d="m409.98 131-29.483 130"   marker-end="url(#d)" /></g></g><g id="aq" class="DirectedInteraction" color="#990099" ><g color="#990099" fill="transparent"  filter="url(#e)" stroke="#000" stroke-dasharray="213.69776131483033, 5.8"><path class="EdgeBody" d="m297 303-2.5167 219.48"   marker-end="url(#a)" /></g></g><g class="Label" transform="translate(220,718)" color="#009900"  name="Documented interaction, positive"><use class="Icon" width="195" height="20" fill="transparent"  stroke="#009900" stroke-width="0" xlink:href="#c"/><text class="Text" transform="translate(97.5,14)" fill="#009900"  font-size="12px" stroke="black" stroke-width="0" text-anchor="middle"><tspan x="0" y="0">Documented interaction, positive</tspan></text></g><g class="Label" transform="translate(28,715)" color="#000"  name="Symbols:"><use class="Icon" width="80" height="20" fill="transparent"  stroke="#000" stroke-width="0" xlink:href="#c"/><text class="Text" transform="translate(40,14)"   font-size="13px" font-weight="bold"  text-anchor="middle"><tspan x="0" y="0">Symbols:</tspan></text></g><g class="Label" transform="translate(214,768)" color="#c0c"  name="Documented interaction, not in mouse"><use class="Icon" width="237" height="20" fill="transparent"  stroke="#c0c" stroke-width="0" xlink:href="#c"/><text class="Text" transform="translate(118.5,14)" fill="#c0c"  font-size="12px"  text-anchor="middle"><tspan x="0" y="0">Documented interaction, not in mouse</tspan></text></g><g class="Label" transform="translate(224,740)" color="#cc0033"  name="Proved interaction from our study, negative"><use class="Icon" width="241" height="20" fill="transparent"  stroke="#cc0033" stroke-width="0" xlink:href="#c"/><text class="Text" transform="translate(120.5,14)" fill="#cc0033"  font-size="12px"  text-anchor="middle"><tspan x="0" y="0">Proved interaction from our study, negative</tspan></text></g><g class="Label" transform="translate(239,623)" color="#990033"  name="Endocrine pancreas"><rect class="Icon" transform="matrix(.9955 0 0 .98551 .49775 .49275)" width="221" height="68" rx="15" ry="15" fill="#fff" stroke="#903"/><text class="Text" transform="translate(110.5,39)" fill="#990033"  font-size="16px" font-weight="bold"  text-anchor="middle"><tspan x="0" y="0">Endocrine pancreas</tspan></text></g><g class="Label" transform="translate(37,623)" color="#990033"  name="Pancreas specification"><rect class="Icon" transform="matrix(.99485 0 0 .98551 .49742 .49275)" width="193" height="68" rx="15" ry="15" fill="#fff" stroke="#903"/><text class="Text" transform="translate(96.5,39)" fill="#990033"  font-size="16px" font-weight="bold"  text-anchor="middle"><tspan x="0" y="0">Pancreas specification</tspan></text></g><g class="Label" transform="translate(485,623)" color="#990033"  name="Exocrine pancreas"><rect class="Icon" transform="matrix(.99663 0 0 .98551 .49832 .49275)" width="296" height="68" rx="15" ry="15" fill="#fff" stroke="#903"/><text class="Text" transform="translate(148,39)" fill="#990033"  font-size="16px" font-weight="bold"  text-anchor="middle"><tspan x="0" y="0">Exocrine pancreas</tspan></text></g><g class="Label" transform="translate(393,318)" color="#c00"  name="High  level"><rect class="Icon" transform="matrix(.97826 0 0 .9697 .48913 .48485)" width="45" height="32" rx="15" ry="15" fill="#fff" stroke="#c00"/><text class="Text" transform="translate(22.5,19)" fill="#c00"  font-size="10px"  text-anchor="middle"><tspan x="0" y="-5.5">High </tspan> <tspan x="0" y="5.5">level</tspan></text></g><g class="Label" transform="translate(327,318)" color="#00cc33"  name="Low level"><rect class="Icon" transform="matrix(.97826 0 0 .9697 .48913 .48485)" width="45" height="32" rx="15" ry="15" fill="#fff" stroke="#0c3"/><text class="Text" transform="translate(22.5,19)" fill="#00cc33"  font-size="10px" stroke="black" stroke-width="0" text-anchor="middle"><tspan x="0" y="-5.5">Low</tspan> <tspan x="0" y="5.5">level</tspan></text></g><a class="GeneProduct P594_ENSMUSG00000029644 " transform="translate(712.98 428)" color="#00c"  name="Pdx1"  ><rect class="Icon" transform="matrix(.98462 0 0 .95238 .49231 .47619)" width="64.033" height="20" fill="#fff" stroke="#00c"/><text class="Text" transform="translate(32.017 13)" fill="#00c"  font-size="10px"  text-anchor="middle"><tspan x="0" y="0">Pdx1</tspan></text></a><a class="GeneProduct P594_ENSMUSG00000039191 " transform="translate(53.483 222)" color="#00c"  name="Rbpj"  ><rect class="Icon" transform="matrix(.98462 0 0 .95238 .49231 .47619)" width="64.033" height="20" fill="#fff" stroke="#00c"/><text class="Text" transform="translate(32.017 13)" fill="#00c"  font-size="10px"  text-anchor="middle"><tspan x="0" y="0">Rbpj</tspan></text></a><g class="miRBase_Sequence_MI0004639 Rna P594_ENSMUSG00000070105" transform="translate(463.47 111)" color="#00c"  name="miR-495"><rect class="Icon" transform="matrix(.98462 0 0 .95238 .49231 .47619)" width="64.033" height="20" fill="#fff" stroke="#00c"/><text class="Text" transform="translate(32.017 13)" fill="#00c"  font-size="10px"  text-anchor="middle"><tspan x="0" y="0">miR-495</tspan></text></g><a class="GeneProduct P594_ENSMUSG00000035187 " transform="translate(194.47 522.48)" color="#00c"  name="Nkx6-1"  ><rect class="Icon" transform="matrix(.98462 0 0 .95238 .49231 .47619)" width="64.033" height="20" fill="#fff" stroke="#00c"/><text class="Text" transform="translate(32.017 13)" fill="#00c"  font-size="10px"  text-anchor="middle"><tspan x="0" y="0">Nkx6-1</tspan></text></a><a class="GeneProduct P594_ENSMUSG00000006932 " transform="translate(128.98 111)" color="#00c"  name="Ctnnb1"  ><rect class="Icon" transform="matrix(.98462 0 0 .95238 .49231 .47619)" width="64.033" height="20" fill="#fff" stroke="#00c"/><text class="Text" transform="translate(32.017 13)" fill="#00c"  font-size="10px"  text-anchor="middle"><tspan x="0" y="0">Ctnnb1</tspan></text></a><a class="MGI_MGI_104853 GeneProduct P594_ENSMUSG00000022528 " transform="translate(712.98 111)" color="#00c"  name="Hes1"  ><rect class="Icon" transform="matrix(.98462 0 0 .95238 .49231 .47619)" width="64.033" height="20" fill="#fff" stroke="#00c"/><text class="Text" transform="translate(32.017 13)" fill="#00c"  font-size="10px"  text-anchor="middle"><tspan x="0" y="0">Hes1</tspan></text></a><a class="GeneProduct P594_ENSMUSG00000010175 " transform="translate(262.47 522.48)" color="#00c"  name="Prox1"  ><rect class="Icon" transform="matrix(.98462 0 0 .95238 .49231 .47619)" width="64.033" height="20" fill="#fff" stroke="#00c"/><text class="Text" transform="translate(32.017 13)" fill="#00c"  font-size="10px"  text-anchor="middle"><tspan x="0" y="0">Prox1</tspan></text></a><a class="GeneProduct P594_ENSMUSG00000039191 " transform="translate(614.97 222)" color="#00c"  name="Rbpj"  ><rect class="Icon" transform="matrix(.98462 0 0 .95238 .49231 .47619)" width="64.033" height="20" fill="#fff" stroke="#00c"/><text class="Text" transform="translate(32.017 13)" fill="#00c"  font-size="10px"  text-anchor="middle"><tspan x="0" y="0">Rbpj</tspan></text></a><a class="GeneProduct P594_ENSMUSG00000026923 " transform="translate(585.97 111)" color="#00c"  name="Notch1"  ><rect class="Icon" transform="matrix(.98462 0 0 .95238 .49231 .47619)" width="64.033" height="20" fill="#fff" stroke="#00c"/><text class="Text" transform="translate(32.017 13)" fill="#00c"  font-size="10px"  text-anchor="middle"><tspan x="0" y="0">Notch1</tspan></text></a><a class="Protein P594_ENSMUSG00000029644 " transform="translate(53.483 360)" color="#00c"  name="Pdx1"  ><rect class="Icon" transform="matrix(.98462 0 0 .95238 .49231 .47619)" width="64.033" height="20" fill="#fff" stroke="#00c"/><text class="Text" transform="translate(32.017 13)" fill="#00c"  font-size="10px"  text-anchor="middle"><tspan x="0" y="0">Pdx1</tspan></text></a><a class="GeneProduct P594_ENSMUSG00000021732 " transform="translate(206.97 111)" color="#00c"  name="Fgf10"  ><rect class="Icon" transform="matrix(.98462 0 0 .95238 .49231 .47619)" width="64.033" height="20" fill="#fff" stroke="#00c"/><text class="Text" transform="translate(32.017 13)" fill="#00c"  font-size="10px"  text-anchor="middle"><tspan x="0" y="0">Fgf10</tspan></text></a><a class="GeneProduct P594_ENSMUSG00000000708 " transform="translate(53.483 111)" color="#00c"  name="Kat2b"  ><rect class="Icon" transform="matrix(.98462 0 0 .95238 .49231 .47619)" width="64.033" height="20" fill="#fff" stroke="#00c"/><text class="Text" transform="translate(32.017 13)" fill="#00c"  font-size="10px"  text-anchor="middle"><tspan x="0" y="0">Kat2b</tspan></text></a><g class="miRBase_Sequence_MI0000169 Rna P594_ENSMUSG00000065592" transform="translate(377.97 111)" color="#00c"  name="miR-145"><rect class="Icon" transform="matrix(.98462 0 0 .95238 .49231 .47619)" width="64.033" height="20" fill="#fff" stroke="#00c"/><text class="Text" transform="translate(32.017 13)" fill="#00c"  font-size="10px"  text-anchor="middle"><tspan x="0" y="0">miR-145</tspan></text></g><a class="GeneProduct P594_ENSMUSG00000017007 " transform="translate(614.98 360)" color="#00c"  name="Rbpjl"  ><rect class="Icon" transform="matrix(.98462 0 0 .95238 .49231 .47619)" width="64.033" height="20" fill="#fff" stroke="#00c"/><text class="Text" transform="translate(32.017 13)" fill="#00c"  font-size="10px"  text-anchor="middle"><tspan x="0" y="0">Rbpjl</tspan></text></a><g class="miRBase_Sequence_MI0000567 Rna P594_ENSMUSG00000065403" transform="translate(291.47 111)" color="#00c"  name="miR-18a"><rect class="Icon" transform="matrix(.98462 0 0 .95238 .49231 .47619)" width="64.033" height="20" fill="#fff" stroke="#00c"/><text class="Text" transform="translate(32.017 13)" fill="#00c"  font-size="10px"  text-anchor="middle"><tspan x="0" y="0">miR-18a</tspan></text></g><a class="GeneProduct P594_ENSMUSG00000026735 " transform="translate(297,261)" color="#00c"  name="Ptf1a"  ><rect class="Icon" transform="matrix(.99405 0 0 .98246 .49702 .49123)" width="167" height="56" fill="#fff" stroke="#00c"/><text class="Text" transform="translate(83.5,31)" fill="#00c"  font-size="10px"  text-anchor="middle"><tspan x="0" y="0">Ptf1a</tspan></text></a><text class="Text" transform="translate(5,36)" dominant-baseline="central" fill="black"  font-size="12px" font-weight="bold" overflow="visible" ><tspan x="0" y="-18">Name: Ptf1a related regulatory pathway</tspan> <tspan x="0" y="0">Last Modified: 2/21/2013</tspan> <tspan x="0" y="18">Organism: Mus musculus</tspan></text></g></svg>
