<?xml version="1.0" encoding="UTF-8"?>
<!--
  WikiPathways page: https://www.wikipathways.org/index.php/Pathway:WP2290
  URL for this compressed file: https://github.com/eweitz/cachome/tree/main/data/wikipathways/WP2290.svg
  Source code for compression: https://github.com/eweitz/cachome/tree/main/src/wikipathways.py
-->
<svg class="Diagram" width="800" height="600" color="black" baseProfile="full" prefix="schema:http://schema.org/" preserveAspectRatio="xMidYMid" version="1.1" viewBox="0 0 618 336" vocab="http://vocabularies.wikipathways.org/wp#" xmlns="http://www.w3.org/2000/svg" xmlns:xlink="http://www.w3.org/1999/xlink"><style>svg {font-family: 'Liberation Sans', Arial, sans-serif; }</style><defs><filter id="b" x="0" y="0" width="618" height="336" filterUnits="userSpaceOnUse"><feColorMatrix in="SourceGraphic" values="-1   0   0 0 0                   0  -1   0 0 0                   0   0  -1 0 0                   0   0   0 1 0"/></filter><filter id="c" x="0" y="0" width="618" height="336" filterUnits="userSpaceOnUse"><feColorMatrix in="SourceGraphic" values="-1   0   0 0 1                   0  -1   0 0 0                   0   0  -1 0 0                   0   0   0 1 0"/></filter><marker id="a" stroke-dasharray="99999" markerHeight="12" markerUnits="userSpaceOnUse" markerWidth="12" orient="auto" preserveAspectRatio="none" refX="12" refY="6" viewBox="0 0 12 12"><path transform="rotate(180 6 6)" d="M12 11L0 6l12-5z" fill="currentColor" stroke-width="0"/></marker></defs><g class="Viewport" color="black"  name="Name: RalA downstream regulated genes Organism: Homo sapiens"><rect class="Icon" width="618" height="336" fill="#fff" stroke="#000" stroke-width="0"/><g id="d" class="DirectedInteraction" color="#000" ><g color="#000" fill="transparent"  filter="url(#b)" stroke="#000" stroke-dasharray="137.3782106327635, 5.8"><path class="EdgeBody" d="m400 198 108-94"   marker-end="url(#a)" /></g></g><g id="e" class="DirectedInteraction" color="#000" ><g color="#000" fill="transparent"  filter="url(#b)" stroke="#000" stroke-dasharray="65.2, 5.8"><path class="EdgeBody" d="m249 198h71"   marker-end="url(#a)" /></g></g><g id="f" class="DirectedInteraction" color="#000" ><g color="#000" fill="transparent"  filter="url(#b)" stroke="#000" stroke-dasharray="62.2, 5.8"><path class="EdgeBody" d="m209 211v68"   marker-end="url(#a)" /></g></g><g id="g" class="DirectedInteraction" color="#f00" ><g color="#f00" fill="transparent"  filter="url(#c)" stroke="#000" stroke-dasharray="59.15829485570795, 5.8"><path class="EdgeBody" d="m209.21 120.04-0.20921 64.958"   marker-end="url(#a)" /></g></g><g class="GroupNone" transform="translate(160.21 21.04)" color="grey" ><rect class="Icon" transform="matrix(.9899 0 0 .9901 .49495 .49505)" width="98" height="100" fill="#b4b464" fill-opacity=".1" stroke="grey" stroke-dasharray="5,3"/><g class="Label" transform="translate(9,9)" color="#f00"  name="RAS"><rect class="Icon" transform="matrix(.98765 0 0 .95238 .49383 .47619)" width="80" height="20" fill="#fff" stroke="#f00"/><text class="Text" transform="translate(40,13)" fill="#f00"  font-size="10px" font-weight="bold" stroke="black" stroke-width="0" text-anchor="middle"><tspan x="0" y="0">RAS</tspan></text></g><a  class="GeneProduct HRAS " transform="translate(9 31.002)"   name="HRAS"  ><rect class="Icon" transform="matrix(.98765 0 0 .95238 .49383 .47619)" width="80" height="20" fill="#fff" stroke="#000"/><text class="Text" transform="translate(40 13)"   font-size="10px"  text-anchor="middle"><tspan x="0" y="0">HRAS</tspan></text></a><a  class="GeneProduct KRAS " transform="translate(9 51.002)"   name="KRAS"  ><rect class="Icon" transform="matrix(.98765 0 0 .95238 .49383 .47619)" width="80" height="20" fill="#fff" stroke="#000"/><text class="Text" transform="translate(40 13)"   font-size="10px"  text-anchor="middle"><tspan x="0" y="0">KRAS</tspan></text></a><a  class="GeneProduct NRAS " transform="translate(9 71.002)"   name="NRAS"  ><rect class="Icon" transform="matrix(.98765 0 0 .95238 .49383 .47619)" width="80" height="20" fill="#fff" stroke="#000"/><text class="Text" transform="translate(40 13)"   font-size="10px"  text-anchor="middle"><tspan x="0" y="0">NRAS</tspan></text></a></g><a  class="GeneProduct YBX3 " transform="translate(46,279)"   name="ZONAB"  ><rect class="Icon" transform="matrix(.98765 0 0 .96296 .49383 .48148)" width="80" height="26" fill="#fff" stroke="#000"/><text class="Text" transform="translate(40,17)"   font-size="12px"  text-anchor="middle"><tspan x="0" y="0">ZONAB</tspan></text></a><a  class="GeneProduct EXOC2 " transform="translate(292,279)"   name="SEC5"  ><rect class="Icon" transform="matrix(.98765 0 0 .96296 .49383 .48148)" width="80" height="26" fill="#fff" stroke="#000"/><text class="Text" transform="translate(40,17)"   font-size="12px"  text-anchor="middle"><tspan x="0" y="0">SEC5</tspan></text></a><a  class="GeneProduct EXOC8 " transform="translate(169,279)"   name="EXOC84"  ><rect class="Icon" transform="matrix(.98765 0 0 .96296 .49383 .48148)" width="80" height="26" fill="#fff" stroke="#000"/><text class="Text" transform="translate(40,17)"   font-size="12px"  text-anchor="middle"><tspan x="0" y="0">EXOC84</tspan></text></a><a  class="GeneProduct RALBP1 " transform="translate(320,185)"   name="RALBP1"  ><rect class="Icon" transform="matrix(.98765 0 0 .96296 .49383 .48148)" width="80" height="26" fill="#fff" stroke="#000"/><text class="Text" transform="translate(40,17)"   font-size="12px"  text-anchor="middle"><tspan x="0" y="0">RALBP1</tspan></text></a><a  class="GeneProduct CDC42 " transform="translate(508,91)"   name="CDC42"  ><rect class="Icon" transform="matrix(.98765 0 0 .96296 .49383 .48148)" width="80" height="26" fill="#fff" stroke="#000"/><text class="Text" transform="translate(40,17)"   font-size="12px"  text-anchor="middle"><tspan x="0" y="0">CDC42</tspan></text></a><a  class="GeneProduct RAC3 " transform="translate(508,151)"   name="RAC3"  ><rect class="Icon" transform="matrix(.98765 0 0 .96296 .49383 .48148)" width="80" height="26" fill="#fff" stroke="#000"/><text class="Text" transform="translate(40,17)"   font-size="12px"  text-anchor="middle"><tspan x="0" y="0">RAC3</tspan></text></a><a  class="GeneProduct RAC2 " transform="translate(508,222)"   name="RAC2"  ><rect class="Icon" transform="matrix(.98765 0 0 .96296 .49383 .48148)" width="80" height="26" fill="#fff" stroke="#000"/><text class="Text" transform="translate(40,17)"   font-size="12px"  text-anchor="middle"><tspan x="0" y="0">RAC2</tspan></text></a><a  class="GeneProduct RAC1 " transform="translate(508,280)"   name="RAC1"  ><rect class="Icon" transform="matrix(.98765 0 0 .96296 .49383 .48148)" width="80" height="26" fill="#fff" stroke="#000"/><text class="Text" transform="translate(40,17)"   font-size="12px"  text-anchor="middle"><tspan x="0" y="0">RAC1</tspan></text></a><g id="h" class="DirectedInteraction" color="#000" ><g color="#000" fill="transparent"  filter="url(#b)" stroke="#000" stroke-dasharray="107.42543883774529, 5.8"><path class="EdgeBody" d="m400 198 108-34"   marker-end="url(#a)" /></g></g><g id="i" class="DirectedInteraction" color="#000" ><g color="#000" fill="transparent"  filter="url(#b)" stroke="#000" stroke-dasharray="108.36216536138407, 5.8"><path class="EdgeBody" d="m400 198 108 37"   marker-end="url(#a)" /></g></g><g id="j" class="DirectedInteraction" color="#000" ><g color="#000" fill="transparent"  filter="url(#b)" stroke="#000" stroke-dasharray="138.03671297690306, 5.8"><path class="EdgeBody" d="m400 198 108 95"   marker-end="url(#a)" /></g></g><a  class="GeneProduct RALA " transform="translate(169,185)"   name="RalA"  ><rect class="Icon" transform="matrix(.97561 0 0 .92857 .97561 .92857)" width="80" height="26" fill="#fff" stroke="#000" stroke-width="2"/><text class="Text" transform="translate(40,17)"   font-size="12px" font-weight="bold"  text-anchor="middle"><tspan x="0" y="0">RalA</tspan></text></a><g id="k" class="DirectedInteraction" color="#000" ><g color="#000" fill="transparent"  filter="url(#b)" stroke="#000" stroke-dasharray="117.62204017111368, 5.8"><path class="EdgeBody" d="m209 211 103 68"   marker-end="url(#a)" /></g></g><g id="l" class="DirectedInteraction" color="#000" ><g color="#000" fill="transparent"  filter="url(#b)" stroke="#000" stroke-dasharray="117.62204017111368, 5.8"><path class="EdgeBody" d="m209 211-103 68"   marker-end="url(#a)" /></g></g><text class="Text" transform="translate(5,27)" dominant-baseline="central" fill="black"  font-size="12px" font-weight="bold" overflow="visible" ><tspan x="0" y="-9">Name: RalA downstream regulated genes</tspan> <tspan x="0" y="9">Organism: Homo sapiens</tspan></text></g></svg>
