<?xml version="1.0" encoding="UTF-8"?>
<!--
  WikiPathways page: https://www.wikipathways.org/index.php/Pathway:WP238
  URL for this compressed file: https://github.com/eweitz/cachome/tree/main/data/wikipathways/WP238.svg
  Source code for compression: https://github.com/eweitz/cachome/tree/main/src/wikipathways.py
-->
<svg class="Diagram" width="800" height="600" color="black" baseProfile="full" prefix="schema:http://schema.org/" preserveAspectRatio="xMidYMid" version="1.1" viewBox="0 0 1071.7 704.64" vocab="http://vocabularies.wikipathways.org/wp#" xmlns="http://www.w3.org/2000/svg" xmlns:xlink="http://www.w3.org/1999/xlink"><style>svg {font-family: 'Liberation Sans', Arial, sans-serif; }</style><defs><filter id="a" x="0" y="0" width="1071.7" height="704.64" filterUnits="userSpaceOnUse"><feColorMatrix in="SourceGraphic" values="-1   0   0 0 0                   0  -1   0 0 0                   0   0  -1 0 0                   0   0   0 1 0"/></filter><marker id="b" stroke-dasharray="99999" markerHeight="12" markerUnits="userSpaceOnUse" markerWidth="12" orient="auto" preserveAspectRatio="none" refX="12" refY="6" viewBox="0 0 12 12"><path transform="rotate(180 6 6)" d="M12 11L0 6l12-5z" fill="currentColor" stroke-width="0"/></marker><marker id="c" stroke-dasharray="99999" markerHeight="20" markerUnits="userSpaceOnUse" markerWidth="10" orient="auto" preserveAspectRatio="none" refX="10" refY="10" viewBox="0 0 10 20"><path d="m3 0v20" fill="currentColor" stroke="currentColor"/></marker><symbol id="e" overflow="visible" preserveAspectRatio="none" viewBox="0 0 50 50"><ellipse cx="25" cy="25" rx="25" ry="25" stroke="currentColor" vector-effect="non-scaling-stroke"/></symbol><symbol id="d" preserveAspectRatio="none" viewBox="0 0 100 100"/></defs><g class="Viewport" color="black"  name="Name: Osteoblast signaling Organism: Mus musculus"><rect class="Icon" width="1071.7" height="704.64" fill="#fff" stroke="#000" stroke-width="0"/><g id="f" class="DirectedInteraction" color="#000" ><g color="#000" fill="transparent"  filter="url(#a)" stroke="#000" stroke-dasharray="84.95084492392124, 5.8"><path class="EdgeBody" d="m465.6 650.2 79.108-44.47"   marker-end="url(#b)" /></g></g><g id="g" class="Edge GraphicalLine DirectedInteraction" color="#000" ><g color="#000" fill="transparent"  filter="url(#a)" stroke="#000" stroke-dasharray="150.6346968564021, 5.8"><path class="EdgeBody" d="m298.3 579.61 138.29-73.135"   marker-end="url(#b)" /></g></g><g id="h" class="DirectedInteraction" color="#000" ><g color="#000" fill="transparent"  filter="url(#a)" stroke="#000" stroke-dasharray="306.45810502375434, 5.8"><path class="EdgeBody" d="m593.69 277.18 304.39 69.675"   marker-end="url(#b)" /></g></g><g id="i" class="DirectedInteraction" color="#000" ><g color="#000" fill="transparent"  filter="url(#a)" stroke="#000" stroke-dasharray="89.98661157032898, 5.8"><path class="EdgeBody" d="m886.66 139.76-83.024 47.771"   marker-end="url(#b)" /></g></g><g id="j" class="DirectedInteraction" color="#000" ><g color="#000" fill="transparent"  filter="url(#a)" stroke="#000" stroke-dasharray="300.06938140381055, 5.8"><path class="EdgeBody" d="m199.92 263.45 298.86 65.108"   marker-end="url(#b)" /></g></g><g id="k" class="Inhibition" color="#000" ><g color="#000" fill="transparent"  filter="url(#a)" stroke="#000" stroke-dasharray="310.19777163720454, 7"><path class="EdgeBody" d="m209.78 589.88 290.8-126.7"   marker-end="url(#c)" /></g></g><g id="l" class="DirectedInteraction" color="#000" ><g color="#000" fill="transparent"  filter="url(#a)" stroke="#000" stroke-dasharray="259.9750460199377, 5.8"><path class="EdgeBody" d="m167.57 267.84 232.27 129.17"   marker-end="url(#b)" /></g></g><g id="m" class="Inhibition" color="#000" ><g color="#000" fill="transparent"  filter="url(#a)" stroke="#000" stroke-dasharray="118.40092004046637, 7"><path class="EdgeBody" d="m547.2 593.17 0.91565-125.4"   marker-end="url(#c)" /></g></g><g id="n" class="Inhibition" color="#000" ><g color="#000" fill="transparent"  filter="url(#a)" stroke="#000" stroke-dasharray="293.01692812545554, 7"><path class="EdgeBody" d="m203.53 271.33 285.54 92.064"   marker-end="url(#c)" /></g></g><g id="o" class="DirectedInteraction" color="#000" ><g color="#000" fill="transparent"  filter="url(#a)" stroke="#000" stroke-dasharray="217.91226116650762, 5.8"><path class="EdgeBody" d="m689.67 89.574-145.88 169.61"   marker-end="url(#b)" /></g></g><g id="p" class="DirectedInteraction" color="#000" ><g color="#000" fill="transparent"  filter="url(#a)" stroke="#000" stroke-dasharray="179.79059708672418, 5.8"><path class="EdgeBody" d="m397.38 411.68-185.59-0.28915"   marker-end="url(#b)" /></g></g><g id="q" class="DirectedInteraction" color="#000" ><g color="#000" fill="transparent"  filter="url(#a)" stroke="#000" stroke-dasharray="312.2633585860809, 5.8"><path class="EdgeBody" d="m591.53 375.52 318.02 4.996"   marker-end="url(#b)" /></g></g><g id="r" class="DirectedInteraction" color="#000" ><g color="#000" fill="transparent"  filter="url(#a)" stroke="#000" stroke-dasharray="247.52067568309525, 5.8"><path class="EdgeBody" d="m645.64 257.41 246.02 60.361"   marker-end="url(#b)" /></g></g><g id="s" class="DirectedInteraction" color="#000" ><g color="#000" fill="transparent"  filter="url(#a)" stroke="#000" stroke-dasharray="146.3232006963709, 5.8"><path class="EdgeBody" d="m697.41 89.574-61.365 139.2"   marker-end="url(#b)" /></g></g><g id="t" class="DirectedInteraction" color="#000" ><g color="#000" fill="transparent"  filter="url(#a)" stroke="#000" stroke-dasharray="103.03708513315392, 5.8"><path class="EdgeBody" d="m778.12 204.92-101.28 39.855"   marker-end="url(#b)" /></g></g><g id="u" class="Inhibition" color="#000" ><g color="#000" fill="transparent"  filter="url(#a)" stroke="#000" stroke-dasharray="164.7750677290348, 7"><path class="EdgeBody" d="m360.37 210.43 139.18 100.67"   marker-end="url(#c)" /></g></g><g id="v" class="DirectedInteraction" color="#000" ><g color="#000" fill="transparent"  filter="url(#a)" stroke="#000" stroke-dasharray="134.37312133941592, 5.8"><path class="EdgeBody" d="m360.37 210.43 129.32 54.088"   marker-end="url(#b)" /></g></g><g id="w" class="DirectedInteraction" color="#000" ><g color="#000" fill="transparent"  filter="url(#a)" stroke="#000" stroke-dasharray="53.834600409179004, 5.8"><path class="EdgeBody" d="m239.65 134.04 48.723 34.386"   marker-end="url(#b)" /></g></g><g id="x" class="Inhibition" color="#000" ><g color="#000" fill="transparent"  filter="url(#a)" stroke="#000" stroke-dasharray="90.5399995708309, 7"><path class="EdgeBody" d="m650.4 546.85-57.947-78.461"   marker-end="url(#c)" /></g></g><g id="y" class="DirectedInteraction" color="#000" ><g color="#000" fill="transparent"  filter="url(#a)" stroke="#000" stroke-dasharray="62.73857027796403, 5.8"><path class="EdgeBody" d="m739.84 657.43-41.446-54.587"   marker-end="url(#b)" /></g></g><g class="SingleFreeNode Shape" transform="translate(226.25 113.95)" color="#000" ><use class="Icon" transform="matrix(.99844 0 0 .9979 .49922 .49895)" width="641.7534136546205" height="476.0184738955825" fill="transparent"  stroke="#000" xlink:href="#e"/></g><g class="SingleFreeNode Shape" transform="translate(340.78 197.38)" color="#000" ><use class="Icon" transform="matrix(.99756 0 0 .99671 .49878 .49836)" width="408.4" height="303.06666666666666" fill="transparent"  stroke="#000" xlink:href="#e"/></g><g class="Label" transform="translate(515.85 164.47)" color="#000"  name="Nucleus"><use class="Icon" width="61.4" height="34.53333333333333" fill="transparent"  stroke="#000" stroke-width="0" xlink:href="#d"/><text class="Text" transform="translate(30.7 21.267)"   font-size="13px"  text-anchor="middle"><tspan x="0" y="0">Nucleus</tspan></text></g><g class="Label" transform="translate(497.84 83.993)" color="#000"  name="Osteoblast"><use class="Icon" width="78.79558614093989" height="30.866666666666667" fill="transparent"  stroke="#000" stroke-width="0" xlink:href="#d"/><text class="Text" transform="translate(39.398 19.433)"   font-size="13px"  text-anchor="middle"><tspan x="0" y="0">Osteoblast</tspan></text></g><a  class="GeneProduct P594_ENSMUSG00000059077 " transform="translate(391.76 640.13)"   name="Parathyroid hormone"  ><rect class="Icon" transform="matrix(.99284 0 0 .95238 .49642 .47619)" width="138.67" height="20" fill="#fff" stroke="#000"/><text class="Text" transform="translate(69.333 13)"   font-size="10px"  text-anchor="middle"><tspan x="0" y="0">Parathyroid hormone</tspan></text></a><a  class="GeneProduct P594_ENSMUSG00000063727 " transform="translate(493.69 267.85)"   name="Osteoprotegerin"  ><rect class="Icon" transform="matrix(.99071 0 0 .95238 .49536 .47619)" width="106.67" height="20" fill="#fff" stroke="#000"/><text class="Text" transform="translate(53.333 13)"   font-size="10px"  text-anchor="middle"><tspan x="0" y="0">Osteoprotegerin</tspan></text></a><a  class="GeneProduct P594_ENSMUSG00000022015 " transform="translate(589.38 237.44)"   name="RANK ligand"  ><rect class="Icon" transform="matrix(.98765 0 0 .95238 .49383 .47619)" width="80" height="20" fill="#fff" stroke="#000"/><text class="Text" transform="translate(40,13)"   font-size="10px"  text-anchor="middle"><tspan x="0" y="0">RANK ligand</tspan></text></a><g class="GeneProduct" transform="translate(130.46 257.58)" color="#000"  name="Vitamin D"><rect class="Icon" transform="matrix(.98765 0 0 .95238 .49383 .47619)" width="80" height="20" fill="#fff" stroke="#000"/><text class="Text" transform="translate(40,13)"   font-size="10px"  text-anchor="middle"><tspan x="0" y="0">Vitamin D</tspan></text></g><g class="GeneProduct" transform="translate(494.54 364.06)" color="#000"  name="Bone sialoprotein"><rect class="Icon" transform="matrix(.99088 0 0 .95238 .49544 .47619)" width="108.69" height="20" fill="#fff" stroke="#000"/><text class="Text" transform="translate(54.345 13)"   font-size="10px"  text-anchor="middle"><tspan x="0" y="0">Bone sialoprotein</tspan></text></g><g class="GeneProduct" transform="translate(918.1 371.44)" color="#000"  name="Bone sialoprotein"><rect class="Icon" transform="matrix(.99094 0 0 .95238 .49547 .47619)" width="109.33" height="20" fill="#fff" stroke="#000"/><text class="Text" transform="translate(54.667 13)"   font-size="10px"  text-anchor="middle"><tspan x="0" y="0">Bone sialoprotein</tspan></text></g><g class="GeneProduct" transform="translate(903.69 311.18)" color="#000"  name="Soluble RANK ligand"><rect class="Icon" transform="matrix(.99281 0 0 .95 .4964 .475)" width="138" height="19" fill="#fff" stroke="#000"/><text class="Text" transform="translate(69,12.5)"   font-size="10px"  text-anchor="middle"><tspan x="0" y="0">Soluble RANK ligand</tspan></text></g><a  class="GeneProduct P594_ENSMUSG00000032492 " transform="translate(741.82 188.63)"   name="PTH receptor"  ><rect class="Icon" transform="matrix(.98897 0 0 .95238 .49448 .47619)" width="89.639" height="20" fill="#fff" stroke="#000"/><text class="Text" transform="translate(44.819 13)"   font-size="10px"  text-anchor="middle"><tspan x="0" y="0">PTH receptor</tspan></text></a><a  class="GeneProduct P594_ENSMUSG00000000182 " transform="translate(122.97 403.8)"   name="FGF-23"  ><rect class="Icon" transform="matrix(.98765 0 0 .95238 .49383 .47619)" width="80" height="20" fill="#fff" stroke="#000"/><text class="Text" transform="translate(40,13)"   font-size="10px"  text-anchor="middle"><tspan x="0" y="0">FGF-23</tspan></text></a><a  class="GeneProduct P594_ENSMUSG00000001506 " transform="translate(508.19 442.18)"   name="Collagen 1"  ><rect class="Icon" transform="matrix(.98765 0 0 .95238 .49383 .47619)" width="80" height="20" fill="#fff" stroke="#000"/><text class="Text" transform="translate(40,13)"   font-size="10px"  text-anchor="middle"><tspan x="0" y="0">Collagen 1</tspan></text></a><g class="GeneProduct" transform="translate(735.53 504.7)" color="#000"  name="avb3 integrin"><rect class="Icon" transform="matrix(.98882 0 0 .95238 .49441 .47619)" width="88.434" height="20" fill="#fff" stroke="#000"/><text class="Text" transform="translate(44.217 13)"   font-size="10px"  text-anchor="middle"><tspan x="0" y="0">avb3 integrin</tspan></text></g><g class="GeneProduct" transform="translate(692.51 655.84)" color="#000"  name="PDGF-BB"><rect class="Icon" transform="matrix(.98765 0 0 .94948 .49383 .47474)" width="80" height="18.795" fill="#fff" stroke="#000"/><text class="Text" transform="translate(40 12.398)"   font-size="10px"  text-anchor="middle"><tspan x="0" y="0">PDGF-BB</tspan></text></g><a  class="GeneProduct P594_ENSMUSG00000000182 " transform="translate(382.12 402.35)"   name="FGF-23"  ><rect class="Icon" transform="matrix(.98765 0 0 .95238 .49383 .47619)" width="80" height="20" fill="#fff" stroke="#000"/><text class="Text" transform="translate(40,13)"   font-size="10px"  text-anchor="middle"><tspan x="0" y="0">FGF-23</tspan></text></a><a  class="GeneProduct P594_ENSMUSG00000032492 " transform="translate(504.33 581.27)"   name="PTH receptor"  ><rect class="Icon" transform="matrix(.98897 0 0 .95238 .49448 .47619)" width="89.639" height="20" fill="#fff" stroke="#000"/><text class="Text" transform="translate(44.819 13)"   font-size="10px"  text-anchor="middle"><tspan x="0" y="0">PTH receptor</tspan></text></a><a  class="GeneProduct P594_ENSMUSG00000059077 " transform="translate(821 126.27)"   name="Parathyroid hormone"  ><rect class="Icon" transform="matrix(.99284 0 0 .95238 .49642 .47619)" width="138.67" height="20" fill="#fff" stroke="#000"/><text class="Text" transform="translate(69.333 13)"   font-size="10px"  text-anchor="middle"><tspan x="0" y="0">Parathyroid hormone</tspan></text></a><a class="Metabolite ChEBI_CHEBI_29101  " transform="translate(258.3 579.61)" color="#0033ff"  name="Sodium"  ><rect class="Icon" transform="matrix(.98765 0 0 .95238 .49383 .47619)" width="80" height="20" fill="#fff" stroke="#03f"/><text class="Text" transform="translate(40,13)" fill="#0033ff"  font-size="10px"  text-anchor="middle"><tspan x="0" y="0">Sodium</tspan></text></a><a  class="GeneProduct P594_ENSMUSG00000036110 " transform="translate(305.19 527.96)"   name="NPT3"  ><rect class="Icon" transform="matrix(.98765 0 0 .95775 .49383 .47887)" width="80" height="22.667" fill="#fff" stroke="#000"/><text class="Text" transform="translate(40 14.333)"   font-size="10px"  text-anchor="middle"><tspan x="0" y="0">NPT3</tspan></text></a><a class="Metabolite ChEBI_CHEBI_26078  " transform="translate(169.01 579.88)" color="#0033ff"  name="Phosphate"  ><rect class="Icon" transform="matrix(.98765 0 0 .95238 .49383 .47619)" width="80" height="20" fill="#fff" stroke="#03f"/><text class="Text" transform="translate(40,13)" fill="#0033ff"  font-size="10px"  text-anchor="middle"><tspan x="0" y="0">Phosphate</tspan></text></a><g class="GeneProduct" transform="translate(187.65 124.04)" color="#000"  name="PDGF-BB"><rect class="Icon" transform="matrix(.98765 0 0 .95238 .49383 .47619)" width="80" height="20" fill="#fff" stroke="#000"/><text class="Text" transform="translate(40,13)"   font-size="10px"  text-anchor="middle"><tspan x="0" y="0">PDGF-BB</tspan></text></g><g class="GeneProduct" transform="translate(649.49 79.703)" color="#000"  name="Vitamin D"><rect class="Icon" transform="matrix(.98765 0 0 .95238 .49383 .47619)" width="80" height="20" fill="#fff" stroke="#000"/><text class="Text" transform="translate(40,13)"   font-size="10px"  text-anchor="middle"><tspan x="0" y="0">Vitamin D</tspan></text></g><a  class="GeneProduct P594_ENSMUSG00000063727 " transform="translate(911.1 341.06)"   name="Osteoprotegerin"  ><rect class="Icon" transform="matrix(.99083 0 0 .95238 .49541 .47619)" width="108" height="20" fill="#fff" stroke="#000"/><text class="Text" transform="translate(54,13)"   font-size="10px"  text-anchor="middle"><tspan x="0" y="0">Osteoprotegerin</tspan></text></a><a  class="GeneProduct P594_ENSMUSG00000074486 " transform="translate(503.57 318.69)"   name="Osteocalcin"  ><rect class="Icon" transform="matrix(.98876 0 0 .95238 .49438 .47619)" width="88" height="20" fill="#fff" stroke="#000"/><text class="Text" transform="translate(44,13)"   font-size="10px"  text-anchor="middle"><tspan x="0" y="0">Osteocalcin</tspan></text></a><g class="GroupGroup" transform="translate(264.37 168.43)" color="grey" ><use class="Icon" width="96" height="56" fill="transparent"  stroke="grey" stroke-dasharray="5,3" stroke-width="0" xlink:href="#d"/><a  class="GeneProduct P594_ENSMUSG00000029231 " transform="translate(8,8)"   name="PDGF Ra"  ><rect class="Icon" transform="matrix(.98765 0 0 .95238 .49383 .47619)" width="80" height="20" fill="#fff" stroke="#000"/><text class="Text" transform="translate(40,13)"   font-size="10px"  text-anchor="middle"><tspan x="0" y="0">PDGF Ra</tspan></text></a><a  class="GeneProduct P594_ENSMUSG00000024620 " transform="translate(8,28)"   name="PDGF Rb"  ><rect class="Icon" transform="matrix(.98765 0 0 .95238 .49383 .47619)" width="80" height="20" fill="#fff" stroke="#000"/><text class="Text" transform="translate(40,13)"   font-size="10px"  text-anchor="middle"><tspan x="0" y="0">PDGF Rb</tspan></text></a></g><g class="GroupGroup" transform="translate(626.4 546.85)" color="grey" ><use class="Icon" width="96" height="56.000000000000114" fill="transparent"  stroke="grey" stroke-dasharray="5,3" stroke-width="0" xlink:href="#d"/><a  class="GeneProduct P594_ENSMUSG00000029231 " transform="translate(8,8)"   name="PDGF Ra"  ><rect class="Icon" transform="matrix(.98765 0 0 .95238 .49383 .47619)" width="80" height="20" fill="#fff" stroke="#000"/><text class="Text" transform="translate(40,13)"   font-size="10px"  text-anchor="middle"><tspan x="0" y="0">PDGF Ra</tspan></text></a><a  class="GeneProduct P594_ENSMUSG00000024620 " transform="translate(8 28)"   name="PDGF Rb"  ><rect class="Icon" transform="matrix(.98765 0 0 .95238 .49383 .47619)" width="80" height="20" fill="#fff" stroke="#000"/><text class="Text" transform="translate(40,13)"   font-size="10px"  text-anchor="middle"><tspan x="0" y="0">PDGF Rb</tspan></text></a></g><text class="Text" transform="translate(5,27)" dominant-baseline="central" fill="black"  font-size="12px" font-weight="bold" overflow="visible" ><tspan x="0" y="-9">Name: Osteoblast signaling</tspan> <tspan x="0" y="9">Organism: Mus musculus</tspan></text></g></svg>
