<?xml version="1.0" encoding="UTF-8"?>
<!--
  WikiPathways page: https://www.wikipathways.org/index.php/Pathway:WP2318
  URL for this compressed file: https://github.com/eweitz/cachome/tree/main/data/wikipathways/WP2318.svg
  Source code for compression: https://github.com/eweitz/cachome/tree/main/src/wikipathways.py
-->
<svg class="Diagram" width="800" height="600" color="black" baseProfile="full" prefix="schema:http://schema.org/" preserveAspectRatio="xMidYMid" version="1.1" viewBox="0 0 1234.3 905.85" vocab="http://vocabularies.wikipathways.org/wp#" xmlns="http://www.w3.org/2000/svg" xmlns:xlink="http://www.w3.org/1999/xlink"><style>svg {font-family: 'Liberation Sans', Arial, sans-serif; }</style><defs><filter id="a" x="0" y="0" width="1234.3" height="905.85" filterUnits="userSpaceOnUse"><feColorMatrix in="SourceGraphic" values="-1   0   0 0 0                   0  -1   0 0 0                   0   0  -1 0 0                   0   0   0 1 0"/></filter><marker id="b" stroke-dasharray="99999" markerHeight="12" markerUnits="userSpaceOnUse" markerWidth="12" orient="auto" preserveAspectRatio="none" refX="12" refY="6" viewBox="0 0 12 12"><path transform="rotate(180 6 6)" d="M12 12L0 6l12-6-7 6z" fill="currentColor" stroke-width="0"/></marker><marker id="c" stroke-dasharray="99999" markerHeight="20" markerUnits="userSpaceOnUse" markerWidth="10" orient="auto" preserveAspectRatio="none" refX="10" refY="10" viewBox="0 0 10 20"><path d="m3 0v20" fill="currentColor" stroke="currentColor"/></marker></defs><g class="Viewport" color="black"  name="Name: Fatty acid oxidation Organism: Mus musculus"><rect class="Icon" width="1234.3" height="905.85" fill="#fff" stroke="#000" stroke-width="0"/><g id="d" class="Interaction" color="#000" ><g color="#000" fill="transparent"  filter="url(#a)" stroke="#000" stroke-dasharray="94.40268533304587, 1"><path class="EdgeBody" d="m1111.9 517.63-94.272 14.644"   marker-end="url(#b)" /></g></g><g id="e" class="Interaction" color="#000" ><g color="#000" fill="transparent"  filter="url(#a)" stroke="#000" stroke-dasharray="94.53309488210947, 1"><path class="EdgeBody" d="m1111.9 506.63-92.618-23.419"   marker-end="url(#b)" /></g></g><g id="f" class="Interaction" color="#000" ><g color="#000" fill="transparent"  filter="url(#a)" stroke="#000" stroke-dasharray="71.08345962032816, 1"><path class="EdgeBody" d="m448.23 248.48 15.87-70.315"   marker-end="url(#b)" /></g></g><g id="g" class="Interaction" color="#000" ><g color="#000" fill="transparent"  filter="url(#a)" stroke="#000" stroke-dasharray="62.66430640266415, 1"><path class="EdgeBody" d="m617.3 315.7-43.089 46.867"   marker-end="url(#b)" /></g></g><g id="h" class="Interaction" color="#000" ><g color="#000" fill="transparent"  filter="url(#a)" stroke="#000" stroke-dasharray="62.097625672840195, 1"><path class="EdgeBody" d="m1143.4 523.13v63.098"   marker-end="url(#b)" /></g></g><g id="i" class="Interaction" color="#000" ><g color="#000" fill="transparent"  filter="url(#a)" stroke="#000" stroke-dasharray="322.48524222455427, 1"><path class="EdgeBody" d="m771.48 779.33-3.5697-323.47"   marker-end="url(#b)" /></g></g><g id="j" class="Interaction" color="#000" ><g color="#000" fill="transparent"  filter="url(#a)" stroke="#000" stroke-dasharray="146.50432133569808, 1"><path class="EdgeBody" d="m1143.4 804.33v9.794c0 9.794 0 29.382-18.15 39.176-18.15 9.794-54.449 9.794-72.599 9.794l-18.15 2e-13"   marker-end="url(#b)" /></g></g><g id="k" class="Interaction" color="#000" ><g color="#000" fill="transparent"  filter="url(#a)" stroke="#000" stroke-dasharray="393.0061244863935, 1"><path class="EdgeBody" d="m377.24 501.13v-9.2107c0-9.2107 0-27.632 61.278-36.843 61.278-9.2107 183.84-9.2107 245.11-9.2107l61.278 6e-14"   marker-end="url(#b)" /></g></g><g id="l" class="Interaction" color="#000" ><g color="#000" fill="transparent"  filter="url(#a)" stroke="#000" stroke-dasharray="27.404191886236617, 1"><path class="EdgeBody" d="m1143.4 678.55v28.404"   marker-end="url(#b)" /></g></g><g id="m" class="Interaction" color="#000" ><g color="#000" fill="transparent"  filter="url(#a)" stroke="#000" stroke-dasharray="305.939567287798, 1"><path class="EdgeBody" d="m466.37 501.13-1.4e-13 -9.2107c4e-14 -9.2107 4e-14 -27.632 46.423-36.843 46.423-9.2107 139.27-9.2107 185.69-9.2107l46.423 6e-14"   marker-end="url(#b)" /></g></g><g id="n" class="Interaction" color="#000" ><g color="#000" fill="transparent"  filter="url(#a)" stroke="#000" stroke-dasharray="69.09359206021333, 1"><path class="EdgeBody" d="m377.24 523.13 27.208 64.598"   marker-end="url(#b)" /></g></g><g id="o" class="Interaction" color="#000" ><g color="#000" fill="transparent"  filter="url(#a)" stroke="#000" stroke-dasharray="70.8577832486919, 1"><path class="EdgeBody" d="m466.37 523.13-31.475 64.598"   marker-end="url(#b)" /></g></g><g id="p" class="Interaction" color="#000" ><g color="#000" fill="transparent"  filter="url(#a)" stroke="#000" stroke-dasharray="66.44188776760521, 1"><path class="EdgeBody" d="m171.38 212.17-3.514-2e-14c-3.514 2e-14 -10.542 2e-14 -14.056-9.1011-3.514-9.1011-3.514-27.303-3.514-36.404l3e-14 -9.1011"   marker-end="url(#b)" /></g></g><g id="q" class="Interaction" color="#000" ><g color="#000" fill="transparent"  filter="url(#a)" stroke="#000" stroke-dasharray="61.779690618283645, 1"><path class="EdgeBody" d="m448.23 275.98 15.87 60.741"   marker-end="url(#b)" /></g></g><g id="r" class="Interaction" color="#000" ><g color="#000" fill="transparent"  filter="url(#a)" stroke="#000" stroke-dasharray="40.323481763156906, 1"><path class="EdgeBody" d="m1143.4 653.05v-41.323"   marker-end="url(#b)" /></g></g><g id="s" class="Interaction" color="#000" ><g color="#000" fill="transparent"  filter="url(#a)" stroke="#000" stroke-dasharray="55.335267676073954, 1"><path class="EdgeBody" d="m663.3 315.7 31.26 46.867"   marker-end="url(#b)" /></g></g><g id="t" class="Interaction" color="#000" ><g color="#000" fill="transparent"  filter="url(#a)" stroke="#000" stroke-dasharray="31.558283841020383, 1"><path class="EdgeBody" d="m714.11 791.58-31.637-7.6894"   marker-end="url(#b)" /></g></g><g id="u" class="Interaction" color="#000" ><g color="#000" fill="transparent"  filter="url(#a)" stroke="#000" stroke-dasharray="58.57267056946664, 1"><path class="EdgeBody" d="m465.35 802.83 1e-13 3.0512c-1e-13 3.0512-1e-13 9.1537 8.0811 12.205 8.0811 3.0512 24.243 3.0512 32.325 3.0512h8.0811"   marker-end="url(#b)" /></g></g><g id="v" class="Interaction" color="#000" ><g color="#000" fill="transparent"  filter="url(#a)" stroke="#000" stroke-dasharray="229.72709917555952, 1"><path class="EdgeBody" d="m545.17 501.13v-9.2107c0-9.2107 0-27.632 33.29-36.843 33.29-9.2107 99.87-9.2107 133.16-9.2107l33.29 6e-14"   marker-end="url(#b)" /></g></g><g id="w" class="Interaction" color="#000" ><g color="#000" fill="transparent"  filter="url(#a)" stroke="#000" stroke-dasharray="68.77535832414515, 7"><path class="EdgeBody" d="m229.63 205.3v-75.775"   marker-end="url(#c)" /></g></g><g id="x" class="Interaction" color="#000" ><g color="#000" fill="transparent"  filter="url(#a)" stroke="#000" stroke-dasharray="134.46054350933088, 1"><path class="EdgeBody" d="m419.1 248.48v-135.46"   marker-end="url(#b)" /></g></g><g id="y" class="Interaction" color="#000" ><g color="#000" fill="transparent"  filter="url(#a)" stroke="#000" stroke-dasharray="60.99466214457655, 1"><path class="EdgeBody" d="m465.35 780.33 1e-13 -3.581c-1e-13 -3.581-1e-13 -10.743 8.0811-14.324 8.0811-3.581 24.243-3.581 32.325-3.581h8.0811"   marker-end="url(#b)" /></g></g><g id="z" class="Interaction" color="#000" ><g color="#000" fill="transparent"  filter="url(#a)" stroke="#000" stroke-dasharray="32.19434630665224, 1"><path class="EdgeBody" d="m1082.5 797.96-30.068-14.064"   marker-end="url(#b)" /></g></g><g id="aa" class="Interaction" color="#000" ><g color="#000" fill="transparent"  filter="url(#a)" stroke="#000" stroke-dasharray="45.37585221519703, 1"><path class="EdgeBody" d="m1143.4 778.83v-46.376"   marker-end="url(#b)" /></g></g><g id="ab" class="Interaction" color="#000" ><g color="#000" fill="transparent"  filter="url(#a)" stroke="#000" stroke-dasharray="393.5333387719163, 1"><path class="EdgeBody" d="m797.44 850.35-6.5281-394.48"   marker-end="url(#b)" /></g></g><g id="ac" class="Interaction" color="#000" ><g color="#000" fill="transparent"  filter="url(#a)" stroke="#000" stroke-dasharray="171.75734873461894, 1"><path class="EdgeBody" d="m171.38 219.05h-15.381c-15.381 0-46.142 0-61.522-17.671-15.381-17.671-15.381-53.013-15.381-70.684v-17.671"   marker-end="url(#b)" /></g></g><g id="ad" class="Interaction" color="#000" ><g color="#000" fill="transparent"  filter="url(#a)" stroke="#000" stroke-dasharray="165.98958483994528, 1"><path class="EdgeBody" d="m686.3 305.7 104.61 130.16"   marker-end="url(#b)" /></g></g><g id="ae" class="Interaction" color="#000" ><g color="#000" fill="transparent"  filter="url(#a)" stroke="#000" stroke-dasharray="101.68869206134335, 1"><path class="EdgeBody" d="m545.17 523.13-79.826 64.598"   marker-end="url(#b)" /></g></g><g id="af" class="Interaction" color="#000" ><g color="#000" fill="transparent"  filter="url(#a)" stroke="#000" stroke-dasharray="33.9050565946804, 1"><path class="EdgeBody" d="m733.23 779.33-18.487-29.607"   marker-end="url(#b)" /></g></g><g id="ag" class="Interaction" color="#000" ><g color="#000" fill="transparent"  filter="url(#a)" stroke="#000" stroke-dasharray="59.90407938257931, 1"><path class="EdgeBody" d="m851.81 863.1h60.904"   marker-end="url(#b)" /></g></g><g id="ah" class="Interaction" color="#000" ><g color="#000" fill="transparent"  filter="url(#a)" stroke="#000" stroke-dasharray="30.404191886236617, 1"><path class="EdgeBody" d="m434.9 677.05 6e-14 31.404"   marker-end="url(#b)" /></g></g><g id="ai" class="Interaction" color="#000" ><g color="#000" fill="transparent"  filter="url(#a)" stroke="#000" stroke-dasharray="42.50169188116222, 1"><path class="EdgeBody" d="m465.35 654.55 35.808-24.702"   marker-end="url(#b)" /></g></g><g id="aj" class="Interaction" color="#000" ><g color="#000" fill="transparent"  filter="url(#a)" stroke="#000" stroke-dasharray="51.910257831674336, 1"><path class="EdgeBody" d="m833.69 850.35 30.517-43.223"   marker-end="url(#b)" /></g></g><g id="ak" class="Interaction" color="#000" ><g color="#000" fill="transparent"  filter="url(#a)" stroke="#000" stroke-dasharray="150.06481481481427, 1"><path class="EdgeBody" d="m419.1 275.98v151.06"   marker-end="url(#b)" /></g></g><g id="al" class="Interaction" color="#000" ><g color="#000" fill="transparent"  filter="url(#a)" stroke="#000" stroke-dasharray="67.48964357988176, 1"><path class="EdgeBody" d="m1113 778.83-56.106-39.28"   marker-end="url(#b)" /></g></g><g id="am" class="Interaction" color="#000" ><g color="#000" fill="transparent"  filter="url(#a)" stroke="#000" stroke-dasharray="43.323481763156906, 1"><path class="EdgeBody" d="m434.9 654.55 6e-14 -44.323"   marker-end="url(#b)" /></g></g><g id="an" class="Interaction" color="#000" ><g color="#000" fill="transparent"  filter="url(#a)" stroke="#000" stroke-dasharray="114.24485333568651, 1"><path class="EdgeBody" d="m752.36 803.83v9.8773c0 9.8773 0 29.632-12.156 39.509-12.156 9.8773-36.468 9.8773-48.624 9.8773l-12.156 2e-13"   marker-end="url(#b)" /></g></g><g id="ao" class="Interaction" color="#000" ><g color="#000" fill="transparent"  filter="url(#a)" stroke="#000" stroke-dasharray="70.55717322927157, 1"><path class="EdgeBody" d="m815.56 850.35 23.843-67.468"   marker-end="url(#b)" /></g></g><g id="ap" class="Interaction" color="#000" ><g color="#000" fill="transparent"  filter="url(#a)" stroke="#000" stroke-dasharray="160.5053241916728, 1"><path class="EdgeBody" d="m434.9 802.83-1.4e-13 10.044c1e-13 10.044 1e-13 30.132 20.455 40.176 20.455 10.044 61.364 10.044 81.818 10.044l20.455 2e-13"   marker-end="url(#b)" /></g></g><g id="aq" class="Interaction" color="#000" ><g color="#000" fill="transparent"  filter="url(#a)" stroke="#000" stroke-dasharray="48.37585221519714, 1"><path class="EdgeBody" d="m434.9 780.33 6e-14 -49.376"   marker-end="url(#b)" /></g></g><g id="ar" class="Interaction" color="#000" ><g color="#000" fill="transparent"  filter="url(#a)" stroke="#000" stroke-dasharray="333.1782850473372, 1"><path class="EdgeBody" d="m1143.4 501.13v-9.2107c0-9.2107 0-27.632-51.083-36.843-51.083-9.2107-153.25-9.2107-204.33-9.2107l-51.083 6e-14"   marker-end="url(#b)" /></g></g><g id="as" class="Interaction" color="#000" ><g color="#000" fill="transparent"  filter="url(#a)" stroke="#000" stroke-dasharray="183.24017404274207, 1"><path class="EdgeBody" d="m594.3 305.7-129.2 131.34"   marker-end="url(#b)" /></g></g><g class="Uniprot-TrEMBL_Q61425 Protein P594_ENSMUSG00000027984 " transform="translate(374 708.46)" color="#000"  name="Hydroxyacyl CoA"><rect class="Icon" transform="matrix(.99186 0 0 .95745 .49593 .47872)" width="121.79" height="22.5" fill="#fff" stroke="#000"/><text class="Text" transform="translate(60.897 15.25)"  font-family="Bitstream Charter" font-size="12px" font-weight="bold"  text-anchor="middle"><tspan x="0" y="0">Hydroxyacyl CoA</tspan></text></g><a class="Metabolite ChEBI_CHEBI_16908  " transform="translate(513.83 812.07)" color="#00f"  name="NADH+H-"  ><rect class="Icon" transform="matrix(.98446 0 0 .94775 .49223 .47388)" width="63.345" height="18.141" fill="#fff" stroke="#00f"/><text class="Text" transform="translate(31.672 13.07)" fill="#00f" font-family="Bitstream Charter" font-size="12px" font-weight="bold"  text-anchor="middle"><tspan x="0" y="0">NADH+H-</tspan></text></a><g class="Uniprot-TrEMBL_Q8BH95 Protein P594_ENSMUSG00000025465 " transform="translate(374 587.73)" color="#000"  name="Enoyl CoA"><rect class="Icon" transform="matrix(.99186 0 0 .95745 .49593 .47872)" width="121.79" height="22.5" fill="#fff" stroke="#000"/><text class="Text" transform="translate(60.897 15.25)"  font-family="Bitstream Charter" font-size="12px" font-weight="bold"  text-anchor="middle"><tspan x="0" y="0">Enoyl CoA</tspan></text></g><g class="Uniprot-TrEMBL_P50544 Protein P594_ENSMUSG00000018574 " transform="translate(1111.9 501.13)" color="#000"  name="VLCAD"><rect class="Icon" transform="matrix(.98438 0 0 .95652 .49219 .47826)" width="63" height="22" fill="#fff" stroke="#000"/><text class="Text" transform="translate(31.5,15)"  font-family="Bitstream Charter" font-size="12px" font-weight="bold"  text-anchor="middle"><tspan x="0" y="0">VLCAD</tspan></text></g><g class="Uniprot-TrEMBL_Q07417 Protein P594_ENSMUSG00000029545 " transform="translate(513.67 501.13)" color="#000"  name="SCAD"><rect class="Icon" transform="matrix(.98438 0 0 .95652 .49219 .47826)" width="63" height="22" fill="#fff" stroke="#000"/><text class="Text" transform="translate(31.5,15)"  font-family="Bitstream Charter" font-size="12px" font-weight="bold"  text-anchor="middle"><tspan x="0" y="0">SCAD</tspan></text></g><a class="Metabolite ChEBI_CHEBI_16238  " transform="translate(973.59 473.04)" color="#00f"  name="FAD+"  ><rect class="Icon" transform="matrix(.97859 0 0 .95315 .48929 .47658)" width="45.704" height="20.346" fill="#fff" stroke="#00f"/><text class="Text" transform="translate(22.852 14.173)" fill="#00f" font-family="Bitstream Charter" font-size="12px" font-weight="bold"  text-anchor="middle"><tspan x="0" y="0">FAD+</tspan></text></a><g class="Uniprot-TrEMBL_P51174 Protein" transform="translate(345.74 501.13)" color="#000"  name="LCAD"><rect class="Icon" transform="matrix(.98438 0 0 .95652 .49219 .47826)" width="63" height="22" fill="#fff" stroke="#000"/><text class="Text" transform="translate(31.5,15)"  font-family="Bitstream Charter" font-size="12px" font-weight="bold"  text-anchor="middle"><tspan x="0" y="0">LCAD</tspan></text></g><a class="Metabolite ChEBI_CHEBI_15531  " transform="translate(183.63 109.52)" color="#00f"  name="Malonyl-CoA"  ><rect class="Icon" transform="matrix(.98925 0 0 .95238 .49462 .47619)" width="92" height="20" fill="#fff" stroke="#00f"/><text class="Text" transform="translate(46,14)" fill="#00f" font-family="Bitstream Charter" font-size="12px" font-weight="bold"  text-anchor="middle"><tspan x="0" y="0">Malonyl-CoA</tspan></text></a><g class="Uniprot-TrEMBL_Q8BWT1 Protein P594_ENSMUSG00000036880 " transform="translate(557.63 851.85)" color="#000"  name="Ketoacyl CoA"><rect class="Icon" transform="matrix(.99186 0 0 .95745 .49593 .47872)" width="121.79" height="22.5" fill="#fff" stroke="#000"/><text class="Text" transform="translate(60.897 15.25)"  font-family="Bitstream Charter" font-size="12px" font-weight="bold"  text-anchor="middle"><tspan x="0" y="0">Ketoacyl CoA</tspan></text></g><g class="Uniprot-TrEMBL_Q61425 Protein P594_ENSMUSG00000027984 " transform="translate(374 780.33)" color="#000"  name="M/SCHAD"><rect class="Icon" transform="matrix(.99186 0 0 .95745 .49593 .47872)" width="121.79" height="22.5" fill="#fff" stroke="#000"/><text class="Text" transform="translate(60.897 15.25)"  font-family="Bitstream Charter" font-size="12px" font-weight="bold"  text-anchor="middle"><tspan x="0" y="0">M/SCHAD</tspan></text></g><g class="Uniprot-TrEMBL_Q8BH95 Protein P594_ENSMUSG00000025465 " transform="translate(374 654.55)" color="#000"  name="Crotonase"><rect class="Icon" transform="matrix(.99186 0 0 .95745 .49593 .47872)" width="121.79" height="22.5" fill="#fff" stroke="#000"/><text class="Text" transform="translate(60.897 15.25)"  font-family="Bitstream Charter" font-size="12px" font-weight="bold"  text-anchor="middle"><tspan x="0" y="0">Crotonase</tspan></text></g><a class="Metabolite ChEBI_CHEBI_15351  " transform="translate(685.28 729.38)" color="#00f"  name="Acetyl-CoA"  ><rect class="Icon" transform="matrix(.98332 0 0 .95315 .49166 .47658)" width="58.934" height="20.346" fill="#fff" stroke="#00f"/><text class="Text" transform="translate(29.467 14.173)" fill="#00f" font-family="Bitstream Charter" font-size="12px" font-weight="bold"  text-anchor="middle"><tspan x="0" y="0">Acetyl-CoA</tspan></text></a><a class="Metabolite ChEBI_CHEBI_44215  " transform="translate(513.83 749.78)" color="#00f"  name="NAD-"  ><rect class="Icon" transform="matrix(.98446 0 0 .94775 .49223 .47388)" width="63.345" height="18.141" fill="#fff" stroke="#00f"/><text class="Text" transform="translate(31.672 13.07)" fill="#00f" font-family="Bitstream Charter" font-size="12px" font-weight="bold"  text-anchor="middle"><tspan x="0" y="0">NAD-</tspan></text></a><a class="ChEBI_CHEBI_17984 Metabolite  " transform="translate(744.91 435.87)" color="#00f"  name="Acyl-CoA"  ><rect class="Icon" transform="matrix(.98925 0 0 .95238 .49462 .47619)" width="92" height="20" fill="#fff" stroke="#00f"/><text class="Text" transform="translate(46 14)" fill="#00f" font-family="Bitstream Charter" font-size="12px" font-weight="bold"  text-anchor="middle"><tspan x="0" y="0">Acyl-CoA</tspan></text></a><a  class="Uniprot-TrEMBL_O08601 Protein P594_ENSMUSG00000028158 " transform="translate(1082.5 653.05)"   name="MTP"  ><rect class="Icon" transform="matrix(.99186 0 0 .96226 .49593 .48113)" width="121.79" height="25.5" fill="#fff" stroke="#000"/><text class="Text" transform="translate(60.897 16.75)"  font-family="Bitstream Charter" font-size="12px" font-weight="bold"  text-anchor="middle"><tspan x="0" y="0">MTP</tspan></text></a><a class="Metabolite ChEBI_CHEBI_15377  " transform="translate(501.15 621.33)" color="#00f"  name="H2O"  ><rect class="Icon" transform="matrix(.97908 0 0 .94456 .48954 .47228)" width="46.807" height="17.038" fill="#fff" stroke="#00f"/><text class="Text" transform="translate(23.403 12.519)" fill="#00f" font-family="Bitstream Charter" font-size="12px" font-weight="bold"  text-anchor="middle"><tspan x="0" y="0">H2O</tspan></text></a><a class="Metabolite ChEBI_CHEBI_15351  " transform="translate(278.69 137.56)" color="#00f"  name="CoASH"  ><rect class="Icon" transform="matrix(.98925 0 0 .95238 .49462 .47619)" width="92" height="20" fill="#fff" stroke="#00f"/><text class="Text" transform="translate(46,14)" fill="#00f" font-family="Bitstream Charter" font-size="12px" font-weight="bold"  text-anchor="middle"><tspan x="0" y="0">CoASH</tspan></text></a><g class="Uniprot-TrEMBL_P45952 Protein P594_ENSMUSG00000062908 " transform="translate(434.87 501.13)" color="#000"  name="MCAD"><rect class="Icon" transform="matrix(.98438 0 0 .95652 .49219 .47826)" width="63" height="22" fill="#fff" stroke="#000"/><text class="Text" transform="translate(31.5,15)"  font-family="Bitstream Charter" font-size="12px" font-weight="bold"  text-anchor="middle"><tspan x="0" y="0">MCAD</tspan></text></g><a class="Metabolite ChEBI_CHEBI_57589  " transform="translate(373.1 93.021)" color="#00f"  name="Acetylcarnitine"  ><rect class="Icon" transform="matrix(.98925 0 0 .95238 .49462 .47619)" width="92" height="20" fill="#fff" stroke="#00f"/><text class="Text" transform="translate(46,14)" fill="#00f" font-family="Bitstream Charter" font-size="12px" font-weight="bold"  text-anchor="middle"><tspan x="0" y="0">Acetylcarnitine</tspan></text></a><a class="Metabolite ChEBI_CHEBI_17877  " transform="translate(971.94 522.1)" color="#00f"  name="FADH2"  ><rect class="Icon" transform="matrix(.97859 0 0 .95315 .48929 .47658)" width="45.704" height="20.346" fill="#fff" stroke="#00f"/><text class="Text" transform="translate(22.852 14.173)" fill="#00f" font-family="Bitstream Charter" font-size="12px" font-weight="bold"  text-anchor="middle"><tspan x="0" y="0">FADH2</tspan></text></a><g class="Protein" transform="translate(714.11 779.33)" color="#000"  name="MCKAT"><rect class="Icon" transform="matrix(.9871 0 0 .96078 .49355 .48039)" width="76.5" height="24.5" fill="#fff" stroke="#000"/><text class="Text" transform="translate(38.25,16.25)"  font-family="Bitstream Charter" font-size="12px" font-weight="bold"  text-anchor="middle"><tspan x="0" y="0">MCKAT</tspan></text></g><a class="Metabolite ChEBI_CHEBI_16347  " transform="translate(104.29 137.56)" color="#00f"  name="Carnitine"  ><rect class="Icon" transform="matrix(.98925 0 0 .95238 .49462 .47619)" width="92" height="20" fill="#fff" stroke="#00f"/><text class="Text" transform="translate(46,14)" fill="#00f" font-family="Bitstream Charter" font-size="12px" font-weight="bold"  text-anchor="middle"><tspan x="0" y="0">Carnitine</tspan></text></a><a  class="Uniprot-TrEMBL_O08601 Protein P594_ENSMUSG00000028158 " transform="translate(1082.5 778.83)"   name="MTP"  ><rect class="Icon" transform="matrix(.99186 0 0 .96226 .49593 .48113)" width="121.79" height="25.5" fill="#fff" stroke="#000"/><text class="Text" transform="translate(60.897 16.75)"  font-family="Bitstream Charter" font-size="12px" font-weight="bold"  text-anchor="middle"><tspan x="0" y="0">MTP</tspan></text></a><a  class="Uniprot-TrEMBL_O08601 Protein P594_ENSMUSG00000028158 " transform="translate(779.31 850.35)"   name="MTP"  ><rect class="Icon" transform="matrix(.98639 0 0 .96226 .4932 .48113)" width="72.5" height="25.5" fill="#fff" stroke="#000"/><text class="Text" transform="translate(36.25,16.75)"  font-family="Bitstream Charter" font-size="12px" font-weight="bold"  text-anchor="middle"><tspan x="0" y="0">MTP</tspan></text></a><a class="Metabolite ChEBI_CHEBI_15351  " transform="translate(10.093 93.021)" color="#00f"  name="Acetyl-CoA"  ><rect class="Icon" transform="matrix(.98925 0 0 .95238 .49462 .47619)" width="92" height="20" fill="#fff" stroke="#00f"/><text class="Text" transform="translate(46,14)" fill="#00f" font-family="Bitstream Charter" font-size="12px" font-weight="bold"  text-anchor="middle"><tspan x="0" y="0">Acetyl-CoA</tspan></text></a><g id="at" class="Interaction" color="#000" ><g color="#000" fill="transparent"  filter="url(#a)" stroke="#000" stroke-dasharray="185.54380023557962, 1"><path class="EdgeBody" d="m287.88 219.05h18.037c18.037 0 54.112 0 72.15-17.671 18.037-17.671 18.037-53.013 18.037-70.684v-17.671"   marker-end="url(#b)" /></g></g><g id="au" class="Interaction" color="#000" ><g color="#000" fill="transparent"  filter="url(#a)" stroke="#000" stroke-dasharray="78.94672254047651, 1"><path class="EdgeBody" d="m287.88 212.17 6.1357-2e-14c6.1357 2e-14 18.407 2e-14 24.543-9.1011 6.1357-9.1011 6.1357-27.303 6.1357-36.404l4e-14 -9.1011"   marker-end="url(#b)" /></g></g><g class="Metabolite" transform="translate(373.1 427.05)" color="#00f"  name="Acylcarnitine"><rect class="Icon" transform="matrix(.98925 0 0 .95238 .49462 .47619)" width="92" height="20" fill="#fff" stroke="#00f"/><text class="Text" transform="translate(46 14)" fill="#00f" font-family="Bitstream Charter" font-size="12px" font-weight="bold"  text-anchor="middle"><tspan x="0" y="0">Acylcarnitine</tspan></text></g><a class="Metabolite ChEBI_CHEBI_16347  " transform="translate(441.1 158.17)" color="#00f"  name="Carnitine"  ><rect class="Icon" transform="matrix(.98925 0 0 .95238 .49462 .47619)" width="92" height="20" fill="#fff" stroke="#00f"/><text class="Text" transform="translate(46,14)" fill="#00f" font-family="Bitstream Charter" font-size="12px" font-weight="bold"  text-anchor="middle"><tspan x="0" y="0">Carnitine</tspan></text></a><a class="Metabolite ChEBI_CHEBI_16347  " transform="translate(441.1 336.72)" color="#00f"  name="Carnitine"  ><rect class="Icon" transform="matrix(.98925 0 0 .95238 .49462 .47619)" width="92" height="20" fill="#fff" stroke="#00f"/><text class="Text" transform="translate(46,14)" fill="#00f" font-family="Bitstream Charter" font-size="12px" font-weight="bold"  text-anchor="middle"><tspan x="0" y="0">Carnitine</tspan></text></a><g class="Uniprot-TrEMBL_P52825 Protein P594_ENSMUSG00000028607 " transform="translate(594.3 295.7)" color="#000"  name="CPT2"><rect class="Icon" transform="matrix(.98925 0 0 .95238 .49462 .47619)" width="92" height="20" fill="#fff" stroke="#000"/><text class="Text" transform="translate(46,14)"  font-family="Bitstream Charter" font-size="12px" font-weight="bold"  text-anchor="middle"><tspan x="0" y="0">CPT2</tspan></text></g><g class="Uniprot-TrEMBL_P97742 Protein P594_ENSMUSG00000024900 " transform="translate(171.38 205.3)" color="#000"  name="CPT1"><rect class="Icon" transform="matrix(.99149 0 0 .96491 .49574 .48246)" width="116.5" height="27.5" fill="#fff" stroke="#000"/><text class="Text" transform="translate(58.25,17.75)"  font-family="Bitstream Charter" font-size="12px" font-weight="bold"  text-anchor="middle"><tspan x="0" y="0">CPT1</tspan></text></g><g class="Uniprot-TrEMBL_Q8BL03 Protein P594_ENSMUSG00000021265 " transform="translate(360.85 248.48)" color="#000"  name="CACT"><rect class="Icon" transform="matrix(.99149 0 0 .96491 .49574 .48246)" width="116.5" height="27.5" fill="#fff" stroke="#000"/><text class="Text" transform="translate(58.25,17.75)"  font-family="Bitstream Charter" font-size="12px" font-weight="bold"  text-anchor="middle"><tspan x="0" y="0">CACT</tspan></text></g><a class="Metabolite ChEBI_CHEBI_16347  " transform="translate(663.56 362.57)" color="#00f"  name="Carnitine"  ><rect class="Icon" transform="matrix(.98413 0 0 .95238 .49206 .47619)" width="62" height="20" fill="#fff" stroke="#00f"/><text class="Text" transform="translate(31,14)" fill="#00f" font-family="Bitstream Charter" font-size="12px" font-weight="bold"  text-anchor="middle"><tspan x="0" y="0">Carnitine</tspan></text></a><a class="Metabolite ChEBI_CHEBI_15351  " transform="translate(543.21 362.57)" color="#00f"  name="Co-ASH"  ><rect class="Icon" transform="matrix(.98413 0 0 .95238 .49206 .47619)" width="62" height="20" fill="#fff" stroke="#00f"/><text class="Text" transform="translate(31,14)" fill="#00f" font-family="Bitstream Charter" font-size="12px" font-weight="bold"  text-anchor="middle"><tspan x="0" y="0">Co-ASH</tspan></text></a><a class="Metabolite ChEBI_CHEBI_15351  " transform="translate(620.47 773.89)" color="#00f"  name="Co-ASH"  ><rect class="Icon" transform="matrix(.98413 0 0 .95238 .49206 .47619)" width="62" height="20" fill="#fff" stroke="#00f"/><text class="Text" transform="translate(31,14)" fill="#00f" font-family="Bitstream Charter" font-size="12px" font-weight="bold"  text-anchor="middle"><tspan x="0" y="0">Co-ASH</tspan></text></a><a class="Metabolite ChEBI_CHEBI_15351  " transform="translate(809.94 762.53)" color="#00f"  name="Acetyl-CoA"  ><rect class="Icon" transform="matrix(.98332 0 0 .95315 .49166 .47658)" width="58.934" height="20.346" fill="#fff" stroke="#00f"/><text class="Text" transform="translate(29.467 14.173)" fill="#00f" font-family="Bitstream Charter" font-size="12px" font-weight="bold"  text-anchor="middle"><tspan x="0" y="0">Acetyl-CoA</tspan></text></a><a class="Metabolite ChEBI_CHEBI_15351  " transform="translate(864.21 797.12)" color="#00f"  name="Co-ASH"  ><rect class="Icon" transform="matrix(.98413 0 0 .95238 .49206 .47619)" width="62" height="20" fill="#fff" stroke="#00f"/><text class="Text" transform="translate(31,14)" fill="#00f" font-family="Bitstream Charter" font-size="12px" font-weight="bold"  text-anchor="middle"><tspan x="0" y="0">Co-ASH</tspan></text></a><g class="Uniprot-TrEMBL_Q8BWT1 Protein P594_ENSMUSG00000036880 " transform="translate(912.72 851.85)" color="#000"  name="Ketoacyl CoA"><rect class="Icon" transform="matrix(.99186 0 0 .95745 .49593 .47872)" width="121.79" height="22.5" fill="#fff" stroke="#000"/><text class="Text" transform="translate(60.897 15.25)"  font-family="Bitstream Charter" font-size="12px" font-weight="bold"  text-anchor="middle"><tspan x="0" y="0">Ketoacyl CoA</tspan></text></g><g class="Uniprot-TrEMBL_Q61425 Protein P594_ENSMUSG00000027984 " transform="translate(1082.5 706.96)" color="#000"  name="Hydroxyacyl CoA"><rect class="Icon" transform="matrix(.99186 0 0 .96226 .49593 .48113)" width="121.79" height="25.5" fill="#fff" stroke="#000"/><text class="Text" transform="translate(60.897 16.75)"  font-family="Bitstream Charter" font-size="12px" font-weight="bold"  text-anchor="middle"><tspan x="0" y="0">Hydroxyacyl CoA</tspan></text></g><g class="Uniprot-TrEMBL_Q8BH95 Protein P594_ENSMUSG00000025465 " transform="translate(1082.5 586.23)" color="#000"  name="Enoyl CoA"><rect class="Icon" transform="matrix(.99186 0 0 .96226 .49593 .48113)" width="121.79" height="25.5" fill="#fff" stroke="#000"/><text class="Text" transform="translate(60.897 16.75)"  font-family="Bitstream Charter" font-size="12px" font-weight="bold"  text-anchor="middle"><tspan x="0" y="0">Enoyl CoA</tspan></text></g><a class="Metabolite ChEBI_CHEBI_44215  " transform="translate(993.51 730.48)" color="#00f"  name="NAD+"  ><rect class="Icon" transform="matrix(.98446 0 0 .94775 .49223 .47388)" width="63.345" height="18.141" fill="#fff" stroke="#00f"/><text class="Text" transform="translate(31.672 13.07)" fill="#00f" font-family="Bitstream Charter" font-size="12px" font-weight="bold"  text-anchor="middle"><tspan x="0" y="0">NAD+</tspan></text></a><a class="Metabolite ChEBI_CHEBI_16908  " transform="translate(989.1 774.82)" color="#00f"  name="NADH+H+"  ><rect class="Icon" transform="matrix(.98446 0 0 .94775 .49223 .47388)" width="63.345" height="18.141" fill="#fff" stroke="#00f"/><text class="Text" transform="translate(31.672 13.07)" fill="#00f" font-family="Bitstream Charter" font-size="12px" font-weight="bold"  text-anchor="middle"><tspan x="0" y="0">NADH+H+</tspan></text></a><text class="Text" transform="translate(5,27)" dominant-baseline="central" fill="black"  font-size="12px" font-weight="bold" overflow="visible" ><tspan x="0" y="-9">Name: Fatty acid oxidation</tspan> <tspan x="0" y="9">Organism: Mus musculus</tspan></text></g></svg>
