<?xml version="1.0" encoding="UTF-8"?>
<!--
  WikiPathways page: https://www.wikipathways.org/index.php/Pathway:WP247
  URL for this compressed file: https://github.com/eweitz/cachome/tree/main/data/wikipathways/WP247.svg
  Source code for compression: https://github.com/eweitz/cachome/tree/main/src/wikipathways.py
-->
<svg class="Diagram" width="800" height="600" color="black" baseProfile="full" prefix="schema:http://schema.org/" preserveAspectRatio="xMidYMid" version="1.1" viewBox="0 0 831 527" vocab="http://vocabularies.wikipathways.org/wp#" xmlns="http://www.w3.org/2000/svg" xmlns:xlink="http://www.w3.org/1999/xlink"><style>svg {font-family: 'Liberation Sans', Arial, sans-serif; }</style><defs><filter id="d" x="0" y="0" width="831" height="527" filterUnits="userSpaceOnUse"><feColorMatrix in="SourceGraphic" values="-1   0   0 0 0                   0  -1   0 0 0                   0   0  -1 0 0                   0   0   0 1 0"/></filter><filter id="b" x="0" y="0" width="831" height="527" filterUnits="userSpaceOnUse"><feColorMatrix in="SourceGraphic" values="-1   0   0 0 1                   0  -1   0 0 0.5019607843137255                   0   0  -1 0 0                   0   0   0 1 0"/></filter><filter id="e" x="0" y="0" width="831" height="527" filterUnits="userSpaceOnUse"><feColorMatrix in="SourceGraphic" values="-1   0   0 0 0                   0  -1   0 0 0                   0   0  -1 0 1                   0   0   0 1 0"/></filter><filter id="c" x="0" y="0" width="831" height="527" filterUnits="userSpaceOnUse"><feColorMatrix in="SourceGraphic" values="-1   0   0 0 0                   0  -1   0 0 1                   0   0  -1 0 0                   0   0   0 1 0"/></filter><marker id="a" stroke-dasharray="99999" markerHeight="12" markerUnits="userSpaceOnUse" markerWidth="12" orient="auto" preserveAspectRatio="none" refX="12" refY="6" viewBox="0 0 12 12"><path transform="rotate(180 6 6)" d="M12 11L0 6l12-5z" fill="currentColor" stroke-width="0"/></marker><symbol id="f" preserveAspectRatio="none" viewBox="0 0 100 100"/></defs><g class="Viewport" color="black"  name="Name: Small ligand GPCRs License: CC BY 2.0 Last Modified: 2/22/2013 Organism: Homo sapiens"><rect class="Icon" width="831" height="527" fill="#fff" stroke="#000" stroke-width="0"/><g id="g" class="DirectedInteraction" color="#ff8000" ><g color="#ff8000" fill="transparent"  filter="url(#b)" stroke="#000" stroke-dasharray="514.8666666666667, 5.8"><path class="EdgeBody" d="m628.67 254h-298.67v222"   marker-end="url(#a)" /></g></g><g id="h" class="DirectedInteraction" color="#00f" ><g color="#00f" fill="transparent"  filter="url(#e)" stroke="#000" stroke-dasharray="258.53333333333336, 5.8"><path class="EdgeBody" d="m688.67 274h61.333v203"   marker-end="url(#a)" /></g></g><g id="i" class="DirectedInteraction" color="#ff8000" ><g color="#ff8000" fill="transparent"  filter="url(#b)" stroke="#000" stroke-dasharray="278.8666666666667, 5.8"><path class="EdgeBody" d="m352.67 234h-42.667v242"   marker-end="url(#a)" /></g></g><g id="j" class="DirectedInteraction" color="#0f0" ><g color="#0f0" fill="transparent"  filter="url(#c)" stroke="#000" stroke-dasharray="176.36666666666662, 5.8"><path class="EdgeBody" d="m628.67 334h-39.167v143"   marker-end="url(#a)" /></g></g><g id="k" class="DirectedInteraction" color="#ff8000" ><g color="#ff8000" fill="transparent"  filter="url(#b)" stroke="#000" stroke-dasharray="305.8666666666666, 5.8"><path class="EdgeBody" d="m253.33 201h36.667v275"   marker-end="url(#a)" /></g></g><g id="l" class="DirectedInteraction" color="#0f0" ><g color="#0f0" fill="transparent"  filter="url(#c)" stroke="#000" stroke-dasharray="297.86666666666673, 5.8"><path class="EdgeBody" d="m533.33 204h30.667v273"   marker-end="url(#a)" /></g></g><g id="m" class="DirectedInteraction" color="#ff8000" ><g color="#ff8000" fill="transparent"  filter="url(#b)" stroke="#000" stroke-dasharray="318.8666666666667, 5.8"><path class="EdgeBody" d="m352.67 194h-42.667v282"   marker-end="url(#a)" /></g></g><g id="n" class="DirectedInteraction" color="#0f0" ><g color="#0f0" fill="transparent"  filter="url(#c)" stroke="#000" stroke-dasharray="216.36666666666662, 5.8"><path class="EdgeBody" d="m628.67 294h-39.167v183"   marker-end="url(#a)" /></g></g><g id="o" class="DirectedInteraction" color="#0f0" ><g color="#0f0" fill="transparent"  filter="url(#c)" stroke="#000" stroke-dasharray="316.3666666666666, 5.8"><path class="EdgeBody" d="m628.67 194h-39.167v283"   marker-end="url(#a)" /></g></g><g id="p" class="DirectedInteraction" color="#00f" ><g color="#00f" fill="transparent"  filter="url(#e)" stroke="#000" stroke-dasharray="298.53333333333336, 5.8"><path class="EdgeBody" d="m688.67 234h61.333v243"   marker-end="url(#a)" /></g></g><g id="q" class="DirectedInteraction" color="#00f" ><g color="#00f" fill="transparent"  filter="url(#e)" stroke="#000" stroke-dasharray="338.53333333333336, 5.8"><path class="EdgeBody" d="m688.67 194h61.333v283"   marker-end="url(#a)" /></g></g><g id="r" class="DirectedInteraction" color="#000" ><g color="#000" fill="transparent"  filter="url(#d)" stroke="#000" stroke-dasharray="35.36801617221256, 5.8"><path class="EdgeBody" d="m223 141.83 0.33333 41.167"   marker-end="url(#a)" /></g></g><g id="s" class="DirectedInteraction" color="#000" ><g color="#000" fill="transparent"  filter="url(#d)" stroke="#000" stroke-dasharray="27.45167080179748, 5.8"><path class="EdgeBody" d="m90.333 148.75-0.33333 33.25"   marker-end="url(#a)" /></g></g><g id="t" class="DirectedInteraction" color="#000" ><g color="#000" fill="transparent"  filter="url(#d)" stroke="#000" stroke-dasharray="28.366666666666656, 5.8"><path class="EdgeBody" d="m382.67 141.83 7e-14 34.167"   marker-end="url(#a)" /></g></g><g id="u" class="DirectedInteraction" color="#000" ><g color="#000" fill="transparent"  filter="url(#d)" stroke="#000" stroke-dasharray="28.366666666666656, 5.8"><path class="EdgeBody" d="m658.67 141.83-1e-13 34.167"   marker-end="url(#a)" /></g></g><a  class="ChEBI_CHEBI_26347 Metabolite  " transform="translate(609.5 122.83)"   name="Prostanoids"  ><rect class="Icon" transform="matrix(.98993 0 0 .95 .49497 .475)" width="98.333" height="19" fill="#fff" stroke="#000"/><text class="Text" transform="translate(49.167 13.5)"   font-size="12px" font-weight="bold"  text-anchor="middle"><tspan x="0" y="0">Prostanoids</tspan></text></a><g class="Label" transform="translate(438 122.83)" color="#000"  name="Platelet Activating"><use class="Icon" width="141.33333333333334" height="19" fill="transparent"  stroke="#000" stroke-width="0" xlink:href="#f"/><text class="Text" transform="translate(70.667 13.5)"   font-size="12px" font-weight="bold"  text-anchor="middle"><tspan x="0" y="0">Platelet Activating</tspan></text></g><a  class="ChEBI_CHEBI_16796 Metabolite  " transform="translate(343 122.83)"   name="Melatonin"  ><rect class="Icon" transform="matrix(.98755 0 0 .95 .49378 .475)" width="79.333" height="19" fill="#fff" stroke="#000"/><text class="Text" transform="translate(39.667 13.5)"   font-size="12px" font-weight="bold"  text-anchor="middle"><tspan x="0" y="0">Melatonin</tspan></text></a><a  class="Metabolite" transform="translate(18.667 115.92)"   name="Lysophosphatidic Acid"  ><rect class="Icon" transform="matrix(.99307 0 0 .97044 .49654 .48522)" width="143.33" height="32.833" fill="#fff" stroke="#000"/><text class="Text" transform="translate(71.667 20.417)"   font-size="12px" font-weight="bold"  text-anchor="middle"><tspan x="0" y="-6.6000000000000005">Lysophosphatidic</tspan> <tspan x="0" y="6.6000000000000005">Acid</tspan></text></a><a  class="ChEBI_CHEBI_67194 Metabolite  " transform="translate(171.33 122.83)"   name="Cannabinoid"  ><rect class="Icon" transform="matrix(.99042 0 0 .95 .49521 .475)" width="103.33" height="19" fill="#fff" stroke="#000"/><text class="Text" transform="translate(51.667 13.5)"   font-size="12px" font-weight="bold"  text-anchor="middle"><tspan x="0" y="0">Cannabinoid</tspan></text></a><a  class="GeneProduct PTAFR " transform="translate(473.33 194)"   name="PTAFR"  ><rect class="Icon" transform="matrix(.98361 0 0 .95238 .4918 .47619)" width="60" height="20" fill="#fff" stroke="#000"/><text class="Text" transform="translate(30,13)"   font-size="10px"  text-anchor="middle"><tspan x="0" y="0">PTAFR</tspan></text></a><a class="WikiPathways_WP35 Pathway " transform="translate(270,476)" color="#14961e"  name="Gi Pathway"  ><rect class="Icon" transform="matrix(.98765 0 0 .95238 .49383 .47619)" width="80" height="20" rx="15" ry="15" fill="#fff" stroke="#14961e"/><text class="Text" transform="translate(40,14)" fill="#14961e"  font-size="12px" font-weight="bold" stroke="black" stroke-width="0" text-anchor="middle"><tspan x="0" y="0">Gi Pathway</tspan></text></a><a class="WikiPathways_WP35 Pathway " transform="translate(513,477)" color="#14961e"  name="Gq/G11 Pathway"  ><rect class="Icon" transform="matrix(.99029 0 0 .95238 .49515 .47619)" width="102" height="20" rx="15" ry="15" fill="#fff" stroke="#14961e"/><text class="Text" transform="translate(51,14)" fill="#14961e"  font-size="12px" font-weight="bold" stroke="black" stroke-width="0" text-anchor="middle"><tspan x="0" y="0">Gq/G11 Pathway</tspan></text></a><a class="WikiPathways_WP35 Pathway " transform="translate(699,477)" color="#14961e"  name="Gq/G11 Pathway"  ><rect class="Icon" transform="matrix(.99029 0 0 .95238 .49515 .47619)" width="102" height="20" rx="15" ry="15" fill="#fff" stroke="#14961e"/><text class="Text" transform="translate(51,14)" fill="#14961e"  font-size="12px" font-weight="bold" stroke="black" stroke-width="0" text-anchor="middle"><tspan x="0" y="0">Gq/G11 Pathway</tspan></text></a><g class="GroupNone" transform="translate(184.33 182)" color="grey" ><rect class="Icon" transform="matrix(.98734 0 0 .98305 .49367 .49153)" width="78" height="58" fill="#b4b464" fill-opacity=".1" stroke="grey" stroke-dasharray="5,3"/><a  class="GeneProduct CNR1 " transform="translate(9,9)"   name="CNR1"  ><rect class="Icon" transform="matrix(.98361 0 0 .95238 .4918 .47619)" width="60" height="20" fill="#fff" stroke="#000"/><text class="Text" transform="translate(30,13)"   font-size="10px"  text-anchor="middle"><tspan x="0" y="0">CNR1</tspan></text></a><a  class="GeneProduct CNR2 " transform="translate(9,29)"   name="CNR2"  ><rect class="Icon" transform="matrix(.98361 0 0 .95238 .4918 .47619)" width="60" height="20" fill="#fff" stroke="#000"/><text class="Text" transform="translate(30,13)"   font-size="10px"  text-anchor="middle"><tspan x="0" y="0">CNR2</tspan></text></a></g><g class="GroupNone" transform="translate(51,181)" color="grey" ><rect class="Icon" transform="matrix(.98734 0 0 .9916 .49367 .4958)" width="78" height="118" fill="#b4b464" fill-opacity=".1" stroke="grey" stroke-dasharray="5,3"/><a  class="GeneProduct S1PR1 " transform="translate(9,9)"   name="EDG1"  ><rect class="Icon" transform="matrix(.98361 0 0 .95238 .4918 .47619)" width="60" height="20" fill="#fff" stroke="#000"/><text class="Text" transform="translate(30,13)"   font-size="10px"  text-anchor="middle"><tspan x="0" y="0">EDG1</tspan></text></a><a  class="GeneProduct LPAR1 " transform="translate(9,29)"   name="EDG2"  ><rect class="Icon" transform="matrix(.98361 0 0 .95238 .4918 .47619)" width="60" height="20" fill="#fff" stroke="#000"/><text class="Text" transform="translate(30,13)"   font-size="10px"  text-anchor="middle"><tspan x="0" y="0">EDG2</tspan></text></a><a  class="GeneProduct S1PR3 " transform="translate(9,49)"   name="EDG3"  ><rect class="Icon" transform="matrix(.98361 0 0 .95238 .4918 .47619)" width="60" height="20" fill="#fff" stroke="#000"/><text class="Text" transform="translate(30,13)"   font-size="10px"  text-anchor="middle"><tspan x="0" y="0">EDG3</tspan></text></a><a  class="GeneProduct S1PR2 " transform="translate(9,69)"   name="EDG5"  ><rect class="Icon" transform="matrix(.98361 0 0 .95238 .4918 .47619)" width="60" height="20" fill="#fff" stroke="#000"/><text class="Text" transform="translate(30,13)"   font-size="10px"  text-anchor="middle"><tspan x="0" y="0">EDG5</tspan></text></a><a  class="GeneProduct S1PR4 " transform="translate(9,89)"   name="EDG6"  ><rect class="Icon" transform="matrix(.98361 0 0 .95238 .4918 .47619)" width="60" height="20" fill="#fff" stroke="#000"/><text class="Text" transform="translate(30,13)"   font-size="10px"  text-anchor="middle"><tspan x="0" y="0">EDG6</tspan></text></a></g><g class="GroupNone" transform="translate(343.67 175)" color="grey" ><rect class="Icon" transform="matrix(.98734 0 0 .98734 .49367 .49367)" width="78" height="78" fill="#b4b464" fill-opacity=".1" stroke="grey" stroke-dasharray="5,3"/><a  class="GeneProduct MTNR1A " transform="translate(9,9)"   name="MTNR1A"  ><rect class="Icon" transform="matrix(.98361 0 0 .95238 .4918 .47619)" width="60" height="20" fill="#fff" stroke="#000"/><text class="Text" transform="translate(30,13)"   font-size="10px"  text-anchor="middle"><tspan x="0" y="0">MTNR1A</tspan></text></a><a  class="GeneProduct MTNR1B " transform="translate(9,29)"   name="MTNR1B"  ><rect class="Icon" transform="matrix(.98361 0 0 .95238 .4918 .47619)" width="60" height="20" fill="#fff" stroke="#000"/><text class="Text" transform="translate(30,13)"   font-size="10px"  text-anchor="middle"><tspan x="0" y="0">MTNR1B</tspan></text></a><a  class="GeneProduct GPR50 " transform="translate(9,49)"   name="GPR50"  ><rect class="Icon" transform="matrix(.98361 0 0 .95238 .4918 .47619)" width="60" height="20" fill="#fff" stroke="#000"/><text class="Text" transform="translate(30,13)"   font-size="10px"  text-anchor="middle"><tspan x="0" y="0">GPR50</tspan></text></a></g><g class="GroupNone" transform="translate(619.67 175)" color="grey" ><rect class="Icon" transform="matrix(.98734 0 0 .99441 .49367 .49721)" width="78" height="178" fill="#b4b464" fill-opacity=".1" stroke="grey" stroke-dasharray="5,3"/><a  class="GeneProduct PTGDR " transform="translate(9,9)"   name="PTGDR"  ><rect class="Icon" transform="matrix(.98361 0 0 .95238 .4918 .47619)" width="60" height="20" fill="#fff" stroke="#000"/><text class="Text" transform="translate(30,13)"   font-size="10px"  text-anchor="middle"><tspan x="0" y="0">PTGDR</tspan></text></a><a  class="GeneProduct PTGER1 " transform="translate(9,29)"   name="PTGER1"  ><rect class="Icon" transform="matrix(.98361 0 0 .95238 .4918 .47619)" width="60" height="20" fill="#fff" stroke="#000"/><text class="Text" transform="translate(30,13)"   font-size="10px"  text-anchor="middle"><tspan x="0" y="0">PTGER1</tspan></text></a><a  class="GeneProduct PTGER2 " transform="translate(9,49)"   name="PTGER2"  ><rect class="Icon" transform="matrix(.98361 0 0 .95238 .4918 .47619)" width="60" height="20" fill="#fff" stroke="#000"/><text class="Text" transform="translate(30,13)"   font-size="10px"  text-anchor="middle"><tspan x="0" y="0">PTGER2</tspan></text></a><a  class="GeneProduct PTGER3 " transform="translate(9,69)"   name="PTGER3"  ><rect class="Icon" transform="matrix(.98361 0 0 .95238 .4918 .47619)" width="60" height="20" fill="#fff" stroke="#000"/><text class="Text" transform="translate(30,13)"   font-size="10px"  text-anchor="middle"><tspan x="0" y="0">PTGER3</tspan></text></a><a  class="GeneProduct PTGER4 " transform="translate(9,89)"   name="PTGER4"  ><rect class="Icon" transform="matrix(.98361 0 0 .95238 .4918 .47619)" width="60" height="20" fill="#fff" stroke="#000"/><text class="Text" transform="translate(30,13)"   font-size="10px"  text-anchor="middle"><tspan x="0" y="0">PTGER4</tspan></text></a><a  class="GeneProduct PTGFR " transform="translate(9,109)"   name="PTGFR"  ><rect class="Icon" transform="matrix(.98361 0 0 .95238 .4918 .47619)" width="60" height="20" fill="#fff" stroke="#000"/><text class="Text" transform="translate(30,13)"   font-size="10px"  text-anchor="middle"><tspan x="0" y="0">PTGFR</tspan></text></a><a  class="GeneProduct PTGIR " transform="translate(9,129)"   name="PTGIR"  ><rect class="Icon" transform="matrix(.98361 0 0 .95238 .4918 .47619)" width="60" height="20" fill="#fff" stroke="#000"/><text class="Text" transform="translate(30,13)"   font-size="10px"  text-anchor="middle"><tspan x="0" y="0">PTGIR</tspan></text></a><a  class="GeneProduct TBXA2R " transform="translate(9,149)"   name="TBXA2R"  ><rect class="Icon" transform="matrix(.98361 0 0 .95238 .4918 .47619)" width="60" height="20" fill="#fff" stroke="#000"/><text class="Text" transform="translate(30,13)"   font-size="10px"  text-anchor="middle"><tspan x="0" y="0">TBXA2R</tspan></text></a></g><text class="Text" transform="translate(5,45)" dominant-baseline="central" fill="black"  font-size="12px" font-weight="bold" overflow="visible" ><tspan x="0" y="-27">Name: Small ligand GPCRs</tspan> <tspan x="0" y="-9">License: CC BY 2.0</tspan> <tspan x="0" y="9">Last Modified: 2/22/2013</tspan> <tspan x="0" y="27">Organism: Homo sapiens</tspan></text></g></svg>
