<?xml version="1.0" encoding="UTF-8"?>
<!--
  WikiPathways page: https://www.wikipathways.org/index.php/Pathway:WP2542
  URL for this compressed file: https://github.com/eweitz/cachome/tree/main/data/wikipathways/WP2542.svg
  Source code for compression: https://github.com/eweitz/cachome/tree/main/src/wikipathways.py
-->
<svg class="Diagram" width="800" height="600" color="black" baseProfile="full" prefix="schema:http://schema.org/" preserveAspectRatio="xMidYMid" version="1.1" viewBox="0 0 635 325" vocab="http://vocabularies.wikipathways.org/wp#" xmlns="http://www.w3.org/2000/svg" xmlns:xlink="http://www.w3.org/1999/xlink"><style>svg {font-family: 'Liberation Sans', Arial, sans-serif; }</style><defs><filter id="a" x="0" y="0" width="635" height="325" filterUnits="userSpaceOnUse"><feColorMatrix in="SourceGraphic" values="-1   0   0 0 0                   0  -1   0 0 0                   0   0  -1 0 0                   0   0   0 1 0"/></filter><marker id="d" stroke-dasharray="99999" markerHeight="12" markerUnits="userSpaceOnUse" markerWidth="12" orient="auto" preserveAspectRatio="none" refX="12" refY="6" viewBox="0 0 12 12"><circle transform="rotate(180 6 6)" cx="6" cy="6" r="5.3" fill="none" stroke="#000"/></marker><marker id="c" stroke-dasharray="99999" markerHeight="12" markerUnits="userSpaceOnUse" markerWidth="12" orient="auto" preserveAspectRatio="none" refX="12" refY="6" viewBox="0 0 12 12"><path transform="rotate(180 6 6)" d="M12 11L0 6l12-5z" fill="currentColor" stroke-width="0"/></marker><symbol id="b" preserveAspectRatio="none" viewBox="0 0 100 100"/></defs><g class="Viewport" color="black"  name="Name: Sulindac metabolic pathway Organism: Homo sapiens"><rect class="Icon" width="635" height="325" fill="#fff" stroke="#000" stroke-width="0"/><g id="e" class="Interaction" color="#000" ><g color="#000" fill="transparent"  filter="url(#a)" stroke="#000" stroke-dasharray="125.27845932875469, 5.8"><path class="EdgeBody" d="m410 275 113.25-66"   marker-end="url(#c)" /></g><g class="Burr Anchor" transform="translate(466.1 242.31)" ><use class="Icon" width="0" height="0" fill="#141414" stroke-width="0" xlink:href="#b"/></g></g><g id="f" class="Interaction" color="#000" ><g color="#000" fill="transparent"  filter="url(#a)" stroke="#000" stroke-dasharray="51.430435795488904, 11"><path class="EdgeBody" d="m518 277-51.904-34.692"   marker-end="url(#d)" /></g></g><g id="g" class="Interaction" color="#000" ><g color="#000" fill="transparent"  filter="url(#a)" stroke="#000" stroke-dasharray="151.18586719829273, 5.8"><path class="EdgeBody" d="M523.25,189L390,106"   marker-end="url(#c)" /></g><g class="Burr Anchor" transform="translate(469.95 155.8)" ><use class="Icon" width="0" height="0" fill="#141414" stroke-width="0" xlink:href="#b"/></g></g><g id="h" class="Interaction" color="#000" ><g color="#000" fill="transparent"  filter="url(#a)" stroke="#000" stroke-dasharray="157.3847112936748, 5.8"><path class="EdgeBody" d="m410 106 140.5 83"   marker-end="url(#c)" /></g><g class="Burr Anchor" transform="translate(466.2 139.2)" ><use class="Icon" width="0" height="0" fill="#141414" stroke-width="0" xlink:href="#b"/></g></g><g id="i" class="Interaction" color="#000" ><g color="#000" fill="transparent"  filter="url(#a)" stroke="#000" stroke-dasharray="32.502212587407534, 11"><path class="EdgeBody" d="m436 183 33.95-27.2"   marker-end="url(#d)" /></g></g><g id="j" class="Interaction" color="#000" ><g color="#000" fill="transparent"  filter="url(#a)" stroke="#000" stroke-dasharray="143.83037793175555, 5.8"><path class="EdgeBody" d="m370 106-124.5 83"   marker-end="url(#c)" /></g><g class="Burr Anchor" transform="translate(320.2,139.2)" ><use class="Icon" width="0" height="0" fill="#141414" stroke-width="0" xlink:href="#b"/></g></g><g id="k" class="Interaction" color="#000" ><g color="#000" fill="transparent"  filter="url(#a)" stroke="#000" stroke-dasharray="135.1122067104195, 5.8"><path class="EdgeBody" d="m370 275-124.5-66"   marker-end="url(#c)" /></g><g class="Burr Anchor" transform="translate(320.2 248.6)" ><use class="Icon" width="0" height="0" fill="#141414" stroke-width="0" xlink:href="#b"/></g></g><g id="l" class="Interaction" color="#000" ><g color="#000" fill="transparent"  filter="url(#a)" stroke="#000" stroke-dasharray="36.776563292057745, 11"><path class="EdgeBody" d="m278 271 42.2-22.4"   marker-end="url(#d)" /></g></g><g id="m" class="Interaction" color="#000" ><g color="#000" fill="transparent"  filter="url(#a)" stroke="#000" stroke-dasharray="42.153363016840245, 11"><path class="EdgeBody" d="m513 114-46.8 25.2"   marker-end="url(#d)" /></g></g><g id="n" class="Interaction" color="#000" ><g color="#000" fill="transparent"  filter="url(#a)" stroke="#000" stroke-dasharray="40.194530957906025, 11"><path class="EdgeBody" d="m284 103 36.2 36.2"   marker-end="url(#d)" /></g></g><a class="PubChem-compound_11245227 Metabolite " transform="translate(350,275)" color="#00f"  name="Sulindac-S"  ><rect class="Icon" transform="matrix(.98765 0 0 .95238 .49383 .47619)" width="80" height="20" fill="#fff" stroke="#00f"/><text class="Text" transform="translate(40,13)" fill="#00f"  font-size="10px"  text-anchor="middle"><tspan x="0" y="0">Sulindac-S</tspan></text></a><a class="Chemspider_4509492 Metabolite ChEBI_CHEBI_75408  " transform="translate(496,189)" color="#00f"  name="Sulfindac sulfide"  ><rect class="Icon" transform="matrix(.99091 0 0 .95238 .49545 .47619)" width="109" height="20" fill="#fff" stroke="#00f"/><text class="Text" transform="translate(54.5,13)" fill="#00f"  font-size="10px"  text-anchor="middle"><tspan x="0" y="0">Sulfindac sulfide</tspan></text></a><a  class="GeneProduct MSRA " transform="translate(518,267)"   name="MsrA"  ><rect class="Icon" transform="matrix(.98438 0 0 .95238 .49219 .47619)" width="63" height="20" fill="#fff" stroke="#000"/><text class="Text" transform="translate(31.5,13)"   font-size="10px"  text-anchor="middle"><tspan x="0" y="0">MsrA</tspan></text></a><a  class="InterPro_IPR000960 GeneProduct " transform="translate(376,183)"   name="FMO"  ><rect class="Icon" transform="matrix(.98765 0 0 .95238 .49383 .47619)" width="80" height="20" fill="#fff" stroke="#000"/><text class="Text" transform="translate(40,13)"   font-size="10px"  text-anchor="middle"><tspan x="0" y="0">FMO</tspan></text></a><g class="GroupNone" transform="translate(512,71)" color="grey" ><rect class="Icon" transform="matrix(.98611 0 0 .98305 .49306 .49153)" width="71" height="58" fill="#b4b464" fill-opacity=".1" stroke="grey" stroke-dasharray="5,3"/><a  class="GeneProduct MSRB2 " transform="translate(9,9)"   name="MsrB2"  ><rect class="Icon" transform="matrix(.98148 0 0 .95238 .49074 .47619)" width="53" height="20" fill="#fff" stroke="#000"/><text class="Text" transform="translate(26.5,13)"   font-size="10px"  text-anchor="middle"><tspan x="0" y="0">MsrB2</tspan></text></a><a  class="GeneProduct MSRB3 " transform="translate(9,29)"   name="MsrB3"  ><rect class="Icon" transform="matrix(.98148 0 0 .95238 .49074 .47619)" width="53" height="20" fill="#fff" stroke="#000"/><text class="Text" transform="translate(26.5,13)"   font-size="10px"  text-anchor="middle"><tspan x="0" y="0">MsrB3</tspan></text></a></g><g class="GroupNone" transform="translate(187,60)" color="grey" ><rect class="Icon" transform="matrix(.9899 0 0 .98305 .49495 .49153)" width="98" height="58" fill="#b4b464" fill-opacity=".1" stroke="grey" stroke-dasharray="5,3"/><a  class="GeneProduct CYP1B1 " transform="translate(9,9)"   name="CYP1B1"  ><rect class="Icon" transform="matrix(.98765 0 0 .95238 .49383 .47619)" width="80" height="20" fill="#fff" stroke="#000"/><text class="Text" transform="translate(40,13)"   font-size="10px"  text-anchor="middle"><tspan x="0" y="0">CYP1B1</tspan></text></a><a  class="GeneProduct CYP1A2 " transform="translate(9,29)"   name="CYP1A2"  ><rect class="Icon" transform="matrix(.98765 0 0 .95238 .49383 .47619)" width="80" height="20" fill="#fff" stroke="#000"/><text class="Text" transform="translate(40,13)"   font-size="10px"  text-anchor="middle"><tspan x="0" y="0">CYP1A2</tspan></text></a></g><a class="PubChem-compound_16046677 Metabolite " transform="translate(350,86)" color="#00f"  name="Sulindac-R"  ><rect class="Icon" transform="matrix(.98765 0 0 .95238 .49383 .47619)" width="80" height="20" fill="#fff" stroke="#00f"/><text class="Text" transform="translate(40,13)" fill="#00f"  font-size="10px"  text-anchor="middle"><tspan x="0" y="0">Sulindac-R</tspan></text></a><a class="Chemspider_4582441 Metabolite ChEBI_CHEBI_64212  " transform="translate(175,189)" color="#00f"  name="Sulindac sulfone"  ><rect class="Icon" transform="matrix(.98947 0 0 .95238 .49474 .47619)" width="94" height="20" fill="#fff" stroke="#00f"/><text class="Text" transform="translate(47,13)" fill="#00f"  font-size="10px"  text-anchor="middle"><tspan x="0" y="0">Sulindac sulfone</tspan></text></a><a  class="GeneProduct CYP1A2 " transform="translate(198,261)"   name="CYP1A2"  ><rect class="Icon" transform="matrix(.98765 0 0 .95238 .49383 .47619)" width="80" height="20" fill="#fff" stroke="#000"/><text class="Text" transform="translate(40,13)"   font-size="10px"  text-anchor="middle"><tspan x="0" y="0">CYP1A2</tspan></text></a><text class="Text" transform="translate(5,27)" dominant-baseline="central" fill="black"  font-size="12px" font-weight="bold" overflow="visible" ><tspan x="0" y="-9">Name: Sulindac metabolic pathway</tspan> <tspan x="0" y="9">Organism: Homo sapiens</tspan></text></g></svg>
