<?xml version="1.0" encoding="UTF-8"?>
<!--
  WikiPathways page: https://www.wikipathways.org/index.php/Pathway:WP26
  URL for this compressed file: https://github.com/eweitz/cachome/tree/main/data/wikipathways/WP26.svg
  Source code for compression: https://github.com/eweitz/cachome/tree/main/src/wikipathways.py
-->
<svg class="Diagram" width="800" height="600" color="black" baseProfile="full" prefix="schema:http://schema.org/" preserveAspectRatio="xMidYMid" version="1.1" viewBox="0 0 620 644" vocab="http://vocabularies.wikipathways.org/wp#" xmlns="http://www.w3.org/2000/svg" xmlns:xlink="http://www.w3.org/1999/xlink"><style>svg {font-family: 'Liberation Sans', Arial, sans-serif; }</style><defs><filter id="d" x="-50%" y="-50%" width="200%" height="200%"><feComposite in="SourceGraphic" in2="SourceGraphic" result="doubleDark"/><feMorphology in="doubleDark" operator="dilate" radius="0.16666666666666666" result="in2Double"/><feMorphology in="SourceGraphic" operator="dilate" radius="3" result="inDouble"/><feComposite in="inDouble" in2="in2Double" operator="out" result="doubleResult"/></filter><filter id="b" x="0" y="0" width="620" height="644" filterUnits="userSpaceOnUse"><feColorMatrix in="SourceGraphic" values="-1   0   0 0 0                   0  -1   0 0 0                   0   0  -1 0 0                   0   0   0 1 0"/></filter><marker id="a" stroke-dasharray="99999" markerHeight="12" markerUnits="userSpaceOnUse" markerWidth="12" orient="auto" preserveAspectRatio="none" refX="12" refY="6" viewBox="0 0 12 12"><path transform="rotate(180 6 6)" d="M12 11L0 6l12-5z" fill="currentColor" stroke-width="0"/></marker><symbol id="c" preserveAspectRatio="none" viewBox="0 0 100 100"/></defs><g class="Viewport" color="black"  name="Name: S1P receptor signal transduction License: CC BY 2.0 Organism: Homo sapiens"><rect class="Icon" width="620" height="644" fill="#fff" stroke="#000" stroke-width="0"/><g id="e" class="DirectedInteraction" color="#000" ><g color="#000" fill="transparent"  filter="url(#b)" stroke="#000" stroke-dasharray="5.14, 3.09, 5.14, 3.09, 5.14, 3.09, 5.14, 3.09, 5.14, 3.09, 5.14, 3.09, 5.14, 3.09, 5.14, 3.09, 5.14, 3.09, 5.14, 3.09, 5.14, 3.09, 5.14, 3.09, 5.14, 3.09, 5.14, 3.09, 5.14, 3.09, 5.14, 3.09, 5.14, 3.09, 5.14, 3.09, 5.14, 3.09, 5.14, 3.09, 5.14, 3.09, 5.14, 3.09, 5.14, 3.09, 5.14, 3.09, 5.14, 3.09, 5.14, 3.09, 5.14, 3.09, 0, 5.8"><path class="EdgeBody" d="m327.67 232.67-7e-14 15.333c7e-14 15.333 7e-14 46 27.333 61.333 27.333 15.333 82 15.333 109.33 15.333l27.333 7e-14"   marker-end="url(#a)" /></g></g><g id="f" class="DirectedInteraction" color="#000" ><g color="#000" fill="transparent"  filter="url(#b)" stroke="#000" stroke-dasharray="50.53482040317443, 5.8"><path class="EdgeBody" d="m313.08 156.33-0.40932 56.333"   marker-end="url(#a)" /></g></g><g id="g" class="DirectedInteraction" color="#000" ><g color="#000" fill="transparent"  filter="url(#b)" stroke="#000" stroke-dasharray="203.8709061574564, 5.8"><path class="EdgeBody" d="m312.67 232.67 1.3333 209.67"   marker-end="url(#a)" /></g></g><g id="h" class="DirectedInteraction" color="#000" ><g color="#000" fill="transparent"  filter="url(#b)" stroke="#000" stroke-dasharray="104.92581083924111, 5.8"><path class="EdgeBody" d="m352 480.33 14.667-7e-14c14.667 7e-14 44 7e-14 58.667-6.1111 14.667-6.1111 14.667-18.333 14.667-24.444l6e-14 -6.1111"   marker-end="url(#a)" /></g></g><g id="i" class="DirectedInteraction" color="#000" ><g color="#000" fill="transparent"  filter="url(#b)" stroke="#000" stroke-dasharray="92.13478555764657, 5.8"><path class="EdgeBody" d="m357.33 326-29.667-93.333"   marker-end="url(#a)" /></g></g><g id="j" class="DirectedInteraction" color="#000" ><g color="#000" fill="transparent"  filter="url(#b)" stroke="#000" stroke-dasharray="69.89301252243712, 5.8"><path class="EdgeBody" d="m440 423.67-6e-14 -9.9444c6e-14 -9.9444 6e-14 -29.833-4.2778-39.778-4.2778-9.9444-12.833-9.9444-17.111-9.9444h-4.2778"   marker-end="url(#a)" /></g></g><g id="k" class="DirectedInteraction" color="#000" ><g color="#000" fill="transparent"  filter="url(#b)" stroke="#000" stroke-dasharray="123.96089121491458, 5.8"><path class="EdgeBody" d="m276 461.33-84.667-98.333"   marker-end="url(#a)" /></g></g><g id="l" class="DirectedInteraction" color="#000" ><g color="#000" fill="transparent"  filter="url(#b)" stroke="#000" stroke-dasharray="101.17663296253066, 5.8"><path class="EdgeBody" d="m276 480.33-100 38"   marker-end="url(#a)" /></g></g><g class="SingleFreeNode Shape" transform="translate(44.5,216.5)" color="#c0c0c0" ><g fill="transparent"  filter="url(#d)" stroke="#c0c0c0" stroke-width="3"><rect class="Icon" transform="matrix(.97853 0 0 .9708 5.8712 5.8248)" width="547" height="399" rx="15" ry="15"   /></g></g><g class="SingleFreeNode Shape" transform="translate(417.5,72)" color="#000" ><rect class="Icon" transform="matrix(.99336 0 0 .99065 .49668 .49533)" width="149.5" height="106" fill="transparent"  stroke="#000"/></g><g class="Label" transform="translate(405 76.833)" color="#000"  name="GPCRs similar to S1P"><use class="Icon" width="169.33333333333334" height="19" fill="transparent"  stroke="#000" stroke-width="0" xlink:href="#c"/><text class="Text" transform="translate(84.667 13.5)"   font-size="12px" font-weight="bold"  text-anchor="middle"><tspan x="0" y="0">GPCRs similar to S1P</tspan></text></g><a  class="GeneProduct S1PR1 " transform="translate(282.67 212.67)"   name="S1PR1"  ><rect class="Icon" transform="matrix(.98361 0 0 .95238 .4918 .47619)" width="60" height="20" fill="#fff" stroke="#000"/><text class="Text" transform="translate(30,13)"   font-size="10px"  text-anchor="middle"><tspan x="0" y="0">S1PR1</tspan></text></a><a  class="GeneProduct PIK3C2B " transform="translate(410 423.67)"   name="PIK3C2B"  ><rect class="Icon" transform="matrix(.98361 0 0 .95238 .4918 .47619)" width="60" height="20" fill="#fff" stroke="#000"/><text class="Text" transform="translate(30,13)"   font-size="10px"  text-anchor="middle"><tspan x="0" y="0">PIK3C2B</tspan></text></a><a  class="GeneProduct RACGAP1 " transform="translate(491.67 314.67)"   name="RACGAP1"  ><rect class="Icon" transform="matrix(.98522 0 0 .95238 .49261 .47619)" width="66.667" height="20" fill="#fff" stroke="#000"/><text class="Text" transform="translate(33.333 13)"   font-size="10px"  text-anchor="middle"><tspan x="0" y="0">RACGAP1</tspan></text></a><g class="GroupNone" transform="translate(273.67 59.333)" color="grey" ><rect class="Icon" transform="matrix(.98747 0 0 .9899 .49374 .49495)" width="78.819" height="98" fill="#b4b464" fill-opacity=".1" stroke="grey" stroke-dasharray="5,3"/><a  class="GeneProduct SPHK1 " transform="translate(9,9)"   name="SPHK1"  ><rect class="Icon" transform="matrix(.98361 0 0 .95238 .4918 .47619)" width="60" height="20" fill="#fff" stroke="#000"/><text class="Text" transform="translate(30,13)"   font-size="10px"  text-anchor="middle"><tspan x="0" y="0">SPHK1</tspan></text></a><a  class="GeneProduct SPHK2 " transform="translate(9 29)"   name="SPHK2"  ><rect class="Icon" transform="matrix(.98361 0 0 .95238 .4918 .47619)" width="60" height="20" fill="#fff" stroke="#000"/><text class="Text" transform="translate(30,13)"   font-size="10px"  text-anchor="middle"><tspan x="0" y="0">SPHK2</tspan></text></a><a  class="GeneProduct ASAH1 " transform="translate(9 48.052)"   name="ASAH1"  ><rect class="Icon" transform="matrix(.98361 0 0 .95633 .4918 .47816)" width="60" height="21.897" fill="#fff" stroke="#000"/><text class="Text" transform="translate(30 13.948)"   font-size="10px"  text-anchor="middle"><tspan x="0" y="0">ASAH1</tspan></text></a><a  class="GeneProduct SMPD2 " transform="translate(9.8186 67.103)"   name="SMPD2"  ><rect class="Icon" transform="matrix(.98361 0 0 .95633 .4918 .47816)" width="60" height="21.897" fill="#fff" stroke="#000"/><text class="Text" transform="translate(30 13.948)"   font-size="10px"  text-anchor="middle"><tspan x="0" y="0">SMPD2</tspan></text></a></g><g class="GroupGroup" transform="translate(452 98.667)" color="grey" ><use class="Icon" width="76" height="76" fill="transparent"  stroke="grey" stroke-dasharray="5,3" stroke-width="0" xlink:href="#c"/><a  class="GeneProduct S1PR2 " transform="translate(8,8)"   name="EDG5"  ><rect class="Icon" transform="matrix(.98361 0 0 .95238 .4918 .47619)" width="60" height="20" fill="#fff" stroke="#000"/><text class="Text" transform="translate(30,13)"   font-size="10px"  text-anchor="middle"><tspan x="0" y="0">EDG5</tspan></text></a><a  class="GeneProduct S1PR3 " transform="translate(8,28)"   name="EDG3"  ><rect class="Icon" transform="matrix(.98361 0 0 .95238 .4918 .47619)" width="60" height="20" fill="#fff" stroke="#000"/><text class="Text" transform="translate(30,13)"   font-size="10px"  text-anchor="middle"><tspan x="0" y="0">EDG3</tspan></text></a><a  class="GeneProduct S1PR5 " transform="translate(8,48)"   name="EDG8"  ><rect class="Icon" transform="matrix(.98361 0 0 .95238 .4918 .47619)" width="60" height="20" fill="#fff" stroke="#000"/><text class="Text" transform="translate(30,13)"   font-size="10px"  text-anchor="middle"><tspan x="0" y="0">EDG8</tspan></text></a></g><g class="GroupGroup" transform="translate(276 442.33)" color="grey" ><use class="Icon" width="76" height="76" fill="transparent"  stroke="grey" stroke-dasharray="5,3" stroke-width="0" xlink:href="#c"/><a  class="GeneProduct GNAI1 " transform="translate(8,8)"   name="GNAI1"  ><rect class="Icon" transform="matrix(.98361 0 0 .95238 .4918 .47619)" width="60" height="20" fill="#fff" stroke="#000"/><text class="Text" transform="translate(30,13)"   font-size="10px"  text-anchor="middle"><tspan x="0" y="0">GNAI1</tspan></text></a><a  class="GeneProduct GNAI2 " transform="translate(8,28)"   name="GNAI2"  ><rect class="Icon" transform="matrix(.98361 0 0 .95238 .4918 .47619)" width="60" height="20" fill="#fff" stroke="#000"/><text class="Text" transform="translate(30,13)"   font-size="10px"  text-anchor="middle"><tspan x="0" y="0">GNAI2</tspan></text></a><a  class="GeneProduct GNAI3 " transform="translate(8,48)"   name="GNAI3"  ><rect class="Icon" transform="matrix(.98361 0 0 .95238 .4918 .47619)" width="60" height="20" fill="#fff" stroke="#000"/><text class="Text" transform="translate(30,13)"   font-size="10px"  text-anchor="middle"><tspan x="0" y="0">GNAI3</tspan></text></a></g><g class="GroupGroup" transform="translate(338.33 326)" color="grey" ><use class="Icon" width="76" height="76" fill="transparent"  stroke="grey" stroke-dasharray="5,3" stroke-width="0" xlink:href="#c"/><a  class="GeneProduct AKT1 " transform="translate(8,8)"   name="AKT1"  ><rect class="Icon" transform="matrix(.98361 0 0 .95238 .4918 .47619)" width="60" height="20" fill="#fff" stroke="#000"/><text class="Text" transform="translate(30,13)"   font-size="10px"  text-anchor="middle"><tspan x="0" y="0">AKT1</tspan></text></a><a  class="GeneProduct AKT2 " transform="translate(8,28)"   name="AKT2"  ><rect class="Icon" transform="matrix(.98361 0 0 .95238 .4918 .47619)" width="60" height="20" fill="#fff" stroke="#000"/><text class="Text" transform="translate(30,13)"   font-size="10px"  text-anchor="middle"><tspan x="0" y="0">AKT2</tspan></text></a><a  class="GeneProduct AKT3 " transform="translate(8,48)"   name="AKT3"  ><rect class="Icon" transform="matrix(.98361 0 0 .95238 .4918 .47619)" width="60" height="20" fill="#fff" stroke="#000"/><text class="Text" transform="translate(30,13)"   font-size="10px"  text-anchor="middle"><tspan x="0" y="0">AKT3</tspan></text></a></g><g class="GroupGroup" transform="translate(115.33 325)" color="grey" ><use class="Icon" width="76" height="76" fill="transparent"  stroke="grey" stroke-dasharray="5,3" stroke-width="0" xlink:href="#c"/><a  class="GeneProduct PLCB1 " transform="translate(8,8)"   name="PLCB1"  ><rect class="Icon" transform="matrix(.98361 0 0 .95238 .4918 .47619)" width="60" height="20" fill="#fff" stroke="#000"/><text class="Text" transform="translate(30,13)"   font-size="10px"  text-anchor="middle"><tspan x="0" y="0">PLCB1</tspan></text></a><a  class="GeneProduct PLCB2 " transform="translate(8,28)"   name="PLCB2"  ><rect class="Icon" transform="matrix(.98361 0 0 .95238 .4918 .47619)" width="60" height="20" fill="#fff" stroke="#000"/><text class="Text" transform="translate(30,13)"   font-size="10px"  text-anchor="middle"><tspan x="0" y="0">PLCB2</tspan></text></a><a  class="GeneProduct PLCB3 " transform="translate(8,48)"   name="PLCB3"  ><rect class="Icon" transform="matrix(.98361 0 0 .95238 .4918 .47619)" width="60" height="20" fill="#fff" stroke="#000"/><text class="Text" transform="translate(30,13)"   font-size="10px"  text-anchor="middle"><tspan x="0" y="0">PLCB3</tspan></text></a></g><g class="GroupGroup" transform="translate(100 450.33)" color="grey" ><use class="Icon" width="76" height="136" fill="transparent"  stroke="grey" stroke-dasharray="5,3" stroke-width="0" xlink:href="#c"/><a  class="GeneProduct MAPK3 " transform="translate(8,8)"   name="MAPK3"  ><rect class="Icon" transform="matrix(.98361 0 0 .95238 .4918 .47619)" width="60" height="20" fill="#fff" stroke="#000"/><text class="Text" transform="translate(30,13)"   font-size="10px"  text-anchor="middle"><tspan x="0" y="0">MAPK3</tspan></text></a><a  class="GeneProduct MAPK1 " transform="translate(8,28)"   name="MAPK1"  ><rect class="Icon" transform="matrix(.98361 0 0 .95238 .4918 .47619)" width="60" height="20" fill="#fff" stroke="#000"/><text class="Text" transform="translate(30,13)"   font-size="10px"  text-anchor="middle"><tspan x="0" y="0">MAPK1</tspan></text></a><a  class="GeneProduct MAPK6 " transform="translate(8,48)"   name="MAPK6"  ><rect class="Icon" transform="matrix(.98361 0 0 .95238 .4918 .47619)" width="60" height="20" fill="#fff" stroke="#000"/><text class="Text" transform="translate(30,13)"   font-size="10px"  text-anchor="middle"><tspan x="0" y="0">MAPK6</tspan></text></a><a  class="GeneProduct MAPK4 " transform="translate(8,68)"   name="MAPK4"  ><rect class="Icon" transform="matrix(.98361 0 0 .95238 .4918 .47619)" width="60" height="20" fill="#fff" stroke="#000"/><text class="Text" transform="translate(30,13)"   font-size="10px"  text-anchor="middle"><tspan x="0" y="0">MAPK4</tspan></text></a><a  class="GeneProduct MAPK7 " transform="translate(8,88)"   name="MAPK7"  ><rect class="Icon" transform="matrix(.98361 0 0 .95238 .4918 .47619)" width="60" height="20" fill="#fff" stroke="#000"/><text class="Text" transform="translate(30,13)"   font-size="10px"  text-anchor="middle"><tspan x="0" y="0">MAPK7</tspan></text></a><a  class="GeneProduct MAPK12 " transform="translate(8,108)"   name="MAPK12"  ><rect class="Icon" transform="matrix(.98361 0 0 .95238 .4918 .47619)" width="60" height="20" fill="#fff" stroke="#000"/><text class="Text" transform="translate(30,13)"   font-size="10px"  text-anchor="middle"><tspan x="0" y="0">MAPK12</tspan></text></a></g><text class="Text" transform="translate(5,36)" dominant-baseline="central" fill="black"  font-size="12px" font-weight="bold" overflow="visible" ><tspan x="0" y="-18">Name: S1P receptor signal transduction</tspan> <tspan x="0" y="0">License: CC BY 2.0</tspan> <tspan x="0" y="18">Organism: Homo sapiens</tspan></text></g></svg>
