<?xml version="1.0" encoding="UTF-8"?>
<!--
  WikiPathways page: https://www.wikipathways.org/index.php/Pathway:WP268
  URL for this compressed file: https://github.com/eweitz/cachome/tree/main/data/wikipathways/WP268.svg
  Source code for compression: https://github.com/eweitz/cachome/tree/main/src/wikipathways.py
-->
<svg class="Diagram" width="800" height="600" color="black" baseProfile="full" prefix="schema:http://schema.org/" preserveAspectRatio="xMidYMid" version="1.1" viewBox="0 0 1238.1 494.29" vocab="http://vocabularies.wikipathways.org/wp#" xmlns="http://www.w3.org/2000/svg" xmlns:xlink="http://www.w3.org/1999/xlink"><style>svg {font-family: 'Liberation Sans', Arial, sans-serif; }</style><defs><filter id="e" x="-50%" y="-50%" width="200%" height="200%"><feComposite in="SourceGraphic" in2="SourceGraphic" result="doubleDark"/><feMorphology in="doubleDark" operator="dilate" radius="0.16666666666666666" result="in2Double"/><feMorphology in="SourceGraphic" operator="dilate" radius="3" result="inDouble"/><feComposite in="inDouble" in2="in2Double" operator="out" result="doubleResult"/></filter><filter id="a" x="0" y="0" width="1238.1" height="494.29" filterUnits="userSpaceOnUse"><feColorMatrix in="SourceGraphic" values="-1   0   0 0 0                   0  -1   0 0 0                   0   0  -1 0 0                   0   0   0 1 0"/></filter><marker id="b" stroke-dasharray="99999" markerHeight="12" markerUnits="userSpaceOnUse" markerWidth="12" orient="auto" preserveAspectRatio="none" refX="12" refY="6" viewBox="0 0 12 12"><path transform="rotate(180 6 6)" d="M12 11L0 6l12-5z" fill="currentColor" stroke-width="0"/></marker><marker id="d" stroke-dasharray="99999" markerHeight="20" markerUnits="userSpaceOnUse" markerWidth="10" orient="auto" preserveAspectRatio="none" refX="10" refY="10" viewBox="0 0 10 20"><path d="m3 0v20" fill="currentColor" stroke="currentColor"/></marker><symbol id="f" overflow="visible" preserveAspectRatio="none" viewBox="0 0 50 50"><ellipse cx="25" cy="25" rx="25" ry="25" stroke="currentColor" vector-effect="non-scaling-stroke"/></symbol><symbol id="c" preserveAspectRatio="none" viewBox="0 0 100 100"/></defs><g class="Viewport" color="black"  name="Name: Notch signaling License: CC BY 2.0 Last Modified: 2/22/2013 Organism: Homo sapiens"><rect class="Icon" width="1238.1" height="494.29" fill="#fff" stroke="#000" stroke-width="0"/><g id="g" class="Edge GraphicalLine DirectedInteraction" color="#000" ><g color="#000" fill="transparent"  filter="url(#a)" stroke="#000" stroke-dasharray="52.370486980560095, 5.8"><path class="EdgeBody" d="m1018.5 262.67 58.167 0.66667"   marker-end="url(#b)" /></g></g><g id="h" class="Edge GraphicalLine DirectedInteraction" color="#000" ><g color="#000" fill="transparent"  filter="url(#a)" stroke="#000" stroke-dasharray="233.06682714665732, 5.8"><path class="EdgeBody" d="m739.33 266.67 238.83-4"   marker-end="url(#b)" /></g></g><g id="i" class="Interaction" color="#000" ><g color="#000" fill="transparent"  filter="url(#a)" stroke="#000" stroke-dasharray="31.050138664925658, 0"><path class="EdgeBody" d="m870.67 238.67 27-15.333"   /></g></g><g id="j" class="Interaction" color="#000" ><g color="#000" fill="transparent"  filter="url(#a)" stroke="#000" stroke-dasharray="101.57050960346253, 7"><path class="EdgeBody" d="m405.33 173.33-80.667 72.667"   marker-end="url(#d)" /></g></g><g id="k" class="DirectedInteraction" color="#000" ><g color="#000" fill="transparent"  filter="url(#a)" stroke="#000" stroke-dasharray="5.12, 3.07, 5.12, 3.07, 5.12, 3.07, 5.12, 3.07, 5.12, 3.07, 5.12, 3.07, 5.12, 3.07, 5.12, 3.07, 5.12, 3.07, 5.12, 3.07, 5.12, 3.07, 5.12, 3.07, 5.12, 3.07, 5.12, 3.07, 5.12, 3.07, 5.12, 3.07, 5.12, 3.07, 5.12, 3.07, 5.12, 3.07, 5.12, 3.07, 5.12, 3.07, 5.12, 3.07, 5.12, 3.07, 5.12, 3.07, 5.12, 3.07, 5.12, 3.07, 5.12, 3.07, 5.12, 3.07, 5.12, 3.07, 5.12, 3.07, 5.12, 3.07, 5.12, 3.07, 5.12, 3.07, 5.12, 3.07, 5.12, 3.07, 5.12, 3.07, 5.12, 3.07, 5.12, 3.07, 5.12, 3.07, 5.12, 5.8"><path class="EdgeBody" d="m324.67 270h152.91v126.48h50.801"   marker-end="url(#b)" /></g></g><g id="l" class="Edge GraphicalLine DirectedInteraction" color="#000" ><g color="#000" fill="transparent"  filter="url(#a)" stroke="#000" stroke-dasharray="401.54697194843067, 5.8"><path class="EdgeBody" d="m286.67 270 407.33-3.3333"   marker-end="url(#b)" /></g></g><g id="m" class="DirectedInteraction" color="#000" ><g color="#000" fill="transparent"  filter="url(#a)" stroke="#000" stroke-dasharray="61.558081260611274, 5.8"><path class="EdgeBody" d="m370.67 335.67-65-17.667"   marker-end="url(#b)" /></g></g><g id="n" class="DirectedInteraction" color="#000" ><g color="#000" fill="transparent"  filter="url(#a)" stroke="#000" stroke-dasharray="112.07234149234881, 5.8"><path class="EdgeBody" d="m190 406.67 77.667-88.667"   marker-end="url(#b)" /></g></g><g id="o" class="Interaction" color="#000" ><g color="#000" fill="transparent"  filter="url(#a)" stroke="#000" stroke-dasharray="66.43099557483276, 7"><path class="EdgeBody" d="m348 162-42.333 60"   marker-end="url(#d)" /></g></g><g id="p" class="DirectedInteraction" color="#000" ><g color="#000" fill="transparent"  filter="url(#a)" stroke="#000" stroke-dasharray="102.36089027776809, 5.8"><path class="EdgeBody" d="m140.51 247.33 108.15-1.3333"   marker-end="url(#b)" /></g><g class="Burr Anchor" transform="translate(197.2 246.63)" ><use class="Icon" width="0" height="0" fill="#141414" stroke-width="0" xlink:href="#c"/></g></g><g id="q" class="DirectedInteraction" color="#000" ><g color="#000" fill="transparent"  filter="url(#a)" stroke="#000" stroke-dasharray="35.72238410715767, 5.8"><path class="EdgeBody" d="m195.75 205.14 1.449 41.497"   marker-end="url(#b)" /></g></g><g id="r" class="DirectedInteraction" color="#000" ><g color="#000" fill="transparent"  filter="url(#a)" stroke="#000" stroke-dasharray="179.7122038513309, 5.8"><path class="EdgeBody" d="m324.67 270 174-64.333"   marker-end="url(#b)" /></g></g><g id="s" class="Edge GraphicalLine DirectedInteraction" color="#000" ><g color="#000" fill="transparent"  filter="url(#a)" stroke="#000" stroke-dasharray="66.43365828260991, 5.8"><path class="EdgeBody" d="m1008.4 253.17 57.917-43.167"   marker-end="url(#b)" /></g></g><g id="t" class="Interaction" color="#000" ><g color="#000" fill="transparent"  filter="url(#a)" stroke="#000" stroke-dasharray="114.19440386911782, 7"><path class="EdgeBody" d="m139.51 346.67 109.15-52.667"   marker-end="url(#d)" /></g></g><g id="u" class="DirectedInteraction" color="#000" ><g color="#000" fill="transparent"  filter="url(#a)" stroke="#000" stroke-dasharray="55.539102734925905, 5.8"><path class="EdgeBody" d="m786.13 195.13 43.206 43.54"   marker-end="url(#b)" /></g></g><g class="SingleFreeNode Shape PhysicalEntity CellularComponent Nucleus" transform="translate(608.47 35.584)" color="#c0c0c0" ><g fill="transparent"  filter="url(#e)" stroke="#c0c0c0" stroke-width="3"><use class="Icon" transform="matrix(.98005 0 0 .97007 5.8803 5.8204)" width="589.3991895971482" height="388.96428655084594"    xlink:href="#f"/></g></g><g class="SingleFreeNode Shape PhysicalEntity CellularComponent Cell" transform="translate(283.71 11.975)" color="#c0c0c0" ><g fill="transparent"  filter="url(#e)" stroke="#c0c0c0" stroke-width="3"><rect class="Icon" transform="matrix(.9872 0 0 .97424 5.9232 5.8454)" width="925.86" height="453.81" rx="15" ry="15"   /></g></g><g class="SingleFreeNode Shape PhysicalEntity CellularComponent Cell" transform="translate(11.359 151.17)" color="#c0c0c0" ><g fill="transparent"  filter="url(#e)" stroke="#c0c0c0" stroke-width="3"><rect class="Icon" transform="matrix(.88695 0 0 .96174 5.3217 5.7705)" width="94.149" height="301.66" rx="15" ry="15"   /></g></g><g class="Label" transform="translate(782.02 355.21)" color="#000"  name="co-repressor complex"><use class="Icon" width="142.33333333333334" height="16" fill="transparent"  stroke="#000" stroke-width="0" xlink:href="#c"/><text class="Text" transform="translate(71.167 11)"   font-size="10px" font-weight="bold"  text-anchor="middle"><tspan x="0" y="0">co-repressor complex</tspan></text></g><g class="Label" transform="translate(368 277.27)" color="#000"  name="g-secretase complex"><use class="Icon" width="80" height="27" fill="transparent"  stroke="#000" stroke-width="0" xlink:href="#c"/><text class="Text" transform="translate(40,16.5)"   font-size="10px" font-weight="bold"  text-anchor="middle"><tspan x="0" y="-5.5">g-secretase</tspan> <tspan x="0" y="5.5">complex</tspan></text></g><g class="Label" transform="translate(647.67 276.83)" color="#000"  name="Notch Intracellular Domain"><use class="Icon" width="131.33333333333334" height="13" fill="transparent"  stroke="#000" stroke-width="0" xlink:href="#c"/><text class="Text" transform="translate(65.667 8.5)"   font-size="8px"  text-anchor="middle"><tspan x="0" y="0">Notch Intracellular Domain</tspan></text></g><g class="Label" transform="translate(336 310.67)" color="#000"  name="S3"><use class="Icon" width="21.333333333333332" height="16" fill="transparent"  stroke="#000" stroke-width="0" xlink:href="#c"/><text class="Text" transform="translate(10.667 11)"   font-size="10px" font-weight="bold"  text-anchor="middle"><tspan x="0" y="0">S3</tspan></text></g><g class="Label" transform="translate(978.17 253.17)" color="#000"  name="DNA"><use class="Icon" width="40.333333333333336" height="19" fill="transparent"  stroke="#000" stroke-width="0" xlink:href="#c"/><text class="Text" transform="translate(20.167 13.5)"   font-size="12px" font-weight="bold"  text-anchor="middle"><tspan x="0" y="0">DNA</tspan></text></g><g class="Label" transform="translate(207.67 348)" color="#000"  name="S2"><use class="Icon" width="21.333333333333332" height="16" fill="transparent"  stroke="#000" stroke-width="0" xlink:href="#c"/><text class="Text" transform="translate(10.667 11)"   font-size="10px" font-weight="bold"  text-anchor="middle"><tspan x="0" y="0">S2</tspan></text></g><g class="Label" transform="translate(694 257.17)" color="#000"  name="NICD"><use class="Icon" width="45.333333333333336" height="19" fill="transparent"  stroke="#000" stroke-width="0" xlink:href="#c"/><text class="Text" transform="translate(22.667 13.5)"   font-size="12px" font-weight="bold"  text-anchor="middle"><tspan x="0" y="0">NICD</tspan></text></g><a class="WikiPathways_WP382 Pathway " transform="translate(528.38 386.48)" color="#14961e"  name="MAPK signaling pathway"  ><rect class="Icon" transform="matrix(.99385 0 0 .95238 .49692 .47619)" width="161.52" height="20" rx="15" ry="15" fill="#fff" stroke="#14961e"/><text class="Text" transform="translate(80.758 14)" fill="#14961e"  font-size="12px" font-weight="bold" stroke="black" stroke-width="0" text-anchor="middle"><tspan x="0" y="0">MAPK signaling pathway</tspan></text></a><a  class="GeneProduct PTCRA " transform="translate(1076.7 253.33)"   name="PTCRA"  ><rect class="Icon" transform="matrix(.9816 0 0 .95238 .4908 .47619)" width="53.333" height="20" fill="#fff" stroke="#000"/><text class="Text" transform="translate(26.667 13)"   font-size="10px"  text-anchor="middle"><tspan x="0" y="0">PTCRA</tspan></text></a><a  class="GeneProduct ADAM17 " transform="translate(160 406.67)"   name="ADAM17"  ><rect class="Icon" transform="matrix(.98361 0 0 .95238 .4918 .47619)" width="60" height="20" fill="#fff" stroke="#000"/><text class="Text" transform="translate(30,13)"   font-size="10px"  text-anchor="middle"><tspan x="0" y="0">ADAM17</tspan></text></a><a  class="GeneProduct INPP5K " transform="translate(867.67 203.33)"   name="SKIP"  ><rect class="Icon" transform="matrix(.98361 0 0 .95238 .4918 .47619)" width="60" height="20" fill="#fff" stroke="#000"/><text class="Text" transform="translate(30,13)"   font-size="10px"  text-anchor="middle"><tspan x="0" y="0">SKIP</tspan></text></a><g class="GroupNone" transform="translate(369.67 300.67)" color="grey" ><rect class="Icon" transform="matrix(.98734 0 0 .99281 .49367 .4964)" width="78" height="138" fill="#b4b464" fill-opacity=".1" stroke="grey" stroke-dasharray="5,3"/><a  class="GeneProduct PSEN2 " transform="translate(9,89)"   name="PSEN2"  ><rect class="Icon" transform="matrix(.98361 0 0 .95238 .4918 .47619)" width="60" height="20" fill="#fff" stroke="#000"/><text class="Text" transform="translate(30,13)"   font-size="10px"  text-anchor="middle"><tspan x="0" y="0">PSEN2</tspan></text></a><a  class="GeneProduct APH1B " transform="translate(9,29)"   name="APH1B"  ><rect class="Icon" transform="matrix(.98361 0 0 .95238 .4918 .47619)" width="60" height="20" fill="#fff" stroke="#000"/><text class="Text" transform="translate(30,13)"   font-size="10px"  text-anchor="middle"><tspan x="0" y="0">APH1B</tspan></text></a><a  class="GeneProduct " transform="translate(9,49)"   name="TNF"  ><rect class="Icon" transform="matrix(.98361 0 0 .95238 .4918 .47619)" width="60" height="20" fill="#fff" stroke="#000"/><text class="Text" transform="translate(30,13)"   font-size="10px"  text-anchor="middle"><tspan x="0" y="0">TNF</tspan></text></a><a  class="GeneProduct APH1A " transform="translate(9,9)"   name="APH1A"  ><rect class="Icon" transform="matrix(.98361 0 0 .95238 .4918 .47619)" width="60" height="20" fill="#fff" stroke="#000"/><text class="Text" transform="translate(30,13)"   font-size="10px"  text-anchor="middle"><tspan x="0" y="0">APH1A</tspan></text></a><a  class="GeneProduct NCSTN " transform="translate(9,109)"   name="NCSTN"  ><rect class="Icon" transform="matrix(.98361 0 0 .95238 .4918 .47619)" width="60" height="20" fill="#fff" stroke="#000"/><text class="Text" transform="translate(30,13)"   font-size="10px"  text-anchor="middle"><tspan x="0" y="0">NCSTN</tspan></text></a><a  class="GeneProduct PSEN1 " transform="translate(9,69)"   name="PSEN1"  ><rect class="Icon" transform="matrix(.98361 0 0 .95238 .4918 .47619)" width="60" height="20" fill="#fff" stroke="#000"/><text class="Text" transform="translate(30,13)"   font-size="10px"  text-anchor="middle"><tspan x="0" y="0">PSEN1</tspan></text></a></g><g class="GroupNone" transform="translate(807.67 237.67)" color="grey" ><rect class="Icon" transform="matrix(.98833 0 0 .98305 .49416 .49153)" width="84.667" height="58" fill="#b4b464" fill-opacity=".1" stroke="grey" stroke-dasharray="5,3"/><a  class="GeneProduct RBPJL " transform="translate(9,29)"   name="RBPSUHL"  ><rect class="Icon" transform="matrix(.98522 0 0 .95238 .49261 .47619)" width="66.667" height="20" fill="#fff" stroke="#000"/><text class="Text" transform="translate(33.333 13)"   font-size="10px"  text-anchor="middle"><tspan x="0" y="0">RBPSUHL</tspan></text></a><a  class="GeneProduct RBPJ " transform="translate(9,9)"   name="RBPJ"  ><rect class="Icon" transform="matrix(.98522 0 0 .95238 .49261 .47619)" width="66.667" height="20" fill="#fff" stroke="#000"/><text class="Text" transform="translate(33.333 13)"   font-size="10px"  text-anchor="middle"><tspan x="0" y="0">RBPJ</tspan></text></a></g><g class="GroupNone" transform="translate(404.33 144.33)" color="grey" ><rect class="Icon" transform="matrix(.98734 0 0 .98305 .49367 .49153)" width="78" height="58" fill="#b4b464" fill-opacity=".1" stroke="grey" stroke-dasharray="5,3"/><a  class="GeneProduct NUMB " transform="translate(9,9)"   name="NUMB"  ><rect class="Icon" transform="matrix(.98361 0 0 .95238 .4918 .47619)" width="60" height="20" fill="#fff" stroke="#000"/><text class="Text" transform="translate(30,13)"   font-size="10px"  text-anchor="middle"><tspan x="0" y="0">NUMB</tspan></text></a><a  class="GeneProduct NUMBL " transform="translate(9,29)"   name="NUMBL"  ><rect class="Icon" transform="matrix(.98361 0 0 .95238 .4918 .47619)" width="60" height="20" fill="#fff" stroke="#000"/><text class="Text" transform="translate(30,13)"   font-size="10px"  text-anchor="middle"><tspan x="0" y="0">NUMBL</tspan></text></a></g><g class="GroupNone" transform="translate(247.67 221)" color="grey" ><rect class="Icon" transform="matrix(.98734 0 0 .9899 .49367 .49495)" width="78" height="98" fill="#b4b464" fill-opacity=".1" stroke="grey" stroke-dasharray="5,3"/><a  class="GeneProduct NOTCH3 " transform="translate(9,49)"   name="NOTCH3"  ><rect class="Icon" transform="matrix(.98361 0 0 .95238 .4918 .47619)" width="60" height="20" fill="#fff" stroke="#000"/><text class="Text" transform="translate(30,13)"   font-size="10px"  text-anchor="middle"><tspan x="0" y="0">NOTCH3</tspan></text></a><a  class="GeneProduct NOTCH2 " transform="translate(9,29)"   name="NOTCH2"  ><rect class="Icon" transform="matrix(.98361 0 0 .95238 .4918 .47619)" width="60" height="20" fill="#fff" stroke="#000"/><text class="Text" transform="translate(30,13)"   font-size="10px"  text-anchor="middle"><tspan x="0" y="0">NOTCH2</tspan></text></a><a  class="GeneProduct NOTCH4 " transform="translate(9,69)"   name="NOTCH4"  ><rect class="Icon" transform="matrix(.98361 0 0 .95238 .4918 .47619)" width="60" height="20" fill="#fff" stroke="#000"/><text class="Text" transform="translate(30,13)"   font-size="10px"  text-anchor="middle"><tspan x="0" y="0">NOTCH4</tspan></text></a><a  class="GeneProduct NOTCH1 " transform="translate(9,9)"   name="NOTCH1"  ><rect class="Icon" transform="matrix(.98361 0 0 .95238 .4918 .47619)" width="60" height="20" fill="#fff" stroke="#000"/><text class="Text" transform="translate(30,13)"   font-size="10px"  text-anchor="middle"><tspan x="0" y="0">NOTCH1</tspan></text></a></g><g class="GroupNone" transform="translate(309,85)" color="grey" ><rect class="Icon" transform="matrix(.98734 0 0 .98734 .49367 .49367)" width="78" height="78" fill="#b4b464" fill-opacity=".1" stroke="grey" stroke-dasharray="5,3"/><a  class="GeneProduct DVL3 " transform="translate(9,49)"   name="DVL3"  ><rect class="Icon" transform="matrix(.98361 0 0 .95238 .4918 .47619)" width="60" height="20" fill="#fff" stroke="#000"/><text class="Text" transform="translate(30,13)"   font-size="10px"  text-anchor="middle"><tspan x="0" y="0">DVL3</tspan></text></a><a  class="GeneProduct DVL2 " transform="translate(9,29)"   name="DVL2"  ><rect class="Icon" transform="matrix(.98361 0 0 .95238 .4918 .47619)" width="60" height="20" fill="#fff" stroke="#000"/><text class="Text" transform="translate(30,13)"   font-size="10px"  text-anchor="middle"><tspan x="0" y="0">DVL2</tspan></text></a><a  class="GeneProduct DVL1 " transform="translate(9,9)"   name="DVL1"  ><rect class="Icon" transform="matrix(.98361 0 0 .95238 .4918 .47619)" width="60" height="20" fill="#fff" stroke="#000"/><text class="Text" transform="translate(30,13)"   font-size="10px"  text-anchor="middle"><tspan x="0" y="0">DVL1</tspan></text></a></g><g class="GroupNone" transform="translate(63.514 208.33)" color="grey" ><rect class="Icon" transform="matrix(.98734 0 0 .98734 .49367 .49367)" width="78" height="78" fill="#b4b464" fill-opacity=".1" stroke="grey" stroke-dasharray="5,3"/><a  class="GeneProduct DLL3 " transform="translate(9,29)"   name="DLL3"  ><rect class="Icon" transform="matrix(.98361 0 0 .95238 .4918 .47619)" width="60" height="20" fill="#fff" stroke="#000"/><text class="Text" transform="translate(30,13)"   font-size="10px"  text-anchor="middle"><tspan x="0" y="0">DLL3</tspan></text></a><a  class="GeneProduct DLL1 " transform="translate(9,9)"   name="DLL1"  ><rect class="Icon" transform="matrix(.98361 0 0 .95238 .4918 .47619)" width="60" height="20" fill="#fff" stroke="#000"/><text class="Text" transform="translate(30,13)"   font-size="10px"  text-anchor="middle"><tspan x="0" y="0">DLL1</tspan></text></a><a  class="GeneProduct DLL4 " transform="translate(9 49)"   name="DLL4"  ><rect class="Icon" transform="matrix(.98361 0 0 .95238 .4918 .47619)" width="60" height="20" fill="#fff" stroke="#000"/><text class="Text" transform="translate(30,13)"   font-size="10px"  text-anchor="middle"><tspan x="0" y="0">DLL4</tspan></text></a></g><g class="GroupNone" transform="translate(156.75 128.14)" color="grey" ><rect class="Icon" transform="matrix(.98734 0 0 .98734 .49367 .49367)" width="78" height="78" fill="#b4b464" fill-opacity=".1" stroke="grey" stroke-dasharray="5,3"/><a  class="GeneProduct LFNG " transform="translate(9,9)"   name="LFNG"  ><rect class="Icon" transform="matrix(.98361 0 0 .95238 .4918 .47619)" width="60" height="20" fill="#fff" stroke="#000"/><text class="Text" transform="translate(30,13)"   font-size="10px"  text-anchor="middle"><tspan x="0" y="0">LFNG</tspan></text></a><a  class="GeneProduct RFNG " transform="translate(9,49)"   name="RFNG"  ><rect class="Icon" transform="matrix(.98361 0 0 .95238 .4918 .47619)" width="60" height="20" fill="#fff" stroke="#000"/><text class="Text" transform="translate(30,13)"   font-size="10px"  text-anchor="middle"><tspan x="0" y="0">RFNG</tspan></text></a><a  class="GeneProduct MFNG " transform="translate(9,29)"   name="MFNG"  ><rect class="Icon" transform="matrix(.98361 0 0 .95238 .4918 .47619)" width="60" height="20" fill="#fff" stroke="#000"/><text class="Text" transform="translate(30,13)"   font-size="10px"  text-anchor="middle"><tspan x="0" y="0">MFNG</tspan></text></a></g><g class="GroupNone" transform="translate(497.67 117.67)" color="grey" ><rect class="Icon" transform="matrix(.98734 0 0 .9916 .49367 .4958)" width="78" height="118" fill="#b4b464" fill-opacity=".1" stroke="grey" stroke-dasharray="5,3"/><a  class="GeneProduct DTX3 " transform="translate(9,49)"   name="DTX3"  ><rect class="Icon" transform="matrix(.98361 0 0 .95238 .4918 .47619)" width="60" height="20" fill="#fff" stroke="#000"/><text class="Text" transform="translate(30,13)"   font-size="10px"  text-anchor="middle"><tspan x="0" y="0">DTX3</tspan></text></a><a  class="GeneProduct DTX2 " transform="translate(9,29)"   name="DTX2"  ><rect class="Icon" transform="matrix(.98361 0 0 .95238 .4918 .47619)" width="60" height="20" fill="#fff" stroke="#000"/><text class="Text" transform="translate(30,13)"   font-size="10px"  text-anchor="middle"><tspan x="0" y="0">DTX2</tspan></text></a><a  class="GeneProduct DTX3L " transform="translate(9,89)"   name="DTX3L"  ><rect class="Icon" transform="matrix(.98361 0 0 .95238 .4918 .47619)" width="60" height="20" fill="#fff" stroke="#000"/><text class="Text" transform="translate(30,13)"   font-size="10px"  text-anchor="middle"><tspan x="0" y="0">DTX3L</tspan></text></a><a  class="GeneProduct DTX1 " transform="translate(9,9)"   name="DTX1"  ><rect class="Icon" transform="matrix(.98361 0 0 .95238 .4918 .47619)" width="60" height="20" fill="#fff" stroke="#000"/><text class="Text" transform="translate(30,13)"   font-size="10px"  text-anchor="middle"><tspan x="0" y="0">DTX1</tspan></text></a><a  class="GeneProduct DTX4 " transform="translate(9,69)"   name="DTX4"  ><rect class="Icon" transform="matrix(.98361 0 0 .95238 .4918 .47619)" width="60" height="20" fill="#fff" stroke="#000"/><text class="Text" transform="translate(30,13)"   font-size="10px"  text-anchor="middle"><tspan x="0" y="0">DTX4</tspan></text></a></g><g class="GroupNone" transform="translate(1065.3 181)" color="grey" ><rect class="Icon" transform="matrix(.98734 0 0 .98305 .49367 .49153)" width="78" height="58" fill="#b4b464" fill-opacity=".1" stroke="grey" stroke-dasharray="5,3"/><a  class="GeneProduct HES5 " transform="translate(9,29)"   name="HES5"  ><rect class="Icon" transform="matrix(.98361 0 0 .95238 .4918 .47619)" width="60" height="20" fill="#fff" stroke="#000"/><text class="Text" transform="translate(30,13)"   font-size="10px"  text-anchor="middle"><tspan x="0" y="0">HES5</tspan></text></a><a  class="GeneProduct HES1 " transform="translate(9,9)"   name="HES1"  ><rect class="Icon" transform="matrix(.98361 0 0 .95238 .4918 .47619)" width="60" height="20" fill="#fff" stroke="#000"/><text class="Text" transform="translate(30,13)"   font-size="10px"  text-anchor="middle"><tspan x="0" y="0">HES1</tspan></text></a></g><g class="GroupNone" transform="translate(62.514 317.67)" color="grey" ><rect class="Icon" transform="matrix(.98734 0 0 .98305 .49367 .49153)" width="78" height="58" fill="#b4b464" fill-opacity=".1" stroke="grey" stroke-dasharray="5,3"/><a  class="GeneProduct JAG2 " transform="translate(9,29)"   name="JAG2"  ><rect class="Icon" transform="matrix(.98361 0 0 .95238 .4918 .47619)" width="60" height="20" fill="#fff" stroke="#000"/><text class="Text" transform="translate(30,13)"   font-size="10px"  text-anchor="middle"><tspan x="0" y="0">JAG2</tspan></text></a><a  class="GeneProduct JAG1 " transform="translate(9,9)"   name="JAG1"  ><rect class="Icon" transform="matrix(.98361 0 0 .95238 .4918 .47619)" width="60" height="20" fill="#fff" stroke="#000"/><text class="Text" transform="translate(30,13)"   font-size="10px"  text-anchor="middle"><tspan x="0" y="0">JAG1</tspan></text></a></g><g class="GroupNone" transform="translate(740.46 78.127)" color="grey" ><rect class="Icon" transform="matrix(.98917 0 0 .9916 .49458 .4958)" width="91.333" height="118" fill="#b4b464" fill-opacity=".1" stroke="grey" stroke-dasharray="5,3"/><a  class="GeneProduct MAML1 " transform="translate(9,9)"   name="MAML1"  ><rect class="Icon" transform="matrix(.98655 0 0 .95238 .49327 .47619)" width="73.333" height="20" fill="#fff" stroke="#000"/><text class="Text" transform="translate(36.667 13)"   font-size="10px"  text-anchor="middle"><tspan x="0" y="0">MAML1</tspan></text></a><a  class="GeneProduct CREBBP " transform="translate(9 49)"   name="CREBBP"  ><rect class="Icon" transform="matrix(.98655 0 0 .95238 .49327 .47619)" width="73.333" height="20" fill="#fff" stroke="#000"/><text class="Text" transform="translate(36.667 13)"   font-size="10px"  text-anchor="middle"><tspan x="0" y="0">CREBBP</tspan></text></a><a  class="GeneProduct KAT2A " transform="translate(9 69)"   name="GCN5L2"  ><rect class="Icon" transform="matrix(.98655 0 0 .95238 .49327 .47619)" width="73.333" height="20" fill="#fff" stroke="#000"/><text class="Text" transform="translate(36.667 13)"   font-size="10px"  text-anchor="middle"><tspan x="0" y="0">GCN5L2</tspan></text></a><a  class="GeneProduct MAML3 " transform="translate(9,29)"   name="MAML3"  ><rect class="Icon" transform="matrix(.98655 0 0 .95238 .49327 .47619)" width="73.333" height="20" fill="#fff" stroke="#000"/><text class="Text" transform="translate(36.667 13)"   font-size="10px"  text-anchor="middle"><tspan x="0" y="0">MAML3</tspan></text></a><a  class="GeneProduct KAT2B " transform="translate(9 89)"   name="PCAF"  ><rect class="Icon" transform="matrix(.98655 0 0 .95238 .49327 .47619)" width="73.333" height="20" fill="#fff" stroke="#000"/><text class="Text" transform="translate(36.667 13)"   font-size="10px"  text-anchor="middle"><tspan x="0" y="0">PCAF</tspan></text></a></g><g class="GroupNone" transform="translate(755 298.33)" color="grey" ><rect class="Icon" transform="matrix(.99497 0 0 .98305 .49749 .49153)" width="198" height="58" fill="#b4b464" fill-opacity=".1" stroke="grey" stroke-dasharray="5,3"/><a  class="GeneProduct HDAC1 " transform="translate(69 9)"   name="HDAC1"  ><rect class="Icon" transform="matrix(.98361 0 0 .95238 .4918 .47619)" width="60" height="20" fill="#fff" stroke="#000"/><text class="Text" transform="translate(30,13)"   font-size="10px"  text-anchor="middle"><tspan x="0" y="0">HDAC1</tspan></text></a><a  class="GeneProduct NCOR2 " transform="translate(129 9)"   name="NCOR2"  ><rect class="Icon" transform="matrix(.98361 0 0 .95238 .4918 .47619)" width="60" height="20" fill="#fff" stroke="#000"/><text class="Text" transform="translate(30,13)"   font-size="10px"  text-anchor="middle"><tspan x="0" y="0">NCOR2</tspan></text></a><a  class="GeneProduct KCNJ5 " transform="translate(129 29)"   name="CIR"  ><rect class="Icon" transform="matrix(.98361 0 0 .95238 .4918 .47619)" width="60" height="20" fill="#fff" stroke="#000"/><text class="Text" transform="translate(30,13)"   font-size="10px"  text-anchor="middle"><tspan x="0" y="0">CIR</tspan></text></a><a  class="GeneProduct CTBP1 " transform="translate(9,9)"   name="CTBP1"  ><rect class="Icon" transform="matrix(.98361 0 0 .95238 .4918 .47619)" width="60" height="20" fill="#fff" stroke="#000"/><text class="Text" transform="translate(30,13)"   font-size="10px"  text-anchor="middle"><tspan x="0" y="0">CTBP1</tspan></text></a><a  class="GeneProduct CTBP2 " transform="translate(9,29)"   name="CTBP2"  ><rect class="Icon" transform="matrix(.98361 0 0 .95238 .4918 .47619)" width="60" height="20" fill="#fff" stroke="#000"/><text class="Text" transform="translate(30,13)"   font-size="10px"  text-anchor="middle"><tspan x="0" y="0">CTBP2</tspan></text></a><a  class="GeneProduct HDAC2 " transform="translate(69 29)"   name="HDAC2"  ><rect class="Icon" transform="matrix(.98361 0 0 .95238 .4918 .47619)" width="60" height="20" fill="#fff" stroke="#000"/><text class="Text" transform="translate(30,13)"   font-size="10px"  text-anchor="middle"><tspan x="0" y="0">HDAC2</tspan></text></a></g><text class="Text" transform="translate(5,45)" dominant-baseline="central" fill="black"  font-size="12px" font-weight="bold" overflow="visible" ><tspan x="0" y="-27">Name: Notch signaling</tspan> <tspan x="0" y="-9">License: CC BY 2.0</tspan> <tspan x="0" y="9">Last Modified: 2/22/2013</tspan> <tspan x="0" y="27">Organism: Homo sapiens</tspan></text></g></svg>
