<?xml version="1.0" encoding="UTF-8"?>
<!--
  WikiPathways page: https://www.wikipathways.org/index.php/Pathway:WP2874
  URL for this compressed file: https://github.com/eweitz/cachome/tree/main/data/wikipathways/WP2874.svg
  Source code for compression: https://github.com/eweitz/cachome/tree/main/src/wikipathways.py
-->
<svg class="Diagram" width="800" height="600" color="black" baseProfile="full" prefix="schema:http://schema.org/" preserveAspectRatio="xMidYMid" version="1.1" viewBox="0 0 902.76 985.2" vocab="http://vocabularies.wikipathways.org/wp#" xmlns="http://www.w3.org/2000/svg" xmlns:xlink="http://www.w3.org/1999/xlink"><style>svg {font-family: 'Liberation Sans', Arial, sans-serif; }</style><defs><filter id="d" x="-50%" y="-50%" width="200%" height="200%"><feComposite in="SourceGraphic" in2="SourceGraphic" result="doubleDark"/><feMorphology in="doubleDark" operator="dilate" radius="0.16666666666666666" result="in2Double"/><feMorphology in="SourceGraphic" operator="dilate" radius="3" result="inDouble"/><feComposite in="inDouble" in2="in2Double" operator="out" result="doubleResult"/></filter><filter id="b" x="0" y="0" width="902.76" height="985.2" filterUnits="userSpaceOnUse"><feColorMatrix in="SourceGraphic" values="-1   0   0 0 0                   0  -1   0 0 0                   0   0  -1 0 0                   0   0   0 1 0"/></filter><marker id="c" stroke-dasharray="99999" markerHeight="12" markerUnits="userSpaceOnUse" markerWidth="12" orient="auto" preserveAspectRatio="none" refX="12" refY="6" viewBox="0 0 12 12"><path transform="rotate(180 6 6)" d="M12 11L0 6l12-5z" fill="currentColor" stroke-width="0"/></marker><symbol id="f" overflow="visible" preserveAspectRatio="none" viewBox="0 0 50 50"><ellipse cx="25" cy="25" rx="25" ry="25" stroke="currentColor" vector-effect="non-scaling-stroke"/></symbol><symbol id="e" overflow="visible" preserveAspectRatio="none" viewBox="0 0 100 100"><path d="M0 25L25 0h50l25 25v50l-25 25H25L0 75z" stroke="currentColor" vector-effect="non-scaling-stroke"/></symbol><symbol id="a" preserveAspectRatio="none" viewBox="0 0 100 100"/></defs><g class="Viewport" color="black"  name="Name: Liver X receptor pathway Organism: Homo sapiens"><rect class="Icon" width="902.76" height="985.2" fill="#fff" stroke="#000" stroke-width="0"/><g id="g" class="Edge GraphicalLine" color="#000" ><g color="#000" fill="transparent"  filter="url(#b)" stroke="#000" stroke-dasharray="28.654970760233937, 0"><path class="EdgeBody" d="m671.93 590.64v28.655"   /></g></g><g class="Label" transform="translate(310.76 705.41)" color="#000"  name="Drug and steroid metabolism"><use class="Icon" width="80" height="20" fill="transparent"  stroke="#000" stroke-width="0" xlink:href="#a"/><text class="Text" transform="translate(40,13)"   font-size="10px"  text-anchor="middle"><tspan x="0" y="0">Drug and steroid metabolism</tspan></text></g><g class="Label" transform="translate(426.52 777.19)" color="#000"  name="Other"><use class="Icon" width="80" height="20" fill="transparent"  stroke="#000" stroke-width="0" xlink:href="#a"/><text class="Text" transform="translate(40,13)"   font-size="10px"  text-anchor="middle"><tspan x="0" y="0">Other</tspan></text></g><g class="Label" transform="translate(424.21 704.25)" color="#000"  name="Multi-drug resistance"><use class="Icon" width="80" height="20" fill="transparent"  stroke="#000" stroke-width="0" xlink:href="#a"/><text class="Text" transform="translate(40,13)"   font-size="10px"  text-anchor="middle"><tspan x="0" y="0">Multi-drug resistance</tspan></text></g><g class="Label" transform="translate(317.71 780.66)" color="#000"  name="Transcription factors"><use class="Icon" width="80" height="20" fill="transparent"  stroke="#000" stroke-width="0" xlink:href="#a"/><text class="Text" transform="translate(40,13)"   font-size="10px"  text-anchor="middle"><tspan x="0" y="0">Transcription factors</tspan></text></g><g class="Label" transform="translate(713.61 580.39)" color="#000"  name="Transcription"><use class="Icon" width="80" height="20" fill="transparent"  stroke="#000" stroke-width="0" xlink:href="#a"/><text class="Text" transform="translate(40,13)"   font-size="10px"  text-anchor="middle"><tspan x="0" y="0">Transcription</tspan></text></g><g id="h" class="DirectedInteraction" color="#000" ><g color="#000" fill="transparent"  filter="url(#b)" stroke="#000" stroke-dasharray="75.7285173534378, 5.8"><path class="EdgeBody" d="m423.57 182-7e-14 81.529"   marker-end="url(#c)" /></g></g><g id="i" class="Interaction" color="#000" ><g color="#000" fill="transparent"  filter="url(#b)" stroke="#000" stroke-dasharray="135.5336086609673, 0"><path class="EdgeBody" d="m539.58 448.53-116.01 70.075"   /></g></g><g id="j" class="DirectedInteraction" color="#000" ><g color="#000" fill="transparent"  filter="url(#b)" stroke="#000" stroke-dasharray="110.76258284223952, 5.8"><path class="EdgeBody" d="m423.57 430.15v116.56"   marker-end="url(#c)" /></g><g class="Burr Anchor" transform="translate(423.57 518.61)" ><use class="Icon" width="0" height="0" fill="#141414" stroke-width="0" xlink:href="#a"/></g></g><g id="k" class="DirectedInteraction" color="#000" ><g color="#000" fill="transparent"  filter="url(#b)" stroke="#000" stroke-dasharray="76.82641685182928, 5.8"><path class="EdgeBody" d="m423.57 283.53 7e-14 82.626"   marker-end="url(#c)" /></g></g><g class="SingleFreeNode Shape PhysicalEntity CellularComponent Cell" transform="translate(21.797 229.51)" color="#c0c0c0" ><g fill="transparent"  filter="url(#d)" stroke="#c0c0c0" stroke-width="3"><rect class="Icon" transform="matrix(.98612 0 0 .98377 5.9167 5.9026)" width="852.46" height="727.19" rx="15" ry="15"   /></g></g><a  class="GeneProduct NR1H3 " transform="translate(383.57 263.53)"   name="NR1H3"  ><rect class="Icon" transform="matrix(.98765 0 0 .95238 .49383 .47619)" width="80" height="20" fill="#fff" stroke="#000"/><text class="Text" transform="translate(40,13)"   font-size="10px"  text-anchor="middle"><tspan x="0" y="0">NR1H3</tspan></text></a><g class="SingleFreeNode Shape PhysicalEntity CellularComponent Nucleus" transform="translate(80.937 322.53)" color="#c0c0c0" ><g fill="transparent"  filter="url(#d)" stroke="#c0c0c0" stroke-width="3"><use class="Icon" transform="matrix(.98396 0 0 .98016 5.9037 5.881)" width="735.9749103942656" height="592.9474868717181"    xlink:href="#f"/></g></g><a class="ChEBI_CHEBI_86029 Metabolite  " transform="translate(383.57 162)" color="#00f"  name="LXR ligand"  ><rect class="Icon" transform="matrix(.98765 0 0 .95238 .49383 .47619)" width="80" height="20" fill="#fff" stroke="#00f"/><text class="Text" transform="translate(40 13)" fill="#00f"  font-size="10px"  text-anchor="middle"><tspan x="0" y="0">LXR ligand</tspan></text></a><g class="GroupComplex" transform="translate(371.57 366.15)" color="grey" ><use class="Icon" transform="matrix(.99048 0 0 .98462 .49524 .49231)" width="104" height="63.99999999999966" fill="#b4b464" fill-opacity=".1" stroke="grey" xlink:href="#e"/><a  class="GeneProduct NR1H3 " transform="translate(12,12)"   name="NR1H3"  ><rect class="Icon" transform="matrix(.98765 0 0 .95238 .49383 .47619)" width="80" height="20" fill="#fff" stroke="#000"/><text class="Text" transform="translate(40,13)"   font-size="10px"  text-anchor="middle"><tspan x="0" y="0">NR1H3</tspan></text></a><a class="ChEBI_CHEBI_86029 Metabolite  " transform="translate(12 32)" color="#00f"  name="Ligand"  ><rect class="Icon" transform="matrix(.98765 0 0 .95238 .49383 .47619)" width="80" height="20" fill="#fff" stroke="#00f"/><text class="Text" transform="translate(40 13)" fill="#00f"  font-size="10px"  text-anchor="middle"><tspan x="0" y="0">Ligand</tspan></text></a></g><g id="l" class="Edge GraphicalLine" color="#000" ><g color="#000" fill="transparent"  filter="url(#b)" stroke="#000" stroke-dasharray="328.28583461932595, 0"><path class="EdgeBody" d="m409.89 619.11 328.28 0.81428"   /></g></g><g id="m" class="Edge GraphicalLine DirectedInteraction" color="#000" ><g color="#000" fill="transparent"  filter="url(#b)" stroke="#000" stroke-dasharray="35.61723220801991, 5.8"><path class="EdgeBody" d="m672.2 590.45 41.417-0.056983"   marker-end="url(#c)" /></g></g><g id="n" class="Edge GraphicalLine" color="#000" ><g color="#000" fill="transparent"  filter="url(#b)" stroke="#000" stroke-dasharray="326.1894281019472, 0"><path class="EdgeBody" d="m411.99 633.83 326.18 2.2344"   /></g></g><g class="Label" transform="translate(689.03 620.33)" color="#000"  name="Genes"><rect class="Icon" transform="matrix(.98018 0 0 .94058 .49009 .47029)" width="49.466" height="15.829" fill="#fff" stroke="#000"/><text class="Text" transform="translate(24.733 10.915)"   font-size="10px"  text-anchor="middle"><tspan x="0" y="0">Genes</tspan></text></g><g class="Label" transform="translate(584.28 620.21)" color="#000"  name="TATA box"><rect class="Icon" transform="matrix(.98018 0 0 .94059 .49009 .47029)" width="49.466" height="15.831" fill="#fff" stroke="#000"/><text class="Text" transform="translate(24.733 10.916)"   font-size="10px"  text-anchor="middle"><tspan x="0" y="0">TATA box</tspan></text></g><g class="GroupComplex" transform="translate(371.57 546.71)" color="grey" ><use class="Icon" transform="matrix(.99048 0 0 .99008 .49524 .49504)" width="104" height="99.83113456464366" fill="#b4b464" fill-opacity=".1" stroke="grey" xlink:href="#e"/><a  class="GeneProduct NR1H3 " transform="translate(12,12)"   name="NR1H3"  ><rect class="Icon" transform="matrix(.98765 0 0 .95238 .49383 .47619)" width="80" height="20" fill="#fff" stroke="#000"/><text class="Text" transform="translate(40,13)"   font-size="10px"  text-anchor="middle"><tspan x="0" y="0">NR1H3</tspan></text></a><a class="ChEBI_CHEBI_86029 Metabolite  " transform="translate(12 32)" color="#00f"  name="Ligand"  ><rect class="Icon" transform="matrix(.98765 0 0 .95238 .49383 .47619)" width="80" height="20" fill="#fff" stroke="#00f"/><text class="Text" transform="translate(40 13)" fill="#00f"  font-size="10px"  text-anchor="middle"><tspan x="0" y="0">Ligand</tspan></text></a><g class="Label" transform="translate(27.267 72)" color="#000"  name="LXRE"><rect class="Icon" transform="matrix(.98018 0 0 .94059 .49009 .47029)" width="49.466" height="15.831" fill="#fff" stroke="#000"/><text class="Text" transform="translate(24.733 10.916)"   font-size="10px"  text-anchor="middle"><tspan x="0" y="0">LXRE</tspan></text></g><a  class="GeneProduct RXRA " transform="translate(12 52)"   name="RXRA"  ><rect class="Icon" transform="matrix(.98765 0 0 .95238 .49383 .47619)" width="80" height="20" fill="#fff" stroke="#000"/><text class="Text" transform="translate(40,13)"   font-size="10px"  text-anchor="middle"><tspan x="0" y="0">RXRA</tspan></text></a></g><a  class="GeneProduct RXRA " transform="translate(499.58 428.53)"   name="RXRA"  ><rect class="Icon" transform="matrix(.98765 0 0 .95238 .49383 .47619)" width="80" height="20" fill="#fff" stroke="#000"/><text class="Text" transform="translate(40,13)"   font-size="10px"  text-anchor="middle"><tspan x="0" y="0">RXRA</tspan></text></a><g class="GroupGroup" transform="translate(420.28 724.51)" color="grey" ><use class="Icon" width="96" height="56.000000000000455" fill="transparent"  stroke="grey" stroke-dasharray="5,3" stroke-width="0" xlink:href="#a"/><a  class="GeneProduct ABCG8 " transform="translate(8 28)"   name="ABCG8"  ><rect class="Icon" transform="matrix(.98765 0 0 .95238 .49383 .47619)" width="80" height="20" fill="#fff" stroke="#000"/><text class="Text" transform="translate(40,13)"   font-size="10px"  text-anchor="middle"><tspan x="0" y="0">ABCG8</tspan></text></a><a  class="GeneProduct ABCG5 " transform="translate(8,8)"   name="ABCG5"  ><rect class="Icon" transform="matrix(.98765 0 0 .95238 .49383 .47619)" width="80" height="20" fill="#fff" stroke="#000"/><text class="Text" transform="translate(40,13)"   font-size="10px"  text-anchor="middle"><tspan x="0" y="0">ABCG5</tspan></text></a></g><g class="GroupGroup" transform="translate(304.54 723.01)" color="grey" ><use class="Icon" width="96.00000000000091" height="56.000000000000114" fill="transparent"  stroke="grey" stroke-dasharray="5,3" stroke-width="0" xlink:href="#a"/><a  class="GeneProduct CYP3A4 " transform="translate(8 28)"   name="CYP3A4"  ><rect class="Icon" transform="matrix(.98765 0 0 .95238 .49383 .47619)" width="80" height="20" fill="#fff" stroke="#000"/><text class="Text" transform="translate(40,13)"   font-size="10px"  text-anchor="middle"><tspan x="0" y="0">CYP3A4</tspan></text></a><a  class="GeneProduct CYP2B6 " transform="translate(8,8)"   name="CYP2B6"  ><rect class="Icon" transform="matrix(.98765 0 0 .95238 .49383 .47619)" width="80" height="20" fill="#fff" stroke="#000"/><text class="Text" transform="translate(40,13)"   font-size="10px"  text-anchor="middle"><tspan x="0" y="0">CYP2B6</tspan></text></a></g><g class="GroupGroup" transform="translate(420.7 793.13)" color="grey" ><use class="Icon" width="96" height="76" fill="transparent"  stroke="grey" stroke-dasharray="5,3" stroke-width="0" xlink:href="#a"/><a  class="GeneProduct CYP7A1 " transform="translate(8,28)"   name="CYP7A1"  ><rect class="Icon" transform="matrix(.98765 0 0 .95238 .49383 .47619)" width="80" height="20" fill="#fff" stroke="#000"/><text class="Text" transform="translate(40,13)"   font-size="10px"  text-anchor="middle"><tspan x="0" y="0">CYP7A1</tspan></text></a><a  class="GeneProduct FASN " transform="translate(8,8)"   name="FASN"  ><rect class="Icon" transform="matrix(.98765 0 0 .95238 .49383 .47619)" width="80" height="20" fill="#fff" stroke="#000"/><text class="Text" transform="translate(40,13)"   font-size="10px"  text-anchor="middle"><tspan x="0" y="0">FASN</tspan></text></a><a  class="GeneProduct SCD " transform="translate(8,48)"   name="SCD"  ><rect class="Icon" transform="matrix(.98765 0 0 .95238 .49383 .47619)" width="80" height="20" fill="#fff" stroke="#000"/><text class="Text" transform="translate(40,13)"   font-size="10px"  text-anchor="middle"><tspan x="0" y="0">SCD</tspan></text></a></g><g class="GroupGroup" transform="translate(305.53 797.7)" color="grey" ><use class="Icon" width="96" height="36" fill="transparent"  stroke="grey" stroke-dasharray="5,3" stroke-width="0" xlink:href="#a"/><a  class="GeneProduct SREBF1 " transform="translate(8,8)"   name="SREBF1"  ><rect class="Icon" transform="matrix(.98765 0 0 .95238 .49383 .47619)" width="80" height="20" fill="#fff" stroke="#000"/><text class="Text" transform="translate(40,13)"   font-size="10px"  text-anchor="middle"><tspan x="0" y="0">SREBF1</tspan></text></a></g><g class="Label" transform="translate(355 663.44)" color="#666666"  name="LXR target genes"><use class="Icon" width="117.25452812202093" height="24.52670855758766" fill="transparent"  stroke="#666666" stroke-width="0" xlink:href="#a"/><text class="Text" transform="translate(58.627 16.263)" fill="#666666"  font-size="12px" font-weight="bold"  text-anchor="middle"><tspan x="0" y="0">LXR target genes</tspan></text></g><text class="Text" transform="translate(5,27)" dominant-baseline="central" fill="black"  font-size="12px" font-weight="bold" overflow="visible" ><tspan x="0" y="-9">Name: Liver X receptor pathway</tspan> <tspan x="0" y="9">Organism: Homo sapiens</tspan></text></g></svg>
