<?xml version="1.0" encoding="UTF-8"?>
<!--
  WikiPathways page: https://www.wikipathways.org/index.php/Pathway:WP2814
  URL for this compressed file: https://github.com/eweitz/cachome/tree/main/data/wikipathways/WP2814.svg
  Source code for compression: https://github.com/eweitz/cachome/tree/main/src/wikipathways.py
-->
<svg class="Diagram" width="800" height="600" color="black" baseProfile="full" prefix="schema:http://schema.org/" preserveAspectRatio="xMidYMid" version="1.1" viewBox="0 0 752.5 530" vocab="http://vocabularies.wikipathways.org/wp#" xmlns="http://www.w3.org/2000/svg" xmlns:xlink="http://www.w3.org/1999/xlink"><style>svg {font-family: 'Liberation Sans', Arial, sans-serif; }</style><defs><filter id="c" x="-50%" y="-50%" width="200%" height="200%"><feComposite in="SourceGraphic" in2="SourceGraphic" result="doubleDark"/><feMorphology in="doubleDark" operator="dilate" radius="0.5" result="in2Double"/><feMorphology in="SourceGraphic" operator="dilate" radius="1" result="inDouble"/><feComposite in="inDouble" in2="in2Double" operator="out" result="doubleResult"/></filter><filter id="a" x="0" y="0" width="752.5" height="530" filterUnits="userSpaceOnUse"><feColorMatrix in="SourceGraphic" values="-1   0   0 0 0                   0  -1   0 0 0                   0   0  -1 0 0                   0   0   0 1 0"/></filter><filter id="d" x="0" y="0" width="752.5" height="530" filterUnits="userSpaceOnUse"><feColorMatrix in="SourceGraphic" values="-1   0   0 0 0.6                   0  -1   0 0 0.6                   0   0  -1 0 0.6                   0   0   0 1 0"/></filter><marker id="b" stroke-dasharray="99999" markerHeight="12" markerUnits="userSpaceOnUse" markerWidth="12" orient="auto" preserveAspectRatio="none" refX="12" refY="6" viewBox="0 0 12 12"><path transform="rotate(180 6 6)" d="M12 11L0 6l12-5z" fill="currentColor" stroke-width="0"/></marker></defs><g class="Viewport" color="black"  name="Name: Mammary gland development pathway - Puberty (Stage 2 of 4) Organism: Homo sapiens"><rect class="Icon" width="752.5" height="530" fill="#fff" stroke="#000" stroke-width="0"/><g id="e" class="DirectedInteraction" color="#000" ><g color="#000" fill="transparent"  filter="url(#a)" stroke="#000" stroke-dasharray="50.2, 5.8"><path class="EdgeBody" d="m531.5 70h56"   marker-end="url(#b)" /></g></g><g id="f" class="Edge GraphicalLine" color="#000" ><g color="#000" fill="transparent"  filter="url(#a)" stroke="#000" stroke-dasharray="400, 0"><g   filter="url(#c)" stroke="inherit" ><path class="EdgeBody" d="m136 100v400"   /></g></g></g><g id="g" class="DirectedInteraction" color="#000" ><g color="#000" fill="transparent"  filter="url(#a)" stroke="#000" stroke-dasharray="60.8683282944457, 5.8"><path class="EdgeBody" d="m619.62 424.84-47.124 47.159"   marker-end="url(#b)" /></g></g><g id="h" class="Edge GraphicalLine" color="#999" ><g color="#999" fill="transparent"  filter="url(#d)" stroke="#000" stroke-dasharray="5.04, 3.02, 5.04, 3.02, 5.04, 3.02, 5.04, 3.02, 5.04, 3.02, 5.04, 3.02, 5.04, 3.02, 5.04, 3.02, 5.04, 3.02, 5.04, 3.02, 5.04, 3.02, 5.04, 3.02, 5.04, 3.02, 5.04, 3.02, 5.04, 3.02, 5.04, 3.02, 5.04, 3.02, 5.04, 3.02, 5.04, 3.02, 5.04, 3.02, 5.04, 3.02, 5.04, 3.02, 5.04, 3.02, 5.04, 3.02, 5.04, 3.02, 5.04, 3.02, 5.04, 3.02, 5.04, 3.02, 5.04, 3.02, 5.04, 3.02, 5.04, 3.02, 5.04, 3.02, 5.04, 3.02, 5.04, 3.02, 5.04, 3.02, 5.04, 3.02, 5.04, 3.02, 5.04, 3.02, 5.04, 3.02, 5.04, 3.02, 5.04, 3.02, 5.04, 3.02, 5.04, 3.02, 5.04, 3.02, 5.04, 3.02, 5.04, 3.02, 5.04, 3.02, 5.04, 3.02, 5.04, 3.02, 5.04, 3.02, 0, 0" stroke-width="3"><path class="EdgeBody" d="m350 100v400"   /></g></g><g id="i" class="DirectedInteraction" color="#000" ><g color="#000" fill="transparent"  filter="url(#a)" stroke="#000" stroke-dasharray="5.15, 3.09, 5.15, 3.09, 5.15, 3.09, 5.15, 3.09, 5.15, 3.09, 5.15, 3.09, 5.15, 3.09, 5.15, 3.09, 5.15, 3.09, 5.15, 3.09, 5.15, 3.09, 5.15, 3.09, 5.15, 3.09, 5.15, 5.8"><path class="EdgeBody" d="m422.5 220 105-54"   marker-end="url(#b)" /></g></g><g id="j" class="Edge GraphicalLine" color="#000" ><g color="#000" fill="transparent"  filter="url(#a)" stroke="#000" stroke-dasharray="400, 0"><g   filter="url(#c)" stroke="inherit" ><path class="EdgeBody" d="m100 100v400"   /></g></g></g><g id="k" class="DirectedInteraction" color="#000" ><g color="#000" fill="transparent"  filter="url(#a)" stroke="#000" stroke-dasharray="32.2, 5.8"><path class="EdgeBody" d="m140.5 350h38"   marker-end="url(#b)" /></g></g><g id="l" class="DirectedInteraction" color="#000" ><g color="#000" fill="transparent"  filter="url(#a)" stroke="#000" stroke-dasharray="12.261994185589696, 5.8"><path class="EdgeBody" d="m677.5 418.59-18.062-5e-14"   marker-end="url(#b)" /></g></g><g id="m" class="DirectedInteraction" color="#000" ><g color="#000" fill="transparent"  filter="url(#a)" stroke="#000" stroke-dasharray="41.323831224954645, 5.8"><path class="EdgeBody" d="m619.62 418.59-47.124 5e-14"   marker-end="url(#b)" /></g></g><g id="n" class="DirectedInteraction" color="#000" ><g color="#000" fill="transparent"  filter="url(#a)" stroke="#000" stroke-dasharray="23.674935177182032, 5.8"><path class="EdgeBody" d="m422.5 418.59 29.475-5e-14"   marker-end="url(#b)" /></g></g><g id="o" class="DirectedInteraction" color="#000" ><g color="#000" fill="transparent"  filter="url(#a)" stroke="#000" stroke-dasharray="30.2, 5.8"><path class="EdgeBody" d="m59.5 350h36"   marker-end="url(#b)" /></g></g><g id="p" class="DirectedInteraction" color="#000" ><g color="#000" fill="transparent"  filter="url(#a)" stroke="#000" stroke-dasharray="54.30058012742441, 5.8"><path class="EdgeBody" d="m491.79 412.34 35.711-48.341"   marker-end="url(#b)" /></g></g><g id="q" class="DirectedInteraction" color="#000" ><g color="#000" fill="transparent"  filter="url(#a)" stroke="#000" stroke-dasharray="5.3, 3.18, 5.3, 3.18, 5.3, 3.18, 5.3, 3.18, 5.3, 3.18, 5.3, 3.18, 5.3, 3.18, 5.3, 3.18, 5.3, 3.18, 5.3, 3.18, 5.3, 3.18, 5.3, 3.18, 5.3, 3.18, 5.3, 3.18, 5.3, 3.18, 5.3, 5.8"><path class="EdgeBody" d="m422.5 220 105 90"   marker-end="url(#b)" /></g></g><g id="r" class="DirectedInteraction" color="#000" ><g color="#000" fill="transparent"  filter="url(#a)" stroke="#000" stroke-dasharray="50.2, 5.8"><path class="EdgeBody" d="m149.5 70h56"   marker-end="url(#b)" /></g></g><g id="s" class="DirectedInteraction" color="#000" ><g color="#000" fill="transparent"  filter="url(#a)" stroke="#000" stroke-dasharray="5.42, 3.25, 5.42, 3.25, 5.42, 3.25, 5.42, 3.25, 5.42, 3.25, 5.42, 3.25, 5.42, 3.25, 5.42, 3.25, 5.42, 3.25, 5.42, 3.25, 5.42, 3.25, 5.42, 5.8"><path class="EdgeBody" d="m422.5 220 105-18"   marker-end="url(#b)" /></g></g><g id="t" class="DirectedInteraction" color="#000" ><g color="#000" fill="transparent"  filter="url(#a)" stroke="#000" stroke-dasharray="5.15, 3.09, 5.15, 3.09, 5.15, 3.09, 5.15, 3.09, 5.15, 3.09, 5.15, 3.09, 5.15, 3.09, 5.15, 3.09, 5.15, 3.09, 5.15, 3.09, 5.15, 3.09, 5.15, 3.09, 5.15, 3.09, 5.15, 5.8"><path class="EdgeBody" d="m422.5 220 105 54"   marker-end="url(#b)" /></g></g><g id="u" class="DirectedInteraction" color="#000" ><g color="#000" fill="transparent"  filter="url(#a)" stroke="#000" stroke-dasharray="29.910890233362306, 5.8"><path class="EdgeBody" d="m491.79 418.59 35.711 5e-14"   marker-end="url(#b)" /></g></g><g id="v" class="DirectedInteraction" color="#000" ><g color="#000" fill="transparent"  filter="url(#a)" stroke="#000" stroke-dasharray="5.42, 3.25, 5.42, 3.25, 5.42, 3.25, 5.42, 3.25, 5.42, 3.25, 5.42, 3.25, 5.42, 3.25, 5.42, 3.25, 5.42, 3.25, 5.42, 3.25, 5.42, 3.25, 5.42, 5.8"><path class="EdgeBody" d="m422.5 220 105 18"   marker-end="url(#b)" /></g></g><g id="w" class="DirectedInteraction" color="#000" ><g color="#000" fill="transparent"  filter="url(#a)" stroke="#000" stroke-dasharray="5.3, 3.18, 5.3, 3.18, 5.3, 3.18, 5.3, 3.18, 5.3, 3.18, 5.3, 3.18, 5.3, 3.18, 5.3, 3.18, 5.3, 3.18, 5.3, 3.18, 5.3, 3.18, 5.3, 3.18, 5.3, 3.18, 5.3, 3.18, 5.3, 3.18, 5.3, 5.8"><path class="EdgeBody" d="m422.5 220 105-90"   marker-end="url(#b)" /></g></g><g id="x" class="DirectedInteraction" color="#000" ><g color="#000" fill="transparent"  filter="url(#a)" stroke="#000" stroke-dasharray="50.2, 5.8"><path class="EdgeBody" d="m340.5 70h56"   marker-end="url(#b)" /></g></g><g id="y" class="DirectedInteraction" color="#000" ><g color="#000" fill="transparent"  filter="url(#a)" stroke="#000" stroke-dasharray="61.70901806212058, 5.8"><path class="EdgeBody" d="m619.62 412.34-47.124-48.341"   marker-end="url(#b)" /></g></g><g id="z" class="DirectedInteraction" color="#000" ><g color="#000" fill="transparent"  filter="url(#a)" stroke="#000" stroke-dasharray="53.35469727348142, 5.8"><path class="EdgeBody" d="m491.79 424.84 35.711 47.159"   marker-end="url(#b)" /></g></g><g class="SingleFreeNode Shape" transform="translate(587.5,58.75)" color="#000"  name="Involution"><rect class="Icon" transform="matrix(.99265 0 0 .95745 .49632 .47872)" width="135" height="22.5" rx="15" ry="15" fill="transparent"  stroke="#000"/><text class="Text" transform="translate(67.5,14.25)"   font-size="10px"  text-anchor="middle"><tspan x="0" y="0">Involution</tspan></text></g><g class="SingleFreeNode Shape" transform="translate(14.5,58.75)" color="#000"  name="Embryonic development"><rect class="Icon" transform="matrix(.99265 0 0 .95745 .49632 .47872)" width="135" height="22.5" rx="15" ry="15" fill="transparent"  stroke="#000"/><text class="Text" transform="translate(67.5,14.25)"   font-size="10px"  text-anchor="middle"><tspan x="0" y="0">Embryonic development</tspan></text></g><g class="SingleFreeNode Shape" transform="translate(178.5,335)" color="#000"  name="Estrogen signaling pathway"><rect class="Icon" transform="matrix(.99265 0 0 .96774 .49632 .48387)" width="135" height="30" rx="15" ry="15" fill="transparent"  stroke="#000"/><text class="Text" transform="translate(67.5,18)"   font-size="10px"  text-anchor="middle"><tspan x="0" y="0">Estrogen signaling pathway</tspan></text></g><g class="SingleFreeNode Shape" transform="translate(205.5,58.75)" color="#f00"  name="Puberty"><rect class="Icon" transform="matrix(.99265 0 0 .95745 .49632 .47872)" width="135" height="22.5" fill="transparent"  stroke="#f00"/><text class="Text" transform="translate(67.5,14.25)" fill="#f00"  font-size="10px" stroke="black" stroke-width="0" text-anchor="middle"><tspan x="0" y="0">Puberty</tspan></text></g><g class="SingleFreeNode Shape" transform="translate(396.5,58.75)" color="#000"  name="Pregnancy and lactation"><rect class="Icon" transform="matrix(.99265 0 0 .95745 .49632 .47872)" width="135" height="22.5" rx="15" ry="15" fill="transparent"  stroke="#000"/><text class="Text" transform="translate(67.5,14.25)"   font-size="10px"  text-anchor="middle"><tspan x="0" y="0">Pregnancy and lactation</tspan></text></g><g class="SingleFreeNode Shape" transform="translate(542.5,12)" color="#f00"  name="MAMMARY GLAND DEVELOPMENT PATHWAY"><rect class="Icon" transform="matrix(.99448 0 0 .97297 .49724 .48649)" width="180" height="36" fill="transparent"  stroke="#f00"/><text class="Text" transform="translate(90,21)" fill="#f00"  font-size="10px" stroke="black" stroke-width="0" text-anchor="middle"><tspan x="0" y="-5.5">MAMMARY GLAND DEVELOPMENT</tspan> <tspan x="0" y="5.5">PATHWAY</tspan></text></g><a  class="GeneProduct PGR " transform="translate(527.5,355)"   name="PGR"  ><rect class="Icon" transform="matrix(.97826 0 0 .94737 .48913 .47368)" width="45" height="18" fill="#fff" stroke="#000"/><text class="Text" transform="translate(22.5,12)"   font-size="10px"  text-anchor="middle"><tspan x="0" y="0">PGR</tspan></text></a><g class="GeneProduct" transform="translate(377.5,211)" color="#000"  name="AP1"><rect class="Icon" transform="matrix(.97826 0 0 .94737 .48913 .47368)" width="45" height="18" fill="#fff" stroke="#000"/><text class="Text" transform="translate(22.5,12)"   font-size="10px"  text-anchor="middle"><tspan x="0" y="0">AP1</tspan></text></g><a  class="GeneProduct EGF " transform="translate(14.5,341)"   name="EGF"  ><rect class="Icon" transform="matrix(.97826 0 0 .94737 .48913 .47368)" width="45" height="18" fill="#fff" stroke="#000"/><text class="Text" transform="translate(22.5,12)"   font-size="10px"  text-anchor="middle"><tspan x="0" y="0">EGF</tspan></text></a><a  class="GeneProduct ESR1 " transform="translate(377.5 409.59)"   name="ESR1"  ><rect class="Icon" transform="matrix(.97826 0 0 .94737 .48913 .47368)" width="45" height="18" fill="#fff" stroke="#000"/><text class="Text" transform="translate(22.5,12)"   font-size="10px"  text-anchor="middle"><tspan x="0" y="0">ESR1</tspan></text></a><a  class="GeneProduct STAT5A " transform="translate(527.5 409.59)"   name="STAT5A"  ><rect class="Icon" transform="matrix(.97826 0 0 .94737 .48913 .47368)" width="45" height="18" fill="#fff" stroke="#000"/><text class="Text" transform="translate(22.5,12)"   font-size="10px"  text-anchor="middle"><tspan x="0" y="0">STAT5A</tspan></text></a><a  class="GeneProduct ERBB2 " transform="translate(95.5,341)"   name="ERBB2"  ><rect class="Icon" transform="matrix(.97826 0 0 .94737 .48913 .47368)" width="45" height="18" fill="#fff" stroke="#000"/><text class="Text" transform="translate(22.5,12)"   font-size="10px"  text-anchor="middle"><tspan x="0" y="0">ERBB2</tspan></text></a><a  class="GeneProduct FOSL1 " transform="translate(527.5,121)"   name="FOSL1"  ><rect class="Icon" transform="matrix(.97826 0 0 .94737 .48913 .47368)" width="45" height="18" fill="#fff" stroke="#000"/><text class="Text" transform="translate(22.5,12)"   font-size="10px"  text-anchor="middle"><tspan x="0" y="0">FOSL1</tspan></text></a><a  class="GeneProduct AREG " transform="translate(527.5,463)"   name="AREG"  ><rect class="Icon" transform="matrix(.97826 0 0 .94737 .48913 .47368)" width="45" height="18" fill="#fff" stroke="#000"/><text class="Text" transform="translate(22.5,12)"   font-size="10px"  text-anchor="middle"><tspan x="0" y="0">AREG</tspan></text></a><a  class="GeneProduct FN1 " transform="translate(527.5,265)"   name="FN1"  ><rect class="Icon" transform="matrix(.97826 0 0 .94737 .48913 .47368)" width="45" height="18" fill="#fff" stroke="#000"/><text class="Text" transform="translate(22.5,12)"   font-size="10px"  text-anchor="middle"><tspan x="0" y="0">FN1</tspan></text></a><a  class="GeneProduct VIM " transform="translate(527.5,229)"   name="VIM"  ><rect class="Icon" transform="matrix(.97826 0 0 .94737 .48913 .47368)" width="45" height="18" fill="#fff" stroke="#000"/><text class="Text" transform="translate(22.5,12)"   font-size="10px"  text-anchor="middle"><tspan x="0" y="0">VIM</tspan></text></a><a  class="GeneProduct NRIP1 " transform="translate(677.5 409.59)"   name="NRIP1"  ><rect class="Icon" transform="matrix(.97826 0 0 .94737 .48913 .47368)" width="45" height="18" fill="#fff" stroke="#000"/><text class="Text" transform="translate(22.5,12)"   font-size="10px"  text-anchor="middle"><tspan x="0" y="0">NRIP1</tspan></text></a><a  class="GeneProduct MYC " transform="translate(527.5,157)"   name="MYC"  ><rect class="Icon" transform="matrix(.97826 0 0 .94737 .48913 .47368)" width="45" height="18" fill="#fff" stroke="#000"/><text class="Text" transform="translate(22.5,12)"   font-size="10px"  text-anchor="middle"><tspan x="0" y="0">MYC</tspan></text></a><a  class="GeneProduct TIMP1 " transform="translate(527.5,301)"   name="TIMP1"  ><rect class="Icon" transform="matrix(.97826 0 0 .94737 .48913 .47368)" width="45" height="18" fill="#fff" stroke="#000"/><text class="Text" transform="translate(22.5,12)"   font-size="10px"  text-anchor="middle"><tspan x="0" y="0">TIMP1</tspan></text></a><a  class="GeneProduct CCND1 " transform="translate(527.5,193)"   name="CCND1"  ><rect class="Icon" transform="matrix(.97826 0 0 .94737 .48913 .47368)" width="45" height="18" fill="#fff" stroke="#000"/><text class="Text" transform="translate(22.5,12)"   font-size="10px"  text-anchor="middle"><tspan x="0" y="0">CCND1</tspan></text></a><a  class="ChEBI_CHEBI_16991 Metabolite  " transform="translate(451.97 406.09)"   name="DNA"  ><rect class="Icon" transform="matrix(.9755 0 0 .96154 .48775 .48077)" width="39.814" height="25" fill="#fff" stroke="#000"/><text class="Text" transform="translate(19.907 16.5)"   font-size="12px"  text-anchor="middle"><tspan x="0" y="0">DNA</tspan></text></a><a  class="ChEBI_CHEBI_16991 Metabolite  " transform="translate(619.62 406.09)"   name="DNA"  ><rect class="Icon" transform="matrix(.9755 0 0 .96154 .48775 .48077)" width="39.814" height="25" fill="#fff" stroke="#000"/><text class="Text" transform="translate(19.907 16.5)"   font-size="12px"  text-anchor="middle"><tspan x="0" y="0">DNA</tspan></text></a><text class="Text" transform="translate(5,27)" dominant-baseline="central" fill="black"  font-size="12px" font-weight="bold" overflow="visible" ><tspan x="0" y="-9">Name: Mammary gland development pathway - Puberty (Stage 2 of 4)</tspan> <tspan x="0" y="9">Organism: Homo sapiens</tspan></text></g></svg>
