<?xml version="1.0" encoding="UTF-8"?>
<!--
  WikiPathways page: https://www.wikipathways.org/index.php/Pathway:WP2839
  URL for this compressed file: https://github.com/eweitz/cachome/tree/main/data/wikipathways/WP2839.svg
  Source code for compression: https://github.com/eweitz/cachome/tree/main/src/wikipathways.py
-->
<svg class="Diagram" width="800" height="600" color="black" baseProfile="full" prefix="schema:http://schema.org/" preserveAspectRatio="xMidYMid" version="1.1" viewBox="0 0 1257.1 818.6" vocab="http://vocabularies.wikipathways.org/wp#" xmlns="http://www.w3.org/2000/svg" xmlns:xlink="http://www.w3.org/1999/xlink"><style>svg {font-family: 'Liberation Sans', Arial, sans-serif; }</style><defs><filter id="g" x="-50%" y="-50%" width="200%" height="200%"><feMorphology in="SourceGraphic" operator="dilate" radius="3" result="in2Double"/><feMorphology in="SourceGraphic" radius="3" result="inDouble"/><feComposite in="inDouble" in2="in2Double" operator="atop" result="doubleResult"/></filter><filter id="h" x="-50%" y="-50%" width="200%" height="200%"><feMorphology in="SourceGraphic" operator="dilate" radius="1" result="in2Double"/><feMorphology in="SourceGraphic" radius="1" result="inDouble"/><feComposite in="inDouble" in2="in2Double" operator="atop" result="doubleResult"/></filter><filter id="a" x="0" y="0" width="1257.1" height="818.6" filterUnits="userSpaceOnUse"><feColorMatrix in="SourceGraphic" values="-1   0   0 0 0                   0  -1   0 0 0                   0   0  -1 0 0                   0   0   0 1 0"/></filter><marker id="b" stroke-dasharray="99999" markerHeight="12" markerUnits="userSpaceOnUse" markerWidth="12" orient="auto" preserveAspectRatio="none" refX="12" refY="6" viewBox="0 0 12 12"><path transform="rotate(180 6 6)" d="M12 11L0 6l12-5z" fill="currentColor" stroke-width="0"/></marker><marker id="e" stroke-dasharray="99999" markerHeight="12" markerUnits="userSpaceOnUse" markerWidth="12" orient="auto" preserveAspectRatio="none" refX="12" refY="6" viewBox="0 0 12 12"><path transform="rotate(180 6 6)" d="M12 12L0 6l12-6-7 6z" fill="currentColor" stroke-width="0"/></marker><marker id="d" stroke-dasharray="99999" markerHeight="20" markerUnits="userSpaceOnUse" markerWidth="10" orient="auto" preserveAspectRatio="none" refX="10" refY="10" viewBox="0 0 10 20"><path d="m3 0v20" fill="currentColor" stroke="currentColor"/></marker><symbol id="c" overflow="visible" preserveAspectRatio="none" viewBox="0 0 50 50"><ellipse cx="25" cy="25" rx="25" ry="25" stroke="currentColor" vector-effect="non-scaling-stroke"/></symbol><symbol id="f" preserveAspectRatio="none" viewBox="0 0 100 100"/></defs><g class="Viewport" color="black"  name="Name: Hair follicle development: organogenesis - part 2 of 3 Organism: Homo sapiens"><rect class="Icon" width="1257.1" height="818.6" fill="#fff" stroke="#000" stroke-width="0"/><g class="SingleFreeNode Shape PhysicalEntity CellularComponent Cell" transform="translate(12.05 595.96)" color="#666666"  name="Dermal Condensate"><g fill="#ccf" filter="url(#g)" stroke="#666" stroke-width="3"><rect class="Icon" transform="matrix(.98761 0 0 .94179 5.9257 5.6507)" width="956.61" height="194.14" rx="15" ry="15"   /></g><text class="Text" transform="translate(948.61 181.14)" fill="#666666"  font-size="20px" font-weight="bold"  text-anchor="end"><tspan x="0" y="0">Dermal Condensate</tspan></text></g><g class="SingleFreeNode Shape PhysicalEntity CellularComponent Cell" transform="translate(717.89 485.4)" color="#666666" ><g fill="#ccf" filter="url(#g)" stroke="#666" stroke-width="3"><rect class="Icon" transform="matrix(.85624 0 0 .90644 5.1374 5.4386)" width="71.47" height="116.26" rx="15" ry="15"   /></g></g><g class="SingleFreeNode Shape" transform="translate(724.91 581.54)" color="#ccccff" ><rect class="Icon" width="59.105" height="44.65" fill="#ccf" stroke="#ccf" stroke-width="0"/></g><g class="SingleFreeNode Shape PhysicalEntity CellularComponent Cell" transform="translate(13.326 137.16)" color="#666666"  name="Placode"><g fill="#ff9" filter="url(#g)" stroke="#666" stroke-width="3"><rect class="Icon" transform="matrix(.98761 0 0 .95713 5.9257 5.7428)" width="956.61" height="267.93" rx="15" ry="15"   /></g><text class="Text" transform="translate(948.61 25)" fill="#666666"  font-size="20px" font-weight="bold"  text-anchor="end"><tspan x="0" y="0">Placode</tspan></text></g><g class="SingleFreeNode Shape PhysicalEntity CellularComponent Nucleus" transform="translate(44.298 164.72)" color="#666666" ><g fill="#ffc" filter="url(#h)" stroke="#666"><rect class="Icon" transform="matrix(.99555 0 0 .97998 1.9911 1.96)" width="894.05" height="195.75" rx="15" ry="15"   /></g></g><g id="i" class="DirectedInteraction" color="#000" ><g color="#000" fill="transparent"  filter="url(#a)" stroke="#000" stroke-dasharray="378.4268171811719, 5.8"><path class="EdgeBody" d="m816.46 310.13-131.81 157.85-178.58 1.117"   marker-end="url(#b)" /></g></g><g class="SingleFreeNode Shape" transform="translate(577.06 624.38)" color="#fff" ><use class="Icon" transform="matrix(.93389 0 0 .96403 .46695 .48202)" width="14.127399650960115" height="26.801741639063334" fill="#fff" stroke="#fff" xlink:href="#c"/></g><g class="SingleFreeNode Shape PhysicalEntity CellularComponent Nucleus" transform="translate(259.89 635.28)" color="#666666" ><g fill="#cff" filter="url(#h)" stroke="#666"><rect class="Icon" transform="matrix(.99181 0 0 .97203 1.9836 1.9441)" width="484.25" height="139.03" rx="15" ry="15"   /></g></g><g id="j" class="DirectedInteraction" color="#000" ><g color="#000" fill="transparent"  filter="url(#a)" stroke="#000" stroke-dasharray="101.51611535212892, 5.8"><path class="EdgeBody" d="m604.47 320.13-41.701 18.875-61.537-0.77364"   marker-end="url(#b)" /></g></g><g id="k" class="Interaction" color="#000" ><g color="#000" fill="transparent"  filter="url(#a)" stroke="#000" stroke-dasharray="5.07, 3.04, 5.07, 3.04, 5.07, 3.04, 5.07, 3.04, 5.07, 3.04, 5.07, 3.04, 5.07, 3.04, 5.07, 3.04, 5.07, 3.04, 5.07, 3.04, 5.07, 3.04, 5.07, 3.04, 5.07, 3.04, 5.07, 3.04, 5.07, 3.04, 5.07, 3.04, 5.07, 3.04, 5.07, 3.04, 5.07, 3.04, 5.07, 3.04, 5.07, 3.04, 5.07, 3.04, 5.07, 3.04, 5.07, 3.04, 5.07, 3.04, 5.07, 3.04, 5.07, 3.04, 5.07, 3.04, 5.07, 3.04, 5.07, 3.04, 5.07, 3.04, 5.07, 3.04, 5.07, 3.04, 5.07, 1"><path class="EdgeBody" d="m505.26 712.15-89.768-0.75204-35.735-180.4"   marker-end="url(#e)" /></g></g><g id="l" class="DirectedInteraction" color="#000" ><g color="#000" fill="transparent"  filter="url(#a)" stroke="#000" stroke-dasharray="32.39391413485977, 5.8"><path class="EdgeBody" d="m467.07 671.98h38.194"   marker-end="url(#b)" /></g></g><g id="m" class="DirectedInteraction" color="#000" ><g color="#000" fill="transparent"  filter="url(#a)" stroke="#000" stroke-dasharray="95.10693522084765, 5.8"><path class="EdgeBody" d="m824.53 428.18-0.67751-49.458-16.892-48.592"   marker-end="url(#b)" /></g></g><g id="n" class="DirectedInteraction" color="#000" ><g color="#000" fill="transparent"  filter="url(#a)" stroke="#000" stroke-dasharray="447.14896752570274, 5.8"><path class="EdgeBody" d="m882.76 301.63-180.79 182.72-195.91 0.74256"   marker-end="url(#b)" /></g></g><g id="o" class="DirectedInteraction" color="#000" ><g color="#000" fill="transparent"  filter="url(#a)" stroke="#000" stroke-dasharray="83.75067779774834, 5.8"><path class="EdgeBody" d="m326.63 194.41 89.551-3e-14"   marker-end="url(#b)" /></g></g><g id="p" class="DirectedInteraction" color="#000" ><g color="#000" fill="transparent"  filter="url(#a)" stroke="#000" stroke-dasharray="101.356418133643, 5.8"><path class="EdgeBody" d="m288.63 194.41h-81.992v25.164"   marker-end="url(#b)" /></g></g><g id="q" class="DirectedInteraction" color="#000" ><g color="#000" fill="transparent"  filter="url(#a)" stroke="#000" stroke-dasharray="76.01652793395199, 5.8"><path class="EdgeBody" d="m652.14 406.76-28.666-76.63"   marker-end="url(#b)" /></g></g><g id="r" class="DirectedInteraction" color="#000" ><g color="#000" fill="transparent"  filter="url(#a)" stroke="#000" stroke-dasharray="76.1596948499574, 5.8"><path class="EdgeBody" d="m652.14 406.76 29.072-76.63"   marker-end="url(#b)" /></g></g><g id="s" class="DirectedInteraction" color="#000" ><g color="#000" fill="transparent"  filter="url(#a)" stroke="#000" stroke-dasharray="56.55060345994006, 5.8"><path class="EdgeBody" d="m435.18 122.06v62.351"   marker-end="url(#b)" /></g></g><g id="t" class="DirectedInteraction" color="#000" ><g color="#000" fill="transparent"  filter="url(#a)" stroke="#000" stroke-dasharray="87.10652702997935, 5.8"><path class="EdgeBody" d="m846.21 428.18-0.67751-48.103 17.003-41.447"   marker-end="url(#b)" /></g></g><g id="u" class="DirectedInteraction" color="#000" ><g color="#000" fill="transparent"  filter="url(#a)" stroke="#000" stroke-dasharray="26.737022261642732, 5.8"><path class="EdgeBody" d="m609.55 671.98h32.537"   marker-end="url(#b)" /></g></g><g id="v" class="Interaction" color="#000" ><g color="#000" fill="transparent"  filter="url(#a)" stroke="#000" stroke-dasharray="5, 3, 5, 3, 5, 3, 5, 3, 5, 3, 5, 3, 5, 3, 5, 3, 5, 3, 5, 3, 5, 3, 5, 3, 5, 3, 5, 3, 5, 3, 5, 3, 5, 3, 5, 3, 5, 3, 5, 3, 5, 3, 5, 3, 5, 3, 5, 3, 5, 3, 5, 3, 5, 3, 5, 3, 5, 3, 5, 3, 0, 1"><path class="EdgeBody" d="m334.45 338.24-172.39-0.67091-45.83-47.126"   marker-end="url(#e)" /></g></g><g id="w" class="DirectedInteraction" color="#000" ><g color="#000" fill="transparent"  filter="url(#a)" stroke="#000" stroke-dasharray="107.07352184737852, 5.8"><path class="EdgeBody" d="m482.24 348.24 1.3309 112.87"   marker-end="url(#b)" /></g></g><g id="x" class="DirectedInteraction" color="#000" ><g color="#000" fill="transparent"  filter="url(#a)" stroke="#000" stroke-dasharray="22.62288386458341, 5.8"><path class="EdgeBody" d="m777.12 230.52-28.418 0.51973"   marker-end="url(#b)" /></g></g><g id="y" class="DirectedInteraction" color="#000" ><g color="#000" fill="transparent"  filter="url(#a)" stroke="#000" stroke-dasharray="181.36878109735352, 5.8"><path class="EdgeBody" d="m593.7 284.2v20h110v-57.167"   marker-end="url(#b)" /></g></g><g id="z" class="Inhibition" color="#000" ><g color="#000" fill="transparent"  filter="url(#a)" stroke="#000" stroke-dasharray="242.27330281174739, 7"><path class="EdgeBody" d="m317.71 386.76v-157.19h-92.079"   marker-end="url(#d)" /></g></g><g id="aa" class="DirectedInteraction" color="#000" ><g color="#000" fill="transparent"  filter="url(#a)" stroke="#000" stroke-dasharray="179.0138345694951, 5.8"><path class="EdgeBody" d="m463.24 300.96h-24.669v160.14"   marker-end="url(#b)" /></g></g><g id="ab" class="Inhibition" color="#000" ><g color="#000" fill="transparent"  filter="url(#a)" stroke="#000" stroke-dasharray="17.644530381493382, 7"><path class="EdgeBody" d="m379.76 511v-24.645"   marker-end="url(#d)" /></g></g><g id="ac" class="Interaction" color="#000" ><g color="#000" fill="transparent"  filter="url(#a)" stroke="#000" stroke-dasharray="5.02, 3.01, 5.02, 3.01, 5.02, 3.01, 5.02, 3.01, 5.02, 3.01, 5.02, 3.01, 5.02, 3.01, 0, 1"><path class="EdgeBody" d="m524.26 661.98v-54.228"   marker-end="url(#e)" /></g></g><g id="ad" class="DirectedInteraction" color="#000" ><g color="#000" fill="transparent"  filter="url(#a)" stroke="#000" stroke-dasharray="87.09277917800344, 5.8"><path class="EdgeBody" d="m847.79 608.75-69.538-61.591"   marker-end="url(#b)" /></g></g><g id="ae" class="Inhibition" color="#000" ><g color="#000" fill="transparent"  filter="url(#a)" stroke="#000" stroke-dasharray="116.37996245694214, 7"><path class="EdgeBody" d="m388.76 466.35 0.018662-88.194 18.51-29.923"   marker-end="url(#d)" /></g></g><g id="af" class="DirectedInteraction" color="#000" ><g color="#000" fill="transparent"  filter="url(#a)" stroke="#000" stroke-dasharray="44.18339488987381, 5.8"><path class="EdgeBody" d="m591.16 681.98v49.983"   marker-end="url(#b)" /></g></g><g id="ag" class="DirectedInteraction" color="#000" ><g color="#000" fill="transparent"  filter="url(#a)" stroke="#000" stroke-dasharray="224.40364037647498, 5.8"><path class="EdgeBody" d="m454.18 194.41 165.59 0.61494 61.432 20.024"   marker-end="url(#b)" /></g></g><g id="ah" class="Interaction" color="#000" ><g color="#000" fill="transparent"  filter="url(#a)" stroke="#000" stroke-dasharray="5.02, 3.01, 5.02, 3.01, 5.02, 3.01, 5.02, 3.01, 5.02, 3.01, 5.02, 3.01, 5.02, 3.01, 5.02, 3.01, 5.02, 3.01, 5.02, 3.01, 5.02, 3.01, 5.02, 3.01, 5.02, 3.01, 5.02, 3.01, 5.02, 3.01, 5.02, 3.01, 5.02, 3.01, 5.02, 3.01, 5.02, 3.01, 5.02, 3.01, 5.02, 3.01, 5.02, 3.01, 5.02, 3.01, 5.02, 3.01, 5.02, 3.01, 5.02, 3.01, 5.02, 3.01, 5.02, 3.01, 5.02, 3.01, 5.02, 3.01, 5.02, 3.01, 5.02, 3.01, 5.02, 3.01, 5.02, 3.01, 5.02, 3.01, 5.02, 3.01, 5.02, 3.01, 5.02, 3.01, 5.02, 3.01, 5.02, 3.01, 5.02, 3.01, 5.02, 3.01, 5.02, 3.01, 5.02, 3.01, 5.02, 3.01, 5.02, 3.01, 5.02, 3.01, 5.02, 3.01, 5.02, 3.01, 5.02, 3.01, 5.02, 3.01, 5.02, 3.01, 5.02, 3.01, 5.02, 3.01, 5.02, 3.01, 5.02, 3.01, 5.02, 3.01, 5.02, 3.01, 5.02, 3.01, 5.02, 3.01, 5.02, 3.01, 5.02, 3.01, 5.02, 3.01, 5.02, 3.01, 5.02, 3.01, 5.02, 3.01, 5.02, 3.01, 5.02, 3.01, 5.02, 3.01, 5.02, 3.01, 5.02, 3.01, 5.02, 3.01, 5.02, 3.01, 5.02, 3.01, 5.02, 3.01, 5.02, 3.01, 5.02, 3.01, 5.02, 3.01, 5.02, 3.01, 5.02, 3.01, 5.02, 3.01, 5.02, 1"><path class="EdgeBody" d="m572.16 741.97-283.43-0.98651-197.38-316.36"   marker-end="url(#e)" /></g></g><g id="ai" class="DirectedInteraction" color="#000" ><g color="#000" fill="transparent"  filter="url(#a)" stroke="#000" stroke-dasharray="14.172570354323437, 5.8"><path class="EdgeBody" d="m796.12 200.55v19.973"   marker-end="url(#b)" /></g></g><g id="aj" class="DirectedInteraction" color="#000" ><g color="#000" fill="transparent"  filter="url(#a)" stroke="#000" stroke-dasharray="182.05256293192917, 5.8"><path class="EdgeBody" d="m311.85 193.98 160.89 96.973"   marker-end="url(#b)" /></g></g><g id="ak" class="DirectedInteraction" color="#000" ><g color="#000" fill="transparent"  filter="url(#a)" stroke="#000" stroke-dasharray="28.284361284552414, 5.8"><path class="EdgeBody" d="m754.46 499v34.084"   marker-end="url(#b)" /></g></g><g id="al" class="Inhibition" color="#000" ><g color="#000" fill="transparent"  filter="url(#a)" stroke="#000" stroke-dasharray="92.66646628253872, 7"><path class="EdgeBody" d="m584.2 264.2v-25.164h74.502"   marker-end="url(#d)" /></g></g><g id="am" class="Inhibition" color="#000" ><g color="#000" fill="transparent"  filter="url(#a)" stroke="#000" stroke-dasharray="5.31, 3.19, 5.31, 3.19, 5.31, 3.19, 5.31, 3.19, 5.31, 3.19, 5.31, 3.19, 5.31, 3.19, 5.31, 3.19, 5.31, 3.19, 5.31, 3.19, 5.31, 3.19, 5.31, 3.19, 5.31, 3.19, 5.31, 3.19, 5.31, 3.19, 0, 7"><path class="EdgeBody" d="m253.23 403.58 47.743 40.031 60.787 32.739"   marker-end="url(#d)" /></g></g><g id="an" class="Inhibition" color="#000" ><g color="#000" fill="transparent"  filter="url(#a)" stroke="#000" stroke-dasharray="115.53997841738149, 7"><path class="EdgeBody" d="m370.76 466.35-0.18154-87.183-17.122-30.935"   marker-end="url(#d)" /></g></g><g id="ao" class="Interaction" color="#000" ><g color="#000" fill="transparent"  filter="url(#a)" stroke="#000" stroke-dasharray="30.03008129465947, 0"><path class="EdgeBody" d="m591.16 607.75 0.024642 30.03"   /></g><g class="Burr Anchor" transform="translate(591.18 623.9)" ><use class="Icon" width="0" height="0" fill="#141414" stroke-width="0" xlink:href="#f"/></g></g><g id="ap" class="Inhibition" color="#000" ><g color="#000" fill="transparent"  filter="url(#a)" stroke="#000" stroke-dasharray="311.6025345582061, 7"><path class="EdgeBody" d="m593.7 284.2v-6.0531h289.06v23.485"   marker-end="url(#d)" /></g></g><g id="aq" class="Inhibition" color="#000" ><g color="#000" fill="transparent"  filter="url(#a)" stroke="#000" stroke-dasharray="258.7746441373111, 7"><path class="EdgeBody" d="m353.45 328.24v-54.034h211.74"   marker-end="url(#d)" /></g></g><g id="ar" class="DirectedInteraction" color="#000" ><g color="#000" fill="transparent"  filter="url(#a)" stroke="#000" stroke-dasharray="43.443541668652465, 5.8"><path class="EdgeBody" d="m140.07 266.88 47.565-12.749"   marker-end="url(#b)" /></g></g><g id="as" class="DirectedInteraction" color="#000" ><g color="#000" fill="transparent"  filter="url(#a)" stroke="#000" stroke-dasharray="101.27030406061503, 5.8"><path class="EdgeBody" d="m604.47 320.13-42.097-18.352-61.141-0.82494"   marker-end="url(#b)" /></g></g><g id="at" class="DirectedInteraction" color="#000" ><g color="#000" fill="transparent"  filter="url(#a)" stroke="#000" stroke-dasharray="304.53021442826497, 5.8"><path class="EdgeBody" d="m206.63 244.13 128.69 112.1 33.607 60.493 47.134 52.371"   marker-end="url(#b)" /></g></g><g id="au" class="Interaction" color="#000" ><g color="#000" fill="transparent"  filter="url(#a)" stroke="#000" stroke-dasharray="5.05, 3.03, 5.05, 3.03, 5.05, 3.03, 5.05, 3.03, 5.05, 3.03, 5.05, 3.03, 5.05, 3.03, 5.05, 3.03, 5.05, 3.03, 5.05, 3.03, 5.05, 3.03, 5.05, 3.03, 5.05, 3.03, 5.05, 3.03, 5.05, 3.03, 5.05, 3.03, 5.05, 3.03, 5.05, 3.03, 5.05, 3.03, 5.05, 3.03, 5.05, 3.03, 5.05, 3.03, 5.05, 3.03, 5.05, 3.03, 5.05, 3.03, 5.05, 3.03, 5.05, 3.03, 5.05, 3.03, 5.05, 3.03, 5.05, 3.03, 5.05, 3.03, 5.05, 3.03, 5.05, 3.03, 5.05, 3.03, 5.05, 3.03, 5.05, 3.03, 5.05, 3.03, 5.05, 3.03, 5.05, 3.03, 5.05, 3.03, 5.05, 3.03, 5.05, 3.03, 5.05, 3.03, 5.05, 3.03, 5.05, 3.03, 5.05, 3.03, 5.05, 3.03, 5.05, 3.03, 5.05, 3.03, 5.05, 3.03, 5.05, 3.03, 5.05, 3.03, 5.05, 3.03, 5.05, 3.03, 5.05, 3.03, 5.05, 3.03, 5.05, 3.03, 5.05, 3.03, 5.05, 3.03, 5.05, 3.03, 5.05, 3.03, 5.05, 3.03, 5.05, 3.03, 5.05, 3.03, 5.05, 3.03, 5.05, 3.03, 5.05, 3.03, 5.05, 3.03, 5.05, 3.03, 5.05, 3.03, 5.05, 1"><path class="EdgeBody" d="m216.13 219.57v1.6248h321.4v219.72h28.662"   marker-end="url(#e)" /></g></g><g id="av" class="DirectedInteraction" color="#000" ><g color="#000" fill="transparent"  filter="url(#a)" stroke="#000" stroke-dasharray="192.43807522273042, 5.8"><path class="EdgeBody" d="m260.49 386.76v-14.154c0-14.154 0-42.463 7.8568-56.617 7.8568-14.154 23.57-14.154 31.427-30.393 7.8568-16.239 7.8568-48.717 7.8568-64.956l4e-14 -16.239"   marker-end="url(#b)" /></g></g><g id="aw" class="Interaction" color="#000" ><g color="#000" fill="transparent"  filter="url(#a)" stroke="#000" stroke-dasharray="5.24, 3.14, 5.24, 3.14, 5.24, 3.14, 5.24, 3.14, 5.24, 3.14, 5.24, 3.14, 5.24, 3.14, 5.24, 3.14, 5.24, 3.14, 5.24, 3.14, 5.24, 3.14, 5.24, 3.14, 5.24, 3.14, 5.24, 3.14, 5.24, 3.14, 5.24, 1"><path class="EdgeBody" d="m754.46 330.13v131.9"   marker-end="url(#e)" /></g></g><g id="ax" class="DirectedInteraction" color="#000" ><g color="#000" fill="transparent"  filter="url(#a)" stroke="#000" stroke-dasharray="46.4575205450426, 5.8"><path class="EdgeBody" d="m581.97 681.98-48.207 20.171"   marker-end="url(#b)" /></g></g><g id="ay" class="Inhibition" color="#000" ><g color="#000" fill="transparent"  filter="url(#a)" stroke="#000" stroke-dasharray="11.323322007379037, 7"><path class="EdgeBody" d="m397.76 476.35 18.308 0.74343"   marker-end="url(#d)" /></g></g><g id="az" class="Interaction" color="#000" ><g color="#000" fill="transparent"  filter="url(#a)" stroke="#000" stroke-dasharray="5.31, 3.19, 5.31, 3.19, 5.31, 3.19, 5.31, 3.19, 5.31, 3.19, 5.31, 3.19, 5.31, 3.19, 5.31, 3.19, 5.31, 3.19, 5.31, 3.19, 5.31, 3.19, 5.31, 3.19, 5.31, 3.19, 5.31, 1"><path class="EdgeBody" d="m206.63 312.94v99.774h16.967"   marker-end="url(#e)" /></g></g><g id="ba" class="Interaction" color="#000" ><g color="#000" fill="transparent"  filter="url(#a)" stroke="#000" stroke-dasharray="5.01, 3.01, 5.01, 3.01, 5.01, 3.01, 5.01, 3.01, 5.01, 3.01, 5.01, 3.01, 5.01, 3.01, 5.01, 3.01, 5.01, 3.01, 5.01, 3.01, 5.01, 3.01, 5.01, 3.01, 5.01, 3.01, 5.01, 3.01, 5.01, 3.01, 5.01, 3.01, 5.01, 3.01, 5.01, 3.01, 5.01, 3.01, 5.01, 3.01, 5.01, 3.01, 5.01, 3.01, 5.01, 3.01, 5.01, 3.01, 5.01, 3.01, 5.01, 3.01, 5.01, 3.01, 5.01, 3.01, 5.01, 3.01, 5.01, 3.01, 5.01, 3.01, 5.01, 3.01, 5.01, 3.01, 5.01, 3.01, 5.01, 3.01, 5.01, 3.01, 5.01, 3.01, 5.01, 3.01, 5.01, 3.01, 5.01, 3.01, 5.01, 3.01, 5.01, 3.01, 5.01, 3.01, 5.01, 3.01, 5.01, 3.01, 5.01, 3.01, 5.01, 3.01, 5.01, 3.01, 5.01, 3.01, 5.01, 3.01, 5.01, 3.01, 5.01, 3.01, 5.01, 3.01, 5.01, 3.01, 5.01, 3.01, 5.01, 3.01, 5.01, 3.01, 5.01, 3.01, 5.01, 3.01, 5.01, 3.01, 5.01, 3.01, 5.01, 3.01, 5.01, 3.01, 5.01, 3.01, 5.01, 3.01, 5.01, 3.01, 5.01, 3.01, 5.01, 3.01, 5.01, 3.01, 5.01, 3.01, 5.01, 3.01, 5.01, 3.01, 5.01, 3.01, 5.01, 3.01, 5.01, 3.01, 5.01, 3.01, 5.01, 3.01, 5.01, 3.01, 5.01, 3.01, 5.01, 3.01, 0, 1"><path class="EdgeBody" d="m216.13 219.57v-3.3538h308.13v328.4"   marker-end="url(#e)" /></g></g><g id="bb" class="Inhibition" color="#000" ><g color="#000" fill="transparent"  filter="url(#a)" stroke="#000" stroke-dasharray="21.901541678375224, 7" stroke-width="3"><path class="EdgeBody" d="m543.26 597.75h28.902"   marker-end="url(#d)" /></g></g><g id="bc" class="Interaction" color="#000" ><g color="#000" fill="transparent"  filter="url(#a)" stroke="#000" stroke-dasharray="5.17, 3.1, 5.17, 3.1, 5.17, 3.1, 5.17, 3.1, 5.17, 3.1, 5.17, 3.1, 5.17, 3.1, 5.17, 3.1, 5.17, 3.1, 5.17, 3.1, 5.17, 3.1, 5.17, 3.1, 5.17, 3.1, 5.17, 3.1, 5.17, 3.1, 0, 1"><path class="EdgeBody" d="m214.75 276.18 26.787 25.56-0.04748 85.02"   marker-end="url(#e)" /></g></g><g id="bd" class="Interaction" color="#000" ><g color="#000" fill="transparent"  filter="url(#a)" stroke="#000" stroke-dasharray="5.7459049397230615, 0" stroke-width="3"><path class="EdgeBody" d="m105.35 396.76h-5.7459"   /></g></g><g id="be" class="Inhibition" color="#000" ><g color="#000" fill="transparent"  filter="url(#a)" stroke="#000" stroke-dasharray="16.134661457569678, 7"><path class="EdgeBody" d="m524.26 564.62v23.135"   marker-end="url(#d)" /></g></g><g id="bf" class="DirectedInteraction" color="#000" ><g color="#000" fill="transparent"  filter="url(#a)" stroke="#000" stroke-dasharray="18.39825816263356, 5.8"><path class="EdgeBody" d="m591.19 637.78-0.024642 24.198"   marker-end="url(#b)" /></g></g><g id="bg" class="DirectedInteraction" color="#000" ><g color="#000" fill="transparent"  filter="url(#a)" stroke="#000" stroke-dasharray="104.08269448850446, 5.8"><path class="EdgeBody" d="m80.606 386.76v-109.88"   marker-end="url(#b)" /></g></g><g id="bh" class="DirectedInteraction" color="#000" ><g color="#000" fill="transparent"  filter="url(#a)" stroke="#000" stroke-dasharray="53.88502726700622, 5.8"><path class="EdgeBody" d="m140.07 266.88 47.565 36.054"   marker-end="url(#b)" /></g></g><g id="bi" class="DirectedInteraction" color="#000" ><g color="#000" fill="transparent"  filter="url(#a)" stroke="#000" stroke-dasharray="43.10920586238621, 5.8"><path class="EdgeBody" d="m140.07 266.88 47.565 11.39"   marker-end="url(#b)" /></g></g><g id="bj" class="Interaction" color="#000" ><g color="#000" fill="transparent"  filter="url(#a)" stroke="#000" stroke-dasharray="30.2758237883709, 0"><path class="EdgeBody" d="m109.79 266.88h30.276"   /></g></g><g id="bk" class="DirectedInteraction" color="#000" ><g color="#000" fill="transparent"  filter="url(#a)" stroke="#000" stroke-dasharray="54.65300616997607, 5.8"><path class="EdgeBody" d="m140.07 266.88 47.565-37.312"   marker-end="url(#b)" /></g></g><g class="SingleFreeNode Shape" transform="translate(140.07 254.41)" color="#000" ><use class="Icon" width="11.991699014831386" height="24.943087259459865" fill="transparent"  stroke="#000" stroke-width="0" xlink:href="#f"/></g><g class="Label" transform="translate(658.7 215.05)" color="#000099"  name="Hair Bud Shape"><rect class="Icon" transform="matrix(.98901 0 0 .96969 .49451 .48484)" width="90" height="31.991" rx="15" ry="15" fill="#fff" stroke="#009" stroke-dasharray="5,3"/><text class="Text" transform="translate(45 19.995)" fill="#000099"  font-size="12px" font-weight="bold"  text-anchor="middle"><tspan x="0" y="-6.6000000000000005">Hair Bud</tspan> <tspan x="0" y="6.6000000000000005">Shape</tspan></text></g><g class="Label" transform="translate(592.51 224.7)" color="#000"  name="overexpression"><use class="Icon" width="57.63194587859088" height="20" fill="transparent"  stroke="#000" stroke-width="0" xlink:href="#f"/><text class="Text" transform="translate(28.816 12)"   font-size="7px"  text-anchor="middle"><tspan x="0" y="0">overexpression</tspan></text></g><g class="GroupNone" transform="translate(420.07 652.98)" color="grey" ><rect class="Icon" transform="matrix(.9963 0 0 .99082 .49815 .49541)" width="269.02" height="107.98" fill="#b4b464" fill-opacity=".1" stroke="grey" stroke-dasharray="5,3"/><g class="Uniprot-TrEMBL_Q13950 GeneProduct RUNX2 " transform="translate(9,9)" color="#000"  name="RUNX2"><rect class="Icon" transform="matrix(.97436 0 0 .95238 .48718 .47619)" width="38" height="20" fill="#fff" stroke="#000"/><text class="Text" transform="translate(19 13)"   font-size="10px"  text-anchor="middle"><tspan x="0" y="0">RUNX2</tspan></text></g><g class="Uniprot-TrEMBL_Q9BZE4 Protein GTPBP4 " transform="translate(85.194 49.171)" color="#000"  name="NOG"><rect class="Icon" transform="matrix(.97436 0 0 .95238 .48718 .47619)" width="38" height="20" fill="#fff" stroke="#000"/><text class="Text" transform="translate(19,13)"   font-size="10px"  text-anchor="middle"><tspan x="0" y="0">NOG</tspan></text></g><g class="Uniprot-TrEMBL_Q13635 Protein PTCH1 " transform="translate(85.194 9)" color="#000"  name="PTCH1"><rect class="Icon" transform="matrix(.97436 0 0 .95238 .48718 .47619)" width="38" height="20" fill="#fff" stroke="#000"/><text class="Text" transform="translate(19 13)"   font-size="10px"  text-anchor="middle"><tspan x="0" y="0">PTCH1</tspan></text></g><g class="Uniprot-TrEMBL_P24385 Protein CCND1 " transform="translate(222.02 9)" color="#000"  name="CCND1"><rect class="Icon" transform="matrix(.97436 0 0 .95238 .48718 .47619)" width="38" height="20" fill="#fff" stroke="#000"/><text class="Text" transform="translate(19 13)"   font-size="10px"  text-anchor="middle"><tspan x="0" y="0">CCND1</tspan></text></g><g class="Uniprot-TrEMBL_P08151 Protein GLI1 " transform="translate(152.71 9)" color="#000"  name="GLI s"><use class="Icon" transform="matrix(.97353 0 0 .95238 .48676 .47619)" width="36.77627337201815" height="19.999999999999996" fill="#fff" stroke="#000" xlink:href="#c"/><text class="Text" transform="translate(18.388 13)"   font-size="10px"  text-anchor="middle"><tspan x="0" y="0">GLI s</tspan></text></g><g class="Uniprot-TrEMBL_P41221 Protein WNT5A " transform="translate(152.1 78.983)" color="#000"  name="WNT5A"><rect class="Icon" transform="matrix(.97436 0 0 .95238 .48718 .47619)" width="38" height="20" fill="#fff" stroke="#000"/><text class="Text" transform="translate(19,13)"   font-size="10px"  text-anchor="middle"><tspan x="0" y="0">WNT5A</tspan></text></g></g><g class="Uniprot-TrEMBL_P13591 Protein NCAM1 " transform="translate(388.29 328.24)" color="#000"  name="NCAM"><rect class="Icon" transform="matrix(.97436 0 0 .95238 .48718 .47619)" width="38" height="20" fill="#fff" stroke="#000"/><text class="Text" transform="translate(19 13)"   font-size="10px"  text-anchor="middle"><tspan x="0" y="0">NCAM</tspan></text></g><g class="GroupNone" transform="translate(768.12 171.55)" color="grey" ><rect class="Icon" transform="matrix(.98246 0 0 .98734 .49123 .49367)" width="56" height="77.973" fill="#b4b464" fill-opacity=".1" stroke="grey" stroke-dasharray="5,3"/><g class="Uniprot-TrEMBL_Q9H3D4 GeneProduct TP63 " transform="translate(9,9)" color="#000"  name="TP63"><rect class="Icon" transform="matrix(.97436 0 0 .95238 .48718 .47619)" width="38" height="20" fill="#fff" stroke="#000"/><text class="Text" transform="translate(19,13)"   font-size="10px"  text-anchor="middle"><tspan x="0" y="0">TP63</tspan></text></g><a  class="Uniprot-TrEMBL_O95452 GeneProduct GJB6 " transform="translate(9 48.973)"   name="GJB6"  ><rect class="Icon" transform="matrix(.97436 0 0 .95238 .48718 .47619)" width="38" height="20" fill="#fff" stroke="#000"/><text class="Text" transform="translate(19,13)"   font-size="10px"  text-anchor="middle"><tspan x="0" y="0">GJB6</tspan></text></a></g><a  class="Uniprot-TrEMBL_A8MTJ6 GeneProduct FOXI3 " transform="translate(416.18 184.41)"   name="FOXI3"  ><rect class="Icon" transform="matrix(.97436 0 0 .95238 .48718 .47619)" width="38" height="20" fill="#fff" stroke="#000"/><text class="Text" transform="translate(19 13)"   font-size="10px"  text-anchor="middle"><tspan x="0" y="0">FOXI3</tspan></text></a><g class="GroupNone" transform="translate(454.24 281.96)" color="grey" ><rect class="Icon" transform="matrix(.98246 0 0 .98689 .49123 .49345)" width="56" height="75.279" fill="#b4b464" fill-opacity=".1" stroke="grey" stroke-dasharray="5,3"/><g class="Uniprot-TrEMBL_P24385 Protein CCND1 " transform="translate(9,9)" color="#000"  name="CCND1"><rect class="Icon" transform="matrix(.97436 0 0 .95238 .48718 .47619)" width="38" height="20" fill="#fff" stroke="#000"/><text class="Text" transform="translate(19 13)"   font-size="10px"  text-anchor="middle"><tspan x="0" y="0">CCND1</tspan></text></g><g class="Uniprot-TrEMBL_P30279 Protein CCND2 " transform="translate(9 46.279)" color="#000"  name="CCND2"><rect class="Icon" transform="matrix(.97436 0 0 .95238 .48718 .47619)" width="38" height="20" fill="#fff" stroke="#000"/><text class="Text" transform="translate(19 13)"   font-size="10px"  text-anchor="middle"><tspan x="0" y="0">CCND2</tspan></text></g></g><g class="Uniprot-TrEMBL_P12830 GeneProduct CDH1 " transform="translate(565.2 264.2)" color="#000"  name="CDH1"><rect class="Icon" transform="matrix(.97436 0 0 .95238 .48718 .47619)" width="38" height="20" fill="#fff" stroke="#000"/><text class="Text" transform="translate(19 13)"   font-size="10px"  text-anchor="middle"><tspan x="0" y="0">CDH1</tspan></text></g><g class="Uniprot-TrEMBL_Q9UJU2 Protein LEF1 " transform="translate(334.45 328.24)" color="#000"  name="LEF1"><rect class="Icon" transform="matrix(.97436 0 0 .95238 .48718 .47619)" width="38" height="20" fill="#fff" stroke="#000"/><text class="Text" transform="translate(19 13)"   font-size="10px"  text-anchor="middle"><tspan x="0" y="0">LEF1</tspan></text></g><a  class="Uniprot-TrEMBL_O95863 Protein SNAI1 " transform="translate(787.96 310.13)"   name="SNAI1"  ><rect class="Icon" transform="matrix(.97436 0 0 .95238 .48718 .47619)" width="38" height="20" fill="#fff" stroke="#000"/><text class="Text" transform="translate(19,13)"   font-size="10px"  text-anchor="middle"><tspan x="0" y="0">SNAI1</tspan></text></a><g class="Uniprot-TrEMBL_P08476 GeneProduct INHBA " transform="translate(412.68 102.06)" color="#000"  name="Activin A"><use class="Icon" transform="matrix(.97826 0 0 .95238 .48913 .47619)" width="45" height="20" fill="#fff" stroke="#000" xlink:href="#c"/><text class="Text" transform="translate(22.5,13)"   font-size="10px"  text-anchor="middle"><tspan x="0" y="0">Activin A</tspan></text></g><g class="Group Pathway GroupPathway" transform="translate(50.606 378.26)" color="grey" ><rect class="Icon" transform="matrix(.99627 0 0 .99392 .24907 .24848)" width="133.56" height="81.71" fill="#0f0" fill-opacity=".1" stroke="grey" stroke-dasharray="5,3" stroke-width=".5"/><g class="Uniprot-TrEMBL_Q9UP38 Protein FZD1 " transform="translate(11,8.5)" color="#000"  name="FZD1"><rect class="Icon" transform="matrix(.97436 0 0 .95238 .48718 .47619)" width="38" height="20" rx="15" ry="15" fill="#fff" stroke="#000"/><text class="Text" transform="translate(19 13)"   font-size="10px"  text-anchor="middle"><tspan x="0" y="0">FZD1</tspan></text></g><a class="WikiPathways_WP428 Pathway " transform="translate(58.613 36.21)" color="#14961e"  name="Wnt Pathway"  ><rect class="Icon" transform="matrix(.98517 0 0 .97368 .49259 .48684)" width="66.446" height="37" rx="15" ry="15" fill="#fff" stroke="#14961e"/><text class="Text" transform="translate(33.223 22.5)" fill="#14961e"  font-size="12px" font-weight="bold" stroke="black" stroke-width="0" text-anchor="middle"><tspan x="0" y="-6.6000000000000005">Wnt</tspan> <tspan x="0" y="6.6000000000000005">Pathway</tspan></text></a><a  class="Uniprot-TrEMBL_O75197 Protein LRP5 " transform="translate(54.746 8.5)"   name="LRP5/6"  ><rect class="Icon" transform="matrix(.97436 0 0 .95238 .48718 .47619)" width="38" height="20" rx="15" ry="15" fill="#fff" stroke="#000"/><text class="Text" transform="translate(19 13)"   font-size="10px"  text-anchor="middle"><tspan x="0" y="0">LRP5/6</tspan></text></a><g class="Uniprot-TrEMBL_P41221 Protein WNT5A " transform="translate(8.5 26.359)" color="#000"  name="WNT5A"><use class="Icon" transform="matrix(.97727 0 0 .95238 .48864 .47619)" width="43" height="20" fill="#99ccff" stroke="#000" xlink:href="#c"/><text class="Text" transform="translate(21.5,13)"   font-size="10px"  text-anchor="middle"><tspan x="0" y="0">WNT5A</tspan></text></g></g><g class="Uniprot-TrEMBL_P19838 Protein NFKB1 " transform="translate(288.63 184.41)" color="#000"  name="NF-kB"><use class="Icon" transform="matrix(.97436 0 0 .95238 .48718 .47619)" width="38" height="20.000000000000014" fill="#fff" stroke="#000" xlink:href="#c"/><text class="Text" transform="translate(19 13)"   font-size="10px"  text-anchor="middle"><tspan x="0" y="0">NF-kB</tspan></text></g><g class="Group Pathway GroupPathway" transform="translate(199.73 378.26)" color="grey" ><rect class="Icon" transform="matrix(.99404 0 0 .99503 .24851 .24876)" width="83.446" height="100.01" fill="#0f0" fill-opacity=".1" stroke="grey" stroke-dasharray="5,3" stroke-width=".5"/><g class="Uniprot-TrEMBL_Q9UNE0 Protein EDAR " transform="translate(32.252 8.5)" color="#000"  name="EDAR"><rect class="Icon" transform="matrix(.97436 0 0 .95238 .48718 .47619)" width="38" height="20" rx="15" ry="15" fill="#fff" stroke="#000"/><text class="Text" transform="translate(19 13)"   font-size="10px"  text-anchor="middle"><tspan x="0" y="0">EDAR</tspan></text></g><g class="Uniprot-TrEMBL_Q92838 Protein EDA " transform="translate(23.868 24.445)" color="#000"  name="EDA"><use class="Icon" transform="matrix(.97297 0 0 .95238 .48649 .47619)" width="36" height="19.99999999999999" fill="#ffff99" stroke="#000" xlink:href="#c"/><text class="Text" transform="translate(18 13)"   font-size="10px"  text-anchor="middle"><tspan x="0" y="0">EDA</tspan></text></g><g class="Pathway" transform="translate(8.5 54.507)" color="#14961e"  name="Eda Pathway"><rect class="Icon" transform="matrix(.98517 0 0 .97368 .49259 .48684)" width="66.446" height="37" rx="15" ry="15" fill="#fff" stroke="#14961e"/><text class="Text" transform="translate(33.223 22.5)" fill="#14961e"  font-size="12px" font-weight="bold" stroke="black" stroke-width="0" text-anchor="middle"><tspan x="0" y="-6.6000000000000005">Eda</tspan> <tspan x="0" y="6.6000000000000005">Pathway</tspan></text></g></g><a class="WikiPathways_WP4249 Pathway " transform="translate(559.35 534.22)" color="#14961e"  name="Shh Pathway"  ><rect class="Icon" transform="matrix(.98517 0 0 .97368 .49259 .48684)" width="66.446" height="37" rx="15" ry="15" fill="#fff" stroke="#14961e"/><text class="Text" transform="translate(33.223 22.5)" fill="#14961e"  font-size="12px" font-weight="bold" stroke="black" stroke-width="0" text-anchor="middle"><tspan x="0" y="-6.6000000000000005">Shh</tspan> <tspan x="0" y="6.6000000000000005">Pathway</tspan></text></a><g class="Uniprot-TrEMBL_Q15465 Protein SHH " transform="translate(506.26 544.62)" color="#000"  name="SHH"><use class="Icon" transform="matrix(.97297 0 0 .95238 .48649 .47619)" width="36" height="19.99999999999998" fill="#ffff99" stroke="#000" xlink:href="#c"/><text class="Text" transform="translate(18 13)"   font-size="10px"  text-anchor="middle"><tspan x="0" y="0">SHH</tspan></text></g><g class="GroupNone" transform="translate(42.419 210.57)" color="grey" ><rect class="Icon" transform="matrix(.99482 0 0 .9911 .49741 .49555)" width="192.21" height="111.37" fill="#b4b464" fill-opacity=".1" stroke="grey" stroke-dasharray="5,3"/><g class="Uniprot-TrEMBL_Q9UNE0 Protein EDAR " transform="translate(145.21 57.702)" color="#000"  name="EDAR"><rect class="Icon" transform="matrix(.97436 0 0 .95238 .48718 .47619)" width="38" height="20" fill="#fff" stroke="#000"/><text class="Text" transform="translate(19,13)"   font-size="10px"  text-anchor="middle"><tspan x="0" y="0">EDAR</tspan></text></g><g class="Uniprot-TrEMBL_P35222 GeneProduct CTNNB1 " transform="translate(9 46.312)" color="#000"  name="B-catenin"><use class="Icon" transform="matrix(.98316 0 0 .95238 .49158 .47619)" width="58.37416481069039" height="20" fill="#fff" stroke="#000" xlink:href="#c"/><text class="Text" transform="translate(29.187 13)"   font-size="10px"  text-anchor="middle"><tspan x="0" y="0">B-catenin</tspan></text></g><g class="Uniprot-TrEMBL_Q92838 Protein EDA " transform="translate(145.21 82.366)" color="#000"  name="EDA"><rect class="Icon" transform="matrix(.97436 0 0 .95238 .48718 .47619)" width="38" height="20" fill="#fff" stroke="#000"/><text class="Text" transform="translate(19,13)"   font-size="10px"  text-anchor="middle"><tspan x="0" y="0">EDA</tspan></text></g><g class="Uniprot-TrEMBL_Q15465 Protein SHH " transform="translate(145.21 9)" color="#000"  name="SHH"><rect class="Icon" transform="matrix(.97436 0 0 .95238 .48718 .47619)" width="38" height="20" fill="#fff" stroke="#000"/><text class="Text" transform="translate(19,13)"   font-size="10px"  text-anchor="middle"><tspan x="0" y="0">SHH</tspan></text></g><g class="Uniprot-TrEMBL_Q9UJU2 Protein LEF1 " transform="translate(46.812 59.869)" color="#000"  name="LEF1"><use class="Icon" transform="matrix(.97297 0 0 .95238 .48649 .47619)" width="36" height="19.99999999999999" fill="#fff" stroke="#000" xlink:href="#c"/><text class="Text" transform="translate(18 13)"   font-size="10px"  text-anchor="middle"><tspan x="0" y="0">LEF1</tspan></text></g><g class="Uniprot-TrEMBL_P01106 Protein MYC " transform="translate(145.21 33.563)" color="#000"  name="MYC"><rect class="Icon" transform="matrix(.97436 0 0 .95238 .48718 .47619)" width="38" height="20" fill="#fff" stroke="#000"/><text class="Text" transform="translate(19,13)"   font-size="10px"  text-anchor="middle"><tspan x="0" y="0">MYC</tspan></text></g></g><g class="Uniprot-TrEMBL_P12644 Protein BMP4 " transform="translate(361.76 466.35)" color="#000"  name="BMP s"><use class="Icon" transform="matrix(.97297 0 0 .95238 .48649 .47619)" width="36" height="19.99999999999999" fill="#fff" stroke="#000" xlink:href="#c"/><text class="Text" transform="translate(18 13)"   font-size="10px"  text-anchor="middle"><tspan x="0" y="0">BMP s</tspan></text></g><g class="Uniprot-TrEMBL_Q13635 Protein PTCH1 " transform="translate(505.26 587.75)" color="#000"  name="PTCH"><rect class="Icon" transform="matrix(.97436 0 0 .95238 .48718 .47619)" width="38" height="20" rx="15" ry="15" fill="#fff" stroke="#000"/><text class="Text" transform="translate(19 13)"   font-size="10px"  text-anchor="middle"><tspan x="0" y="0">PTCH</tspan></text></g><g class="Uniprot-TrEMBL_Q99835 Protein SMO " transform="translate(572.16 587.75)" color="#000"  name="SMO"><rect class="Icon" transform="matrix(.97436 0 0 .95238 .48718 .47619)" width="38" height="20" rx="15" ry="15" fill="#fff" stroke="#000"/><text class="Text" transform="translate(19 13)"   font-size="10px"  text-anchor="middle"><tspan x="0" y="0">SMO</tspan></text></g><g id="bl" class="Inhibition" color="#000" ><g color="#000" fill="transparent"  filter="url(#a)" stroke="#000" stroke-dasharray="22.944377852095425, 7" stroke-width="3"><path class="EdgeBody" d="m603.2 396.76 29.944-3.4423e-4"   marker-end="url(#d)" /></g></g><g id="bm" class="Inhibition" color="#000" ><g color="#000" fill="transparent"  filter="url(#a)" stroke="#000" stroke-dasharray="17.14536366445867, 7"><path class="EdgeBody" d="m584.2 430.91v-24.145"   marker-end="url(#d)" /></g></g><g class="Group Pathway GroupPathway" transform="translate(556.7 378.26)" color="grey" ><rect class="Icon" transform="matrix(.99606 0 0 .99403 .24902 .24851)" width="126.41" height="83.191" fill="#0f0" fill-opacity=".1" stroke="grey" stroke-dasharray="5,3" stroke-width=".5"/><a class="WikiPathways_WP4249 Pathway " transform="translate(51.468 37.691)" color="#14961e"  name="Shh Pathway"  ><rect class="Icon" transform="matrix(.98517 0 0 .97368 .49259 .48684)" width="66.446" height="37" rx="15" ry="15" fill="#fff" stroke="#14961e"/><text class="Text" transform="translate(33.223 22.5)" fill="#14961e"  font-size="12px" font-weight="bold" stroke="black" stroke-width="0" text-anchor="middle"><tspan x="0" y="-6.6000000000000005">Shh</tspan> <tspan x="0" y="6.6000000000000005">Pathway</tspan></text></a><g class="Uniprot-TrEMBL_Q15465 Protein SHH " transform="translate(9.5 52.646)" color="#000"  name="SHH"><use class="Icon" transform="matrix(.97297 0 0 .95238 .48649 .47619)" width="36" height="19.99999999999998" fill="#ffff99" stroke="#000" xlink:href="#c"/><text class="Text" transform="translate(18 13)"   font-size="10px"  text-anchor="middle"><tspan x="0" y="0">SHH</tspan></text></g><g class="Uniprot-TrEMBL_Q13635 Protein PTCH1 " transform="translate(8.5 8.5003)" color="#000"  name="PTCH1"><rect class="Icon" transform="matrix(.97436 0 0 .95238 .48718 .47619)" width="38" height="20" rx="15" ry="15" fill="#fff" stroke="#000"/><text class="Text" transform="translate(19 13)"   font-size="10px"  text-anchor="middle"><tspan x="0" y="0">PTCH1</tspan></text></g><g class="Uniprot-TrEMBL_Q99835 Protein SMO " transform="translate(76.444 8.5)" color="#000"  name="SMO"><rect class="Icon" transform="matrix(.97436 0 0 .95238 .48718 .47619)" width="38" height="20" rx="15" ry="15" fill="#fff" stroke="#000"/><text class="Text" transform="translate(19 13)"   font-size="10px"  text-anchor="middle"><tspan x="0" y="0">SMO</tspan></text></g></g><g class="Uniprot-TrEMBL_P16234 Protein PDGFRA " transform="translate(729.46 479)" color="#000"  name="PDGFRA"><rect class="Icon" transform="matrix(.98039 0 0 .95238 .4902 .47619)" width="50" height="20" rx="15" ry="15" fill="#fff" stroke="#000"/><text class="Text" transform="translate(25 13)"   font-size="10px"  text-anchor="middle"><tspan x="0" y="0">PDGFRA</tspan></text></g><g class="Uniprot-TrEMBL_P04085 Protein PDGFA " transform="translate(736.46 462.03)" color="#000"  name="PDGF"><use class="Icon" transform="matrix(.97297 0 0 .95238 .48649 .47619)" width="36" height="19.99999999999998" fill="#ffff99" stroke="#000" xlink:href="#c"/><text class="Text" transform="translate(18 13)"   font-size="10px"  text-anchor="middle"><tspan x="0" y="0">PDGF</tspan></text></g><g class="Uniprot-TrEMBL_P04085 Protein PDGFA " transform="translate(735.46 310.13)" color="#000"  name="PDGF"><rect class="Icon" transform="matrix(.97436 0 0 .95238 .48718 .47619)" width="38" height="20" fill="#fff" stroke="#000"/><text class="Text" transform="translate(19 13)"   font-size="10px"  text-anchor="middle"><tspan x="0" y="0">PDGF</tspan></text></g><g id="bn" class="DirectedInteraction" color="#000" ><g color="#000" fill="transparent"  filter="url(#a)" stroke="#000" stroke-dasharray="220.13617659743687, 5.8"><path class="EdgeBody" d="m754.46 561.24v20h-163.28v42.651"   marker-end="url(#b)" /></g></g><g class="Uniprot-TrEMBL_Q9BZE4 Protein GTPBP4 " transform="translate(358.26 511)" color="#000"  name="Noggin"><use class="Icon" transform="matrix(.97727 0 0 .95238 .48864 .47619)" width="43" height="20" fill="#99ccff" stroke="#000" xlink:href="#c"/><text class="Text" transform="translate(21.5,13)"   font-size="10px"  text-anchor="middle"><tspan x="0" y="0">Noggin</tspan></text></g><g class="GroupNone" transform="translate(289.71 377.76)" color="grey" ><rect class="Icon" transform="matrix(.98246 0 0 .98222 .49123 .49111)" width="56" height="55.229" fill="#b4b464" fill-opacity=".1" stroke="grey" stroke-dasharray="5,3"/><g class="Uniprot-TrEMBL_P21802 Protein FGFR2 " transform="translate(9,9)" color="#000"  name="FGFR2"><rect class="Icon" transform="matrix(.97436 0 0 .95238 .48718 .47619)" width="38" height="20" rx="15" ry="15" fill="#fff" stroke="#000"/><text class="Text" transform="translate(19 13)"   font-size="10px"  text-anchor="middle"><tspan x="0" y="0">FGFR2</tspan></text></g><g class="Uniprot-TrEMBL_P05230 Protein FGF1 " transform="translate(10 26.229)" color="#000"  name="FGF"><use class="Icon" transform="matrix(.97297 0 0 .95238 .48649 .47619)" width="36" height="19.99999999999998" fill="#fff" stroke="#000" xlink:href="#c"/><text class="Text" transform="translate(18 13)"   font-size="10px"  text-anchor="middle"><tspan x="0" y="0">FGF</tspan></text></g></g><g class="Uniprot-TrEMBL_P10070 Protein GLI2 " transform="translate(604.47 310.13)" color="#000"  name="GLI2"><use class="Icon" transform="matrix(.97436 0 0 .95238 .48718 .47619)" width="38" height="19.999999999999996" fill="#fff" stroke="#000" xlink:href="#c"/><text class="Text" transform="translate(19 13)"   font-size="10px"  text-anchor="middle"><tspan x="0" y="0">GLI2</tspan></text></g><g class="Uniprot-TrEMBL_P05556 Protein ITGB1 " transform="translate(819.29 588.75)" color="#000"  name="ITGB1"><rect class="Icon" transform="matrix(.97436 0 0 .95238 .48718 .47619)" width="38" height="20" rx="15" ry="15" fill="#fff" stroke="#000"/><text class="Text" transform="translate(19 13)"   font-size="10px"  text-anchor="middle"><tspan x="0" y="0">ITGB1</tspan></text></g><a class="WikiPathways_WP4536 Pathway " transform="translate(730.67 533.08)" color="#14961e"  name="Primary Cilia"  ><rect class="Icon" transform="matrix(.97942 0 0 .96571 .48971 .48285)" width="47.583" height="28.162" fill="transparent"  stroke="#14961e"/><text class="Text" transform="translate(23.792 17.081)" fill="#14961e"  font-size="10px" font-style="italic" font-weight="bold" stroke="black" stroke-width="0" text-anchor="middle"><tspan x="0" y="-5.5">Primary</tspan> <tspan x="0" y="5.5">Cilia</tspan></text></a><g class="Pathway" transform="translate(842.3 301.63)" color="#14961e"  name="Ras-MAPK Pathway"><rect class="Icon" transform="matrix(.98779 0 0 .97368 .4939 .48684)" width="80.915" height="37" rx="15" ry="15" fill="#fff" stroke="#14961e"/><text class="Text" transform="translate(40.458 22.5)" fill="#14961e"  font-size="12px" font-weight="bold" stroke="black" stroke-width="0" text-anchor="middle"><tspan x="0" y="-6.6000000000000005">Ras-MAPK</tspan> <tspan x="0" y="6.6000000000000005">Pathway</tspan></text></g><g class="Pathway" transform="translate(796.32 414.65)" color="#14961e"  name="Tgf-B2 Pathway"><rect class="Icon" transform="matrix(.98779 0 0 .97368 .4939 .48684)" width="80.915" height="37" rx="15" ry="15" fill="#fff" stroke="#14961e"/><text class="Text" transform="translate(40.458 22.5)" fill="#14961e"  font-size="12px" font-weight="bold" stroke="black" stroke-width="0" text-anchor="middle"><tspan x="0" y="-6.6000000000000005">Tgf-B2</tspan> <tspan x="0" y="6.6000000000000005">Pathway</tspan></text></g><g id="bo" class="DirectedInteraction" color="#000" ><g color="#000" fill="transparent"  filter="url(#a)" stroke="#000" stroke-dasharray="60.489678364384375, 5.8"><path class="EdgeBody" d="m609.55 671.98h-66.29"   marker-end="url(#b)" /></g></g><g class="Uniprot-TrEMBL_P08151 Protein GLI1 " transform="translate(662.21 310.13)" color="#000"  name="GLI1"><use class="Icon" transform="matrix(.97436 0 0 .95238 .48718 .47619)" width="38" height="19.999999999999996" fill="#fff" stroke="#000" xlink:href="#c"/><text class="Text" transform="translate(19 13)"   font-size="10px"  text-anchor="middle"><tspan x="0" y="0">GLI1</tspan></text></g><a  class="Uniprot-TrEMBL_O15230 Protein LAMA5 " transform="translate(824.36 571.67)"   name="Laminin-511"  ><use class="Icon" transform="matrix(.98413 0 0 .95238 .49206 .47619)" width="62" height="20" fill="#fff" stroke="#000" xlink:href="#c"/><text class="Text" transform="translate(31,13)"   font-size="10px"  text-anchor="middle"><tspan x="0" y="0">Laminin-511</tspan></text></a><g class="Label" transform="translate(416.07 461.1)" color="#000099"  name="Placode Downgrowth"><rect class="Icon" transform="matrix(.98901 0 0 .96969 .49451 .48484)" width="90" height="31.991" rx="15" ry="15" fill="#fff" stroke="#009" stroke-dasharray="5,3"/><text class="Text" transform="translate(45 19.995)" fill="#000099"  font-size="12px" font-weight="bold"  text-anchor="middle"><tspan x="0" y="-6.6000000000000005">Placode</tspan> <tspan x="0" y="6.6000000000000005">Downgrowth</tspan></text></g><text class="Text" transform="translate(5,27)" dominant-baseline="central" fill="black"  font-size="12px" font-weight="bold" overflow="visible" ><tspan x="0" y="-9">Name: Hair follicle development: organogenesis - part 2 of 3</tspan> <tspan x="0" y="9">Organism: Homo sapiens</tspan></text></g></svg>
