<?xml version="1.0" encoding="UTF-8"?>
<!--
  WikiPathways page: https://www.wikipathways.org/index.php/Pathway:WP2879
  URL for this compressed file: https://github.com/eweitz/cachome/tree/main/data/wikipathways/WP2879.svg
  Source code for compression: https://github.com/eweitz/cachome/tree/main/src/wikipathways.py
-->
<svg class="Diagram" width="800" height="600" color="black" baseProfile="full" prefix="schema:http://schema.org/" preserveAspectRatio="xMidYMid" version="1.1" viewBox="0 0 895.19 1149.5" vocab="http://vocabularies.wikipathways.org/wp#" xmlns="http://www.w3.org/2000/svg" xmlns:xlink="http://www.w3.org/1999/xlink"><style>svg {font-family: 'Liberation Sans', Arial, sans-serif; }</style><defs><filter id="e" x="-50%" y="-50%" width="200%" height="200%"><feComposite in="SourceGraphic" in2="SourceGraphic" result="doubleDark"/><feMorphology in="doubleDark" operator="dilate" radius="0.16666666666666666" result="in2Double"/><feMorphology in="SourceGraphic" operator="dilate" radius="3" result="inDouble"/><feComposite in="inDouble" in2="in2Double" operator="out" result="doubleResult"/></filter><filter id="a" x="0" y="0" width="895.19" height="1149.5" filterUnits="userSpaceOnUse"><feColorMatrix in="SourceGraphic" values="-1   0   0 0 0                   0  -1   0 0 0                   0   0  -1 0 0                   0   0   0 1 0"/></filter><marker id="c" stroke-dasharray="99999" markerHeight="12" markerUnits="userSpaceOnUse" markerWidth="12" orient="auto" preserveAspectRatio="none" refX="12" refY="6" viewBox="0 0 12 12"><path transform="rotate(180 6 6)" d="M12 11L0 6l12-5z" fill="currentColor" stroke-width="0"/></marker><marker id="f" stroke-dasharray="99999" markerHeight="20" markerUnits="userSpaceOnUse" markerWidth="10" orient="auto" preserveAspectRatio="none" refX="10" refY="10" viewBox="0 0 10 20"><path d="m3 0v20" fill="currentColor" stroke="currentColor"/></marker><symbol id="g" overflow="visible" preserveAspectRatio="none" viewBox="0 0 50 50"><ellipse cx="25" cy="25" rx="25" ry="25" stroke="currentColor" vector-effect="non-scaling-stroke"/></symbol><symbol id="d" overflow="visible" preserveAspectRatio="none" viewBox="0 0 100 100"><path d="M0 25L25 0h50l25 25v50l-25 25H25L0 75z" stroke="currentColor" vector-effect="non-scaling-stroke"/></symbol><symbol id="b" preserveAspectRatio="none" viewBox="0 0 100 100"/></defs><g class="Viewport" color="black"  name="Name: Farnesoid X receptor pathway Organism: Homo sapiens"><rect class="Icon" width="895.19" height="1149.5" fill="#fff" stroke="#000" stroke-width="0"/><g id="h" class="Edge GraphicalLine DirectedInteraction" color="#000" ><g color="#000" fill="transparent"  filter="url(#a)" stroke="#000" stroke-dasharray="42.47035413994509, 5.8"><path class="EdgeBody" d="m614.29 718.36h48.27"   marker-end="url(#c)" /></g></g><g id="i" class="Edge GraphicalLine" color="#000" ><g color="#000" fill="transparent"  filter="url(#a)" stroke="#000" stroke-dasharray="28.40128263857082, 0"><path class="EdgeBody" d="m612.92 718.28v28.401"   /></g></g><g class="Label" transform="translate(572.62 870.03)" color="#000"  name="Other"><use class="Icon" width="80" height="20" fill="transparent"  stroke="#000" stroke-width="0" xlink:href="#b"/><text class="Text" transform="translate(40,13)"   font-size="10px"  text-anchor="middle"><tspan x="0" y="0">Other</tspan></text></g><g class="Label" transform="translate(662.56 708.36)" color="#000"  name="Transcription"><use class="Icon" width="80" height="20" fill="transparent"  stroke="#000" stroke-width="0" xlink:href="#b"/><text class="Text" transform="translate(40,13)"   font-size="10px"  text-anchor="middle"><tspan x="0" y="0">Transcription</tspan></text></g><g class="Label" transform="translate(351.39 825.05)" color="#000"  name="Bile acid detoxification"><use class="Icon" width="80" height="20" fill="transparent"  stroke="#000" stroke-width="0" xlink:href="#b"/><text class="Text" transform="translate(40,13)"   font-size="10px"  text-anchor="middle"><tspan x="0" y="0">Bile acid detoxification</tspan></text></g><g class="Label" transform="translate(356.26 939.31)" color="#000"  name="Bile acid &amp; xenobiotics transport"><use class="Icon" width="80" height="20" fill="transparent"  stroke="#000" stroke-width="0" xlink:href="#b"/><text class="Text" transform="translate(40,13)"   font-size="10px"  text-anchor="middle"><tspan x="0" y="0">Bile acid &amp; xenobiotics transport</tspan></text></g><g class="Label" transform="translate(471.73 962.4)" color="#000"  name="Bile acid conjugation"><use class="Icon" width="80" height="20" fill="transparent"  stroke="#000" stroke-width="0" xlink:href="#b"/><text class="Text" transform="translate(40,13)"   font-size="10px"  text-anchor="middle"><tspan x="0" y="0">Bile acid conjugation</tspan></text></g><g class="Label" transform="translate(476.59 823.84)" color="#000"  name="Bile acid neosynthesis"><use class="Icon" width="80" height="20" fill="transparent"  stroke="#000" stroke-width="0" xlink:href="#b"/><text class="Text" transform="translate(40,13)"   font-size="10px"  text-anchor="middle"><tspan x="0" y="0">Bile acid neosynthesis</tspan></text></g><g id="j" class="Interaction" color="#000" ><g color="#000" fill="transparent"  filter="url(#a)" stroke="#000" stroke-dasharray="246.7861040385931, 0"><path class="EdgeBody" d="m578.81 375.2-229.97 89.544"   /></g></g><g id="k" class="DirectedInteraction" color="#000" ><g color="#000" fill="transparent"  filter="url(#a)" stroke="#000" stroke-dasharray="135.5393821544843, 5.8"><path class="EdgeBody" d="m348.84 195.22v141.34"   marker-end="url(#c)" /></g></g><g id="l" class="DirectedInteraction" color="#000" ><g color="#000" fill="transparent"  filter="url(#a)" stroke="#000" stroke-dasharray="191.4455947971435, 5.8"><path class="EdgeBody" d="m348.84 17.973-4e-14 197.25"   marker-end="url(#c)" /></g></g><g id="m" class="DirectedInteraction" color="#000" ><g color="#000" fill="transparent"  filter="url(#a)" stroke="#000" stroke-dasharray="90.65295201903469, 5.8"><path class="EdgeBody" d="m348.84 578.39-6e-14 96.453"   marker-end="url(#c)" /></g></g><g id="n" class="DirectedInteraction" color="#000" ><g color="#000" fill="transparent"  filter="url(#a)" stroke="#000" stroke-dasharray="88.03238155775138, 5.8"><path class="EdgeBody" d="m348.84 400.56v93.832"   marker-end="url(#c)" /></g><g class="Burr Anchor" transform="translate(348.84 464.75)" ><use class="Icon" width="0" height="0" fill="#141414" stroke-width="0" xlink:href="#b"/></g></g><g class="SingleFreeNode Shape PhysicalEntity CellularComponent Cell" transform="translate(66.759 148.67)" color="#c0c0c0" ><g fill="transparent"  filter="url(#e)" stroke="#c0c0c0" stroke-width="3"><rect class="Icon" transform="matrix(.98522 0 0 .98781 5.9113 5.9269)" width="799.93" height="972.28" rx="15" ry="15"   /></g></g><a  class="GeneProduct NR1H4 " transform="translate(308.84 195.22)"   name="NR1H4"  ><rect class="Icon" transform="matrix(.98765 0 0 .95238 .49383 .47619)" width="80" height="20" fill="#fff" stroke="#000"/><text class="Text" transform="translate(40,13)"   font-size="10px"  text-anchor="middle"><tspan x="0" y="0">NR1H4</tspan></text></a><g class="SingleFreeNode Shape PhysicalEntity CellularComponent Nucleus" transform="translate(132.18 249.69)" color="#c0c0c0" ><g fill="transparent"  filter="url(#e)" stroke="#c0c0c0" stroke-width="3"><use class="Icon" transform="matrix(.98231 0 0 .98572 5.8938 5.9143)" width="666.2478362744649" height="828.5975520178222"    xlink:href="#g"/></g></g><a class="ChEBI_CHEBI_48705 Metabolite  " transform="translate(308.84 17.973)" color="#00f"  name="FXR ligand"  ><rect class="Icon" transform="matrix(.98765 0 0 .95238 .49383 .47619)" width="80" height="20" fill="#fff" stroke="#00f"/><text class="Text" transform="translate(40 13)" fill="#00f"  font-size="10px"  text-anchor="middle"><tspan x="0" y="0">FXR ligand</tspan></text></a><g class="GroupComplex" transform="translate(296.84 494.39)" color="grey" ><use class="Icon" transform="matrix(.99048 0 0 .98824 .49524 .49412)" width="104.00000000000011" height="84.00000000000023" fill="#b4b464" fill-opacity=".1" stroke="grey" xlink:href="#d"/><a  class="GeneProduct NR1H4 " transform="translate(12 52)"   name="NR1H4"  ><rect class="Icon" transform="matrix(.98765 0 0 .95238 .49383 .47619)" width="80" height="20" fill="#fff" stroke="#000"/><text class="Text" transform="translate(40,13)"   font-size="10px"  text-anchor="middle"><tspan x="0" y="0">NR1H4</tspan></text></a><a  class="GeneProduct RXRA " transform="translate(12 32)"   name="RXRA"  ><rect class="Icon" transform="matrix(.98765 0 0 .95238 .49383 .47619)" width="80" height="20" fill="#fff" stroke="#000"/><text class="Text" transform="translate(40,13)"   font-size="10px"  text-anchor="middle"><tspan x="0" y="0">RXRA</tspan></text></a><a class="ChEBI_CHEBI_48705 Metabolite  " transform="translate(12,12)" color="#00f"  name="Ligand"  ><rect class="Icon" transform="matrix(.98765 0 0 .95238 .49383 .47619)" width="80" height="20" fill="#fff" stroke="#00f"/><text class="Text" transform="translate(40 13)" fill="#00f"  font-size="10px"  text-anchor="middle"><tspan x="0" y="0">Ligand</tspan></text></a></g><g id="o" class="Edge GraphicalLine" color="#000" ><g color="#000" fill="transparent"  filter="url(#a)" stroke="#000" stroke-dasharray="328.2858346193271, 0"><path class="EdgeBody" d="m349.01 746.69 328.28 0.81428"   /></g></g><g id="p" class="Edge GraphicalLine" color="#000" ><g color="#000" fill="transparent"  filter="url(#a)" stroke="#000" stroke-dasharray="326.1894281019483, 0"><path class="EdgeBody" d="m351.11 761.41 326.18 2.2344"   /></g></g><g class="Label" transform="translate(628.36 747.32)" color="#000"  name="Genes"><rect class="Icon" transform="matrix(.98018 0 0 .94058 .49009 .47029)" width="49.466" height="15.829" fill="#fff" stroke="#000"/><text class="Text" transform="translate(24.733 10.915)"   font-size="10px"  text-anchor="middle"><tspan x="0" y="0">Genes</tspan></text></g><g class="Label" transform="translate(523.4 747.79)" color="#000"  name="TATA box"><rect class="Icon" transform="matrix(.98018 0 0 .94059 .49009 .47029)" width="49.466" height="15.831" fill="#fff" stroke="#000"/><text class="Text" transform="translate(24.733 10.916)"   font-size="10px"  text-anchor="middle"><tspan x="0" y="0">TATA box</tspan></text></g><g class="GroupComplex" transform="translate(296.84 674.84)" color="grey" ><use class="Icon" transform="matrix(.99048 0 0 .99008 .49524 .49504)" width="104.00000000000006" height="99.83113456464378" fill="#b4b464" fill-opacity=".1" stroke="grey" xlink:href="#d"/><a  class="GeneProduct NR1H4 " transform="translate(12,52)"   name="NR1H4"  ><rect class="Icon" transform="matrix(.98765 0 0 .95238 .49383 .47619)" width="80" height="20" fill="#fff" stroke="#000"/><text class="Text" transform="translate(40,13)"   font-size="10px"  text-anchor="middle"><tspan x="0" y="0">NR1H4</tspan></text></a><a  class="GeneProduct RXRA " transform="translate(12 32)"   name="RXRA"  ><rect class="Icon" transform="matrix(.98765 0 0 .95238 .49383 .47619)" width="80" height="20" fill="#fff" stroke="#000"/><text class="Text" transform="translate(40,13)"   font-size="10px"  text-anchor="middle"><tspan x="0" y="0">RXRA</tspan></text></a><a class="ChEBI_CHEBI_48705 Metabolite  " transform="translate(12 12)" color="#00f"  name="Ligand"  ><rect class="Icon" transform="matrix(.98765 0 0 .95238 .49383 .47619)" width="80" height="20" fill="#fff" stroke="#00f"/><text class="Text" transform="translate(40 13)" fill="#00f"  font-size="10px"  text-anchor="middle"><tspan x="0" y="0">Ligand</tspan></text></a><g class="Label" transform="translate(33.956 72)" color="#000"  name="FXRE"><rect class="Icon" transform="matrix(.98018 0 0 .94059 .49009 .47029)" width="49.466" height="15.831" fill="#fff" stroke="#000"/><text class="Text" transform="translate(24.733 10.916)"   font-size="10px"  text-anchor="middle"><tspan x="0" y="0">FXRE</tspan></text></g></g><g class="GroupComplex" transform="translate(296.84 336.56)" color="grey" ><use class="Icon" transform="matrix(.99048 0 0 .98462 .49524 .49231)" width="104.00000000000011" height="63.99999999999886" fill="#b4b464" fill-opacity=".1" stroke="grey" xlink:href="#d"/><a  class="GeneProduct NR1H4 " transform="translate(12 32)"   name="NR1H4"  ><rect class="Icon" transform="matrix(.98765 0 0 .95238 .49383 .47619)" width="80" height="20" fill="#fff" stroke="#000"/><text class="Text" transform="translate(40,13)"   font-size="10px"  text-anchor="middle"><tspan x="0" y="0">NR1H4</tspan></text></a><a class="ChEBI_CHEBI_48705 Metabolite  " transform="translate(12 12)" color="#00f"  name="Ligand"  ><rect class="Icon" transform="matrix(.98765 0 0 .95238 .49383 .47619)" width="80" height="20" fill="#fff" stroke="#00f"/><text class="Text" transform="translate(40 13)" fill="#00f"  font-size="10px"  text-anchor="middle"><tspan x="0" y="0">Ligand</tspan></text></a></g><a  class="GeneProduct RXRA " transform="translate(538.81 375.2)"   name="RXRA"  ><rect class="Icon" transform="matrix(.98765 0 0 .95238 .49383 .47619)" width="80" height="20" fill="#fff" stroke="#000"/><text class="Text" transform="translate(40,13)"   font-size="10px"  text-anchor="middle"><tspan x="0" y="0">RXRA</tspan></text></a><g id="q" class="Inhibition" color="#000" ><g color="#000" fill="transparent"  filter="url(#a)" stroke="#000" stroke-dasharray="70.99999999999795, 7"><path class="EdgeBody" d="m476.04 886.31h-28v30h20"   marker-end="url(#f)" /></g></g><a  class="GeneProduct UGT2B4 " transform="translate(351.56 896.31)"   name="UGT2B4"  ><rect class="Icon" transform="matrix(.98765 0 0 .95238 .49383 .47619)" width="80" height="20" fill="#fff" stroke="#000"/><text class="Text" transform="translate(40,13)"   font-size="10px"  text-anchor="middle"><tspan x="0" y="0">UGT2B4</tspan></text></a><a  class="GeneProduct SULT2A1 " transform="translate(351.56 876.31)"   name="SULT2A1"  ><rect class="Icon" transform="matrix(.98765 0 0 .95238 .49383 .47619)" width="80" height="20" fill="#fff" stroke="#000"/><text class="Text" transform="translate(40,13)"   font-size="10px"  text-anchor="middle"><tspan x="0" y="0">SULT2A1</tspan></text></a><a  class="GeneProduct SLC27A5 " transform="translate(473.03 990.25)"   name="SLC27A5"  ><rect class="Icon" transform="matrix(.98765 0 0 .95238 .49383 .47619)" width="80" height="20" fill="#fff" stroke="#000"/><text class="Text" transform="translate(40,13)"   font-size="10px"  text-anchor="middle"><tspan x="0" y="0">SLC27A5</tspan></text></a><a  class="GeneProduct SLC10A1 " transform="translate(353.19 1009.7)"   name="SLC10A1"  ><rect class="Icon" transform="matrix(.98765 0 0 .95238 .49383 .47619)" width="80" height="20" fill="#fff" stroke="#000"/><text class="Text" transform="translate(40,13)"   font-size="10px"  text-anchor="middle"><tspan x="0" y="0">SLC10A1</tspan></text></a><g class="GroupGroup" transform="translate(468.04 888.31)" color="grey" ><use class="Icon" width="96" height="55.99999999999909" fill="transparent"  stroke="grey" stroke-dasharray="5,3" stroke-width="0" xlink:href="#b"/><a  class="GeneProduct CYP7A1 " transform="translate(8,8)"   name="CYP7A1"  ><rect class="Icon" transform="matrix(.98765 0 0 .95238 .49383 .47619)" width="80" height="20" fill="#fff" stroke="#000"/><text class="Text" transform="translate(40,13)"   font-size="10px"  text-anchor="middle"><tspan x="0" y="0">CYP7A1</tspan></text></a><a  class="GeneProduct CYP8B1 " transform="translate(8 28)"   name="CYP8B1"  ><rect class="Icon" transform="matrix(.98765 0 0 .95238 .49383 .47619)" width="80" height="20" fill="#fff" stroke="#000"/><text class="Text" transform="translate(40,13)"   font-size="10px"  text-anchor="middle"><tspan x="0" y="0">CYP8B1</tspan></text></a></g><a  class="GeneProduct NR0B2 " transform="translate(572.9 979.1)"   name="NR0B2"  ><rect class="Icon" transform="matrix(.98765 0 0 .95238 .49383 .47619)" width="80" height="20" fill="#fff" stroke="#000"/><text class="Text" transform="translate(40,13)"   font-size="10px"  text-anchor="middle"><tspan x="0" y="0">NR0B2</tspan></text></a><a  class="GeneProduct FGF19 " transform="translate(476.9 856.31)"   name="FGF19"  ><rect class="Icon" transform="matrix(.98765 0 0 .95238 .49383 .47619)" width="80" height="20" fill="#fff" stroke="#000"/><text class="Text" transform="translate(40,13)"   font-size="10px"  text-anchor="middle"><tspan x="0" y="0">FGF19</tspan></text></a><a  class="GeneProduct IRS2 " transform="translate(572.9 899.1)"   name="IRS2"  ><rect class="Icon" transform="matrix(.98765 0 0 .95238 .49383 .47619)" width="80" height="20" fill="#fff" stroke="#000"/><text class="Text" transform="translate(40,13)"   font-size="10px"  text-anchor="middle"><tspan x="0" y="0">IRS2</tspan></text></a><a  class="GeneProduct ABCB11 " transform="translate(353.19 988.84)"   name="ABCB11"  ><rect class="Icon" transform="matrix(.98765 0 0 .95238 .49383 .47619)" width="80" height="20" fill="#fff" stroke="#000"/><text class="Text" transform="translate(40,13)"   font-size="10px"  text-anchor="middle"><tspan x="0" y="0">ABCB11</tspan></text></a><a  class="GeneProduct BAAT " transform="translate(473.03 1010.2)"   name="BAAT"  ><rect class="Icon" transform="matrix(.98765 0 0 .95238 .49383 .47619)" width="80" height="20" fill="#fff" stroke="#000"/><text class="Text" transform="translate(40,13)"   font-size="10px"  text-anchor="middle"><tspan x="0" y="0">BAAT</tspan></text></a><a  class="GeneProduct CYP3A4 " transform="translate(351.56 856.31)"   name="CYP3A4"  ><rect class="Icon" transform="matrix(.98765 0 0 .95238 .49383 .47619)" width="80" height="20" fill="#fff" stroke="#000"/><text class="Text" transform="translate(40,13)"   font-size="10px"  text-anchor="middle"><tspan x="0" y="0">CYP3A4</tspan></text></a><a  class="GeneProduct FKBP5 " transform="translate(572.9 919.1)"   name="FKBP5"  ><rect class="Icon" transform="matrix(.98765 0 0 .95238 .49383 .47619)" width="80" height="20" fill="#fff" stroke="#000"/><text class="Text" transform="translate(40,13)"   font-size="10px"  text-anchor="middle"><tspan x="0" y="0">FKBP5</tspan></text></a><a  class="GeneProduct IP6K3 " transform="translate(572.9 939.1)"   name="IP6K3"  ><rect class="Icon" transform="matrix(.98765 0 0 .95238 .49383 .47619)" width="80" height="20" fill="#fff" stroke="#000"/><text class="Text" transform="translate(40,13)"   font-size="10px"  text-anchor="middle"><tspan x="0" y="0">IP6K3</tspan></text></a><a  class="GeneProduct ABCB4 " transform="translate(353.19 969.71)"   name="ABCB4"  ><rect class="Icon" transform="matrix(.98765 0 0 .95238 .49383 .47619)" width="80" height="20" fill="#fff" stroke="#000"/><text class="Text" transform="translate(40,13)"   font-size="10px"  text-anchor="middle"><tspan x="0" y="0">ABCB4</tspan></text></a><a  class="GeneProduct NR0B2 " transform="translate(476.04 876.31)"   name="NR0B2"  ><rect class="Icon" transform="matrix(.98765 0 0 .95238 .49383 .47619)" width="80" height="20" fill="#fff" stroke="#000"/><text class="Text" transform="translate(40,13)"   font-size="10px"  text-anchor="middle"><tspan x="0" y="0">NR0B2</tspan></text></a><a  class="GeneProduct PPARGC1A " transform="translate(572.9 959.1)"   name="PPARGC1A"  ><rect class="Icon" transform="matrix(.98765 0 0 .95238 .49383 .47619)" width="80" height="20" fill="#fff" stroke="#000"/><text class="Text" transform="translate(40,13)"   font-size="10px"  text-anchor="middle"><tspan x="0" y="0">PPARGC1A</tspan></text></a><a  class="GeneProduct SLCO2B1 " transform="translate(353.19 1029.7)"   name="SLCO2B1"  ><rect class="Icon" transform="matrix(.98765 0 0 .95238 .49383 .47619)" width="80" height="20" fill="#fff" stroke="#000"/><text class="Text" transform="translate(40,13)"   font-size="10px"  text-anchor="middle"><tspan x="0" y="0">SLCO2B1</tspan></text></a><g class="Label" transform="translate(443.66 795.45)" color="#666666"  name="FXR Target genes"><use class="Icon" width="117.96310211423418" height="20.972354623450897" fill="transparent"  stroke="#666666" stroke-width="0" xlink:href="#b"/><text class="Text" transform="translate(58.982 14.486)" fill="#666666"  font-size="12px" font-weight="bold"  text-anchor="middle"><tspan x="0" y="0">FXR Target genes</tspan></text></g><text class="Text" transform="translate(5,27)" dominant-baseline="central" fill="black"  font-size="12px" font-weight="bold" overflow="visible" ><tspan x="0" y="-9">Name: Farnesoid X receptor pathway</tspan> <tspan x="0" y="9">Organism: Homo sapiens</tspan></text></g></svg>
