<?xml version="1.0" encoding="UTF-8"?>
<!--
  WikiPathways page: https://www.wikipathways.org/index.php/Pathway:WP2855
  URL for this compressed file: https://github.com/eweitz/cachome/tree/main/data/wikipathways/WP2855.svg
  Source code for compression: https://github.com/eweitz/cachome/tree/main/src/wikipathways.py
-->
<svg class="Diagram" width="800" height="600" color="black" baseProfile="full" prefix="schema:http://schema.org/" preserveAspectRatio="xMidYMid" version="1.1" viewBox="0 0 702 488" vocab="http://vocabularies.wikipathways.org/wp#" xmlns="http://www.w3.org/2000/svg" xmlns:xlink="http://www.w3.org/1999/xlink"><style>svg {font-family: 'Liberation Sans', Arial, sans-serif; }</style><defs><filter id="a" x="0" y="0" width="702" height="488" filterUnits="userSpaceOnUse"><feColorMatrix in="SourceGraphic" values="-1   0   0 0 0                   0  -1   0 0 0                   0   0  -1 0 0                   0   0   0 1 0"/></filter><filter id="e" x="0" y="0" width="702" height="488" filterUnits="userSpaceOnUse"><feColorMatrix in="SourceGraphic" values="-1   0   0 0 1                   0  -1   0 0 0.2                   0   0  -1 0 0.2                   0   0   0 1 0"/></filter><filter id="f" x="0" y="0" width="702" height="488" filterUnits="userSpaceOnUse"><feColorMatrix in="SourceGraphic" values="-1   0   0 0 1                   0  -1   0 0 0                   0   0  -1 0 0.2                   0   0   0 1 0"/></filter><filter id="g" x="0" y="0" width="702" height="488" filterUnits="userSpaceOnUse"><feColorMatrix in="SourceGraphic" values="-1   0   0 0 1                   0  -1   0 0 0                   0   0  -1 0 0                   0   0   0 1 0"/></filter><marker id="b" stroke-dasharray="99999" markerHeight="12" markerUnits="userSpaceOnUse" markerWidth="12" orient="auto" preserveAspectRatio="none" refX="12" refY="6" viewBox="0 0 12 12"><path transform="rotate(180 6 6)" d="M12 11L0 6l12-5z" fill="currentColor" stroke-width="0"/></marker><marker id="c" stroke-dasharray="99999" markerHeight="20" markerUnits="userSpaceOnUse" markerWidth="10" orient="auto" preserveAspectRatio="none" refX="10" refY="10" viewBox="0 0 10 20"><path d="m3 0v20" fill="currentColor" stroke="currentColor"/></marker><symbol id="d" preserveAspectRatio="none" viewBox="0 0 100 100"/></defs><g class="Viewport" color="black"  name="Name: Dopaminergic neurogenesis License: CC BY 2.0 Last Modified: 2/21/2013 Organism: Homo sapiens"><rect class="Icon" width="702" height="488" fill="#fff" stroke="#000" stroke-width="0"/><g id="h" class="DirectedInteraction" color="#000" ><g color="#000" fill="transparent"  filter="url(#a)" stroke="#000" stroke-dasharray="82.29086218218096, 5.8"><path class="EdgeBody" d="m503 212 68 56"   marker-end="url(#b)" /></g></g><g id="i" class="DirectedInteraction" color="#000" ><g color="#000" fill="transparent"  filter="url(#a)" stroke="#000" stroke-dasharray="133.80300856356928, 5.8"><path class="EdgeBody" d="m331 143 92 105"   marker-end="url(#b)" /></g></g><g id="j" class="DirectedInteraction" color="#000" ><g color="#000" fill="transparent"  filter="url(#a)" stroke="#000" stroke-dasharray="81.97739760583889, 5.8"><path class="EdgeBody" d="m502 178 3.3333-3e-14c3.3333 3e-14 10 3e-14 13.333-10.667 3.3333-10.667 3.3333-32-0.16667-42.667-3.5-10.667-10.5-10.667-14-10.667h-3.5"   marker-end="url(#b)" /></g></g><g id="k" class="DirectedInteraction" color="#000" ><g color="#000" fill="transparent"  filter="url(#a)" stroke="#000" stroke-dasharray="225.29563405907328, 5.8"><path class="EdgeBody" d="m85 114h-7.8333c-7.8333 0-23.5 0-31.333 30-7.8333 30-7.8333 90-0.16667 120 7.6667 30 23 30 30.667 30h7.6667"   marker-end="url(#b)" /></g></g><g id="l" class="DirectedInteraction" color="#ff3333" ><g color="#ff3333" fill="transparent"  filter="url(#e)" stroke="#000" stroke-dasharray="5.52, 3.31, 5.52, 3.31, 5.52, 3.31, 5.52, 3.31, 5.52, 3.31, 5.52, 3.31, 5.52, 3.31, 0, 5.8"><path class="EdgeBody" d="m330.25 371.75 3.7917-6e-14c3.7917 6e-14 11.375 6e-14 15.167-5.9583 3.7917-5.9583 3.7917-17.875 0.45833-23.833-3.3333-5.9583-10-5.9583-13.333-5.9583h-3.3333"   marker-end="url(#b)" /></g></g><g id="m" class="DirectedInteraction" color="#ff0033" ><g color="#ff0033" fill="transparent"  filter="url(#f)" stroke="#000" stroke-dasharray="5.4, 3.24, 5.4, 3.24, 5.4, 3.24, 5.4, 3.24, 5.4, 3.24, 5.4, 3.24, 5.4, 3.24, 5.4, 3.24, 5.4, 3.24, 5.4, 3.24, 5.4, 3.24, 0, 5.8"><path class="EdgeBody" d="m164 326 86.25 45.75"   marker-end="url(#b)" /></g></g><g id="n" class="Inhibition" color="#000" ><g color="#000" fill="transparent"  filter="url(#a)" stroke="#000" stroke-dasharray="84.21403400793103, 7"><path class="EdgeBody" d="m252 270-88 24"   marker-end="url(#c)" /></g></g><g id="o" class="DirectedInteraction" color="#000" ><g color="#000" fill="transparent"  filter="url(#a)" stroke="#000" stroke-dasharray="92.61239759298623, 5.8"><path class="EdgeBody" d="m164 294 89 42"   marker-end="url(#b)" /></g></g><g id="p" class="DirectedInteraction" color="#000" ><g color="#000" fill="transparent"  filter="url(#a)" stroke="#000" stroke-dasharray="97.64563789740001, 5.8"><path class="EdgeBody" d="m333 336 90 51"   marker-end="url(#b)" /></g></g><g id="q" class="DirectedInteraction" color="#000" ><g color="#000" fill="transparent"  filter="url(#a)" stroke="#000" stroke-dasharray="174.3766494304964, 5.8"><path class="EdgeBody" d="M503.75,281.75L572,115"   marker-end="url(#b)" /></g></g><g id="r" class="DirectedInteraction" color="#000" ><g color="#000" fill="transparent"  filter="url(#a)" stroke="#000" stroke-dasharray="86.96313923105448, 5.8"><path class="EdgeBody" d="m502 178 69 62"   marker-end="url(#b)" /></g></g><g id="s" class="DirectedInteraction" color="#000" ><g color="#000" fill="transparent"  filter="url(#a)" stroke="#000" stroke-dasharray="138.50869689661812, 5.8"><path class="EdgeBody" d="m332 238 91 112"   marker-end="url(#b)" /></g></g><g id="t" class="DirectedInteraction" color="#000" ><g color="#000" fill="transparent"  filter="url(#a)" stroke="#000" stroke-dasharray="299.0043786091043, 5.8"><path class="EdgeBody" d="m85 114h-13c-13 0-39 0-52 35.333-13 35.333-13 106-0.16667 141.33 12.833 35.333 38.5 35.333 51.333 35.333l12.833 6e-14"   marker-end="url(#b)" /></g></g><g id="u" class="DirectedInteraction" color="#000" ><g color="#000" fill="transparent"  filter="url(#a)" stroke="#000" stroke-dasharray="88.90480452437458, 5.8"><path class="EdgeBody" d="m164 235 88 35"   marker-end="url(#b)" /></g></g><g id="v" class="Inhibition" color="#000" ><g color="#000" fill="transparent"  filter="url(#a)" stroke="#000" stroke-dasharray="310.58620876857987, 7"><path class="EdgeBody" d="m165 142 85 306"   marker-end="url(#c)" /></g></g><g id="w" class="DirectedInteraction" color="#000" ><g color="#000" fill="transparent"  filter="url(#a)" stroke="#000" stroke-dasharray="168.46990560621762, 5.8"><path class="EdgeBody" d="m164 294 87-151"   marker-end="url(#b)" /></g></g><g id="x" class="DirectedInteraction" color="#000" ><g color="#000" fill="transparent"  filter="url(#a)" stroke="#000" stroke-dasharray="136.96203977248294, 5.8"><path class="EdgeBody" d="m331 205 91 110"   marker-end="url(#b)" /></g></g><g id="y" class="DirectedInteraction" color="#000" ><g color="#000" fill="transparent"  filter="url(#a)" stroke="#000" stroke-dasharray="143.23019828209314, 5.8"><path class="EdgeBody" d="m164 294 87-121"   marker-end="url(#b)" /></g></g><g id="z" class="Inhibition" color="#000" ><g color="#000" fill="transparent"  filter="url(#a)" stroke="#000" stroke-dasharray="169.38594048279472, 7"><path class="EdgeBody" d="m164 294 86 154"   marker-end="url(#c)" /></g></g><g id="aa" class="DirectedInteraction" color="#000" ><g color="#000" fill="transparent"  filter="url(#a)" stroke="#000" stroke-dasharray="150.07473574203968, 5.8"><path class="EdgeBody" d="m502 315h3.3333c3.3333 0 10 0 13.333-22.833 3.3333-22.833 3.3333-68.5 0-91.333-3.3333-22.833-10-22.833-13.333-22.833l-3.3333 3e-14"   marker-end="url(#b)" /></g></g><g id="ab" class="Inhibition" color="#000" ><g color="#000" fill="transparent"  filter="url(#a)" stroke="#000" stroke-dasharray="132.1320047567864, 7"><path class="EdgeBody" d="m333 336h4c4 0 12 0 16 18.667 4 18.667 4 56-0.5 74.667-4.5 18.667-13.5 18.667-18 18.667l-4.5 1e-13"   marker-end="url(#c)" /></g></g><g id="ac" class="DirectedInteraction" color="#000" ><g color="#000" fill="transparent"  filter="url(#a)" stroke="#000" stroke-dasharray="227.70286489055397, 5.8"><path class="EdgeBody" d="m85 142-11-3e-14c-11 3e-14 -33 3e-14 -44 25.333-11 25.333-11 76-0.16667 101.33 10.833 25.333 32.5 25.333 43.333 25.333h10.833"   marker-end="url(#b)" /></g></g><g id="ad" class="DirectedInteraction" color="#000" ><g color="#000" fill="transparent"  filter="url(#a)" stroke="#000" stroke-dasharray="85.28238029388561, 5.8"><path class="EdgeBody" d="m333 336 90 14"   marker-end="url(#b)" /></g></g><g id="ae" class="DirectedInteraction" color="#000" ><g color="#000" fill="transparent"  filter="url(#a)" stroke="#000" stroke-dasharray="139.46615267543115, 5.8"><path class="EdgeBody" d="m84 172-3.8333-3e-14c-3.8333 3e-14 -11.5 3e-14 -15.333 20.333-3.8333 20.333-3.8333 61 0 81.333 3.8333 20.333 11.5 20.333 15.333 20.333h3.8333"   marker-end="url(#b)" /></g></g><g id="af" class="DirectedInteraction" color="#000" ><g color="#000" fill="transparent"  filter="url(#a)" stroke="#000" stroke-dasharray="83.47485648266257, 5.8"><path class="EdgeBody" d="m164 294 89 7"   marker-end="url(#b)" /></g></g><g id="ag" class="DirectedInteraction" color="#000" ><g color="#000" fill="transparent"  filter="url(#a)" stroke="#000" stroke-dasharray="118.65882853377659, 5.8"><path class="EdgeBody" d="m164 294 87-89"   marker-end="url(#b)" /></g></g><g id="ah" class="DirectedInteraction" color="#000" ><g color="#000" fill="transparent"  filter="url(#a)" stroke="#000" stroke-dasharray="263.56685856428095, 5.8"><path class="EdgeBody" d="m85 142-11.833-3e-14c-11.833 3e-14 -35.5 3e-14 -47.333 30.667-11.833 30.667-11.833 92-0.16667 122.67 11.667 30.667 35 30.667 46.667 30.667l11.667 6e-14"   marker-end="url(#b)" /></g></g><g id="ai" class="DirectedInteraction" color="#000" ><g color="#000" fill="transparent"  filter="url(#a)" stroke="#000" stroke-dasharray="225.2956340590734, 5.8"><path class="EdgeBody" d="m84 294h-7.6667c-7.6667 0-23 0-30.667-30-7.6667-30-7.6667-90 0.16667-120 7.8333-30 23.5-30 31.333-30h7.8333"   marker-end="url(#b)" /></g></g><g id="aj" class="DirectedInteraction" color="#000" ><g color="#000" fill="transparent"  filter="url(#a)" stroke="#000" stroke-dasharray="145.53951855516206, 5.8"><path class="EdgeBody" d="m333 336h3.3333c3.3333 0 10 0 13.333-21.833 3.3333-21.833 3.3333-65.5-0.33333-87.333-3.6667-21.833-11-21.833-14.667-21.833l-3.6667 3e-14"   marker-end="url(#b)" /></g></g><g id="ak" class="DirectedInteraction" color="#000" ><g color="#000" fill="transparent"  filter="url(#a)" stroke="#000" stroke-dasharray="148.96756766196202, 5.8"><path class="EdgeBody" d="m165 142 87 128"   marker-end="url(#b)" /></g></g><g id="al" class="DirectedInteraction" color="#000" ><g color="#000" fill="transparent"  filter="url(#a)" stroke="#000" stroke-dasharray="54.80764996632674, 5.8"><path class="EdgeBody" d="m85 359-3.5-6e-14c-3.5 6e-14 -10.5 6e-14 -14-5.5-3.5-5.5-3.5-16.5-0.16667-22 3.3333-5.5 10-5.5 13.333-5.5l3.3333 6e-14"   marker-end="url(#b)" /></g></g><g id="am" class="DirectedInteraction" color="#f00" ><g color="#f00" fill="transparent"  filter="url(#g)" stroke="#000" stroke-dasharray="5.06, 3.04, 5.06, 3.04, 5.06, 3.04, 5.06, 3.04, 5.06, 3.04, 5.06, 3.04, 5.06, 3.04, 5.06, 3.04, 5.06, 3.04, 5.06, 3.04, 5.06, 3.04, 5.06, 3.04, 5.06, 3.04, 5.06, 5.8"><path class="EdgeBody" d="m164 294 86.25 77.75"   marker-end="url(#b)" /></g></g><g id="an" class="Inhibition" color="#000" ><g color="#000" fill="transparent"  filter="url(#a)" stroke="#000" stroke-dasharray="142.01342221424215, 7"><path class="EdgeBody" d="m333 301 91 118"   marker-end="url(#c)" /></g></g><g id="ao" class="DirectedInteraction" color="#000" ><g color="#000" fill="transparent"  filter="url(#a)" stroke="#000" stroke-dasharray="104.2, 5.8"><path class="EdgeBody" d="m252 270-88-66"   marker-end="url(#b)" /></g></g><g id="ap" class="DirectedInteraction" color="#000" ><g color="#000" fill="transparent"  filter="url(#a)" stroke="#000" stroke-dasharray="84.29439494219383, 5.8"><path class="EdgeBody" d="m333 301 89 14"   marker-end="url(#b)" /></g></g><g id="aq" class="DirectedInteraction" color="#000" ><g color="#000" fill="transparent"  filter="url(#a)" stroke="#000" stroke-dasharray="173.80233851484226, 5.8"><path class="EdgeBody" d="m332 270 89-156"   marker-end="url(#b)" /></g></g><g id="ar" class="DirectedInteraction" color="#000" ><g color="#000" fill="transparent"  filter="url(#a)" stroke="#000" stroke-dasharray="69.04650960465692, 5.8"><path class="EdgeBody" d="m503 144 69-29"   marker-end="url(#b)" /></g></g><g id="as" class="DirectedInteraction" color="#000" ><g color="#000" fill="transparent"  filter="url(#a)" stroke="#000" stroke-dasharray="233.00536007384758, 5.8"><path class="EdgeBody" d="m333 336 88-222"   marker-end="url(#b)" /></g></g><g id="at" class="DirectedInteraction" color="#000" ><g color="#000" fill="transparent"  filter="url(#a)" stroke="#000" stroke-dasharray="104.2, 5.8"><path class="EdgeBody" d="m164 204 88 66"   marker-end="url(#b)" /></g></g><g id="au" class="DirectedInteraction" color="#000" ><g color="#000" fill="transparent"  filter="url(#a)" stroke="#000" stroke-dasharray="112.30683849043608, 5.8"><path class="EdgeBody" d="m331 205 3.6667-3e-14c3.6667 3e-14 11 3e-14 14.667 16 3.6667 16 3.6667 48 0.33333 64-3.3333 16-10 16-13.333 16h-3.3333"   marker-end="url(#b)" /></g></g><g id="av" class="DirectedInteraction" color="#000" ><g color="#000" fill="transparent"  filter="url(#a)" stroke="#000" stroke-dasharray="98.50723848324239, 5.8"><path class="EdgeBody" d="m164 326 88-56"   marker-end="url(#b)" /></g></g><g id="aw" class="DirectedInteraction" color="#000" ><g color="#000" fill="transparent"  filter="url(#a)" stroke="#000" stroke-dasharray="86.69932432185654, 5.8"><path class="EdgeBody" d="m332 270 91.75 11.75"   marker-end="url(#b)" /></g></g><g id="ax" class="Inhibition" color="#000" ><g color="#000" fill="transparent"  filter="url(#a)" stroke="#000" stroke-dasharray="99.5269918846862, 7"><path class="EdgeBody" d="m571 268-68 82"   marker-end="url(#c)" /></g></g><g id="ay" class="DirectedInteraction" color="#000" ><g color="#000" fill="transparent"  filter="url(#a)" stroke="#000" stroke-dasharray="65.20704190430693, 5.8"><path class="EdgeBody" d="m501 114 71 1"   marker-end="url(#b)" /></g></g><g id="az" class="DirectedInteraction" color="#000" ><g color="#000" fill="transparent"  filter="url(#a)" stroke="#000" stroke-dasharray="89.39832054614946, 5.8"><path class="EdgeBody" d="m330.25 371.75 3.7917-6e-14c3.7917 6e-14 11.375 6e-14 15.167-11.792 3.7917-11.792 3.7917-35.375 0.45833-47.167-3.3333-11.792-10-11.792-13.333-11.792h-3.3333"   marker-end="url(#b)" /></g></g><g id="ba" class="DirectedInteraction" color="#000" ><g color="#000" fill="transparent"  filter="url(#a)" stroke="#000" stroke-dasharray="92.61239759298623, 5.8"><path class="EdgeBody" d="m253 336-89-42"   marker-end="url(#b)" /></g></g><g id="bb" class="DirectedInteraction" color="#000" ><g color="#000" fill="transparent"  filter="url(#a)" stroke="#000" stroke-dasharray="53.98271129309112, 5.8"><path class="EdgeBody" d="m330.25 371.75 3.4583-6e-14c3.4583 6e-14 10.375 6e-14 13.833 5.375 3.4583 5.375 3.4583 16.125 0.125 21.5-3.3333 5.375-10 5.375-13.333 5.375l-3.3333 6e-14"   marker-end="url(#b)" /></g></g><g id="bc" class="DirectedInteraction" color="#000" ><g color="#000" fill="transparent"  filter="url(#a)" stroke="#000" stroke-dasharray="147.41879780235843, 5.8"><path class="EdgeBody" d="m333 336 90-124"   marker-end="url(#b)" /></g></g><g class="Label" transform="translate(48,56)" color="#000"  name="Regionalisation"><use class="Icon" width="160" height="20" fill="transparent"  stroke="#000" stroke-width="0" xlink:href="#d"/><text class="Text" transform="translate(80,16)"   font-size="20px"  text-anchor="middle"><tspan x="0" y="0">Regionalisation</tspan></text></g><g class="Label" transform="translate(386,59)" color="#000"  name="Differentiation"><use class="Icon" width="149" height="20" fill="transparent"  stroke="#000" stroke-width="0" xlink:href="#d"/><text class="Text" transform="translate(74.5,16)"   font-size="20px"  text-anchor="middle"><tspan x="0" y="0">Differentiation</tspan></text></g><g class="Label" transform="translate(556,59)" color="#000"  name="Maturation"><use class="Icon" width="116" height="20" fill="transparent"  stroke="#000" stroke-width="0" xlink:href="#d"/><text class="Text" transform="translate(58,16)"   font-size="20px"  text-anchor="middle"><tspan x="0" y="0">Maturation</tspan></text></g><g class="Label" transform="translate(228,59)" color="#000"  name="Specification"><use class="Icon" width="127" height="20" fill="transparent"  stroke="#000" stroke-width="0" xlink:href="#d"/><text class="Text" transform="translate(63.5,16)"   font-size="20px"  text-anchor="middle"><tspan x="0" y="0">Specification</tspan></text></g><a  class="Metabolite ChEBI_CHEBI_15367  " transform="translate(84,384)"   name="Retinoic acid"  ><rect class="Icon" transform="matrix(.98765 0 0 .95238 .49383 .47619)" width="80" height="20" fill="#fff" stroke="#000"/><text class="Text" transform="translate(40,13)"   font-size="10px"  text-anchor="middle"><tspan x="0" y="0">Retinoic acid</tspan></text></a><a  class="GeneProduct NEUROD1 " transform="translate(423,377)"   name="NEUROD1"  ><rect class="Icon" transform="matrix(.98765 0 0 .95238 .49383 .47619)" width="80" height="20" fill="#fff" stroke="#000"/><text class="Text" transform="translate(40,13)"   font-size="10px"  text-anchor="middle"><tspan x="0" y="0">NEUROD1</tspan></text></a><a  class="GeneProduct OTX2 " transform="translate(252,228)"   name="OTX2"  ><rect class="Icon" transform="matrix(.98765 0 0 .95238 .49383 .47619)" width="80" height="20" fill="#fff" stroke="#000"/><text class="Text" transform="translate(40,13)"   font-size="10px"  text-anchor="middle"><tspan x="0" y="0">OTX2</tspan></text></a><a  class="GeneProduct CDKN1C " transform="translate(571,258)"   name="CDKN1C"  ><rect class="Icon" transform="matrix(.98765 0 0 .95238 .49383 .47619)" width="80" height="20" fill="#fff" stroke="#000"/><text class="Text" transform="translate(40,13)"   font-size="10px"  text-anchor="middle"><tspan x="0" y="0">CDKN1C</tspan></text></a><a  class="GeneProduct EN2 " transform="translate(423,134)"   name="EN2"  ><rect class="Icon" transform="matrix(.98765 0 0 .95238 .49383 .47619)" width="80" height="20" fill="#fff" stroke="#000"/><text class="Text" transform="translate(40,13)"   font-size="10px"  text-anchor="middle"><tspan x="0" y="0">EN2</tspan></text></a><a  class="GeneProduct LMX1B " transform="translate(422,168)"   name="LMX1B"  ><rect class="Icon" transform="matrix(.98765 0 0 .95238 .49383 .47619)" width="80" height="20" fill="#fff" stroke="#000"/><text class="Text" transform="translate(40,13)"   font-size="10px"  text-anchor="middle"><tspan x="0" y="0">LMX1B</tspan></text></a><a  class="GeneProduct WNT1 " transform="translate(252,260)"   name="WNT1"  ><rect class="Icon" transform="matrix(.98765 0 0 .95238 .49383 .47619)" width="80" height="20" fill="#fff" stroke="#000"/><text class="Text" transform="translate(40,13)"   font-size="10px"  text-anchor="middle"><tspan x="0" y="0">WNT1</tspan></text></a><a  class="GeneProduct GLI2 " transform="translate(251,163)"   name="GLI2"  ><rect class="Icon" transform="matrix(.98765 0 0 .95238 .49383 .47619)" width="80" height="20" fill="#fff" stroke="#000"/><text class="Text" transform="translate(40,13)"   font-size="10px"  text-anchor="middle"><tspan x="0" y="0">GLI2</tspan></text></a><a  class="GeneProduct NEUROG2 " transform="translate(422,305)"   name="NEUROG2"  ><rect class="Icon" transform="matrix(.98765 0 0 .95238 .49383 .47619)" width="80" height="20" fill="#fff" stroke="#000"/><text class="Text" transform="translate(40,13)"   font-size="10px"  text-anchor="middle"><tspan x="0" y="0">NEUROG2</tspan></text></a><a  class="GeneProduct MSX1 " transform="translate(253,291)"   name="MSX1"  ><rect class="Icon" transform="matrix(.98765 0 0 .95238 .49383 .47619)" width="80" height="20" fill="#fff" stroke="#000"/><text class="Text" transform="translate(40,13)"   font-size="10px"  text-anchor="middle"><tspan x="0" y="0">MSX1</tspan></text></a><a  class="GeneProduct DDC " transform="translate(572,138)"   name="DDC"  ><rect class="Icon" transform="matrix(.98765 0 0 .95238 .49383 .47619)" width="80" height="20" fill="#fff" stroke="#000"/><text class="Text" transform="translate(40,13)"   font-size="10px"  text-anchor="middle"><tspan x="0" y="0">DDC</tspan></text></a><a  class="GeneProduct STAT3 " transform="translate(250.25,361.75)"   name="STAT3"  ><rect class="Icon" transform="matrix(.98765 0 0 .95238 .49383 .47619)" width="80" height="20" fill="#fff" stroke="#000"/><text class="Text" transform="translate(40,13)"   font-size="10px"  text-anchor="middle"><tspan x="0" y="0">STAT3</tspan></text></a><a  class="GeneProduct ALDH1A1 " transform="translate(250.25,102.25)"   name="ALDH1A1"  ><rect class="Icon" transform="matrix(.98765 0 0 .95238 .49383 .47619)" width="80" height="20" fill="#fff" stroke="#000"/><text class="Text" transform="translate(40,13)"   font-size="10px"  text-anchor="middle"><tspan x="0" y="0">ALDH1A1</tspan></text></a><a  class="GeneProduct SLC6A3 " transform="translate(573,172)"   name="SLC6A3"  ><rect class="Icon" transform="matrix(.98765 0 0 .95238 .49383 .47619)" width="80" height="20" fill="#fff" stroke="#000"/><text class="Text" transform="translate(40,13)"   font-size="10px"  text-anchor="middle"><tspan x="0" y="0">SLC6A3</tspan></text></a><a  class="GeneProduct EN1 " transform="translate(84,225)"   name="EN1"  ><rect class="Icon" transform="matrix(.98765 0 0 .95238 .49383 .47619)" width="80" height="20" fill="#fff" stroke="#000"/><text class="Text" transform="translate(40,13)"   font-size="10px"  text-anchor="middle"><tspan x="0" y="0">EN1</tspan></text></a><a  class="GeneProduct -2 NKX2-2 -2 " transform="translate(250,438)"   name="NKX2-2"  ><rect class="Icon" transform="matrix(.98765 0 0 .95238 .49383 .47619)" width="80" height="20" fill="#fff" stroke="#000"/><text class="Text" transform="translate(40,13)"   font-size="10px"  text-anchor="middle"><tspan x="0" y="0">NKX2-2</tspan></text></a><a  class="GeneProduct NR4A2 " transform="translate(423,202)"   name="NR4A2"  ><rect class="Icon" transform="matrix(.98765 0 0 .95238 .49383 .47619)" width="80" height="20" fill="#fff" stroke="#000"/><text class="Text" transform="translate(40,13)"   font-size="10px"  text-anchor="middle"><tspan x="0" y="0">NR4A2</tspan></text></a><a  class="GeneProduct TH " transform="translate(572,105)"   name="TH"  ><rect class="Icon" transform="matrix(.98765 0 0 .95238 .49383 .47619)" width="80" height="20" fill="#fff" stroke="#000"/><text class="Text" transform="translate(40,13)"   font-size="10px"  text-anchor="middle"><tspan x="0" y="0">TH</tspan></text></a><a  class="GeneProduct ASCL1 " transform="translate(423,340)"   name="ASCL1"  ><rect class="Icon" transform="matrix(.98765 0 0 .95238 .49383 .47619)" width="80" height="20" fill="#fff" stroke="#000"/><text class="Text" transform="translate(40,13)"   font-size="10px"  text-anchor="middle"><tspan x="0" y="0">ASCL1</tspan></text></a><a  class="GeneProduct RET " transform="translate(571,287)"   name="RET"  ><rect class="Icon" transform="matrix(.98765 0 0 .95238 .49383 .47619)" width="80" height="20" fill="#fff" stroke="#000"/><text class="Text" transform="translate(40,13)"   font-size="10px"  text-anchor="middle"><tspan x="0" y="0">RET</tspan></text></a><a  class="GeneProduct PITX3 " transform="translate(423.75,271.75)"   name="PITX3"  ><rect class="Icon" transform="matrix(.98765 0 0 .95238 .49383 .47619)" width="80" height="20" fill="#fff" stroke="#000"/><text class="Text" transform="translate(40,13)"   font-size="10px"  text-anchor="middle"><tspan x="0" y="0">PITX3</tspan></text></a><a  class="GeneProduct SLC18A2 " transform="translate(573,202)"   name="SLC18A2"  ><rect class="Icon" transform="matrix(.98765 0 0 .95238 .49383 .47619)" width="80" height="20" fill="#fff" stroke="#000"/><text class="Text" transform="translate(40,13)"   font-size="10px"  text-anchor="middle"><tspan x="0" y="0">SLC18A2</tspan></text></a><a  class="GeneProduct EN2 " transform="translate(83,253)"   name="EN2"  ><rect class="Icon" transform="matrix(.98765 0 0 .95238 .49383 .47619)" width="80" height="20" fill="#fff" stroke="#000"/><text class="Text" transform="translate(40,13)"   font-size="10px"  text-anchor="middle"><tspan x="0" y="0">EN2</tspan></text></a><a  class="GeneProduct LMX1B " transform="translate(84,194)"   name="LMX1B"  ><rect class="Icon" transform="matrix(.98765 0 0 .95238 .49383 .47619)" width="80" height="20" fill="#fff" stroke="#000"/><text class="Text" transform="translate(40,13)"   font-size="10px"  text-anchor="middle"><tspan x="0" y="0">LMX1B</tspan></text></a><a  class="GeneProduct WNT1 " transform="translate(85,349)"   name="WNT1"  ><rect class="Icon" transform="matrix(.98765 0 0 .95238 .49383 .47619)" width="80" height="20" fill="#fff" stroke="#000"/><text class="Text" transform="translate(40,13)"   font-size="10px"  text-anchor="middle"><tspan x="0" y="0">WNT1</tspan></text></a><a  class="GeneProduct FGF8 " transform="translate(84,316)"   name="FGF8"  ><rect class="Icon" transform="matrix(.98765 0 0 .95238 .49383 .47619)" width="80" height="20" fill="#fff" stroke="#000"/><text class="Text" transform="translate(40,13)"   font-size="10px"  text-anchor="middle"><tspan x="0" y="0">FGF8</tspan></text></a><a  class="GeneProduct OTX2 " transform="translate(85,132)"   name="OTX2"  ><rect class="Icon" transform="matrix(.98765 0 0 .95238 .49383 .47619)" width="80" height="20" fill="#fff" stroke="#000"/><text class="Text" transform="translate(40,13)"   font-size="10px"  text-anchor="middle"><tspan x="0" y="0">OTX2</tspan></text></a><a  class="GeneProduct -1 NKX6-1 -1 " transform="translate(424,409)"   name="NKX6-1"  ><rect class="Icon" transform="matrix(.98765 0 0 .95238 .49383 .47619)" width="80" height="20" fill="#fff" stroke="#000"/><text class="Text" transform="translate(40,13)"   font-size="10px"  text-anchor="middle"><tspan x="0" y="0">NKX6-1</tspan></text></a><a  class="GeneProduct PITX3 " transform="translate(571,230)"   name="PITX3"  ><rect class="Icon" transform="matrix(.98765 0 0 .95238 .49383 .47619)" width="80" height="20" fill="#fff" stroke="#000"/><text class="Text" transform="translate(40,13)"   font-size="10px"  text-anchor="middle"><tspan x="0" y="0">PITX3</tspan></text></a><a  class="GeneProduct GBX2 " transform="translate(85,104)"   name="GBX2"  ><rect class="Icon" transform="matrix(.98765 0 0 .95238 .49383 .47619)" width="80" height="20" fill="#fff" stroke="#000"/><text class="Text" transform="translate(40,13)"   font-size="10px"  text-anchor="middle"><tspan x="0" y="0">GBX2</tspan></text></a><a  class="GeneProduct FOXA2 " transform="translate(253,326)"   name="FOXA2"  ><rect class="Icon" transform="matrix(.98765 0 0 .95238 .49383 .47619)" width="80" height="20" fill="#fff" stroke="#000"/><text class="Text" transform="translate(40,13)"   font-size="10px"  text-anchor="middle"><tspan x="0" y="0">FOXA2</tspan></text></a><a  class="GeneProduct EN1 " transform="translate(421,104)"   name="EN1"  ><rect class="Icon" transform="matrix(.98765 0 0 .95238 .49383 .47619)" width="80" height="20" fill="#fff" stroke="#000"/><text class="Text" transform="translate(40,13)"   font-size="10px"  text-anchor="middle"><tspan x="0" y="0">EN1</tspan></text></a><a  class="GeneProduct LMX1A " transform="translate(251,195)"   name="LMX1A"  ><rect class="Icon" transform="matrix(.98765 0 0 .95238 .49383 .47619)" width="80" height="20" fill="#fff" stroke="#000"/><text class="Text" transform="translate(40,13)"   font-size="10px"  text-anchor="middle"><tspan x="0" y="0">LMX1A</tspan></text></a><a  class="GeneProduct GLI1 " transform="translate(251,133)"   name="GLI1"  ><rect class="Icon" transform="matrix(.98765 0 0 .95238 .49383 .47619)" width="80" height="20" fill="#fff" stroke="#000"/><text class="Text" transform="translate(40,13)"   font-size="10px"  text-anchor="middle"><tspan x="0" y="0">GLI1</tspan></text></a><a  class="GeneProduct SHH " transform="translate(84,284)"   name="SHH"  ><rect class="Icon" transform="matrix(.98765 0 0 .95238 .49383 .47619)" width="80" height="20" fill="#fff" stroke="#000"/><text class="Text" transform="translate(40,13)"   font-size="10px"  text-anchor="middle"><tspan x="0" y="0">SHH</tspan></text></a><a  class="GeneProduct SOX2 " transform="translate(251,394)"   name="SOX2"  ><rect class="Icon" transform="matrix(.98765 0 0 .95238 .49383 .47619)" width="80" height="20" fill="#fff" stroke="#000"/><text class="Text" transform="translate(40,13)"   font-size="10px"  text-anchor="middle"><tspan x="0" y="0">SOX2</tspan></text></a><a  class="GeneProduct TGFB1 " transform="translate(84,162)"   name="TGFB1"  ><rect class="Icon" transform="matrix(.98765 0 0 .95238 .49383 .47619)" width="80" height="20" fill="#fff" stroke="#000"/><text class="Text" transform="translate(40,13)"   font-size="10px"  text-anchor="middle"><tspan x="0" y="0">TGFB1</tspan></text></a><a  class="GeneProduct FOXA2 " transform="translate(423,238)"   name="FOXA2"  ><rect class="Icon" transform="matrix(.98765 0 0 .95238 .49383 .47619)" width="80" height="20" fill="#fff" stroke="#000"/><text class="Text" transform="translate(40,13)"   font-size="10px"  text-anchor="middle"><tspan x="0" y="0">FOXA2</tspan></text></a><text class="Text" transform="translate(5,45)" dominant-baseline="central" fill="black"  font-size="12px" font-weight="bold" overflow="visible" ><tspan x="0" y="-27">Name: Dopaminergic neurogenesis</tspan> <tspan x="0" y="-9">License: CC BY 2.0</tspan> <tspan x="0" y="9">Last Modified: 2/21/2013</tspan> <tspan x="0" y="27">Organism: Homo sapiens</tspan></text></g></svg>
