<?xml version="1.0" encoding="UTF-8"?>
<!--
  WikiPathways page: https://www.wikipathways.org/index.php/Pathway:WP2875
  URL for this compressed file: https://github.com/eweitz/cachome/tree/main/data/wikipathways/WP2875.svg
  Source code for compression: https://github.com/eweitz/cachome/tree/main/src/wikipathways.py
-->
<svg class="Diagram" width="800" height="600" color="black" baseProfile="full" prefix="schema:http://schema.org/" preserveAspectRatio="xMidYMid" version="1.1" viewBox="0 0 856.87 1038.1" vocab="http://vocabularies.wikipathways.org/wp#" xmlns="http://www.w3.org/2000/svg" xmlns:xlink="http://www.w3.org/1999/xlink"><style>svg {font-family: 'Liberation Sans', Arial, sans-serif; }</style><defs><filter id="f" x="-50%" y="-50%" width="200%" height="200%"><feComposite in="SourceGraphic" in2="SourceGraphic" result="doubleDark"/><feMorphology in="doubleDark" operator="dilate" radius="0.16666666666666666" result="in2Double"/><feMorphology in="SourceGraphic" operator="dilate" radius="3" result="inDouble"/><feComposite in="inDouble" in2="in2Double" operator="out" result="doubleResult"/></filter><filter id="b" x="0" y="0" width="856.87" height="1038.1" filterUnits="userSpaceOnUse"><feColorMatrix in="SourceGraphic" values="-1   0   0 0 0                   0  -1   0 0 0                   0   0  -1 0 0                   0   0   0 1 0"/></filter><marker id="e" stroke-dasharray="99999" markerHeight="12" markerUnits="userSpaceOnUse" markerWidth="12" orient="auto" preserveAspectRatio="none" refX="12" refY="6" viewBox="0 0 12 12"><path transform="rotate(180 6 6)" d="M12 11L0 6l12-5z" fill="currentColor" stroke-width="0"/></marker><marker id="g" stroke-dasharray="99999" markerHeight="12" markerUnits="userSpaceOnUse" markerWidth="12" orient="auto" preserveAspectRatio="none" refX="12" refY="6" viewBox="0 0 12 12"><path transform="rotate(180 6 6)" d="M12 12L0 6l12-6-7 6z" fill="currentColor" stroke-width="0"/></marker><marker id="d" stroke-dasharray="99999" markerHeight="12" markerUnits="userSpaceOnUse" markerWidth="12" orient="auto" preserveAspectRatio="none" refX="12" refY="6" viewBox="0 0 12 12"><path transform="rotate(180 6 6)" d="M12 11L0 6l12-5z" fill="currentColor" stroke-width="0"/></marker><symbol id="h" overflow="visible" preserveAspectRatio="none" viewBox="0 0 50 50"><ellipse cx="25" cy="25" rx="25" ry="25" stroke="currentColor" vector-effect="non-scaling-stroke"/></symbol><symbol id="c" overflow="visible" preserveAspectRatio="none" viewBox="0 0 100 100"><path d="M0 25L25 0h50l25 25v50l-25 25H25L0 75z" stroke="currentColor" vector-effect="non-scaling-stroke"/></symbol><symbol id="a" preserveAspectRatio="none" viewBox="0 0 100 100"/></defs><g class="Viewport" color="black"  name="Name: Constitutive androstane receptor pathway Organism: Homo sapiens"><rect class="Icon" width="856.87" height="1038.1" fill="#fff" stroke="#000" stroke-width="0"/><g id="i" class="Edge GraphicalLine" color="#000" ><g color="#000" fill="transparent"  filter="url(#b)" stroke="#000" stroke-dasharray="29.084812003634653, 0"><path class="EdgeBody" d="m360.2 722.89 0.41545 29.082"   /></g></g><g id="j" class="Interaction" color="#000" ><g color="#000" fill="transparent"  filter="url(#b)" stroke="#000" stroke-dasharray="89.58524277107222, 1"><path class="EdgeBody" d="m172.23 107.84 2e-14 90.585"   marker-end="url(#g)" /></g></g><g id="k" class="Interaction" color="#000" ><g color="#000" fill="transparent"  filter="url(#b)" stroke="#000" stroke-dasharray="50.32515800904896, 5.8"><path class="EdgeBody" d="m172.23 271.29 6e-14 56.125"   marker-end="url(#d)" /></g><g class="Burr Anchor" transform="translate(172.23 293.74)" ><use class="Icon" width="0" height="0" fill="#141414" stroke-width="0" xlink:href="#a"/></g></g><g id="l" class="Interaction" color="#000" ><g color="#000" fill="transparent"  filter="url(#b)" stroke="#000" stroke-dasharray="111.4816397570532, 5.8"><path class="EdgeBody" d="m172.23 293.74 116.24 15.561"   marker-end="url(#d)" /></g></g><g id="m" class="DirectedInteraction" color="#000" ><g color="#000" fill="transparent"  filter="url(#b)" stroke="#000" stroke-dasharray="283.5251021304089, 5.8"><path class="EdgeBody" d="m172.23 391.41-1.8887 289.32"   marker-end="url(#e)" /></g><g class="Burr Anchor" transform="translate(170.71 624.53)" ><use class="Icon" width="0" height="0" fill="#141414" stroke-width="0" xlink:href="#a"/></g></g><g id="n" class="Interaction" color="#000" ><g color="#000" fill="transparent"  filter="url(#b)" stroke="#000" stroke-dasharray="109.3617585357875, 0"><path class="EdgeBody" d="m276.65 597.38-105.94 27.15"   /></g></g><g class="SingleFreeNode Shape PhysicalEntity CellularComponent Cell" transform="translate(19.237 161.51)" color="#c0c0c0" ><g fill="transparent"  filter="url(#f)" stroke="#c0c0c0" stroke-width="3"><rect class="Icon" transform="matrix(.98539 0 0 .98605 5.9123 5.9163)" width="809.13" height="848.05" rx="15" ry="15"   /></g></g><g class="SingleFreeNode Shape PhysicalEntity CellularComponent Nucleus" transform="translate(27.144 470.56)" color="#c0c0c0" ><g fill="transparent"  filter="url(#f)" stroke="#c0c0c0" stroke-width="3"><use class="Icon" transform="matrix(.98386 0 0 .97772 5.9032 5.8663)" width="731.4693486590036" height="526.6414337123028"    xlink:href="#h"/></g></g><a class="ChEBI_CHEBI_77326 Metabolite  " transform="translate(132.23 87.839)" color="#00f"  name="Ligand"  ><rect class="Icon" transform="matrix(.98765 0 0 .95238 .49383 .47619)" width="80" height="20" fill="#fff" stroke="#00f"/><text class="Text" transform="translate(40 13)" fill="#00f"  font-size="10px"  text-anchor="middle"><tspan x="0" y="0">Ligand</tspan></text></a><g class="Label" transform="translate(448.52 747.09)" color="#000"  name="Drug and steroid metabolism"><use class="Icon" width="80" height="20" fill="transparent"  stroke="#000" stroke-width="0" xlink:href="#a"/><text class="Text" transform="translate(40,13)"   font-size="10px"  text-anchor="middle"><tspan x="0" y="0">Drug and steroid metabolism</tspan></text></g><g class="Label" transform="translate(441.57 611.64)" color="#000"  name="Multi-drug resistance"><use class="Icon" width="80" height="20" fill="transparent"  stroke="#000" stroke-width="0" xlink:href="#a"/><text class="Text" transform="translate(40,13)"   font-size="10px"  text-anchor="middle"><tspan x="0" y="0">Multi-drug resistance</tspan></text></g><g class="Label" transform="translate(392.95 712.36)" color="#000"  name="Transcription"><use class="Icon" width="80" height="20" fill="transparent"  stroke="#000" stroke-width="0" xlink:href="#a"/><text class="Text" transform="translate(40,13)"   font-size="10px"  text-anchor="middle"><tspan x="0" y="0">Transcription</tspan></text></g><g class="Label" transform="translate(548.07 603.54)" color="#000"  name="Phase 2 metabolism"><use class="Icon" width="80" height="20" fill="transparent"  stroke="#000" stroke-width="0" xlink:href="#a"/><text class="Text" transform="translate(40,13)"   font-size="10px"  text-anchor="middle"><tspan x="0" y="0">Phase 2 metabolism</tspan></text></g><g class="Label" transform="translate(546.92 738.98)" color="#000"  name="Other"><use class="Icon" width="80" height="20" fill="transparent"  stroke="#000" stroke-width="0" xlink:href="#a"/><text class="Text" transform="translate(40,13)"   font-size="10px"  text-anchor="middle"><tspan x="0" y="0">Other</tspan></text></g><a  class="GeneProduct RXRA " transform="translate(236.65 577.38)"   name="RXRA"  ><rect class="Icon" transform="matrix(.98765 0 0 .95238 .49383 .47619)" width="80" height="20" fill="#fff" stroke="#000"/><text class="Text" transform="translate(40,13)"   font-size="10px"  text-anchor="middle"><tspan x="0" y="0">RXRA</tspan></text></a><a class="GeneProduct PTPA " transform="translate(200.19 435.21)" color="#3333ff"  name="PPP2R4"  ><rect class="Icon" transform="matrix(.98765 0 0 .95238 .49383 .47619)" width="80" height="20" fill="#fff" stroke="#33f"/><text class="Text" transform="translate(40,13)" fill="#3333ff"  font-size="10px"  text-anchor="middle"><tspan x="0" y="0">PPP2R4</tspan></text></a><g class="GroupComplex" transform="translate(120.23 186.42)" color="grey" ><use class="Icon" transform="matrix(.99048 0 0 .98835 .49524 .49418)" width="104" height="84.86383759853146" fill="#b4b464" fill-opacity=".1" stroke="grey" xlink:href="#c"/><a  class="GeneProduct NR1I3 " transform="translate(12,12)"   name="NR1I3"  ><rect class="Icon" transform="matrix(.98765 0 0 .95238 .49383 .47619)" width="80" height="20" fill="#fff" stroke="#000"/><text class="Text" transform="translate(40,13)"   font-size="10px"  text-anchor="middle"><tspan x="0" y="0">NR1I3</tspan></text></a><a  class="GeneProduct HSP90AA1 " transform="translate(12 32.864)"   name="HSP90AA1"  ><rect class="Icon" transform="matrix(.98765 0 0 .95238 .49383 .47619)" width="80" height="20" fill="#fff" stroke="#000"/><text class="Text" transform="translate(40,13)"   font-size="10px"  text-anchor="middle"><tspan x="0" y="0">HSP90AA1</tspan></text></a><a  class="GeneProduct DNAJC7 " transform="translate(12 52.864)"   name="DNAJC7"  ><rect class="Icon" transform="matrix(.98765 0 0 .95238 .49383 .47619)" width="80" height="20" fill="#fff" stroke="#000"/><text class="Text" transform="translate(40,13)"   font-size="10px"  text-anchor="middle"><tspan x="0" y="0">DNAJC7</tspan></text></a></g><g class="GroupComplex" transform="translate(120.23 327.41)" color="grey" ><use class="Icon" transform="matrix(.99048 0 0 .98462 .49524 .49231)" width="104.00000000000006" height="63.99999999999994" fill="#b4b464" fill-opacity=".1" stroke="grey" xlink:href="#c"/><a  class="GeneProduct NR1I3 " transform="translate(12 32)"   name="NR1I3"  ><rect class="Icon" transform="matrix(.98765 0 0 .95238 .49383 .47619)" width="80" height="20" fill="#fff" stroke="#000"/><text class="Text" transform="translate(40,13)"   font-size="10px"  text-anchor="middle"><tspan x="0" y="0">NR1I3</tspan></text></a><a class="ChEBI_CHEBI_77326 Metabolite  " transform="translate(12,12)" color="#00f"  name="Ligand"  ><rect class="Icon" transform="matrix(.98765 0 0 .95238 .49383 .47619)" width="80" height="20" fill="#fff" stroke="#00f"/><text class="Text" transform="translate(40 13)" fill="#00f"  font-size="10px"  text-anchor="middle"><tspan x="0" y="0">Ligand</tspan></text></a></g><g class="GroupComplex" transform="translate(288.48 277.3)" color="grey" ><use class="Icon" transform="matrix(.99048 0 0 .98462 .49524 .49231)" width="104" height="64.00000000000006" fill="#b4b464" fill-opacity=".1" stroke="grey" xlink:href="#c"/><a  class="GeneProduct HSP90AA1 " transform="translate(12,12)"   name="HSP90AA1"  ><rect class="Icon" transform="matrix(.98765 0 0 .95238 .49383 .47619)" width="80" height="20" fill="#fff" stroke="#000"/><text class="Text" transform="translate(40,13)"   font-size="10px"  text-anchor="middle"><tspan x="0" y="0">HSP90AA1</tspan></text></a><a  class="GeneProduct DNAJC7 " transform="translate(12 32)"   name="DNAJC7"  ><rect class="Icon" transform="matrix(.98765 0 0 .95238 .49383 .47619)" width="80" height="20" fill="#fff" stroke="#000"/><text class="Text" transform="translate(40,13)"   font-size="10px"  text-anchor="middle"><tspan x="0" y="0">DNAJC7</tspan></text></a></g><g id="o" class="Edge GraphicalLine" color="#000" ><g color="#000" fill="transparent"  filter="url(#b)" stroke="#000" stroke-dasharray="268.09494385492576, 0"><path class="EdgeBody" d="m148.09 752.29h268.09"   /></g></g><g id="p" class="Edge GraphicalLine DirectedInteraction" color="#000" ><g color="#000" fill="transparent"  filter="url(#b)" stroke="#000" stroke-dasharray="27.368562249460258, 5.8"><path class="EdgeBody" d="m359.79 722.94 33.163-0.58572"   marker-end="url(#e)" /></g></g><g id="q" class="Edge GraphicalLine" color="#000" ><g color="#000" fill="transparent"  filter="url(#b)" stroke="#000" stroke-dasharray="268.62364884069285, 0"><path class="EdgeBody" d="m147.56 768.77 268.62-0.34063"   /></g></g><g class="Label" transform="translate(367.11 752.7)" color="#000"  name="Genes"><rect class="Icon" transform="matrix(.98018 0 0 .94058 .49009 .47029)" width="49.466" height="15.829" fill="#fff" stroke="#000"/><text class="Text" transform="translate(24.733 10.915)"   font-size="10px"  text-anchor="middle"><tspan x="0" y="0">Genes</tspan></text></g><g class="Label" transform="translate(262.29 752.57)" color="#000"  name="TATA box"><rect class="Icon" transform="matrix(.98018 0 0 .94059 .49009 .47029)" width="49.466" height="15.831" fill="#fff" stroke="#000"/><text class="Text" transform="translate(24.733 10.916)"   font-size="10px"  text-anchor="middle"><tspan x="0" y="0">TATA box</tspan></text></g><g class="GroupComplex" transform="translate(118.34 680.73)" color="grey" ><use class="Icon" transform="matrix(.99048 0 0 .99008 .49524 .49504)" width="104.00000000000003" height="99.83113456464366" fill="#b4b464" fill-opacity=".1" stroke="grey" xlink:href="#c"/><g class="Label" transform="translate(27.267 72)" color="#000"  name="PBREM"><rect class="Icon" transform="matrix(.98018 0 0 .94059 .49009 .47029)" width="49.466" height="15.831" fill="#fff" stroke="#000"/><text class="Text" transform="translate(24.733 10.916)"   font-size="10px"  text-anchor="middle"><tspan x="0" y="0">PBREM</tspan></text></g><a  class="GeneProduct RXRA " transform="translate(12 52)"   name="RXRA"  ><rect class="Icon" transform="matrix(.98765 0 0 .95238 .49383 .47619)" width="80" height="20" fill="#fff" stroke="#000"/><text class="Text" transform="translate(40,13)"   font-size="10px"  text-anchor="middle"><tspan x="0" y="0">RXRA</tspan></text></a><a  class="GeneProduct NR1I3 " transform="translate(12 32)"   name="NR1I3"  ><rect class="Icon" transform="matrix(.98765 0 0 .95238 .49383 .47619)" width="80" height="20" fill="#fff" stroke="#000"/><text class="Text" transform="translate(40,13)"   font-size="10px"  text-anchor="middle"><tspan x="0" y="0">NR1I3</tspan></text></a><a class="ChEBI_CHEBI_77326 Metabolite  " transform="translate(12,12)" color="#00f"  name="Ligand"  ><rect class="Icon" transform="matrix(.98765 0 0 .95238 .49383 .47619)" width="80" height="20" fill="#fff" stroke="#00f"/><text class="Text" transform="translate(40 13)" fill="#00f"  font-size="10px"  text-anchor="middle"><tspan x="0" y="0">Ligand</tspan></text></a></g><g class="GroupGroup" transform="translate(239.88 774.57)" color="grey" ><use class="Icon" width="96.00000000000057" height="158.4047796863324" fill="transparent"  stroke="grey" stroke-dasharray="5,3" stroke-width="0" xlink:href="#a"/><a  class="GeneProduct NCOA6 " transform="translate(8 70.405)"   name="NCOA6"  ><rect class="Icon" transform="matrix(.98765 0 0 .95238 .49383 .47619)" width="80" height="20" fill="#fff" stroke="#000"/><text class="Text" transform="translate(40,13)"   font-size="10px"  text-anchor="middle"><tspan x="0" y="0">NCOA6</tspan></text></a><a  class="GeneProduct SP1 " transform="translate(8 130.4)"   name="SP1"  ><rect class="Icon" transform="matrix(.98765 0 0 .95238 .49383 .47619)" width="80" height="20" fill="#fff" stroke="#000"/><text class="Text" transform="translate(40,13)"   font-size="10px"  text-anchor="middle"><tspan x="0" y="0">SP1</tspan></text></a><a  class="GeneProduct NCOA1 " transform="translate(8 30.405)"   name="NCOA1"  ><rect class="Icon" transform="matrix(.98765 0 0 .95238 .49383 .47619)" width="80" height="20" fill="#fff" stroke="#000"/><text class="Text" transform="translate(40,13)"   font-size="10px"  text-anchor="middle"><tspan x="0" y="0">NCOA1</tspan></text></a><a  class="GeneProduct PPARGC1A " transform="translate(8 110.4)"   name="PPARGC1A"  ><rect class="Icon" transform="matrix(.98765 0 0 .95238 .49383 .47619)" width="80" height="20" fill="#fff" stroke="#000"/><text class="Text" transform="translate(40,13)"   font-size="10px"  text-anchor="middle"><tspan x="0" y="0">PPARGC1A</tspan></text></a><a  class="GeneProduct NCOA2 " transform="translate(8 50.405)"   name="NCOA2"  ><rect class="Icon" transform="matrix(.98765 0 0 .95238 .49383 .47619)" width="80" height="20" fill="#fff" stroke="#000"/><text class="Text" transform="translate(40,13)"   font-size="10px"  text-anchor="middle"><tspan x="0" y="0">NCOA2</tspan></text></a><a  class="GeneProduct SMC1A " transform="translate(8 90.405)"   name="SMC1A"  ><rect class="Icon" transform="matrix(.98765 0 0 .95238 .49383 .47619)" width="80" height="20" fill="#fff" stroke="#000"/><text class="Text" transform="translate(40,13)"   font-size="10px"  text-anchor="middle"><tspan x="0" y="0">SMC1A</tspan></text></a><g class="Label" transform="translate(8.4182 8)" color="#000"  name="Coregulators"><use class="Icon" width="79.16355489171035" height="22.40477968633298" fill="transparent"  stroke="#000" stroke-width="0" xlink:href="#a"/><text class="Text" transform="translate(39.582 14.202)"   font-size="10px"  text-anchor="middle"><tspan x="0" y="0">Coregulators</tspan></text></g></g><g class="Label" transform="translate(472.18 562.98)" color="#666666"  name="CAR target genes"><use class="Icon" width="117.25452812202093" height="20.972354623450897" fill="transparent"  stroke="#666666" stroke-width="0" xlink:href="#a"/><text class="Text" transform="translate(58.627 14.486)" fill="#666666"  font-size="12px" font-weight="bold"  text-anchor="middle"><tspan x="0" y="0">CAR target genes</tspan></text></g><g class="GroupGroup" transform="translate(435.54 767.93)" color="grey" ><use class="Icon" width="95.99999999999994" height="156" fill="transparent"  stroke="grey" stroke-dasharray="5,3" stroke-width="0" xlink:href="#a"/><a  class="GeneProduct CYP2C9 " transform="translate(8 48)"   name="CYP2C9"  ><rect class="Icon" transform="matrix(.98765 0 0 .95238 .49383 .47619)" width="80" height="20" fill="#fff" stroke="#000"/><text class="Text" transform="translate(40,13)"   font-size="10px"  text-anchor="middle"><tspan x="0" y="0">CYP2C9</tspan></text></a><a  class="GeneProduct CYP2A6 " transform="translate(8,8)"   name="CYP2A6"  ><rect class="Icon" transform="matrix(.98765 0 0 .95238 .49383 .47619)" width="80" height="20" fill="#fff" stroke="#000"/><text class="Text" transform="translate(40,13)"   font-size="10px"  text-anchor="middle"><tspan x="0" y="0">CYP2A6</tspan></text></a><a  class="GeneProduct CYP2C19 " transform="translate(8 68)"   name="CYP2C19"  ><rect class="Icon" transform="matrix(.98765 0 0 .95238 .49383 .47619)" width="80" height="20" fill="#fff" stroke="#000"/><text class="Text" transform="translate(40,13)"   font-size="10px"  text-anchor="middle"><tspan x="0" y="0">CYP2C19</tspan></text></a><a  class="GeneProduct GSTA2 " transform="translate(8,128)"   name="GSTA2"  ><rect class="Icon" transform="matrix(.98765 0 0 .95238 .49383 .47619)" width="80" height="20" fill="#fff" stroke="#000"/><text class="Text" transform="translate(40,13)"   font-size="10px"  text-anchor="middle"><tspan x="0" y="0">GSTA2</tspan></text></a><a  class="GeneProduct CYP3A5 " transform="translate(8,108)"   name="CYP3A5"  ><rect class="Icon" transform="matrix(.98765 0 0 .95238 .49383 .47619)" width="80" height="20" fill="#fff" stroke="#000"/><text class="Text" transform="translate(40,13)"   font-size="10px"  text-anchor="middle"><tspan x="0" y="0">CYP3A5</tspan></text></a><a  class="GeneProduct CYP3A4 " transform="translate(8 88)"   name="CYP3A4"  ><rect class="Icon" transform="matrix(.98765 0 0 .95238 .49383 .47619)" width="80" height="20" fill="#fff" stroke="#000"/><text class="Text" transform="translate(40,13)"   font-size="10px"  text-anchor="middle"><tspan x="0" y="0">CYP3A4</tspan></text></a><a  class="GeneProduct CYP2B6 " transform="translate(8,28)"   name="CYP2B6"  ><rect class="Icon" transform="matrix(.98765 0 0 .95238 .49383 .47619)" width="80" height="20" fill="#fff" stroke="#000"/><text class="Text" transform="translate(40,13)"   font-size="10px"  text-anchor="middle"><tspan x="0" y="0">CYP2B6</tspan></text></a></g><g class="GroupGroup" transform="translate(436.19 634.05)" color="grey" ><use class="Icon" width="96" height="75.99999999999977" fill="transparent"  stroke="grey" stroke-dasharray="5,3" stroke-width="0" xlink:href="#a"/><a  class="GeneProduct ABCB1 " transform="translate(8 48)"   name="ABCB1"  ><rect class="Icon" transform="matrix(.98765 0 0 .95238 .49383 .47619)" width="80" height="20" fill="#fff" stroke="#000"/><text class="Text" transform="translate(40,13)"   font-size="10px"  text-anchor="middle"><tspan x="0" y="0">ABCB1</tspan></text></a><a  class="GeneProduct ABCC2 " transform="translate(8,8)"   name="ABCC2"  ><rect class="Icon" transform="matrix(.98765 0 0 .95238 .49383 .47619)" width="80" height="20" fill="#fff" stroke="#000"/><text class="Text" transform="translate(40,13)"   font-size="10px"  text-anchor="middle"><tspan x="0" y="0">ABCC2</tspan></text></a><a  class="GeneProduct ABCC3 " transform="translate(8 28)"   name="ABCC3"  ><rect class="Icon" transform="matrix(.98765 0 0 .95238 .49383 .47619)" width="80" height="20" fill="#fff" stroke="#000"/><text class="Text" transform="translate(40,13)"   font-size="10px"  text-anchor="middle"><tspan x="0" y="0">ABCC3</tspan></text></a></g><g class="GroupGroup" transform="translate(541.25 624.89)" color="grey" ><use class="Icon" width="96.00000000000011" height="115.99999999999989" fill="transparent"  stroke="grey" stroke-dasharray="5,3" stroke-width="0" xlink:href="#a"/><a  class="GeneProduct UGT1A1 " transform="translate(8,8)"   name="UGT1A1"  ><rect class="Icon" transform="matrix(.98765 0 0 .95238 .49383 .47619)" width="80" height="20" fill="#fff" stroke="#000"/><text class="Text" transform="translate(40,13)"   font-size="10px"  text-anchor="middle"><tspan x="0" y="0">UGT1A1</tspan></text></a><a  class="GeneProduct UGT1A4 " transform="translate(8 48)"   name="UGT1A4"  ><rect class="Icon" transform="matrix(.98765 0 0 .95238 .49383 .47619)" width="80" height="20" fill="#fff" stroke="#000"/><text class="Text" transform="translate(40,13)"   font-size="10px"  text-anchor="middle"><tspan x="0" y="0">UGT1A4</tspan></text></a><a  class="GeneProduct UGT1A6 " transform="translate(8,68)"   name="UGT1A6"  ><rect class="Icon" transform="matrix(.98765 0 0 .95238 .49383 .47619)" width="80" height="20" fill="#fff" stroke="#000"/><text class="Text" transform="translate(40,13)"   font-size="10px"  text-anchor="middle"><tspan x="0" y="0">UGT1A6</tspan></text></a><a  class="GeneProduct UGT1A9 " transform="translate(8 88)"   name="UGT1A9"  ><rect class="Icon" transform="matrix(.98765 0 0 .95238 .49383 .47619)" width="80" height="20" fill="#fff" stroke="#000"/><text class="Text" transform="translate(40,13)"   font-size="10px"  text-anchor="middle"><tspan x="0" y="0">UGT1A9</tspan></text></a><g class="GeneProduct UGT1A3 " transform="translate(8,28)" color="#000"  name="UGT1A3"><rect class="Icon" transform="matrix(.98765 0 0 .95238 .49383 .47619)" width="80" height="20" fill="#fff" stroke="#000"/><text class="Text" transform="translate(40,13)"   font-size="10px"  text-anchor="middle"><tspan x="0" y="0">UGT1A3</tspan></text></g></g><g class="GroupGroup" transform="translate(543.23 759.17)" color="grey" ><use class="Icon" width="96.00000000000011" height="135.99999999999932" fill="transparent"  stroke="grey" stroke-dasharray="5,3" stroke-width="0" xlink:href="#a"/><a  class="GeneProduct CYP4A11 " transform="translate(8 8)"   name="CYP4A11"  ><rect class="Icon" transform="matrix(.98765 0 0 .95238 .49383 .47619)" width="80" height="20" fill="#fff" stroke="#000"/><text class="Text" transform="translate(40,13)"   font-size="10px"  text-anchor="middle"><tspan x="0" y="0">CYP4A11</tspan></text></a><a  class="GeneProduct SULT1A1 " transform="translate(8 48)"   name="SULT1A1"  ><rect class="Icon" transform="matrix(.98765 0 0 .95238 .49383 .47619)" width="80" height="20" fill="#fff" stroke="#000"/><text class="Text" transform="translate(40,13)"   font-size="10px"  text-anchor="middle"><tspan x="0" y="0">SULT1A1</tspan></text></a><a  class="GeneProduct SULT2A1 " transform="translate(8 68)"   name="SULT2A1"  ><rect class="Icon" transform="matrix(.98765 0 0 .95238 .49383 .47619)" width="80" height="20" fill="#fff" stroke="#000"/><text class="Text" transform="translate(40,13)"   font-size="10px"  text-anchor="middle"><tspan x="0" y="0">SULT2A1</tspan></text></a><a  class="GeneProduct ALAS1 " transform="translate(8 88)"   name="ALAS1"  ><rect class="Icon" transform="matrix(.98765 0 0 .95238 .49383 .47619)" width="80" height="20" fill="#fff" stroke="#000"/><text class="Text" transform="translate(40,13)"   font-size="10px"  text-anchor="middle"><tspan x="0" y="0">ALAS1</tspan></text></a><a  class="GeneProduct EHHADH " transform="translate(8 28)"   name="EHHADH"  ><rect class="Icon" transform="matrix(.98765 0 0 .95238 .49383 .47619)" width="80" height="20" fill="#fff" stroke="#000"/><text class="Text" transform="translate(40,13)"   font-size="10px"  text-anchor="middle"><tspan x="0" y="0">EHHADH</tspan></text></a><a  class="GeneProduct FOXO1 " transform="translate(8 108)"   name="FOXO1"  ><rect class="Icon" transform="matrix(.98765 0 0 .95238 .49383 .47619)" width="80" height="20" fill="#fff" stroke="#000"/><text class="Text" transform="translate(40,13)"   font-size="10px"  text-anchor="middle"><tspan x="0" y="0">FOXO1</tspan></text></a></g><text class="Text" transform="translate(5,27)" dominant-baseline="central" fill="black"  font-size="12px" font-weight="bold" overflow="visible" ><tspan x="0" y="-9">Name: Constitutive androstane receptor pathway</tspan> <tspan x="0" y="9">Organism: Homo sapiens</tspan></text></g></svg>
