<?xml version="1.0" encoding="UTF-8"?>
<!--
  WikiPathways page: https://www.wikipathways.org/index.php/Pathway:WP2864
  URL for this compressed file: https://github.com/eweitz/cachome/tree/main/data/wikipathways/WP2864.svg
  Source code for compression: https://github.com/eweitz/cachome/tree/main/src/wikipathways.py
-->
<svg class="Diagram" width="800" height="600" color="black" baseProfile="full" prefix="schema:http://schema.org/" preserveAspectRatio="xMidYMid" version="1.1" viewBox="0 0 925.17 788.94" vocab="http://vocabularies.wikipathways.org/wp#" xmlns="http://www.w3.org/2000/svg" xmlns:xlink="http://www.w3.org/1999/xlink"><style>svg {font-family: 'Liberation Sans', Arial, sans-serif; }</style><defs><filter id="a" x="0" y="0" width="925.17" height="788.94" filterUnits="userSpaceOnUse"><feColorMatrix in="SourceGraphic" values="-1   0   0 0 0                   0  -1   0 0 0                   0   0  -1 0 0                   0   0   0 1 0"/></filter><marker id="c" stroke-dasharray="99999" markerHeight="12" markerUnits="userSpaceOnUse" markerWidth="12" orient="auto" preserveAspectRatio="none" refY="6" viewBox="0 0 12 12"><path d="M12 11L0 6l12-5z" fill="currentColor" stroke-width="0"/></marker><marker id="b" stroke-dasharray="99999" markerHeight="12" markerUnits="userSpaceOnUse" markerWidth="12" orient="auto" preserveAspectRatio="none" refX="12" refY="6" viewBox="0 0 12 12"><path transform="rotate(180 6 6)" d="M12 11L0 6l12-5z" fill="currentColor" stroke-width="0"/></marker></defs><g class="Viewport" color="black"  name="Name: Apoptosis-related network due to altered Notch3 in ovarian cancer Organism: Homo sapiens"><rect class="Icon" width="925.17" height="788.94" fill="#fff" stroke="#000" stroke-width="0"/><g id="d" class="Interaction" color="#000" ><g color="#000" fill="transparent"  filter="url(#a)" stroke="#000" stroke-dasharray="73.11388804461161, 0"><path class="EdgeBody" d="m547.42 85.686-57.625 45"   /></g></g><g id="e" class="Interaction" color="#000" ><g color="#000" fill="transparent"  filter="url(#a)" stroke="#000" stroke-dasharray="71.32049630678021, 0"><path class="EdgeBody" d="m453.3 303.69 12.5-70.217"   /></g></g><g id="f" class="DirectedInteraction" color="#000" ><g color="#000" fill="transparent"  filter="url(#a)" stroke="#000" stroke-dasharray="151.4935154416735, 5.8"><path class="EdgeBody" d="m453.3 303.69 36.5-153"   marker-end="url(#b)" /></g></g><g id="g" class="Interaction" color="#000" ><g color="#000" fill="transparent"  filter="url(#a)" stroke="#000" stroke-dasharray="102.37486602406594, 0"><path class="EdgeBody" d="m465.8 233.47 74.5 70.217"   /></g></g><g id="h" class="Interaction" color="#000" ><g color="#000" fill="transparent"  filter="url(#a)" stroke="#000" stroke-dasharray="28, 0"><path class="EdgeBody" d="m484.17 313.69h28"   /></g></g><g id="i" class="Interaction" color="#000" ><g color="#000" fill="transparent"  filter="url(#a)" stroke="#000" stroke-dasharray="136.46336504718028, 0"><path class="EdgeBody" d="m581.8 173.69-41.5 130"   /></g></g><g id="j" class="Interaction" color="#000" ><g color="#000" fill="transparent"  filter="url(#a)" stroke="#000" stroke-dasharray="31.923003069886672, 0"><path class="EdgeBody" d="m682.42 109.81 28.75 13.875"   /></g></g><g id="k" class="Interaction" color="#000" ><g color="#000" fill="transparent"  filter="url(#a)" stroke="#000" stroke-dasharray="210.59307065107816, 0"><path class="EdgeBody" d="m656.8 119.69-102.44 184"   /></g></g><g id="l" class="Interaction" color="#000" ><g color="#000" fill="transparent"  filter="url(#a)" stroke="#000" stroke-dasharray="250.46557429365416, 0"><path class="EdgeBody" d="m738.3 133.69-183.94 170"   /></g></g><g id="m" class="Interaction" color="#000" ><g color="#000" fill="transparent"  filter="url(#a)" stroke="#000" stroke-dasharray="25.466890269524466, 0"><path class="EdgeBody" d="m765.42 123.69 24.75 6"   /></g></g><g id="n" class="Interaction" color="#000" ><g color="#000" fill="transparent"  filter="url(#a)" stroke="#000" stroke-dasharray="321.8005010872419, 0"><path class="EdgeBody" d="m800.17 216.69-266.75 180"   /></g></g><g id="o" class="Interaction" color="#000" ><g color="#000" fill="transparent"  filter="url(#a)" stroke="#000" stroke-dasharray="175.85505395068984, 0"><path class="EdgeBody" d="m644.8 277.69-138 109"   /></g></g><g id="p" class="Interaction" color="#000" ><g color="#000" fill="transparent"  filter="url(#a)" stroke="#000" stroke-dasharray="166.07382582755187, 0"><path class="EdgeBody" d="m615.42 267.69-162.13 36"   /></g></g><g id="q" class="Interaction" color="#000" ><g color="#000" fill="transparent"  filter="url(#a)" stroke="#000" stroke-dasharray="101, 0"><path class="EdgeBody" d="m644.8 277.69v101"   /></g></g><g id="r" class="Interaction" color="#000" ><g color="#000" fill="transparent"  filter="url(#a)" stroke="#000" stroke-dasharray="276.96581467755186, 0"><path class="EdgeBody" d="m787.17 285.69-253.75 111"   /></g></g><g id="s" class="Interaction" color="#000" ><g color="#000" fill="transparent"  filter="url(#a)" stroke="#000" stroke-dasharray="107.27097696954195, 0"><path class="EdgeBody" d="m568.42 313.69 105.75 18"   /></g></g><g id="t" class="Interaction" color="#000" ><g color="#000" fill="transparent"  filter="url(#a)" stroke="#000" stroke-dasharray="62.87698804014072, 0"><path class="EdgeBody" d="m698.17 341.69 38.125 50"   /></g></g><g id="u" class="Interaction" color="#000" ><g color="#000" fill="transparent"  filter="url(#a)" stroke="#000" stroke-dasharray="46.60002682402651, 0"><path class="EdgeBody" d="m666.42 388.69 44.75 13"   /></g></g><g id="v" class="Interaction" color="#000" ><g color="#000" fill="transparent"  filter="url(#a)" stroke="#000" stroke-dasharray="156.55110986511733, 0"><path class="EdgeBody" d="m736.3 411.69-56.5 146"   /></g></g><g id="w" class="DirectedInteraction" color="#000" ><g color="#000" fill="transparent"  filter="url(#a)" stroke="#000" stroke-dasharray="81.5284031687286, 5.8"><path class="EdgeBody" d="m679.8 557.69 61.5-62"   marker-end="url(#b)" /></g></g><g id="x" class="DirectedInteraction" color="#000" ><g color="#000" fill="transparent"  filter="url(#a)" stroke="#000" stroke-dasharray="166.97604724035105, 5.8"><path class="EdgeBody" d="m547.42 543.69 162.75-58"   marker-end="url(#b)" /></g></g><g id="y" class="Interaction" color="#000" ><g color="#000" fill="transparent"  filter="url(#a)" stroke="#000" stroke-dasharray="115.43396380615205, 0"><path class="EdgeBody" d="m506.8 406.69 94 67"   /></g></g><g id="z" class="DirectedInteraction" color="#000" ><g color="#000" fill="transparent"  filter="url(#a)" stroke="#000" stroke-dasharray="136.04988764535565, 5.8"><path class="EdgeBody" d="m644.8 398.69-123.38 70"   marker-end="url(#b)" /></g></g><g id="aa" class="DirectedInteraction" color="#000" ><g color="#000" fill="transparent"  filter="url(#a)" stroke="#000" stroke-dasharray="85.43595782365654, 5.8"><path class="EdgeBody" d="m518.8 533.69 82-40"   marker-end="url(#b)" /></g></g><g id="ab" class="DirectedInteraction" color="#000" ><g color="#000" fill="transparent"  filter="url(#a)" stroke="#000" stroke-dasharray="97.76911943238692, 5.8"><path class="EdgeBody" d="m648.17 567.69-100.75-24"   marker-end="url(#b)" /></g></g><g id="ac" class="Interaction" color="#000" ><g color="#000" fill="transparent"  filter="url(#a)" stroke="#000" stroke-dasharray="65.01201811972928, 0"><path class="EdgeBody" d="m417.42 413.69 62.75-17"   /></g></g><g id="ad" class="DirectedInteraction" color="#000" ><g color="#000" fill="transparent"  filter="url(#a)" stroke="#000" stroke-dasharray="148.42310340866587, 5.8"><path class="EdgeBody" d="m393.3 423.69 96.875 120"   marker-end="url(#b)" /></g></g><g id="ae" class="Interaction" color="#000" ><g color="#000" fill="transparent"  filter="url(#a)" stroke="#000" stroke-dasharray="278.6360753743134, 0"><path class="EdgeBody" d="m347.42 348.69 275.75 40"   /></g></g><g id="af" class="DirectedInteraction" color="#000" ><g color="#000" fill="transparent"  filter="url(#a)" stroke="#000" stroke-dasharray="161.5588957898564, 5.8"><path class="EdgeBody" d="m393.3 403.69 147-80"   marker-end="url(#b)" /></g></g><g id="ag" class="DirectedInteraction" color="#000" ><g color="#000" fill="transparent"  filter="url(#a)" stroke="#000" stroke-dasharray="76.8513762740827, 5.8"><path class="EdgeBody" d="m506.8 386.69-53.5-63"   marker-end="url(#b)" /></g></g><g id="ah" class="DirectedInteraction" color="#000" ><g color="#000" fill="transparent"  filter="url(#a)" stroke="#000" stroke-dasharray="112.22144932172287, 5.8"><path class="EdgeBody" d="m400.42 309.69 79.75 87"   marker-end="url(#b)" /></g></g><g id="ai" class="DirectedInteraction" color="#000" ><g color="#000" fill="transparent"  filter="url(#a)" stroke="#000" stroke-dasharray="154.2986024298776, 5.8"><path class="EdgeBody" d="m333.42 460.69 146.75-64"   marker-end="url(#b)" /></g></g><g id="aj" class="DirectedInteraction" color="#000" ><g color="#000" fill="transparent"  filter="url(#a)" stroke="#000" stroke-dasharray="48.908317466359726, 5.8"><path class="EdgeBody" d="m856.17 574.94-52-17"   marker-end="url(#b)" /></g></g><g id="ak" class="DirectedInteraction" color="#000" ><g color="#000" fill="transparent"  filter="url(#a)" stroke="#000" stroke-dasharray="157.89828620437657, 5.8"><path class="EdgeBody" d="m612.61 493.69 150.56 64.25"   marker-end="url(#b)" /></g></g><g id="al" class="Interaction" color="#000" ><g color="#000" fill="transparent"  filter="url(#a)" stroke="#000" stroke-dasharray="92.25211718437703, 0"><path class="EdgeBody" d="m600.8 493.69-0.625 92.25"   /></g></g><g id="am" class="DirectedInteraction" color="#000" ><g color="#000" fill="transparent"  filter="url(#a)" stroke="#000" stroke-dasharray="94.76838469419691, 5.8"><path class="EdgeBody" d="m625.17 595.94 95 33"   marker-end="url(#b)" /></g></g><g id="an" class="DirectedInteraction" color="#000" ><g color="#000" fill="transparent"  filter="url(#a)" stroke="#000" stroke-dasharray="94.2562341885801, 5.8"><path class="EdgeBody" d="m625.17 595.94 71 70.5"   marker-end="url(#b)" /></g></g><g id="ao" class="DirectedInteraction" color="#000" ><g color="#000" fill="transparent"  filter="url(#a)" stroke="#000" stroke-dasharray="187.81386346282133, 5.8"><path class="EdgeBody" d="m518.8 553.69 126.88 146.25"   marker-end="url(#b)" /></g></g><g id="ap" class="DirectedInteraction" color="#000" ><g color="#000" fill="transparent"  filter="url(#a)" stroke="#000" stroke-dasharray="70.25148338461267, 5.8"><path class="EdgeBody" d="m518.8 553.69 68.875 32.25"   marker-end="url(#b)" /></g></g><g id="aq" class="DirectedInteraction" color="#000" ><g color="#000" fill="transparent"  filter="url(#a)" stroke="#000" stroke-dasharray="160.074058022947, 5.8"><path class="EdgeBody" d="m518.8 553.69 14.375 165.25"   marker-end="url(#b)" /></g></g><g id="ar" class="Interaction" color="#000" ><g color="#000" fill="transparent"  filter="url(#a)" stroke="#000" stroke-dasharray="146.59238767753257, 0"><path class="EdgeBody" d="m518.8 553.69 58.875 134.25"   /></g></g><g id="as" class="Interaction" color="#000" ><g color="#000" fill="transparent"  filter="url(#a)" stroke="#000" stroke-dasharray="94.28281921962241, 0"><path class="EdgeBody" d="m456.67 624.94 15.5 93"   /></g></g><g id="at" class="DirectedInteraction" color="#000" ><g color="#000" fill="transparent"  filter="url(#a)" stroke="#000" stroke-dasharray="92.06214794291009, 5.8"><path class="EdgeBody" d="m575.17 595.94-96 19"   marker-end="url(#b)" /></g></g><g id="au" class="Interaction" color="#000" ><g color="#000" fill="transparent"  filter="url(#a)" stroke="#000" stroke-dasharray="110.78808600206074, 0"><path class="EdgeBody" d="m456.67 624.94-57 95"   /></g></g><g id="av" class="DirectedInteraction" color="#000" ><g color="#000" fill="transparent"  filter="url(#a)" stroke="#000" stroke-dasharray="29.668295701936398, 5.8"><path class="EdgeBody" d="m401.17 601.94 33 13"   marker-end="url(#b)" /></g></g><g id="aw" class="DirectedInteraction" color="#000" ><g color="#000" fill="transparent"  filter="url(#a)" stroke="#000" stroke-dasharray="105.90776606843411, 5.8"><path class="EdgeBody" d="m389.42 591.94 100.75-48.25"   marker-end="url(#b)" /></g></g><g id="ax" class="Interaction" color="#000" ><g color="#000" fill="transparent"  filter="url(#a)" stroke="#000" stroke-dasharray="33.1058907144937, 0"><path class="EdgeBody" d="m324.17 587.94 30 14"   /></g></g><g id="ay" class="DirectedInteraction" color="#000" ><g color="#000" fill="transparent"  filter="url(#a)" stroke="#000" stroke-dasharray="101.62475564319445, 5.8"><path class="EdgeBody" d="m307.3 470.69-6.125 107.25"   marker-end="url(#b)" /></g></g><g id="az" class="DirectedInteraction" color="#000" ><g color="#000" fill="transparent"  filter="url(#a)" stroke="#000" stroke-dasharray="219.22124899662253, 5.8"><path class="EdgeBody" d="m268.17 506.94 222 36.75"   marker-end="url(#b)" /></g></g><g id="ba" class="DirectedInteraction" color="#000" ><g color="#000" fill="transparent"  filter="url(#a)" stroke="#000" stroke-dasharray="48.088230683981486, 5.8"><path class="EdgeBody" d="m247.17 496.94 47.062-26.25"   marker-end="url(#b)" /></g></g><g id="bb" class="DirectedInteraction" color="#000" ><g color="#000" fill="transparent"  filter="url(#a)" stroke="#000" stroke-dasharray="113.67384651043943, 5.8"><path class="EdgeBody" d="m381.67 511.94 75 93"   marker-end="url(#b)" /></g></g><g id="bc" class="Interaction" color="#000" ><g color="#000" fill="transparent"  filter="url(#a)" stroke="#000" stroke-dasharray="69.23296270563611, 0"><path class="EdgeBody" d="m393.3 423.69-11.625 68.25"   /></g></g><g id="bd" class="Interaction" color="#000" ><g color="#000" fill="transparent"  filter="url(#a)" stroke="#000" stroke-dasharray="145.67713658978883, 0"><path class="EdgeBody" d="m322.8 358.69 58.875 133.25"   /></g></g><g id="be" class="Interaction" color="#000" ><g color="#000" fill="transparent"  filter="url(#a)" stroke="#000" stroke-dasharray="102.16542146700236, 0"><path class="EdgeBody" d="m301.17 597.94-37.587 95"   /></g></g><g id="bf" class="Interaction" color="#000" ><g color="#000" fill="transparent"  filter="url(#a)" stroke="#000" stroke-dasharray="36.76955262170039, 0"><path class="EdgeBody" d="m263.59 712.94 26 26"   /></g></g><g id="bg" class="Interaction" color="#000" ><g color="#000" fill="transparent"  filter="url(#a)" stroke="#000" stroke-dasharray="50.79646521798964, 0"><path class="EdgeBody" d="m237 702.94-45 23.564"   /></g></g><g id="bh" class="Interaction" color="#000" ><g color="#000" fill="transparent"  filter="url(#a)" stroke="#000" stroke-dasharray="70.29224708315982, 0"><path class="EdgeBody" d="m301.17 597.94-54 45"   /></g></g><g id="bi" class="DirectedInteraction" color="#000" ><g color="#000" fill="transparent"  filter="url(#a)" stroke="#000" stroke-dasharray="163.81426826773742, 5.8"><path class="EdgeBody" d="m219.17 601.94 137-100"   marker-end="url(#b)" /></g></g><g id="bj" class="Interaction" color="#000" ><g color="#000" fill="transparent"  filter="url(#a)" stroke="#000" stroke-dasharray="183.62464441485386, 0"><path class="EdgeBody" d="m183 563 173.17-61.064"   /></g></g><g id="bk" class="Interaction" color="#000" ><g color="#000" fill="transparent"  filter="url(#a)" stroke="#000" stroke-dasharray="67.53702688155587, 0"><path class="EdgeBody" d="m157.5 573-56.5 37"   /></g></g><g id="bl" class="DirectedInteraction" color="#000" ><g color="#000" fill="transparent"  filter="url(#a)" stroke="#000" stroke-dasharray="62.05956535677744, 5.8"><path class="EdgeBody" d="m294.24 470.69-65.236-18.686"   marker-end="url(#b)" /></g></g><g id="bm" class="DirectedInteraction" color="#000" ><g color="#000" fill="transparent"  filter="url(#a)" stroke="#000" stroke-dasharray="46.60467536394057, 5.8"><path class="EdgeBody" d="m210.5 390-6.5 52"   marker-end="url(#b)" /></g></g><g id="bn" class="Interaction" color="#000" ><g color="#000" fill="transparent"  filter="url(#a)" stroke="#000" stroke-dasharray="103.41422799344393, 0"><path class="EdgeBody" d="m210.5 390 83.736 60.686"   /></g></g><g id="bo" class="DirectedInteraction" color="#000" ><g color="#000" fill="transparent"  filter="url(#a)" stroke="#000" stroke-dasharray="132.53768885369115, 5.8"><path class="EdgeBody" d="m235 380 134.17 33.686"   marker-end="url(#b)" /></g></g><g id="bp" class="Interaction" color="#000" ><g color="#000" fill="transparent"  filter="url(#a)" stroke="#000" stroke-dasharray="72.09379741004076, 0"><path class="EdgeBody" d="m307.3 450.69 61.875-37"   /></g></g><g id="bq" class="DirectedInteraction" color="#000" ><g color="#000" fill="transparent"  filter="url(#a)" stroke="#000" stroke-dasharray="0, 5.8, 94.20000000000005, 0"><path class="EdgeBody" d="m393.3 403.69 60-80"   marker-start="url(#c)" /></g></g><g id="br" class="DirectedInteraction" color="#000" ><g color="#000" fill="transparent"  filter="url(#a)" stroke="#000" stroke-dasharray="101.2011682179218, 5.8"><path class="EdgeBody" d="m211 263-0.5 107"   marker-end="url(#b)" /></g></g><g id="bs" class="Interaction" color="#000" ><g color="#000" fill="transparent"  filter="url(#a)" stroke="#000" stroke-dasharray="174.41330224498358, 0"><path class="EdgeBody" d="m288.5 214-78 156"   /></g></g><g id="bt" class="DirectedInteraction" color="#000" ><g color="#000" fill="transparent"  filter="url(#a)" stroke="#000" stroke-dasharray="57.611355449950764, 5.8"><path class="EdgeBody" d="m261 204-50 39"   marker-end="url(#b)" /></g></g><g id="bu" class="Interaction" color="#000" ><g color="#000" fill="transparent"  filter="url(#a)" stroke="#000" stroke-dasharray="35.608987629529715, 0"><path class="EdgeBody" d="m344 182-28 22"   /></g></g><g id="bv" class="Interaction" color="#000" ><g color="#000" fill="transparent"  filter="url(#a)" stroke="#000" stroke-dasharray="126.6092200449337, 0"><path class="EdgeBody" d="m288.5 214 21.986 124.69"   /></g></g><g id="bw" class="Interaction" color="#000" ><g color="#000" fill="transparent"  filter="url(#a)" stroke="#000" stroke-dasharray="153.05706298120222, 0"><path class="EdgeBody" d="m366.5 192-43.701 146.69"   /></g></g><g id="bx" class="DirectedInteraction" color="#000" ><g color="#000" fill="transparent"  filter="url(#a)" stroke="#000" stroke-dasharray="151.64009813304688, 5.8"><path class="EdgeBody" d="m437.86 303.69-121.86-99.686"   marker-end="url(#b)" /></g></g><g id="by" class="DirectedInteraction" color="#000" ><g color="#000" fill="transparent"  filter="url(#a)" stroke="#000" stroke-dasharray="110.44082389423401, 5.8"><path class="EdgeBody" d="m380.8 299.69-78.549-85.686"   marker-end="url(#b)" /></g></g><g id="bz" class="Interaction" color="#000" ><g color="#000" fill="transparent"  filter="url(#a)" stroke="#000" stroke-dasharray="205.34127475351218, 0"><path class="EdgeBody" d="m390 104 47.861 199.69"   /></g></g><g id="ca" class="DirectedInteraction" color="#000" ><g color="#000" fill="transparent"  filter="url(#a)" stroke="#000" stroke-dasharray="248.11800101152534, 5.8"><path class="EdgeBody" d="m437.86 303.69-10.861-253.69"   marker-end="url(#b)" /></g></g><a  class="GeneProduct NET1 " transform="translate(361.17 299.69)"   name="NET1"  ><rect class="Icon" transform="matrix(.97516 0 0 .95238 .48758 .47619)" width="39.25" height="20" fill="#fff" stroke="#000"/><text class="Text" transform="translate(19.625,13)"   font-size="10px"  text-anchor="middle"><tspan x="0" y="0">NET1</tspan></text></a><a  class="GeneProduct ERBB3 " transform="translate(281.17 450.69)"   name="ERBB3"  ><rect class="Icon" transform="matrix(.98122 0 0 .95238 .49061 .47619)" width="52.25" height="20" fill="#fff" stroke="#000"/><text class="Text" transform="translate(26.125,13)"   font-size="10px"  text-anchor="middle"><tspan x="0" y="0">ERBB3</tspan></text></a><a  class="GeneProduct TNF " transform="translate(763.17 547.94)"   name="TNF"  ><rect class="Icon" transform="matrix(.97619 0 0 .95238 .4881 .47619)" width="41" height="20" fill="#fff" stroke="#000"/><text class="Text" transform="translate(20.5,13)"   font-size="10px"  text-anchor="middle"><tspan x="0" y="0">TNF</tspan></text></a><a  class="GeneProduct SERBP1 " transform="translate(372.17 719.94)"   name="SERBP1"  ><rect class="Icon" transform="matrix(.98214 0 0 .95238 .49107 .47619)" width="55" height="20" fill="#fff" stroke="#000"/><text class="Text" transform="translate(27.5,13)"   font-size="10px"  text-anchor="middle"><tspan x="0" y="0">SERBP1</tspan></text></a><a  class="GeneProduct APOE " transform="translate(141,717)"   name="APOE"  ><rect class="Icon" transform="matrix(.98077 0 0 .95 .49038 .475)" width="51" height="19" fill="#fff" stroke="#000"/><text class="Text" transform="translate(25.5,12.5)"   font-size="10px"  text-anchor="middle"><tspan x="0" y="0">APOE</tspan></text></a><a  class="GeneProduct CUL5 " transform="translate(344,172)"   name="CUL5"  ><rect class="Icon" transform="matrix(.97826 0 0 .95238 .48913 .47619)" width="45" height="20" fill="#fff" stroke="#000"/><text class="Text" transform="translate(22.5,13)"   font-size="10px"  text-anchor="middle"><tspan x="0" y="0">CUL5</tspan></text></a><a  class="GeneProduct SQSTM1 " transform="translate(362,84)"   name="SQSTM1"  ><rect class="Icon" transform="matrix(.98246 0 0 .95238 .49123 .47619)" width="56" height="20" fill="#fff" stroke="#000"/><text class="Text" transform="translate(28,13)"   font-size="10px"  text-anchor="middle"><tspan x="0" y="0">SQSTM1</tspan></text></a><a  class="GeneProduct TNFRSF10B " transform="translate(392,30)"   name="TNFRSF10B"  ><rect class="Icon" transform="matrix(.98592 0 0 .95238 .49296 .47619)" width="70" height="20" fill="#fff" stroke="#000"/><text class="Text" transform="translate(35,13)"   font-size="10px"  text-anchor="middle"><tspan x="0" y="0">TNFRSF10B</tspan></text></a><a  class="GeneProduct RIPK2 " transform="translate(787.17 275.69)"   name="RIPK2"  ><rect class="Icon" transform="matrix(.98122 0 0 .95238 .49061 .47619)" width="52.25" height="20" fill="#fff" stroke="#000"/><text class="Text" transform="translate(26.125,13)"   font-size="10px"  text-anchor="middle"><tspan x="0" y="0">RIPK2</tspan></text></a><a  class="GeneProduct CUL1 " transform="translate(623.17 378.69)"   name="CUL1"  ><rect class="Icon" transform="matrix(.9774 0 0 .95238 .4887 .47619)" width="43.25" height="20" fill="#fff" stroke="#000"/><text class="Text" transform="translate(21.625,13)"   font-size="10px"  text-anchor="middle"><tspan x="0" y="0">CUL1</tspan></text></a><a  class="GeneProduct CDKN1A " transform="translate(615.42 257.69)"   name="CDKN1A"  ><rect class="Icon" transform="matrix(.98326 0 0 .95238 .49163 .47619)" width="58.75" height="20" fill="#fff" stroke="#000"/><text class="Text" transform="translate(29.375,13)"   font-size="10px"  text-anchor="middle"><tspan x="0" y="0">CDKN1A</tspan></text></a><a  class="GeneProduct AKT1 " transform="translate(480.17 386.69)"   name="AKT1"  ><rect class="Icon" transform="matrix(.98157 0 0 .95238 .49078 .47619)" width="53.25" height="20" fill="#fff" stroke="#000"/><text class="Text" transform="translate(26.625,13)"   font-size="10px"  text-anchor="middle"><tspan x="0" y="0">AKT1</tspan></text></a><a  class="GeneProduct HSPB1 " transform="translate(800.17 206.69)"   name="HSPB1"  ><rect class="Icon" transform="matrix(.98049 0 0 .95238 .49024 .47619)" width="50.25" height="20" fill="#fff" stroke="#000"/><text class="Text" transform="translate(25.125,13)"   font-size="10px"  text-anchor="middle"><tspan x="0" y="0">HSPB1</tspan></text></a><a  class="GeneProduct CTNNA1 " transform="translate(790.17 119.69)"   name="CTNNA1"  ><rect class="Icon" transform="matrix(.98122 0 0 .95238 .49061 .47619)" width="52.25" height="20" fill="#fff" stroke="#000"/><text class="Text" transform="translate(26.125,13)"   font-size="10px"  text-anchor="middle"><tspan x="0" y="0">CTNNA1</tspan></text></a><a  class="GeneProduct HSPD1 " transform="translate(711.17 113.69)"   name="HSPD1"  ><rect class="Icon" transform="matrix(.9819 0 0 .95238 .49095 .47619)" width="54.25" height="20" fill="#fff" stroke="#000"/><text class="Text" transform="translate(27.125,13)"   font-size="10px"  text-anchor="middle"><tspan x="0" y="0">HSPD1</tspan></text></a><a  class="GeneProduct HELLS " transform="translate(554.17 153.69)"   name="HELLS"  ><rect class="Icon" transform="matrix(.98222 0 0 .95238 .49111 .47619)" width="55.25" height="20" fill="#fff" stroke="#000"/><text class="Text" transform="translate(27.625,13)"   font-size="10px"  text-anchor="middle"><tspan x="0" y="0">HELLS</tspan></text></a><a  class="GeneProduct ANXA5 " transform="translate(631.17 99.936)"   name="ANXA5"  ><rect class="Icon" transform="matrix(.98086 0 0 .95181 .49043 .4759)" width="51.25" height="19.75" fill="#fff" stroke="#000"/><text class="Text" transform="translate(25.625,12.875)"   font-size="10px"  text-anchor="middle"><tspan x="0" y="0">ANXA5</tspan></text></a><a  class="GeneProduct HDAC1 " transform="translate(512.17 303.69)"   name="HDAC1"  ><rect class="Icon" transform="matrix(.98253 0 0 .95238 .49127 .47619)" width="56.25" height="20" fill="#fff" stroke="#000"/><text class="Text" transform="translate(28.125,13)"   font-size="10px"  text-anchor="middle"><tspan x="0" y="0">HDAC1</tspan></text></a><a  class="GeneProduct NFKB1 " transform="translate(422.42 303.69)"   name="NFKB1"  ><rect class="Icon" transform="matrix(.98406 0 0 .95238 .49203 .47619)" width="61.75" height="20" fill="#fff" stroke="#000"/><text class="Text" transform="translate(30.875,13)"   font-size="10px"  text-anchor="middle"><tspan x="0" y="0">NFKB1</tspan></text></a><a  class="Protein BCL3 " transform="translate(438.17 213.47)"   name="BCL3"  ><rect class="Icon" transform="matrix(.98222 0 0 .95238 .49111 .47619)" width="55.25" height="20" fill="#fff" stroke="#000"/><text class="Text" transform="translate(27.625,13)"   font-size="10px"  text-anchor="middle"><tspan x="0" y="0">BCL3</tspan></text></a><a  class="GeneProduct TRAF1 " transform="translate(463.17 130.69)"   name="TRAF1"  ><rect class="Icon" transform="matrix(.98157 0 0 .95238 .49078 .47619)" width="53.25" height="20" fill="#fff" stroke="#000"/><text class="Text" transform="translate(26.625,13)"   font-size="10px"  text-anchor="middle"><tspan x="0" y="0">TRAF1</tspan></text></a><a  class="GeneProduct BEX3 " transform="translate(507.42 65.686)"   name="NGFRAP1"  ><rect class="Icon" transform="matrix(.98765 0 0 .95238 .49383 .47619)" width="80" height="20" fill="#fff" stroke="#000"/><text class="Text" transform="translate(40,13)"   font-size="10px"  text-anchor="middle"><tspan x="0" y="0">NGFRAP1</tspan></text></a><a  class="GeneProduct RNF7 " transform="translate(298.17 338.69)"   name="RNF7"  ><rect class="Icon" transform="matrix(.9801 0 0 .95238 .49005 .47619)" width="49.25" height="20" fill="#fff" stroke="#000"/><text class="Text" transform="translate(24.625,13)"   font-size="10px"  text-anchor="middle"><tspan x="0" y="0">RNF7</tspan></text></a><a  class="GeneProduct PTK2 " transform="translate(369.17 403.69)"   name="PTK2"  ><rect class="Icon" transform="matrix(.9797 0 0 .95238 .48985 .47619)" width="48.25" height="20" fill="#fff" stroke="#000"/><text class="Text" transform="translate(24.125,13)"   font-size="10px"  text-anchor="middle"><tspan x="0" y="0">PTK2</tspan></text></a><a  class="GeneProduct ETS1 " transform="translate(577.17 473.69)"   name="ETS1"  ><rect class="Icon" transform="matrix(.97927 0 0 .95238 .48964 .47619)" width="47.25" height="20" fill="#fff" stroke="#000"/><text class="Text" transform="translate(23.625,13)"   font-size="10px"  text-anchor="middle"><tspan x="0" y="0">ETS1</tspan></text></a><a  class="GeneProduct MAPK1 " transform="translate(490.17 533.69)"   name="MAPK1"  ><rect class="Icon" transform="matrix(.98283 0 0 .95238 .49142 .47619)" width="57.25" height="20" fill="#fff" stroke="#000"/><text class="Text" transform="translate(28.625,13)"   font-size="10px"  text-anchor="middle"><tspan x="0" y="0">MAPK1</tspan></text></a><a  class="GeneProduct CDKN1B " transform="translate(459.17 458.69)"   name="CDKN1B"  ><rect class="Icon" transform="matrix(.98419 0 0 .95238 .49209 .47619)" width="62.25" height="20" fill="#fff" stroke="#000"/><text class="Text" transform="translate(31.125,13)"   font-size="10px"  text-anchor="middle"><tspan x="0" y="0">CDKN1B</tspan></text></a><a  class="GeneProduct RPS6KB1 " transform="translate(710.17 475.69)"   name="RPS6KB1"  ><rect class="Icon" transform="matrix(.98419 0 0 .95238 .49209 .47619)" width="62.25" height="20" fill="#fff" stroke="#000"/><text class="Text" transform="translate(31.125,13)"   font-size="10px"  text-anchor="middle"><tspan x="0" y="0">RPS6KB1</tspan></text></a><g class="GeneProduct" transform="translate(648.17 557.69)" color="#000"  name="PPP2GB"><rect class="Icon" transform="matrix(.98444 0 0 .95238 .49222 .47619)" width="63.25" height="20" fill="#fff" stroke="#000"/><text class="Text" transform="translate(31.625,13)"   font-size="10px"  text-anchor="middle"><tspan x="0" y="0">PPP2GB</tspan></text></g><a  class="GeneProduct AXIN1 " transform="translate(711.17 391.69)"   name="AXIN1"  ><rect class="Icon" transform="matrix(.98049 0 0 .95238 .49024 .47619)" width="50.25" height="20" fill="#fff" stroke="#000"/><text class="Text" transform="translate(25.125,13)"   font-size="10px"  text-anchor="middle"><tspan x="0" y="0">AXIN1</tspan></text></a><a  class="GeneProduct SMAD7 " transform="translate(674.17 321.69)"   name="SMAD7"  ><rect class="Icon" transform="matrix(.97959 0 0 .95238 .4898 .47619)" width="48" height="20" fill="#fff" stroke="#000"/><text class="Text" transform="translate(24,13)"   font-size="10px"  text-anchor="middle"><tspan x="0" y="0">SMAD7</tspan></text></a><g id="cb" class="DirectedInteraction" color="#000" ><g color="#000" fill="transparent"  filter="url(#a)" stroke="#000" stroke-dasharray="192.09280557918217, 5.8"><path class="EdgeBody" d="m533.42 396.69 176.75 89"   marker-end="url(#b)" /></g></g><g id="cc" class="Interaction" color="#000" ><g color="#000" fill="transparent"  filter="url(#a)" stroke="#000" stroke-dasharray="54.55501810099599, 0"><path class="EdgeBody" d="m506.8 406.69-16.5 52"   /></g></g><a  class="GeneProduct VIM " transform="translate(434.17 604.94)"   name="VIM"  ><rect class="Icon" transform="matrix(.97826 0 0 .95238 .48913 .47619)" width="45" height="20" fill="#fff" stroke="#000"/><text class="Text" transform="translate(22.5,13)"   font-size="10px"  text-anchor="middle"><tspan x="0" y="0">VIM</tspan></text></a><a  class="GeneProduct PKN1 " transform="translate(451.17 717.94)"   name="PKN1"  ><rect class="Icon" transform="matrix(.97674 0 0 .95238 .48837 .47619)" width="42" height="20" fill="#fff" stroke="#000"/><text class="Text" transform="translate(21,13)"   font-size="10px"  text-anchor="middle"><tspan x="0" y="0">PKN1</tspan></text></a><a  class="GeneProduct IER3 " transform="translate(513.17 718.94)"   name="IER3"  ><rect class="Icon" transform="matrix(.97561 0 0 .95238 .4878 .47619)" width="40" height="20" fill="#fff" stroke="#000"/><text class="Text" transform="translate(20,13)"   font-size="10px"  text-anchor="middle"><tspan x="0" y="0">IER3</tspan></text></a><a  class="GeneProduct YBX3 " transform="translate(557.17 687.94)"   name="CSDA"  ><rect class="Icon" transform="matrix(.97619 0 0 .95238 .4881 .47619)" width="41" height="20" fill="#fff" stroke="#000"/><text class="Text" transform="translate(20.5,13)"   font-size="10px"  text-anchor="middle"><tspan x="0" y="0">CSDA</tspan></text></a><a  class="GeneProduct CARD14 " transform="translate(619.17 699.94)"   name="CARD14"  ><rect class="Icon" transform="matrix(.98148 0 0 .95238 .49074 .47619)" width="53" height="20" fill="#fff" stroke="#000"/><text class="Text" transform="translate(26.5,13)"   font-size="10px"  text-anchor="middle"><tspan x="0" y="0">CARD14</tspan></text></a><a  class="GeneProduct NQO1 " transform="translate(696.17 656.94)"   name="NQO1"  ><rect class="Icon" transform="matrix(.97959 0 0 .95 .4898 .475)" width="48" height="19" fill="#fff" stroke="#000"/><text class="Text" transform="translate(24,12.5)"   font-size="10px"  text-anchor="middle"><tspan x="0" y="0">NQO1</tspan></text></a><a  class="GeneProduct GCLC " transform="translate(720.17 618.94)"   name="GCLC"  ><rect class="Icon" transform="matrix(.97917 0 0 .95238 .48958 .47619)" width="47" height="20" fill="#fff" stroke="#000"/><text class="Text" transform="translate(23.5,13)"   font-size="10px"  text-anchor="middle"><tspan x="0" y="0">GCLC</tspan></text></a><a  class="GeneProduct JUND " transform="translate(575.17 585.94)"   name="JUND"  ><rect class="Icon" transform="matrix(.98039 0 0 .95238 .4902 .47619)" width="50" height="20" fill="#fff" stroke="#000"/><text class="Text" transform="translate(25,13)"   font-size="10px"  text-anchor="middle"><tspan x="0" y="0">JUND</tspan></text></a><a  class="GeneProduct F2R " transform="translate(856.17 564.94)"   name="F2R"  ><rect class="Icon" transform="matrix(.975 0 0 .95238 .4875 .47619)" width="39" height="20" fill="#fff" stroke="#000"/><text class="Text" transform="translate(19.5,13)"   font-size="10px"  text-anchor="middle"><tspan x="0" y="0">F2R</tspan></text></a><a  class="GeneProduct BIRC5 " transform="translate(168 591.94)"   name="BIRC5"  ><rect class="Icon" transform="matrix(.98083 0 0 .95238 .49042 .47619)" width="51.174" height="20" fill="#fff" stroke="#000"/><text class="Text" transform="translate(25.587 13)"   font-size="10px"  text-anchor="middle"><tspan x="0" y="0">BIRC5</tspan></text></a><a  class="GeneProduct THBS1 " transform="translate(196 632.94)"   name="THBS1"  ><rect class="Icon" transform="matrix(.98083 0 0 .95238 .49042 .47619)" width="51.174" height="20" fill="#fff" stroke="#000"/><text class="Text" transform="translate(25.587 13)"   font-size="10px"  text-anchor="middle"><tspan x="0" y="0">THBS1</tspan></text></a><a  class="GeneProduct TNFRSF21 " transform="translate(257 738.94)"   name="TNFRSF21"  ><rect class="Icon" transform="matrix(.98489 0 0 .95238 .49244 .47619)" width="65.174" height="20" fill="#fff" stroke="#000"/><text class="Text" transform="translate(32.587 13)"   font-size="10px"  text-anchor="middle"><tspan x="0" y="0">TNFRSF21</tspan></text></a><a  class="GeneProduct APP " transform="translate(237 692.94)"   name="APP"  ><rect class="Icon" transform="matrix(.98154 0 0 .95238 .49077 .47619)" width="53.174" height="20" fill="#fff" stroke="#000"/><text class="Text" transform="translate(26.587 13)"   font-size="10px"  text-anchor="middle"><tspan x="0" y="0">APP</tspan></text></a><a  class="GeneProduct CASP7 " transform="translate(356.17 491.94)"   name="CASP7"  ><rect class="Icon" transform="matrix(.98077 0 0 .95238 .49038 .47619)" width="51" height="20" fill="#fff" stroke="#000"/><text class="Text" transform="translate(25.5,13)"   font-size="10px"  text-anchor="middle"><tspan x="0" y="0">CASP7</tspan></text></a><a  class="GeneProduct NRG1 " transform="translate(226.17 496.94)"   name="NRG1"  ><rect class="Icon" transform="matrix(.97674 0 0 .95238 .48837 .47619)" width="42" height="20" fill="#fff" stroke="#000"/><text class="Text" transform="translate(21,13)"   font-size="10px"  text-anchor="middle"><tspan x="0" y="0">NRG1</tspan></text></a><g class="GeneProduct ABL1 " transform="translate(278.17 577.94)" color="#000"  name="ABL1"><rect class="Icon" transform="matrix(.97872 0 0 .95238 .48936 .47619)" width="46" height="20" fill="#fff" stroke="#000"/><text class="Text" transform="translate(23,13)"   font-size="10px"  text-anchor="middle"><tspan x="0" y="0">ABL1</tspan></text></g><a  class="GeneProduct PAK2 " transform="translate(354.17 591.94)"   name="PAK2"  ><rect class="Icon" transform="matrix(.97917 0 0 .95238 .48958 .47619)" width="47" height="20" fill="#fff" stroke="#000"/><text class="Text" transform="translate(23.5,13)"   font-size="10px"  text-anchor="middle"><tspan x="0" y="0">PAK2</tspan></text></a><a  class="GeneProduct SOCS3 " transform="translate(261,194)"   name="SOCS3"  ><rect class="Icon" transform="matrix(.98214 0 0 .95238 .49107 .47619)" width="55" height="20" fill="#fff" stroke="#000"/><text class="Text" transform="translate(27.5,13)"   font-size="10px"  text-anchor="middle"><tspan x="0" y="0">SOCS3</tspan></text></a><a  class="GeneProduct IL7R " transform="translate(186,243)"   name="IL7R"  ><rect class="Icon" transform="matrix(.98039 0 0 .95238 .4902 .47619)" width="50" height="20" fill="#fff" stroke="#000"/><text class="Text" transform="translate(25,13)"   font-size="10px"  text-anchor="middle"><tspan x="0" y="0">IL7R</tspan></text></a><a  class="GeneProduct PTK2B " transform="translate(186,370)"   name="PTK2B"  ><rect class="Icon" transform="matrix(.98 0 0 .95238 .49 .47619)" width="49" height="20" fill="#fff" stroke="#000"/><text class="Text" transform="translate(24.5,13)"   font-size="10px"  text-anchor="middle"><tspan x="0" y="0">PTK2B</tspan></text></a><a  class="GeneProduct VAV3 " transform="translate(179,442)"   name="VAV3"  ><rect class="Icon" transform="matrix(.98039 0 0 .95238 .4902 .47619)" width="50" height="20" fill="#fff" stroke="#000"/><text class="Text" transform="translate(25,13)"   font-size="10px"  text-anchor="middle"><tspan x="0" y="0">VAV3</tspan></text></a><a  class="GeneProduct ERN1 " transform="translate(77,610)"   name="ERN1"  ><rect class="Icon" transform="matrix(.97959 0 0 .95238 .4898 .47619)" width="48" height="20" fill="#fff" stroke="#000"/><text class="Text" transform="translate(24,13)"   font-size="10px"  text-anchor="middle"><tspan x="0" y="0">ERN1</tspan></text></a><a  class="GeneProduct HSPA5 " transform="translate(132,553)"   name="HSPA5"  ><rect class="Icon" transform="matrix(.98077 0 0 .95238 .49038 .47619)" width="51" height="20" fill="#fff" stroke="#000"/><text class="Text" transform="translate(25.5,13)"   font-size="10px"  text-anchor="middle"><tspan x="0" y="0">HSPA5</tspan></text></a><text class="Text" transform="translate(5,27)" dominant-baseline="central" fill="black"  font-size="12px" font-weight="bold" overflow="visible" ><tspan x="0" y="-9">Name: Apoptosis-related network due to altered Notch3 in ovarian cancer</tspan> <tspan x="0" y="9">Organism: Homo sapiens</tspan></text></g></svg>
