<?xml version="1.0" encoding="UTF-8"?>
<!--
  WikiPathways page: https://www.wikipathways.org/index.php/Pathway:WP3299
  URL for this compressed file: https://github.com/eweitz/cachome/tree/main/data/wikipathways/WP3299.svg
  Source code for compression: https://github.com/eweitz/cachome/tree/main/src/wikipathways.py
-->
<svg class="Diagram" width="800" height="600" color="black" baseProfile="full" prefix="schema:http://schema.org/" preserveAspectRatio="xMidYMid" version="1.1" viewBox="0 0 739 395" vocab="http://vocabularies.wikipathways.org/wp#" xmlns="http://www.w3.org/2000/svg" xmlns:xlink="http://www.w3.org/1999/xlink"><style>svg {font-family: 'Liberation Sans', Arial, sans-serif; }</style><defs><filter id="b" x="0" y="0" width="739" height="395" filterUnits="userSpaceOnUse"><feColorMatrix in="SourceGraphic" values="-1   0   0 0 0                   0  -1   0 0 0                   0   0  -1 0 0                   0   0   0 1 0"/></filter><marker id="c" stroke-dasharray="99999" markerHeight="12" markerUnits="userSpaceOnUse" markerWidth="12" orient="auto" preserveAspectRatio="none" refX="12" refY="6" viewBox="0 0 12 12"><path transform="rotate(180 6 6)" d="M12 11L0 6l12-5z" fill="currentColor" stroke-width="0"/></marker><marker id="d" stroke-dasharray="99999" markerHeight="20" markerUnits="userSpaceOnUse" markerWidth="10" orient="auto" preserveAspectRatio="none" refX="10" refY="10" viewBox="0 0 10 20"><path d="m3 0v20" fill="currentColor" stroke="currentColor"/></marker><symbol id="a" preserveAspectRatio="none" viewBox="0 0 100 100"/></defs><g class="Viewport" color="black"  name="Name: let-7 inhibition of ES cell reprogramming Organism: Homo sapiens"><rect class="Icon" width="739" height="395" fill="#fff" stroke="#000" stroke-width="0"/><g id="e" class="DirectedInteraction" color="#000" ><g color="#000" fill="transparent"  filter="url(#b)" stroke="#000" stroke-dasharray="158.2, 5.8"><path class="EdgeBody" d="m309 261h164"   marker-end="url(#c)" /></g></g><g id="f" class="DirectedInteraction" color="#000" ><g color="#000" fill="transparent"  filter="url(#b)" stroke="#000" stroke-dasharray="156.2, 5.8"><path class="EdgeBody" d="m309 353h162"   marker-end="url(#c)" /></g></g><g id="g" class="Inhibition" color="#000" ><g color="#000" fill="transparent"  filter="url(#b)" stroke="#000" stroke-dasharray="65.00173609018049, 7"><path class="EdgeBody" d="m280 271 0.5 72"   marker-end="url(#d)" /></g></g><g id="h" class="DirectedInteraction" color="#000" ><g color="#000" fill="transparent"  filter="url(#b)" stroke="#000" stroke-dasharray="145.20331122197285, 5.8"><path class="EdgeBody" d="m100 260 151 1"   marker-end="url(#c)" /></g></g><g id="i" class="Inhibition" color="#000" ><g color="#000" fill="transparent"  filter="url(#b)" stroke="#000" stroke-dasharray="5.28, 3.17, 5.28, 3.17, 5.28, 3.17, 5.28, 3.17, 5.28, 3.17, 5.28, 3.17, 5.28, 3.17, 0, 7"><path class="EdgeBody" d="m280 188v63"   marker-end="url(#d)" /></g></g><g class="Label" transform="translate(471,343)" color="#000"  name="Differentiation"><use class="Icon" width="100" height="20" fill="transparent"  stroke="#000" stroke-width="0" xlink:href="#a"/><text class="Text" transform="translate(50,14)"   font-size="12px" font-weight="bold"  text-anchor="middle"><tspan x="0" y="0">Differentiation</tspan></text></g><g class="GroupGroup" transform="translate(192,51)" color="grey" ><use class="Icon" width="176" height="137" fill="transparent"  stroke="grey" stroke-dasharray="5,3" stroke-width="0" xlink:href="#a"/><g class="Label" transform="translate(52,8)" color="#000"  name="let-7 miRNAs"><use class="Icon" width="80" height="20" fill="transparent"  stroke="#000" stroke-width="0" xlink:href="#a"/><text class="Text" transform="translate(40,14)"   font-size="12px" font-weight="bold"  text-anchor="middle"><tspan x="0" y="0">let-7 miRNAs</tspan></text></g><a class="GeneProduct MIRLET7A1 " transform="translate(8,29)" color="#990099"  name="MIRLET7A1"  ><rect class="Icon" transform="matrix(.98765 0 0 .95238 .49383 .47619)" width="80" height="20" fill="#fff" stroke="#909"/><text class="Text" transform="translate(40,13)" fill="#990099"  font-size="10px"  text-anchor="middle"><tspan x="0" y="0">MIRLET7A1</tspan></text></a><a class="GeneProduct MIRLET7A2 " transform="translate(8,49)" color="#990099"  name="MIRLET7A2"  ><rect class="Icon" transform="matrix(.98765 0 0 .95238 .49383 .47619)" width="80" height="20" fill="#fff" stroke="#909"/><text class="Text" transform="translate(40,13)" fill="#990099"  font-size="10px"  text-anchor="middle"><tspan x="0" y="0">MIRLET7A2</tspan></text></a><g class="GeneProduct" transform="translate(8,69)" color="#990099"  name="MIRLET7A3"><rect class="Icon" transform="matrix(.98765 0 0 .95238 .49383 .47619)" width="80" height="20" fill="#fff" stroke="#909"/><text class="Text" transform="translate(40,13)" fill="#990099"  font-size="10px"  text-anchor="middle"><tspan x="0" y="0">MIRLET7A3</tspan></text></g><a class="GeneProduct MIRLET7C " transform="translate(8,89)" color="#990099"  name="MIRLET7C"  ><rect class="Icon" transform="matrix(.98765 0 0 .95238 .49383 .47619)" width="80" height="20" fill="#fff" stroke="#909"/><text class="Text" transform="translate(40,13)" fill="#990099"  font-size="10px"  text-anchor="middle"><tspan x="0" y="0">MIRLET7C</tspan></text></a><a class="GeneProduct MIRLET7D " transform="translate(8,109)" color="#990099"  name="MIRLET7D"  ><rect class="Icon" transform="matrix(.98765 0 0 .95238 .49383 .47619)" width="80" height="20" fill="#fff" stroke="#909"/><text class="Text" transform="translate(40,13)" fill="#990099"  font-size="10px"  text-anchor="middle"><tspan x="0" y="0">MIRLET7D</tspan></text></a><a class="GeneProduct MIRLET7E " transform="translate(88,29)" color="#990099"  name="MIRLET7E"  ><rect class="Icon" transform="matrix(.98765 0 0 .95238 .49383 .47619)" width="80" height="20" fill="#fff" stroke="#909"/><text class="Text" transform="translate(40,13)" fill="#990099"  font-size="10px"  text-anchor="middle"><tspan x="0" y="0">MIRLET7E</tspan></text></a><a class="GeneProduct MIRLET7F1 " transform="translate(88,49)" color="#990099"  name="MIRLET7F1"  ><rect class="Icon" transform="matrix(.98765 0 0 .95238 .49383 .47619)" width="80" height="20" fill="#fff" stroke="#909"/><text class="Text" transform="translate(40,13)" fill="#990099"  font-size="10px"  text-anchor="middle"><tspan x="0" y="0">MIRLET7F1</tspan></text></a><a class="GeneProduct MIRLET7F2 " transform="translate(88,69)" color="#990099"  name="MIRLET7F2"  ><rect class="Icon" transform="matrix(.98765 0 0 .95238 .49383 .47619)" width="80" height="20" fill="#fff" stroke="#909"/><text class="Text" transform="translate(40,13)" fill="#990099"  font-size="10px"  text-anchor="middle"><tspan x="0" y="0">MIRLET7F2</tspan></text></a><a class="GeneProduct MIRLET7G " transform="translate(88,89)" color="#990099"  name="MIRLET7G"  ><rect class="Icon" transform="matrix(.98765 0 0 .95238 .49383 .47619)" width="80" height="20" fill="#fff" stroke="#909"/><text class="Text" transform="translate(40,13)" fill="#990099"  font-size="10px"  text-anchor="middle"><tspan x="0" y="0">MIRLET7G</tspan></text></a><a class="GeneProduct MIRLET7I " transform="translate(88,109)" color="#990099"  name="MIRLET7I"  ><rect class="Icon" transform="matrix(.98765 0 0 .95238 .49383 .47619)" width="80" height="20" fill="#fff" stroke="#909"/><text class="Text" transform="translate(40,13)" fill="#990099"  font-size="10px"  text-anchor="middle"><tspan x="0" y="0">MIRLET7I</tspan></text></a></g><a  class="GeneProduct TRIM71 " transform="translate(251,251)"   name="LIN-41"  ><rect class="Icon" transform="matrix(.98305 0 0 .95238 .49153 .47619)" width="58" height="20" fill="#fff" stroke="#000"/><text class="Text" transform="translate(29,13)"   font-size="10px"  text-anchor="middle"><tspan x="0" y="0">LIN-41</tspan></text></a><a  class="GeneProduct EGR1 " transform="translate(252,343)"   name="EGR1"  ><rect class="Icon" transform="matrix(.98276 0 0 .95238 .49138 .47619)" width="57" height="20" fill="#fff" stroke="#000"/><text class="Text" transform="translate(28.5,13)"   font-size="10px"  text-anchor="middle"><tspan x="0" y="0">EGR1</tspan></text></a><g class="GroupGroup" transform="translate(39,212)" color="grey" ><use class="Icon" width="61" height="96" fill="transparent"  stroke="grey" stroke-dasharray="5,3" stroke-width="0" xlink:href="#a"/><a  class="GeneProduct MYC " transform="translate(8,28)"   name="c-MYC"  ><rect class="Icon" transform="matrix(.97826 0 0 .95238 .48913 .47619)" width="45" height="20" fill="#fff" stroke="#000"/><text class="Text" transform="translate(22.5,13)"   font-size="10px"  text-anchor="middle"><tspan x="0" y="0">c-MYC</tspan></text></a><a  class="GeneProduct SOX2 " transform="translate(8,8)"   name="SOX2"  ><rect class="Icon" transform="matrix(.97826 0 0 .95238 .48913 .47619)" width="45" height="20" fill="#fff" stroke="#000"/><text class="Text" transform="translate(22.5,13)"   font-size="10px"  text-anchor="middle"><tspan x="0" y="0">SOX2</tspan></text></a><a  class="GeneProduct KLF4 " transform="translate(8,68)"   name="KLF4"  ><rect class="Icon" transform="matrix(.97826 0 0 .95238 .48913 .47619)" width="45" height="20" fill="#fff" stroke="#000"/><text class="Text" transform="translate(22.5,13)"   font-size="10px"  text-anchor="middle"><tspan x="0" y="0">KLF4</tspan></text></a><a  class="GeneProduct POU5F1 " transform="translate(8,48)"   name="OCT4"  ><rect class="Icon" transform="matrix(.97826 0 0 .95238 .48913 .47619)" width="45" height="20" fill="#fff" stroke="#000"/><text class="Text" transform="translate(22.5,13)"   font-size="10px"  text-anchor="middle"><tspan x="0" y="0">OCT4</tspan></text></a></g><g class="Label" transform="translate(473,251)" color="#000"  name="Pluripotency"><use class="Icon" width="100" height="20" fill="transparent"  stroke="#000" stroke-width="0" xlink:href="#a"/><text class="Text" transform="translate(50,14)"   font-size="12px" font-weight="bold"  text-anchor="middle"><tspan x="0" y="0">Pluripotency</tspan></text></g><text class="Text" transform="translate(5,27)" dominant-baseline="central" fill="black"  font-size="12px" font-weight="bold" overflow="visible" ><tspan x="0" y="-9">Name: let-7 inhibition of ES cell reprogramming</tspan> <tspan x="0" y="9">Organism: Homo sapiens</tspan></text></g></svg>
