<?xml version="1.0" encoding="UTF-8"?>
<!--
  WikiPathways page: https://www.wikipathways.org/index.php/Pathway:WP325
  URL for this compressed file: https://github.com/eweitz/cachome/tree/main/data/wikipathways/WP325.svg
  Source code for compression: https://github.com/eweitz/cachome/tree/main/src/wikipathways.py
-->
<svg class="Diagram" width="800" height="600" color="black" baseProfile="full" prefix="schema:http://schema.org/" preserveAspectRatio="xMidYMid" version="1.1" viewBox="0 0 976 1114.7" vocab="http://vocabularies.wikipathways.org/wp#" xmlns="http://www.w3.org/2000/svg" xmlns:xlink="http://www.w3.org/1999/xlink"><style>svg {font-family: 'Liberation Sans', Arial, sans-serif; }</style><defs><filter id="a" x="0" y="0" width="976" height="1114.7" filterUnits="userSpaceOnUse"><feColorMatrix in="SourceGraphic" values="-1   0   0 0 0                   0  -1   0 0 0                   0   0  -1 0 0                   0   0   0 1 0"/></filter><marker id="e" stroke-dasharray="99999" markerHeight="12" markerUnits="userSpaceOnUse" markerWidth="12" orient="auto" preserveAspectRatio="none" refX="12" refY="6" viewBox="0 0 12 12"><path transform="rotate(180 6 6)" d="M12 11L0 6l12-5z" fill="currentColor" stroke-width="0"/></marker><marker id="d" stroke-dasharray="99999" markerHeight="12" markerUnits="userSpaceOnUse" markerWidth="12" orient="auto" preserveAspectRatio="none" refX="12" refY="6" viewBox="0 0 12 12"><circle transform="rotate(180 6 6)" cx="6" cy="6" r="5.3" fill="none" stroke="#000"/></marker><marker id="c" stroke-dasharray="99999" markerHeight="12" markerUnits="userSpaceOnUse" markerWidth="12" orient="auto" preserveAspectRatio="none" refX="12" refY="6" viewBox="0 0 12 12"><path transform="rotate(180 6 6)" d="M12 11L0 6l12-5z" fill="currentColor" stroke-width="0"/></marker><symbol id="b" preserveAspectRatio="none" viewBox="0 0 100 100"/></defs><g class="Viewport" color="black"  name="Name: Triacylglyceride synthesis License: CC BY 2.0 Organism: Homo sapiens"><rect class="Icon" width="976" height="1114.7" fill="#fff" stroke="#000" stroke-width="0"/><g id="f" class="DirectedInteraction" color="#000" ><g color="#000" fill="transparent"  filter="url(#a)" stroke="#000" stroke-dasharray="5.12, 3.07, 5.12, 3.07, 5.12, 3.07, 5.12, 3.07, 5.12, 3.07, 5.12, 3.07, 5.12, 3.07, 5.12, 3.07, 5.12, 3.07, 5.12, 3.07, 5.12, 3.07, 5.12, 3.07, 5.12, 3.07, 5.12, 3.07, 5.12, 3.07, 5.12, 3.07, 5.12, 3.07, 5.12, 3.07, 5.12, 3.07, 5.12, 3.07, 5.12, 3.07, 5.12, 3.07, 5.12, 3.07, 5.12, 3.07, 5.12, 3.07, 5.12, 3.07, 5.12, 3.07, 5.12, 3.07, 5.12, 3.07, 5.12, 3.07, 5.12, 3.07, 5.12, 3.07, 5.12, 3.07, 5.12, 3.07, 5.12, 3.07, 5.12, 3.07, 5.12, 3.07, 5.12, 3.07, 0, 5.8"><path class="EdgeBody" d="m880 40-1e-13 45.778c1e-13 45.778 1e-13 137.33-11.889 183.11-11.889 45.778-35.667 45.778-47.556 45.778h-11.889"   marker-end="url(#e)" /></g></g><g id="g" class="Interaction" color="#000" ><g color="#000" fill="transparent"  filter="url(#a)" stroke="#000" stroke-dasharray="5.03, 3.02, 5.03, 3.02, 5.03, 3.02, 5.03, 3.02, 5.03, 3.02, 5.03, 3.02, 5.03, 3.02, 5.03, 3.02, 5.03, 3.02, 5.03, 3.02, 5.03, 3.02, 5.03, 3.02, 5.03, 3.02, 5.03, 3.02, 5.03, 3.02, 5.03, 3.02, 5.03, 3.02, 5.03, 3.02, 5.03, 3.02, 5.03, 3.02, 5.03, 3.02, 5.03, 3.02, 5.03, 3.02, 5.03, 3.02, 5.03, 3.02, 5.03, 3.02, 5.03, 3.02, 5.03, 3.02, 5.03, 3.02, 5.03, 3.02, 5.03, 3.02, 5.03, 3.02, 5.03, 3.02, 5.03, 3.02, 5.03, 3.02, 5.03, 3.02, 5.03, 3.02, 5.03, 3.02, 5.03, 3.02, 5.03, 3.02, 5.03, 3.02, 5.03, 3.02, 5.03, 3.02, 5.03, 3.02, 5.03, 3.02, 5.03, 3.02, 0, 5.8"><path class="EdgeBody" d="m630.67 854v16.111c0 16.111 0 48.333-42.778 64.444-42.778 16.111-128.33 16.111-171.11-1e-13 -42.778-16.111-42.778-48.333-42.778-64.444l6e-14 -16.111"   marker-end="url(#c)" /></g><g class="Burr Anchor" transform="translate(503.3 946.64)" ><use class="Icon" width="0" height="0" fill="#141414" stroke-width="0" xlink:href="#b"/></g></g><g id="h" class="DirectedInteraction" color="#000" ><g color="#000" fill="transparent"  filter="url(#a)" stroke="#000" stroke-dasharray="5.06, 3.04, 5.06, 3.04, 5.06, 3.04, 5.06, 3.04, 5.06, 3.04, 5.06, 3.04, 5.06, 3.04, 5.06, 3.04, 5.06, 3.04, 5.06, 3.04, 5.06, 3.04, 5.06, 3.04, 5.06, 3.04, 5.06, 3.04, 5.06, 3.04, 5.06, 3.04, 5.06, 3.04, 5.06, 3.04, 5.06, 3.04, 5.06, 3.04, 5.06, 3.04, 5.06, 3.04, 5.06, 3.04, 5.06, 3.04, 5.06, 3.04, 5.06, 3.04, 5.06, 3.04, 5.06, 3.04, 5.06, 3.04, 0, 5.8"><path class="EdgeBody" d="m847 40-1e-13 12.958c1e-13 12.958 1e-13 38.875-31.611 51.833-31.611 12.958-94.833 12.958-126.44 12.958h-31.611"   marker-end="url(#e)" /></g></g><g id="i" class="Interaction" color="#000" ><g color="#000" fill="transparent"  filter="url(#a)" stroke="#000" stroke-dasharray="175.6096402786565, 5.8"><path class="EdgeBody" d="m374 834-6e-14 -19.444c6e-14 -19.444 6e-14 -58.333 15.222-77.778 15.222-19.444 45.667-19.444 60.889-19.444h15.222"   marker-end="url(#c)" /></g><g class="Burr Anchor" transform="translate(374.09 802.1)" ><use class="Icon" width="0" height="0" fill="#141414" stroke-width="0" xlink:href="#b"/></g></g><g id="j" class="Interaction" color="#000" ><g color="#000" fill="transparent"  filter="url(#a)" stroke="#000" stroke-dasharray="112.88351940255978, 5.8"><path class="EdgeBody" d="m508 286-2 118.67"   marker-end="url(#c)" /></g><g class="Burr Anchor" transform="translate(507.2 333.47)" ><use class="Icon" width="0" height="0" fill="#141414" stroke-width="0" xlink:href="#b"/></g></g><g id="k" class="Interaction" color="#000" ><g color="#000" fill="transparent"  filter="url(#a)" stroke="#000" stroke-dasharray="186.57788282973002, 5.8"><path class="EdgeBody" d="m577.33 117.75h-11.556c-11.556 0-34.667 0-46.222 24.708-11.556 24.708-11.556 74.125-11.556 98.833l1e-13 24.708"   marker-end="url(#c)" /></g><g class="Burr Anchor" transform="translate(508.18 219.15)" ><use class="Icon" width="0" height="0" fill="#141414" stroke-width="0" xlink:href="#b"/></g></g><g id="l" class="Interaction" color="#000" ><g color="#000" fill="transparent"  filter="url(#a)" stroke="#000" stroke-dasharray="103.53536583476654, 5.8"><path class="EdgeBody" d="m506 598-0.66667 109.33"   marker-end="url(#c)" /></g><g class="Burr Anchor" transform="translate(505.73 641.73)" ><use class="Icon" width="0" height="0" fill="#141414" stroke-width="0" xlink:href="#b"/></g></g><g id="m" class="Interaction" color="#000" ><g color="#000" fill="transparent"  filter="url(#a)" stroke="#000" stroke-dasharray="146.14758211214976, 5.8"><path class="EdgeBody" d="m321.17 217.98-14.639-5e-14c-14.639 2e-14 -43.917 2e-14 -58.556 14.447-14.639 14.447-14.639 43.342-14.639 57.789l3e-14 14.447"   marker-end="url(#c)" /></g><g class="Burr Anchor" transform="translate(295.68 218.12)" ><use class="Icon" width="0" height="0" fill="#141414" stroke-width="0" xlink:href="#b"/></g></g><g id="n" class="DirectedInteraction" color="#000" ><g color="#000" fill="transparent"  filter="url(#a)" stroke="#000" stroke-dasharray="5.05, 3.03, 5.05, 3.03, 5.05, 3.03, 5.05, 3.03, 5.05, 3.03, 5.05, 3.03, 5.05, 3.03, 5.05, 3.03, 5.05, 3.03, 5.05, 3.03, 5.05, 3.03, 5.05, 3.03, 5.05, 3.03, 5.05, 3.03, 5.05, 3.03, 5.05, 3.03, 5.05, 3.03, 5.05, 3.03, 5.05, 3.03, 5.05, 3.03, 5.05, 3.03, 5.05, 3.03, 5.05, 3.03, 5.05, 3.03, 5.05, 3.03, 5.05, 3.03, 5.05, 3.03, 5.05, 3.03, 5.05, 3.03, 5.05, 3.03, 5.05, 3.03, 5.05, 3.03, 5.05, 3.03, 5.05, 3.03, 5.05, 3.03, 5.05, 3.03, 5.05, 3.03, 5.05, 3.03, 5.05, 3.03, 5.05, 3.03, 5.05, 3.03, 5.05, 3.03, 5.05, 3.03, 5.05, 3.03, 5.05, 3.03, 5.05, 3.03, 5.05, 3.03, 5.05, 3.03, 5.05, 3.03, 5.05, 3.03, 5.05, 3.03, 5.05, 3.03, 5.05, 3.03, 5.05, 3.03, 5.05, 3.03, 5.05, 3.03, 5.05, 3.03, 5.05, 3.03, 5.05, 3.03, 5.05, 3.03, 5.05, 3.03, 5.05, 3.03, 5.05, 3.03, 5.05, 3.03, 5.05, 3.03, 5.05, 3.03, 5.05, 3.03, 5.05, 3.03, 5.05, 3.03, 5.05, 3.03, 5.05, 3.03, 5.05, 3.03, 5.05, 3.03, 5.05, 3.03, 5.05, 3.03, 5.05, 3.03, 5.05, 3.03, 5.05, 3.03, 5.05, 3.03, 5.05, 3.03, 5.05, 3.03, 5.05, 3.03, 5.05, 3.03, 5.05, 3.03, 5.05, 3.03, 5.05, 3.03, 5.05, 3.03, 5.05, 3.03, 5.05, 3.03, 5.05, 3.03, 5.05, 3.03, 5.05, 3.03, 0, 5.8"><path class="EdgeBody" d="m913 40-1e-13 112.89c1e-13 112.89 1e-13 338.67-22.389 451.56-22.389 112.89-67.167 112.89-89.556 112.89h-22.389"   marker-end="url(#e)" /></g></g><g id="o" class="Interaction" color="#000" ><g color="#000" fill="transparent"  filter="url(#a)" stroke="#000" stroke-dasharray="147.5333333333333, 5.8"><path class="EdgeBody" d="m506 424.67v153.33"   marker-end="url(#c)" /></g><g class="Burr Anchor" transform="translate(506,486)" ><use class="Icon" width="0" height="0" fill="#141414" stroke-width="0" xlink:href="#b"/></g></g><g id="p" class="Interaction" color="#000" ><g color="#000" fill="transparent"  filter="url(#a)" stroke="#000" stroke-dasharray="240.09398271216193, 5.8"><path class="EdgeBody" d="m286.67 314.67h31.389c31.389-7e-14 94.167-7e-14 125.56 15 31.389 15 31.389 45 31.389 60l1e-13 15"   marker-end="url(#c)" /></g></g><g id="q" class="Interaction" color="#000" ><g color="#000" fill="transparent"  filter="url(#a)" stroke="#000" stroke-dasharray="131.36385665565786, 5.8"><path class="EdgeBody" d="m162.67 217.98 11.778-2e-14c11.778 0 35.333 0 47.111 14.447 11.778 14.447 11.778 43.342 11.778 57.789l3e-14 14.447"   marker-end="url(#c)" /></g><g class="Burr Anchor" transform="translate(190.57 218.65)" ><use class="Icon" width="0" height="0" fill="#141414" stroke-width="0" xlink:href="#b"/></g></g><g id="r" class="Interaction" color="#000" ><g color="#000" fill="transparent"  filter="url(#a)" stroke="#000" stroke-dasharray="15.226293704690871, 11"><path class="EdgeBody" d="m194 197-6.3929 25.435"   marker-end="url(#d)" /></g></g><g id="s" class="Interaction" color="#000" ><g color="#000" fill="transparent"  filter="url(#a)" stroke="#000" stroke-dasharray="170.56459073961867, 5.8"><path class="EdgeBody" d="m545.33 717.33h14.222c14.222 0 42.667 0 56.889 19.444 14.222 19.444 14.222 58.333 14.222 77.778v19.444"   marker-end="url(#c)" /></g><g class="Burr Anchor" transform="translate(630.58 802.46)" ><use class="Icon" width="0" height="0" fill="#141414" stroke-width="0" xlink:href="#b"/></g></g><g id="t" class="Interaction" color="#000" ><g color="#000" fill="transparent"  filter="url(#a)" stroke="#000" stroke-dasharray="156.28428582585872, 5.8"><path class="EdgeBody" d="m698.67 717.33h-11.333c-11.333 0-34 0-45.333 19.444-11.333 19.444-11.333 58.333-11.333 77.778v19.444"   marker-end="url(#c)" /></g><g class="Burr Anchor" transform="translate(630.93 794.06)" ><use class="Icon" width="0" height="0" fill="#141414" stroke-width="0" xlink:href="#b"/></g></g><g id="u" class="Interaction" color="#000" ><g color="#000" fill="transparent"  filter="url(#a)" stroke="#000" stroke-dasharray="193.67688970918056, 5.8"><path class="EdgeBody" d="m429.67 117.75h13.056c13.056 0 39.167 0 52.222 24.708 13.056 24.708 13.056 74.125 13.056 98.833l1e-13 24.708"   marker-end="url(#c)" /></g><g class="Burr Anchor" transform="translate(507.95 227.7)" ><use class="Icon" width="0" height="0" fill="#141414" stroke-width="0" xlink:href="#b"/></g></g><g id="v" class="Interaction" color="#000" ><g color="#000" fill="transparent"  filter="url(#a)" stroke="#000" stroke-dasharray="11.162330402935655, 11"><path class="EdgeBody" d="m529.33 332.33-22.133 1.1333"   marker-end="url(#d)" /></g></g><g id="w" class="Interaction" color="#000" ><g color="#000" fill="transparent"  filter="url(#a)" stroke="#000" stroke-dasharray="243.20020280139286, 5.8"><path class="EdgeBody" d="m728.67 314.67h-31.944c-31.944-7e-14 -95.833-7e-14 -127.78 15-31.944 15-31.944 45-31.944 60v15"   marker-end="url(#c)" /></g><g class="Burr Anchor" transform="translate(659.8 315.11)" ><use class="Icon" width="0" height="0" fill="#141414" stroke-width="0" xlink:href="#b"/></g></g><g id="x" class="Interaction" color="#000" ><g color="#000" fill="transparent"  filter="url(#a)" stroke="#000" stroke-dasharray="21.79298700333024, 11"><path class="EdgeBody" d="m687.67 294.67-22.303 24.041"   marker-end="url(#d)" /></g></g><g id="y" class="Interaction" color="#000" ><g color="#000" fill="transparent"  filter="url(#a)" stroke="#000" stroke-dasharray="16.276526334723986, 11"><path class="EdgeBody" d="m533 641-27.267 0.73333"   marker-end="url(#d)" /></g></g><g id="z" class="Interaction" color="#000" ><g color="#000" fill="transparent"  filter="url(#a)" stroke="#000" stroke-dasharray="36.204969999324604, 11"><path class="EdgeBody" d="m558.33 225-47.151-2.2622"   marker-end="url(#d)" /></g></g><g id="aa" class="Interaction" color="#000" ><g color="#000" fill="transparent"  filter="url(#a)" stroke="#000" stroke-dasharray="42.17153897992393, 11"><path class="EdgeBody" d="m558.33 225-52.857 5.7731"   marker-end="url(#d)" /></g></g><g id="ab" class="Interaction" color="#000" ><g color="#000" fill="transparent"  filter="url(#a)" stroke="#000" stroke-dasharray="15.036903856863066, 11"><path class="EdgeBody" d="m503 976.67 0.26257-26.036"   marker-end="url(#d)" /></g></g><g id="ac" class="Interaction" color="#000" ><g color="#000" fill="transparent"  filter="url(#a)" stroke="#000" stroke-dasharray="16.68473305712823, 11"><path class="EdgeBody" d="m533.67 485-27.667 1"   marker-end="url(#d)" /></g></g><g id="ad" class="Interaction" color="#000" ><g color="#000" fill="transparent"  filter="url(#a)" stroke="#000" stroke-dasharray="10.936925411365213, 11"><path class="EdgeBody" d="m286 202 12.11 18.291"   marker-end="url(#d)" /></g></g><g id="ae" class="Interaction" color="#000" ><g color="#000" fill="transparent"  filter="url(#a)" stroke="#000" stroke-dasharray="20.269474554660636, 11"><path class="EdgeBody" d="m350.33 787.5 25.888 17.538"   marker-end="url(#d)" /></g></g><g id="af" class="Interaction" color="#000" ><g color="#000" fill="transparent"  filter="url(#a)" stroke="#000" stroke-dasharray="25.11123988858187, 11"><path class="EdgeBody" d="m670.33 797.67-36.111-0.19145"   marker-end="url(#d)" /></g></g><g id="ag" class="Interaction" color="#000" ><g color="#000" fill="transparent"  filter="url(#a)" stroke="#000" stroke-dasharray="32.26756355944374, 11"><path class="EdgeBody" d="m670.33 797.67-42.581 7.6756"   marker-end="url(#d)" /></g></g><g class="Label" transform="translate(611.67 620.33)" color="#000"  name="Only 1 of these  enzymes is needed"><use class="Icon" width="101.33333333333333" height="28" fill="transparent"  stroke="#000" stroke-width="0" xlink:href="#b"/><text class="Text" transform="translate(50.667 17)"   font-size="10px" font-weight="bold"  text-anchor="middle"><tspan x="0" y="-5.5">Only 1 of these </tspan> <tspan x="0" y="5.5">enzymes is needed</tspan></text></g><g class="Label" transform="translate(613 459.33)" color="#000"  name="Only 1 of these  enzymes is needed"><use class="Icon" width="101.33333333333333" height="28" fill="transparent"  stroke="#000" stroke-width="0" xlink:href="#b"/><text class="Text" transform="translate(50.667 17)"   font-size="10px" font-weight="bold"  text-anchor="middle"><tspan x="0" y="-5.5">Only 1 of these </tspan> <tspan x="0" y="5.5">enzymes is needed</tspan></text></g><g class="Label" transform="translate(540.5 887.33)" color="#000"  name="Degradation Path"><use class="Icon" width="80.33333333333333" height="24.666666666666668" fill="transparent"  stroke="#000" stroke-width="0" xlink:href="#b"/><text class="Text" transform="translate(40.167 15.333)"   font-size="10px" font-style="italic" font-weight="bold"  text-anchor="middle"><tspan x="0" y="-5.5">Degradation</tspan> <tspan x="0" y="5.5">Path</tspan></text></g><a  class="GeneProduct GPD1 " transform="translate(167.33 177)"   name="GPD1"  ><rect class="Icon" transform="matrix(.9816 0 0 .95238 .4908 .47619)" width="53.333" height="20" fill="#fff" stroke="#000"/><text class="Text" transform="translate(26.667 13)"   font-size="10px"  text-anchor="middle"><tspan x="0" y="0">GPD1</tspan></text></a><a class="KEGG_Compound_C00165 Metabolite ChEBI_CHEBI_18035  " transform="translate(465.33 707.33)" color="#00f"  name="Diacylglycerol"  ><rect class="Icon" transform="matrix(.98765 0 0 .95238 .49383 .47619)" width="80" height="20" fill="#fff" stroke="#00f"/><text class="Text" transform="translate(40,13)" fill="#00f"  font-size="10px"  text-anchor="middle"><tspan x="0" y="0">Diacylglycerol</tspan></text></a><a class="KEGG_Compound_C03372 Metabolite ChEBI_CHEBI_15835  " transform="translate(426.67 266)" color="#00f"  name="Acyl dihydroxyacetone phosphate"  ><rect class="Icon" transform="matrix(.99389 0 0 .95238 .49695 .47619)" width="162.67" height="20" fill="#fff" stroke="#00f"/><text class="Text" transform="translate(81.333 13)" fill="#00f"  font-size="10px"  text-anchor="middle"><tspan x="0" y="0">Acyl dihydroxyacetone phosphate</tspan></text></a><a class="ChEBI_CHEBI_37554 Metabolite  " transform="translate(698.67 707.33)" color="#00f"  name="Fatty acyl CoA"  ><rect class="Icon" transform="matrix(.98765 0 0 .95238 .49383 .47619)" width="80" height="20" fill="#fff" stroke="#00f"/><text class="Text" transform="translate(40,13)" fill="#00f"  font-size="10px"  text-anchor="middle"><tspan x="0" y="0">Fatty acyl CoA</tspan></text></a><a class="ChEBI_CHEBI_37554 Metabolite  " transform="translate(577.33 107.75)" color="#00f"  name="Fatty acyl CoA"  ><rect class="Icon" transform="matrix(.98765 0 0 .95238 .49383 .47619)" width="80" height="20" fill="#fff" stroke="#00f"/><text class="Text" transform="translate(40,13)" fill="#00f"  font-size="10px"  text-anchor="middle"><tspan x="0" y="0">Fatty acyl CoA</tspan></text></a><a class="CAS_56-81-5 Metabolite ChEBI_CHEBI_17754  " transform="translate(321.17 208.48)" color="#00f"  name="Glycerol"  ><rect class="Icon" transform="matrix(.98209 0 0 .95 .49104 .475)" width="54.833" height="19" fill="#fff" stroke="#00f"/><text class="Text" transform="translate(27.417 12.5)" fill="#00f"  font-size="10px"  text-anchor="middle"><tspan x="0" y="0">Glycerol</tspan></text></a><a class="ChEBI_CHEBI_37554 Metabolite  " transform="translate(728.67 304.67)" color="#00f"  name="Fatty acyl CoA"  ><rect class="Icon" transform="matrix(.98765 0 0 .95238 .49383 .47619)" width="80" height="20" fill="#fff" stroke="#00f"/><text class="Text" transform="translate(40,13)" fill="#00f"  font-size="10px"  text-anchor="middle"><tspan x="0" y="0">Fatty acyl CoA</tspan></text></a><a class="KEGG_Compound_C00422 Metabolite ChEBI_CHEBI_17855  " transform="translate(590.67 834)" color="#00f"  name="Triacylglycerol"  ><rect class="Icon" transform="matrix(.98765 0 0 .95238 .49383 .47619)" width="80" height="20" fill="#fff" stroke="#00f"/><text class="Text" transform="translate(40,13)" fill="#00f"  font-size="10px"  text-anchor="middle"><tspan x="0" y="0">Triacylglycerol</tspan></text></a><a class="KEGG_Compound_C01885 Metabolite ChEBI_CHEBI_17408 ChEBI_CHEBI_35759  " transform="translate(326.67 834)" color="#00f"  name="Monoacylglycerol"  ><rect class="Icon" transform="matrix(.98955 0 0 .95238 .49477 .47619)" width="94.667" height="20" fill="#fff" stroke="#00f"/><text class="Text" transform="translate(47.333 13)" fill="#00f"  font-size="10px"  text-anchor="middle"><tspan x="0" y="0">Monoacylglycerol</tspan></text></a><a class="PubChem-compound_5460104 Metabolite " transform="translate(457.33 578)" color="#00f"  name="Phosphatidic acid"  ><rect class="Icon" transform="matrix(.98983 0 0 .95238 .49492 .47619)" width="97.333" height="20" fill="#fff" stroke="#00f"/><text class="Text" transform="translate(48.667 13)" fill="#00f"  font-size="10px"  text-anchor="middle"><tspan x="0" y="0">Phosphatidic acid</tspan></text></a><a class="CAS_57-04-5 Metabolite ChEBI_CHEBI_16108  " transform="translate(286.67 108.25)" color="#00f"  name="Dihydroxyacetone phosphate"  ><rect class="Icon" transform="matrix(.99306 0 0 .95 .49653 .475)" width="143" height="19" fill="#fff" stroke="#00f"/><text class="Text" transform="translate(71.5,12.5)" fill="#00f"  font-size="10px"  text-anchor="middle"><tspan x="0" y="0">Dihydroxyacetone phosphate</tspan></text></a><a class="WikiPathways_WP357 Pathway " transform="translate(814,20)" color="#14961e"  name="Fatty Acid Synthesis"  ><rect class="Icon" transform="matrix(.99248 0 0 .95238 .49624 .47619)" width="132" height="20" rx="15" ry="15" fill="#fff" stroke="#14961e"/><text class="Text" transform="translate(66,14)" fill="#14961e"  font-size="12px" font-weight="bold" stroke="black" stroke-width="0" text-anchor="middle"><tspan x="0" y="0">Fatty Acid Synthesis</tspan></text></a><a class="PubChem-compound_5497152 Metabolite " transform="translate(444 404.67)" color="#00f"  name="Lysophosphatidic acid"  ><rect class="Icon" transform="matrix(.992 0 0 .95238 .496 .47619)" width="124" height="20" fill="#fff" stroke="#00f"/><text class="Text" transform="translate(62,13)" fill="#00f"  font-size="10px"  text-anchor="middle"><tspan x="0" y="0">Lysophosphatidic acid</tspan></text></a><a class="Metabolite ChEBI_CHEBI_16108  " transform="translate(18.65 207.98)" color="#00f"  name="Dihydroxyacetone phosphate"  ><rect class="Icon" transform="matrix(.9931 0 0 .95238 .49655 .47619)" width="144.02" height="20" fill="#fff" stroke="#00f"/><text class="Text" transform="translate(72.008 13)" fill="#00f"  font-size="10px"  text-anchor="middle"><tspan x="0" y="0">Dihydroxyacetone phosphate</tspan></text></a><a  class="GeneProduct GPAM " transform="translate(661 274.67)"   name="GPAM"  ><rect class="Icon" transform="matrix(.9816 0 0 .95238 .4908 .47619)" width="53.333" height="20" fill="#fff" stroke="#000"/><text class="Text" transform="translate(26.667 13)"   font-size="10px"  text-anchor="middle"><tspan x="0" y="0">GPAM</tspan></text></a><g class="GeneProduct" transform="translate(529.33 322.33)" color="#000"  name="AYR1"><rect class="Icon" transform="matrix(.98361 0 0 .95238 .4918 .47619)" width="60" height="20" fill="#fff" stroke="#000"/><text class="Text" transform="translate(30,13)"   font-size="10px"  text-anchor="middle"><tspan x="0" y="0">AYR1</tspan></text></g><a class="KEGG_Compound_C00093 Metabolite ChEBI_CHEBI_15978  " transform="translate(180 304.67)" color="#00f"  name="Glycerol-3-phosphate"  ><rect class="Icon" transform="matrix(.99071 0 0 .95238 .49536 .47619)" width="106.67" height="20" fill="#fff" stroke="#00f"/><text class="Text" transform="translate(53.333 13)" fill="#00f"  font-size="10px"  text-anchor="middle"><tspan x="0" y="0">Glycerol-3-phosphate</tspan></text></a><g class="GroupNone" transform="translate(532,602)" color="grey" ><rect class="Icon" transform="matrix(.98734 0 0 .98734 .49367 .49367)" width="78" height="78" fill="#b4b464" fill-opacity=".1" stroke="grey" stroke-dasharray="5,3"/><a  class="GeneProduct PLPP3 " transform="translate(9,29)"   name="PPAP2B"  ><rect class="Icon" transform="matrix(.98361 0 0 .95238 .4918 .47619)" width="60" height="20" fill="#fff" stroke="#000"/><text class="Text" transform="translate(30,13)"   font-size="10px"  text-anchor="middle"><tspan x="0" y="0">PPAP2B</tspan></text></a><a  class="GeneProduct PLPP1 " transform="translate(9,9)"   name="PPAP2A"  ><rect class="Icon" transform="matrix(.98361 0 0 .95238 .4918 .47619)" width="60" height="20" fill="#fff" stroke="#000"/><text class="Text" transform="translate(30,13)"   font-size="10px"  text-anchor="middle"><tspan x="0" y="0">PPAP2A</tspan></text></a><a  class="GeneProduct PLPP2 " transform="translate(9,49)"   name="PPAP2C"  ><rect class="Icon" transform="matrix(.98361 0 0 .95238 .4918 .47619)" width="60" height="20" fill="#fff" stroke="#000"/><text class="Text" transform="translate(30,13)"   font-size="10px"  text-anchor="middle"><tspan x="0" y="0">PPAP2C</tspan></text></a></g><g class="GroupNone" transform="translate(557.33 196)" color="grey" ><rect class="Icon" transform="matrix(.9899 0 0 .98305 .49495 .49153)" width="98" height="58" fill="#b4b464" fill-opacity=".1" stroke="grey" stroke-dasharray="5,3"/><a  class="GeneProduct GNPAT " transform="translate(9,29)"   name="GNPAT"  ><rect class="Icon" transform="matrix(.98765 0 0 .95238 .49383 .47619)" width="80" height="20" fill="#fff" stroke="#000"/><text class="Text" transform="translate(40,13)"   font-size="10px"  text-anchor="middle"><tspan x="0" y="0">GNPAT</tspan></text></a><a  class="GeneProduct AGPS " transform="translate(9,9)"   name="AGPS"  ><rect class="Icon" transform="matrix(.98765 0 0 .95238 .49383 .47619)" width="80" height="20" fill="#fff" stroke="#000"/><text class="Text" transform="translate(40,13)"   font-size="10px"  text-anchor="middle"><tspan x="0" y="0">AGPS</tspan></text></a></g><g class="GroupNone" transform="translate(464 975.67)" color="grey" ><rect class="Icon" transform="matrix(.98734 0 0 .9916 .49367 .4958)" width="78" height="118" fill="#b4b464" fill-opacity=".1" stroke="grey" stroke-dasharray="5,3"/><a  class="GeneProduct LIPF " transform="translate(9 69)"   name="LIPF"  ><rect class="Icon" transform="matrix(.98361 0 0 .95238 .4918 .47619)" width="60" height="20" fill="#fff" stroke="#000"/><text class="Text" transform="translate(30,13)"   font-size="10px"  text-anchor="middle"><tspan x="0" y="0">LIPF</tspan></text></a><a  class="GeneProduct LPL " transform="translate(9,9)"   name="LPL"  ><rect class="Icon" transform="matrix(.98361 0 0 .95238 .4918 .47619)" width="60" height="20" fill="#fff" stroke="#000"/><text class="Text" transform="translate(30,13)"   font-size="10px"  text-anchor="middle"><tspan x="0" y="0">LPL</tspan></text></a><a  class="GeneProduct PNPLA2 " transform="translate(9 89)"   name="PNPLA2"  ><rect class="Icon" transform="matrix(.98361 0 0 .95238 .4918 .47619)" width="60" height="20" fill="#fff" stroke="#000"/><text class="Text" transform="translate(30,13)"   font-size="10px"  text-anchor="middle"><tspan x="0" y="0">PNPLA2</tspan></text></a><a  class="GeneProduct LIPC " transform="translate(9 49)"   name="LIPC"  ><rect class="Icon" transform="matrix(.98361 0 0 .95238 .4918 .47619)" width="60" height="20" fill="#fff" stroke="#000"/><text class="Text" transform="translate(30,13)"   font-size="10px"  text-anchor="middle"><tspan x="0" y="0">LIPC</tspan></text></a><a  class="GeneProduct LIPE " transform="translate(9,29)"   name="LIPE"  ><rect class="Icon" transform="matrix(.98361 0 0 .95238 .4918 .47619)" width="60" height="20" fill="#fff" stroke="#000"/><text class="Text" transform="translate(30,13)"   font-size="10px"  text-anchor="middle"><tspan x="0" y="0">LIPE</tspan></text></a></g><g class="GroupNone" transform="translate(532.67 426)" color="grey" ><rect class="Icon" transform="matrix(.98734 0 0 .9916 .49367 .4958)" width="78" height="118" fill="#b4b464" fill-opacity=".1" stroke="grey" stroke-dasharray="5,3"/><a  class="GeneProduct AGPAT1 " transform="translate(9,9)"   name="AGPAT1"  ><rect class="Icon" transform="matrix(.98361 0 0 .95238 .4918 .47619)" width="60" height="20" fill="#fff" stroke="#000"/><text class="Text" transform="translate(30,13)"   font-size="10px"  text-anchor="middle"><tspan x="0" y="0">AGPAT1</tspan></text></a><a  class="GeneProduct AGPAT2 " transform="translate(9,29)"   name="AGPAT2"  ><rect class="Icon" transform="matrix(.98361 0 0 .95238 .4918 .47619)" width="60" height="20" fill="#fff" stroke="#000"/><text class="Text" transform="translate(30,13)"   font-size="10px"  text-anchor="middle"><tspan x="0" y="0">AGPAT2</tspan></text></a><a  class="GeneProduct AGPAT5 " transform="translate(9,89)"   name="AGPAT5"  ><rect class="Icon" transform="matrix(.98361 0 0 .95238 .4918 .47619)" width="60" height="20" fill="#fff" stroke="#000"/><text class="Text" transform="translate(30,13)"   font-size="10px"  text-anchor="middle"><tspan x="0" y="0">AGPAT5</tspan></text></a><a  class="GeneProduct AGPAT3 " transform="translate(9,49)"   name="AGPAT3"  ><rect class="Icon" transform="matrix(.98361 0 0 .95238 .4918 .47619)" width="60" height="20" fill="#fff" stroke="#000"/><text class="Text" transform="translate(30,13)"   font-size="10px"  text-anchor="middle"><tspan x="0" y="0">AGPAT3</tspan></text></a><a  class="GeneProduct AGPAT4 " transform="translate(9,69)"   name="AGPAT4"  ><rect class="Icon" transform="matrix(.98361 0 0 .95238 .4918 .47619)" width="60" height="20" fill="#fff" stroke="#000"/><text class="Text" transform="translate(30,13)"   font-size="10px"  text-anchor="middle"><tspan x="0" y="0">AGPAT4</tspan></text></a></g><g class="GroupNone" transform="translate(250.33 145)" color="grey" ><rect class="Icon" transform="matrix(.98618 0 0 .98305 .49309 .49153)" width="71.333" height="58" fill="#b4b464" fill-opacity=".1" stroke="grey" stroke-dasharray="5,3"/><a  class="GeneProduct GK " transform="translate(9,9)"   name="GK"  ><rect class="Icon" transform="matrix(.9816 0 0 .95238 .4908 .47619)" width="53.333" height="20" fill="#fff" stroke="#000"/><text class="Text" transform="translate(26.667 13)"   font-size="10px"  text-anchor="middle"><tspan x="0" y="0">GK</tspan></text></a><a  class="GeneProduct GK2 " transform="translate(9,29)"   name="GK2"  ><rect class="Icon" transform="matrix(.9816 0 0 .95238 .4908 .47619)" width="53.333" height="20" fill="#fff" stroke="#000"/><text class="Text" transform="translate(26.667 13)"   font-size="10px"  text-anchor="middle"><tspan x="0" y="0">GK2</tspan></text></a></g><g class="GroupNone" transform="translate(273.33 749)" color="grey" ><rect class="Icon" transform="matrix(.98734 0 0 .98718 .49367 .49359)" width="78" height="77" fill="#b4b464" fill-opacity=".1" stroke="grey" stroke-dasharray="5,3"/><a  class="GeneProduct MOGAT1 " transform="translate(9,9)"   name="MOGAT1"  ><rect class="Icon" transform="matrix(.98361 0 0 .95238 .4918 .47619)" width="60" height="20" fill="#fff" stroke="#000"/><text class="Text" transform="translate(30,13)"   font-size="10px"  text-anchor="middle"><tspan x="0" y="0">MOGAT1</tspan></text></a><a  class="GeneProduct MOGAT2 " transform="translate(9,28)"   name="MOGAT2"  ><rect class="Icon" transform="matrix(.98361 0 0 .95238 .4918 .47619)" width="60" height="20" fill="#fff" stroke="#000"/><text class="Text" transform="translate(30,13)"   font-size="10px"  text-anchor="middle"><tspan x="0" y="0">MOGAT2</tspan></text></a><a  class="GeneProduct MOGAT3 " transform="translate(9,48)"   name="MOGAT3"  ><rect class="Icon" transform="matrix(.98361 0 0 .95238 .4918 .47619)" width="60" height="20" fill="#fff" stroke="#000"/><text class="Text" transform="translate(30,13)"   font-size="10px"  text-anchor="middle"><tspan x="0" y="0">MOGAT3</tspan></text></a></g><g class="GroupNone" transform="translate(669.33 768.67)" color="grey" ><rect class="Icon" transform="matrix(.99054 0 0 .98305 .49527 .49153)" width="104.67" height="58" fill="#b4b464" fill-opacity=".1" stroke="grey" stroke-dasharray="5,3"/><a  class="GeneProduct DGAT2 " transform="translate(9,29)"   name="DGAT2"  ><rect class="Icon" transform="matrix(.98859 0 0 .95238 .4943 .47619)" width="86.667" height="20" fill="#fff" stroke="#000"/><text class="Text" transform="translate(43.333 13)"   font-size="10px"  text-anchor="middle"><tspan x="0" y="0">DGAT2</tspan></text></a><a  class="GeneProduct DGAT1 " transform="translate(9,9)"   name="DGAT1"  ><rect class="Icon" transform="matrix(.98859 0 0 .95238 .4943 .47619)" width="86.667" height="20" fill="#fff" stroke="#000"/><text class="Text" transform="translate(43.333 13)"   font-size="10px"  text-anchor="middle"><tspan x="0" y="0">DGAT1</tspan></text></a></g><text class="Text" transform="translate(5,36)" dominant-baseline="central" fill="black"  font-size="12px" font-weight="bold" overflow="visible" ><tspan x="0" y="-18">Name: Triacylglyceride synthesis</tspan> <tspan x="0" y="0">License: CC BY 2.0</tspan> <tspan x="0" y="18">Organism: Homo sapiens</tspan></text></g></svg>
