<?xml version="1.0" encoding="UTF-8"?>
<!--
  WikiPathways page: https://www.wikipathways.org/index.php/Pathway:WP3302
  URL for this compressed file: https://github.com/eweitz/cachome/tree/main/data/wikipathways/WP3302.svg
  Source code for compression: https://github.com/eweitz/cachome/tree/main/src/wikipathways.py
-->
<svg class="Diagram" width="800" height="600" color="black" baseProfile="full" prefix="schema:http://schema.org/" preserveAspectRatio="xMidYMid" version="1.1" viewBox="0 0 955 357" vocab="http://vocabularies.wikipathways.org/wp#" xmlns="http://www.w3.org/2000/svg" xmlns:xlink="http://www.w3.org/1999/xlink"><style>svg {font-family: 'Liberation Sans', Arial, sans-serif; }</style><defs><filter id="f" x="-50%" y="-50%" width="200%" height="200%"><feComposite in="SourceGraphic" in2="SourceGraphic" result="doubleDark"/><feMorphology in="doubleDark" operator="dilate" radius="0.16666666666666666" result="in2Double"/><feMorphology in="SourceGraphic" operator="dilate" radius="3" result="inDouble"/><feComposite in="inDouble" in2="in2Double" operator="out" result="doubleResult"/></filter><filter id="a" x="0" y="0" width="955" height="357" filterUnits="userSpaceOnUse"><feColorMatrix in="SourceGraphic" values="-1   0   0 0 0                   0  -1   0 0 0                   0   0  -1 0 0                   0   0   0 1 0"/></filter><marker id="b" stroke-dasharray="99999" markerHeight="12" markerUnits="userSpaceOnUse" markerWidth="12" orient="auto" preserveAspectRatio="none" refX="12" refY="6" viewBox="0 0 12 12"><path transform="rotate(180 6 6)" d="M12 11L0 6l12-5z" fill="currentColor" stroke-width="0"/></marker><marker id="e" stroke-dasharray="99999" markerHeight="20" markerUnits="userSpaceOnUse" markerWidth="10" orient="auto" preserveAspectRatio="none" refX="10" refY="10" viewBox="0 0 10 20"><path d="m3 0v20" fill="currentColor" stroke="currentColor"/></marker><symbol id="i" overflow="visible" preserveAspectRatio="none" viewBox="0 0 50 50"><ellipse cx="25" cy="25" rx="25" ry="25" stroke="currentColor" vector-effect="non-scaling-stroke"/></symbol><symbol id="h" overflow="visible" preserveAspectRatio="none" viewBox="0 0 100 100"><ellipse cx="50" cy="50" rx="50" ry="50" stroke="currentColor"/><path d="M14.895 26.347c4.364-.741 3.827 17.037 8.183 16.184 8.273.03 2.982-28.149 9.9-28.337 6.967-.187 2.246 29.948 9.204 29.44 7.633-.56.508-32.935 8.137-33.623 7.698-.689 2.919 32.04 10.628 32.225 6.547.16 3.026-27.643 9.56-26.921 7.193.793.665 29.842 7.782 31.667 4.748 1.216 4.42-18.258 9.204-17.44 11.129 7.577 8.628 37.698-2.18 44.644-3.138.699-3.966-10.502-7.113-9.905-5.59 1.059-3.982 22.284-9.603 21.8-5.24-.457-2.226-21.637-7.47-21.73-6.962-.117-3.358 28.924-10.317 28.495-6.14-.376-1.73-24.95-7.825-26.192-5.682-1.157-5.378 22.17-11.027 20.68-6.25-1.644-.47-26.673-6.76-27.865-3.728-.706-2.647 14.4-6.403 14.545-14.016-5.939-15.749-39.708-3.9-47.667z" stroke="currentColor" vector-effect="non-scaling-stroke"/></symbol><symbol id="d" overflow="visible" preserveAspectRatio="none" viewBox="0 0 100 100"><path d="M0 25L25 0h50l25 25v50l-25 25H25L0 75z" stroke="currentColor" vector-effect="non-scaling-stroke"/></symbol><symbol id="g" overflow="visible" preserveAspectRatio="none" viewBox="0 0 100 100"><path transform="matrix(.95 0 0 1 8 0)" d="M59.16 99.613L95 50.283 59.16.953 1.169 19.796V80.77z" stroke="currentColor" vector-effect="non-scaling-stroke"/></symbol><symbol id="c" preserveAspectRatio="none" viewBox="0 0 100 100"/></defs><g class="Viewport" color="black"  name="Name: eIF5A regulation in response to inhibition of the nuclear export system Organism: Homo sapiens"><rect class="Icon" width="955" height="357" fill="#fff" stroke="#000" stroke-width="0"/><g class="SingleFreeNode Shape PhysicalEntity CellularComponent Nucleus" transform="translate(20.5,51.5)" color="#c0c0c0" ><g fill="transparent"  filter="url(#f)" stroke="#c0c0c0" stroke-width="3"><use class="Icon" transform="matrix(.95437 0 0 .95564 5.7262 5.7338)" width="251" height="258.5"    xlink:href="#i"/></g></g><g class="GroupGroup" transform="translate(531,150)" color="grey" ><use class="Icon" width="184" height="128" fill="transparent"  stroke="grey" stroke-dasharray="5,3" stroke-width="0" xlink:href="#c"/><g class="SingleFreeNode Shape PhysicalEntity CellularComponent Mitochondria" transform="translate(8,8) rotate(90,84,56)" color="#c0c0c0" ><use class="Icon" transform="matrix(.98246 0 0 .97391 1.4737 1.4609)" width="168" height="112" fill="#eeedee" stroke="#c0c0c0" stroke-width="3" xlink:href="#h"/></g><a  class="GeneProduct EIF5A " transform="translate(67,51)"   name="EIF5A"  ><rect class="Icon" transform="matrix(.97872 0 0 .95238 .48936 .47619)" width="46" height="20" fill="#fff" stroke="#000"/><text class="Text" transform="translate(23,13)"   font-size="10px"  text-anchor="middle"><tspan x="0" y="0">EIF5A</tspan></text></a></g><g id="j" class="DirectedInteraction" color="#000" ><g color="#000" fill="transparent"  filter="url(#a)" stroke="#000" stroke-dasharray="277.2, 5.8"><path class="EdgeBody" d="m423 306h198v-85"   marker-end="url(#b)" /></g></g><g id="k" class="Inhibition" color="#000" ><g color="#000" fill="transparent"  filter="url(#a)" stroke="#000" stroke-dasharray="31.00003052196388, 7"><path class="EdgeBody" d="m679 214 38 0.048163"   marker-end="url(#e)" /></g></g><g id="l" class="DirectedInteraction" color="#000" ><g color="#000" fill="transparent"  filter="url(#a)" stroke="#000" stroke-dasharray="22.2178514522438, 5.8"><path class="EdgeBody" d="m349 307 28-1"   marker-end="url(#b)" /></g></g><g id="m" class="DirectedInteraction" color="#000" ><g color="#000" fill="transparent"  filter="url(#a)" stroke="#000" stroke-dasharray="57.33477647065839, 5.8"><path class="EdgeBody" d="m203 260 55 31"   marker-end="url(#b)" /></g></g><g id="n" class="Inhibition" color="#000" ><g color="#000" fill="transparent"  filter="url(#a)" stroke="#000" stroke-dasharray="61.5, 7"><path class="EdgeBody" d="m92.5 154v-22h46.5"   marker-end="url(#e)" /></g></g><g id="o" class="DirectedInteraction" color="#000" ><g color="#000" fill="transparent"  filter="url(#a)" stroke="#000" stroke-dasharray="87.04934033152847, 5.8"><path class="EdgeBody" d="m221 132 86 35"   marker-end="url(#b)" /></g></g><g id="p" class="DirectedInteraction" color="#000" ><g color="#000" fill="transparent"  filter="url(#a)" stroke="#000" stroke-dasharray="52.56308764964376, 5.8"><path class="EdgeBody" d="m400 296 42.5-40"   marker-end="url(#b)" /></g></g><g id="q" class="DirectedInteraction" color="#000" ><g color="#000" fill="transparent"  filter="url(#a)" stroke="#000" stroke-dasharray="48.764182391015446, 5.8"><path class="EdgeBody" d="m394 167 48.5 25"   marker-end="url(#b)" /></g></g><g class="Label" transform="translate(68,154)" color="#000"  name="SINE"><use class="Icon" transform="matrix(.96078 0 0 .94118 .96078 .94118)" width="49" height="32" fill="#fff" stroke="#000" stroke-width="2" xlink:href="#g"/><text class="Text" transform="translate(24.5,20)"   font-size="12px" font-weight="bold"  text-anchor="middle"><tspan x="0" y="0">SINE</tspan></text></g><g class="Label" transform="translate(656,33)" color="#000"  name="SINE: Selective inhibitors of nuclear export"><use class="Icon" width="269" height="22" fill="transparent"  stroke="#000" stroke-width="0" xlink:href="#c"/><text class="Text" transform="translate(134.5,15)"   font-size="12px" font-weight="bold"  text-anchor="middle"><tspan x="0" y="0">SINE: Selective inhibitors of nuclear export</tspan></text></g><g class="Label" transform="translate(90,64)" color="#000"  name="Nucleus"><use class="Icon" width="80" height="20" fill="transparent"  stroke="#000" stroke-width="0" xlink:href="#c"/><text class="Text" transform="translate(40,14)"   font-size="12px" font-weight="bold"  text-anchor="middle"><tspan x="0" y="0">Nucleus</tspan></text></g><a class="WikiPathways_WP254 Pathway " transform="translate(717 204.05)" color="#14961e"  name="Apoptosis"  ><use class="Icon" width="80" height="20" fill="transparent"  stroke="#14961e" stroke-width="0" xlink:href="#c"/><text class="Text" transform="translate(40,14)" fill="#14961e"  font-size="12px" font-weight="bold" stroke="black" stroke-width="0" text-anchor="middle"><tspan x="0" y="0">Apoptosis</tspan></text></a><g class="GroupComplex" transform="translate(108,212)" color="grey" ><use class="Icon" transform="matrix(.98958 0 0 .98462 .49479 .49231)" width="95" height="64" fill="#b4b464" fill-opacity=".1" stroke="grey" xlink:href="#d"/><a  class="GeneProduct EIF5A " transform="translate(12,12)"   name="EIF5A"  ><rect class="Icon" transform="matrix(.97872 0 0 .95238 .48936 .47619)" width="46" height="20" fill="#fff" stroke="#000"/><text class="Text" transform="translate(23,13)"   font-size="10px"  text-anchor="middle"><tspan x="0" y="0">EIF5A</tspan></text></a><a  class="GeneProduct XPO4 " transform="translate(32,32)"   name="EXP4"  ><rect class="Icon" transform="matrix(.98077 0 0 .95238 .49038 .47619)" width="51" height="20" fill="#fff" stroke="#000"/><text class="Text" transform="translate(25.5,13)"   font-size="10px"  text-anchor="middle"><tspan x="0" y="0">EXP4</tspan></text></a></g><g class="GroupComplex" transform="translate(421,192)" color="grey" ><use class="Icon" transform="matrix(.98851 0 0 .98462 .49425 .49231)" width="86" height="64" fill="#b4b464" fill-opacity=".1" stroke="grey" xlink:href="#d"/><a  class="GeneProduct IGF2BP1 " transform="translate(12,12)"   name="IGF2BP1"  ><rect class="Icon" transform="matrix(.98182 0 0 .95238 .49091 .47619)" width="54" height="20" fill="#fff" stroke="#000"/><text class="Text" transform="translate(27,13)"   font-size="10px"  text-anchor="middle"><tspan x="0" y="0">IGF2BP1</tspan></text></a><a  class="GeneProduct EIF5A " transform="translate(28,32)"   name="EIF5A"  ><rect class="Icon" transform="matrix(.97872 0 0 .95238 .48936 .47619)" width="46" height="20" fill="#fff" stroke="#000"/><text class="Text" transform="translate(23,13)"   font-size="10px"  text-anchor="middle"><tspan x="0" y="0">EIF5A</tspan></text></a></g><a  class="GeneProduct EIF5A " transform="translate(377,296)"   name="EIF5A"  ><rect class="Icon" transform="matrix(.97872 0 0 .95238 .48936 .47619)" width="46" height="20" fill="#fff" stroke="#000"/><text class="Text" transform="translate(23,13)"   font-size="10px"  text-anchor="middle"><tspan x="0" y="0">EIF5A</tspan></text></a><g class="GroupComplex" transform="translate(258,275)" color="grey" ><use class="Icon" transform="matrix(.98913 0 0 .98462 .49457 .49231)" width="91" height="64" fill="#b4b464" fill-opacity=".1" stroke="grey" xlink:href="#d"/><a  class="GeneProduct EIF5A " transform="translate(33,12)"   name="EIF5A"  ><rect class="Icon" transform="matrix(.97872 0 0 .95238 .48936 .47619)" width="46" height="20" fill="#fff" stroke="#000"/><text class="Text" transform="translate(23,13)"   font-size="10px"  text-anchor="middle"><tspan x="0" y="0">EIF5A</tspan></text></a><a  class="GeneProduct XPO4 " transform="translate(12,32)"   name="EXP4"  ><rect class="Icon" transform="matrix(.98077 0 0 .95238 .49038 .47619)" width="51" height="20" fill="#fff" stroke="#000"/><text class="Text" transform="translate(25.5,13)"   font-size="10px"  text-anchor="middle"><tspan x="0" y="0">EXP4</tspan></text></a></g><g class="Label" transform="translate(302,81)" color="#000"  name="Cytoplasm"><use class="Icon" width="80" height="20" fill="transparent"  stroke="#000" stroke-width="0" xlink:href="#c"/><text class="Text" transform="translate(40,14)"   font-size="12px" font-weight="bold"  text-anchor="middle"><tspan x="0" y="0">Cytoplasm</tspan></text></g><g class="GroupComplex" transform="translate(307,135)" color="grey" ><use class="Icon" transform="matrix(.98864 0 0 .98462 .49432 .49231)" width="87" height="64" fill="#b4b464" fill-opacity=".1" stroke="grey" xlink:href="#d"/><a  class="GeneProduct IGF2BP1 " transform="translate(21,32)"   name="IGF2BP1"  ><rect class="Icon" transform="matrix(.98182 0 0 .95238 .49091 .47619)" width="54" height="20" fill="#fff" stroke="#000"/><text class="Text" transform="translate(27,13)"   font-size="10px"  text-anchor="middle"><tspan x="0" y="0">IGF2BP1</tspan></text></a><a  class="GeneProduct XPO1 " transform="translate(12,12)"   name="CRM1"  ><rect class="Icon" transform="matrix(.97959 0 0 .95238 .4898 .47619)" width="48" height="20" fill="#fff" stroke="#000"/><text class="Text" transform="translate(24,13)"   font-size="10px"  text-anchor="middle"><tspan x="0" y="0">CRM1</tspan></text></a></g><g class="GroupComplex" transform="translate(139,100)" color="grey" ><use class="Icon" transform="matrix(.98795 0 0 .98462 .49398 .49231)" width="82" height="64" fill="#b4b464" fill-opacity=".1" stroke="grey" xlink:href="#d"/><a  class="GeneProduct IGF2BP1 " transform="translate(16,32)"   name="IGF2BP1"  ><rect class="Icon" transform="matrix(.98182 0 0 .95238 .49091 .47619)" width="54" height="20" fill="#fff" stroke="#000"/><text class="Text" transform="translate(27,13)"   font-size="10px"  text-anchor="middle"><tspan x="0" y="0">IGF2BP1</tspan></text></a><a  class="GeneProduct XPO1 " transform="translate(12,12)"   name="CRM1"  ><rect class="Icon" transform="matrix(.97959 0 0 .95238 .4898 .47619)" width="48" height="20" fill="#fff" stroke="#000"/><text class="Text" transform="translate(24,13)"   font-size="10px"  text-anchor="middle"><tspan x="0" y="0">CRM1</tspan></text></a></g><text class="Text" transform="translate(5,27)" dominant-baseline="central" fill="black"  font-size="12px" font-weight="bold" overflow="visible" ><tspan x="0" y="-9">Name: eIF5A regulation in response to inhibition of the nuclear export system</tspan> <tspan x="0" y="9">Organism: Homo sapiens</tspan></text></g></svg>
