<?xml version="1.0" encoding="UTF-8"?>
<!--
  WikiPathways page: https://www.wikipathways.org/index.php/Pathway:WP3300
  URL for this compressed file: https://github.com/eweitz/cachome/tree/main/data/wikipathways/WP3300.svg
  Source code for compression: https://github.com/eweitz/cachome/tree/main/src/wikipathways.py
-->
<svg class="Diagram" width="800" height="600" color="black" baseProfile="full" prefix="schema:http://schema.org/" preserveAspectRatio="xMidYMid" version="1.1" viewBox="0 0 626 333" vocab="http://vocabularies.wikipathways.org/wp#" xmlns="http://www.w3.org/2000/svg" xmlns:xlink="http://www.w3.org/1999/xlink"><style>svg {font-family: 'Liberation Sans', Arial, sans-serif; }</style><defs><filter id="a" x="0" y="0" width="626" height="333" filterUnits="userSpaceOnUse"><feColorMatrix in="SourceGraphic" values="-1   0   0 0 0                   0  -1   0 0 0                   0   0  -1 0 0                   0   0   0 1 0"/></filter><marker id="c" stroke-dasharray="99999" markerHeight="12" markerUnits="userSpaceOnUse" markerWidth="12" orient="auto" preserveAspectRatio="none" refX="12" refY="6" viewBox="0 0 12 12"><path transform="rotate(180 6 6)" d="M12 11L0 6l12-5z" fill="currentColor" stroke-width="0"/></marker><symbol id="d" overflow="visible" preserveAspectRatio="none" viewBox="0 0 50 50"><ellipse cx="25" cy="25" rx="25" ry="25" stroke="currentColor" vector-effect="non-scaling-stroke"/></symbol><symbol id="e" overflow="visible" preserveAspectRatio="none" viewBox="0 0 100 100"><path d="M0 25L25 0h50l25 25v50l-25 25H25L0 75z" stroke="currentColor" vector-effect="non-scaling-stroke"/></symbol><symbol id="b" preserveAspectRatio="none" viewBox="0 0 100 100"/></defs><g class="Viewport" color="black"  name="Name: Dual hijack model of Vif in HIV infection Organism: Homo sapiens"><rect class="Icon" width="626" height="333" fill="#fff" stroke="#000" stroke-width="0"/><g id="f" class="Edge GraphicalLine DirectedInteraction" color="#000" ><g color="#000" fill="transparent"  filter="url(#a)" stroke="#000" stroke-dasharray="152.10291137477213, 5.8"><path class="EdgeBody" d="m596 206 3.3333-6e-14c3.3333 3e-14 10 3e-14 13.333-12.167 3.3333-12.167 3.3333-36.5-12.583-48.667-15.917-12.167-47.75-12.167-63.667-12.167l-15.917 3e-14"   marker-end="url(#c)" /></g></g><g id="g" class="Edge GraphicalLine" color="#000" ><g color="#000" fill="transparent"  filter="url(#a)" stroke="#000" stroke-dasharray="220.00227271553356, 0"><path class="EdgeBody" d="m55 294 220-1"   /></g></g><g id="h" class="Edge GraphicalLine" color="#000" ><g color="#000" fill="transparent"  filter="url(#a)" stroke="#000" stroke-dasharray="10, 0"><path class="EdgeBody" d="m551 206h10"   /></g></g><g id="i" class="Edge GraphicalLine DirectedInteraction" color="#000" ><g color="#000" fill="transparent"  filter="url(#a)" stroke="#000" stroke-dasharray="49.20909015790027, 5.8"><path class="EdgeBody" d="m205 274 55-1"   marker-end="url(#c)" /></g></g><g id="j" class="DirectedInteraction" color="#000" ><g color="#000" fill="transparent"  filter="url(#a)" stroke="#000" stroke-dasharray="274.53509738474526, 5.8"><path class="EdgeBody" d="m200 114-6e-14 -7.8333c3e-14 -7.8333 3e-14 -23.5 37.083-31.333s111.25-7.8333 148.33 2.1667c37.083 10 37.083 30 37.083 40l1e-13 10"   marker-end="url(#c)" /></g></g><g id="k" class="DirectedInteraction" color="#000" ><g color="#000" fill="transparent"  filter="url(#a)" stroke="#000" stroke-dasharray="87.51264651696468, 5.8"><path class="EdgeBody" d="m142 254 38.5-85"   marker-end="url(#c)" /></g><g class="Burr Anchor" transform="translate(166.52 199.86)" ><use class="Icon" width="0" height="0" fill="#141414" stroke-width="0" xlink:href="#b"/></g></g><g id="l" class="Interaction" color="#000" ><g color="#000" fill="transparent"  filter="url(#a)" stroke="#000" stroke-dasharray="64.75454131772415, 0"><path class="EdgeBody" d="m209 233-6.6667-6e-14c-6.6667 3e-14 -20 3e-14 -26.667-5.524-6.6667-5.524-6.6667-16.572-7.0793-22.096-0.41267-5.524-1.238-5.524-1.6507-5.524l-0.41267 3e-14"   /></g></g><g class="Label" transform="translate(260,263)" color="#000"  name="Gene expression"><use class="Icon" width="110" height="20" fill="transparent"  stroke="#000" stroke-width="0" xlink:href="#b"/><text class="Text" transform="translate(55,14)"   font-size="12px" font-weight="bold"  text-anchor="middle"><tspan x="0" y="0">Gene expression</tspan></text></g><g class="Label" transform="translate(464,250)" color="#000"  name="Ubiquitin ligation"><use class="Icon" width="111" height="24" fill="transparent"  stroke="#000" stroke-width="0" xlink:href="#b"/><text class="Text" transform="translate(55.5,16)"   font-size="12px" font-weight="bold"  text-anchor="middle"><tspan x="0" y="0">Ubiquitin ligation</tspan></text></g><a  class="GeneProduct APOBEC3G " transform="translate(470,133)"   name="A3G"  ><rect class="Icon" transform="matrix(.97727 0 0 .95238 .48864 .47619)" width="43" height="20" fill="#fff" stroke="#000"/><g class="Burr State" transform="translate(33.5,-8.5)" color="#000"  name="Ub"><use class="Icon" transform="matrix(.94444 0 0 .94444 .47222 .47222)" width="17" height="17" fill="#fff" stroke="#000" xlink:href="#d"/><text class="Text" transform="translate(8.5,11.5)"   font-size="10px"  text-anchor="middle"><tspan x="0" y="0">Ub</tspan></text></g><text class="Text" transform="translate(21.5,13)"   font-size="10px"  text-anchor="middle"><tspan x="0" y="0">A3G</tspan></text></a><g class="Uniprot-TrEMBL_P69723 GeneProduct" transform="translate(209,223)" color="#000"  name="Vif"><use class="Icon" transform="matrix(.97368 0 0 .95238 .48684 .47619)" width="37" height="20" fill="#ffcc66" stroke="#000" xlink:href="#d"/><text class="Text" transform="translate(18.5,13)"   font-size="10px"  text-anchor="middle"><tspan x="0" y="0">Vif</tspan></text></g><g class="GroupComplex" transform="translate(373,127)" color="grey" ><use class="Icon" transform="matrix(.99 0 0 .99048 .495 .49524)" width="99" height="104" fill="#b4b464" fill-opacity=".1" stroke="grey" xlink:href="#e"/><a  class="GeneProduct ELOC " transform="translate(22,53)"   name="ELOC"  ><rect class="Icon" transform="matrix(.97959 0 0 .95238 .4898 .47619)" width="48" height="20" fill="#fff" stroke="#000"/><text class="Text" transform="translate(24,13)"   font-size="10px"  text-anchor="middle"><tspan x="0" y="0">ELOC</tspan></text></a><a  class="GeneProduct ELOB " transform="translate(12,72)"   name="ELOB"  ><rect class="Icon" transform="matrix(.97872 0 0 .95238 .48936 .47619)" width="46" height="20" fill="#fff" stroke="#000"/><text class="Text" transform="translate(23,13)"   font-size="10px"  text-anchor="middle"><tspan x="0" y="0">ELOB</tspan></text></a><a  class="GeneProduct CBFB " transform="translate(20,12)"   name="CBFB"  ><rect class="Icon" transform="matrix(.98182 0 0 .95238 .49091 .47619)" width="54" height="20" fill="#fff" stroke="#000"/><text class="Text" transform="translate(27,13)"   font-size="10px"  text-anchor="middle"><tspan x="0" y="0">CBFB</tspan></text></a><g class="Uniprot-TrEMBL_P69723 GeneProduct" transform="translate(48,33)" color="#000"  name="Vif"><use class="Icon" transform="matrix(.975 0 0 .95238 .4875 .47619)" width="39" height="20" fill="#ffcc66" stroke="#000" xlink:href="#d"/><text class="Text" transform="translate(19.5,13)"   font-size="10px"  text-anchor="middle"><tspan x="0" y="0">Vif</tspan></text></g></g><g class="GroupGroup" transform="translate(107,246)" color="grey" ><use class="Icon" width="98" height="56" fill="transparent"  stroke="grey" stroke-dasharray="5,3" stroke-width="0" xlink:href="#b"/><a  class="GeneProduct RUNX1 " transform="translate(27,28)"   name="RUNX1"  ><rect class="Icon" transform="matrix(.98438 0 0 .95238 .49219 .47619)" width="63" height="20" fill="#fff" stroke="#000"/><text class="Text" transform="translate(31.5,13)"   font-size="10px"  text-anchor="middle"><tspan x="0" y="0">RUNX1</tspan></text></a><a  class="GeneProduct CBFB " transform="translate(8,8)"   name="CBFB"  ><rect class="Icon" transform="matrix(.98182 0 0 .95238 .49091 .47619)" width="54" height="20" fill="#fff" stroke="#000"/><text class="Text" transform="translate(27,13)"   font-size="10px"  text-anchor="middle"><tspan x="0" y="0">CBFB</tspan></text></a></g><g class="GroupComplex" transform="translate(456,184)" color="grey" ><use class="Icon" transform="matrix(.99346 0 0 .98438 .49673 .49219)" width="152" height="63" fill="#b4b464" fill-opacity=".1" stroke="grey" xlink:href="#e"/><a  class="GeneProduct CUL5 " transform="translate(12,12)"   name="CUL5"  ><rect class="Icon" transform="matrix(.98148 0 0 .95238 .49074 .47619)" width="53" height="20" fill="#fff" stroke="#000"/><text class="Text" transform="translate(26.5,13)"   font-size="10px"  text-anchor="middle"><tspan x="0" y="0">CUL5</tspan></text></a><a  class="GeneProduct UBB " transform="translate(105,12)"   name="UBB"  ><rect class="Icon" transform="matrix(.97222 0 0 .95238 .48611 .47619)" width="35" height="20" fill="#fff" stroke="#000"/><text class="Text" transform="translate(17.5,13)"   font-size="10px"  text-anchor="middle"><tspan x="0" y="0">UBB</tspan></text></a><a  class="GeneProduct RBX1 " transform="translate(36,31)"   name="RBX1"  ><rect class="Icon" transform="matrix(.97778 0 0 .95238 .48889 .47619)" width="44" height="20" fill="#fff" stroke="#000"/><text class="Text" transform="translate(22,13)"   font-size="10px"  text-anchor="middle"><tspan x="0" y="0">RBX1</tspan></text></a><a  class="GeneProduct CBFB " transform="translate(64,12)"   name="E2"  ><rect class="Icon" transform="matrix(.96875 0 0 .95238 .48438 .47619)" width="31" height="20" fill="#fff" stroke="#000"/><text class="Text" transform="translate(15.5,13)"   font-size="10px"  text-anchor="middle"><tspan x="0" y="0">E2</tspan></text></a></g><g class="GroupGroup" transform="translate(161,114)" color="grey" ><use class="Icon" width="78" height="55" fill="transparent"  stroke="grey" stroke-dasharray="5,3" stroke-width="0" xlink:href="#b"/><a  class="GeneProduct CBFB " transform="translate(8,8)"   name="CBFB"  ><rect class="Icon" transform="matrix(.98182 0 0 .95238 .49091 .47619)" width="54" height="20" fill="#fff" stroke="#000"/><text class="Text" transform="translate(27,13)"   font-size="10px"  text-anchor="middle"><tspan x="0" y="0">CBFB</tspan></text></a><g class="Uniprot-TrEMBL_P69723 GeneProduct" transform="translate(31,27)" color="#000"  name="Vif"><use class="Icon" transform="matrix(.975 0 0 .95238 .4875 .47619)" width="39" height="20" fill="#ffcc66" stroke="#000" xlink:href="#d"/><text class="Text" transform="translate(19.5,13)"   font-size="10px"  text-anchor="middle"><tspan x="0" y="0">Vif</tspan></text></g></g><g id="m" class="Edge GraphicalLine" color="#000" ><g color="#000" fill="transparent"  filter="url(#a)" stroke="#000" stroke-dasharray="217.00230413523263, 0"><path class="EdgeBody" d="m58 303 217-1"   /></g></g><text class="Text" transform="translate(5,27)" dominant-baseline="central" fill="black"  font-size="12px" font-weight="bold" overflow="visible" ><tspan x="0" y="-9">Name: Dual hijack model of Vif in HIV infection</tspan> <tspan x="0" y="9">Organism: Homo sapiens</tspan></text></g></svg>
