<?xml version="1.0" encoding="UTF-8"?>
<!--
  WikiPathways page: https://www.wikipathways.org/index.php/Pathway:WP353
  URL for this compressed file: https://github.com/eweitz/cachome/tree/main/data/wikipathways/WP353.svg
  Source code for compression: https://github.com/eweitz/cachome/tree/main/src/wikipathways.py
-->
<svg class="Diagram" width="800" height="600" color="black" baseProfile="full" prefix="schema:http://schema.org/" preserveAspectRatio="xMidYMid" version="1.1" viewBox="0 0 845.33 529.2" vocab="http://vocabularies.wikipathways.org/wp#" xmlns="http://www.w3.org/2000/svg" xmlns:xlink="http://www.w3.org/1999/xlink"><style>svg {font-family: 'Liberation Sans', Arial, sans-serif; }</style><defs><filter id="f" x="0" y="0" width="845.33" height="529.2" filterUnits="userSpaceOnUse"><feColorMatrix in="SourceGraphic" values="-1   0   0 0 0                   0  -1   0 0 0                   0   0  -1 0 0                   0   0   0 1 0"/></filter><filter id="e" x="0" y="0" width="845.33" height="529.2" filterUnits="userSpaceOnUse"><feColorMatrix in="SourceGraphic" values="-1   0   0 0 0                   0  -1   0 0 0                   0   0  -1 0 1                   0   0   0 1 0"/></filter><filter id="c" x="0" y="0" width="845.33" height="529.2" filterUnits="userSpaceOnUse"><feColorMatrix in="SourceGraphic" values="-1   0   0 0 1                   0  -1   0 0 0.5019607843137255                   0   0  -1 0 0                   0   0   0 1 0"/></filter><filter id="d" x="0" y="0" width="845.33" height="529.2" filterUnits="userSpaceOnUse"><feColorMatrix in="SourceGraphic" values="-1   0   0 0 0                   0  -1   0 0 1                   0   0  -1 0 0                   0   0   0 1 0"/></filter><marker id="a" stroke-dasharray="99999" markerHeight="12" markerUnits="userSpaceOnUse" markerWidth="12" orient="auto" preserveAspectRatio="none" refX="12" refY="6" viewBox="0 0 12 12"><path transform="rotate(180 6 6)" d="M12 11L0 6l12-5z" fill="currentColor" stroke-width="0"/></marker><symbol id="b" preserveAspectRatio="none" viewBox="0 0 100 100"/></defs><g class="Viewport" color="black"  name="Name: GPCRs, small ligand Organism: Mus musculus"><rect class="Icon" width="845.33" height="529.2" fill="#fff" stroke="#000" stroke-width="0"/><g id="g" class="DirectedInteraction" color="#ff8000" ><g color="#ff8000" fill="transparent"  filter="url(#c)" stroke="#000" stroke-dasharray="502.5333333333333, 5.8"><path class="EdgeBody" d="m626.67 260h-298.83v209.5"   marker-end="url(#a)" /></g></g><g id="h" class="DirectedInteraction" color="#0f0" ><g color="#0f0" fill="transparent"  filter="url(#d)" stroke="#000" stroke-dasharray="158.86666666666662, 5.8"><path class="EdgeBody" d="m626.67 340h-35.167v129.5"   marker-end="url(#a)" /></g></g><g id="i" class="DirectedInteraction" color="#0f0" ><g color="#0f0" fill="transparent"  filter="url(#d)" stroke="#000" stroke-dasharray="289.03333333333336, 5.8"><path class="EdgeBody" d="m533.33 200h25.333v269.5"   marker-end="url(#a)" /></g></g><g id="j" class="DirectedInteraction" color="#00f" ><g color="#00f" fill="transparent"  filter="url(#e)" stroke="#000" stroke-dasharray="246.7000000000001, 5.8"><path class="EdgeBody" d="m686.67 280h63v189.5"   marker-end="url(#a)" /></g></g><g id="k" class="DirectedInteraction" color="#0f0" ><g color="#0f0" fill="transparent"  filter="url(#d)" stroke="#000" stroke-dasharray="198.86666666666662, 5.8"><path class="EdgeBody" d="m626.67 300h-35.167v169.5"   marker-end="url(#a)" /></g></g><g id="l" class="DirectedInteraction" color="#0f0" ><g color="#0f0" fill="transparent"  filter="url(#d)" stroke="#000" stroke-dasharray="298.8666666666666, 5.8"><path class="EdgeBody" d="m626.67 200h-35.167v269.5"   marker-end="url(#a)" /></g></g><g id="m" class="DirectedInteraction" color="#00f" ><g color="#00f" fill="transparent"  filter="url(#e)" stroke="#000" stroke-dasharray="326.7000000000001, 5.8"><path class="EdgeBody" d="m686.67 200h63v269.5"   marker-end="url(#a)" /></g></g><g id="n" class="DirectedInteraction" color="#00f" ><g color="#00f" fill="transparent"  filter="url(#e)" stroke="#000" stroke-dasharray="286.7000000000001, 5.8"><path class="EdgeBody" d="m686.67 240h63v229.5"   marker-end="url(#a)" /></g></g><g id="o" class="DirectedInteraction" color="#ff8000" ><g color="#ff8000" fill="transparent"  filter="url(#c)" stroke="#000" stroke-dasharray="285.3666666666667, 5.8"><path class="EdgeBody" d="m346.67 220h-41.667v249.5"   marker-end="url(#a)" /></g></g><g id="p" class="DirectedInteraction" color="#ff8000" ><g color="#ff8000" fill="transparent"  filter="url(#c)" stroke="#000" stroke-dasharray="305.3666666666667, 5.8"><path class="EdgeBody" d="m346.67 200h-41.667v269.5"   marker-end="url(#a)" /></g></g><g id="q" class="DirectedInteraction" color="#ff8000" ><g color="#ff8000" fill="transparent"  filter="url(#c)" stroke="#000" stroke-dasharray="292.53333333333336, 5.8"><path class="EdgeBody" d="m253.33 200h28.833v269.5"   marker-end="url(#a)" /></g></g><g id="r" class="DirectedInteraction" color="#000" ><g color="#000" fill="transparent"  filter="url(#f)" stroke="#000" stroke-dasharray="20.20854560417488, 5.8"><path class="EdgeBody" d="m376 156 0.66667 26"   marker-end="url(#a)" /></g></g><g class="Label" transform="translate(436 153.83)" color="#000"  name="Platelet Activating"><use class="Icon" width="141.33333333333334" height="19" fill="transparent"  stroke="#000" stroke-width="0" xlink:href="#b"/><text class="Text" transform="translate(70.667 13.5)"   font-size="12px" font-weight="bold"  text-anchor="middle"><tspan x="0" y="0">Platelet Activating</tspan></text></g><g class="Label" transform="translate(684,469.5)" color="#000"  name="Gq/G11 Pathway"><use class="Icon" width="131.33333333333334" height="19" fill="transparent"  stroke="#000" stroke-width="0" xlink:href="#b"/><text class="Text" transform="translate(65.667 13.5)"   font-size="12px" font-weight="bold"  text-anchor="middle"><tspan x="0" y="0">Gq/G11 Pathway</tspan></text></g><g class="Label" transform="translate(21.667 151.17)" color="#000"  name="Lysophosphatidic Acid"><use class="Icon" width="143.33333333333334" height="32.833333333333336" fill="transparent"  stroke="#000" stroke-width="0" xlink:href="#b"/><text class="Text" transform="translate(71.667 20.417)"   font-size="12px" font-weight="bold"  text-anchor="middle"><tspan x="0" y="-6.6000000000000005">Lysophosphatidic</tspan> <tspan x="0" y="6.6000000000000005">Acid</tspan></text></g><g class="Label" transform="translate(607.5 153.83)" color="#000"  name="Prostanoids"><use class="Icon" width="98.33333333333333" height="19" fill="transparent"  stroke="#000" stroke-width="0" xlink:href="#b"/><text class="Text" transform="translate(49.167 13.5)"   font-size="12px" font-weight="bold"  text-anchor="middle"><tspan x="0" y="0">Prostanoids</tspan></text></g><g class="Label" transform="translate(493 469.5)" color="#000"  name="Gq/G11 Pathway"><use class="Icon" width="131.33333333333334" height="19" fill="transparent"  stroke="#000" stroke-width="0" xlink:href="#b"/><text class="Text" transform="translate(65.667 13.5)"   font-size="12px" font-weight="bold"  text-anchor="middle"><tspan x="0" y="0">Gq/G11 Pathway</tspan></text></g><g class="Label" transform="translate(168.33 153.83)" color="#000"  name="Cannabinoid"><use class="Icon" width="103.33333333333333" height="19" fill="transparent"  stroke="#000" stroke-width="0" xlink:href="#b"/><text class="Text" transform="translate(51.667 13.5)"   font-size="12px" font-weight="bold"  text-anchor="middle"><tspan x="0" y="0">Cannabinoid</tspan></text></g><g class="Label" transform="translate(259.33 469.5)" color="#000"  name="Gi Pathway"><use class="Icon" width="91.33333333333333" height="19" fill="transparent"  stroke="#000" stroke-width="0" xlink:href="#b"/><text class="Text" transform="translate(45.667 13.5)"   font-size="12px" font-weight="bold"  text-anchor="middle"><tspan x="0" y="0">Gi Pathway</tspan></text></g><a class="Metabolite ChEBI_CHEBI_16796  " transform="translate(336,136)" color="#00f"  name="Melatonin"  ><rect class="Icon" transform="matrix(.98765 0 0 .95238 .49383 .47619)" width="80" height="20" fill="#fff" stroke="#00f"/><text class="Text" transform="translate(40,13)" fill="#00f"  font-size="10px"  text-anchor="middle"><tspan x="0" y="0">Melatonin</tspan></text></a><a  class="GeneProduct P594_ENSMUSG00000056529 " transform="translate(473.33 190)"   name="Ptafr"  ><rect class="Icon" transform="matrix(.98361 0 0 .95238 .4918 .47619)" width="60" height="20" fill="#fff" stroke="#000"/><text class="Text" transform="translate(30,13)"   font-size="10px"  text-anchor="middle"><tspan x="0" y="0">Ptafr</tspan></text></a><g class="GroupNone" transform="translate(337.67 181)" color="grey" ><rect class="Icon" transform="matrix(.98734 0 0 .98305 .49367 .49153)" width="78" height="58" fill="#b4b464" fill-opacity=".1" stroke="grey" stroke-dasharray="5,3"/><a  class="GeneProduct P594_ENSMUSG00000054764 " transform="translate(9,9)"   name="Mtnr1a"  ><rect class="Icon" transform="matrix(.98361 0 0 .95238 .4918 .47619)" width="60" height="20" fill="#fff" stroke="#000"/><text class="Text" transform="translate(30,13)"   font-size="10px"  text-anchor="middle"><tspan x="0" y="0">Mtnr1a</tspan></text></a><a  class="GeneProduct P594_ENSMUSG00000050901 " transform="translate(9,29)"   name="Mtnr1b"  ><rect class="Icon" transform="matrix(.98361 0 0 .95238 .4918 .47619)" width="60" height="20" fill="#fff" stroke="#000"/><text class="Text" transform="translate(30,13)"   font-size="10px"  text-anchor="middle"><tspan x="0" y="0">Mtnr1b</tspan></text></a></g><g class="GroupNone" transform="translate(617.67 181)" color="grey" ><rect class="Icon" transform="matrix(.98734 0 0 .99441 .49367 .49721)" width="78" height="178" fill="#b4b464" fill-opacity=".1" stroke="grey" stroke-dasharray="5,3"/><a  class="GeneProduct P594_ENSMUSG00000019464 " transform="translate(9,29)"   name="Ptger1"  ><rect class="Icon" transform="matrix(.98361 0 0 .95238 .4918 .47619)" width="60" height="20" fill="#fff" stroke="#000"/><text class="Text" transform="translate(30,13)"   font-size="10px"  text-anchor="middle"><tspan x="0" y="0">Ptger1</tspan></text></a><a  class="GeneProduct P594_ENSMUSG00000037759 " transform="translate(9,49)"   name="Ptger2"  ><rect class="Icon" transform="matrix(.98361 0 0 .95238 .4918 .47619)" width="60" height="20" fill="#fff" stroke="#000"/><text class="Text" transform="translate(30,13)"   font-size="10px"  text-anchor="middle"><tspan x="0" y="0">Ptger2</tspan></text></a><a  class="GeneProduct P594_ENSMUSG00000039942 " transform="translate(9,89)"   name="Ptger4"  ><rect class="Icon" transform="matrix(.98361 0 0 .95238 .4918 .47619)" width="60" height="20" fill="#fff" stroke="#000"/><text class="Text" transform="translate(30,13)"   font-size="10px"  text-anchor="middle"><tspan x="0" y="0">Ptger4</tspan></text></a><a  class="GeneProduct P594_ENSMUSG00000034881 " transform="translate(9,149)"   name="Tbxa2r"  ><rect class="Icon" transform="matrix(.98361 0 0 .95238 .4918 .47619)" width="60" height="20" fill="#fff" stroke="#000"/><text class="Text" transform="translate(30,13)"   font-size="10px"  text-anchor="middle"><tspan x="0" y="0">Tbxa2r</tspan></text></a><a  class="GeneProduct P594_ENSMUSG00000043017 " transform="translate(9,129)"   name="Ptgir"  ><rect class="Icon" transform="matrix(.98361 0 0 .95238 .4918 .47619)" width="60" height="20" fill="#fff" stroke="#000"/><text class="Text" transform="translate(30,13)"   font-size="10px"  text-anchor="middle"><tspan x="0" y="0">Ptgir</tspan></text></a><a  class="GeneProduct P594_ENSMUSG00000071489 " transform="translate(9,9)"   name="Ptgdr"  ><rect class="Icon" transform="matrix(.98361 0 0 .95238 .4918 .47619)" width="60" height="20" fill="#fff" stroke="#000"/><text class="Text" transform="translate(30,13)"   font-size="10px"  text-anchor="middle"><tspan x="0" y="0">Ptgdr</tspan></text></a><a  class="GeneProduct P594_ENSMUSG00000040016 " transform="translate(9,69)"   name="Ptger3"  ><rect class="Icon" transform="matrix(.98361 0 0 .95238 .4918 .47619)" width="60" height="20" fill="#fff" stroke="#000"/><text class="Text" transform="translate(30,13)"   font-size="10px"  text-anchor="middle"><tspan x="0" y="0">Ptger3</tspan></text></a><a  class="GeneProduct P594_ENSMUSG00000028036 " transform="translate(9,109)"   name="Ptgfr"  ><rect class="Icon" transform="matrix(.98361 0 0 .95238 .4918 .47619)" width="60" height="20" fill="#fff" stroke="#000"/><text class="Text" transform="translate(30,13)"   font-size="10px"  text-anchor="middle"><tspan x="0" y="0">Ptgfr</tspan></text></a></g><g class="GroupNone" transform="translate(184.33 181)" color="grey" ><rect class="Icon" transform="matrix(.98734 0 0 .98305 .49367 .49153)" width="78" height="58" fill="#b4b464" fill-opacity=".1" stroke="grey" stroke-dasharray="5,3"/><a  class="GeneProduct P594_ENSMUSG00000062585 " transform="translate(9,29)"   name="Cnr2"  ><rect class="Icon" transform="matrix(.98361 0 0 .95238 .4918 .47619)" width="60" height="20" fill="#fff" stroke="#000"/><text class="Text" transform="translate(30,13)"   font-size="10px"  text-anchor="middle"><tspan x="0" y="0">Cnr2</tspan></text></a><a  class="GeneProduct P594_ENSMUSG00000044288 " transform="translate(9,9)"   name="Cnr1"  ><rect class="Icon" transform="matrix(.98361 0 0 .95238 .4918 .47619)" width="60" height="20" fill="#fff" stroke="#000"/><text class="Text" transform="translate(30,13)"   font-size="10px"  text-anchor="middle"><tspan x="0" y="0">Cnr1</tspan></text></a></g><g class="GroupNone" transform="translate(51,181)" color="grey" ><rect class="Icon" transform="matrix(.98734 0 0 .9916 .49367 .4958)" width="78" height="118" fill="#b4b464" fill-opacity=".1" stroke="grey" stroke-dasharray="5,3"/><a  class="GeneProduct P594_ENSMUSG00000043895 " transform="translate(9,69)"   name="S1pr2"  ><rect class="Icon" transform="matrix(.98361 0 0 .95238 .4918 .47619)" width="60" height="20" fill="#fff" stroke="#000"/><text class="Text" transform="translate(30,13)"   font-size="10px"  text-anchor="middle"><tspan x="0" y="0">S1pr2</tspan></text></a><a  class="GeneProduct P594_ENSMUSG00000067586 " transform="translate(9,49)"   name="S1pr3"  ><rect class="Icon" transform="matrix(.98361 0 0 .95238 .4918 .47619)" width="60" height="20" fill="#fff" stroke="#000"/><text class="Text" transform="translate(30,13)"   font-size="10px"  text-anchor="middle"><tspan x="0" y="0">S1pr3</tspan></text></a><a  class="GeneProduct P594_ENSMUSG00000045092 " transform="translate(9,9)"   name="S1pr1"  ><rect class="Icon" transform="matrix(.98361 0 0 .95238 .4918 .47619)" width="60" height="20" fill="#fff" stroke="#000"/><text class="Text" transform="translate(30,13)"   font-size="10px"  text-anchor="middle"><tspan x="0" y="0">S1pr1</tspan></text></a><a  class="GeneProduct P594_ENSMUSG00000038668 " transform="translate(9,29)"   name="Lpar1"  ><rect class="Icon" transform="matrix(.98361 0 0 .95238 .4918 .47619)" width="60" height="20" fill="#fff" stroke="#000"/><text class="Text" transform="translate(30,13)"   font-size="10px"  text-anchor="middle"><tspan x="0" y="0">Lpar1</tspan></text></a><a  class="GeneProduct P594_ENSMUSG00000044199 " transform="translate(9,89)"   name="S1pr4"  ><rect class="Icon" transform="matrix(.98361 0 0 .95238 .4918 .47619)" width="60" height="20" fill="#fff" stroke="#000"/><text class="Text" transform="translate(30,13)"   font-size="10px"  text-anchor="middle"><tspan x="0" y="0">S1pr4</tspan></text></a></g><text class="Text" transform="translate(5,27)" dominant-baseline="central" fill="black"  font-size="12px" font-weight="bold" overflow="visible" ><tspan x="0" y="-9">Name: GPCRs, small ligand</tspan> <tspan x="0" y="9">Organism: Mus musculus</tspan></text></g></svg>
