<?xml version="1.0" encoding="UTF-8"?>
<!--
  WikiPathways page: https://www.wikipathways.org/index.php/Pathway:WP350
  URL for this compressed file: https://github.com/eweitz/cachome/tree/main/data/wikipathways/WP350.svg
  Source code for compression: https://github.com/eweitz/cachome/tree/main/src/wikipathways.py
-->
<svg class="Diagram" width="800" height="600" color="black" baseProfile="full" prefix="schema:http://schema.org/" preserveAspectRatio="xMidYMid" version="1.1" viewBox="0 0 760 873" vocab="http://vocabularies.wikipathways.org/wp#" xmlns="http://www.w3.org/2000/svg" xmlns:xlink="http://www.w3.org/1999/xlink"><style>svg {font-family: 'Liberation Sans', Arial, sans-serif; }</style><defs><filter id="f" x="-50%" y="-50%" width="200%" height="200%"><feComposite in="SourceGraphic" in2="SourceGraphic" result="doubleDark"/><feMorphology in="doubleDark" operator="dilate" radius="0.16666666666666666" result="in2Double"/><feMorphology in="SourceGraphic" operator="dilate" radius="3" result="inDouble"/><feComposite in="inDouble" in2="in2Double" operator="out" result="doubleResult"/></filter><filter id="e" x="0" y="0" width="760" height="873" filterUnits="userSpaceOnUse"><feColorMatrix in="SourceGraphic" values="-1   0   0 0 0                   0  -1   0 0 0                   0   0  -1 0 0                   0   0   0 1 0"/></filter><filter id="b" x="0" y="0" width="760" height="873" filterUnits="userSpaceOnUse"><feColorMatrix in="SourceGraphic" values="-1   0   0 0 0.2                   0  -1   0 0 0.8                   0   0  -1 0 0                   0   0   0 1 0"/></filter><filter id="d" x="0" y="0" width="760" height="873" filterUnits="userSpaceOnUse"><feColorMatrix in="SourceGraphic" values="-1   0   0 0 1                   0  -1   0 0 0.5019607843137255                   0   0  -1 0 0                   0   0   0 1 0"/></filter><marker id="a" stroke-dasharray="99999" markerHeight="12" markerUnits="userSpaceOnUse" markerWidth="12" orient="auto" preserveAspectRatio="none" refX="12" refY="6" viewBox="0 0 12 12"><path transform="rotate(180 6 6)" d="M12 11L0 6l12-5z" fill="currentColor" stroke-width="0"/></marker><marker id="g" stroke-dasharray="99999" markerHeight="24" markerUnits="userSpaceOnUse" markerWidth="20" orient="auto" preserveAspectRatio="none" refX="20" refY="12" viewBox="0 0 20 24"><g transform="rotate(180 10 12)" fill="none" stroke="#000"><path d="M15 12V5M15.5 5H8M0 5l8-4v8z"/></g></marker><symbol id="h" overflow="visible" preserveAspectRatio="none" viewBox="0 0 50 50"><ellipse cx="25" cy="25" rx="25" ry="25" stroke="currentColor" vector-effect="non-scaling-stroke"/></symbol><symbol id="c" preserveAspectRatio="none" viewBox="0 0 100 100"/></defs><g class="Viewport" color="black"  name="Name: p38 Mapk signaling pathway Organism: Mus musculus"><rect class="Icon" width="760" height="873" fill="#fff" stroke="#000" stroke-width="0"/><g id="i" class="Interaction" color="#33cc00" ><g color="#33cc00" fill="transparent"  filter="url(#b)" stroke="#000" stroke-dasharray="69.08601950081953, 11"><path class="EdgeBody" d="m271.29 724.43 80.08 0.9532"   marker-end="url(#g)" /></g></g><g id="j" class="DirectedInteraction" color="#33cc00" ><g color="#33cc00" fill="transparent"  filter="url(#b)" stroke="#000" stroke-dasharray="41.19999999999989, 5.8"><path class="EdgeBody" d="m513.33 466.67h47"   marker-end="url(#a)" /></g></g><g id="k" class="DirectedInteraction" color="#33cc00" ><g color="#33cc00" fill="transparent"  filter="url(#b)" stroke="#000" stroke-dasharray="98.32012293500232, 5.8"><path class="EdgeBody" d="m364.33 578 29 100"   marker-end="url(#a)" /></g></g><g id="l" class="DirectedInteraction" color="#33cc00" ><g color="#33cc00" fill="transparent"  filter="url(#b)" stroke="#000" stroke-dasharray="153.86701461339953, 5.8"><path class="EdgeBody" d="m323.33 466.67-159.67-0.33333"   marker-end="url(#a)" /></g></g><g id="m" class="DirectedInteraction" color="#ff8000" ><g color="#ff8000" fill="transparent"  filter="url(#d)" stroke="#000" stroke-dasharray="103.28231473932372, 5.8"><path class="EdgeBody" d="m300.42 121-27.083 105.67"   marker-end="url(#a)" /></g></g><g id="n" class="DirectedInteraction" color="#33cc00" ><g color="#33cc00" fill="transparent"  filter="url(#b)" stroke="#000" stroke-dasharray="213.86666666666665, 5.8"><path class="EdgeBody" d="m196.67 383.67v44.333h146.67v28.667"   marker-end="url(#a)" /></g></g><g id="o" class="DirectedInteraction" color="#33cc00" ><g color="#33cc00" fill="transparent"  filter="url(#b)" stroke="#000" stroke-dasharray="97.27979649011948, 5.8"><path class="EdgeBody" d="m364.33 578 75.667 70"   marker-end="url(#a)" /></g></g><g id="p" class="DirectedInteraction" color="#33cc00" ><g color="#33cc00" fill="transparent"  filter="url(#b)" stroke="#000" stroke-dasharray="41.20118201823345, 5.8"><path class="EdgeBody" d="m642.33 560 0.33333-47"   marker-end="url(#a)" /></g></g><g id="q" class="DirectedInteraction" color="#33cc00" ><g color="#33cc00" fill="transparent"  filter="url(#b)" stroke="#000" stroke-dasharray="142.53333333333336, 5.8"><path class="EdgeBody" d="m475.67 342.33v20h-97.333v31"   marker-end="url(#a)" /></g></g><g id="r" class="DirectedInteraction" color="#33cc00" ><g color="#33cc00" fill="transparent"  filter="url(#b)" stroke="#000" stroke-dasharray="141.64339780253155, 5.8"><path class="EdgeBody" d="m384.33 578 111.33 96.667"   marker-end="url(#a)" /></g></g><g id="s" class="DirectedInteraction" color="#33cc00" ><g color="#33cc00" fill="transparent"  filter="url(#b)" stroke="#000" stroke-dasharray="45.6874568910475, 5.8"><path class="EdgeBody" d="m201.89 234.43 51.439 2.2406"   marker-end="url(#a)" /></g></g><g id="t" class="DirectedInteraction" color="#33cc00" ><g color="#33cc00" fill="transparent"  filter="url(#b)" stroke="#000" stroke-dasharray="49.985302723925365, 5.8"><path class="EdgeBody" d="m404.33 568 54 14"   marker-end="url(#a)" /></g></g><g id="u" class="DirectedInteraction" color="#ff8000" ><g color="#ff8000" fill="transparent"  filter="url(#d)" stroke="#000" stroke-dasharray="128.48369637119436, 5.8"><path class="EdgeBody" d="m518.33 592 115 69.333"   marker-end="url(#a)" /></g></g><g id="v" class="DirectedInteraction" color="#33cc00" ><g color="#33cc00" fill="transparent"  filter="url(#b)" stroke="#000" stroke-dasharray="42.6790905671943, 5.8"><path class="EdgeBody" d="m580.33 636 41.333 25.333"   marker-end="url(#a)" /></g></g><g id="w" class="DirectedInteraction" color="#ff8000" ><g color="#ff8000" fill="transparent"  filter="url(#d)" stroke="#000" stroke-dasharray="97.46909965930979, 5.8"><path class="EdgeBody" d="m300.42 121 46.25 92.333"   marker-end="url(#a)" /></g></g><g id="x" class="DirectedInteraction" color="#33cc00" ><g color="#33cc00" fill="transparent"  filter="url(#b)" stroke="#000" stroke-dasharray="230.86666666666667, 5.8"><path class="EdgeBody" d="m560 333.33h-20v70h-146.67"   marker-end="url(#a)" /></g></g><g id="y" class="Interaction" color="#000" ><g color="#000" fill="transparent"  filter="url(#e)" stroke="#000" stroke-dasharray="48.00115739345365, 0"><path class="EdgeBody" d="m475 110.67 0.33333 48"   /></g></g><g id="z" class="Interaction" color="#000" ><g color="#000" fill="transparent"  filter="url(#e)" stroke="#000" stroke-dasharray="39.282541358160046, 0"><path class="EdgeBody" d="m151.25 170.33-8.5833-38.333"   /></g></g><g id="aa" class="DirectedInteraction" color="#33cc00" ><g color="#33cc00" fill="transparent"  filter="url(#b)" stroke="#000" stroke-dasharray="36.86796873013241, 5.8"><path class="EdgeBody" d="m603.33 343.33-0.33333 42.667"   marker-end="url(#a)" /></g></g><g id="ab" class="DirectedInteraction" color="#33cc00" ><g color="#33cc00" fill="transparent"  filter="url(#b)" stroke="#000" stroke-dasharray="104.21262553806164, 5.8"><path class="EdgeBody" d="m344.33 578-87 67.333"   marker-end="url(#a)" /></g></g><g id="ac" class="DirectedInteraction" color="#33cc00" ><g color="#33cc00" fill="transparent"  filter="url(#b)" stroke="#000" stroke-dasharray="137.8670533637487, 5.8"><path class="EdgeBody" d="m475.33 178.67 0.33333 143.67"   marker-end="url(#a)" /></g></g><g id="ad" class="DirectedInteraction" color="#33cc00" ><g color="#33cc00" fill="transparent"  filter="url(#b)" stroke="#000" stroke-dasharray="50.076848714134016, 5.8"><path class="EdgeBody" d="m283.33 246.67 16.667 53.333"   marker-end="url(#a)" /></g></g><g id="ae" class="DirectedInteraction" color="#33cc00" ><g color="#33cc00" fill="transparent"  filter="url(#b)" stroke="#000" stroke-dasharray="67.55227028221795, 5.8"><path class="EdgeBody" d="m346.67 320 1.6667 73.333"   marker-end="url(#a)" /></g></g><g id="af" class="DirectedInteraction" color="#33cc00" ><g color="#33cc00" fill="transparent"  filter="url(#b)" stroke="#000" stroke-dasharray="110.86666666666652, 5.8"><path class="EdgeBody" d="m403.33 466.67h20v36.667h60"   marker-end="url(#a)" /></g></g><g id="ag" class="DirectedInteraction" color="#33cc00" ><g color="#33cc00" fill="transparent"  filter="url(#b)" stroke="#000" stroke-dasharray="31.760321854022774, 5.8"><path class="EdgeBody" d="m557 646 19.667 32"   marker-end="url(#a)" /></g></g><g id="ah" class="DirectedInteraction" color="#33cc00" ><g color="#33cc00" fill="transparent"  filter="url(#b)" stroke="#000" stroke-dasharray="79.05281374238582, 5.8"><path class="EdgeBody" d="m538.33 582 84-12"   marker-end="url(#a)" /></g></g><g id="ai" class="DirectedInteraction" color="#33cc00" ><g color="#33cc00" fill="transparent"  filter="url(#b)" stroke="#000" stroke-dasharray="33.53474573735331, 5.8"><path class="EdgeBody" d="m563.33 503.33 39.333-0.33333"   marker-end="url(#a)" /></g></g><g id="aj" class="DirectedInteraction" color="#33cc00" ><g color="#33cc00" fill="transparent"  filter="url(#b)" stroke="#000" stroke-dasharray="37.533333333333374, 5.8"><path class="EdgeBody" d="m363.33 413.33v43.333"   marker-end="url(#a)" /></g></g><g id="ak" class="DirectedInteraction" color="#33cc00" ><g color="#33cc00" fill="transparent"  filter="url(#b)" stroke="#000" stroke-dasharray="129.03323032546538, 5.8"><path class="EdgeBody" d="m384.33 578 126 48"   marker-end="url(#a)" /></g></g><g id="al" class="DirectedInteraction" color="#33cc00" ><g color="#33cc00" fill="transparent"  filter="url(#b)" stroke="#000" stroke-dasharray="46.53501426367673, 5.8"><path class="EdgeBody" d="m412.87 750.17v10.822h41.513"   marker-end="url(#a)" /></g></g><g id="am" class="DirectedInteraction" color="#33cc00" ><g color="#33cc00" fill="transparent"  filter="url(#b)" stroke="#000" stroke-dasharray="162.41580055261025, 5.8"><path class="EdgeBody" d="m324.33 568-137.67 96.667"   marker-end="url(#a)" /></g></g><g id="an" class="DirectedInteraction" color="#33cc00" ><g color="#33cc00" fill="transparent"  filter="url(#b)" stroke="#000" stroke-dasharray="50.86666666666669, 5.8"><path class="EdgeBody" d="m403.33 466.67h56.667"   marker-end="url(#a)" /></g></g><g id="ao" class="DirectedInteraction" color="#33cc00" ><g color="#33cc00" fill="transparent"  filter="url(#b)" stroke="#000" stroke-dasharray="75.53948064200502, 5.8"><path class="EdgeBody" d="m363.33 476.67 1 81.333"   marker-end="url(#a)" /></g></g><g id="ap" class="DirectedInteraction" color="#33cc00" ><g color="#33cc00" fill="transparent"  filter="url(#b)" stroke="#000" stroke-dasharray="121.19999999999997, 5.8"><path class="EdgeBody" d="m300 320v53.667h-73.333"   marker-end="url(#a)" /></g></g><g id="aq" class="DirectedInteraction" color="#33cc00" ><g color="#33cc00" fill="transparent"  filter="url(#b)" stroke="#000" stroke-dasharray="81.69603165604461, 5.8"><path class="EdgeBody" d="m263.33 246.67-66.667 56.667"   marker-end="url(#a)" /></g></g><g id="ar" class="DirectedInteraction" color="#33cc00" ><g color="#33cc00" fill="transparent"  filter="url(#b)" stroke="#000" stroke-dasharray="34.533333333333374, 5.8"><path class="EdgeBody" d="m196.67 323.33v40.333"   marker-end="url(#a)" /></g></g><g id="as" class="DirectedInteraction" color="#33cc00" ><g color="#33cc00" fill="transparent"  filter="url(#b)" stroke="#000" stroke-dasharray="57.53333333333332, 5.8"><path class="EdgeBody" d="m346.67 236.67-1.4e-13 63.333"   marker-end="url(#a)" /></g></g><g id="at" class="Interaction" color="#000" ><g color="#000" fill="transparent"  filter="url(#e)" stroke="#000" stroke-dasharray="10.408392051372358, 0"><path class="EdgeBody" d="m162.35 242.01-7.1266-7.5859"   /></g></g><g id="au" class="DirectedInteraction" color="#ff8000" ><g color="#ff8000" fill="transparent"  filter="url(#d)" stroke="#000" stroke-dasharray="114.82923575570209, 5.8"><path class="EdgeBody" d="m663.33 234.55-81.667 88.78"   marker-end="url(#a)" /></g></g><g id="av" class="DirectedInteraction" color="#ff8000" ><g color="#ff8000" fill="transparent"  filter="url(#d)" stroke="#000" stroke-dasharray="90.90270171512667, 5.8"><path class="EdgeBody" d="m663.33 234.55-38.333 88.78"   marker-end="url(#a)" /></g></g><g id="aw" class="Interaction" color="#000" ><g color="#000" fill="transparent"  filter="url(#e)" stroke="#000" stroke-dasharray="48.642766323328566, 0"><path class="EdgeBody" d="m663.33 161.78-35-33.78"   /></g></g><g id="ax" class="DirectedInteraction" color="#33cc00" ><g color="#33cc00" fill="transparent"  filter="url(#b)" stroke="#000" stroke-dasharray="70.2007309906366, 5.8"><path class="EdgeBody" d="m344.33 578-24.333 72"   marker-end="url(#a)" /></g></g><g class="SingleFreeNode Shape" transform="translate(52.5,525.5)" color="#c0c0c0" ><g fill="transparent"  filter="url(#f)" stroke="#c0c0c0" stroke-width="3"><use class="Icon" transform="matrix(.98055 0 0 .96013 5.8833 5.7608)" width="605" height="289"    xlink:href="#h"/></g></g><g class="SingleFreeNode Shape" transform="translate(27.5,159.5)" color="#c0c0c0" ><g fill="transparent"  filter="url(#f)" stroke="#c0c0c0" stroke-width="3"><rect class="Icon" transform="matrix(.98324 0 0 .98278 5.8994 5.8967)" width="704" height="685" rx="15" ry="15"   /></g></g><g class="Label" transform="translate(562.67 91.667)" color="#00f"  name="FASL, Inflammatory Cytokines, UV, etc."><use class="Icon" width="131.33333333333334" height="36.333333333333336" fill="transparent"  stroke="#00f" stroke-width="0" xlink:href="#c"/><text class="Text" transform="translate(65.667 21.167)" fill="#00f"  font-size="10px" font-weight="bold"  text-anchor="middle"><tspan x="0" y="-5.5">FASL, Inflammatory</tspan> <tspan x="0" y="5.5">Cytokines, UV, etc.</tspan></text></g><g class="Label" transform="translate(560.33 457.17)" color="#00f"  name="Translation"><use class="Icon" width="91.33333333333333" height="19" fill="transparent"  stroke="#00f" stroke-width="0" xlink:href="#c"/><text class="Text" transform="translate(45.667 13.5)" fill="#00f"  font-size="12px" font-weight="bold"  text-anchor="middle"><tspan x="0" y="0">Translation</tspan></text></g><g class="Label" transform="translate(542 593.83)" color="#000"  name="?"><use class="Icon" width="15.333333333333334" height="19" fill="transparent"  stroke="#000" stroke-width="0" xlink:href="#c"/><text class="Text" transform="translate(7.6667 13.5)" direction="neutral"   font-size="12px" font-weight="bold"  text-anchor="middle"><tspan x="0" y="0">?</tspan></text></g><g class="Label" transform="translate(574,280.5)" color="#000"  name="?"><use class="Icon" width="15.333333333333334" height="19" fill="transparent"  stroke="#000" stroke-width="0" xlink:href="#c"/><text class="Text" transform="translate(7.6667 13.5)" direction="neutral"   font-size="12px" font-weight="bold"  text-anchor="middle"><tspan x="0" y="0">?</tspan></text></g><g class="Label" transform="translate(314 173.17)" color="#000"  name="?"><use class="Icon" width="15.333333333333334" height="19" fill="transparent"  stroke="#000" stroke-width="0" xlink:href="#c"/><text class="Text" transform="translate(7.6667 13.5)" direction="neutral"   font-size="12px" font-weight="bold"  text-anchor="middle"><tspan x="0" y="0">?</tspan></text></g><g class="Label" transform="translate(79 90.667)" color="#00f"  name="Growth Factors, UV Trophic Factors, etc."><use class="Icon" width="127.33333333333333" height="41.333333333333336" fill="transparent"  stroke="#00f" stroke-width="0" xlink:href="#c"/><text class="Text" transform="translate(63.667 23.667)" fill="#00f"  font-size="10px" font-weight="bold"  text-anchor="middle"><tspan x="0" y="-5.5">Growth Factors, UV</tspan> <tspan x="0" y="5.5">Trophic Factors, etc.</tspan></text></g><g class="Label" transform="translate(234.83 92)" color="#00f"  name="Stress: Osmotic shock g-radiation, Anisomycin"><use class="Icon" width="131.16666666666666" height="29" fill="transparent"  stroke="#00f" stroke-width="0" xlink:href="#c"/><text class="Text" transform="translate(65.583 17.5)" fill="#00f"  font-size="10px" font-weight="bold"  text-anchor="middle"><tspan x="0" y="-5.5">Stress: Osmotic shock</tspan> <tspan x="0" y="5.5">g-radiation, Anisomycin</tspan></text></g><g class="Label" transform="translate(617,280.5)" color="#000"  name="?"><use class="Icon" width="15.333333333333334" height="19" fill="transparent"  stroke="#000" stroke-width="0" xlink:href="#c"/><text class="Text" transform="translate(7.6667 13.5)" direction="neutral"   font-size="12px" font-weight="bold"  text-anchor="middle"><tspan x="0" y="0">?</tspan></text></g><g class="Label" transform="translate(266.33 177.17)" color="#000"  name="?"><use class="Icon" width="15.333333333333334" height="19" fill="transparent"  stroke="#000" stroke-width="0" xlink:href="#c"/><text class="Text" transform="translate(7.6667 13.5)" direction="neutral"   font-size="12px" font-weight="bold"  text-anchor="middle"><tspan x="0" y="0">?</tspan></text></g><g class="Label" transform="translate(454.38 746.32)" color="#00f"  name="Cytokines Production, Apoptosis, etc."><use class="Icon" width="126.33333333333333" height="29.333333333333332" fill="transparent"  stroke="#00f" stroke-width="0" xlink:href="#c"/><text class="Text" transform="translate(63.167 17.667)" fill="#00f"  font-size="10px" font-weight="bold"  text-anchor="middle"><tspan x="0" y="-5.5">Cytokines Production,</tspan> <tspan x="0" y="5.5">Apoptosis, etc.</tspan></text></g><g class="Label" transform="translate(351.37 700.6)" color="#33cc00"  name="DNA transcription"><use class="Icon" width="123" height="49.566247146471774" fill="transparent"  stroke="#33cc00" stroke-width="0" xlink:href="#c"/><text class="Text" transform="translate(61.5 28.783)" fill="#33cc00"  font-size="12px" font-weight="bold" stroke="black" stroke-width="0" text-anchor="middle"><tspan x="0" y="0">DNA transcription</tspan></text></g><a  class="GeneProduct P594_ENSMUSG00000016528 " transform="translate(622.33 560)"   name="Mapkapk2"  ><rect class="Icon" transform="matrix(.98765 0 0 .95238 .49383 .47619)" width="80" height="20" fill="#fff" stroke="#000"/><text class="Text" transform="translate(40,13)"   font-size="10px"  text-anchor="middle"><tspan x="0" y="0">Mapkapk2</tspan></text></a><g class="GeneProduct P594_ENSMUSG00000105340" transform="translate(483.33 493.33)" color="#000"  name="Gm42878"><rect class="Icon" transform="matrix(.98765 0 0 .95238 .49383 .47619)" width="80" height="20" fill="#fff" stroke="#000"/><text class="Text" transform="translate(40,13)"   font-size="10px"  text-anchor="middle"><tspan x="0" y="0">Gm42878</tspan></text></g><a  class="GeneProduct P594_ENSMUSG00000004951 " transform="translate(602.67 493)"   name="Hspb1"  ><rect class="Icon" transform="matrix(.9816 0 0 .95238 .4908 .47619)" width="53.333" height="20" fill="#fff" stroke="#000"/><text class="Text" transform="translate(26.667 13)"   font-size="10px"  text-anchor="middle"><tspan x="0" y="0">Hspb1</tspan></text></a><a  class="GeneProduct P594_ENSMUSG00000020623 " transform="translate(333.33 393.33)"   name="Map2k6"  ><rect class="Icon" transform="matrix(.98361 0 0 .95238 .4918 .47619)" width="60" height="20" fill="#fff" stroke="#000"/><text class="Text" transform="translate(30,13)"   font-size="10px"  text-anchor="middle"><tspan x="0" y="0">Map2k6</tspan></text></a><a  class="GeneProduct P594_ENSMUSG00000042724 " transform="translate(276.67 300)"   name="Map3k9"  ><rect class="Icon" transform="matrix(.9894 0 0 .95238 .4947 .47619)" width="93.333" height="20" fill="#fff" stroke="#000"/><text class="Text" transform="translate(46.667 13)"   font-size="10px"  text-anchor="middle"><tspan x="0" y="0">Map3k9</tspan></text></a><a  class="GeneProduct P594_ENSMUSG00000001847 " transform="translate(253.33 226.67)"   name="Rac1"  ><rect class="Icon" transform="matrix(.97561 0 0 .95238 .4878 .47619)" width="40" height="20" fill="#fff" stroke="#000"/><text class="Text" transform="translate(20,13)"   font-size="10px"  text-anchor="middle"><tspan x="0" y="0">Rac1</tspan></text></a><a  class="GeneProduct P594_ENSMUSG00000007613 " transform="translate(445.33 158.67)"   name="Tgfbr1"  ><rect class="Icon" transform="matrix(.98361 0 0 .95238 .4918 .47619)" width="60" height="20" fill="#fff" stroke="#000"/><text class="Text" transform="translate(30,13)"   font-size="10px"  text-anchor="middle"><tspan x="0" y="0">Tgfbr1</tspan></text></a><a  class="GeneProduct P594_ENSMUSG00000001419 " transform="translate(413.33 648)"   name="Mef2d"  ><rect class="Icon" transform="matrix(.9816 0 0 .95238 .4908 .47619)" width="53.333" height="20" fill="#fff" stroke="#000"/><text class="Text" transform="translate(26.667 13)"   font-size="10px"  text-anchor="middle"><tspan x="0" y="0">Mef2d</tspan></text></a><a  class="GeneProduct P594_ENSMUSG00000027104 " transform="translate(475.67 674.67)"   name="Atf2"  ><rect class="Icon" transform="matrix(.97561 0 0 .95238 .4878 .47619)" width="40" height="20" fill="#fff" stroke="#000"/><text class="Text" transform="translate(20,13)"   font-size="10px"  text-anchor="middle"><tspan x="0" y="0">Atf2</tspan></text></a><a  class="GeneProduct P594_ENSMUSG00000026104 " transform="translate(163.33 664.67)"   name="Stat1"  ><rect class="Icon" transform="matrix(.97902 0 0 .95238 .48951 .47619)" width="46.667" height="20" fill="#fff" stroke="#000"/><text class="Text" transform="translate(23.333 13)"   font-size="10px"  text-anchor="middle"><tspan x="0" y="0">Stat1</tspan></text></a><a  class="GeneProduct P594_ENSMUSG00000025958 " transform="translate(610 661.33)"   name="Creb1"  ><rect class="Icon" transform="matrix(.97902 0 0 .95238 .48951 .47619)" width="46.667" height="20" fill="#fff" stroke="#000"/><text class="Text" transform="translate(23.333 13)"   font-size="10px"  text-anchor="middle"><tspan x="0" y="0">Creb1</tspan></text></a><a  class="GeneProduct P594_ENSMUSG00000071369 " transform="translate(560 323.33)"   name="Map3k5"  ><rect class="Icon" transform="matrix(.98859 0 0 .95238 .4943 .47619)" width="86.667" height="20" fill="#fff" stroke="#000"/><text class="Text" transform="translate(43.333 13)"   font-size="10px"  text-anchor="middle"><tspan x="0" y="0">Map3k5</tspan></text></a><a  class="GeneProduct P594_ENSMUSG00000028708 " transform="translate(460 456.67)"   name="Mknk1"  ><rect class="Icon" transform="matrix(.9816 0 0 .95238 .4908 .47619)" width="53.333" height="20" fill="#fff" stroke="#000"/><text class="Text" transform="translate(26.667 13)"   font-size="10px"  text-anchor="middle"><tspan x="0" y="0">Mknk1</tspan></text></a><a  class="GeneProduct P594_ENSMUSG00000028284 " transform="translate(432.33 322.33)"   name="Map3k7"  ><rect class="Icon" transform="matrix(.98859 0 0 .95238 .4943 .47619)" width="86.667" height="20" fill="#fff" stroke="#000"/><text class="Text" transform="translate(43.333 13)"   font-size="10px"  text-anchor="middle"><tspan x="0" y="0">Map3k7</tspan></text></a><a  class="GeneProduct P594_ENSMUSG00000021180 " transform="translate(487 626)"   name="Rps6ka5"  ><rect class="Icon" transform="matrix(.9894 0 0 .95238 .4947 .47619)" width="93.333" height="20" fill="#fff" stroke="#000"/><text class="Text" transform="translate(46.667 13)"   font-size="10px"  text-anchor="middle"><tspan x="0" y="0">Rps6ka5</tspan></text></a><a  class="GeneProduct P594_ENSMUSG00000053436 " transform="translate(323.33 456.67)"   name="Mapk14"  ><rect class="Icon" transform="matrix(.98765 0 0 .95238 .49383 .47619)" width="80" height="20" fill="#fff" stroke="#000"/><text class="Text" transform="translate(40,13)"   font-size="10px"  text-anchor="middle"><tspan x="0" y="0">Mapk14</tspan></text></a><a  class="GeneProduct P594_ENSMUSG00000009406 " transform="translate(237.33 645.33)"   name="Elk1"  ><rect class="Icon" transform="matrix(.97561 0 0 .95238 .4878 .47619)" width="40" height="20" fill="#fff" stroke="#000"/><text class="Text" transform="translate(20,13)"   font-size="10px"  text-anchor="middle"><tspan x="0" y="0">Elk1</tspan></text></a><a  class="GeneProduct P594_ENSMUSG00000053436 " transform="translate(324.33 558)"   name="Mapk14"  ><rect class="Icon" transform="matrix(.98765 0 0 .95238 .49383 .47619)" width="80" height="20" fill="#fff" stroke="#000"/><text class="Text" transform="translate(40,13)"   font-size="10px"  text-anchor="middle"><tspan x="0" y="0">Mapk14</tspan></text></a><a  class="GeneProduct P594_ENSMUSG00000025499 " transform="translate(155.23 224.43)"   name="Hras"  ><rect class="Icon" transform="matrix(.97902 0 0 .95238 .48951 .47619)" width="46.667" height="20" fill="#fff" stroke="#000"/><text class="Text" transform="translate(23.333 13)"   font-size="10px"  text-anchor="middle"><tspan x="0" y="0">Hras</tspan></text></a><a  class="GeneProduct P594_ENSMUSG00000006699 " transform="translate(323.33 213.33)"   name="Cdc42"  ><rect class="Icon" transform="matrix(.97902 0 0 .95238 .48951 .47619)" width="46.667" height="20" fill="#fff" stroke="#000"/><text class="Text" transform="translate(23.333 13)"   font-size="10px"  text-anchor="middle"><tspan x="0" y="0">Cdc42</tspan></text></a><a  class="GeneProduct P594_ENSMUSG00000040681 " transform="translate(550,678)"   name="Hmgn1"  ><rect class="Icon" transform="matrix(.9816 0 0 .95238 .4908 .47619)" width="53.333" height="20" fill="#fff" stroke="#000"/><text class="Text" transform="translate(26.667 13)"   font-size="10px"  text-anchor="middle"><tspan x="0" y="0">Hmgn1</tspan></text></a><a class="WikiPathways_WP254 Pathway " transform="translate(563,386)" color="#14961e"  name="Apoptosis"  ><use class="Icon" width="80" height="20" fill="transparent"  stroke="#14961e" stroke-width="0" xlink:href="#c"/><text class="Text" transform="translate(40,14)" fill="#14961e"  font-size="12px" font-weight="bold" stroke="black" stroke-width="0" text-anchor="middle"><tspan x="0" y="0">Apoptosis</tspan></text></a><a  class="GeneProduct P594_ENSMUSG00000056220 " transform="translate(97 456.33)"   name="Pla2g4a"  ><rect class="Icon" transform="matrix(.98522 0 0 .95238 .49261 .47619)" width="66.667" height="20" fill="#fff" stroke="#000"/><text class="Text" transform="translate(33.333 13)"   font-size="10px"  text-anchor="middle"><tspan x="0" y="0">Pla2g4a</tspan></text></a><a  class="GeneProduct P594_ENSMUSG00000033352 " transform="translate(166.67 363.67)"   name="Map2k4"  ><rect class="Icon" transform="matrix(.98361 0 0 .95238 .4918 .47619)" width="60" height="20" fill="#fff" stroke="#000"/><text class="Text" transform="translate(30,13)"   font-size="10px"  text-anchor="middle"><tspan x="0" y="0">Map2k4</tspan></text></a><a  class="GeneProduct P594_ENSMUSG00000025408 " transform="translate(356.67 678)"   name="Ddit3"  ><rect class="Icon" transform="matrix(.98655 0 0 .95238 .49327 .47619)" width="73.333" height="20" fill="#fff" stroke="#000"/><text class="Text" transform="translate(36.667 13)"   font-size="10px"  text-anchor="middle"><tspan x="0" y="0">Ddit3</tspan></text></a><a  class="GeneProduct P594_ENSMUSG00000016528 " transform="translate(458.33 572)"   name="Mapkapk2"  ><rect class="Icon" transform="matrix(.98765 0 0 .95238 .49383 .47619)" width="80" height="20" fill="#fff" stroke="#000"/><text class="Text" transform="translate(40,13)"   font-size="10px"  text-anchor="middle"><tspan x="0" y="0">Mapkapk2</tspan></text></a><a  class="GeneProduct P594_ENSMUSG00000039239 " transform="translate(451.67 90.667)"   name="Tgfb2"  ><rect class="Icon" transform="matrix(.97902 0 0 .95238 .48951 .47619)" width="46.667" height="20" fill="#fff" stroke="#000"/><text class="Text" transform="translate(23.333 13)"   font-size="10px"  text-anchor="middle"><tspan x="0" y="0">Tgfb2</tspan></text></a><a  class="GeneProduct P594_ENSMUSG00000021754 " transform="translate(146.67 303.33)"   name="Map3k1"  ><rect class="Icon" transform="matrix(.9901 0 0 .95238 .49505 .47619)" width="100" height="20" fill="#fff" stroke="#000"/><text class="Text" transform="translate(50,13)"   font-size="10px"  text-anchor="middle"><tspan x="0" y="0">Map3k1</tspan></text></a><g class="GroupNone" transform="translate(101.13 174.67)" color="grey" ><rect class="Icon" transform="matrix(.9919 0 0 .98618 .49595 .49309)" width="122.46" height="71.346" fill="#b4b464" fill-opacity=".1" stroke="grey" stroke-dasharray="5,3"/><a  class="GeneProduct P594_ENSMUSG00000059923 " transform="translate(9 42.346)"   name="Grb2"  ><rect class="Icon" transform="matrix(.97902 0 0 .95238 .48951 .47619)" width="46.667" height="20" fill="#fff" stroke="#000"/><text class="Text" transform="translate(23.333 13)"   font-size="10px"  text-anchor="middle"><tspan x="0" y="0">Grb2</tspan></text></a><a  class="GeneProduct P594_ENSMUSG00000042626 " transform="translate(15.14 22.346)"   name="Shc1"  ><rect class="Icon" transform="matrix(.97561 0 0 .95238 .4878 .47619)" width="40" height="20" fill="#fff" stroke="#000"/><text class="Text" transform="translate(20,13)"   font-size="10px"  text-anchor="middle"><tspan x="0" y="0">Shc1</tspan></text></a><a  class="GeneProduct P594_ENSMUSG00000032356 " transform="translate(46.791 9)"   name="Rasgrf1"  ><rect class="Icon" transform="matrix(.98522 0 0 .95238 .49261 .47619)" width="66.667" height="20" fill="#fff" stroke="#000"/><text class="Text" transform="translate(33.333 13)"   font-size="10px"  text-anchor="middle"><tspan x="0" y="0">Rasgrf1</tspan></text></a></g><g class="GroupNone" transform="translate(591 157.33)" color="grey" ><rect class="Icon" transform="matrix(.99314 0 0 .9879 .49657 .49395)" width="144.67" height="81.667" fill="#b4b464" fill-opacity=".1" stroke="grey" stroke-dasharray="5,3"/><a  class="GeneProduct P594_ENSMUSG00000026942 " transform="translate(52.333 52.667)"   name="Traf2"  ><rect class="Icon" transform="matrix(.97902 0 0 .95238 .48951 .47619)" width="46.667" height="20" fill="#fff" stroke="#000"/><text class="Text" transform="translate(23.333 13)"   font-size="10px"  text-anchor="middle"><tspan x="0" y="0">Traf2</tspan></text></a><a  class="GeneProduct P594_ENSMUSG00000021408 " transform="translate(38.333 9)"   name="Ripk1"  ><rect class="Icon" transform="matrix(.97902 0 0 .95238 .48951 .47619)" width="46.667" height="20" fill="#fff" stroke="#000"/><text class="Text" transform="translate(23.333 13)"   font-size="10px"  text-anchor="middle"><tspan x="0" y="0">Ripk1</tspan></text></a><a  class="GeneProduct P594_ENSMUSG00000002307 " transform="translate(89 19.333)"   name="Daxx"  ><rect class="Icon" transform="matrix(.97902 0 0 .95238 .48951 .47619)" width="46.667" height="20" fill="#fff" stroke="#000"/><text class="Text" transform="translate(23.333 13)"   font-size="10px"  text-anchor="middle"><tspan x="0" y="0">Daxx</tspan></text></a><a  class="GeneProduct P594_ENSMUSG00000031887 " transform="translate(9,36)"   name="Tradd"  ><rect class="Icon" transform="matrix(.9816 0 0 .95238 .4908 .47619)" width="53.333" height="20" fill="#fff" stroke="#000"/><text class="Text" transform="translate(26.667 13)"   font-size="10px"  text-anchor="middle"><tspan x="0" y="0">Tradd</tspan></text></a></g><g class="GroupGroup" transform="translate(292,650)" color="grey" ><use class="Icon" width="56" height="56" fill="transparent"  stroke="grey" stroke-dasharray="5,3" stroke-width="0" xlink:href="#c"/><a  class="GeneProduct P594_ENSMUSG00000059436 " transform="translate(8,8)"   name="Max"  ><rect class="Icon" transform="matrix(.97561 0 0 .95238 .4878 .47619)" width="40" height="20" fill="#fff" stroke="#000"/><text class="Text" transform="translate(20,13)"   font-size="10px"  text-anchor="middle"><tspan x="0" y="0">Max</tspan></text></a><a  class="GeneProduct P594_ENSMUSG00000022346 " transform="translate(8,28)"   name="Myc"  ><rect class="Icon" transform="matrix(.97561 0 0 .95238 .4878 .47619)" width="40" height="20" fill="#fff" stroke="#000"/><text class="Text" transform="translate(20,13)"   font-size="10px"  text-anchor="middle"><tspan x="0" y="0">Myc</tspan></text></a></g><g class="SingleFreeNode Shape" transform="translate(138.67 605.73)" color="#000"  name="Transcription factors"><rect class="Icon" transform="matrix(.99812 0 0 .99165 .49906 .49582)" width="530.48" height="118.7" fill="transparent"  stroke="#000"/><text class="Text" transform="translate(8 108.1)"   font-size="12px" ><tspan x="0" y="0">Transcription factors</tspan></text></g><text class="Text" transform="translate(5,27)" dominant-baseline="central" fill="black"  font-size="12px" font-weight="bold" overflow="visible" ><tspan x="0" y="-9">Name: p38 Mapk signaling pathway</tspan> <tspan x="0" y="9">Organism: Mus musculus</tspan></text></g></svg>
