<?xml version="1.0" encoding="UTF-8"?>
<!--
  WikiPathways page: https://www.wikipathways.org/index.php/Pathway:WP3654
  URL for this compressed file: https://github.com/eweitz/cachome/tree/main/data/wikipathways/WP3654.svg
  Source code for compression: https://github.com/eweitz/cachome/tree/main/src/wikipathways.py
-->
<svg class="Diagram" width="800" height="600" color="black" baseProfile="full" prefix="schema:http://schema.org/" preserveAspectRatio="xMidYMid" version="1.1" viewBox="0 0 1184 582" vocab="http://vocabularies.wikipathways.org/wp#" xmlns="http://www.w3.org/2000/svg" xmlns:xlink="http://www.w3.org/1999/xlink"><style>svg {font-family: 'Liberation Sans', Arial, sans-serif; }</style><defs><filter id="a" x="0" y="0" width="1184" height="582" filterUnits="userSpaceOnUse"><feColorMatrix in="SourceGraphic" values="-1   0   0 0 0                   0  -1   0 0 0                   0   0  -1 0 0                   0   0   0 1 0"/></filter><marker id="b" stroke-dasharray="99999" markerHeight="12" markerUnits="userSpaceOnUse" markerWidth="12" orient="auto" preserveAspectRatio="none" refX="12" refY="6" viewBox="0 0 12 12"><path transform="rotate(180 6 6)" d="M12 11L0 6l12-5z" fill="currentColor" stroke-width="0"/></marker><marker id="d" stroke-dasharray="99999" markerHeight="20" markerUnits="userSpaceOnUse" markerWidth="10" orient="auto" preserveAspectRatio="none" refX="10" refY="10" viewBox="0 0 10 20"><path d="m3 0v20" fill="currentColor" stroke="currentColor"/></marker><marker id="f" stroke-dasharray="99999" markerHeight="20" markerUnits="userSpaceOnUse" markerWidth="10" orient="auto" preserveAspectRatio="none" refX="10" refY="10" viewBox="0 0 10 20"><path d="m3 0v20" fill="currentColor" stroke="currentColor"/></marker><symbol id="e" overflow="visible" preserveAspectRatio="none" viewBox="0 0 100 100"><path d="M1.5 49.5c0-16.167 8.167-24.25 24.5-24.25S50.5 17.167 50.5 1c0 16.167 8.167 24.25 24.5 24.25s24.5 8.083 24.5 24.25" stroke="currentColor" vector-effect="non-scaling-stroke"/></symbol><symbol id="g" overflow="visible" preserveAspectRatio="none" viewBox="0 0 100 100"><path d="M0 25L25 0h50l25 25v50l-25 25H25L0 75z" stroke="currentColor" vector-effect="non-scaling-stroke"/></symbol><symbol id="c" preserveAspectRatio="none" viewBox="0 0 100 100"/></defs><g class="Viewport" color="black"  name="Name: Novel Jun-Dmp1 pathway Organism: Mus musculus"><rect class="Icon" width="1184" height="582" fill="#fff" stroke="#000" stroke-width="0"/><g id="h" class="Interaction" color="#000" ><g color="#000" fill="transparent"  filter="url(#a)" stroke="#000" stroke-dasharray="81, 7"><path class="EdgeBody" d="m881 316v88"   marker-end="url(#d)" /></g></g><g id="i" class="DirectedInteraction" color="#000" ><g color="#000" fill="transparent"  filter="url(#a)" stroke="#000" stroke-dasharray="27.2, 5.8"><path class="EdgeBody" d="m901 457v-33"   marker-end="url(#b)" /></g></g><g id="j" class="DirectedInteraction" color="#000" ><g color="#000" fill="transparent"  filter="url(#a)" stroke="#000" stroke-dasharray="48.20231476520243, 5.8"><path class="EdgeBody" d="m921 467 54 0.5"   marker-end="url(#b)" /></g></g><g id="k" class="DirectedInteraction" color="#000" ><g color="#000" fill="transparent"  filter="url(#a)" stroke="#000" stroke-dasharray="31.7, 5.8"><path class="EdgeBody" d="m186 91.5v37.5"   marker-end="url(#b)" /></g></g><g id="l" class="Inhibition" color="#000" ><g color="#000" fill="transparent"  filter="url(#a)" stroke="#000" stroke-dasharray="26, 7"><path class="EdgeBody" d="m861 424v33"   marker-end="url(#f)" /></g></g><g id="m" class="DirectedInteraction" color="#000" ><g color="#000" fill="transparent"  filter="url(#a)" stroke="#000" stroke-dasharray="263.20185872963776, 5.8"><path class="EdgeBody" d="m572 307 269-1"   marker-end="url(#b)" /></g></g><g id="n" class="DirectedInteraction" color="#000" ><g color="#000" fill="transparent"  filter="url(#a)" stroke="#000" stroke-dasharray="340.7, 5.8"><path class="EdgeBody" d="m226 444h20v-232.5h94"   marker-end="url(#b)" /></g></g><g id="o" class="Interaction" color="#000" ><g color="#000" fill="transparent"  filter="url(#a)" stroke="#000" stroke-dasharray="37, 7"><path class="EdgeBody" d="m789 116h44"   marker-end="url(#d)" /></g></g><g id="p" class="DirectedInteraction" color="#000" ><g color="#000" fill="transparent"  filter="url(#a)" stroke="#000" stroke-dasharray="30.2, 5.8"><path class="EdgeBody" d="m929 116h36"   marker-end="url(#b)" /></g></g><g id="q" class="DirectedInteraction" color="#000" ><g color="#000" fill="transparent"  filter="url(#a)" stroke="#000" stroke-dasharray="146.2, 5.8"><path class="EdgeBody" d="m881 144v152"   marker-end="url(#b)" /></g></g><g id="r" class="DirectedInteraction" color="#000" ><g color="#000" fill="transparent"  filter="url(#a)" stroke="#000" stroke-dasharray="167.7, 5.8"><path class="EdgeBody" d="m416.5 163.5v-47h126.5"   marker-end="url(#b)" /></g></g><g id="s" class="Interaction" color="#000" ><g color="#000" fill="transparent"  filter="url(#a)" stroke="#000" stroke-dasharray="55.00201609625287, 7"><path class="EdgeBody" d="m647 116.5 62-0.5"   marker-end="url(#d)" /></g></g><g id="t" class="Interaction" color="#000" ><g color="#000" fill="transparent"  filter="url(#a)" stroke="#000" stroke-dasharray="43, 7"><path class="EdgeBody" d="m595 35v50"   marker-end="url(#d)" /></g></g><g id="u" class="DirectedInteraction" color="#000" ><g color="#000" fill="transparent"  filter="url(#a)" stroke="#000" stroke-dasharray="22.951086935975134, 5.8"><path class="EdgeBody" d="M186.25,397.25L186,426"   marker-end="url(#b)" /></g></g><g id="v" class="DirectedInteraction" color="#000" ><g color="#000" fill="transparent"  filter="url(#a)" stroke="#000" stroke-dasharray="53.2, 5.8"><path class="EdgeBody" d="m433 307h59"   marker-end="url(#b)" /></g></g><g id="w" class="DirectedInteraction" color="#000" ><g color="#000" fill="transparent"  filter="url(#a)" stroke="#000" stroke-dasharray="242.2, 5.8"><path class="EdgeBody" d="m226 444h20v-137h91"   marker-end="url(#b)" /></g></g><g id="x" class="DirectedInteraction" color="#000" ><g color="#000" fill="transparent"  filter="url(#a)" stroke="#000" stroke-dasharray="375.7003276538567, 5.8"><path class="EdgeBody" d="M459.5,414.5L841,414"   marker-end="url(#b)" /></g></g><g id="y" class="DirectedInteraction" color="#000" ><g color="#000" fill="transparent"  filter="url(#a)" stroke="#000" stroke-dasharray="140.7, 5.8"><path class="EdgeBody" d="m226 444h20v-29.5h97"   marker-end="url(#b)" /></g></g><g id="z" class="DirectedInteraction" color="#000" ><g color="#000" fill="transparent"  filter="url(#a)" stroke="#000" stroke-dasharray="17.2, 5.8"><path class="EdgeBody" d="m186 217v23"   marker-end="url(#b)" /></g></g><g id="aa" class="DirectedInteraction" color="#000" ><g color="#000" fill="transparent"  filter="url(#a)" stroke="#000" stroke-dasharray="19.45123759343292, 5.8"><path class="EdgeBody" d="m186 316 0.25 25.25"   marker-end="url(#b)" /></g></g><g class="GroupGroup" transform="translate(343,366.5)" color="grey" ><use class="Icon" width="123" height="96" fill="transparent"  stroke="grey" stroke-dasharray="5,3" stroke-width="0" xlink:href="#c"/><g class="SingleFreeNode Shape" transform="translate(87,20) rotate(90,14,7.5)" color="#000" ><use class="Icon" transform="matrix(.96552 0 0 .9375 .48276 .46875)" width="28" height="15" fill="transparent"  stroke="#000" xlink:href="#e"/></g><a  class="GeneProduct P594_ENSMUSG00000022895 " transform="translate(8,68)"   name="Ets2"  ><rect class="Icon" transform="matrix(.98765 0 0 .95238 .49383 .47619)" width="80" height="20" fill="#fff" stroke="#000"/><text class="Text" transform="translate(40,13)"   font-size="10px"  text-anchor="middle"><tspan x="0" y="0">Ets2</tspan></text></a><a  class="GeneProduct P594_ENSMUSG00000032035 " transform="translate(8,48)"   name="Ets1"  ><rect class="Icon" transform="matrix(.98765 0 0 .95238 .49383 .47619)" width="80" height="20" fill="#fff" stroke="#000"/><text class="Text" transform="translate(40,13)"   font-size="10px"  text-anchor="middle"><tspan x="0" y="0">Ets1</tspan></text></a><a  class="GeneProduct P594_ENSMUSG00000052684 " transform="translate(8,8)"   name="Jun"  ><rect class="Icon" transform="matrix(.98765 0 0 .95238 .49383 .47619)" width="80" height="20" fill="#fff" stroke="#000"/><text class="Text" transform="translate(40,13)"   font-size="10px"  text-anchor="middle"><tspan x="0" y="0">Jun</tspan></text></a><a  class="GeneProduct P594_ENSMUSG00000021250 " transform="translate(8,28)"   name="Fos"  ><rect class="Icon" transform="matrix(.98765 0 0 .95238 .49383 .47619)" width="80" height="20" fill="#fff" stroke="#000"/><text class="Text" transform="translate(40,13)"   font-size="10px"  text-anchor="middle"><tspan x="0" y="0">Fos</tspan></text></a></g><g class="Label" transform="translate(141,66.5)" color="#000"  name="Mitogen"><use class="Icon" width="90" height="25" fill="transparent"  stroke="#000" stroke-width="0" xlink:href="#c"/><text class="Text" transform="translate(45,16.5)"   font-size="12px" font-weight="bold"  text-anchor="middle"><tspan x="0" y="0">Mitogen</tspan></text></g><g class="Label" transform="translate(447,370.5)" color="#000"  name="AP-1"><use class="Icon" width="42" height="25" fill="transparent"  stroke="#000" stroke-width="0" xlink:href="#c"/><text class="Text" transform="translate(21,16.5)"   font-size="12px" font-weight="bold"  text-anchor="middle"><tspan x="0" y="0">AP-1</tspan></text></g><a  class="GeneProduct P594_ENSMUSG00000029307 " transform="translate(492,297)"   name="Dmp1"  ><rect class="Icon" transform="matrix(.98765 0 0 .95238 .49383 .47619)" width="80" height="20" fill="#fff" stroke="#000"/><text class="Text" transform="translate(40,13)"   font-size="10px"  text-anchor="middle"><tspan x="0" y="0">Dmp1</tspan></text></a><a  class="GeneProduct P594_ENSMUSG00000048076 " transform="translate(841,296)"   name="Arf"  ><rect class="Icon" transform="matrix(.98765 0 0 .95238 .49383 .47619)" width="80" height="20" fill="#fff" stroke="#000"/><text class="Text" transform="translate(40,13)"   font-size="10px"  text-anchor="middle"><tspan x="0" y="0">Arf</tspan></text></a><a class="WikiPathways_WP413 Pathway " transform="translate(965,106)" color="#14961e"  name="S Phase"  ><use class="Icon" width="80" height="20" fill="transparent"  stroke="#14961e" stroke-width="0" xlink:href="#c"/><text class="Text" transform="translate(40,14)" fill="#14961e"  font-size="12px" font-weight="bold" stroke="black" stroke-width="0" text-anchor="middle"><tspan x="0" y="0">S Phase</tspan></text></a><a  class="GeneProduct P594_ENSMUSG00000044303 " transform="translate(555,15)"   name="Ink4a"  ><rect class="Icon" transform="matrix(.98765 0 0 .95238 .49383 .47619)" width="80" height="20" fill="#fff" stroke="#000"/><text class="Text" transform="translate(40,13)"   font-size="10px"  text-anchor="middle"><tspan x="0" y="0">Ink4a</tspan></text></a><a  class="GeneProduct P594_ENSMUSG00000022105 " transform="translate(709,106)"   name="Rb1"  ><rect class="Icon" transform="matrix(.98765 0 0 .95238 .49383 .47619)" width="80" height="20" fill="#fff" stroke="#000"/><text class="Text" transform="translate(40,13)"   font-size="10px"  text-anchor="middle"><tspan x="0" y="0">Rb1</tspan></text></a><a class="WikiPathways_WP1254 Pathway " transform="translate(975,458)" color="#14961e"  name="Growth Arrest or Apoptosis"  ><use class="Icon" width="179" height="19" fill="transparent"  stroke="#14961e" stroke-width="0" xlink:href="#c"/><text class="Text" transform="translate(89.5,13.5)" fill="#14961e"  font-size="12px" font-weight="bold" stroke="black" stroke-width="0" text-anchor="middle"><tspan x="0" y="0">Growth Arrest or Apoptosis</tspan></text></a><a  class="GeneProduct P594_ENSMUSG00000059552 " transform="translate(841,457)"   name="p53"  ><rect class="Icon" transform="matrix(.98765 0 0 .95238 .49383 .47619)" width="80" height="20" fill="#fff" stroke="#000"/><text class="Text" transform="translate(40,13)"   font-size="10px"  text-anchor="middle"><tspan x="0" y="0">p53</tspan></text></a><a  class="GeneProduct P594_ENSMUSG00000020184 " transform="translate(841,404)"   name="Mdm2"  ><rect class="Icon" transform="matrix(.98765 0 0 .95238 .49383 .47619)" width="80" height="20" fill="#fff" stroke="#000"/><text class="Text" transform="translate(40,13)"   font-size="10px"  text-anchor="middle"><tspan x="0" y="0">Mdm2</tspan></text></a><g class="GroupGroup" transform="translate(138.25,341.25)" color="grey" ><use class="Icon" width="96" height="56" fill="transparent"  stroke="grey" stroke-dasharray="5,3" stroke-width="0" xlink:href="#c"/><a  class="GeneProduct P594_ENSMUSG00000004936 " transform="translate(8,8)"   name="Map2k1"  ><rect class="Icon" transform="matrix(.98765 0 0 .95238 .49383 .47619)" width="80" height="20" fill="#fff" stroke="#000"/><text class="Text" transform="translate(40,13)"   font-size="10px"  text-anchor="middle"><tspan x="0" y="0">Map2k1</tspan></text></a><a  class="GeneProduct P594_ENSMUSG00000035027 " transform="translate(8,28)"   name="Map2k2"  ><rect class="Icon" transform="matrix(.98765 0 0 .95238 .49383 .47619)" width="80" height="20" fill="#fff" stroke="#000"/><text class="Text" transform="translate(40,13)"   font-size="10px"  text-anchor="middle"><tspan x="0" y="0">Map2k2</tspan></text></a></g><g class="GroupGroup" transform="translate(340,163.5)" color="grey" ><use class="Icon" width="153" height="96" fill="transparent"  stroke="grey" stroke-dasharray="5,3" stroke-width="0" xlink:href="#c"/><a  class="GeneProduct P594_ENSMUSG00000032035 " transform="translate(8,48)"   name="Ets1"  ><rect class="Icon" transform="matrix(.98765 0 0 .95238 .49383 .47619)" width="80" height="20" fill="#fff" stroke="#000"/><text class="Text" transform="translate(40,13)"   font-size="10px"  text-anchor="middle"><tspan x="0" y="0">Ets1</tspan></text></a><a  class="GeneProduct P594_ENSMUSG00000022895 " transform="translate(8,68)"   name="Ets2"  ><rect class="Icon" transform="matrix(.98765 0 0 .95238 .49383 .47619)" width="80" height="20" fill="#fff" stroke="#000"/><text class="Text" transform="translate(40,13)"   font-size="10px"  text-anchor="middle"><tspan x="0" y="0">Ets2</tspan></text></a><g class="SingleFreeNode Shape" transform="translate(85,20) rotate(90,14,7.5)" color="#000" ><use class="Icon" transform="matrix(.96552 0 0 .9375 .48276 .46875)" width="28" height="15" fill="transparent"  stroke="#000" xlink:href="#e"/></g><g class="Label" transform="translate(103,16)" color="#000"  name="AP-1"><use class="Icon" width="42" height="25" fill="transparent"  stroke="#000" stroke-width="0" xlink:href="#c"/><text class="Text" transform="translate(21,16.5)"   font-size="12px" font-weight="bold"  text-anchor="middle"><tspan x="0" y="0">AP-1</tspan></text></g><a  class="GeneProduct P594_ENSMUSG00000052684 " transform="translate(8,8)"   name="Jun"  ><rect class="Icon" transform="matrix(.98765 0 0 .95238 .49383 .47619)" width="80" height="20" fill="#fff" stroke="#000"/><text class="Text" transform="translate(40,13)"   font-size="10px"  text-anchor="middle"><tspan x="0" y="0">Jun</tspan></text></a><a  class="GeneProduct P594_ENSMUSG00000021250 " transform="translate(8,28)"   name="Fos"  ><rect class="Icon" transform="matrix(.98765 0 0 .95238 .49383 .47619)" width="80" height="20" fill="#fff" stroke="#000"/><text class="Text" transform="translate(40,13)"   font-size="10px"  text-anchor="middle"><tspan x="0" y="0">Fos</tspan></text></a></g><g class="GroupGroup" transform="translate(833,88)" color="grey" ><use class="Icon" width="96" height="56" fill="transparent"  stroke="grey" stroke-dasharray="5,3" stroke-width="0" xlink:href="#c"/><a  class="GeneProduct P594_ENSMUSG00000022346 " transform="translate(8,28)"   name="Myc"  ><rect class="Icon" transform="matrix(.98765 0 0 .95238 .49383 .47619)" width="80" height="20" fill="#fff" stroke="#000"/><text class="Text" transform="translate(40,13)"   font-size="10px"  text-anchor="middle"><tspan x="0" y="0">Myc</tspan></text></a><a  class="GeneProduct P594_ENSMUSG00000027490 " transform="translate(8,8)"   name="E2f1"  ><rect class="Icon" transform="matrix(.98765 0 0 .95238 .49383 .47619)" width="80" height="20" fill="#fff" stroke="#000"/><text class="Text" transform="translate(40,13)"   font-size="10px"  text-anchor="middle"><tspan x="0" y="0">E2f1</tspan></text></a></g><g class="GroupComplex" transform="translate(543,85)" color="grey" ><use class="Icon" transform="matrix(.99048 0 0 .98438 .49524 .49219)" width="104" height="63" fill="#b4b464" fill-opacity=".1" stroke="grey" xlink:href="#g"/><a  class="GeneProduct P594_ENSMUSG00000006728 " transform="translate(12,12)"   name="Cdk4"  ><rect class="Icon" transform="matrix(.98765 0 0 .95238 .49383 .47619)" width="80" height="20" fill="#fff" stroke="#000"/><text class="Text" transform="translate(40,13)"   font-size="10px"  text-anchor="middle"><tspan x="0" y="0">Cdk4</tspan></text></a><a  class="GeneProduct P594_ENSMUSG00000070348 " transform="translate(12,31)"   name="Ccnd1"  ><rect class="Icon" transform="matrix(.98765 0 0 .95238 .49383 .47619)" width="80" height="20" fill="#fff" stroke="#000"/><text class="Text" transform="translate(40,13)"   font-size="10px"  text-anchor="middle"><tspan x="0" y="0">Ccnd1</tspan></text></a></g><g class="GroupGroup" transform="translate(138,426)" color="grey" ><use class="Icon" width="96" height="56" fill="transparent"  stroke="grey" stroke-dasharray="5,3" stroke-width="0" xlink:href="#c"/><a  class="GeneProduct P594_ENSMUSG00000063358 " transform="translate(8,8)"   name="Mapk1"  ><rect class="Icon" transform="matrix(.98765 0 0 .95238 .49383 .47619)" width="80" height="20" fill="#fff" stroke="#000"/><text class="Text" transform="translate(40,13)"   font-size="10px"  text-anchor="middle"><tspan x="0" y="0">Mapk1</tspan></text></a><a  class="GeneProduct P594_ENSMUSG00000063065 " transform="translate(8,28)"   name="Mapk3"  ><rect class="Icon" transform="matrix(.98765 0 0 .95238 .49383 .47619)" width="80" height="20" fill="#fff" stroke="#000"/><text class="Text" transform="translate(40,13)"   font-size="10px"  text-anchor="middle"><tspan x="0" y="0">Mapk3</tspan></text></a></g><g class="GroupGroup" transform="translate(337,279)" color="grey" ><use class="Icon" width="96" height="56" fill="transparent"  stroke="grey" stroke-dasharray="5,3" stroke-width="0" xlink:href="#c"/><a  class="GeneProduct P594_ENSMUSG00000052837 " transform="translate(8,28)"   name="Junb"  ><rect class="Icon" transform="matrix(.98765 0 0 .95238 .49383 .47619)" width="80" height="20" fill="#fff" stroke="#000"/><text class="Text" transform="translate(40,13)"   font-size="10px"  text-anchor="middle"><tspan x="0" y="0">Junb</tspan></text></a><a  class="GeneProduct P594_ENSMUSG00000052684 " transform="translate(8,8)"   name="Jun"  ><rect class="Icon" transform="matrix(.98765 0 0 .95238 .49383 .47619)" width="80" height="20" fill="#fff" stroke="#000"/><text class="Text" transform="translate(40,13)"   font-size="10px"  text-anchor="middle"><tspan x="0" y="0">Jun</tspan></text></a></g><g class="GroupGroup" transform="translate(138,121)" color="grey" ><use class="Icon" width="96" height="96" fill="transparent"  stroke="grey" stroke-dasharray="5,3" stroke-width="0" xlink:href="#c"/><a  class="GeneProduct P594_ENSMUSG00000030265 " transform="translate(8,8)"   name="Kras"  ><rect class="Icon" transform="matrix(.98765 0 0 .95238 .49383 .47619)" width="80" height="20" fill="#fff" stroke="#000"/><text class="Text" transform="translate(40,13)"   font-size="10px"  text-anchor="middle"><tspan x="0" y="0">Kras</tspan></text></a><a  class="GeneProduct P594_ENSMUSG00000038387 " transform="translate(8,48)"   name="Rras"  ><rect class="Icon" transform="matrix(.98765 0 0 .95238 .49383 .47619)" width="80" height="20" fill="#fff" stroke="#000"/><text class="Text" transform="translate(40,13)"   font-size="10px"  text-anchor="middle"><tspan x="0" y="0">Rras</tspan></text></a><a  class="GeneProduct P594_ENSMUSG00000027852 " transform="translate(8,28)"   name="Nras"  ><rect class="Icon" transform="matrix(.98765 0 0 .95238 .49383 .47619)" width="80" height="20" fill="#fff" stroke="#000"/><text class="Text" transform="translate(40,13)"   font-size="10px"  text-anchor="middle"><tspan x="0" y="0">Nras</tspan></text></a><a  class="GeneProduct P594_ENSMUSG00000025499 " transform="translate(8,68)"   name="Hras"  ><rect class="Icon" transform="matrix(.98765 0 0 .95238 .49383 .47619)" width="80" height="20" fill="#fff" stroke="#000"/><text class="Text" transform="translate(40,13)"   font-size="10px"  text-anchor="middle"><tspan x="0" y="0">Hras</tspan></text></a></g><g class="GroupGroup" transform="translate(138,240)" color="grey" ><use class="Icon" width="96" height="76" fill="transparent"  stroke="grey" stroke-dasharray="5,3" stroke-width="0" xlink:href="#c"/><a  class="GeneProduct P594_ENSMUSG00000000441 " transform="translate(8,8)"   name="Raf1"  ><rect class="Icon" transform="matrix(.98765 0 0 .95238 .49383 .47619)" width="80" height="20" fill="#fff" stroke="#000"/><text class="Text" transform="translate(40,13)"   font-size="10px"  text-anchor="middle"><tspan x="0" y="0">Raf1</tspan></text></a><a  class="GeneProduct P594_ENSMUSG00000001127 " transform="translate(8,28)"   name="Araf"  ><rect class="Icon" transform="matrix(.98765 0 0 .95238 .49383 .47619)" width="80" height="20" fill="#fff" stroke="#000"/><text class="Text" transform="translate(40,13)"   font-size="10px"  text-anchor="middle"><tspan x="0" y="0">Araf</tspan></text></a><a  class="GeneProduct P594_ENSMUSG00000002413 " transform="translate(8,48)"   name="Braf"  ><rect class="Icon" transform="matrix(.98765 0 0 .95238 .49383 .47619)" width="80" height="20" fill="#fff" stroke="#000"/><text class="Text" transform="translate(40,13)"   font-size="10px"  text-anchor="middle"><tspan x="0" y="0">Braf</tspan></text></a></g><text class="Text" transform="translate(5,27)" dominant-baseline="central" fill="black"  font-size="12px" font-weight="bold" overflow="visible" ><tspan x="0" y="-9">Name: Novel Jun-Dmp1 pathway</tspan> <tspan x="0" y="9">Organism: Mus musculus</tspan></text></g></svg>
