<?xml version="1.0" encoding="UTF-8"?>
<!--
  WikiPathways page: https://www.wikipathways.org/index.php/Pathway:WP3644
  URL for this compressed file: https://github.com/eweitz/cachome/tree/main/data/wikipathways/WP3644.svg
  Source code for compression: https://github.com/eweitz/cachome/tree/main/src/wikipathways.py
-->
<svg class="Diagram" width="800" height="600" color="black" baseProfile="full" prefix="schema:http://schema.org/" preserveAspectRatio="xMidYMid" version="1.1" viewBox="0 0 1390 770" vocab="http://vocabularies.wikipathways.org/wp#" xmlns="http://www.w3.org/2000/svg" xmlns:xlink="http://www.w3.org/1999/xlink"><style>svg {font-family: 'Liberation Sans', Arial, sans-serif; }</style><defs><filter id="f" x="-50%" y="-50%" width="200%" height="200%"><feComposite in="SourceGraphic" in2="SourceGraphic" result="doubleDark"/><feMorphology in="doubleDark" operator="dilate" radius="0.16666666666666666" result="in2Double"/><feMorphology in="SourceGraphic" operator="dilate" radius="3" result="inDouble"/><feComposite in="inDouble" in2="in2Double" operator="out" result="doubleResult"/></filter><filter id="a" x="0" y="0" width="1390" height="770" filterUnits="userSpaceOnUse"><feColorMatrix in="SourceGraphic" values="-1   0   0 0 0                   0  -1   0 0 0                   0   0  -1 0 0                   0   0   0 1 0"/></filter><marker id="e" stroke-dasharray="99999" markerHeight="12" markerUnits="userSpaceOnUse" markerWidth="12" orient="auto" preserveAspectRatio="none" refY="6" viewBox="0 0 12 12"><path d="M12 11L0 6l12-5z" fill="currentColor" stroke-width="0"/></marker><marker id="b" stroke-dasharray="99999" markerHeight="12" markerUnits="userSpaceOnUse" markerWidth="12" orient="auto" preserveAspectRatio="none" refX="12" refY="6" viewBox="0 0 12 12"><path transform="rotate(180 6 6)" d="M12 11L0 6l12-5z" fill="currentColor" stroke-width="0"/></marker><marker id="d" stroke-dasharray="99999" markerHeight="12" markerUnits="userSpaceOnUse" markerWidth="12" orient="auto" preserveAspectRatio="none" refX="12" refY="6" viewBox="0 0 12 12"><circle transform="rotate(180 6 6)" cx="6" cy="6" r="5.3" fill="none" stroke="#000"/></marker><symbol id="h" overflow="visible" preserveAspectRatio="none" viewBox="0 0 50 50"><ellipse cx="25" cy="25" rx="25" ry="25" stroke="currentColor" vector-effect="non-scaling-stroke"/></symbol><symbol id="g" overflow="visible" preserveAspectRatio="none" viewBox="0 0 100 100"><ellipse cx="50" cy="50" rx="50" ry="50" stroke="currentColor"/><path d="M14.895 26.347c4.364-.741 3.827 17.037 8.183 16.184 8.273.03 2.982-28.149 9.9-28.337 6.967-.187 2.246 29.948 9.204 29.44 7.633-.56.508-32.935 8.137-33.623 7.698-.689 2.919 32.04 10.628 32.225 6.547.16 3.026-27.643 9.56-26.921 7.193.793.665 29.842 7.782 31.667 4.748 1.216 4.42-18.258 9.204-17.44 11.129 7.577 8.628 37.698-2.18 44.644-3.138.699-3.966-10.502-7.113-9.905-5.59 1.059-3.982 22.284-9.603 21.8-5.24-.457-2.226-21.637-7.47-21.73-6.962-.117-3.358 28.924-10.317 28.495-6.14-.376-1.73-24.95-7.825-26.192-5.682-1.157-5.378 22.17-11.027 20.68-6.25-1.644-.47-26.673-6.76-27.865-3.728-.706-2.647 14.4-6.403 14.545-14.016-5.939-15.749-39.708-3.9-47.667z" stroke="currentColor" vector-effect="non-scaling-stroke"/></symbol><symbol id="c" preserveAspectRatio="none" viewBox="0 0 100 100"/></defs><g class="Viewport" color="black"  name="Name: NAD+ metabolism Organism: Homo sapiens"><rect class="Icon" width="1390" height="770" fill="#fff" stroke="#000" stroke-width="0"/><g class="SingleFreeNode Shape PhysicalEntity CellularComponent Cell" transform="translate(28.5 142.62)" color="#c0c0c0" ><g fill="transparent"  filter="url(#f)" stroke="#c0c0c0" stroke-width="3"><rect class="Icon" transform="matrix(.99108 0 0 .98036 5.9465 5.8821)" width="1333" height="598.88" rx="15" ry="15"   /></g></g><g class="SingleFreeNode Shape PhysicalEntity CellularComponent Mitochondria" transform="translate(57 223.64)" color="#c0c0c0"  name="Mitochondria"><use class="Icon" transform="matrix(.99371 0 0 .99284 1.4906 1.4893)" width="474" height="416" fill="#fff" stroke="#c0c0c0" stroke-width="3" xlink:href="#g"/><text class="Text" transform="translate(237 19.7)" fill="#c0c0c0"  font-size="14px" font-weight="bold" stroke="black" stroke-width="0" text-anchor="middle"><tspan x="0" y="0">Mitochondria</tspan></text></g><g id="i" class="DirectedInteraction" color="#000" ><g color="#000" fill="transparent"  filter="url(#a)" stroke="#000" stroke-dasharray="5.33, 3.2, 5.33, 3.2, 5.33, 3.2, 5.33, 3.2, 5.33, 3.2, 5.33, 3.2, 5.33, 3.2, 5.33, 3.2, 5.33, 5.8"><path class="EdgeBody" d="m127.52 442.15v-25.055h54.304"   marker-end="url(#b)" /></g><g class="Burr Anchor" transform="translate(127.52 424.77)" ><use class="Icon" width="0" height="0" fill="#141414" stroke-width="0" xlink:href="#c"/></g></g><g id="j" class="DirectedInteraction" color="#000" ><g color="#000" fill="transparent"  filter="url(#a)" stroke="#000" stroke-dasharray="117.24520396912904, 5.8"><path class="EdgeBody" d="m752.05 396.99h-123.05"   marker-end="url(#b)" /></g><g class="Burr Anchor" transform="translate(681.87 396.99)" ><use class="Icon" width="0" height="0" fill="#141414" stroke-width="0" xlink:href="#c"/></g></g><g id="k" class="DirectedInteraction" color="#000" ><g color="#000" fill="transparent"  filter="url(#a)" stroke="#000" stroke-dasharray="251.0980252840805, 5.8"><path class="EdgeBody" d="m1280.6 619.47v-90.383h-166.52"   marker-end="url(#b)" /></g><g class="Burr Anchor" transform="translate(1218 529.09)" ><use class="Icon" width="0" height="0" fill="#141414" stroke-width="0" xlink:href="#c"/></g></g><g id="l" class="Interaction" color="#000" ><g color="#000" fill="transparent"  filter="url(#a)" stroke="#000" stroke-dasharray="20.868146933336472, 11"><path class="EdgeBody" d="m932.98 249.47-27.021-16.895"   marker-end="url(#d)" /></g></g><g id="m" class="Interaction" color="#000" ><g color="#000" fill="transparent"  filter="url(#a)" stroke="#000" stroke-dasharray="30.36636085703011, 11"><path class="EdgeBody" d="m246.5 442.11-41.366 0.10576"   marker-end="url(#d)" /></g></g><g id="n" class="Interaction" color="#000" ><g color="#000" fill="transparent"  filter="url(#a)" stroke="#000" stroke-dasharray="70.16380932995325, 0"><path class="EdgeBody" d="m653 346v8.5c0 8.5 0 25.5 4.8115 34 4.8115 8.5 14.435 8.5 19.246 8.4983 4.8115-0.0016538 4.8115-0.0049614 4.8115-0.0066152v-0.0016538"   /></g></g><g id="o" class="DirectedInteraction" color="#000" ><g color="#000" fill="transparent"  filter="url(#a)" stroke="#000" stroke-dasharray="128.76252438757018, 5.8"><path class="EdgeBody" d="m794.33 271.4h-18.976v115.59"   marker-end="url(#b)" /></g><g class="Burr Anchor" transform="translate(775.35 308.33)" ><use class="Icon" width="0" height="0" fill="#141414" stroke-width="0" xlink:href="#c"/></g></g><g id="p" class="DirectedInteraction" color="#000" ><g color="#000" fill="transparent"  filter="url(#a)" stroke="#000" stroke-dasharray="0, 5.8, 33.50033076075013, 5.8"><path class="EdgeBody" d="m1090.8 473.99v45.1"   marker-end="url(#b)" marker-start="url(#e)" /></g></g><g id="q" class="DirectedInteraction" color="#000" ><g color="#000" fill="transparent"  filter="url(#a)" stroke="#000" stroke-dasharray="72.81362332215527, 5.8"><path class="EdgeBody" d="m1090.8 539.09v78.614"   marker-end="url(#b)" /></g><g class="Burr Anchor" transform="translate(1090.8 577.29)" ><use class="Icon" width="0" height="0" fill="#141414" stroke-width="0" xlink:href="#c"/></g></g><g id="r" class="DirectedInteraction" color="#000" ><g color="#000" fill="transparent"  filter="url(#a)" stroke="#000" stroke-dasharray="53.24703829353361, 5.8"><path class="EdgeBody" d="m681.87 396.99v0.0016538c0 0.0016538 0 0.0049614 6.7505 0.0066152 6.7505 0.0016538 20.251 0.0016538 27.002 4.5017 6.7505 4.5 6.7505 13.5 6.7505 18l1e-13 4.5"   marker-end="url(#b)" /></g></g><g id="s" class="DirectedInteraction" color="#000" ><g color="#000" fill="transparent"  filter="url(#a)" stroke="#000" stroke-dasharray="69.76645020976802, 5.8"><path class="EdgeBody" d="m790.32 194.79 35.679 66.613"   marker-end="url(#b)" /></g><g class="Burr Anchor" transform="translate(812.63 236.46)" ><use class="Icon" width="0" height="0" fill="#141414" stroke-width="0" xlink:href="#c"/></g></g><g id="t" class="DirectedInteraction" color="#000" ><g color="#000" fill="transparent"  filter="url(#a)" stroke="#000" stroke-dasharray="5.16, 3.1, 5.16, 3.1, 5.16, 3.1, 5.16, 3.1, 5.16, 3.1, 5.16, 3.1, 5.16, 3.1, 5.16, 3.1, 5.16, 3.1, 5.16, 3.1, 5.16, 3.1, 5.16, 3.1, 5.16, 3.1, 5.16, 3.1, 5.16, 3.1, 5.16, 3.1, 5.16, 3.1, 0, 5.8"><path class="EdgeBody" d="m1051.9 627.7-143.14-0.35894"   marker-end="url(#b)" /></g></g><g id="u" class="DirectedInteraction" color="#000" ><g color="#000" fill="transparent"  filter="url(#a)" stroke="#000" stroke-dasharray="5.28, 3.17, 5.28, 3.17, 5.28, 3.17, 5.28, 3.17, 5.28, 3.17, 5.28, 3.17, 5.28, 3.17, 5.28, 3.17, 5.28, 3.17, 5.28, 3.17, 5.28, 3.17, 5.28, 3.17, 5.28, 3.17, 5.28, 3.17, 5.28, 3.17, 5.28, 3.17, 5.28, 3.17, 5.28, 5.8"><path class="EdgeBody" d="m1067.4 529.09h-154.66"   marker-end="url(#b)" /></g></g><g id="v" class="DirectedInteraction" color="#000" ><g color="#000" fill="transparent"  filter="url(#a)" stroke="#000" stroke-dasharray="0, 5.8, 29.116648291069534, 5.8"><path class="EdgeBody" d="m775.35 523.86 1e-13 40.717"   marker-end="url(#b)" marker-start="url(#e)" /></g></g><g id="w" class="DirectedInteraction" color="#000" ><g color="#000" fill="transparent"  filter="url(#a)" stroke="#000" stroke-dasharray="101.65865490628434, 5.8"><path class="EdgeBody" d="m524.21 115.95v107.46"   marker-end="url(#b)" /></g></g><g id="x" class="DirectedInteraction" color="#000" ><g color="#000" fill="transparent"  filter="url(#a)" stroke="#000" stroke-dasharray="50.733057640452145, 5.8"><path class="EdgeBody" d="m957.36 125.36v56.533"   marker-end="url(#b)" /></g></g><g id="y" class="DirectedInteraction" color="#000" ><g color="#000" fill="transparent"  filter="url(#a)" stroke="#000" stroke-dasharray="36.53138206388708, 5.8"><path class="EdgeBody" d="m205.13 427.09-4e-14 42.331"   marker-end="url(#b)" /></g><g class="Burr Anchor" transform="translate(205.13 442.21)" ><use class="Icon" width="0" height="0" fill="#141414" stroke-width="0" xlink:href="#c"/></g></g><g id="z" class="DirectedInteraction" color="#000" ><g color="#000" fill="transparent"  filter="url(#a)" stroke="#000" stroke-dasharray="110.30959849627577, 5.8"><path class="EdgeBody" d="m957.36 201.89-99.699 59.51"   marker-end="url(#b)" /></g><g class="Burr Anchor" transform="translate(905.96 232.58)" ><use class="Icon" width="0" height="0" fill="#141414" stroke-width="0" xlink:href="#c"/></g></g><g id="aa" class="Interaction" color="#000" ><g color="#000" fill="transparent"  filter="url(#a)" stroke="#000" stroke-dasharray="5.4300353501235925, 11"><path class="EdgeBody" d="m860.59 380.57 0.5862 16.42"   marker-end="url(#d)" /></g></g><g id="ab" class="DirectedInteraction" color="#000" ><g color="#000" fill="transparent"  filter="url(#a)" stroke="#000" stroke-dasharray="0, 5.8, 41.017455978719966, 5.8"><path class="EdgeBody" d="m205.73 354.48-0.59316 52.614"   marker-end="url(#b)" marker-start="url(#e)" /></g><g class="Burr Anchor" transform="translate(205.49 375.4)" ><use class="Icon" width="0" height="0" fill="#141414" stroke-width="0" xlink:href="#c"/></g></g><g id="ac" class="Interaction" color="#000" ><g color="#000" fill="transparent"  filter="url(#a)" stroke="#000" stroke-dasharray="8.425599460892897, 11"><path class="EdgeBody" d="m169.47 516.38-1.3392-19.379"   marker-end="url(#d)" /></g></g><g id="ad" class="DirectedInteraction" color="#000" ><g color="#000" fill="transparent"  filter="url(#a)" stroke="#000" stroke-dasharray="39.73197856143657, 5.8"><path class="EdgeBody" d="m564.57 233.4 45.532 0.15662"   marker-end="url(#b)" /></g></g><g id="ae" class="DirectedInteraction" color="#000" ><g color="#000" fill="transparent"  filter="url(#a)" stroke="#000" stroke-dasharray="66.60022050716721, 5.8"><path class="EdgeBody" d="m1087.9 42.316h-72.4"   marker-end="url(#b)" /></g><g class="Burr Anchor" transform="translate(1050.7 42.316)" ><use class="Icon" width="0" height="0" fill="#141414" stroke-width="0" xlink:href="#c"/></g></g><g id="af" class="DirectedInteraction" color="#000" ><g color="#000" fill="transparent"  filter="url(#a)" stroke="#000" stroke-dasharray="77.39407223003546, 5.8"><path class="EdgeBody" d="m583.63 396.99h-3.3333c-3.3333 0-10 0-13.333-8.8751-3.3333-8.8751-3.3333-26.625-7.8822-35.501-4.5488-8.8751-13.646-8.8751-18.195-8.8751l-4.5488 4e-14"   marker-end="url(#b)" /></g></g><g id="ag" class="DirectedInteraction" color="#000" ><g color="#000" fill="transparent"  filter="url(#a)" stroke="#000" stroke-dasharray="0, 5.8, 27.893098878412832, 5.8"><path class="EdgeBody" d="m205.49 375.4-39.491-0.39944"   marker-end="url(#b)" marker-start="url(#e)" /></g></g><g id="ah" class="Interaction" color="#000" ><g color="#000" fill="transparent"  filter="url(#a)" stroke="#000" stroke-dasharray="6.417835175124736, 11"><path class="EdgeBody" d="m860.67 414.4 0.50902-17.41"   marker-end="url(#d)" /></g></g><g id="ai" class="Interaction" color="#000" ><g color="#000" fill="transparent"  filter="url(#a)" stroke="#000" stroke-dasharray="16.277742815714277, 11"><path class="EdgeBody" d="m1063.5 576.5 27.266 0.78679"   marker-end="url(#d)" /></g></g><g id="aj" class="DirectedInteraction" color="#000" ><g color="#000" fill="transparent"  filter="url(#a)" stroke="#000" stroke-dasharray="38.68792333484106, 5.8"><path class="EdgeBody" d="m790.62 51.049-0.23153 44.487"   marker-end="url(#b)" /></g><g class="Burr Anchor" transform="translate(790.53 68.843)" ><use class="Icon" width="0" height="0" fill="#141414" stroke-width="0" xlink:href="#c"/></g></g><g id="ak" class="DirectedInteraction" color="#000" ><g color="#000" fill="transparent"  filter="url(#a)" stroke="#000" stroke-dasharray="53.454727791141984, 5.8"><path class="EdgeBody" d="m790.39 115.54-0.070562 59.255"   marker-end="url(#b)" /></g></g><g id="al" class="DirectedInteraction" color="#000" ><g color="#000" fill="transparent"  filter="url(#a)" stroke="#000" stroke-dasharray="174.1146319617197, 5.8"><path class="EdgeBody" d="m407.04 343.74-179.91-4e-14"   marker-end="url(#b)" /></g></g><g id="am" class="Interaction" color="#000" ><g color="#000" fill="transparent"  filter="url(#a)" stroke="#000" stroke-dasharray="56.69329561528416, 0"><path class="EdgeBody" d="m643.97 424v-4.5c0-4.5 0-13.5 6.3168-18 6.3168-4.5 18.95-4.5 25.267-4.5017 6.3168-0.0016538 6.3168-0.0049614 6.3168-0.0066152v-0.0016538"   /></g></g><g id="an" class="DirectedInteraction" color="#000" ><g color="#000" fill="transparent"  filter="url(#a)" stroke="#000" stroke-dasharray="91.06879823594268, 5.8"><path class="EdgeBody" d="m775.35 406.99v96.869"   marker-end="url(#b)" /></g><g class="Burr Anchor" transform="translate(775.35 474.16)" ><use class="Icon" width="0" height="0" fill="#141414" stroke-width="0" xlink:href="#c"/></g></g><g id="ao" class="Interaction" color="#000" ><g color="#000" fill="transparent"  filter="url(#a)" stroke="#000" stroke-dasharray="55.689786866327125, 11"><path class="EdgeBody" d="m1024.1 77.228-66.688 0.54687"   marker-end="url(#d)" /></g></g><g id="ap" class="DirectedInteraction" color="#000" ><g color="#000" fill="transparent"  filter="url(#a)" stroke="#000" stroke-dasharray="86.3485238902281, 5.8"><path class="EdgeBody" d="m360.69 474.33h-4.6155c-4.6155 0-13.847 0-18.462-9.5556-4.6155-9.5556-4.6155-28.667-0.11538-38.222 4.5002-9.5556 13.5-9.5556 18.001-9.5556h4.5002"   marker-end="url(#b)" /></g></g><g id="aq" class="DirectedInteraction" color="#000" ><g color="#000" fill="transparent"  filter="url(#a)" stroke="#000" stroke-dasharray="120.74685777287728, 5.8"><path class="EdgeBody" d="m798.66 396.99h126.55"   marker-end="url(#b)" /></g><g class="Burr Anchor" transform="translate(861.18 396.99)" ><use class="Icon" width="0" height="0" fill="#141414" stroke-width="0" xlink:href="#c"/></g></g><g id="ar" class="Interaction" color="#000" ><g color="#000" fill="transparent"  filter="url(#a)" stroke="#000" stroke-dasharray="13.83867152896245, 11"><path class="EdgeBody" d="m1217.5 504.26 0.51259 24.833"   marker-end="url(#d)" /></g></g><g id="as" class="Interaction" color="#000" ><g color="#000" fill="transparent"  filter="url(#a)" stroke="#000" stroke-dasharray="13.208213926038802, 11"><path class="EdgeBody" d="m1115 576.61-24.199 0.68205"   marker-end="url(#d)" /></g></g><g id="at" class="DirectedInteraction" color="#000" ><g color="#000" fill="transparent"  filter="url(#a)" stroke="#000" stroke-dasharray="257.61959208345166, 5.8"><path class="EdgeBody" d="m1090.8 637.7v37.683h189.82v-35.914"   marker-end="url(#b)" /></g><g class="Burr Anchor" transform="translate(1179.7 675.39)" ><use class="Icon" width="0" height="0" fill="#141414" stroke-width="0" xlink:href="#c"/></g></g><g id="au" class="DirectedInteraction" color="#000" ><g color="#000" fill="transparent"  filter="url(#a)" stroke="#000" stroke-dasharray="206.0893918214909, 5.8"><path class="EdgeBody" d="m658.78 248.36-1e-13 24.772c1e-13 24.772 1e-13 74.316 15.543 99.087s46.63 24.772 62.174 24.772h15.543"   marker-end="url(#b)" /></g></g><g id="av" class="DirectedInteraction" color="#000" ><g color="#000" fill="transparent"  filter="url(#a)" stroke="#000" stroke-dasharray="81.15940758288755, 5.8"><path class="EdgeBody" d="m681.87 396.99v0.0016538c0 0.0016538 0 0.0049614-8.1448 0.0066152-8.1448 0.0016538-24.435 0.0016538-32.579-8.4983s-8.1448-25.5-8.1448-34v-8.5"   marker-end="url(#b)" /></g></g><g id="aw" class="Interaction" color="#000" ><g color="#000" fill="transparent"  filter="url(#a)" stroke="#000" stroke-dasharray="10.859019827622337, 11"><path class="EdgeBody" d="m753.49 474.08 21.859 0.076962"   marker-end="url(#d)" /></g></g><g id="ax" class="Interaction" color="#000" ><g color="#000" fill="transparent"  filter="url(#a)" stroke="#000" stroke-dasharray="12.426870828707706, 11"><path class="EdgeBody" d="m1051.6 65.728-0.83817-23.412"   marker-end="url(#d)" /></g></g><g id="ay" class="Interaction" color="#000" ><g color="#000" fill="transparent"  filter="url(#a)" stroke="#000" stroke-dasharray="16.4366118150752, 0"><path class="EdgeBody" d="m893.9 221.4 12.055 11.173"   /></g></g><g id="az" class="Interaction" color="#000" ><g color="#000" fill="transparent"  filter="url(#a)" stroke="#000" stroke-dasharray="32.261438505364474, 11"><path class="EdgeBody" d="m833.78 68.183-43.256 0.66001"   marker-end="url(#d)" /></g></g><g id="ba" class="DirectedInteraction" color="#000" ><g color="#000" fill="transparent"  filter="url(#a)" stroke="#000" stroke-dasharray="5.21, 3.13, 5.21, 3.13, 5.21, 3.13, 5.21, 3.13, 5.21, 3.13, 5.21, 3.13, 5.21, 3.13, 5.21, 3.13, 5.21, 3.13, 5.21, 3.13, 5.21, 3.13, 5.21, 5.8"><path class="EdgeBody" d="m1058.6 463.99h-102.74"   marker-end="url(#b)" /></g></g><g id="bb" class="Interaction" color="#000" ><g color="#000" fill="transparent"  filter="url(#a)" stroke="#000" stroke-dasharray="26.08108733801248, 11"><path class="EdgeBody" d="m101.56 413.65v11.12h25.961"   marker-end="url(#d)" /></g></g><g id="bc" class="DirectedInteraction" color="#000" ><g color="#000" fill="transparent"  filter="url(#a)" stroke="#000" stroke-dasharray="5.23, 3.14, 5.23, 3.14, 5.23, 3.14, 5.23, 3.14, 5.23, 3.14, 5.23, 3.14, 5.23, 3.14, 5.23, 3.14, 5.23, 3.14, 5.23, 3.14, 5.23, 3.14, 5.23, 3.14, 5.23, 5.8"><path class="EdgeBody" d="m205.13 489.42v7.576h-77.611v-26.256"   marker-end="url(#b)" /></g><g class="Burr Anchor" transform="translate(168.13 497)" ><use class="Icon" width="0" height="0" fill="#141414" stroke-width="0" xlink:href="#c"/></g></g><g id="bd" class="DirectedInteraction" color="#000" ><g color="#000" fill="transparent"  filter="url(#a)" stroke="#000" stroke-dasharray="21.180138789183797, 5.8"><path class="EdgeBody" d="m434.67 474.33-26.98-1.1e-13"   marker-end="url(#b)" /></g></g><g id="be" class="Interaction" color="#000" ><g color="#000" fill="transparent"  filter="url(#a)" stroke="#000" stroke-dasharray="12.88480902148346, 11"><path class="EdgeBody" d="m985.49 324.26-23.884 0.24939"   marker-end="url(#d)" /></g></g><g id="bf" class="DirectedInteraction" color="#000" ><g color="#000" fill="transparent"  filter="url(#a)" stroke="#000" stroke-dasharray="47.24367437260359, 5.8"><path class="EdgeBody" d="m957.36 52.316v53.044"   marker-end="url(#b)" /></g><g class="Burr Anchor" transform="translate(957.36 77.775)" ><use class="Icon" width="0" height="0" fill="#141414" stroke-width="0" xlink:href="#c"/></g></g><g id="bg" class="Interaction" color="#000" ><g color="#000" fill="transparent"  filter="url(#a)" stroke="#000" stroke-dasharray="13.739958802437222, 11"><path class="EdgeBody" d="m800.09 307.96-24.737 0.36454"   marker-end="url(#d)" /></g></g><g id="bh" class="DirectedInteraction" color="#000" ><g color="#000" fill="transparent"  filter="url(#a)" stroke="#000" stroke-dasharray="49.40410478235511, 5.8"><path class="EdgeBody" d="m658.83 115.95-0.12238 55.204"   marker-end="url(#b)" /></g></g><g id="bi" class="DirectedInteraction" color="#000" ><g color="#000" fill="transparent"  filter="url(#a)" stroke="#000" stroke-dasharray="93.13754716986138, 5.8"><path class="EdgeBody" d="m583.63 396.99h-3.3333c-3.3333 0-10 0-13.333 12.891s-3.3333 38.672-6.5446 51.562c-3.2112 12.891-9.6337 12.891-12.845 12.891l-3.2112 7e-14"   marker-end="url(#b)" /></g></g><g id="bj" class="DirectedInteraction" color="#000" ><g color="#000" fill="transparent"  filter="url(#a)" stroke="#000" stroke-dasharray="150.39018743109165, 5.8"><path class="EdgeBody" d="m961.6 386.99v-115.59h-40.604"   marker-end="url(#b)" /></g><g class="Burr Anchor" transform="translate(961.6 324.51)" ><use class="Icon" width="0" height="0" fill="#141414" stroke-width="0" xlink:href="#c"/></g></g><g id="bk" class="Interaction" color="#000" ><g color="#000" fill="transparent"  filter="url(#a)" stroke="#000" stroke-dasharray="16.593415644838547, 0"><path class="EdgeBody" d="m799 227 13.635 9.457"   /></g></g><g id="bl" class="Interaction" color="#000" ><g color="#000" fill="transparent"  filter="url(#a)" stroke="#000" stroke-dasharray="13.374341483902057, 11"><path class="EdgeBody" d="m1179.2 651.02 0.49053 24.369"   marker-end="url(#d)" /></g></g><g class="SingleFreeNode Shape PhysicalEntity CellularComponent Nucleus" transform="translate(931.5,421.5)" color="#c0c0c0"  name="Nucleus"><g fill="transparent"  filter="url(#f)" stroke="#c0c0c0" stroke-width="3"><use class="Icon" transform="matrix(.97209 0 0 .96215 5.8326 5.7729)" width="418" height="305"    xlink:href="#h"/></g><text class="Text" transform="translate(209 19.7)" fill="#c0c0c0"  font-size="14px" font-weight="bold" stroke="black" stroke-width="0" text-anchor="middle"><tspan x="0" y="0">Nucleus</tspan></text></g><g class="Label" transform="translate(235.82 487.58)" color="#000"  name="Electron transport  chain"><use class="Icon" width="132.80617372577186" height="36.5" fill="transparent"  stroke="#000" stroke-width="0" xlink:href="#c"/><text class="Text" transform="translate(66.403 22.25)"   font-size="12px" font-weight="bold"  text-anchor="middle"><tspan x="0" y="-6.6000000000000005">Electron transport </tspan> <tspan x="0" y="6.6000000000000005">chain</tspan></text></g><a  class="GeneProduct NT5E " transform="translate(1024.1 65.728)"   name="CD73"  ><rect class="Icon" transform="matrix(.98214 0 0 .95833 .49107 .47917)" width="55" height="23" fill="#fff" stroke="#000"/><text class="Text" transform="translate(27.5,14.5)"   font-size="10px"  text-anchor="middle"><tspan x="0" y="0">CD73</tspan></text></a><a class="Metabolite ChEBI_CHEBI_17111  " transform="translate(759,217)" color="#4646dc"  name="PRPP"  ><rect class="Icon" transform="matrix(.97561 0 0 .95238 .4878 .47619)" width="40" height="20" rx="15" ry="15" fill="#fff" stroke="#4646dc"/><text class="Text" transform="translate(20,13)" fill="#4646dc"  font-size="10px"  text-anchor="middle"><tspan x="0" y="0">PRPP</tspan></text></a><a class="Metabolite ChEBI_CHEBI_16284  " transform="translate(857 211.4)" color="#4646dc"  name="dATP"  ><rect class="Icon" transform="matrix(.97362 0 0 .95238 .48681 .47619)" width="36.902" height="20" rx="15" ry="15" fill="#fff" stroke="#4646dc"/><text class="Text" transform="translate(18.451 13)" fill="#4646dc"  font-size="10px"  text-anchor="middle"><tspan x="0" y="0">dATP</tspan></text></a><a class="Metabolite ChEBI_CHEBI_16828  " transform="translate(483.84 95.946)" color="#4646dc"  name="L-Tryptophan"  ><rect class="Icon" transform="matrix(.98776 0 0 .95238 .49388 .47619)" width="80.731" height="20" rx="15" ry="15" fill="#fff" stroke="#4646dc"/><text class="Text" transform="translate(40.365 13)" fill="#4646dc"  font-size="10px"  text-anchor="middle"><tspan x="0" y="0">L-Tryptophan</tspan></text></a><g class="GroupGroup" transform="translate(822.67 324.57)" color="grey" ><use class="Icon" width="75.84564498346231" height="55.99999999999994" fill="transparent"  stroke="grey" stroke-dasharray="5,3" stroke-width="0" xlink:href="#c"/><g class="GeneProduct" transform="translate(8,8)" color="#000"  name="ART"><rect class="Icon" transform="matrix(.98356 0 0 .95238 .49178 .47619)" width="59.846" height="20" fill="transparent"  stroke="#000"/><text class="Text" transform="translate(29.923 13)"   font-size="10px"  text-anchor="middle"><tspan x="0" y="0">ART</tspan></text></g><a  class="GeneProduct PARP1 " transform="translate(8 28)"   name="PARP1"  ><rect class="Icon" transform="matrix(.98356 0 0 .95238 .49178 .47619)" width="59.846" height="20" fill="#fff" stroke="#000"/><text class="Text" transform="translate(29.923 13)"   font-size="10px"  text-anchor="middle"><tspan x="0" y="0">PARP1</tspan></text></a></g><a  class="GeneProduct NADK " transform="translate(696.09 464.08)"   name="NADK"  ><rect class="Icon" transform="matrix(.98288 0 0 .95238 .49144 .47619)" width="57.404" height="20" fill="#fff" stroke="#000"/><text class="Text" transform="translate(28.702 13)"   font-size="10px"  text-anchor="middle"><tspan x="0" y="0">NADK</tspan></text></a><a  class="GeneProduct NMNAT1 " transform="translate(1187.6 484.26)"   name="NMNAT1"  ><rect class="Icon" transform="matrix(.98356 0 0 .95238 .49178 .47619)" width="59.846" height="20" fill="#fff" stroke="#000"/><text class="Text" transform="translate(29.923 13)"   font-size="10px"  text-anchor="middle"><tspan x="0" y="0">NMNAT1</tspan></text></a><a  class="GeneProduct NAMPT " transform="translate(985.49 314.26)"   name="NAMPT"  ><rect class="Icon" transform="matrix(.98228 0 0 .95238 .49114 .47619)" width="55.436" height="20" fill="#fff" stroke="#000"/><text class="Text" transform="translate(27.718 13)"   font-size="10px"  text-anchor="middle"><tspan x="0" y="0">NAMPT</tspan></text></a><a class="Metabolite ChEBI_CHEBI_44409  " transform="translate(746.53 503.86)" color="#4646dc"  name="NADP"  ><rect class="Icon" transform="matrix(.98295 0 0 .95238 .49147 .47619)" width="57.641" height="20" rx="15" ry="15" fill="#fff" stroke="#4646dc"/><text class="Text" transform="translate(28.82 13)" fill="#4646dc"  font-size="10px"  text-anchor="middle"><tspan x="0" y="0">NADP</tspan></text></a><a class="WikiPathways_WP534 Pathway " transform="translate(593,326)" color="#14961e"  name="Glycolysis"  ><rect class="Icon" transform="matrix(.98765 0 0 .95238 .49383 .47619)" width="80" height="20" rx="15" ry="15" fill="#fff" stroke="#14961e" stroke-dasharray="5,3"/><text class="Text" transform="translate(40,14)" fill="#14961e"  font-size="12px" font-weight="bold" stroke="black" stroke-width="0" text-anchor="middle"><tspan x="0" y="0">Glycolysis</tspan></text></a><a class="Chemspider_13553 Metabolite ChEBI_CHEBI_16171  " transform="translate(794.33 261.4)" color="#4646dc"  name="Nicotinamide ribotide"  ><rect class="Icon" transform="matrix(.99217 0 0 .95238 .49608 .47619)" width="126.67" height="20" rx="15" ry="15" fill="#fff" stroke="#4646dc"/><text class="Text" transform="translate(63.336 13)" fill="#4646dc"  font-size="10px"  text-anchor="middle"><tspan x="0" y="0">Nicotinamide ribotide</tspan></text></a><a  class="GeneProduct NMNAT2 " transform="translate(800.09 297.96)"   name="NMNAT2"  ><rect class="Icon" transform="matrix(.98386 0 0 .95238 .49193 .47619)" width="60.948" height="20" fill="#fff" stroke="#000"/><text class="Text" transform="translate(30.474 13)"   font-size="10px"  text-anchor="middle"><tspan x="0" y="0">NMNAT2</tspan></text></a><a class="Metabolite ChEBI_CHEBI_44215  " transform="translate(767.31 31.049)" color="#4646dc"  name="NAD"  ><rect class="Icon" transform="matrix(.979 0 0 .95238 .4895 .47619)" width="46.615" height="20" rx="15" ry="15" fill="#fff" stroke="#4646dc"/><text class="Text" transform="translate(23.308 13)" fill="#4646dc"  font-size="10px"  text-anchor="middle"><tspan x="0" y="0">NAD</tspan></text></a><a  class="GeneProduct NMNAT3 " transform="translate(68.561 393.65)"   name="NMNAT3"  ><rect class="Icon" transform="matrix(.98507 0 0 .95238 .49254 .47619)" width="66" height="20" fill="#fff" stroke="#000"/><text class="Text" transform="translate(33,13)"   font-size="10px"  text-anchor="middle"><tspan x="0" y="0">NMNAT3</tspan></text></a><a class="Metabolite ChEBI_CHEBI_17877  " transform="translate(360.69 464.33)" color="#4646dc"  name="FADH2"  ><rect class="Icon" transform="matrix(.97917 0 0 .95238 .48958 .47619)" width="47" height="20" rx="15" ry="15" fill="#fff" stroke="#4646dc"/><text class="Text" transform="translate(23.5,13)" fill="#4646dc"  font-size="10px"  text-anchor="middle"><tspan x="0" y="0">FADH2</tspan></text></a><a class="Metabolite ChEBI_CHEBI_16908  " transform="translate(583.63 386.99)" color="#4646dc"  name="NADH"  ><rect class="Icon" transform="matrix(.97844 0 0 .95238 .48922 .47619)" width="45.374" height="20" rx="15" ry="15" fill="#fff" stroke="#4646dc"/><text class="Text" transform="translate(22.687 13)" fill="#4646dc"  font-size="10px"  text-anchor="middle"><tspan x="0" y="0">NADH</tspan></text></a><a class="Metabolite ChEBI_CHEBI_15763  " transform="translate(610.1 218.76)" color="#4646dc"  name="Nicotinic acid  mononucleotide"  ><rect class="Icon" transform="matrix(.98983 0 0 .96732 .49492 .48366)" width="97.363" height="29.595" rx="15" ry="15" fill="#fff" stroke="#4646dc"/><text class="Text" transform="translate(48.681 17.798)" fill="#4646dc"  font-size="10px"  text-anchor="middle"><tspan x="0" y="-5.5">Nicotinic acid </tspan> <tspan x="0" y="5.5">mononucleotide</tspan></text></a><g class="WikiPathways_WP73 Pathway" transform="translate(76.454 365)" color="#14961e"  name="TCA Cycle"><rect class="Icon" transform="matrix(.98896 0 0 .95238 .49448 .47619)" width="89.546" height="20" rx="15" ry="15" fill="#fff" stroke="#14961e" stroke-dasharray="5,3"/><text class="Text" transform="translate(44.773 14)" fill="#14961e"  font-size="12px" font-weight="bold" stroke="black" stroke-width="0" text-anchor="middle"><tspan x="0" y="0">TCA Cycle</tspan></text></g><a class="Metabolite ChEBI_CHEBI_17877  " transform="translate(360 407)" color="#4646dc"  name="FADH"  ><rect class="Icon" transform="matrix(.97778 0 0 .95238 .48889 .47619)" width="44" height="20" rx="15" ry="15" fill="#fff" stroke="#4646dc"/><text class="Text" transform="translate(22,13)" fill="#4646dc"  font-size="10px"  text-anchor="middle"><tspan x="0" y="0">FADH</tspan></text></a><a class="Metabolite ChEBI_CHEBI_15927  " transform="translate(899.22 105.36)" color="#4646dc"  name="Nicotinamide riboside"  ><rect class="Icon" transform="matrix(.99147 0 0 .95238 .49574 .47619)" width="116.28" height="20" rx="15" ry="15" fill="#fff" stroke="#4646dc"/><text class="Text" transform="translate(58.142 13)" fill="#4646dc"  font-size="10px"  text-anchor="middle"><tspan x="0" y="0">Nicotinamide riboside</tspan></text></a><a class="Metabolite ChEBI_CHEBI_32816  " transform="translate(615.94 424)" color="#4646dc"  name="Pyruvate"  ><rect class="Icon" transform="matrix(.98248 0 0 .95238 .49124 .47619)" width="56.063" height="20" rx="15" ry="15" fill="#fff" stroke="#4646dc"/><text class="Text" transform="translate(28.032 13)" fill="#4646dc"  font-size="10px"  text-anchor="middle"><tspan x="0" y="0">Pyruvate</tspan></text></a><a  class="GeneProduct NRK " transform="translate(932.98 239.47)"   name="NRK"  ><rect class="Icon" transform="matrix(.98262 0 0 .95238 .49131 .47619)" width="56.538" height="20" fill="#fff" stroke="#000"/><text class="Text" transform="translate(28.269 13)"   font-size="10px"  text-anchor="middle"><tspan x="0" y="0">NRK</tspan></text></a><a  class="GeneProduct CD38 " transform="translate(833.78 56.682)"   name="CD38"  ><rect class="Icon" transform="matrix(.98156 0 0 .95834 .49078 .47917)" width="53.23" height="23.003" fill="#fff" stroke="#000"/><text class="Text" transform="translate(26.615 14.502)"   font-size="10px"  text-anchor="middle"><tspan x="0" y="0">CD38</tspan></text></a><a  class="GeneProduct NAMPT " transform="translate(146.47 516.38)"   name="NAMPT"  ><rect class="Icon" transform="matrix(.97872 0 0 .95238 .48936 .47619)" width="46" height="20" fill="#fff" stroke="#000"/><text class="Text" transform="translate(23,13)"   font-size="10px"  text-anchor="middle"><tspan x="0" y="0">NAMPT</tspan></text></a><a class="Metabolite ChEBI_CHEBI_15940  " transform="translate(620 95.946)" color="#4646dc"  name="Nicotinic acid"  ><rect class="Icon" transform="matrix(.98729 0 0 .95238 .49364 .47619)" width="77.652" height="20" rx="15" ry="15" fill="#fff" stroke="#4646dc"/><text class="Text" transform="translate(38.826 13)" fill="#4646dc"  font-size="10px"  text-anchor="middle"><tspan x="0" y="0">Nicotinic acid</tspan></text></a><a class="Metabolite ChEBI_CHEBI_16828  " transform="translate(483.84 223.4)" color="#4646dc"  name="L-Tryptophan"  ><rect class="Icon" transform="matrix(.98776 0 0 .95238 .49388 .47619)" width="80.731" height="20" rx="15" ry="15" fill="#fff" stroke="#4646dc"/><text class="Text" transform="translate(40.365 13)" fill="#4646dc"  font-size="10px"  text-anchor="middle"><tspan x="0" y="0">L-Tryptophan</tspan></text></a><a class="Metabolite ChEBI_CHEBI_17154  " transform="translate(753.71 95.536)" color="#4646dc"  name="Nicotinamide"  ><rect class="Icon" transform="matrix(.98655 0 0 .95238 .49328 .47619)" width="73.365" height="20" rx="15" ry="15" fill="#fff" stroke="#4646dc"/><text class="Text" transform="translate(36.682 13)" fill="#4646dc"  font-size="10px"  text-anchor="middle"><tspan x="0" y="0">Nicotinamide</tspan></text></a><a class="Metabolite ChEBI_CHEBI_15940  " transform="translate(618.7 171.15)" color="#4646dc"  name="Nicotinamide"  ><rect class="Icon" transform="matrix(.98765 0 0 .95238 .49383 .47619)" width="80" height="20" rx="15" ry="15" fill="#fff" stroke="#4646dc"/><text class="Text" transform="translate(40,13)" fill="#4646dc"  font-size="10px"  text-anchor="middle"><tspan x="0" y="0">Nicotinamide</tspan></text></a><a class="Metabolite ChEBI_CHEBI_17154  " transform="translate(753.64 174.79)" color="#4646dc"  name="Nicotinamide"  ><rect class="Icon" transform="matrix(.98655 0 0 .95238 .49328 .47619)" width="73.365" height="20" rx="15" ry="15" fill="#fff" stroke="#4646dc"/><text class="Text" transform="translate(36.682 13)" fill="#4646dc"  font-size="10px"  text-anchor="middle"><tspan x="0" y="0">Nicotinamide</tspan></text></a><g id="bm" class="DirectedInteraction" color="#000" ><g color="#000" fill="transparent"  filter="url(#a)" stroke="#000" stroke-dasharray="21.813742767021285, 5.8"><path class="EdgeBody" d="m658.7 191.15 0.08122 27.614"   marker-end="url(#b)" /></g></g><a class="Metabolite ChEBI_CHEBI_15927  " transform="translate(899.22 181.89)" color="#4646dc"  name="Nicotinamide riboside"  ><rect class="Icon" transform="matrix(.99147 0 0 .95238 .49574 .47619)" width="116.28" height="20" rx="15" ry="15" fill="#fff" stroke="#4646dc"/><text class="Text" transform="translate(58.142 13)" fill="#4646dc"  font-size="10px"  text-anchor="middle"><tspan x="0" y="0">Nicotinamide riboside</tspan></text></a><a class="Metabolite ChEBI_CHEBI_17154  " transform="translate(925.21 386.99)" color="#4646dc"  name="Nicotinamide"  ><rect class="Icon" transform="matrix(.98645 0 0 .95238 .49322 .47619)" width="72.793" height="20" rx="15" ry="15" fill="#fff" stroke="#4646dc"/><text class="Text" transform="translate(36.396 13)" fill="#4646dc"  font-size="10px"  text-anchor="middle"><tspan x="0" y="0">Nicotinamide</tspan></text></a><a class="Metabolite ChEBI_CHEBI_44215  " transform="translate(752.05 386.99)" color="#4646dc"  name="NAD"  ><rect class="Icon" transform="matrix(.979 0 0 .95238 .4895 .47619)" width="46.615" height="20" rx="15" ry="15" fill="#fff" stroke="#4646dc"/><text class="Text" transform="translate(23.308 13)" fill="#4646dc"  font-size="10px"  text-anchor="middle"><tspan x="0" y="0">NAD</tspan></text></a><g class="GroupGroup" transform="translate(822.74 414.4)" color="grey" ><use class="Icon" width="75.8456449834622" height="56" fill="transparent"  stroke="grey" stroke-dasharray="5,3" stroke-width="0" xlink:href="#c"/><a  class="GeneProduct SIRT1 " transform="translate(8,8)"   name="SIRT1"  ><rect class="Icon" transform="matrix(.98356 0 0 .95238 .49178 .47619)" width="59.846" height="20" fill="#fff" stroke="#000"/><text class="Text" transform="translate(29.923 13)"   font-size="10px"  text-anchor="middle"><tspan x="0" y="0">SIRT1</tspan></text></a><a  class="GeneProduct SIRT2 " transform="translate(8 28)"   name="SIRT2"  ><rect class="Icon" transform="matrix(.98356 0 0 .95238 .49178 .47619)" width="59.846" height="20" fill="#fff" stroke="#000"/><text class="Text" transform="translate(29.923 13)"   font-size="10px"  text-anchor="middle"><tspan x="0" y="0">SIRT2</tspan></text></a></g><a class="Metabolite ChEBI_CHEBI_16474  " transform="translate(744.29 564.58)" color="#4646dc"  name="NADPH"  ><rect class="Icon" transform="matrix(.98416 0 0 .95238 .49208 .47619)" width="62.128" height="20" rx="15" ry="15" fill="#fff" stroke="#4646dc"/><text class="Text" transform="translate(31.064 13)" fill="#4646dc"  font-size="10px"  text-anchor="middle"><tspan x="0" y="0">NADPH</tspan></text></a><a class="Metabolite ChEBI_CHEBI_44215  " transform="translate(181.83 407.09)" color="#4646dc"  name="NAD"  ><rect class="Icon" transform="matrix(.979 0 0 .95238 .4895 .47619)" width="46.615" height="20" rx="15" ry="15" fill="#fff" stroke="#4646dc"/><text class="Text" transform="translate(23.308 13)" fill="#4646dc"  font-size="10px"  text-anchor="middle"><tspan x="0" y="0">NAD</tspan></text></a><a class="Metabolite ChEBI_CHEBI_16908  " transform="translate(184.33 333)" color="#4646dc"  name="NADH"  ><rect class="Icon" transform="matrix(.97716 0 0 .95551 .48858 .47776)" width="42.787" height="21.479" rx="15" ry="15" fill="#fff" stroke="#4646dc"/><text class="Text" transform="translate(21.394 13.739)" fill="#4646dc"  font-size="10px"  text-anchor="middle"><tspan x="0" y="0">NADH</tspan></text></a><a class="Metabolite ChEBI_CHEBI_17154  " transform="translate(167.51 469.42)" color="#4646dc"  name="Nicotinamide"  ><rect class="Icon" transform="matrix(.98689 0 0 .95238 .49344 .47619)" width="75.257" height="20" rx="15" ry="15" fill="#fff" stroke="#4646dc"/><text class="Text" transform="translate(37.628 13)" fill="#4646dc"  font-size="10px"  text-anchor="middle"><tspan x="0" y="0">Nicotinamide</tspan></text></a><a class="Metabolite ChEBI_CHEBI_17154  " transform="translate(1051.9 617.7)" color="#4646dc"  name="Nicotinamide"  ><rect class="Icon" transform="matrix(.9873 0 0 .95238 .49365 .47619)" width="77.747" height="20" rx="15" ry="15" fill="#fff" stroke="#4646dc"/><text class="Text" transform="translate(38.873 13)" fill="#4646dc"  font-size="10px"  text-anchor="middle"><tspan x="0" y="0">Nicotinamide</tspan></text></a><a  class="GeneProduct PARP1 " transform="translate(1003.6 566.5)"   name="PARP1"  ><rect class="Icon" transform="matrix(.98356 0 0 .95238 .49178 .47619)" width="59.846" height="20" fill="#fff" stroke="#000"/><text class="Text" transform="translate(29.923 13)"   font-size="10px"  text-anchor="middle"><tspan x="0" y="0">PARP1</tspan></text></a><a  class="GeneProduct NAMPT " transform="translate(1151.4 631.02)"   name="NAMPT"  ><rect class="Icon" transform="matrix(.98228 0 0 .95238 .49114 .47619)" width="55.436" height="20" fill="#fff" stroke="#000"/><text class="Text" transform="translate(27.718 13)"   font-size="10px"  text-anchor="middle"><tspan x="0" y="0">NAMPT</tspan></text></a><a class="Chemspider_13553 Metabolite ChEBI_CHEBI_16171  " transform="translate(1218 619.47)" color="#4646dc"  name="Nicotinamide ribotide"  ><rect class="Icon" transform="matrix(.99207 0 0 .95238 .49603 .47619)" width="125.06" height="20" rx="15" ry="15" fill="#fff" stroke="#4646dc"/><text class="Text" transform="translate(62.529 13)" fill="#4646dc"  font-size="10px"  text-anchor="middle"><tspan x="0" y="0">Nicotinamide ribotide</tspan></text></a><a class="Metabolite ChEBI_CHEBI_44215  " transform="translate(1067.4 519.09)" color="#4646dc"  name="NAD"  ><rect class="Icon" transform="matrix(.979 0 0 .95238 .4895 .47619)" width="46.615" height="20" rx="15" ry="15" fill="#fff" stroke="#4646dc"/><text class="Text" transform="translate(23.308 13)" fill="#4646dc"  font-size="10px"  text-anchor="middle"><tspan x="0" y="0">NAD</tspan></text></a><g class="GroupGroup" transform="translate(1115 538.61)" color="grey" ><use class="Icon" width="133.84564498346208" height="76" fill="transparent"  stroke="grey" stroke-dasharray="5,3" stroke-width="0" xlink:href="#c"/><a  class="GeneProduct SIRT1 " transform="translate(8,15)"   name="SIRT1"  ><rect class="Icon" transform="matrix(.98356 0 0 .95238 .49178 .47619)" width="59.846" height="20" fill="#fff" stroke="#000"/><text class="Text" transform="translate(29.923 13)"   font-size="10px"  text-anchor="middle"><tspan x="0" y="0">SIRT1</tspan></text></a><a  class="GeneProduct SIRT2 " transform="translate(8,35)"   name="SIRT2"  ><rect class="Icon" transform="matrix(.98356 0 0 .95238 .49178 .47619)" width="59.846" height="20" fill="#fff" stroke="#000"/><text class="Text" transform="translate(29.923 13)"   font-size="10px"  text-anchor="middle"><tspan x="0" y="0">SIRT2</tspan></text></a><a  class="GeneProduct SIRT5 " transform="translate(66,8)"   name="SIRT5"  ><rect class="Icon" transform="matrix(.98356 0 0 .95238 .49178 .47619)" width="59.846" height="20" fill="#fff" stroke="#000"/><text class="Text" transform="translate(29.923 13)"   font-size="10px"  text-anchor="middle"><tspan x="0" y="0">SIRT5</tspan></text></a><a  class="GeneProduct SIRT6 " transform="translate(66,28)"   name="SIRT6"  ><rect class="Icon" transform="matrix(.98356 0 0 .95238 .49178 .47619)" width="59.846" height="20" fill="#fff" stroke="#000"/><text class="Text" transform="translate(29.923 13)"   font-size="10px"  text-anchor="middle"><tspan x="0" y="0">SIRT6</tspan></text></a><a  class="GeneProduct SIRT7 " transform="translate(66,48)"   name="SIRT7"  ><rect class="Icon" transform="matrix(.98356 0 0 .95238 .49178 .47619)" width="59.846" height="20" fill="#fff" stroke="#000"/><text class="Text" transform="translate(29.923 13)"   font-size="10px"  text-anchor="middle"><tspan x="0" y="0">SIRT7</tspan></text></a></g><a class="Metabolite ChEBI_CHEBI_16908  " transform="translate(1058.6 453.99)" color="#4646dc"  name="NADH"  ><rect class="Icon" transform="matrix(.98468 0 0 .95238 .49234 .47619)" width="64.256" height="20" rx="15" ry="15" fill="#fff" stroke="#4646dc"/><text class="Text" transform="translate(32.128 13)" fill="#4646dc"  font-size="10px"  text-anchor="middle"><tspan x="0" y="0">NADH</tspan></text></a><a class="Metabolite ChEBI_CHEBI_17154  " transform="translate(825.56 617.35)" color="#4646dc"  name="Nicotinamide"  ><rect class="Icon" transform="matrix(.98812 0 0 .95238 .49406 .47619)" width="83.188" height="20" rx="15" ry="15" fill="#fff" stroke="#4646dc"/><text class="Text" transform="translate(41.594 13)" fill="#4646dc"  font-size="10px"  text-anchor="middle"><tspan x="0" y="0">Nicotinamide</tspan></text></a><a class="Metabolite ChEBI_CHEBI_44215  " transform="translate(866.17 519.09)" color="#4646dc"  name="NAD"  ><rect class="Icon" transform="matrix(.979 0 0 .95238 .4895 .47619)" width="46.615" height="20" rx="15" ry="15" fill="#fff" stroke="#4646dc"/><text class="Text" transform="translate(23.308 13)" fill="#4646dc"  font-size="10px"  text-anchor="middle"><tspan x="0" y="0">NAD</tspan></text></a><a class="Metabolite ChEBI_CHEBI_16908  " transform="translate(908 453.99)" color="#4646dc"  name="NADH"  ><rect class="Icon" transform="matrix(.97954 0 0 .95238 .48977 .47619)" width="47.882" height="20" rx="15" ry="15" fill="#fff" stroke="#4646dc"/><text class="Text" transform="translate(23.941 13)" fill="#4646dc"  font-size="10px"  text-anchor="middle"><tspan x="0" y="0">NADH</tspan></text></a><g class="Label" transform="translate(1156,163)" color="#ccc"  name="Cytoplasm"><use class="Icon" width="80" height="20" fill="transparent"  stroke="#ccc" stroke-width="0" xlink:href="#c"/><text class="Text" transform="translate(40,14)" fill="#ccc"  font-size="14px" font-weight="bold" stroke="black" stroke-width="0" text-anchor="middle"><tspan x="0" y="0">Cytoplasm</tspan></text></g><a class="Chemspider_13553 Metabolite ChEBI_CHEBI_16171  " transform="translate(899.22 32.316)" color="#4646dc"  name="Nicotinamide ribotide"  ><rect class="Icon" transform="matrix(.99147 0 0 .95238 .49574 .47619)" width="116.28" height="20" rx="15" ry="15" fill="#fff" stroke="#4646dc"/><text class="Text" transform="translate(58.142 13)" fill="#4646dc"  font-size="10px"  text-anchor="middle"><tspan x="0" y="0">Nicotinamide ribotide</tspan></text></a><a class="Metabolite ChEBI_CHEBI_44215  " transform="translate(1087.9 32.316)" color="#4646dc"  name="NAD"  ><rect class="Icon" transform="matrix(.979 0 0 .95238 .4895 .47619)" width="46.615" height="20" rx="15" ry="15" fill="#fff" stroke="#4646dc"/><text class="Text" transform="translate(23.308 13)" fill="#4646dc"  font-size="10px"  text-anchor="middle"><tspan x="0" y="0">NAD</tspan></text></a><g class="GroupGroup" transform="translate(246.5 404.61)" color="grey" ><use class="Icon" width="65.51708930540235" height="75" fill="transparent"  stroke="grey" stroke-dasharray="5,3" stroke-width="0" xlink:href="#c"/><a  class="GeneProduct SIRT3 " transform="translate(8,8)"   name="SIRT3"  ><rect class="Icon" transform="matrix(.9802 0 0 .95238 .4901 .47619)" width="49.517" height="20" fill="#fff" stroke="#000"/><text class="Text" transform="translate(24.759 13)"   font-size="10px"  text-anchor="middle"><tspan x="0" y="0">SIRT3</tspan></text></a><a  class="GeneProduct SIRT4 " transform="translate(8,27)"   name="SIRT4"  ><rect class="Icon" transform="matrix(.9802 0 0 .95238 .4901 .47619)" width="49.517" height="20" fill="#fff" stroke="#000"/><text class="Text" transform="translate(24.759 13)"   font-size="10px"  text-anchor="middle"><tspan x="0" y="0">SIRT4</tspan></text></a><a  class="GeneProduct SIRT5 " transform="translate(8,47)"   name="SIRT5"  ><rect class="Icon" transform="matrix(.9802 0 0 .95238 .4901 .47619)" width="49.517" height="20" fill="#fff" stroke="#000"/><text class="Text" transform="translate(24.759 13)"   font-size="10px"  text-anchor="middle"><tspan x="0" y="0">SIRT5</tspan></text></a></g><a class="Chemspider_13553 Metabolite ChEBI_CHEBI_16171  " transform="translate(75.736 442.15)" color="#4646dc"  name="Nicotinamide  mononucleotide"  ><rect class="Icon" transform="matrix(.99044 0 0 .96621 .49522 .48311)" width="103.57" height="28.596" rx="15" ry="15" fill="#fff" stroke="#4646dc"/><text class="Text" transform="translate(51.787 17.298)" fill="#4646dc"  font-size="10px"  text-anchor="middle"><tspan x="0" y="-5.5">Nicotinamide </tspan> <tspan x="0" y="5.5">mononucleotide</tspan></text></a><a class="Metabolite ChEBI_CHEBI_422  " transform="translate(696,424)" color="#4646dc"  name="Lactate"  ><rect class="Icon" transform="matrix(.98139 0 0 .95238 .4907 .47619)" width="52.744" height="20" rx="15" ry="15" fill="#fff" stroke="#4646dc"/><text class="Text" transform="translate(26.372 13)" fill="#4646dc"  font-size="10px"  text-anchor="middle"><tspan x="0" y="0">Lactate</tspan></text></a><g class="Pathway" transform="translate(434.67 448.17)" color="#14961e"  name="Glyceraldehyde 3-phosphate shuttle"><rect class="Icon" transform="matrix(.99097 0 0 .98125 .49548 .49063)" width="109.69" height="52.333" rx="15" ry="15" fill="#fff" stroke="#14961e" stroke-dasharray="5,3"/><text class="Text" transform="translate(54.843 30.167)" fill="#14961e"  font-size="12px" font-weight="bold" stroke="black" stroke-width="0" text-anchor="middle"><tspan x="0" y="-13.200000000000001">Glyceraldehyde</tspan> <tspan x="0" y="0">3-phosphate</tspan> <tspan x="0" y="13.200000000000001">shuttle</tspan></text></g><g class="Pathway" transform="translate(407.04 326.24)" color="#14961e"  name="Malate/aspartate  shuttle"><rect class="Icon" transform="matrix(.99233 0 0 .97222 .49616 .48611)" width="129.3" height="35" rx="15" ry="15" fill="#fff" stroke="#14961e" stroke-dasharray="5,3"/><text class="Text" transform="translate(64.649 21.5)" fill="#14961e"  font-size="12px" font-weight="bold" stroke="black" stroke-width="0" text-anchor="middle"><tspan x="0" y="-6.6000000000000005">Malate/aspartate </tspan> <tspan x="0" y="6.6000000000000005">shuttle</tspan></text></g><text class="Text" transform="translate(5,27)" dominant-baseline="central" fill="black"  font-size="12px" font-weight="bold" overflow="visible" ><tspan x="0" y="-9">Name: NAD+ metabolism</tspan> <tspan x="0" y="9">Organism: Homo sapiens</tspan></text></g></svg>
