<?xml version="1.0" encoding="UTF-8"?>
<!--
  WikiPathways page: https://www.wikipathways.org/index.php/Pathway:WP3664
  URL for this compressed file: https://github.com/eweitz/cachome/tree/main/data/wikipathways/WP3664.svg
  Source code for compression: https://github.com/eweitz/cachome/tree/main/src/wikipathways.py
-->
<svg class="Diagram" width="800" height="600" color="black" baseProfile="full" prefix="schema:http://schema.org/" preserveAspectRatio="xMidYMid" version="1.1" viewBox="0 0 1015.4 925" vocab="http://vocabularies.wikipathways.org/wp#" xmlns="http://www.w3.org/2000/svg" xmlns:xlink="http://www.w3.org/1999/xlink"><style>svg {font-family: 'Liberation Sans', Arial, sans-serif; }</style><defs><filter id="e" x="-50%" y="-50%" width="200%" height="200%"><feComposite in="SourceGraphic" in2="SourceGraphic" result="doubleDark"/><feMorphology in="doubleDark" operator="dilate" radius="0.16666666666666666" result="in2Double"/><feMorphology in="SourceGraphic" operator="dilate" radius="3" result="inDouble"/><feComposite in="inDouble" in2="in2Double" operator="out" result="doubleResult"/></filter><filter id="a" x="0" y="0" width="1015.4" height="925" filterUnits="userSpaceOnUse"><feColorMatrix in="SourceGraphic" values="-1   0   0 0 0                   0  -1   0 0 0                   0   0  -1 0 0                   0   0   0 1 0"/></filter><marker id="d" stroke-dasharray="99999" markerHeight="12" markerUnits="userSpaceOnUse" markerWidth="12" orient="auto" preserveAspectRatio="none" refX="12" refY="6" viewBox="0 0 12 12"><path transform="rotate(180 6 6)" d="M12 11L0 6l12-5z" fill="currentColor" stroke-width="0"/></marker><marker id="j" stroke-dasharray="99999" markerHeight="12" markerUnits="userSpaceOnUse" markerWidth="12" orient="auto" preserveAspectRatio="none" refX="12" refY="6" viewBox="0 0 12 12"><path transform="rotate(180 6 6)" d="M12 12L0 6l12-6-7 6z" fill="currentColor" stroke-width="0"/></marker><marker id="i" stroke-dasharray="99999" markerHeight="12" markerUnits="userSpaceOnUse" markerWidth="12" orient="auto" preserveAspectRatio="none" refX="12" refY="6" viewBox="0 0 12 12"><path transform="rotate(180 6 6)" d="M12 11L0 6l12-5z" fill="currentColor" stroke-width="0"/></marker><marker id="c" stroke-dasharray="99999" markerHeight="20" markerUnits="userSpaceOnUse" markerWidth="10" orient="auto" preserveAspectRatio="none" refX="10" refY="10" viewBox="0 0 10 20"><path d="m3 0v20" fill="currentColor" stroke="currentColor"/></marker><marker id="h" stroke-dasharray="99999" markerHeight="24" markerUnits="userSpaceOnUse" markerWidth="20" orient="auto" preserveAspectRatio="none" refX="20" refY="12" viewBox="0 0 20 24"><g transform="rotate(180 10 12)" fill="none" stroke="#000"><path d="M15 12V5M15.5 5H8M0 5l8-4v8z"/></g></marker><symbol id="g" overflow="visible" preserveAspectRatio="none" viewBox="0 0 50 50"><ellipse cx="25" cy="25" rx="25" ry="25" stroke="currentColor" vector-effect="non-scaling-stroke"/></symbol><symbol id="k" overflow="visible" preserveAspectRatio="none" viewBox="0 0 100 100"><circle cx="50" cy="50" r="49" stroke="currentColor" vector-effect="non-scaling-stroke"/><path d="m1 1 99 99" stroke="currentColor" vector-effect="non-scaling-stroke"/></symbol><symbol id="f" overflow="visible" preserveAspectRatio="none" viewBox="0 0 100 100"><path d="M0 25L25 0h50l25 25v50l-25 25H25L0 75z" stroke="currentColor" vector-effect="non-scaling-stroke"/></symbol><symbol id="b" preserveAspectRatio="none" viewBox="0 0 100 100"/></defs><g class="Viewport" color="black"  name="Name: Regulation of Wnt / B-catenin signaling by small molecule compounds Organism: Homo sapiens"><rect class="Icon" width="1015.4" height="925" fill="#fff" stroke="#000" stroke-width="0"/><g id="l" class="DirectedInteraction" color="#000" ><g color="#000" fill="transparent"  filter="url(#a)" stroke="#000" stroke-dasharray="350.64541024557315, 5.8"><path class="EdgeBody" d="m905.45 548.85-356.45 0.15126"   marker-end="url(#d)" /></g></g><g id="m" class="Interaction" color="#000" ><g color="#000" fill="transparent"  filter="url(#a)" stroke="#000" stroke-dasharray="75.2, 5.8"><path class="EdgeBody" d="m549 589h81"   marker-end="url(#i)" /></g></g><g id="n" class="DirectedInteraction" color="#000" ><g color="#000" fill="transparent"  filter="url(#a)" stroke="#000" stroke-dasharray="5.7, 3.42, 5.7, 3.42, 5.7, 3.42, 5.7, 5.8"><path class="EdgeBody" d="m479 103.9-0.35254 38.853"   marker-end="url(#d)" /></g></g><g id="o" class="Interaction" color="#000" ><g color="#000" fill="transparent"  filter="url(#a)" stroke="#000" stroke-dasharray="283.9496890515814, 7"><path class="EdgeBody" d="m178.05 569.25 290.95-0.2521"   marker-end="url(#c)" /></g></g><g id="p" class="Interaction" color="#000" ><g color="#000" fill="transparent"  filter="url(#a)" stroke="#000" stroke-dasharray="341.49807575887786, 7"><path class="EdgeBody" d="m897.5 469.35-348.5-0.35084"   marker-end="url(#c)" /></g></g><g id="q" class="Interaction" color="#000" ><g color="#000" fill="transparent"  filter="url(#a)" stroke="#000" stroke-dasharray="109.00523947331757, 7"><path class="EdgeBody" d="m635 95-116-1.1025"   marker-end="url(#c)" /></g></g><g id="r" class="DirectedInteraction" color="#000" ><g color="#000" fill="transparent"  filter="url(#a)" stroke="#000" stroke-dasharray="78.2505562751894, 5.8"><path class="EdgeBody" d="m478.65 162.75 0.15126 84.05"   marker-end="url(#d)" /></g></g><g id="s" class="Interaction" color="#000" ><g color="#000" fill="transparent"  filter="url(#a)" stroke="#000" stroke-dasharray="153.25290580404726, 7"><path class="EdgeBody" d="m238.38 286.56 148.82 59.444"   marker-end="url(#c)" /></g></g><g id="t" class="Interaction" color="#000" ><g color="#000" fill="transparent"  filter="url(#a)" stroke="#000" stroke-dasharray="67.20077025071265, 1"><path class="EdgeBody" d="m478.8 266.8 0.40296 68.2"   marker-end="url(#j)" /></g></g><g id="u" class="DirectedInteraction" color="#000" ><g color="#000" fill="transparent"  filter="url(#a)" stroke="#000" stroke-dasharray="94.20160457182813, 5.8"><path class="EdgeBody" d="m372.9 433.9 84.103 54.103"   marker-end="url(#d)" /></g></g><g id="v" class="Interaction" color="#000" ><g color="#000" fill="transparent"  filter="url(#a)" stroke="#000" stroke-dasharray="116.89012830930552, 7"><path class="EdgeBody" d="m209.01 424.41 123.89-0.5143"   marker-end="url(#c)" /></g></g><g id="w" class="Interaction" color="#000" ><g color="#000" fill="transparent"  filter="url(#a)" stroke="#000" stroke-dasharray="146.962273476156, 7"><path class="EdgeBody" d="m672.76 256.06-153.96 0.74119"   marker-end="url(#c)" /></g></g><g id="x" class="Interaction" color="#000" ><g color="#000" fill="transparent"  filter="url(#a)" stroke="#000" stroke-dasharray="19.303053911273235, 11"><path class="EdgeBody" d="m563.65 723 30.303 0.17971"   marker-end="url(#h)" /></g></g><g id="y" class="Interaction" color="#000" ><g color="#000" fill="transparent"  filter="url(#a)" stroke="#000" stroke-dasharray="286.5480035034024, 7"><path class="EdgeBody" d="m166.1 742.98 293.55 1.0237"   marker-end="url(#c)" /></g></g><g class="SingleFreeNode Shape PhysicalEntity CellularComponent Cell" transform="translate(349.5,59.5)" color="#c0c0c0" ><g fill="transparent"  filter="url(#e)" stroke="#c0c0c0" stroke-width="3"><rect class="Icon" transform="matrix(.95522 0 0 .91724 5.7313 5.5034)" width="256" height="133" rx="15" ry="15"   /></g></g><g class="SingleFreeNode Shape PhysicalEntity CellularComponent Cell" transform="translate(237.75,356.25)" color="#c0c0c0" ><g fill="transparent"  filter="url(#e)" stroke="#c0c0c0" stroke-width="3"><rect class="Icon" transform="matrix(.98042 0 0 .97827 5.8825 5.8696)" width="600.75" height="540.25" rx="15" ry="15"   /></g></g><g class="SingleFreeNode Shape PhysicalEntity CellularComponent Nucleus" transform="translate(328.5,661.5)" color="#c0c0c0" ><g fill="transparent"  filter="url(#e)" stroke="#c0c0c0" stroke-width="3"><use class="Icon" transform="matrix(.97619 0 0 .94444 5.8571 5.6667)" width="492" height="204"    xlink:href="#g"/></g></g><g class="SingleFreeNode Shape" transform="translate(630,574)" color="#000" ><use class="Icon" transform="matrix(.96774 0 0 .96774 .48387 .48387)" width="30" height="30" fill="transparent"  stroke="#000" xlink:href="#k"/></g><g class="Label" transform="translate(141.91 274.06)" color="#000"  name="FZD antibodies"><use class="Icon" width="96.47058823529413" height="25" fill="transparent"  stroke="#000" stroke-width="0" xlink:href="#b"/><text class="Text" transform="translate(48.235 16.5)"   font-size="12px" font-weight="bold"  text-anchor="middle"><tspan x="0" y="0">FZD antibodies</tspan></text></g><g class="Label" transform="translate(593.95 713.18)" color="#000"  name="Gene Transcription"><use class="Icon" width="133.99159663865527" height="20" fill="transparent"  stroke="#000" stroke-width="0" xlink:href="#b"/><text class="Text" transform="translate(66.996 14)"   font-size="12px" font-weight="bold"  text-anchor="middle"><tspan x="0" y="0">Gene Transcription</tspan></text></g><a class="PubChem-compound_2155128 Metabolite ChEBI_CHEBI_125649  " transform="translate(635,85)" color="#00f"  name="IWP-2"  ><rect class="Icon" transform="matrix(.98765 0 0 .95238 .49383 .47619)" width="80" height="20" fill="#fff" stroke="#00f"/><text class="Text" transform="translate(40,13)" fill="#00f"  font-size="10px"  text-anchor="middle"><tspan x="0" y="0">IWP-2</tspan></text></a><a class="ChEBI_CHEBI_62878 Metabolite  " transform="translate(897.5 459.35)" color="#00f"  name="XAV939"  ><rect class="Icon" transform="matrix(.98765 0 0 .95238 .49383 .47619)" width="80" height="20" fill="#fff" stroke="#00f"/><text class="Text" transform="translate(40,13)" fill="#00f"  font-size="10px"  text-anchor="middle"><tspan x="0" y="0">XAV939</tspan></text></a><a  class="GeneProduct DVL2 " transform="translate(332.9 413.9)"   name="DVL2"  ><rect class="Icon" transform="matrix(.98765 0 0 .95238 .49383 .47619)" width="80" height="20" fill="#fff" stroke="#000"/><text class="Text" transform="translate(40,13)"   font-size="10px"  text-anchor="middle"><tspan x="0" y="0">DVL2</tspan></text></a><a class="ChEBI_CHEBI_8687 Metabolite  " transform="translate(905.45 538.85)" color="#00f"  name="Pyrvinium"  ><rect class="Icon" transform="matrix(.98765 0 0 .95238 .49383 .47619)" width="80" height="20" fill="#fff" stroke="#00f"/><text class="Text" transform="translate(40,13)" fill="#00f"  font-size="10px"  text-anchor="middle"><tspan x="0" y="0">Pyrvinium</tspan></text></a><a  class="GeneProduct MBOAT1 " transform="translate(439 83.897)"   name="MBOAT"  ><rect class="Icon" transform="matrix(.98765 0 0 .95238 .49383 .47619)" width="80" height="20" fill="#fff" stroke="#000"/><text class="Text" transform="translate(40,13)"   font-size="10px"  text-anchor="middle"><tspan x="0" y="0">MBOAT</tspan></text></a><a  class="GeneProduct WNT1 " transform="translate(438.65 142.75)"   name="WNT"  ><rect class="Icon" transform="matrix(.98765 0 0 .95238 .49383 .47619)" width="80" height="20" fill="#fff" stroke="#000"/><text class="Text" transform="translate(40,13)"   font-size="10px"  text-anchor="middle"><tspan x="0" y="0">WNT</tspan></text></a><a class="ChEBI_CHEBI_92168 Metabolite  " transform="translate(98.05 559.25)" color="#00f"  name="IC261"  ><rect class="Icon" transform="matrix(.98765 0 0 .95238 .49383 .47619)" width="80" height="20" fill="#fff" stroke="#00f"/><text class="Text" transform="translate(40,13)" fill="#00f"  font-size="10px"  text-anchor="middle"><tspan x="0" y="0">IC261</tspan></text></a><g class="GroupGroup" transform="translate(70.101 604.98)" color="grey" ><use class="Icon" width="96" height="276" fill="transparent"  stroke="grey" stroke-dasharray="5,3" stroke-width="0" xlink:href="#b"/><a class="PubChem-compound_5967294 Metabolite " transform="translate(8,148)" color="#00f"  name="iCRT14"  ><rect class="Icon" transform="matrix(.98765 0 0 .95238 .49383 .47619)" width="80" height="20" fill="#fff" stroke="#00f"/><text class="Text" transform="translate(40,13)" fill="#00f"  font-size="10px"  text-anchor="middle"><tspan x="0" y="0">iCRT14</tspan></text></a><g class="Metabolite" transform="translate(8,248)" color="#00f"  name="PRK222-815"><rect class="Icon" transform="matrix(.98765 0 0 .95238 .49383 .47619)" width="80" height="20" fill="#fff" stroke="#00f"/><text class="Text" transform="translate(40,13)" fill="#00f"  font-size="10px"  text-anchor="middle"><tspan x="0" y="0">PRK222-815</tspan></text></g><g class="Metabolite" transform="translate(8.0312 228)" color="#00f"  name="PRK118-744"><rect class="Icon" transform="matrix(.98764 0 0 .95238 .49382 .47619)" width="79.938" height="20" fill="#fff" stroke="#00f"/><text class="Text" transform="translate(39.969 13)" fill="#00f"  font-size="10px"  text-anchor="middle"><tspan x="0" y="0">PRK118-744</tspan></text></g><a class="CAS_1053172-87-4 Metabolite " transform="translate(8,48)" color="#00f"  name="NC043"  ><rect class="Icon" transform="matrix(.98765 0 0 .95238 .49383 .47619)" width="80" height="20" fill="#fff" stroke="#00f"/><text class="Text" transform="translate(40,13)" fill="#00f"  font-size="10px"  text-anchor="middle"><tspan x="0" y="0">NC043</tspan></text></a><a class="PubChem-compound_71749442 Metabolite " transform="translate(8,168)" color="#00f"  name="iCRT5"  ><rect class="Icon" transform="matrix(.98765 0 0 .95238 .49383 .47619)" width="80" height="20" fill="#fff" stroke="#00f"/><text class="Text" transform="translate(40,13)" fill="#00f"  font-size="10px"  text-anchor="middle"><tspan x="0" y="0">iCRT5</tspan></text></a><a class="ChEBI_CHEBI_3556 Metabolite  " transform="translate(8,68)" color="#00f"  name="CGP049090"  ><rect class="Icon" transform="matrix(.98765 0 0 .95238 .49383 .47619)" width="80" height="20" fill="#fff" stroke="#00f"/><text class="Text" transform="translate(40,13)" fill="#00f"  font-size="10px"  text-anchor="middle"><tspan x="0" y="0">CGP049090</tspan></text></a><a class="ChEBI_CHEBI_26537 Metabolite  " transform="translate(8,8)" color="#00f"  name="Retinoids"  ><rect class="Icon" transform="matrix(.98765 0 0 .95238 .49383 .47619)" width="80" height="20" fill="#fff" stroke="#00f"/><text class="Text" transform="translate(40,13)" fill="#00f"  font-size="10px"  text-anchor="middle"><tspan x="0" y="0">Retinoids</tspan></text></a><a class="ChEBI_CHEBI_24261 Metabolite  " transform="translate(8,88)" color="#00f"  name="Glucocorticoids"  ><rect class="Icon" transform="matrix(.98765 0 0 .95238 .49383 .47619)" width="80" height="20" fill="#fff" stroke="#00f"/><text class="Text" transform="translate(40,13)" fill="#00f"  font-size="10px"  text-anchor="middle"><tspan x="0" y="0">Glucocorticoids</tspan></text></a><g class="Metabolite" transform="translate(8,208)" color="#00f"  name="PRK118-310"><rect class="Icon" transform="matrix(.98765 0 0 .95238 .49383 .47619)" width="80" height="20" fill="#fff" stroke="#00f"/><text class="Text" transform="translate(40,13)" fill="#00f"  font-size="10px"  text-anchor="middle"><tspan x="0" y="0">PRK118-310</tspan></text></g><a class="PubChem-compound_5280453 Metabolite ChEBI_CHEBI_17823  " transform="translate(8,28)" color="#00f"  name="1a,25-(OH)2D3"  ><rect class="Icon" transform="matrix(.98765 0 0 .95238 .49383 .47619)" width="80" height="20" fill="#fff" stroke="#00f"/><text class="Text" transform="translate(40,13)" fill="#00f"  font-size="10px"  text-anchor="middle"><tspan x="0" y="0">1a,25-(OH)2D3</tspan></text></a><a class="PubChem-compound_11238147 Metabolite ChEBI_CHEBI_95032  " transform="translate(8,108)" color="#00f"  name="ICG-001"  ><rect class="Icon" transform="matrix(.98765 0 0 .95238 .49383 .47619)" width="80" height="20" fill="#fff" stroke="#00f"/><text class="Text" transform="translate(40,13)" fill="#00f"  font-size="10px"  text-anchor="middle"><tspan x="0" y="0">ICG-001</tspan></text></a><g class="Metabolite" transform="translate(8,188)" color="#00f"  name="PRK115-584"><rect class="Icon" transform="matrix(.98765 0 0 .95238 .49383 .47619)" width="80" height="20" fill="#fff" stroke="#00f"/><text class="Text" transform="translate(40,13)" fill="#00f"  font-size="10px"  text-anchor="middle"><tspan x="0" y="0">PRK115-584</tspan></text></g><a class="PubChem-compound_6622273 Metabolite " transform="translate(8,128)" color="#00f"  name="iCRT3"  ><rect class="Icon" transform="matrix(.98765 0 0 .95238 .49383 .47619)" width="80" height="20" fill="#fff" stroke="#00f"/><text class="Text" transform="translate(40,13)" fill="#00f"  font-size="10px"  text-anchor="middle"><tspan x="0" y="0">iCRT3</tspan></text></a></g><g class="GroupComplex" transform="translate(387.2 335)" color="grey" ><use class="Icon" transform="matrix(.99459 0 0 .97778 .4973 .48889)" width="183.99999999999977" height="44" fill="#b4b464" fill-opacity=".1" stroke="grey" xlink:href="#f"/><a  class="GeneProduct LRP1 " transform="translate(92 12)"   name="LRP"  ><rect class="Icon" transform="matrix(.98765 0 0 .95238 .49383 .47619)" width="80" height="20" fill="#fff" stroke="#000"/><text class="Text" transform="translate(40,13)"   font-size="10px"  text-anchor="middle"><tspan x="0" y="0">LRP</tspan></text></a><a  class="FZD1 GeneProduct " transform="translate(12,12)"   name="FZD"  ><rect class="Icon" transform="matrix(.98765 0 0 .95238 .49383 .47619)" width="80" height="20" fill="#fff" stroke="#000"/><text class="Text" transform="translate(40,13)"   font-size="10px"  text-anchor="middle"><tspan x="0" y="0">FZD</tspan></text></a></g><g class="GroupComplex" transform="translate(457,447)" color="grey" ><use class="Icon" transform="matrix(.99048 0 0 .99394 .49524 .49697)" width="104" height="164" fill="#b4b464" fill-opacity=".1" stroke="grey" xlink:href="#f"/><a  class="GeneProduct AXIN1 " transform="translate(12,32)"   name="AXIN1"  ><rect class="Icon" transform="matrix(.98765 0 0 .95238 .49383 .47619)" width="80" height="20" fill="#fff" stroke="#000"/><g class="Burr State" transform="translate(72.5 -1.1555)" color="#000"  name="Ub"><use class="Icon" transform="matrix(.9375 0 0 .9375 .46875 .46875)" width="15" height="15" fill="#fff" stroke="#000" xlink:href="#g"/><text class="Text" transform="translate(7.5,10.5)"   font-size="10px"  text-anchor="middle"><tspan x="0" y="0">Ub</tspan></text></g><text class="Text" transform="translate(40,13)"   font-size="10px"  text-anchor="middle"><tspan x="0" y="0">AXIN1</tspan></text></a><a  class="GeneProduct TNKS " transform="translate(12,12)"   name="TNKS"  ><rect class="Icon" transform="matrix(.98765 0 0 .95238 .49383 .47619)" width="80" height="20" fill="#fff" stroke="#000"/><text class="Text" transform="translate(40,13)"   font-size="10px"  text-anchor="middle"><tspan x="0" y="0">TNKS</tspan></text></a><a  class="GeneProduct GSK3B " transform="translate(12,52)"   name="GSK3B"  ><rect class="Icon" transform="matrix(.98765 0 0 .95238 .49383 .47619)" width="80" height="20" fill="#fff" stroke="#000"/><text class="Text" transform="translate(40,13)"   font-size="10px"  text-anchor="middle"><tspan x="0" y="0">GSK3B</tspan></text></a><g class="Uniprot-TrEMBL_Q5R2U3 GeneProduct" transform="translate(12,112)" color="#000"  name="CK1e"><rect class="Icon" transform="matrix(.98765 0 0 .95238 .49383 .47619)" width="80" height="20" fill="#fff" stroke="#000"/><text class="Text" transform="translate(40,13)"   font-size="10px"  text-anchor="middle"><tspan x="0" y="0">CK1e</tspan></text></g><a  class="GeneProduct APC " transform="translate(12,72)"   name="APC"  ><rect class="Icon" transform="matrix(.98765 0 0 .95238 .49383 .47619)" width="80" height="20" fill="#fff" stroke="#000"/><text class="Text" transform="translate(40,13)"   font-size="10px"  text-anchor="middle"><tspan x="0" y="0">APC</tspan></text></a><a  class="GeneProduct CSNK1A1 " transform="translate(12,92)"   name="CK1a"  ><rect class="Icon" transform="matrix(.98765 0 0 .95238 .49383 .47619)" width="80" height="20" fill="#fff" stroke="#000"/><text class="Text" transform="translate(40,13)"   font-size="10px"  text-anchor="middle"><tspan x="0" y="0">CK1a</tspan></text></a><a  class="GeneProduct CTNNB1 " transform="translate(12,132)"   name="CTNNB1"  ><rect class="Icon" transform="matrix(.98765 0 0 .95238 .49383 .47619)" width="80" height="20" fill="#fff" stroke="#000"/><text class="Text" transform="translate(40,13)"   font-size="10px"  text-anchor="middle"><tspan x="0" y="0">CTNNB1</tspan></text></a></g><g class="GroupGroup" transform="translate(73.933 393.91)" color="grey" ><use class="Icon" width="135.07563025210078" height="61.00000000000006" fill="transparent"  stroke="grey" stroke-dasharray="5,3" stroke-width="0" xlink:href="#b"/><a class="Chemspider_338019 Metabolite " transform="translate(27.538 33)" color="#00f"  name="NSC668036"  ><rect class="Icon" transform="matrix(.98765 0 0 .95238 .49383 .47619)" width="80" height="20" fill="#fff" stroke="#00f"/><text class="Text" transform="translate(40,13)" fill="#00f"  font-size="10px"  text-anchor="middle"><tspan x="0" y="0">NSC668036</tspan></text></a><g class="Label" transform="translate(8,8)" color="#000"  name="DVL PDZ Domains"><use class="Icon" width="119.0756302521008" height="25" fill="transparent"  stroke="#000" stroke-width="0" xlink:href="#b"/><text class="Text" transform="translate(59.538 16.5)"   font-size="12px" font-weight="bold"  text-anchor="middle"><tspan x="0" y="0">DVL PDZ Domains</tspan></text></g></g><g class="GroupGroup" transform="translate(672.76 183.06)" color="grey" ><use class="Icon" width="112.47058823529414" height="145.99999999999974" fill="transparent"  stroke="grey" stroke-dasharray="5,3" stroke-width="0" xlink:href="#b"/><a  class="GeneProduct FZD8 " transform="translate(16.235 68)"   name="FZD8"  ><rect class="Icon" transform="matrix(.98765 0 0 .95238 .49383 .47619)" width="80" height="20" fill="#fff" stroke="#000"/><text class="Text" transform="translate(40,13)"   font-size="10px"  text-anchor="middle"><tspan x="0" y="0">FZD8</tspan></text></a><a  class="GeneProduct DKK3 " transform="translate(16.235 8)"   name="DKK3"  ><rect class="Icon" transform="matrix(.98765 0 0 .95238 .49383 .47619)" width="80" height="20" fill="#fff" stroke="#000"/><text class="Text" transform="translate(40,13)"   font-size="10px"  text-anchor="middle"><tspan x="0" y="0">DKK3</tspan></text></a><a  class="GeneProduct SFRP4 " transform="translate(16.235 48)"   name="SFRP4"  ><rect class="Icon" transform="matrix(.98765 0 0 .95238 .49383 .47619)" width="80" height="20" fill="#fff" stroke="#000"/><text class="Text" transform="translate(40,13)"   font-size="10px"  text-anchor="middle"><tspan x="0" y="0">SFRP4</tspan></text></a><a  class="GeneProduct FZD7 " transform="translate(16.235 28)"   name="FZD7"  ><rect class="Icon" transform="matrix(.98765 0 0 .95238 .49383 .47619)" width="80" height="20" fill="#fff" stroke="#000"/><text class="Text" transform="translate(40,13)"   font-size="10px"  text-anchor="middle"><tspan x="0" y="0">FZD7</tspan></text></a><g class="Label" transform="translate(8 88)" color="#000"  name="V3Nter"><use class="Icon" width="96.47058823529413" height="25" fill="transparent"  stroke="#000" stroke-width="0" xlink:href="#b"/><text class="Text" transform="translate(48.235 16.5)"   font-size="12px" font-weight="bold"  text-anchor="middle"><tspan x="0" y="0">V3Nter</tspan></text></g><g class="Label" transform="translate(8 113)" color="#000"  name="WNT antibodies"><use class="Icon" width="96.47058823529413" height="25" fill="transparent"  stroke="#000" stroke-width="0" xlink:href="#b"/><text class="Text" transform="translate(48.235 16.5)"   font-size="12px" font-weight="bold"  text-anchor="middle"><tspan x="0" y="0">WNT antibodies</tspan></text></g></g><g class="GroupComplex" transform="translate(459.65 702)" color="grey" ><use class="Icon" transform="matrix(.99048 0 0 .98824 .49524 .49412)" width="104.00000000000006" height="84" fill="#b4b464" fill-opacity=".1" stroke="grey" xlink:href="#f"/><a  class="GeneProduct LEF1 " transform="translate(12,52)"   name="LEF1"  ><rect class="Icon" transform="matrix(.98765 0 0 .95238 .49383 .47619)" width="80" height="20" fill="#fff" stroke="#000"/><text class="Text" transform="translate(40,13)"   font-size="10px"  text-anchor="middle"><tspan x="0" y="0">LEF1</tspan></text></a><a  class="GeneProduct TCF4 " transform="translate(12,32)"   name="TCF4"  ><rect class="Icon" transform="matrix(.98765 0 0 .95238 .49383 .47619)" width="80" height="20" fill="#fff" stroke="#000"/><text class="Text" transform="translate(40,13)"   font-size="10px"  text-anchor="middle"><tspan x="0" y="0">TCF4</tspan></text></a><a  class="GeneProduct CTNNB1 " transform="translate(12,12)"   name="CTNNB1"  ><rect class="Icon" transform="matrix(.98765 0 0 .95238 .49383 .47619)" width="80" height="20" fill="#fff" stroke="#000"/><text class="Text" transform="translate(40,13)"   font-size="10px"  text-anchor="middle"><tspan x="0" y="0">CTNNB1</tspan></text></a></g><a  class="GeneProduct WNT1 " transform="translate(438.8 246.8)"   name="WNT"  ><rect class="Icon" transform="matrix(.98765 0 0 .95238 .49383 .47619)" width="80" height="20" fill="#fff" stroke="#000"/><text class="Text" transform="translate(40,13)"   font-size="10px"  text-anchor="middle"><tspan x="0" y="0">WNT</tspan></text></a><text class="Text" transform="translate(5,27)" dominant-baseline="central" fill="black"  font-size="12px" font-weight="bold" overflow="visible" ><tspan x="0" y="-9">Name: Regulation of Wnt / B-catenin signaling by small molecule compounds</tspan> <tspan x="0" y="9">Organism: Homo sapiens</tspan></text></g></svg>
