<?xml version="1.0" encoding="UTF-8"?>
<!--
  WikiPathways page: https://www.wikipathways.org/index.php/Pathway:WP3612
  URL for this compressed file: https://github.com/eweitz/cachome/tree/main/data/wikipathways/WP3612.svg
  Source code for compression: https://github.com/eweitz/cachome/tree/main/src/wikipathways.py
-->
<svg class="Diagram" width="800" height="600" color="black" baseProfile="full" prefix="schema:http://schema.org/" preserveAspectRatio="xMidYMid" version="1.1" viewBox="0 0 699 624.25" vocab="http://vocabularies.wikipathways.org/wp#" xmlns="http://www.w3.org/2000/svg" xmlns:xlink="http://www.w3.org/1999/xlink"><style>svg {font-family: 'Liberation Sans', Arial, sans-serif; }</style><defs><filter id="e" x="-50%" y="-50%" width="200%" height="200%"><feMorphology in="SourceGraphic" operator="dilate" radius="3" result="in2Double"/><feMorphology in="SourceGraphic" radius="3" result="inDouble"/><feComposite in="inDouble" in2="in2Double" operator="atop" result="doubleResult"/></filter><filter id="f" x="-50%" y="-50%" width="200%" height="200%"><feComposite in="SourceGraphic" in2="SourceGraphic" result="doubleDark"/><feMorphology in="doubleDark" operator="dilate" radius="0.16666666666666666" result="in2Double"/><feMorphology in="SourceGraphic" operator="dilate" radius="3" result="inDouble"/><feComposite in="inDouble" in2="in2Double" operator="out" result="doubleResult"/></filter><filter id="b" x="0" y="0" width="699" height="624.25" filterUnits="userSpaceOnUse"><feColorMatrix in="SourceGraphic" values="-1   0   0 0 0                   0  -1   0 0 0                   0   0  -1 0 0                   0   0   0 1 0"/></filter><marker id="c" stroke-dasharray="99999" markerHeight="12" markerUnits="userSpaceOnUse" markerWidth="12" orient="auto" preserveAspectRatio="none" refX="12" refY="6" viewBox="0 0 12 12"><path transform="rotate(180 6 6)" d="M12 11L0 6l12-5z" fill="currentColor" stroke-width="0"/></marker><marker id="d" stroke-dasharray="99999" markerHeight="24" markerUnits="userSpaceOnUse" markerWidth="20" orient="auto" preserveAspectRatio="none" refX="20" refY="12" viewBox="0 0 20 24"><g transform="rotate(180 10 12)" fill="none" stroke="#000"><path d="M15 12V5M15.5 5H8M0 5l8-4v8z"/></g></marker><symbol id="g" overflow="visible" preserveAspectRatio="none" viewBox="0 0 50 50"><ellipse cx="25" cy="25" rx="25" ry="25" stroke="currentColor" vector-effect="non-scaling-stroke"/></symbol><symbol id="a" preserveAspectRatio="none" viewBox="0 0 100 100"/></defs><g class="Viewport" color="black"  name="Name: Photodynamic therapy-induced NFE2L2 (NRF2) survival signaling Organism: Homo sapiens"><rect class="Icon" width="699" height="624.25" fill="#fff" stroke="#000" stroke-width="0"/><g id="h" class="DirectedInteraction" color="#000" ><g color="#000" fill="transparent"  filter="url(#b)" stroke="#000" stroke-dasharray="86.66777533315037, 5.8"><path class="EdgeBody" d="m384.24 165.17 48.544 78.701"   marker-end="url(#c)" /></g></g><g id="i" class="DirectedInteraction" color="#000" ><g color="#000" fill="transparent"  filter="url(#b)" stroke="#000" stroke-dasharray="66.30777718919283, 5.8"><path class="EdgeBody" d="m320.68 253.86 72.108 0.010334"   marker-end="url(#c)" /></g></g><g id="j" class="DirectedInteraction" color="#000" ><g color="#000" fill="transparent"  filter="url(#b)" stroke="#000" stroke-dasharray="103.23284762976145, 5.8"><path class="EdgeBody" d="m524.02 184.17-91.237 59.699"   marker-end="url(#c)" /></g></g><g class="SingleFreeNode Shape PhysicalEntity CellularComponent Nucleus" transform="translate(292.87 280.65)" color="#009999" ><g fill="#cff" filter="url(#e)" stroke="#099" stroke-width="3"><use class="Icon" transform="matrix(.95796 0 0 .92095 5.7478 5.5257)" width="273.45834900174515" height="139.80405159588906"    xlink:href="#g"/></g></g><g class="Label" transform="translate(308.17 232.84)" color="#000"  name="ROS"><use class="Icon" width="80" height="20" fill="transparent"  stroke="#000" stroke-width="0" xlink:href="#a"/><text class="Text" transform="translate(40,14)"   font-size="12px" font-weight="bold"  text-anchor="middle"><tspan x="0" y="0">ROS</tspan></text></g><g class="Label" transform="translate(286.31 334.09)" color="#000"  name="Gene  transcription"><use class="Icon" width="121.63847947761201" height="34.491543843283075" fill="transparent"  stroke="#000" stroke-width="0" xlink:href="#a"/><text class="Text" transform="translate(60.819 21.246)"   font-size="12px" font-weight="bold"  text-anchor="middle"><tspan x="0" y="-6.6000000000000005">Gene </tspan> <tspan x="0" y="6.6000000000000005">transcription</tspan></text></g><g class="GroupGroup" transform="translate(208.59 452.48)" color="grey" ><use class="Icon" width="140.00000000000003" height="133.57994277968288" fill="transparent"  stroke="grey" stroke-dasharray="5,3" stroke-width="0" xlink:href="#a"/><g class="Label" transform="translate(8,8)" color="#000"  name="Multidrug resistance"><use class="Icon" width="124.00000000000006" height="20" fill="transparent"  stroke="#000" stroke-width="0" xlink:href="#a"/><text class="Text" transform="translate(62 14)"   font-size="12px"  text-anchor="middle"><tspan x="0" y="0">Multidrug resistance</tspan></text></g><a  class="GeneProduct ABCG2 " transform="translate(30.002 105.58)"   name="ABCG2"  ><rect class="Icon" transform="matrix(.98765 0 0 .95238 .49383 .47619)" width="80" height="20" fill="#fff" stroke="#000"/><text class="Text" transform="translate(40,13)"   font-size="10px"  text-anchor="middle"><tspan x="0" y="0">ABCG2</tspan></text></a><a  class="GeneProduct ABCC3 " transform="translate(30 46.38)"   name="ABCC3"  ><rect class="Icon" transform="matrix(.98765 0 0 .95238 .49383 .47619)" width="80" height="20" fill="#fff" stroke="#000"/><text class="Text" transform="translate(40,13)"   font-size="10px"  text-anchor="middle"><tspan x="0" y="0">ABCC3</tspan></text></a><a  class="GeneProduct ABCC2 " transform="translate(30 26.311)"   name="ABCC2"  ><rect class="Icon" transform="matrix(.98765 0 0 .95238 .49383 .47619)" width="80" height="20" fill="#fff" stroke="#000"/><text class="Text" transform="translate(40,13)"   font-size="10px"  text-anchor="middle"><tspan x="0" y="0">ABCC2</tspan></text></a><a  class="GeneProduct ABCC4 " transform="translate(30 65.971)"   name="ABCC4"  ><rect class="Icon" transform="matrix(.98765 0 0 .95238 .49383 .47619)" width="80" height="20" fill="#fff" stroke="#000"/><text class="Text" transform="translate(40,13)"   font-size="10px"  text-anchor="middle"><tspan x="0" y="0">ABCC4</tspan></text></a><a  class="GeneProduct ABCC6 " transform="translate(30 85.567)"   name="ABCC6"  ><rect class="Icon" transform="matrix(.98765 0 0 .95238 .49383 .47619)" width="80" height="20" fill="#fff" stroke="#000"/><text class="Text" transform="translate(40,13)"   font-size="10px"  text-anchor="middle"><tspan x="0" y="0">ABCC6</tspan></text></a></g><a  class="GeneProduct KEAP1 " transform="translate(490.93 222.48)"   name="KEAP1"  ><rect class="Icon" transform="matrix(.98765 0 0 .95238 .49383 .47619)" width="80" height="20" fill="#fff" stroke="#000"/><g class="Burr State" transform="translate(77.713 -.011819)" color="#000"  name="OH"><use class="Icon" width="20.57397388059644" height="18.02363805970208" fill="transparent"  stroke="#000" stroke-width="0" xlink:href="#a"/><text class="Text" transform="translate(10.287 12.012)"   font-size="10px"  text-anchor="middle"><tspan x="0" y="0">OH</tspan></text></g><g class="Burr State" transform="translate(-19.5,1.5)" color="#000"  name="OH"><use class="Icon" width="15" height="15" fill="transparent"  stroke="#000" stroke-width="0" xlink:href="#a"/><text class="Text" transform="translate(7.5,10.5)"   font-size="10px"  text-anchor="middle"><tspan x="0" y="0">OH</tspan></text></g><text class="Text" transform="translate(40,13)"   font-size="10px"  text-anchor="middle"><tspan x="0" y="0">KEAP1</tspan></text></a><g class="GroupGroup" transform="translate(384.76 305.64)" color="grey" ><use class="Icon" width="96" height="76.00000000000006" fill="transparent"  stroke="grey" stroke-dasharray="5,3" stroke-width="0" xlink:href="#a"/><a  class="GeneProduct JUN " transform="translate(8 28)"   name="JUN"  ><rect class="Icon" transform="matrix(.98765 0 0 .95238 .49383 .47619)" width="80" height="20" fill="#fff" stroke="#000"/><text class="Text" transform="translate(40,13)"   font-size="10px"  text-anchor="middle"><tspan x="0" y="0">JUN</tspan></text></a><a  class="GeneProduct FOS " transform="translate(8 48)"   name="FOS"  ><rect class="Icon" transform="matrix(.98765 0 0 .95238 .49383 .47619)" width="80" height="20" fill="#fff" stroke="#000"/><text class="Text" transform="translate(40,13)"   font-size="10px"  text-anchor="middle"><tspan x="0" y="0">FOS</tspan></text></a><a  class="GeneProduct NFE2L2 " transform="translate(8,8)"   name="NFE2L2"  ><rect class="Icon" transform="matrix(.98765 0 0 .95238 .49383 .47619)" width="80" height="20" fill="#fff" stroke="#000"/><text class="Text" transform="translate(40,13)"   font-size="10px"  text-anchor="middle"><tspan x="0" y="0">NFE2L2</tspan></text></a></g><g class="GroupGroup" transform="translate(326.24 452.48)" color="grey" ><use class="Icon" width="212.95000000000005" height="114.53051640899929" fill="transparent"  stroke="grey" stroke-dasharray="5,3" stroke-width="0" xlink:href="#a"/><a  class="GeneProduct GCLM " transform="translate(66.475 66.489)"   name="GCLM"  ><rect class="Icon" transform="matrix(.98765 0 0 .95238 .49383 .47619)" width="80" height="20" fill="#fff" stroke="#000"/><text class="Text" transform="translate(40,13)"   font-size="10px"  text-anchor="middle"><tspan x="0" y="0">GCLM</tspan></text></a><a  class="GeneProduct GCLC " transform="translate(66.475 45.851)"   name="GCLC"  ><rect class="Icon" transform="matrix(.98765 0 0 .95451 .49383 .47725)" width="80" height="20.981" fill="#fff" stroke="#000"/><text class="Text" transform="translate(40 13.49)"   font-size="10px"  text-anchor="middle"><tspan x="0" y="0">GCLC</tspan></text></a><a  class="GeneProduct GSTP1 " transform="translate(66.475 86.531)"   name="GSTP1"  ><rect class="Icon" transform="matrix(.98765 0 0 .95238 .49383 .47619)" width="80" height="20" fill="#fff" stroke="#000"/><text class="Text" transform="translate(40,13)"   font-size="10px"  text-anchor="middle"><tspan x="0" y="0">GSTP1</tspan></text></a><a  class="GeneProduct HMOX1 " transform="translate(66.475 26.311)"   name="HMOX1"  ><rect class="Icon" transform="matrix(.98765 0 0 .95238 .49383 .47619)" width="80" height="20" fill="#fff" stroke="#000"/><text class="Text" transform="translate(40,13)"   font-size="10px"  text-anchor="middle"><tspan x="0" y="0">HMOX1</tspan></text></a><g class="Label" transform="translate(8,8)" color="#000"  name="Antioxidant synthesis/recycling"><use class="Icon" width="196.95" height="20" fill="transparent"  stroke="#000" stroke-width="0" xlink:href="#a"/><text class="Text" transform="translate(98.475,14)"   font-size="12px"  text-anchor="middle"><tspan x="0" y="0">Antioxidant synthesis/recycling</tspan></text></g></g><g class="GroupGroup" transform="translate(435.83 127.89)" color="grey" ><use class="Icon" width="176.37546116361472" height="56.28764017855633" fill="transparent"  stroke="grey" stroke-dasharray="5,3" stroke-width="0" xlink:href="#a"/><a  class="GeneProduct MAPK12 " transform="translate(8 28.288)"   name="MAPK12"  ><rect class="Icon" transform="matrix(.98765 0 0 .95238 .49383 .47619)" width="80" height="20" fill="#fff" stroke="#000"/><text class="Text" transform="translate(40,13)"   font-size="10px"  text-anchor="middle"><tspan x="0" y="0">MAPK12</tspan></text></a><a  class="GeneProduct MAPK13 " transform="translate(88.375 8)"   name="MAPK13"  ><rect class="Icon" transform="matrix(.98765 0 0 .95238 .49383 .47619)" width="80" height="20" fill="#fff" stroke="#000"/><text class="Text" transform="translate(40,13)"   font-size="10px"  text-anchor="middle"><tspan x="0" y="0">MAPK13</tspan></text></a><a  class="GeneProduct MAPK11 " transform="translate(8 8)"   name="MAPK11"  ><rect class="Icon" transform="matrix(.98765 0 0 .95238 .49383 .47619)" width="80" height="20" fill="#fff" stroke="#000"/><text class="Text" transform="translate(40,13)"   font-size="10px"  text-anchor="middle"><tspan x="0" y="0">MAPK11</tspan></text></a><a  class="GeneProduct MAPK14 " transform="translate(88.375 28.288)"   name="MAPK14"  ><rect class="Icon" transform="matrix(.98765 0 0 .95238 .49383 .47619)" width="80" height="20" fill="#fff" stroke="#000"/><text class="Text" transform="translate(40 13)"   font-size="10px"  text-anchor="middle"><tspan x="0" y="0">MAPK14</tspan></text></a></g><a  class="GeneProduct NFE2L2 " transform="translate(392.79 243.87)"   name="NFE2L2"  ><rect class="Icon" transform="matrix(.98765 0 0 .95238 .49383 .47619)" width="80" height="20" fill="#fff" stroke="#000"/><text class="Text" transform="translate(40,13)"   font-size="10px"  text-anchor="middle"><tspan x="0" y="0">NFE2L2</tspan></text></a><a  class="GeneProduct MAPK8 " transform="translate(344.24 145.17)"   name="MAPK8"  ><rect class="Icon" transform="matrix(.98765 0 0 .95238 .49383 .47619)" width="80" height="20" fill="#fff" stroke="#000"/><text class="Text" transform="translate(40,13)"   font-size="10px"  text-anchor="middle"><tspan x="0" y="0">MAPK8</tspan></text></a><g class="GroupGroup" transform="translate(224.68 225.87)" color="grey" ><use class="Icon" width="96" height="55.99001864263781" fill="transparent"  stroke="grey" stroke-dasharray="5,3" stroke-width="0" xlink:href="#a"/><a  class="GeneProduct KEAP1 " transform="translate(8 27.99)"   name="KEAP1"  ><rect class="Icon" transform="matrix(.98765 0 0 .95238 .49383 .47619)" width="80" height="20" fill="#fff" stroke="#000"/><text class="Text" transform="translate(40,13)"   font-size="10px"  text-anchor="middle"><tspan x="0" y="0">KEAP1</tspan></text></a><a  class="GeneProduct NFE2L2 " transform="translate(8,8)"   name="NFE2L2"  ><rect class="Icon" transform="matrix(.98765 0 0 .95238 .49383 .47619)" width="80" height="20" fill="#fff" stroke="#000"/><text class="Text" transform="translate(40,13)"   font-size="10px"  text-anchor="middle"><tspan x="0" y="0">NFE2L2</tspan></text></a></g><g class="GroupGroup" transform="translate(502.9 452.48)" color="grey" ><use class="Icon" width="170.4000000000006" height="133.21382740184475" fill="transparent"  stroke="grey" stroke-dasharray="5,3" stroke-width="0" xlink:href="#a"/><g class="Label" transform="translate(8,8)" color="#000"  name="Neutralization of toxins"><use class="Icon" width="154.40000000000063" height="20" fill="transparent"  stroke="#000" stroke-width="0" xlink:href="#a"/><text class="Text" transform="translate(77.2 14)"   font-size="12px"  text-anchor="middle"><tspan x="0" y="0">Neutralization of toxins</tspan></text></g><a  class="GeneProduct EPHX1 " transform="translate(45.2 65.914)"   name="EPHX1"  ><rect class="Icon" transform="matrix(.98765 0 0 .95238 .49383 .47619)" width="80" height="20" fill="#fff" stroke="#000"/><text class="Text" transform="translate(40,13)"   font-size="10px"  text-anchor="middle"><tspan x="0" y="0">EPHX1</tspan></text></a><a  class="GeneProduct CES1 " transform="translate(45.2 105.21)"   name="CES1"  ><rect class="Icon" transform="matrix(.98765 0 0 .95238 .49383 .47619)" width="80" height="20" fill="#fff" stroke="#000"/><text class="Text" transform="translate(40,13)"   font-size="10px"  text-anchor="middle"><tspan x="0" y="0">CES1</tspan></text></a><a  class="GeneProduct NQO2 " transform="translate(45.2 46.395)"   name="NQO2"  ><rect class="Icon" transform="matrix(.98765 0 0 .95238 .49383 .47619)" width="80" height="20" fill="#fff" stroke="#000"/><text class="Text" transform="translate(40,13)"   font-size="10px"  text-anchor="middle"><tspan x="0" y="0">NQO2</tspan></text></a><a  class="GeneProduct SRXN1 " transform="translate(45.2 85.564)"   name="SRXN1"  ><rect class="Icon" transform="matrix(.98765 0 0 .95238 .49383 .47619)" width="80" height="20" fill="#fff" stroke="#000"/><text class="Text" transform="translate(40,13)"   font-size="10px"  text-anchor="middle"><tspan x="0" y="0">SRXN1</tspan></text></a><a  class="GeneProduct NQO1 " transform="translate(45.2 26.311)"   name="NQO1"  ><rect class="Icon" transform="matrix(.98765 0 0 .95238 .49383 .47619)" width="80" height="20" fill="#fff" stroke="#000"/><text class="Text" transform="translate(40,13)"   font-size="10px"  text-anchor="middle"><tspan x="0" y="0">NQO1</tspan></text></a></g><g class="SingleFreeNode Shape PhysicalEntity CellularComponent Cell" transform="translate(197.09 121.86)" color="#006666" ><g fill="transparent"  filter="url(#f)" stroke="#066" stroke-width="3"><rect class="Icon" transform="matrix(.97528 0 0 .9753 5.8517 5.8518)" width="473.41" height="473.88" rx="15" ry="15"   /></g></g><g id="k" class="Interaction" color="#000" ><g color="#000" fill="transparent"  filter="url(#b)" stroke="#000" stroke-dasharray="158.66738841780207, 11"><path class="EdgeBody" d="m432.76 381.64-154.17 70.844"   marker-end="url(#d)" /></g></g><g id="l" class="Interaction" color="#000" ><g color="#000" fill="transparent"  filter="url(#b)" stroke="#000" stroke-dasharray="59.844256582680686, 11"><path class="EdgeBody" d="m432.76 381.64-0.049572 70.844"   marker-end="url(#d)" /></g></g><g id="m" class="Interaction" color="#000" ><g color="#000" fill="transparent"  filter="url(#b)" stroke="#000" stroke-dasharray="159.7320012818335, 11"><path class="EdgeBody" d="m432.76 381.64 155.34 70.844"   marker-end="url(#d)" /></g></g><g id="n" class="DirectedInteraction" color="#000" ><g color="#000" fill="transparent"  filter="url(#b)" stroke="#000" stroke-dasharray="43.9637512480684, 5.8"><path class="EdgeBody" d="m432.79 263.87-0.02286 49.764"   marker-end="url(#c)" /></g></g><text class="Text" transform="translate(5,27)" dominant-baseline="central" fill="black"  font-size="12px" font-weight="bold" overflow="visible" ><tspan x="0" y="-9">Name: Photodynamic therapy-induced NFE2L2 (NRF2) survival signaling</tspan> <tspan x="0" y="9">Organism: Homo sapiens</tspan></text></g></svg>
