<?xml version="1.0" encoding="UTF-8"?>
<!--
  WikiPathways page: https://www.wikipathways.org/index.php/Pathway:WP3666
  URL for this compressed file: https://github.com/eweitz/cachome/tree/main/data/wikipathways/WP3666.svg
  Source code for compression: https://github.com/eweitz/cachome/tree/main/src/wikipathways.py
-->
<svg class="Diagram" width="800" height="600" color="black" baseProfile="full" prefix="schema:http://schema.org/" preserveAspectRatio="xMidYMid" version="1.1" viewBox="0 0 1159.7 667.5" vocab="http://vocabularies.wikipathways.org/wp#" xmlns="http://www.w3.org/2000/svg" xmlns:xlink="http://www.w3.org/1999/xlink"><style>svg {font-family: 'Liberation Sans', Arial, sans-serif; }</style><defs><filter id="a" x="0" y="0" width="1159.7" height="667.5" filterUnits="userSpaceOnUse"><feColorMatrix in="SourceGraphic" values="-1   0   0 0 0                   0  -1   0 0 0                   0   0  -1 0 0                   0   0   0 1 0"/></filter><marker id="e" stroke-dasharray="99999" markerHeight="12" markerUnits="userSpaceOnUse" markerWidth="12" orient="auto" preserveAspectRatio="none" refX="12" refY="6" viewBox="0 0 12 12"><path transform="rotate(180 6 6)" d="M12 11L0 6l12-5z" fill="currentColor" stroke-width="0"/></marker><marker id="d" stroke-dasharray="99999" markerHeight="12" markerUnits="userSpaceOnUse" markerWidth="12" orient="auto" preserveAspectRatio="none" refX="12" refY="6" viewBox="0 0 12 12"><circle transform="rotate(180 6 6)" cx="6" cy="6" r="5.3" fill="none" stroke="#000"/></marker><marker id="b" stroke-dasharray="99999" markerHeight="12" markerUnits="userSpaceOnUse" markerWidth="12" orient="auto" preserveAspectRatio="none" refX="12" refY="6" viewBox="0 0 12 12"><path transform="rotate(180 6 6)" d="M12 11L0 6l12-5z" fill="currentColor" stroke-width="0"/></marker><symbol id="c" preserveAspectRatio="none" viewBox="0 0 100 100"/></defs><g class="Viewport" color="black"  name="Name: Metabolism of dichloroethylene by CYP450 Organism: Homo sapiens"><rect class="Icon" width="1159.7" height="667.5" fill="#fff" stroke="#000" stroke-width="0"/><g id="f" class="Interaction" color="#000" ><g color="#000" fill="transparent"  filter="url(#a)" stroke="#000" stroke-dasharray="314.4487314572846, 5.8"><path class="EdgeBody" d="m195 343.75 269.5 173"   marker-end="url(#b)" /></g><g class="Burr Anchor" transform="translate(343.62 439.15)" ><use class="Icon" width="0" height="0" fill="#141414" stroke-width="0" xlink:href="#c"/></g></g><g id="g" class="Interaction" color="#000" ><g color="#000" fill="transparent"  filter="url(#a)" stroke="#000" stroke-dasharray="323.49137932839966, 5.8"><path class="EdgeBody" d="m195 343.75 272.75-184.5"   marker-end="url(#b)" /></g><g class="Burr Anchor" transform="translate(343.3 243.44)" ><use class="Icon" width="0" height="0" fill="#141414" stroke-width="0" xlink:href="#c"/></g></g><g id="h" class="Interaction" color="#000" ><g color="#000" fill="transparent"  filter="url(#a)" stroke="#000" stroke-dasharray="204.6281254911375, 5.8"><path class="EdgeBody" d="m658.25 159.25h210.43"   marker-end="url(#b)" /></g><g class="Burr Anchor" transform="translate(751.86 159.25)" ><use class="Icon" width="0" height="0" fill="#141414" stroke-width="0" xlink:href="#c"/></g></g><g id="i" class="DirectedInteraction" color="#000" ><g color="#000" fill="transparent"  filter="url(#a)" stroke="#000" stroke-dasharray="41.7, 5.8"><path class="EdgeBody" d="m563 138.5v-47.5"   marker-end="url(#e)" /></g></g><g id="j" class="Interaction" color="#000" ><g color="#000" fill="transparent"  filter="url(#a)" stroke="#000" stroke-dasharray="207.87812549113727, 5.8"><path class="EdgeBody" d="m655 516.75h213.68"   marker-end="url(#b)" /></g><g class="Burr Anchor" transform="translate(751.85 516.75)" ><use class="Icon" width="0" height="0" fill="#141414" stroke-width="0" xlink:href="#c"/></g></g><g id="k" class="Interaction" color="#000" ><g color="#000" fill="transparent"  filter="url(#a)" stroke="#000" stroke-dasharray="221.93587510851611, 5.8"><path class="EdgeBody" d="m657 343.75 211.68-84"   marker-end="url(#b)" /></g><g class="Burr Anchor" transform="translate(752.07 306.02)" ><use class="Icon" width="0" height="0" fill="#141414" stroke-width="0" xlink:href="#c"/></g></g><g id="l" class="Interaction" color="#000" ><g color="#000" fill="transparent"  filter="url(#a)" stroke="#000" stroke-dasharray="219.44792742984708, 5.8"><path class="EdgeBody" d="m657 343.75 211.68 77"   marker-end="url(#b)" /></g></g><g id="m" class="Interaction" color="#000" ><g color="#000" fill="transparent"  filter="url(#a)" stroke="#000" stroke-dasharray="29.352281704433267, 11"><path class="EdgeBody" d="m343 479.5 0.61828-40.348"   marker-end="url(#d)" /></g></g><g id="n" class="Interaction" color="#000" ><g color="#000" fill="transparent"  filter="url(#a)" stroke="#000" stroke-dasharray="31.43760363750934, 11"><path class="EdgeBody" d="m343 201 0.29532 42.437"   marker-end="url(#d)" /></g></g><g id="o" class="Interaction" color="#000" ><g color="#000" fill="transparent"  filter="url(#a)" stroke="#000" stroke-dasharray="35.75022765459521, 11"><path class="EdgeBody" d="m752 563.5-0.1459-46.75"   marker-end="url(#d)" /></g></g><g id="p" class="Interaction" color="#000" ><g color="#000" fill="transparent"  filter="url(#a)" stroke="#000" stroke-dasharray="265.7, 5.8"><path class="EdgeBody" d="m195 343.75h271.5"   marker-end="url(#b)" /></g><g class="Burr Anchor" transform="translate(343 343.75)" ><use class="Icon" width="0" height="0" fill="#141414" stroke-width="0" xlink:href="#c"/></g></g><g id="q" class="Interaction" color="#000" ><g color="#000" fill="transparent"  filter="url(#a)" stroke="#000" stroke-dasharray="18.75, 11"><path class="EdgeBody" d="m343 314v29.75"   marker-end="url(#d)" /></g></g><g id="r" class="Interaction" color="#000" ><g color="#000" fill="transparent"  filter="url(#a)" stroke="#000" stroke-dasharray="33.2502316520491, 11"><path class="EdgeBody" d="m752 115-0.14318 44.25"   marker-end="url(#d)" /></g></g><g id="s" class="Interaction" color="#000" ><g color="#000" fill="transparent"  filter="url(#a)" stroke="#000" stroke-dasharray="52.7, 5.8"><path class="EdgeBody" d="m559.75 537.5v58.5"   marker-end="url(#b)" /></g></g><a class="PubChem-compound_11954071 Metabolite ChEBI_CHEBI_34302  " transform="translate(868.68 239)" color="#00f"  name="2-S-Glutathionyl acetate"  ><rect class="Icon" transform="matrix(.99618 0 0 .97647 .49809 .48824)" width="261.04" height="41.5" fill="#fff" stroke="#00f"/><text class="Text" transform="translate(130.52 24.75)" fill="#00f"  font-size="12px"  text-anchor="middle"><tspan x="0" y="0">2-S-Glutathionyl acetate</tspan></text></a><a class="Metabolite ChEBI_CHEBI_27869  " transform="translate(464.5,596)" color="#00f"  name="Chloroacetic acid"  ><rect class="Icon" transform="matrix(.99478 0 0 .97647 .49739 .48824)" width="190.5" height="41.5" fill="#fff" stroke="#00f"/><text class="Text" transform="translate(95.25,24.75)" fill="#00f"  font-size="12px"  text-anchor="middle"><tspan x="0" y="0">Chloroacetic acid</tspan></text></a><g class="Metabolite ChEBI_CHEBI_34959  " transform="translate(868.68 496)" color="#00f"  name="S-(2-Chloroacetyl)glutathione"><rect class="Icon" transform="matrix(.99618 0 0 .97647 .49809 .48824)" width="261.04" height="41.5" fill="#fff" stroke="#00f"/><text class="Text" transform="translate(130.52 24.75)" fill="#00f"  font-size="12px"  text-anchor="middle"><tspan x="0" y="0">S-(2-Chloroacetyl)glutathione</tspan></text></g><a class="Metabolite ChEBI_CHEBI_34253  " transform="translate(868.68 400)" color="#00f"  name="2-(S-Glutathionyl)acetyl chloride"  ><rect class="Icon" transform="matrix(.99618 0 0 .97647 .49809 .48824)" width="261.04" height="41.5" fill="#fff" stroke="#00f"/><text class="Text" transform="translate(130.52 24.75)" fill="#00f"  font-size="12px"  text-anchor="middle"><tspan x="0" y="0">2-(S-Glutathionyl)acetyl chloride</tspan></text></a><a class="PubChem-compound_85275 Metabolite ChEBI_CHEBI_34213  " transform="translate(467.75,49.5)" color="#00f"  name="2,2-dichloro-1,1-ethanediol"  ><rect class="Icon" transform="matrix(.99478 0 0 .97647 .49739 .48824)" width="190.5" height="41.5" fill="#fff" stroke="#00f"/><text class="Text" transform="translate(95.25,24.75)" fill="#00f"  font-size="12px"  text-anchor="middle"><tspan x="0" y="0">2,2-dichloro-1,1-ethanediol</tspan></text></a><a class="PubChem-compound_6366 Metabolite ChEBI_CHEBI_34031  " transform="translate(67.5,323)" color="#00f"  name="1,1-Dichloroethylene"  ><rect class="Icon" transform="matrix(.99222 0 0 .97647 .49611 .48824)" width="127.5" height="41.5" fill="#fff" stroke="#00f"/><text class="Text" transform="translate(63.75,24.75)" fill="#00f"  font-size="12px"  text-anchor="middle"><tspan x="0" y="0">1,1-Dichloroethylene</tspan></text></a><a class="Metabolite " transform="translate(466.5,323)" color="#00f"  name="1,1-Dichloroethylene epoxide"  ><rect class="Icon" transform="matrix(.99478 0 0 .97647 .49739 .48824)" width="190.5" height="41.5" fill="#fff" stroke="#00f"/><text class="Text" transform="translate(95.25,24.75)" fill="#00f"  font-size="12px"  text-anchor="middle"><tspan x="0" y="0">1,1-Dichloroethylene epoxide</tspan></text></a><g class="KEGG_Genes_119391 Protein" transform="translate(668.58 84.5)" color="#000"  name="glutathione S-transferase"><rect class="Icon" transform="matrix(.99404 0 0 .96825 .49702 .48413)" width="166.84" height="30.5" fill="#fff" stroke="#000"/><text class="Text" transform="translate(83.422 19.25)"   font-size="12px"  text-anchor="middle"><tspan x="0" y="0">glutathione S-transferase</tspan></text></g><a  class="GeneProduct CYP2E1 " transform="translate(307,171.5)"   name="CYP2E1"  ><rect class="Icon" transform="matrix(.9863 0 0 .96721 .49315 .48361)" width="72" height="29.5" fill="#fff" stroke="#000"/><text class="Text" transform="translate(36,18.75)"   font-size="12px"  text-anchor="middle"><tspan x="0" y="0">CYP2E1</tspan></text></a><a class="Metabolite " transform="translate(464.5,496)" color="#00f"  name="Chloroacetyl chloride"  ><rect class="Icon" transform="matrix(.99478 0 0 .97647 .49739 .48824)" width="190.5" height="41.5" fill="#fff" stroke="#00f"/><text class="Text" transform="translate(95.25,24.75)" fill="#00f"  font-size="12px"  text-anchor="middle"><tspan x="0" y="0">Chloroacetyl chloride</tspan></text></a><a class="PubChem-compound_11954070 Metabolite ChEBI_CHEBI_34958  " transform="translate(868.68 138.5)" color="#00f"  name="S-(2,2-dichloro-1-hydroxy)-1-ethyl glutathione"  ><rect class="Icon" transform="matrix(.99618 0 0 .97647 .49809 .48824)" width="261.04" height="41.5" fill="#fff" stroke="#00f"/><text class="Text" transform="translate(130.52 24.75)" fill="#00f"  font-size="12px"  text-anchor="middle"><tspan x="0" y="0">S-(2,2-dichloro-1-hydroxy)-1-ethyl glutathione</tspan></text></a><a class="Metabolite " transform="translate(467.75,138.5)" color="#00f"  name="2,2-Dichloroacetaldehyde"  ><rect class="Icon" transform="matrix(.99478 0 0 .97647 .49739 .48824)" width="190.5" height="41.5" fill="#fff" stroke="#00f"/><text class="Text" transform="translate(95.25,24.75)" fill="#00f"  font-size="12px"  text-anchor="middle"><tspan x="0" y="0">2,2-Dichloroacetaldehyde</tspan></text></a><a  class="GeneProduct CYP2E1 " transform="translate(307,284.5)"   name="CYP2E1"  ><rect class="Icon" transform="matrix(.9863 0 0 .96721 .49315 .48361)" width="72" height="29.5" fill="#fff" stroke="#000"/><text class="Text" transform="translate(36,18.75)"   font-size="12px"  text-anchor="middle"><tspan x="0" y="0">CYP2E1</tspan></text></a><g class="KEGG_Genes_119391 Protein" transform="translate(668.58 563.5)" color="#000"  name="glutathione S-transferase"><rect class="Icon" transform="matrix(.99404 0 0 .96825 .49702 .48413)" width="166.84" height="30.5" fill="#fff" stroke="#000"/><text class="Text" transform="translate(83.422 19.25)"   font-size="12px"  text-anchor="middle"><tspan x="0" y="0">glutathione S-transferase</tspan></text></g><a  class="GeneProduct CYP2E1 " transform="translate(307 479.5)"   name="CYP2E1"  ><rect class="Icon" transform="matrix(.9863 0 0 .96721 .49315 .48361)" width="72" height="29.5" fill="#fff" stroke="#000"/><text class="Text" transform="translate(36,18.75)"   font-size="12px"  text-anchor="middle"><tspan x="0" y="0">CYP2E1</tspan></text></a><g id="t" class="Interaction" color="#000" ><g color="#000" fill="transparent"  filter="url(#a)" stroke="#000" stroke-dasharray="37.022746242388045, 11"><path class="EdgeBody" d="m752 258 0.071973 48.023"   marker-end="url(#d)" /></g></g><g class="KEGG_Genes_119391 Protein" transform="translate(668.58 227.5)" color="#000"  name="glutathione S-transferase"><rect class="Icon" transform="matrix(.99404 0 0 .96825 .49702 .48413)" width="166.84" height="30.5" fill="#fff" stroke="#000"/><text class="Text" transform="translate(83.422 19.25)"   font-size="12px"  text-anchor="middle"><tspan x="0" y="0">glutathione S-transferase</tspan></text></g><text class="Text" transform="translate(5,27)" dominant-baseline="central" fill="black"  font-size="12px" font-weight="bold" overflow="visible" ><tspan x="0" y="-9">Name: Metabolism of dichloroethylene by CYP450</tspan> <tspan x="0" y="9">Organism: Homo sapiens</tspan></text></g></svg>
