<?xml version="1.0" encoding="UTF-8"?>
<!--
  WikiPathways page: https://www.wikipathways.org/index.php/Pathway:WP3675
  URL for this compressed file: https://github.com/eweitz/cachome/tree/main/data/wikipathways/WP3675.svg
  Source code for compression: https://github.com/eweitz/cachome/tree/main/src/wikipathways.py
-->
<svg class="Diagram" width="800" height="600" color="black" baseProfile="full" prefix="schema:http://schema.org/" preserveAspectRatio="xMidYMid" version="1.1" viewBox="0 0 1095.1 811.06" vocab="http://vocabularies.wikipathways.org/wp#" xmlns="http://www.w3.org/2000/svg" xmlns:xlink="http://www.w3.org/1999/xlink"><style>svg {font-family: 'Liberation Sans', Arial, sans-serif; }</style><defs><filter id="g" x="-50%" y="-50%" width="200%" height="200%"><feComposite in="SourceGraphic" in2="SourceGraphic" result="doubleDark"/><feMorphology in="doubleDark" operator="dilate" radius="0.16666666666666666" result="in2Double"/><feMorphology in="SourceGraphic" operator="dilate" radius="3" result="inDouble"/><feComposite in="inDouble" in2="in2Double" operator="out" result="doubleResult"/></filter><filter id="a" x="0" y="0" width="1095.1" height="811.06" filterUnits="userSpaceOnUse"><feColorMatrix in="SourceGraphic" values="-1   0   0 0 0                   0  -1   0 0 0                   0   0  -1 0 0                   0   0   0 1 0"/></filter><marker id="b" stroke-dasharray="99999" markerHeight="12" markerUnits="userSpaceOnUse" markerWidth="12" orient="auto" preserveAspectRatio="none" refX="12" refY="6" viewBox="0 0 12 12"><path transform="rotate(180 6 6)" d="M12 11L0 6l12-5z" fill="currentColor" stroke-width="0"/></marker><marker id="d" stroke-dasharray="99999" markerHeight="20" markerUnits="userSpaceOnUse" markerWidth="10" orient="auto" preserveAspectRatio="none" refX="10" refY="10" viewBox="0 0 10 20"><path d="m3 0v20" fill="currentColor" stroke="currentColor"/></marker><marker id="e" stroke-dasharray="99999" markerHeight="20" markerUnits="userSpaceOnUse" markerWidth="10" orient="auto" preserveAspectRatio="none" refX="10" refY="10" viewBox="0 0 10 20"><path d="m3 0v20" fill="currentColor" stroke="currentColor"/></marker><symbol id="f" overflow="visible" preserveAspectRatio="none" viewBox="0 0 100 100"><path d="M0 25L25 0h50l25 25v50l-25 25H25L0 75z" stroke="currentColor" vector-effect="non-scaling-stroke"/></symbol><symbol id="c" preserveAspectRatio="none" viewBox="0 0 100 100"/></defs><g class="Viewport" color="black"  name="Name: Factors and pathways affecting insulin-like growth factor (IGF1)-Akt signaling Organism: Mus musculus"><rect class="Icon" width="1095.1" height="811.06" fill="#fff" stroke="#000" stroke-width="0"/><g id="h" class="Interaction" color="#000" ><g color="#000" fill="transparent"  filter="url(#a)" stroke="#000" stroke-dasharray="88.17974485312799, 7"><path class="EdgeBody" d="m566.06 395.5 59.601 74.208"   marker-end="url(#d)" /></g></g><g id="i" class="DirectedInteraction" color="#000" ><g color="#000" fill="transparent"  filter="url(#a)" stroke="#000" stroke-dasharray="36.2, 5.8"><path class="EdgeBody" d="m546.06 151.7v42"   marker-end="url(#b)" /></g></g><g id="j" class="DirectedInteraction" color="#000" ><g color="#000" fill="transparent"  filter="url(#a)" stroke="#000" stroke-dasharray="108.40218466611812, 5.8"><path class="EdgeBody" d="m757.53 669.9-1.3e-12 -114.2"   marker-end="url(#b)" /></g></g><g id="k" class="DirectedInteraction" color="#000" ><g color="#000" fill="transparent"  filter="url(#a)" stroke="#000" stroke-dasharray="45.27997118184293, 5.8"><path class="EdgeBody" d="m717.53 545.7-51.08 0.02061"   marker-end="url(#b)" /></g></g><g id="l" class="DirectedInteraction" color="#000" ><g color="#000" fill="transparent"  filter="url(#a)" stroke="#000" stroke-dasharray="40.216010155942726, 5.8"><path class="EdgeBody" d="m625.66 489.71 0.79496 46.009"   marker-end="url(#b)" /></g><g class="Burr Anchor" transform="translate(626.08 513.93)" ><use class="Icon" width="0" height="0" fill="#141414" stroke-width="0" xlink:href="#c"/></g></g><g id="m" class="DirectedInteraction" color="#000" ><g color="#000" fill="transparent"  filter="url(#a)" stroke="#000" stroke-dasharray="82.45000000000006, 5.8"><path class="EdgeBody" d="m215.06 179.21h88.25"   marker-end="url(#b)" /></g></g><g id="n" class="DirectedInteraction" color="#000" ><g color="#000" fill="transparent"  filter="url(#a)" stroke="#000" stroke-dasharray="54.24104187687123, 5.8"><path class="EdgeBody" d="m725.7 479.82-60.041-0.10408"   marker-end="url(#b)" /></g></g><g id="o" class="DirectedInteraction" color="#000" ><g color="#000" fill="transparent"  filter="url(#a)" stroke="#000" stroke-dasharray="29.00049797696847, 5.8"><path class="EdgeBody" d="m546.06 340.7v34.8"   marker-end="url(#b)" /></g></g><g id="p" class="DirectedInteraction" color="#000" ><g color="#000" fill="transparent"  filter="url(#a)" stroke="#000" stroke-dasharray="164.45420168067233, 5.8"><path class="EdgeBody" d="m383.31 179.21h142.75v-27.504"   marker-end="url(#b)" /></g></g><g id="q" class="DirectedInteraction" color="#000" ><g color="#000" fill="transparent"  filter="url(#a)" stroke="#000" stroke-dasharray="36.94709084662415, 5.8"><path class="EdgeBody" d="m546.34 277.96-0.28204 42.746"   marker-end="url(#b)" /></g></g><g id="r" class="DirectedInteraction" color="#000" ><g color="#000" fill="transparent"  filter="url(#a)" stroke="#000" stroke-dasharray="41.2, 5.8"><path class="EdgeBody" d="m546.06 84.704v47"   marker-end="url(#b)" /></g></g><g id="s" class="Interaction" color="#000" ><g color="#000" fill="transparent"  filter="url(#a)" stroke="#000" stroke-dasharray="69, 7"><path class="EdgeBody" d="m662.06 203.7h-76"   marker-end="url(#d)" /></g></g><g id="t" class="DirectedInteraction" color="#000" ><g color="#000" fill="transparent"  filter="url(#a)" stroke="#000" stroke-dasharray="36.2, 5.8"><path class="EdgeBody" d="m702.06 151.7v42"   marker-end="url(#b)" /></g></g><g id="u" class="Inhibition" color="#000" ><g color="#000" fill="transparent"  filter="url(#a)" stroke="#000" stroke-dasharray="78.79928681733367, 7"><path class="EdgeBody" d="m662.06 265.05-85.798 0.40264"   marker-end="url(#e)" /></g></g><g id="v" class="DirectedInteraction" color="#000" ><g color="#000" fill="transparent"  filter="url(#a)" stroke="#000" stroke-dasharray="41.2, 5.8"><path class="EdgeBody" d="m702.06 84.704v47"   marker-end="url(#b)" /></g></g><g id="w" class="DirectedInteraction" color="#000" ><g color="#000" fill="transparent"  filter="url(#a)" stroke="#000" stroke-dasharray="33.45485277702622, 5.8"><path class="EdgeBody" d="m546.06 213.7 0.28204 39.254"   marker-end="url(#b)" /></g></g><g id="x" class="DirectedInteraction" color="#000" ><g color="#000" fill="transparent"  filter="url(#a)" stroke="#000" stroke-dasharray="27.2, 5.8"><path class="EdgeBody" d="m102.06 323.7h33"   marker-end="url(#b)" /></g></g><g id="y" class="Inhibition" color="#000" ><g color="#000" fill="transparent"  filter="url(#a)" stroke="#000" stroke-dasharray="39.69389290880947, 7"><path class="EdgeBody" d="m459.36 74.935 46.693-0.23083"   marker-end="url(#e)" /></g></g><g id="z" class="DirectedInteraction" color="#000" ><g color="#000" fill="transparent"  filter="url(#a)" stroke="#000" stroke-dasharray="48.572570379503105, 5.8"><path class="EdgeBody" d="m215.06 323.7 54.371 0.47255"   marker-end="url(#b)" /></g></g><g id="aa" class="Inhibition" color="#000" ><g color="#000" fill="transparent"  filter="url(#a)" stroke="#000" stroke-dasharray="106.9574306410297, 7"><path class="EdgeBody" d="m453.43 324.18h20v61.328h32.629"   marker-end="url(#e)" /></g></g><g id="ab" class="DirectedInteraction" color="#000" ><g color="#000" fill="transparent"  filter="url(#a)" stroke="#000" stroke-dasharray="198.96981956292325, 5.8"><path class="EdgeBody" d="m144 481 204.76-1.5539"   marker-end="url(#b)" /></g></g><g id="ac" class="Interaction" color="#000" ><g color="#000" fill="transparent"  filter="url(#a)" stroke="#000" stroke-dasharray="110.3735625888115, 7"><path class="EdgeBody" d="m374.76 447.45-59.338-101.27"   marker-end="url(#d)" /></g></g><g id="ad" class="Interaction" color="#000" ><g color="#000" fill="transparent"  filter="url(#a)" stroke="#000" stroke-dasharray="5.04, 3.02, 5.04, 3.02, 5.04, 3.02, 5.04, 3.02, 5.04, 3.02, 5.04, 3.02, 5.04, 3.02, 5.04, 3.02, 5.04, 3.02, 5.04, 3.02, 5.04, 3.02, 5.04, 3.02, 5.04, 3.02, 5.04, 3.02, 5.04, 3.02, 5.04, 7"><path class="EdgeBody" d="m585.66 479.71-132.89-0.26651"   marker-end="url(#d)" /></g></g><g id="ae" class="DirectedInteraction" color="#000" ><g color="#000" fill="transparent"  filter="url(#a)" stroke="#000" stroke-dasharray="47.741358728603274, 5.8"><path class="EdgeBody" d="m400.76 511.45-0.31735 53.54"   marker-end="url(#b)" /></g></g><g id="af" class="DirectedInteraction" color="#000" ><g color="#000" fill="transparent"  filter="url(#a)" stroke="#000" stroke-dasharray="112.5342727530935, 5.8"><path class="EdgeBody" d="m265.16 379.7 83.608 83.742"   marker-end="url(#b)" /></g></g><g id="ag" class="DirectedInteraction" color="#000" ><g color="#000" fill="transparent"  filter="url(#a)" stroke="#000" stroke-dasharray="5.06, 3.04, 5.06, 3.04, 5.06, 3.04, 5.06, 3.04, 5.06, 3.04, 5.06, 3.04, 5.06, 3.04, 5.06, 3.04, 5.06, 3.04, 5.06, 3.04, 5.06, 3.04, 5.06, 5.8"><path class="EdgeBody" d="m526.06 395.5-73.292 67.942"   marker-end="url(#b)" /></g></g><g id="ah" class="DirectedInteraction" color="#000" ><g color="#000" fill="transparent"  filter="url(#a)" stroke="#000" stroke-dasharray="26.066417773860586, 5.8"><path class="EdgeBody" d="m756.71 721.76 0.8244-31.856"   marker-end="url(#b)" /></g></g><g class="SingleFreeNode Shape PhysicalEntity CellularComponent Cell" transform="translate(176.02 142.41)" color="#c0c0c0" ><g fill="transparent"  filter="url(#g)" stroke="#c0c0c0" stroke-width="3"><rect class="Icon" transform="matrix(.9826 0 0 .97825 5.8956 5.8695)" width="677.48" height="539.76" rx="15" ry="15"   /></g></g><g class="Label" transform="translate(64,471)" color="#000"  name="Amino Acids"><use class="Icon" width="80" height="20" fill="transparent"  stroke="#000" stroke-width="0" xlink:href="#c"/><text class="Text" transform="translate(40,14)"   font-size="12px" font-weight="bold"  text-anchor="middle"><tspan x="0" y="0">Amino Acids</tspan></text></g><g class="Label" transform="translate(222.5 633.36)" color="#666666"  name="Skeletal muscle cell"><use class="Icon" width="188.02521008403673" height="20" fill="transparent"  stroke="#666666" stroke-width="0" xlink:href="#c"/><text class="Text" transform="translate(94.013 15)" fill="#666666"  font-size="16px" font-weight="bold"  text-anchor="middle"><tspan x="0" y="0">Skeletal muscle cell</tspan></text></g><g class="Label" transform="translate(516.42 252.96)" color="#000"  name="PI3K"><use class="Icon" width="59.83924154987632" height="25" fill="transparent"  stroke="#000" stroke-width="0" xlink:href="#c"/><text class="Text" transform="translate(29.92 16.5)"   font-size="12px" font-weight="bold"  text-anchor="middle"><tspan x="0" y="0">PI3K</tspan></text></g><a  class="GeneProduct P594_ENSMUSG00000029167 " transform="translate(668.81 503.54)"   name="PGC1"  ><rect class="Icon" transform="matrix(.98765 0 0 .95238 .49383 .47619)" width="80" height="20" fill="#fff" stroke="#000"/><text class="Text" transform="translate(40,13)"   font-size="10px"  text-anchor="middle"><tspan x="0" y="0">PGC1</tspan></text></a><a  class="Uniprot-TrEMBL_Q9R1E0 GeneProduct P594_ENSMUSG00000044167 " transform="translate(585.66 469.71)"   name="FoxO"  ><rect class="Icon" transform="matrix(.98765 0 0 .95238 .49383 .47619)" width="80" height="20" fill="#fff" stroke="#000"/><text class="Text" transform="translate(40,13)"   font-size="10px"  text-anchor="middle"><tspan x="0" y="0">FoxO</tspan></text></a><a  class="GeneProduct P594_ENSMUSG00000029513 " transform="translate(185.16 523.7)"   name="AMPK"  ><rect class="Icon" transform="matrix(.98765 0 0 .95238 .49383 .47619)" width="80" height="20" fill="#fff" stroke="#000"/><text class="Text" transform="translate(40,13)"   font-size="10px"  text-anchor="middle"><tspan x="0" y="0">AMPK</tspan></text></a><a  class="GeneProduct P594_ENSMUSG00000026100 " transform="translate(22.056 313.7)"   name="Myostatin"  ><rect class="Icon" transform="matrix(.98765 0 0 .95238 .49383 .47619)" width="80" height="20" fill="#fff" stroke="#000"/><text class="Text" transform="translate(40,13)"   font-size="10px"  text-anchor="middle"><tspan x="0" y="0">Myostatin</tspan></text></a><a  class="GeneProduct P594_ENSMUSG00000001729 " transform="translate(506.06 375.5)"   name="AKT1"  ><rect class="Icon" transform="matrix(.98765 0 0 .95238 .49383 .47619)" width="80" height="20" fill="#fff" stroke="#000"/><text class="Text" transform="translate(40,13)"   font-size="10px"  text-anchor="middle"><tspan x="0" y="0">AKT1</tspan></text></a><a  class="GeneProduct P594_ENSMUSG00000025809 " transform="translate(135.06 169.21)"   name="Integrin B1"  ><rect class="Icon" transform="matrix(.98765 0 0 .95238 .49383 .47619)" width="80" height="20" fill="#fff" stroke="#000"/><text class="Text" transform="translate(40,13)"   font-size="10px"  text-anchor="middle"><tspan x="0" y="0">Integrin B1</tspan></text></a><a  class="GeneProduct P594_ENSMUSG00000030341 " transform="translate(717.53 669.9)"   name="TNFrec"  ><rect class="Icon" transform="matrix(.98765 0 0 .95238 .49383 .47619)" width="80" height="20" fill="#fff" stroke="#000"/><text class="Text" transform="translate(40,13)"   font-size="10px"  text-anchor="middle"><tspan x="0" y="0">TNFrec</tspan></text></a><a  class="GeneProduct P594_ENSMUSG00000028834 " transform="translate(586.45 535.72)"   name="MURF1"  ><rect class="Icon" transform="matrix(.98765 0 0 .95238 .49383 .47619)" width="80" height="20" fill="#fff" stroke="#000"/><text class="Text" transform="translate(40,13)"   font-size="10px"  text-anchor="middle"><tspan x="0" y="0">MURF1</tspan></text></a><a  class="GeneProduct P594_ENSMUSG00000055980 " transform="translate(506.06 193.7)"   name="IRS1"  ><rect class="Icon" transform="matrix(.98765 0 0 .95238 .49383 .47619)" width="80" height="20" fill="#fff" stroke="#000"/><text class="Text" transform="translate(40,13)"   font-size="10px"  text-anchor="middle"><tspan x="0" y="0">IRS1</tspan></text></a><a  class="GeneProduct P594_ENSMUSG00000027695 " transform="translate(185.16 369.7)"   name="PLD1"  ><rect class="Icon" transform="matrix(.98765 0 0 .95238 .49383 .47619)" width="80" height="20" fill="#fff" stroke="#000"/><text class="Text" transform="translate(40,13)"   font-size="10px"  text-anchor="middle"><tspan x="0" y="0">PLD1</tspan></text></a><a  class="GeneProduct P594_ENSMUSG00000030341 " transform="translate(662.06 131.7)"   name="TNFrec"  ><rect class="Icon" transform="matrix(.98765 0 0 .95238 .49383 .47619)" width="80" height="20" fill="#fff" stroke="#000"/><text class="Text" transform="translate(40,13)"   font-size="10px"  text-anchor="middle"><tspan x="0" y="0">TNFrec</tspan></text></a><a  class="GeneProduct P594_ENSMUSG00000030890 " transform="translate(303.31 169.21)"   name="ILK"  ><rect class="Icon" transform="matrix(.98765 0 0 .95238 .49383 .47619)" width="80" height="20" fill="#fff" stroke="#000"/><text class="Text" transform="translate(40,13)"   font-size="10px"  text-anchor="middle"><tspan x="0" y="0">ILK</tspan></text></a><a  class="GeneProduct P594_ENSMUSG00000006494 " transform="translate(506.06 320.7)"   name="PDK1"  ><rect class="Icon" transform="matrix(.98765 0 0 .95238 .49383 .47619)" width="80" height="20" fill="#fff" stroke="#000"/><text class="Text" transform="translate(40,13)"   font-size="10px"  text-anchor="middle"><tspan x="0" y="0">PDK1</tspan></text></a><a  class="GeneProduct P594_ENSMUSG00000020516 " transform="translate(374.68 564.99)"   name="S6K"  ><rect class="Icon" transform="matrix(.98097 0 0 .95238 .49048 .47619)" width="51.539" height="20" fill="#fff" stroke="#000"/><text class="Text" transform="translate(25.769 13)"   font-size="10px"  text-anchor="middle"><tspan x="0" y="0">S6K</tspan></text></a><a  class="GeneProduct P594_ENSMUSG00000029513 " transform="translate(725.7 469.82)"   name="AMPK"  ><rect class="Icon" transform="matrix(.98765 0 0 .95238 .49383 .47619)" width="80" height="20" fill="#fff" stroke="#000"/><text class="Text" transform="translate(40,13)"   font-size="10px"  text-anchor="middle"><tspan x="0" y="0">AMPK</tspan></text></a><a  class="GeneProduct P594_ENSMUSG00000013663 " transform="translate(662.06 255.05)"   name="PTEN"  ><rect class="Icon" transform="matrix(.98765 0 0 .95238 .49383 .47619)" width="80" height="20" fill="#fff" stroke="#000"/><text class="Text" transform="translate(40,13)"   font-size="10px"  text-anchor="middle"><tspan x="0" y="0">PTEN</tspan></text></a><a  class="GeneProduct P594_ENSMUSG00000005533 " transform="translate(506.06 131.7)"   name="IGF1rec"  ><rect class="Icon" transform="matrix(.98765 0 0 .95238 .49383 .47619)" width="80" height="20" fill="#fff" stroke="#000"/><text class="Text" transform="translate(40,13)"   font-size="10px"  text-anchor="middle"><tspan x="0" y="0">IGF1rec</tspan></text></a><a  class="GeneProduct P594_ENSMUSG00000024401 " transform="translate(662.06 64.704)"   name="TNFa"  ><rect class="Icon" transform="matrix(.98765 0 0 .95238 .49383 .47619)" width="80" height="20" fill="#fff" stroke="#000"/><text class="Text" transform="translate(40,13)"   font-size="10px"  text-anchor="middle"><tspan x="0" y="0">TNFa</tspan></text></a><a  class="Uniprot-TrEMBL_Q8BI36 Protein P594_ENSMUSG00000005078 " transform="translate(662.06 193.7)"   name="JNK"  ><rect class="Icon" transform="matrix(.98765 0 0 .95238 .49383 .47619)" width="80" height="20" fill="#fff" stroke="#000"/><text class="Text" transform="translate(40,13)"   font-size="10px"  text-anchor="middle"><tspan x="0" y="0">JNK</tspan></text></a><a  class="GeneProduct P594_ENSMUSG00000020053 " transform="translate(506.06 64.704)"   name="IGF1"  ><rect class="Icon" transform="matrix(.98765 0 0 .95238 .49383 .47619)" width="80" height="20" fill="#fff" stroke="#000"/><text class="Text" transform="translate(40,13)"   font-size="10px"  text-anchor="middle"><tspan x="0" y="0">IGF1</tspan></text></a><a  class="GeneProduct P594_ENSMUSG00000061393 " transform="translate(135.06 313.7)"   name="ActRIIB"  ><rect class="Icon" transform="matrix(.98765 0 0 .95238 .49383 .47619)" width="80" height="20" fill="#fff" stroke="#000"/><text class="Text" transform="translate(40,13)"   font-size="10px"  text-anchor="middle"><tspan x="0" y="0">ActRIIB</tspan></text></a><a  class="GeneProduct P594_ENSMUSG00000028163 " transform="translate(717.53 535.7)"   name="NFKB1"  ><rect class="Icon" transform="matrix(.98765 0 0 .95238 .49383 .47619)" width="80" height="20" fill="#fff" stroke="#000"/><text class="Text" transform="translate(40,13)"   font-size="10px"  text-anchor="middle"><tspan x="0" y="0">NFKB1</tspan></text></a><g class="GroupGroup" transform="translate(202.18 36.63)" color="grey" ><use class="Icon" width="257.18713932399044" height="76.61005770816163" fill="transparent"  stroke="grey" stroke-dasharray="5,3" stroke-width="0" xlink:href="#c"/><a  class="GeneProduct P594_ENSMUSG00000026185 " transform="translate(88.181 28.61)"   name="Igfbp5"  ><rect class="Icon" transform="matrix(.98765 0 0 .95238 .49383 .47619)" width="80" height="20" fill="#fff" stroke="#000"/><text class="Text" transform="translate(40,13)"   font-size="10px"  text-anchor="middle"><tspan x="0" y="0">Igfbp5</tspan></text></a><a  class="GeneProduct P594_ENSMUSG00000020429 " transform="translate(8 8.3957)"   name="Igfbp1"  ><rect class="Icon" transform="matrix(.98765 0 0 .95238 .49383 .47619)" width="80" height="20" fill="#fff" stroke="#000"/><text class="Text" transform="translate(40,13)"   font-size="10px"  text-anchor="middle"><tspan x="0" y="0">Igfbp1</tspan></text></a><a  class="GeneProduct P594_ENSMUSG00000020427 " transform="translate(8 48.396)"   name="Igfbp3"  ><rect class="Icon" transform="matrix(.98765 0 0 .95238 .49383 .47619)" width="80" height="20" fill="#fff" stroke="#000"/><text class="Text" transform="translate(40,13)"   font-size="10px"  text-anchor="middle"><tspan x="0" y="0">Igfbp3</tspan></text></a><a  class="GeneProduct P594_ENSMUSG00000017493 " transform="translate(88.181 8.6101)"   name="Igfbp4"  ><rect class="Icon" transform="matrix(.98765 0 0 .95238 .49383 .47619)" width="80" height="20" fill="#fff" stroke="#000"/><text class="Text" transform="translate(40,13)"   font-size="10px"  text-anchor="middle"><tspan x="0" y="0">Igfbp4</tspan></text></a><a  class="GeneProduct P594_ENSMUSG00000039323 " transform="translate(8 28.396)"   name="Igfbp2"  ><rect class="Icon" transform="matrix(.98765 0 0 .95238 .49383 .47619)" width="80" height="20" fill="#fff" stroke="#000"/><text class="Text" transform="translate(40,13)"   font-size="10px"  text-anchor="middle"><tspan x="0" y="0">Igfbp2</tspan></text></a><a  class="GeneProduct P594_ENSMUSG00000036256 " transform="translate(169.19 8)"   name="Igfbp7"  ><rect class="Icon" transform="matrix(.98765 0 0 .95238 .49383 .47619)" width="80" height="20" fill="#fff" stroke="#000"/><text class="Text" transform="translate(40,13)"   font-size="10px"  text-anchor="middle"><tspan x="0" y="0">Igfbp7</tspan></text></a><a  class="GeneProduct P594_ENSMUSG00000023046 " transform="translate(88.181 48.61)"   name="Igfbp6"  ><rect class="Icon" transform="matrix(.98765 0 0 .95238 .49383 .47619)" width="80" height="20" fill="#fff" stroke="#000"/><text class="Text" transform="translate(40,13)"   font-size="10px"  text-anchor="middle"><tspan x="0" y="0">Igfbp6</tspan></text></a></g><g class="GroupComplex" transform="translate(269.43 302.18)" color="grey" ><use class="Icon" transform="matrix(.99459 0 0 .97778 .4973 .48889)" width="184.00000000000006" height="44" fill="#b4b464" fill-opacity=".1" stroke="grey" xlink:href="#f"/><a  class="GeneProduct P594_ENSMUSG00000032402 " transform="translate(92 12)"   name="SMAD3"  ><rect class="Icon" transform="matrix(.98765 0 0 .95238 .49383 .47619)" width="80" height="20" fill="#fff" stroke="#000"/><text class="Text" transform="translate(40,13)"   font-size="10px"  text-anchor="middle"><tspan x="0" y="0">SMAD3</tspan></text></a><a  class="GeneProduct P594_ENSMUSG00000024563 " transform="translate(12,12)"   name="SMAD2"  ><rect class="Icon" transform="matrix(.98765 0 0 .95238 .49383 .47619)" width="80" height="20" fill="#fff" stroke="#000"/><text class="Text" transform="translate(40 13)"   font-size="10px"  text-anchor="middle"><tspan x="0" y="0">SMAD2</tspan></text></a></g><g class="GroupComplex" transform="translate(348.76 447.45)" color="grey" ><use class="Icon" transform="matrix(.99048 0 0 .98462 .49524 .49231)" width="104" height="64" fill="#b4b464" fill-opacity=".1" stroke="grey" xlink:href="#f"/><a  class="GeneProduct P594_ENSMUSG00000028991 " transform="translate(12,32)"   name="MTOR"  ><rect class="Icon" transform="matrix(.98765 0 0 .95238 .49383 .47619)" width="80" height="20" fill="#fff" stroke="#000"/><text class="Text" transform="translate(40,13)"   font-size="10px"  text-anchor="middle"><tspan x="0" y="0">MTOR</tspan></text></a><a  class="Uniprot-TrEMBL_Q9JLN9 GeneProduct P594_ENSMUSG00000028991 " transform="translate(12,12)"   name="mTORC2"  ><rect class="Icon" transform="matrix(.98765 0 0 .95238 .49383 .47619)" width="80" height="20" fill="#fff" stroke="#000"/><text class="Text" transform="translate(40,13)"   font-size="10px"  text-anchor="middle"><tspan x="0" y="0">mTORC2</tspan></text></a></g><g class="GroupGroup" transform="translate(708.71 721.76)" color="grey" ><use class="Icon" width="96" height="56" fill="transparent"  stroke="grey" stroke-dasharray="5,3" stroke-width="0" xlink:href="#c"/><a  class="GeneProduct P594_ENSMUSG00000035678 " transform="translate(8,28)"   name="TWEAK"  ><rect class="Icon" transform="matrix(.98765 0 0 .95238 .49383 .47619)" width="80" height="20" fill="#fff" stroke="#000"/><text class="Text" transform="translate(40,13)"   font-size="10px"  text-anchor="middle"><tspan x="0" y="0">TWEAK</tspan></text></a><a  class="GeneProduct P594_ENSMUSG00000024401 " transform="translate(8,8)"   name="TNFa"  ><rect class="Icon" transform="matrix(.98765 0 0 .95238 .49383 .47619)" width="80" height="20" fill="#fff" stroke="#000"/><text class="Text" transform="translate(40,13)"   font-size="10px"  text-anchor="middle"><tspan x="0" y="0">TNFa</tspan></text></a></g><g id="ai" class="Inhibition" color="#000" ><g color="#000" fill="transparent"  filter="url(#a)" stroke="#000" stroke-dasharray="35.74056694795548, 7"><path class="EdgeBody" d="m668.81 513.54-42.739 0.38945"   marker-end="url(#e)" /></g></g><g id="aj" class="Interaction" color="#000" ><g color="#000" fill="transparent"  filter="url(#a)" stroke="#000" stroke-dasharray="84.94490892768164, 7"><path class="EdgeBody" d="m265.16 533.7 83.608-38.258"   marker-end="url(#d)" /></g></g><text class="Text" transform="translate(5,27)" dominant-baseline="central" fill="black"  font-size="12px" font-weight="bold" overflow="visible" ><tspan x="0" y="-9">Name: Factors and pathways affecting insulin-like growth factor (IGF1)-Akt signaling</tspan> <tspan x="0" y="9">Organism: Mus musculus</tspan></text></g></svg>
