<?xml version="1.0" encoding="UTF-8"?>
<!--
  WikiPathways page: https://www.wikipathways.org/index.php/Pathway:WP3625
  URL for this compressed file: https://github.com/eweitz/cachome/tree/main/data/wikipathways/WP3625.svg
  Source code for compression: https://github.com/eweitz/cachome/tree/main/src/wikipathways.py
-->
<svg class="Diagram" width="800" height="600" color="black" baseProfile="full" prefix="schema:http://schema.org/" preserveAspectRatio="xMidYMid" version="1.1" viewBox="0 0 1035 969" vocab="http://vocabularies.wikipathways.org/wp#" xmlns="http://www.w3.org/2000/svg" xmlns:xlink="http://www.w3.org/1999/xlink"><style>svg {font-family: 'Liberation Sans', Arial, sans-serif; }</style><defs><filter id="b" x="0" y="0" width="1035" height="969" filterUnits="userSpaceOnUse"><feColorMatrix in="SourceGraphic" values="-1   0   0 0 0                   0  -1   0 0 0                   0   0  -1 0 0                   0   0   0 1 0"/></filter><marker id="a" stroke-dasharray="99999" markerHeight="12" markerUnits="userSpaceOnUse" markerWidth="12" orient="auto" preserveAspectRatio="none" refX="12" refY="6" viewBox="0 0 12 12"><path transform="rotate(180 6 6)" d="M12 11L0 6l12-5z" fill="currentColor" stroke-width="0"/></marker></defs><g class="Viewport" color="black"  name="Name: Tyrobp causal network in microglia Organism: Mus musculus"><rect class="Icon" width="1035" height="969" fill="#fff" stroke="#000" stroke-width="0"/><g id="c" class="DirectedInteraction" color="#000" ><g color="#000" fill="transparent"  filter="url(#b)" stroke="#000" stroke-dasharray="68.85252842335616, 5.8"><path class="EdgeBody" d="m290.5 91 58 47"   marker-end="url(#a)" /></g></g><g class="GeneProduct" transform="translate(45,732)" color="grey"  name="Gimap2"><rect class="Icon" transform="matrix(.98182 0 0 .95238 .49091 .47619)" width="54" height="20" fill="#fff" stroke="grey"/><text class="Text" transform="translate(27,13)" fill="grey"  font-size="10px" stroke="black" stroke-width="0" text-anchor="middle"><tspan x="0" y="0">Gimap2</tspan></text></g><a  class="GeneProduct P594_ENSMUSG00000001750 " transform="translate(263,71)"   name="Tcirg1"  ><rect class="Icon" transform="matrix(.98214 0 0 .95238 .49107 .47619)" width="55" height="20" fill="#fff" stroke="#000"/><text class="Text" transform="translate(27.5,13)"   font-size="10px"  text-anchor="middle"><tspan x="0" y="0">Tcirg1</tspan></text></a><a  class="GeneProduct P594_ENSMUSG00000033308 " transform="translate(707,549)"   name="Dpyd"  ><rect class="Icon" transform="matrix(.98077 0 0 .95238 .49038 .47619)" width="51" height="20" fill="#fff" stroke="#000"/><text class="Text" transform="translate(25.5,13)"   font-size="10px"  text-anchor="middle"><tspan x="0" y="0">Dpyd</tspan></text></a><a  class="GeneProduct P594_ENSMUSG00000022876 " transform="translate(249,451)"   name="Samsn1"  ><rect class="Icon" transform="matrix(.98113 0 0 .95238 .49057 .47619)" width="52" height="20" fill="#fff" stroke="#000"/><text class="Text" transform="translate(26,13)"   font-size="10px"  text-anchor="middle"><tspan x="0" y="0">Samsn1</tspan></text></a><a  class="GeneProduct P594_ENSMUSG00000017057 " transform="translate(786,549)"   name="Il13ra1"  ><rect class="Icon" transform="matrix(.98182 0 0 .95238 .49091 .47619)" width="54" height="20" fill="#fff" stroke="#000"/><text class="Text" transform="translate(27,13)"   font-size="10px"  text-anchor="middle"><tspan x="0" y="0">Il13ra1</tspan></text></a><a  class="GeneProduct P594_ENSMUSG00000063856 " transform="translate(464,360)"   name="Gpx1"  ><rect class="Icon" transform="matrix(.98113 0 0 .95238 .49057 .47619)" width="52" height="20" fill="#fff" stroke="#000"/><text class="Text" transform="translate(26,13)"   font-size="10px"  text-anchor="middle"><tspan x="0" y="0">Gpx1</tspan></text></a><g class="GeneProduct" transform="translate(668,452)" color="grey"  name="Lgals9c"><rect class="Icon" transform="matrix(.97959 0 0 .95238 .4898 .47619)" width="48" height="20" fill="#fff" stroke="grey"/><text class="Text" transform="translate(24,13)" fill="grey"  font-size="10px" stroke="black" stroke-width="0" text-anchor="middle"><tspan x="0" y="0">Lgals9c</tspan></text></g><a  class="GeneProduct P594_ENSMUSG00000030786 " transform="translate(331,360)"   name="Itgam"  ><rect class="Icon" transform="matrix(.98182 0 0 .95238 .49091 .47619)" width="54" height="20" fill="#fff" stroke="#000"/><text class="Text" transform="translate(27,13)"   font-size="10px"  text-anchor="middle"><tspan x="0" y="0">Itgam</tspan></text></a><a  class="GeneProduct P594_ENSMUSG00000098112 " transform="translate(520,138)"   name="Bin2"  ><rect class="Icon" transform="matrix(.98361 0 0 .95238 .4918 .47619)" width="60" height="20" fill="#fff" stroke="#000"/><text class="Text" transform="translate(30,13)"   font-size="10px"  text-anchor="middle"><tspan x="0" y="0">Bin2</tspan></text></a><a  class="GeneProduct P594_ENSMUSG00000034595 " transform="translate(328.5,138)"   name="Ppp1r18"  ><rect class="Icon" transform="matrix(.98765 0 0 .95238 .49383 .47619)" width="80" height="20" fill="#fff" stroke="#000"/><text class="Text" transform="translate(40,13)"   font-size="10px"  text-anchor="middle"><tspan x="0" y="0">Ppp1r18</tspan></text></a><a  class="GeneProduct P594_ENSMUSG00000035004 " transform="translate(384.5,549)"   name="Igsf6"  ><rect class="Icon" transform="matrix(.97674 0 0 .95238 .48837 .47619)" width="42" height="20" fill="#fff" stroke="#000"/><text class="Text" transform="translate(21,13)"   font-size="10px"  text-anchor="middle"><tspan x="0" y="0">Igsf6</tspan></text></a><a  class="GeneProduct P594_ENSMUSG00000030793 " transform="translate(601,360)"   name="Pycard"  ><rect class="Icon" transform="matrix(.98462 0 0 .95238 .49231 .47619)" width="64" height="20" fill="#fff" stroke="#000"/><text class="Text" transform="translate(32,13)"   font-size="10px"  text-anchor="middle"><tspan x="0" y="0">Pycard</tspan></text></a><a  class="GeneProduct P594_ENSMUSG00000022488 " transform="translate(658,203)"   name="Nckap1l"  ><rect class="Icon" transform="matrix(.98182 0 0 .95238 .49091 .47619)" width="54" height="20" fill="#fff" stroke="#000"/><text class="Text" transform="translate(27,13)"   font-size="10px"  text-anchor="middle"><tspan x="0" y="0">Nckap1l</tspan></text></a><a  class="GeneProduct P594_ENSMUSG00000001918 " transform="translate(341,71)"   name="Slc1a5"  ><rect class="Icon" transform="matrix(.98214 0 0 .95238 .49107 .47619)" width="55" height="20" fill="#fff" stroke="#000"/><text class="Text" transform="translate(27.5,13)"   font-size="10px"  text-anchor="middle"><tspan x="0" y="0">Slc1a5</tspan></text></a><a  class="GeneProduct P594_ENSMUSG00000066151 " transform="translate(870,451)"   name="Fkbp15"  ><rect class="Icon" transform="matrix(.98246 0 0 .95238 .49123 .47619)" width="56" height="20" fill="#fff" stroke="#000"/><text class="Text" transform="translate(28,13)"   font-size="10px"  text-anchor="middle"><tspan x="0" y="0">Fkbp15</tspan></text></a><a  class="GeneProduct P594_ENSMUSG00000021242 " transform="translate(750,451)"   name="Npc2"  ><rect class="Icon" transform="matrix(.98305 0 0 .95238 .49153 .47619)" width="58" height="20" fill="#fff" stroke="#000"/><text class="Text" transform="translate(29,13)"   font-size="10px"  text-anchor="middle"><tspan x="0" y="0">Npc2</tspan></text></a><a  class="GeneProduct P594_ENSMUSG00000018920 " transform="translate(747,360)"   name="Cxcl16"  ><rect class="Icon" transform="matrix(.98462 0 0 .95238 .49231 .47619)" width="64" height="20" fill="#fff" stroke="#000"/><text class="Text" transform="translate(32,13)"   font-size="10px"  text-anchor="middle"><tspan x="0" y="0">Cxcl16</tspan></text></a><a  class="GeneProduct P594_ENSMUSG00000030579 " transform="translate(535,278)"   name="Tyrobp"  ><rect class="Icon" transform="matrix(.9863 0 0 .95238 .49315 .47619)" width="72" height="20" fill="#fff" stroke="#000"/><text class="Text" transform="translate(36,13)"   font-size="10px"  text-anchor="middle"><tspan x="0" y="0">Tyrobp</tspan></text></a><a  class="GeneProduct P594_ENSMUSG00000039377 " transform="translate(340.5,203)"   name="Hlx"  ><rect class="Icon" transform="matrix(.98246 0 0 .95238 .49123 .47619)" width="56" height="20" fill="#fff" stroke="#000"/><text class="Text" transform="translate(28,13)"   font-size="10px"  text-anchor="middle"><tspan x="0" y="0">Hlx</tspan></text></a><a  class="GeneProduct P594_ENSMUSG00000023274 " transform="translate(511,451)"   name="Cd4"  ><rect class="Icon" transform="matrix(.97674 0 0 .95238 .48837 .47619)" width="42" height="20" fill="#fff" stroke="#000"/><text class="Text" transform="translate(21,13)"   font-size="10px"  text-anchor="middle"><tspan x="0" y="0">Cd4</tspan></text></a><a  class="GeneProduct P594_ENSMUSG00000032849 " transform="translate(853,638)"   name="Abcc4"  ><rect class="Icon" transform="matrix(.98148 0 0 .95238 .49074 .47619)" width="53" height="20" fill="#fff" stroke="#000"/><text class="Text" transform="translate(26.5,13)"   font-size="10px"  text-anchor="middle"><tspan x="0" y="0">Abcc4</tspan></text></a><a  class="GeneProduct P594_ENSMUSG00000000958 " transform="translate(121,638)"   name="Slc7a7"  ><rect class="Icon" transform="matrix(.98039 0 0 .95238 .4902 .47619)" width="50" height="20" fill="#fff" stroke="#000"/><text class="Text" transform="translate(25,13)"   font-size="10px"  text-anchor="middle"><tspan x="0" y="0">Slc7a7</tspan></text></a><a  class="GeneProduct P594_ENSMUSG00000070780 " transform="translate(467,71)"   name="Rbm47"  ><rect class="Icon" transform="matrix(.98485 0 0 .95238 .49242 .47619)" width="65" height="20" fill="#fff" stroke="#000"/><text class="Text" transform="translate(32.5,13)"   font-size="10px"  text-anchor="middle"><tspan x="0" y="0">Rbm47</tspan></text></a><a  class="GeneProduct P594_ENSMUSG00000026786 " transform="translate(564,71)"   name="Apbb1ip"  ><rect class="Icon" transform="matrix(.98413 0 0 .95238 .49206 .47619)" width="62" height="20" fill="#fff" stroke="#000"/><text class="Text" transform="translate(31,13)"   font-size="10px"  text-anchor="middle"><tspan x="0" y="0">Apbb1ip</tspan></text></a><a  class="GeneProduct P594_ENSMUSG00000036896 " transform="translate(671,71)"   name="C1qc"  ><rect class="Icon" transform="matrix(.98246 0 0 .95238 .49123 .47619)" width="56" height="20" fill="#fff" stroke="#000"/><text class="Text" transform="translate(28,13)"   font-size="10px"  text-anchor="middle"><tspan x="0" y="0">C1qc</tspan></text></a><a  class="GeneProduct P594_ENSMUSG00000000290 " transform="translate(542,203)"   name="Itgb2"  ><rect class="Icon" transform="matrix(.98276 0 0 .95238 .49138 .47619)" width="57" height="20" fill="#fff" stroke="#000"/><text class="Text" transform="translate(28.5,13)"   font-size="10px"  text-anchor="middle"><tspan x="0" y="0">Itgb2</tspan></text></a><a  class="GeneProduct P594_ENSMUSG00000020709 " transform="translate(901,360)"   name="Adap2"  ><rect class="Icon" transform="matrix(.98413 0 0 .95238 .49206 .47619)" width="62" height="20" fill="#fff" stroke="#000"/><text class="Text" transform="translate(31,13)"   font-size="10px"  text-anchor="middle"><tspan x="0" y="0">Adap2</tspan></text></a><a  class="GeneProduct P594_ENSMUSG00000034947 " transform="translate(941,451)"   name="Tmem106a"  ><rect class="Icon" transform="matrix(.98462 0 0 .95238 .49231 .47619)" width="64" height="20" fill="#fff" stroke="#000"/><text class="Text" transform="translate(32,13)"   font-size="10px"  text-anchor="middle"><tspan x="0" y="0">Tmem106a</tspan></text></a><a  class="GeneProduct P594_ENSMUSG00000056737 " transform="translate(787.5,638)"   name="Capg"  ><rect class="Icon" transform="matrix(.98077 0 0 .95238 .49038 .47619)" width="51" height="20" fill="#fff" stroke="#000"/><text class="Text" transform="translate(25.5,13)"   font-size="10px"  text-anchor="middle"><tspan x="0" y="0">Capg</tspan></text></a><a  class="GeneProduct P594_ENSMUSG00000004043 " transform="translate(712,638)"   name="Stat5a"  ><rect class="Icon" transform="matrix(.98333 0 0 .95238 .49167 .47619)" width="59" height="20" fill="#fff" stroke="#000"/><text class="Text" transform="translate(29.5,13)"   font-size="10px"  text-anchor="middle"><tspan x="0" y="0">Stat5a</tspan></text></a><a  class="GeneProduct P594_ENSMUSG00000031103 " transform="translate(673,732)"   name="Elf4"  ><rect class="Icon" transform="matrix(.97778 0 0 .95238 .48889 .47619)" width="44" height="20" fill="#fff" stroke="#000"/><text class="Text" transform="translate(22,13)"   font-size="10px"  text-anchor="middle"><tspan x="0" y="0">Elf4</tspan></text></a><a  class="GeneProduct P594_ENSMUSG00000003644 " transform="translate(758.5,732)"   name="Rps6ka1"  ><rect class="Icon" transform="matrix(.98438 0 0 .95238 .49219 .47619)" width="63" height="20" fill="#fff" stroke="#000"/><text class="Text" transform="translate(31.5,13)"   font-size="10px"  text-anchor="middle"><tspan x="0" y="0">Rps6ka1</tspan></text></a><a  class="GeneProduct P594_ENSMUSG00000029304 " transform="translate(768.5,827)"   name="Spp1"  ><rect class="Icon" transform="matrix(.97727 0 0 .95238 .48864 .47619)" width="43" height="20" fill="#fff" stroke="#000"/><text class="Text" transform="translate(21.5,13)"   font-size="10px"  text-anchor="middle"><tspan x="0" y="0">Spp1</tspan></text></a><a  class="GeneProduct P594_ENSMUSG00000038648 " transform="translate(697,827)"   name="Creb3l2"  ><rect class="Icon" transform="matrix(.98039 0 0 .95238 .4902 .47619)" width="50" height="20" fill="#fff" stroke="#000"/><text class="Text" transform="translate(25,13)"   font-size="10px"  text-anchor="middle"><tspan x="0" y="0">Creb3l2</tspan></text></a><a  class="GeneProduct P594_ENSMUSG00000045817 " transform="translate(639,827)"   name="Zfp36l2"  ><rect class="Icon" transform="matrix(.98 0 0 .95238 .49 .47619)" width="49" height="20" fill="#fff" stroke="#000"/><text class="Text" transform="translate(24.5,13)"   font-size="10px"  text-anchor="middle"><tspan x="0" y="0">Zfp36l2</tspan></text></a><a  class="GeneProduct P594_ENSMUSG00000070691 " transform="translate(581,827)"   name="Runx3"  ><rect class="Icon" transform="matrix(.97959 0 0 .95238 .4898 .47619)" width="48" height="20" fill="#fff" stroke="#000"/><text class="Text" transform="translate(24,13)"   font-size="10px"  text-anchor="middle"><tspan x="0" y="0">Runx3</tspan></text></a><g id="d" class="DirectedInteraction" color="#000" ><g color="#000" fill="transparent"  filter="url(#b)" stroke="#000" stroke-dasharray="41.2, 5.8"><path class="EdgeBody" d="m368.5 91v47"   marker-end="url(#a)" /></g></g><g id="e" class="DirectedInteraction" color="#000" ><g color="#000" fill="transparent"  filter="url(#b)" stroke="#000" stroke-dasharray="39.2, 5.8"><path class="EdgeBody" d="m368.5 158v45"   marker-end="url(#a)" /></g></g><g id="f" class="DirectedInteraction" color="#000" ><g color="#000" fill="transparent"  filter="url(#b)" stroke="#000" stroke-dasharray="186.7233752041554, 5.8"><path class="EdgeBody" d="M368.5,223L553,278"   marker-end="url(#a)" /></g></g><g id="g" class="DirectedInteraction" color="#000" ><g color="#000" fill="transparent"  filter="url(#b)" stroke="#000" stroke-dasharray="53.100339557595085, 5.8"><path class="EdgeBody" d="m499.5 91 35.5 47"   marker-end="url(#a)" /></g></g><g id="h" class="DirectedInteraction" color="#000" ><g color="#000" fill="transparent"  filter="url(#b)" stroke="#000" stroke-dasharray="49.9584074378026, 5.8"><path class="EdgeBody" d="m595 91-30 47"   marker-end="url(#a)" /></g></g><g id="i" class="DirectedInteraction" color="#000" ><g color="#000" fill="transparent"  filter="url(#b)" stroke="#000" stroke-dasharray="43.64946915791918, 5.8"><path class="EdgeBody" d="m550 158 20.5 45"   marker-end="url(#a)" /></g></g><g id="j" class="DirectedInteraction" color="#000" ><g color="#000" fill="transparent"  filter="url(#b)" stroke="#000" stroke-dasharray="154.19082004915157, 5.8"><path class="EdgeBody" d="m699 91-114.25 112"   marker-end="url(#a)" /></g></g><g id="k" class="DirectedInteraction" color="#000" ><g color="#000" fill="transparent"  filter="url(#b)" stroke="#000" stroke-dasharray="104.83905277974861, 5.8"><path class="EdgeBody" d="m685 223-96 55"   marker-end="url(#a)" /></g></g><g id="l" class="DirectedInteraction" color="#000" ><g color="#000" fill="transparent"  filter="url(#b)" stroke="#000" stroke-dasharray="49.20227268031749, 5.8"><path class="EdgeBody" d="m570.5 223 0.5 55"   marker-end="url(#a)" /></g></g><g id="m" class="DirectedInteraction" color="#000" ><g color="#000" fill="transparent"  filter="url(#b)" stroke="#000" stroke-dasharray="198.81915843830458, 5.8"><path class="EdgeBody" d="m553 298-195 62"   marker-end="url(#a)" /></g></g><g id="n" class="DirectedInteraction" color="#000" ><g color="#000" fill="transparent"  filter="url(#b)" stroke="#000" stroke-dasharray="96.20490184299969, 5.8"><path class="EdgeBody" d="m571 298-81 62"   marker-end="url(#a)" /></g></g><g id="o" class="DirectedInteraction" color="#000" ><g color="#000" fill="transparent"  filter="url(#b)" stroke="#000" stroke-dasharray="71.40103626247513, 5.8"><path class="EdgeBody" d="m571 298 46 62"   marker-end="url(#a)" /></g></g><g id="p" class="DirectedInteraction" color="#000" ><g color="#000" fill="transparent"  filter="url(#b)" stroke="#000" stroke-dasharray="178.91599822430106, 5.8"><path class="EdgeBody" d="m589 298 174 62"   marker-end="url(#a)" /></g></g><g id="q" class="DirectedInteraction" color="#000" ><g color="#000" fill="transparent"  filter="url(#b)" stroke="#000" stroke-dasharray="342.75845994610427, 5.8"><path class="EdgeBody" d="m589 298 343 62"   marker-end="url(#a)" /></g></g><g id="r" class="DirectedInteraction" color="#000" ><g color="#000" fill="transparent"  filter="url(#b)" stroke="#000" stroke-dasharray="76.18780397107854, 5.8"><path class="EdgeBody" d="m932 380 41 71"   marker-end="url(#a)" /></g></g><g id="s" class="DirectedInteraction" color="#000" ><g color="#000" fill="transparent"  filter="url(#b)" stroke="#000" stroke-dasharray="72.9210264160726, 5.8"><path class="EdgeBody" d="m932 380-34 71"   marker-end="url(#a)" /></g></g><g id="t" class="DirectedInteraction" color="#000" ><g color="#000" fill="transparent"  filter="url(#b)" stroke="#000" stroke-dasharray="65.2, 5.8"><path class="EdgeBody" d="m779 380v71"   marker-end="url(#a)" /></g></g><g id="u" class="DirectedInteraction" color="#000" ><g color="#000" fill="transparent"  filter="url(#b)" stroke="#000" stroke-dasharray="79.2881895447306, 5.8"><path class="EdgeBody" d="m779 471 34 78"   marker-end="url(#a)" /></g></g><g id="v" class="DirectedInteraction" color="#000" ><g color="#000" fill="transparent"  filter="url(#b)" stroke="#000" stroke-dasharray="85.00886520599187, 5.8"><path class="EdgeBody" d="m779 471-46.5 78"   marker-end="url(#a)" /></g></g><g id="w" class="DirectedInteraction" color="#000" ><g color="#000" fill="transparent"  filter="url(#b)" stroke="#000" stroke-dasharray="84.33878188659973, 5.8"><path class="EdgeBody" d="m799.5 569-58 69"   marker-end="url(#a)" /></g></g><g id="x" class="DirectedInteraction" color="#000" ><g color="#000" fill="transparent"  filter="url(#b)" stroke="#000" stroke-dasharray="63.2, 5.8"><path class="EdgeBody" d="m813 569v69"   marker-end="url(#a)" /></g></g><g id="y" class="DirectedInteraction" color="#000" ><g color="#000" fill="transparent"  filter="url(#b)" stroke="#000" stroke-dasharray="81.20574693662483, 5.8"><path class="EdgeBody" d="m826.5 569 53 69"   marker-end="url(#a)" /></g></g><g id="z" class="DirectedInteraction" color="#000" ><g color="#000" fill="transparent"  filter="url(#b)" stroke="#000" stroke-dasharray="75.53303449398652, 5.8"><path class="EdgeBody" d="M756.25,658L790,732"   marker-end="url(#a)" /></g></g><g id="aa" class="DirectedInteraction" color="#000" ><g color="#000" fill="transparent"  filter="url(#b)" stroke="#000" stroke-dasharray="74.72367664233919, 5.8"><path class="EdgeBody" d="M726.75,658L695,732"   marker-end="url(#a)" /></g></g><g id="ab" class="DirectedInteraction" color="#000" ><g color="#000" fill="transparent"  filter="url(#b)" stroke="#000" stroke-dasharray="69.2, 5.8"><path class="EdgeBody" d="m790 752v75"   marker-end="url(#a)" /></g></g><g id="ac" class="DirectedInteraction" color="#000" ><g color="#000" fill="transparent"  filter="url(#b)" stroke="#000" stroke-dasharray="103.13117092916977, 5.8"><path class="EdgeBody" d="m684 752-79 75"   marker-end="url(#a)" /></g></g><g id="ad" class="DirectedInteraction" color="#000" ><g color="#000" fill="transparent"  filter="url(#b)" stroke="#000" stroke-dasharray="75.54648117773749, 5.8"><path class="EdgeBody" d="m695 752-31.5 75"   marker-end="url(#a)" /></g></g><g id="ae" class="DirectedInteraction" color="#000" ><g color="#000" fill="transparent"  filter="url(#b)" stroke="#000" stroke-dasharray="70.88767828015138, 5.8"><path class="EdgeBody" d="m706 752 16 75"   marker-end="url(#a)" /></g></g><a  class="GeneProduct P594_ENSMUSG00000020120 " transform="translate(384,451)"   name="Plek"  ><rect class="Icon" transform="matrix(.97727 0 0 .95238 .48864 .47619)" width="43" height="20" fill="#fff" stroke="#000"/><text class="Text" transform="translate(21.5,13)"   font-size="10px"  text-anchor="middle"><tspan x="0" y="0">Plek</tspan></text></a><a  class="GeneProduct P594_ENSMUSG00000052384 " transform="translate(563,451)"   name="Nrros"  ><rect class="Icon" transform="matrix(.97826 0 0 .95238 .48913 .47619)" width="45" height="20" fill="#fff" stroke="#000"/><text class="Text" transform="translate(22.5,13)"   font-size="10px"  text-anchor="middle"><tspan x="0" y="0">Nrros</tspan></text></a><a  class="GeneProduct P594_ENSMUSG00000034041 " transform="translate(619,451)"   name="Lyl1"  ><rect class="Icon" transform="matrix(.97674 0 0 .95238 .48837 .47619)" width="42" height="20" fill="#fff" stroke="#000"/><text class="Text" transform="translate(21,13)"   font-size="10px"  text-anchor="middle"><tspan x="0" y="0">Lyl1</tspan></text></a><g id="af" class="DirectedInteraction" color="#000" ><g color="#000" fill="transparent"  filter="url(#b)" stroke="#000" stroke-dasharray="65.54423592694788, 5.8"><path class="EdgeBody" d="m633 380 7 71"   marker-end="url(#a)" /></g></g><g id="ag" class="DirectedInteraction" color="#000" ><g color="#000" fill="transparent"  filter="url(#b)" stroke="#000" stroke-dasharray="79.62394277952757, 5.8"><path class="EdgeBody" d="m633 380-47.5 71"   marker-end="url(#a)" /></g></g><g id="ah" class="DirectedInteraction" color="#000" ><g color="#000" fill="transparent"  filter="url(#b)" stroke="#000" stroke-dasharray="104.95197515168748, 5.8"><path class="EdgeBody" d="m617 380-85 71"   marker-end="url(#a)" /></g></g><g id="ai" class="DirectedInteraction" color="#000" ><g color="#000" fill="transparent"  filter="url(#b)" stroke="#000" stroke-dasharray="72.9210264160726, 5.8"><path class="EdgeBody" d="m371.5 380 34 71"   marker-end="url(#a)" /></g></g><g id="aj" class="DirectedInteraction" color="#000" ><g color="#000" fill="transparent"  filter="url(#b)" stroke="#000" stroke-dasharray="93.55416448242117, 5.8"><path class="EdgeBody" d="m344.5 380-69.5 71"   marker-end="url(#a)" /></g></g><a  class="GeneProduct P594_ENSMUSG00000000693 " transform="translate(511,549)"   name="Loxl3"  ><rect class="Icon" transform="matrix(.97674 0 0 .95238 .48837 .47619)" width="42" height="20" fill="#fff" stroke="#000"/><text class="Text" transform="translate(21,13)"   font-size="10px"  text-anchor="middle"><tspan x="0" y="0">Loxl3</tspan></text></a><a  class="GeneProduct P594_ENSMUSG00000024164 " transform="translate(254,549)"   name="C3"  ><rect class="Icon" transform="matrix(.97674 0 0 .95238 .48837 .47619)" width="42" height="20" fill="#fff" stroke="#000"/><text class="Text" transform="translate(21,13)"   font-size="10px"  text-anchor="middle"><tspan x="0" y="0">C3</tspan></text></a><g id="ak" class="DirectedInteraction" color="#000" ><g color="#000" fill="transparent"  filter="url(#b)" stroke="#000" stroke-dasharray="72.2, 5.8"><path class="EdgeBody" d="m532 471v78"   marker-end="url(#a)" /></g></g><g id="al" class="DirectedInteraction" color="#000" ><g color="#000" fill="transparent"  filter="url(#b)" stroke="#000" stroke-dasharray="72.2, 5.8"><path class="EdgeBody" d="m405.5 471v78"   marker-end="url(#a)" /></g></g><g id="am" class="DirectedInteraction" color="#000" ><g color="#000" fill="transparent"  filter="url(#b)" stroke="#000" stroke-dasharray="72.2, 5.8"><path class="EdgeBody" d="m275 471v78"   marker-end="url(#a)" /></g></g><a  class="GeneProduct P594_ENSMUSG00000026480 " transform="translate(179,638)"   name="Ncf2"  ><rect class="Icon" transform="matrix(.98039 0 0 .95238 .4902 .47619)" width="50" height="20" fill="#fff" stroke="#000"/><text class="Text" transform="translate(25,13)"   font-size="10px"  text-anchor="middle"><tspan x="0" y="0">Ncf2</tspan></text></a><a  class="GeneProduct P594_ENSMUSG00000046006 " transform="translate(233,638)"   name="Gapt"  ><rect class="Icon" transform="matrix(.98039 0 0 .95238 .4902 .47619)" width="50" height="20" fill="#fff" stroke="#000"/><text class="Text" transform="translate(25,13)"   font-size="10px"  text-anchor="middle"><tspan x="0" y="0">Gapt</tspan></text></a><a  class="GeneProduct P594_ENSMUSG00000030798 " transform="translate(293,638)"   name="Cd37"  ><rect class="Icon" transform="matrix(.98039 0 0 .95238 .4902 .47619)" width="50" height="20" fill="#fff" stroke="#000"/><text class="Text" transform="translate(25,13)"   font-size="10px"  text-anchor="middle"><tspan x="0" y="0">Cd37</tspan></text></a><a  class="GeneProduct P594_ENSMUSG00000007613 " transform="translate(357,638)"   name="Tgfbr1"  ><rect class="Icon" transform="matrix(.98039 0 0 .95238 .4902 .47619)" width="50" height="20" fill="#fff" stroke="#000"/><text class="Text" transform="translate(25,13)"   font-size="10px"  text-anchor="middle"><tspan x="0" y="0">Tgfbr1</tspan></text></a><a  class="GeneProduct P594_ENSMUSG00000075593 " transform="translate(418,638)"   name="Gal3st4"  ><rect class="Icon" transform="matrix(.98039 0 0 .95238 .4902 .47619)" width="50" height="20" fill="#fff" stroke="#000"/><text class="Text" transform="translate(25,13)"   font-size="10px"  text-anchor="middle"><tspan x="0" y="0">Gal3st4</tspan></text></a><a  class="GeneProduct P594_ENSMUSG00000038147 " transform="translate(507,638)"   name="Cd84"  ><rect class="Icon" transform="matrix(.98039 0 0 .95238 .4902 .47619)" width="50" height="20" fill="#fff" stroke="#000"/><text class="Text" transform="translate(25,13)"   font-size="10px"  text-anchor="middle"><tspan x="0" y="0">Cd84</tspan></text></a><a  class="GeneProduct P594_ENSMUSG00000030789 " transform="translate(507,732)"   name="Itgax"  ><rect class="Icon" transform="matrix(.98039 0 0 .95238 .4902 .47619)" width="50" height="20" fill="#fff" stroke="#000"/><text class="Text" transform="translate(25,13)"   font-size="10px"  text-anchor="middle"><tspan x="0" y="0">Itgax</tspan></text></a><g id="an" class="DirectedInteraction" color="#000" ><g color="#000" fill="transparent"  filter="url(#b)" stroke="#000" stroke-dasharray="63.2, 5.8"><path class="EdgeBody" d="m532 569v69"   marker-end="url(#a)" /></g></g><g id="ao" class="DirectedInteraction" color="#000" ><g color="#000" fill="transparent"  filter="url(#b)" stroke="#000" stroke-dasharray="68.2, 5.8"><path class="EdgeBody" d="m532 658v74"   marker-end="url(#a)" /></g></g><g id="ap" class="DirectedInteraction" color="#000" ><g color="#000" fill="transparent"  filter="url(#b)" stroke="#000" stroke-dasharray="64.41395872616783, 5.8"><path class="EdgeBody" d="m395 569-13 69"   marker-end="url(#a)" /></g></g><g id="aq" class="DirectedInteraction" color="#000" ><g color="#000" fill="transparent"  filter="url(#b)" stroke="#000" stroke-dasharray="68.29453421137082, 5.8"><path class="EdgeBody" d="m416 569 27 69"   marker-end="url(#a)" /></g></g><g id="ar" class="DirectedInteraction" color="#000" ><g color="#000" fill="transparent"  filter="url(#b)" stroke="#000" stroke-dasharray="70.47089877535205, 5.8"><path class="EdgeBody" d="m285.5 569 32.5 69"   marker-end="url(#a)" /></g></g><g id="as" class="DirectedInteraction" color="#000" ><g color="#000" fill="transparent"  filter="url(#b)" stroke="#000" stroke-dasharray="65.26335201775947, 5.8"><path class="EdgeBody" d="m275 569-17 69"   marker-end="url(#a)" /></g></g><g id="at" class="DirectedInteraction" color="#000" ><g color="#000" fill="transparent"  filter="url(#b)" stroke="#000" stroke-dasharray="93.20505037623082, 5.8"><path class="EdgeBody" d="m275 569-71 69"   marker-end="url(#a)" /></g></g><g id="au" class="DirectedInteraction" color="#000" ><g color="#000" fill="transparent"  filter="url(#b)" stroke="#000" stroke-dasharray="131.32494302642388, 5.8"><path class="EdgeBody" d="M264.5,569L146,638"   marker-end="url(#a)" /></g></g><a  class="GeneProduct P594_ENSMUSG00000021880 " transform="translate(109.5,732)"   name="Rnase6"  ><rect class="Icon" transform="matrix(.97826 0 0 .95238 .48913 .47619)" width="45" height="20" fill="#fff" stroke="#000"/><text class="Text" transform="translate(22.5,13)"   font-size="10px"  text-anchor="middle"><tspan x="0" y="0">Rnase6</tspan></text></a><a  class="GeneProduct P594_ENSMUSG00000022831 " transform="translate(166,732)"   name="Hcls1"  ><rect class="Icon" transform="matrix(.975 0 0 .95238 .4875 .47619)" width="39" height="20" fill="#fff" stroke="#000"/><text class="Text" transform="translate(19.5,13)"   font-size="10px"  text-anchor="middle"><tspan x="0" y="0">Hcls1</tspan></text></a><a  class="GeneProduct P594_ENSMUSG00000032089 " transform="translate(216,732)"   name="Il10ra"  ><rect class="Icon" transform="matrix(.97674 0 0 .95238 .48837 .47619)" width="42" height="20" fill="#fff" stroke="#000"/><text class="Text" transform="translate(21,13)"   font-size="10px"  text-anchor="middle"><tspan x="0" y="0">Il10ra</tspan></text></a><a  class="GeneProduct P594_ENSMUSG00000042594 " transform="translate(278,732)"   name="Sh2b3"  ><rect class="Icon" transform="matrix(.97619 0 0 .95238 .4881 .47619)" width="41" height="20" fill="#fff" stroke="#000"/><text class="Text" transform="translate(20.5,13)"   font-size="10px"  text-anchor="middle"><tspan x="0" y="0">Sh2b3</tspan></text></a><a  class="GeneProduct P594_ENSMUSG00000062329 " transform="translate(331,732)"   name="Cytl1"  ><rect class="Icon" transform="matrix(.97059 0 0 .95238 .48529 .47619)" width="33" height="20" fill="#fff" stroke="#000"/><text class="Text" transform="translate(16.5,13)"   font-size="10px"  text-anchor="middle"><tspan x="0" y="0">Cytl1</tspan></text></a><g id="av" class="DirectedInteraction" color="#000" ><g color="#000" fill="transparent"  filter="url(#b)" stroke="#000" stroke-dasharray="70.72613932506984, 5.8"><path class="EdgeBody" d="m318 658-19.5 74"   marker-end="url(#a)" /></g></g><g id="aw" class="DirectedInteraction" color="#000" ><g color="#000" fill="transparent"  filter="url(#b)" stroke="#000" stroke-dasharray="70.12759709091287, 5.8"><path class="EdgeBody" d="m330.5 658 17 74"   marker-end="url(#a)" /></g></g><g id="ax" class="DirectedInteraction" color="#000" ><g color="#000" fill="transparent"  filter="url(#b)" stroke="#000" stroke-dasharray="90.41980045707848, 5.8"><path class="EdgeBody" d="M133.5,658L72,732"   marker-end="url(#a)" /></g></g><g id="ay" class="DirectedInteraction" color="#000" ><g color="#000" fill="transparent"  filter="url(#b)" stroke="#000" stroke-dasharray="69.51268153505093, 5.8"><path class="EdgeBody" d="m146 658-14 74"   marker-end="url(#a)" /></g></g><g id="az" class="DirectedInteraction" color="#000" ><g color="#000" fill="transparent"  filter="url(#b)" stroke="#000" stroke-dasharray="78.08235809751655, 5.8"><path class="EdgeBody" d="m146 658 39.5 74"   marker-end="url(#a)" /></g></g><g id="ba" class="DirectedInteraction" color="#000" ><g color="#000" fill="transparent"  filter="url(#b)" stroke="#000" stroke-dasharray="102.08072116926175, 5.8"><path class="EdgeBody" d="m158.5 658 78.5 74"   marker-end="url(#a)" /></g></g><a  class="GeneProduct P594_ENSMUSG00000028599 " transform="translate(196,827)"   name="Tnfrsf1b"  ><rect class="Icon" transform="matrix(.97674 0 0 .95238 .48837 .47619)" width="42" height="20" fill="#fff" stroke="#000"/><text class="Text" transform="translate(21,13)"   font-size="10px"  text-anchor="middle"><tspan x="0" y="0">Tnfrsf1b</tspan></text></a><a  class="GeneProduct P594_ENSMUSG00000026358 " transform="translate(245,827)"   name="Rgs1"  ><rect class="Icon" transform="matrix(.97674 0 0 .95238 .48837 .47619)" width="42" height="20" fill="#fff" stroke="#000"/><text class="Text" transform="translate(21,13)"   font-size="10px"  text-anchor="middle"><tspan x="0" y="0">Rgs1</tspan></text></a><a  class="GeneProduct P594_ENSMUSG00000039217 " transform="translate(111,827)"   name="Il18"  ><rect class="Icon" transform="matrix(.97674 0 0 .95238 .48837 .47619)" width="42" height="20" fill="#fff" stroke="#000"/><text class="Text" transform="translate(21,13)"   font-size="10px"  text-anchor="middle"><tspan x="0" y="0">Il18</tspan></text></a><g id="bb" class="DirectedInteraction" color="#000" ><g color="#000" fill="transparent"  filter="url(#b)" stroke="#000" stroke-dasharray="74.6114419718985, 5.8"><path class="EdgeBody" d="m237 752 29 75"   marker-end="url(#a)" /></g></g><g id="bc" class="DirectedInteraction" color="#000" ><g color="#000" fill="transparent"  filter="url(#b)" stroke="#000" stroke-dasharray="71.82087348130013, 5.8"><path class="EdgeBody" d="m237 752-20 75"   marker-end="url(#a)" /></g></g><g id="bd" class="DirectedInteraction" color="#000" ><g color="#000" fill="transparent"  filter="url(#b)" stroke="#000" stroke-dasharray="69.2, 5.8"><path class="EdgeBody" d="m132 752v75"   marker-end="url(#a)" /></g></g><a  class="GeneProduct P594_ENSMUSG00000035165 " transform="translate(7,827)"   name="Kcne3"  ><rect class="Icon" transform="matrix(.97674 0 0 .95238 .48837 .47619)" width="42" height="20" fill="#fff" stroke="#000"/><text class="Text" transform="translate(21,13)"   font-size="10px"  text-anchor="middle"><tspan x="0" y="0">Kcne3</tspan></text></a><a  class="GeneProduct P594_ENSMUSG00000040848 " transform="translate(55,827)"   name="Sft2d2"  ><rect class="Icon" transform="matrix(.97674 0 0 .95238 .48837 .47619)" width="42" height="20" fill="#fff" stroke="#000"/><text class="Text" transform="translate(21,13)"   font-size="10px"  text-anchor="middle"><tspan x="0" y="0">Sft2d2</tspan></text></a><g id="be" class="DirectedInteraction" color="#000" ><g color="#000" fill="transparent"  filter="url(#b)" stroke="#000" stroke-dasharray="69.3065909225016, 5.8"><path class="EdgeBody" d="m72 752 4 75"   marker-end="url(#a)" /></g></g><g id="bf" class="DirectedInteraction" color="#000" ><g color="#000" fill="transparent"  filter="url(#b)" stroke="#000" stroke-dasharray="75.16449839281412, 5.8"><path class="EdgeBody" d="M58.5,752L28,827"   marker-end="url(#a)" /></g></g><a  class="GeneProduct P594_ENSMUSG00000055435 " transform="translate(74,919)"   name="Maf"  ><rect class="Icon" transform="matrix(.97674 0 0 .95238 .48837 .47619)" width="42" height="20" fill="#fff" stroke="#000"/><text class="Text" transform="translate(21,13)"   font-size="10px"  text-anchor="middle"><tspan x="0" y="0">Maf</tspan></text></a><a  class="GeneProduct P594_ENSMUSG00000045312 " transform="translate(141,919)"   name="Lhfpl2"  ><rect class="Icon" transform="matrix(.97674 0 0 .95238 .48837 .47619)" width="42" height="20" fill="#fff" stroke="#000"/><text class="Text" transform="translate(21,13)"   font-size="10px"  text-anchor="middle"><tspan x="0" y="0">Lhfpl2</tspan></text></a><g id="bg" class="DirectedInteraction" color="#000" ><g color="#000" fill="transparent"  filter="url(#b)" stroke="#000" stroke-dasharray="70.92190039356429, 5.8"><path class="EdgeBody" d="M121.5,847L95,919"   marker-end="url(#a)" /></g></g><g id="bh" class="DirectedInteraction" color="#000" ><g color="#000" fill="transparent"  filter="url(#b)" stroke="#000" stroke-dasharray="68.79390055493813, 5.8"><path class="EdgeBody" d="m142.5 847 19.5 72"   marker-end="url(#a)" /></g></g><g id="bi" class="DirectedInteraction" color="#000" ><g color="#000" fill="transparent"  filter="url(#b)" stroke="#000" stroke-dasharray="78.06298349093002, 5.8"><path class="EdgeBody" d="m649 380 43 72"   marker-end="url(#a)" /></g></g><text class="Text" transform="translate(5,27)" dominant-baseline="central" fill="black"  font-size="12px" font-weight="bold" overflow="visible" ><tspan x="0" y="-9">Name: Tyrobp causal network in microglia</tspan> <tspan x="0" y="9">Organism: Mus musculus</tspan></text></g></svg>
