<?xml version="1.0" encoding="UTF-8"?>
<!--
  WikiPathways page: https://www.wikipathways.org/index.php/Pathway:WP3871
  URL for this compressed file: https://github.com/eweitz/cachome/tree/main/data/wikipathways/WP3871.svg
  Source code for compression: https://github.com/eweitz/cachome/tree/main/src/wikipathways.py
-->
<svg class="Diagram" width="800" height="600" color="black" baseProfile="full" prefix="schema:http://schema.org/" preserveAspectRatio="xMidYMid" version="1.1" viewBox="0 0 1264 654" vocab="http://vocabularies.wikipathways.org/wp#" xmlns="http://www.w3.org/2000/svg" xmlns:xlink="http://www.w3.org/1999/xlink"><style>svg {font-family: 'Liberation Sans', Arial, sans-serif; }</style><defs><filter id="a" x="0" y="0" width="1264" height="654" filterUnits="userSpaceOnUse"><feColorMatrix in="SourceGraphic" values="-1   0   0 0 0                   0  -1   0 0 0                   0   0  -1 0 0                   0   0   0 1 0"/></filter><marker id="f" stroke-dasharray="99999" markerHeight="12" markerUnits="userSpaceOnUse" markerWidth="12" orient="auto" preserveAspectRatio="none" refX="12" refY="6" viewBox="0 0 12 12"><path transform="rotate(180 6 6)" d="M12 11L0 6l12-5z" fill="currentColor" stroke-width="0"/></marker><marker id="d" stroke-dasharray="99999" markerHeight="12" markerUnits="userSpaceOnUse" markerWidth="12" orient="auto" preserveAspectRatio="none" refX="12" refY="6" viewBox="0 0 12 12"><circle transform="rotate(180 6 6)" cx="6" cy="6" r="5.3" fill="none" stroke="#000"/></marker><marker id="b" stroke-dasharray="99999" markerHeight="12" markerUnits="userSpaceOnUse" markerWidth="12" orient="auto" preserveAspectRatio="none" refX="12" refY="6" viewBox="0 0 12 12"><path transform="rotate(180 6 6)" d="M12 11L0 6l12-5z" fill="currentColor" stroke-width="0"/></marker><marker id="e" stroke-dasharray="99999" markerHeight="20" markerUnits="userSpaceOnUse" markerWidth="10" orient="auto" preserveAspectRatio="none" refX="10" refY="10" viewBox="0 0 10 20"><path d="m3 0v20" fill="currentColor" stroke="currentColor"/></marker><symbol id="g" overflow="visible" preserveAspectRatio="none" viewBox="0 0 100 100"><path d="M0 25L25 0h50l25 25v50l-25 25H25L0 75z" stroke="currentColor" vector-effect="non-scaling-stroke"/></symbol><symbol id="c" preserveAspectRatio="none" viewBox="0 0 100 100"/></defs><g class="Viewport" color="black"  name="Name: Valproic acid pathway Organism: Homo sapiens"><rect class="Icon" width="1264" height="654" fill="#fff" stroke="#000" stroke-width="0"/><g id="h" class="DirectedInteraction" color="#000" ><g color="#000" fill="transparent"  filter="url(#a)" stroke="#000" stroke-dasharray="61.2, 5.8"><path class="EdgeBody" d="m185 158h-67"   marker-end="url(#f)" /></g></g><g id="i" class="Interaction" color="#000" ><g color="#000" fill="transparent"  filter="url(#a)" stroke="#000" stroke-dasharray="52, 7"><path class="EdgeBody" d="m324 194h-59"   marker-end="url(#e)" /></g></g><g id="j" class="Interaction" color="#000" ><g color="#000" fill="transparent"  filter="url(#a)" stroke="#000" stroke-dasharray="242.2, 5.8"><path class="EdgeBody" d="m404 194h20v-119h109"   marker-end="url(#b)" /></g><g class="Burr Anchor" transform="translate(472.54 75)" ><use class="Icon" width="0" height="0" fill="#141414" stroke-width="0" xlink:href="#c"/></g><g class="Burr Anchor" transform="translate(483,75)" ><use class="Icon" width="0" height="0" fill="#141414" stroke-width="0" xlink:href="#c"/></g></g><g id="k" class="Interaction" color="#000" ><g color="#000" fill="transparent"  filter="url(#a)" stroke="#000" stroke-dasharray="139.2, 5.8"><path class="EdgeBody" d="m1030 396h20v-68h57"   marker-end="url(#b)" /></g><g class="Burr Anchor" transform="translate(1050,350)" ><use class="Icon" width="0" height="0" fill="#141414" stroke-width="0" xlink:href="#c"/></g></g><g id="l" class="Interaction" color="#000" ><g color="#000" fill="transparent"  filter="url(#a)" stroke="#000" stroke-dasharray="12.021728866442675, 11"><path class="EdgeBody" d="m1027 349 23 1"   marker-end="url(#d)" /></g></g><g id="m" class="Interaction" color="#000" ><g color="#000" fill="transparent"  filter="url(#a)" stroke="#000" stroke-dasharray="70.20657866263946, 5.8"><path class="EdgeBody" d="m1030 396 76-1"   marker-end="url(#b)" /></g><g class="Burr Anchor" transform="translate(1079.5 395.35)" ><use class="Icon" width="0" height="0" fill="#141414" stroke-width="0" xlink:href="#c"/></g></g><g id="n" class="Interaction" color="#000" ><g color="#000" fill="transparent"  filter="url(#a)" stroke="#000" stroke-dasharray="395.2, 5.8"><path class="EdgeBody" d="m404 194h20v264h117"   marker-end="url(#b)" /></g></g><g id="o" class="Interaction" color="#000" ><g color="#000" fill="transparent"  filter="url(#a)" stroke="#000" stroke-dasharray="64.2, 5.8"><path class="EdgeBody" d="m644 395h70"   marker-end="url(#b)" /></g><g class="Burr Anchor" transform="translate(681.22 395)" ><use class="Icon" width="0" height="0" fill="#141414" stroke-width="0" xlink:href="#c"/></g></g><g id="p" class="Interaction" color="#000" ><g color="#000" fill="transparent"  filter="url(#a)" stroke="#000" stroke-dasharray="9.256787650615472, 11"><path class="EdgeBody" d="m678 415 3.2152-20"   marker-end="url(#d)" /></g></g><g id="q" class="Interaction" color="#000" ><g color="#000" fill="transparent"  filter="url(#a)" stroke="#000" stroke-dasharray="62.115844782509896, 7"><path class="EdgeBody" d="m324 194-59-36"   marker-end="url(#e)" /></g></g><g id="r" class="Interaction" color="#000" ><g color="#000" fill="transparent"  filter="url(#a)" stroke="#000" stroke-dasharray="150.2, 5.8"><path class="EdgeBody" d="m663 194h76v-41h39"   marker-end="url(#b)" /></g></g><g id="s" class="Interaction" color="#000" ><g color="#000" fill="transparent"  filter="url(#a)" stroke="#000" stroke-dasharray="338.2, 5.8"><path class="EdgeBody" d="m404 194h20v201h123"   marker-end="url(#b)" /></g><g class="Burr Anchor" transform="translate(483,395)" ><use class="Icon" width="0" height="0" fill="#141414" stroke-width="0" xlink:href="#c"/></g></g><g id="t" class="Interaction" color="#000" ><g color="#000" fill="transparent"  filter="url(#a)" stroke="#000" stroke-dasharray="131.2, 5.8"><path class="EdgeBody" d="m404 194h137"   marker-end="url(#b)" /></g><g class="Burr Anchor" transform="translate(481,194)" ><use class="Icon" width="0" height="0" fill="#141414" stroke-width="0" xlink:href="#c"/></g></g><g id="u" class="Interaction" color="#000" ><g color="#000" fill="transparent"  filter="url(#a)" stroke="#000" stroke-dasharray="11.022715545545239, 11"><path class="EdgeBody" d="m482 53 1 22"   marker-end="url(#d)" /></g></g><g id="v" class="Interaction" color="#000" ><g color="#000" fill="transparent"  filter="url(#a)" stroke="#000" stroke-dasharray="57.70787352761861, 5.8"><path class="EdgeBody" d="m654.5 559 63.5 1"   marker-end="url(#b)" /></g></g><g id="w" class="Interaction" color="#000" ><g color="#000" fill="transparent"  filter="url(#a)" stroke="#000" stroke-dasharray="10.02379604162864, 11"><path class="EdgeBody" d="m482 374 1 21"   marker-end="url(#d)" /></g></g><g id="x" class="Interaction" color="#000" ><g color="#000" fill="transparent"  filter="url(#a)" stroke="#000" stroke-dasharray="24.2, 5.8"><path class="EdgeBody" d="m658 75h30"   marker-end="url(#b)" /></g></g><g id="y" class="Interaction" color="#000" ><g color="#000" fill="transparent"  filter="url(#a)" stroke="#000" stroke-dasharray="491.7, 5.8"><path class="EdgeBody" d="m404 194h20v365h112.5"   marker-end="url(#b)" /></g><g class="Burr Anchor" transform="translate(495 559)" ><use class="Icon" width="0" height="0" fill="#141414" stroke-width="0" xlink:href="#c"/></g></g><g id="z" class="Interaction" color="#000" ><g color="#000" fill="transparent"  filter="url(#a)" stroke="#000" stroke-dasharray="49.20909015790027, 5.8"><path class="EdgeBody" d="m839 395 55 1"   marker-end="url(#b)" /></g><g class="Burr Anchor" transform="translate(861,395.4)" ><use class="Icon" width="0" height="0" fill="#141414" stroke-width="0" xlink:href="#c"/></g></g><g id="aa" class="Interaction" color="#000" ><g color="#000" fill="transparent"  filter="url(#a)" stroke="#000" stroke-dasharray="148.2, 5.8"><path class="EdgeBody" d="m663 194h76v42h36"   marker-end="url(#b)" /></g><g class="Burr Anchor" transform="translate(739,223)" ><use class="Icon" width="0" height="0" fill="#141414" stroke-width="0" xlink:href="#c"/></g></g><g id="ab" class="Interaction" color="#000" ><g color="#000" fill="transparent"  filter="url(#a)" stroke="#000" stroke-dasharray="15, 11"><path class="EdgeBody" d="m713 223h26"   marker-end="url(#d)" /></g></g><g id="ac" class="DirectedInteraction" color="#000" ><g color="#000" fill="transparent"  filter="url(#a)" stroke="#000" stroke-dasharray="196.2, 5.8"><path class="EdgeBody" d="m404 194h20v75h107"   marker-end="url(#f)" /></g><g class="Burr Anchor" transform="translate(485,269)" ><use class="Icon" width="0" height="0" fill="#141414" stroke-width="0" xlink:href="#c"/></g></g><g id="ad" class="Interaction" color="#000" ><g color="#000" fill="transparent"  filter="url(#a)" stroke="#000" stroke-dasharray="8.235384061671343, 11"><path class="EdgeBody" d="m482 288 3-19"   marker-end="url(#d)" /></g></g><g id="ae" class="Interaction" color="#000" ><g color="#000" fill="transparent"  filter="url(#a)" stroke="#000" stroke-dasharray="8.27011795298948, 11"><path class="EdgeBody" d="m678 376 3.2152 19"   marker-end="url(#d)" /></g></g><g id="af" class="Interaction" color="#000" ><g color="#000" fill="transparent"  filter="url(#a)" stroke="#000" stroke-dasharray="283.1308162156339, 5.8"><path class="EdgeBody" d="m324 315v-8.1667c0-8.1667 0-24.5 39.583-32.667 39.583-8.1667 118.75-8.1667 158.33 0.16667 39.583 8.3333 39.583 25 39.583 33.333v8.3333"   marker-end="url(#b)" /></g></g><g id="ag" class="Interaction" color="#000" ><g color="#000" fill="transparent"  filter="url(#a)" stroke="#000" stroke-dasharray="65.80109889280519, 7"><path class="EdgeBody" d="m324 194-58 44"   marker-end="url(#e)" /></g></g><g id="ah" class="Interaction" color="#000" ><g color="#000" fill="transparent"  filter="url(#a)" stroke="#000" stroke-dasharray="32.45, 5.8"><path class="EdgeBody" d="m776.5 472v38.25"   marker-end="url(#b)" /></g></g><g id="ai" class="Interaction" color="#000" ><g color="#000" fill="transparent"  filter="url(#a)" stroke="#000" stroke-dasharray="33.20721087183753, 5.8"><path class="EdgeBody" d="m909 236 39 0.75"   marker-end="url(#b)" /></g></g><g id="aj" class="Interaction" color="#000" ><g color="#000" fill="transparent"  filter="url(#a)" stroke="#000" stroke-dasharray="41.2, 5.8"><path class="EdgeBody" d="m776.5 405v47"   marker-end="url(#b)" /></g></g><g id="ak" class="Interaction" color="#000" ><g color="#000" fill="transparent"  filter="url(#a)" stroke="#000" stroke-dasharray="544.2, 5.8"><path class="EdgeBody" d="m404 194h20v420h110"   marker-end="url(#b)" /></g><g class="Burr Anchor" transform="translate(453,614)" ><use class="Icon" width="0" height="0" fill="#141414" stroke-width="0" xlink:href="#c"/></g></g><g id="al" class="Interaction" color="#000" ><g color="#000" fill="transparent"  filter="url(#a)" stroke="#000" stroke-dasharray="12.421357774475819, 11"><path class="EdgeBody" d="m862 372-1 23.4"   marker-end="url(#d)" /></g></g><g id="am" class="Interaction" color="#000" ><g color="#000" fill="transparent"  filter="url(#a)" stroke="#000" stroke-dasharray="144.2, 5.8"><path class="EdgeBody" d="m1030 396h20v73h57"   marker-end="url(#b)" /></g><g class="Burr Anchor" transform="translate(1050,454)" ><use class="Icon" width="0" height="0" fill="#141414" stroke-width="0" xlink:href="#c"/></g></g><g id="an" class="Interaction" color="#000" ><g color="#000" fill="transparent"  filter="url(#a)" stroke="#000" stroke-dasharray="70.34494452638098, 11"><path class="EdgeBody" d="m482 538-29 76"   marker-end="url(#d)" /></g></g><g id="ao" class="Interaction" color="#000" ><g color="#000" fill="transparent"  filter="url(#a)" stroke="#000" stroke-dasharray="13.698178070456937, 11"><path class="EdgeBody" d="m482 538 13 21"   marker-end="url(#d)" /></g></g><g id="ap" class="Interaction" color="#000" ><g color="#000" fill="transparent"  filter="url(#a)" stroke="#000" stroke-dasharray="72.63417175767006, 11"><path class="EdgeBody" d="m1021.2 455.38 58.237-60.026"   marker-end="url(#d)" /></g></g><g id="aq" class="Interaction" color="#000" ><g color="#000" fill="transparent"  filter="url(#a)" stroke="#000" stroke-dasharray="17.782861654116324, 11"><path class="EdgeBody" d="M1021.25,455.375L1050,454"   marker-end="url(#d)" /></g></g><g id="ar" class="Interaction" color="#000" ><g color="#000" fill="transparent"  filter="url(#a)" stroke="#000" stroke-dasharray="17.0178514522438, 11"><path class="EdgeBody" d="m482 166-1 28"   marker-end="url(#d)" /></g></g><g class="Label" transform="translate(186,228)" color="#000"  name="re-uptake  of GABA"><use class="Icon" width="80" height="20" fill="transparent"  stroke="#000" stroke-width="0" xlink:href="#c"/><text class="Text" transform="translate(40,13)"   font-size="10px"  text-anchor="middle"><tspan x="0" y="-5.5">re-uptake </tspan> <tspan x="0" y="5.5">of GABA</tspan></text></g><g class="Label" transform="translate(32,125)" color="#000"  name="increased levels"><use class="Icon" width="112" height="20" fill="transparent"  stroke="#000" stroke-width="0" xlink:href="#c"/><text class="Text" transform="translate(56,13)"   font-size="10px"  text-anchor="middle"><tspan x="0" y="0">increased levels</tspan></text></g><g class="Label" transform="translate(605,10)" color="#333333"  name="metabolism"><rect class="Icon" transform="matrix(.99213 0 0 .95238 .49606 .47619)" width="126" height="20" fill="#ff0" stroke="#333"/><text class="Text" transform="translate(63,16)" fill="#333333"  font-size="18px"  text-anchor="middle"><tspan x="0" y="0">metabolism</tspan></text></g><g class="Label" transform="translate(157,70)" color="#000"  name="mode of action"><rect class="Icon" transform="matrix(.99291 0 0 .95238 .49645 .47619)" width="140" height="20" fill="#ff0" stroke="#000"/><text class="Text" transform="translate(70,16)"   font-size="18px"  text-anchor="middle"><tspan x="0" y="0">mode of action</tspan></text></g><a class="Metabolite ChEBI_CHEBI_16865  " transform="translate(55,148)" color="#00f"  name="GABA"  ><rect class="Icon" transform="matrix(.98438 0 0 .95238 .49219 .47619)" width="63" height="20" fill="#fff" stroke="#00f"/><text class="Text" transform="translate(31.5,13)" fill="#00f"  font-size="10px"  text-anchor="middle"><tspan x="0" y="0">GABA</tspan></text></a><a class="Metabolite ChEBI_CHEBI_15536  " transform="translate(1106,385)" color="#00f"  name="Pentanoyl-CoA"  ><rect class="Icon" transform="matrix(.98765 0 0 .95238 .49383 .47619)" width="80" height="20" fill="#fff" stroke="#00f"/><text class="Text" transform="translate(40,13)" fill="#00f"  font-size="10px"  text-anchor="middle"><tspan x="0" y="0">Pentanoyl-CoA</tspan></text></a><a class="Metabolite ChEBI_CHEBI_80638  " transform="translate(688,65)" color="#00f"  name="3-Oxovalproic acid"  ><rect class="Icon" transform="matrix(.99 0 0 .95238 .495 .47619)" width="99" height="20" fill="#fff" stroke="#00f"/><text class="Text" transform="translate(49.5,13)" fill="#00f"  font-size="10px"  text-anchor="middle"><tspan x="0" y="0">3-Oxovalproic acid</tspan></text></a><a  class="GeneProduct ACSM1 " transform="translate(442,354)"   name="ACSM1"  ><rect class="Icon" transform="matrix(.98765 0 0 .95238 .49383 .47619)" width="80" height="20" fill="#fff" stroke="#000"/><text class="Text" transform="translate(40,13)"   font-size="10px"  text-anchor="middle"><tspan x="0" y="0">ACSM1</tspan></text></a><a class="Metabolite ChEBI_CHEBI_80644  " transform="translate(718,550)" color="#00f"  name="2-Propylglutaric acid"  ><rect class="Icon" transform="matrix(.99153 0 0 .95238 .49576 .47619)" width="117" height="20" fill="#fff" stroke="#00f"/><text class="Text" transform="translate(58.5,13)" fill="#00f"  font-size="10px"  text-anchor="middle"><tspan x="0" y="0">2-Propylglutaric acid</tspan></text></a><a class="Metabolite ChEBI_CHEBI_80637  " transform="translate(533,65)" color="#00f"  name="3-Hydroxyvalproic acid"  ><rect class="Icon" transform="matrix(.99206 0 0 .95238 .49603 .47619)" width="125" height="20" fill="#fff" stroke="#00f"/><text class="Text" transform="translate(62.5,13)" fill="#00f"  font-size="10px"  text-anchor="middle"><tspan x="0" y="0">3-Hydroxyvalproic acid</tspan></text></a><a class="Metabolite ChEBI_CHEBI_80642  " transform="translate(778,143)" color="#00f"  name="2-Propyl-2,4-pentadienoic acid"  ><rect class="Icon" transform="matrix(.99367 0 0 .95238 .49684 .47619)" width="157" height="20" fill="#fff" stroke="#00f"/><text class="Text" transform="translate(78.5,13)" fill="#00f"  font-size="10px"  text-anchor="middle"><tspan x="0" y="0">2-Propyl-2,4-pentadienoic acid</tspan></text></a><a class="Metabolite " transform="translate(541,448)" color="#00f"  name="3-ene-Valproic acid CoA"  ><rect class="Icon" transform="matrix(.99259 0 0 .95238 .4963 .47619)" width="134" height="20" fill="#fff" stroke="#00f"/><text class="Text" transform="translate(67,13)" fill="#00f"  font-size="10px"  text-anchor="middle"><tspan x="0" y="0">3-ene-Valproic acid CoA</tspan></text></a><g class="Metabolite ChEBI_CHEBI_410867  " transform="translate(541,184)" color="#00f"  name="4-ene-Valproic acid"><rect class="Icon" transform="matrix(.99187 0 0 .95238 .49593 .47619)" width="122" height="20" fill="#fff" stroke="#00f"/><text class="Text" transform="translate(61,13)" fill="#00f"  font-size="10px"  text-anchor="middle"><tspan x="0" y="0">4-ene-Valproic acid</tspan></text></g><g class="GeneProduct UGT1A3 " transform="translate(442,288)" color="#000"  name="UGT1A3"><rect class="Icon" transform="matrix(.98765 0 0 .95238 .49383 .47619)" width="80" height="20" fill="#fff" stroke="#000"/><text class="Text" transform="translate(40,13)"   font-size="10px"  text-anchor="middle"><tspan x="0" y="0">UGT1A3</tspan></text></g><a class="Metabolite " transform="translate(714,602)" color="#00f"  name="2-n-Propyl-4-oxopentanoic acid"  ><rect class="Icon" transform="matrix(.99324 0 0 .95238 .49662 .47619)" width="147" height="20" fill="#fff" stroke="#00f"/><text class="Text" transform="translate(73.5,13)" fill="#00f"  font-size="10px"  text-anchor="middle"><tspan x="0" y="0">2-n-Propyl-4-oxopentanoic acid</tspan></text></a><a  class="GeneProduct EHHADH " transform="translate(822,352)"   name="EHHADH"  ><rect class="Icon" transform="matrix(.98765 0 0 .95238 .49383 .47619)" width="80" height="20" fill="#fff" stroke="#000"/><text class="Text" transform="translate(40,13)"   font-size="10px"  text-anchor="middle"><tspan x="0" y="0">EHHADH</tspan></text></a><a class="Metabolite " transform="translate(775,226)" color="#00f"  name="4-ene-Valproic acid CoA"  ><rect class="Icon" transform="matrix(.99259 0 0 .95238 .4963 .47619)" width="134" height="20" fill="#fff" stroke="#00f"/><text class="Text" transform="translate(67,13)" fill="#00f"  font-size="10px"  text-anchor="middle"><tspan x="0" y="0">4-ene-Valproic acid CoA</tspan></text></a><a class="Metabolite " transform="translate(948,226.75)" color="#00f"  name="2,3-diene-Valproic acid-CoA"  ><rect class="Icon" transform="matrix(.99352 0 0 .95238 .49676 .47619)" width="153.25" height="20" fill="#fff" stroke="#00f"/><text class="Text" transform="translate(76.625,13)" fill="#00f"  font-size="10px"  text-anchor="middle"><tspan x="0" y="0">2,3-diene-Valproic acid-CoA</tspan></text></a><a class="Metabolite ChEBI_CHEBI_15539  " transform="translate(1107,459)" color="#00f"  name="Propionyl-CoA"  ><rect class="Icon" transform="matrix(.98765 0 0 .95238 .49383 .47619)" width="80" height="20" fill="#fff" stroke="#00f"/><text class="Text" transform="translate(40,13)" fill="#00f"  font-size="10px"  text-anchor="middle"><tspan x="0" y="0">Propionyl-CoA</tspan></text></a><a class="Metabolite ChEBI_CHEBI_80635  " transform="translate(534,604)" color="#00f"  name="4-Hydroxyvalproic acid"  ><rect class="Icon" transform="matrix(.99231 0 0 .95238 .49615 .47619)" width="129" height="20" fill="#fff" stroke="#00f"/><text class="Text" transform="translate(64.5,13)" fill="#00f"  font-size="10px"  text-anchor="middle"><tspan x="0" y="0">4-Hydroxyvalproic acid</tspan></text></a><a class="Metabolite " transform="translate(712.38 510.25)" color="#00f"  name="2,3-diene-Valproic acid-CoA"  ><rect class="Icon" transform="matrix(.99226 0 0 .95238 .49613 .47619)" width="128.25" height="20" fill="#fff" stroke="#00f"/><text class="Text" transform="translate(64.125,13)" fill="#00f"  font-size="10px"  text-anchor="middle"><tspan x="0" y="0">2,3-diene-Valproic acid-CoA</tspan></text></a><a  class="GeneProduct HDAC1 " transform="translate(185,184)"   name="HDAC1"  ><rect class="Icon" transform="matrix(.98765 0 0 .95238 .49383 .47619)" width="80" height="20" fill="#fff" stroke="#000"/><text class="Text" transform="translate(40,13)"   font-size="10px"  text-anchor="middle"><tspan x="0" y="0">HDAC1</tspan></text></a><a  class="GeneProduct HSD17B10 " transform="translate(947,339)"   name="HSD17B10"  ><rect class="Icon" transform="matrix(.98765 0 0 .95238 .49383 .47619)" width="80" height="20" fill="#fff" stroke="#000"/><text class="Text" transform="translate(40,13)"   font-size="10px"  text-anchor="middle"><tspan x="0" y="0">HSD17B10</tspan></text></a><a class="Metabolite " transform="translate(712,452)" color="#00f"  name="3-ene-Valproic acid CoA"  ><rect class="Icon" transform="matrix(.99231 0 0 .95238 .49615 .47619)" width="129" height="20" fill="#fff" stroke="#00f"/><text class="Text" transform="translate(64.5,13)" fill="#00f"  font-size="10px"  text-anchor="middle"><tspan x="0" y="0">3-ene-Valproic acid CoA</tspan></text></a><a class="Metabolite ChEBI_CHEBI_17659  " transform="translate(499,316)" color="#00f"  name="Uridine 5'-diphosphate"  ><rect class="Icon" transform="matrix(.99206 0 0 .95238 .49603 .47619)" width="125" height="20" fill="#fff" stroke="#00f"/><text class="Text" transform="translate(62.5,13)" fill="#00f"  font-size="10px"  text-anchor="middle"><tspan x="0" y="0">Uridine 5'-diphosphate</tspan></text></a><a class="Metabolite " transform="translate(894,386)" color="#00f"  name="3-Hydroxyvalproic acid CoA"  ><rect class="Icon" transform="matrix(.9927 0 0 .95238 .49635 .47619)" width="136" height="20" fill="#fff" stroke="#00f"/><text class="Text" transform="translate(68,13)" fill="#00f"  font-size="10px"  text-anchor="middle"><tspan x="0" y="0">3-Hydroxyvalproic acid CoA</tspan></text></a><a class="Metabolite " transform="translate(1107,318)" color="#00f"  name="3-oxo-Valproic acid CoA"  ><rect class="Icon" transform="matrix(.99219 0 0 .95238 .49609 .47619)" width="127" height="20" fill="#fff" stroke="#00f"/><text class="Text" transform="translate(63.5,13)" fill="#00f"  font-size="10px"  text-anchor="middle"><tspan x="0" y="0">3-oxo-Valproic acid CoA</tspan></text></a><a class="Metabolite " transform="translate(547,385)" color="#00f"  name="Valproic acid CoA"  ><rect class="Icon" transform="matrix(.9898 0 0 .95238 .4949 .47619)" width="97" height="20" fill="#fff" stroke="#00f"/><text class="Text" transform="translate(48.5,13)" fill="#00f"  font-size="10px"  text-anchor="middle"><tspan x="0" y="0">Valproic acid CoA</tspan></text></a><a class="Metabolite " transform="translate(714,385)" color="#00f"  name="2-ene-Valproic acid CoA"  ><rect class="Icon" transform="matrix(.99206 0 0 .95238 .49603 .47619)" width="125" height="20" fill="#fff" stroke="#00f"/><text class="Text" transform="translate(62.5,13)" fill="#00f"  font-size="10px"  text-anchor="middle"><tspan x="0" y="0">2-ene-Valproic acid CoA</tspan></text></a><a class="Metabolite ChEBI_CHEBI_80636  " transform="translate(536.5,549)" color="#00f"  name="5-Hydroxyvalproic acid"  ><rect class="Icon" transform="matrix(.9916 0 0 .95238 .4958 .47619)" width="118" height="20" fill="#fff" stroke="#00f"/><text class="Text" transform="translate(59,13)" fill="#00f"  font-size="10px"  text-anchor="middle"><tspan x="0" y="0">5-Hydroxyvalproic acid</tspan></text></a><a  class="GeneProduct CYP2A6 " transform="translate(442,33)"   name="CYP2A6"  ><rect class="Icon" transform="matrix(.98765 0 0 .95238 .49383 .47619)" width="80" height="20" fill="#fff" stroke="#000"/><text class="Text" transform="translate(40,13)"   font-size="10px"  text-anchor="middle"><tspan x="0" y="0">CYP2A6</tspan></text></a><a  class="GeneProduct ACADSB " transform="translate(633,213)"   name="ACADSB"  ><rect class="Icon" transform="matrix(.98765 0 0 .95238 .49383 .47619)" width="80" height="20" fill="#fff" stroke="#000"/><text class="Text" transform="translate(40,13)"   font-size="10px"  text-anchor="middle"><tspan x="0" y="0">ACADSB</tspan></text></a><a class="Metabolite ChEBI_CHEBI_39867  " transform="translate(324,184)" color="#00f"  name="Valproic acid"  ><rect class="Icon" transform="matrix(.98765 0 0 .95238 .49383 .47619)" width="80" height="20" fill="#fff" stroke="#00f"/><text class="Text" transform="translate(40,13)" fill="#00f"  font-size="10px"  text-anchor="middle"><tspan x="0" y="0">Valproic acid</tspan></text></a><a  class="GeneProduct IVD " transform="translate(638,415)"   name="IVD"  ><rect class="Icon" transform="matrix(.98765 0 0 .95238 .49383 .47619)" width="80" height="20" fill="#fff" stroke="#000"/><text class="Text" transform="translate(40,13)"   font-size="10px"  text-anchor="middle"><tspan x="0" y="0">IVD</tspan></text></a><a class="Metabolite ChEBI_CHEBI_17200  " transform="translate(233,315)" color="#00f"  name="Uridine diphosphate glucuronic acid"  ><rect class="Icon" transform="matrix(.99454 0 0 .95238 .49727 .47619)" width="182" height="20" fill="#fff" stroke="#00f"/><text class="Text" transform="translate(91,13)" fill="#00f"  font-size="10px"  text-anchor="middle"><tspan x="0" y="0">Uridine diphosphate glucuronic acid</tspan></text></a><a  class="GeneProduct ABAT " transform="translate(185,148)"   name="ABAT"  ><rect class="Icon" transform="matrix(.98765 0 0 .95238 .49383 .47619)" width="80" height="20" fill="#fff" stroke="#000"/><text class="Text" transform="translate(40,13)"   font-size="10px"  text-anchor="middle"><tspan x="0" y="0">ABAT</tspan></text></a><a class="Metabolite " transform="translate(531,259)" color="#00f"  name="Valproic acid glucuronide"  ><rect class="Icon" transform="matrix(.99231 0 0 .95238 .49615 .47619)" width="129" height="20" fill="#fff" stroke="#00f"/><text class="Text" transform="translate(64.5,13)" fill="#00f"  font-size="10px"  text-anchor="middle"><tspan x="0" y="0">Valproic acid glucuronide</tspan></text></a><g class="GroupComplex" transform="translate(917,423)" color="grey" ><use class="Icon" transform="matrix(.9905 0 0 .98479 .49525 .4924)" width="104.25" height="64.75" fill="#b4b464" fill-opacity=".1" stroke="grey" xlink:href="#g"/><a  class="GeneProduct HADHB " transform="translate(12.25,32.75)"   name="HADHB"  ><rect class="Icon" transform="matrix(.98765 0 0 .95238 .49383 .47619)" width="80" height="20" fill="#fff" stroke="#000"/><text class="Text" transform="translate(40,13)"   font-size="10px"  text-anchor="middle"><tspan x="0" y="0">HADHB</tspan></text></a><a  class="GeneProduct HADHA " transform="translate(12,12)"   name="HADHA"  ><rect class="Icon" transform="matrix(.98765 0 0 .95238 .49383 .47619)" width="80" height="20" fill="#fff" stroke="#000"/><text class="Text" transform="translate(40,13)"   font-size="10px"  text-anchor="middle"><tspan x="0" y="0">HADHA</tspan></text></a></g><g class="GroupGroup" transform="translate(434,90)" color="grey" ><use class="Icon" width="96" height="76" fill="transparent"  stroke="grey" stroke-dasharray="5,3" stroke-width="0" xlink:href="#c"/><a  class="GeneProduct CYP2B6 " transform="translate(8,48)"   name="CYP2B6"  ><rect class="Icon" transform="matrix(.98765 0 0 .95238 .49383 .47619)" width="80" height="20" fill="#fff" stroke="#000"/><text class="Text" transform="translate(40,13)"   font-size="10px"  text-anchor="middle"><tspan x="0" y="0">CYP2B6</tspan></text></a><a  class="GeneProduct CYP2C9 " transform="translate(8,8)"   name="CYP2C9"  ><rect class="Icon" transform="matrix(.98765 0 0 .95238 .49383 .47619)" width="80" height="20" fill="#fff" stroke="#000"/><text class="Text" transform="translate(40,13)"   font-size="10px"  text-anchor="middle"><tspan x="0" y="0">CYP2C9</tspan></text></a><a  class="GeneProduct CYP2A6 " transform="translate(8,28)"   name="CYP2A6"  ><rect class="Icon" transform="matrix(.98765 0 0 .95238 .49383 .47619)" width="80" height="20" fill="#fff" stroke="#000"/><text class="Text" transform="translate(40,13)"   font-size="10px"  text-anchor="middle"><tspan x="0" y="0">CYP2A6</tspan></text></a></g><a  class="GeneProduct ACADSB " transform="translate(638,356)"   name="ACADSB"  ><rect class="Icon" transform="matrix(.98765 0 0 .95238 .49383 .47619)" width="80" height="20" fill="#fff" stroke="#000"/><text class="Text" transform="translate(40,13)"   font-size="10px"  text-anchor="middle"><tspan x="0" y="0">ACADSB</tspan></text></a><g class="GroupGroup" transform="translate(434,462)" color="grey" ><use class="Icon" width="96" height="76" fill="transparent"  stroke="grey" stroke-dasharray="5,3" stroke-width="0" xlink:href="#c"/><a  class="GeneProduct CYP2B6 " transform="translate(8,48)"   name="CYP2B6"  ><rect class="Icon" transform="matrix(.98765 0 0 .95238 .49383 .47619)" width="80" height="20" fill="#fff" stroke="#000"/><text class="Text" transform="translate(40,13)"   font-size="10px"  text-anchor="middle"><tspan x="0" y="0">CYP2B6</tspan></text></a><a  class="GeneProduct CYP2C9 " transform="translate(8,8)"   name="CYP2C9"  ><rect class="Icon" transform="matrix(.98765 0 0 .95238 .49383 .47619)" width="80" height="20" fill="#fff" stroke="#000"/><text class="Text" transform="translate(40,13)"   font-size="10px"  text-anchor="middle"><tspan x="0" y="0">CYP2C9</tspan></text></a><a  class="GeneProduct CYP2A6 " transform="translate(8,28)"   name="CYP2A6"  ><rect class="Icon" transform="matrix(.98765 0 0 .95238 .49383 .47619)" width="80" height="20" fill="#fff" stroke="#000"/><text class="Text" transform="translate(40,13)"   font-size="10px"  text-anchor="middle"><tspan x="0" y="0">CYP2A6</tspan></text></a></g><text class="Text" transform="translate(5,27)" dominant-baseline="central" fill="black"  font-size="12px" font-weight="bold" overflow="visible" ><tspan x="0" y="-9">Name: Valproic acid pathway</tspan> <tspan x="0" y="9">Organism: Homo sapiens</tspan></text></g></svg>
