<?xml version="1.0" encoding="UTF-8"?>
<!--
  WikiPathways page: https://www.wikipathways.org/index.php/Pathway:WP3845
  URL for this compressed file: https://github.com/eweitz/cachome/tree/main/data/wikipathways/WP3845.svg
  Source code for compression: https://github.com/eweitz/cachome/tree/main/src/wikipathways.py
-->
<svg class="Diagram" width="800" height="600" color="black" baseProfile="full" prefix="schema:http://schema.org/" preserveAspectRatio="xMidYMid" version="1.1" viewBox="0 0 1176.7 1047.3" vocab="http://vocabularies.wikipathways.org/wp#" xmlns="http://www.w3.org/2000/svg" xmlns:xlink="http://www.w3.org/1999/xlink"><style>svg {font-family: 'Liberation Sans', Arial, sans-serif; }</style><defs><filter id="e" x="-50%" y="-50%" width="200%" height="200%"><feComposite in="SourceGraphic" in2="SourceGraphic" result="doubleDark"/><feMorphology in="doubleDark" operator="dilate" radius="0.16666666666666666" result="in2Double"/><feMorphology in="SourceGraphic" operator="dilate" radius="3" result="inDouble"/><feComposite in="inDouble" in2="in2Double" operator="out" result="doubleResult"/></filter><filter id="a" x="0" y="0" width="1176.7" height="1047.3" filterUnits="userSpaceOnUse"><feColorMatrix in="SourceGraphic" values="-1   0   0 0 0                   0  -1   0 0 0                   0   0  -1 0 0                   0   0   0 1 0"/></filter><marker id="c" stroke-dasharray="99999" markerHeight="12" markerUnits="userSpaceOnUse" markerWidth="12" orient="auto" preserveAspectRatio="none" refX="12" refY="6" viewBox="0 0 12 12"><path transform="rotate(180 6 6)" d="M12 11L0 6l12-5z" fill="currentColor" stroke-width="0"/></marker><marker id="f" stroke-dasharray="99999" markerHeight="12" markerUnits="userSpaceOnUse" markerWidth="12" orient="auto" preserveAspectRatio="none" refX="12" refY="6" viewBox="0 0 12 12"><path transform="rotate(180 6 6)" d="M12 12L0 6l12-6-7 6z" fill="currentColor" stroke-width="0"/></marker><symbol id="g" overflow="visible" preserveAspectRatio="none" viewBox="0 0 50 50"><ellipse cx="25" cy="25" rx="25" ry="25" stroke="currentColor" vector-effect="non-scaling-stroke"/></symbol><symbol id="d" overflow="visible" preserveAspectRatio="none" viewBox="0 0 100 100"><path d="M0 25L25 0h50l25 25v50l-25 25H25L0 75z" stroke="currentColor" vector-effect="non-scaling-stroke"/></symbol><symbol id="b" preserveAspectRatio="none" viewBox="0 0 100 100"/></defs><g class="Viewport" color="black"  name="Name: Canonical and non-canonical Notch signaling Organism: Homo sapiens"><rect class="Icon" width="1176.7" height="1047.3" fill="#fff" stroke="#000" stroke-width="0"/><g id="h" class="Interaction" color="#000" ><g color="#000" fill="transparent"  filter="url(#a)" stroke="#000" stroke-dasharray="52.82163382554499, 0"><path class="EdgeBody" d="m143.33 975.33 45.25-27.25"   /></g></g><g id="i" class="Interaction" color="#000" ><g color="#000" fill="transparent"  filter="url(#a)" stroke="#000" stroke-dasharray="172.68592159571324, 0"><path class="EdgeBody" d="m993.33 599-159.44 66.333"   /></g></g><g id="j" class="Interaction" color="#000" ><g color="#000" fill="transparent"  filter="url(#a)" stroke="#000" stroke-dasharray="71.56203602469687, 0"><path class="EdgeBody" d="m268.58 948.08 65.75 28.25"   /></g></g><g id="k" class="Interaction" color="#000" ><g color="#000" fill="transparent"  filter="url(#a)" stroke="#000" stroke-dasharray="168.6310087163525, 0"><path class="EdgeBody" d="m588.33 603 156.69 62.333"   /></g></g><g id="l" class="Interaction" color="#000" ><g color="#000" fill="transparent"  filter="url(#a)" stroke="#000" stroke-dasharray="63.33444352097083, 0"><path class="EdgeBody" d="m789.83 602-0.375 63.333"   /></g></g><g id="m" class="DirectedInteraction" color="#000" ><g color="#000" fill="transparent"  filter="url(#a)" stroke="#000" stroke-dasharray="28.45091239660631, 5.8"><path class="EdgeBody" d="m993.58 544.75-0.25 34.25"   marker-end="url(#c)" /></g></g><g id="n" class="DirectedInteraction" color="#000" ><g color="#000" fill="transparent"  filter="url(#a)" stroke="#000" stroke-dasharray="187.86982212001948, 5.8"><path class="EdgeBody" d="m809.58 368.75 158 112"   marker-end="url(#c)" /></g></g><g id="o" class="DirectedInteraction" color="#000" ><g color="#000" fill="transparent"  filter="url(#a)" stroke="#000" stroke-dasharray="32.450816984739035, 5.8"><path class="EdgeBody" d="m588.58 544.75-0.25 38.25"   marker-end="url(#c)" /></g></g><g id="p" class="DirectedInteraction" color="#000" ><g color="#000" fill="transparent"  filter="url(#a)" stroke="#000" stroke-dasharray="185.43022773609832, 5.8"><path class="EdgeBody" d="m769.58 368.75-155 112"   marker-end="url(#c)" /></g></g><g id="q" class="DirectedInteraction" color="#000" ><g color="#000" fill="transparent"  filter="url(#a)" stroke="#000" stroke-dasharray="178.7670609832643, 5.8"><path class="EdgeBody" d="m809.58 348.75 132-129"   marker-end="url(#c)" /></g></g><g id="r" class="DirectedInteraction" color="#000" ><g color="#000" fill="transparent"  filter="url(#a)" stroke="#000" stroke-dasharray="101.2, 5.8"><path class="EdgeBody" d="m789.58 368.75v107"   marker-end="url(#c)" /></g></g><g id="s" class="DirectedInteraction" color="#000" ><g color="#000" fill="transparent"  filter="url(#a)" stroke="#000" stroke-dasharray="35.950748496284476, 5.8"><path class="EdgeBody" d="m789.58 539.75 0.25 41.75"   marker-end="url(#c)" /></g></g><g id="t" class="DirectedInteraction" color="#000" ><g color="#000" fill="transparent"  filter="url(#a)" stroke="#000" stroke-dasharray="47.45058685122646, 5.8"><path class="EdgeBody" d="m993.58 281.75 0.25 53.25"   marker-end="url(#c)" /></g></g><g id="u" class="DirectedInteraction" color="#000" ><g color="#000" fill="transparent"  filter="url(#a)" stroke="#000" stroke-dasharray="161.2029939851373, 5.8"><path class="EdgeBody" d="m582.58 359.75 167-1"   marker-end="url(#c)" /></g><g class="Burr Anchor" transform="translate(649.38 359.35)" ><use class="Icon" width="0" height="0" fill="#141414" stroke-width="0" xlink:href="#b"/></g></g><g id="v" class="Interaction" color="#000" ><g color="#000" fill="transparent"  filter="url(#a)" stroke="#000" stroke-dasharray="57.250059608935025, 1"><path class="EdgeBody" d="m340.33 359.67 58.25 0.083333"   marker-end="url(#f)" /></g></g><g id="w" class="Interaction" color="#000" ><g color="#000" fill="transparent"  filter="url(#a)" stroke="#000" stroke-dasharray="64.75434348366161, 0"><path class="EdgeBody" d="m229.33 851.33-0.75 64.75"   /></g></g><g id="x" class="DirectedInteraction" color="#000" ><g color="#000" fill="transparent"  filter="url(#a)" stroke="#000" stroke-dasharray="144.23307968578106, 5.8"><path class="EdgeBody" d="m777.33 281-127.95 78.35"   marker-end="url(#c)" /></g></g><g id="y" class="DirectedInteraction" color="#000" ><g color="#000" fill="transparent"  filter="url(#a)" stroke="#000" stroke-dasharray="128.20979441816917, 5.8"><path class="EdgeBody" d="m551.33 268 98.05 91.35"   marker-end="url(#c)" /></g></g><g class="SingleFreeNode Shape PhysicalEntity CellularComponent Cell" transform="translate(490.33 72.5)" color="#c0c0c0" ><g fill="transparent"  filter="url(#e)" stroke="#c0c0c0" stroke-width="3"><rect class="Icon" transform="matrix(.98209 0 0 .98124 5.8925 5.8874)" width="657.83" height="627.67" rx="15" ry="15"   /></g></g><g class="SingleFreeNode Shape PhysicalEntity CellularComponent Nucleus" transform="translate(887.83 83.833)" color="#c0c0c0" ><g fill="transparent"  filter="url(#e)" stroke="#c0c0c0" stroke-width="3"><use class="Icon" transform="matrix(.95062 0 0 .98032 5.7037 5.8819)" width="231" height="597.6666666666666"    xlink:href="#g"/></g></g><g class="SingleFreeNode Shape" transform="translate(28.333 741.33)" color="#000" ><rect class="Icon" transform="matrix(.99754 0 0 .99639 .49877 .49819)" width="405" height="276" fill="transparent"  stroke="#000"/></g><g class="SingleFreeNode Shape PhysicalEntity CellularComponent Cell" transform="translate(19.333 73.5)" color="#c0c0c0" ><g fill="transparent"  filter="url(#e)" stroke="#c0c0c0" stroke-width="3"><rect class="Icon" transform="matrix(.95797 0 0 .981 5.7478 5.886)" width="273.5" height="619.5" rx="15" ry="15"   /></g></g><g class="Label" transform="translate(962 112.67)" color="#000"  name="Nucleus"><use class="Icon" width="80" height="20" fill="transparent"  stroke="#000" stroke-width="0" xlink:href="#b"/><text class="Text" transform="translate(40,14)"   font-size="12px" font-weight="bold"  text-anchor="middle"><tspan x="0" y="0">Nucleus</tspan></text></g><g class="Label" transform="translate(242.33 976.33)" color="#000"  name="NOTCH intra-cellular domain"><use class="Icon" width="184" height="20" fill="transparent"  stroke="#000" stroke-width="0" xlink:href="#b"/><text class="Text" transform="translate(92,14)"   font-size="12px" font-weight="bold"  text-anchor="middle"><tspan x="0" y="0">NOTCH intra-cellular domain</tspan></text></g><g class="Label" transform="translate(28.333 90)" color="#000"  name="Signal sending cell"><use class="Icon" width="152" height="20" fill="transparent"  stroke="#000" stroke-width="0" xlink:href="#b"/><text class="Text" transform="translate(76,15)"   font-size="15px" font-weight="bold"  text-anchor="middle"><tspan x="0" y="0">Signal sending cell</tspan></text></g><g class="Label" transform="translate(503.33 85)" color="#000"  name="Signal receiving cell"><use class="Icon" width="154" height="20" fill="transparent"  stroke="#000" stroke-width="0" xlink:href="#b"/><text class="Text" transform="translate(77,15)"   font-size="15px" font-weight="bold"  text-anchor="middle"><tspan x="0" y="0">Signal receiving cell</tspan></text></g><g class="Label" transform="translate(48.333 975.33)" color="#000"  name="NOTCH extra-cellular domain"><use class="Icon" width="190" height="20" fill="transparent"  stroke="#000" stroke-width="0" xlink:href="#b"/><text class="Text" transform="translate(95,14)"   font-size="12px" font-weight="bold"  text-anchor="middle"><tspan x="0" y="0">NOTCH extra-cellular domain</tspan></text></g><g class="Label" transform="translate(92 629)" color="#000"  name="Cytoplasm"><use class="Icon" width="80" height="20" fill="transparent"  stroke="#000" stroke-width="0" xlink:href="#b"/><text class="Text" transform="translate(40,14)"   font-size="12px" font-weight="bold"  text-anchor="middle"><tspan x="0" y="0">Cytoplasm</tspan></text></g><g class="Label" transform="translate(700.58 665.33)" color="#000"  name="NOTCH non-canonical targets"><use class="Icon" width="177.75" height="20" fill="transparent"  stroke="#000" stroke-width="0" xlink:href="#b"/><text class="Text" transform="translate(88.875,14)"   font-size="12px" font-weight="bold"  text-anchor="middle"><tspan x="0" y="0">NOTCH non-canonical targets</tspan></text></g><g class="GroupGroup" transform="translate(244.33 295.67)" color="grey" ><use class="Icon" width="96" height="256.0000000000003" fill="transparent"  stroke="grey" stroke-dasharray="5,3" stroke-width="0" xlink:href="#b"/><g class="Label" transform="translate(8,8)" color="#000"  name="Ligands"><use class="Icon" width="80" height="20" fill="transparent"  stroke="#000" stroke-width="0" xlink:href="#b"/><text class="Text" transform="translate(40,14)"   font-size="12px" font-weight="bold"  text-anchor="middle"><tspan x="0" y="0">Ligands</tspan></text></g><a  class="GeneProduct DLL4 " transform="translate(8,108)"   name="DLL4"  ><rect class="Icon" transform="matrix(.98765 0 0 .95238 .49383 .47619)" width="80" height="20" fill="#fff" stroke="#000"/><text class="Text" transform="translate(40,13)"   font-size="10px"  text-anchor="middle"><tspan x="0" y="0">DLL4</tspan></text></a><a  class="GeneProduct JAG2 " transform="translate(8,48)"   name="JAG2"  ><rect class="Icon" transform="matrix(.98765 0 0 .95238 .49383 .47619)" width="80" height="20" fill="#fff" stroke="#000"/><text class="Text" transform="translate(40,13)"   font-size="10px"  text-anchor="middle"><tspan x="0" y="0">JAG2</tspan></text></a><a  class="GeneProduct JAG1 " transform="translate(8,28)"   name="JAG1"  ><rect class="Icon" transform="matrix(.98765 0 0 .95238 .49383 .47619)" width="80" height="20" fill="#fff" stroke="#000"/><text class="Text" transform="translate(40,13)"   font-size="10px"  text-anchor="middle"><tspan x="0" y="0">JAG1</tspan></text></a><a  class="GeneProduct DLL3 " transform="translate(8,88)"   name="DLL3"  ><rect class="Icon" transform="matrix(.98765 0 0 .95238 .49383 .47619)" width="80" height="20" fill="#fff" stroke="#000"/><text class="Text" transform="translate(40,13)"   font-size="10px"  text-anchor="middle"><tspan x="0" y="0">DLL3</tspan></text></a><a  class="GeneProduct DLK1 " transform="translate(8,128)"   name="DLK1"  ><rect class="Icon" transform="matrix(.98765 0 0 .95238 .49383 .47619)" width="80" height="20" fill="#fff" stroke="#000"/><text class="Text" transform="translate(40,13)"   font-size="10px"  text-anchor="middle"><tspan x="0" y="0">DLK1</tspan></text></a><a  class="GeneProduct DLK2 " transform="translate(8 148)"   name="DLK2"  ><rect class="Icon" transform="matrix(.98765 0 0 .95238 .49383 .47619)" width="80" height="20" fill="#fff" stroke="#000"/><text class="Text" transform="translate(40,13)"   font-size="10px"  text-anchor="middle"><tspan x="0" y="0">DLK2</tspan></text></a><a  class="GeneProduct MFAP1 " transform="translate(8 168)"   name="MAGP1"  ><rect class="Icon" transform="matrix(.98765 0 0 .95238 .49383 .47619)" width="80" height="20" fill="#fff" stroke="#000"/><text class="Text" transform="translate(40,13)"   font-size="10px"  text-anchor="middle"><tspan x="0" y="0">MAGP1</tspan></text></a><a  class="GeneProduct DLL1 " transform="translate(8,68)"   name="DLL1"  ><rect class="Icon" transform="matrix(.98765 0 0 .95238 .49383 .47619)" width="80" height="20" fill="#fff" stroke="#000"/><text class="Text" transform="translate(40,13)"   font-size="10px"  text-anchor="middle"><tspan x="0" y="0">DLL1</tspan></text></a><a  class="GeneProduct MFAP2 " transform="translate(8 188)"   name="MAGP2"  ><rect class="Icon" transform="matrix(.98765 0 0 .95238 .49383 .47619)" width="80" height="20" fill="#fff" stroke="#000"/><text class="Text" transform="translate(40,13)"   font-size="10px"  text-anchor="middle"><tspan x="0" y="0">MAGP2</tspan></text></a><a  class="GeneProduct CNTN6 " transform="translate(8 228)"   name="NB3"  ><rect class="Icon" transform="matrix(.98765 0 0 .95238 .49383 .47619)" width="80" height="20" fill="#fff" stroke="#000"/><text class="Text" transform="translate(40,13)"   font-size="10px"  text-anchor="middle"><tspan x="0" y="0">NB3</tspan></text></a><a  class="GeneProduct DNER " transform="translate(8 208)"   name="DNER"  ><rect class="Icon" transform="matrix(.98765 0 0 .95238 .49383 .47619)" width="80" height="20" fill="#fff" stroke="#000"/><text class="Text" transform="translate(40,13)"   font-size="10px"  text-anchor="middle"><tspan x="0" y="0">DNER</tspan></text></a></g><g class="GroupGroup" transform="translate(908.33 335)" color="grey" ><use class="Icon" width="170.9999999999999" height="84" fill="transparent"  stroke="grey" stroke-dasharray="5,3" stroke-width="0" xlink:href="#b"/><g class="Label" transform="translate(8,56)" color="#000"  name="Canonical target genes"><use class="Icon" width="155" height="20" fill="transparent"  stroke="#000" stroke-width="0" xlink:href="#b"/><text class="Text" transform="translate(77.5,14)"   font-size="12px" font-weight="bold"  text-anchor="middle"><tspan x="0" y="0">Canonical target genes</tspan></text></g><a  class="GeneProduct HES1 " transform="translate(49.25,8)"   name="HES1"  ><rect class="Icon" transform="matrix(.98765 0 0 .95238 .49383 .47619)" width="80" height="20" fill="#fff" stroke="#000"/><text class="Text" transform="translate(40,13)"   font-size="10px"  text-anchor="middle"><tspan x="0" y="0">HES1</tspan></text></a><a  class="GeneProduct HEY1 " transform="translate(49.25,28)"   name="HEY1"  ><rect class="Icon" transform="matrix(.98765 0 0 .95238 .49383 .47619)" width="80" height="20" fill="#fff" stroke="#000"/><text class="Text" transform="translate(40,13)"   font-size="10px"  text-anchor="middle"><tspan x="0" y="0">HEY1</tspan></text></a></g><g class="WikiPathways_WP3545 Pathway" transform="translate(732.33 581.5)" color="#14961e"  name="NF-kB Pathway"><use class="Icon" width="115" height="20.5" fill="transparent"  stroke="#14961e" stroke-width="0" xlink:href="#b"/><text class="Text" transform="translate(57.5,14.25)" fill="#14961e"  font-size="12px" font-weight="bold" stroke="black" stroke-width="0" text-anchor="middle"><tspan x="0" y="0">NF-kB Pathway</tspan></text></g><g class="Pathway" transform="translate(953.33 579)" color="#14961e"  name="Unknown"><use class="Icon" width="80" height="20" fill="transparent"  stroke="#14961e" stroke-width="0" xlink:href="#b"/><text class="Text" transform="translate(40,14)" fill="#14961e"  font-size="12px" font-weight="bold" stroke="black" stroke-width="0" text-anchor="middle"><tspan x="0" y="0">Unknown</tspan></text></g><g class="Pathway" transform="translate(537.33 583)" color="#14961e"  name="Cell Adhesion"><use class="Icon" width="102" height="20" fill="transparent"  stroke="#14961e" stroke-width="0" xlink:href="#b"/><text class="Text" transform="translate(51,14)" fill="#14961e"  font-size="12px" font-weight="bold" stroke="black" stroke-width="0" text-anchor="middle"><tspan x="0" y="0">Cell Adhesion</tspan></text></g><a  class="GeneProduct ADAM10 " transform="translate(511.33 248)"   name="ADAM10"  ><rect class="Icon" transform="matrix(.98765 0 0 .95238 .49383 .47619)" width="80" height="20" fill="#fff" stroke="#000"/><text class="Text" transform="translate(40,13)"   font-size="10px"  text-anchor="middle"><tspan x="0" y="0">ADAM10</tspan></text></a><g class="GroupComplex" transform="translate(941.58 480.75)" color="grey" ><use class="Icon" transform="matrix(.99048 0 0 .98462 .49524 .49231)" width="103.99999999999989" height="63.9999999999996" fill="#b4b464" fill-opacity=".1" stroke="grey" xlink:href="#d"/><a  class="GeneProduct LEF1 " transform="translate(12 32)"   name="LEF1"  ><rect class="Icon" transform="matrix(.98765 0 0 .95238 .49383 .47619)" width="80" height="20" fill="#fff" stroke="#000"/><text class="Text" transform="translate(40,13)"   font-size="10px"  text-anchor="middle"><tspan x="0" y="0">LEF1</tspan></text></a><g class="Uniprot-TrEMBL_P46531 Protein NOTCH1 " transform="translate(12,12)" color="#000"  name="NICD"><rect class="Icon" transform="matrix(.98765 0 0 .95238 .49383 .47619)" width="80" height="20" fill="#fff" stroke="#000"/><text class="Text" transform="translate(40,13)"   font-size="10px"  text-anchor="middle"><tspan x="0" y="0">NICD</tspan></text></g></g><g class="GroupComplex" transform="translate(536.58 480.75)" color="grey" ><use class="Icon" transform="matrix(.99048 0 0 .98462 .49524 .49231)" width="104" height="63.9999999999996" fill="#b4b464" fill-opacity=".1" stroke="grey" xlink:href="#d"/><a  class="GeneProduct RRAS " transform="translate(12 32)"   name="RRAS"  ><rect class="Icon" transform="matrix(.98765 0 0 .95238 .49383 .47619)" width="80" height="20" fill="#fff" stroke="#000"/><text class="Text" transform="translate(40,13)"   font-size="10px"  text-anchor="middle"><tspan x="0" y="0">RRAS</tspan></text></a><g class="Uniprot-TrEMBL_P46531 Protein NOTCH1 " transform="translate(12,12)" color="#000"  name="NICD"><rect class="Icon" transform="matrix(.98765 0 0 .95238 .49383 .47619)" width="80" height="20" fill="#fff" stroke="#000"/><text class="Text" transform="translate(40,13)"   font-size="10px"  text-anchor="middle"><tspan x="0" y="0">NICD</tspan></text></g></g><g class="GroupComplex" transform="translate(941.58 157.75)" color="grey" ><use class="Icon" transform="matrix(.99048 0 0 .992 .49524 .496)" width="103.99999999999989" height="124" fill="#b4b464" fill-opacity=".1" stroke="grey" xlink:href="#d"/><a  class="GeneProduct MAML2 " transform="translate(12,72)"   name="MAML2"  ><rect class="Icon" transform="matrix(.98765 0 0 .95238 .49383 .47619)" width="80" height="20" fill="#fff" stroke="#000"/><text class="Text" transform="translate(40,13)"   font-size="10px"  text-anchor="middle"><tspan x="0" y="0">MAML2</tspan></text></a><a  class="GeneProduct RBPJ " transform="translate(12 32)"   name="RBPJ"  ><rect class="Icon" transform="matrix(.98765 0 0 .95238 .49383 .47619)" width="80" height="20" fill="#fff" stroke="#000"/><text class="Text" transform="translate(40,13)"   font-size="10px"  text-anchor="middle"><tspan x="0" y="0">RBPJ</tspan></text></a><a  class="GeneProduct MAML1 " transform="translate(12 52)"   name="MAML1"  ><rect class="Icon" transform="matrix(.98765 0 0 .95238 .49383 .47619)" width="80" height="20" fill="#fff" stroke="#000"/><text class="Text" transform="translate(40,13)"   font-size="10px"  text-anchor="middle"><tspan x="0" y="0">MAML1</tspan></text></a><a  class="GeneProduct MAML3 " transform="translate(12,92)"   name="MAML3"  ><rect class="Icon" transform="matrix(.98765 0 0 .95238 .49383 .47619)" width="80" height="20" fill="#fff" stroke="#000"/><text class="Text" transform="translate(40,13)"   font-size="10px"  text-anchor="middle"><tspan x="0" y="0">MAML3</tspan></text></a><g class="Uniprot-TrEMBL_P46531 Protein NOTCH1 " transform="translate(12,12)" color="#000"  name="NICD"><rect class="Icon" transform="matrix(.98765 0 0 .95238 .49383 .47619)" width="80" height="20" fill="#fff" stroke="#000"/><text class="Text" transform="translate(40,13)"   font-size="10px"  text-anchor="middle"><tspan x="0" y="0">NICD</tspan></text></g></g><g class="GroupComplex" transform="translate(737.58 475.75)" color="grey" ><use class="Icon" transform="matrix(.99048 0 0 .98462 .49524 .49231)" width="104" height="63.99999999999966" fill="#b4b464" fill-opacity=".1" stroke="grey" xlink:href="#d"/><a  class="GeneProduct CHUK " transform="translate(12 32)"   name="IKKa"  ><rect class="Icon" transform="matrix(.98765 0 0 .95238 .49383 .47619)" width="80" height="20" fill="#fff" stroke="#000"/><text class="Text" transform="translate(40,13)"   font-size="10px"  text-anchor="middle"><tspan x="0" y="0">IKKa</tspan></text></a><g class="Uniprot-TrEMBL_P46531 Protein NOTCH1 " transform="translate(12,12)" color="#000"  name="NICD"><rect class="Icon" transform="matrix(.98765 0 0 .95238 .49383 .47619)" width="80" height="20" fill="#fff" stroke="#000"/><text class="Text" transform="translate(40,13)"   font-size="10px"  text-anchor="middle"><tspan x="0" y="0">NICD</tspan></text></g></g><g class="GroupComplex" transform="translate(136.58 916.08)" color="grey" ><use class="Icon" transform="matrix(.99459 0 0 .97778 .4973 .48889)" width="183.9999999999999" height="44" fill="#b4b464" fill-opacity=".1" stroke="grey" xlink:href="#d"/><g class="Uniprot-TrEMBL_P46531 Protein NOTCH1 " transform="translate(92 12)" color="#000"  name="NICD"><rect class="Icon" transform="matrix(.98765 0 0 .95238 .49383 .47619)" width="80" height="20" fill="#fff" stroke="#000"/><text class="Text" transform="translate(40,13)"   font-size="10px"  text-anchor="middle"><tspan x="0" y="0">NICD</tspan></text></g><a  class="Uniprot-TrEMBL_O00548 Protein DLL1 " transform="translate(12,12)"   name="NECD"  ><rect class="Icon" transform="matrix(.98765 0 0 .95238 .49383 .47619)" width="80" height="20" fill="#fff" stroke="#000"/><text class="Text" transform="translate(40,13)"   font-size="10px"  text-anchor="middle"><tspan x="0" y="0">NECD</tspan></text></a></g><g class="GroupGroup" transform="translate(729.33 225)" color="grey" ><use class="Icon" width="96" height="56.0000000000002" fill="transparent"  stroke="grey" stroke-dasharray="5,3" stroke-width="0" xlink:href="#b"/><a  class="GeneProduct PSEN2 " transform="translate(8 28)"   name="PSEN2"  ><rect class="Icon" transform="matrix(.98765 0 0 .95238 .49383 .47619)" width="80" height="20" fill="#fff" stroke="#000"/><text class="Text" transform="translate(40,13)"   font-size="10px"  text-anchor="middle"><tspan x="0" y="0">PSEN2</tspan></text></a><a  class="GeneProduct PSEN1 " transform="translate(8,8)"   name="PSEN1"  ><rect class="Icon" transform="matrix(.98765 0 0 .95238 .49383 .47619)" width="80" height="20" fill="#fff" stroke="#000"/><text class="Text" transform="translate(40,13)"   font-size="10px"  text-anchor="middle"><tspan x="0" y="0">PSEN1</tspan></text></a></g><g class="GroupGroup" transform="translate(181.33 755.33)" color="grey" ><use class="Icon" width="96.00000000000003" height="95.99999999999989" fill="transparent"  stroke="grey" stroke-dasharray="5,3" stroke-width="0" xlink:href="#b"/><a  class="GeneProduct NOTCH3 " transform="translate(8 48)"   name="NOTCH3"  ><rect class="Icon" transform="matrix(.98765 0 0 .95238 .49383 .47619)" width="80" height="20" fill="#fff" stroke="#000"/><text class="Text" transform="translate(40,13)"   font-size="10px"  text-anchor="middle"><tspan x="0" y="0">NOTCH3</tspan></text></a><a  class="GeneProduct NOTCH1 " transform="translate(8,8)"   name="NOTCH1"  ><rect class="Icon" transform="matrix(.98765 0 0 .95238 .49383 .47619)" width="80" height="20" fill="#fff" stroke="#000"/><text class="Text" transform="translate(40,13)"   font-size="10px"  text-anchor="middle"><tspan x="0" y="0">NOTCH1</tspan></text></a><a  class="GeneProduct NOTCH2 " transform="translate(8 28)"   name="NOTCH2"  ><rect class="Icon" transform="matrix(.98765 0 0 .95238 .49383 .47619)" width="80" height="20" fill="#fff" stroke="#000"/><text class="Text" transform="translate(40,13)"   font-size="10px"  text-anchor="middle"><tspan x="0" y="0">NOTCH2</tspan></text></a><a  class="GeneProduct NOTCH4 " transform="translate(8 68)"   name="NOTCH4"  ><rect class="Icon" transform="matrix(.98765 0 0 .95238 .49383 .47619)" width="80" height="20" fill="#fff" stroke="#000"/><text class="Text" transform="translate(40,13)"   font-size="10px"  text-anchor="middle"><tspan x="0" y="0">NOTCH4</tspan></text></a></g><g class="GroupComplex" transform="translate(398.58 337.75)" color="grey" ><use class="Icon" transform="matrix(.99459 0 0 .97778 .4973 .48889)" width="184.00000000000028" height="44" fill="#b4b464" fill-opacity=".1" stroke="grey" xlink:href="#d"/><a  class="Uniprot-TrEMBL_O00548 Protein DLL1 " transform="translate(12,12)"   name="NECD"  ><rect class="Icon" transform="matrix(.98765 0 0 .95238 .49383 .47619)" width="80" height="20" fill="#fff" stroke="#000"/><text class="Text" transform="translate(40,13)"   font-size="10px"  text-anchor="middle"><tspan x="0" y="0">NECD</tspan></text></a><g class="Uniprot-TrEMBL_P46531 GeneProduct NOTCH1 " transform="translate(92 12)" color="#000"  name="NICD"><rect class="Icon" transform="matrix(.98765 0 0 .95238 .49383 .47619)" width="80" height="20" fill="#fff" stroke="#000"/><text class="Text" transform="translate(40,13)"   font-size="10px"  text-anchor="middle"><tspan x="0" y="0">NICD</tspan></text></g></g><g class="Uniprot-TrEMBL_P46531 Protein NOTCH1 " transform="translate(749.58 348.75)" color="#000"  name="NICD"><rect class="Icon" transform="matrix(.98765 0 0 .95238 .49383 .47619)" width="80" height="20" fill="#fff" stroke="#000"/><text class="Text" transform="translate(40,13)"   font-size="10px"  text-anchor="middle"><tspan x="0" y="0">NICD</tspan></text></g><text class="Text" transform="translate(5,27)" dominant-baseline="central" fill="black"  font-size="12px" font-weight="bold" overflow="visible" ><tspan x="0" y="-9">Name: Canonical and non-canonical Notch signaling</tspan> <tspan x="0" y="9">Organism: Homo sapiens</tspan></text></g></svg>
