<?xml version="1.0" encoding="UTF-8"?>
<!--
  WikiPathways page: https://www.wikipathways.org/index.php/Pathway:WP3857
  URL for this compressed file: https://github.com/eweitz/cachome/tree/main/data/wikipathways/WP3857.svg
  Source code for compression: https://github.com/eweitz/cachome/tree/main/src/wikipathways.py
-->
<svg class="Diagram" width="800" height="600" color="black" baseProfile="full" prefix="schema:http://schema.org/" preserveAspectRatio="xMidYMid" version="1.1" viewBox="0 0 693.19 700.88" vocab="http://vocabularies.wikipathways.org/wp#" xmlns="http://www.w3.org/2000/svg" xmlns:xlink="http://www.w3.org/1999/xlink"><style>svg {font-family: 'Liberation Sans', Arial, sans-serif; }</style><defs><filter id="e" x="-50%" y="-50%" width="200%" height="200%"><feComposite in="SourceGraphic" in2="SourceGraphic" result="doubleDark"/><feMorphology in="doubleDark" operator="dilate" radius="0.16666666666666666" result="in2Double"/><feMorphology in="SourceGraphic" operator="dilate" radius="3" result="inDouble"/><feComposite in="inDouble" in2="in2Double" operator="out" result="doubleResult"/></filter><filter id="a" x="0" y="0" width="693.19" height="700.88" filterUnits="userSpaceOnUse"><feColorMatrix in="SourceGraphic" values="-1   0   0 0 0                   0  -1   0 0 0                   0   0  -1 0 0                   0   0   0 1 0"/></filter><marker id="c" stroke-dasharray="99999" markerHeight="12" markerUnits="userSpaceOnUse" markerWidth="12" orient="auto" preserveAspectRatio="none" refX="12" refY="6" viewBox="0 0 12 12"><path transform="rotate(180 6 6)" d="M12 11L0 6l12-5z" fill="currentColor" stroke-width="0"/></marker><marker id="d" stroke-dasharray="99999" markerHeight="20" markerUnits="userSpaceOnUse" markerWidth="10" orient="auto" preserveAspectRatio="none" refX="10" refY="10" viewBox="0 0 10 20"><path d="m3 0v20" fill="currentColor" stroke="currentColor"/></marker><marker id="g" stroke-dasharray="99999" markerHeight="20" markerUnits="userSpaceOnUse" markerWidth="10" orient="auto" preserveAspectRatio="none" refX="10" refY="10" viewBox="0 0 10 20"><path d="m3 0v20" fill="currentColor" stroke="currentColor"/></marker><symbol id="h" overflow="visible" preserveAspectRatio="none" viewBox="0 0 50 50"><ellipse cx="25" cy="25" rx="25" ry="25" stroke="currentColor" vector-effect="non-scaling-stroke"/></symbol><symbol id="f" overflow="visible" preserveAspectRatio="none" viewBox="0 0 100 100"><path d="M0 25L25 0h50l25 25v50l-25 25H25L0 75z" stroke="currentColor" vector-effect="non-scaling-stroke"/></symbol><symbol id="b" preserveAspectRatio="none" viewBox="0 0 100 100"/></defs><g class="Viewport" color="black"  name="Name: Wnt signaling in kidney disease Organism: Mus musculus"><rect class="Icon" width="693.19" height="700.88" fill="#fff" stroke="#000" stroke-width="0"/><g id="i" class="DirectedInteraction" color="#000" ><g color="#000" fill="transparent"  filter="url(#a)" stroke="#000" stroke-dasharray="74.72229342611047, 5.8"><path class="EdgeBody" d="m150 490 1.4273 80.51"   marker-end="url(#c)" /></g></g><g id="j" class="DirectedInteraction" color="#000" ><g color="#000" fill="transparent"  filter="url(#a)" stroke="#000" stroke-dasharray="80.4724755857189, 5.8"><path class="EdgeBody" d="m415.89 520-1.8472 86.253"   marker-end="url(#c)" /></g></g><g id="k" class="DirectedInteraction" color="#000" ><g color="#000" fill="transparent"  filter="url(#a)" stroke="#000" stroke-dasharray="110.45284863490572, 5.8"><path class="EdgeBody" d="m361.85 490 0.1875 116.25"   marker-end="url(#c)" /></g></g><g id="l" class="DirectedInteraction" color="#000" ><g color="#000" fill="transparent"  filter="url(#a)" stroke="#000" stroke-dasharray="98.64105831037587, 5.8"><path class="EdgeBody" d="m150 365.56v104.44"   marker-end="url(#c)" /></g></g><g id="m" class="DirectedInteraction" color="#000" ><g color="#000" fill="transparent"  filter="url(#a)" stroke="#000" stroke-dasharray="64.58701803112997, 5.8"><path class="EdgeBody" d="m483.24 538-17.202 68.253"   marker-end="url(#c)" /></g></g><g id="n" class="Interaction" color="#000" ><g color="#000" fill="transparent"  filter="url(#a)" stroke="#000" stroke-dasharray="117.08366595069776, 7"><path class="EdgeBody" d="m297.96 289.06-117.96 38.498"   marker-end="url(#d)" /></g></g><g id="o" class="DirectedInteraction" color="#000" ><g color="#000" fill="transparent"  filter="url(#a)" stroke="#000" stroke-dasharray="128.70821153598044, 5.8"><path class="EdgeBody" d="m479.86 405.45-118.01 64.552"   marker-end="url(#c)" /></g></g><g id="p" class="DirectedInteraction" color="#000" ><g color="#000" fill="transparent"  filter="url(#a)" stroke="#000" stroke-dasharray="60.50597363284113, 5.8"><path class="EdgeBody" d="m517.86 405.45-34.617 56.552"   marker-end="url(#c)" /></g></g><g id="q" class="Inhibition" color="#000" ><g color="#000" fill="transparent"  filter="url(#a)" stroke="#000" stroke-dasharray="5.03, 3.02, 5.03, 3.02, 5.03, 3.02, 5.03, 3.02, 5.03, 3.02, 5.03, 3.02, 5.03, 3.02, 5.03, 3.02, 5.03, 3.02, 5.03, 3.02, 5.03, 3.02, 5.03, 7"><path class="EdgeBody" d="m381.96 305.06 78.896 62.387"   marker-end="url(#g)" /></g></g><g id="r" class="DirectedInteraction" color="#000" ><g color="#000" fill="transparent"  filter="url(#a)" stroke="#000" stroke-dasharray="119.99502421189074, 5.8"><path class="EdgeBody" d="m498.86 405.45-82.972 94.552"   marker-end="url(#c)" /></g></g><g id="s" class="DirectedInteraction" color="#000" ><g color="#000" fill="transparent"  filter="url(#a)" stroke="#000" stroke-dasharray="114.95219513309341, 5.8"><path class="EdgeBody" d="m420 238 78.857 91.448"   marker-end="url(#c)" /></g></g><g id="t" class="DirectedInteraction" color="#000" ><g color="#000" fill="transparent"  filter="url(#a)" stroke="#000" stroke-dasharray="47.34194459608503, 5.8"><path class="EdgeBody" d="m334 123.85 37 38.145"   marker-end="url(#c)" /></g></g><g id="u" class="DirectedInteraction" color="#000" ><g color="#000" fill="transparent"  filter="url(#a)" stroke="#000" stroke-dasharray="49.502119924592854, 5.8"><path class="EdgeBody" d="m170 238-20 51.559"   marker-end="url(#c)" /></g></g><g id="v" class="DirectedInteraction" color="#000" ><g color="#000" fill="transparent"  filter="url(#a)" stroke="#000" stroke-dasharray="46.65060796076029, 5.8"><path class="EdgeBody" d="m206 123.85-36 38.145"   marker-end="url(#c)" /></g></g><g class="SingleFreeNode Shape PhysicalEntity CellularComponent Nucleus" transform="translate(41.403 512.76)" color="#c0c0c0" ><g fill="transparent"  filter="url(#e)" stroke="#c0c0c0" stroke-width="3"><use class="Icon" transform="matrix(.94785 0 0 .91909 5.6871 5.5145)" width="218.09722222222229" height="136.3125"    xlink:href="#h"/></g></g><g class="SingleFreeNode Shape PhysicalEntity CellularComponent Cell" transform="translate(21.201 202.36)" color="#c0c0c0" ><g fill="transparent"  filter="url(#e)" stroke="#c0c0c0" stroke-width="3"><rect class="Icon" transform="matrix(.97712 0 0 .9751 5.8627 5.8506)" width="512.55" height="470.01" rx="15" ry="15"   /></g></g><g class="Label" transform="translate(113.56 125)" color="#000"  name="Canonical"><use class="Icon" width="80" height="20" fill="transparent"  stroke="#000" stroke-width="0" xlink:href="#b"/><text class="Text" transform="translate(40,14)"   font-size="12px" font-weight="bold"  text-anchor="middle"><tspan x="0" y="0">Canonical</tspan></text></g><g class="Label" transform="translate(310.04 606.25)" color="#000"  name="Cytoskeleton/planar cell Polarity"><use class="Icon" width="208" height="20" fill="transparent"  stroke="#000" stroke-width="0" xlink:href="#b"/><text class="Text" transform="translate(104,14)"   font-size="12px" font-weight="bold"  text-anchor="middle"><tspan x="0" y="0">Cytoskeleton/planar cell Polarity</tspan></text></g><g class="Label" transform="translate(378.77 125)" color="#000"  name="Non-Canonical"><use class="Icon" width="102" height="20" fill="transparent"  stroke="#000" stroke-width="0" xlink:href="#b"/><text class="Text" transform="translate(51,14)"   font-size="12px" font-weight="bold"  text-anchor="middle"><tspan x="0" y="0">Non-Canonical</tspan></text></g><g class="Label" transform="translate(111.43 570.51)" color="#000"  name="Transcription"><use class="Icon" width="80" height="20" fill="transparent"  stroke="#000" stroke-width="0" xlink:href="#b"/><text class="Text" transform="translate(40,14)"   font-size="12px" font-weight="bold"  text-anchor="middle"><tspan x="0" y="0">Transcription</tspan></text></g><a class="Metabolite ChEBI_CHEBI_29108  " transform="translate(331.85 470)" color="#00f"  name="Calcium"  ><rect class="Icon" transform="matrix(.98361 0 0 .95238 .4918 .47619)" width="60" height="20" fill="#fff" stroke="#00f"/><text class="Text" transform="translate(30,13)" fill="#00f"  font-size="10px"  text-anchor="middle"><tspan x="0" y="0">Calcium</tspan></text></a><a  class="GeneProduct P594_ENSMUSG00000007815 " transform="translate(385.89 500)"   name="Rhoa"  ><rect class="Icon" transform="matrix(.98361 0 0 .95238 .4918 .47619)" width="60" height="20" fill="#fff" stroke="#000"/><text class="Text" transform="translate(30,13)"   font-size="10px"  text-anchor="middle"><tspan x="0" y="0">Rhoa</tspan></text></a><a  class="GeneProduct P594_ENSMUSG00000006932 " transform="translate(120,470)"   name="beta-catenin"  ><rect class="Icon" transform="matrix(.98361 0 0 .95238 .4918 .47619)" width="60" height="20" fill="#fff" stroke="#000"/><text class="Text" transform="translate(30,13)"   font-size="10px"  text-anchor="middle"><tspan x="0" y="0">beta-catenin</tspan></text></a><g class="GroupComplex" transform="translate(297.96 257.06)" color="grey" ><use class="Icon" transform="matrix(.98824 0 0 .98462 .49412 .49231)" width="84" height="63.99999999999994" fill="#b4b464" fill-opacity=".1" stroke="grey" xlink:href="#f"/><a  class="GeneProduct P594_ENSMUSG00000032691 " transform="translate(12 32)"   name="Nphp3"  ><rect class="Icon" transform="matrix(.98361 0 0 .95238 .4918 .47619)" width="60" height="20" fill="#fff" stroke="#000"/><text class="Text" transform="translate(30,13)"   font-size="10px"  text-anchor="middle"><tspan x="0" y="0">Nphp3</tspan></text></a><a  class="GeneProduct P594_ENSMUSG00000028344 " transform="translate(12,12)"   name="Nphp2"  ><rect class="Icon" transform="matrix(.98361 0 0 .95238 .4918 .47619)" width="60" height="20" fill="#fff" stroke="#000"/><text class="Text" transform="translate(30,13)"   font-size="10px"  text-anchor="middle"><tspan x="0" y="0">Nphp2</tspan></text></a></g><g class="GroupGroup" transform="translate(42,162)" color="grey" ><use class="Icon" width="256" height="76" fill="transparent"  stroke="grey" stroke-dasharray="5,3" stroke-width="0" xlink:href="#b"/><a  class="GeneProduct P594_ENSMUSG00000024913 " transform="translate(8,18)"   name="Lrp5"  ><rect class="Icon" transform="matrix(.98361 0 0 .95238 .4918 .47619)" width="60" height="20" fill="#fff" stroke="#000"/><text class="Text" transform="translate(30,13)"   font-size="10px"  text-anchor="middle"><tspan x="0" y="0">Lrp5</tspan></text></a><a  class="GeneProduct P594_ENSMUSG00000027253 " transform="translate(8,38)"   name="Lrp6"  ><rect class="Icon" transform="matrix(.98361 0 0 .95238 .4918 .47619)" width="60" height="20" fill="#fff" stroke="#000"/><text class="Text" transform="translate(30,13)"   font-size="10px"  text-anchor="middle"><tspan x="0" y="0">Lrp6</tspan></text></a><a  class="GeneProduct P594_ENSMUSG00000044674 " transform="translate(68,8)"   name="Fzd1"  ><rect class="Icon" transform="matrix(.98361 0 0 .95238 .4918 .47619)" width="60" height="20" fill="#fff" stroke="#000"/><text class="Text" transform="translate(30,13)"   font-size="10px"  text-anchor="middle"><tspan x="0" y="0">Fzd1</tspan></text></a><a  class="GeneProduct P594_ENSMUSG00000036904 " transform="translate(188,28)"   name="Fzd8"  ><rect class="Icon" transform="matrix(.98361 0 0 .95238 .4918 .47619)" width="60" height="20" fill="#fff" stroke="#000"/><text class="Text" transform="translate(30,13)"   font-size="10px"  text-anchor="middle"><tspan x="0" y="0">Fzd8</tspan></text></a><a  class="GeneProduct P594_ENSMUSG00000049791 " transform="translate(128,8)"   name="Fzd4"  ><rect class="Icon" transform="matrix(.98361 0 0 .95238 .4918 .47619)" width="60" height="20" fill="#fff" stroke="#000"/><text class="Text" transform="translate(30,13)"   font-size="10px"  text-anchor="middle"><tspan x="0" y="0">Fzd4</tspan></text></a><a  class="GeneProduct P594_ENSMUSG00000050288 " transform="translate(68,28)"   name="Fzd2"  ><rect class="Icon" transform="matrix(.98361 0 0 .95238 .4918 .47619)" width="60" height="20" fill="#fff" stroke="#000"/><text class="Text" transform="translate(30,13)"   font-size="10px"  text-anchor="middle"><tspan x="0" y="0">Fzd2</tspan></text></a><a  class="GeneProduct P594_ENSMUSG00000041075 " transform="translate(188,8)"   name="Fzd7"  ><rect class="Icon" transform="matrix(.98361 0 0 .95238 .4918 .47619)" width="60" height="20" fill="#fff" stroke="#000"/><text class="Text" transform="translate(30,13)"   font-size="10px"  text-anchor="middle"><tspan x="0" y="0">Fzd7</tspan></text></a><a  class="GeneProduct P594_ENSMUSG00000049551 " transform="translate(188,48)"   name="Fzd9"  ><rect class="Icon" transform="matrix(.98361 0 0 .95238 .4918 .47619)" width="60" height="20" fill="#fff" stroke="#000"/><text class="Text" transform="translate(30,13)"   font-size="10px"  text-anchor="middle"><tspan x="0" y="0">Fzd9</tspan></text></a><a  class="GeneProduct P594_ENSMUSG00000045005 " transform="translate(128,28)"   name="Fzd5"  ><rect class="Icon" transform="matrix(.98361 0 0 .95238 .4918 .47619)" width="60" height="20" fill="#fff" stroke="#000"/><text class="Text" transform="translate(30,13)"   font-size="10px"  text-anchor="middle"><tspan x="0" y="0">Fzd5</tspan></text></a><a  class="GeneProduct P594_ENSMUSG00000022297 " transform="translate(128,48)"   name="Fzd6"  ><rect class="Icon" transform="matrix(.98361 0 0 .95238 .4918 .47619)" width="60" height="20" fill="#fff" stroke="#000"/><text class="Text" transform="translate(30,13)"   font-size="10px"  text-anchor="middle"><tspan x="0" y="0">Fzd6</tspan></text></a><a  class="GeneProduct P594_ENSMUSG00000007989 " transform="translate(68,48)"   name="Fzd3"  ><rect class="Icon" transform="matrix(.98361 0 0 .95238 .4918 .47619)" width="60" height="20" fill="#fff" stroke="#000"/><text class="Text" transform="translate(30,13)"   font-size="10px"  text-anchor="middle"><tspan x="0" y="0">Fzd3</tspan></text></a></g><g class="GroupGroup" transform="translate(142 27.689)" color="grey" ><use class="Icon" width="256" height="96.16528925619859" fill="transparent"  stroke="grey" stroke-dasharray="5,3" stroke-width="0" xlink:href="#b"/><a  class="GeneProduct P594_ENSMUSG00000022997 " transform="translate(8 8.1653)"   name="Wnt1"  ><rect class="Icon" transform="matrix(.98361 0 0 .95238 .4918 .47619)" width="60" height="20" fill="#fff" stroke="#000"/><text class="Text" transform="translate(30 13)"   font-size="10px"  text-anchor="middle"><tspan x="0" y="0">Wnt1</tspan></text></a><a  class="GeneProduct P594_ENSMUSG00000026167 " transform="translate(128 68.165)"   name="Wnt10a"  ><rect class="Icon" transform="matrix(.98361 0 0 .95238 .4918 .47619)" width="60" height="20" fill="#fff" stroke="#000"/><text class="Text" transform="translate(30 13)"   font-size="10px"  text-anchor="middle"><tspan x="0" y="0">Wnt10a</tspan></text></a><a  class="GeneProduct P594_ENSMUSG00000022996 " transform="translate(188 8)"   name="Wnt10b"  ><rect class="Icon" transform="matrix(.98361 0 0 .95238 .4918 .47619)" width="60" height="20" fill="#fff" stroke="#000"/><text class="Text" transform="translate(30 13)"   font-size="10px"  text-anchor="middle"><tspan x="0" y="0">Wnt10b</tspan></text></a><a  class="GeneProduct P594_ENSMUSG00000030093 " transform="translate(128 28.165)"   name="Wnt7a"  ><rect class="Icon" transform="matrix(.98361 0 0 .95238 .4918 .47619)" width="60" height="20" fill="#fff" stroke="#000"/><text class="Text" transform="translate(30 13)"   font-size="10px"  text-anchor="middle"><tspan x="0" y="0">Wnt7a</tspan></text></a><a  class="GeneProduct P594_ENSMUSG00000029671 " transform="translate(188 68)"   name="Wnt16"  ><rect class="Icon" transform="matrix(.98361 0 0 .95238 .4918 .47619)" width="60" height="20" fill="#fff" stroke="#000"/><text class="Text" transform="translate(30 13)"   font-size="10px"  text-anchor="middle"><tspan x="0" y="0">Wnt16</tspan></text></a><a  class="GeneProduct P594_ENSMUSG00000033227 " transform="translate(128 8.1653)"   name="Wnt6"  ><rect class="Icon" transform="matrix(.98361 0 0 .95238 .4918 .47619)" width="60" height="20" fill="#fff" stroke="#000"/><text class="Text" transform="translate(30 13)"   font-size="10px"  text-anchor="middle"><tspan x="0" y="0">Wnt6</tspan></text></a><a  class="GeneProduct P594_ENSMUSG00000021994 " transform="translate(68 48.042)"   name="Wnt5a"  ><rect class="Icon" transform="matrix(.98361 0 0 .95238 .4918 .47619)" width="60" height="20" fill="#fff" stroke="#000"/><text class="Text" transform="translate(30 13)"   font-size="10px"  text-anchor="middle"><tspan x="0" y="0">Wnt5a</tspan></text></a><a  class="GeneProduct P594_ENSMUSG00000027840 " transform="translate(8 48.165)"   name="Wnt2b"  ><rect class="Icon" transform="matrix(.98361 0 0 .95238 .4918 .47619)" width="60" height="20" fill="#fff" stroke="#000"/><text class="Text" transform="translate(30 13)"   font-size="10px"  text-anchor="middle"><tspan x="0" y="0">Wnt2b</tspan></text></a><a  class="GeneProduct P594_ENSMUSG00000015957 " transform="translate(188 28)"   name="Wnt11"  ><rect class="Icon" transform="matrix(.98361 0 0 .95238 .4918 .47619)" width="60" height="20" fill="#fff" stroke="#000"/><text class="Text" transform="translate(30 13)"   font-size="10px"  text-anchor="middle"><tspan x="0" y="0">Wnt11</tspan></text></a><a  class="GeneProduct P594_ENSMUSG00000036856 " transform="translate(68 28)"   name="Wnt4"  ><rect class="Icon" transform="matrix(.98361 0 0 .95238 .4918 .47619)" width="60" height="20" fill="#fff" stroke="#000"/><text class="Text" transform="translate(30 13)"   font-size="10px"  text-anchor="middle"><tspan x="0" y="0">Wnt4</tspan></text></a><a  class="GeneProduct P594_ENSMUSG00000009900 " transform="translate(68,8)"   name="Wnt3a"  ><rect class="Icon" transform="matrix(.98361 0 0 .95238 .4918 .47619)" width="60" height="20" fill="#fff" stroke="#000"/><text class="Text" transform="translate(30 13)"   font-size="10px"  text-anchor="middle"><tspan x="0" y="0">Wnt3a</tspan></text></a><a  class="GeneProduct P594_ENSMUSG00000030170 " transform="translate(68 68.042)"   name="Wnt5b"  ><rect class="Icon" transform="matrix(.98361 0 0 .95238 .4918 .47619)" width="60" height="20" fill="#fff" stroke="#000"/><text class="Text" transform="translate(30 13)"   font-size="10px"  text-anchor="middle"><tspan x="0" y="0">Wnt5b</tspan></text></a><a  class="GeneProduct P594_ENSMUSG00000018486 " transform="translate(188 48)"   name="Wnt9b"  ><rect class="Icon" transform="matrix(.98361 0 0 .95238 .4918 .47619)" width="60" height="20" fill="#fff" stroke="#000"/><text class="Text" transform="translate(30 13)"   font-size="10px"  text-anchor="middle"><tspan x="0" y="0">Wnt9b</tspan></text></a><a  class="GeneProduct P594_ENSMUSG00000010797 " transform="translate(8 28.165)"   name="Wnt2"  ><rect class="Icon" transform="matrix(.98361 0 0 .95238 .4918 .47619)" width="60" height="20" fill="#fff" stroke="#000"/><text class="Text" transform="translate(30 13)"   font-size="10px"  text-anchor="middle"><tspan x="0" y="0">Wnt2</tspan></text></a><a  class="GeneProduct P594_ENSMUSG00000000125 " transform="translate(8 68.165)"   name="Wnt3"  ><rect class="Icon" transform="matrix(.98361 0 0 .95238 .4918 .47619)" width="60" height="20" fill="#fff" stroke="#000"/><text class="Text" transform="translate(30 13)"   font-size="10px"  text-anchor="middle"><tspan x="0" y="0">Wnt3</tspan></text></a><a  class="GeneProduct P594_ENSMUSG00000022382 " transform="translate(128 48.165)"   name="Wnt7b"  ><rect class="Icon" transform="matrix(.98361 0 0 .95238 .4918 .47619)" width="60" height="20" fill="#fff" stroke="#000"/><text class="Text" transform="translate(30 13)"   font-size="10px"  text-anchor="middle"><tspan x="0" y="0">Wnt7b</tspan></text></a></g><g class="GroupGroup" transform="translate(322,162)" color="grey" ><use class="Icon" width="196" height="76" fill="transparent"  stroke="grey" stroke-dasharray="5,3" stroke-width="0" xlink:href="#b"/><a  class="GeneProduct P594_ENSMUSG00000044674 " transform="translate(8,8)"   name="Fzd1"  ><rect class="Icon" transform="matrix(.98361 0 0 .95238 .4918 .47619)" width="60" height="20" fill="#fff" stroke="#000"/><text class="Text" transform="translate(30,13)"   font-size="10px"  text-anchor="middle"><tspan x="0" y="0">Fzd1</tspan></text></a><a  class="GeneProduct P594_ENSMUSG00000036904 " transform="translate(128,28)"   name="Fzd8"  ><rect class="Icon" transform="matrix(.98361 0 0 .95238 .4918 .47619)" width="60" height="20" fill="#fff" stroke="#000"/><text class="Text" transform="translate(30,13)"   font-size="10px"  text-anchor="middle"><tspan x="0" y="0">Fzd8</tspan></text></a><a  class="GeneProduct P594_ENSMUSG00000049791 " transform="translate(68,8)"   name="Fzd4"  ><rect class="Icon" transform="matrix(.98361 0 0 .95238 .4918 .47619)" width="60" height="20" fill="#fff" stroke="#000"/><text class="Text" transform="translate(30,13)"   font-size="10px"  text-anchor="middle"><tspan x="0" y="0">Fzd4</tspan></text></a><a  class="GeneProduct P594_ENSMUSG00000050288 " transform="translate(8,28)"   name="Fzd2"  ><rect class="Icon" transform="matrix(.98361 0 0 .95238 .4918 .47619)" width="60" height="20" fill="#fff" stroke="#000"/><text class="Text" transform="translate(30,13)"   font-size="10px"  text-anchor="middle"><tspan x="0" y="0">Fzd2</tspan></text></a><a  class="GeneProduct P594_ENSMUSG00000041075 " transform="translate(128,8)"   name="Fzd7"  ><rect class="Icon" transform="matrix(.98361 0 0 .95238 .4918 .47619)" width="60" height="20" fill="#fff" stroke="#000"/><text class="Text" transform="translate(30,13)"   font-size="10px"  text-anchor="middle"><tspan x="0" y="0">Fzd7</tspan></text></a><a  class="GeneProduct P594_ENSMUSG00000049551 " transform="translate(128,48)"   name="Fzd9"  ><rect class="Icon" transform="matrix(.98361 0 0 .95238 .4918 .47619)" width="60" height="20" fill="#fff" stroke="#000"/><text class="Text" transform="translate(30,13)"   font-size="10px"  text-anchor="middle"><tspan x="0" y="0">Fzd9</tspan></text></a><a  class="GeneProduct P594_ENSMUSG00000045005 " transform="translate(68,28)"   name="Fzd5"  ><rect class="Icon" transform="matrix(.98361 0 0 .95238 .4918 .47619)" width="60" height="20" fill="#fff" stroke="#000"/><text class="Text" transform="translate(30,13)"   font-size="10px"  text-anchor="middle"><tspan x="0" y="0">Fzd5</tspan></text></a><a  class="GeneProduct P594_ENSMUSG00000022297 " transform="translate(68,48)"   name="Fzd6"  ><rect class="Icon" transform="matrix(.98361 0 0 .95238 .4918 .47619)" width="60" height="20" fill="#fff" stroke="#000"/><text class="Text" transform="translate(30,13)"   font-size="10px"  text-anchor="middle"><tspan x="0" y="0">Fzd6</tspan></text></a><a  class="GeneProduct P594_ENSMUSG00000007989 " transform="translate(8,48)"   name="Fzd3"  ><rect class="Icon" transform="matrix(.98361 0 0 .95238 .4918 .47619)" width="60" height="20" fill="#fff" stroke="#000"/><text class="Text" transform="translate(30,13)"   font-size="10px"  text-anchor="middle"><tspan x="0" y="0">Fzd3</tspan></text></a></g><g class="GroupGroup" transform="translate(460.86 329.45)" color="grey" ><use class="Icon" width="76.00000000000006" height="76.00000000000006" fill="transparent"  stroke="grey" stroke-dasharray="5,3" stroke-width="0" xlink:href="#b"/><a  class="GeneProduct P594_ENSMUSG00000020888 " transform="translate(8,28)"   name="Dvl2"  ><rect class="Icon" transform="matrix(.98361 0 0 .95238 .4918 .47619)" width="60" height="20" fill="#fff" stroke="#000"/><text class="Text" transform="translate(30,13)"   font-size="10px"  text-anchor="middle"><tspan x="0" y="0">Dvl2</tspan></text></a><a  class="GeneProduct P594_ENSMUSG00000003233 " transform="translate(8 48)"   name="Dvl3"  ><rect class="Icon" transform="matrix(.98361 0 0 .95238 .4918 .47619)" width="60" height="20" fill="#fff" stroke="#000"/><text class="Text" transform="translate(30,13)"   font-size="10px"  text-anchor="middle"><tspan x="0" y="0">Dvl3</tspan></text></a><a  class="GeneProduct P594_ENSMUSG00000029071 " transform="translate(8,8)"   name="Dvl1"  ><rect class="Icon" transform="matrix(.98361 0 0 .95238 .4918 .47619)" width="60" height="20" fill="#fff" stroke="#000"/><text class="Text" transform="translate(30,13)"   font-size="10px"  text-anchor="middle"><tspan x="0" y="0">Dvl1</tspan></text></a></g><g class="GroupGroup" transform="translate(444.44 462)" color="grey" ><use class="Icon" width="77.59999999999997" height="76" fill="transparent"  stroke="grey" stroke-dasharray="5,3" stroke-width="0" xlink:href="#b"/><a  class="GeneProduct P594_ENSMUSG00000020366 " transform="translate(8,28)"   name="Mapk9"  ><rect class="Icon" transform="matrix(.98403 0 0 .95238 .49201 .47619)" width="61.6" height="20" fill="#fff" stroke="#000"/><text class="Text" transform="translate(30.8,13)"   font-size="10px"  text-anchor="middle"><tspan x="0" y="0">Mapk9</tspan></text></a><a  class="GeneProduct P594_ENSMUSG00000046709 " transform="translate(8,48)"   name="Mapk10"  ><rect class="Icon" transform="matrix(.98403 0 0 .95238 .49201 .47619)" width="61.6" height="20" fill="#fff" stroke="#000"/><text class="Text" transform="translate(30.8,13)"   font-size="10px"  text-anchor="middle"><tspan x="0" y="0">Mapk10</tspan></text></a><a  class="GeneProduct P594_ENSMUSG00000021936 " transform="translate(8,8)"   name="Mapk8"  ><rect class="Icon" transform="matrix(.98403 0 0 .95238 .49201 .47619)" width="61.6" height="20" fill="#fff" stroke="#000"/><text class="Text" transform="translate(30.8,13)"   font-size="10px"  text-anchor="middle"><tspan x="0" y="0">Mapk8</tspan></text></a></g><g class="GroupGroup" transform="translate(112 289.56)" color="grey" ><use class="Icon" width="76" height="76.00000000000011" fill="transparent"  stroke="grey" stroke-dasharray="5,3" stroke-width="0" xlink:href="#b"/><a  class="GeneProduct P594_ENSMUSG00000020888 " transform="translate(8 28)"   name="Dvl2"  ><rect class="Icon" transform="matrix(.98361 0 0 .95238 .4918 .47619)" width="60" height="20" fill="#fff" stroke="#000"/><text class="Text" transform="translate(30,13)"   font-size="10px"  text-anchor="middle"><tspan x="0" y="0">Dvl2</tspan></text></a><a  class="GeneProduct P594_ENSMUSG00000003233 " transform="translate(8 48)"   name="Dvl3"  ><rect class="Icon" transform="matrix(.98361 0 0 .95238 .4918 .47619)" width="60" height="20" fill="#fff" stroke="#000"/><text class="Text" transform="translate(30,13)"   font-size="10px"  text-anchor="middle"><tspan x="0" y="0">Dvl3</tspan></text></a><a  class="GeneProduct P594_ENSMUSG00000029071 " transform="translate(8,8)"   name="Dvl1"  ><rect class="Icon" transform="matrix(.98361 0 0 .95238 .4918 .47619)" width="60" height="20" fill="#fff" stroke="#000"/><text class="Text" transform="translate(30,13)"   font-size="10px"  text-anchor="middle"><tspan x="0" y="0">Dvl1</tspan></text></a></g><g class="Label" transform="translate(34.247 312.05)" color="#000"  name="cytoplasmic disheveled"><use class="Icon" width="91.84997704315876" height="33.89158631772307" fill="transparent"  stroke="#000" stroke-width="0" xlink:href="#b"/><text class="Text" transform="translate(45.925 20.946)"   font-size="12px" font-weight="bold"  text-anchor="middle"><tspan x="0" y="-6.6000000000000005">cytoplasmic</tspan> <tspan x="0" y="6.6000000000000005">disheveled</tspan></text></g><g class="Label" transform="translate(526.66 346.77)" color="#000"  name="membrane-bound disheveled"><use class="Icon" width="136.53747704314895" height="43.85686409550098" fill="transparent"  stroke="#000" stroke-width="0" xlink:href="#b"/><text class="Text" transform="translate(68.269 25.928)"   font-size="12px" font-weight="bold"  text-anchor="middle"><tspan x="0" y="-6.6000000000000005">membrane-bound</tspan> <tspan x="0" y="6.6000000000000005">disheveled</tspan></text></g><g class="GroupComplex" transform="translate(203,358)" color="grey" ><use class="Icon" transform="matrix(.992 0 0 .98824 .496 .49412)" width="124" height="84" fill="#b4b464" fill-opacity=".1" stroke="grey" xlink:href="#f"/><a  class="GeneProduct P594_ENSMUSG00000022812 " transform="translate(12,12)"   name="Gsk3B"  ><rect class="Icon" transform="matrix(.98039 0 0 .95238 .4902 .47619)" width="50" height="20" fill="#fff" stroke="#000"/><text class="Text" transform="translate(25,13)"   font-size="10px"  text-anchor="middle"><tspan x="0" y="0">Gsk3B</tspan></text></a><a  class="GeneProduct P594_ENSMUSG00000024182 " transform="translate(12,52)"   name="Axin"  ><rect class="Icon" transform="matrix(.98039 0 0 .95238 .4902 .47619)" width="50" height="20" fill="#fff" stroke="#000"/><text class="Text" transform="translate(25,13)"   font-size="10px"  text-anchor="middle"><tspan x="0" y="0">Axin</tspan></text></a><a  class="GeneProduct P594_ENSMUSG00000019966 " transform="translate(12,32)"   name="Kitl"  ><rect class="Icon" transform="matrix(.98039 0 0 .95238 .4902 .47619)" width="50" height="20" fill="#fff" stroke="#000"/><text class="Text" transform="translate(25,13)"   font-size="10px"  text-anchor="middle"><tspan x="0" y="0">Kitl</tspan></text></a><a  class="GeneProduct P594_ENSMUSG00000024576 " transform="translate(62,12)"   name="CsnK1a1"  ><rect class="Icon" transform="matrix(.98039 0 0 .95238 .4902 .47619)" width="50" height="20" fill="#fff" stroke="#000"/><text class="Text" transform="translate(25,13)"   font-size="10px"  text-anchor="middle"><tspan x="0" y="0">CsnK1a1</tspan></text></a><a  class="GeneProduct P594_ENSMUSG00000005871 " transform="translate(62,52)"   name="APC"  ><rect class="Icon" transform="matrix(.98039 0 0 .95238 .4902 .47619)" width="50" height="20" fill="#fff" stroke="#000"/><text class="Text" transform="translate(25,13)"   font-size="10px"  text-anchor="middle"><tspan x="0" y="0">APC</tspan></text></a><a  class="GeneProduct P594_ENSMUSG00000025217 " transform="translate(62,32)"   name="Btrc"  ><rect class="Icon" transform="matrix(.98039 0 0 .95238 .4902 .47619)" width="50" height="20" fill="#fff" stroke="#000"/><text class="Text" transform="translate(25,13)"   font-size="10px"  text-anchor="middle"><tspan x="0" y="0">Btrc</tspan></text></a></g><g id="w" class="Interaction" color="#000" ><g color="#000" fill="transparent"  filter="url(#a)" stroke="#000" stroke-dasharray="59.03029607687671, 7"><path class="EdgeBody" d="m234 442-54 38"   marker-end="url(#d)" /></g></g><text class="Text" transform="translate(5,27)" dominant-baseline="central" fill="black"  font-size="12px" font-weight="bold" overflow="visible" ><tspan x="0" y="-9">Name: Wnt signaling in kidney disease</tspan> <tspan x="0" y="9">Organism: Mus musculus</tspan></text></g></svg>
