<?xml version="1.0" encoding="UTF-8"?>
<!--
  WikiPathways page: https://www.wikipathways.org/index.php/Pathway:WP3876
  URL for this compressed file: https://github.com/eweitz/cachome/tree/main/data/wikipathways/WP3876.svg
  Source code for compression: https://github.com/eweitz/cachome/tree/main/src/wikipathways.py
-->
<svg class="Diagram" width="800" height="600" color="black" baseProfile="full" prefix="schema:http://schema.org/" preserveAspectRatio="xMidYMid" version="1.1" viewBox="0 0 546 661" vocab="http://vocabularies.wikipathways.org/wp#" xmlns="http://www.w3.org/2000/svg" xmlns:xlink="http://www.w3.org/1999/xlink"><style>svg {font-family: 'Liberation Sans', Arial, sans-serif; }</style><defs><filter id="a" x="0" y="0" width="546" height="661" filterUnits="userSpaceOnUse"><feColorMatrix in="SourceGraphic" values="-1   0   0 0 0                   0  -1   0 0 0                   0   0  -1 0 0                   0   0   0 1 0"/></filter><marker id="c" stroke-dasharray="99999" markerHeight="12" markerUnits="userSpaceOnUse" markerWidth="12" orient="auto" preserveAspectRatio="none" refX="12" refY="6" viewBox="0 0 12 12"><path transform="rotate(180 6 6)" d="M12 11L0 6l12-5z" fill="currentColor" stroke-width="0"/></marker><marker id="e" stroke-dasharray="99999" markerHeight="12" markerUnits="userSpaceOnUse" markerWidth="12" orient="auto" preserveAspectRatio="none" refX="12" refY="6" viewBox="0 0 12 12"><circle transform="rotate(180 6 6)" cx="6" cy="6" r="5.3" fill="none" stroke="#000"/></marker><marker id="d" stroke-dasharray="99999" markerHeight="20" markerUnits="userSpaceOnUse" markerWidth="10" orient="auto" preserveAspectRatio="none" refX="10" refY="10" viewBox="0 0 10 20"><path d="m3 0v20" fill="currentColor" stroke="currentColor"/></marker><symbol id="b" preserveAspectRatio="none" viewBox="0 0 100 100"/></defs><g class="Viewport" color="black"  name="Name: BMP2-WNT4-FOXO1 pathway in primary endometrial stromal cell differentiation Organism: Homo sapiens"><rect class="Icon" width="546" height="661" fill="#fff" stroke="#000" stroke-width="0"/><g id="f" class="DirectedInteraction" color="#000" ><g color="#000" fill="transparent"  filter="url(#a)" stroke="#000" stroke-dasharray="149.84188469202442, 5.8"><path class="EdgeBody" d="m239 411h-8.5c-8.5 0-25.5 0-34-14.333-8.5-14.333-8.5-43 0.33333-57.333 8.8333-14.333 26.5-14.333 35.333-14.333h8.8333"   marker-end="url(#c)" /></g></g><g id="g" class="DirectedInteraction" color="#000" ><g color="#000" fill="transparent"  filter="url(#a)" stroke="#000" stroke-dasharray="174.50689383324533, 5.8"><path class="EdgeBody" d="m321 325h11c11 0 33 0 44 14.333 11 14.333 11 43-0.33333 57.333-11.333 14.333-34 14.333-45.333 14.333h-11.333"   marker-end="url(#c)" /></g><g class="Burr Anchor" transform="translate(384.18 365.85)" ><use class="Icon" width="0" height="0" fill="#141414" stroke-width="0" xlink:href="#b"/></g></g><g id="h" class="DirectedInteraction" color="#000" ><g color="#000" fill="transparent"  filter="url(#a)" stroke="#000" stroke-dasharray="35.2, 5.8"><path class="EdgeBody" d="m281 102v41"   marker-end="url(#c)" /></g></g><g id="i" class="Interaction" color="#000" ><g color="#000" fill="transparent"  filter="url(#a)" stroke="#000" stroke-dasharray="13.839888205243437, 11"><path class="EdgeBody" d="m362 366 24.84-0.052854"   marker-end="url(#e)" /></g></g><g id="j" class="DirectedInteraction" color="#000" ><g color="#000" fill="transparent"  filter="url(#a)" stroke="#000" stroke-dasharray="146.2, 5.8"><path class="EdgeBody" d="m281 163v152"   marker-end="url(#c)" /></g><g class="Burr Anchor" transform="translate(281,223.8)" ><use class="Icon" width="0" height="0" fill="#141414" stroke-width="0" xlink:href="#b"/></g></g><g id="k" class="DirectedInteraction" color="#000" ><g color="#000" fill="transparent"  filter="url(#a)" stroke="#000" stroke-dasharray="5.24, 3.15, 5.24, 3.15, 5.24, 3.15, 5.24, 3.15, 5.24, 3.15, 5.24, 3.15, 0, 5.8"><path class="EdgeBody" d="m334 223.5-53 0.3"   marker-end="url(#c)" /></g></g><g id="l" class="DirectedInteraction" color="#000" ><g color="#000" fill="transparent"  filter="url(#a)" stroke="#000" stroke-dasharray="32.2, 5.8"><path class="EdgeBody" d="m279 421v38"   marker-end="url(#c)" /></g></g><g id="m" class="DirectedInteraction" color="#000" ><g color="#000" fill="transparent"  filter="url(#a)" stroke="#000" stroke-dasharray="29.2, 5.8"><path class="EdgeBody" d="m279 576v35"   marker-end="url(#c)" /></g></g><g id="n" class="DirectedInteraction" color="#000" ><g color="#000" fill="transparent"  filter="url(#a)" stroke="#000" stroke-dasharray="135.6814475470194, 5.8"><path class="EdgeBody" d="m241 153-81 116"   marker-end="url(#c)" /></g></g><g id="o" class="Interaction" color="#000" ><g color="#000" fill="transparent"  filter="url(#a)" stroke="#000" stroke-dasharray="88, 7"><path class="EdgeBody" d="m184 297h77v18"   marker-end="url(#d)" /></g></g><g class="GroupGroup" transform="translate(334,174)" color="grey" ><use class="Icon" width="190" height="99" fill="transparent"  stroke="grey" stroke-dasharray="5,3" stroke-width="0" xlink:href="#b"/><g class="Label" transform="translate(8,8)" color="#000"  name="SMAD-mediated signaling"><use class="Icon" width="174" height="20" fill="transparent"  stroke="#000" stroke-width="0" xlink:href="#b"/><text class="Text" transform="translate(87,14)"   font-size="12px" font-weight="bold"  text-anchor="middle"><tspan x="0" y="0">SMAD-mediated signaling</tspan></text></g><a  class="GeneProduct SMAD9 " transform="translate(51,71)"   name="SMAD8"  ><rect class="Icon" transform="matrix(.98765 0 0 .95238 .49383 .47619)" width="80" height="20" fill="#fff" stroke="#000"/><text class="Text" transform="translate(40,13)"   font-size="10px"  text-anchor="middle"><tspan x="0" y="0">SMAD8</tspan></text></a><a  class="GeneProduct SMAD5 " transform="translate(51,51)"   name="SMAD5"  ><rect class="Icon" transform="matrix(.98765 0 0 .95238 .49383 .47619)" width="80" height="20" fill="#fff" stroke="#000"/><text class="Text" transform="translate(40,13)"   font-size="10px"  text-anchor="middle"><tspan x="0" y="0">SMAD5</tspan></text></a><a  class="GeneProduct SMAD1 " transform="translate(51,31)"   name="SMAD1"  ><rect class="Icon" transform="matrix(.98765 0 0 .95238 .49383 .47619)" width="80" height="20" fill="#fff" stroke="#000"/><text class="Text" transform="translate(40,13)"   font-size="10px"  text-anchor="middle"><tspan x="0" y="0">SMAD1</tspan></text></a></g><g class="GroupGroup" transform="translate(220.5,459)" color="grey" ><use class="Icon" width="117" height="117" fill="transparent"  stroke="grey" stroke-dasharray="5,3" stroke-width="0" xlink:href="#b"/><g class="Label" transform="translate(8,8)" color="#000"  name="FOXO1 Targets"><use class="Icon" width="101" height="20" fill="transparent"  stroke="#000" stroke-width="0" xlink:href="#b"/><text class="Text" transform="translate(50.5,14)"   font-size="12px" font-weight="bold"  text-anchor="middle"><tspan x="0" y="0">FOXO1 Targets</tspan></text></g><a  class="GeneProduct DCN " transform="translate(18.5,49)"   name="DCN"  ><rect class="Icon" transform="matrix(.98765 0 0 .95238 .49383 .47619)" width="80" height="20" fill="#fff" stroke="#000"/><text class="Text" transform="translate(40,13)"   font-size="10px"  text-anchor="middle"><tspan x="0" y="0">DCN</tspan></text></a><a  class="GeneProduct SST " transform="translate(18.5,29)"   name="SST"  ><rect class="Icon" transform="matrix(.98765 0 0 .95238 .49383 .47619)" width="80" height="20" fill="#fff" stroke="#000"/><text class="Text" transform="translate(40,13)"   font-size="10px"  text-anchor="middle"><tspan x="0" y="0">SST</tspan></text></a><a  class="GeneProduct BCL2L11 " transform="translate(18.5,89)"   name="BCL2L11"  ><rect class="Icon" transform="matrix(.98765 0 0 .95238 .49383 .47619)" width="80" height="20" fill="#fff" stroke="#000"/><text class="Text" transform="translate(40,13)"   font-size="10px"  text-anchor="middle"><tspan x="0" y="0">BCL2L11</tspan></text></a><a  class="GeneProduct LEFTY2 " transform="translate(18.5,69)"   name="LEFTY2"  ><rect class="Icon" transform="matrix(.98765 0 0 .95238 .49383 .47619)" width="80" height="20" fill="#fff" stroke="#000"/><text class="Text" transform="translate(40,13)"   font-size="10px"  text-anchor="middle"><tspan x="0" y="0">LEFTY2</tspan></text></a></g><a class="Metabolite ChEBI_CHEBI_17489  " transform="translate(241,82)" color="#00f"  name="cAMP"  ><rect class="Icon" transform="matrix(.98765 0 0 .95238 .49383 .47619)" width="80" height="20" fill="#fff" stroke="#00f"/><text class="Text" transform="translate(40,13)" fill="#00f"  font-size="10px"  text-anchor="middle"><tspan x="0" y="0">cAMP</tspan></text></a><a  class="GeneProduct BMP2 " transform="translate(241,143)"   name="BMP2"  ><rect class="Icon" transform="matrix(.98765 0 0 .95238 .49383 .47619)" width="80" height="20" fill="#fff" stroke="#000"/><text class="Text" transform="translate(40,13)"   font-size="10px"  text-anchor="middle"><tspan x="0" y="0">BMP2</tspan></text></a><a class="WikiPathways_WP2848 Pathway " transform="translate(110,611)" color="#14961e"  name="Differentiation of Human Endometrial Stromal Cells"  ><use class="Icon" width="338" height="20" fill="transparent"  stroke="#14961e" stroke-width="0" xlink:href="#b"/><text class="Text" transform="translate(169,14)" fill="#14961e"  font-size="12px" font-weight="bold" stroke="black" stroke-width="0" text-anchor="middle"><tspan x="0" y="0">Differentiation of Human Endometrial Stromal Cells</tspan></text></a><g class="Uniprot-TrEMBL_B4DGU4 Protein CTNNB1 " transform="translate(362,356)" color="#000"  name="B-Catenin"><rect class="Icon" transform="matrix(.98485 0 0 .95238 .49242 .47619)" width="65" height="20" fill="#fff" stroke="#000"/><text class="Text" transform="translate(32.5,13)"   font-size="10px"  text-anchor="middle"><tspan x="0" y="0">B-Catenin</tspan></text></g><a  class="GeneProduct WNT4 " transform="translate(241,315)"   name="WNT4"  ><rect class="Icon" transform="matrix(.98765 0 0 .95238 .49383 .47619)" width="80" height="20" fill="#fff" stroke="#000"/><text class="Text" transform="translate(40,13)"   font-size="10px"  text-anchor="middle"><tspan x="0" y="0">WNT4</tspan></text></a><a  class="GeneProduct FOXO1 " transform="translate(239,401)"   name="FOXO1"  ><rect class="Icon" transform="matrix(.98765 0 0 .95238 .49383 .47619)" width="80" height="20" fill="#fff" stroke="#000"/><text class="Text" transform="translate(40,13)"   font-size="10px"  text-anchor="middle"><tspan x="0" y="0">FOXO1</tspan></text></a><g class="GroupGroup" transform="translate(88,269)" color="grey" ><use class="Icon" width="96" height="56" fill="transparent"  stroke="grey" stroke-dasharray="5,3" stroke-width="0" xlink:href="#b"/><a  class="GeneProduct SFRP1 " transform="translate(8,28)"   name="SFRPs"  ><rect class="Icon" transform="matrix(.98765 0 0 .95238 .49383 .47619)" width="80" height="20" fill="#fff" stroke="#000"/><text class="Text" transform="translate(40,13)"   font-size="10px"  text-anchor="middle"><tspan x="0" y="0">SFRPs</tspan></text></a><a  class="Uniprot-TrEMBL_O94907 GeneProduct DKK1 " transform="translate(8,8)"   name="DKKs"  ><rect class="Icon" transform="matrix(.98765 0 0 .95238 .49383 .47619)" width="80" height="20" fill="#fff" stroke="#000"/><text class="Text" transform="translate(40,13)"   font-size="10px"  text-anchor="middle"><tspan x="0" y="0">DKKs</tspan></text></a></g><text class="Text" transform="translate(5,27)" dominant-baseline="central" fill="black"  font-size="12px" font-weight="bold" overflow="visible" ><tspan x="0" y="-9">Name: BMP2-WNT4-FOXO1 pathway in primary endometrial stromal cell differentiation</tspan> <tspan x="0" y="9">Organism: Homo sapiens</tspan></text></g></svg>
