<?xml version="1.0" encoding="UTF-8"?>
<!--
  WikiPathways page: https://www.wikipathways.org/index.php/Pathway:WP386
  URL for this compressed file: https://github.com/eweitz/cachome/tree/main/data/wikipathways/WP386.svg
  Source code for compression: https://github.com/eweitz/cachome/tree/main/src/wikipathways.py
-->
<svg class="Diagram" width="800" height="600" color="black" baseProfile="full" prefix="schema:http://schema.org/" preserveAspectRatio="xMidYMid" version="1.1" viewBox="0 0 914 951.33" vocab="http://vocabularies.wikipathways.org/wp#" xmlns="http://www.w3.org/2000/svg" xmlns:xlink="http://www.w3.org/1999/xlink"><style>svg {font-family: 'Liberation Sans', Arial, sans-serif; }</style><defs><filter id="b" x="0" y="0" width="914" height="951.33" filterUnits="userSpaceOnUse"><feColorMatrix in="SourceGraphic" values="-1   0   0 0 0                   0  -1   0 0 0                   0   0  -1 0 0                   0   0   0 1 0"/></filter><marker id="c" stroke-dasharray="99999" markerHeight="12" markerUnits="userSpaceOnUse" markerWidth="12" orient="auto" preserveAspectRatio="none" refX="12" refY="6" viewBox="0 0 12 12"><path transform="rotate(180 6 6)" d="M12 11L0 6l12-5z" fill="currentColor" stroke-width="0"/></marker><marker id="d" stroke-dasharray="99999" markerHeight="12" markerUnits="userSpaceOnUse" markerWidth="12" orient="auto" preserveAspectRatio="none" refX="12" refY="6" viewBox="0 0 12 12"><circle transform="rotate(180 6 6)" cx="6" cy="6" r="5.3" fill="none" stroke="#000"/></marker><symbol id="e" overflow="visible" preserveAspectRatio="none" viewBox="0 0 100 100"><path d="M1.5 49.5c0-16.167 8.167-24.25 24.5-24.25S50.5 17.167 50.5 1c0 16.167 8.167 24.25 24.5 24.25s24.5 8.083 24.5 24.25" stroke="currentColor" vector-effect="non-scaling-stroke"/></symbol><symbol id="a" preserveAspectRatio="none" viewBox="0 0 100 100"/></defs><g class="Viewport" color="black"  name="Name: Triacylglyceride synthesis Last Modified: 10/17/2013 Organism: Mus musculus"><rect class="Icon" width="914" height="951.33" fill="#fff" stroke="#000" stroke-width="0"/><g id="f" class="DirectedInteraction" color="#000" ><g color="#000" fill="transparent"  filter="url(#b)" stroke="#000" stroke-dasharray="5.13, 3.08, 5.13, 3.08, 5.13, 3.08, 5.13, 3.08, 5.13, 3.08, 5.13, 3.08, 5.13, 3.08, 5.13, 3.08, 5.13, 3.08, 5.13, 3.08, 5.13, 3.08, 5.13, 3.08, 5.13, 3.08, 5.13, 3.08, 5.13, 3.08, 5.13, 3.08, 5.13, 3.08, 5.13, 3.08, 5.13, 3.08, 5.13, 3.08, 5.13, 3.08, 5.13, 3.08, 5.13, 3.08, 5.13, 3.08, 0, 5.8"><path class="EdgeBody" d="m86.578 474.06-1.3676-199.85"   marker-end="url(#c)" /></g></g><g id="g" class="DirectedInteraction" color="#000" ><g color="#000" fill="transparent"  filter="url(#b)" stroke="#000" stroke-dasharray="264.8666666666667, 5.8"><path class="EdgeBody" d="m358 250h93.5v177.17"   marker-end="url(#c)" /></g></g><g id="h" class="DirectedInteraction" color="#000" ><g color="#000" fill="transparent"  filter="url(#b)" stroke="#000" stroke-dasharray="5.85, 3.51, 5.85, 3.51, 5.85, 3.51, 5.85, 3.51, 5.85, 3.51, 5.85, 5.8"><path class="EdgeBody" d="m802.73 48.899 0.78431 58.45"   marker-end="url(#c)" /></g></g><g id="i" class="DirectedInteraction" color="#000" ><g color="#000" fill="transparent"  filter="url(#b)" stroke="#000" stroke-dasharray="157.36666666666656, 5.8"><path class="EdgeBody" d="m667.83 126.17v89.833h38.833v34.5"   marker-end="url(#c)" /></g><g class="Burr Anchor" transform="translate(690,216)" ><use class="Icon" width="0" height="0" fill="#141414" stroke-width="0" xlink:href="#a"/></g></g><g id="j" class="DirectedInteraction" color="#000" ><g color="#000" fill="transparent"  filter="url(#b)" stroke="#000" stroke-dasharray="186.36666666666676, 5.8"><path class="EdgeBody" d="m774.68 126.35v89.651h-68.015v34.5"   marker-end="url(#c)" /></g><g class="Burr Anchor" transform="translate(725,216)" ><use class="Icon" width="0" height="0" fill="#141414" stroke-width="0" xlink:href="#a"/></g></g><g id="k" class="DirectedInteraction" color="#000" ><g color="#000" fill="transparent"  filter="url(#b)" stroke="#000" stroke-dasharray="5.1, 3.06, 5.1, 3.06, 5.1, 3.06, 5.1, 3.06, 5.1, 3.06, 5.1, 3.06, 5.1, 3.06, 5.1, 3.06, 5.1, 3.06, 5.1, 3.06, 5.1, 3.06, 5.1, 3.06, 5.1, 3.06, 5.1, 3.06, 5.1, 3.06, 5.1, 3.06, 5.1, 3.06, 5.1, 3.06, 5.1, 3.06, 5.1, 3.06, 5.1, 3.06, 5.1, 3.06, 5.1, 3.06, 5.1, 3.06, 5.1, 3.06, 5.1, 3.06, 5.1, 3.06, 5.1, 3.06, 5.1, 3.06, 5.1, 3.06, 5.1, 3.06, 5.1, 3.06, 5.1, 3.06, 5.1, 3.06, 5.1, 3.06, 5.1, 3.06, 5.1, 3.06, 5.1, 3.06, 5.1, 5.8"><path class="EdgeBody" d="m86.578 494.06v274.61h46.089"   marker-end="url(#c)" /></g></g><g id="l" class="DirectedInteraction" color="#000" ><g color="#000" fill="transparent"  filter="url(#b)" stroke="#000" stroke-dasharray="164.36666666666667, 5.8"><path class="EdgeBody" d="m250 768.67h60.667v109.5"   marker-end="url(#c)" /></g><g class="Burr Anchor" transform="translate(310.67 776.07)" ><use class="Icon" width="0" height="0" fill="#141414" stroke-width="0" xlink:href="#a"/></g></g><g id="m" class="DirectedInteraction" color="#000" ><g color="#000" fill="transparent"  filter="url(#b)" stroke="#000" stroke-dasharray="170.9745098039216, 5.8"><path class="EdgeBody" d="m436.67 768.73h-67.333v109.44"   marker-end="url(#c)" /></g><g class="Burr Anchor" transform="translate(369.33 772.1)" ><use class="Icon" width="0" height="0" fill="#141414" stroke-width="0" xlink:href="#a"/></g></g><g id="n" class="DirectedInteraction" color="#000" ><g color="#000" fill="transparent"  filter="url(#b)" stroke="#000" stroke-dasharray="137.93529411764717, 5.8"><path class="EdgeBody" d="m639.68 822.78v-54.057h-89.678"   marker-end="url(#c)" /></g><g class="Burr Anchor" transform="translate(636.24 768.73)" ><use class="Icon" width="0" height="0" fill="#141414" stroke-width="0" xlink:href="#a"/></g></g><g id="o" class="DirectedInteraction" color="#000" ><g color="#000" fill="transparent"  filter="url(#b)" stroke="#000" stroke-dasharray="259.2833333333333, 5.8"><path class="EdgeBody" d="m642.58 269.5v106.5h-107.42v51.167"   marker-end="url(#c)" /></g><g class="Burr Anchor" transform="translate(592,376)" ><use class="Icon" width="0" height="0" fill="#141414" stroke-width="0" xlink:href="#a"/></g></g><g id="p" class="DirectedInteraction" color="#000" ><g color="#000" fill="transparent"  filter="url(#b)" stroke="#000" stroke-dasharray="124.3761095154551, 5.8"><path class="EdgeBody" d="m374.24 124.25-58.577 116.25"   marker-end="url(#c)" /></g><g class="Burr Anchor" transform="translate(350.81 170.75)" ><use class="Icon" width="0" height="0" fill="#141414" stroke-width="0" xlink:href="#a"/></g></g><g id="q" class="DirectedInteraction" color="#000" ><g color="#000" fill="transparent"  filter="url(#b)" stroke="#000" stroke-dasharray="148.83864688722255, 5.8"><path class="EdgeBody" d="m123.33 129.5 107.67 111"   marker-end="url(#c)" /></g><g class="Burr Anchor" transform="translate(166.4 173.9)" ><use class="Icon" width="0" height="0" fill="#141414" stroke-width="0" xlink:href="#a"/></g></g><g id="r" class="DirectedInteraction" color="#000" ><g color="#000" fill="transparent"  filter="url(#b)" stroke="#000" stroke-dasharray="451.78403361344533, 5.8"><path class="EdgeBody" d="m114.54 274.21v162.46h295.12"   marker-end="url(#c)" /></g><g class="Burr Anchor" transform="translate(208 436.67)" ><use class="Icon" width="0" height="0" fill="#141414" stroke-width="0" xlink:href="#a"/></g></g><g id="s" class="DirectedInteraction" color="#000" ><g color="#000" fill="transparent"  filter="url(#b)" stroke="#000" stroke-dasharray="165.19999999999993, 5.8"><path class="EdgeBody" d="m493.33 446.17v171"   marker-end="url(#c)" /></g><g class="Burr Anchor" transform="translate(493.33 531)" ><use class="Icon" width="0" height="0" fill="#141414" stroke-width="0" xlink:href="#a"/></g></g><g id="t" class="DirectedInteraction" color="#000" ><g color="#000" fill="transparent"  filter="url(#b)" stroke="#000" stroke-dasharray="117.25882352941183, 5.8"><path class="EdgeBody" d="m493.33 636.17 1e-13 123.06"   marker-end="url(#c)" /></g><g class="Burr Anchor" transform="translate(493.33 685.39)" ><use class="Icon" width="0" height="0" fill="#141414" stroke-width="0" xlink:href="#a"/></g></g><g id="u" class="Interaction" color="#000" ><g color="#000" fill="transparent"  filter="url(#b)" stroke="#000" stroke-dasharray="14.587517560947077, 11"><path class="EdgeBody" d="m191.97 174.87-25.569-0.96835"   marker-end="url(#d)" /></g></g><g id="v" class="Interaction" color="#000" ><g color="#000" fill="transparent"  filter="url(#b)" stroke="#000" stroke-dasharray="15.430248781864616, 11"><path class="EdgeBody" d="m208.91 410.25-0.91036 26.415"   marker-end="url(#d)" /></g></g><g id="w" class="Interaction" color="#000" ><g color="#000" fill="transparent"  filter="url(#b)" stroke="#000" stroke-dasharray="13.009257473825475, 11"><path class="EdgeBody" d="m591.33 352 0.66667 24"   marker-end="url(#d)" /></g></g><g id="x" class="Interaction" color="#000" ><g color="#000" fill="transparent"  filter="url(#b)" stroke="#000" stroke-dasharray="10.756273669484713, 11"><path class="EdgeBody" d="m715.12 196.62 9.8796 19.384"   marker-end="url(#d)" /></g></g><g id="y" class="Interaction" color="#000" ><g color="#000" fill="transparent"  filter="url(#b)" stroke="#000" stroke-dasharray="20.729588975127573, 11"><path class="EdgeBody" d="m715.12 196.62-25.12 19.384"   marker-end="url(#d)" /></g></g><g id="z" class="Interaction" color="#000" ><g color="#000" fill="transparent"  filter="url(#b)" stroke="#000" stroke-dasharray="23.342725906627017, 11"><path class="EdgeBody" d="m325.38 147.67 25.429 23.082"   marker-end="url(#d)" /></g></g><g id="aa" class="Interaction" color="#000" ><g color="#000" fill="transparent"  filter="url(#b)" stroke="#000" stroke-dasharray="22.3399993334665, 11"><path class="EdgeBody" d="m526.67 531.67-33.333-0.66667"   marker-end="url(#d)" /></g></g><g id="ab" class="Interaction" color="#000" ><g color="#000" fill="transparent"  filter="url(#b)" stroke="#000" stroke-dasharray="25.517781718324002, 11"><path class="EdgeBody" d="m529.85 685.81-36.515-0.41653"   marker-end="url(#d)" /></g></g><g id="ac" class="Interaction" color="#000" ><g color="#000" fill="transparent"  filter="url(#b)" stroke="#000" stroke-dasharray="25.0065426153513, 11"><path class="EdgeBody" d="m341 756.67-30.333 19.4"   marker-end="url(#d)" /></g></g><g id="ad" class="Interaction" color="#000" ><g color="#000" fill="transparent"  filter="url(#b)" stroke="#000" stroke-dasharray="21.26493580151749, 11"><path class="EdgeBody" d="m341 756.67 28.333 15.435"   marker-end="url(#d)" /></g></g><g id="ae" class="DirectedInteraction" color="#000" ><g color="#000" fill="transparent"  filter="url(#b)" stroke="#000" stroke-dasharray="5.36, 3.21, 5.36, 3.21, 5.36, 3.21, 5.36, 3.21, 5.36, 3.21, 5.36, 3.21, 5.36, 3.21, 5.36, 3.21, 5.36, 3.21, 5.36, 3.21, 5.36, 3.21, 5.36, 3.21, 0, 5.8"><path class="EdgeBody" d="m579.92 887.49h59.759v-45.704"   marker-end="url(#c)" /></g></g><g id="af" class="DirectedInteraction" color="#000" ><g color="#000" fill="transparent"  filter="url(#b)" stroke="#000" stroke-dasharray="106.11891108580262, 5.8"><path class="EdgeBody" d="m398.67 887.67 111.92-0.17927"   marker-end="url(#c)" /></g></g><g id="ag" class="Interaction" color="#000" ><g color="#000" fill="transparent"  filter="url(#b)" stroke="#000" stroke-dasharray="18.891673203251173, 11"><path class="EdgeBody" d="m666.13 768.46-29.89 0.26751"   marker-end="url(#d)" /></g></g><g class="SingleFreeNode Shape" transform="translate(366.67 525.67) rotate(90 50 4.3333)" color="#000" ><use class="Icon" transform="matrix(.9901 0 0 .89655 .49505 .44828)" width="100" height="8.666666666666666" fill="#000" stroke="#000" xlink:href="#e"/></g><g class="SingleFreeNode Shape" transform="translate(390 675.67) rotate(90 26.667 4.3333)" color="#000" ><use class="Icon" transform="matrix(.9816 0 0 .89655 .4908 .44828)" width="53.333333333333336" height="8.666666666666666" fill="#000" stroke="#000" xlink:href="#e"/></g><g class="Label" transform="translate(177.33 522)" color="#000"  name="Only 1 of these enzymes is needed"><use class="Icon" width="225.33333333333334" height="16" fill="transparent"  stroke="#000" stroke-width="0" xlink:href="#a"/><text class="Text" transform="translate(112.67 11)"   font-size="10px" font-weight="bold"  text-anchor="middle"><tspan x="0" y="0">Only 1 of these enzymes is needed</tspan></text></g><g class="Label" transform="translate(436.67 759.23)" color="#000"  name="Diacylglycerol"><use class="Icon" width="113.33333333333333" height="19" fill="transparent"  stroke="#000" stroke-width="0" xlink:href="#a"/><text class="Text" transform="translate(56.667 13.5)"   font-size="12px" font-weight="bold"  text-anchor="middle"><tspan x="0" y="0">Diacylglycerol</tspan></text></g><g class="Label" transform="translate(184,672)" color="#000"  name="Only 1 of these enzymes is needed"><use class="Icon" width="225.33333333333334" height="16" fill="transparent"  stroke="#000" stroke-width="0" xlink:href="#a"/><text class="Text" transform="translate(112.67 11)"   font-size="10px" font-weight="bold"  text-anchor="middle"><tspan x="0" y="0">Only 1 of these enzymes is needed</tspan></text></g><g class="Label" transform="translate(281.33 878.17)" color="#000"  name="Triacylglycerol"><use class="Icon" width="117.33333333333333" height="19" fill="transparent"  stroke="#000" stroke-width="0" xlink:href="#a"/><text class="Text" transform="translate(58.667 13.5)"   font-size="12px" font-weight="bold"  text-anchor="middle"><tspan x="0" y="0">Triacylglycerol</tspan></text></g><g class="Label" transform="translate(132.67 759.17)" color="#000"  name="Fatty Acyl CoA"><use class="Icon" width="117.33333333333333" height="19" fill="transparent"  stroke="#000" stroke-width="0" xlink:href="#a"/><text class="Text" transform="translate(58.667 13.5)"   font-size="12px" font-weight="bold"  text-anchor="middle"><tspan x="0" y="0">Fatty Acyl CoA</tspan></text></g><g class="Label" transform="translate(569.51 822.78)" color="#000"  name="Monoacylglycerol"><use class="Icon" width="140.33333333333334" height="19" fill="transparent"  stroke="#000" stroke-width="0" xlink:href="#a"/><text class="Text" transform="translate(70.167 13.5)"   font-size="12px" font-weight="bold"  text-anchor="middle"><tspan x="0" y="0">Monoacylglycerol</tspan></text></g><g class="Label" transform="translate(423.17 888.67)" color="#000"  name="Degradation"><use class="Icon" width="80.33333333333333" height="16" fill="transparent"  stroke="#000" stroke-width="0" xlink:href="#a"/><text class="Text" transform="translate(40.167 11)"   font-size="10px" font-style="italic" font-weight="bold"  text-anchor="middle"><tspan x="0" y="0">Degradation</tspan></text></g><g class="Label" transform="translate(443.83 905.33)" color="#000"  name="Path"><use class="Icon" width="32.333333333333336" height="16" fill="transparent"  stroke="#000" stroke-width="0" xlink:href="#a"/><text class="Text" transform="translate(16.167 11)"   font-size="10px" font-style="italic" font-weight="bold"  text-anchor="middle"><tspan x="0" y="0">Path</tspan></text></g><g class="Metabolite" transform="translate(9.6667 110.5)" color="#000"  name="Dihydroxyacetonephosphate"><rect class="Icon" transform="matrix(.99562 0 0 .95 .49781 .475)" width="227.33" height="19" fill="#fff" stroke="#000"/><text class="Text" transform="translate(113.67 13.5)"   font-size="12px" font-weight="bold"  text-anchor="middle"><tspan x="0" y="0">Dihydroxyacetonephosphate</tspan></text></g><a  class="ChEBI_CHEBI_17754 Metabolite  " transform="translate(340.08 105.25)"   name="Glycerol"  ><rect class="Icon" transform="matrix(.98558 0 0 .95 .49279 .475)" width="68.333" height="19" fill="#fff" stroke="#000"/><text class="Text" transform="translate(34.167 13.5)"   font-size="12px" font-weight="bold"  text-anchor="middle"><tspan x="0" y="0">Glycerol</tspan></text></a><g class="Metabolite" transform="translate(188.67 240.5)" color="#000"  name="Glycerol-3-phosphate"><rect class="Icon" transform="matrix(.99413 0 0 .95 .49706 .475)" width="169.33" height="19" fill="#fff" stroke="#000"/><text class="Text" transform="translate(84.667 13.5)"   font-size="12px" font-weight="bold"  text-anchor="middle"><tspan x="0" y="0">Glycerol-3-phosphate</tspan></text></g><g class="Metabolite" transform="translate(26.543 255.21)" color="#000"  name="Fatty Acyl CoA"><rect class="Icon" transform="matrix(.99155 0 0 .95 .49577 .475)" width="117.33" height="19" fill="#fff" stroke="#000"/><text class="Text" transform="translate(58.667 13.5)"   font-size="12px" font-weight="bold"  text-anchor="middle"><tspan x="0" y="0">Fatty Acyl CoA</tspan></text></g><g class="Metabolite" transform="translate(409.67 427.17)" color="#000"  name="Lysophosphatic Acid"><rect class="Icon" transform="matrix(.99406 0 0 .95 .49703 .475)" width="167.33" height="19" fill="#fff" stroke="#000"/><text class="Text" transform="translate(83.667 13.5)"   font-size="12px" font-weight="bold"  text-anchor="middle"><tspan x="0" y="0">Lysophosphatic Acid</tspan></text></g><g class="Metabolite" transform="translate(494.33 107.17)" color="#000"  name="Dihydroxyacetone phosphate"><rect class="Icon" transform="matrix(.9957 0 0 .95 .49785 .475)" width="231.33" height="19" fill="#fff" stroke="#000"/><text class="Text" transform="translate(115.67 13.5)"   font-size="12px" font-weight="bold"  text-anchor="middle"><tspan x="0" y="0">Dihydroxyacetone phosphate</tspan></text></g><g class="Metabolite" transform="translate(745.85 107.35)" color="#000"  name="Fatty acyl CoA"><rect class="Icon" transform="matrix(.9914 0 0 .95 .4957 .475)" width="115.33" height="19" fill="#fff" stroke="#000"/><text class="Text" transform="translate(57.667 13.5)"   font-size="12px" font-weight="bold"  text-anchor="middle"><tspan x="0" y="0">Fatty acyl CoA</tspan></text></g><g class="Metabolite" transform="translate(578.5,250.5)" color="#000"  name="acyldihydroxyacetonephosphate"><rect class="Icon" transform="matrix(.99611 0 0 .95 .49806 .475)" width="256.33" height="19" fill="#fff" stroke="#000"/><text class="Text" transform="translate(128.17 13.5)"   font-size="12px" font-weight="bold"  text-anchor="middle"><tspan x="0" y="0">acyldihydroxyacetonephosphate</tspan></text></g><g class="Metabolite" transform="translate(429.17 617.17)" color="#000"  name="Phosphatic acid"><rect class="Icon" transform="matrix(.99227 0 0 .95 .49613 .475)" width="128.33" height="19" fill="#fff" stroke="#000"/><text class="Text" transform="translate(64.167 13.5)"   font-size="12px" font-weight="bold"  text-anchor="middle"><tspan x="0" y="0">Phosphatic acid</tspan></text></g><a  class="GeneProduct P594_ENSMUSG00000023019 " transform="translate(191.97 164.87)"   name="Gpd1"  ><rect class="Icon" transform="matrix(.9816 0 0 .95238 .4908 .47619)" width="53.333" height="20" fill="#fff" stroke="#000"/><text class="Text" transform="translate(26.667 13)"   font-size="10px"  text-anchor="middle"><tspan x="0" y="0">Gpd1</tspan></text></a><a  class="GeneProduct P594_ENSMUSG00000024978 " transform="translate(182.24 390.25)"   name="Gpam"  ><rect class="Icon" transform="matrix(.9816 0 0 .95238 .4908 .47619)" width="53.333" height="20" fill="#fff" stroke="#000"/><text class="Text" transform="translate(26.667 13)"   font-size="10px"  text-anchor="middle"><tspan x="0" y="0">Gpam</tspan></text></a><g class="GeneProduct" transform="translate(578,332)" color="#000"  name="AYR1"><rect class="Icon" transform="matrix(.9816 0 0 .95238 .4908 .47619)" width="53.333" height="20" fill="#fff" stroke="#000"/><text class="Text" transform="translate(26.667 13)"   font-size="10px"  text-anchor="middle"><tspan x="0" y="0">AYR1</tspan></text></g><a class="WikiPathways_WP336 Pathway " transform="translate(43.828 474.06)" color="#14961e"  name="Fatty Acid Biosynthesis"  ><use class="Icon" width="171" height="20" fill="transparent"  stroke="#14961e" stroke-width="0" xlink:href="#a"/><text class="Text" transform="translate(85.5,14)" fill="#14961e"  font-size="12px" font-weight="bold" stroke="black" stroke-width="0" text-anchor="middle"><tspan x="0" y="0">Fatty Acid Biosynthesis</tspan></text></a><a class="WikiPathways_WP336 Pathway " transform="translate(727.73 28.899)" color="#14961e"  name="Fatty Acid Biosynthesis"  ><use class="Icon" width="150" height="20" fill="transparent"  stroke="#14961e" stroke-width="0" xlink:href="#a"/><text class="Text" transform="translate(75,14)" fill="#14961e"  font-size="12px" font-weight="bold" stroke="black" stroke-width="0" text-anchor="middle"><tspan x="0" y="0">Fatty Acid Biosynthesis</tspan></text></a><g class="GroupGroup" transform="translate(680.45 140.62)" color="grey" ><use class="Icon" width="69.33333333333337" height="56" fill="transparent"  stroke="grey" stroke-dasharray="5,3" stroke-width="0" xlink:href="#a"/><a  class="GeneProduct P594_ENSMUSG00000031985 " transform="translate(8,28)"   name="Gnpat"  ><rect class="Icon" transform="matrix(.9816 0 0 .95238 .4908 .47619)" width="53.333" height="20" fill="#fff" stroke="#000"/><text class="Text" transform="translate(26.667 13)"   font-size="10px"  text-anchor="middle"><tspan x="0" y="0">Gnpat</tspan></text></a><a  class="GeneProduct P594_ENSMUSG00000042410 " transform="translate(8,8)"   name="Agps"  ><rect class="Icon" transform="matrix(.9816 0 0 .95238 .4908 .47619)" width="53.333" height="20" fill="#fff" stroke="#000"/><text class="Text" transform="translate(26.667 13)"   font-size="10px"  text-anchor="middle"><tspan x="0" y="0">Agps</tspan></text></a></g><g class="GroupGroup" transform="translate(256.05 119.67)" color="grey" ><use class="Icon" width="69.33333333333331" height="56" fill="transparent"  stroke="grey" stroke-dasharray="5,3" stroke-width="0" xlink:href="#a"/><a  class="GeneProduct P594_ENSMUSG00000025059 " transform="translate(8,8)"   name="Gyk"  ><rect class="Icon" transform="matrix(.9816 0 0 .95238 .4908 .47619)" width="53.333" height="20" fill="#fff" stroke="#000"/><text class="Text" transform="translate(26.667 13)"   font-size="10px"  text-anchor="middle"><tspan x="0" y="0">Gyk</tspan></text></a><a  class="GeneProduct P594_ENSMUSG00000050553 " transform="translate(8,28)"   name="Gk2"  ><rect class="Icon" transform="matrix(.9816 0 0 .95238 .4908 .47619)" width="53.333" height="20" fill="#fff" stroke="#000"/><text class="Text" transform="translate(26.667 13)"   font-size="10px"  text-anchor="middle"><tspan x="0" y="0">Gk2</tspan></text></a></g><g class="GroupGroup" transform="translate(526.67 473.67)" color="grey" ><use class="Icon" width="69.33333333333337" height="115.99999999999994" fill="transparent"  stroke="grey" stroke-dasharray="5,3" stroke-width="0" xlink:href="#a"/><a  class="GeneProduct P594_ENSMUSG00000034254 " transform="translate(8,8)"   name="Agpat1"  ><rect class="Icon" transform="matrix(.9816 0 0 .95238 .4908 .47619)" width="53.333" height="20" fill="#fff" stroke="#000"/><text class="Text" transform="translate(26.667 13)"   font-size="10px"  text-anchor="middle"><tspan x="0" y="0">Agpat1</tspan></text></a><a  class="GeneProduct P594_ENSMUSG00000026922 " transform="translate(8 28)"   name="Agpat2"  ><rect class="Icon" transform="matrix(.9816 0 0 .95238 .4908 .47619)" width="53.333" height="20" fill="#fff" stroke="#000"/><text class="Text" transform="translate(26.667 13)"   font-size="10px"  text-anchor="middle"><tspan x="0" y="0">Agpat2</tspan></text></a><a  class="GeneProduct P594_ENSMUSG00000001211 " transform="translate(8 48)"   name="Agpat3"  ><rect class="Icon" transform="matrix(.9816 0 0 .95238 .4908 .47619)" width="53.333" height="20" fill="#fff" stroke="#000"/><text class="Text" transform="translate(26.667 13)"   font-size="10px"  text-anchor="middle"><tspan x="0" y="0">Agpat3</tspan></text></a><a  class="GeneProduct P594_ENSMUSG00000023827 " transform="translate(8 68)"   name="Agpat4"  ><rect class="Icon" transform="matrix(.9816 0 0 .95238 .4908 .47619)" width="53.333" height="20" fill="#fff" stroke="#000"/><text class="Text" transform="translate(26.667 13)"   font-size="10px"  text-anchor="middle"><tspan x="0" y="0">Agpat4</tspan></text></a><a  class="GeneProduct P594_ENSMUSG00000031467 " transform="translate(8 88)"   name="Agpat5"  ><rect class="Icon" transform="matrix(.9816 0 0 .95238 .4908 .47619)" width="53.333" height="20" fill="#fff" stroke="#000"/><text class="Text" transform="translate(26.667 13)"   font-size="10px"  text-anchor="middle"><tspan x="0" y="0">Agpat5</tspan></text></a></g><g class="GroupGroup" transform="translate(529.85 647.81)" color="grey" ><use class="Icon" width="69.33333333333337" height="76" fill="transparent"  stroke="grey" stroke-dasharray="5,3" stroke-width="0" xlink:href="#a"/><a  class="GeneProduct P594_ENSMUSG00000021759 " transform="translate(8,8)"   name="Ppap2a"  ><rect class="Icon" transform="matrix(.9816 0 0 .95238 .4908 .47619)" width="53.333" height="20" fill="#fff" stroke="#000"/><text class="Text" transform="translate(26.667 13)"   font-size="10px"  text-anchor="middle"><tspan x="0" y="0">Ppap2a</tspan></text></a><a  class="GeneProduct P594_ENSMUSG00000028517 " transform="translate(8,28)"   name="Ppap2b"  ><rect class="Icon" transform="matrix(.9816 0 0 .95238 .4908 .47619)" width="53.333" height="20" fill="#fff" stroke="#000"/><text class="Text" transform="translate(26.667 13)"   font-size="10px"  text-anchor="middle"><tspan x="0" y="0">Ppap2b</tspan></text></a><a  class="GeneProduct P594_ENSMUSG00000052151 " transform="translate(8,48)"   name="Ppap2c"  ><rect class="Icon" transform="matrix(.9816 0 0 .95238 .4908 .47619)" width="53.333" height="20" fill="#fff" stroke="#000"/><text class="Text" transform="translate(26.667 13)"   font-size="10px"  text-anchor="middle"><tspan x="0" y="0">Ppap2c</tspan></text></a></g><g class="GroupGroup" transform="translate(306.33 700.67)" color="grey" ><use class="Icon" width="69.33333333333331" height="56" fill="transparent"  stroke="grey" stroke-dasharray="5,3" stroke-width="0" xlink:href="#a"/><a  class="GeneProduct P594_ENSMUSG00000022555 " transform="translate(8,8)"   name="Dgat1"  ><rect class="Icon" transform="matrix(.9816 0 0 .95238 .4908 .47619)" width="53.333" height="20" fill="#fff" stroke="#000"/><text class="Text" transform="translate(26.667 13)"   font-size="10px"  text-anchor="middle"><tspan x="0" y="0">Dgat1</tspan></text></a><a  class="GeneProduct P594_ENSMUSG00000030747 " transform="translate(8,28)"   name="Dgat2"  ><rect class="Icon" transform="matrix(.9816 0 0 .95238 .4908 .47619)" width="53.333" height="20" fill="#fff" stroke="#000"/><text class="Text" transform="translate(26.667 13)"   font-size="10px"  text-anchor="middle"><tspan x="0" y="0">Dgat2</tspan></text></a></g><g class="GroupGroup" transform="translate(510.59 800.49)" color="grey" ><use class="Icon" width="69.33333333333337" height="116" fill="transparent"  stroke="grey" stroke-dasharray="5,3" stroke-width="0" xlink:href="#a"/><a  class="GeneProduct P594_ENSMUSG00000015568 " transform="translate(8,8)"   name="Lpl"  ><rect class="Icon" transform="matrix(.9816 0 0 .95238 .4908 .47619)" width="53.333" height="20" fill="#fff" stroke="#000"/><text class="Text" transform="translate(26.667 13)"   font-size="10px"  text-anchor="middle"><tspan x="0" y="0">Lpl</tspan></text></a><a  class="GeneProduct P594_ENSMUSG00000003123 " transform="translate(8,28)"   name="Lipe"  ><rect class="Icon" transform="matrix(.9816 0 0 .95238 .4908 .47619)" width="53.333" height="20" fill="#fff" stroke="#000"/><text class="Text" transform="translate(26.667 13)"   font-size="10px"  text-anchor="middle"><tspan x="0" y="0">Lipe</tspan></text></a><a  class="GeneProduct P594_ENSMUSG00000032207 " transform="translate(8,48)"   name="Lipc"  ><rect class="Icon" transform="matrix(.9816 0 0 .95238 .4908 .47619)" width="53.333" height="20" fill="#fff" stroke="#000"/><text class="Text" transform="translate(26.667 13)"   font-size="10px"  text-anchor="middle"><tspan x="0" y="0">Lipc</tspan></text></a><a  class="GeneProduct P594_ENSMUSG00000024768 " transform="translate(8,68)"   name="Lipf"  ><rect class="Icon" transform="matrix(.9816 0 0 .95238 .4908 .47619)" width="53.333" height="20" fill="#fff" stroke="#000"/><text class="Text" transform="translate(26.667 13)"   font-size="10px"  text-anchor="middle"><tspan x="0" y="0">Lipf</tspan></text></a><a  class="GeneProduct P594_ENSMUSG00000025509 " transform="translate(8,88)"   name="Pnpla2"  ><rect class="Icon" transform="matrix(.9816 0 0 .95238 .4908 .47619)" width="53.333" height="20" fill="#fff" stroke="#000"/><text class="Text" transform="translate(26.667 13)"   font-size="10px"  text-anchor="middle"><tspan x="0" y="0">Pnpla2</tspan></text></a></g><g class="GroupGroup" transform="translate(666.13 731.96)" color="grey" ><use class="Icon" width="76" height="73" fill="transparent"  stroke="grey" stroke-dasharray="5,3" stroke-width="0" xlink:href="#a"/><a  class="Uniprot-TrEMBL_Q91ZV4 GeneProduct P594_ENSMUSG00000012187 " transform="translate(8,8)"   name="Mogat1"  ><rect class="Icon" transform="matrix(.98361 0 0 .95238 .4918 .47619)" width="60" height="20" fill="#fff" stroke="#000"/><text class="Text" transform="translate(30,13)"   font-size="10px"  text-anchor="middle"><tspan x="0" y="0">Mogat1</tspan></text></a><a  class="GeneProduct P594_ENSMUSG00000052396 " transform="translate(8,28)"   name="Mogat2"  ><rect class="Icon" transform="matrix(.98361 0 0 .95238 .4918 .47619)" width="60" height="20" fill="#fff" stroke="#000"/><text class="Text" transform="translate(30,13)"   font-size="10px"  text-anchor="middle"><tspan x="0" y="0">Mogat2</tspan></text></a><g class="GeneProduct" transform="translate(8,48)" color="#000"  name="Mogat3"><rect class="Icon" transform="matrix(.98361 0 0 .94444 .4918 .47222)" width="60" height="17" fill="#fff" stroke="#000"/><text class="Text" transform="translate(30,11.5)"   font-size="10px"  text-anchor="middle"><tspan x="0" y="0">Mogat3</tspan></text></g></g><text class="Text" transform="translate(5,36)" dominant-baseline="central" fill="black"  font-size="12px" font-weight="bold" overflow="visible" ><tspan x="0" y="-18">Name: Triacylglyceride synthesis</tspan> <tspan x="0" y="0">Last Modified: 10/17/2013</tspan> <tspan x="0" y="18">Organism: Mus musculus</tspan></text></g></svg>
