<?xml version="1.0" encoding="UTF-8"?>
<!--
  WikiPathways page: https://www.wikipathways.org/index.php/Pathway:WP3971
  URL for this compressed file: https://github.com/eweitz/cachome/tree/main/data/wikipathways/WP3971.svg
  Source code for compression: https://github.com/eweitz/cachome/tree/main/src/wikipathways.py
-->
<svg class="Diagram" width="800" height="600" color="black" baseProfile="full" prefix="schema:http://schema.org/" preserveAspectRatio="xMidYMid" version="1.1" viewBox="0 0 1169 688.21" vocab="http://vocabularies.wikipathways.org/wp#" xmlns="http://www.w3.org/2000/svg" xmlns:xlink="http://www.w3.org/1999/xlink"><style>svg {font-family: 'Liberation Sans', Arial, sans-serif; }</style><defs><filter id="a" x="0" y="0" width="1169" height="688.21" filterUnits="userSpaceOnUse"><feColorMatrix in="SourceGraphic" values="-1   0   0 0 0                   0  -1   0 0 0                   0   0  -1 0 0                   0   0   0 1 0"/></filter><marker id="f" stroke-dasharray="99999" markerHeight="12" markerUnits="userSpaceOnUse" markerWidth="12" orient="auto" preserveAspectRatio="none" refY="6" viewBox="0 0 12 12"><path d="M12 11L0 6l12-5z" fill="currentColor" stroke-width="0"/></marker><marker id="d" stroke-dasharray="99999" markerHeight="12" markerUnits="userSpaceOnUse" markerWidth="12" orient="auto" preserveAspectRatio="none" refX="12" refY="6" viewBox="0 0 12 12"><path transform="rotate(180 6 6)" d="M12 11L0 6l12-5z" fill="currentColor" stroke-width="0"/></marker><marker id="c" stroke-dasharray="99999" markerHeight="20" markerUnits="userSpaceOnUse" markerWidth="10" orient="auto" preserveAspectRatio="none" refX="10" refY="10" viewBox="0 0 10 20"><path d="m3 0v20" fill="currentColor" stroke="currentColor"/></marker><symbol id="e" overflow="visible" preserveAspectRatio="none" viewBox="0 0 50 50"><ellipse cx="25" cy="25" rx="25" ry="25" stroke="currentColor" vector-effect="non-scaling-stroke"/></symbol><symbol id="g" overflow="visible" preserveAspectRatio="none" viewBox="0 0 100 100"><path d="M0 25L25 0h50l25 25v50l-25 25H25L0 75z" stroke="currentColor" vector-effect="non-scaling-stroke"/></symbol><symbol id="b" preserveAspectRatio="none" viewBox="0 0 100 100"/></defs><g class="Viewport" color="black"  name="Name: OSX and miRNAs in tooth development Organism: Homo sapiens"><rect class="Icon" width="1169" height="688.21" fill="#fff" stroke="#000" stroke-width="0"/><g class="GroupGroup" transform="translate(584,567)" color="grey" ><use class="Icon" width="106" height="84.5" fill="transparent"  stroke="grey" stroke-dasharray="5,3" stroke-width="0" xlink:href="#b"/><g class="SingleFreeNode Shape PhysicalEntity CellularComponent Cell" transform="translate(11,8)" color="#000" ><use class="Icon" transform="matrix(.97701 0 0 .95652 .97701 .95652)" width="85" height="44" fill="#927992" stroke="#000" stroke-width="2" xlink:href="#e"/></g><g class="SingleFreeNode Shape PhysicalEntity CellularComponent Nucleus" transform="translate(50,26)" color="#1884dc" ><use class="Icon" transform="matrix(.92308 0 0 .8 .92308 .8)" width="24" height="8" fill="#a0ccdb" stroke="#1884dc" stroke-width="2" xlink:href="#e"/></g><g class="Label" transform="translate(8,51.5)" color="#000"  name="Cementoblast"><use class="Icon" width="90" height="25" fill="transparent"  stroke="#000" stroke-width="0" xlink:href="#b"/><text class="Text" transform="translate(45,16.5)"   font-size="12px" font-weight="bold"  text-anchor="middle"><tspan x="0" y="0">Cementoblast</tspan></text></g></g><g class="GroupGroup" transform="translate(827,293)" color="grey" ><use class="Icon" width="106" height="86.5" fill="transparent"  stroke="grey" stroke-dasharray="5,3" stroke-width="0" xlink:href="#b"/><g class="SingleFreeNode Shape PhysicalEntity CellularComponent Cell" transform="translate(8,8)" color="#0b6ad4" ><use class="Icon" transform="matrix(.98837 0 0 .97778 .49419 .48889)" width="85" height="44" fill="#e1edf6" stroke="#0b6ad4" xlink:href="#e"/></g><g class="SingleFreeNode Shape PhysicalEntity CellularComponent Nucleus" transform="translate(48,20)" color="#956813" ><use class="Icon" transform="matrix(.92308 0 0 .85714 .92308 .85714)" width="24" height="12" fill="#ffbd41" stroke="#956813" stroke-width="2" xlink:href="#e"/></g><g class="Label" transform="translate(8,53.5)" color="#000"  name="Odontoblast"><use class="Icon" width="90" height="25" fill="transparent"  stroke="#000" stroke-width="0" xlink:href="#b"/><text class="Text" transform="translate(45,16.5)"   font-size="12px" font-weight="bold"  text-anchor="middle"><tspan x="0" y="0">Odontoblast</tspan></text></g></g><g id="h" class="DirectedInteraction" color="#000" ><g color="#000" fill="transparent"  filter="url(#a)" stroke="#000" stroke-dasharray="82.20142044308149, 5.8"><path class="EdgeBody" d="m547.75 446.5-0.5 88"   marker-end="url(#d)" /></g></g><g id="i" class="DirectedInteraction" color="#000" ><g color="#000" fill="transparent"  filter="url(#a)" stroke="#000" stroke-dasharray="104.2, 5.8"><path class="EdgeBody" d="m492 234h110"   marker-end="url(#d)" /></g></g><g id="j" class="DirectedInteraction" color="#000" ><g color="#000" fill="transparent"  filter="url(#a)" stroke="#000" stroke-dasharray="68.20168916991017, 5.8"><path class="EdgeBody" d="m304.75 347.5-0.5 74"   marker-end="url(#d)" /></g></g><g id="k" class="DirectedInteraction" color="#000" ><g color="#000" fill="transparent"  filter="url(#a)" stroke="#000" stroke-dasharray="241.2, 5.8"><path class="EdgeBody" d="m355 335h247"   marker-end="url(#d)" /></g></g><g id="l" class="DirectedInteraction" color="#000" ><g color="#000" fill="transparent"  filter="url(#a)" stroke="#000" stroke-dasharray="43.2, 5.8"><path class="EdgeBody" d="m321.5 172.5v49"   marker-end="url(#d)" /></g></g><g id="m" class="Interaction" color="#000" ><g color="#000" fill="transparent"  filter="url(#a)" stroke="#000" stroke-dasharray="69, 7"><path class="EdgeBody" d="m191.5 246.5v76"   marker-end="url(#c)" /></g></g><g id="n" class="DirectedInteraction" color="#000" ><g color="#000" fill="transparent"  filter="url(#a)" stroke="#000" stroke-dasharray="70.2, 5.8"><path class="EdgeBody" d="m635.5 246.5v76"   marker-end="url(#d)" /></g></g><g id="o" class="DirectedInteraction" color="#000" ><g color="#000" fill="transparent"  filter="url(#a)" stroke="#000" stroke-dasharray="85.95544942944807, 5.8"><path class="EdgeBody" d="m564.5 421.5 54.25-74"   marker-end="url(#d)" /></g></g><g id="p" class="Interaction" color="#000" ><g color="#000" fill="transparent"  filter="url(#a)" stroke="#000" stroke-dasharray="64, 7"><path class="EdgeBody" d="m352 234h71"   marker-end="url(#c)" /></g></g><g id="q" class="Interaction" color="#000" ><g color="#000" fill="transparent"  filter="url(#a)" stroke="#000" stroke-dasharray="92, 7"><path class="EdgeBody" d="m610 500h-45.5v-53.5"   marker-end="url(#c)" /></g></g><g id="r" class="DirectedInteraction" color="#000" ><g color="#000" fill="transparent"  filter="url(#a)" stroke="#000" stroke-dasharray="57.2, 5.8"><path class="EdgeBody" d="m225 335h63"   marker-end="url(#d)" /></g></g><g class="GroupGroup" transform="translate(877.95 24.381)" color="grey" ><use class="Icon" width="238.03309999135809" height="176.90398409817647" fill="transparent"  stroke="grey" stroke-dasharray="5,3" stroke-width="0" xlink:href="#b"/><g id="s" class="Edge GraphicalLine DirectedInteraction" color="#000" ><g color="#000" fill="transparent"  filter="url(#a)" stroke="#000" stroke-dasharray="0, 5.8, 5.9, 3.54, 5.9, 3.54, 5.9, 3.54, 5.9, 3.54, 5.9, 5.8"><path class="EdgeBody" d="m33.476 108.95h55.238"   marker-end="url(#d)" marker-start="url(#f)" /></g></g><g id="t" class="Edge GraphicalLine DirectedInteraction" color="#000" ><g color="#000" fill="transparent"  filter="url(#a)" stroke="#000" stroke-dasharray="53.24761904761904, 5.8"><path class="EdgeBody" d="m33.476 54.667h59.048"   marker-end="url(#d)" /></g></g><g id="u" class="Edge GraphicalLine" color="#000" ><g color="#000" fill="transparent"  filter="url(#a)" stroke="#000" stroke-dasharray="54.90476190476181, 7"><path class="EdgeBody" d="m32.524 82.286h61.905"   marker-end="url(#c)" /></g></g><g class="SingleFreeNode Shape" transform="translate(18.69 8)" color="#000" ><rect class="Icon" transform="matrix(.99529 0 0 .99382 .49765 .49691)" width="211.34" height="160.9" fill="transparent"  stroke="#000"/></g><g class="Label" transform="translate(104.67 42.167)" color="#000"  name="Stimulation"><use class="Icon" width="90" height="25" fill="transparent"  stroke="#000" stroke-width="0" xlink:href="#b"/><text class="Text" transform="translate(45,16.5)"   font-size="12px" font-weight="bold"  text-anchor="middle"><tspan x="0" y="0">Stimulation</tspan></text></g><g class="Label" transform="translate(104.19 70.262)" color="#000"  name="Inhibition"><use class="Icon" width="90" height="25" fill="transparent"  stroke="#000" stroke-width="0" xlink:href="#b"/><text class="Text" transform="translate(45,16.5)"   font-size="12px" font-weight="bold"  text-anchor="middle"><tspan x="0" y="0">Inhibition</tspan></text></g><g class="Label" transform="translate(104.67 95.5)" color="#000"  name="Crosstalk"><use class="Icon" width="90" height="25" fill="transparent"  stroke="#000" stroke-width="0" xlink:href="#b"/><text class="Text" transform="translate(45,16.5)"   font-size="12px" font-weight="bold"  text-anchor="middle"><tspan x="0" y="0">Crosstalk</tspan></text></g><g class="Label" transform="translate(8 10.262)" color="#000"  name="Legend"><use class="Icon" width="90" height="25" fill="transparent"  stroke="#000" stroke-width="0" xlink:href="#b"/><text class="Text" transform="translate(45,16.5)"   font-size="14px" font-weight="bold"  text-anchor="middle"><tspan x="0" y="0">Legend</tspan></text></g><g class="Label" transform="translate(30.766 131.63)" color="#dd8720"  name="A, B, C"><use class="Icon" width="63.15054878576021" height="25" fill="transparent"  stroke="#dd8720" stroke-width="0" xlink:href="#b"/><text class="Text" transform="translate(31.575 17.5)" fill="#dd8720"  font-size="16px" font-weight="bold" stroke="black" stroke-width="0" text-anchor="middle"><tspan x="0" y="0">A, B, C</tspan></text></g><g class="Label" transform="translate(94.703 129.09)" color="#000"  name="Corresponds to  pathway description"><use class="Icon" width="128.0706075533658" height="25" fill="transparent"  stroke="#000" stroke-width="0" xlink:href="#b"/><text class="Text" transform="translate(64.035 16.5)"   font-size="12px" font-weight="bold"  text-anchor="middle"><tspan x="0" y="-6.6000000000000005">Corresponds to </tspan> <tspan x="0" y="6.6000000000000005">pathway description</tspan></text></g></g><g id="v" class="DirectedInteraction" color="#000" ><g color="#000" fill="transparent"  filter="url(#a)" stroke="#000" stroke-dasharray="60.7, 5.8"><path class="EdgeBody" d="m564 547h46.5v20"   marker-end="url(#d)" /></g></g><g id="w" class="DirectedInteraction" color="#000" ><g color="#000" fill="transparent"  filter="url(#a)" stroke="#000" stroke-dasharray="79.20036764626374, 5.8"><path class="EdgeBody" d="m690 609.25 85-0.25"   marker-end="url(#d)" /></g></g><g id="x" class="Interaction" color="#000" ><g color="#000" fill="transparent"  filter="url(#a)" stroke="#000" stroke-dasharray="32, 7"><path class="EdgeBody" d="m396.25 451.5v39"   marker-end="url(#c)" /></g></g><g id="y" class="Interaction" color="#000" ><g color="#000" fill="transparent"  filter="url(#a)" stroke="#000" stroke-dasharray="108.25, 7"><path class="EdgeBody" d="m338.25 347.5v20h77.25v18"   marker-end="url(#c)" /></g></g><g id="z" class="Interaction" color="#000" ><g color="#000" fill="transparent"  filter="url(#a)" stroke="#000" stroke-dasharray="155, 7"><path class="EdgeBody" d="m434.75 451.5v20h79v63"   marker-end="url(#c)" /></g></g><g id="aa" class="Interaction" color="#000" ><g color="#000" fill="transparent"  filter="url(#a)" stroke="#000" stroke-dasharray="35, 7"><path class="EdgeBody" d="m457.5 179.5v42"   marker-end="url(#c)" /></g></g><g id="ab" class="DirectedInteraction" color="#000" ><g color="#000" fill="transparent"  filter="url(#a)" stroke="#000" stroke-dasharray="152.20494454288448, 5.8"><path class="EdgeBody" d="m669 335 158 1.25"   marker-end="url(#d)" /></g></g><g id="ac" class="DirectedInteraction" color="#000" ><g color="#000" fill="transparent"  filter="url(#a)" stroke="#000" stroke-dasharray="57.2, 5.8"><path class="EdgeBody" d="m880 379.5v63"   marker-end="url(#d)" /></g></g><g id="ad" class="DirectedInteraction" color="#000" ><g color="#000" fill="transparent"  filter="url(#a)" stroke="#000" stroke-dasharray="0, 5.8, 5.6, 3.36, 5.6, 3.36, 5.6, 3.36, 5.6, 3.36, 5.6, 3.36, 5.6, 3.36, 5.6, 3.36, 0, 5.8"><path class="EdgeBody" d="m598 434 71-0.5"   marker-end="url(#d)" marker-start="url(#f)" /></g></g><g id="ae" class="Interaction" color="#000" ><g color="#000" fill="transparent"  filter="url(#a)" stroke="#000" stroke-dasharray="98.5, 7"><path class="EdgeBody" d="m671 500h72v-33.5"   marker-end="url(#c)" /></g></g><g id="af" class="Interaction" color="#000" ><g color="#000" fill="transparent"  filter="url(#a)" stroke="#000" stroke-dasharray="98.09311347562218, 7"><path class="EdgeBody" d="m743 400.5-90.75-53"   marker-end="url(#c)" /></g></g><g id="ag" class="Interaction" color="#000" ><g color="#000" fill="transparent"  filter="url(#a)" stroke="#000" stroke-dasharray="23.004166377354995, 7"><path class="EdgeBody" d="m635 191.5 0.5 30"   marker-end="url(#c)" /></g></g><g id="ah" class="Interaction" color="#000" ><g color="#000" fill="transparent"  filter="url(#a)" stroke="#000" stroke-dasharray="103.25, 7"><path class="EdgeBody" d="m712 272h-59.75v50.5"   marker-end="url(#c)" /></g></g><g id="ai" class="Interaction" color="#000" ><g color="#000" fill="transparent"  filter="url(#a)" stroke="#000" stroke-dasharray="94.5, 7"><path class="EdgeBody" d="m346 503h-20v81.5"   marker-end="url(#c)" /></g></g><g id="aj" class="DirectedInteraction" color="#000" ><g color="#000" fill="transparent"  filter="url(#a)" stroke="#000" stroke-dasharray="43.2, 5.8"><path class="EdgeBody" d="m199 609h49"   marker-end="url(#d)" /></g></g><g id="ak" class="Interaction" color="#000" ><g color="#000" fill="transparent"  filter="url(#a)" stroke="#000" stroke-dasharray="173.00017361102738, 7"><path class="EdgeBody" d="m404 609 180 0.25"   marker-end="url(#c)" /></g></g><g id="al" class="Interaction" color="#000" ><g color="#000" fill="transparent"  filter="url(#a)" stroke="#000" stroke-dasharray="131.00090579412876, 7"><path class="EdgeBody" d="m287.5 446.5-0.5 138"   marker-end="url(#c)" /></g></g><g class="Label" transform="translate(775,596.5)" color="#000"  name="Cementum"><use class="Icon" width="90" height="25" fill="transparent"  stroke="#000" stroke-width="0" xlink:href="#b"/><text class="Text" transform="translate(45,16.5)"   font-size="12px" font-weight="bold"  text-anchor="middle"><tspan x="0" y="0">Cementum</tspan></text></g><g class="GroupGroup" transform="translate(548,22.5)" color="grey" ><use class="Icon" width="174" height="169" fill="transparent"  stroke="grey" stroke-dasharray="5,3" stroke-width="0" xlink:href="#b"/><g class="Label" transform="translate(41,8)" color="#000"  name="let-7 miRNAs"><use class="Icon" width="90" height="25" fill="transparent"  stroke="#000" stroke-width="0" xlink:href="#b"/><text class="Text" transform="translate(45,16.5)"   font-size="12px" font-weight="bold"  text-anchor="middle"><tspan x="0" y="0">let-7 miRNAs</tspan></text></g><a class="GeneProduct MIRLET7A1 " transform="translate(8,36)" color="#990099"  name="MIRLET7A1"  ><rect class="Icon" transform="matrix(.9875 0 0 .96154 .49375 .48077)" width="79" height="25" fill="#fff" stroke="#909"/><text class="Text" transform="translate(39.5,16.5)" fill="#990099"  font-size="12px"  text-anchor="middle"><tspan x="0" y="0">MIRLET7A1</tspan></text></a><a class="GeneProduct MIRLET7A2 " transform="translate(8,61)" color="#990099"  name="MIRLET7A2"  ><rect class="Icon" transform="matrix(.9875 0 0 .96154 .49375 .48077)" width="79" height="25" fill="#fff" stroke="#909"/><text class="Text" transform="translate(39.5,16.5)" fill="#990099"  font-size="12px"  text-anchor="middle"><tspan x="0" y="0">MIRLET7A2</tspan></text></a><a class="GeneProduct MIRLET7C " transform="translate(8,86)" color="#990099"  name="MIRLET7C"  ><rect class="Icon" transform="matrix(.9875 0 0 .96154 .49375 .48077)" width="79" height="25" fill="#fff" stroke="#909"/><text class="Text" transform="translate(39.5,16.5)" fill="#990099"  font-size="12px"  text-anchor="middle"><tspan x="0" y="0">MIRLET7C</tspan></text></a><a class="GeneProduct MIRLET7D " transform="translate(8,111)" color="#990099"  name="MIRLET7D"  ><rect class="Icon" transform="matrix(.9875 0 0 .96154 .49375 .48077)" width="79" height="25" fill="#fff" stroke="#909"/><text class="Text" transform="translate(39.5,16.5)" fill="#990099"  font-size="12px"  text-anchor="middle"><tspan x="0" y="0">MIRLET7D</tspan></text></a><a class="GeneProduct MIRLET7E " transform="translate(87,36)" color="#990099"  name="MIRLET7E"  ><rect class="Icon" transform="matrix(.9875 0 0 .96154 .49375 .48077)" width="79" height="25" fill="#fff" stroke="#909"/><text class="Text" transform="translate(39.5,16.5)" fill="#990099"  font-size="12px"  text-anchor="middle"><tspan x="0" y="0">MIRLET7E</tspan></text></a><a class="GeneProduct MIRLET7F1 " transform="translate(87,61)" color="#990099"  name="MIRLET7F1"  ><rect class="Icon" transform="matrix(.9875 0 0 .96154 .49375 .48077)" width="79" height="25" fill="#fff" stroke="#909"/><text class="Text" transform="translate(39.5,16.5)" fill="#990099"  font-size="12px"  text-anchor="middle"><tspan x="0" y="0">MIRLET7F1</tspan></text></a><a class="GeneProduct MIRLET7F2 " transform="translate(87,86)" color="#990099"  name="MIRLET7F2"  ><rect class="Icon" transform="matrix(.9875 0 0 .96154 .49375 .48077)" width="79" height="25" fill="#fff" stroke="#909"/><text class="Text" transform="translate(39.5,16.5)" fill="#990099"  font-size="12px"  text-anchor="middle"><tspan x="0" y="0">MIRLET7F2</tspan></text></a><a class="GeneProduct MIRLET7G " transform="translate(87,111)" color="#990099"  name="MIRLET7G"  ><rect class="Icon" transform="matrix(.9875 0 0 .96154 .49375 .48077)" width="79" height="25" fill="#fff" stroke="#909"/><text class="Text" transform="translate(39.5,16.5)" fill="#990099"  font-size="12px"  text-anchor="middle"><tspan x="0" y="0">MIRLET7G</tspan></text></a><a class="GeneProduct MIRLET7I " transform="translate(87,136)" color="#990099"  name="MIRLET7I"  ><rect class="Icon" transform="matrix(.9875 0 0 .96154 .49375 .48077)" width="79" height="25" fill="#fff" stroke="#909"/><text class="Text" transform="translate(39.5,16.5)" fill="#990099"  font-size="12px"  text-anchor="middle"><tspan x="0" y="0">MIRLET7I</tspan></text></a></g><a class="ChEBI_CHEBI_48607 Metabolite  " transform="translate(109,596.5)" color="#00f"  name="lithium chloride"  ><rect class="Icon" transform="matrix(.98901 0 0 .96154 .49451 .48077)" width="90" height="25" fill="#fff" stroke="#00f"/><text class="Text" transform="translate(45,16.5)" fill="#00f"  font-size="12px"  text-anchor="middle"><tspan x="0" y="0">lithium chloride</tspan></text></a><a class="GeneProduct MIR145 " transform="translate(291,221.5)" color="#990099"  name="MIR145"  ><rect class="Icon" transform="matrix(.98387 0 0 .96154 .49194 .48077)" width="61" height="25" fill="#fff" stroke="#909"/><text class="Text" transform="translate(30.5,16.5)" fill="#990099"  font-size="12px"  text-anchor="middle"><tspan x="0" y="0">MIR145</tspan></text></a><a  class="GeneProduct RUNX2 " transform="translate(158,322.5)"   name="RUNX2"  ><rect class="Icon" transform="matrix(.98529 0 0 .96154 .49265 .48077)" width="67" height="25" fill="#fff" stroke="#000"/><text class="Text" transform="translate(33.5,16.5)"   font-size="12px"  text-anchor="middle"><tspan x="0" y="0">RUNX2</tspan></text></a><g class="GroupGroup" transform="translate(389,85.5)" color="grey" ><use class="Icon" width="137" height="94" fill="transparent"  stroke="grey" stroke-dasharray="5,3" stroke-width="0" xlink:href="#b"/><a class="Rna " transform="translate(68,61)" color="#990099"  name="MIR29C"  ><rect class="Icon" transform="matrix(.98387 0 0 .96154 .49194 .48077)" width="61" height="25" fill="#fff" stroke="#909"/><text class="Text" transform="translate(30.5,16.5)" fill="#990099"  font-size="12px"  text-anchor="middle"><tspan x="0" y="0">MIR29C</tspan></text></a><g class="GeneProduct " transform="translate(8,36)" color="#990099"  name="MIR29A"><rect class="Icon" transform="matrix(.98387 0 0 .96154 .49194 .48077)" width="61" height="25" fill="#fff" stroke="#909"/><text class="Text" transform="translate(30.5,16.5)" fill="#990099"  font-size="12px"  text-anchor="middle"><tspan x="0" y="0">MIR29A</tspan></text></g><a class="GeneProduct MIR29B1 " transform="translate(8,61)" color="#990099"  name="MIR29B1"  ><rect class="Icon" transform="matrix(.98387 0 0 .96154 .49194 .48077)" width="61" height="25" fill="#fff" stroke="#909"/><text class="Text" transform="translate(30.5,16.5)" fill="#990099"  font-size="12px"  text-anchor="middle"><tspan x="0" y="0">MIR29B1</tspan></text></a><a class="GeneProduct " transform="translate(68,36)" color="#990099"  name="MIR29B2"  ><rect class="Icon" transform="matrix(.98387 0 0 .96154 .49194 .48077)" width="61" height="25" fill="#fff" stroke="#909"/><text class="Text" transform="translate(30.5,16.5)" fill="#990099"  font-size="12px"  text-anchor="middle"><tspan x="0" y="0">MIR29B2</tspan></text></a><g class="Label" transform="translate(28,8)" color="#000"  name="mir-29 miRNAs"><use class="Icon" width="90" height="25" fill="transparent"  stroke="#000" stroke-width="0" xlink:href="#b"/><text class="Text" transform="translate(45,16.5)"   font-size="12px" font-weight="bold"  text-anchor="middle"><tspan x="0" y="0">mir-29 miRNAs</tspan></text></g></g><a  class="GeneProduct SP7 " transform="translate(288,322.5)"   name="OSX"  ><rect class="Icon" transform="matrix(.98529 0 0 .96154 .49265 .48077)" width="67" height="25" fill="#fff" stroke="#000"/><text class="Text" transform="translate(33.5,16.5)"   font-size="12px"  text-anchor="middle"><tspan x="0" y="0">OSX</tspan></text></a><a  class="GeneProduct KLF4 " transform="translate(423,221.5)"   name="KLF4"  ><rect class="Icon" transform="matrix(.98571 0 0 .96154 .49286 .48077)" width="69" height="25" fill="#fff" stroke="#000"/><text class="Text" transform="translate(34.5,16.5)"   font-size="12px"  text-anchor="middle"><tspan x="0" y="0">KLF4</tspan></text></a><a  class="GeneProduct DMP1 " transform="translate(602,221.5)"   name="DMP1"  ><rect class="Icon" transform="matrix(.98529 0 0 .96154 .49265 .48077)" width="67" height="25" fill="#fff" stroke="#000"/><text class="Text" transform="translate(33.5,16.5)"   font-size="12px"  text-anchor="middle"><tspan x="0" y="0">DMP1</tspan></text></a><a  class="GeneProduct DSPP " transform="translate(602,322.5)"   name="DSPP"  ><rect class="Icon" transform="matrix(.98529 0 0 .96154 .49265 .48077)" width="67" height="25" fill="#fff" stroke="#000"/><text class="Text" transform="translate(33.5,16.5)"   font-size="12px"  text-anchor="middle"><tspan x="0" y="0">DSPP</tspan></text></a><a  class="GeneProduct BMP7 " transform="translate(531,421.5)"   name="BMP7"  ><rect class="Icon" transform="matrix(.98529 0 0 .96154 .49265 .48077)" width="67" height="25" fill="#fff" stroke="#000"/><text class="Text" transform="translate(33.5,16.5)"   font-size="12px"  text-anchor="middle"><tspan x="0" y="0">BMP7</tspan></text></a><g class="GroupGroup" transform="translate(669,400.5)" color="grey" ><use class="Icon" width="148" height="66" fill="transparent"  stroke="grey" stroke-dasharray="5,3" stroke-width="0" xlink:href="#b"/><a  class="GeneProduct NOTCH1 " transform="translate(8,8)"   name="NOTCH1"  ><rect class="Icon" transform="matrix(.98529 0 0 .96154 .49265 .48077)" width="67" height="25" fill="#fff" stroke="#000"/><text class="Text" transform="translate(33.5,16.5)"   font-size="12px"  text-anchor="middle"><tspan x="0" y="0">NOTCH1</tspan></text></a><a  class="GeneProduct NOTCH2 " transform="translate(8,33)"   name="NOTCH2"  ><rect class="Icon" transform="matrix(.98529 0 0 .96154 .49265 .48077)" width="67" height="25" fill="#fff" stroke="#000"/><text class="Text" transform="translate(33.5,16.5)"   font-size="12px"  text-anchor="middle"><tspan x="0" y="0">NOTCH2</tspan></text></a><a  class="GeneProduct NOTCH3 " transform="translate(73,8)"   name="NOTCH3"  ><rect class="Icon" transform="matrix(.98529 0 0 .96154 .49265 .48077)" width="67" height="25" fill="#fff" stroke="#000"/><text class="Text" transform="translate(33.5,16.5)"   font-size="12px"  text-anchor="middle"><tspan x="0" y="0">NOTCH3</tspan></text></a><a  class="GeneProduct NOTCH4 " transform="translate(73,33)"   name="NOTCH4"  ><rect class="Icon" transform="matrix(.98529 0 0 .96154 .49265 .48077)" width="67" height="25" fill="#fff" stroke="#000"/><text class="Text" transform="translate(33.5,16.5)"   font-size="12px"  text-anchor="middle"><tspan x="0" y="0">NOTCH4</tspan></text></a></g><a  class="GeneProduct ALPL " transform="translate(497,534.5)"   name="ALP"  ><rect class="Icon" transform="matrix(.98529 0 0 .96154 .49265 .48077)" width="67" height="25" fill="#fff" stroke="#000"/><text class="Text" transform="translate(33.5,16.5)"   font-size="12px"  text-anchor="middle"><tspan x="0" y="0">ALP</tspan></text></a><a  class="GeneProduct DKK1 " transform="translate(254,421.5)"   name="DKK1"  ><rect class="Icon" transform="matrix(.98529 0 0 .96154 .49265 .48077)" width="67" height="25" fill="#fff" stroke="#000"/><text class="Text" transform="translate(33.5,16.5)"   font-size="12px"  text-anchor="middle"><tspan x="0" y="0">DKK1</tspan></text></a><a  class="GeneProduct SOST " transform="translate(346,490.5)"   name="SOST"  ><rect class="Icon" transform="matrix(.98529 0 0 .96154 .49265 .48077)" width="67" height="25" fill="#fff" stroke="#000"/><text class="Text" transform="translate(33.5,16.5)"   font-size="12px"  text-anchor="middle"><tspan x="0" y="0">SOST</tspan></text></a><g class="GroupComplex" transform="translate(248,584.5)" color="grey" ><use class="Icon" transform="matrix(.99363 0 0 .98 .49682 .49)" width="156" height="49" fill="#b4b464" fill-opacity=".1" stroke="grey" xlink:href="#g"/><a  class="GeneProduct HNF1A " transform="translate(77,12)"   name="TCF-1"  ><rect class="Icon" transform="matrix(.98529 0 0 .96154 .49265 .48077)" width="67" height="25" fill="#fff" stroke="#000"/><text class="Text" transform="translate(33.5,16.5)"   font-size="12px"  text-anchor="middle"><tspan x="0" y="0">TCF-1</tspan></text></a><a  class="GeneProduct CTNNB1 " transform="translate(12,12)"   name="CTNNB1"  ><rect class="Icon" transform="matrix(.98529 0 0 .96154 .49265 .48077)" width="67" height="25" fill="#fff" stroke="#000"/><text class="Text" transform="translate(33.5,16.5)"   font-size="12px"  text-anchor="middle"><tspan x="0" y="0">CTNNB1</tspan></text></a></g><a class="GeneProduct MIR338 " transform="translate(161,221.5)" color="#990099"  name="MIR338"  ><rect class="Icon" transform="matrix(.98387 0 0 .96154 .49194 .48077)" width="61" height="25" fill="#fff" stroke="#909"/><text class="Text" transform="translate(30.5,16.5)" fill="#990099"  font-size="12px"  text-anchor="middle"><tspan x="0" y="0">MIR338</tspan></text></a><g class="GroupGroup" transform="translate(712,226.5)" color="grey" ><use class="Icon" width="77" height="91" fill="transparent"  stroke="grey" stroke-dasharray="5,3" stroke-width="0" xlink:href="#b"/><a class="GeneProduct MIR32 " transform="translate(8,8)" color="#990099"  name="MIR32"  ><rect class="Icon" transform="matrix(.98387 0 0 .96154 .49194 .48077)" width="61" height="25" fill="#fff" stroke="#909"/><text class="Text" transform="translate(30.5,16.5)" fill="#990099"  font-size="12px"  text-anchor="middle"><tspan x="0" y="0">MIR32</tspan></text></a><a class="GeneProduct MIR586 " transform="translate(8,33)" color="#990099"  name="MIR586"  ><rect class="Icon" transform="matrix(.98387 0 0 .96154 .49194 .48077)" width="61" height="25" fill="#fff" stroke="#909"/><text class="Text" transform="translate(30.5,16.5)" fill="#990099"  font-size="12px"  text-anchor="middle"><tspan x="0" y="0">MIR586</tspan></text></a><a class="GeneProduct MIR885 " transform="translate(8,58)" color="#990099"  name="MIR885"  ><rect class="Icon" transform="matrix(.98387 0 0 .96154 .49194 .48077)" width="61" height="25" fill="#fff" stroke="#909"/><text class="Text" transform="translate(30.5,16.5)" fill="#990099"  font-size="12px"  text-anchor="middle"><tspan x="0" y="0">MIR885</tspan></text></a></g><g id="am" class="Interaction" color="#000" ><g color="#000" fill="transparent"  filter="url(#a)" stroke="#000" stroke-dasharray="69, 7"><path class="EdgeBody" d="m321.5 246.5v76"   marker-end="url(#c)" /></g></g><a class="GeneProduct MIR34AHG " transform="translate(610,487.5)" color="#990099"  name="MIR34A"  ><rect class="Icon" transform="matrix(.98387 0 0 .96154 .49194 .48077)" width="61" height="25" fill="#fff" stroke="#909"/><text class="Text" transform="translate(30.5,16.5)" fill="#990099"  font-size="12px"  text-anchor="middle"><tspan x="0" y="0">MIR34A</tspan></text></a><a class="miRBase_Sequence_MI0000459 GeneProduct MIR143 " transform="translate(291,147.5)" color="#990099"  name="MIR143"  ><rect class="Icon" transform="matrix(.98387 0 0 .96154 .49194 .48077)" width="61" height="25" fill="#fff" stroke="#909"/><text class="Text" transform="translate(30.5,16.5)" fill="#990099"  font-size="12px"  text-anchor="middle"><tspan x="0" y="0">MIR143</tspan></text></a><g class="GroupGroup" transform="translate(377,385.5)" color="grey" ><use class="Icon" width="77" height="66" fill="transparent"  stroke="grey" stroke-dasharray="5,3" stroke-width="0" xlink:href="#b"/><a class="GeneProduct MIR204 " transform="translate(8,8)" color="#990099"  name="MIR204"  ><rect class="Icon" transform="matrix(.98387 0 0 .96154 .49194 .48077)" width="61" height="25" fill="#fff" stroke="#909"/><text class="Text" transform="translate(30.5,16.5)" fill="#990099"  font-size="12px"  text-anchor="middle"><tspan x="0" y="0">MIR204</tspan></text></a><a class="GeneProduct MIR211 " transform="translate(8,33)" color="#990099"  name="MIR211"  ><rect class="Icon" transform="matrix(.98387 0 0 .96154 .49194 .48077)" width="61" height="25" fill="#fff" stroke="#909"/><text class="Text" transform="translate(30.5,16.5)" fill="#990099"  font-size="12px"  text-anchor="middle"><tspan x="0" y="0">MIR211</tspan></text></a></g><g class="Label" transform="translate(835,442.5)" color="#000"  name="Dentin"><use class="Icon" width="90" height="25" fill="transparent"  stroke="#000" stroke-width="0" xlink:href="#b"/><text class="Text" transform="translate(45,16.5)"   font-size="12px" font-weight="bold"  text-anchor="middle"><tspan x="0" y="0">Dentin</tspan></text></g><g class="Label" transform="translate(788.81 623.21)" color="#dd8720"  name="B"><use class="Icon" width="43.57142857142887" height="25" fill="transparent"  stroke="#dd8720" stroke-width="0" xlink:href="#b"/><text class="Text" transform="translate(21.786 18.5)" fill="#dd8720"  font-size="20px" font-weight="bold" stroke="black" stroke-width="0" text-anchor="middle"><tspan x="0" y="0">B</tspan></text></g><g class="Label" transform="translate(902.26 398.19)" color="#dd8720"  name="A"><use class="Icon" width="43.57142857142887" height="25" fill="transparent"  stroke="#dd8720" stroke-width="0" xlink:href="#b"/><text class="Text" transform="translate(21.786 18.5)" fill="#dd8720"  font-size="20px" font-weight="bold" stroke="black" stroke-width="0" text-anchor="middle"><tspan x="0" y="0">A</tspan></text></g><g class="Label" transform="translate(143.64 271.15)" color="#dd8720"  name="C"><use class="Icon" width="43.57142857142887" height="25" fill="transparent"  stroke="#dd8720" stroke-width="0" xlink:href="#b"/><text class="Text" transform="translate(21.786 18.5)" fill="#dd8720"  font-size="20px" font-weight="bold" stroke="black" stroke-width="0" text-anchor="middle"><tspan x="0" y="0">C</tspan></text></g><g class="Label" transform="translate(363.26 254.83)" color="#dd8720"  name="C"><use class="Icon" width="43.57142857142887" height="25" fill="transparent"  stroke="#dd8720" stroke-width="0" xlink:href="#b"/><text class="Text" transform="translate(21.786 18.5)" fill="#dd8720"  font-size="20px" font-weight="bold" stroke="black" stroke-width="0" text-anchor="middle"><tspan x="0" y="0">C</tspan></text></g><g class="Label" transform="translate(716.27 184.97)" color="#dd8720"  name="C"><use class="Icon" width="43.57142857142887" height="25" fill="transparent"  stroke="#dd8720" stroke-width="0" xlink:href="#b"/><text class="Text" transform="translate(21.786 18.5)" fill="#dd8720"  font-size="20px" font-weight="bold" stroke="black" stroke-width="0" text-anchor="middle"><tspan x="0" y="0">C</tspan></text></g><g class="Label" transform="translate(669.1 298.42)" color="#dd8720"  name="C"><use class="Icon" width="43.57142857142887" height="25" fill="transparent"  stroke="#dd8720" stroke-width="0" xlink:href="#b"/><text class="Text" transform="translate(21.786 18.5)" fill="#dd8720"  font-size="20px" font-weight="bold" stroke="black" stroke-width="0" text-anchor="middle"><tspan x="0" y="0">C</tspan></text></g><g class="Label" transform="translate(395.07 456.34)" color="#dd8720"  name="C"><use class="Icon" width="43.57142857142887" height="25" fill="transparent"  stroke="#dd8720" stroke-width="0" xlink:href="#b"/><text class="Text" transform="translate(21.786 18.5)" fill="#dd8720"  font-size="20px" font-weight="bold" stroke="black" stroke-width="0" text-anchor="middle"><tspan x="0" y="0">C</tspan></text></g><g class="Label" transform="translate(747.18 464.52)" color="#dd8720"  name="C"><use class="Icon" width="43.57142857142887" height="25" fill="transparent"  stroke="#dd8720" stroke-width="0" xlink:href="#b"/><text class="Text" transform="translate(21.786 18.5)" fill="#dd8720"  font-size="20px" font-weight="bold" stroke="black" stroke-width="0" text-anchor="middle"><tspan x="0" y="0">C</tspan></text></g><text class="Text" transform="translate(5,27)" dominant-baseline="central" fill="black"  font-size="12px" font-weight="bold" overflow="visible" ><tspan x="0" y="-9">Name: OSX and miRNAs in tooth development</tspan> <tspan x="0" y="9">Organism: Homo sapiens</tspan></text></g></svg>
