<?xml version="1.0" encoding="UTF-8"?>
<!--
  WikiPathways page: https://www.wikipathways.org/index.php/Pathway:WP3933
  URL for this compressed file: https://github.com/eweitz/cachome/tree/main/data/wikipathways/WP3933.svg
  Source code for compression: https://github.com/eweitz/cachome/tree/main/src/wikipathways.py
-->
<svg class="Diagram" width="800" height="600" color="black" baseProfile="full" prefix="schema:http://schema.org/" preserveAspectRatio="xMidYMid" version="1.1" viewBox="0 0 663.45 576.42" vocab="http://vocabularies.wikipathways.org/wp#" xmlns="http://www.w3.org/2000/svg" xmlns:xlink="http://www.w3.org/1999/xlink"><style>svg {font-family: 'Liberation Sans', Arial, sans-serif; }</style><defs><filter id="a" x="0" y="0" width="663.45" height="576.42" filterUnits="userSpaceOnUse"><feColorMatrix in="SourceGraphic" values="-1   0   0 0 0                   0  -1   0 0 0                   0   0  -1 0 0                   0   0   0 1 0"/></filter><marker id="d" stroke-dasharray="99999" markerHeight="12" markerUnits="userSpaceOnUse" markerWidth="12" orient="auto" preserveAspectRatio="none" refX="12" refY="6" viewBox="0 0 12 12"><circle transform="rotate(180 6 6)" cx="6" cy="6" r="5.3" fill="none" stroke="#000"/></marker><marker id="b" stroke-dasharray="99999" markerHeight="12" markerUnits="userSpaceOnUse" markerWidth="12" orient="auto" preserveAspectRatio="none" refX="12" refY="6" viewBox="0 0 12 12"><path transform="rotate(180 6 6)" d="M12 11L0 6l12-5z" fill="currentColor" stroke-width="0"/></marker><symbol id="c" preserveAspectRatio="none" viewBox="0 0 100 100"/></defs><g class="Viewport" color="black"  name="Name: Kennedy pathway from sphingolipids Organism: Homo sapiens"><rect class="Icon" width="663.45" height="576.42" fill="#fff" stroke="#000" stroke-width="0"/><g id="e" class="Interaction" color="#000" ><g color="#000" fill="transparent"  filter="url(#a)" stroke="#000" stroke-dasharray="49.2, 5.8"><path class="EdgeBody" d="m213.67 80-3e-14 55"   marker-end="url(#b)" /></g><g class="Burr Anchor" transform="translate(213.67 102)" ><use class="Icon" width="0" height="0" fill="#141414" stroke-width="0" xlink:href="#c"/></g></g><g id="f" class="Interaction" color="#000" ><g color="#000" fill="transparent"  filter="url(#a)" stroke="#000" stroke-dasharray="58.69253731343282, 5.8"><path class="EdgeBody" d="m453.67 154.17v64.493"   marker-end="url(#b)" /></g><g class="Burr Anchor" transform="translate(453.67 179.97)" ><use class="Icon" width="0" height="0" fill="#141414" stroke-width="0" xlink:href="#c"/></g></g><g id="g" class="Interaction" color="#000" ><g color="#000" fill="transparent"  filter="url(#a)" stroke="#000" stroke-dasharray="26.199999999999985, 5.8"><path class="EdgeBody" d="m453.67 29.333 7e-14 32"   marker-end="url(#b)" /></g><g class="Burr Anchor" transform="translate(453.67 41.791)" ><use class="Icon" width="0" height="0" fill="#141414" stroke-width="0" xlink:href="#c"/></g></g><g id="h" class="Interaction" color="#000" ><g color="#000" fill="transparent"  filter="url(#a)" stroke="#000" stroke-dasharray="57.2, 5.8"><path class="EdgeBody" d="m213.67 155 3e-14 63"   marker-end="url(#b)" /></g><g class="Burr Anchor" transform="translate(213.67 180.2)" ><use class="Icon" width="0" height="0" fill="#141414" stroke-width="0" xlink:href="#c"/></g></g><g id="i" class="Interaction" color="#000" ><g color="#000" fill="transparent"  filter="url(#a)" stroke="#000" stroke-dasharray="47.040796019900526, 5.8"><path class="EdgeBody" d="m453.67 81.333 4e-14 52.841"   marker-end="url(#b)" /></g><g class="Burr Anchor" transform="translate(453.67 102.47)" ><use class="Icon" width="0" height="0" fill="#141414" stroke-width="0" xlink:href="#c"/></g></g><g id="j" class="Interaction" color="#000" ><g color="#000" fill="transparent"  filter="url(#a)" stroke="#000" stroke-dasharray="51.33402756066267, 11"><path class="EdgeBody" d="m516 179.68-62.333 0.29419"   marker-end="url(#d)" /></g></g><g id="k" class="Interaction" color="#000" ><g color="#000" fill="transparent"  filter="url(#a)" stroke="#000" stroke-dasharray="96.95, 5.8"><path class="EdgeBody" d="m213.67 238-3e-14 102.75"   marker-end="url(#b)" /></g><g class="Burr Anchor" transform="translate(213.67 285)" ><use class="Icon" width="0" height="0" fill="#141414" stroke-width="0" xlink:href="#c"/></g></g><g id="l" class="Interaction" color="#000" ><g color="#000" fill="transparent"  filter="url(#a)" stroke="#000" stroke-dasharray="95.20000000000003, 5.8"><path class="EdgeBody" d="m453.67 238.67v101"   marker-end="url(#b)" /></g><g class="Burr Anchor" transform="translate(453.67 283)" ><use class="Icon" width="0" height="0" fill="#141414" stroke-width="0" xlink:href="#c"/></g></g><g id="m" class="Interaction" color="#000" ><g color="#000" fill="transparent"  filter="url(#a)" stroke="#000" stroke-dasharray="89.59460902474277, 5.8"><path class="EdgeBody" d="m213.67 180.2h-0.038972c-0.038972 0-0.11692 0-0.15589 3.8-0.038972 3.8-0.038972 11.4 13.722 15.2 13.761 3.8 41.284 3.8 55.045 3.8l13.761 6e-14"   marker-end="url(#b)" /></g></g><g id="n" class="Interaction" color="#000" ><g color="#000" fill="transparent"  filter="url(#a)" stroke="#000" stroke-dasharray="113.86666666666669, 5.8"><path class="EdgeBody" d="m453.67 479.33 1.1e-13 -119.67"   marker-end="url(#b)" /></g><g class="Burr Anchor" transform="translate(453.67 448.42)" ><use class="Icon" width="0" height="0" fill="#141414" stroke-width="0" xlink:href="#c"/></g></g><g id="o" class="Interaction" color="#000" ><g color="#000" fill="transparent"  filter="url(#a)" stroke="#000" stroke-dasharray="85.08086433508694, 5.8"><path class="EdgeBody" d="m453.67 179.97 0.010779-3e-14c0.010779 3e-14 0.032338 3e-14 0.043118 3.8381 0.010779 3.8381 0.010779 11.514-12.944 15.353-12.955 3.8381-38.866 3.8381-51.821 3.8381l-12.955 6e-14"   marker-end="url(#b)" /></g></g><g id="p" class="Interaction" color="#000" ><g color="#000" fill="transparent"  filter="url(#a)" stroke="#000" stroke-dasharray="90.64812839396015, 5.8"><path class="EdgeBody" d="m453.67 283h-0.1136c-0.1136 0-0.3408 0-0.45439 5-0.1136 5-0.1136 15-13.111 20s-38.993 5-51.99 5h-12.998"   marker-end="url(#b)" /></g></g><g id="q" class="Interaction" color="#000" ><g color="#000" fill="transparent"  filter="url(#a)" stroke="#000" stroke-dasharray="94.83414904102797, 0"><path class="EdgeBody" d="m296 80-13.761-1e-14c-13.761 1e-14 -41.284 1e-14 -55.045 3.6667-13.761 3.6667-13.761 11-13.722 14.667 0.038972 3.6667 0.11692 3.6667 0.15589 3.6667h0.038972"   /></g></g><g id="r" class="Interaction" color="#000" ><g color="#000" fill="transparent"  filter="url(#a)" stroke="#000" stroke-dasharray="21.267357345553215, 11"><path class="EdgeBody" d="m421.4 447.85 32.262 0.56343"   marker-end="url(#d)" /></g></g><g id="s" class="Interaction" color="#000" ><g color="#000" fill="transparent"  filter="url(#a)" stroke="#000" stroke-dasharray="55.33856763267903, 11"><path class="EdgeBody" d="m520 282.17-66.333 0.83333"   marker-end="url(#d)" /></g></g><g id="t" class="Interaction" color="#000" ><g color="#000" fill="transparent"  filter="url(#a)" stroke="#000" stroke-dasharray="273.196913580247, 5.8"><path class="EdgeBody" d="m213.67 360.75v129.58h149.41"   marker-end="url(#b)" /></g><g class="Burr Anchor" transform="translate(258.96 490.33)" ><use class="Icon" width="0" height="0" fill="#141414" stroke-width="0" xlink:href="#c"/></g></g><g id="u" class="Interaction" color="#000" ><g color="#000" fill="transparent"  filter="url(#a)" stroke="#000" stroke-dasharray="62.23374182280671, 0"><path class="EdgeBody" d="m223.72 526.42-6e-14 -6.0348c3e-14 -6.0348 3e-14 -18.104 5.8731-24.139 5.8731-6.0348 17.619-6.0348 23.493-6.0141 5.8731 0.02073 5.8731 0.062189 5.8731 0.082919v0.02073"   /></g></g><g id="v" class="Interaction" color="#000" ><g color="#000" fill="transparent"  filter="url(#a)" stroke="#000" stroke-dasharray="61.3011821216365, 5.8"><path class="EdgeBody" d="m258.96 490.33v-0.02073c-1e-13 -0.02073-1e-13 -0.062189 6.9204-0.082919 6.9204-0.02073 20.761-0.02073 27.682 5.8897 6.9204 5.9104 6.9204 17.731 6.9204 23.642v5.9104"   marker-end="url(#b)" /></g></g><g id="w" class="Interaction" color="#000" ><g color="#000" fill="transparent"  filter="url(#a)" stroke="#000" stroke-dasharray="113.86666666666669, 5.8"><path class="EdgeBody" d="m498.96 359.67-1.3e-13 119.67"   marker-end="url(#b)" /></g><g class="Burr Anchor" transform="translate(498.96 418)" ><use class="Icon" width="0" height="0" fill="#141414" stroke-width="0" xlink:href="#c"/></g></g><g id="x" class="Interaction" color="#000" ><g color="#000" fill="transparent"  filter="url(#a)" stroke="#000" stroke-dasharray="57.0536243972685, 5.8"><path class="EdgeBody" d="m498.96 418-0.075402-3e-14c-0.075402 3e-14 -0.22621 3e-14 -0.30161 5.3707-0.075402 5.3707-0.075402 16.112 6.549 21.483 6.6244 5.3707 19.873 5.3707 26.498 5.3707h6.6244"   marker-end="url(#b)" /></g></g><g id="y" class="Interaction" color="#000" ><g color="#000" fill="transparent"  filter="url(#a)" stroke="#000" stroke-dasharray="63.02028063452494, 0"><path class="EdgeBody" d="m536.76 384.03-6.3756-6e-14c-6.3756 6e-14 -19.127 6e-14 -25.502 5.6617-6.3756 5.6617-6.3756 16.985-6.3002 22.647 0.075402 5.6617 0.22621 5.6617 0.30161 5.6617l0.075402 3e-14"   /></g></g><g id="z" class="Interaction" color="#000" ><g color="#000" fill="transparent"  filter="url(#a)" stroke="#000" stroke-dasharray="18.728518620950464, 11"><path class="EdgeBody" d="m528.69 418.33-29.727-0.32967"   marker-end="url(#d)" /></g></g><g id="aa" class="Interaction" color="#000" ><g color="#000" fill="transparent"  filter="url(#a)" stroke="#000" stroke-dasharray="13.512624901212039, 11"><path class="EdgeBody" d="m258.86 465.82 0.095771 24.512"   marker-end="url(#d)" /></g></g><g id="ab" class="Interaction" color="#000" ><g color="#000" fill="transparent"  filter="url(#a)" stroke="#000" stroke-dasharray="92.38538491302408, 5.8"><path class="EdgeBody" d="m213.67 285h-0.038972c-0.038972 0-0.11692 0-0.15589 4.6667-0.038972 4.6667-0.038972 14 13.556 18.667 13.595 4.6667 40.784 4.6667 54.378 4.6667h13.595"   marker-end="url(#b)" /></g></g><g id="ac" class="Interaction" color="#000" ><g color="#000" fill="transparent"  filter="url(#a)" stroke="#000" stroke-dasharray="5.16, 3.1, 5.16, 3.1, 5.16, 3.1, 5.16, 3.1, 5.16, 3.1, 5.16, 3.1, 5.16, 3.1, 5.16, 3.1, 5.16, 5.8"><path class="EdgeBody" d="m363.08 349.67-77.039 1.0833"   marker-end="url(#b)" /></g><g class="Burr Anchor" transform="translate(329.5 350.14)" ><use class="Icon" width="0" height="0" fill="#141414" stroke-width="0" xlink:href="#c"/></g></g><g id="ad" class="Interaction" color="#000" ><g color="#000" fill="transparent"  filter="url(#a)" stroke="#000" stroke-dasharray="72.3204424527127, 5.8"><path class="EdgeBody" d="m329.5 350.14-3e-14 0.086305c3e-14 0.086305 3e-14 0.25892-8.1315 0.34522-8.1315 0.086305-24.394 0.086305-32.526 6.8693-8.1315 6.783-8.1315 20.349-8.1315 27.132v6.783"   marker-end="url(#b)" /></g></g><g id="ae" class="Interaction" color="#000" ><g color="#000" fill="transparent"  filter="url(#a)" stroke="#000" stroke-dasharray="71.60283643552614, 0"><path class="EdgeBody" d="m329.5 350.14-3e-14 0.086305c3e-14 0.086305 3e-14 0.25892 6.7723 0.34522 6.7723 0.086305 20.317 0.086305 27.089 6.9936 6.7723 6.9073 6.7723 20.722 6.7723 27.629l7e-14 6.9073"   /></g></g><g id="af" class="Interaction" color="#000" ><g color="#000" fill="transparent"  filter="url(#a)" stroke="#000" stroke-dasharray="31.213073931398924, 11"><path class="EdgeBody" d="m329.04 392.35 0.45542-42.211"   marker-end="url(#d)" /></g></g><g id="ag" class="Interaction" color="#000" ><g color="#000" fill="transparent"  filter="url(#a)" stroke="#000" stroke-dasharray="107.75525441173791, 0"><path class="EdgeBody" d="m376 238 12.955-3e-14c12.955 3e-14 38.866 3e-14 51.821 7.5 12.955 7.5 12.955 22.5 12.944 30s-0.032338 7.5-0.043118 7.5h-0.010779"   /></g></g><g id="ah" class="Interaction" color="#000" ><g color="#000" fill="transparent"  filter="url(#a)" stroke="#000" stroke-dasharray="89.69309259227157, 0"><path class="EdgeBody" d="m375 160 13.122-3e-14c13.122 3e-14 39.366 3e-14 52.488 3.3285 13.122 3.3285 13.122 9.9856 13.111 13.314-0.010779 3.3285-0.032338 3.3285-0.043118 3.3285l-0.010779 3e-14"   /></g></g><g id="ai" class="Interaction" color="#000" ><g color="#000" fill="transparent"  filter="url(#a)" stroke="#000" stroke-dasharray="113.84844942312152, 0"><path class="EdgeBody" d="m296 238-13.761-3e-14c-13.761 3e-14 -41.284 3e-14 -55.045 7.8333-13.761 7.8333-13.761 23.5-13.722 31.333 0.038972 7.8333 0.11692 7.8333 0.15589 7.8333h0.038972"   /></g></g><g id="aj" class="Interaction" color="#000" ><g color="#000" fill="transparent"  filter="url(#a)" stroke="#000" stroke-dasharray="49.84089447268682, 11"><path class="EdgeBody" d="m514.51 41.682-60.841 0.10945"   marker-end="url(#d)" /></g></g><g id="ak" class="Interaction" color="#000" ><g color="#000" fill="transparent"  filter="url(#a)" stroke="#000" stroke-dasharray="92.6248249314519, 0"><path class="EdgeBody" d="m295 160-13.595-3e-14c-13.595 3e-14 -40.784 3e-14 -54.378 3.3667-13.595 3.3667-13.595 10.1-13.556 13.467 0.038972 3.3667 0.11692 3.3667 0.15589 3.3667h0.038972"   /></g></g><g id="al" class="Interaction" color="#000" ><g color="#000" fill="transparent"  filter="url(#a)" stroke="#000" stroke-dasharray="75.33356499325407, 11"><path class="EdgeBody" d="m127.33 180 86.333 0.2"   marker-end="url(#d)" /></g></g><g id="am" class="Interaction" color="#000" ><g color="#000" fill="transparent"  filter="url(#a)" stroke="#000" stroke-dasharray="87.37638847069779, 5.8"><path class="EdgeBody" d="m213.67 102h-0.038972c-0.038972 0-0.11692 0-0.15589 3.5-0.038972 3.5-0.038972 10.5 13.556 14 13.595 3.5 40.784 3.5 54.378 3.5h13.595"   marker-end="url(#b)" /></g></g><g id="an" class="Interaction" color="#000" ><g color="#000" fill="transparent"  filter="url(#a)" stroke="#000" stroke-dasharray="90.48248307197288, 0"><path class="EdgeBody" d="m376 80 12.955-1e-14c12.955 1e-14 38.866 1e-14 51.821 3.7449 12.955 3.7449 12.955 11.235 12.944 14.98s-0.032338 3.7449-0.043118 3.7449h-0.010779"   /></g></g><g id="ao" class="Interaction" color="#000" ><g color="#000" fill="transparent"  filter="url(#a)" stroke="#000" stroke-dasharray="83.79119035637503, 5.8"><path class="EdgeBody" d="m453.67 102.47h-0.1136c-0.1136 0-0.3408 0-0.45439 3.4217-0.1136 3.4217-0.1136 10.265-13.111 13.687-12.998 3.4217-38.993 3.4217-51.99 3.4217h-12.998"   marker-end="url(#b)" /></g></g><g id="ap" class="Interaction" color="#000" ><g color="#000" fill="transparent"  filter="url(#a)" stroke="#000" stroke-dasharray="43.3401974325041, 11"><path class="EdgeBody" d="m508 103.33-54.333-0.86368"   marker-end="url(#d)" /></g></g><g id="aq" class="Interaction" color="#000" ><g color="#000" fill="transparent"  filter="url(#a)" stroke="#000" stroke-dasharray="69.33402489328877, 11"><path class="EdgeBody" d="m133.33 284.67 80.333 0.33333"   marker-end="url(#d)" /></g></g><g id="ar" class="Interaction" color="#000" ><g color="#000" fill="transparent"  filter="url(#a)" stroke="#000" stroke-dasharray="67.33423093457353, 11"><path class="EdgeBody" d="m135.33 102.37 78.333-0.375"   marker-end="url(#d)" /></g></g><a class="KEGG_Compound_C00189 Metabolite ChEBI_CHEBI_16000  " transform="translate(406.77 61.333)" color="#00f"  name="Ethanolamine"  ><rect class="Icon" transform="matrix(.98945 0 0 .95238 .49473 .47619)" width="93.796" height="20" rx="15" ry="15" fill="#fff" stroke="#00f"/><text class="Text" transform="translate(46.898 14)" fill="#00f"  font-size="12px"  text-anchor="middle"><tspan x="0" y="0">Ethanolamine</tspan></text></a><a class="KEGG_Compound_C00019 Metabolite ChEBI_CHEBI_15414 ChEBI_CHEBI_67040   " transform="translate(361.57 392.1)" color="#00f"  name="SAM"  ><rect class="Icon" transform="matrix(.97163 0 0 .95238 .48582 .47619)" width="34.25" height="20" rx="15" ry="15" fill="#fff" stroke="#00f"/><text class="Text" transform="translate(17.125,14)" fill="#00f"  font-size="12px"  text-anchor="middle"><tspan x="0" y="0">SAM</tspan></text></a><a  class="GeneProduct PISD " transform="translate(341.4 437.85)"   name="Pisd"  ><rect class="Icon" transform="matrix(.98765 0 0 .95238 .49383 .47619)" width="80" height="20" fill="#fff" stroke="#000"/><text class="Text" transform="translate(40,14)"   font-size="12px"  text-anchor="middle"><tspan x="0" y="0">Pisd</tspan></text></a><a class="Metabolite ChEBI_CHEBI_18361  " transform="translate(296,193)" color="#00f"  name="PPi"  ><rect class="Icon" transform="matrix(.98765 0 0 .95238 .49383 .47619)" width="80" height="20" rx="15" ry="15" fill="#fff" stroke="#00f"/><text class="Text" transform="translate(40,14)" fill="#00f"  font-size="12px"  text-anchor="middle"><tspan x="0" y="0">PPi</tspan></text></a><a  class="GeneProduct CEPT1 " transform="translate(520 272.17)"   name="CEPT1"  ><rect class="Icon" transform="matrix(.98765 0 0 .95238 .49383 .47619)" width="80" height="20" fill="#fff" stroke="#000"/><text class="Text" transform="translate(40,14)"   font-size="12px"  text-anchor="middle"><tspan x="0" y="0">CEPT1</tspan></text></a><a class="ChEBI_CHEBI_18132 Metabolite  " transform="translate(159.67 135)" color="#00f"  name="Phosphocholine"  ><rect class="Icon" transform="matrix(.99083 0 0 .95238 .49541 .47619)" width="108" height="20" rx="15" ry="15" fill="#fff" stroke="#00f"/><text class="Text" transform="translate(54,14)" fill="#00f"  font-size="12px"  text-anchor="middle"><tspan x="0" y="0">Phosphocholine</tspan></text></a><a class="ChEBI_CHEBI_26739 Metabolite  " transform="translate(408.26 9.3333)" color="#00f"  name="Sphingolipid"  ><rect class="Icon" transform="matrix(.98911 0 0 .95238 .49455 .47619)" width="90.811" height="20" rx="15" ry="15" fill="#fff" stroke="#00f"/><text class="Text" transform="translate(45.405 14)" fill="#00f"  font-size="12px"  text-anchor="middle"><tspan x="0" y="0">Sphingolipid</tspan></text></a><a  class="GeneProduct PEMT " transform="translate(305.92 392.35)"   name="PEMT"  ><rect class="Icon" transform="matrix(.97884 0 0 .95238 .48942 .47619)" width="46.25" height="20" fill="#fff" stroke="#000"/><text class="Text" transform="translate(23.125,14)"   font-size="12px"  text-anchor="middle"><tspan x="0" y="0">PEMT</tspan></text></a><a class="KEGG_Compound_C02737 Metabolite ChEBI_CHEBI_11750  " transform="translate(363.08 479.33)" color="#00f"  name="Phosphatidylserine"  ><rect class="Icon" transform="matrix(.99451 0 0 .95652 .49726 .47826)" width="181.17" height="22" rx="15" ry="15" fill="#fff" stroke="#00f"/><text class="Text" transform="translate(90.586 15)" fill="#00f"  font-size="12px"  text-anchor="middle"><tspan x="0" y="0">Phosphatidylserine</tspan></text></a><a class="KEGG_Compound_C00350 Metabolite ChEBI_CHEBI_64612 ChEBI_CHEBI_64674 ChEBI_CHEBI_16038   " transform="translate(363.08 339.67)" color="#00f"  name="Phosphatidylethanolamine"  ><rect class="Icon" transform="matrix(.99451 0 0 .95238 .49726 .47619)" width="181.17" height="20" rx="15" ry="15" fill="#fff" stroke="#00f"/><text class="Text" transform="translate(90.586 14)" fill="#00f"  font-size="12px"  text-anchor="middle"><tspan x="0" y="0">Phosphatidylethanolamine</tspan></text></a><a class="KEGG_Compound_C00021 Metabolite ChEBI_CHEBI_57856 ChEBI_CHEBI_16680   " transform="translate(263.59 391.35)" color="#00f"  name="SAH"  ><rect class="Icon" transform="matrix(.97163 0 0 .95238 .48582 .47619)" width="34.25" height="20" rx="15" ry="15" fill="#fff" stroke="#00f"/><text class="Text" transform="translate(17.125,14)" fill="#00f"  font-size="12px"  text-anchor="middle"><tspan x="0" y="0">SAH</tspan></text></a><a class="ChEBI_CHEBI_17361 Metabolite  " transform="translate(295,303)" color="#00f"  name="CMP"  ><rect class="Icon" transform="matrix(.98765 0 0 .95238 .49383 .47619)" width="80" height="20" rx="15" ry="15" fill="#fff" stroke="#00f"/><text class="Text" transform="translate(40,14)" fill="#00f"  font-size="12px"  text-anchor="middle"><tspan x="0" y="0">CMP</tspan></text></a><a class="CAS_1927-31-7 Metabolite ChEBI_CHEBI_16284  " transform="translate(295,113)" color="#00f"  name="ATP"  ><rect class="Icon" transform="matrix(.98765 0 0 .95238 .49383 .47619)" width="80" height="20" rx="15" ry="15" fill="#fff" stroke="#00f"/><text class="Text" transform="translate(40,14)" fill="#00f"  font-size="12px"  text-anchor="middle"><tspan x="0" y="0">ATP</tspan></text></a><a  class="GeneProduct SGPL1 " transform="translate(514.51 31.682)"   name="SGPL1"  ><rect class="Icon" transform="matrix(.98765 0 0 .95238 .49383 .47619)" width="80" height="20" fill="#fff" stroke="#000"/><text class="Text" transform="translate(40,14)"   font-size="12px"  text-anchor="middle"><tspan x="0" y="0">SGPL1</tspan></text></a><a  class="GeneProduct PTDSS1 " transform="translate(218.86 445.82)"   name="PTDSS1"  ><rect class="Icon" transform="matrix(.98765 0 0 .95238 .49383 .47619)" width="80" height="20" fill="#fff" stroke="#000"/><text class="Text" transform="translate(40,14)"   font-size="12px"  text-anchor="middle"><tspan x="0" y="0">PTDSS1</tspan></text></a><a class="Metabolite ChEBI_CHEBI_64482  " transform="translate(141.29 340.75)" color="#00f"  name="Phosphatidylcholines"  ><rect class="Icon" transform="matrix(.99314 0 0 .95238 .49657 .47619)" width="144.75" height="20" rx="15" ry="15" fill="#fff" stroke="#00f"/><text class="Text" transform="translate(72.375,14)" fill="#00f"  font-size="12px"  text-anchor="middle"><tspan x="0" y="0">Phosphatidylcholines</tspan></text></a><a class="KEGG_Compound_C00189 Metabolite ChEBI_CHEBI_16000  " transform="translate(538.25 440.22)" color="#00f"  name="Ethanolamine"  ><rect class="Icon" transform="matrix(.9896 0 0 .95238 .4948 .47619)" width="95.194" height="20" rx="15" ry="15" fill="#fff" stroke="#00f"/><text class="Text" transform="translate(47.597 14)" fill="#00f"  font-size="12px"  text-anchor="middle"><tspan x="0" y="0">Ethanolamine</tspan></text></a><a class="KEGG_Compound_C00065 Metabolite ChEBI_CHEBI_33384 ChEBI_CHEBI_17115   " transform="translate(536.76 374.03)" color="#00f"  name="L-Serine"  ><rect class="Icon" transform="matrix(.9896 0 0 .95238 .4948 .47619)" width="95.194" height="20" rx="15" ry="15" fill="#fff" stroke="#00f"/><text class="Text" transform="translate(47.597 14)" fill="#00f"  font-size="12px"  text-anchor="middle"><tspan x="0" y="0">L-Serine</tspan></text></a><a class="CAS_58-64-0 Metabolite ChEBI_CHEBI_16761  " transform="translate(296,70)" color="#00f"  name="ADP"  ><rect class="Icon" transform="matrix(.98765 0 0 .95238 .49383 .47619)" width="80" height="20" rx="15" ry="15" fill="#fff" stroke="#00f"/><text class="Text" transform="translate(40,14)" fill="#00f"  font-size="12px"  text-anchor="middle"><tspan x="0" y="0">ADP</tspan></text></a><a class="KEGG_Compound_C00307 Metabolite ChEBI_CHEBI_16436  " transform="translate(173.67 218)" color="#00f"  name="CDP-choline"  ><rect class="Icon" transform="matrix(.98765 0 0 .95238 .49383 .47619)" width="80" height="20" rx="15" ry="15" fill="#fff" stroke="#00f"/><text class="Text" transform="translate(40,14)" fill="#00f"  font-size="12px"  text-anchor="middle"><tspan x="0" y="0">CDP-choline</tspan></text></a><a class="KEGG_Compound_C00065 Metabolite ChEBI_CHEBI_33384 ChEBI_CHEBI_17115   " transform="translate(183.72 526.42)" color="#00f"  name="L-Serine"  ><rect class="Icon" transform="matrix(.98765 0 0 .95238 .49383 .47619)" width="80" height="20" rx="15" ry="15" fill="#fff" stroke="#00f"/><text class="Text" transform="translate(40,14)" fill="#00f"  font-size="12px"  text-anchor="middle"><tspan x="0" y="0">L-Serine</tspan></text></a><a  class="GeneProduct PCYT2 " transform="translate(516 169.68)"   name="PCYT2"  ><rect class="Icon" transform="matrix(.98765 0 0 .95238 .49383 .47619)" width="80" height="20" fill="#fff" stroke="#000"/><text class="Text" transform="translate(40,14)"   font-size="12px"  text-anchor="middle"><tspan x="0" y="0">PCYT2</tspan></text></a><a class="KEGG_Compound_C00114 Metabolite ChEBI_CHEBI_15354  " transform="translate(173.67 60)" color="#00f"  name="Choline"  ><rect class="Icon" transform="matrix(.98765 0 0 .95238 .49383 .47619)" width="80" height="20" rx="15" ry="15" fill="#fff" stroke="#00f"/><text class="Text" transform="translate(40,14)" fill="#00f"  font-size="12px"  text-anchor="middle"><tspan x="0" y="0">Choline</tspan></text></a><a class="KEGG_Compound_C00114 Metabolite ChEBI_CHEBI_15354  " transform="translate(280.48 525.67)" color="#00f"  name="Choline"  ><rect class="Icon" transform="matrix(.98765 0 0 .95238 .49383 .47619)" width="80" height="20" rx="15" ry="15" fill="#fff" stroke="#00f"/><text class="Text" transform="translate(40,14)" fill="#00f"  font-size="12px"  text-anchor="middle"><tspan x="0" y="0">Choline</tspan></text></a><a  class="GeneProduct CHPT1 " transform="translate(47.333 170)"   name="CHPT1"  ><rect class="Icon" transform="matrix(.98765 0 0 .95238 .49383 .47619)" width="80" height="20" fill="#fff" stroke="#000"/><text class="Text" transform="translate(40,14)"   font-size="12px"  text-anchor="middle"><tspan x="0" y="0">CHPT1</tspan></text></a><a  class="GeneProduct PTDSS2 " transform="translate(528.69 408.33)"   name="PTDSS2"  ><rect class="Icon" transform="matrix(.98765 0 0 .95238 .49383 .47619)" width="80" height="20" fill="#fff" stroke="#000"/><text class="Text" transform="translate(40,14)"   font-size="12px"  text-anchor="middle"><tspan x="0" y="0">PTDSS2</tspan></text></a><a class="KEGG_Compound_C00346 Metabolite ChEBI_CHEBI_17553  " transform="translate(374.19 134.17)" color="#00f"  name="O-Phosphoethanolamine"  ><rect class="Icon" transform="matrix(.99375 0 0 .95238 .49687 .47619)" width="158.96" height="20" rx="15" ry="15" fill="#fff" stroke="#00f"/><text class="Text" transform="translate(79.481 14)" fill="#00f"  font-size="12px"  text-anchor="middle"><tspan x="0" y="0">O-Phosphoethanolamine</tspan></text></a><a class="ChEBI_CHEBI_73341 Metabolite  " transform="translate(296,228)" color="#00f"  name="AAG"  ><rect class="Icon" transform="matrix(.98765 0 0 .95238 .49383 .47619)" width="80" height="20" rx="15" ry="15" fill="#fff" stroke="#00f"/><text class="Text" transform="translate(40,14)" fill="#00f"  font-size="12px"  text-anchor="middle"><tspan x="0" y="0">AAG</tspan></text></a><a class="ChEBI_CHEBI_18035 Metabolite  " transform="translate(294,257.5)" color="#00f"  name="DAG"  ><rect class="Icon" transform="matrix(.9878 0 0 .95556 .4939 .47778)" width="81" height="21.5" rx="15" ry="15" fill="#fff" stroke="#00f"/><text class="Text" transform="translate(40.5,14.75)" fill="#00f"  font-size="12px"  text-anchor="middle"><tspan x="0" y="0">DAG</tspan></text></a><a class="KEGG_Compound_C00570 Metabolite ChEBI_CHEBI_16732  " transform="translate(392.67 218.67)" color="#00f"  name="CDP-Ethanolamine"  ><rect class="Icon" transform="matrix(.99187 0 0 .95238 .49593 .47619)" width="122" height="20" rx="15" ry="15" fill="#fff" stroke="#00f"/><text class="Text" transform="translate(61,14)" fill="#00f"  font-size="12px"  text-anchor="middle"><tspan x="0" y="0">CDP-Ethanolamine</tspan></text></a><a class="CAS_2056-98-6 Metabolite ChEBI_CHEBI_16311  " transform="translate(295,150)" color="#00f"  name="CTP"  ><rect class="Icon" transform="matrix(.98765 0 0 .95238 .49383 .47619)" width="80" height="20" rx="15" ry="15" fill="#fff" stroke="#00f"/><text class="Text" transform="translate(40,14)" fill="#00f"  font-size="12px"  text-anchor="middle"><tspan x="0" y="0">CTP</tspan></text></a><g class="GroupGroup" transform="translate(508 75.333)" color="grey" ><use class="Icon" width="96" height="56" fill="transparent"  stroke="grey" stroke-dasharray="5,3" stroke-width="0" xlink:href="#c"/><a  class="GeneProduct ETNK1 " transform="translate(8,8)"   name="ETNK1"  ><rect class="Icon" transform="matrix(.98765 0 0 .95238 .49383 .47619)" width="80" height="20" fill="#fff" stroke="#000"/><text class="Text" transform="translate(40,14)"   font-size="12px"  text-anchor="middle"><tspan x="0" y="0">ETNK1</tspan></text></a><a  class="GeneProduct ETNK2 " transform="translate(8,28)"   name="ETNK2"  ><rect class="Icon" transform="matrix(.98765 0 0 .95238 .49383 .47619)" width="80" height="20" fill="#fff" stroke="#000"/><text class="Text" transform="translate(40,14)"   font-size="12px"  text-anchor="middle"><tspan x="0" y="0">ETNK2</tspan></text></a></g><g class="GroupGroup" transform="translate(37.333 256.67)" color="grey" ><use class="Icon" width="96" height="55.99999999999926" fill="transparent"  stroke="grey" stroke-dasharray="5,3" stroke-width="0" xlink:href="#c"/><a  class="GeneProduct PCYT1B " transform="translate(8,8)"   name="PCYT1B"  ><rect class="Icon" transform="matrix(.98765 0 0 .95238 .49383 .47619)" width="80" height="20" fill="#fff" stroke="#000"/><text class="Text" transform="translate(40,14)"   font-size="12px"  text-anchor="middle"><tspan x="0" y="0">PCYT1B</tspan></text></a><a  class="GeneProduct PCYT1A " transform="translate(8 28)"   name="PCYT1A"  ><rect class="Icon" transform="matrix(.98765 0 0 .95238 .49383 .47619)" width="80" height="20" fill="#fff" stroke="#000"/><text class="Text" transform="translate(40,14)"   font-size="12px"  text-anchor="middle"><tspan x="0" y="0">PCYT1A</tspan></text></a></g><g class="GroupGroup" transform="translate(39.333 75.25)" color="grey" ><use class="Icon" width="96" height="54.25" fill="transparent"  stroke="grey" stroke-dasharray="5,3" stroke-width="0" xlink:href="#c"/><a  class="GeneProduct CHKB " transform="translate(8,8)"   name="CHKB"  ><rect class="Icon" transform="matrix(.98765 0 0 .95238 .49383 .47619)" width="80" height="20" fill="#fff" stroke="#000"/><text class="Text" transform="translate(40,14)"   font-size="12px"  text-anchor="middle"><tspan x="0" y="0">CHKB</tspan></text></a><a  class="GeneProduct CHKA " transform="translate(8,26.25)"   name="CHKA"  ><rect class="Icon" transform="matrix(.98765 0 0 .95238 .49383 .47619)" width="80" height="20" fill="#fff" stroke="#000"/><text class="Text" transform="translate(40,14)"   font-size="12px"  text-anchor="middle"><tspan x="0" y="0">CHKA</tspan></text></a></g><g id="as" class="Interaction" color="#000" ><g color="#000" fill="transparent"  filter="url(#a)" stroke="#000" stroke-dasharray="85.74110589219588, 0"><path class="EdgeBody" d="m375 268.25 13-6e-14c13 6e-14 39 6e-14 52 2.4583 13 2.4583 13 7.375 13.111 9.8333 0.11111 2.4583 0.33333 2.4583 0.44444 2.4583h0.11111"   /></g></g><g id="at" class="Interaction" color="#000" ><g color="#000" fill="transparent"  filter="url(#a)" stroke="#000" stroke-dasharray="88.34936501354927, 0"><path class="EdgeBody" d="m294 268.25-13.167-6e-14c-13.167 6e-14 -39.5 6e-14 -52.667 2.7917-13.167 2.7917-13.167 8.375-13.389 11.167-0.22222 2.7917-0.66667 2.7917-0.88889 2.7917h-0.22222"   /></g></g><text class="Text" transform="translate(5,27)" dominant-baseline="central" fill="black"  font-size="12px" font-weight="bold" overflow="visible" ><tspan x="0" y="-9">Name: Kennedy pathway from sphingolipids</tspan> <tspan x="0" y="9">Organism: Homo sapiens</tspan></text></g></svg>
