<?xml version="1.0" encoding="UTF-8"?>
<!--
  WikiPathways page: https://www.wikipathways.org/index.php/Pathway:WP3969
  URL for this compressed file: https://github.com/eweitz/cachome/tree/main/data/wikipathways/WP3969.svg
  Source code for compression: https://github.com/eweitz/cachome/tree/main/src/wikipathways.py
-->
<svg class="Diagram" width="800" height="600" color="black" baseProfile="full" prefix="schema:http://schema.org/" preserveAspectRatio="xMidYMid" version="1.1" viewBox="0 0 650 527.54" vocab="http://vocabularies.wikipathways.org/wp#" xmlns="http://www.w3.org/2000/svg" xmlns:xlink="http://www.w3.org/1999/xlink"><style>svg {font-family: 'Liberation Sans', Arial, sans-serif; }</style><defs><filter id="a" x="0" y="0" width="650" height="527.54" filterUnits="userSpaceOnUse"><feColorMatrix in="SourceGraphic" values="-1   0   0 0 0                   0  -1   0 0 0                   0   0  -1 0 0                   0   0   0 1 0"/></filter><marker id="b" stroke-dasharray="99999" markerHeight="12" markerUnits="userSpaceOnUse" markerWidth="12" orient="auto" preserveAspectRatio="none" refX="12" refY="6" viewBox="0 0 12 12"><path transform="rotate(180 6 6)" d="M12 11L0 6l12-5z" fill="currentColor" stroke-width="0"/></marker><marker id="f" stroke-dasharray="99999" markerHeight="12" markerUnits="userSpaceOnUse" markerWidth="12" orient="auto" preserveAspectRatio="none" refX="12" refY="6" viewBox="0 0 12 12"><circle transform="rotate(180 6 6)" cx="6" cy="6" r="5.3" fill="none" stroke="#000"/></marker><marker id="e" stroke-dasharray="99999" markerHeight="20" markerUnits="userSpaceOnUse" markerWidth="10" orient="auto" preserveAspectRatio="none" refX="10" refY="10" viewBox="0 0 10 20"><path d="m3 0v20" fill="currentColor" stroke="currentColor"/></marker><marker id="d" stroke-dasharray="99999" markerHeight="24" markerUnits="userSpaceOnUse" markerWidth="20" orient="auto" preserveAspectRatio="none" refX="20" refY="12" viewBox="0 0 20 24"><g transform="rotate(180 10 12)" fill="none" stroke="#000"><path d="M15 12V5M15.5 5H8M0 5l8-4v8z"/></g></marker><symbol id="g" overflow="visible" preserveAspectRatio="none" viewBox="0 0 50 50"><ellipse cx="25" cy="25" rx="25" ry="25" stroke="currentColor" vector-effect="non-scaling-stroke"/></symbol><symbol id="c" preserveAspectRatio="none" viewBox="0 0 100 100"/></defs><g class="Viewport" color="black"  name="Name: H19 action Rb-E2F1 signaling and CDK-Beta-catenin activity Organism: Homo sapiens"><rect class="Icon" width="650" height="527.54" fill="#fff" stroke="#000" stroke-width="0"/><g id="h" class="DirectedInteraction" color="#000" ><g color="#000" fill="transparent"  filter="url(#a)" stroke="#000" stroke-dasharray="99.3714474568469, 5.8"><path class="EdgeBody" d="m160.44 294.36 0.54216 105.17"   marker-end="url(#b)" /></g></g><g id="i" class="DirectedInteraction" color="#000" ><g color="#000" fill="transparent"  filter="url(#a)" stroke="#000" stroke-dasharray="144.2, 5.8"><path class="EdgeBody" d="m347 254h150"   marker-end="url(#b)" /></g></g><g id="j" class="DirectedInteraction" color="#000" ><g color="#000" fill="transparent"  filter="url(#a)" stroke="#000" stroke-dasharray="95.62989523679087, 5.8"><path class="EdgeBody" d="m183.48 424.53 87.518 51.27"   marker-end="url(#b)" /></g></g><g id="k" class="DirectedInteraction" color="#000" ><g color="#000" fill="transparent"  filter="url(#a)" stroke="#000" stroke-dasharray="46.599999936942204, 5.8"><path class="EdgeBody" d="m83.577 251.19 46.363 24.419"   marker-end="url(#b)" /></g></g><g id="l" class="DirectedInteraction" color="#000" ><g color="#000" fill="transparent"  filter="url(#a)" stroke="#000" stroke-dasharray="51.335479651908386, 5.8"><path class="EdgeBody" d="m83.577 251.19 52.348-22.893"   marker-end="url(#b)" /></g><g class="Burr Anchor" transform="translate(108.63 240.24)" ><use class="Icon" width="0" height="0" fill="#141414" stroke-width="0" xlink:href="#c"/></g></g><g id="m" class="DirectedInteraction" color="#000" ><g color="#000" fill="transparent"  filter="url(#a)" stroke="#000" stroke-dasharray="71.2537264702023, 5.8"><path class="EdgeBody" d="m316.5 392.5-0.5 77.052"   marker-end="url(#b)" /></g></g><g id="n" class="DirectedInteraction" color="#000" ><g color="#000" fill="transparent"  filter="url(#a)" stroke="#000" stroke-dasharray="54.2, 5.8"><path class="EdgeBody" d="m316.5 266.5v60"   marker-end="url(#b)" /></g></g><g id="o" class="DirectedInteraction" color="#000" ><g color="#000" fill="transparent"  filter="url(#a)" stroke="#000" stroke-dasharray="72.24369871656441, 5.8"><path class="EdgeBody" d="m574.5 394.5 0.502 78.042"   marker-end="url(#b)" /></g></g><g id="p" class="Interaction" color="#000" ><g color="#000" fill="transparent"  filter="url(#a)" stroke="#000" stroke-dasharray="39.400431032480725, 7"><path class="EdgeBody" d="m546.5 266.5 28 37"   marker-end="url(#e)" /></g></g><g id="q" class="Interaction" color="#000" ><g color="#000" fill="transparent"  filter="url(#a)" stroke="#000" stroke-dasharray="151.64816143948278, 11"><path class="EdgeBody" d="m175.58 144.55h-66.955v95.693"   marker-end="url(#f)" /></g></g><g id="r" class="Interaction" color="#000" ><g color="#000" fill="transparent"  filter="url(#a)" stroke="#000" stroke-dasharray="5.24, 3.15, 5.24, 3.15, 5.24, 3.15, 5.24, 3.15, 5.24, 3.15, 5.24, 3.15, 5.24, 3.15, 5.24, 3.15, 5.24, 3.15, 5.24, 3.15, 5.24, 3.15, 5.24, 3.15, 5.24, 3.15, 5.24, 3.15, 5.24, 3.15, 5.24, 3.15, 5.24, 3.15, 5.24, 3.15, 0, 11"><path class="EdgeBody" d="m378.81 144.93h-62.309v96.575"   marker-end="url(#d)" /></g></g><g id="s" class="DirectedInteraction" color="#000" ><g color="#000" fill="transparent"  filter="url(#a)" stroke="#000" stroke-dasharray="44.40956084253277, 5.8"><path class="EdgeBody" d="m513.5 266.5-35 36"   marker-end="url(#b)" /></g></g><g id="t" class="DirectedInteraction" color="#000" ><g color="#000" fill="transparent"  filter="url(#a)" stroke="#000" stroke-dasharray="137.65691463688017, 5.8"><path class="EdgeBody" d="m478.5 393.5-117.5 82.302"   marker-end="url(#b)" /></g></g><g class="Label" transform="translate(271 469.55)" color="#000"  name="CRC growth"><use class="Icon" width="90" height="25" fill="transparent"  stroke="#000" stroke-width="0" xlink:href="#c"/><text class="Text" transform="translate(45,16.5)"   font-size="12px" font-weight="bold"  text-anchor="middle"><tspan x="0" y="0">CRC growth</tspan></text></g><a class="WikiPathways_WP45 Pathway " transform="translate(115.98 399.53)" color="#14961e"  name="G1-S transition"  ><use class="Icon" width="90" height="25" fill="transparent"  stroke="#14961e" stroke-width="0" xlink:href="#c"/><text class="Text" transform="translate(45,16.5)" fill="#14961e"  font-size="12px" font-weight="bold" stroke="black" stroke-width="0" text-anchor="middle"><tspan x="0" y="0">G1-S transition</tspan></text></a><a  class="GeneProduct CTNNB1 " transform="translate(497,241.5)"   name="CTNNB1"  ><rect class="Icon" transform="matrix(.98507 0 0 .96154 .49254 .48077)" width="66" height="25" fill="#fff" stroke="#000"/><text class="Text" transform="translate(33,16.5)"   font-size="12px"  text-anchor="middle"><tspan x="0" y="0">CTNNB1</tspan></text></a><g class="GroupGroup" transform="translate(175.58 111.55)" color="grey" ><use class="Icon" width="77" height="66" fill="transparent"  stroke="grey" stroke-dasharray="5,3" stroke-width="0" xlink:href="#c"/><a  class="GeneProduct CDK4 " transform="translate(16,8)"   name="CDK4"  ><rect class="Icon" transform="matrix(.97826 0 0 .96154 .48913 .48077)" width="45" height="25" fill="#fff" stroke="#000"/><text class="Text" transform="translate(22.5,16.5)"   font-size="12px"  text-anchor="middle"><tspan x="0" y="0">CDK4</tspan></text></a><a  class="GeneProduct CCND1 " transform="translate(8,33)"   name="CCND1"  ><rect class="Icon" transform="matrix(.98387 0 0 .96154 .49194 .48077)" width="61" height="25" fill="#fff" stroke="#000"/><text class="Text" transform="translate(30.5,16.5)"   font-size="12px"  text-anchor="middle"><tspan x="0" y="0">CCND1</tspan></text></a></g><g class="GroupGroup" transform="translate(378.81 111.93)" color="grey" ><use class="Icon" width="112" height="65.99999999999997" fill="transparent"  stroke="grey" stroke-dasharray="5,3" stroke-width="0" xlink:href="#c"/><a  class="GeneProduct H2AFY " transform="translate(35,8)"   name="macroH2A"  ><rect class="Icon" transform="matrix(.98571 0 0 .96154 .49286 .48077)" width="69" height="25" fill="#fff" stroke="#000"/><text class="Text" transform="translate(34.5,16.5)"   font-size="12px"  text-anchor="middle"><tspan x="0" y="0">macroH2A</tspan></text></a><a class="Rna H19 " transform="translate(8 33)" color="#990099"  name="H19"  ><rect class="Icon" transform="matrix(.98305 0 0 .96154 .49153 .48077)" width="58" height="25" fill="#fff" stroke="#909"/><text class="Text" transform="translate(29,16.5)" fill="#990099"  font-size="12px"  text-anchor="middle"><tspan x="0" y="0">H19</tspan></text></a></g><a  class="GeneProduct E2F1 " transform="translate(129.94 269.36)"   name="E2F1"  ><rect class="Icon" transform="matrix(.98387 0 0 .96154 .49194 .48077)" width="61" height="25" fill="#fff" stroke="#000"/><text class="Text" transform="translate(30.5,16.5)"   font-size="12px"  text-anchor="middle"><tspan x="0" y="0">E2F1</tspan></text></a><a  class="GeneProduct CDK8 " transform="translate(286,241.5)"   name="CDK8"  ><rect class="Icon" transform="matrix(.98387 0 0 .96154 .49194 .48077)" width="61" height="25" fill="#fff" stroke="#000"/><text class="Text" transform="translate(30.5,16.5)"   font-size="12px"  text-anchor="middle"><tspan x="0" y="0">CDK8</tspan></text></a><g class="GroupGroup" transform="translate(261,326.5)" color="grey" ><use class="Icon" width="111" height="66" fill="transparent"  stroke="grey" stroke-dasharray="5,3" stroke-width="0" xlink:href="#c"/><a  class="GeneProduct CDK8 " transform="translate(42,8)"   name="CDK8"  ><rect class="Icon" transform="matrix(.98387 0 0 .96154 .49194 .48077)" width="61" height="25" fill="#fff" stroke="#000"/><text class="Text" transform="translate(30.5,16.5)"   font-size="12px"  text-anchor="middle"><tspan x="0" y="0">CDK8</tspan></text></a><a  class="GeneProduct MED1 " transform="translate(8,33)"   name="MED1"  ><rect class="Icon" transform="matrix(.98387 0 0 .96154 .49194 .48077)" width="61" height="25" fill="#fff" stroke="#000"/><text class="Text" transform="translate(30.5,16.5)"   font-size="12px"  text-anchor="middle"><tspan x="0" y="0">MED1</tspan></text></a></g><g class="GroupGroup" transform="translate(440,302.5)" color="grey" ><use class="Icon" width="77" height="91" fill="transparent"  stroke="grey" stroke-dasharray="5,3" stroke-width="0" xlink:href="#c"/><a  class="GeneProduct CSRP2 " transform="translate(8,8)"   name="CSRP2"  ><rect class="Icon" transform="matrix(.98387 0 0 .96154 .49194 .48077)" width="61" height="25" fill="#fff" stroke="#000"/><text class="Text" transform="translate(30.5,16.5)"   font-size="12px"  text-anchor="middle"><tspan x="0" y="0">CSRP2</tspan></text></a><a  class="GeneProduct JAG1 " transform="translate(8,33)"   name="JAG1"  ><rect class="Icon" transform="matrix(.98387 0 0 .96154 .49194 .48077)" width="61" height="25" fill="#fff" stroke="#000"/><text class="Text" transform="translate(30.5,16.5)"   font-size="12px"  text-anchor="middle"><tspan x="0" y="0">JAG1</tspan></text></a><a  class="GeneProduct SOX4 " transform="translate(8,58)"   name="SOX4"  ><rect class="Icon" transform="matrix(.98387 0 0 .96154 .49194 .48077)" width="61" height="25" fill="#fff" stroke="#000"/><text class="Text" transform="translate(30.5,16.5)"   font-size="12px"  text-anchor="middle"><tspan x="0" y="0">SOX4</tspan></text></a></g><g class="GroupGroup" transform="translate(536,303.5)" color="grey" ><use class="Icon" width="77" height="91" fill="transparent"  stroke="grey" stroke-dasharray="5,3" stroke-width="0" xlink:href="#c"/><a  class="GeneProduct CDH1 " transform="translate(8,8)"   name="CDH1"  ><rect class="Icon" transform="matrix(.98387 0 0 .96154 .49194 .48077)" width="61" height="25" fill="#fff" stroke="#000"/><text class="Text" transform="translate(30.5,16.5)"   font-size="12px"  text-anchor="middle"><tspan x="0" y="0">CDH1</tspan></text></a><a  class="GeneProduct TULP3 " transform="translate(8,33)"   name="TULP3"  ><rect class="Icon" transform="matrix(.98387 0 0 .96154 .49194 .48077)" width="61" height="25" fill="#fff" stroke="#000"/><text class="Text" transform="translate(30.5,16.5)"   font-size="12px"  text-anchor="middle"><tspan x="0" y="0">TULP3</tspan></text></a><a  class="GeneProduct PMAIP1 " transform="translate(8,58)"   name="PMAIP1"  ><rect class="Icon" transform="matrix(.98387 0 0 .96154 .49194 .48077)" width="61" height="25" fill="#fff" stroke="#000"/><text class="Text" transform="translate(30.5,16.5)"   font-size="12px"  text-anchor="middle"><tspan x="0" y="0">PMAIP1</tspan></text></a></g><a  class="GeneProduct RB1 " transform="translate(135.93 215.8)"   name="RB1"  ><rect class="Icon" transform="matrix(.97872 0 0 .96154 .48936 .48077)" width="46" height="25" fill="#fff" stroke="#000"/><g class="Burr State" transform="translate(38.5,-5.5)" color="#000"  name="P"><use class="Icon" transform="matrix(.9375 0 0 .9375 .46875 .46875)" width="15" height="15" fill="#fff" stroke="#000" xlink:href="#g"/><text class="Text" transform="translate(7.5,10.5)"   font-size="10px"  text-anchor="middle"><tspan x="0" y="0">P</tspan></text></g><text class="Text" transform="translate(23,16.5)"   font-size="12px"  text-anchor="middle"><tspan x="0" y="0">RB1</tspan></text></a><g class="Label" transform="translate(530 472.54)" color="#000"  name="CRC migration"><use class="Icon" width="90" height="25" fill="transparent"  stroke="#000" stroke-width="0" xlink:href="#c"/><text class="Text" transform="translate(45,16.5)"   font-size="12px" font-weight="bold"  text-anchor="middle"><tspan x="0" y="0">CRC migration</tspan></text></g><g id="u" class="Interaction" color="#000" ><g color="#000" fill="transparent"  filter="url(#a)" stroke="#000" stroke-dasharray="5.29, 3.17, 5.29, 3.17, 5.29, 3.17, 5.29, 3.17, 5.29, 3.17, 5.29, 3.17, 5.29, 3.17, 5.29, 3.17, 5.29, 3.17, 5.29, 3.17, 5.29, 3.17, 5.29, 3.17, 5.29, 3.17, 5.29, 11"><path class="EdgeBody" d="m378.81 144.93-126.23-0.37968"   marker-end="url(#d)" /></g></g><g class="GroupGroup" transform="translate(6.5773 218.19)" color="grey" ><use class="Icon" width="77" height="66.00000000000006" fill="transparent"  stroke="grey" stroke-dasharray="5,3" stroke-width="0" xlink:href="#c"/><a  class="GeneProduct E2F1 " transform="translate(8 33)"   name="E2F1"  ><rect class="Icon" transform="matrix(.98387 0 0 .96154 .49194 .48077)" width="61" height="25" fill="#fff" stroke="#000"/><text class="Text" transform="translate(30.5,16.5)"   font-size="12px"  text-anchor="middle"><tspan x="0" y="0">E2F1</tspan></text></a><a  class="GeneProduct RB1 " transform="translate(15.5 8)"   name="RB1"  ><rect class="Icon" transform="matrix(.97872 0 0 .96154 .48936 .48077)" width="46" height="25" fill="#fff" stroke="#000"/><text class="Text" transform="translate(23,16.5)"   font-size="12px"  text-anchor="middle"><tspan x="0" y="0">RB1</tspan></text></a></g><g id="v" class="DirectedInteraction" color="#000" ><g color="#000" fill="transparent"  filter="url(#a)" stroke="#000" stroke-dasharray="222.65630249287565, 5.8"><path class="EdgeBody" d="m574.5 394.5-213.5 81.302"   marker-end="url(#b)" /></g></g><g id="w" class="DirectedInteraction" color="#000" ><g color="#000" fill="transparent"  filter="url(#a)" stroke="#000" stroke-dasharray="118.94088282210298, 5.8"><path class="EdgeBody" d="m478.5 393.5 96.502 79.042"   marker-end="url(#b)" /></g></g><g id="x" class="DirectedInteraction" color="#000" ><g color="#000" fill="transparent"  filter="url(#a)" stroke="#000" stroke-dasharray="171.87059522192894, 5.8"><path class="EdgeBody" d="m301.25 266.5-117.77 133.03"   marker-end="url(#b)" /></g></g><text class="Text" transform="translate(5,27)" dominant-baseline="central" fill="black"  font-size="12px" font-weight="bold" overflow="visible" ><tspan x="0" y="-9">Name: H19 action Rb-E2F1 signaling and CDK-Beta-catenin activity</tspan> <tspan x="0" y="9">Organism: Homo sapiens</tspan></text></g></svg>
