<?xml version="1.0" encoding="UTF-8"?>
<!--
  WikiPathways page: https://www.wikipathways.org/index.php/Pathway:WP3982
  URL for this compressed file: https://github.com/eweitz/cachome/tree/main/data/wikipathways/WP3982.svg
  Source code for compression: https://github.com/eweitz/cachome/tree/main/src/wikipathways.py
-->
<svg class="Diagram" width="800" height="600" color="black" baseProfile="full" prefix="schema:http://schema.org/" preserveAspectRatio="xMidYMid" version="1.1" viewBox="0 0 1433 746.5" vocab="http://vocabularies.wikipathways.org/wp#" xmlns="http://www.w3.org/2000/svg" xmlns:xlink="http://www.w3.org/1999/xlink"><style>svg {font-family: 'Liberation Sans', Arial, sans-serif; }</style><defs><filter id="a" x="0" y="0" width="1433" height="746.5" filterUnits="userSpaceOnUse"><feColorMatrix in="SourceGraphic" values="-1   0   0 0 0                   0  -1   0 0 0                   0   0  -1 0 0                   0   0   0 1 0"/></filter><marker id="c" stroke-dasharray="99999" markerHeight="12" markerUnits="userSpaceOnUse" markerWidth="12" orient="auto" preserveAspectRatio="none" refX="12" refY="6" viewBox="0 0 12 12"><path transform="rotate(180 6 6)" d="M12 11L0 6l12-5z" fill="currentColor" stroke-width="0"/></marker><marker id="d" stroke-dasharray="99999" markerHeight="20" markerUnits="userSpaceOnUse" markerWidth="10" orient="auto" preserveAspectRatio="none" refX="10" refY="10" viewBox="0 0 10 20"><path d="m3 0v20" fill="currentColor" stroke="currentColor"/></marker><marker id="e" stroke-dasharray="99999" markerHeight="24" markerUnits="userSpaceOnUse" markerWidth="20" orient="auto" preserveAspectRatio="none" refX="20" refY="12" viewBox="0 0 20 24"><g transform="rotate(180 10 12)" fill="none" stroke="#000"><path d="M15 12V5M15.5 5H8M0 5l8-4v8z"/></g></marker><marker id="f" stroke-dasharray="99999" markerHeight="20" markerUnits="userSpaceOnUse" markerWidth="10" orient="auto" preserveAspectRatio="none" refX="10" refY="10" viewBox="0 0 10 20"><path d="m3 0v20" fill="currentColor" stroke="currentColor"/></marker><symbol id="g" overflow="visible" preserveAspectRatio="none" viewBox="0 0 50 50"><ellipse cx="25" cy="25" rx="25" ry="25" stroke="currentColor" vector-effect="non-scaling-stroke"/></symbol><symbol id="b" preserveAspectRatio="none" viewBox="0 0 100 100"/></defs><g class="Viewport" color="black"  name="Name: miRNA regulation of p53 pathway in prostate cancer Organism: Homo sapiens"><rect class="Icon" width="1433" height="746.5" fill="#fff" stroke="#000" stroke-width="0"/><g id="h" class="DirectedInteraction" color="#000" ><g color="#000" fill="transparent"  filter="url(#a)" stroke="#000" stroke-dasharray="72.30249675906654, 5.8"><path class="EdgeBody" d="m1078 321 76 18"   marker-end="url(#c)" /></g></g><g id="i" class="DirectedInteraction" color="#000" ><g color="#000" fill="transparent"  filter="url(#a)" stroke="#000" stroke-dasharray="478.7, 5.8"><path class="EdgeBody" d="m852 247h405v79.5"   marker-end="url(#c)" /></g></g><g id="j" class="DirectedInteraction" color="#000" ><g color="#000" fill="transparent"  filter="url(#a)" stroke="#000" stroke-dasharray="41.2, 5.8"><path class="EdgeBody" d="m478 367h47"   marker-end="url(#c)" /></g></g><g id="k" class="DirectedInteraction" color="#000" ><g color="#000" fill="transparent"  filter="url(#a)" stroke="#000" stroke-dasharray="22.2, 5.8"><path class="EdgeBody" d="m1204 339h28"   marker-end="url(#c)" /></g></g><g id="l" class="Interaction" color="#000" ><g color="#000" fill="transparent"  filter="url(#a)" stroke="#000" stroke-dasharray="73.65358020571685, 7"><path class="EdgeBody" d="m791 462-77-24"   marker-end="url(#d)" /></g></g><g id="m" class="Interaction" color="#000" ><g color="#000" fill="transparent"  filter="url(#a)" stroke="#000" stroke-dasharray="88.0013157803617, 7"><path class="EdgeBody" d="m839 139.5 0.5 95"   marker-end="url(#d)" /></g></g><g id="n" class="DirectedInteraction" color="#000" ><g color="#000" fill="transparent"  filter="url(#a)" stroke="#000" stroke-dasharray="108.49457554932343, 5.8"><path class="EdgeBody" d="m505.5 253.5-53.5 101"   marker-end="url(#c)" /></g></g><g id="o" class="Inhibition" color="#000" ><g color="#000" fill="transparent"  filter="url(#a)" stroke="#000" stroke-dasharray="111.00105931727902, 7"><path class="EdgeBody" d="m1065 190.5 0.5 118"   marker-end="url(#f)" /></g></g><g id="p" class="Interaction" color="#000" ><g color="#000" fill="transparent"  filter="url(#a)" stroke="#000" stroke-dasharray="47.05382556179678, 0"><path class="EdgeBody" d="m852 247 45 13.75"   /></g></g><g id="q" class="Interaction" color="#000" ><g color="#000" fill="transparent"  filter="url(#a)" stroke="#000" stroke-dasharray="55.00806399170998, 7"><path class="EdgeBody" d="m595 293 62 1"   marker-end="url(#d)" /></g></g><g id="r" class="Interaction" color="#000" ><g color="#000" fill="transparent"  filter="url(#a)" stroke="#000" stroke-dasharray="88.0013157803617, 7"><path class="EdgeBody" d="m695 139.5 0.5 95"   marker-end="url(#d)" /></g></g><g id="s" class="DirectedInteraction" color="#000" ><g color="#000" fill="transparent"  filter="url(#a)" stroke="#000" stroke-dasharray="92.2, 5.8"><path class="EdgeBody" d="m707 331h98"   marker-end="url(#c)" /></g></g><g id="t" class="Interaction" color="#000" ><g color="#000" fill="transparent"  filter="url(#a)" stroke="#000" stroke-dasharray="22.00107756618709, 7"><path class="EdgeBody" d="m742 683.5 0.25-29"   marker-end="url(#d)" /></g></g><g id="u" class="Interaction" color="#000" ><g color="#000" fill="transparent"  filter="url(#a)" stroke="#000" stroke-dasharray="46, 7"><path class="EdgeBody" d="m407 175.5v53"   marker-end="url(#d)" /></g></g><g id="v" class="Interaction" color="#000" ><g color="#000" fill="transparent"  filter="url(#a)" stroke="#000" stroke-dasharray="132.0314650697531, 11"><path class="EdgeBody" d="m576 367 73 123"   marker-end="url(#e)" /></g></g><g id="w" class="Interaction" color="#000" ><g color="#000" fill="transparent"  filter="url(#a)" stroke="#000" stroke-dasharray="88.54942122905152, 0"><path class="EdgeBody" d="m240 290-79 40"   /></g></g><g id="x" class="Interaction" color="#000" ><g color="#000" fill="transparent"  filter="url(#a)" stroke="#000" stroke-dasharray="73.02739212103907, 0"><path class="EdgeBody" d="m161 330 73-2"   /></g></g><g id="y" class="Interaction" color="#000" ><g color="#000" fill="transparent"  filter="url(#a)" stroke="#000" stroke-dasharray="98.31975123403967, 7"><path class="EdgeBody" d="m845 558.5-80-68.5"   marker-end="url(#d)" /></g></g><g id="z" class="Interaction" color="#000" ><g color="#000" fill="transparent"  filter="url(#a)" stroke="#000" stroke-dasharray="23.923292192132454, 7"><path class="EdgeBody" d="m804 408-12-28.5"   marker-end="url(#d)" /></g></g><g id="aa" class="DirectedInteraction" color="#000" ><g color="#000" fill="transparent"  filter="url(#a)" stroke="#000" stroke-dasharray="5.08, 3.05, 5.08, 3.05, 5.08, 3.05, 5.08, 3.05, 5.08, 3.05, 5.08, 3.05, 5.08, 3.05, 5.08, 3.05, 5.08, 3.05, 5.08, 5.8"><path class="EdgeBody" d="m158 241h84"   marker-end="url(#c)" /></g></g><g class="GroupGroup" transform="translate(22,196)" color="grey" ><use class="Icon" width="136" height="90" fill="transparent"  stroke="grey" stroke-dasharray="5,3" stroke-width="0" xlink:href="#b"/><g class="SingleFreeNode Shape" transform="translate(13,8)" color="#000" ><rect class="Icon" transform="matrix(.9913 0 0 .98667 .49565 .49333)" width="114" height="74" fill="transparent"  stroke="#000"/></g><g class="Label" transform="translate(10,9.5)" color="#000"  name="gamma-radiation"><use class="Icon" width="118" height="25" fill="transparent"  stroke="#000" stroke-width="0" xlink:href="#b"/><text class="Text" transform="translate(59,16.5)"   font-size="12px" font-weight="bold"  text-anchor="middle"><tspan x="0" y="0">gamma-radiation</tspan></text></g><g class="Label" transform="translate(8,53.5)" color="#000"  name="Genotoxic drugs"><use class="Icon" width="118" height="25" fill="transparent"  stroke="#000" stroke-width="0" xlink:href="#b"/><text class="Text" transform="translate(59,16.5)"   font-size="12px" font-weight="bold"  text-anchor="middle"><tspan x="0" y="0">Genotoxic drugs</tspan></text></g></g><g class="Label" transform="translate(45,167.5)" color="#000"  name="Stress signals"><use class="Icon" width="90" height="25" fill="transparent"  stroke="#000" stroke-width="0" xlink:href="#b"/><text class="Text" transform="translate(45,16.5)"   font-size="12px" font-weight="bold"  text-anchor="middle"><tspan x="0" y="0">Stress signals</tspan></text></g><g class="Label" transform="translate(378,408.5)" color="#000"  name="Cell cycle"><rect class="Icon" transform="matrix(.97826 0 0 .92593 .97826 .92593)" width="90" height="25" rx="15" ry="15" fill="#fff" stroke="#000" stroke-width="2"/><text class="Text" transform="translate(45,16.5)"   font-size="12px" font-weight="bold"  text-anchor="middle"><tspan x="0" y="0">Cell cycle</tspan></text></g><g class="Label" transform="translate(951,622.5)" color="#000"  name="p53 negative feedback"><use class="Icon" width="143" height="25" fill="transparent"  stroke="#000" stroke-width="0" xlink:href="#b"/><text class="Text" transform="translate(71.5,16.5)"   font-size="12px" font-weight="bold"  text-anchor="middle"><tspan x="0" y="0">p53 negative feedback</tspan></text></g><g class="Label" transform="translate(33,229.5)" color="#000"  name="UV"><use class="Icon" width="36" height="25" fill="transparent"  stroke="#000" stroke-width="0" xlink:href="#b"/><text class="Text" transform="translate(18,16.5)"   font-size="12px" font-weight="bold"  text-anchor="middle"><tspan x="0" y="0">UV</tspan></text></g><g class="GroupGroup" transform="translate(27,285)" color="grey" ><use class="Icon" width="134" height="90" fill="transparent"  stroke="grey" stroke-dasharray="5,3" stroke-width="0" xlink:href="#b"/><g class="SingleFreeNode Shape" transform="translate(9,8)" color="#000" ><rect class="Icon" transform="matrix(.99123 0 0 .98667 .49561 .49333)" width="113" height="74" fill="transparent"  stroke="#000"/></g><g class="Label" transform="translate(10,17.5)" color="#000"  name="Nutrition deprivation"><use class="Icon" width="86" height="25" fill="transparent"  stroke="#000" stroke-width="0" xlink:href="#b"/><text class="Text" transform="translate(43,16.5)"   font-size="12px" font-weight="bold"  text-anchor="middle"><tspan x="0" y="-6.6000000000000005">Nutrition</tspan> <tspan x="0" y="6.6000000000000005">deprivation</tspan></text></g><g class="Label" transform="translate(8,48.5)" color="#000"  name="Heat/Cold shock"><use class="Icon" width="118" height="25" fill="transparent"  stroke="#000" stroke-width="0" xlink:href="#b"/><text class="Text" transform="translate(59,16.5)"   font-size="12px" font-weight="bold"  text-anchor="middle"><tspan x="0" y="0">Heat/Cold shock</tspan></text></g></g><g class="Label" transform="translate(242,228.5)" color="#000"  name="DNA damage"><use class="Icon" width="90" height="25" fill="transparent"  stroke="#000" stroke-dasharray="5,3" stroke-width="0" xlink:href="#b"/><text class="Text" transform="translate(45,16.5)"   font-size="12px" font-weight="bold"  text-anchor="middle"><tspan x="0" y="0">DNA damage</tspan></text></g><g class="Label" transform="translate(240,277.5)" color="#000"  name="Hypoxia"><use class="Icon" width="66" height="25" fill="transparent"  stroke="#000" stroke-width="0" xlink:href="#b"/><text class="Text" transform="translate(33,16.5)"   font-size="12px" font-weight="bold"  text-anchor="middle"><tspan x="0" y="0">Hypoxia</tspan></text></g><a  class="GeneProduct ATM " transform="translate(382,228.5)"   name="ATM"  ><rect class="Icon" transform="matrix(.98039 0 0 .96154 .4902 .48077)" width="50" height="25" fill="#fff" stroke="#000"/><text class="Text" transform="translate(25,16.5)"   font-size="12px"  text-anchor="middle"><tspan x="0" y="0">ATM</tspan></text></a><a  class="GeneProduct CHEK2 " transform="translate(474,228.5)"   name="CHEK2"  ><rect class="Icon" transform="matrix(.98438 0 0 .96154 .49219 .48077)" width="63" height="25" fill="#fff" stroke="#000"/><g class="Burr State" transform="translate(55.5,-7.5)" color="#000"  name="P"><use class="Icon" transform="matrix(.9375 0 0 .9375 .46875 .46875)" width="15" height="15" fill="#fff" stroke="#000" xlink:href="#g"/><text class="Text" transform="translate(7.5,10.5)"   font-size="10px"  text-anchor="middle"><tspan x="0" y="0">P</tspan></text></g><text class="Text" transform="translate(31.5,16.5)"   font-size="12px"  text-anchor="middle"><tspan x="0" y="0">CHEK2</tspan></text></a><a  class="GeneProduct TP53 " transform="translate(426,354.5)"   name="TP53"  ><rect class="Icon" transform="matrix(.98113 0 0 .96154 .49057 .48077)" width="52" height="25" fill="#fff" stroke="#000"/><g class="Burr State" transform="translate(44.5,-6.5)" color="#000"  name="P"><use class="Icon" transform="matrix(.9375 0 0 .9375 .46875 .46875)" width="15" height="15" fill="#fff" stroke="#000" xlink:href="#g"/><text class="Text" transform="translate(7.5,10.5)"   font-size="10px"  text-anchor="middle"><tspan x="0" y="0">P</tspan></text></g><text class="Text" transform="translate(26,16.5)"   font-size="12px"  text-anchor="middle"><tspan x="0" y="0">TP53</tspan></text></a><a class="ChEBI_CHEBI_16991 Metabolite  " transform="translate(525,354.5)" color="#00f"  name="DNA"  ><rect class="Icon" transform="matrix(.98077 0 0 .96154 .49038 .48077)" width="51" height="25" fill="#fff" stroke="#00f"/><text class="Text" transform="translate(25.5,16.5)" fill="#00f"  font-size="12px"  text-anchor="middle"><tspan x="0" y="0">DNA</tspan></text></a><a class="Metabolite ChEBI_CHEBI_26523  " transform="translate(805,318.5)" color="#00f"  name="ROS"  ><rect class="Icon" transform="matrix(.97872 0 0 .96154 .48936 .48077)" width="46" height="25" fill="#fff" stroke="#00f"/><text class="Text" transform="translate(23,16.5)" fill="#00f"  font-size="12px"  text-anchor="middle"><tspan x="0" y="0">ROS</tspan></text></a><a class="ChEBI_CHEBI_16480 Metabolite  " transform="translate(234,315.5)" color="#00f"  name="nitric oxide"  ><rect class="Icon" transform="matrix(.9863 0 0 .96154 .49315 .48077)" width="72" height="25" fill="#fff" stroke="#00f"/><text class="Text" transform="translate(36,16.5)" fill="#00f"  font-size="12px"  text-anchor="middle"><tspan x="0" y="0">nitric oxide</tspan></text></a><g class="GroupGroup" transform="translate(368,84.5)" color="grey" ><use class="Icon" width="78" height="91" fill="transparent"  stroke="grey" stroke-dasharray="5,3" stroke-width="0" xlink:href="#b"/><a class="GeneProduct MIR4482 " transform="translate(8,8)" color="#990099"  name="MIR4482"  ><rect class="Icon" transform="matrix(.98413 0 0 .96154 .49206 .48077)" width="62" height="25" fill="#fff" stroke="#909"/><text class="Text" transform="translate(31,16.5)" fill="#990099"  font-size="12px"  text-anchor="middle"><tspan x="0" y="0">MIR4482</tspan></text></a><a class="GeneProduct MIR548C " transform="translate(8,33)" color="#990099"  name="MIR548C"  ><rect class="Icon" transform="matrix(.98413 0 0 .96154 .49206 .48077)" width="62" height="25" fill="#fff" stroke="#909"/><text class="Text" transform="translate(31,16.5)" fill="#990099"  font-size="12px"  text-anchor="middle"><tspan x="0" y="0">MIR548C</tspan></text></a><a class="GeneProduct MIR1305 " transform="translate(8,58)" color="#990099"  name="MIR1305"  ><rect class="Icon" transform="matrix(.98413 0 0 .96154 .49206 .48077)" width="62" height="25" fill="#fff" stroke="#909"/><text class="Text" transform="translate(31,16.5)" fill="#990099"  font-size="12px"  text-anchor="middle"><tspan x="0" y="0">MIR1305</tspan></text></a></g><g id="ab" class="DirectedInteraction" color="#000" ><g color="#000" fill="transparent"  filter="url(#a)" stroke="#000" stroke-dasharray="5.97, 3.58, 5.97, 3.58, 5.97, 3.58, 5.97, 3.58, 5.97, 3.58, 0, 5.8"><path class="EdgeBody" d="m332 241h50"   marker-end="url(#c)" /></g></g><g id="ac" class="DirectedInteraction" color="#000" ><g color="#000" fill="transparent"  filter="url(#a)" stroke="#000" stroke-dasharray="5.14, 3.09, 5.14, 3.09, 5.14, 3.09, 5.14, 3.09, 5.14, 3.09, 5.14, 3.09, 5.14, 3.09, 5.14, 3.09, 5.14, 3.09, 5.14, 3.09, 5.14, 3.09, 5.14, 3.09, 5.14, 3.09, 5.14, 3.09, 5.14, 3.09, 5.14, 3.09, 5.14, 5.8"><path class="EdgeBody" d="m306 290 120 77"   marker-end="url(#c)" /></g></g><g id="ad" class="DirectedInteraction" color="#000" ><g color="#000" fill="transparent"  filter="url(#a)" stroke="#000" stroke-dasharray="5.14, 3.09, 5.14, 3.09, 5.14, 3.09, 5.14, 3.09, 5.14, 3.09, 5.14, 3.09, 5.14, 3.09, 5.14, 3.09, 5.14, 3.09, 5.14, 3.09, 5.14, 3.09, 5.14, 3.09, 5.14, 3.09, 5.14, 3.09, 5.14, 3.09, 0, 5.8"><path class="EdgeBody" d="m306 328 120 39"   marker-end="url(#c)" /></g></g><g id="ae" class="DirectedInteraction" color="#000" ><g color="#000" fill="transparent"  filter="url(#a)" stroke="#000" stroke-dasharray="36.2, 5.8"><path class="EdgeBody" d="m432 241h42"   marker-end="url(#c)" /></g></g><a class="GeneProduct MIR548B " transform="translate(533,280.5)" color="#990099"  name="MIR548B"  ><rect class="Icon" transform="matrix(.98413 0 0 .96154 .49206 .48077)" width="62" height="25" fill="#fff" stroke="#909"/><text class="Text" transform="translate(31,16.5)" fill="#990099"  font-size="12px"  text-anchor="middle"><tspan x="0" y="0">MIR548B</tspan></text></a><g class="GroupGroup" transform="translate(656,613.5)" color="grey" ><use class="Icon" width="115" height="41" fill="transparent"  stroke="grey" stroke-dasharray="5,3" stroke-width="0" xlink:href="#b"/><a  class="GeneProduct MDM2 " transform="translate(8,8)"   name="MDM2"  ><rect class="Icon" transform="matrix(.98039 0 0 .96154 .4902 .48077)" width="50" height="25" fill="#fff" stroke="#000"/><text class="Text" transform="translate(25,16.5)"   font-size="12px"  text-anchor="middle"><tspan x="0" y="0">MDM2</tspan></text></a><a  class="GeneProduct SIAH1 " transform="translate(57,8)"   name="SIAH1"  ><rect class="Icon" transform="matrix(.98039 0 0 .96154 .4902 .48077)" width="50" height="25" fill="#fff" stroke="#000"/><text class="Text" transform="translate(25,16.5)"   font-size="12px"  text-anchor="middle"><tspan x="0" y="0">SIAH1</tspan></text></a></g><a  class="GeneProduct PTEN " transform="translate(659,535.5)"   name="PTEN"  ><rect class="Icon" transform="matrix(.98039 0 0 .96154 .4902 .48077)" width="50" height="25" fill="#fff" stroke="#000"/><text class="Text" transform="translate(25,16.5)"   font-size="12px"  text-anchor="middle"><tspan x="0" y="0">PTEN</tspan></text></a><g class="GroupGroup" transform="translate(649,469.5)" color="grey" ><use class="Icon" width="116" height="41" fill="transparent"  stroke="grey" stroke-dasharray="5,3" stroke-width="0" xlink:href="#b"/><a  class="GeneProduct DDB2 " transform="translate(8,8)"   name="P48"  ><rect class="Icon" transform="matrix(.98039 0 0 .96154 .4902 .48077)" width="50" height="25" fill="#fff" stroke="#000"/><text class="Text" transform="translate(25,16.5)"   font-size="12px"  text-anchor="middle"><tspan x="0" y="0">P48</tspan></text></a><a  class="GeneProduct SESN3 " transform="translate(58,8)"   name="SESN3"  ><rect class="Icon" transform="matrix(.98039 0 0 .96154 .4902 .48077)" width="50" height="25" fill="#fff" stroke="#000"/><text class="Text" transform="translate(25,16.5)"   font-size="12px"  text-anchor="middle"><tspan x="0" y="0">SESN3</tspan></text></a></g><a  class="GeneProduct SERPINE1 " transform="translate(655,425.5)"   name="SERPINE1"  ><rect class="Icon" transform="matrix(.98333 0 0 .96154 .49167 .48077)" width="59" height="25" fill="#fff" stroke="#000"/><text class="Text" transform="translate(29.5,16.5)"   font-size="12px"  text-anchor="middle"><tspan x="0" y="0">SERPINE1</tspan></text></a><g class="GroupGroup" transform="translate(649,346.5)" color="grey" ><use class="Icon" width="232" height="41" fill="transparent"  stroke="grey" stroke-dasharray="5,3" stroke-width="0" xlink:href="#b"/><a  class="GeneProduct SHISA5 " transform="translate(8,8)"   name="Scotin"  ><rect class="Icon" transform="matrix(.98039 0 0 .96154 .4902 .48077)" width="50" height="25" fill="#fff" stroke="#000"/><text class="Text" transform="translate(25,16.5)"   font-size="12px"  text-anchor="middle"><tspan x="0" y="0">Scotin</tspan></text></a><a  class="GeneProduct PERP " transform="translate(64,8)"   name="PERP"  ><rect class="Icon" transform="matrix(.98039 0 0 .96154 .4902 .48077)" width="50" height="25" fill="#fff" stroke="#000"/><text class="Text" transform="translate(25,16.5)"   font-size="12px"  text-anchor="middle"><tspan x="0" y="0">PERP</tspan></text></a><a  class="GeneProduct ZMAT3 " transform="translate(118,8)"   name="ZMAT3"  ><rect class="Icon" transform="matrix(.98039 0 0 .96154 .4902 .48077)" width="50" height="25" fill="#fff" stroke="#000"/><text class="Text" transform="translate(25,16.5)"   font-size="12px"  text-anchor="middle"><tspan x="0" y="0">ZMAT3</tspan></text></a><a  class="GeneProduct SIAH1 " transform="translate(174,8)"   name="SIAH1"  ><rect class="Icon" transform="matrix(.98039 0 0 .96154 .4902 .48077)" width="50" height="25" fill="#fff" stroke="#000"/><text class="Text" transform="translate(25,16.5)"   font-size="12px"  text-anchor="middle"><tspan x="0" y="0">SIAH1</tspan></text></a></g><g id="af" class="Interaction" color="#000" ><g color="#000" fill="transparent"  filter="url(#a)" stroke="#000" stroke-dasharray="267.7274654568509, 11"><path class="EdgeBody" d="m576 367 80 267"   marker-end="url(#e)" /></g></g><g id="ag" class="Interaction" color="#000" ><g color="#000" fill="transparent"  filter="url(#a)" stroke="#000" stroke-dasharray="188.12307751739877, 11"><path class="EdgeBody" d="m576 367 83 181"   marker-end="url(#e)" /></g></g><g id="ah" class="Interaction" color="#000" ><g color="#000" fill="transparent"  filter="url(#a)" stroke="#000" stroke-dasharray="95.21675950620975, 11"><path class="EdgeBody" d="m576 367 79 71"   marker-end="url(#e)" /></g></g><g id="ai" class="Interaction" color="#000" ><g color="#000" fill="transparent"  filter="url(#a)" stroke="#000" stroke-dasharray="62, 11"><path class="EdgeBody" d="m576 367h73"   marker-end="url(#e)" /></g></g><a  class="GeneProduct EI24 " transform="translate(657,318.5)"   name="EI24"  ><rect class="Icon" transform="matrix(.98039 0 0 .96154 .4902 .48077)" width="50" height="25" fill="#fff" stroke="#000"/><text class="Text" transform="translate(25,16.5)"   font-size="12px"  text-anchor="middle"><tspan x="0" y="0">EI24</tspan></text></a><a  class="GeneProduct BAX " transform="translate(657,281.5)"   name="BAX"  ><rect class="Icon" transform="matrix(.98039 0 0 .96154 .4902 .48077)" width="50" height="25" fill="#fff" stroke="#000"/><text class="Text" transform="translate(25,16.5)"   font-size="12px"  text-anchor="middle"><tspan x="0" y="0">BAX</tspan></text></a><a  class="GeneProduct TNFRSF10B " transform="translate(657,234.5)"   name="TNFRSF10B"  ><rect class="Icon" transform="matrix(.98718 0 0 .96154 .49359 .48077)" width="77" height="25" fill="#fff" stroke="#000"/><text class="Text" transform="translate(38.5,16.5)"   font-size="12px"  text-anchor="middle"><tspan x="0" y="0">TNFRSF10B</tspan></text></a><g id="aj" class="Interaction" color="#000" ><g color="#000" fill="transparent"  filter="url(#a)" stroke="#000" stroke-dasharray="77.63972021616495, 11"><path class="EdgeBody" d="m576 367 81-36"   marker-end="url(#e)" /></g></g><g id="ak" class="Interaction" color="#000" ><g color="#000" fill="transparent"  filter="url(#a)" stroke="#000" stroke-dasharray="98.04127658827184, 11"><path class="EdgeBody" d="m576 367 81-73"   marker-end="url(#e)" /></g></g><g id="al" class="Interaction" color="#000" ><g color="#000" fill="transparent"  filter="url(#a)" stroke="#000" stroke-dasharray="133.77914214416384, 11"><path class="EdgeBody" d="m576 367 81-120"   marker-end="url(#e)" /></g></g><a class="GeneProduct MIR548C " transform="translate(664,114.5)" color="#990099"  name="MIR548C"  ><rect class="Icon" transform="matrix(.98413 0 0 .96154 .49206 .48077)" width="62" height="25" fill="#fff" stroke="#909"/><text class="Text" transform="translate(31,16.5)" fill="#990099"  font-size="12px"  text-anchor="middle"><tspan x="0" y="0">MIR548C</tspan></text></a><a  class="GeneProduct PMAIP1 " transform="translate(713,281.5)"   name="PMAIP1"  ><rect class="Icon" transform="matrix(.98039 0 0 .96154 .4902 .48077)" width="50" height="25" fill="#fff" stroke="#000"/><text class="Text" transform="translate(25,16.5)"   font-size="12px"  text-anchor="middle"><tspan x="0" y="0">PMAIP1</tspan></text></a><a  class="GeneProduct BBC3 " transform="translate(770,281.5)"   name="BBC3"  ><rect class="Icon" transform="matrix(.98039 0 0 .96154 .4902 .48077)" width="50" height="25" fill="#fff" stroke="#000"/><text class="Text" transform="translate(25,16.5)"   font-size="12px"  text-anchor="middle"><tspan x="0" y="0">BBC3</tspan></text></a><g id="am" class="Interaction" color="#000" ><g color="#000" fill="transparent"  filter="url(#a)" stroke="#000" stroke-dasharray="137.6383420812061, 7"><path class="EdgeBody" d="m710.5 139.5 27.5 142"   marker-end="url(#d)" /></g></g><a class="GeneProduct MIR1305 " transform="translate(736,114.5)" color="#990099"  name="MIR1305"  ><rect class="Icon" transform="matrix(.98246 0 0 .96154 .49123 .48077)" width="56" height="25" fill="#fff" stroke="#909"/><text class="Text" transform="translate(28,16.5)" fill="#990099"  font-size="12px"  text-anchor="middle"><tspan x="0" y="0">MIR1305</tspan></text></a><g id="an" class="Interaction" color="#000" ><g color="#000" fill="transparent"  filter="url(#a)" stroke="#000" stroke-dasharray="137.3606594609487, 7"><path class="EdgeBody" d="m764 139.5-26 142"   marker-end="url(#d)" /></g></g><a  class="GeneProduct CASP8 " transform="translate(802,234.5)"   name="CASP8"  ><rect class="Icon" transform="matrix(.98039 0 0 .96154 .4902 .48077)" width="50" height="25" fill="#fff" stroke="#000"/><text class="Text" transform="translate(25,16.5)"   font-size="12px"  text-anchor="middle"><tspan x="0" y="0">CASP8</tspan></text></a><g id="ao" class="DirectedInteraction" color="#000" ><g color="#000" fill="transparent"  filter="url(#a)" stroke="#000" stroke-dasharray="5.1, 3.06, 5.1, 3.06, 5.1, 3.06, 5.1, 3.06, 5.1, 3.06, 5.1, 3.06, 5.1, 3.06, 5.1, 5.8"><path class="EdgeBody" d="m734 247h68"   marker-end="url(#c)" /></g></g><g id="ap" class="Interaction" color="#000" ><g color="#000" fill="transparent"  filter="url(#a)" stroke="#000" stroke-dasharray="152.21055241409096, 7"><path class="EdgeBody" d="m710.5 139.5 72 142"   marker-end="url(#d)" /></g></g><a class="GeneProduct MIR27B " transform="translate(797,114.5)" color="#990099"  name="MIR27B"  ><rect class="Icon" transform="matrix(.98246 0 0 .96154 .49123 .48077)" width="56" height="25" fill="#fff" stroke="#909"/><text class="Text" transform="translate(28,16.5)" fill="#990099"  font-size="12px"  text-anchor="middle"><tspan x="0" y="0">MIR27B</tspan></text></a><g id="aq" class="Interaction" color="#000" ><g color="#000" fill="transparent"  filter="url(#a)" stroke="#000" stroke-dasharray="137.83179899455783, 7"><path class="EdgeBody" d="m811 139.5-28.5 142"   marker-end="url(#d)" /></g></g><a class="GeneProduct MIR4491 " transform="translate(791,449.5)" color="#990099"  name="MIR4491"  ><rect class="Icon" transform="matrix(.98413 0 0 .96154 .49206 .48077)" width="62" height="25" fill="#fff" stroke="#909"/><text class="Text" transform="translate(31,16.5)" fill="#990099"  font-size="12px"  text-anchor="middle"><tspan x="0" y="0">MIR4491</tspan></text></a><g class="GroupGroup" transform="translate(672,683.5)" color="grey" ><use class="Icon" width="140" height="41" fill="transparent"  stroke="grey" stroke-dasharray="5,3" stroke-width="0" xlink:href="#b"/><a class="GeneProduct MIR548C " transform="translate(8,8)" color="#990099"  name="MIR548C"  ><rect class="Icon" transform="matrix(.98413 0 0 .96154 .49206 .48077)" width="62" height="25" fill="#fff" stroke="#909"/><text class="Text" transform="translate(31,16.5)" fill="#990099"  font-size="12px"  text-anchor="middle"><tspan x="0" y="0">MIR548C</tspan></text></a><a class="GeneProduct MIR1305 " transform="translate(70,8)" color="#990099"  name="MIR1305"  ><rect class="Icon" transform="matrix(.98413 0 0 .96154 .49206 .48077)" width="62" height="25" fill="#fff" stroke="#909"/><text class="Text" transform="translate(31,16.5)" fill="#990099"  font-size="12px"  text-anchor="middle"><tspan x="0" y="0">MIR1305</tspan></text></a></g><a  class="GeneProduct BID " transform="translate(897,254.5)"   name="BID"  ><rect class="Icon" transform="matrix(.98039 0 0 .96154 .4902 .48077)" width="50" height="25" fill="#fff" stroke="#000"/><text class="Text" transform="translate(25,16.5)"   font-size="12px"  text-anchor="middle"><tspan x="0" y="0">BID</tspan></text></a><g class="GroupGroup" transform="translate(782,558.5)" color="grey" ><use class="Icon" width="252" height="66" fill="transparent"  stroke="grey" stroke-dasharray="5,3" stroke-width="0" xlink:href="#b"/><a class="GeneProduct MIR548B " transform="translate(8,8)" color="#990099"  name="MIR548B"  ><rect class="Icon" transform="matrix(.98413 0 0 .96154 .49206 .48077)" width="62" height="25" fill="#fff" stroke="#909"/><text class="Text" transform="translate(31,16.5)" fill="#990099"  font-size="12px"  text-anchor="middle"><tspan x="0" y="0">MIR548B</tspan></text></a><a class="GeneProduct MIR27B " transform="translate(70,8)" color="#990099"  name="MIR27B"  ><rect class="Icon" transform="matrix(.98246 0 0 .96154 .49123 .48077)" width="56" height="25" fill="#fff" stroke="#909"/><text class="Text" transform="translate(28,16.5)" fill="#990099"  font-size="12px"  text-anchor="middle"><tspan x="0" y="0">MIR27B</tspan></text></a><a class="GeneProduct MIR320A " transform="translate(126,8)" color="#990099"  name="MIR320A"  ><rect class="Icon" transform="matrix(.98246 0 0 .96154 .49123 .48077)" width="56" height="25" fill="#fff" stroke="#909"/><text class="Text" transform="translate(28,16.5)" fill="#990099"  font-size="12px"  text-anchor="middle"><tspan x="0" y="0">MIR320A</tspan></text></a><a class="GeneProduct MIR182 " transform="translate(70,33)" color="#990099"  name="MIR182"  ><rect class="Icon" transform="matrix(.98246 0 0 .96154 .49123 .48077)" width="56" height="25" fill="#fff" stroke="#909"/><text class="Text" transform="translate(28,16.5)" fill="#990099"  font-size="12px"  text-anchor="middle"><tspan x="0" y="0">MIR182</tspan></text></a><a class="GeneProduct MIR4482 " transform="translate(182,8)" color="#990099"  name="MIR4482"  ><rect class="Icon" transform="matrix(.98413 0 0 .96154 .49206 .48077)" width="62" height="25" fill="#fff" stroke="#909"/><text class="Text" transform="translate(31,16.5)" fill="#990099"  font-size="12px"  text-anchor="middle"><tspan x="0" y="0">MIR4482</tspan></text></a><a class="GeneProduct MIR548C " transform="translate(8,33)" color="#990099"  name="MIR548C"  ><rect class="Icon" transform="matrix(.98413 0 0 .96154 .49206 .48077)" width="62" height="25" fill="#fff" stroke="#909"/><text class="Text" transform="translate(31,16.5)" fill="#990099"  font-size="12px"  text-anchor="middle"><tspan x="0" y="0">MIR548C</tspan></text></a><a class="miRBase_mature_sequence_MIMAT0004490 GeneProduct " transform="translate(126,33)" color="#990099"  name="MIR19a"  ><rect class="Icon" transform="matrix(.98246 0 0 .96154 .49123 .48077)" width="56" height="25" fill="#fff" stroke="#909"/><text class="Text" transform="translate(28,16.5)" fill="#990099"  font-size="12px"  text-anchor="middle"><tspan x="0" y="0">MIR19a</tspan></text></a><a class="GeneProduct MIR1305 " transform="translate(182,33)" color="#990099"  name="MIR1305"  ><rect class="Icon" transform="matrix(.98413 0 0 .96154 .49206 .48077)" width="62" height="25" fill="#fff" stroke="#909"/><text class="Text" transform="translate(31,16.5)" fill="#990099"  font-size="12px"  text-anchor="middle"><tspan x="0" y="0">MIR1305</tspan></text></a></g><g id="ar" class="Interaction" color="#000" ><g color="#000" fill="transparent"  filter="url(#a)" stroke="#000" stroke-dasharray="77.97793831342344, 7"><path class="EdgeBody" d="m782 591.5-73-43.5"   marker-end="url(#d)" /></g></g><g id="as" class="DirectedInteraction" color="#000" ><g color="#000" fill="transparent"  filter="url(#a)" stroke="#000" stroke-dasharray="5.03, 3.02, 5.03, 3.02, 5.03, 3.02, 5.03, 3.02, 5.03, 3.02, 5.03, 3.02, 5.03, 3.02, 5.03, 3.02, 5.03, 3.02, 5.03, 3.02, 5.03, 3.02, 5.03, 3.02, 5.03, 3.02, 5.03, 3.02, 5.03, 3.02, 5.03, 3.02, 5.03, 3.02, 5.03, 3.02, 5.03, 3.02, 5.03, 3.02, 5.03, 3.02, 5.03, 3.02, 0, 5.8"><path class="EdgeBody" d="m771 634 180 1"   marker-end="url(#c)" /></g></g><g class="Label" transform="translate(1052,534.5)" color="#000"  name="Inhibition of  IGF-1/mTOR pathway"><use class="Icon" width="143" height="25" fill="transparent"  stroke="#000" stroke-width="0" xlink:href="#b"/><text class="Text" transform="translate(71.5,16.5)"   font-size="12px" font-weight="bold"  text-anchor="middle"><tspan x="0" y="-6.6000000000000005">Inhibition of </tspan> <tspan x="0" y="6.6000000000000005">IGF-1/mTOR pathway</tspan></text></g><g id="at" class="DirectedInteraction" color="#000" ><g color="#000" fill="transparent"  filter="url(#a)" stroke="#000" stroke-dasharray="5.06, 3.04, 5.06, 3.04, 5.06, 3.04, 5.06, 3.04, 5.06, 3.04, 5.06, 3.04, 5.06, 3.04, 5.06, 3.04, 5.06, 3.04, 5.06, 3.04, 5.06, 3.04, 5.06, 3.04, 5.06, 3.04, 5.06, 3.04, 5.06, 3.04, 5.06, 3.04, 5.06, 3.04, 5.06, 3.04, 5.06, 3.04, 5.06, 3.04, 5.06, 3.04, 5.06, 3.04, 5.06, 3.04, 5.06, 3.04, 5.06, 3.04, 5.06, 3.04, 5.06, 3.04, 5.06, 3.04, 5.06, 3.04, 5.06, 3.04, 5.06, 3.04, 5.06, 3.04, 5.06, 3.04, 5.06, 3.04, 5.06, 3.04, 5.06, 3.04, 5.06, 3.04, 5.06, 3.04, 5.06, 3.04, 5.06, 3.04, 5.06, 3.04, 5.06, 3.04, 0, 5.8"><path class="EdgeBody" d="m709 548 343-1"   marker-end="url(#c)" /></g></g><g class="Label" transform="translate(932,478.5)" color="#000"  name="DNA repair and damage prevention"><use class="Icon" width="143" height="25" fill="transparent"  stroke="#000" stroke-width="0" xlink:href="#b"/><text class="Text" transform="translate(71.5,16.5)"   font-size="12px" font-weight="bold"  text-anchor="middle"><tspan x="0" y="-6.6000000000000005">DNA repair and</tspan> <tspan x="0" y="6.6000000000000005">damage prevention</tspan></text></g><g id="au" class="DirectedInteraction" color="#000" ><g color="#000" fill="transparent"  filter="url(#a)" stroke="#000" stroke-dasharray="5.13, 3.08, 5.13, 3.08, 5.13, 3.08, 5.13, 3.08, 5.13, 3.08, 5.13, 3.08, 5.13, 3.08, 5.13, 3.08, 5.13, 3.08, 5.13, 3.08, 5.13, 3.08, 5.13, 3.08, 5.13, 3.08, 5.13, 3.08, 5.13, 3.08, 5.13, 3.08, 5.13, 3.08, 5.13, 3.08, 5.13, 3.08, 5.13, 3.08, 0, 5.8"><path class="EdgeBody" d="m765 490 167 1"   marker-end="url(#c)" /></g></g><g class="Label" transform="translate(924,426.5)" color="#000"  name="Inhibition of angiogenesis and metastasis"><use class="Icon" width="164" height="25" fill="transparent"  stroke="#000" stroke-width="0" xlink:href="#b"/><text class="Text" transform="translate(82,16.5)"   font-size="12px" font-weight="bold"  text-anchor="middle"><tspan x="0" y="-6.6000000000000005">Inhibition of angiogenesis</tspan> <tspan x="0" y="6.6000000000000005">and metastasis</tspan></text></g><g id="av" class="DirectedInteraction" color="#000" ><g color="#000" fill="transparent"  filter="url(#a)" stroke="#000" stroke-dasharray="5.18, 3.11, 5.18, 3.11, 5.18, 3.11, 5.18, 3.11, 5.18, 3.11, 5.18, 3.11, 5.18, 3.11, 5.18, 3.11, 5.18, 3.11, 5.18, 3.11, 5.18, 3.11, 5.18, 3.11, 5.18, 3.11, 5.18, 3.11, 5.18, 3.11, 5.18, 3.11, 5.18, 3.11, 5.18, 3.11, 5.18, 3.11, 5.18, 3.11, 5.18, 3.11, 5.18, 3.11, 5.18, 3.11, 5.18, 3.11, 5.18, 3.11, 0, 5.8"><path class="EdgeBody" d="m714 438 210 1"   marker-end="url(#c)" /></g></g><g class="GroupGroup" transform="translate(804,387.5)" color="grey" ><use class="Icon" width="245" height="41" fill="transparent"  stroke="grey" stroke-dasharray="5,3" stroke-width="0" xlink:href="#b"/><a class="GeneProduct MIR27B " transform="translate(8,8)" color="#990099"  name="MIR27B"  ><rect class="Icon" transform="matrix(.98246 0 0 .96154 .49123 .48077)" width="56" height="25" fill="#fff" stroke="#909"/><text class="Text" transform="translate(28,16.5)" fill="#990099"  font-size="12px"  text-anchor="middle"><tspan x="0" y="0">MIR27B</tspan></text></a><a class="GeneProduct MIR320A " transform="translate(64,8)" color="#990099"  name="MIR320A"  ><rect class="Icon" transform="matrix(.98246 0 0 .96154 .49123 .48077)" width="56" height="25" fill="#fff" stroke="#909"/><text class="Text" transform="translate(28,16.5)" fill="#990099"  font-size="12px"  text-anchor="middle"><tspan x="0" y="0">MIR320A</tspan></text></a><a class="GeneProduct MIR548C " transform="translate(120,8)" color="#990099"  name="MIR548C"  ><rect class="Icon" transform="matrix(.98333 0 0 .96154 .49167 .48077)" width="59" height="25" fill="#fff" stroke="#909"/><text class="Text" transform="translate(29.5,16.5)" fill="#990099"  font-size="12px"  text-anchor="middle"><tspan x="0" y="0">MIR548C</tspan></text></a><a class="GeneProduct MIR1305 " transform="translate(179,8)" color="#990099"  name="MIR1305"  ><rect class="Icon" transform="matrix(.98305 0 0 .96154 .49153 .48077)" width="58" height="25" fill="#fff" stroke="#909"/><text class="Text" transform="translate(29,16.5)" fill="#990099"  font-size="12px"  text-anchor="middle"><tspan x="0" y="0">MIR1305</tspan></text></a></g><a  class="GeneProduct TP53AIP1 " transform="translate(825,281.5)"   name="TP53AIP1"  ><rect class="Icon" transform="matrix(.98507 0 0 .96154 .49254 .48077)" width="66" height="25" fill="#fff" stroke="#000"/><text class="Text" transform="translate(33,16.5)"   font-size="12px"  text-anchor="middle"><tspan x="0" y="0">TP53AIP1</tspan></text></a><a  class="GeneProduct CYS1 " transform="translate(1028,308.5)"   name="CYS1"  ><rect class="Icon" transform="matrix(.98039 0 0 .96154 .4902 .48077)" width="50" height="25" fill="#fff" stroke="#000"/><text class="Text" transform="translate(25,16.5)"   font-size="12px"  text-anchor="middle"><tspan x="0" y="0">CYS1</tspan></text></a><g id="aw" class="DirectedInteraction" color="#000" ><g color="#000" fill="transparent"  filter="url(#a)" stroke="#000" stroke-dasharray="5.03, 3.02, 5.03, 3.02, 5.03, 3.02, 5.03, 3.02, 5.03, 3.02, 5.03, 3.02, 5.03, 3.02, 5.03, 3.02, 5.03, 3.02, 5.03, 3.02, 5.03, 3.02, 5.03, 3.02, 5.03, 3.02, 5.03, 3.02, 5.03, 3.02, 5.03, 3.02, 5.03, 5.8"><path class="EdgeBody" d="m891 294 137 27"   marker-end="url(#c)" /></g></g><g id="ax" class="DirectedInteraction" color="#000" ><g color="#000" fill="transparent"  filter="url(#a)" stroke="#000" stroke-dasharray="5.2, 3.12, 5.2, 3.12, 5.2, 3.12, 5.2, 3.12, 5.2, 3.12, 5.2, 3.12, 5.2, 3.12, 5.2, 3.12, 5.2, 3.12, 5.2, 3.12, 5.2, 3.12, 5.2, 3.12, 5.2, 3.12, 5.2, 3.12, 5.2, 3.12, 5.2, 3.12, 5.2, 3.12, 5.2, 3.12, 5.2, 3.12, 5.2, 3.12, 5.2, 5.8"><path class="EdgeBody" d="m851 331 177-10"   marker-end="url(#c)" /></g></g><g id="ay" class="DirectedInteraction" color="#000" ><g color="#000" fill="transparent"  filter="url(#a)" stroke="#000" stroke-dasharray="5.26, 3.15, 5.26, 3.15, 5.26, 3.15, 5.26, 3.15, 5.26, 3.15, 5.26, 3.15, 5.26, 3.15, 5.26, 3.15, 5.26, 3.15, 5.26, 3.15, 5.26, 3.15, 5.26, 3.15, 5.26, 3.15, 5.26, 3.15, 5.26, 3.15, 5.26, 3.15, 5.26, 3.15, 5.26, 5.8"><path class="EdgeBody" d="m881 367 147-46"   marker-end="url(#c)" /></g></g><g id="az" class="DirectedInteraction" color="#000" ><g color="#000" fill="transparent"  filter="url(#a)" stroke="#000" stroke-dasharray="5.01, 3.01, 5.01, 3.01, 5.01, 3.01, 5.01, 3.01, 5.01, 3.01, 5.01, 3.01, 5.01, 3.01, 5.01, 3.01, 5.01, 3.01, 5.01, 3.01, 5.01, 5.8"><path class="EdgeBody" d="m947 273.25 81 41.5"   marker-end="url(#c)" /></g></g><a  class="GeneProduct APAF1 " transform="translate(1061,341.5)"   name="APAF1"  ><rect class="Icon" transform="matrix(.98039 0 0 .96154 .4902 .48077)" width="50" height="25" fill="#fff" stroke="#000"/><text class="Text" transform="translate(25,16.5)"   font-size="12px"  text-anchor="middle"><tspan x="0" y="0">APAF1</tspan></text></a><a class="GeneProduct MIR548C " transform="translate(1024,165.5)" color="#990099"  name="MIR548C"  ><rect class="Icon" transform="matrix(.98795 0 0 .96154 .49398 .48077)" width="82" height="25" fill="#fff" stroke="#909"/><text class="Text" transform="translate(41,16.5)" fill="#990099"  font-size="12px"  text-anchor="middle"><tspan x="0" y="0">MIR548C</tspan></text></a><g id="ba" class="Inhibition" color="#000" ><g color="#000" fill="transparent"  filter="url(#a)" stroke="#000" stroke-dasharray="144.00082781230043, 7"><path class="EdgeBody" d="m1085.5 190.5 0.5 151"   marker-end="url(#f)" /></g></g><a  class="GeneProduct CASP9 " transform="translate(1154,326.5)"   name="CASP9"  ><rect class="Icon" transform="matrix(.98039 0 0 .96154 .4902 .48077)" width="50" height="25" fill="#fff" stroke="#000"/><text class="Text" transform="translate(25,16.5)"   font-size="12px"  text-anchor="middle"><tspan x="0" y="0">CASP9</tspan></text></a><a  class="GeneProduct CASP3 " transform="translate(1232,326.5)"   name="CASP3"  ><rect class="Icon" transform="matrix(.98039 0 0 .96154 .4902 .48077)" width="50" height="25" fill="#fff" stroke="#000"/><text class="Text" transform="translate(25,16.5)"   font-size="12px"  text-anchor="middle"><tspan x="0" y="0">CASP3</tspan></text></a><g class="Label" transform="translate(1171,209.5)" color="#000"  name="Apoptosis"><rect class="Icon" transform="matrix(.97826 0 0 .92593 .97826 .92593)" width="90" height="25" rx="15" ry="15" fill="#fff" stroke="#000" stroke-width="2"/><text class="Text" transform="translate(45,16.5)"   font-size="12px" font-weight="bold"  text-anchor="middle"><tspan x="0" y="0">Apoptosis</tspan></text></g><g id="bb" class="DirectedInteraction" color="#000" ><g color="#000" fill="transparent"  filter="url(#a)" stroke="#000" stroke-dasharray="39.741190146942806, 5.8"><path class="EdgeBody" d="m1111 354 43-15"   marker-end="url(#c)" /></g></g><g class="Label" transform="translate(1326,326.5)" color="#000"  name="Apoptosis"><use class="Icon" width="77" height="25" fill="transparent"  stroke="#000" stroke-width="0" xlink:href="#b"/><text class="Text" transform="translate(38.5,16.5)"   font-size="12px" font-weight="bold"  text-anchor="middle"><tspan x="0" y="0">Apoptosis</tspan></text></g><g id="bc" class="DirectedInteraction" color="#000" ><g color="#000" fill="transparent"  filter="url(#a)" stroke="#000" stroke-dasharray="5.16, 3.1, 5.16, 3.1, 5.16, 3.1, 5.16, 3.1, 5.16, 5.8"><path class="EdgeBody" d="m1282 339h44"   marker-end="url(#c)" /></g></g><text class="Text" transform="translate(5,27)" dominant-baseline="central" fill="black"  font-size="12px" font-weight="bold" overflow="visible" ><tspan x="0" y="-9">Name: miRNA regulation of p53 pathway in prostate cancer</tspan> <tspan x="0" y="9">Organism: Homo sapiens</tspan></text></g></svg>
