<?xml version="1.0" encoding="UTF-8"?>
<!--
  WikiPathways page: https://www.wikipathways.org/index.php/Pathway:WP408
  URL for this compressed file: https://github.com/eweitz/cachome/tree/main/data/wikipathways/WP408.svg
  Source code for compression: https://github.com/eweitz/cachome/tree/main/src/wikipathways.py
-->
<svg class="Diagram" width="800" height="600" color="black" baseProfile="full" prefix="schema:http://schema.org/" preserveAspectRatio="xMidYMid" version="1.1" viewBox="0 0 653.33 839.33" vocab="http://vocabularies.wikipathways.org/wp#" xmlns="http://www.w3.org/2000/svg" xmlns:xlink="http://www.w3.org/1999/xlink"><style>svg {font-family: 'Liberation Sans', Arial, sans-serif; }</style><defs><filter id="i" x="0" y="0" width="653.33" height="839.33" filterUnits="userSpaceOnUse"><feColorMatrix in="SourceGraphic" values="-1   0   0 0 0                   0  -1   0 0 0                   0   0  -1 0 1                   0   0   0 1 0"/></filter><filter id="h" x="0" y="0" width="653.33" height="839.33" filterUnits="userSpaceOnUse"><feColorMatrix in="SourceGraphic" values="-1   0   0 0 0                   0  -1   0 0 0.5019607843137255                   0   0  -1 0 0                   0   0   0 1 0"/></filter><filter id="c" x="0" y="0" width="653.33" height="839.33" filterUnits="userSpaceOnUse"><feColorMatrix in="SourceGraphic" values="-1   0   0 0 0                   0  -1   0 0 0                   0   0  -1 0 0                   0   0   0 1 0"/></filter><filter id="f" x="0" y="0" width="653.33" height="839.33" filterUnits="userSpaceOnUse"><feColorMatrix in="SourceGraphic" values="-1   0   0 0 1                   0  -1   0 0 0                   0   0  -1 0 0                   0   0   0 1 0"/></filter><filter id="e" x="0" y="0" width="653.33" height="839.33" filterUnits="userSpaceOnUse"><feColorMatrix in="SourceGraphic" values="-1   0   0 0 0.8                   0  -1   0 0 0                   0   0  -1 0 0                   0   0   0 1 0"/></filter><filter id="j" x="0" y="0" width="653.33" height="839.33" filterUnits="userSpaceOnUse"><feColorMatrix in="SourceGraphic" values="-1   0   0 0 0                   0  -1   0 0 0                   0   0  -1 0 0.8                   0   0   0 1 0"/></filter><marker id="a" stroke-dasharray="99999" markerHeight="12" markerUnits="userSpaceOnUse" markerWidth="12" orient="auto" preserveAspectRatio="none" refX="12" refY="6" viewBox="0 0 12 12"><path transform="rotate(180 6 6)" d="M12 11L0 6l12-5z" fill="currentColor" stroke-width="0"/></marker><marker id="g" stroke-dasharray="99999" markerHeight="20" markerUnits="userSpaceOnUse" markerWidth="10" orient="auto" preserveAspectRatio="none" refX="10" refY="10" viewBox="0 0 10 20"><path d="m3 0v20" fill="currentColor" stroke="currentColor"/></marker><symbol id="d" overflow="visible" preserveAspectRatio="none" viewBox="0 0 50 50"><ellipse cx="25" cy="25" rx="25" ry="25" stroke="currentColor" vector-effect="non-scaling-stroke"/></symbol><symbol id="b" preserveAspectRatio="none" viewBox="0 0 100 100"/></defs><g class="Viewport" color="black"  name="Name: Oxidative stress response License: CC BY 2.0 Last Modified: 2/22/2013 Organism: Homo sapiens"><rect class="Icon" width="653.33" height="839.33" fill="#fff" stroke="#000" stroke-width="0"/><g id="k" class="DirectedInteraction" color="#00f" ><g color="#00f" fill="transparent"  filter="url(#i)" stroke="#000" stroke-dasharray="202.21308719511967, 5.8"><path class="EdgeBody" d="m291 187.83 126.67 165"   marker-end="url(#a)" /></g></g><g id="l" class="DirectedInteraction" color="#000" ><g color="#000" fill="transparent"  filter="url(#c)" stroke="#000" stroke-dasharray="17.533333333333257, 5.8"><path class="EdgeBody" d="m501.33 575.67v23.333"   marker-end="url(#a)" /></g></g><g id="m" class="DirectedInteraction" color="#c00" ><g color="#c00" fill="transparent"  filter="url(#e)" stroke="#000" stroke-dasharray="149.03342303549604, 5.8"><path class="EdgeBody" d="m343.5 362.33-154.83-0.16667"   marker-end="url(#a)" /></g></g><g id="n" class="DirectedInteraction" color="#000" ><g color="#000" fill="transparent"  filter="url(#c)" stroke="#000" stroke-dasharray="86.86672306881265, 5.8"><path class="EdgeBody" d="m501.44 463-0.10224 92.667"   marker-end="url(#a)" /></g></g><g id="o" class="DirectedInteraction" color="#008000" ><g color="#008000" fill="transparent"  filter="url(#h)" stroke="#000" stroke-dasharray="70.35491198165651, 5.8"><path class="EdgeBody" d="m454.75 371.83 46.686 60.167"   marker-end="url(#a)" /></g></g><g id="p" class="DirectedInteraction" color="#000" ><g color="#000" fill="transparent"  filter="url(#c)" stroke="#000" stroke-dasharray="55.035388093152186, 5.8"><path class="EdgeBody" d="m290.5 108 0.5 60.833"   marker-end="url(#a)" /></g></g><g id="q" class="Interaction" color="#000" ><g color="#000" fill="transparent"  filter="url(#c)" stroke="#000" stroke-dasharray="325.9187627705434, 7"><path class="EdgeBody" d="m547.99 432-162.32-290.67"   marker-end="url(#g)" /></g></g><g id="r" class="DirectedInteraction" color="#00c" ><g color="#00c" fill="transparent"  filter="url(#j)" stroke="#000" stroke-dasharray="180.1660213886158, 5.8"><path class="EdgeBody" d="m291 187.83-104 154.17"   marker-end="url(#a)" /></g></g><g id="s" class="DirectedInteraction" color="#c00" ><g color="#c00" fill="transparent"  filter="url(#e)" stroke="#000" stroke-dasharray="30.034883687391694, 5.8"><path class="EdgeBody" d="m168 398 0.33333-35.833"   marker-end="url(#a)" /></g></g><g id="t" class="DirectedInteraction" color="#c00" ><g color="#c00" fill="transparent"  filter="url(#e)" stroke="#000" stroke-dasharray="164.45707686384787, 5.8"><path class="EdgeBody" d="m188.67 381.17 78.333 151.17"   marker-end="url(#a)" /></g></g><g id="u" class="DirectedInteraction" color="#f00" ><g color="#f00" fill="transparent"  filter="url(#f)" stroke="#000" stroke-dasharray="5.18, 3.11, 5.18, 3.11, 5.18, 3.11, 5.18, 3.11, 5.18, 3.11, 5.18, 3.11, 5.18, 3.11, 5.18, 3.11, 5.18, 3.11, 5.18, 3.11, 5.18, 3.11, 5.18, 3.11, 5.18, 5.8"><path class="EdgeBody" d="m248 588.33-56.333 95"   marker-end="url(#a)" /></g></g><g id="v" class="DirectedInteraction" color="#f00" ><g color="#f00" fill="transparent"  filter="url(#f)" stroke="#000" stroke-dasharray="109.77200737587306, 5.8"><path class="EdgeBody" d="m75 598.67 78.667 84.667"   marker-end="url(#a)" /></g></g><g id="w" class="DirectedInteraction" color="#c00" ><g color="#c00" fill="transparent"  filter="url(#e)" stroke="#000" stroke-dasharray="153.42074965649184, 5.8"><path class="EdgeBody" d="m148 381.17-73 141.5"   marker-end="url(#a)" /></g></g><g id="x" class="DirectedInteraction" color="#f00" ><g color="#f00" fill="transparent"  filter="url(#f)" stroke="#000" stroke-dasharray="5.06, 3.03, 5.06, 3.03, 5.06, 3.03, 5.06, 3.03, 5.06, 3.03, 5.06, 3.03, 5.06, 3.03, 5.06, 3.03, 5.06, 3.03, 5.06, 3.03, 5.06, 3.03, 5.06, 3.03, 5.06, 3.03, 5.06, 5.8"><path class="EdgeBody" d="m229 560.33-116 0.33333"   marker-end="url(#a)" /></g></g><a class="ChEBI_CHEBI_26523 Metabolite  " transform="translate(191.33 168.83)" color="#00f"  name="Reactive Oxygen Species"  ><rect class="Icon" transform="matrix(.99501 0 0 .95 .4975 .475)" width="199.33" height="19" fill="#fff" stroke="#00f"/><text class="Text" transform="translate(99.667 13.5)" fill="#00f"  font-size="12px" font-weight="bold"  text-anchor="middle"><tspan x="0" y="0">Reactive Oxygen Species</tspan></text></a><g class="Label" transform="translate(460.5 627.5)" color="#008000"  name="Repression"><use class="Icon" width="80.33333333333333" height="19" fill="transparent"  stroke="#008000" stroke-width="0" xlink:href="#b"/><text class="Text" transform="translate(40.167 13.5)" fill="#008000"  font-size="12px" font-weight="bold"  text-anchor="middle"><tspan x="0" y="0">Repression</tspan></text></g><g class="Label" transform="translate(408.33 432)" color="#008000"  name="Repression of ROS- producing systems"><use class="Icon" width="186.20448179271693" height="31" fill="transparent"  stroke="#008000" stroke-width="0" xlink:href="#b"/><text class="Text" transform="translate(93.102 19.5)" fill="#008000"  font-size="12px" font-weight="bold"  text-anchor="middle"><tspan x="0" y="-6.6000000000000005">Repression of ROS-</tspan> <tspan x="0" y="6.6000000000000005">producing systems</tspan></text></g><g class="Label" transform="translate(16 435.17)" color="#f00"  name="TF activation"><use class="Icon" width="103.33333333333333" height="19" fill="transparent"  stroke="#f00" stroke-width="0" xlink:href="#b"/><text class="Text" transform="translate(51.667 13.5)" fill="#f00"  font-size="12px" font-weight="bold" stroke="black" stroke-width="0" text-anchor="middle"><tspan x="0" y="0">TF activation</tspan></text></g><g class="Label" transform="translate(229.33 434)" color="#f00"  name="Immediate-early gene induction"><use class="Icon" width="109.33333333333333" height="26" fill="transparent"  stroke="#f00" stroke-width="0" xlink:href="#b"/><text class="Text" transform="translate(54.667 17)" fill="#f00"  font-size="12px" font-weight="bold" stroke="black" stroke-width="0" text-anchor="middle"><tspan x="0" y="-6.6000000000000005">Immediate-early</tspan> <tspan x="0" y="6.6000000000000005">gene induction</tspan></text></g><g class="Label" transform="translate(455 103.33)" color="#008000"  name="Inhibition of oxidases"><use class="Icon" width="168.33333333333326" height="16" fill="transparent"  stroke="#008000" stroke-width="0" xlink:href="#b"/><text class="Text" transform="translate(84.167 12)" fill="#008000"  font-size="12px" font-weight="bold"  text-anchor="middle"><tspan x="0" y="0">Inhibition of oxidases</tspan></text></g><g class="Label" transform="translate(502.67 494.67)" color="#008000"  name="TF inhibition"><use class="Icon" width="85.33333333333333" height="16" fill="transparent"  stroke="#008000" stroke-width="0" xlink:href="#b"/><text class="Text" transform="translate(42.667 12)" fill="#008000"  font-size="12px" font-weight="bold"  text-anchor="middle"><tspan x="0" y="0">TF inhibition</tspan></text></g><g class="Label" transform="translate(343.5 352.83)" color="#660066"  name="Adaptive response"><use class="Icon" width="148.33333333333334" height="19" fill="transparent"  stroke="#660066" stroke-width="0" xlink:href="#b"/><text class="Text" transform="translate(74.167 13.5)" fill="#660066"  font-size="12px" font-weight="bold"  text-anchor="middle"><tspan x="0" y="0">Adaptive response</tspan></text></g><g class="Label" transform="translate(127.67 362.17)" color="#f00"  name="Activation"><use class="Icon" width="81.33333333333333" height="19" fill="transparent"  stroke="#f00" stroke-width="0" xlink:href="#b"/><text class="Text" transform="translate(40.667 13.5)" fill="#f00"  font-size="12px" font-weight="bold" stroke="black" stroke-width="0" text-anchor="middle"><tspan x="0" y="0">Activation</tspan></text></g><g class="Label" transform="translate(123.5,240)" color="#f00"  name="Stress-regulated  MAP kinase"><use class="Icon" width="103.5" height="40" fill="transparent"  stroke="#f00" stroke-width="0" xlink:href="#b"/><text class="Text" transform="translate(51.75,24)" fill="#f00"  font-size="12px" font-weight="bold" stroke="black" stroke-width="0" text-anchor="middle"><tspan x="0" y="-6.6000000000000005">Stress-regulated </tspan> <tspan x="0" y="6.6000000000000005">MAP kinase</tspan></text></g><g class="Label" transform="translate(118.17 529.67)" color="#f00"  name="Induction of antioxidant genes"><use class="Icon" width="100.83333333333333" height="29.333333333333332" fill="transparent"  stroke="#f00" stroke-width="0" xlink:href="#b"/><text class="Text" transform="translate(50.417 18.667)" fill="#f00"  font-size="12px" font-weight="bold" stroke="black" stroke-width="0" text-anchor="middle"><tspan x="0" y="-6.6000000000000005">Induction of</tspan> <tspan x="0" y="6.6000000000000005">antioxidant genes</tspan></text></g><a  class="GeneProduct NFIX " transform="translate(471.33 555.67)"   name="NFIX"  ><rect class="Icon" transform="matrix(.98361 0 0 .95238 .4918 .47619)" width="60" height="20" fill="#fff" stroke="#000"/><text class="Text" transform="translate(30,13)"   font-size="10px"  text-anchor="middle"><tspan x="0" y="0">NFIX</tspan></text></a><a  class="GeneProduct NOX1 " transform="translate(187.5 32.215)"   name="NOX1"  ><rect class="Icon" transform="matrix(.98462 0 0 .95349 .49231 .47674)" width="64" height="20.5" fill="#fff" stroke="#000"/><text class="Text" transform="translate(32,14.25)"   font-size="12px"  text-anchor="middle"><tspan x="0" y="0">NOX1</tspan></text></a><a  class="GeneProduct CYP1A1 " transform="translate(471.33 599)"   name="CYP1A1"  ><rect class="Icon" transform="matrix(.98361 0 0 .95238 .4918 .47619)" width="60" height="20" fill="#fff" stroke="#000"/><text class="Text" transform="translate(30,13)"   font-size="10px"  text-anchor="middle"><tspan x="0" y="0">CYP1A1</tspan></text></a><a  class="GeneProduct NOX4 " transform="translate(262,87)"   name="NOX4"  ><rect class="Icon" transform="matrix(.98276 0 0 .95455 .49138 .47727)" width="57" height="21" fill="#fff" stroke="#000"/><text class="Text" transform="translate(28.5,13.5)"   font-size="10px"  text-anchor="middle"><tspan x="0" y="0">NOX4</tspan></text></a><g class="GroupGroup" transform="translate(43.333 681.33)" color="grey" ><use class="Icon" width="76" height="136" fill="transparent"  stroke="grey" stroke-dasharray="5,3" stroke-width="0" xlink:href="#b"/><a  class="GeneProduct MT1X " transform="translate(8,108)"   name="MT1X"  ><rect class="Icon" transform="matrix(.98361 0 0 .95238 .4918 .47619)" width="60" height="20" fill="#fff" stroke="#000"/><text class="Text" transform="translate(30,13)"   font-size="10px"  text-anchor="middle"><tspan x="0" y="0">MT1X</tspan></text></a><a  class="GeneProduct GCLC " transform="translate(8,88)"   name="GCLC"  ><rect class="Icon" transform="matrix(.98361 0 0 .95238 .4918 .47619)" width="60" height="20" fill="#fff" stroke="#000"/><text class="Text" transform="translate(30,13)"   font-size="10px"  text-anchor="middle"><tspan x="0" y="0">GCLC</tspan></text></a><a  class="GeneProduct TXNRD2 " transform="translate(8,68)"   name="TXNRD2"  ><rect class="Icon" transform="matrix(.98361 0 0 .95238 .4918 .47619)" width="60" height="20" fill="#fff" stroke="#000"/><text class="Text" transform="translate(30,13)"   font-size="10px"  text-anchor="middle"><tspan x="0" y="0">TXNRD2</tspan></text></a><a  class="GeneProduct CAT " transform="translate(8,8)"   name="CAT"  ><rect class="Icon" transform="matrix(.98361 0 0 .95238 .4918 .47619)" width="60" height="20" fill="#fff" stroke="#000"/><text class="Text" transform="translate(30,13)"   font-size="10px"  text-anchor="middle"><tspan x="0" y="0">CAT</tspan></text></a><a  class="GeneProduct TXNRD1 " transform="translate(8,48)"   name="TXNRD1"  ><rect class="Icon" transform="matrix(.98361 0 0 .95238 .4918 .47619)" width="60" height="20" fill="#fff" stroke="#000"/><text class="Text" transform="translate(30,13)"   font-size="10px"  text-anchor="middle"><tspan x="0" y="0">TXNRD1</tspan></text></a><g class="GeneProduct TXN2 " transform="translate(8,28)" color="#000"  name="TXN2"><rect class="Icon" transform="matrix(.98361 0 0 .95238 .4918 .47619)" width="60" height="20" fill="#fff" stroke="#000"/><text class="Text" transform="translate(30,13)"   font-size="10px"  text-anchor="middle"><tspan x="0" y="0">TXN2</tspan></text></g></g><g class="GroupNone" transform="translate(346.67 84.333)" color="grey" ><rect class="Icon" transform="matrix(.98734 0 0 .98305 .49367 .49153)" width="78" height="58" fill="#b4b464" fill-opacity=".1" stroke="grey" stroke-dasharray="5,3"/><a  class="GeneProduct XDH " transform="translate(9,9)"   name="XDH"  ><rect class="Icon" transform="matrix(.98361 0 0 .95238 .4918 .47619)" width="60" height="20" fill="#fff" stroke="#000"/><text class="Text" transform="translate(30,13)"   font-size="10px"  text-anchor="middle"><tspan x="0" y="0">XDH</tspan></text></a><a  class="GeneProduct MAOA " transform="translate(9 29)"   name="MAOA"  ><rect class="Icon" transform="matrix(.98361 0 0 .95238 .4918 .47619)" width="60" height="20" fill="#fff" stroke="#000"/><text class="Text" transform="translate(30,13)"   font-size="10px"  text-anchor="middle"><tspan x="0" y="0">MAOA</tspan></text></a></g><g class="GroupGroup" transform="translate(225.33 681)" color="grey" ><use class="Icon" width="76" height="134.33333333333337" fill="transparent"  stroke="grey" stroke-dasharray="5,3" stroke-width="0" xlink:href="#b"/><a  class="GeneProduct MGST1 " transform="translate(8 46.333)"   name="MGST1"  ><rect class="Icon" transform="matrix(.98361 0 0 .95238 .4918 .47619)" width="60" height="20" fill="#fff" stroke="#000"/><text class="Text" transform="translate(30,13)"   font-size="10px"  text-anchor="middle"><tspan x="0" y="0">MGST1</tspan></text></a><a  class="GeneProduct SOD2 " transform="translate(8 86.333)"   name="SOD2"  ><rect class="Icon" transform="matrix(.98361 0 0 .95238 .4918 .47619)" width="60" height="20" fill="#fff" stroke="#000"/><text class="Text" transform="translate(30,13)"   font-size="10px"  text-anchor="middle"><tspan x="0" y="0">SOD2</tspan></text></a><a  class="GeneProduct GSTT2 " transform="translate(8 26.333)"   name="GSTT2"  ><rect class="Icon" transform="matrix(.98361 0 0 .95238 .4918 .47619)" width="60" height="20" fill="#fff" stroke="#000"/><text class="Text" transform="translate(30,13)"   font-size="10px"  text-anchor="middle"><tspan x="0" y="0">GSTT2</tspan></text></a><a  class="GeneProduct SOD3 " transform="translate(8 106.33)"   name="SOD3"  ><rect class="Icon" transform="matrix(.98361 0 0 .95238 .4918 .47619)" width="60" height="20" fill="#fff" stroke="#000"/><text class="Text" transform="translate(30,13)"   font-size="10px"  text-anchor="middle"><tspan x="0" y="0">SOD3</tspan></text></a><a  class="GeneProduct GSR " transform="translate(8,8)"   name="GSR"  ><rect class="Icon" transform="matrix(.98361 0 0 .94828 .4918 .47414)" width="60" height="18.333" fill="#fff" stroke="#000"/><text class="Text" transform="translate(30 12.167)"   font-size="10px"  text-anchor="middle"><tspan x="0" y="0">GSR</tspan></text></a><a  class="GeneProduct SOD1 " transform="translate(8 66.333)"   name="SOD1"  ><rect class="Icon" transform="matrix(.98361 0 0 .95238 .4918 .47619)" width="60" height="20" fill="#fff" stroke="#000"/><text class="Text" transform="translate(30,13)"   font-size="10px"  text-anchor="middle"><tspan x="0" y="0">SOD1</tspan></text></a></g><g class="GroupGroup" transform="translate(134.67 683.33)" color="grey" ><use class="Icon" width="76" height="118.66666666666674" fill="transparent"  stroke="grey" stroke-dasharray="5,3" stroke-width="0" xlink:href="#b"/><a  class="GeneProduct HMOX1 " transform="translate(8,8)"   name="HMOX1"  ><rect class="Icon" transform="matrix(.98361 0 0 .95238 .4918 .47619)" width="60" height="20" fill="#fff" stroke="#000"/><g class="Burr State" transform="translate(52.5,12.5)" color="#000" ><use class="Icon" transform="matrix(.9375 0 0 .9375 .46875 .46875)" width="15" height="15" fill="#fff" stroke="#000" xlink:href="#d"/></g><text class="Text" transform="translate(30,13)"   font-size="10px"  text-anchor="middle"><tspan x="0" y="0">HMOX1</tspan></text></a><a  class="GeneProduct GPX1 " transform="translate(8,28)"   name="GPX1"  ><rect class="Icon" transform="matrix(.98361 0 0 .95238 .4918 .47619)" width="60" height="20" fill="#fff" stroke="#000"/><g class="Burr State" transform="translate(52.5,12.5)" color="#000" ><use class="Icon" transform="matrix(.9375 0 0 .9375 .46875 .46875)" width="15" height="15" fill="#fff" stroke="#000" xlink:href="#d"/></g><text class="Text" transform="translate(30,13)"   font-size="10px"  text-anchor="middle"><tspan x="0" y="0">GPX1</tspan></text></a><a  class="GeneProduct GPX3 " transform="translate(8,48)"   name="GPX3"  ><rect class="Icon" transform="matrix(.98361 0 0 .95238 .4918 .47619)" width="60" height="20" fill="#fff" stroke="#000"/><g class="Burr State" transform="translate(52.5,12.5)" color="#000" ><use class="Icon" transform="matrix(.9375 0 0 .9375 .46875 .46875)" width="15" height="15" fill="#fff" stroke="#000" xlink:href="#d"/></g><text class="Text" transform="translate(30,13)"   font-size="10px"  text-anchor="middle"><tspan x="0" y="0">GPX3</tspan></text></a><a  class="GeneProduct UGT1A6 " transform="translate(8 88)"   name="UGT1A6"  ><rect class="Icon" transform="matrix(.98361 0 0 .95775 .4918 .47887)" width="60" height="22.667" fill="#fff" stroke="#000"/><g class="Burr State" transform="translate(52.5 15.167)" color="#000" ><use class="Icon" transform="matrix(.9375 0 0 .9375 .46875 .46875)" width="15" height="15" fill="#fff" stroke="#000" xlink:href="#d"/></g><text class="Text" transform="translate(30 14.333)"   font-size="10px"  text-anchor="middle"><tspan x="0" y="0">UGT1A6</tspan></text></a><a  class="GeneProduct NQO1 " transform="translate(8,68)"   name="NQO1"  ><rect class="Icon" transform="matrix(.98361 0 0 .95238 .4918 .47619)" width="60" height="20" fill="#fff" stroke="#000"/><g class="Burr State" transform="translate(52.5,12.5)" color="#000" ><use class="Icon" transform="matrix(.9375 0 0 .9375 .46875 .46875)" width="15" height="15" fill="#fff" stroke="#000" xlink:href="#d"/></g><text class="Text" transform="translate(30,13)"   font-size="10px"  text-anchor="middle"><tspan x="0" y="0">NQO1</tspan></text></a></g><g class="GroupNone" transform="translate(129,341)" color="grey" ><rect class="Icon" transform="matrix(.98734 0 0 .98305 .49367 .49153)" width="78" height="58" fill="#b4b464" fill-opacity=".1" stroke="grey" stroke-dasharray="5,3"/><a  class="GeneProduct MAPK10 " transform="translate(9,9)"   name="MAPK10"  ><rect class="Icon" transform="matrix(.98361 0 0 .95238 .4918 .47619)" width="60" height="20" fill="#fff" stroke="#000"/><text class="Text" transform="translate(30,13)"   font-size="10px"  text-anchor="middle"><tspan x="0" y="0">MAPK10</tspan></text></a><a  class="GeneProduct MAPK14 " transform="translate(9,29)"   name="MAPK14"  ><rect class="Icon" transform="matrix(.98361 0 0 .95238 .4918 .47619)" width="60" height="20" fill="#fff" stroke="#000"/><text class="Text" transform="translate(30,13)"   font-size="10px"  text-anchor="middle"><tspan x="0" y="0">MAPK14</tspan></text></a></g><g class="GroupNone" transform="translate(228 531.33)" color="grey" ><rect class="Icon" transform="matrix(.98734 0 0 .98305 .49367 .49153)" width="78" height="58" fill="#b4b464" fill-opacity=".1" stroke="grey" stroke-dasharray="5,3"/><a  class="GeneProduct FOS " transform="translate(9,29)"   name="FOS"  ><rect class="Icon" transform="matrix(.98361 0 0 .95238 .4918 .47619)" width="60" height="20" fill="#fff" stroke="#000"/><text class="Text" transform="translate(30,13)"   font-size="10px"  text-anchor="middle"><tspan x="0" y="0">FOS</tspan></text></a><a  class="GeneProduct JUNB " transform="translate(9,9)"   name="JUNB"  ><rect class="Icon" transform="matrix(.98361 0 0 .95238 .4918 .47619)" width="60" height="20" fill="#fff" stroke="#000"/><text class="Text" transform="translate(30,13)"   font-size="10px"  text-anchor="middle"><tspan x="0" y="0">JUNB</tspan></text></a></g><g class="GroupGroup" transform="translate(37 522.67)" color="grey" ><use class="Icon" width="76" height="76.00001017252612" fill="transparent"  stroke="grey" stroke-dasharray="5,3" stroke-width="0" xlink:href="#b"/><a  class="GeneProduct SP1 " transform="translate(8 48)"   name="SP1"  ><rect class="Icon" transform="matrix(.98361 0 0 .95238 .4918 .47619)" width="60" height="20" fill="#fff" stroke="#000"/><text class="Text" transform="translate(30,13)"   font-size="10px"  text-anchor="middle"><tspan x="0" y="0">SP1</tspan></text></a><a  class="GeneProduct NFKB1 " transform="translate(8,28)"   name="NFKB1"  ><rect class="Icon" transform="matrix(.98361 0 0 .95238 .4918 .47619)" width="60" height="20" fill="#fff" stroke="#000"/><text class="Text" transform="translate(30,13)"   font-size="10px"  text-anchor="middle"><tspan x="0" y="0">NFKB1</tspan></text></a><a  class="GeneProduct NFE2L2 " transform="translate(8,8)"   name="NFE2L2"  ><rect class="Icon" transform="matrix(.98361 0 0 .95238 .4918 .47619)" width="60" height="20" fill="#fff" stroke="#000"/><text class="Text" transform="translate(30,13)"   font-size="10px"  text-anchor="middle"><tspan x="0" y="0">NFE2L2</tspan></text></a></g><g id="y" class="DirectedInteraction" color="#000" ><g color="#000" fill="transparent"  filter="url(#c)" stroke="#000" stroke-dasharray="92.78005770833052, 5.8"><path class="EdgeBody" d="m385.67 141.33-94.667 27.5"   marker-end="url(#a)" /></g></g><a  class="GeneProduct CYBB " transform="translate(187.5 52.715)"   name="CYBB"  ><rect class="Icon" transform="matrix(.98462 0 0 .95349 .49231 .47674)" width="64" height="20.5" fill="#fff" stroke="#000"/><text class="Text" transform="translate(32,14.25)"   font-size="12px"  text-anchor="middle"><tspan x="0" y="0">CYBB</tspan></text></a><a  class="GeneProduct NOX3 " transform="translate(187.5 73.215)"   name="NOX3"  ><rect class="Icon" transform="matrix(.98462 0 0 .95349 .49231 .47674)" width="64" height="20.5" fill="#fff" stroke="#000"/><text class="Text" transform="translate(32,14.25)"   font-size="12px"  text-anchor="middle"><tspan x="0" y="0">NOX3</tspan></text></a><a  class="GeneProduct NOX5 " transform="translate(187.5 93.715)"   name="NOX5"  ><rect class="Icon" transform="matrix(.98462 0 0 .95349 .49231 .47674)" width="64" height="20.5" fill="#fff" stroke="#000"/><text class="Text" transform="translate(32,14.25)"   font-size="12px"  text-anchor="middle"><tspan x="0" y="0">NOX5</tspan></text></a><g id="z" class="DirectedInteraction" color="#000" ><g color="#000" fill="transparent"  filter="url(#c)" stroke="#000" stroke-dasharray="84.17446880073156, 5.8"><path class="EdgeBody" d="m219.5 114.22 71.5 54.618"   marker-end="url(#a)" /></g></g><text class="Text" transform="translate(5,45)" dominant-baseline="central" fill="black"  font-size="12px" font-weight="bold" overflow="visible" ><tspan x="0" y="-27">Name: Oxidative stress response</tspan> <tspan x="0" y="-9">License: CC BY 2.0</tspan> <tspan x="0" y="9">Last Modified: 2/22/2013</tspan> <tspan x="0" y="27">Organism: Homo sapiens</tspan></text></g></svg>
