<?xml version="1.0" encoding="UTF-8"?>
<!--
  WikiPathways page: https://www.wikipathways.org/index.php/Pathway:WP4174
  URL for this compressed file: https://github.com/eweitz/cachome/tree/main/data/wikipathways/WP4174.svg
  Source code for compression: https://github.com/eweitz/cachome/tree/main/src/wikipathways.py
-->
<svg class="Diagram" width="800" height="600" color="black" baseProfile="full" prefix="schema:http://schema.org/" preserveAspectRatio="xMidYMid" version="1.1" viewBox="0 0 1038.6 407.74" vocab="http://vocabularies.wikipathways.org/wp#" xmlns="http://www.w3.org/2000/svg" xmlns:xlink="http://www.w3.org/1999/xlink"><style>svg {font-family: 'Liberation Sans', Arial, sans-serif; }</style><defs><filter id="a" x="0" y="0" width="1038.6" height="407.74" filterUnits="userSpaceOnUse"><feColorMatrix in="SourceGraphic" values="-1   0   0 0 0                   0  -1   0 0 0                   0   0  -1 0 0                   0   0   0 1 0"/></filter><marker id="e" stroke-dasharray="99999" markerHeight="12" markerUnits="userSpaceOnUse" markerWidth="12" orient="auto" preserveAspectRatio="none" refX="12" refY="6" viewBox="0 0 12 12"><path transform="rotate(180 6 6)" d="M12 11L0 6l12-5z" fill="currentColor" stroke-width="0"/></marker><marker id="d" stroke-dasharray="99999" markerHeight="12" markerUnits="userSpaceOnUse" markerWidth="12" orient="auto" preserveAspectRatio="none" refX="12" refY="6" viewBox="0 0 12 12"><circle transform="rotate(180 6 6)" cx="6" cy="6" r="5.3" fill="none" stroke="#000"/></marker><marker id="c" stroke-dasharray="99999" markerHeight="12" markerUnits="userSpaceOnUse" markerWidth="12" orient="auto" preserveAspectRatio="none" refX="12" refY="6" viewBox="0 0 12 12"><path transform="rotate(180 6 6)" d="M12 11L0 6l12-5z" fill="currentColor" stroke-width="0"/></marker><symbol id="b" preserveAspectRatio="none" viewBox="0 0 100 100"/></defs><g class="Viewport" color="black"  name="Name: Metabolism of tetrahydrocannabinol (THC) Organism: Homo sapiens"><rect class="Icon" width="1038.6" height="407.74" fill="#fff" stroke="#000" stroke-width="0"/><g id="f" class="Interaction" color="#000" ><g color="#000" fill="transparent"  filter="url(#a)" stroke="#000" stroke-dasharray="39.834486298663776, 5.8"><path class="EdgeBody" d="m430.7 339.76 45.634-4e-14"   marker-end="url(#c)" /></g></g><g id="g" class="Interaction" color="#000" ><g color="#000" fill="transparent"  filter="url(#a)" stroke="#000" stroke-dasharray="147.82725199259073, 5.8"><path class="EdgeBody" d="m556.41 173.63 1.5e-12 153.63"   marker-end="url(#c)" /></g></g><g id="h" class="Interaction" color="#000" ><g color="#000" fill="transparent"  filter="url(#a)" stroke="#000" stroke-dasharray="69.6210035656202, 5.8"><path class="EdgeBody" d="m365.2 249.05v-75.421"   marker-end="url(#c)" /></g><g class="Burr Anchor" transform="translate(365.2 211.92)" ><use class="Icon" width="0" height="0" fill="#141414" stroke-width="0" xlink:href="#b"/></g></g><g id="i" class="DirectedInteraction" color="#000" ><g color="#000" fill="transparent"  filter="url(#a)" stroke="#000" stroke-dasharray="198.28570700733704, 5.8"><path class="EdgeBody" d="m578.91 173.63 134.35 153.63"   marker-end="url(#e)" /></g></g><g id="j" class="Interaction" color="#000" ><g color="#000" fill="transparent"  filter="url(#a)" stroke="#000" stroke-dasharray="68.73651354064013, 5.8"><path class="EdgeBody" d="m804.26 161.13 46.823 57.994"   marker-end="url(#c)" /></g></g><g id="k" class="Interaction" color="#000" ><g color="#000" fill="transparent"  filter="url(#a)" stroke="#000" stroke-dasharray="86.4030719418745, 5.8"><path class="EdgeBody" d="m419.2 161.13h92.203"   marker-end="url(#c)" /></g><g class="Burr Anchor" transform="translate(456.09 161.13)" ><use class="Icon" width="0" height="0" fill="#141414" stroke-width="0" xlink:href="#b"/></g></g><g id="l" class="Interaction" color="#000" ><g color="#000" fill="transparent"  filter="url(#a)" stroke="#000" stroke-dasharray="43.865513850680635, 11"><path class="EdgeBody" d="m488 116.5-31.914 44.628"   marker-end="url(#d)" /></g></g><g id="m" class="DirectedInteraction" color="#000" ><g color="#000" fill="transparent"  filter="url(#a)" stroke="#000" stroke-dasharray="147.8272519925908, 5.8"><path class="EdgeBody" d="m735.76 173.63-2e-13 153.63"   marker-end="url(#e)" /></g></g><g id="n" class="DirectedInteraction" color="#000" ><g color="#000" fill="transparent"  filter="url(#a)" stroke="#000" stroke-dasharray="48.479664357182926, 5.8"><path class="EdgeBody" d="m636.48 339.76 54.28 4e-14"   marker-end="url(#e)" /></g></g><g id="o" class="Interaction" color="#000" ><g color="#000" fill="transparent"  filter="url(#a)" stroke="#000" stroke-dasharray="44.65551112112519, 11"><path class="EdgeBody" d="m309.56 213.07 55.644-1.1543"   marker-end="url(#d)" /></g></g><g id="p" class="Interaction" color="#000" ><g color="#000" fill="transparent"  filter="url(#a)" stroke="#000" stroke-dasharray="47.406248426970606, 5.8"><path class="EdgeBody" d="m365.2 274.05-2.4e-13 53.206"   marker-end="url(#c)" /></g><g class="Burr Anchor" transform="translate(365.2 295.33)" ><use class="Icon" width="0" height="0" fill="#141414" stroke-width="0" xlink:href="#b"/></g></g><g id="q" class="Interaction" color="#000" ><g color="#000" fill="transparent"  filter="url(#a)" stroke="#000" stroke-dasharray="44.64448927942759, 11"><path class="EdgeBody" d="m309.56 295.01 55.644 0.32502"   marker-end="url(#d)" /></g></g><g id="r" class="Interaction" color="#000" ><g color="#000" fill="transparent"  filter="url(#a)" stroke="#000" stroke-dasharray="60.04896073245102, 5.8"><path class="EdgeBody" d="m601.41 161.13h65.849"   marker-end="url(#c)" /></g><g class="Burr Anchor" transform="translate(627.75 161.13)" ><use class="Icon" width="0" height="0" fill="#141414" stroke-width="0" xlink:href="#b"/></g></g><g id="s" class="Interaction" color="#000" ><g color="#000" fill="transparent"  filter="url(#a)" stroke="#000" stroke-dasharray="56.937169027508304, 11"><path class="EdgeBody" d="m678.97 116.5-51.223 44.628"   marker-end="url(#d)" /></g></g><g id="t" class="Interaction" color="#000" ><g color="#000" fill="transparent"  filter="url(#a)" stroke="#000" stroke-dasharray="46.14247996388905, 11"><path class="EdgeBody" d="m592.06 116.5 35.687 44.628"   marker-end="url(#d)" /></g></g><g class="SingleFreeNode Shape" transform="translate(654.39 186.52)" color="#ff6600" ><rect class="Icon" transform="matrix(.99718 0 0 .9948 .49859 .4974)" width="354.23" height="191.22" rx="15" ry="15" fill="transparent"  stroke="#f60"/></g><g class="Label" transform="translate(690.76 327.26)" color="#000"  name="Conjugation"><use class="Icon" width="90" height="25" fill="transparent"  stroke="#000" stroke-width="0" xlink:href="#b"/><text class="Text" transform="translate(45,16.5)"   font-size="12px"  text-anchor="middle"><tspan x="0" y="0">Conjugation</tspan></text></g><g class="Label" transform="translate(633.97 91.5)" color="#000"  name="MALDO"><use class="Icon" width="90" height="25" fill="transparent"  stroke="#000" stroke-width="0" xlink:href="#b"/><text class="Text" transform="translate(45,16.5)"   font-size="12px"  text-anchor="middle"><tspan x="0" y="0">MALDO</tspan></text></g><g class="Label" transform="translate(339,91.5)" color="#000"  name="MALCO"><use class="Icon" width="90" height="25" fill="transparent"  stroke="#000" stroke-width="0" xlink:href="#b"/><text class="Text" transform="translate(45,16.5)"   font-size="12px"  text-anchor="middle"><tspan x="0" y="0">MALCO</tspan></text></g><g class="Label" transform="translate(879.31 351.92)" color="#ff6600"  name="Phase II metabolism"><use class="Icon" width="119.45141065830705" height="25" fill="transparent"  stroke="#ff6600" stroke-width="0" xlink:href="#b"/><text class="Text" transform="translate(59.726 16.5)" fill="#ff6600"  font-size="12px" stroke="black" stroke-width="0" text-anchor="middle"><tspan x="0" y="0">Phase II metabolism</tspan></text></g><a class="Metabolite " transform="translate(299.71 327.26)" color="#00f"  name="8-Hydroxy-delta-9-THC"  ><rect class="Icon" transform="matrix(.99242 0 0 .96154 .49621 .48077)" width="131" height="25" fill="#fff" stroke="#00f"/><text class="Text" transform="translate(65.499 16.5)" fill="#00f"  font-size="12px"  text-anchor="middle"><tspan x="0" y="0">8-Hydroxy-delta-9-THC</tspan></text></a><a class="Metabolite" transform="translate(476.34 327.26)" color="#00f"  name="8,11-dihydroxy-delta-9-THC"  ><rect class="Icon" transform="matrix(.99379 0 0 .96154 .4969 .48077)" width="160.14" height="25" fill="#fff" stroke="#00f"/><text class="Text" transform="translate(80.069 16.5)" fill="#00f"  font-size="12px"  text-anchor="middle"><tspan x="0" y="0">8,11-dihydroxy-delta-9-THC</tspan></text></a><a class="PubChem-compound_124158 Metabolite " transform="translate(511.41 148.63)" color="#00f"  name="11-oxo-THC"  ><rect class="Icon" transform="matrix(.98901 0 0 .96154 .49451 .48077)" width="90" height="25" fill="#fff" stroke="#00f"/><text class="Text" transform="translate(45,16.5)" fill="#00f"  font-size="12px"  text-anchor="middle"><tspan x="0" y="0">11-oxo-THC</tspan></text></a><g class="Metabolite" transform="translate(851.08 206.62)" color="#00f"  name="THC-COOH-glucuronide"><rect class="Icon" transform="matrix(.99293 0 0 .96154 .49646 .48077)" width="140.43" height="25" fill="#fff" stroke="#00f"/><text class="Text" transform="translate(70.217 16.5)" fill="#00f"  font-size="12px"  text-anchor="middle"><tspan x="0" y="0">THC-COOH-glucuronide</tspan></text></g><a  class="Uniprot-TrEMBL_P08684 Protein CYP3A4 " transform="translate(219.56 282.51)"   name="P450 3A"  ><rect class="Icon" transform="matrix(.98901 0 0 .96154 .49451 .48077)" width="90" height="25" fill="#fff" stroke="#000"/><text class="Text" transform="translate(45,16.5)"   font-size="12px"  text-anchor="middle"><tspan x="0" y="0">P450 3A</tspan></text></a><a class="PubChem-compound_107885 Metabolite " transform="translate(667.26 148.63)" color="#00f"  name="11-nor-9-carboxy-THC"  ><rect class="Icon" transform="matrix(.99275 0 0 .96154 .49638 .48077)" width="137" height="25" fill="#fff" stroke="#00f"/><text class="Text" transform="translate(68.5,16.5)" fill="#00f"  font-size="12px"  text-anchor="middle"><tspan x="0" y="0">11-nor-9-carboxy-THC</tspan></text></a><g class="Enzyme_Nomenclature_1_1_1_1 Protein " transform="translate(443,91.5)" color="#000"  name="ADH"><rect class="Icon" transform="matrix(.98901 0 0 .96154 .49451 .48077)" width="90" height="25" fill="#fff" stroke="#000"/><text class="Text" transform="translate(45,16.5)"   font-size="12px"  text-anchor="middle"><tspan x="0" y="0">ADH</tspan></text></g><a class="PubChem-compound_37482 Metabolite " transform="translate(311.2 148.63)" color="#00f"  name="11-hydroxy-THC"  ><rect class="Icon" transform="matrix(.99083 0 0 .96154 .49541 .48077)" width="108" height="25" fill="#fff" stroke="#00f"/><text class="Text" transform="translate(54,16.5)" fill="#00f"  font-size="12px"  text-anchor="middle"><tspan x="0" y="0">11-hydroxy-THC</tspan></text></a><a  class="Protein CYP2C9 " transform="translate(219.56 200.57)"   name="CYP2C9"  ><rect class="Icon" transform="matrix(.98901 0 0 .96154 .49451 .48077)" width="90" height="25" fill="#fff" stroke="#000"/><text class="Text" transform="translate(45,16.5)"   font-size="12px"  text-anchor="middle"><tspan x="0" y="0">CYP2C9</tspan></text></a><a class="PubChem-compound_16078 Metabolite ChEBI_CHEBI_66964  " transform="translate(320.2 249.05)" color="#00f"  name="THC"  ><rect class="Icon" transform="matrix(.98901 0 0 .96154 .49451 .48077)" width="90" height="25" fill="#fff" stroke="#00f"/><text class="Text" transform="translate(45,16.5)" fill="#00f"  font-size="12px"  text-anchor="middle"><tspan x="0" y="0">THC</tspan></text></a><a  class="Uniprot-TrEMBL_P11712 Protein CYP2C9 " transform="translate(557.86 91.5)"   name="P450 2C9"  ><rect class="Icon" transform="matrix(.98559 0 0 .96154 .4928 .48077)" width="68.405" height="25" fill="#fff" stroke="#000"/><text class="Text" transform="translate(34.203 16.5)"   font-size="12px"  text-anchor="middle"><tspan x="0" y="0">P450 2C9</tspan></text></a><g id="u" class="Interaction" color="#000" ><g color="#000" fill="transparent"  filter="url(#a)" stroke="#000" stroke-dasharray="73.78220315899993, 11"><path class="EdgeBody" d="m384 116.5 72.086 44.628"   marker-end="url(#d)" /></g></g><g class="SingleFreeNode Shape" transform="translate(295.55 133.32)" color="#00ff33" ><rect class="Icon" transform="matrix(.99717 0 0 .99592 .49859 .49796)" width="352.38" height="244.23" rx="15" ry="15" fill="transparent"  stroke="#0f3"/></g><g class="Label" transform="translate(513.13 351.92)" color="#00ff33"  name="Phase I metabolism"><use class="Icon" width="119.45141065830705" height="25" fill="transparent"  stroke="#00ff33" stroke-width="0" xlink:href="#b"/><text class="Text" transform="translate(59.726 16.5)" fill="#00ff33"  font-size="12px" stroke="black" stroke-width="0" text-anchor="middle"><tspan x="0" y="0">Phase I metabolism</tspan></text></g><text class="Text" transform="translate(5,27)" dominant-baseline="central" fill="black"  font-size="12px" font-weight="bold" overflow="visible" ><tspan x="0" y="-9">Name: Metabolism of tetrahydrocannabinol (THC)</tspan> <tspan x="0" y="9">Organism: Homo sapiens</tspan></text></g></svg>
