<?xml version="1.0" encoding="UTF-8"?>
<!--
  WikiPathways page: https://www.wikipathways.org/index.php/Pathway:WP4265
  URL for this compressed file: https://github.com/eweitz/cachome/tree/main/data/wikipathways/WP4265.svg
  Source code for compression: https://github.com/eweitz/cachome/tree/main/src/wikipathways.py
-->
<svg class="Diagram" width="800" height="600" color="black" baseProfile="full" prefix="schema:http://schema.org/" preserveAspectRatio="xMidYMid" version="1.1" viewBox="0 0 1173.4 718.34" vocab="http://vocabularies.wikipathways.org/wp#" xmlns="http://www.w3.org/2000/svg" xmlns:xlink="http://www.w3.org/1999/xlink"><style>svg {font-family: 'Liberation Sans', Arial, sans-serif; }</style><defs><filter id="h" x="-50%" y="-50%" width="200%" height="200%"><feComposite in="SourceGraphic" in2="SourceGraphic" result="doubleDark"/><feMorphology in="doubleDark" operator="dilate" radius="0.16666666666666666" result="in2Double"/><feMorphology in="SourceGraphic" operator="dilate" radius="3" result="inDouble"/><feComposite in="inDouble" in2="in2Double" operator="out" result="doubleResult"/></filter><filter id="a" x="0" y="0" width="1173.4" height="718.34" filterUnits="userSpaceOnUse"><feColorMatrix in="SourceGraphic" values="-1   0   0 0 0                   0  -1   0 0 0                   0   0  -1 0 0                   0   0   0 1 0"/></filter><marker id="c" stroke-dasharray="99999" markerHeight="12" markerUnits="userSpaceOnUse" markerWidth="12" orient="auto" preserveAspectRatio="none" refX="12" refY="6" viewBox="0 0 12 12"><path transform="rotate(180 6 6)" d="M12 11L0 6l12-5z" fill="currentColor" stroke-width="0"/></marker><marker id="g" stroke-dasharray="99999" markerHeight="12" markerUnits="userSpaceOnUse" markerWidth="12" orient="auto" preserveAspectRatio="none" refX="12" refY="6" viewBox="0 0 12 12"><circle transform="rotate(180 6 6)" cx="6" cy="6" r="5.3" fill="none" stroke="#000"/></marker><marker id="f" stroke-dasharray="99999" markerHeight="12" markerUnits="userSpaceOnUse" markerWidth="12" orient="auto" preserveAspectRatio="none" refX="12" refY="6" viewBox="0 0 12 12"><path transform="rotate(180 6 6)" d="M12 11L0 6l12-5z" fill="currentColor" stroke-width="0"/></marker><marker id="d" stroke-dasharray="99999" markerHeight="20" markerUnits="userSpaceOnUse" markerWidth="10" orient="auto" preserveAspectRatio="none" refX="10" refY="10" viewBox="0 0 10 20"><path d="m3 0v20" fill="currentColor" stroke="currentColor"/></marker><symbol id="e" overflow="visible" preserveAspectRatio="none" viewBox="0 0 50 50"><ellipse cx="25" cy="25" rx="25" ry="25" stroke="currentColor" vector-effect="non-scaling-stroke"/></symbol><symbol id="b" preserveAspectRatio="none" viewBox="0 0 100 100"/></defs><g class="Viewport" color="black"  name="Name: Ethanol metabolism resulting in production of ROS by CYP2E1 Organism: Mus musculus"><rect class="Icon" width="1173.4" height="718.34" fill="#fff" stroke="#000" stroke-width="0"/><g id="i" class="Interaction" color="#000" ><g color="#000" fill="transparent"  filter="url(#a)" stroke="#000" stroke-dasharray="218.58323563344655, 5.8"><path class="EdgeBody" d="m378.09 223.08 224.37 2.6554"   marker-end="url(#f)" /></g><g class="Burr Anchor" transform="translate(491.01 224.41)" ><use class="Icon" width="0" height="0" fill="#141414" stroke-width="0" xlink:href="#b"/></g></g><g id="j" class="Interaction" color="#000" ><g color="#000" fill="transparent"  filter="url(#a)" stroke="#000" stroke-dasharray="96.93240386201197, 11"><path class="EdgeBody" d="m491.49 116.48-0.47855 107.93"   marker-end="url(#g)" /></g><g class="Burr Anchor" transform="translate(491.38 139.5)" ><use class="Icon" width="0" height="0" fill="#141414" stroke-width="0" xlink:href="#b"/></g><g class="Burr Anchor" transform="translate(491.27 166)" ><use class="Icon" width="0" height="0" fill="#141414" stroke-width="0" xlink:href="#b"/></g></g><g id="k" class="DirectedInteraction" color="#000" ><g color="#000" fill="transparent"  filter="url(#a)" stroke="#000" stroke-dasharray="35.944498711503925, 5.8"><path class="EdgeBody" d="m491.49 315.72v41.744"   marker-end="url(#c)" /></g><g class="Burr Anchor" transform="translate(491.49 332.41)" ><use class="Icon" width="0" height="0" fill="#141414" stroke-width="0" xlink:href="#b"/></g></g><g id="l" class="Interaction" color="#000" ><g color="#000" fill="transparent"  filter="url(#a)" stroke="#000" stroke-dasharray="103.97059437959952, 7"><path class="EdgeBody" d="m602.45 333.2-110.97-0.78205"   marker-end="url(#d)" /></g></g><g id="m" class="DirectedInteraction" color="#000" ><g color="#000" fill="transparent"  filter="url(#a)" stroke="#000" stroke-dasharray="47.39267016806885, 5.8"><path class="EdgeBody" d="m491.49 532.06v53.193"   marker-end="url(#c)" /></g></g><g id="n" class="DirectedInteraction" color="#000" ><g color="#000" fill="transparent"  filter="url(#a)" stroke="#000" stroke-dasharray="520.2848165671321, 5.8"><path class="EdgeBody" d="m772.01 612.83v-314.36h-211.72"   marker-end="url(#c)" /></g></g><g id="o" class="DirectedInteraction" color="#000" ><g color="#000" fill="transparent"  filter="url(#a)" stroke="#000" stroke-dasharray="51.01056878604639, 5.8"><path class="EdgeBody" d="m491.01 224.41 0.47855 56.809"   marker-end="url(#c)" /></g></g><g id="p" class="DirectedInteraction" color="#000" ><g color="#000" fill="transparent"  filter="url(#a)" stroke="#000" stroke-dasharray="51.872150000000104, 5.8"><path class="EdgeBody" d="m491.49 382.96 1e-13 57.672"   marker-end="url(#c)" /></g><g class="Burr Anchor" transform="translate(491.49 409.77)" ><use class="Icon" width="0" height="0" fill="#141414" stroke-width="0" xlink:href="#b"/></g></g><g id="q" class="DirectedInteraction" color="#000" ><g color="#000" fill="transparent"  filter="url(#a)" stroke="#000" stroke-dasharray="144.98623034346255, 5.8"><path class="EdgeBody" d="m422.68 298.47-150.79-0.26356"   marker-end="url(#c)" /></g></g><g id="r" class="DirectedInteraction" color="#000" ><g color="#000" fill="transparent"  filter="url(#a)" stroke="#000" stroke-dasharray="35.63101250000007, 5.8"><path class="EdgeBody" d="m491.49 465.63v41.431"   marker-end="url(#c)" /></g><g class="Burr Anchor" transform="translate(491.49 482.21)" ><use class="Icon" width="0" height="0" fill="#141414" stroke-width="0" xlink:href="#b"/></g></g><g id="s" class="Interaction" color="#000" ><g color="#000" fill="transparent"  filter="url(#a)" stroke="#000" stroke-dasharray="103.9762529812433, 7"><path class="EdgeBody" d="m602.45 483.57-110.97-1.3666"   marker-end="url(#d)" /></g></g><g id="t" class="DirectedInteraction" color="#000" ><g color="#000" fill="transparent"  filter="url(#a)" stroke="#000" stroke-dasharray="41.82771646913633, 5.8"><path class="EdgeBody" d="m333.09 540.39-1.0951 47.615"   marker-end="url(#c)" /></g></g><g id="u" class="DirectedInteraction" color="#000" ><g color="#000" fill="transparent"  filter="url(#a)" stroke="#000" stroke-dasharray="64.08034370310224, 5.8"><path class="EdgeBody" d="m634.65 626.76 69.866-1.4247"   marker-end="url(#c)" /></g></g><g id="v" class="Interaction" color="#000" ><g color="#000" fill="transparent"  filter="url(#a)" stroke="#000" stroke-dasharray="96.17068309995484, 7"><path class="EdgeBody" d="m594.44 166.19-103.17-0.19547"   marker-end="url(#d)" /></g></g><g id="w" class="DirectedInteraction" color="#000" ><g color="#000" fill="transparent"  filter="url(#a)" stroke="#000" stroke-dasharray="5.67, 3.4, 5.67, 3.4, 5.67, 3.4, 5.67, 3.4, 0, 5.8"><path class="EdgeBody" d="m333.09 476.68v38.715"   marker-end="url(#c)" /></g><g class="Burr Anchor" transform="translate(333.09 492.16)" ><use class="Icon" width="0" height="0" fill="#141414" stroke-width="0" xlink:href="#b"/></g></g><g id="x" class="DirectedInteraction" color="#000" ><g color="#000" fill="transparent"  filter="url(#a)" stroke="#000" stroke-dasharray="5.02, 3.01, 5.02, 3.01, 5.02, 3.01, 5.02, 3.01, 5.02, 3.01, 5.02, 3.01, 5.02, 3.01, 5.02, 3.01, 5.02, 3.01, 5.02, 3.01, 5.02, 3.01, 5.02, 3.01, 5.02, 3.01, 5.02, 3.01, 5.02, 3.01, 5.02, 3.01, 5.02, 3.01, 5.02, 3.01, 5.02, 3.01, 5.02, 3.01, 5.02, 3.01, 5.02, 3.01, 5.02, 3.01, 5.02, 3.01, 5.02, 3.01, 0, 5.8"><path class="EdgeBody" d="m422.68 298.47h-89.595v114.11"   marker-end="url(#c)" /></g></g><g id="y" class="Interaction" color="#000" ><g color="#000" fill="transparent"  filter="url(#a)" stroke="#000" stroke-dasharray="95.96893131625978, 7"><path class="EdgeBody" d="m594.45 410.25-102.97-0.47437"   marker-end="url(#d)" /></g></g><g id="z" class="Interaction" color="#000" ><g color="#000" fill="transparent"  filter="url(#a)" stroke="#000" stroke-dasharray="57.39773454632251, 7"><path class="EdgeBody" d="m268.69 492.64 64.396-0.47924"   marker-end="url(#d)" /></g></g><g class="SingleFreeNode Shape PhysicalEntity CellularComponent Nucleus" transform="translate(145.29 554.79)" color="#c0c0c0" ><g fill="transparent"  filter="url(#h)" stroke="#c0c0c0" stroke-width="3"><use class="Icon" transform="matrix(.97703 0 0 .91839 5.8622 5.5104)" width="510.4105302441027" height="135.04518830621146"    xlink:href="#e"/></g></g><g class="Label" transform="translate(422.68 281.22)" color="#00c"  name="ROS"><rect class="Icon" transform="matrix(.99279 0 0 .97183 .49639 .48591)" width="137.61" height="34.495" fill="#fff" stroke="#00c"/><text class="Text" transform="translate(68.805 21.247)" fill="#00c"  font-size="12px"  text-anchor="middle"><tspan x="0" y="0">ROS</tspan></text></g><g class="Label" transform="translate(843.41 233.7)" color="#000"  name="Stressors converted by CYP2E1"><rect class="Icon" transform="matrix(.99668 0 0 .96774 .49834 .48387)" width="300" height="30" fill="#fff" stroke="#000"/><text class="Text" transform="translate(150,19)"   font-size="12px"  text-anchor="middle"><tspan x="0" y="0">Stressors converted by CYP2E1</tspan></text></g><g class="Label" transform="translate(602.45 471.07)" color="#00c"  name="SP600125"><rect class="Icon" transform="matrix(.98901 0 0 .96154 .49451 .48077)" width="90" height="25" fill="#fff" stroke="#00c"/><text class="Text" transform="translate(45,16.5)" fill="#00c"  font-size="12px"  text-anchor="middle"><tspan x="0" y="0">SP600125</tspan></text></g><g class="Label" transform="translate(150.34 608.99)" color="#000"  name="Nucleus"><use class="Icon" width="90" height="25" fill="transparent"  stroke="#000" stroke-width="0" xlink:href="#b"/><text class="Text" transform="translate(45,16.5)"   font-size="12px"  text-anchor="middle"><tspan x="0" y="0">Nucleus</tspan></text></g><g class="Label" transform="translate(992.33 333.17)" color="#00c"  name="2-Difluoromethoxy-2,2 -difluoroacetic acid"><rect class="Icon" transform="matrix(.99338 0 0 .97222 .49669 .48611)" width="150" height="35" fill="#fff" stroke="#00c"/><text class="Text" transform="translate(75,21.5)" fill="#00c"  font-size="12px"  text-anchor="middle"><tspan x="0" y="-6.6000000000000005">2-Difluoromethoxy-2,2</tspan> <tspan x="0" y="6.6000000000000005">-difluoroacetic acid</tspan></text></g><g class="GroupGroup" transform="translate(231.37 588.01)" color="grey" ><use class="Icon" width="201.24362645354142" height="91.78083947986772" fill="transparent"  stroke="grey" stroke-dasharray="5,3" stroke-width="0" xlink:href="#b"/><g class="Label" transform="translate(8 33.379)" color="#000"  name="ARE"><rect class="Icon" transform="matrix(.98901 0 0 .96154 .49451 .48077)" width="90" height="25" fill="#fff" stroke="#000"/><text class="Text" transform="translate(45,16.5)"   font-size="12px"  text-anchor="middle"><tspan x="0" y="0">ARE</tspan></text></g><a  class="GeneProduct P594_ENSMUSG00000042622 " transform="translate(103.24 58.781)"   name="Maff"  ><rect class="Icon" transform="matrix(.98901 0 0 .96154 .49451 .48077)" width="90" height="25" fill="#fff" stroke="#000"/><text class="Text" transform="translate(45,16.5)"   font-size="12px"  text-anchor="middle"><tspan x="0" y="0">Maff</tspan></text></a><a  class="GeneProduct P594_ENSMUSG00000051510 " transform="translate(103.24 8.7808)"   name="Mafg"  ><rect class="Icon" transform="matrix(.98901 0 0 .96154 .49451 .48077)" width="90" height="25" fill="#fff" stroke="#000"/><text class="Text" transform="translate(45,16.5)"   font-size="12px"  text-anchor="middle"><tspan x="0" y="0">Mafg</tspan></text></a><a  class="GeneProduct P594_ENSMUSG00000018143 " transform="translate(103.24 33.781)"   name="Mafk"  ><rect class="Icon" transform="matrix(.98901 0 0 .96154 .49451 .48077)" width="90" height="25" fill="#fff" stroke="#000"/><text class="Text" transform="translate(45,16.5)"   font-size="12px"  text-anchor="middle"><tspan x="0" y="0">Mafk</tspan></text></a><a  class="GeneProduct P594_ENSMUSG00000015839 " transform="translate(8,8)"   name="Nfe2l2"  ><rect class="Icon" transform="matrix(.98901 0 0 .96154 .49451 .48077)" width="90" height="25" fill="#fff" stroke="#000"/><text class="Text" transform="translate(45,16.5)"   font-size="12px"  text-anchor="middle"><tspan x="0" y="0">Nfe2l2</tspan></text></a></g><g class="GroupGroup" transform="translate(438.49 577.26)" color="grey" ><use class="Icon" width="196.16091279106905" height="66" fill="transparent"  stroke="grey" stroke-dasharray="5,3" stroke-width="0" xlink:href="#b"/><g class="Label" transform="translate(8,33)" color="#000"  name="Promoter"><rect class="Icon" transform="matrix(.98901 0 0 .96154 .49451 .48077)" width="90" height="25" fill="#fff" stroke="#000"/><text class="Text" transform="translate(45,16.5)"   font-size="12px"  text-anchor="middle"><tspan x="0" y="0">Promoter</tspan></text></g><a  class="GeneProduct P594_ENSMUSG00000001280 " transform="translate(8,8)"   name="Sp1"  ><rect class="Icon" transform="matrix(.98901 0 0 .96154 .49451 .48077)" width="90" height="25" fill="#fff" stroke="#000"/><text class="Text" transform="translate(45,16.5)"   font-size="12px"  text-anchor="middle"><tspan x="0" y="0">Sp1</tspan></text></a><a  class="GeneProduct P594_ENSMUSG00000025479 " transform="translate(98.161 32.424)"   name="Cyp2e1"  ><rect class="Icon" transform="matrix(.98901 0 0 .96154 .49451 .48077)" width="90" height="25" fill="#fff" stroke="#000"/><text class="Text" transform="translate(45,16.5)"   font-size="12px"  text-anchor="middle"><tspan x="0" y="0">Cyp2e1</tspan></text></a></g><g class="GroupGroup" transform="translate(594.44 132.59)" color="grey" ><use class="Icon" width="106.03377787511147" height="67.21514001474893" fill="transparent"  stroke="grey" stroke-dasharray="5,3" stroke-width="0" xlink:href="#b"/><g class="Label" transform="translate(8 33.332)" color="#00c"  name="siRNA"><rect class="Icon" transform="matrix(.98902 0 0 .9628 .49451 .4814)" width="90.034" height="25.883" fill="#fff" stroke="#00c"/><text class="Text" transform="translate(45.017 16.942)" fill="#00c"  font-size="12px"  text-anchor="middle"><tspan x="0" y="0">siRNA</tspan></text></g><a class="ChEBI_CHEBI_4489 Metabolite  " transform="translate(8.0169 8)" color="#00f"  name="Diallyl sulfide"  ><rect class="Icon" transform="matrix(.98901 0 0 .96154 .49451 .48077)" width="90" height="25" fill="#fff" stroke="#00f"/><text class="Text" transform="translate(45,16.5)" fill="#00f"  font-size="12px"  text-anchor="middle"><tspan x="0" y="0">Diallyl sulfide</tspan></text></a></g><g class="GroupGroup" transform="translate(594.45 364.75)" color="grey" ><use class="Icon" width="106" height="91" fill="transparent"  stroke="grey" stroke-dasharray="5,3" stroke-width="0" xlink:href="#b"/><g class="Label" transform="translate(8,33)" color="#00c"  name="PKCζ siRNA"><rect class="Icon" transform="matrix(.98901 0 0 .96154 .49451 .48077)" width="90" height="25" fill="#fff" stroke="#00c"/><text class="Text" transform="translate(45,16.5)" fill="#00c"  font-size="12px"  text-anchor="middle"><tspan x="0" y="0">PKCζ siRNA</tspan></text></g><g class="Label" transform="translate(8,58)" color="#00c"  name="PPSI"><rect class="Icon" transform="matrix(.98901 0 0 .96154 .49451 .48077)" width="90" height="25" fill="#fff" stroke="#00c"/><text class="Text" transform="translate(45,16.5)" fill="#00c"  font-size="12px"  text-anchor="middle"><tspan x="0" y="0">PPSI</tspan></text></g><a class="ChEBI_CHEBI_57491 Metabolite  " transform="translate(8,8)" color="#00f"  name="staurosporine"  ><rect class="Icon" transform="matrix(.98901 0 0 .96154 .49451 .48077)" width="90" height="25" fill="#fff" stroke="#00f"/><text class="Text" transform="translate(45,16.5)" fill="#00f"  font-size="12px"  text-anchor="middle"><tspan x="0" y="0">staurosporine</tspan></text></a></g><a class="ChEBI_CHEBI_17051 Metabolite  " transform="translate(992.33 435.37)" color="#00f"  name="Fluoride"  ><rect class="Icon" transform="matrix(.99338 0 0 .97222 .49669 .48611)" width="150" height="35" fill="#fff" stroke="#00f"/><text class="Text" transform="translate(75,21.5)" fill="#00f"  font-size="12px"  text-anchor="middle"><tspan x="0" y="0">Fluoride</tspan></text></a><a  class="GeneProduct P594_ENSMUSG00000021936 " transform="translate(446.49 440.63)"   name="Mapk8"  ><rect class="Icon" transform="matrix(.98901 0 0 .96154 .49451 .48077)" width="90" height="25" fill="#fff" stroke="#000"/><text class="Text" transform="translate(45,16.5)"   font-size="12px"  text-anchor="middle"><tspan x="0" y="0">Mapk8</tspan></text></a><a class="Metabolite ChEBI_CHEBI_4792  " transform="translate(842.57 331.81)" color="#00f"  name="Enflurane"  ><rect class="Icon" transform="matrix(.99338 0 0 .97222 .49669 .48611)" width="150" height="35" fill="#fff" stroke="#00f"/><text class="Text" transform="translate(75,21.5)" fill="#00f"  font-size="12px"  text-anchor="middle"><tspan x="0" y="0">Enflurane</tspan></text></a><a  class="GeneProduct P594_ENSMUSG00000025479 " transform="translate(446.49 91.482)"   name="Cyp2e1"  ><rect class="Icon" transform="matrix(.98901 0 0 .96154 .49451 .48077)" width="90" height="25" fill="#fff" stroke="#000"/><text class="Text" transform="translate(45,16.5)"   font-size="12px"  text-anchor="middle"><tspan x="0" y="0">Cyp2e1</tspan></text></a><a class="ChEBI_CHEBI_15343 Metabolite  " transform="translate(602.45 213.23)" color="#00f"  name="acetaldehyde"  ><rect class="Icon" transform="matrix(.98901 0 0 .96154 .49451 .48077)" width="90" height="25" fill="#fff" stroke="#00f"/><text class="Text" transform="translate(45,16.5)" fill="#00f"  font-size="12px"  text-anchor="middle"><tspan x="0" y="0">acetaldehyde</tspan></text></a><a class="ChEBI_CHEBI_16236 Metabolite  " transform="translate(288.09 210.58)" color="#00f"  name="ethanol"  ><rect class="Icon" transform="matrix(.98901 0 0 .96154 .49451 .48077)" width="90" height="25" fill="#fff" stroke="#00f"/><text class="Text" transform="translate(45,16.5)" fill="#00f"  font-size="12px"  text-anchor="middle"><tspan x="0" y="0">ethanol</tspan></text></a><a class="ChEBI_CHEBI_5615 Metabolite  " transform="translate(842.57 401.95)" color="#00f"  name="Halothane"  ><rect class="Icon" transform="matrix(.99338 0 0 .97222 .49669 .48611)" width="150" height="35" fill="#fff" stroke="#00f"/><text class="Text" transform="translate(75,21.5)" fill="#00f"  font-size="12px"  text-anchor="middle"><tspan x="0" y="0">Halothane</tspan></text></a><a  class="GeneProduct P594_ENSMUSG00000001280 " transform="translate(446.49 507.06)"   name="Sp1"  ><rect class="Icon" transform="matrix(.98901 0 0 .96154 .49451 .48077)" width="90" height="25" fill="#fff" stroke="#000"/><g class="Burr State" transform="translate(77.978 12.792)" color="#000"  name="P"><use class="Icon" transform="matrix(.96007 0 0 .96066 .48004 .48033)" width="24.04421739695315" height="24.416989586406203" fill="#fff" stroke="#000" xlink:href="#e"/><text class="Text" transform="translate(12.022 15.208)"   font-size="10px"  text-anchor="middle"><tspan x="0" y="0">P</tspan></text></g><text class="Text" transform="translate(45,16.5)"   font-size="12px"  text-anchor="middle"><tspan x="0" y="0">Sp1</tspan></text></a><a class="WikiPathways_WP412 Pathway " transform="translate(84.507 276.91)" color="#14961e"  name="Oxidative Stress (Mus musculus)"  ><use class="Icon" width="187.387875" height="42.59824999999991" fill="transparent"  stroke="#14961e" stroke-width="0" xlink:href="#b"/><text class="Text" transform="translate(93.694 25.299)" fill="#14961e"  font-size="12px" font-weight="bold" stroke="black" stroke-width="0" text-anchor="middle"><tspan x="0" y="0">Oxidative Stress (Mus musculus)</tspan></text></a><a class="ChEBI_CHEBI_38290 Metabolite  " transform="translate(602.45 320.7)" color="#00f"  name="Vitamin C"  ><rect class="Icon" transform="matrix(.98901 0 0 .96154 .49451 .48077)" width="90" height="25" fill="#fff" stroke="#00f"/><text class="Text" transform="translate(45,16.5)" fill="#00f"  font-size="12px"  text-anchor="middle"><tspan x="0" y="0">Vitamin C</tspan></text></a><a class="ChEBI_CHEBI_9130 Metabolite  " transform="translate(842.57 435.86)" color="#00f"  name="Sevoflurane"  ><rect class="Icon" transform="matrix(.99338 0 0 .97222 .49669 .48611)" width="150" height="35" fill="#fff" stroke="#00f"/><text class="Text" transform="translate(75,21.5)" fill="#00f"  font-size="12px"  text-anchor="middle"><tspan x="0" y="0">Sevoflurane</tspan></text></a><a class="Metabolite " transform="translate(992.33 504.73)" color="#00f"  name="6-Hydroxychlorzoxazone"  ><rect class="Icon" transform="matrix(.99338 0 0 .97222 .49669 .48611)" width="150" height="35" fill="#fff" stroke="#00f"/><text class="Text" transform="translate(75,21.5)" fill="#00f"  font-size="12px"  text-anchor="middle"><tspan x="0" y="0">6-Hydroxychlorzoxazone</tspan></text></a><a class="ChEBI_CHEBI_6015 Metabolite  " transform="translate(842.57 366.71)" color="#00f"  name="Isoflurane"  ><rect class="Icon" transform="matrix(.99338 0 0 .97222 .49669 .48611)" width="150" height="35" fill="#fff" stroke="#00f"/><text class="Text" transform="translate(75,21.5)" fill="#00f"  font-size="12px"  text-anchor="middle"><tspan x="0" y="0">Isoflurane</tspan></text></a><a class="ChEBI_CHEBI_29132 Metabolite  " transform="translate(992.33 298.1)" color="#00f"  name="NAPQI"  ><rect class="Icon" transform="matrix(.99338 0 0 .97222 .49669 .48611)" width="150" height="35" fill="#fff" stroke="#00f"/><text class="Text" transform="translate(75,21.5)" fill="#00f"  font-size="12px"  text-anchor="middle"><tspan x="0" y="0">NAPQI</tspan></text></a><g class="Uniprot-TrEMBL_Q1MX41 Protein P594_ENSMUSG00000021948 " transform="translate(439.99 357.46)" color="#000"  name="Protein kinase C"><rect class="Icon" transform="matrix(.99038 0 0 .96226 .49519 .48113)" width="103" height="25.5" fill="#fff" stroke="#000"/><text class="Text" transform="translate(51.5,16.75)"   font-size="12px"  text-anchor="middle"><tspan x="0" y="0">Protein kinase C</tspan></text></g><a class="ChEBI_CHEBI_6843 Metabolite  " transform="translate(842.57 469.19)" color="#00f"  name="Methoxyflurane"  ><rect class="Icon" transform="matrix(.99338 0 0 .97222 .49669 .48611)" width="150" height="35" fill="#fff" stroke="#00f"/><text class="Text" transform="translate(75,21.5)" fill="#00f"  font-size="12px"  text-anchor="middle"><tspan x="0" y="0">Methoxyflurane</tspan></text></a><a class="ChEBI_CHEBI_46195 Metabolite  " transform="translate(842.57 298.25)" color="#00f"  name="Acetaminophen"  ><rect class="Icon" transform="matrix(.99338 0 0 .97222 .49669 .48611)" width="150" height="35" fill="#fff" stroke="#00f"/><text class="Text" transform="translate(75,21.5)" fill="#00f"  font-size="12px"  text-anchor="middle"><tspan x="0" y="0">Acetaminophen</tspan></text></a><a class="ChEBI_CHEBI_3655 Metabolite  " transform="translate(842.57 503.1)" color="#00f"  name="Chlorzoxazone"  ><rect class="Icon" transform="matrix(.99338 0 0 .97222 .49669 .48611)" width="150" height="35" fill="#fff" stroke="#00f"/><text class="Text" transform="translate(75,21.5)" fill="#00f"  font-size="12px"  text-anchor="middle"><tspan x="0" y="0">Chlorzoxazone</tspan></text></a><a class="ChEBI_CHEBI_90693 Metabolite  " transform="translate(178.69 480.14)" color="#00f"  name="U0126"  ><rect class="Icon" transform="matrix(.98901 0 0 .96154 .49451 .48077)" width="90" height="25" fill="#fff" stroke="#00f"/><text class="Text" transform="translate(45,16.5)" fill="#00f"  font-size="12px"  text-anchor="middle"><tspan x="0" y="0">U0126</tspan></text></a><a class="ChEBI_CHEBI_45892 Metabolite  " transform="translate(992.33 368.03)" color="#00f"  name="Trifluoroacetic acid"  ><rect class="Icon" transform="matrix(.99338 0 0 .97222 .49669 .48611)" width="150" height="35" fill="#fff" stroke="#00f"/><text class="Text" transform="translate(75,21.5)" fill="#00f"  font-size="12px"  text-anchor="middle"><tspan x="0" y="0">Trifluoroacetic acid</tspan></text></a><a  class="GeneProduct P594_ENSMUSG00000015839 " transform="translate(288.09 515.39)"   name="Nfe2l2"  ><rect class="Icon" transform="matrix(.98901 0 0 .96154 .49451 .48077)" width="90" height="25" fill="#fff" stroke="#000"/><text class="Text" transform="translate(45,16.5)"   font-size="12px"  text-anchor="middle"><tspan x="0" y="0">Nfe2l2</tspan></text></a><g class="GroupGroup" transform="translate(280.09 412.58)" color="grey" ><use class="Icon" width="106" height="64.09461875" fill="transparent"  stroke="grey" stroke-dasharray="5,3" stroke-width="0" xlink:href="#b"/><a  class="GeneProduct P594_ENSMUSG00000035027 " transform="translate(8 31.095)"   name="Map2k2"  ><rect class="Icon" transform="matrix(.98901 0 0 .96154 .49451 .48077)" width="90" height="25" fill="#fff" stroke="#000"/><text class="Text" transform="translate(45,16.5)"   font-size="12px"  text-anchor="middle"><tspan x="0" y="0">Map2k2</tspan></text></a><a  class="GeneProduct P594_ENSMUSG00000004936 " transform="translate(8,8)"   name="Map2k1"  ><rect class="Icon" transform="matrix(.98901 0 0 .96154 .49451 .48077)" width="90" height="25" fill="#fff" stroke="#000"/><text class="Text" transform="translate(45,16.5)"   font-size="12px"  text-anchor="middle"><tspan x="0" y="0">Map2k1</tspan></text></a></g><a  class="GeneProduct P594_ENSMUSG00000025479 " transform="translate(704.51 612.83)"   name="Cyp2e1"  ><rect class="Icon" transform="matrix(.98901 0 0 .96154 .49451 .48077)" width="90" height="25" fill="#fff" stroke="#000"/><text class="Text" transform="translate(45,16.5)"   font-size="12px"  text-anchor="middle"><tspan x="0" y="0">Cyp2e1</tspan></text></a><g class="Label" transform="translate(842.57 262.88)" color="#000"  name="Substrate"><rect class="Icon" transform="matrix(.99338 0 0 .97222 .49669 .48611)" width="150" height="35" fill="#fff" stroke="#000"/><text class="Text" transform="translate(75,21.5)"   font-size="12px"  text-anchor="middle"><tspan x="0" y="0">Substrate</tspan></text></g><g class="Label" transform="translate(992.33 262.88)" color="#000"  name="Outcome metabolite"><rect class="Icon" transform="matrix(.99338 0 0 .97222 .49669 .48611)" width="150" height="35" fill="#fff" stroke="#000"/><text class="Text" transform="translate(75,21.5)"   font-size="12px"  text-anchor="middle"><tspan x="0" y="0">Outcome metabolite</tspan></text></g><a class="ChEBI_CHEBI_17051 Metabolite  " transform="translate(992.33 401.36)" color="#00f"  name="Fluoride"  ><rect class="Icon" transform="matrix(.99338 0 0 .97222 .49669 .48611)" width="150" height="35" fill="#fff" stroke="#00f"/><text class="Text" transform="translate(75,21.5)" fill="#00f"  font-size="12px"  text-anchor="middle"><tspan x="0" y="0">Fluoride</tspan></text></a><a class="ChEBI_CHEBI_17051 Metabolite  " transform="translate(992.33 469.94)" color="#00f"  name="Fluoride"  ><rect class="Icon" transform="matrix(.99338 0 0 .97222 .49669 .48611)" width="150" height="35" fill="#fff" stroke="#00f"/><text class="Text" transform="translate(75,21.5)" fill="#00f"  font-size="12px"  text-anchor="middle"><tspan x="0" y="0">Fluoride</tspan></text></a><text class="Text" transform="translate(5,27)" dominant-baseline="central" fill="black"  font-size="12px" font-weight="bold" overflow="visible" ><tspan x="0" y="-9">Name: Ethanol metabolism resulting in production of ROS by CYP2E1</tspan> <tspan x="0" y="9">Organism: Mus musculus</tspan></text></g></svg>
