<?xml version="1.0" encoding="UTF-8"?>
<!--
  WikiPathways page: https://www.wikipathways.org/index.php/Pathway:WP4204
  URL for this compressed file: https://github.com/eweitz/cachome/tree/main/data/wikipathways/WP4204.svg
  Source code for compression: https://github.com/eweitz/cachome/tree/main/src/wikipathways.py
-->
<svg class="Diagram" width="800" height="600" color="black" baseProfile="full" prefix="schema:http://schema.org/" preserveAspectRatio="xMidYMid" version="1.1" viewBox="0 0 1017.8 721.24" vocab="http://vocabularies.wikipathways.org/wp#" xmlns="http://www.w3.org/2000/svg" xmlns:xlink="http://www.w3.org/1999/xlink"><style>svg {font-family: 'Liberation Sans', Arial, sans-serif; }</style><defs><filter id="a" x="0" y="0" width="1017.8" height="721.24" filterUnits="userSpaceOnUse"><feColorMatrix in="SourceGraphic" values="-1   0   0 0 0                   0  -1   0 0 0                   0   0  -1 0 0                   0   0   0 1 0"/></filter><marker id="d" stroke-dasharray="99999" markerHeight="12" markerUnits="userSpaceOnUse" markerWidth="12" orient="auto" preserveAspectRatio="none" refX="12" refY="6" viewBox="0 0 12 12"><path transform="rotate(180 6 6)" d="M12 11L0 6l12-5z" fill="currentColor" stroke-width="0"/></marker><marker id="c" stroke-dasharray="99999" markerHeight="20" markerUnits="userSpaceOnUse" markerWidth="10" orient="auto" preserveAspectRatio="none" refX="10" refY="10" viewBox="0 0 10 20"><path d="m3 0v20" fill="currentColor" stroke="currentColor"/></marker><marker id="h" stroke-dasharray="99999" markerHeight="24" markerUnits="userSpaceOnUse" markerWidth="20" orient="auto" preserveAspectRatio="none" refX="20" refY="12" viewBox="0 0 20 24"><g transform="rotate(180 10 12)" fill="none" stroke="#000"><path d="M15 12V5M15.5 5H8M0 5l8-4v8z"/></g></marker><symbol id="g" overflow="visible" preserveAspectRatio="none" viewBox="0 0 50 50"><ellipse cx="25" cy="25" rx="25" ry="25" stroke="currentColor" vector-effect="non-scaling-stroke"/></symbol><symbol id="f" overflow="visible" preserveAspectRatio="none" viewBox="0 8 100 86"><path transform="scale(1 .85)" d="M1.42 50.996l21.073-42.14h56.191l21.067 42.14-21.067 42.145H22.493L1.42 50.996z" stroke="currentColor" vector-effect="non-scaling-stroke"/></symbol><symbol id="e" overflow="visible" preserveAspectRatio="none" viewBox="0 0 100 100"><path d="M0 25L25 0h50l25 25v50l-25 25H25L0 75z" stroke="currentColor" vector-effect="non-scaling-stroke"/></symbol><symbol id="b" preserveAspectRatio="none" viewBox="0 0 100 100"/></defs><g class="Viewport" color="black"  name="Name: Tumor suppressor activity of SMARCB1 Organism: Homo sapiens"><rect class="Icon" width="1017.8" height="721.24" fill="#fff" stroke="#000" stroke-width="0"/><g id="i" class="Interaction" color="#000" ><g color="#000" fill="transparent"  filter="url(#a)" stroke="#000" stroke-dasharray="43.00000000000017, 7"><path class="EdgeBody" d="m263.03 324.92h50"   marker-end="url(#c)" /></g></g><g id="j" class="Interaction" color="#000" ><g color="#000" fill="transparent"  filter="url(#a)" stroke="#000" stroke-dasharray="5.04, 3.02, 5.04, 3.02, 5.04, 3.02, 5.04, 3.02, 5.04, 3.02, 5.04, 3.02, 5.04, 3.02, 5.04, 3.02, 5.04, 3.02, 5.04, 3.02, 5.04, 3.02, 5.04, 3.02, 5.04, 3.02, 5.04, 3.02, 5.04, 3.02, 5.04, 3.02, 5.04, 3.02, 5.04, 3.02, 5.04, 3.02, 5.04, 3.02, 5.04, 3.02, 5.04, 3.02, 5.04, 3.02, 5.04, 3.02, 5.04, 3.02, 5.04, 3.02, 5.04, 3.02, 5.04, 3.02, 5.04, 3.02, 5.04, 3.02, 5.04, 3.02, 5.04, 3.02, 5.04, 3.02, 5.04, 3.02, 5.04, 3.02, 5.04, 3.02, 5.04, 3.02, 5.04, 3.02, 5.04, 3.02, 5.04, 3.02, 5.04, 3.02, 5.04, 3.02, 0, 7"><path class="EdgeBody" d="m456.03 245.02v20h273.5v49.198"   marker-end="url(#c)" /></g></g><g id="k" class="Interaction" color="#000" ><g color="#000" fill="transparent"  filter="url(#a)" stroke="#000" stroke-dasharray="156.55497557467697, 7"><path class="EdgeBody" d="m456.03 245.02v117.55h46"   marker-end="url(#c)" /></g></g><g id="l" class="Interaction" color="#000" ><g color="#000" fill="transparent"  filter="url(#a)" stroke="#000" stroke-dasharray="43.21506682867562, 7"><path class="EdgeBody" d="m729.53 507 1e-13 50.215"   marker-end="url(#c)" /></g></g><g id="m" class="Interaction" color="#000" ><g color="#000" fill="transparent"  filter="url(#a)" stroke="#000" stroke-dasharray="285.40191435018744, 7"><path class="EdgeBody" d="m456.03 245.02v20h-225v47.402"   marker-end="url(#c)" /></g></g><g id="n" class="DirectedInteraction" color="#000" ><g color="#000" fill="transparent"  filter="url(#a)" stroke="#000" stroke-dasharray="64.19999999999995, 5.8"><path class="EdgeBody" d="m345.03 337.42v70"   marker-end="url(#d)" /></g></g><g id="o" class="Interaction" color="#000" ><g color="#000" fill="transparent"  filter="url(#a)" stroke="#000" stroke-dasharray="23.78493317132444, 7"><path class="EdgeBody" d="m729.53 451.21v30.785"   marker-end="url(#c)" /></g></g><g id="p" class="DirectedInteraction" color="#000" ><g color="#000" fill="transparent"  filter="url(#a)" stroke="#000" stroke-dasharray="46.220029207452306, 5.8"><path class="EdgeBody" d="m79.618 345.07-0.24737 52.019"   marker-end="url(#d)" /></g></g><g id="q" class="Interaction" color="#000" ><g color="#000" fill="transparent"  filter="url(#a)" stroke="#000" stroke-dasharray="161.50000000000017, 11"><path class="EdgeBody" d="m313.03 427.92h-82v-90.5"   marker-end="url(#h)" /></g></g><g id="r" class="DirectedInteraction" color="#000" ><g color="#000" fill="transparent"  filter="url(#a)" stroke="#000" stroke-dasharray="36.77377263109328, 5.8"><path class="EdgeBody" d="m345.03 523.42-0.77096 42.567"   marker-end="url(#d)" /></g></g><g id="s" class="Interaction" color="#000" ><g color="#000" fill="transparent"  filter="url(#a)" stroke="#000" stroke-dasharray="81.05183979777581, 7"><path class="EdgeBody" d="m534.03 375.07-0.5 88.05"   marker-end="url(#c)" /></g></g><g id="t" class="Interaction" color="#000" ><g color="#000" fill="transparent"  filter="url(#a)" stroke="#000" stroke-dasharray="39, 7"><path class="EdgeBody" d="m729.53 339.21v46"   marker-end="url(#c)" /></g></g><g id="u" class="Interaction" color="#000" ><g color="#000" fill="transparent"  filter="url(#a)" stroke="#000" stroke-dasharray="444.46313883998323, 7"><path class="EdgeBody" d="m456.03 245.02v20h-376.41l-2e-14 55.055"   marker-end="url(#c)" /></g></g><g id="v" class="Interaction" color="#000" ><g color="#000" fill="transparent"  filter="url(#a)" stroke="#000" stroke-dasharray="44.000000000000114, 7"><path class="EdgeBody" d="m533.53 529.12v51"   marker-end="url(#c)" /></g></g><g id="w" class="Interaction" color="#000" ><g color="#000" fill="transparent"  filter="url(#a)" stroke="#000" stroke-dasharray="24.72092954536565, 0"><path class="EdgeBody" d="m455.89 195.3 0.13973 24.721"   /></g></g><g id="x" class="Interaction" color="#000" ><g color="#000" fill="transparent"  filter="url(#a)" stroke="#000" stroke-dasharray="171.40191435018727, 7"><path class="EdgeBody" d="m456.03 245.02v20h-111v47.402"   marker-end="url(#c)" /></g></g><g class="Label" transform="translate(488.53 580.12)" color="#000"  name="Transcription"><use class="Icon" width="90" height="25" fill="transparent"  stroke="#000" stroke-width="0" xlink:href="#b"/><text class="Text" transform="translate(45,16.5)"   font-size="12px" font-weight="bold"  text-anchor="middle"><tspan x="0" y="0">Transcription</tspan></text></g><g class="Label" transform="translate(304.53 220.02)" color="#000"  name="Chromatin remodeling / transctiptional regulation"><use class="Icon" width="303" height="25" fill="transparent"  stroke="#000" stroke-width="0" xlink:href="#b"/><text class="Text" transform="translate(151.5,16.5)"   font-size="12px" font-weight="bold"  text-anchor="middle"><tspan x="0" y="0">Chromatin remodeling / transctiptional regulation</tspan></text></g><g class="Label" transform="translate(273.53 627.31)" color="#000"  name="Proliferation Apoptosis suppression"><use class="Icon" width="142" height="25" fill="transparent"  stroke="#000" stroke-width="0" xlink:href="#b"/><text class="Text" transform="translate(71,16.5)"   font-size="12px" font-weight="bold"  text-anchor="middle"><tspan x="0" y="-6.6000000000000005">Proliferation</tspan> <tspan x="0" y="6.6000000000000005">Apoptosis suppression</tspan></text></g><g class="GroupComplex" transform="translate(464.53 288.07)" color="grey" ><use class="Icon" transform="matrix(.99342 0 0 .99 .49671 .495)" width="150.99999999999983" height="99" fill="#b4b464" fill-opacity=".1" stroke="grey" xlink:href="#e"/><a  class="GeneProduct RBBP4 " transform="translate(12,37)"   name="RBBP4"  ><rect class="Icon" transform="matrix(.98438 0 0 .96154 .49219 .48077)" width="63" height="25" fill="#fff" stroke="#000"/><text class="Text" transform="translate(31.5,16.5)"   font-size="12px"  text-anchor="middle"><tspan x="0" y="0">RBBP4</tspan></text></a><a  class="GeneProduct SUZ12 " transform="translate(42.5 12)"   name="SUZ12"  ><rect class="Icon" transform="matrix(.98462 0 0 .96154 .49231 .48077)" width="64" height="25" fill="#fff" stroke="#000"/><text class="Text" transform="translate(32,16.5)"   font-size="12px"  text-anchor="middle"><tspan x="0" y="0">SUZ12</tspan></text></a><a  class="GeneProduct EED " transform="translate(75 37)"   name="EED"  ><rect class="Icon" transform="matrix(.98462 0 0 .96154 .49231 .48077)" width="64" height="25" fill="#fff" stroke="#000"/><text class="Text" transform="translate(32,16.5)"   font-size="12px"  text-anchor="middle"><tspan x="0" y="0">EED</tspan></text></a><a  class="GeneProduct EZH2 " transform="translate(37.5 62)"   name="EZH2"  ><rect class="Icon" transform="matrix(.98462 0 0 .96154 .49231 .48077)" width="64" height="25" fill="#fff" stroke="#000"/><text class="Text" transform="translate(32,16.5)"   font-size="12px"  text-anchor="middle"><tspan x="0" y="0">EZH2</tspan></text></a></g><a class="WikiPathways_WP428 Pathway " transform="translate(34.618 320.07)" color="#14961e"  name="Canonical  Wnt Signaling"  ><use class="Icon" width="90" height="25" fill="transparent"  stroke="#14961e" stroke-width="0" xlink:href="#b"/><text class="Text" transform="translate(45,16.5)" fill="#14961e"  font-size="12px" font-weight="bold" stroke="black" stroke-width="0" text-anchor="middle"><tspan x="0" y="-6.6000000000000005">Canonical </tspan> <tspan x="0" y="6.6000000000000005">Wnt Signaling</tspan></text></a><g class="GroupComplex" transform="translate(299.39 14.296)" color="grey" ><use class="Icon" transform="matrix(.99682 0 0 .99451 .49841 .49725)" width="312.9999999999996" height="181" fill="#b4b464" fill-opacity=".1" stroke="grey" xlink:href="#e"/><a  class="GeneProduct DPF1 " transform="translate(252 52)"   name="DPF1"  ><rect class="Icon" transform="matrix(.98 0 0 .96154 .49 .48077)" width="49" height="25" fill="#fff" stroke="#000"/><text class="Text" transform="translate(24.5,16.5)"   font-size="12px"  text-anchor="middle"><tspan x="0" y="0">DPF1</tspan></text></a><a  class="GeneProduct SMARCC2 " transform="translate(72,59)"   name="SMARCC2"  ><rect class="Icon" transform="matrix(.98901 0 0 .96154 .49451 .48077)" width="90" height="25" fill="#fff" stroke="#000"/><text class="Text" transform="translate(45,16.5)"   font-size="12px"  text-anchor="middle"><tspan x="0" y="0">SMARCC2</tspan></text></a><a  class="GeneProduct SMARCB1 " transform="translate(116 84)"   name="SMARCB1"  ><rect class="Icon" transform="matrix(.98901 0 0 .96154 .49451 .48077)" width="90" height="25" fill="#fff" stroke="#000"/><g class="Burr State" transform="translate(-2.8333 -5.1667)" color="#000" ><use class="Icon" transform="matrix(.9375 0 0 .9375 .46875 .46875)" width="15" height="15" fill="#fff" stroke="#000" xlink:href="#f"/></g><text class="Text" transform="translate(45,16.5)"   font-size="12px"  text-anchor="middle"><tspan x="0" y="0">SMARCB1</tspan></text></a><a  class="GeneProduct ARID1A " transform="translate(207 12)"   name="ARID1A"  ><rect class="Icon" transform="matrix(.98 0 0 .96154 .49 .48077)" width="49" height="25" fill="#fff" stroke="#000"/><text class="Text" transform="translate(24.5,16.5)"   font-size="12px"  text-anchor="middle"><tspan x="0" y="0">ARID1A</tspan></text></a><a  class="GeneProduct SMARCA4 " transform="translate(117 34)"   name="SMARCA4"  ><rect class="Icon" transform="matrix(.98901 0 0 .96154 .49451 .48077)" width="90" height="25" fill="#fff" stroke="#000"/><text class="Text" transform="translate(45,16.5)"   font-size="12px"  text-anchor="middle"><tspan x="0" y="0">SMARCA4</tspan></text></a><a  class="GeneProduct SMARCC1 " transform="translate(162 59)"   name="SMARCC1"  ><rect class="Icon" transform="matrix(.98901 0 0 .96154 .49451 .48077)" width="90" height="25" fill="#fff" stroke="#000"/><text class="Text" transform="translate(45,16.5)"   font-size="12px"  text-anchor="middle"><tspan x="0" y="0">SMARCC1</tspan></text></a><a  class="GeneProduct ACTL6A " transform="translate(12 44)"   name="ACTL6A"  ><rect class="Icon" transform="matrix(.98361 0 0 .96154 .4918 .48077)" width="60" height="25" fill="#fff" stroke="#000"/><text class="Text" transform="translate(30,16.5)"   font-size="12px"  text-anchor="middle"><tspan x="0" y="0">ACTL6A</tspan></text></a><a  class="GeneProduct ACTL6B " transform="translate(12,69)"   name="ACTL6B"  ><rect class="Icon" transform="matrix(.98361 0 0 .96154 .4918 .48077)" width="60" height="25" fill="#fff" stroke="#000"/><text class="Text" transform="translate(30,16.5)"   font-size="12px"  text-anchor="middle"><tspan x="0" y="0">ACTL6B</tspan></text></a><a  class="GeneProduct DPF2 " transform="translate(252 77)"   name="DPF2"  ><rect class="Icon" transform="matrix(.98 0 0 .96154 .49 .48077)" width="49" height="25" fill="#fff" stroke="#000"/><text class="Text" transform="translate(24.5,16.5)"   font-size="12px"  text-anchor="middle"><tspan x="0" y="0">DPF2</tspan></text></a><a  class="GeneProduct DPF3 " transform="translate(252 102)"   name="DPF3"  ><rect class="Icon" transform="matrix(.98 0 0 .96154 .49 .48077)" width="49" height="25" fill="#fff" stroke="#000"/><text class="Text" transform="translate(24.5,16.5)"   font-size="12px"  text-anchor="middle"><tspan x="0" y="0">DPF3</tspan></text></a><a  class="GeneProduct SMARCE1 " transform="translate(186 108)"   name="SMARCE1"  ><rect class="Icon" transform="matrix(.98485 0 0 .96154 .49242 .48077)" width="65" height="25" fill="#fff" stroke="#000"/><text class="Text" transform="translate(32.5,16.5)"   font-size="12px"  text-anchor="middle"><tspan x="0" y="0">SMARCE1</tspan></text></a><a  class="GeneProduct SMARCD1 " transform="translate(54,94)"   name="SMARCD1"  ><rect class="Icon" transform="matrix(.98485 0 0 .96154 .49242 .48077)" width="65" height="25" fill="#fff" stroke="#000"/><text class="Text" transform="translate(32.5,16.5)"   font-size="12px"  text-anchor="middle"><tspan x="0" y="0">SMARCD1</tspan></text></a><a  class="GeneProduct SMARCD2 " transform="translate(54 119)"   name="SMARCD2"  ><rect class="Icon" transform="matrix(.98485 0 0 .96154 .49242 .48077)" width="65" height="25" fill="#fff" stroke="#000"/><text class="Text" transform="translate(32.5,16.5)"   font-size="12px"  text-anchor="middle"><tspan x="0" y="0">SMARCD2</tspan></text></a><a  class="GeneProduct SMARCD3 " transform="translate(54,144)"   name="SMARCD3"  ><rect class="Icon" transform="matrix(.98485 0 0 .96154 .49242 .48077)" width="65" height="25" fill="#fff" stroke="#000"/><text class="Text" transform="translate(32.5,16.5)"   font-size="12px"  text-anchor="middle"><tspan x="0" y="0">SMARCD3</tspan></text></a><a  class="GeneProduct ARID1B " transform="translate(208 37)"   name="ARID1B"  ><rect class="Icon" transform="matrix(.98 0 0 .96154 .49 .48077)" width="49" height="25" fill="#fff" stroke="#000"/><text class="Text" transform="translate(24.5,16.5)"   font-size="12px"  text-anchor="middle"><tspan x="0" y="0">ARID1B</tspan></text></a></g><a  class="GeneProduct PTCH1 " transform="translate(199.03 312.42)"   name="PTCH1"  ><rect class="Icon" transform="matrix(.98462 0 0 .96154 .49231 .48077)" width="64" height="25" fill="#fff" stroke="#000"/><text class="Text" transform="translate(32,16.5)"   font-size="12px"  text-anchor="middle"><tspan x="0" y="0">PTCH1</tspan></text></a><a  class="GeneProduct RB1 " transform="translate(704.03 482)"   name="RB1"  ><rect class="Icon" transform="matrix(.98077 0 0 .96154 .49038 .48077)" width="51" height="25" fill="#fff" stroke="#000"/><text class="Text" transform="translate(25.5,16.5)"   font-size="12px"  text-anchor="middle"><tspan x="0" y="0">RB1</tspan></text></a><a  class="GeneProduct SMO " transform="translate(313.03 312.42)"   name="SMO"  ><rect class="Icon" transform="matrix(.98462 0 0 .96154 .49231 .48077)" width="64" height="25" fill="#fff" stroke="#000"/><text class="Text" transform="translate(32,16.5)"   font-size="12px"  text-anchor="middle"><tspan x="0" y="0">SMO</tspan></text></a><g class="GroupGroup" transform="translate(305.03 407.42)" color="grey" ><use class="Icon" width="80" height="115.99999999999994" fill="transparent"  stroke="grey" stroke-dasharray="5,3" stroke-width="0" xlink:href="#b"/><a  class="GeneProduct GLI1 " transform="translate(8,8)"   name="GLI1"  ><rect class="Icon" transform="matrix(.98462 0 0 .96154 .49231 .48077)" width="64" height="25" fill="#fff" stroke="#000"/><text class="Text" transform="translate(32,16.5)"   font-size="12px"  text-anchor="middle"><tspan x="0" y="0">GLI1</tspan></text></a><a  class="GeneProduct GLI2 " transform="translate(8,33)"   name="GLI2"  ><rect class="Icon" transform="matrix(.98462 0 0 .96154 .49231 .48077)" width="64" height="25" fill="#fff" stroke="#000"/><text class="Text" transform="translate(32,16.5)"   font-size="12px"  text-anchor="middle"><tspan x="0" y="0">GLI2</tspan></text></a><a  class="GeneProduct GLI3 " transform="translate(8,58)"   name="GLI3"  ><rect class="Icon" transform="matrix(.98462 0 0 .96154 .49231 .48077)" width="64" height="25" fill="#fff" stroke="#000"/><text class="Text" transform="translate(32,16.5)"   font-size="12px"  text-anchor="middle"><tspan x="0" y="0">GLI3</tspan></text></a><a  class="GeneProduct GLI4 " transform="translate(8,83)"   name="GLI4"  ><rect class="Icon" transform="matrix(.98462 0 0 .96154 .49231 .48077)" width="64" height="25" fill="#fff" stroke="#000"/><text class="Text" transform="translate(32,16.5)"   font-size="12px"  text-anchor="middle"><tspan x="0" y="0">GLI4</tspan></text></a></g><a class="WikiPathways_WP4249 Pathway " transform="translate(259.75 666.24)" color="#14961e"  name="Hedgehog Signaling"  ><use class="Icon" width="176" height="25" fill="transparent"  stroke="#14961e" stroke-width="0" xlink:href="#b"/><text class="Text" transform="translate(88,16.5)" fill="#14961e"  font-size="12px" font-weight="bold" stroke="black" stroke-width="0" text-anchor="middle"><tspan x="0" y="0">Hedgehog Signaling</tspan></text></a><g class="Pathway" transform="translate(466.53 615.62)" color="#14961e"  name="Polycomb pathway"><use class="Icon" width="134" height="25" fill="transparent"  stroke="#14961e" stroke-width="0" xlink:href="#b"/><text class="Text" transform="translate(67,16.5)" fill="#14961e"  font-size="12px" font-weight="bold" stroke="black" stroke-width="0" text-anchor="middle"><tspan x="0" y="0">Polycomb pathway</tspan></text></g><g class="GroupGroup" transform="translate(493.53 463.12)" color="grey" ><use class="Icon" width="80" height="66" fill="transparent"  stroke="grey" stroke-dasharray="5,3" stroke-width="0" xlink:href="#b"/><a  class="GeneProduct H3F3B " transform="translate(8,33)"   name="H3F3B"  ><rect class="Icon" transform="matrix(.98462 0 0 .96154 .49231 .48077)" width="64" height="25" fill="#fff" stroke="#000"/><g class="Burr State" transform="translate(52.95 8.0614)" color="#000"  name="Me"><use class="Icon" transform="matrix(.95238 0 0 .95238 .47619 .47619)" width="20" height="20" fill="#fff" stroke="#000" xlink:href="#g"/><text class="Text" transform="translate(10,13)"   font-size="10px"  text-anchor="middle"><tspan x="0" y="0">Me</tspan></text></g><text class="Text" transform="translate(32,16.5)"   font-size="12px"  text-anchor="middle"><tspan x="0" y="0">H3F3B</tspan></text></a><a  class="GeneProduct H3F3A " transform="translate(8,8)"   name="H3F3A"  ><rect class="Icon" transform="matrix(.98462 0 0 .96154 .49231 .48077)" width="64" height="25" fill="#fff" stroke="#000"/><g class="Burr State" transform="translate(52.785 -5.3044)" color="#000"  name="Me"><use class="Icon" transform="matrix(.95238 0 0 .95238 .47619 .47619)" width="20" height="20" fill="#fff" stroke="#000" xlink:href="#g"/><text class="Text" transform="translate(10,13)"   font-size="10px"  text-anchor="middle"><tspan x="0" y="0">Me</tspan></text></g><text class="Text" transform="translate(32,16.5)"   font-size="12px"  text-anchor="middle"><tspan x="0" y="0">H3F3A</tspan></text></a></g><a class="WikiPathways_WP179 Pathway " transform="translate(662.53 596.14)" color="#14961e"  name="Cell Cycle"  ><use class="Icon" width="134" height="25" fill="transparent"  stroke="#14961e" stroke-width="0" xlink:href="#b"/><text class="Text" transform="translate(67,16.5)" fill="#14961e"  font-size="12px" font-weight="bold" stroke="black" stroke-width="0" text-anchor="middle"><tspan x="0" y="0">Cell Cycle</tspan></text></a><a  class="GeneProduct CDKN2A " transform="translate(697.53 314.21)"   name="CDKN2A"  ><rect class="Icon" transform="matrix(.98462 0 0 .96154 .49231 .48077)" width="64" height="25" fill="#fff" stroke="#000"/><text class="Text" transform="translate(32,16.5)"   font-size="12px"  text-anchor="middle"><tspan x="0" y="0">CDKN2A</tspan></text></a><g class="GroupGroup" transform="translate(689.53 385.21)" color="grey" ><use class="Icon" width="80" height="66" fill="transparent"  stroke="grey" stroke-dasharray="5,3" stroke-width="0" xlink:href="#b"/><a  class="GeneProduct CDK4 " transform="translate(8,8)"   name="CDK4"  ><rect class="Icon" transform="matrix(.98462 0 0 .96154 .49231 .48077)" width="64" height="25" fill="#fff" stroke="#000"/><text class="Text" transform="translate(32,16.5)"   font-size="12px"  text-anchor="middle"><tspan x="0" y="0">CDK4</tspan></text></a><a  class="GeneProduct CDK6 " transform="translate(8,33)"   name="CDK6"  ><rect class="Icon" transform="matrix(.98462 0 0 .96154 .49231 .48077)" width="64" height="25" fill="#fff" stroke="#000"/><text class="Text" transform="translate(32,16.5)"   font-size="12px"  text-anchor="middle"><tspan x="0" y="0">CDK6</tspan></text></a></g><g class="Label" transform="translate(674.53 557.21)" color="#000"  name="G0/G1 transition"><use class="Icon" width="110" height="25" fill="transparent"  stroke="#000" stroke-width="0" xlink:href="#b"/><text class="Text" transform="translate(55,16.5)"   font-size="12px" font-weight="bold"  text-anchor="middle"><tspan x="0" y="0">G0/G1 transition</tspan></text></g><g class="Label" transform="translate(34.371 397.09)" color="#000"  name="Transcription"><use class="Icon" width="90" height="25" fill="transparent"  stroke="#000" stroke-width="0" xlink:href="#b"/><text class="Text" transform="translate(45,16.5)"   font-size="12px" font-weight="bold"  text-anchor="middle"><tspan x="0" y="0">Transcription</tspan></text></g><g class="Label" transform="translate(299.26 565.99)" color="#000"  name="Transcription"><use class="Icon" width="90" height="25" fill="transparent"  stroke="#000" stroke-width="0" xlink:href="#b"/><text class="Text" transform="translate(45,16.5)"   font-size="12px" font-weight="bold"  text-anchor="middle"><tspan x="0" y="0">Transcription</tspan></text></g><g id="y" class="DirectedInteraction" color="#000" ><g color="#000" fill="transparent"  filter="url(#a)" stroke="#000" stroke-dasharray="30.527293178382973, 5.8"><path class="EdgeBody" d="m344.26 590.99 0.27096 36.326"   marker-end="url(#d)" /></g></g><g class="SingleFreeNode Shape" transform="translate(741.53 67.075)" color="#000" ><use class="Icon" transform="matrix(.95746 0 0 .95746 .47873 .47873)" width="22.504690431519705" height="22.50469043151969" fill="transparent"  stroke="#000" xlink:href="#f"/></g><g class="SingleFreeNode Shape" transform="translate(719.01 38.238)" color="#000"  name="Legend"><rect class="Icon" transform="matrix(.99521 0 0 .98531 .4976 .49266)" width="207.66" height="67.096" fill="transparent"  stroke="#000"/><text class="Text" transform="translate(8 18.6)"   font-size="12px" font-weight="bold" ><tspan x="0" y="0">Legend</tspan></text></g><g class="Label" transform="translate(774.07 64.566)" color="#000"  name="Inactivating mutation"><use class="Icon" width="142.56097560975616" height="25" fill="transparent"  stroke="#000" stroke-width="0" xlink:href="#b"/><text class="Text" transform="translate(71.28 16.5)"   font-size="12px" font-weight="bold"  text-anchor="middle"><tspan x="0" y="0">Inactivating mutation</tspan></text></g><text class="Text" transform="translate(5,27)" dominant-baseline="central" fill="black"  font-size="12px" font-weight="bold" overflow="visible" ><tspan x="0" y="-9">Name: Tumor suppressor activity of SMARCB1</tspan> <tspan x="0" y="9">Organism: Homo sapiens</tspan></text></g></svg>
