<?xml version="1.0" encoding="UTF-8"?>
<!--
  WikiPathways page: https://www.wikipathways.org/index.php/Pathway:WP438
  URL for this compressed file: https://github.com/eweitz/cachome/tree/main/data/wikipathways/WP438.svg
  Source code for compression: https://github.com/eweitz/cachome/tree/main/src/wikipathways.py
-->
<svg class="Diagram" width="800" height="600" color="black" baseProfile="full" prefix="schema:http://schema.org/" preserveAspectRatio="xMidYMid" version="1.1" viewBox="0 0 1040 804.81" vocab="http://vocabularies.wikipathways.org/wp#" xmlns="http://www.w3.org/2000/svg" xmlns:xlink="http://www.w3.org/1999/xlink"><style>svg {font-family: 'Liberation Sans', Arial, sans-serif; }</style><defs><filter id="a" x="0" y="0" width="1040" height="804.81" filterUnits="userSpaceOnUse"><feColorMatrix in="SourceGraphic" values="-1   0   0 0 0                   0  -1   0 0 0                   0   0  -1 0 0                   0   0   0 1 0"/></filter><filter id="c" x="0" y="0" width="1040" height="804.81" filterUnits="userSpaceOnUse"><feColorMatrix in="SourceGraphic" values="-1   0   0 0 0                   0  -1   0 0 0                   0   0  -1 0 1                   0   0   0 1 0"/></filter><marker id="f" stroke-dasharray="99999" markerHeight="12" markerUnits="userSpaceOnUse" markerWidth="12" orient="auto" preserveAspectRatio="none" refX="12" refY="6" viewBox="0 0 12 12"><path transform="rotate(180 6 6)" d="M12 11L0 6l12-5z" fill="currentColor" stroke-width="0"/></marker><marker id="d" stroke-dasharray="99999" markerHeight="12" markerUnits="userSpaceOnUse" markerWidth="12" orient="auto" preserveAspectRatio="none" refX="12" refY="6" viewBox="0 0 12 12"><circle transform="rotate(180 6 6)" cx="6" cy="6" r="5.3" fill="none" stroke="#000"/></marker><symbol id="g" overflow="visible" preserveAspectRatio="none" viewBox="0 0 50 50"><ellipse cx="25" cy="25" rx="25" ry="25" stroke="currentColor" vector-effect="non-scaling-stroke"/></symbol><symbol id="e" overflow="visible" preserveAspectRatio="none" viewBox="0 0 100 100"><path d="M0 25L25 0h50l25 25v50l-25 25H25L0 75z" stroke="currentColor" vector-effect="non-scaling-stroke"/></symbol><symbol id="b" preserveAspectRatio="none" viewBox="0 0 100 100"/></defs><g class="Viewport" color="black"  name="Name: Non-homologous end joining Organism: Homo sapiens"><rect class="Icon" width="1040" height="804.81" fill="#fff" stroke="#000" stroke-width="0"/><g id="h" class="DirectedInteraction" color="#000" ><g color="#000" fill="transparent"  filter="url(#a)" stroke="#000" stroke-dasharray="302.2990215061016, 5.8"><path class="EdgeBody" d="m661.1 358.63 80.895 69.37v99l-80.895 63"   marker-end="url(#f)" /></g><g class="Burr Anchor" transform="translate(742 475.28)" ><use class="Icon" width="0" height="0" fill="#141414" stroke-width="0" xlink:href="#b"/></g></g><g id="i" class="Interaction" color="#000" ><g color="#000" fill="transparent"  filter="url(#a)" stroke="#000" stroke-dasharray="6.612392205073657, 11"><path class="EdgeBody" d="m398.39 466.77 17.612-0.072034"   marker-end="url(#d)" /></g></g><g id="j" class="Interaction" color="#000" ><g color="#000" fill="transparent"  filter="url(#a)" stroke="#000" stroke-dasharray="7.2447364106456185, 11"><path class="EdgeBody" d="m577.16 477.77 18.243 0.22959"   marker-end="url(#d)" /></g></g><g id="k" class="Interaction" color="#000" ><g color="#000" fill="transparent"  filter="url(#a)" stroke="#000" stroke-dasharray="42.50510205993325, 11"><path class="EdgeBody" d="m648.91 275.07-53.505 0.0014303"   marker-end="url(#d)" /></g></g><g id="l" class="Interaction" color="#000" ><g color="#000" fill="transparent"  filter="url(#a)" stroke="#000" stroke-dasharray="8.971071667108038, 11"><path class="EdgeBody" d="m761.97 475.02-19.969 0.25934"   marker-end="url(#d)" /></g></g><g id="m" class="DirectedInteraction" color="#000" ><g color="#000" fill="transparent"  filter="url(#a)" stroke="#000" stroke-dasharray="128.2722865840453, 5.8"><path class="EdgeBody" d="m595.4 619.63-0.27721 134.07"   marker-end="url(#f)" /></g><g class="Burr Anchor" transform="translate(595.28 681.47)" ><use class="Icon" width="0" height="0" fill="#141414" stroke-width="0" xlink:href="#b"/></g><g class="Burr Anchor" transform="translate(595.23 704)" ><use class="Icon" width="0" height="0" fill="#141414" stroke-width="0" xlink:href="#b"/></g></g><g class="GroupGroup" transform="translate(464,41)" color="grey" ><use class="Icon" width="262.80612244897975" height="29.629999999999995" fill="transparent"  stroke="grey" stroke-dasharray="5,3" stroke-width="0" xlink:href="#b"/><g id="n" class="Edge GraphicalLine" color="#00f" ><g color="#00f" fill="transparent"  filter="url(#c)" stroke="#000" stroke-dasharray="40.04629629629653, 0" stroke-width="2"><path class="EdgeBody" d="m8 8h40.046"   /></g></g><g id="o" class="Edge GraphicalLine" color="#000" ><g color="#000" fill="transparent"  filter="url(#a)" stroke="#000" stroke-dasharray="50.04629629629653, 0" stroke-width="2"><path class="EdgeBody" d="m8 21.63h50.046"   /></g></g><g id="p" class="Edge GraphicalLine" color="#00f" ><g color="#00f" fill="transparent"  filter="url(#c)" stroke="#000" stroke-dasharray="187.085034013606, 0" stroke-width="2"><path class="EdgeBody" d="m67.721 8h187.09"   /></g></g><g id="q" class="Edge GraphicalLine" color="#000" ><g color="#000" fill="transparent"  filter="url(#a)" stroke="#000" stroke-dasharray="176.58491156476163, 0" stroke-width="2"><path class="EdgeBody" d="m78.221 21.63 176.58 2.1863e-4"   /></g></g></g><g id="r" class="DirectedInteraction" color="#000" ><g color="#000" fill="transparent"  filter="url(#a)" stroke="#000" stroke-dasharray="103.57000000000001, 5.8"><path class="EdgeBody" d="m595.4 70.63v109.37"   marker-end="url(#f)" /></g><g class="Burr Anchor" transform="translate(595.4 128)" ><use class="Icon" width="0" height="0" fill="#141414" stroke-width="0" xlink:href="#b"/></g></g><g id="s" class="Interaction" color="#000" ><g color="#000" fill="transparent"  filter="url(#a)" stroke="#000" stroke-dasharray="20.22865701255952, 11"><path class="EdgeBody" d="m564 703.95 31.229 0.051493"   marker-end="url(#d)" /></g></g><g id="t" class="Interaction" color="#000" ><g color="#000" fill="transparent"  filter="url(#a)" stroke="#000" stroke-dasharray="30.72500618589632, 11"><path class="EdgeBody" d="m637 681.33-41.725 0.13385"   marker-end="url(#d)" /></g></g><g id="u" class="Interaction" color="#000" ><g color="#000" fill="transparent"  filter="url(#a)" stroke="#000" stroke-dasharray="26.546012849584258, 11"><path class="EdgeBody" d="m632.95 128h-37.546"   marker-end="url(#d)" /></g></g><g class="Label" transform="translate(216,374.5)" color="#000"  name="Alt 1: Processing with Artemis"><use class="Icon" width="194" height="25" fill="transparent"  stroke="#000" stroke-width="0" xlink:href="#b"/><text class="Text" transform="translate(97,16.5)"   font-size="12px" font-weight="bold"  text-anchor="middle"><tspan x="0" y="0">Alt 1: Processing with Artemis</tspan></text></g><g class="Label" transform="translate(320.7 126.26)" color="#000"  name="End binding"><use class="Icon" width="90" height="25" fill="transparent"  stroke="#000" stroke-width="0" xlink:href="#b"/><text class="Text" transform="translate(45,16.5)"   font-size="12px" font-weight="bold"  text-anchor="middle"><tspan x="0" y="0">End binding</tspan></text></g><g class="GroupComplex" transform="translate(632.95 78.5)" color="grey" ><use class="Icon" transform="matrix(.98841 0 0 .99 .4942 .495)" width="85.2685185185187" height="99" fill="#b4b464" fill-opacity=".1" stroke="grey" xlink:href="#e"/><a  class="GeneProduct WRN " transform="translate(12,62)"   name="WRN"  ><rect class="Icon" transform="matrix(.98394 0 0 .96154 .49197 .48077)" width="61.269" height="25" fill="#fff" stroke="#000"/><text class="Text" transform="translate(30.634 16.5)"   font-size="12px"  text-anchor="middle"><tspan x="0" y="0">WRN</tspan></text></a><a  class="GeneProduct XRCC5 " transform="translate(12,12)"   name="XRCC5"  ><rect class="Icon" transform="matrix(.98394 0 0 .96154 .49197 .48077)" width="61.269" height="25" fill="#fff" stroke="#000"/><text class="Text" transform="translate(30.634 16.5)"   font-size="12px"  text-anchor="middle"><tspan x="0" y="0">XRCC5</tspan></text></a><a  class="GeneProduct XRCC6 " transform="translate(12,37)"   name="XRCC6"  ><rect class="Icon" transform="matrix(.98394 0 0 .96154 .49197 .48077)" width="61.269" height="25" fill="#fff" stroke="#000"/><text class="Text" transform="translate(30.634 16.5)"   font-size="12px"  text-anchor="middle"><tspan x="0" y="0">XRCC6</tspan></text></a></g><g class="GroupComplex" transform="translate(648.91 225.57)" color="grey" ><use class="Icon" transform="matrix(.99339 0 0 .99 .4967 .495)" width="150.30942932728658" height="98.99999999999994" fill="#b4b464" fill-opacity=".1" stroke="grey" xlink:href="#e"/><a  class="GeneProduct PRKDC " transform="translate(12,12)"   name="PRKDC"  ><rect class="Icon" transform="matrix(.98483 0 0 .96154 .49242 .48077)" width="64.937" height="25" fill="#fff" stroke="#000"/><g class="Burr State" transform="translate(52.437 -4.5)" color="#000"  name="P"><use class="Icon" transform="matrix(.9375 0 0 .9375 .46875 .46875)" width="15" height="15" fill="#fff" stroke="#000" xlink:href="#g"/><text class="Text" transform="translate(7.5,10.5)"   font-size="10px"  text-anchor="middle"><tspan x="0" y="0">P</tspan></text></g><text class="Text" transform="translate(32.469 16.5)"   font-size="12px"  text-anchor="middle"><tspan x="0" y="0">PRKDC</tspan></text></a><a  class="GeneProduct XRCC5 " transform="translate(12,37)"   name="XRCC5"  ><rect class="Icon" transform="matrix(.98483 0 0 .96154 .49242 .48077)" width="64.937" height="25" fill="#fff" stroke="#000"/><text class="Text" transform="translate(32.469 16.5)"   font-size="12px"  text-anchor="middle"><tspan x="0" y="0">XRCC5</tspan></text></a><a  class="GeneProduct XRCC6 " transform="translate(12 62)"   name="XRCC6"  ><rect class="Icon" transform="matrix(.98483 0 0 .96154 .49242 .48077)" width="64.937" height="25" fill="#fff" stroke="#000"/><text class="Text" transform="translate(32.469 16.5)"   font-size="12px"  text-anchor="middle"><tspan x="0" y="0">XRCC6</tspan></text></a><a  class="GeneProduct WRN " transform="translate(77.041 36.929)"   name="WRN"  ><rect class="Icon" transform="matrix(.98394 0 0 .96154 .49197 .48077)" width="61.269" height="25" fill="#fff" stroke="#000"/><text class="Text" transform="translate(30.634 16.5)"   font-size="12px"  text-anchor="middle"><tspan x="0" y="0">WRN</tspan></text></a></g><g id="v" class="DirectedInteraction" color="#000" ><g color="#000" fill="transparent"  filter="url(#a)" stroke="#000" stroke-dasharray="113.57000000000001, 5.8"><path class="EdgeBody" d="m595.4 209.63v119.37"   marker-end="url(#f)" /></g><g class="Burr Anchor" transform="translate(595.4 275.07)" ><use class="Icon" width="0" height="0" fill="#141414" stroke-width="0" xlink:href="#b"/></g></g><g class="Label" transform="translate(292 260.42)" color="#000"  name="Auto-phosphorylation and  end processing"><use class="Icon" width="163.7040816326533" height="25" fill="transparent"  stroke="#000" stroke-width="0" xlink:href="#b"/><text class="Text" transform="translate(81.852 16.5)"   font-size="12px" font-weight="bold"  text-anchor="middle"><tspan x="0" y="-6.6000000000000005">Auto-phosphorylation and </tspan> <tspan x="0" y="6.6000000000000005">end processing</tspan></text></g><g class="Label" transform="translate(92.704 446.89)" color="#000"  name="Gap filling"><use class="Icon" width="90" height="25" fill="transparent"  stroke="#000" stroke-width="0" xlink:href="#b"/><text class="Text" transform="translate(45,16.5)"   font-size="12px" font-weight="bold"  text-anchor="middle"><tspan x="0" y="0">Gap filling</tspan></text></g><g class="GroupComplex" transform="translate(761.97 425.52)" color="grey" ><use class="Icon" transform="matrix(.99292 0 0 .99 .49646 .495)" width="140.1648715041572" height="99" fill="#b4b464" fill-opacity=".1" stroke="grey" xlink:href="#e"/><a  class="GeneProduct XRCC5 " transform="translate(12,37)"   name="XRCC5"  ><rect class="Icon" transform="matrix(.98183 0 0 .96154 .49091 .48077)" width="54.031" height="25" fill="#fff" stroke="#000"/><text class="Text" transform="translate(27.015 16.5)"   font-size="12px"  text-anchor="middle"><tspan x="0" y="0">XRCC5</tspan></text></a><a  class="GeneProduct XRCC6 " transform="translate(12,62)"   name="XRCC6"  ><rect class="Icon" transform="matrix(.98183 0 0 .96154 .49091 .48077)" width="54.031" height="25" fill="#fff" stroke="#000"/><text class="Text" transform="translate(27.015 16.5)"   font-size="12px"  text-anchor="middle"><tspan x="0" y="0">XRCC6</tspan></text></a><a  class="GeneProduct PRKDC " transform="translate(12,12)"   name="PRKDC"  ><rect class="Icon" transform="matrix(.98183 0 0 .96154 .49091 .48077)" width="54.031" height="25" fill="#fff" stroke="#000"/><g class="Burr State" transform="translate(46.531 -6.5)" color="#000"  name="P"><use class="Icon" transform="matrix(.9375 0 0 .9375 .46875 .46875)" width="15" height="15" fill="#fff" stroke="#000" xlink:href="#g"/><text class="Text" transform="translate(7.5,10.5)"   font-size="10px"  text-anchor="middle"><tspan x="0" y="0">P</tspan></text></g><text class="Text" transform="translate(27.015 16.5)"   font-size="12px"  text-anchor="middle"><tspan x="0" y="0">PRKDC</tspan></text></a><a  class="GeneProduct POLL " transform="translate(66.896 29.031)"   name="POLL"  ><rect class="Icon" transform="matrix(.98394 0 0 .96154 .49197 .48077)" width="61.269" height="25" fill="#fff" stroke="#000"/><text class="Text" transform="translate(30.634 16.5)"   font-size="12px"  text-anchor="middle"><tspan x="0" y="0">POLL</tspan></text></a><a  class="GeneProduct WRN " transform="translate(66.896 54.031)"   name="WRN"  ><rect class="Icon" transform="matrix(.98394 0 0 .96154 .49197 .48077)" width="61.269" height="25" fill="#fff" stroke="#000"/><text class="Text" transform="translate(30.634 16.5)"   font-size="12px"  text-anchor="middle"><tspan x="0" y="0">WRN</tspan></text></a></g><g class="GroupGroup" transform="translate(466.83 753.7)" color="grey" ><use class="Icon" width="256.58503401360525" height="29.11130380544273" fill="transparent"  stroke="grey" stroke-dasharray="5,3" stroke-width="0" xlink:href="#b"/><g id="w" class="Edge GraphicalLine" color="#00f" ><g color="#00f" fill="transparent"  filter="url(#c)" stroke="#000" stroke-dasharray="51.21296296308352, 0" stroke-width="2"><path class="EdgeBody" d="m8 8.0002 51.213 1.1111e-4"   /></g></g><g id="x" class="Edge GraphicalLine" color="#000" ><g color="#000" fill="transparent"  filter="url(#a)" stroke="#000" stroke-dasharray="50.71296296296299, 0" stroke-width="2"><path class="EdgeBody" d="m8.5 21.111h50.713"   /></g></g><g id="y" class="Edge GraphicalLine" color="#00f" ><g color="#00f" fill="transparent"  filter="url(#c)" stroke="#000" stroke-dasharray="187.08503401370524, 0" stroke-width="2"><path class="EdgeBody" d="m61.5 8.0002 187.09-1.9269e-4"   /></g></g><g id="z" class="Edge GraphicalLine" color="#000" ><g color="#000" fill="transparent"  filter="url(#a)" stroke="#000" stroke-dasharray="186.58503401385332, 0" stroke-width="2"><path class="EdgeBody" d="m61 21.111 186.59-3.0381e-4"   /></g></g></g><g class="GroupComplex" transform="translate(637 634.58)" color="grey" ><use class="Icon" transform="matrix(.99296 0 0 .99 .49648 .495)" width="140.95058578987073" height="99" fill="#b4b464" fill-opacity=".1" stroke="grey" xlink:href="#e"/><a  class="GeneProduct XRCC5 " transform="translate(12,37)"   name="XRCC5"  ><rect class="Icon" transform="matrix(.98229 0 0 .96154 .49114 .48077)" width="55.458" height="25" fill="#fff" stroke="#000"/><text class="Text" transform="translate(27.729 16.5)"   font-size="12px"  text-anchor="middle"><tspan x="0" y="0">XRCC5</tspan></text></a><a  class="GeneProduct XRCC6 " transform="translate(12,62)"   name="XRCC6"  ><rect class="Icon" transform="matrix(.98229 0 0 .96154 .49114 .48077)" width="55.458" height="25" fill="#fff" stroke="#000"/><text class="Text" transform="translate(27.729 16.5)"   font-size="12px"  text-anchor="middle"><tspan x="0" y="0">XRCC6</tspan></text></a><a  class="GeneProduct PRKDC " transform="translate(12,12)"   name="PRKDC"  ><rect class="Icon" transform="matrix(.98229 0 0 .96154 .49114 .48077)" width="55.458" height="25" fill="#fff" stroke="#000"/><g class="Burr State" transform="translate(47.958 -5.5)" color="#000"  name="P"><use class="Icon" transform="matrix(.9375 0 0 .9375 .46875 .46875)" width="15" height="15" fill="#fff" stroke="#000" xlink:href="#g"/><text class="Text" transform="translate(7.5,10.5)"   font-size="10px"  text-anchor="middle"><tspan x="0" y="0">P</tspan></text></g><text class="Text" transform="translate(27.729 16.5)"   font-size="12px"  text-anchor="middle"><tspan x="0" y="0">PRKDC</tspan></text></a><a  class="GeneProduct NHEJ1 " transform="translate(67.682 24.367)"   name="NHEJ1"  ><rect class="Icon" transform="matrix(.98394 0 0 .96154 .49197 .48077)" width="61.269" height="25" fill="#fff" stroke="#000"/><text class="Text" transform="translate(30.634 16.5)"   font-size="12px"  text-anchor="middle"><tspan x="0" y="0">NHEJ1</tspan></text></a><a  class="GeneProduct WRN " transform="translate(67.682 49.367)"   name="WRN"  ><rect class="Icon" transform="matrix(.98394 0 0 .96154 .49197 .48077)" width="61.269" height="25" fill="#fff" stroke="#000"/><text class="Text" transform="translate(30.634 16.5)"   font-size="12px"  text-anchor="middle"><tspan x="0" y="0">WRN</tspan></text></a></g><g class="GroupComplex" transform="translate(484.63 666.95)" color="grey" ><use class="Icon" transform="matrix(.98756 0 0 .98667 .49378 .49333)" width="79.36734693877725" height="74" fill="#b4b464" fill-opacity=".1" stroke="grey" xlink:href="#e"/><a  class="GeneProduct LIG4 " transform="translate(12,12)"   name="LIG4"  ><rect class="Icon" transform="matrix(.98226 0 0 .96154 .49113 .48077)" width="55.367" height="25" fill="#fff" stroke="#000"/><text class="Text" transform="translate(27.684 16.5)"   font-size="12px"  text-anchor="middle"><tspan x="0" y="0">LIG4</tspan></text></a><a  class="GeneProduct XRCC4 " transform="translate(12,37)"   name="XRCC4"  ><rect class="Icon" transform="matrix(.98226 0 0 .96154 .49113 .48077)" width="55.367" height="25" fill="#fff" stroke="#000"/><text class="Text" transform="translate(27.684 16.5)"   font-size="12px"  text-anchor="middle"><tspan x="0" y="0">XRCC4</tspan></text></a></g><g class="Label" transform="translate(290.32 671.97)" color="#404040"  name="Ligation"><use class="Icon" width="90" height="25" fill="transparent"  stroke="#404040" stroke-width="0" xlink:href="#b"/><text class="Text" transform="translate(45,16.5)" fill="#404040"  font-size="12px" font-weight="bold"  text-anchor="middle"><tspan x="0" y="0">Ligation</tspan></text></g><g class="GroupComplex" transform="translate(436.97 431.52)" color="grey" ><use class="Icon" transform="matrix(.99292 0 0 .99 .49646 .495)" width="140.19038170823774" height="99" fill="#b4b464" fill-opacity=".1" stroke="grey" xlink:href="#e"/><a  class="GeneProduct POLM " transform="translate(66.922 30.031)"   name="POLM"  ><rect class="Icon" transform="matrix(.98394 0 0 .96154 .49197 .48077)" width="61.269" height="25" fill="#fff" stroke="#000"/><text class="Text" transform="translate(30.634 16.5)"   font-size="12px"  text-anchor="middle"><tspan x="0" y="0">POLM</tspan></text></a><a  class="GeneProduct XRCC5 " transform="translate(12,37)"   name="XRCC5"  ><rect class="Icon" transform="matrix(.98183 0 0 .96154 .49091 .48077)" width="54.031" height="25" fill="#fff" stroke="#000"/><text class="Text" transform="translate(27.015 16.5)"   font-size="12px"  text-anchor="middle"><tspan x="0" y="0">XRCC5</tspan></text></a><a  class="GeneProduct XRCC6 " transform="translate(12,62)"   name="XRCC6"  ><rect class="Icon" transform="matrix(.98183 0 0 .96154 .49091 .48077)" width="54.031" height="25" fill="#fff" stroke="#000"/><text class="Text" transform="translate(27.015 16.5)"   font-size="12px"  text-anchor="middle"><tspan x="0" y="0">XRCC6</tspan></text></a><a  class="GeneProduct PRKDC " transform="translate(12,12)"   name="PRKDC"  ><rect class="Icon" transform="matrix(.98183 0 0 .96154 .49091 .48077)" width="54.031" height="25" fill="#fff" stroke="#000"/><g class="Burr State" transform="translate(46.531 -6.5)" color="#000"  name="P"><use class="Icon" transform="matrix(.9375 0 0 .9375 .46875 .46875)" width="15" height="15" fill="#fff" stroke="#000" xlink:href="#g"/><text class="Text" transform="translate(7.5,10.5)"   font-size="10px"  text-anchor="middle"><tspan x="0" y="0">P</tspan></text></g><text class="Text" transform="translate(27.015 16.5)"   font-size="12px"  text-anchor="middle"><tspan x="0" y="0">PRKDC</tspan></text></a><a  class="GeneProduct WRN " transform="translate(66.922 55.031)"   name="WRN"  ><rect class="Icon" transform="matrix(.98394 0 0 .96154 .49197 .48077)" width="61.269" height="25" fill="#fff" stroke="#000"/><text class="Text" transform="translate(30.634 16.5)"   font-size="12px"  text-anchor="middle"><tspan x="0" y="0">WRN</tspan></text></a></g><g class="GroupComplex" transform="translate(251.97 420.52)" color="grey" ><use class="Icon" transform="matrix(.99322 0 0 .99 .49661 .495)" width="146.41836734693942" height="99" fill="#b4b464" fill-opacity=".1" stroke="grey" xlink:href="#e"/><a  class="GeneProduct DCLRE1C " transform="translate(65.886 24.51)"   name="DCLRE1C"  ><rect class="Icon" transform="matrix(.98562 0 0 .96154 .49281 .48077)" width="68.532" height="25" fill="#fff" stroke="#000"/><text class="Text" transform="translate(34.266 16.5)"   font-size="12px"  text-anchor="middle"><tspan x="0" y="0">DCLRE1C</tspan></text></a><a  class="GeneProduct XRCC5 " transform="translate(12,37)"   name="XRCC5"  ><rect class="Icon" transform="matrix(.98183 0 0 .96154 .49091 .48077)" width="54.031" height="25" fill="#fff" stroke="#000"/><text class="Text" transform="translate(27.015 16.5)"   font-size="12px"  text-anchor="middle"><tspan x="0" y="0">XRCC5</tspan></text></a><a  class="GeneProduct XRCC6 " transform="translate(12,62)"   name="XRCC6"  ><rect class="Icon" transform="matrix(.98183 0 0 .96154 .49091 .48077)" width="54.031" height="25" fill="#fff" stroke="#000"/><text class="Text" transform="translate(27.015 16.5)"   font-size="12px"  text-anchor="middle"><tspan x="0" y="0">XRCC6</tspan></text></a><a  class="GeneProduct PRKDC " transform="translate(12,12)"   name="PRKDC"  ><rect class="Icon" transform="matrix(.98183 0 0 .96154 .49091 .48077)" width="54.031" height="25" fill="#fff" stroke="#000"/><g class="Burr State" transform="translate(46.531 -6.5)" color="#000"  name="P"><use class="Icon" transform="matrix(.9375 0 0 .9375 .46875 .46875)" width="15" height="15" fill="#fff" stroke="#000" xlink:href="#g"/><text class="Text" transform="translate(7.5,10.5)"   font-size="10px"  text-anchor="middle"><tspan x="0" y="0">P</tspan></text></g><text class="Text" transform="translate(27.015 16.5)"   font-size="12px"  text-anchor="middle"><tspan x="0" y="0">PRKDC</tspan></text></a><a  class="GeneProduct WRN " transform="translate(65.886 49.51)"   name="WRN"  ><rect class="Icon" transform="matrix(.98562 0 0 .96154 .49281 .48077)" width="68.532" height="25" fill="#fff" stroke="#000"/><text class="Text" transform="translate(34.266 16.5)"   font-size="12px"  text-anchor="middle"><tspan x="0" y="0">WRN</tspan></text></a></g><g class="Label" transform="translate(308 57.255)" color="#000"  name="Double-strand break"><use class="Icon" width="129.70408163265324" height="25.744897959183675" fill="transparent"  stroke="#000" stroke-width="0" xlink:href="#b"/><text class="Text" transform="translate(64.852 16.872)"   font-size="12px" font-weight="bold"  text-anchor="middle"><tspan x="0" y="0">Double-strand break</tspan></text></g><g class="GroupGroup" transform="translate(464,180)" color="grey" ><use class="Icon" width="262.80612244897975" height="29.629999999999995" fill="transparent"  stroke="grey" stroke-dasharray="5,3" stroke-width="0" xlink:href="#b"/><g id="aa" class="Edge GraphicalLine" color="#00f" ><g color="#00f" fill="transparent"  filter="url(#c)" stroke="#000" stroke-dasharray="40.04629629629653, 0" stroke-width="2"><path class="EdgeBody" d="m8 8h40.046"   /></g></g><g id="ab" class="Edge GraphicalLine" color="#000" ><g color="#000" fill="transparent"  filter="url(#a)" stroke="#000" stroke-dasharray="50.04629629629653, 0" stroke-width="2"><path class="EdgeBody" d="m8 21.63h50.046"   /></g></g><g id="ac" class="Edge GraphicalLine" color="#00f" ><g color="#00f" fill="transparent"  filter="url(#c)" stroke="#000" stroke-dasharray="187.085034013606, 0" stroke-width="2"><path class="EdgeBody" d="m67.721 8h187.09"   /></g></g><g id="ad" class="Edge GraphicalLine" color="#000" ><g color="#000" fill="transparent"  filter="url(#a)" stroke="#000" stroke-dasharray="176.58491156476163, 0" stroke-width="2"><path class="EdgeBody" d="m78.221 21.63 176.58 2.1863e-4"   /></g></g></g><g class="GroupGroup" transform="translate(464,329)" color="grey" ><use class="Icon" width="262.80612244897975" height="29.629999999999995" fill="transparent"  stroke="grey" stroke-dasharray="5,3" stroke-width="0" xlink:href="#b"/><g id="ae" class="Edge GraphicalLine" color="#00f" ><g color="#00f" fill="transparent"  filter="url(#c)" stroke="#000" stroke-dasharray="40.04629629629653, 0" stroke-width="2"><path class="EdgeBody" d="m8 8h40.046"   /></g></g><g id="af" class="Edge GraphicalLine" color="#000" ><g color="#000" fill="transparent"  filter="url(#a)" stroke="#000" stroke-dasharray="50.04629629629653, 0" stroke-width="2"><path class="EdgeBody" d="m8 21.63h50.046"   /></g></g><g id="ag" class="Edge GraphicalLine" color="#00f" ><g color="#00f" fill="transparent"  filter="url(#c)" stroke="#000" stroke-dasharray="187.085034013606, 0" stroke-width="2"><path class="EdgeBody" d="m67.721 8h187.09"   /></g></g><g id="ah" class="Edge GraphicalLine" color="#000" ><g color="#000" fill="transparent"  filter="url(#a)" stroke="#000" stroke-dasharray="176.58491156476163, 0" stroke-width="2"><path class="EdgeBody" d="m78.221 21.63 176.58 2.1863e-4"   /></g></g></g><g class="GroupGroup" transform="translate(464,590)" color="grey" ><use class="Icon" width="262.80612244897975" height="29.629999999999995" fill="transparent"  stroke="grey" stroke-dasharray="5,3" stroke-width="0" xlink:href="#b"/><g id="ai" class="Edge GraphicalLine" color="#00f" ><g color="#00f" fill="transparent"  filter="url(#c)" stroke="#000" stroke-dasharray="40.04629629629653, 0" stroke-width="2"><path class="EdgeBody" d="m8 8h40.046"   /></g></g><g id="aj" class="Edge GraphicalLine" color="#000" ><g color="#000" fill="transparent"  filter="url(#a)" stroke="#000" stroke-dasharray="50.04629629629653, 0" stroke-width="2"><path class="EdgeBody" d="m8 21.63h50.046"   /></g></g><g id="ak" class="Edge GraphicalLine" color="#00f" ><g color="#00f" fill="transparent"  filter="url(#c)" stroke="#000" stroke-dasharray="187.085034013606, 0" stroke-width="2"><path class="EdgeBody" d="m67.721 8h187.09"   /></g></g><g id="al" class="Edge GraphicalLine" color="#000" ><g color="#000" fill="transparent"  filter="url(#a)" stroke="#000" stroke-dasharray="176.58491156476163, 0" stroke-width="2"><path class="EdgeBody" d="m78.221 21.63 176.58 2.1863e-4"   /></g></g></g><g id="am" class="DirectedInteraction" color="#000" ><g color="#000" fill="transparent"  filter="url(#a)" stroke="#000" stroke-dasharray="359.98244832563324, 5.8"><path class="EdgeBody" d="m529.7 358.63-113.7 58.37v106l113.7 67"   marker-end="url(#f)" /></g><g class="Burr Anchor" transform="translate(416 466.7)" ><use class="Icon" width="0" height="0" fill="#141414" stroke-width="0" xlink:href="#b"/></g></g><g id="an" class="DirectedInteraction" color="#000" ><g color="#000" fill="transparent"  filter="url(#a)" stroke="#000" stroke-dasharray="225.57, 5.8"><path class="EdgeBody" d="m595.4 358.63v231.37"   marker-end="url(#f)" /></g><g class="Burr Anchor" transform="translate(595.4 471.73)" ><use class="Icon" width="0" height="0" fill="#141414" stroke-width="0" xlink:href="#b"/></g><g class="Burr Anchor" transform="translate(595.4 478)" ><use class="Icon" width="0" height="0" fill="#141414" stroke-width="0" xlink:href="#b"/></g></g><g class="Label" transform="translate(471,390.5)" color="#000"  name="Alt 2: Processing with polymerase mu"><use class="Icon" width="234" height="25" fill="transparent"  stroke="#000" stroke-width="0" xlink:href="#b"/><text class="Text" transform="translate(117,16.5)"   font-size="12px" font-weight="bold"  text-anchor="middle"><tspan x="0" y="0">Alt 2: Processing with polymerase mu</tspan></text></g><g class="Label" transform="translate(743,377.5)" color="#000"  name="Alt 3: Processing with polymerase lambda"><use class="Icon" width="267" height="25" fill="transparent"  stroke="#000" stroke-width="0" xlink:href="#b"/><text class="Text" transform="translate(133.5,16.5)"   font-size="12px" font-weight="bold"  text-anchor="middle"><tspan x="0" y="0">Alt 3: Processing with polymerase lambda</tspan></text></g><text class="Text" transform="translate(5,27)" dominant-baseline="central" fill="black"  font-size="12px" font-weight="bold" overflow="visible" ><tspan x="0" y="-9">Name: Non-homologous end joining</tspan> <tspan x="0" y="9">Organism: Homo sapiens</tspan></text></g></svg>
