<?xml version="1.0" encoding="UTF-8"?>
<!--
  WikiPathways page: https://www.wikipathways.org/index.php/Pathway:WP4483
  URL for this compressed file: https://github.com/eweitz/cachome/tree/main/data/wikipathways/WP4483.svg
  Source code for compression: https://github.com/eweitz/cachome/tree/main/src/wikipathways.py
-->
<svg class="Diagram" width="800" height="600" color="black" baseProfile="full" prefix="schema:http://schema.org/" preserveAspectRatio="xMidYMid" version="1.1" viewBox="0 0 1453.2 1113.8" vocab="http://vocabularies.wikipathways.org/wp#" xmlns="http://www.w3.org/2000/svg" xmlns:xlink="http://www.w3.org/1999/xlink"><style>svg {font-family: 'Liberation Sans', Arial, sans-serif; }</style><defs><filter id="e" x="-50%" y="-50%" width="200%" height="200%"><feComposite in="SourceGraphic" in2="SourceGraphic" result="doubleDark"/><feMorphology in="doubleDark" operator="dilate" radius="0.16666666666666666" result="in2Double"/><feMorphology in="SourceGraphic" operator="dilate" radius="3" result="inDouble"/><feComposite in="inDouble" in2="in2Double" operator="out" result="doubleResult"/></filter><filter id="a" x="0" y="0" width="1453.2" height="1113.8" filterUnits="userSpaceOnUse"><feColorMatrix in="SourceGraphic" values="-1   0   0 0 0                   0  -1   0 0 0                   0   0  -1 0 0                   0   0   0 1 0"/></filter><marker id="b" stroke-dasharray="99999" markerHeight="12" markerUnits="userSpaceOnUse" markerWidth="12" orient="auto" preserveAspectRatio="none" refX="12" refY="6" viewBox="0 0 12 12"><path transform="rotate(180 6 6)" d="M12 11L0 6l12-5z" fill="currentColor" stroke-width="0"/></marker><symbol id="h" overflow="visible" preserveAspectRatio="none" viewBox="0 0 50 50"><ellipse cx="25" cy="25" rx="25" ry="25" stroke="currentColor" vector-effect="non-scaling-stroke"/></symbol><symbol id="g" overflow="visible" preserveAspectRatio="none" viewBox="0 0 100 100"><ellipse cx="50" cy="50" rx="50" ry="50" stroke="currentColor"/><path d="M14.895 26.347c4.364-.741 3.827 17.037 8.183 16.184 8.273.03 2.982-28.149 9.9-28.337 6.967-.187 2.246 29.948 9.204 29.44 7.633-.56.508-32.935 8.137-33.623 7.698-.689 2.919 32.04 10.628 32.225 6.547.16 3.026-27.643 9.56-26.921 7.193.793.665 29.842 7.782 31.667 4.748 1.216 4.42-18.258 9.204-17.44 11.129 7.577 8.628 37.698-2.18 44.644-3.138.699-3.966-10.502-7.113-9.905-5.59 1.059-3.982 22.284-9.603 21.8-5.24-.457-2.226-21.637-7.47-21.73-6.962-.117-3.358 28.924-10.317 28.495-6.14-.376-1.73-24.95-7.825-26.192-5.682-1.157-5.378 22.17-11.027 20.68-6.25-1.644-.47-26.673-6.76-27.865-3.728-.706-2.647 14.4-6.403 14.545-14.016-5.939-15.749-39.708-3.9-47.667z" stroke="currentColor" vector-effect="non-scaling-stroke"/></symbol><symbol id="c" overflow="visible" preserveAspectRatio="none" viewBox="0 0 100 100"><path d="M0 25L25 0h50l25 25v50l-25 25H25L0 75z" stroke="currentColor" vector-effect="non-scaling-stroke"/></symbol><symbol id="f" overflow="visible" preserveAspectRatio="none" viewBox="0 0 50 50"><path d="M14.5 3.3v43.4L61 25z" stroke="currentColor" vector-effect="non-scaling-stroke"/></symbol><symbol id="d" preserveAspectRatio="none" viewBox="0 0 100 100"/></defs><g class="Viewport" color="black"  name="Name: Relationship between inflammation, COX-2 and EGFR Organism: Homo sapiens"><rect class="Icon" width="1453.2" height="1113.8" fill="#fff" stroke="#000" stroke-width="0"/><g id="i" class="DirectedInteraction" color="#000" ><g color="#000" fill="transparent"  filter="url(#a)" stroke="#000" stroke-dasharray="87.92432131784399, 5.8"><path class="EdgeBody" d="m1313.9 588.4-0.28789 93.724"   marker-end="url(#b)" /></g><g class="Burr Anchor" transform="translate(1313.7 644.99)" ><use class="Icon" width="0" height="0" fill="#141414" stroke-width="0" xlink:href="#d"/></g></g><g id="j" class="Edge GraphicalLine" color="#000" ><g color="#000" fill="transparent"  filter="url(#a)" stroke="#000" stroke-dasharray="121, 0" stroke-width="2"><path class="EdgeBody" d="m746 980.46h121"   /></g></g><g id="k" class="DirectedInteraction" color="#000" ><g color="#000" fill="transparent"  filter="url(#a)" stroke="#000" stroke-dasharray="182.2366197183108, 5.8"><path class="EdgeBody" d="m500.68 666.94-1.4e-13 188.04"   marker-end="url(#b)" /></g><g class="Burr Anchor" transform="translate(500.68 802)" ><use class="Icon" width="0" height="0" fill="#141414" stroke-width="0" xlink:href="#d"/></g></g><g id="l" class="DirectedInteraction" color="#000" ><g color="#000" fill="transparent"  filter="url(#a)" stroke="#000" stroke-dasharray="48.94148816889161, 5.8"><path class="EdgeBody" d="m1313.6 773.75 0.068767 54.741"   marker-end="url(#b)" /></g><g class="Burr Anchor" transform="translate(1313.7 801)" ><use class="Icon" width="0" height="0" fill="#141414" stroke-width="0" xlink:href="#d"/></g></g><g id="m" class="DirectedInteraction" color="#000" ><g color="#000" fill="transparent"  filter="url(#a)" stroke="#000" stroke-dasharray="66.60817717300057, 5.8"><path class="EdgeBody" d="m684.6 756.35-45.983-55.933"   marker-end="url(#b)" /></g></g><g id="n" class="DirectedInteraction" color="#000" ><g color="#000" fill="transparent"  filter="url(#a)" stroke="#000" stroke-dasharray="44.5921674291998, 5.8"><path class="EdgeBody" d="m1313.7 848.49-0.040261 50.392"   marker-end="url(#b)" /></g></g><g id="o" class="DirectedInteraction" color="#000" ><g color="#000" fill="transparent"  filter="url(#a)" stroke="#000" stroke-dasharray="227.7265954862696, 5.8"><path class="EdgeBody" d="m1080.1 802.79 233.52-1.7894"   marker-end="url(#b)" /></g></g><g id="p" class="DirectedInteraction" color="#000" ><g color="#000" fill="transparent"  filter="url(#a)" stroke="#000" stroke-dasharray="114.6539431571432, 5.8"><path class="EdgeBody" d="m425.81 552.59 74.875 94.355"   marker-end="url(#b)" /></g></g><g id="q" class="DirectedInteraction" color="#000" ><g color="#000" fill="transparent"  filter="url(#a)" stroke="#000" stroke-dasharray="493.65032357134083, 5.8"><path class="EdgeBody" d="m1000.1 802.79-499.45-0.79359"   marker-end="url(#b)" /></g></g><g id="r" class="DirectedInteraction" color="#000" ><g color="#000" fill="transparent"  filter="url(#a)" stroke="#000" stroke-dasharray="65.56238169630109, 5.8"><path class="EdgeBody" d="m684.6 756.35 44.317-55.933"   marker-end="url(#b)" /></g></g><g id="s" class="DirectedInteraction" color="#000" ><g color="#000" fill="transparent"  filter="url(#a)" stroke="#000" stroke-dasharray="98.30281092185146, 5.8"><path class="EdgeBody" d="m720.13 874.2-35.533-97.851"   marker-end="url(#b)" /></g></g><g id="t" class="DirectedInteraction" color="#000" ><g color="#000" fill="transparent"  filter="url(#a)" stroke="#000" stroke-dasharray="45.21830985915604, 5.8"><path class="EdgeBody" d="m760.79 467.13 51.018 7e-14"   marker-end="url(#b)" /></g></g><g id="u" class="DirectedInteraction" color="#000" ><g color="#000" fill="transparent"  filter="url(#a)" stroke="#000" stroke-dasharray="77.95179611808005, 5.8"><path class="EdgeBody" d="m1119.8 461.61 18.443 81.696"   marker-end="url(#b)" /></g></g><g id="v" class="DirectedInteraction" color="#000" ><g color="#000" fill="transparent"  filter="url(#a)" stroke="#000" stroke-dasharray="59.518106113045064, 5.8"><path class="EdgeBody" d="m1093.3 312.3 0.4388 65.317"   marker-end="url(#b)" /></g></g><g id="w" class="DirectedInteraction" color="#000" ><g color="#000" fill="transparent"  filter="url(#a)" stroke="#000" stroke-dasharray="51.798003437620956, 5.8"><path class="EdgeBody" d="m728.92 680.41 35.7-45.2"   marker-end="url(#b)" /></g></g><g id="x" class="DirectedInteraction" color="#000" ><g color="#000" fill="transparent"  filter="url(#a)" stroke="#000" stroke-dasharray="248.91578199593044, 5.8"><path class="EdgeBody" d="m816.62 667.21-19.718 253.95"   marker-end="url(#b)" /></g></g><g id="y" class="DirectedInteraction" color="#000" ><g color="#000" fill="transparent"  filter="url(#a)" stroke="#000" stroke-dasharray="42.72447015198615, 5.8"><path class="EdgeBody" d="m1041.8 440.61-41.135 25.739"   marker-end="url(#b)" /></g></g><g id="z" class="DirectedInteraction" color="#000" ><g color="#000" fill="transparent"  filter="url(#a)" stroke="#000" stroke-dasharray="110.02255379102434, 5.8"><path class="EdgeBody" d="m636.62 360.07 44.174 107.07"   marker-end="url(#b)" /></g></g><g id="aa" class="DirectedInteraction" color="#000" ><g color="#000" fill="transparent"  filter="url(#a)" stroke="#000" stroke-dasharray="59.269773154269004, 5.8"><path class="EdgeBody" d="m1138.2 563.31-1e-12 65.07"   marker-end="url(#b)" /></g></g><g id="ab" class="DirectedInteraction" color="#000" ><g color="#000" fill="transparent"  filter="url(#a)" stroke="#000" stroke-dasharray="121.39600882249701, 5.8"><path class="EdgeBody" d="m1138.2 692.38-78.077 100.41"   marker-end="url(#b)" /></g></g><g id="ac" class="DirectedInteraction" color="#000" ><g color="#000" fill="transparent"  filter="url(#a)" stroke="#000" stroke-dasharray="117.72408647497258, 5.8"><path class="EdgeBody" d="m1190.2 644.38 123.52 0.60956"   marker-end="url(#b)" /></g></g><g id="ad" class="DirectedInteraction" color="#000" ><g color="#000" fill="transparent"  filter="url(#a)" stroke="#000" stroke-dasharray="89.21891405122773, 5.8"><path class="EdgeBody" d="m663.27 552.76 57.522-75.63"   marker-end="url(#b)" /></g></g><g id="ae" class="DirectedInteraction" color="#000" ><g color="#000" fill="transparent"  filter="url(#a)" stroke="#000" stroke-dasharray="62.45646489527664, 5.8"><path class="EdgeBody" d="m638.62 680.41 24.65-63.65"   marker-end="url(#b)" /></g></g><g id="af" class="DirectedInteraction" color="#000" ><g color="#000" fill="transparent"  filter="url(#a)" stroke="#000" stroke-dasharray="50.16842892827316, 5.8"><path class="EdgeBody" d="m974.63 570.35-1.4085 55.951"   marker-end="url(#b)" /></g></g><g id="ag" class="DirectedInteraction" color="#000" ><g color="#000" fill="transparent"  filter="url(#a)" stroke="#000" stroke-dasharray="89.09424811722802, 5.8"><path class="EdgeBody" d="m973.22 710.3 46.91 82.489"   marker-end="url(#b)" /></g></g><g class="SingleFreeNode Shape PhysicalEntity CellularComponent Mitochondria" transform="translate(1221.6 682.13)" color="#c0c0c0" ><use class="Icon" transform="matrix(.98397 0 0 .9683 1.4759 1.4524)" width="184.0931027656249" height="91.6265035625" fill="transparent"  stroke="#c0c0c0" stroke-width="3" xlink:href="#g"/></g><g class="SingleFreeNode Shape PhysicalEntity CellularComponent Cell" transform="translate(385.26 299.68)" color="#c0c0c0" ><g fill="transparent"  filter="url(#e)" stroke="#c0c0c0" stroke-width="3"><rect class="Icon" transform="matrix(.98859 0 0 .98496 5.9315 5.9097)" width="1039.4" height="785.62" rx="15" ry="15"   /></g></g><g class="SingleFreeNode Shape PhysicalEntity CellularComponent Nucleus" transform="translate(620.46 872.7)" color="#c0c0c0" ><g fill="transparent"  filter="url(#e)" stroke="#c0c0c0" stroke-width="3"><use class="Icon" transform="matrix(.97057 0 0 .9386 5.8234 5.6316)" width="395.7000000000001" height="183.4500000000001"    xlink:href="#h"/></g></g><g class="Label" transform="translate(776 993.96)" color="#000"  name="DNA"><use class="Icon" width="90" height="25" fill="transparent"  stroke="#000" stroke-width="0" xlink:href="#d"/><text class="Text" transform="translate(45,16.5)"   font-size="12px" font-weight="bold"  text-anchor="middle"><tspan x="0" y="0">DNA</tspan></text></g><g class="Label" transform="translate(266.59 496.99)" color="#000"  name="Stimulus"><use class="Icon" width="90" height="25" fill="transparent"  stroke="#000" stroke-width="0" xlink:href="#d"/><text class="Text" transform="translate(45,16.5)"   font-size="14px"  text-anchor="middle"><tspan x="0" y="0">Stimulus</tspan></text></g><g class="Label" transform="translate(745.45 1030.5)" color="#000"  name="Nucleus"><use class="Icon" width="90" height="25" fill="transparent"  stroke="#000" stroke-width="0" xlink:href="#d"/><text class="Text" transform="translate(45,15.5)"   font-size="9px"  text-anchor="middle"><tspan x="0" y="0">Nucleus</tspan></text></g><g class="Label" transform="translate(379.62 592.19)" color="#000"  name="PLA-2"><use class="Icon" width="90" height="25" fill="transparent"  stroke="#000" stroke-width="0" xlink:href="#d"/><text class="Text" transform="translate(45,16.5)"   font-size="12px"  text-anchor="middle"><tspan x="0" y="0">PLA-2</tspan></text></g><a  class="GeneProduct CYP19A1 " transform="translate(644.6 756.35)"   name="CYP19A1"  ><rect class="Icon" transform="matrix(.98765 0 0 .95238 .49383 .47619)" width="80" height="20" fill="#fff" stroke="#000"/><text class="Text" transform="translate(40,14)"   font-size="12px"  text-anchor="middle"><tspan x="0" y="0">CYP19A1</tspan></text></a><a  class="GeneProduct PTGES2 " transform="translate(460.68 854.98)"   name="PGE2"  ><rect class="Icon" transform="matrix(.98765 0 0 .95238 .49383 .47619)" width="80" height="20" fill="#fff" stroke="#000"/><text class="Text" transform="translate(40,14)"   font-size="12px"  text-anchor="middle"><tspan x="0" y="0">PGE2</tspan></text></a><a  class="GeneProduct BRAF " transform="translate(1098.2 543.31)"   name="BRAF"  ><rect class="Icon" transform="matrix(.98765 0 0 .95238 .49383 .47619)" width="80" height="20" fill="#fff" stroke="#000"/><text class="Text" transform="translate(40,14)"   font-size="12px"  text-anchor="middle"><tspan x="0" y="0">BRAF</tspan></text></a><a class="ChEBI_CHEBI_15843 Metabolite  " transform="translate(444.41 646.94)" color="#00f"  name="Arachidonic acid"  ><rect class="Icon" transform="matrix(.99119 0 0 .95238 .4956 .47619)" width="112.55" height="20" fill="#fff" stroke="#00f"/><text class="Text" transform="translate(56.275 14)" fill="#00f"  font-size="12px"  text-anchor="middle"><tspan x="0" y="0">Arachidonic acid</tspan></text></a><g class="NCBI_Protein_P01133 Protein" transform="translate(811.81 227.28)" color="#000"  name="EGF"><rect class="Icon" transform="matrix(.98765 0 0 .95238 .49383 .47619)" width="80" height="20" fill="#fff" stroke="#000"/><text class="Text" transform="translate(40,14)"   font-size="12px"  text-anchor="middle"><tspan x="0" y="0">EGF</tspan></text></g><a  class="GeneProduct PTGS2 " transform="translate(1000.1 792.79)"   name="COX-2"  ><rect class="Icon" transform="matrix(.98765 0 0 .95238 .49383 .47619)" width="80" height="20" fill="#fff" stroke="#000"/><text class="Text" transform="translate(40,14)"   font-size="12px"  text-anchor="middle"><tspan x="0" y="0">COX-2</tspan></text></a><a  class="GeneProduct EGFR " transform="translate(1053.3 292.3)"   name="EGFR"  ><rect class="Icon" transform="matrix(.98765 0 0 .95238 .49383 .47619)" width="80" height="20" fill="#fff" stroke="#000"/><text class="Text" transform="translate(40,14)"   font-size="12px"  text-anchor="middle"><tspan x="0" y="0">EGFR</tspan></text></a><a  class="GeneProduct MMP1 " transform="translate(811.81 457.13)"   name="MMP1"  ><rect class="Icon" transform="matrix(.98765 0 0 .95238 .49383 .47619)" width="80" height="20" fill="#fff" stroke="#000"/><text class="Text" transform="translate(40,14)"   font-size="12px"  text-anchor="middle"><tspan x="0" y="0">MMP1</tspan></text></a><a  class="GeneProduct SRC " transform="translate(680.79 457.13)"   name="Src"  ><rect class="Icon" transform="matrix(.98765 0 0 .95238 .49383 .47619)" width="80" height="20" fill="#fff" stroke="#000"/><text class="Text" transform="translate(40,14)"   font-size="12px"  text-anchor="middle"><tspan x="0" y="0">Src</tspan></text></a><g class="GroupComplex" transform="translate(1041.8 377.61)" color="grey" ><use class="Icon" transform="matrix(.99048 0 0 .98824 .49524 .49412)" width="104" height="83.99999999999989" fill="#b4b464" fill-opacity=".1" stroke="grey" xlink:href="#c"/><a  class="GeneProduct KRAS " transform="translate(12,12)"   name="KRAS"  ><rect class="Icon" transform="matrix(.98765 0 0 .95238 .49383 .47619)" width="80" height="20" fill="#fff" stroke="#000"/><text class="Text" transform="translate(40,14)"   font-size="12px"  text-anchor="middle"><tspan x="0" y="0">KRAS</tspan></text></a><a  class="GeneProduct NRAS " transform="translate(12 32)"   name="NRAS"  ><rect class="Icon" transform="matrix(.98765 0 0 .95238 .49383 .47619)" width="80" height="20" fill="#fff" stroke="#000"/><text class="Text" transform="translate(40,14)"   font-size="12px"  text-anchor="middle"><tspan x="0" y="0">NRAS</tspan></text></a><a  class="GeneProduct HRAS " transform="translate(12 52)"   name="HRAS"  ><rect class="Icon" transform="matrix(.98765 0 0 .95238 .49383 .47619)" width="80" height="20" fill="#fff" stroke="#000"/><text class="Text" transform="translate(40,14)"   font-size="12px"  text-anchor="middle"><tspan x="0" y="0">HRAS</tspan></text></a></g><g class="GroupComplex" transform="translate(922.63 466.35)" color="grey" ><use class="Icon" transform="matrix(.99048 0 0 .99048 .49524 .49524)" width="104" height="104.00000000000057" fill="#b4b464" fill-opacity=".1" stroke="grey" xlink:href="#c"/><a  class="GeneProduct PIK3CB " transform="translate(12 32)"   name="PI3KB"  ><rect class="Icon" transform="matrix(.98765 0 0 .95238 .49383 .47619)" width="80" height="20" fill="#fff" stroke="#000"/><text class="Text" transform="translate(40,14)"   font-size="12px"  text-anchor="middle"><tspan x="0" y="0">PI3KB</tspan></text></a><a  class="GeneProduct PIK3CD " transform="translate(12 52)"   name="PI3KD"  ><rect class="Icon" transform="matrix(.98765 0 0 .95238 .49383 .47619)" width="80" height="20" fill="#fff" stroke="#000"/><text class="Text" transform="translate(40,14)"   font-size="12px"  text-anchor="middle"><tspan x="0" y="0">PI3KD</tspan></text></a><a  class="GeneProduct PIK3CG " transform="translate(12 72)"   name="PI3KG"  ><rect class="Icon" transform="matrix(.98765 0 0 .95238 .49383 .47619)" width="80" height="20" fill="#fff" stroke="#000"/><text class="Text" transform="translate(40,14)"   font-size="12px"  text-anchor="middle"><tspan x="0" y="0">PI3KG</tspan></text></a><a  class="GeneProduct PIK3CA " transform="translate(12,12)"   name="PI3KA"  ><rect class="Icon" transform="matrix(.98765 0 0 .95238 .49383 .47619)" width="80" height="20" fill="#fff" stroke="#000"/><text class="Text" transform="translate(40,14)"   font-size="12px"  text-anchor="middle"><tspan x="0" y="0">PI3KA</tspan></text></a></g><g class="GroupComplex" transform="translate(1086.2 628.38)" color="grey" ><use class="Icon" transform="matrix(.99048 0 0 .98462 .49524 .49231)" width="104" height="64.00000000000011" fill="#b4b464" fill-opacity=".1" stroke="grey" xlink:href="#c"/><a  class="GeneProduct MAPK3 " transform="translate(12,12)"   name="ERK1"  ><rect class="Icon" transform="matrix(.98765 0 0 .95238 .49383 .47619)" width="80" height="20" fill="#fff" stroke="#000"/><text class="Text" transform="translate(40,14)"   font-size="12px"  text-anchor="middle"><tspan x="0" y="0">ERK1</tspan></text></a><a  class="GeneProduct MAPK1 " transform="translate(12 32)"   name="ERK2"  ><rect class="Icon" transform="matrix(.98765 0 0 .95238 .49383 .47619)" width="80" height="20" fill="#fff" stroke="#000"/><text class="Text" transform="translate(40,14)"   font-size="12px"  text-anchor="middle"><tspan x="0" y="0">ERK2</tspan></text></a></g><g class="GroupComplex" transform="translate(611.27 552.76)" color="grey" ><use class="Icon" transform="matrix(.99048 0 0 .98462 .49524 .49231)" width="104" height="64.00000000000023" fill="#b4b464" fill-opacity=".1" stroke="grey" xlink:href="#c"/><a  class="GeneProduct ESR1 " transform="translate(12 32)"   name="ESR1"  ><rect class="Icon" transform="matrix(.98765 0 0 .95238 .49383 .47619)" width="80" height="20" fill="#fff" stroke="#000"/><text class="Text" transform="translate(40,14)"   font-size="12px"  text-anchor="middle"><tspan x="0" y="0">ESR1</tspan></text></a><a class="ChEBI_CHEBI_606564 Metabolite  " transform="translate(12,12)" color="#00f"  name="E2"  ><rect class="Icon" transform="matrix(.98765 0 0 .95238 .49383 .47619)" width="80" height="20" fill="#fff" stroke="#00f"/><text class="Text" transform="translate(40,14)" fill="#00f"  font-size="12px"  text-anchor="middle"><tspan x="0" y="0">E2</tspan></text></a></g><g class="GroupComplex" transform="translate(921.22 626.3)" color="grey" ><use class="Icon" transform="matrix(.99048 0 0 .98824 .49524 .49412)" width="104" height="84.00000000000023" fill="#b4b464" fill-opacity=".1" stroke="grey" xlink:href="#c"/><a  class="GeneProduct AKT1 " transform="translate(12,12)"   name="AKT1"  ><rect class="Icon" transform="matrix(.98765 0 0 .95238 .49383 .47619)" width="80" height="20" fill="#fff" stroke="#000"/><text class="Text" transform="translate(40,14)"   font-size="12px"  text-anchor="middle"><tspan x="0" y="0">AKT1</tspan></text></a><a  class="GeneProduct AKT2 " transform="translate(12 32)"   name="AKT2"  ><rect class="Icon" transform="matrix(.98765 0 0 .95238 .49383 .47619)" width="80" height="20" fill="#fff" stroke="#000"/><text class="Text" transform="translate(40,14)"   font-size="12px"  text-anchor="middle"><tspan x="0" y="0">AKT2</tspan></text></a><a  class="GeneProduct AKT3 " transform="translate(12 52)"   name="AKT3"  ><rect class="Icon" transform="matrix(.98765 0 0 .95238 .49383 .47619)" width="80" height="20" fill="#fff" stroke="#000"/><text class="Text" transform="translate(40,14)"   font-size="12px"  text-anchor="middle"><tspan x="0" y="0">AKT3</tspan></text></a></g><g id="ah" class="Edge GraphicalLine" color="#000" ><g color="#000" fill="transparent"  filter="url(#a)" stroke="#000" stroke-dasharray="121, 0" stroke-width="2"><path class="EdgeBody" d="m756 990.46h121"   /></g></g><g class="GroupComplex" transform="translate(744.9 921.16)" color="grey" ><use class="Icon" transform="matrix(.99048 0 0 .98462 .49524 .49231)" width="104" height="63.999999999999886" fill="#b4b464" fill-opacity=".1" stroke="grey" xlink:href="#c"/><a  class="GeneProduct ESR1 " transform="translate(12 32)"   name="ESR1"  ><rect class="Icon" transform="matrix(.98765 0 0 .95238 .49383 .47619)" width="80" height="20" fill="#fff" stroke="#000"/><text class="Text" transform="translate(40,14)"   font-size="12px"  text-anchor="middle"><tspan x="0" y="0">ESR1</tspan></text></a><a class="ChEBI_CHEBI_606564 Metabolite  " transform="translate(12,12)" color="#00f"  name="E2"  ><rect class="Icon" transform="matrix(.98765 0 0 .95238 .49383 .47619)" width="80" height="20" fill="#fff" stroke="#00f"/><text class="Text" transform="translate(40,14)" fill="#00f"  font-size="12px"  text-anchor="middle"><tspan x="0" y="0">E2</tspan></text></a></g><a class="ChEBI_CHEBI_606564 Metabolite  " transform="translate(598.62 680.41)" color="#00f"  name="E2"  ><rect class="Icon" transform="matrix(.98765 0 0 .95238 .49383 .47619)" width="80" height="20" fill="#fff" stroke="#00f"/><text class="Text" transform="translate(40,14)" fill="#00f"  font-size="12px"  text-anchor="middle"><tspan x="0" y="0">E2</tspan></text></a><a class="ChEBI_CHEBI_606564 Metabolite  " transform="translate(688.92 680.41)" color="#00f"  name="E2"  ><rect class="Icon" transform="matrix(.98765 0 0 .95238 .49383 .47619)" width="80" height="20" fill="#fff" stroke="#00f"/><text class="Text" transform="translate(40,14)" fill="#00f"  font-size="12px"  text-anchor="middle"><tspan x="0" y="0">E2</tspan></text></a><g class="GroupComplex" transform="translate(764.62 603.21)" color="grey" ><use class="Icon" transform="matrix(.99048 0 0 .98462 .49524 .49231)" width="104" height="64.00000000000034" fill="#b4b464" fill-opacity=".1" stroke="grey" xlink:href="#c"/><a  class="GeneProduct ESR1 " transform="translate(12 32)"   name="ESR1"  ><rect class="Icon" transform="matrix(.98765 0 0 .95238 .49383 .47619)" width="80" height="20" fill="#fff" stroke="#000"/><text class="Text" transform="translate(40,14)"   font-size="12px"  text-anchor="middle"><tspan x="0" y="0">ESR1</tspan></text></a><a class="ChEBI_CHEBI_606564 Metabolite  " transform="translate(12,12)" color="#00f"  name="E2"  ><rect class="Icon" transform="matrix(.98765 0 0 .95238 .49383 .47619)" width="80" height="20" fill="#fff" stroke="#00f"/><text class="Text" transform="translate(40,14)" fill="#00f"  font-size="12px"  text-anchor="middle"><tspan x="0" y="0">E2</tspan></text></a></g><a  class="GeneProduct PTGES2 " transform="translate(1273.6 898.89)"   name="PGE2"  ><rect class="Icon" transform="matrix(.98765 0 0 .95238 .49383 .47619)" width="80" height="20" fill="#fff" stroke="#000"/><text class="Text" transform="translate(40,14)"   font-size="12px"  text-anchor="middle"><tspan x="0" y="0">PGE2</tspan></text></a><a  class="GeneProduct PLA1A " transform="translate(1275.9 568.4)"   name="cPLA"  ><rect class="Icon" transform="matrix(.987 0 0 .95238 .4935 .47619)" width="75.928" height="20" fill="#fff" stroke="#000"/><text class="Text" transform="translate(37.964 14)"   font-size="12px"  text-anchor="middle"><tspan x="0" y="0">cPLA</tspan></text></a><g class="GroupComplex" transform="translate(558.62 256.07)" color="grey" ><use class="Icon" transform="matrix(.99048 0 0 .99048 .49524 .49524)" width="104" height="103.99999999999983" fill="#b4b464" fill-opacity=".1" stroke="grey" xlink:href="#c"/><a  class="GeneProduct PTGER3 " transform="translate(12,52)"   name="PTGER3"  ><rect class="Icon" transform="matrix(.98765 0 0 .95238 .49383 .47619)" width="80" height="20" fill="#fff" stroke="#000"/><text class="Text" transform="translate(40,14)"   font-size="12px"  text-anchor="middle"><tspan x="0" y="0">PTGER3</tspan></text></a><a  class="GeneProduct PTGER2 " transform="translate(12 32)"   name="PTGER2"  ><rect class="Icon" transform="matrix(.98765 0 0 .95238 .49383 .47619)" width="80" height="20" fill="#fff" stroke="#000"/><text class="Text" transform="translate(40,14)"   font-size="12px"  text-anchor="middle"><tspan x="0" y="0">PTGER2</tspan></text></a><a  class="GeneProduct PTGER1 " transform="translate(12,12)"   name="PTGER1"  ><rect class="Icon" transform="matrix(.98765 0 0 .95238 .49383 .47619)" width="80" height="20" fill="#fff" stroke="#000"/><text class="Text" transform="translate(40,14)"   font-size="12px"  text-anchor="middle"><tspan x="0" y="0">PTGER1</tspan></text></a><a  class="GeneProduct PTGER4 " transform="translate(12 72)"   name="PTGER4"  ><rect class="Icon" transform="matrix(.98765 0 0 .95238 .49383 .47619)" width="80" height="20" fill="#fff" stroke="#000"/><text class="Text" transform="translate(40,14)"   font-size="12px"  text-anchor="middle"><tspan x="0" y="0">PTGER4</tspan></text></a></g><g id="ai" class="DirectedInteraction" color="#000" ><g color="#000" fill="transparent"  filter="url(#a)" stroke="#000" stroke-dasharray="204.05724440999109, 5.8"><path class="EdgeBody" d="m851.81 457.13 2e-13 -209.86"   marker-end="url(#b)" /></g></g><g class="SingleFreeNode Shape" transform="translate(311.8 477.96) rotate(20.367 50.798 44.793)" color="#000" ><use class="Icon" transform="matrix(.99025 0 0 .98896 .49513 .49448)" width="101.5969216100595" height="89.5854061712406" fill="transparent"  stroke="#000" xlink:href="#f"/></g><a class="ChEBI_CHEBI_15843 Metabolite  " transform="translate(1257.4 828.49)" color="#00f"  name="Arachidonic acid"  ><rect class="Icon" transform="matrix(.99119 0 0 .95238 .4956 .47619)" width="112.55" height="20" fill="#fff" stroke="#00f"/><text class="Text" transform="translate(56.275 14)" fill="#00f"  font-size="12px"  text-anchor="middle"><tspan x="0" y="0">Arachidonic acid</tspan></text></a><text class="Text" transform="translate(5,27)" dominant-baseline="central" fill="black"  font-size="12px" font-weight="bold" overflow="visible" ><tspan x="0" y="-9">Name: Relationship between inflammation, COX-2 and EGFR</tspan> <tspan x="0" y="9">Organism: Homo sapiens</tspan></text></g></svg>
