<?xml version="1.0" encoding="UTF-8"?>
<!--
  WikiPathways page: https://www.wikipathways.org/index.php/Pathway:WP4481
  URL for this compressed file: https://github.com/eweitz/cachome/tree/main/data/wikipathways/WP4481.svg
  Source code for compression: https://github.com/eweitz/cachome/tree/main/src/wikipathways.py
-->
<svg class="Diagram" width="800" height="600" color="black" baseProfile="full" prefix="schema:http://schema.org/" preserveAspectRatio="xMidYMid" version="1.1" viewBox="0 0 1623.7 1016.3" vocab="http://vocabularies.wikipathways.org/wp#" xmlns="http://www.w3.org/2000/svg" xmlns:xlink="http://www.w3.org/1999/xlink"><style>svg {font-family: 'Liberation Sans', Arial, sans-serif; }</style><defs><filter id="f" x="-50%" y="-50%" width="200%" height="200%"><feComposite in="SourceGraphic" in2="SourceGraphic" result="doubleDark"/><feMorphology in="doubleDark" operator="dilate" radius="0.16666666666666666" result="in2Double"/><feMorphology in="SourceGraphic" operator="dilate" radius="3" result="inDouble"/><feComposite in="inDouble" in2="in2Double" operator="out" result="doubleResult"/></filter><filter id="a" x="0" y="0" width="1623.7" height="1016.3" filterUnits="userSpaceOnUse"><feColorMatrix in="SourceGraphic" values="-1   0   0 0 0                   0  -1   0 0 0                   0   0  -1 0 0                   0   0   0 1 0"/></filter><marker id="b" stroke-dasharray="99999" markerHeight="12" markerUnits="userSpaceOnUse" markerWidth="12" orient="auto" preserveAspectRatio="none" refX="12" refY="6" viewBox="0 0 12 12"><path transform="rotate(180 6 6)" d="M12 11L0 6l12-5z" fill="currentColor" stroke-width="0"/></marker><symbol id="e" overflow="visible" preserveAspectRatio="none" viewBox="0 0 50 50"><ellipse cx="25" cy="25" rx="25" ry="25" stroke="currentColor" vector-effect="non-scaling-stroke"/></symbol><symbol id="h" overflow="visible" preserveAspectRatio="none" viewBox="0 0 100 100"><path d="M73.528 56.61c-5.625-18.607 23.514-32.434 23.401-45.066-.344-4.861-10.49-8.898-18.29-5.334C61.6 14.085 62.99 35.515 57.435 48.444c-.356 3.61-7.363 2.469-7.75-.487-5.85-11.39 17.136-24.487 5.961-29.426-19.634-8.17-28.752 21.153-22.068 28.818 7.496 14.176-2.18 24.406-6.747 15.496-2.442-5.306 6.066-11.084-.803-16.177-4.32-2.8-11.756-.646-16.155 3.094C-3.019 60.5 14.602 90.744 30.837 85.91c4.698-1.96-3.236-8.702 3.907-9.6 7.298-.812 5.176 6.19 7.687 9.227 2.307 4.051 4.833 8.355 10.763 11.624 4.786 2.537 15.294 2.112 16.771-1.958 2.032-9.263-26.11-28.359-10.689-31.282 18.556-2.714 4.749 23.846 24.31 29.695 9.502 2.028 15.64-.622 14.813-4.033-2.746-11.263-25.136-22.68-24.964-33.15" stroke="currentColor" vector-effect="non-scaling-stroke"/></symbol><symbol id="d" overflow="visible" preserveAspectRatio="none" viewBox="0 0 100 100"><path d="M0 25L25 0h50l25 25v50l-25 25H25L0 75z" stroke="currentColor" vector-effect="non-scaling-stroke"/></symbol><symbol id="g" overflow="visible" preserveAspectRatio="none" viewBox="0 0 50 50"><path d="M14.5 3.3v43.4L61 25z" stroke="currentColor" vector-effect="non-scaling-stroke"/></symbol><symbol id="c" preserveAspectRatio="none" viewBox="0 0 100 100"/></defs><g class="Viewport" color="black"  name="Name: Resistin as a regulator of inflammation Organism: Homo sapiens"><rect class="Icon" width="1623.7" height="1016.3" fill="#fff" stroke="#000" stroke-width="0"/><g id="i" class="Edge GraphicalLine" color="#000" ><g color="#000" fill="transparent"  filter="url(#a)" stroke="#000" stroke-dasharray="115.18656716417911, 0" stroke-width="2"><path class="EdgeBody" d="m868.84 707.57h115.19"   /></g></g><g id="j" class="DirectedInteraction" color="#000" ><g color="#000" fill="transparent"  filter="url(#a)" stroke="#000" stroke-dasharray="35.31367015341699, 5.8"><path class="EdgeBody" d="m941.6 269.3 0.25918 41.113"   marker-end="url(#b)" /></g></g><g id="k" class="DirectedInteraction" color="#000" ><g color="#000" fill="transparent"  filter="url(#a)" stroke="#000" stroke-dasharray="122.23962017558337, 5.8"><path class="EdgeBody" d="m941.86 340.43 55.882 115.2"   marker-end="url(#b)" /></g></g><g id="l" class="DirectedInteraction" color="#000" ><g color="#000" fill="transparent"  filter="url(#a)" stroke="#000" stroke-dasharray="208.29362682275234, 5.8"><path class="EdgeBody" d="m1105.4 504.97-136.98-164.53"   marker-end="url(#b)" /></g></g><g id="m" class="DirectedInteraction" color="#000" ><g color="#000" fill="transparent"  filter="url(#a)" stroke="#000" stroke-dasharray="72.16243340973635, 5.8"><path class="EdgeBody" d="m1419.6 583.84 65.39 42.453"   marker-end="url(#b)" /></g></g><g id="n" class="DirectedInteraction" color="#000" ><g color="#000" fill="transparent"  filter="url(#a)" stroke="#000" stroke-dasharray="233.38299882832942, 5.8"><path class="EdgeBody" d="m1088 266.42 17.39 238.55"   marker-end="url(#b)" /></g></g><g id="o" class="Interaction" color="#000" ><g color="#000" fill="transparent"  filter="url(#a)" stroke="#000" stroke-dasharray="28.44196088573474, 0"><path class="EdgeBody" d="m941.69 202.35 0.071436 28.442"   /></g></g><g id="p" class="DirectedInteraction" color="#000" ><g color="#000" fill="transparent"  filter="url(#a)" stroke="#000" stroke-dasharray="60.826983717310426, 5.8"><path class="EdgeBody" d="m941.86 340.43-40.711 52.742"   marker-end="url(#b)" /></g></g><g id="q" class="DirectedInteraction" color="#000" ><g color="#000" fill="transparent"  filter="url(#a)" stroke="#000" stroke-dasharray="261.6156118451084, 5.8"><path class="EdgeBody" d="m977.67 256.09 259.75 63.586"   marker-end="url(#b)" /></g></g><g id="r" class="DirectedInteraction" color="#000" ><g color="#000" fill="transparent"  filter="url(#a)" stroke="#000" stroke-dasharray="85.77525818577007, 5.8"><path class="EdgeBody" d="m1289.4 543.68 90.084 16.459"   marker-end="url(#b)" /></g></g><g id="s" class="DirectedInteraction" color="#000" ><g color="#000" fill="transparent"  filter="url(#a)" stroke="#000" stroke-dasharray="121.6730682914091, 5.8"><path class="EdgeBody" d="m923.56 269.3-109 66.087"   marker-end="url(#b)" /></g></g><g id="t" class="DirectedInteraction" color="#000" ><g color="#000" fill="transparent"  filter="url(#a)" stroke="#000" stroke-dasharray="93.93459344614641, 5.8"><path class="EdgeBody" d="m628.42 504.7-85.825 50.805"   marker-end="url(#b)" /></g></g><g id="u" class="DirectedInteraction" color="#000" ><g color="#000" fill="transparent"  filter="url(#a)" stroke="#000" stroke-dasharray="66.4737362340535, 5.8"><path class="EdgeBody" d="m710.56 377.38-36.139 62.59"   marker-end="url(#b)" /></g></g><g id="v" class="DirectedInteraction" color="#000" ><g color="#000" fill="transparent"  filter="url(#a)" stroke="#000" stroke-dasharray="133.93938211619775, 5.8"><path class="EdgeBody" d="m437.61 467.23-1.2633 139.73"   marker-end="url(#b)" /></g></g><g id="w" class="DirectedInteraction" color="#000" ><g color="#000" fill="transparent"  filter="url(#a)" stroke="#000" stroke-dasharray="448.9122902700163, 5.8"><path class="EdgeBody" d="m905.52 256.09-441.91 107.14"   marker-end="url(#b)" /></g></g><g id="x" class="DirectedInteraction" color="#000" ><g color="#000" fill="transparent"  filter="url(#a)" stroke="#000" stroke-dasharray="104.65197122620383, 5.8"><path class="EdgeBody" d="m628.42 504.7 107.64 24.75"   marker-end="url(#b)" /></g></g><g id="y" class="DirectedInteraction" color="#000" ><g color="#000" fill="transparent"  filter="url(#a)" stroke="#000" stroke-dasharray="88.59942748990748, 5.8"><path class="EdgeBody" d="m1498.3 645.33-54.367 77.171"   marker-end="url(#b)" /></g></g><g class="SingleFreeNode Shape" transform="translate(888.75 310.41)" color="#000" ><use class="Icon" transform="matrix(.99067 0 0 .96777 .49534 .48388)" width="106.21428571428595" height="30.02380952380952" fill="transparent"  stroke="#000" xlink:href="#e"/></g><g class="SingleFreeNode Shape" transform="translate(1379.5 548.28)" color="#000" ><use class="Icon" transform="matrix(.97568 0 0 .97934 .48784 .48967)" width="40.111706250000125" height="47.40474375000005" fill="transparent"  stroke="#000" xlink:href="#e"/></g><g class="SingleFreeNode Shape PhysicalEntity CellularComponent Nucleus" transform="translate(688.66 589.44)" color="#c0c0c0" ><g fill="transparent"  filter="url(#f)" stroke="#c0c0c0" stroke-width="3"><use class="Icon" transform="matrix(.96605 0 0 .94517 5.7963 5.671)" width="341.4675000000002" height="206.84731343283596"    xlink:href="#e"/></g></g><g class="SingleFreeNode Shape" transform="translate(832.54 877.48)" color="#000" ><rect class="Icon" transform="matrix(.99509 0 0 .99089 .49754 .49545)" width="202.58" height="108.82" fill="transparent"  stroke="#000"/></g><g class="SingleFreeNode Shape PhysicalEntity CellularComponent Cell" transform="translate(337.65 243.24)" color="#c0c0c0" ><g fill="transparent"  filter="url(#f)" stroke="#c0c0c0" stroke-width="3"><rect class="Icon" transform="matrix(.99052 0 0 .9804 5.9431 5.8824)" width="1253.5" height="600.26" rx="15" ry="15"   /></g></g><g class="SingleFreeNode Shape PhysicalEntity CellularComponent EndoplasmicReticulum" transform="translate(1309.4 626.29)" color="#c0c0c0" ><use class="Icon" transform="matrix(.98735 0 0 .98412 1.481 1.4762)" width="234.16417910447794" height="185.94402985074456" fill="transparent"  stroke="#c0c0c0" stroke-width="3" xlink:href="#h"/></g><g class="GroupGroup" transform="translate(1395.2 710.76)" color="grey" ><use class="Icon" width="48.647159823904985" height="46.950000000000045" fill="transparent"  stroke="grey" stroke-dasharray="5,3" stroke-width="0" xlink:href="#c"/><g class="SingleFreeNode Shape" transform="translate(8,8)" color="#000" ><use class="Icon" transform="matrix(.9697 0 0 .9687 .48485 .48435)" width="32.0000000000002" height="30.950000000000045" fill="transparent"  stroke="#000" xlink:href="#e"/></g><g class="Label" transform="translate(9.0687 12.588)" color="#000"  name="Ca2+"><use class="Icon" width="31.578478830395678" height="21.641138608798606" fill="transparent"  stroke="#000" stroke-width="0" xlink:href="#c"/><text class="Text" transform="translate(15.789 13.821)"   font-size="9px"  text-anchor="middle"><tspan x="0" y="0">Ca2+</tspan></text></g></g><g class="Label" transform="translate(817.04 765.83)" color="#000"  name="Nucleus"><use class="Icon" width="90" height="25" fill="transparent"  stroke="#000" stroke-width="0" xlink:href="#c"/><text class="Text" transform="translate(45,15.5)"   font-size="9px"  text-anchor="middle"><tspan x="0" y="0">Nucleus</tspan></text></g><g class="Label" transform="translate(796.9 215.52)" color="#000"  name="Unknown receptor"><use class="Icon" width="111.60447761194028" height="25" fill="transparent"  stroke="#000" stroke-width="0" xlink:href="#c"/><text class="Text" transform="translate(55.802 16.5)"   font-size="12px"  text-anchor="middle"><tspan x="0" y="0">Unknown receptor</tspan></text></g><g class="Label" transform="translate(888.83 721.4)" color="#000"  name="DNA"><use class="Icon" width="90" height="25" fill="transparent"  stroke="#000" stroke-width="0" xlink:href="#c"/><text class="Text" transform="translate(45,16.5)"   font-size="12px" font-weight="bold"  text-anchor="middle"><tspan x="0" y="0">DNA</tspan></text></g><g class="Label" transform="translate(1503.7 250)" color="#000"  name="Cytosol"><use class="Icon" width="90" height="25" fill="transparent"  stroke="#000" stroke-width="0" xlink:href="#c"/><text class="Text" transform="translate(45,16.5)"   font-size="12px"  text-anchor="middle"><tspan x="0" y="0">Cytosol</tspan></text></g><g class="Label" transform="translate(1352.7 555.58)" color="#000"  name="IP3"><use class="Icon" width="93.62025000000006" height="33.16360625000014" fill="transparent"  stroke="#000" stroke-width="0" xlink:href="#c"/><text class="Text" transform="translate(46.81 20.582)"   font-size="12px"  text-anchor="middle"><tspan x="0" y="0">IP3</tspan></text></g><g class="Label" transform="translate(1108.4 206.12)" color="#000"  name="Calcium channel"><use class="Icon" width="90" height="25" fill="transparent"  stroke="#000" stroke-width="0" xlink:href="#c"/><text class="Text" transform="translate(45,16.5)"   font-size="12px"  text-anchor="middle"><tspan x="0" y="0">Calcium channel</tspan></text></g><g class="Label" transform="translate(892.21 312.46)" color="#000"  name="MAPK Cascade"><use class="Icon" width="99.28571428571422" height="25" fill="transparent"  stroke="#000" stroke-width="0" xlink:href="#c"/><text class="Text" transform="translate(49.643 15.5)"   font-size="10px"  text-anchor="middle"><tspan x="0" y="0">MAPK Cascade</tspan></text></g><g class="Label" transform="translate(1378.6 805.45)" color="#000"  name="Endoplasmic reticulum"><use class="Icon" width="141.74999999999991" height="25" fill="transparent"  stroke="#000" stroke-width="0" xlink:href="#c"/><text class="Text" transform="translate(70.875 16.5)"   font-size="12px"  text-anchor="middle"><tspan x="0" y="0">Endoplasmic reticulum</tspan></text></g><a  class="GeneProduct IL6 " transform="translate(844.97 895.62)"   name="IL6"  ><rect class="Icon" transform="matrix(.98765 0 0 .95238 .49383 .47619)" width="80" height="20" fill="#fff" stroke="#000"/><text class="Text" transform="translate(40,14)"   font-size="12px"  text-anchor="middle"><tspan x="0" y="0">IL6</tspan></text></a><a  class="GeneProduct CXCL8 " transform="translate(844.97 915.62)"   name="IL8"  ><rect class="Icon" transform="matrix(.98765 0 0 .95238 .49383 .47619)" width="80" height="20" fill="#fff" stroke="#000"/><text class="Text" transform="translate(40,14)"   font-size="12px"  text-anchor="middle"><tspan x="0" y="0">IL8</tspan></text></a><a  class="GeneProduct TNF " transform="translate(895.53 951.82)"   name="TNF"  ><rect class="Icon" transform="matrix(.98765 0 0 .95238 .49383 .47619)" width="80" height="20" fill="#fff" stroke="#000"/><text class="Text" transform="translate(40,14)"   font-size="12px"  text-anchor="middle"><tspan x="0" y="0">TNF</tspan></text></a><a  class="GeneProduct IL12B " transform="translate(940.93 915.62)"   name="IL12B"  ><rect class="Icon" transform="matrix(.98765 0 0 .95238 .49383 .47619)" width="80" height="20" fill="#fff" stroke="#000"/><text class="Text" transform="translate(40,14)"   font-size="12px"  text-anchor="middle"><tspan x="0" y="0">IL12B</tspan></text></a><a  class="GeneProduct IL12A " transform="translate(940.93 895.62)"   name="IL12A"  ><rect class="Icon" transform="matrix(.98765 0 0 .95238 .49383 .47619)" width="80" height="20" fill="#fff" stroke="#000"/><text class="Text" transform="translate(40,14)"   font-size="12px"  text-anchor="middle"><tspan x="0" y="0">IL12A</tspan></text></a><a  class="GeneProduct ITPR1 " transform="translate(1458.3 625.33)"   name="ITP3R"  ><rect class="Icon" transform="matrix(.98765 0 0 .95238 .49383 .47619)" width="80" height="20" fill="#fff" stroke="#000"/><text class="Text" transform="translate(40,14)"   font-size="12px"  text-anchor="middle"><tspan x="0" y="0">ITP3R</tspan></text></a><a  class="GeneProduct MAPK14 " transform="translate(957.74 455.64)"   name="p38"  ><rect class="Icon" transform="matrix(.98765 0 0 .95238 .49383 .47619)" width="80" height="20" fill="#fff" stroke="#000"/><text class="Text" transform="translate(40,14)"   font-size="12px"  text-anchor="middle"><tspan x="0" y="0">p38</tspan></text></a><a  class="GeneProduct RETN " transform="translate(901.69 182.35)"   name="RETN"  ><rect class="Icon" transform="matrix(.98765 0 0 .95238 .49383 .47619)" width="80" height="20" fill="#fff" stroke="#000"/><text class="Text" transform="translate(40,14)"   font-size="12px"  text-anchor="middle"><tspan x="0" y="0">RETN</tspan></text></a><g class="GroupComplex" transform="translate(384.35 606.97)" color="grey" ><use class="Icon" transform="matrix(.99048 0 0 .98824 .49524 .49412)" width="104" height="83.99999999999977" fill="#b4b464" fill-opacity=".1" stroke="grey" xlink:href="#d"/><a  class="GeneProduct AKT1 " transform="translate(12,12)"   name="AKT1"  ><rect class="Icon" transform="matrix(.98765 0 0 .95238 .49383 .47619)" width="80" height="20" fill="#fff" stroke="#000"/><text class="Text" transform="translate(40,14)"   font-size="12px"  text-anchor="middle"><tspan x="0" y="0">AKT1</tspan></text></a><a  class="GeneProduct AKT2 " transform="translate(12 32)"   name="AKT2"  ><rect class="Icon" transform="matrix(.98765 0 0 .95238 .49383 .47619)" width="80" height="20" fill="#fff" stroke="#000"/><text class="Text" transform="translate(40,14)"   font-size="12px"  text-anchor="middle"><tspan x="0" y="0">AKT2</tspan></text></a><a  class="GeneProduct AKT3 " transform="translate(12 52)"   name="AKT3"  ><rect class="Icon" transform="matrix(.98765 0 0 .95238 .49383 .47619)" width="80" height="20" fill="#fff" stroke="#000"/><text class="Text" transform="translate(40,14)"   font-size="12px"  text-anchor="middle"><tspan x="0" y="0">AKT3</tspan></text></a></g><g class="GroupComplex" transform="translate(823.14 393.18)" color="grey" ><use class="Icon" transform="matrix(.99048 0 0 .98462 .49524 .49231)" width="104.00000000000011" height="64" fill="#b4b464" fill-opacity=".1" stroke="grey" xlink:href="#d"/><a  class="GeneProduct MAPK3 " transform="translate(12 32)"   name="ERK1"  ><rect class="Icon" transform="matrix(.98765 0 0 .95238 .49383 .47619)" width="80" height="20" fill="#fff" stroke="#000"/><text class="Text" transform="translate(40,14)"   font-size="12px"  text-anchor="middle"><tspan x="0" y="0">ERK1</tspan></text></a><a  class="GeneProduct MAPK1 " transform="translate(12,12)"   name="ERK2"  ><rect class="Icon" transform="matrix(.98765 0 0 .95238 .49383 .47619)" width="80" height="20" fill="#fff" stroke="#000"/><text class="Text" transform="translate(40,14)"   font-size="12px"  text-anchor="middle"><tspan x="0" y="0">ERK2</tspan></text></a></g><g class="GroupComplex" transform="translate(1211.4 319.67)" color="grey" ><use class="Icon" transform="matrix(.99048 0 0 .99556 .49524 .49778)" width="104" height="224.0000000000009" fill="#b4b464" fill-opacity=".1" stroke="grey" xlink:href="#d"/><a  class="GeneProduct PLCB1 " transform="translate(12,12)"   name="PLCB1"  ><rect class="Icon" transform="matrix(.98765 0 0 .95238 .49383 .47619)" width="80" height="20" fill="#fff" stroke="#000"/><text class="Text" transform="translate(40,14)"   font-size="12px"  text-anchor="middle"><tspan x="0" y="0">PLCB1</tspan></text></a><a  class="GeneProduct PLCB2 " transform="translate(12,32)"   name="PLCB2"  ><rect class="Icon" transform="matrix(.98765 0 0 .95238 .49383 .47619)" width="80" height="20" fill="#fff" stroke="#000"/><text class="Text" transform="translate(40,14)"   font-size="12px"  text-anchor="middle"><tspan x="0" y="0">PLCB2</tspan></text></a><a  class="GeneProduct PLCB3 " transform="translate(12 52)"   name="PLCB3"  ><rect class="Icon" transform="matrix(.98765 0 0 .95238 .49383 .47619)" width="80" height="20" fill="#fff" stroke="#000"/><text class="Text" transform="translate(40,14)"   font-size="12px"  text-anchor="middle"><tspan x="0" y="0">PLCB3</tspan></text></a><a  class="GeneProduct PLCB4 " transform="translate(12 72)"   name="PLCB4"  ><rect class="Icon" transform="matrix(.98765 0 0 .95238 .49383 .47619)" width="80" height="20" fill="#fff" stroke="#000"/><text class="Text" transform="translate(40,14)"   font-size="12px"  text-anchor="middle"><tspan x="0" y="0">PLCB4</tspan></text></a><a  class="GeneProduct PLCG1 " transform="translate(12 92)"   name="PLCG1"  ><rect class="Icon" transform="matrix(.98765 0 0 .95238 .49383 .47619)" width="80" height="20" fill="#fff" stroke="#000"/><text class="Text" transform="translate(40,14)"   font-size="12px"  text-anchor="middle"><tspan x="0" y="0">PLCG1</tspan></text></a><a  class="GeneProduct PLCG2 " transform="translate(12 112)"   name="PLCG2"  ><rect class="Icon" transform="matrix(.98765 0 0 .95238 .49383 .47619)" width="80" height="20" fill="#fff" stroke="#000"/><text class="Text" transform="translate(40,14)"   font-size="12px"  text-anchor="middle"><tspan x="0" y="0">PLCG2</tspan></text></a><a  class="GeneProduct PLCD1 " transform="translate(12 132)"   name="PLCD1"  ><rect class="Icon" transform="matrix(.98765 0 0 .95238 .49383 .47619)" width="80" height="20" fill="#fff" stroke="#000"/><text class="Text" transform="translate(40,14)"   font-size="12px"  text-anchor="middle"><tspan x="0" y="0">PLCD1</tspan></text></a><a  class="GeneProduct PLCD4 " transform="translate(12 152)"   name="PLCD4"  ><rect class="Icon" transform="matrix(.98765 0 0 .95238 .49383 .47619)" width="80" height="20" fill="#fff" stroke="#000"/><text class="Text" transform="translate(40,14)"   font-size="12px"  text-anchor="middle"><tspan x="0" y="0">PLCD4</tspan></text></a><a  class="GeneProduct PLCD3 " transform="translate(12 172)"   name="PLCD3"  ><rect class="Icon" transform="matrix(.98765 0 0 .95238 .49383 .47619)" width="80" height="20" fill="#fff" stroke="#000"/><text class="Text" transform="translate(40,14)"   font-size="12px"  text-anchor="middle"><tspan x="0" y="0">PLCD3</tspan></text></a><a  class="GeneProduct PLCE1 " transform="translate(12 192)"   name="PLCE1"  ><rect class="Icon" transform="matrix(.98765 0 0 .95238 .49383 .47619)" width="80" height="20" fill="#fff" stroke="#000"/><text class="Text" transform="translate(40,14)"   font-size="12px"  text-anchor="middle"><tspan x="0" y="0">PLCE1</tspan></text></a></g><g class="GroupComplex" transform="translate(710.56 314.38)" color="grey" ><use class="Icon" transform="matrix(.99048 0 0 .98824 .49524 .49412)" width="104" height="84.00000000000034" fill="#b4b464" fill-opacity=".1" stroke="grey" xlink:href="#d"/><a  class="GeneProduct CHUK " transform="translate(12,12)"   name="IkKA"  ><rect class="Icon" transform="matrix(.98765 0 0 .95238 .49383 .47619)" width="80" height="20" fill="#fff" stroke="#000"/><text class="Text" transform="translate(40,14)"   font-size="12px"  text-anchor="middle"><tspan x="0" y="0">IkKA</tspan></text></a><a  class="GeneProduct IKBKB " transform="translate(12 32)"   name="IkKB"  ><rect class="Icon" transform="matrix(.98765 0 0 .95238 .49383 .47619)" width="80" height="20" fill="#fff" stroke="#000"/><text class="Text" transform="translate(40,14)"   font-size="12px"  text-anchor="middle"><tspan x="0" y="0">IkKB</tspan></text></a><a  class="GeneProduct IKBKG " transform="translate(12 52)"   name="IkKG"  ><rect class="Icon" transform="matrix(.98765 0 0 .95238 .49383 .47619)" width="80" height="20" fill="#fff" stroke="#000"/><text class="Text" transform="translate(40,14)"   font-size="12px"  text-anchor="middle"><tspan x="0" y="0">IkKG</tspan></text></a></g><g class="GroupComplex" transform="translate(536.42 439.97)" color="grey" ><use class="Icon" transform="matrix(.99459 0 0 .98479 .4973 .49239)" width="183.9999999999999" height="64.72767954508896" fill="#b4b464" fill-opacity=".1" stroke="grey" xlink:href="#d"/><a  class="GeneProduct NFKBIA " transform="translate(51.945 12)"   name="IkBA"  ><rect class="Icon" transform="matrix(.98765 0 0 .95238 .49383 .47619)" width="80" height="20" fill="#fff" stroke="#000"/><text class="Text" transform="translate(40,14)"   font-size="12px"  text-anchor="middle"><tspan x="0" y="0">IkBA</tspan></text></a><a  class="GeneProduct RELA " transform="translate(12 32.728)"   name="RELA"  ><rect class="Icon" transform="matrix(.98765 0 0 .95238 .49383 .47619)" width="80" height="20" fill="#fff" stroke="#000"/><text class="Text" transform="translate(40,14)"   font-size="12px"  text-anchor="middle"><tspan x="0" y="0">RELA</tspan></text></a><a  class="GeneProduct NFKB1 " transform="translate(92 32.728)"   name="NFkB"  ><rect class="Icon" transform="matrix(.98765 0 0 .95238 .49383 .47619)" width="80" height="20" fill="#fff" stroke="#000"/><text class="Text" transform="translate(40,14)"   font-size="12px"  text-anchor="middle"><tspan x="0" y="0">NFkB</tspan></text></a></g><g class="GroupComplex" transform="translate(385.61 363.23)" color="grey" ><use class="Icon" transform="matrix(.99048 0 0 .99048 .49524 .49524)" width="104" height="103.99999999999977" fill="#b4b464" fill-opacity=".1" stroke="grey" xlink:href="#d"/><a  class="GeneProduct PIK3CA " transform="translate(12,12)"   name="PI3KA"  ><rect class="Icon" transform="matrix(.98765 0 0 .95238 .49383 .47619)" width="80" height="20" fill="#fff" stroke="#000"/><text class="Text" transform="translate(40,14)"   font-size="12px"  text-anchor="middle"><tspan x="0" y="0">PI3KA</tspan></text></a><a  class="GeneProduct PIK3CB " transform="translate(12,32)"   name="PI3KB"  ><rect class="Icon" transform="matrix(.98765 0 0 .95238 .49383 .47619)" width="80" height="20" fill="#fff" stroke="#000"/><text class="Text" transform="translate(40,14)"   font-size="12px"  text-anchor="middle"><tspan x="0" y="0">PI3KB</tspan></text></a><a  class="GeneProduct PIK3CD " transform="translate(12 52)"   name="PI3KD"  ><rect class="Icon" transform="matrix(.98765 0 0 .95238 .49383 .47619)" width="80" height="20" fill="#fff" stroke="#000"/><text class="Text" transform="translate(40,14)"   font-size="12px"  text-anchor="middle"><tspan x="0" y="0">PI3KD</tspan></text></a><a  class="GeneProduct PIK3CG " transform="translate(12 72)"   name="PI3KG"  ><rect class="Icon" transform="matrix(.98765 0 0 .95238 .49383 .47619)" width="80" height="20" fill="#fff" stroke="#000"/><text class="Text" transform="translate(40,14)"   font-size="12px"  text-anchor="middle"><tspan x="0" y="0">PI3KG</tspan></text></a></g><g class="GroupComplex" transform="translate(644.06 529.45)" color="grey" ><use class="Icon" transform="matrix(.99459 0 0 .97778 .4973 .48889)" width="184" height="44" fill="#b4b464" fill-opacity=".1" stroke="grey" xlink:href="#d"/><a  class="GeneProduct NFKB1 " transform="translate(92,12)"   name="NFkB"  ><rect class="Icon" transform="matrix(.98765 0 0 .95238 .49383 .47619)" width="80" height="20" fill="#fff" stroke="#000"/><text class="Text" transform="translate(40,14)"   font-size="12px"  text-anchor="middle"><tspan x="0" y="0">NFkB</tspan></text></a><a  class="GeneProduct RELA " transform="translate(12,12)"   name="RELA"  ><rect class="Icon" transform="matrix(.98765 0 0 .95238 .49383 .47619)" width="80" height="20" fill="#fff" stroke="#000"/><text class="Text" transform="translate(40,14)"   font-size="12px"  text-anchor="middle"><tspan x="0" y="0">RELA</tspan></text></a></g><g class="SingleFreeNode Shape" transform="translate(915.54 207.06) rotate(89.427 26.06 35.816)" color="#000" ><use class="Icon" transform="matrix(.98117 0 0 .98623 .49059 .49312)" width="52.12026546971845" height="71.6318016235804" fill="transparent"  stroke="#000" xlink:href="#g"/></g><a  class="GeneProduct NFKBIA " transform="translate(502.59 555.51)"   name="IkBA"  ><rect class="Icon" transform="matrix(.98765 0 0 .95238 .49383 .47619)" width="80" height="20" fill="#fff" stroke="#000"/><text class="Text" transform="translate(40,14)"   font-size="12px"  text-anchor="middle"><tspan x="0" y="0">IkBA</tspan></text></a><g class="GroupComplex" transform="translate(727.9 638.65)" color="grey" ><use class="Icon" transform="matrix(.99459 0 0 .97778 .4973 .48889)" width="184" height="44" fill="#b4b464" fill-opacity=".1" stroke="grey" xlink:href="#d"/><a  class="GeneProduct NFKB1 " transform="translate(92,12)"   name="NFkB"  ><rect class="Icon" transform="matrix(.98765 0 0 .95238 .49383 .47619)" width="80" height="20" fill="#fff" stroke="#000"/><text class="Text" transform="translate(40,14)"   font-size="12px"  text-anchor="middle"><tspan x="0" y="0">NFkB</tspan></text></a><a  class="GeneProduct RELA " transform="translate(12,12)"   name="RELA"  ><rect class="Icon" transform="matrix(.98765 0 0 .95238 .49383 .47619)" width="80" height="20" fill="#fff" stroke="#000"/><text class="Text" transform="translate(40,14)"   font-size="12px"  text-anchor="middle"><tspan x="0" y="0">RELA</tspan></text></a></g><g class="SingleFreeNode Shape" transform="translate(560.8 542.67)" color="#000" ><use class="Icon" transform="matrix(.95402 0 0 .95349 .47701 .47674)" width="20.74772430343451" height="20.5" fill="transparent"  stroke="#000" xlink:href="#e"/></g><g class="Label" transform="translate(527.02 540.99)" color="#000"  name="P"><use class="Icon" width="90" height="25" fill="transparent"  stroke="#000" stroke-width="0" xlink:href="#c"/><text class="Text" transform="translate(45,16.5)"   font-size="12px"  text-anchor="middle"><tspan x="0" y="0">P</tspan></text></g><g id="z" class="Edge GraphicalLine" color="#000" ><g color="#000" fill="transparent"  filter="url(#a)" stroke="#000" stroke-dasharray="115.18656716417911, 0" stroke-width="2"><path class="EdgeBody" d="m878.84 717.57h115.19"   /></g></g><g id="aa" class="DirectedInteraction" color="#000" ><g color="#000" fill="transparent"  filter="url(#a)" stroke="#000" stroke-dasharray="398.8172444547749, 5.8"><path class="EdgeBody" d="m488.35 669.97 400.48 57.688"   marker-end="url(#b)" /></g></g><g id="ab" class="DirectedInteraction" color="#000" ><g color="#000" fill="transparent"  filter="url(#a)" stroke="#000" stroke-dasharray="264.8663563033186, 5.8"><path class="EdgeBody" d="m875.14 457.18 58.689 264.23"   marker-end="url(#b)" /></g></g><g id="ac" class="DirectedInteraction" color="#000" ><g color="#000" fill="transparent"  filter="url(#a)" stroke="#000" stroke-dasharray="248.14012792415477, 5.8"><path class="EdgeBody" d="m997.74 475.64-63.904 245.77"   marker-end="url(#b)" /></g></g><g id="ad" class="DirectedInteraction" color="#000" ><g color="#000" fill="transparent"  filter="url(#a)" stroke="#000" stroke-dasharray="69.58547342538475, 5.8"><path class="EdgeBody" d="m782.06 573.45 37.836 65.203"   marker-end="url(#b)" /></g></g><g class="SingleFreeNode Shape" transform="translate(1097.4 504.97)" color="#000" ><use class="Icon" transform="matrix(.9697 0 0 .9687 .48485 .48435)" width="32.0000000000002" height="30.950000000000045" fill="transparent"  stroke="#000" xlink:href="#e"/></g><g class="Label" transform="translate(1099 507.17)" color="#000"  name="Ca2+"><use class="Icon" width="29.42707485961955" height="21.641138608798606" fill="transparent"  stroke="#000" stroke-width="0" xlink:href="#c"/><text class="Text" transform="translate(14.714 13.821)"   font-size="9px"  text-anchor="middle"><tspan x="0" y="0">Ca2+</tspan></text></g><g class="SingleFreeNode Shape" transform="translate(1072.4 155.53)" color="#000" ><use class="Icon" transform="matrix(.9697 0 0 .9687 .48485 .48435)" width="32.0000000000002" height="30.950000000000045" fill="transparent"  stroke="#000" xlink:href="#e"/></g><g class="Label" transform="translate(1072.9 160.73)" color="#000"  name="Ca2+"><use class="Icon" width="31.578478830395678" height="21.641138608798606" fill="transparent"  stroke="#000" stroke-width="0" xlink:href="#c"/><text class="Text" transform="translate(15.789 13.821)"   font-size="9px"  text-anchor="middle"><tspan x="0" y="0">Ca2+</tspan></text></g><g id="ae" class="DirectedInteraction" color="#000" ><g color="#000" fill="transparent"  filter="url(#a)" stroke="#000" stroke-dasharray="325.57547676497376, 5.8"><path class="EdgeBody" d="m1395.2 722.5-273.86-186.58"   marker-end="url(#b)" /></g></g><g class="SingleFreeNode Shape" transform="translate(1077.4 199.31)" color="#000" ><rect class="Icon" transform="matrix(.95487 0 0 .98532 .47743 .49266)" width="21.157" height="67.104" fill="transparent"  stroke="#000"/></g><g id="af" class="DirectedInteraction" color="#000" ><g color="#000" fill="transparent"  filter="url(#a)" stroke="#000" stroke-dasharray="125.2767649253728, 5.8"><path class="EdgeBody" d="m933.83 746.4 1e-13 131.08"   marker-end="url(#b)" /></g></g><text class="Text" transform="translate(5,27)" dominant-baseline="central" fill="black"  font-size="12px" font-weight="bold" overflow="visible" ><tspan x="0" y="-9">Name: Resistin as a regulator of inflammation</tspan> <tspan x="0" y="9">Organism: Homo sapiens</tspan></text></g></svg>
