<?xml version="1.0" encoding="UTF-8"?>
<!--
  WikiPathways page: https://www.wikipathways.org/index.php/Pathway:WP4494
  URL for this compressed file: https://github.com/eweitz/cachome/tree/main/data/wikipathways/WP4494.svg
  Source code for compression: https://github.com/eweitz/cachome/tree/main/src/wikipathways.py
-->
<svg class="Diagram" width="800" height="600" color="black" baseProfile="full" prefix="schema:http://schema.org/" preserveAspectRatio="xMidYMid" version="1.1" viewBox="0 0 1513.5 1047.7" vocab="http://vocabularies.wikipathways.org/wp#" xmlns="http://www.w3.org/2000/svg" xmlns:xlink="http://www.w3.org/1999/xlink"><style>svg {font-family: 'Liberation Sans', Arial, sans-serif; }</style><defs><filter id="c" x="-50%" y="-50%" width="200%" height="200%"><feComposite in="SourceGraphic" in2="SourceGraphic" result="doubleDark"/><feMorphology in="doubleDark" operator="dilate" radius="0.16666666666666666" result="in2Double"/><feMorphology in="SourceGraphic" operator="dilate" radius="3" result="inDouble"/><feComposite in="inDouble" in2="in2Double" operator="out" result="doubleResult"/></filter><filter id="a" x="0" y="0" width="1513.5" height="1047.7" filterUnits="userSpaceOnUse"><feColorMatrix in="SourceGraphic" values="-1   0   0 0 0                   0  -1   0 0 0                   0   0  -1 0 0                   0   0   0 1 0"/></filter><marker id="b" stroke-dasharray="99999" markerHeight="12" markerUnits="userSpaceOnUse" markerWidth="12" orient="auto" preserveAspectRatio="none" refX="12" refY="6" viewBox="0 0 12 12"><path transform="rotate(180 6 6)" d="M12 11L0 6l12-5z" fill="currentColor" stroke-width="0"/></marker><symbol id="f" overflow="visible" preserveAspectRatio="none" viewBox="0 0 50 50"><ellipse cx="25" cy="25" rx="25" ry="25" stroke="currentColor" vector-effect="non-scaling-stroke"/></symbol><symbol id="e" overflow="visible" preserveAspectRatio="none" viewBox="0 0 100 100"><path d="M0 25L25 0h50l25 25v50l-25 25H25L0 75z" stroke="currentColor" vector-effect="non-scaling-stroke"/></symbol><symbol id="d" preserveAspectRatio="none" viewBox="0 0 100 100"/></defs><g class="Viewport" color="black"  name="Name: Selective expression of chemokine receptors during T-cell polarization Organism: Homo sapiens"><rect class="Icon" width="1513.5" height="1047.7" fill="#fff" stroke="#000" stroke-width="0"/><g id="g" class="DirectedInteraction" color="#000" ><g color="#000" fill="transparent"  filter="url(#a)" stroke="#000" stroke-dasharray="115.08423047328488, 5.8"><path class="EdgeBody" d="m414.78 650.19 105.32-59.335"   marker-end="url(#b)" /></g></g><g id="h" class="DirectedInteraction" color="#000" ><g color="#000" fill="transparent"  filter="url(#a)" stroke="#000" stroke-dasharray="61.7964264090527, 5.8"><path class="EdgeBody" d="m304.61 229.82 52.775 42.238"   marker-end="url(#b)" /></g></g><g id="i" class="DirectedInteraction" color="#000" ><g color="#000" fill="transparent"  filter="url(#a)" stroke="#000" stroke-dasharray="62.20651779257513, 5.8"><path class="EdgeBody" d="m513.71 146.65 28.462 61.764"   marker-end="url(#b)" /></g></g><g id="j" class="DirectedInteraction" color="#000" ><g color="#000" fill="transparent"  filter="url(#a)" stroke="#000" stroke-dasharray="50.489481401188634, 5.8"><path class="EdgeBody" d="m427.31 181.88 36.861 42.541"   marker-end="url(#b)" /></g></g><g id="k" class="DirectedInteraction" color="#000" ><g color="#000" fill="transparent"  filter="url(#a)" stroke="#000" stroke-dasharray="94.57544474462236, 5.8"><path class="EdgeBody" d="m218.21 265.05 70.045 71.896"   marker-end="url(#b)" /></g></g><g class="SingleFreeNode Shape PhysicalEntity CellularComponent Nucleus" transform="translate(660.77 912.01)" color="#c0c0c0" ><g fill="transparent"  filter="url(#c)" stroke="#c0c0c0" stroke-width="3"><use class="Icon" transform="matrix(.81616 0 0 .72463 4.897 4.3478)" width="53.274980937500096" height="31.578194375000106"    xlink:href="#f"/></g></g><g class="SingleFreeNode Shape PhysicalEntity CellularComponent Cell" transform="translate(505.96 327.28)" color="#c0c0c0" ><g fill="transparent"  filter="url(#c)" stroke="#c0c0c0" stroke-width="3"><rect class="Icon" transform="matrix(.94662 0 0 .94017 5.6797 5.641)" width="212.81" height="188.56" rx="15" ry="15"   /></g></g><g class="SingleFreeNode Shape" transform="translate(1332.9 658.83)" color="#000" ><rect class="Icon" transform="matrix(.9934 0 0 .98092 .4967 .49046)" width="150.59" height="51.424" fill="transparent"  stroke="#000"/></g><g class="SingleFreeNode Shape PhysicalEntity CellularComponent Nucleus" transform="translate(546.8 437.04)" color="#c0c0c0" ><g fill="transparent"  filter="url(#c)" stroke="#c0c0c0" stroke-width="3"><use class="Icon" transform="matrix(.85785 0 0 .81969 5.1471 4.9181)" width="72.41920437500002" height="54.55126250000001"    xlink:href="#f"/></g></g><g class="SingleFreeNode Shape PhysicalEntity CellularComponent Cell" transform="translate(581.64 825.22)" color="#c0c0c0" ><g fill="transparent"  filter="url(#c)" stroke="#c0c0c0" stroke-width="3"><rect class="Icon" transform="matrix(.9361 0 0 .92302 5.6166 5.5381)" width="175.8" height="143.89" rx="15" ry="15"   /></g></g><g class="Label" transform="translate(1048.8 375.49)" color="#000"  name="Th1 cell"><use class="Icon" width="90" height="25" fill="transparent"  stroke="#000" stroke-width="0" xlink:href="#d"/><text class="Text" transform="translate(45,16.5)"   font-size="12px"  text-anchor="middle"><tspan x="0" y="0">Th1 cell</tspan></text></g><g class="Label" transform="translate(208.98 131.72)" color="#000"  name="Dendritic cell"><use class="Icon" width="90" height="25" fill="transparent"  stroke="#000" stroke-width="0" xlink:href="#d"/><text class="Text" transform="translate(45,16.5)"   font-size="12px"  text-anchor="middle"><tspan x="0" y="0">Dendritic cell</tspan></text></g><g class="Label" transform="translate(625.05 485.25)" color="#000"  name="Th0 cell"><use class="Icon" width="90" height="25" fill="transparent"  stroke="#000" stroke-width="0" xlink:href="#d"/><text class="Text" transform="translate(45,16.5)"   font-size="12px"  text-anchor="middle"><tspan x="0" y="0">Th0 cell</tspan></text></g><g class="Label" transform="translate(427.22 44.933)" color="#000"  name="Macrophage"><use class="Icon" width="90" height="25" fill="transparent"  stroke="#000" stroke-width="0" xlink:href="#d"/><text class="Text" transform="translate(45,16.5)"   font-size="12px"  text-anchor="middle"><tspan x="0" y="0">Macrophage</tspan></text></g><g class="Label" transform="translate(1336.1 664.25)" color="#000"  name="Resevoir of semi naive  T cells (Tsn)"><use class="Icon" width="144.73032918749834" height="41.98210409374991" fill="transparent"  stroke="#000" stroke-width="0" xlink:href="#d"/><text class="Text" transform="translate(72.365 24.991)"   font-size="12px"  text-anchor="middle"><tspan x="0" y="-6.6000000000000005">Resevoir of semi naive </tspan> <tspan x="0" y="6.6000000000000005">T cells (Tsn)</tspan></text></g><g class="Label" transform="translate(1043.2 641.47)" color="#000"  name="Tsn cell"><use class="Icon" width="90" height="25" fill="transparent"  stroke="#000" stroke-width="0" xlink:href="#d"/><text class="Text" transform="translate(45,16.5)"   font-size="12px"  text-anchor="middle"><tspan x="0" y="0">Tsn cell</tspan></text></g><g class="Label" transform="translate(672.88 817.71)" color="#000"  name="NK1+ CD4+/CD4-8- TcrAB+"><use class="Icon" width="90" height="76.82459075000011" fill="transparent"  stroke="#000" stroke-width="0" xlink:href="#d"/><text class="Text" transform="translate(45 41.412)"   font-size="9px"  text-anchor="middle"><tspan x="0" y="-9.9">NK1+</tspan> <tspan x="0" y="0">CD4+/CD4-8-</tspan> <tspan x="0" y="9.9">TcrAB+</tspan></text></g><g class="Label" transform="translate(1047.5 923.01)" color="#000"  name="Th2 cell"><use class="Icon" width="90" height="25" fill="transparent"  stroke="#000" stroke-width="0" xlink:href="#d"/><text class="Text" transform="translate(45,16.5)"   font-size="12px"  text-anchor="middle"><tspan x="0" y="0">Th2 cell</tspan></text></g><a  class="GeneProduct CCL3 " transform="translate(429.58 901.82)"   name="CCL3"  ><rect class="Icon" transform="matrix(.98765 0 0 .95238 .49383 .47619)" width="80" height="20" fill="#fff" stroke="#000"/><text class="Text" transform="translate(40,14)"   font-size="12px"  text-anchor="middle"><tspan x="0" y="0">CCL3</tspan></text></a><a  class="GeneProduct CCR7 " transform="translate(599.33 329.08)"   name="CCR7"  ><rect class="Icon" transform="matrix(.98765 0 0 .95238 .49383 .47619)" width="80" height="20" fill="#fff" stroke="#000"/><text class="Text" transform="translate(40,14)"   font-size="12px"  text-anchor="middle"><tspan x="0" y="0">CCR7</tspan></text></a><a  class="GeneProduct CXCR4 " transform="translate(599.33 309.08)"   name="CXCR4"  ><rect class="Icon" transform="matrix(.98765 0 0 .95238 .49383 .47619)" width="80" height="20" fill="#fff" stroke="#000"/><text class="Text" transform="translate(40,14)"   font-size="12px"  text-anchor="middle"><tspan x="0" y="0">CXCR4</tspan></text></a><a  class="GeneProduct IL4 " transform="translate(831.61 678)"   name="IL4"  ><rect class="Icon" transform="matrix(.98765 0 0 .95238 .49383 .47619)" width="80" height="20" fill="#fff" stroke="#000"/><text class="Text" transform="translate(40,14)"   font-size="12px"  text-anchor="middle"><tspan x="0" y="0">IL4</tspan></text></a><a  class="GeneProduct IL5 " transform="translate(1324 997.72)"   name="IL5"  ><rect class="Icon" transform="matrix(.98765 0 0 .95238 .49383 .47619)" width="80" height="20" fill="#fff" stroke="#000"/><text class="Text" transform="translate(40,14)"   font-size="12px"  text-anchor="middle"><tspan x="0" y="0">IL5</tspan></text></a><a  class="GeneProduct CD4 " transform="translate(469.15 351.17)"   name="CD4"  ><rect class="Icon" transform="matrix(.98765 0 0 .95238 .49383 .47619)" width="80" height="20" fill="#fff" stroke="#000"/><text class="Text" transform="translate(40,14)"   font-size="12px"  text-anchor="middle"><tspan x="0" y="0">CD4</tspan></text></a><a  class="GeneProduct IL2 " transform="translate(1353.6 568.87)"   name="IL2"  ><rect class="Icon" transform="matrix(.98765 0 0 .95238 .49383 .47619)" width="80" height="20" fill="#fff" stroke="#000"/><text class="Text" transform="translate(40,14)"   font-size="12px"  text-anchor="middle"><tspan x="0" y="0">IL2</tspan></text></a><a  class="GeneProduct CSF2 " transform="translate(429.58 941.82)"   name="CSF2"  ><rect class="Icon" transform="matrix(.98765 0 0 .95238 .49383 .47619)" width="80" height="20" fill="#fff" stroke="#000"/><text class="Text" transform="translate(40,14)"   font-size="12px"  text-anchor="middle"><tspan x="0" y="0">CSF2</tspan></text></a><a  class="GeneProduct IFNG " transform="translate(1361.1 462.31)"   name="IFNG"  ><rect class="Icon" transform="matrix(.98765 0 0 .95238 .49383 .47619)" width="80" height="20" fill="#fff" stroke="#000"/><text class="Text" transform="translate(40,14)"   font-size="12px"  text-anchor="middle"><tspan x="0" y="0">IFNG</tspan></text></a><a  class="GeneProduct CCL4 " transform="translate(429.58 921.82)"   name="CCL4"  ><rect class="Icon" transform="matrix(.98765 0 0 .95238 .49383 .47619)" width="80" height="20" fill="#fff" stroke="#000"/><text class="Text" transform="translate(40,14)"   font-size="12px"  text-anchor="middle"><tspan x="0" y="0">CCL4</tspan></text></a><g class="GroupComplex" transform="translate(819.61 269.03)" color="grey" ><use class="Icon" transform="matrix(.99048 0 0 .98462 .49524 .49231)" width="104" height="64" fill="#b4b464" fill-opacity=".1" stroke="grey" xlink:href="#e"/><a  class="GeneProduct IL12A " transform="translate(12,12)"   name="IL12A"  ><rect class="Icon" transform="matrix(.98765 0 0 .95238 .49383 .47619)" width="80" height="20" fill="#fff" stroke="#000"/><text class="Text" transform="translate(40,14)"   font-size="12px"  text-anchor="middle"><tspan x="0" y="0">IL12A</tspan></text></a><a  class="GeneProduct IL12B " transform="translate(12,32)"   name="IL12B"  ><rect class="Icon" transform="matrix(.98765 0 0 .95238 .49383 .47619)" width="80" height="20" fill="#fff" stroke="#000"/><text class="Text" transform="translate(40,14)"   font-size="12px"  text-anchor="middle"><tspan x="0" y="0">IL12B</tspan></text></a></g><g class="GroupComplex" transform="translate(875.77 417.79)" color="grey" ><use class="Icon" transform="matrix(.99048 0 0 .98824 .49524 .49412)" width="104" height="84.00000000000006" fill="#b4b464" fill-opacity=".1" stroke="grey" xlink:href="#e"/><a  class="GeneProduct TGFB1 " transform="translate(12,12)"   name="TGFB1"  ><rect class="Icon" transform="matrix(.98765 0 0 .95238 .49383 .47619)" width="80" height="20" fill="#fff" stroke="#000"/><text class="Text" transform="translate(40,14)"   font-size="12px"  text-anchor="middle"><tspan x="0" y="0">TGFB1</tspan></text></a><a  class="GeneProduct TGFB2 " transform="translate(12 32)"   name="TGFB2"  ><rect class="Icon" transform="matrix(.98765 0 0 .95238 .49383 .47619)" width="80" height="20" fill="#fff" stroke="#000"/><text class="Text" transform="translate(40,14)"   font-size="12px"  text-anchor="middle"><tspan x="0" y="0">TGFB2</tspan></text></a><a  class="GeneProduct TGFB3 " transform="translate(12 52)"   name="TGFB3"  ><rect class="Icon" transform="matrix(.98765 0 0 .95238 .49383 .47619)" width="80" height="20" fill="#fff" stroke="#000"/><text class="Text" transform="translate(40,14)"   font-size="12px"  text-anchor="middle"><tspan x="0" y="0">TGFB3</tspan></text></a></g><g class="SingleFreeNode Shape PhysicalEntity CellularComponent Cell" transform="translate(1058 218.59)" color="#c0c0c0" ><g fill="transparent"  filter="url(#c)" stroke="#c0c0c0" stroke-width="3"><rect class="Icon" transform="matrix(.94662 0 0 .94017 5.6797 5.641)" width="212.81" height="188.56" rx="15" ry="15"   /></g></g><g class="SingleFreeNode Shape PhysicalEntity CellularComponent Nucleus" transform="translate(1128.2 328.35)" color="#c0c0c0" ><g fill="transparent"  filter="url(#c)" stroke="#c0c0c0" stroke-width="3"><use class="Icon" transform="matrix(.85785 0 0 .81969 5.1471 4.9181)" width="72.41920437500002" height="54.55126250000001"    xlink:href="#f"/></g></g><g class="SingleFreeNode Shape PhysicalEntity CellularComponent Cell" transform="translate(1059.2 485.12)" color="#c0c0c0" ><g fill="transparent"  filter="url(#c)" stroke="#c0c0c0" stroke-width="3"><rect class="Icon" transform="matrix(.94662 0 0 .94017 5.6797 5.641)" width="212.81" height="188.56" rx="15" ry="15"   /></g></g><g class="SingleFreeNode Shape PhysicalEntity CellularComponent Nucleus" transform="translate(1129.4 594.88)" color="#c0c0c0" ><g fill="transparent"  filter="url(#c)" stroke="#c0c0c0" stroke-width="3"><use class="Icon" transform="matrix(.85785 0 0 .81969 5.1471 4.9181)" width="72.41920437500002" height="54.55126250000001"    xlink:href="#f"/></g></g><g class="SingleFreeNode Shape PhysicalEntity CellularComponent Cell" transform="translate(1058 761.86)" color="#c0c0c0" ><g fill="transparent"  filter="url(#c)" stroke="#c0c0c0" stroke-width="3"><rect class="Icon" transform="matrix(.94662 0 0 .94017 5.6797 5.641)" width="212.81" height="188.56" rx="15" ry="15"   /></g></g><g class="SingleFreeNode Shape PhysicalEntity CellularComponent Nucleus" transform="translate(1128.2 871.62)" color="#c0c0c0" ><g fill="transparent"  filter="url(#c)" stroke="#c0c0c0" stroke-width="3"><use class="Icon" transform="matrix(.85785 0 0 .81969 5.1471 4.9181)" width="72.41920437500002" height="54.55126250000001"    xlink:href="#f"/></g></g><g id="l" class="DirectedInteraction" color="#000" ><g color="#000" fill="transparent"  filter="url(#a)" stroke="#000" stroke-dasharray="372.1964961595825, 5.8"><path class="EdgeBody" d="m717.27 421.56 343.47 157.84"   marker-end="url(#b)" /></g></g><g id="m" class="DirectedInteraction" color="#000" ><g color="#000" fill="transparent"  filter="url(#a)" stroke="#000" stroke-dasharray="477.85392128207167, 5.8"><path class="EdgeBody" d="m717.27 467.95 342.19 341.8"   marker-end="url(#b)" /></g></g><g id="n" class="DirectedInteraction" color="#000" ><g color="#000" fill="transparent"  filter="url(#a)" stroke="#000" stroke-dasharray="342.0147290104313, 5.8"><path class="EdgeBody" d="m717.27 375.17 342.19-62.304"   marker-end="url(#b)" /></g></g><a  class="GeneProduct CD28 " transform="translate(1014.1 238.21)"   name="CD28"  ><rect class="Icon" transform="matrix(.98765 0 0 .95238 .49383 .47619)" width="80" height="20" fill="#fff" stroke="#000"/><text class="Text" transform="translate(40,14)"   font-size="12px"  text-anchor="middle"><tspan x="0" y="0">CD28</tspan></text></a><a  class="GeneProduct CD40LG " transform="translate(1107.3 210.15)"   name="CD40LG"  ><rect class="Icon" transform="matrix(.98765 0 0 .95238 .49383 .47619)" width="80" height="20" fill="#fff" stroke="#000"/><text class="Text" transform="translate(40,14)"   font-size="12px"  text-anchor="middle"><tspan x="0" y="0">CD40LG</tspan></text></a><g class="GroupComplex" transform="translate(1212.7 191.2)" color="grey" ><use class="Icon" transform="matrix(.99048 0 0 .98462 .49524 .49231)" width="104" height="63.999999999999744" fill="#b4b464" fill-opacity=".1" stroke="grey" xlink:href="#e"/><a  class="GeneProduct IL12RB1 " transform="translate(12,12)"   name="IL12RB1"  ><rect class="Icon" transform="matrix(.98765 0 0 .95238 .49383 .47619)" width="80" height="20" fill="#fff" stroke="#000"/><text class="Text" transform="translate(40,14)"   font-size="12px"  text-anchor="middle"><tspan x="0" y="0">IL12RB1</tspan></text></a><a  class="GeneProduct IL12RB2 " transform="translate(12 32)"   name="IL12RB2"  ><rect class="Icon" transform="matrix(.98765 0 0 .95238 .49383 .47619)" width="80" height="20" fill="#fff" stroke="#000"/><text class="Text" transform="translate(40,14)"   font-size="12px"  text-anchor="middle"><tspan x="0" y="0">IL12RB2</tspan></text></a></g><a  class="GeneProduct IL18R1 " transform="translate(1233.6 278.51)"   name="IL18R1"  ><rect class="Icon" transform="matrix(.98765 0 0 .95238 .49383 .47619)" width="80" height="20" fill="#fff" stroke="#000"/><text class="Text" transform="translate(40,14)"   font-size="12px"  text-anchor="middle"><tspan x="0" y="0">IL18R1</tspan></text></a><g class="GroupComplex" transform="translate(1216.3 758.93)" color="grey" ><use class="Icon" transform="matrix(.99048 0 0 .98462 .49524 .49231)" width="104" height="63.99999999999977" fill="#b4b464" fill-opacity=".1" stroke="grey" xlink:href="#e"/><a  class="GeneProduct IL12RB1 " transform="translate(12,12)"   name="IL12RB1"  ><rect class="Icon" transform="matrix(.98765 0 0 .95238 .49383 .47619)" width="80" height="20" fill="#fff" stroke="#000"/><text class="Text" transform="translate(40,14)"   font-size="12px"  text-anchor="middle"><tspan x="0" y="0">IL12RB1</tspan></text></a><a  class="GeneProduct IL12RB2 " transform="translate(12 32)"   name="IL12RB2"  ><rect class="Icon" transform="matrix(.98765 0 0 .95238 .49383 .47619)" width="80" height="20" fill="#fff" stroke="#000"/><text class="Text" transform="translate(40,14)"   font-size="12px"  text-anchor="middle"><tspan x="0" y="0">IL12RB2</tspan></text></a></g><a  class="GeneProduct IL4R " transform="translate(1231.1 835.63)"   name="IL4R"  ><rect class="Icon" transform="matrix(.98765 0 0 .95238 .49383 .47619)" width="80" height="20" fill="#fff" stroke="#000"/><text class="Text" transform="translate(40,14)"   font-size="12px"  text-anchor="middle"><tspan x="0" y="0">IL4R</tspan></text></a><a  class="GeneProduct CD28 " transform="translate(1020.3 840.41)"   name="CD28"  ><rect class="Icon" transform="matrix(.98765 0 0 .95238 .49383 .47619)" width="80" height="20" fill="#fff" stroke="#000"/><text class="Text" transform="translate(40,14)"   font-size="12px"  text-anchor="middle"><tspan x="0" y="0">CD28</tspan></text></a><a  class="GeneProduct CD40LG " transform="translate(1020.3 882.54)"   name="CD40LG"  ><rect class="Icon" transform="matrix(.98765 0 0 .95238 .49383 .47619)" width="80" height="20" fill="#fff" stroke="#000"/><text class="Text" transform="translate(40,14)"   font-size="12px"  text-anchor="middle"><tspan x="0" y="0">CD40LG</tspan></text></a><g class="GroupComplex" transform="translate(1097.8 731.03)" color="grey" ><use class="Icon" transform="matrix(.99048 0 0 .98462 .49524 .49231)" width="104" height="64" fill="#b4b464" fill-opacity=".1" stroke="grey" xlink:href="#e"/><a  class="GeneProduct IFNGR1 " transform="translate(12,12)"   name="IFNGR1"  ><rect class="Icon" transform="matrix(.98765 0 0 .95238 .49383 .47619)" width="80" height="20" fill="#fff" stroke="#000"/><text class="Text" transform="translate(40,14)"   font-size="12px"  text-anchor="middle"><tspan x="0" y="0">IFNGR1</tspan></text></a><a  class="GeneProduct IFNGR2 " transform="translate(12,32)"   name="IFNGR2"  ><rect class="Icon" transform="matrix(.98765 0 0 .95238 .49383 .47619)" width="80" height="20" fill="#fff" stroke="#000"/><text class="Text" transform="translate(40,14)"   font-size="12px"  text-anchor="middle"><tspan x="0" y="0">IFNGR2</tspan></text></a></g><a  class="GeneProduct IL4 " transform="translate(1324 977.72)"   name="IL4"  ><rect class="Icon" transform="matrix(.98765 0 0 .95238 .49383 .47619)" width="80" height="20" fill="#fff" stroke="#000"/><text class="Text" transform="translate(40,14)"   font-size="12px"  text-anchor="middle"><tspan x="0" y="0">IL4</tspan></text></a><g id="o" class="DirectedInteraction" color="#000" ><g color="#000" fill="transparent"  filter="url(#a)" stroke="#000" stroke-dasharray="108.23006407124582, 5.8"><path class="EdgeBody" d="m1216.8 948.92 107.23 38.796"   marker-end="url(#b)" /></g></g><g id="p" class="DirectedInteraction" color="#000" ><g color="#000" fill="transparent"  filter="url(#a)" stroke="#000" stroke-dasharray="77.26509527790489, 5.8"><path class="EdgeBody" d="m1270.5 579.4 83.063-0.52632"   marker-end="url(#b)" /></g></g><a  class="GeneProduct IL2 " transform="translate(1361.1 442.31)"   name="IL2"  ><rect class="Icon" transform="matrix(.98765 0 0 .95238 .49383 .47619)" width="80" height="20" fill="#fff" stroke="#000"/><text class="Text" transform="translate(40,14)"   font-size="12px"  text-anchor="middle"><tspan x="0" y="0">IL2</tspan></text></a><g id="q" class="DirectedInteraction" color="#000" ><g color="#000" fill="transparent"  filter="url(#a)" stroke="#000" stroke-dasharray="145.8001062712146, 5.8"><path class="EdgeBody" d="m1216.8 405.65 144.24 46.664"   marker-end="url(#b)" /></g></g><a  class="GeneProduct CCR3 " transform="translate(1129 466.64)"   name="CCR3"  ><rect class="Icon" transform="matrix(.98765 0 0 .95238 .49383 .47619)" width="80" height="20" fill="#fff" stroke="#000"/><text class="Text" transform="translate(40,14)"   font-size="12px"  text-anchor="middle"><tspan x="0" y="0">CCR3</tspan></text></a><a  class="GeneProduct CCR4 " transform="translate(1129 486.64)"   name="CCR4"  ><rect class="Icon" transform="matrix(.98765 0 0 .95238 .49383 .47619)" width="80" height="20" fill="#fff" stroke="#000"/><text class="Text" transform="translate(40,14)"   font-size="12px"  text-anchor="middle"><tspan x="0" y="0">CCR4</tspan></text></a><a  class="GeneProduct CXCR3 " transform="translate(1233.6 379.85)"   name="CXCR3"  ><rect class="Icon" transform="matrix(.98765 0 0 .95238 .49383 .47619)" width="80" height="20" fill="#fff" stroke="#000"/><text class="Text" transform="translate(40,14)"   font-size="12px"  text-anchor="middle"><tspan x="0" y="0">CXCR3</tspan></text></a><a  class="GeneProduct CCR2 " transform="translate(1233.6 339.85)"   name="CCR2"  ><rect class="Icon" transform="matrix(.98765 0 0 .95238 .49383 .47619)" width="80" height="20" fill="#fff" stroke="#000"/><text class="Text" transform="translate(40,14)"   font-size="12px"  text-anchor="middle"><tspan x="0" y="0">CCR2</tspan></text></a><a  class="GeneProduct CCR1 " transform="translate(1233.6 319.85)"   name="CCR1"  ><rect class="Icon" transform="matrix(.98765 0 0 .95238 .49383 .47619)" width="80" height="20" fill="#fff" stroke="#000"/><text class="Text" transform="translate(40,14)"   font-size="12px"  text-anchor="middle"><tspan x="0" y="0">CCR1</tspan></text></a><a  class="GeneProduct CCR5 " transform="translate(1233.6 359.85)"   name="CCR5"  ><rect class="Icon" transform="matrix(.98765 0 0 .95238 .49383 .47619)" width="80" height="20" fill="#fff" stroke="#000"/><text class="Text" transform="translate(40,14)"   font-size="12px"  text-anchor="middle"><tspan x="0" y="0">CCR5</tspan></text></a><a  class="GeneProduct CCR3 " transform="translate(1229.4 892.92)"   name="CCR3"  ><rect class="Icon" transform="matrix(.98765 0 0 .95238 .49383 .47619)" width="80" height="20" fill="#fff" stroke="#000"/><text class="Text" transform="translate(40,14)"   font-size="12px"  text-anchor="middle"><tspan x="0" y="0">CCR3</tspan></text></a><a  class="GeneProduct CCR4 " transform="translate(1229.4 912.92)"   name="CCR4"  ><rect class="Icon" transform="matrix(.98765 0 0 .95238 .49383 .47619)" width="80" height="20" fill="#fff" stroke="#000"/><text class="Text" transform="translate(40,14)"   font-size="12px"  text-anchor="middle"><tspan x="0" y="0">CCR4</tspan></text></a><a  class="GeneProduct CCR2 " transform="translate(1229.4 872.92)"   name="CCR2"  ><rect class="Icon" transform="matrix(.98765 0 0 .95238 .49383 .47619)" width="80" height="20" fill="#fff" stroke="#000"/><text class="Text" transform="translate(40,14)"   font-size="12px"  text-anchor="middle"><tspan x="0" y="0">CCR2</tspan></text></a><g class="SingleFreeNode Shape PhysicalEntity CellularComponent Nucleus" transform="translate(362.81 735.48)" color="#c0c0c0" ><g fill="transparent"  filter="url(#c)" stroke="#c0c0c0" stroke-width="3"><use class="Icon" transform="matrix(.81616 0 0 .72463 4.897 4.3478)" width="53.274980937500096" height="31.578194375000106"    xlink:href="#f"/></g></g><g class="SingleFreeNode Shape PhysicalEntity CellularComponent Cell" transform="translate(283.68 648.69)" color="#c0c0c0" ><g fill="transparent"  filter="url(#c)" stroke="#c0c0c0" stroke-width="3"><rect class="Icon" transform="matrix(.9361 0 0 .92302 5.6166 5.5381)" width="175.8" height="143.89" rx="15" ry="15"   /></g></g><g class="SingleFreeNode Shape PhysicalEntity CellularComponent Nucleus" transform="translate(211.99 217.1)" color="#c0c0c0" ><g fill="transparent"  filter="url(#c)" stroke="#c0c0c0" stroke-width="3"><use class="Icon" transform="matrix(.81616 0 0 .72463 4.897 4.3478)" width="53.274980937500096" height="31.578194375000106"    xlink:href="#f"/></g></g><g class="SingleFreeNode Shape PhysicalEntity CellularComponent Cell" transform="translate(130.31 122.66)" color="#c0c0c0" ><g fill="transparent"  filter="url(#c)" stroke="#c0c0c0" stroke-width="3"><rect class="Icon" transform="matrix(.9361 0 0 .92302 5.6166 5.5381)" width="175.8" height="143.89" rx="15" ry="15"   /></g></g><g class="SingleFreeNode Shape PhysicalEntity CellularComponent Nucleus" transform="translate(414.71 126.27)" color="#c0c0c0" ><g fill="transparent"  filter="url(#c)" stroke="#c0c0c0" stroke-width="3"><use class="Icon" transform="matrix(.81616 0 0 .72463 4.897 4.3478)" width="53.274980937500096" height="31.578194375000106"    xlink:href="#f"/></g></g><g class="SingleFreeNode Shape PhysicalEntity CellularComponent Cell" transform="translate(339.41 39.487)" color="#c0c0c0" ><g fill="transparent"  filter="url(#c)" stroke="#c0c0c0" stroke-width="3"><rect class="Icon" transform="matrix(.9361 0 0 .92302 5.6166 5.5381)" width="175.8" height="143.89" rx="15" ry="15"   /></g></g><g class="GroupComplex" transform="translate(357.39 256.06)" color="grey" ><use class="Icon" transform="matrix(.99048 0 0 .98462 .49524 .49231)" width="104" height="64" fill="#b4b464" fill-opacity=".1" stroke="grey" xlink:href="#e"/><a  class="GeneProduct IL12B " transform="translate(12,32)"   name="IL12B"  ><rect class="Icon" transform="matrix(.98765 0 0 .95238 .49383 .47619)" width="80" height="20" fill="#fff" stroke="#000"/><text class="Text" transform="translate(40,14)"   font-size="12px"  text-anchor="middle"><tspan x="0" y="0">IL12B</tspan></text></a><a  class="GeneProduct IL12A " transform="translate(12,12)"   name="IL12A"  ><rect class="Icon" transform="matrix(.98765 0 0 .95238 .49383 .47619)" width="80" height="20" fill="#fff" stroke="#000"/><text class="Text" transform="translate(40,14)"   font-size="12px"  text-anchor="middle"><tspan x="0" y="0">IL12A</tspan></text></a></g><g class="GroupComplex" transform="translate(288.26 320.94)" color="grey" ><use class="Icon" transform="matrix(.99048 0 0 .98462 .49524 .49231)" width="104" height="64" fill="#b4b464" fill-opacity=".1" stroke="grey" xlink:href="#e"/><a  class="GeneProduct IL12B " transform="translate(12,32)"   name="IL12B"  ><rect class="Icon" transform="matrix(.98765 0 0 .95238 .49383 .47619)" width="80" height="20" fill="#fff" stroke="#000"/><text class="Text" transform="translate(40,14)"   font-size="12px"  text-anchor="middle"><tspan x="0" y="0">IL12B</tspan></text></a><a  class="GeneProduct IL12A " transform="translate(12,12)"   name="IL12A"  ><rect class="Icon" transform="matrix(.98765 0 0 .95238 .49383 .47619)" width="80" height="20" fill="#fff" stroke="#000"/><text class="Text" transform="translate(40,14)"   font-size="12px"  text-anchor="middle"><tspan x="0" y="0">IL12A</tspan></text></a></g><g class="GroupComplex" transform="translate(464.17 208.42)" color="grey" ><use class="Icon" transform="matrix(.99048 0 0 .98462 .49524 .49231)" width="104" height="64" fill="#b4b464" fill-opacity=".1" stroke="grey" xlink:href="#e"/><a  class="GeneProduct IL12B " transform="translate(12,32)"   name="IL12B"  ><rect class="Icon" transform="matrix(.98765 0 0 .95238 .49383 .47619)" width="80" height="20" fill="#fff" stroke="#000"/><text class="Text" transform="translate(40,14)"   font-size="12px"  text-anchor="middle"><tspan x="0" y="0">IL12B</tspan></text></a><a  class="GeneProduct IL12A " transform="translate(12,12)"   name="IL12A"  ><rect class="Icon" transform="matrix(.98765 0 0 .95238 .49383 .47619)" width="80" height="20" fill="#fff" stroke="#000"/><text class="Text" transform="translate(40,14)"   font-size="12px"  text-anchor="middle"><tspan x="0" y="0">IL12A</tspan></text></a></g><g id="r" class="DirectedInteraction" color="#000" ><g color="#000" fill="transparent"  filter="url(#a)" stroke="#000" stroke-dasharray="163.58829064484286, 5.8"><path class="EdgeBody" d="m392.26 352.94 167.66-24.161"   marker-end="url(#b)" /></g></g><g id="s" class="DirectedInteraction" color="#000" ><g color="#000" fill="transparent"  filter="url(#a)" stroke="#000" stroke-dasharray="95.78033903744954, 5.8"><path class="EdgeBody" d="m461.39 304.06 98.527 24.719"   marker-end="url(#b)" /></g></g><g id="t" class="DirectedInteraction" color="#000" ><g color="#000" fill="transparent"  filter="url(#a)" stroke="#000" stroke-dasharray="65.54300318960941, 5.8"><path class="EdgeBody" d="m516.17 272.42 43.74 56.362"   marker-end="url(#b)" /></g></g><g id="u" class="DirectedInteraction" color="#000" ><g color="#000" fill="transparent"  filter="url(#a)" stroke="#000" stroke-dasharray="67.76451092614842, 5.8"><path class="EdgeBody" d="m583.14 932.39-73.562-0.56992"   marker-end="url(#b)" /></g></g><g id="v" class="DirectedInteraction" color="#000" ><g color="#000" fill="transparent"  filter="url(#a)" stroke="#000" stroke-dasharray="506.8546511562195, 5.8"><path class="EdgeBody" d="m366.26 384.94 260.09 441.78"   marker-end="url(#b)" /></g></g><g id="w" class="DirectedInteraction" color="#000" ><g color="#000" fill="transparent"  filter="url(#a)" stroke="#000" stroke-dasharray="261.2941911717376, 5.8"><path class="EdgeBody" d="m340.26 384.94 31.32 265.25"   marker-end="url(#b)" /></g></g><a  class="GeneProduct IFNG " transform="translate(520.1 580.86)"   name="IFNG"  ><rect class="Icon" transform="matrix(.98765 0 0 .95238 .49383 .47619)" width="80" height="20" fill="#fff" stroke="#000"/><text class="Text" transform="translate(40,14)"   font-size="12px"  text-anchor="middle"><tspan x="0" y="0">IFNG</tspan></text></a><g id="x" class="DirectedInteraction" color="#000" ><g color="#000" fill="transparent"  filter="url(#a)" stroke="#000" stroke-dasharray="311.77012867112313, 5.8"><path class="EdgeBody" d="m669.54 826.72-57.177-312.38"   marker-end="url(#b)" /></g></g><g id="y" class="DirectedInteraction" color="#000" ><g color="#000" fill="transparent"  filter="url(#a)" stroke="#000" stroke-dasharray="60.71754668791347, 5.8"><path class="EdgeBody" d="m560.1 580.86-0.18321-66.517"   marker-end="url(#b)" /></g></g><g id="z" class="Interaction" color="#000" ><g color="#000" fill="transparent"  filter="url(#a)" stroke="#000" stroke-dasharray="85.66753574652661, 0"><path class="EdgeBody" d="m1270.5 625.79 62.349 58.749"   /></g></g><g id="aa" class="Edge GraphicalLine" color="#000" ><g color="#000" fill="transparent"  filter="url(#a)" stroke="#000" stroke-dasharray="921.343115078128, 0"><path class="EdgeBody" d="m175.01 265.05v666.77h254.57"   /></g></g><text class="Text" transform="translate(5,27)" dominant-baseline="central" fill="black"  font-size="12px" font-weight="bold" overflow="visible" ><tspan x="0" y="-9">Name: Selective expression of chemokine receptors during T-cell polarization</tspan> <tspan x="0" y="9">Organism: Homo sapiens</tspan></text></g></svg>
