<?xml version="1.0" encoding="UTF-8"?>
<!--
  WikiPathways page: https://www.wikipathways.org/index.php/Pathway:WP4518
  URL for this compressed file: https://github.com/eweitz/cachome/tree/main/data/wikipathways/WP4518.svg
  Source code for compression: https://github.com/eweitz/cachome/tree/main/src/wikipathways.py
-->
<svg class="Diagram" width="800" height="600" color="black" baseProfile="full" prefix="schema:http://schema.org/" preserveAspectRatio="xMidYMid" version="1.1" viewBox="0 0 898.88 446.86" vocab="http://vocabularies.wikipathways.org/wp#" xmlns="http://www.w3.org/2000/svg" xmlns:xlink="http://www.w3.org/1999/xlink"><style>svg {font-family: 'Liberation Sans', Arial, sans-serif; }</style><defs><filter id="a" x="0" y="0" width="898.88" height="446.86" filterUnits="userSpaceOnUse"><feColorMatrix in="SourceGraphic" values="-1   0   0 0 0                   0  -1   0 0 0                   0   0  -1 0 0                   0   0   0 1 0"/></filter><marker id="e" stroke-dasharray="99999" markerHeight="12" markerUnits="userSpaceOnUse" markerWidth="12" orient="auto" preserveAspectRatio="none" refX="12" refY="6" viewBox="0 0 12 12"><path transform="rotate(180 6 6)" d="M12 11L0 6l12-5z" fill="currentColor" stroke-width="0"/></marker><marker id="d" stroke-dasharray="99999" markerHeight="12" markerUnits="userSpaceOnUse" markerWidth="12" orient="auto" preserveAspectRatio="none" refX="12" refY="6" viewBox="0 0 12 12"><circle transform="rotate(180 6 6)" cx="6" cy="6" r="5.3" fill="none" stroke="#000"/></marker><marker id="b" stroke-dasharray="99999" markerHeight="12" markerUnits="userSpaceOnUse" markerWidth="12" orient="auto" preserveAspectRatio="none" refX="12" refY="6" viewBox="0 0 12 12"><path transform="rotate(180 6 6)" d="M12 11L0 6l12-5z" fill="currentColor" stroke-width="0"/></marker><symbol id="c" preserveAspectRatio="none" viewBox="0 0 100 100"/></defs><g class="Viewport" color="black"  name="Name: Gamma-glutamyl cycle for the biosynthesis and degradation of glutathione, including diseases Organism: Homo sapiens"><rect class="Icon" width="898.88" height="446.86" fill="#fff" stroke="#000" stroke-width="0"/><g id="f" class="Rhea_20506" color="#000" ><g color="#000" fill="transparent"  filter="url(#a)" stroke="#000" stroke-dasharray="122.4521296296346, 5.8"><path class="EdgeBody" d="m129.5 231.48 3e-14 128.25"   marker-end="url(#b)" /></g><g class="Burr Anchor" transform="translate(129.5 283.81)" ><use class="Icon" width="0" height="0" fill="#141414" stroke-width="0" xlink:href="#c"/></g></g><g id="g" class="Edge GraphicalLine DirectedInteraction" color="#000" ><g color="#000" fill="transparent"  filter="url(#a)" stroke="#000" stroke-dasharray="5.06, 3.04, 5.06, 3.04, 5.06, 3.04, 5.06, 3.04, 5.06, 3.04, 5.06, 3.04, 5.06, 3.04, 5.06, 3.04, 5.06, 3.04, 5.06, 3.04, 5.06, 3.04, 5.06, 3.04, 5.06, 3.04, 5.06, 3.04, 5.06, 5.8"><path class="EdgeBody" d="m362.85 372.23-122.24-22.078"   marker-end="url(#e)" /></g></g><g id="h" class="Rhea_13558" color="#000" ><g color="#000" fill="transparent"  filter="url(#a)" stroke="#000" stroke-dasharray="43.9707810213715, 5.8"><path class="EdgeBody" d="m525.23 152.23-22.26-44.515"   marker-end="url(#b)" /></g></g><g id="i" class="Edge GraphicalLine DirectedInteraction" color="#000" ><g color="#000" fill="transparent"  filter="url(#a)" stroke="#000" stroke-dasharray="5.55, 3.33, 5.55, 3.33, 5.55, 3.33, 5.55, 3.33, 5.55, 3.33, 0, 5.8"><path class="EdgeBody" d="m631.47 300.95 46.895-0.388"   marker-end="url(#e)" /></g></g><g id="j" class="Interaction" color="#000" ><g color="#000" fill="transparent"  filter="url(#a)" stroke="#000" stroke-dasharray="90.14540930092984, 5.8"><path class="EdgeBody" d="m362.03 253.36 95.945 0.38205"   marker-end="url(#b)" /></g></g><g id="k" class="Rhea_10349" color="#000" ><g color="#000" fill="transparent"  filter="url(#a)" stroke="#000" stroke-dasharray="75.58602786890043, 0"><path class="EdgeBody" d="m435.84 391.86-72.993-19.63"   /></g></g><g id="l" class="Rhea_13558" color="#000" ><g color="#000" fill="transparent"  filter="url(#a)" stroke="#000" stroke-dasharray="85.9559527530144, 5.8"><path class="EdgeBody" d="m502.97 241.25 22.26-89.015"   marker-end="url(#b)" /></g></g><g id="m" class="Interaction" color="#000" ><g color="#000" fill="transparent"  filter="url(#a)" stroke="#000" stroke-dasharray="30.62195338460488, 11"><path class="EdgeBody" d="m171.12 283.94-41.622-0.13449"   marker-end="url(#d)" /></g></g><g id="n" class="Interaction" color="#000" ><g color="#000" fill="transparent"  filter="url(#a)" stroke="#000" stroke-dasharray="6.148016315802202, 11"><path class="EdgeBody" d="m344.9 252.59 17.13 0.77536"   marker-end="url(#d)" /></g></g><g id="o" class="Rhea_13286" color="#000" ><g color="#000" fill="transparent"  filter="url(#a)" stroke="#000" stroke-dasharray="219.4209141583736, 5.8"><path class="EdgeBody" d="m406.25 300.56 225.22 0.388"   marker-end="url(#b)" /></g></g><g id="p" class="Rhea_13558" color="#000" ><g color="#000" fill="transparent"  filter="url(#a)" stroke="#000" stroke-dasharray="61.27275642292927, 0"><path class="EdgeBody" d="m586.47 150.09-61.235 2.1368"   /></g></g><g id="q" class="Rhea_10349" color="#000" ><g color="#000" fill="transparent"  filter="url(#a)" stroke="#000" stroke-dasharray="406.1694456845083, 5.8"><path class="EdgeBody" d="m174.5 372.23h411.97"   marker-end="url(#b)" /></g><g class="Burr Anchor" transform="translate(362.85 372.23)" ><use class="Icon" width="0" height="0" fill="#141414" stroke-width="0" xlink:href="#c"/></g></g><g id="r" class="Interaction" color="#000" ><g color="#000" fill="transparent"  filter="url(#a)" stroke="#000" stroke-dasharray="49.71910725774114, 11"><path class="EdgeBody" d="m464.51 152.12 60.719 0.10711"   marker-end="url(#d)" /></g></g><g id="s" class="Interaction" color="#000" ><g color="#000" fill="transparent"  filter="url(#a)" stroke="#000" stroke-dasharray="52.03546296296507, 5.8"><path class="EdgeBody" d="m362.03 230.23v57.835"   marker-end="url(#b)" /></g><g class="Burr Anchor" transform="translate(362.03 253.36)" ><use class="Icon" width="0" height="0" fill="#141414" stroke-width="0" xlink:href="#c"/></g><g class="Burr Anchor" transform="translate(362.03 253.36)" ><use class="Icon" width="0" height="0" fill="#141414" stroke-width="0" xlink:href="#c"/></g></g><g id="t" class="Rhea_28808" color="#000" ><g color="#000" fill="transparent"  filter="url(#a)" stroke="#000" stroke-dasharray="40.20651769643237, 5.8"><path class="EdgeBody" d="m362.03 151.12 28.812 35.868"   marker-end="url(#b)" /></g></g><g id="u" class="Rhea_20506" color="#000" ><g color="#000" fill="transparent"  filter="url(#a)" stroke="#000" stroke-dasharray="16.969688161187815, 5.8"><path class="EdgeBody" d="m129.5 283.81-15.419 16.755"   marker-end="url(#b)" /></g></g><g id="v" class="Rhea_13286" color="#000" ><g color="#000" fill="transparent"  filter="url(#a)" stroke="#000" stroke-dasharray="120.96580150463471, 5.8"><path class="EdgeBody" d="m631.47 359.73 1e-13 -126.77"   marker-end="url(#b)" /></g><g class="Burr Anchor" transform="translate(631.47 300.95)" ><use class="Icon" width="0" height="0" fill="#141414" stroke-width="0" xlink:href="#c"/></g></g><g id="w" class="Edge GraphicalLine DirectedInteraction" color="#000" ><g color="#000" fill="transparent"  filter="url(#a)" stroke="#000" stroke-dasharray="6, 3.6, 6, 3.6, 6, 3.6, 0, 5.8"><path class="EdgeBody" d="m225.53 152.04-33.532 6.3324"   marker-end="url(#e)" /></g></g><g id="x" class="Interaction" color="#000" ><g color="#000" fill="transparent"  filter="url(#a)" stroke="#000" stroke-dasharray="11.093579398811716, 11"><path class="EdgeBody" d="m362.03 350.15 0.81899 22.078"   marker-end="url(#d)" /></g></g><g id="y" class="Interaction" color="#000" ><g color="#000" fill="transparent"  filter="url(#a)" stroke="#000" stroke-dasharray="34.692592586409475, 11"><path class="EdgeBody" d="m271.22 152.12-45.693-0.082432"   marker-end="url(#d)" /></g></g><g id="z" class="Edge GraphicalLine DirectedInteraction" color="#000" ><g color="#000" fill="transparent"  filter="url(#a)" stroke="#000" stroke-dasharray="5.65, 3.39, 5.65, 3.39, 5.65, 3.39, 5.65, 3.39, 5.65, 3.39, 5.65, 3.39, 5.65, 3.39, 5.65, 5.8"><path class="EdgeBody" d="m525.23 152.23 58.054-47.023"   marker-end="url(#e)" /></g></g><g id="aa" class="Interaction" color="#000" ><g color="#000" fill="transparent"  filter="url(#a)" stroke="#000" stroke-dasharray="13.228541382826734, 11"><path class="EdgeBody" d="m614.21 283.94 17.255 17.008"   marker-end="url(#d)" /></g></g><g id="ab" class="Rhea_23905" color="#000" ><g color="#000" fill="transparent"  filter="url(#a)" stroke="#000" stroke-dasharray="39.43563732470266, 0"><path class="EdgeBody" d="m211.85 115.06 13.683 36.986"   /></g></g><g id="ac" class="Rhea_13286" color="#000" ><g color="#000" fill="transparent"  filter="url(#a)" stroke="#000" stroke-dasharray="103.8562470526845, 0"><path class="EdgeBody" d="m728.62 337.65-97.156-36.7"   /></g></g><g id="ad" class="Rhea_13558" color="#000" ><g color="#000" fill="transparent"  filter="url(#a)" stroke="#000" stroke-dasharray="242.4927348604178, 5.8"><path class="EdgeBody" d="m631.47 202.49-224.44-106.19"   marker-end="url(#b)" /></g><g class="Burr Anchor" transform="translate(525.23 152.23)" ><use class="Icon" width="0" height="0" fill="#141414" stroke-width="0" xlink:href="#c"/></g></g><g id="ae" class="Rhea_13286" color="#000" ><g color="#000" fill="transparent"  filter="url(#a)" stroke="#000" stroke-dasharray="99.44798773769865, 5.8"><path class="EdgeBody" d="m631.47 300.95 97.156-40.471"   marker-end="url(#b)" /></g></g><g id="af" class="Rhea_28808" color="#000" ><g color="#000" fill="transparent"  filter="url(#a)" stroke="#000" stroke-dasharray="84.37379629629483, 5.8"><path class="EdgeBody" d="m362.03 115.06-3e-14 90.174"   marker-end="url(#b)" /></g><g class="Burr Anchor" transform="translate(362.03 151.12)" ><use class="Icon" width="0" height="0" fill="#141414" stroke-width="0" xlink:href="#c"/></g></g><g id="ag" class="Rhea_23905" color="#000" ><g color="#000" fill="transparent"  filter="url(#a)" stroke="#000" stroke-dasharray="207.39925080533865, 5.8"><path class="EdgeBody" d="m317.03 102.56-187.53 101.42"   marker-end="url(#b)" /></g><g class="Burr Anchor" transform="translate(225.53 152.04)" ><use class="Icon" width="0" height="0" fill="#141414" stroke-width="0" xlink:href="#c"/></g></g><g id="ah" class="Rhea_10349" color="#000" ><g color="#000" fill="transparent"  filter="url(#a)" stroke="#000" stroke-dasharray="60.139048033320464, 5.8"><path class="EdgeBody" d="m362.85 372.23-62.949 19.63"   marker-end="url(#b)" /></g></g><g class="Label" transform="translate(678.36 284.18)" color="#00f"  name="Gamma-Glutamylcysteine  Synthetase Deficiency"><rect class="Icon" transform="matrix(.99478 0 0 .97039 .49739 .48519)" width="190.52" height="32.772" rx="15" ry="15" fill="#fcf" stroke="#00f"/><text class="Text" transform="translate(95.261 20.386)" fill="#00f"  font-size="12px"  text-anchor="middle"><tspan x="0" y="-6.6000000000000005">Gamma-Glutamylcysteine </tspan> <tspan x="0" y="6.6000000000000005">Synthetase Deficiency</tspan></text></g><g class="Label" transform="translate(259.9 41.052)" color="#000"  name="Gamma-Glutamyl Cycle"><use class="Icon" width="271.01250000000005" height="25" fill="transparent"  stroke="#000" stroke-width="0" xlink:href="#c"/><text class="Text" transform="translate(135.51 18.5)"   font-size="18px" font-weight="bold"  text-anchor="middle"><tspan x="0" y="0">Gamma-Glutamyl Cycle</tspan></text></g><g class="Label" transform="translate(66.999 145.87)" color="#00f"  name="Glutathionuria"><rect class="Icon" transform="matrix(.99206 0 0 .96154 .49603 .48077)" width="125" height="25" rx="15" ry="15" fill="#fcf" stroke="#00f"/><text class="Text" transform="translate(62.5,16.5)" fill="#00f"  font-size="12px"  text-anchor="middle"><tspan x="0" y="0">Glutathionuria</tspan></text></g><g class="Label" transform="translate(583.29 81.664)" color="#00f"  name="Glutathione  Synthetase  Deficiency"><rect class="Icon" transform="matrix(.98973 0 0 .9792 .49486 .4896)" width="96.364" height="47.086" rx="15" ry="15" fill="#fcf" stroke="#00f"/><text class="Text" transform="translate(48.182 27.543)" fill="#00f"  font-size="12px"  text-anchor="middle"><tspan x="0" y="-13.200000000000001">Glutathione </tspan> <tspan x="0" y="0">Synthetase </tspan> <tspan x="0" y="13.200000000000001">Deficiency</tspan></text></g><g class="Label" transform="translate(187.48 325.15)" color="#00f"  name="Oxoprolinuria"><rect class="Icon" transform="matrix(.99068 0 0 .96154 .49534 .48077)" width="106.25" height="25" rx="15" ry="15" fill="#fcf" stroke="#00f"/><text class="Text" transform="translate(53.125,16.5)" fill="#00f"  font-size="12px"  text-anchor="middle"><tspan x="0" y="0">Oxoprolinuria</tspan></text></g><a class="ChEBI_CHEBI_14321 Metabolite  " transform="translate(586.47 359.73)" color="#00f"  name="Glutamate"  ><rect class="Icon" transform="matrix(.98901 0 0 .96154 .49451 .48077)" width="90" height="25" fill="#fff" stroke="#00f"/><text class="Text" transform="translate(45,16.5)" fill="#00f"  font-size="12px"  text-anchor="middle"><tspan x="0" y="0">Glutamate</tspan></text></a><a  class="Protein GGT1 " transform="translate(271.22 139.62)"   name="GGT1"  ><rect class="Icon" transform="matrix(.98286 0 0 .96154 .49143 .48077)" width="57.349" height="25" fill="#fff" stroke="#000"/><text class="Text" transform="translate(28.674 16.5)"   font-size="12px"  text-anchor="middle"><tspan x="0" y="0">GGT1</tspan></text></a><a class="Metabolite ChEBI_CHEBI_15428  " transform="translate(457.97 241.25)" color="#00f"  name="Glycine"  ><rect class="Icon" transform="matrix(.98901 0 0 .96154 .49451 .48077)" width="90" height="25" fill="#fff" stroke="#00f"/><text class="Text" transform="translate(45,16.5)" fill="#00f"  font-size="12px"  text-anchor="middle"><tspan x="0" y="0">Glycine</tspan></text></a><a  class="Protein GSS " transform="translate(407.16 139.62)"   name="GSS"  ><rect class="Icon" transform="matrix(.98286 0 0 .96154 .49143 .48077)" width="57.349" height="25" fill="#fff" stroke="#000"/><text class="Text" transform="translate(28.674 16.5)"   font-size="12px"  text-anchor="middle"><tspan x="0" y="0">GSS</tspan></text></a><a class="ChEBI_CHEBI_15857 Metabolite ChEBI_CHEBI_77644   " transform="translate(22.531 203.98)" color="#00f"  name="L-Gamma-Glutamyl Amino Acid"  ><rect class="Icon" transform="matrix(.99535 0 0 .96491 .49767 .48246)" width="213.93" height="27.5" fill="#fff" stroke="#00f"/><text class="Text" transform="translate(106.97 17.75)" fill="#00f"  font-size="12px"  text-anchor="middle"><tspan x="0" y="0">L-Gamma-Glutamyl Amino Acid</tspan></text></a><a  class="ChEBI_CHEBI_15422 Metabolite  " transform="translate(586.47 137.59)"   name="ATP"  ><rect class="Icon" transform="matrix(.98901 0 0 .96154 .49451 .48077)" width="90" height="25" fill="#fff" stroke="#000"/><text class="Text" transform="translate(45,16.5)"   font-size="12px"  text-anchor="middle"><tspan x="0" y="0">ATP</tspan></text></a><a  class="ChEBI_CHEBI_16761 Metabolite  " transform="translate(457.97 82.715)"   name="ADP"  ><rect class="Icon" transform="matrix(.98901 0 0 .96154 .49451 .48077)" width="90" height="25" fill="#fff" stroke="#000"/><text class="Text" transform="translate(45,16.5)"   font-size="12px"  text-anchor="middle"><tspan x="0" y="0">ADP</tspan></text></a><a  class="ChEBI_CHEBI_16761 Metabolite  " transform="translate(254.9 391.86)"   name="ADP"  ><rect class="Icon" transform="matrix(.98901 0 0 .96154 .49451 .48077)" width="90" height="25" fill="#fff" stroke="#000"/><text class="Text" transform="translate(45,16.5)"   font-size="12px"  text-anchor="middle"><tspan x="0" y="0">ADP</tspan></text></a><a  class="ChEBI_CHEBI_33704 Metabolite  " transform="translate(166.85 90.055)"   name="Amino Acid"  ><rect class="Icon" transform="matrix(.98901 0 0 .96154 .49451 .48077)" width="90" height="25" fill="#fff" stroke="#000"/><text class="Text" transform="translate(45,16.5)"   font-size="12px"  text-anchor="middle"><tspan x="0" y="0">Amino Acid</tspan></text></a><a  class="Uniprot-TrEMBL_O14841 Protein OPLAH " transform="translate(307.45 325.15)"   name="5-Oxoprolinase"  ><rect class="Icon" transform="matrix(.99092 0 0 .96154 .49546 .48077)" width="109.16" height="25" fill="#fff" stroke="#000"/><text class="Text" transform="translate(54.579 16.5)"   font-size="12px"  text-anchor="middle"><tspan x="0" y="0">5-Oxoprolinase</tspan></text></a><a class="ChEBI_CHEBI_15356 Metabolite ChEBI_CHEBI_35237   " transform="translate(317.81 288.06)" color="#00f"  name="Cysteine"  ><rect class="Icon" transform="matrix(.98882 0 0 .96154 .49441 .48077)" width="88.44" height="25" fill="#fff" stroke="#00f"/><text class="Text" transform="translate(44.22 16.5)" fill="#00f"  font-size="12px"  text-anchor="middle"><tspan x="0" y="0">Cysteine</tspan></text></a><a class="ChEBI_CHEBI_16856 Metabolite  " transform="translate(317.03 90.055)" color="#0033ff"  name="Glutathione"  ><rect class="Icon" transform="matrix(.98901 0 0 .96154 .49451 .48077)" width="90" height="25" fill="#fff" stroke="#03f"/><text class="Text" transform="translate(45,16.5)" fill="#0033ff"  font-size="12px"  text-anchor="middle"><tspan x="0" y="0">Glutathione</tspan></text></a><a class="ChEBI_CHEBI_16010 Metabolite  " transform="translate(84.499 359.73)" color="#00f"  name="5-Oxoproline"  ><rect class="Icon" transform="matrix(.98901 0 0 .96154 .49451 .48077)" width="90" height="25" fill="#fff" stroke="#00f"/><text class="Text" transform="translate(45,16.5)" fill="#00f"  font-size="12px"  text-anchor="middle"><tspan x="0" y="0">5-Oxoproline</tspan></text></a><a class="ChEBI_CHEBI_17515 Metabolite  " transform="translate(549.97 202.49)" color="#0033ff"  name="Gamma-Glutamylcysteine"  ><rect class="Icon" transform="matrix(.9939 0 0 .96823 .49695 .48411)" width="163" height="30.473" fill="#fff" stroke="#03f"/><text class="Text" transform="translate(81.5 19.236)" fill="#0033ff"  font-size="12px"  text-anchor="middle"><tspan x="0" y="0">Gamma-Glutamylcysteine</tspan></text></a><a  class="ChEBI_CHEBI_15422 Metabolite  " transform="translate(728.62 325.15)"   name="ATP"  ><rect class="Icon" transform="matrix(.98901 0 0 .96154 .49451 .48077)" width="90" height="25" fill="#fff" stroke="#000"/><text class="Text" transform="translate(45,16.5)"   font-size="12px"  text-anchor="middle"><tspan x="0" y="0">ATP</tspan></text></a><a class="Metabolite ChEBI_CHEBI_4047  " transform="translate(298.28 205.23)" color="#00f"  name="Cysteinylglycine"  ><rect class="Icon" transform="matrix(.99222 0 0 .96154 .49611 .48077)" width="127.5" height="25" fill="#fff" stroke="#00f"/><text class="Text" transform="translate(63.75,16.5)" fill="#00f"  font-size="12px"  text-anchor="middle"><tspan x="0" y="0">Cysteinylglycine</tspan></text></a><a  class="ChEBI_CHEBI_16761 Metabolite  " transform="translate(728.62 247.98)"   name="ADP"  ><rect class="Icon" transform="matrix(.98901 0 0 .96154 .49451 .48077)" width="90" height="25" fill="#fff" stroke="#000"/><text class="Text" transform="translate(45,16.5)"   font-size="12px"  text-anchor="middle"><tspan x="0" y="0">ADP</tspan></text></a><a  class="Protein GGCT " transform="translate(171.12 271.44)"   name="GGCT"  ><rect class="Icon" transform="matrix(.98286 0 0 .96154 .49143 .48077)" width="57.349" height="25" fill="#fff" stroke="#000"/><text class="Text" transform="translate(28.674 16.5)"   font-size="12px"  text-anchor="middle"><tspan x="0" y="0">GGCT</tspan></text></a><a  class="Protein GCLC " transform="translate(556.86 271.44)"   name="GCLC"  ><rect class="Icon" transform="matrix(.98286 0 0 .96154 .49143 .48077)" width="57.349" height="25" fill="#fff" stroke="#000"/><text class="Text" transform="translate(28.674 16.5)"   font-size="12px"  text-anchor="middle"><tspan x="0" y="0">GCLC</tspan></text></a><g class="Uniprot-TrEMBL_A0A140VJI3 Protein DPEP1 " transform="translate(254.9 240.09)" color="#000"  name="Dipeptidase"><rect class="Icon" transform="matrix(.98901 0 0 .96154 .49451 .48077)" width="90" height="25" fill="#fff" stroke="#000"/><text class="Text" transform="translate(45 16.5)"   font-size="12px"  text-anchor="middle"><tspan x="0" y="0">Dipeptidase</tspan></text></g><a  class="ChEBI_CHEBI_15422 Metabolite  " transform="translate(390.84 391.86)"   name="ATP"  ><rect class="Icon" transform="matrix(.98901 0 0 .96154 .49451 .48077)" width="90" height="25" fill="#fff" stroke="#000"/><text class="Text" transform="translate(45,16.5)"   font-size="12px"  text-anchor="middle"><tspan x="0" y="0">ATP</tspan></text></a><a  class="ChEBI_CHEBI_33704 Metabolite  " transform="translate(24.08 288.06)"   name="Amino Acid"  ><rect class="Icon" transform="matrix(.98901 0 0 .96154 .49451 .48077)" width="90" height="25" fill="#fff" stroke="#000"/><text class="Text" transform="translate(45,16.5)"   font-size="12px"  text-anchor="middle"><tspan x="0" y="0">Amino Acid</tspan></text></a><a class="ChEBI_CHEBI_14321 Metabolite  " transform="translate(390.84 174.49)" color="#00f"  name="Glutamate"  ><rect class="Icon" transform="matrix(.98901 0 0 .96154 .49451 .48077)" width="90" height="25" fill="#fff" stroke="#00f"/><text class="Text" transform="translate(45,16.5)" fill="#00f"  font-size="12px"  text-anchor="middle"><tspan x="0" y="0">Glutamate</tspan></text></a><text class="Text" transform="translate(5,27)" dominant-baseline="central" fill="black"  font-size="12px" font-weight="bold" overflow="visible" ><tspan x="0" y="-9">Name: Gamma-glutamyl cycle for the biosynthesis and degradation of glutathione, including diseases</tspan> <tspan x="0" y="9">Organism: Homo sapiens</tspan></text></g></svg>
