<?xml version="1.0" encoding="UTF-8"?>
<!--
  WikiPathways page: https://www.wikipathways.org/index.php/Pathway:WP4507
  URL for this compressed file: https://github.com/eweitz/cachome/tree/main/data/wikipathways/WP4507.svg
  Source code for compression: https://github.com/eweitz/cachome/tree/main/src/wikipathways.py
-->
<svg class="Diagram" width="800" height="600" color="black" baseProfile="full" prefix="schema:http://schema.org/" preserveAspectRatio="xMidYMid" version="1.1" viewBox="0 0 926.39 692.5" vocab="http://vocabularies.wikipathways.org/wp#" xmlns="http://www.w3.org/2000/svg" xmlns:xlink="http://www.w3.org/1999/xlink"><style>svg {font-family: 'Liberation Sans', Arial, sans-serif; }</style><defs><filter id="a" x="0" y="0" width="926.39" height="692.5" filterUnits="userSpaceOnUse"><feColorMatrix in="SourceGraphic" values="-1   0   0 0 0                   0  -1   0 0 0                   0   0  -1 0 0                   0   0   0 1 0"/></filter><marker id="f" stroke-dasharray="99999" markerHeight="12" markerUnits="userSpaceOnUse" markerWidth="12" orient="auto" preserveAspectRatio="none" refX="12" refY="6" viewBox="0 0 12 12"><path transform="rotate(180 6 6)" d="M12 11L0 6l12-5z" fill="currentColor" stroke-width="0"/></marker><marker id="e" stroke-dasharray="99999" markerHeight="12" markerUnits="userSpaceOnUse" markerWidth="12" orient="auto" preserveAspectRatio="none" refX="12" refY="6" viewBox="0 0 12 12"><path transform="rotate(180 6 6)" d="M12 12L0 6l12-6-7 6z" fill="currentColor" stroke-width="0"/></marker><marker id="d" stroke-dasharray="99999" markerHeight="12" markerUnits="userSpaceOnUse" markerWidth="12" orient="auto" preserveAspectRatio="none" refX="12" refY="6" viewBox="0 0 12 12"><circle transform="rotate(180 6 6)" cx="6" cy="6" r="5.3" fill="none" stroke="#000"/></marker><marker id="c" stroke-dasharray="99999" markerHeight="12" markerUnits="userSpaceOnUse" markerWidth="12" orient="auto" preserveAspectRatio="none" refX="12" refY="6" viewBox="0 0 12 12"><path transform="rotate(180 6 6)" d="M12 11L0 6l12-5z" fill="currentColor" stroke-width="0"/></marker><marker id="h" stroke-dasharray="99999" markerHeight="12" markerUnits="userSpaceOnUse" markerWidth="12" orient="auto" preserveAspectRatio="none" refX="12" refY="6" viewBox="0 0 12 12"><path transform="rotate(180 6 6)" d="M0 6l11 5V1z" fill="currentColor" stroke-width="0"/></marker><symbol id="g" overflow="visible" preserveAspectRatio="none" viewBox="0 0 100 100"><path d="M0 25L25 0h50l25 25v50l-25 25H25L0 75z" stroke="currentColor" vector-effect="non-scaling-stroke"/></symbol><symbol id="b" preserveAspectRatio="none" viewBox="0 0 100 100"/></defs><g class="Viewport" color="black"  name="Name: Molybdenum cofactor (Moco) biosynthesis Organism: Homo sapiens"><rect class="Icon" width="926.39" height="692.5" fill="#fff" stroke="#000" stroke-width="0"/><g id="i" class="Interaction" color="#000" ><g color="#000" fill="transparent"  filter="url(#a)" stroke="#000" stroke-dasharray="78.2, 5.8"><path class="EdgeBody" d="m222 66.5v84"   marker-end="url(#c)" /></g><g class="Burr Anchor" transform="translate(222,108)" ><use class="Icon" width="0" height="0" fill="#141414" stroke-width="0" xlink:href="#b"/></g></g><g id="j" class="Interaction" color="#000" ><g color="#000" fill="transparent"  filter="url(#a)" stroke="#000" stroke-dasharray="30.2, 5.8"><path class="EdgeBody" d="m693 329.5v36"   marker-end="url(#c)" /></g><g class="Burr Anchor" transform="translate(693,343.9)" ><use class="Icon" width="0" height="0" fill="#141414" stroke-width="0" xlink:href="#b"/></g></g><g id="k" class="Interaction" color="#000" ><g color="#000" fill="transparent"  filter="url(#a)" stroke="#000" stroke-dasharray="17.010042841809437, 11"><path class="EdgeBody" d="m194 294.25 28 0.75"   marker-end="url(#d)" /></g></g><g id="l" class="Edge GraphicalLine DirectedInteraction" color="#000" ><g color="#000" fill="transparent"  filter="url(#a)" stroke="#000" stroke-dasharray="5.48, 3.29, 5.48, 3.29, 5.48, 3.29, 5.48, 3.29, 5.48, 3.29, 5.48, 3.29, 5.48, 3.29, 0, 5.8"><path class="EdgeBody" d="m693 534.1 63.94-0.12799"   marker-end="url(#f)" /></g></g><g id="m" class="Interaction" color="#000" ><g color="#000" fill="transparent"  filter="url(#a)" stroke="#000" stroke-dasharray="40.5054608755227, 11"><path class="EdgeBody" d="M641.5,445.25L693,446"   marker-end="url(#d)" /></g></g><g id="n" class="Interaction" color="#000" ><g color="#000" fill="transparent"  filter="url(#a)" stroke="#000" stroke-dasharray="32.30189579043269, 1"><path class="EdgeBody" d="m415.5 435 14.273 30.088"   marker-end="url(#e)" /></g></g><g id="o" class="Interaction" color="#000" ><g color="#000" fill="transparent"  filter="url(#a)" stroke="#000" stroke-dasharray="332.5, 1"><path class="EdgeBody" d="m267 465h66v-103h164.5"   marker-end="url(#e)" /></g><g class="Burr Anchor" transform="translate(423.81 362)" ><use class="Icon" width="0" height="0" fill="#141414" stroke-width="0" xlink:href="#b"/></g></g><g id="p" class="Interaction" color="#000" ><g color="#000" fill="transparent"  filter="url(#a)" stroke="#000" stroke-dasharray="40.50155337463133, 11"><path class="EdgeBody" d="m641.5 343.5 51.5 0.4"   marker-end="url(#d)" /></g></g><g id="q" class="Interaction" color="#000" ><g color="#000" fill="transparent"  filter="url(#a)" stroke="#000" stroke-dasharray="40.50155337463133, 11"><path class="EdgeBody" d="m641.5 623.5 51.5-0.4"   marker-end="url(#d)" /></g></g><g id="r" class="Interaction" color="#000" ><g color="#000" fill="transparent"  filter="url(#a)" stroke="#000" stroke-dasharray="8.374286114258549, 11"><path class="EdgeBody" d="m415.5 344.5 8.3134 17.5"   marker-end="url(#h)" /></g></g><g id="s" class="Interaction" color="#000" ><g color="#000" fill="transparent"  filter="url(#a)" stroke="#000" stroke-dasharray="40.503495027036756, 11"><path class="EdgeBody" d="m641.5 533.5 51.5 0.6"   marker-end="url(#d)" /></g></g><g id="t" class="Interaction" color="#000" ><g color="#000" fill="transparent"  filter="url(#a)" stroke="#000" stroke-dasharray="9.006249023742555, 11"><path class="EdgeBody" d="m202 108.5 20-0.5"   marker-end="url(#d)" /></g></g><g id="u" class="Interaction" color="#000" ><g color="#000" fill="transparent"  filter="url(#a)" stroke="#000" stroke-dasharray="24.431054012336553, 1"><path class="EdgeBody" d="m415.5 629.5 6.8182-24.5"   marker-end="url(#e)" /></g></g><g id="v" class="Interaction" color="#000" ><g color="#000" fill="transparent"  filter="url(#a)" stroke="#000" stroke-dasharray="32.55922963853565, 1"><path class="EdgeBody" d="m415.5 542.5 19.235-27.5"   marker-end="url(#e)" /></g></g><g id="w" class="Interaction" color="#000" ><g color="#000" fill="transparent"  filter="url(#a)" stroke="#000" stroke-dasharray="9.006249023742555, 11"><path class="EdgeBody" d="m202 203.5 20 0.5"   marker-end="url(#d)" /></g></g><g class="GroupGroup" transform="translate(758.39 502.8)" color="grey" ><use class="Icon" width="146" height="66.00000000000011" fill="transparent"  stroke="grey" stroke-dasharray="5,3" stroke-width="0" xlink:href="#b"/><g class="Label" transform="translate(8,8)" color="#00f"  name="Xanthinuria Type I"><rect class="Icon" transform="matrix(.99237 0 0 .96154 .49618 .48077)" width="130" height="25" rx="15" ry="15" fill="#fcc" stroke="#00f"/><text class="Text" transform="translate(65,16.5)" fill="#00f"  font-size="12px"  text-anchor="middle"><tspan x="0" y="0">Xanthinuria Type I</tspan></text></g><g class="Label" transform="translate(8 33)" color="#00f"  name="Xanthinuria Type II"><rect class="Icon" transform="matrix(.99237 0 0 .96154 .49618 .48077)" width="130" height="25" rx="15" ry="15" fill="#fcc" stroke="#00f"/><text class="Text" transform="translate(65,16.5)" fill="#00f"  font-size="12px"  text-anchor="middle"><tspan x="0" y="0">Xanthinuria Type II</tspan></text></g></g><g class="Uniprot-TrEMBL_P51687 Protein SUOX " transform="translate(355.5,319.5)" color="#000"  name="Sulfite oxidase"><rect class="Icon" transform="matrix(.99174 0 0 .96154 .49587 .48077)" width="120" height="25" fill="#fff" stroke="#000"/><text class="Text" transform="translate(60,16.5)"   font-size="12px"  text-anchor="middle"><tspan x="0" y="0">Sulfite oxidase</tspan></text></g><a class="ChEBI_CHEBI_52994 Metabolite  " transform="translate(177,150.5)" color="#00f"  name="cPMP"  ><rect class="Icon" transform="matrix(.98901 0 0 .96154 .49451 .48077)" width="90" height="25" fill="#fff" stroke="#00f"/><text class="Text" transform="translate(45,16.5)" fill="#00f"  font-size="12px"  text-anchor="middle"><tspan x="0" y="0">cPMP</tspan></text></a><g class="Uniprot-TrEMBL_Q9NQX3 Protein GPHN " transform="translate(104,278.5)" color="#000"  name="Gephyrin (G domain)"><rect class="Icon" transform="matrix(.98901 0 0 .96923 .49451 .48462)" width="90" height="31.5" fill="#fff" stroke="#000"/><text class="Text" transform="translate(45,19.75)"   font-size="12px"  text-anchor="middle"><tspan x="0" y="-6.6000000000000005">Gephyrin</tspan> <tspan x="0" y="6.6000000000000005">(G domain)</tspan></text></g><a class="ChEBI_CHEBI_71306 Metabolite  " transform="translate(177,452.5)" color="#00f"  name="Moco"  ><rect class="Icon" transform="matrix(.98901 0 0 .96154 .49451 .48077)" width="90" height="25" fill="#fff" stroke="#00f"/><text class="Text" transform="translate(45,16.5)" fill="#00f"  font-size="12px"  text-anchor="middle"><tspan x="0" y="0">Moco</tspan></text></a><g class="Metabolite" transform="translate(648,412.5)" color="#00f"  name="R=N-OH"><rect class="Icon" transform="matrix(.98901 0 0 .96154 .49451 .48077)" width="90" height="25" fill="#fff" stroke="#00f"/><text class="Text" transform="translate(45,16.5)" fill="#00f"  font-size="12px"  text-anchor="middle"><tspan x="0" y="0">R=N-OH</tspan></text></g><a class="ChEBI_CHEBI_44074 Metabolite  " transform="translate(177,237.5)" color="#00f"  name="MPT"  ><rect class="Icon" transform="matrix(.98901 0 0 .96154 .49451 .48077)" width="90" height="25" fill="#fff" stroke="#00f"/><text class="Text" transform="translate(45,16.5)" fill="#00f"  font-size="12px"  text-anchor="middle"><tspan x="0" y="0">MPT</tspan></text></a><a class="ChEBI_CHEBI_37565 Metabolite  " transform="translate(177,41.5)" color="#00f"  name="GTP"  ><rect class="Icon" transform="matrix(.98901 0 0 .96154 .49451 .48077)" width="90" height="25" fill="#fff" stroke="#00f"/><text class="Text" transform="translate(45,16.5)" fill="#00f"  font-size="12px"  text-anchor="middle"><tspan x="0" y="0">GTP</tspan></text></a><a class="ChEBI_CHEBI_26823 Metabolite  " transform="translate(648,304.5)" color="#00f"  name="Sulfite"  ><rect class="Icon" transform="matrix(.98901 0 0 .96154 .49451 .48077)" width="90" height="25" fill="#fff" stroke="#00f"/><text class="Text" transform="translate(45,16.5)" fill="#00f"  font-size="12px"  text-anchor="middle"><tspan x="0" y="0">Sulfite</tspan></text></a><a class="ChEBI_CHEBI_17712 Metabolite  " transform="translate(648,499.5)" color="#00f"  name="Xanthine"  ><rect class="Icon" transform="matrix(.98901 0 0 .96154 .49451 .48077)" width="90" height="25" fill="#fff" stroke="#00f"/><text class="Text" transform="translate(45,16.5)" fill="#00f"  font-size="12px"  text-anchor="middle"><tspan x="0" y="0">Xanthine</tspan></text></a><g class="GroupGroup" transform="translate(96,75.5)" color="grey" ><use class="Icon" width="106" height="66" fill="transparent"  stroke="grey" stroke-dasharray="5,3" stroke-width="0" xlink:href="#b"/><a  class="Protein MOCS1 " transform="translate(8,8)"   name="MOCS1A"  ><rect class="Icon" transform="matrix(.98901 0 0 .96154 .49451 .48077)" width="90" height="25" fill="#fff" stroke="#000"/><text class="Text" transform="translate(45,16.5)"   font-size="12px"  text-anchor="middle"><tspan x="0" y="0">MOCS1A</tspan></text></a><g class="Protein" transform="translate(8,33)" color="#000"  name="MOCS1AB"><rect class="Icon" transform="matrix(.98901 0 0 .96154 .49451 .48077)" width="90" height="25" fill="#fff" stroke="#000"/><text class="Text" transform="translate(45,16.5)"   font-size="12px"  text-anchor="middle"><tspan x="0" y="0">MOCS1AB</tspan></text></g></g><a class="ChEBI_CHEBI_62728 Metabolite  " transform="translate(177,343.5)" color="#00f"  name="MPT-AMP"  ><rect class="Icon" transform="matrix(.98901 0 0 .96154 .49451 .48077)" width="90" height="25" fill="#fff" stroke="#00f"/><text class="Text" transform="translate(45,16.5)" fill="#00f"  font-size="12px"  text-anchor="middle"><tspan x="0" y="0">MPT-AMP</tspan></text></a><g class="Uniprot-TrEMBL_Q969Z3 Protein MARC2 " transform="translate(355.5,404.5)" color="#000"  name="Amidoxime reducing component"><rect class="Icon" transform="matrix(.99174 0 0 .96825 .49587 .48413)" width="120" height="30.5" fill="#fff" stroke="#000"/><text class="Text" transform="translate(60,19.25)"   font-size="12px"  text-anchor="middle"><tspan x="0" y="-6.6000000000000005">Amidoxime reducing</tspan> <tspan x="0" y="6.6000000000000005">component</tspan></text></g><g class="Uniprot-TrEMBL_P47989 Protein XDH " transform="translate(355.5,542.5)" color="#000"  name="Xanthine oxidase"><rect class="Icon" transform="matrix(.99174 0 0 .96154 .49587 .48077)" width="120" height="25" fill="#fff" stroke="#000"/><text class="Text" transform="translate(60,16.5)"   font-size="12px"  text-anchor="middle"><tspan x="0" y="0">Xanthine oxidase</tspan></text></g><g class="Uniprot-TrEMBL_Q06278 Protein AOX1 " transform="translate(355.5,629.5)" color="#000"  name="Aldehyde oxidase"><rect class="Icon" transform="matrix(.99174 0 0 .96154 .49587 .48077)" width="120" height="25" fill="#fff" stroke="#000"/><text class="Text" transform="translate(60,16.5)"   font-size="12px"  text-anchor="middle"><tspan x="0" y="0">Aldehyde oxidase</tspan></text></g><g id="x" class="Interaction" color="#000" ><g color="#000" fill="transparent"  filter="url(#a)" stroke="#000" stroke-dasharray="56.2, 5.8"><path class="EdgeBody" d="m222 175.5v62"   marker-end="url(#c)" /></g><g class="Burr Anchor" transform="translate(222,204)" ><use class="Icon" width="0" height="0" fill="#141414" stroke-width="0" xlink:href="#b"/></g></g><g id="y" class="Interaction" color="#000" ><g color="#000" fill="transparent"  filter="url(#a)" stroke="#000" stroke-dasharray="75.2, 5.8"><path class="EdgeBody" d="m222 262.5v81"   marker-end="url(#c)" /></g><g class="Burr Anchor" transform="translate(222,295)" ><use class="Icon" width="0" height="0" fill="#141414" stroke-width="0" xlink:href="#b"/></g></g><g id="z" class="Interaction" color="#000" ><g color="#000" fill="transparent"  filter="url(#a)" stroke="#000" stroke-dasharray="78.2, 5.8"><path class="EdgeBody" d="m222 368.5v84"   marker-end="url(#c)" /></g><g class="Burr Anchor" transform="translate(222,402.1)" ><use class="Icon" width="0" height="0" fill="#141414" stroke-width="0" xlink:href="#b"/></g></g><a class="Metabolite ChEBI_CHEBI_26836  " transform="translate(648,365.5)" color="#00f"  name="Sulfate"  ><rect class="Icon" transform="matrix(.98901 0 0 .96154 .49451 .48077)" width="90" height="25" fill="#fff" stroke="#00f"/><text class="Text" transform="translate(45,16.5)" fill="#00f"  font-size="12px"  text-anchor="middle"><tspan x="0" y="0">Sulfate</tspan></text></a><g class="Metabolite" transform="translate(648,465.5)" color="#00f"  name="R-NH"><rect class="Icon" transform="matrix(.98901 0 0 .96154 .49451 .48077)" width="90" height="25" fill="#fff" stroke="#00f"/><text class="Text" transform="translate(45,16.5)" fill="#00f"  font-size="12px"  text-anchor="middle"><tspan x="0" y="0">R-NH</tspan></text></g><a class="ChEBI_CHEBI_17775 Metabolite  " transform="translate(648,548.5)" color="#00f"  name="urate"  ><rect class="Icon" transform="matrix(.98901 0 0 .96154 .49451 .48077)" width="90" height="25" fill="#fff" stroke="#00f"/><text class="Text" transform="translate(45,16.5)" fill="#00f"  font-size="12px"  text-anchor="middle"><tspan x="0" y="0">urate</tspan></text></a><g class="Metabolite" transform="translate(648,588.5)" color="#00f"  name="R-H"><rect class="Icon" transform="matrix(.98901 0 0 .96154 .49451 .48077)" width="90" height="25" fill="#fff" stroke="#00f"/><text class="Text" transform="translate(45,16.5)" fill="#00f"  font-size="12px"  text-anchor="middle"><tspan x="0" y="0">R-H</tspan></text></g><a class="ChEBI_CHEBI_17478 Metabolite  " transform="translate(648,637.5)" color="#00f"  name="R-OH"  ><rect class="Icon" transform="matrix(.98901 0 0 .96154 .49451 .48077)" width="90" height="25" fill="#fff" stroke="#00f"/><text class="Text" transform="translate(45,16.5)" fill="#00f"  font-size="12px"  text-anchor="middle"><tspan x="0" y="0">R-OH</tspan></text></a><g id="aa" class="Interaction" color="#000" ><g color="#000" fill="transparent"  filter="url(#a)" stroke="#000" stroke-dasharray="22.2, 5.8"><path class="EdgeBody" d="m693 437.5v28"   marker-end="url(#c)" /></g><g class="Burr Anchor" transform="translate(693,446)" ><use class="Icon" width="0" height="0" fill="#141414" stroke-width="0" xlink:href="#b"/></g></g><g id="ab" class="Rhea_16670" color="#000" ><g color="#000" fill="transparent"  filter="url(#a)" stroke="#000" stroke-dasharray="18.2, 5.8"><path class="EdgeBody" d="m693 524.5v24"   marker-end="url(#c)" /></g><g class="Burr Anchor" transform="translate(693,534.1)" ><use class="Icon" width="0" height="0" fill="#141414" stroke-width="0" xlink:href="#b"/></g></g><g id="ac" class="Interaction" color="#000" ><g color="#000" fill="transparent"  filter="url(#a)" stroke="#000" stroke-dasharray="18.2, 5.8"><path class="EdgeBody" d="m693 613.5v24"   marker-end="url(#c)" /></g><g class="Burr Anchor" transform="translate(693 623.1)" ><use class="Icon" width="0" height="0" fill="#141414" stroke-width="0" xlink:href="#b"/></g></g><g id="ad" class="Interaction" color="#000" ><g color="#000" fill="transparent"  filter="url(#a)" stroke="#000" stroke-dasharray="229.50003389370684, 1"><path class="EdgeBody" d="m267 465 230.5 0.125"   marker-end="url(#e)" /></g><g class="Burr Anchor" transform="translate(429.77 465.09)" ><use class="Icon" width="0" height="0" fill="#141414" stroke-width="0" xlink:href="#b"/></g></g><g id="ae" class="Interaction" color="#000" ><g color="#000" fill="transparent"  filter="url(#a)" stroke="#000" stroke-dasharray="279.5, 1"><path class="EdgeBody" d="m267 465h134v50h96.5"   marker-end="url(#e)" /></g><g class="Burr Anchor" transform="translate(434.73 515)" ><use class="Icon" width="0" height="0" fill="#141414" stroke-width="0" xlink:href="#b"/></g></g><g id="af" class="Interaction" color="#000" ><g color="#000" fill="transparent"  filter="url(#a)" stroke="#000" stroke-dasharray="369.5, 1"><path class="EdgeBody" d="m267 465h66v140h164.5"   marker-end="url(#e)" /></g><g class="Burr Anchor" transform="translate(422.32 605)" ><use class="Icon" width="0" height="0" fill="#141414" stroke-width="0" xlink:href="#b"/></g></g><g class="GroupComplex" transform="translate(497.5,306.5)" color="grey" ><use class="Icon" transform="matrix(.9931 0 0 .98667 .49655 .49333)" width="144" height="74" fill="#b4b464" fill-opacity=".1" stroke="grey" xlink:href="#g"/><g class="Uniprot-TrEMBL_P51687 Protein SUOX " transform="translate(12,12)" color="#000"  name="Sulfite oxidase"><rect class="Icon" transform="matrix(.99174 0 0 .96154 .49587 .48077)" width="120" height="25" fill="#fff" stroke="#000"/><text class="Text" transform="translate(60,16.5)"   font-size="12px"  text-anchor="middle"><tspan x="0" y="0">Sulfite oxidase</tspan></text></g><a class="ChEBI_CHEBI_21437 Metabolite  " transform="translate(12,37)" color="#00f"  name="Moco"  ><rect class="Icon" transform="matrix(.99174 0 0 .96154 .49587 .48077)" width="120" height="25" fill="#fff" stroke="#00f"/><text class="Text" transform="translate(60,16.5)" fill="#00f"  font-size="12px"  text-anchor="middle"><tspan x="0" y="0">Moco</tspan></text></a></g><g class="GroupComplex" transform="translate(497.5,405.5)" color="grey" ><use class="Icon" transform="matrix(.9931 0 0 .98758 .49655 .49379)" width="144" height="79.5" fill="#b4b464" fill-opacity=".1" stroke="grey" xlink:href="#g"/><g class="Uniprot-TrEMBL_Q969Z3 Protein MARC2 " transform="translate(12,12)" color="#000"  name="Amidoxime reducing component"><rect class="Icon" transform="matrix(.99174 0 0 .96825 .49587 .48413)" width="120" height="30.5" fill="#fff" stroke="#000"/><text class="Text" transform="translate(60,19.25)"   font-size="12px"  text-anchor="middle"><tspan x="0" y="-6.6000000000000005">Amidoxime reducing</tspan> <tspan x="0" y="6.6000000000000005">component</tspan></text></g><a class="ChEBI_CHEBI_21437 Metabolite  " transform="translate(12,42.5)" color="#00f"  name="Moco"  ><rect class="Icon" transform="matrix(.99174 0 0 .96154 .49587 .48077)" width="120" height="25" fill="#fff" stroke="#00f"/><text class="Text" transform="translate(60,16.5)" fill="#00f"  font-size="12px"  text-anchor="middle"><tspan x="0" y="0">Moco</tspan></text></a></g><g class="GroupComplex" transform="translate(497.5,496.5)" color="grey" ><use class="Icon" transform="matrix(.9931 0 0 .98667 .49655 .49333)" width="144" height="74" fill="#b4b464" fill-opacity=".1" stroke="grey" xlink:href="#g"/><g class="Uniprot-TrEMBL_P47989 Protein XDH " transform="translate(12,12)" color="#000"  name="Xanthine oxidase"><rect class="Icon" transform="matrix(.99174 0 0 .96154 .49587 .48077)" width="120" height="25" fill="#fff" stroke="#000"/><text class="Text" transform="translate(60,16.5)"   font-size="12px"  text-anchor="middle"><tspan x="0" y="0">Xanthine oxidase</tspan></text></g><a class="ChEBI_CHEBI_21437 Metabolite  " transform="translate(12,37)" color="#00f"  name="Moco"  ><rect class="Icon" transform="matrix(.99174 0 0 .96154 .49587 .48077)" width="120" height="25" fill="#fff" stroke="#00f"/><text class="Text" transform="translate(60,16.5)" fill="#00f"  font-size="12px"  text-anchor="middle"><tspan x="0" y="0">Moco</tspan></text></a></g><g class="GroupComplex" transform="translate(497.5,586.5)" color="grey" ><use class="Icon" transform="matrix(.9931 0 0 .98667 .49655 .49333)" width="144" height="74" fill="#b4b464" fill-opacity=".1" stroke="grey" xlink:href="#g"/><g class="Uniprot-TrEMBL_Q06278 Protein AOX1 " transform="translate(12,12)" color="#000"  name="Aldehyde oxidase"><rect class="Icon" transform="matrix(.99174 0 0 .96154 .49587 .48077)" width="120" height="25" fill="#fff" stroke="#000"/><text class="Text" transform="translate(60,16.5)"   font-size="12px"  text-anchor="middle"><tspan x="0" y="0">Aldehyde oxidase</tspan></text></g><a class="ChEBI_CHEBI_21437 Metabolite  " transform="translate(12,37)" color="#00f"  name="Moco"  ><rect class="Icon" transform="matrix(.99174 0 0 .96154 .49587 .48077)" width="120" height="25" fill="#fff" stroke="#00f"/><text class="Text" transform="translate(60,16.5)" fill="#00f"  font-size="12px"  text-anchor="middle"><tspan x="0" y="0">Moco</tspan></text></a></g><g class="GroupGroup" transform="translate(96,170.5)" color="grey" ><use class="Icon" width="106" height="66" fill="transparent"  stroke="grey" stroke-dasharray="5,3" stroke-width="0" xlink:href="#b"/><a  class="Uniprot-TrEMBL_O96007 Protein MOCS2 " transform="translate(8,8)"   name="MOCS2A"  ><rect class="Icon" transform="matrix(.98901 0 0 .96154 .49451 .48077)" width="90" height="25" fill="#fff" stroke="#000"/><text class="Text" transform="translate(45,16.5)"   font-size="12px"  text-anchor="middle"><tspan x="0" y="0">MOCS2A</tspan></text></a><a  class="Uniprot-TrEMBL_O96033 Protein MOCS2 " transform="translate(8,33)"   name="MOCS2B"  ><rect class="Icon" transform="matrix(.98901 0 0 .96154 .49451 .48077)" width="90" height="25" fill="#fff" stroke="#000"/><text class="Text" transform="translate(45,16.5)"   font-size="12px"  text-anchor="middle"><tspan x="0" y="0">MOCS2B</tspan></text></a></g><g class="Uniprot-TrEMBL_Q9NQX3 Protein GPHN " transform="translate(104,385.5)" color="#000"  name="Gephyrin (E domain)"><rect class="Icon" transform="matrix(.98901 0 0 .96923 .49451 .48462)" width="90" height="31.5" fill="#fff" stroke="#000"/><text class="Text" transform="translate(45,19.75)"   font-size="12px"  text-anchor="middle"><tspan x="0" y="-6.6000000000000005">Gephyrin</tspan> <tspan x="0" y="6.6000000000000005">(E domain)</tspan></text></g><g id="ag" class="Interaction" color="#000" ><g color="#000" fill="transparent"  filter="url(#a)" stroke="#000" stroke-dasharray="17.012898814653227, 11"><path class="EdgeBody" d="m194 401.25 28 0.85"   marker-end="url(#d)" /></g></g><g class="Label" transform="translate(744,326.5)" color="#00f"  name="Sulphite oxidase  deficiency"><rect class="Icon" transform="matrix(.99237 0 0 .97101 .49618 .48551)" width="130" height="33.5" rx="15" ry="15" fill="#fcc" stroke="#00f"/><text class="Text" transform="translate(65,20.75)" fill="#00f"  font-size="12px"  text-anchor="middle"><tspan x="0" y="-6.6000000000000005">Sulphite oxidase </tspan> <tspan x="0" y="6.6000000000000005">deficiency</tspan></text></g><g id="ah" class="Edge GraphicalLine DirectedInteraction" color="#000" ><g color="#000" fill="transparent"  filter="url(#a)" stroke="#000" stroke-dasharray="5.02, 3.01, 5.02, 3.01, 5.02, 3.01, 5.02, 3.01, 5.02, 3.01, 5.02, 3.01, 0, 5.8"><path class="EdgeBody" d="m693 343.9 51-0.65"   marker-end="url(#f)" /></g></g><g class="Label" transform="translate(251,91.5)" color="#00f"  name="MoCD type A"><rect class="Icon" transform="matrix(.99237 0 0 .97101 .49618 .48551)" width="130" height="33.5" rx="15" ry="15" fill="#fcc" stroke="#00f"/><text class="Text" transform="translate(65,20.75)" fill="#00f"  font-size="12px"  text-anchor="middle"><tspan x="0" y="0">MoCD type A</tspan></text></g><g class="Label" transform="translate(251,187.5)" color="#00f"  name="MoCD type B"><rect class="Icon" transform="matrix(.99237 0 0 .97101 .49618 .48551)" width="130" height="33.5" rx="15" ry="15" fill="#fcc" stroke="#00f"/><text class="Text" transform="translate(65,20.75)" fill="#00f"  font-size="12px"  text-anchor="middle"><tspan x="0" y="0">MoCD type B</tspan></text></g><g class="Label" transform="translate(251,278.5)" color="#00f"  name="MoCD type C"><rect class="Icon" transform="matrix(.99237 0 0 .97101 .49618 .48551)" width="130" height="33.5" rx="15" ry="15" fill="#fcc" stroke="#00f"/><text class="Text" transform="translate(65,20.75)" fill="#00f"  font-size="12px"  text-anchor="middle"><tspan x="0" y="0">MoCD type C</tspan></text></g><g id="ai" class="Edge GraphicalLine DirectedInteraction" color="#000" ><g color="#000" fill="transparent"  filter="url(#a)" stroke="#000" stroke-dasharray="5.15, 3.09, 5.15, 3.09, 5.15, 3.09, 5.15, 3.09, 5.15, 3.09, 5.15, 3.09, 5.15, 3.09, 5.15, 3.09, 5.15, 3.09, 5.15, 3.09, 5.15, 3.09, 5.15, 3.09, 5.15, 3.09, 5.15, 3.09, 5.15, 3.09, 5.15, 3.09, 5.15, 3.09, 5.15, 3.09, 5.15, 3.09, 5.15, 3.09, 5.15, 3.09, 5.15, 3.09, 0, 5.8"><path class="EdgeBody" d="m222 402.1h94v-66.1-24"   marker-end="url(#f)" /></g></g><g id="aj" class="Edge GraphicalLine DirectedInteraction" color="#000" ><g color="#000" fill="transparent"  filter="url(#a)" stroke="#000" stroke-dasharray="5.52, 3.31, 5.52, 3.31, 5.52, 3.31, 0, 5.8"><path class="EdgeBody" d="m222 295 29 0.25"   marker-end="url(#f)" /></g></g><g id="ak" class="Edge GraphicalLine DirectedInteraction" color="#000" ><g color="#000" fill="transparent"  filter="url(#a)" stroke="#000" stroke-dasharray="5.52, 3.31, 5.52, 3.31, 5.52, 3.31, 0, 5.8"><path class="EdgeBody" d="m222 204 29 0.25"   marker-end="url(#f)" /></g></g><g id="al" class="Edge GraphicalLine DirectedInteraction" color="#000" ><g color="#000" fill="transparent"  filter="url(#a)" stroke="#000" stroke-dasharray="5.52, 3.31, 5.52, 3.31, 5.52, 3.31, 0, 5.8"><path class="EdgeBody" d="m222 108 29 0.25"   marker-end="url(#f)" /></g></g><g id="am" class="Edge GraphicalLine DirectedInteraction" color="#000" ><g color="#000" fill="transparent"  filter="url(#a)" stroke="#000" stroke-dasharray="5.27, 3.16, 5.27, 3.16, 5.27, 3.16, 5.27, 3.16, 5.27, 3.16, 5.27, 3.16, 5.27, 3.16, 5.27, 3.16, 5.27, 3.16, 5.27, 3.16, 5.27, 3.16, 5.27, 3.16, 5.27, 3.16, 5.27, 3.16, 5.27, 3.16, 5.27, 3.16, 0, 5.8"><path class="EdgeBody" d="m434.73 515-136.59 16.817"   marker-end="url(#f)" /></g></g><g class="GroupGroup" transform="translate(152.14 498.82)" color="grey" ><use class="Icon" width="146" height="66.00000000000045" fill="transparent"  stroke="grey" stroke-dasharray="5,3" stroke-width="0" xlink:href="#b"/><g class="Label" transform="translate(8,8)" color="#00f"  name="Xanthinuria Type I"><rect class="Icon" transform="matrix(.99237 0 0 .96154 .49618 .48077)" width="130" height="25" rx="15" ry="15" fill="#fcc" stroke="#00f"/><text class="Text" transform="translate(65,16.5)" fill="#00f"  font-size="12px"  text-anchor="middle"><tspan x="0" y="0">Xanthinuria Type I</tspan></text></g><g class="Label" transform="translate(8 33)" color="#00f"  name="Xanthinuria Type II"><rect class="Icon" transform="matrix(.99237 0 0 .96154 .49618 .48077)" width="130" height="25" rx="15" ry="15" fill="#fcc" stroke="#00f"/><text class="Text" transform="translate(65,16.5)" fill="#00f"  font-size="12px"  text-anchor="middle"><tspan x="0" y="0">Xanthinuria Type II</tspan></text></g></g><text class="Text" transform="translate(5,27)" dominant-baseline="central" fill="black"  font-size="12px" font-weight="bold" overflow="visible" ><tspan x="0" y="-9">Name: Molybdenum cofactor (Moco) biosynthesis</tspan> <tspan x="0" y="9">Organism: Homo sapiens</tspan></text></g></svg>
