<?xml version="1.0" encoding="UTF-8"?>
<!--
  WikiPathways page: https://www.wikipathways.org/index.php/Pathway:WP4589
  URL for this compressed file: https://github.com/eweitz/cachome/tree/main/data/wikipathways/WP4589.svg
  Source code for compression: https://github.com/eweitz/cachome/tree/main/src/wikipathways.py
-->
<svg class="Diagram" width="800" height="600" color="black" baseProfile="full" prefix="schema:http://schema.org/" preserveAspectRatio="xMidYMid" version="1.1" viewBox="0 0 1403.7 777.56" vocab="http://vocabularies.wikipathways.org/wp#" xmlns="http://www.w3.org/2000/svg" xmlns:xlink="http://www.w3.org/1999/xlink"><style>svg {font-family: 'Liberation Sans', Arial, sans-serif; }</style><defs><filter id="k" x="-50%" y="-50%" width="200%" height="200%"><feComposite in="SourceGraphic" in2="SourceGraphic" result="doubleDark"/><feMorphology in="doubleDark" operator="dilate" radius="0.16666666666666666" result="in2Double"/><feMorphology in="SourceGraphic" operator="dilate" radius="3" result="inDouble"/><feComposite in="inDouble" in2="in2Double" operator="out" result="doubleResult"/></filter><filter id="a" x="0" y="0" width="1403.7" height="777.56" filterUnits="userSpaceOnUse"><feColorMatrix in="SourceGraphic" values="-1   0   0 0 0                   0  -1   0 0 0                   0   0  -1 0 0                   0   0   0 1 0"/></filter><marker id="d" stroke-dasharray="99999" markerHeight="12" markerUnits="userSpaceOnUse" markerWidth="12" orient="auto" preserveAspectRatio="none" refX="12" refY="6" viewBox="0 0 12 12"><path transform="rotate(180 6 6)" d="M12 11L0 6l12-5z" fill="currentColor" stroke-width="0"/></marker><marker id="f" stroke-dasharray="99999" markerHeight="12" markerUnits="userSpaceOnUse" markerWidth="12" orient="auto" preserveAspectRatio="none" refX="12" refY="6" viewBox="0 0 12 12"><path transform="rotate(180 6 6)" d="M12 12L0 6l12-6-7 6z" fill="currentColor" stroke-width="0"/></marker><marker id="g" stroke-dasharray="99999" markerHeight="12" markerUnits="userSpaceOnUse" markerWidth="12" orient="auto" preserveAspectRatio="none" refX="12" refY="6" viewBox="0 0 12 12"><circle transform="rotate(180 6 6)" cx="6" cy="6" r="5.3" fill="none" stroke="#000"/></marker><marker id="e" stroke-dasharray="99999" markerHeight="12" markerUnits="userSpaceOnUse" markerWidth="12" orient="auto" preserveAspectRatio="none" refX="12" refY="6" viewBox="0 0 12 12"><path transform="rotate(180 6 6)" d="M12 11L0 6l12-5z" fill="currentColor" stroke-width="0"/></marker><marker id="h" stroke-dasharray="99999" markerHeight="20" markerUnits="userSpaceOnUse" markerWidth="10" orient="auto" preserveAspectRatio="none" refX="10" refY="10" viewBox="0 0 10 20"><path d="m3 0v20" fill="currentColor" stroke="currentColor"/></marker><marker id="c" stroke-dasharray="99999" markerHeight="12" markerUnits="userSpaceOnUse" markerWidth="12" orient="auto" preserveAspectRatio="none" refX="12" refY="6" viewBox="0 0 12 12"><g transform="rotate(180 6 6)" fill="none"><path d="m12 6"/><path d="M0 6l11 5V1z" stroke="#000"/></g></marker><symbol id="j" overflow="visible" preserveAspectRatio="none" viewBox="0 0 50 50"><ellipse cx="25" cy="25" rx="25" ry="25" stroke="currentColor" vector-effect="non-scaling-stroke"/></symbol><symbol id="i" overflow="visible" preserveAspectRatio="none" viewBox="0 0 100 100"><path d="M0 25L25 0h50l25 25v50l-25 25H25L0 75z" stroke="currentColor" vector-effect="non-scaling-stroke"/></symbol><symbol id="b" preserveAspectRatio="none" viewBox="0 0 100 100"/></defs><g class="Viewport" color="black"  name="Name: Major receptors targeted by epinephrine and norepinephrine Organism: Homo sapiens"><rect class="Icon" width="1403.7" height="777.56" fill="#fff" stroke="#000" stroke-width="0"/><g id="l" class="Interaction" color="#000" ><g color="#000" fill="transparent"  filter="url(#a)" stroke="#000" stroke-dasharray="93.40846373341718, 11"><path class="EdgeBody" d="m271.87 507.28-97.648 36.959"   marker-end="url(#c)" /></g></g><g id="m" class="Edge GraphicalLine" color="#000" ><g color="#000" fill="transparent"  filter="url(#a)" stroke="#000" stroke-dasharray="114.59856537617289, 5.8"><path class="EdgeBody" d="m1048.8 557.98 120.39 1.1576"   marker-end="url(#e)" /></g></g><g id="n" class="DirectedInteraction" color="#000" ><g color="#000" fill="transparent"  filter="url(#a)" stroke="#000" stroke-dasharray="5.38, 3.23, 5.38, 3.23, 5.38, 3.23, 5.38, 3.23, 5.38, 3.23, 5.38, 3.23, 5.38, 3.23, 5.38, 3.23, 5.38, 3.23, 5.38, 3.23, 5.38, 3.23, 0, 5.8"><path class="EdgeBody" d="m474.31 86.75-95.305 19.666"   marker-end="url(#d)" /></g></g><g id="o" class="Edge GraphicalLine DirectedInteraction" color="#000" ><g color="#000" fill="transparent"  filter="url(#a)" stroke="#000" stroke-dasharray="87.77884642041958, 5.8"><path class="EdgeBody" d="m248.74 391.6 23.129 90.675"   marker-end="url(#d)" /></g></g><g id="p" class="Interaction" color="#000" ><g color="#000" fill="transparent"  filter="url(#a)" stroke="#000" stroke-dasharray="25.511084385151662, 11"><path class="EdgeBody" d="m686.62 255.58 1e-13 36.511"   marker-end="url(#c)" /></g></g><g id="q" class="Edge GraphicalLine" color="#000" ><g color="#000" fill="transparent"  filter="url(#a)" stroke="#000" stroke-dasharray="118.02350000000001, 7"><path class="EdgeBody" d="m1045.3 691.1 125.02-3e-13"   marker-end="url(#h)" /></g></g><g id="r" class="Edge GraphicalLine DirectedInteraction" color="#000" ><g color="#000" fill="transparent"  filter="url(#a)" stroke="#000" stroke-dasharray="36.635347974751156, 5.8"><path class="EdgeBody" d="m150.73 573.97-1.2e-13 42.435"   marker-end="url(#d)" /></g></g><g id="s" class="Edge GraphicalLine" color="#000" ><g color="#000" fill="transparent"  filter="url(#a)" stroke="#000" stroke-dasharray="107.07775000000015, 11"><path class="EdgeBody" d="m1050 645.95h118.08"   marker-end="url(#c)" /></g></g><g id="t" class="Interaction" color="#000" ><g color="#000" fill="transparent"  filter="url(#a)" stroke="#000" stroke-dasharray="67.34094775212661, 5.8"><path class="EdgeBody" d="m144.59 379.1 73.141-1e-13"   marker-end="url(#e)" /></g><g class="Burr Anchor" transform="translate(173.85 379.1)" ><use class="Icon" width="0" height="0" fill="#141414" stroke-width="0" xlink:href="#b"/></g></g><g id="u" class="Interaction" color="#000" ><g color="#000" fill="transparent"  filter="url(#a)" stroke="#000" stroke-dasharray="82.09621315575069, 11"><path class="EdgeBody" d="m150.67 451.14 0.057261 93.096"   marker-end="url(#c)" /></g></g><g id="v" class="Interaction" color="#000" ><g color="#000" fill="transparent"  filter="url(#a)" stroke="#000" stroke-dasharray="185.13547647099782, 1"><path class="EdgeBody" d="m658.05 131.42-157.52 99.168"   marker-end="url(#f)" /></g></g><g id="w" class="Interaction" color="#000" ><g color="#000" fill="transparent"  filter="url(#a)" stroke="#000" stroke-dasharray="98.35372329078466, 1"><path class="EdgeBody" d="m680.55 131.42 6.0753 99.168"   marker-end="url(#f)" /></g></g><g id="x" class="DirectedInteraction" color="#000" ><g color="#000" fill="transparent"  filter="url(#a)" stroke="#000" stroke-dasharray="211.4907729312859, 5.8"><path class="EdgeBody" d="m279.74 379.1h56.357v160.93"   marker-end="url(#d)" /></g></g><g id="y" class="Interaction" color="#000" ><g color="#000" fill="transparent"  filter="url(#a)" stroke="#000" stroke-dasharray="155.8476544031167, 1"><path class="EdgeBody" d="m379.01 131.42 121.52 99.168"   marker-end="url(#f)" /></g></g><g id="z" class="Interaction" color="#000" ><g color="#000" fill="transparent"  filter="url(#a)" stroke="#000" stroke-dasharray="46.64006219623965, 5.8"><path class="EdgeBody" d="m173.85 379.1-23.181 47.038"   marker-end="url(#e)" /></g></g><g id="aa" class="Interaction" color="#000" ><g color="#000" fill="transparent"  filter="url(#a)" stroke="#000" stroke-dasharray="25.511084385151605, 11"><path class="EdgeBody" d="m500.53 255.58 6e-14 36.511"   marker-end="url(#c)" /></g></g><g id="ab" class="Interaction" color="#000" ><g color="#000" fill="transparent"  filter="url(#a)" stroke="#000" stroke-dasharray="17.942461767792373, 11"><path class="EdgeBody" d="m174.52 350.17-0.66592 28.935"   marker-end="url(#g)" /></g></g><g id="ac" class="Rhea_15390" color="#000" ><g color="#000" fill="transparent"  filter="url(#a)" stroke="#000" stroke-dasharray="77.13896011219374, 5.8"><path class="EdgeBody" d="m594.15 300.47 2e-13 82.939"   marker-end="url(#e)" /></g><g class="Burr Anchor" transform="translate(594.15 333.65)" ><use class="Icon" width="0" height="0" fill="#141414" stroke-width="0" xlink:href="#b"/></g></g><g id="ad" class="Interaction" color="#000" ><g color="#000" fill="transparent"  filter="url(#a)" stroke="#000" stroke-dasharray="83.5875792200375, 11"><path class="EdgeBody" d="m686.62 313.77-92.475 19.88"   marker-end="url(#g)" /></g></g><g id="ae" class="Rhea_15390" color="#000" ><g color="#000" fill="transparent"  filter="url(#a)" stroke="#000" stroke-dasharray="52.17436948104651, 5.8"><path class="EdgeBody" d="m594.15 333.65-54.657 19.33"   marker-end="url(#e)" /></g></g><g id="af" class="Edge GraphicalLine DirectedInteraction" color="#000" ><g color="#000" fill="transparent"  filter="url(#a)" stroke="#000" stroke-dasharray="5.32, 3.19, 5.32, 3.19, 5.32, 3.19, 5.32, 3.19, 5.32, 3.19, 5.32, 3.19, 5.32, 3.19, 5.32, 3.19, 0, 5.8"><path class="EdgeBody" d="m722.36 302.93 53.317 46.49"   marker-end="url(#d)" /></g></g><g id="ag" class="Interaction" color="#000" ><g color="#000" fill="transparent"  filter="url(#a)" stroke="#000" stroke-dasharray="273.5562140611615, 7"><path class="EdgeBody" d="m356 308.5v87.41h193.15"   marker-end="url(#h)" /></g><g class="Burr Anchor" transform="translate(380.81 395.91)" ><use class="Icon" width="0" height="0" fill="#141414" stroke-width="0" xlink:href="#b"/></g></g><g id="ah" class="Interaction" color="#000" ><g color="#000" fill="transparent"  filter="url(#a)" stroke="#000" stroke-dasharray="60.086012035559705, 1"><path class="EdgeBody" d="m356.51 131.42-0.50794 61.084"   marker-end="url(#f)" /></g></g><g id="ai" class="DirectedInteraction" color="#000" ><g color="#000" fill="transparent"  filter="url(#a)" stroke="#000" stroke-dasharray="138.32518692827819, 5.8"><path class="EdgeBody" d="m380.81 395.91 0.28908 144.12"   marker-end="url(#d)" /></g></g><g id="aj" class="Interaction" color="#000" ><g color="#000" fill="transparent"  filter="url(#a)" stroke="#000" stroke-dasharray="37.151036693022995, 11"><path class="EdgeBody" d="m174.15 277.02 0.3658 48.15"   marker-end="url(#c)" /></g></g><g id="ak" class="Interaction" color="#000" ><g color="#000" fill="transparent"  filter="url(#a)" stroke="#000" stroke-dasharray="177.58035451012776, 1"><path class="EdgeBody" d="m334.01 131.42-159.86 79.6"   marker-end="url(#f)" /></g></g><g id="al" class="Interaction" color="#000" ><g color="#000" fill="transparent"  filter="url(#a)" stroke="#000" stroke-dasharray="201.2420767057796, 7"><path class="EdgeBody" d="m751.36 571.57h187.81v20.435"   marker-end="url(#h)" /></g></g><g id="am" class="Interaction" color="#000" ><g color="#000" fill="transparent"  filter="url(#a)" stroke="#000" stroke-dasharray="111.41458409971142, 11"><path class="EdgeBody" d="m751.36 588.98h100.84v21.57"   marker-end="url(#c)" /></g></g><g id="an" class="Interaction" color="#000" ><g color="#000" fill="transparent"  filter="url(#a)" stroke="#000" stroke-dasharray="83.39606356508831, 5.8"><path class="EdgeBody" d="m548.17 588.7 89.196 0.27947"   marker-end="url(#e)" /></g><g class="Burr Anchor" transform="translate(616.02 588.91)" ><use class="Icon" width="0" height="0" fill="#141414" stroke-width="0" xlink:href="#b"/></g></g><g id="ao" class="Interaction" color="#000" ><g color="#000" fill="transparent"  filter="url(#a)" stroke="#000" stroke-dasharray="96.3985034426776, 11"><path class="EdgeBody" d="m616.65 481.52-0.62533 107.4"   marker-end="url(#g)" /></g><g class="Burr Anchor" transform="translate(616.31 539.49)" ><use class="Icon" width="0" height="0" fill="#141414" stroke-width="0" xlink:href="#b"/></g></g><g id="ap" class="Interaction" color="#000" ><g color="#000" fill="transparent"  filter="url(#a)" stroke="#000" stroke-dasharray="235.4190148779042, 11"><path class="EdgeBody" d="m639.15 395.91h20v71.791h-62.838v71.791h20"   marker-end="url(#c)" /></g></g><g class="SingleFreeNode Shape PhysicalEntity CellularComponent Cell" transform="translate(422.56 245.5)" color="#c0c0c0" ><g fill="transparent"  filter="url(#k)" stroke="#c0c0c0" stroke-width="3"><rect class="Icon" transform="matrix(.98003 0 0 .97655 5.8802 5.8593)" width="588.92" height="499.62" rx="15" ry="15"   /></g></g><a  class="Uniprot-TrEMBL_P07550 Protein ADRB2 " transform="translate(641.62 230.58)"   name="β2 receptor"  ><rect class="Icon" transform="matrix(.98901 0 0 .96154 .49451 .48077)" width="90" height="25" fill="#fff" stroke="#000"/><text class="Text" transform="translate(45,16.5)"   font-size="12px"  text-anchor="middle"><tspan x="0" y="0">β2 receptor</tspan></text></a><g class="Label" transform="translate(217.45 412.77)" color="#000"  name="Releases calcium  into cytoplasm"><use class="Icon" width="108.18347509112962" height="33.15613608748482" fill="transparent"  stroke="#000" stroke-width="0" xlink:href="#b"/><text class="Text" transform="translate(54.092 20.578)"   font-size="12px"  text-anchor="middle"><tspan x="0" y="-6.6000000000000005">Releases calcium </tspan> <tspan x="0" y="6.6000000000000005">into cytoplasm</tspan></text></g><a  class="Uniprot-TrEMBL_P08588 Protein ADRB1 " transform="translate(455.53 230.58)"   name="β1 receptor"  ><rect class="Icon" transform="matrix(.98901 0 0 .96154 .49451 .48077)" width="90" height="25" fill="#fff" stroke="#000"/><text class="Text" transform="translate(45,16.5)"   font-size="12px"  text-anchor="middle"><tspan x="0" y="0">β1 receptor</tspan></text></a><g class="Label" transform="translate(903.61 259.72)" color="#000"  name="Liver or  muscle cell"><use class="Icon" width="81" height="31.5" fill="transparent"  stroke="#000" stroke-width="0" xlink:href="#b"/><text class="Text" transform="translate(40.5,19.75)"   font-size="12px"  text-anchor="middle"><tspan x="0" y="-6.6000000000000005">Liver or </tspan> <tspan x="0" y="6.6000000000000005">muscle cell</tspan></text></g><g class="Label" transform="translate(579.54 72.555)" color="#000"  name="Release from brain"><use class="Icon" width="128.83961117861466" height="25" fill="transparent"  stroke="#000" stroke-width="0" xlink:href="#b"/><text class="Text" transform="translate(64.42 16.5)"   font-size="12px"  text-anchor="middle"><tspan x="0" y="0">Release from brain</tspan></text></g><g class="Label" transform="translate(313.6 540.03)" color="#000"  name="Vasoconstriction of tissues  (except brain)"><use class="Icon" width="90" height="48.05764954827712" fill="transparent"  stroke="#000" stroke-width="0" xlink:href="#b"/><text class="Text" transform="translate(45 28.029)"   font-size="12px"  text-anchor="middle"><tspan x="0" y="-13.200000000000001">Vasoconstriction</tspan> <tspan x="0" y="0">of tissues </tspan> <tspan x="0" y="13.200000000000001">(except brain)</tspan></text></g><g class="Label" transform="translate(129.52 325.17)" color="#000"  name="PLC"><use class="Icon" width="90" height="25" fill="transparent"  stroke="#000" stroke-width="0" xlink:href="#b"/><text class="Text" transform="translate(45,16.5)"   font-size="12px"  text-anchor="middle"><tspan x="0" y="0">PLC</tspan></text></g><g class="Label" transform="translate(78.339 616.4)" color="#000"  name="Protein phosphorylation"><use class="Icon" width="144.77324263038554" height="51.50226757369637" fill="transparent"  stroke="#000" stroke-width="0" xlink:href="#b"/><text class="Text" transform="translate(72.387 29.751)"   font-size="12px"  text-anchor="middle"><tspan x="0" y="0">Protein phosphorylation</tspan></text></g><g class="Label" transform="translate(1169.7 537.93)" color="#000"  name="Metabolite conversion"><use class="Icon" width="204.01324999999918" height="35.23387500000142" fill="transparent"  stroke="#000" stroke-width="0" xlink:href="#b"/><text class="Text" transform="translate(102.01 21.617)"   font-size="12px"  text-anchor="middle"><tspan x="0" y="0">Metabolite conversion</tspan></text></g><g class="GroupComplex" transform="translate(434.17 553.87)" color="grey" ><use class="Icon" transform="matrix(.9913 0 0 .98585 .49565 .49292)" width="114.00000000000006" height="69.65613608748458" fill="#b4b464" fill-opacity=".1" stroke="grey" xlink:href="#i"/><g class="Label" transform="translate(12 32.656)" color="#000"  name="A protein"><use class="Icon" width="90" height="25" fill="transparent"  stroke="#000" stroke-width="0" xlink:href="#b"/><text class="Text" transform="translate(45,16.5)"   font-size="12px"  text-anchor="middle"><tspan x="0" y="0">A protein</tspan></text></g><a class="ChEBI_CHEBI_17115 Metabolite ChEBI_CHEBI_33384   " transform="translate(12,12)" color="#00f"  name="Serine"  ><rect class="Icon" transform="matrix(.98901 0 0 .95693 .49451 .47847)" width="90" height="22.221" fill="#fff" stroke="#00f"/><text class="Text" transform="translate(45 15.11)" fill="#00f"  font-size="12px"  text-anchor="middle"><tspan x="0" y="0">Serine</tspan></text></a></g><g class="GroupGroup" transform="translate(303,192.5)" color="grey" ><use class="Icon" width="106" height="116" fill="transparent"  stroke="grey" stroke-dasharray="5,3" stroke-width="0" xlink:href="#b"/><g class="Label" transform="translate(8,8)" color="#000"  name="α2 receptor"><use class="Icon" width="90" height="25" fill="transparent"  stroke="#000" stroke-width="0" xlink:href="#b"/><text class="Text" transform="translate(45,16.5)"   font-size="12px"  text-anchor="middle"><tspan x="0" y="0">α2 receptor</tspan></text></g><a  class="Uniprot-TrEMBL_P08913 Protein ADRA2A " transform="translate(8,33)"   name="α2A receptor"  ><rect class="Icon" transform="matrix(.98901 0 0 .96154 .49451 .48077)" width="90" height="25" fill="#fff" stroke="#000"/><text class="Text" transform="translate(45,16.5)"   font-size="12px"  text-anchor="middle"><tspan x="0" y="0">α2A receptor</tspan></text></a><a  class="Uniprot-TrEMBL_P18089 Protein ADRA2B " transform="translate(8,58)"   name="α2B receptor"  ><rect class="Icon" transform="matrix(.98901 0 0 .96154 .49451 .48077)" width="90" height="25" fill="#fff" stroke="#000"/><text class="Text" transform="translate(45,16.5)"   font-size="12px"  text-anchor="middle"><tspan x="0" y="0">α2B receptor</tspan></text></a><a  class="Uniprot-TrEMBL_P18825 Protein ADRA2C " transform="translate(8,83)"   name="α2C receptor"  ><rect class="Icon" transform="matrix(.98901 0 0 .96154 .49451 .48077)" width="90" height="25" fill="#fff" stroke="#000"/><text class="Text" transform="translate(45,16.5)"   font-size="12px"  text-anchor="middle"><tspan x="0" y="0">α2C receptor</tspan></text></a></g><g class="GroupGroup" transform="translate(76.149 211.02)" color="grey" ><use class="Icon" width="196" height="66" fill="transparent"  stroke="grey" stroke-dasharray="5,3" stroke-width="0" xlink:href="#b"/><g class="Label" transform="translate(8,8)" color="#000"  name="α1 receptors:"><use class="Icon" width="90" height="25" fill="transparent"  stroke="#000" stroke-width="0" xlink:href="#b"/><text class="Text" transform="translate(45,16.5)"   font-size="12px"  text-anchor="middle"><tspan x="0" y="0">α1 receptors:</tspan></text></g><g class="Uniprot-TrEMBL_P3548 Protein" transform="translate(8,33)" color="#000"  name="α1A receptor"><rect class="Icon" transform="matrix(.98901 0 0 .96154 .49451 .48077)" width="90" height="25" fill="#fff" stroke="#000"/><text class="Text" transform="translate(45,16.5)"   font-size="12px"  text-anchor="middle"><tspan x="0" y="0">α1A receptor</tspan></text></g><g class="Uniprot-TrEMBL_P3568 Protein" transform="translate(98,8)" color="#000"  name="α1B receptor"><rect class="Icon" transform="matrix(.98901 0 0 .96154 .49451 .48077)" width="90" height="25" fill="#fff" stroke="#000"/><text class="Text" transform="translate(45,16.5)"   font-size="12px"  text-anchor="middle"><tspan x="0" y="0">α1B receptor</tspan></text></g><a  class="Uniprot-TrEMBL_P25100 Protein ADRA1D " transform="translate(98 33)"   name="α1D receptor"  ><rect class="Icon" transform="matrix(.98901 0 0 .96154 .49451 .48077)" width="90" height="25" fill="#fff" stroke="#000"/><text class="Text" transform="translate(45,16.5)"   font-size="12px"  text-anchor="middle"><tspan x="0" y="0">α1D receptor</tspan></text></a></g><g class="Enzyme_Nomenclature_2_7_11_13 Protein " transform="translate(103.74 544.24)" color="#000"  name="PKC"><rect class="Icon" transform="matrix(.98947 0 0 .96746 .49474 .48373)" width="93.98" height="29.734" fill="#fff" stroke="#000"/><text class="Text" transform="translate(46.99 18.867)"   font-size="12px"  text-anchor="middle"><tspan x="0" y="0">PKC</tspan></text></g><a class="ChEBI_CHEBI_22984 Metabolite  " transform="translate(226.87 482.28)" color="#00f"  name="calcium"  ><rect class="Icon" transform="matrix(.98901 0 0 .96154 .49451 .48077)" width="90" height="25" fill="#fff" stroke="#00f"/><text class="Text" transform="translate(45,16.5)" fill="#00f"  font-size="12px"  text-anchor="middle"><tspan x="0" y="0">calcium</tspan></text></a><a class="ChEBI_CHEBI_30616 Metabolite  " transform="translate(567.39 275.47)" color="#00f"  name="ATP"  ><rect class="Icon" transform="matrix(.98165 0 0 .96154 .49083 .48077)" width="53.505" height="25" fill="#fff" stroke="#00f"/><text class="Text" transform="translate(26.753 16.5)" fill="#00f"  font-size="12px"  text-anchor="middle"><tspan x="0" y="0">ATP</tspan></text></a><a class="Metabolite ChEBI_CHEBI_28918  " transform="translate(635.55 106.42)" color="#00f"  name="Epinephrine"  ><rect class="Icon" transform="matrix(.98901 0 0 .96154 .49451 .48077)" width="90" height="25" fill="#fff" stroke="#00f"/><text class="Text" transform="translate(45,16.5)" fill="#00f"  font-size="12px"  text-anchor="middle"><tspan x="0" y="0">Epinephrine</tspan></text></a><g class="Metabolite" transform="translate(311.51 106.42)" color="#00f"  name="Norepinephrine"><rect class="Icon" transform="matrix(.98901 0 0 .96154 .49451 .48077)" width="90" height="25" fill="#fff" stroke="#00f"/><text class="Text" transform="translate(45,16.5)" fill="#00f"  font-size="12px"  text-anchor="middle"><tspan x="0" y="0">Norepinephrine</tspan></text></g><a class="WikiPathways_WP4220 Pathway " transform="translate(442.75,61.75)" color="#14961e"  name="Neurotransmitters"  ><use class="Icon" width="126.25" height="25" fill="transparent"  stroke="#14961e" stroke-width="0" xlink:href="#b"/><text class="Text" transform="translate(63.125,16.5)" fill="#14961e"  font-size="12px" font-weight="bold" stroke="black" stroke-width="0" text-anchor="middle"><tspan x="0" y="0">Neurotransmitters</tspan></text></a><g class="Enzyme_Nomenclature_2_7_11_11 Protein " transform="translate(549.15 456.52)" color="#000"  name="PKA"><rect class="Icon" transform="matrix(.98901 0 0 .96154 .49451 .48077)" width="90" height="25" fill="#fff" stroke="#000"/><text class="Text" transform="translate(45,16.5)"   font-size="12px"  text-anchor="middle"><tspan x="0" y="0">PKA</tspan></text></g><g class="Metabolite" transform="translate(82.582 366.6)" color="#00f"  name="PIP3"><rect class="Icon" transform="matrix(.98413 0 0 .96154 .49206 .48077)" width="62.011" height="25" fill="#fff" stroke="#00f"/><text class="Text" transform="translate(31.005 16.5)" fill="#00f"  font-size="12px"  text-anchor="middle"><tspan x="0" y="0">PIP3</tspan></text></g><a class="Metabolite ChEBI_CHEBI_18035  " transform="translate(105.67 426.14)" color="#00f"  name="DAG"  ><rect class="Icon" transform="matrix(.98901 0 0 .96154 .49451 .48077)" width="90" height="25" fill="#fff" stroke="#00f"/><text class="Text" transform="translate(45,16.5)" fill="#00f"  font-size="12px"  text-anchor="middle"><tspan x="0" y="0">DAG</tspan></text></a><g class="GroupGroup" transform="translate(775.68 308.68)" color="grey" ><use class="Icon" width="196.0000000000009" height="162.9785269312256" fill="transparent"  stroke="grey" stroke-dasharray="5,3" stroke-width="0" xlink:href="#b"/><a  class="Uniprot-TrEMBL_Q08828 Protein ADCY1 " transform="translate(8 29.979)"   name="ADCY1"  ><rect class="Icon" transform="matrix(.98901 0 0 .96154 .49451 .48077)" width="90" height="25" fill="#fff" stroke="#000"/><text class="Text" transform="translate(45,16.5)"   font-size="12px"  text-anchor="middle"><tspan x="0" y="0">ADCY1</tspan></text></a><g class="Enzyme_Nomenclature_4_6_1_1 Protein " transform="translate(61.394 8)" color="#000"  name="AC"><rect class="Icon" transform="matrix(.9862 0 0 .95589 .4931 .47795)" width="71.474" height="21.672" fill="#fff" stroke="#000"/><text class="Text" transform="translate(35.737 14.836)"   font-size="12px"  text-anchor="middle"><tspan x="0" y="0">AC</tspan></text></g><a  class="Uniprot-TrEMBL_Q08462 Protein ADCY2 " transform="translate(8 54.979)"   name="ADCY2"  ><rect class="Icon" transform="matrix(.98901 0 0 .96154 .49451 .48077)" width="90" height="25" fill="#fff" stroke="#000"/><text class="Text" transform="translate(45,16.5)"   font-size="12px"  text-anchor="middle"><tspan x="0" y="0">ADCY2</tspan></text></a><a  class="Uniprot-TrEMBL_O60266 Protein ADCY3 " transform="translate(8 79.979)"   name="ADCY3"  ><rect class="Icon" transform="matrix(.98901 0 0 .96154 .49451 .48077)" width="90" height="25" fill="#fff" stroke="#000"/><text class="Text" transform="translate(45,16.5)"   font-size="12px"  text-anchor="middle"><tspan x="0" y="0">ADCY3</tspan></text></a><a  class="Uniprot-TrEMBL_Q8NFM4 Protein ADCY4 " transform="translate(8 104.98)"   name="ADCY4"  ><rect class="Icon" transform="matrix(.98901 0 0 .96154 .49451 .48077)" width="90" height="25" fill="#fff" stroke="#000"/><text class="Text" transform="translate(45,16.5)"   font-size="12px"  text-anchor="middle"><tspan x="0" y="0">ADCY4</tspan></text></a><a  class="Uniprot-TrEMBL_O95622 Protein ADCY5 " transform="translate(8 129.98)"   name="ADCY5"  ><rect class="Icon" transform="matrix(.98901 0 0 .96154 .49451 .48077)" width="90" height="25" fill="#fff" stroke="#000"/><text class="Text" transform="translate(45,16.5)"   font-size="12px"  text-anchor="middle"><tspan x="0" y="0">ADCY5</tspan></text></a><a  class="Uniprot-TrEMBL_O43306 Protein ADCY6 " transform="translate(98 29.979)"   name="ADCY6"  ><rect class="Icon" transform="matrix(.98901 0 0 .96154 .49451 .48077)" width="90" height="25" fill="#fff" stroke="#000"/><text class="Text" transform="translate(45,16.5)"   font-size="12px"  text-anchor="middle"><tspan x="0" y="0">ADCY6</tspan></text></a><a  class="Uniprot-TrEMBL_P51828 Protein ADCY7 " transform="translate(98 54.979)"   name="ADCY7"  ><rect class="Icon" transform="matrix(.98901 0 0 .96154 .49451 .48077)" width="90" height="25" fill="#fff" stroke="#000"/><text class="Text" transform="translate(45,16.5)"   font-size="12px"  text-anchor="middle"><tspan x="0" y="0">ADCY7</tspan></text></a><a  class="Uniprot-TrEMBL_P40145 Protein ADCY8 " transform="translate(98 79.979)"   name="ADCY8"  ><rect class="Icon" transform="matrix(.98901 0 0 .96154 .49451 .48077)" width="90" height="25" fill="#fff" stroke="#000"/><text class="Text" transform="translate(45,16.5)"   font-size="12px"  text-anchor="middle"><tspan x="0" y="0">ADCY8</tspan></text></a><a  class="Uniprot-TrEMBL_O60503 Protein ADCY9 " transform="translate(98 104.98)"   name="ADCY9"  ><rect class="Icon" transform="matrix(.98901 0 0 .96154 .49451 .48077)" width="90" height="25" fill="#fff" stroke="#000"/><text class="Text" transform="translate(45,16.5)"   font-size="12px"  text-anchor="middle"><tspan x="0" y="0">ADCY9</tspan></text></a><a  class="Uniprot-TrEMBL_Q96PN6 Protein ADCY10 " transform="translate(98 129.98)"   name="ADCY10"  ><rect class="Icon" transform="matrix(.98901 0 0 .96154 .49451 .48077)" width="90" height="25" fill="#fff" stroke="#000"/><text class="Text" transform="translate(45,16.5)"   font-size="12px"  text-anchor="middle"><tspan x="0" y="0">ADCY10</tspan></text></a></g><g class="GroupGroup" transform="translate(885.58 592)" color="grey" ><use class="Icon" width="107.17253948967345" height="70.65558641439543" fill="transparent"  stroke="grey" stroke-dasharray="5,3" stroke-width="0" xlink:href="#b"/><a class="WikiPathways_WP534 Pathway " transform="translate(8 37.656)" color="#14961e"  name="Glycolysis"  ><rect class="Icon" transform="matrix(.98915 0 0 .96154 .49458 .48077)" width="91.173" height="25" fill="#fff" stroke="#14961e"/><text class="Text" transform="translate(45.586 16.5)" fill="#14961e"  font-size="12px" font-weight="bold" stroke="black" stroke-width="0" text-anchor="middle"><tspan x="0" y="0">Glycolysis</tspan></text></a><a class="WikiPathways_WP500 Pathway " transform="translate(8,8)" color="#14961e"  name="Glycogen  synthesis"  ><rect class="Icon" transform="matrix(.98915 0 0 .96738 .49458 .48369)" width="91.173" height="29.656" fill="#fff" stroke="#14961e"/><text class="Text" transform="translate(45.586 18.828)" fill="#14961e"  font-size="12px" font-weight="bold" stroke="black" stroke-width="0" text-anchor="middle"><tspan x="0" y="-6.6000000000000005">Glycogen </tspan> <tspan x="0" y="6.6000000000000005">synthesis</tspan></text></a></g><g class="Enzyme_Nomenclature_4_6_1_1 Protein " transform="translate(650.88 292.09)" color="#000"  name="AC"><rect class="Icon" transform="matrix(.9862 0 0 .95589 .4931 .47795)" width="71.474" height="21.672" fill="#fff" stroke="#000"/><text class="Text" transform="translate(35.737 14.836)"   font-size="12px"  text-anchor="middle"><tspan x="0" y="0">AC</tspan></text></g><g class="Label" transform="translate(546.35 492.92)" color="#000"  name="Protein  phosphorylation"><use class="Icon" width="102.49214063916315" height="36.851985022441795" fill="transparent"  stroke="#000" stroke-width="0" xlink:href="#b"/><text class="Text" transform="translate(51.246 22.426)"   font-size="12px"  text-anchor="middle"><tspan x="0" y="-6.6000000000000005">Protein </tspan> <tspan x="0" y="6.6000000000000005">phosphorylation</tspan></text></g><g id="aq" class="DirectedInteraction" color="#000" ><g color="#000" fill="transparent"  filter="url(#a)" stroke="#000" stroke-dasharray="5.34, 3.2, 5.34, 3.2, 5.34, 3.2, 5.34, 3.2, 5.34, 3.2, 5.34, 3.2, 5.34, 3.2, 5.34, 3.2, 5.34, 3.2, 5.34, 3.2, 5.34, 3.2, 5.34, 3.2, 5.34, 3.2, 5.34, 3.2, 0, 5.8"><path class="EdgeBody" d="m537.44 86.75 120.61 19.666"   marker-end="url(#d)" /></g></g><g class="Metabolite" transform="translate(217.73 366.6)" color="#00f"  name="IP3"><rect class="Icon" transform="matrix(.98413 0 0 .96154 .49206 .48077)" width="62.011" height="25" fill="#fff" stroke="#00f"/><text class="Text" transform="translate(31.005 16.5)" fill="#00f"  font-size="12px"  text-anchor="middle"><tspan x="0" y="0">IP3</tspan></text></g><g class="Enzyme_Nomenclature_4_6_1_1 Protein " transform="translate(464.79 292.09)" color="#000"  name="AC"><rect class="Icon" transform="matrix(.9862 0 0 .95589 .4931 .47795)" width="71.474" height="21.672" fill="#fff" stroke="#000"/><text class="Text" transform="translate(35.737 14.836)"   font-size="12px"  text-anchor="middle"><tspan x="0" y="0">AC</tspan></text></g><a class="ChEBI_CHEBI_33019 Metabolite  " transform="translate(466.82 335.36)" color="#00f"  name="pyro- phosphate"  ><rect class="Icon" transform="matrix(.98643 0 0 .9724 .49321 .4862)" width="72.667" height="35.237" fill="#fff" stroke="#00f"/><text class="Text" transform="translate(36.334 21.618)" fill="#00f"  font-size="12px"  text-anchor="middle"><tspan x="0" y="-6.6000000000000005">pyro-</tspan> <tspan x="0" y="6.6000000000000005">phosphate</tspan></text></a><a class="ChEBI_CHEBI_58165 Metabolite  " transform="translate(549.15 383.41)" color="#00f"  name="cAMP"  ><rect class="Icon" transform="matrix(.98901 0 0 .96154 .49451 .48077)" width="90" height="25" fill="#fff" stroke="#00f"/><text class="Text" transform="translate(45,16.5)" fill="#00f"  font-size="12px"  text-anchor="middle"><tspan x="0" y="0">cAMP</tspan></text></a><g id="ar" class="Interaction" color="#000" ><g color="#000" fill="transparent"  filter="url(#a)" stroke="#000" stroke-dasharray="84.70662757647514, 11"><path class="EdgeBody" d="m500.53 313.77 93.619 19.88"   marker-end="url(#g)" /></g></g><g class="GroupComplex" transform="translate(434.17 628.27)" color="grey" ><use class="Icon" transform="matrix(.9913 0 0 .98585 .49565 .49292)" width="114" height="69.65613608748458" fill="#b4b464" fill-opacity=".1" stroke="grey" xlink:href="#i"/><g class="Label" transform="translate(12 32.656)" color="#000"  name="A protein"><use class="Icon" width="90" height="25" fill="transparent"  stroke="#000" stroke-width="0" xlink:href="#b"/><text class="Text" transform="translate(45,16.5)"   font-size="12px"  text-anchor="middle"><tspan x="0" y="0">A protein</tspan></text></g><g class="ChEBI_CHEBI_57926 Metabolite " transform="translate(12,12)" color="#00f"  name="Threonine"><rect class="Icon" transform="matrix(.98901 0 0 .95693 .49451 .47847)" width="90" height="22.221" fill="#fff" stroke="#00f"/><text class="Text" transform="translate(45 15.11)" fill="#00f"  font-size="12px"  text-anchor="middle"><tspan x="0" y="0">Threonine</tspan></text></g></g><g class="GroupComplex" transform="translate(637.36 554.15)" color="grey" ><use class="Icon" transform="matrix(.9913 0 0 .98585 .49565 .49292)" width="114" height="69.65613608748458" fill="#b4b464" fill-opacity=".1" stroke="grey" xlink:href="#i"/><g class="Label" transform="translate(12 32.656)" color="#000"  name="A protein"><use class="Icon" width="90" height="25" fill="transparent"  stroke="#000" stroke-width="0" xlink:href="#b"/><text class="Text" transform="translate(45,16.5)"   font-size="12px"  text-anchor="middle"><tspan x="0" y="0">A protein</tspan></text></g><a class="ChEBI_CHEBI_17115 Metabolite ChEBI_CHEBI_33384   " transform="translate(12,12)" color="#00f"  name="Serine"  ><rect class="Icon" transform="matrix(.98901 0 0 .95693 .49451 .47847)" width="90" height="22.221" fill="#fff" stroke="#00f"/><g class="Burr State" transform="translate(82.5 14.721)" color="#000"  name="P"><use class="Icon" transform="matrix(.9375 0 0 .9375 .46875 .46875)" width="15" height="15" fill="#fff" stroke="#000" xlink:href="#j"/><text class="Text" transform="translate(7.5,10.5)"   font-size="10px"  text-anchor="middle"><tspan x="0" y="0">P</tspan></text></g><text class="Text" transform="translate(45 15.11)" fill="#00f"  font-size="12px"  text-anchor="middle"><tspan x="0" y="0">Serine</tspan></text></a></g><g class="GroupComplex" transform="translate(637.36 628.55)" color="grey" ><use class="Icon" transform="matrix(.9913 0 0 .98585 .49565 .49292)" width="114" height="69.65613608748458" fill="#b4b464" fill-opacity=".1" stroke="grey" xlink:href="#i"/><g class="Label" transform="translate(12 32.656)" color="#000"  name="A protein"><use class="Icon" width="90" height="25" fill="transparent"  stroke="#000" stroke-width="0" xlink:href="#b"/><text class="Text" transform="translate(45,16.5)"   font-size="12px"  text-anchor="middle"><tspan x="0" y="0">A protein</tspan></text></g><g class="ChEBI_CHEBI_57926 Metabolite " transform="translate(12,12)" color="#00f"  name="Threonine"><rect class="Icon" transform="matrix(.98901 0 0 .95693 .49451 .47847)" width="90" height="22.221" fill="#fff" stroke="#00f"/><g class="Burr State" transform="translate(82.5 14.721)" color="#000"  name="P"><use class="Icon" transform="matrix(.9375 0 0 .9375 .46875 .46875)" width="15" height="15" fill="#fff" stroke="#000" xlink:href="#j"/><text class="Text" transform="translate(7.5,10.5)"   font-size="10px"  text-anchor="middle"><tspan x="0" y="0">P</tspan></text></g><text class="Text" transform="translate(45 15.11)" fill="#00f"  font-size="12px"  text-anchor="middle"><tspan x="0" y="0">Threonine</tspan></text></g></g><g id="as" class="Interaction" color="#000" ><g color="#000" fill="transparent"  filter="url(#a)" stroke="#000" stroke-dasharray="83.39606356508831, 5.8"><path class="EdgeBody" d="m548.17 663.1 89.196 0.27947"   marker-end="url(#e)" /></g><g class="Burr Anchor" transform="translate(572.29 663.17)" ><use class="Icon" width="0" height="0" fill="#141414" stroke-width="0" xlink:href="#b"/></g></g><g id="at" class="Interaction" color="#000" ><g color="#000" fill="transparent"  filter="url(#a)" stroke="#000" stroke-dasharray="170.6593709536153, 11"><path class="EdgeBody" d="m571.65 481.52 0.64704 181.66"   marker-end="url(#g)" /></g><g class="Burr Anchor" transform="translate(571.85 539.48)" ><use class="Icon" width="0" height="0" fill="#141414" stroke-width="0" xlink:href="#b"/></g></g><g id="au" class="Interaction" color="#000" ><g color="#000" fill="transparent"  filter="url(#a)" stroke="#000" stroke-dasharray="177.30235465179163, 11"><path class="EdgeBody" d="m571.65 408.41v20h-28.512v111.07h28.718"   marker-end="url(#c)" /></g></g><g id="av" class="Interaction" color="#000" ><g color="#000" fill="transparent"  filter="url(#a)" stroke="#000" stroke-dasharray="107.9745176370194, 11"><path class="EdgeBody" d="m751.36 663.38h100.84v-18.13"   marker-end="url(#c)" /></g></g><g id="aw" class="Interaction" color="#000" ><g color="#000" fill="transparent"  filter="url(#a)" stroke="#000" stroke-dasharray="198.94371993901427, 7"><path class="EdgeBody" d="m751.36 680.79h187.81v-18.136"   marker-end="url(#h)" /></g></g><g class="Label" transform="translate(832.58 546.75)" color="#000"  name="Liver cells"><use class="Icon" width="68.16707168894465" height="25.546172539489348" fill="transparent"  stroke="#000" stroke-width="0" xlink:href="#b"/><text class="Text" transform="translate(34.084 16.773)"   font-size="12px"  text-anchor="middle"><tspan x="0" y="0">Liver cells</tspan></text></g><a class="WikiPathways_WP500 Pathway " transform="translate(806.62 610.55)" color="#14961e"  name="Glycogen  breakdown"  ><use class="Icon" width="91.17253948967341" height="34.698018481378085" fill="transparent"  stroke="#14961e" stroke-width="0" xlink:href="#b"/><text class="Text" transform="translate(45.586 21.349)" fill="#14961e"  font-size="12px" font-weight="bold" stroke="black" stroke-width="0" text-anchor="middle"><tspan x="0" y="-6.6000000000000005">Glycogen </tspan> <tspan x="0" y="6.6000000000000005">breakdown</tspan></text></a><g class="Label" transform="translate(721.62 686.09)" color="#000"  name="Heart and  skeletal muscles"><use class="Icon" width="114.98332937141322" height="40.63545746952377" fill="transparent"  stroke="#000" stroke-width="0" xlink:href="#b"/><text class="Text" transform="translate(57.492 24.318)"   font-size="12px"  text-anchor="middle"><tspan x="0" y="-6.6000000000000005">Heart and </tspan> <tspan x="0" y="6.6000000000000005">skeletal muscles</tspan></text></g><g class="Label" transform="translate(832.58 661.17)" color="#000"  name="Liver cells"><use class="Icon" width="68.16707168894465" height="25.546172539489348" fill="transparent"  stroke="#000" stroke-width="0" xlink:href="#b"/><text class="Text" transform="translate(34.084 16.773)"   font-size="12px"  text-anchor="middle"><tspan x="0" y="0">Liver cells</tspan></text></g><g id="ax" class="Interaction" color="#000" ><g color="#000" fill="transparent"  filter="url(#a)" stroke="#000" stroke-dasharray="404.9513565043444, 11"><path class="EdgeBody" d="m722.86 554.15v-20h278.05v101.75h-16.152"   marker-end="url(#c)" /></g></g><g id="ay" class="Interaction" color="#000" ><g color="#000" fill="transparent"  filter="url(#a)" stroke="#000" stroke-dasharray="371.1825312905156, 11"><path class="EdgeBody" d="m722.86 698.21v20h277.14v-69.8h-15.244"   marker-end="url(#c)" /></g></g><g class="Label" transform="translate(721.62 500.99)" color="#000"  name="Heart and  skeletal muscles"><use class="Icon" width="114.98332937141322" height="40.63545746952377" fill="transparent"  stroke="#000" stroke-width="0" xlink:href="#b"/><text class="Text" transform="translate(57.492 24.318)"   font-size="12px"  text-anchor="middle"><tspan x="0" y="-6.6000000000000005">Heart and </tspan> <tspan x="0" y="6.6000000000000005">skeletal muscles</tspan></text></g><g class="Label" transform="translate(729.58 603.79)" color="#000"  name="Liver, heart  and skeletal  muscle cells"><use class="Icon" width="117.99226772616335" height="44.11823309714075" fill="transparent"  stroke="#000" stroke-width="0" xlink:href="#b"/><text class="Text" transform="translate(58.996 26.059)"   font-size="12px"  text-anchor="middle"><tspan x="0" y="-13.200000000000001">Liver, heart </tspan> <tspan x="0" y="0">and skeletal </tspan> <tspan x="0" y="13.200000000000001">muscle cells</tspan></text></g><g id="az" class="Edge GraphicalLine DirectedInteraction" color="#000" ><g color="#000" fill="transparent"  filter="url(#a)" stroke="#000" stroke-dasharray="5.26, 3.15, 5.26, 3.15, 5.26, 3.15, 5.26, 3.15, 5.26, 3.15, 5.26, 3.15, 5.26, 3.15, 5.26, 3.15, 5.26, 3.15, 5.26, 3.15, 5.26, 3.15, 5.26, 3.15, 5.26, 3.15, 5.26, 5.8"><path class="EdgeBody" d="m1050 604.28h120.39"   marker-end="url(#d)" /></g></g><g id="ba" class="Edge GraphicalLine" color="#000" ><g color="#000" fill="transparent"  filter="url(#a)" stroke="#000" stroke-dasharray="117.07774999999992, 1"><path class="EdgeBody" d="m1047.7 735.09h118.08"   marker-end="url(#f)" /></g></g><g class="Label" transform="translate(1169.7 588.07)" color="#000"  name="Indicates specific neurotransmitter"><use class="Icon" width="204.01324999999937" height="35.23387500000139" fill="transparent"  stroke="#000" stroke-width="0" xlink:href="#b"/><text class="Text" transform="translate(102.01 21.617)"   font-size="12px"  text-anchor="middle"><tspan x="0" y="0">Indicates specific neurotransmitter</tspan></text></g><g class="Label" transform="translate(1169.7 624.33)" color="#000"  name="Stimulation"><use class="Icon" width="204.01324999999918" height="35.23387500000142" fill="transparent"  stroke="#000" stroke-width="0" xlink:href="#b"/><text class="Text" transform="translate(102.01 21.617)"   font-size="12px"  text-anchor="middle"><tspan x="0" y="0">Stimulation</tspan></text></g><g class="Label" transform="translate(1169.7 669.85)" color="#000"  name="Inhibition"><use class="Icon" width="204.01324999999946" height="35.23387500000142" fill="transparent"  stroke="#000" stroke-width="0" xlink:href="#b"/><text class="Text" transform="translate(102.01 21.617)"   font-size="12px"  text-anchor="middle"><tspan x="0" y="0">Inhibition</tspan></text></g><g class="Label" transform="translate(1169.7 712.33)" color="#000"  name="Binding"><use class="Icon" width="204.01324999999932" height="35.23387500000142" fill="transparent"  stroke="#000" stroke-width="0" xlink:href="#b"/><text class="Text" transform="translate(102.01 21.617)"   font-size="12px"  text-anchor="middle"><tspan x="0" y="0">Binding</tspan></text></g><text class="Text" transform="translate(5,27)" dominant-baseline="central" fill="black"  font-size="12px" font-weight="bold" overflow="visible" ><tspan x="0" y="-9">Name: Major receptors targeted by epinephrine and norepinephrine</tspan> <tspan x="0" y="9">Organism: Homo sapiens</tspan></text></g></svg>
