<?xml version="1.0" encoding="UTF-8"?>
<!--
  WikiPathways page: https://www.wikipathways.org/index.php/Pathway:WP4534
  URL for this compressed file: https://github.com/eweitz/cachome/tree/main/data/wikipathways/WP4534.svg
  Source code for compression: https://github.com/eweitz/cachome/tree/main/src/wikipathways.py
-->
<svg class="Diagram" width="800" height="600" color="black" baseProfile="full" prefix="schema:http://schema.org/" preserveAspectRatio="xMidYMid" version="1.1" viewBox="0 0 932.51 1105.9" vocab="http://vocabularies.wikipathways.org/wp#" xmlns="http://www.w3.org/2000/svg" xmlns:xlink="http://www.w3.org/1999/xlink"><style>svg {font-family: 'Liberation Sans', Arial, sans-serif; }</style><defs><filter id="e" x="-50%" y="-50%" width="200%" height="200%"><feComposite in="SourceGraphic" in2="SourceGraphic" result="doubleDark"/><feMorphology in="doubleDark" operator="dilate" radius="0.16666666666666666" result="in2Double"/><feMorphology in="SourceGraphic" operator="dilate" radius="3" result="inDouble"/><feComposite in="inDouble" in2="in2Double" operator="out" result="doubleResult"/></filter><filter id="a" x="0" y="0" width="932.51" height="1105.9" filterUnits="userSpaceOnUse"><feColorMatrix in="SourceGraphic" values="-1   0   0 0 0                   0  -1   0 0 0                   0   0  -1 0 0                   0   0   0 1 0"/></filter><marker id="c" stroke-dasharray="99999" markerHeight="12" markerUnits="userSpaceOnUse" markerWidth="12" orient="auto" preserveAspectRatio="none" refX="12" refY="6" viewBox="0 0 12 12"><path transform="rotate(180 6 6)" d="M12 12L0 6l12-6-7 6z" fill="currentColor" stroke-width="0"/></marker><marker id="d" stroke-dasharray="99999" markerHeight="20" markerUnits="userSpaceOnUse" markerWidth="10" orient="auto" preserveAspectRatio="none" refX="10" refY="10" viewBox="0 0 10 20"><path d="m3 0v20" fill="currentColor" stroke="currentColor"/></marker><marker id="h" stroke-dasharray="99999" markerHeight="12" markerUnits="userSpaceOnUse" markerWidth="12" orient="auto" preserveAspectRatio="none" refX="12" refY="6" viewBox="0 0 12 12"><path transform="rotate(180 6 6)" d="M0 6l11 5V1z" fill="currentColor" stroke-width="0"/></marker><marker id="g" stroke-dasharray="99999" markerHeight="24" markerUnits="userSpaceOnUse" markerWidth="20" orient="auto" preserveAspectRatio="none" refX="20" refY="12" viewBox="0 0 20 24"><g transform="rotate(180 10 12)" fill="none" stroke="#000"><path d="M15 12V5M15.5 5H8M0 5l8-4v8z"/></g></marker><symbol id="i" overflow="visible" preserveAspectRatio="none" viewBox="0 0 50 50"><ellipse cx="25" cy="25" rx="25" ry="25" stroke="currentColor" vector-effect="non-scaling-stroke"/></symbol><symbol id="f" overflow="visible" preserveAspectRatio="none" viewBox="0 0 100 100"><path d="M0 25L25 0h50l25 25v50l-25 25H25L0 75z" stroke="currentColor" vector-effect="non-scaling-stroke"/></symbol><symbol id="b" preserveAspectRatio="none" viewBox="0 0 100 100"/></defs><g class="Viewport" color="black"  name="Name: Mechanoregulation and pathology of YAP/TAZ via Hippo and non-Hippo mechanisms Organism: Homo sapiens"><rect class="Icon" width="932.51" height="1105.9" fill="#fff" stroke="#000" stroke-width="0"/><g id="j" class="Edge GraphicalLine" color="#000" ><g color="#000" fill="transparent"  filter="url(#a)" stroke="#000" stroke-dasharray="137.79247168327714, 0"><path class="EdgeBody" d="m171.4 234.71 100.39-94.386"   /></g></g><g id="k" class="Edge GraphicalLine" color="#000" ><g color="#000" fill="transparent"  filter="url(#a)" stroke="#000" stroke-dasharray="147.240408941786, 0"><path class="EdgeBody" d="m145.95 237.32 108.12-99.954"   /></g></g><g id="l" class="Edge GraphicalLine" color="#000" ><g color="#000" fill="transparent"  filter="url(#a)" stroke="#000" stroke-dasharray="158.38014657741155, 0"><path class="EdgeBody" d="m126.4 269.1 114.36-109.57"   /></g></g><g id="m" class="Edge GraphicalLine" color="#000" ><g color="#000" fill="transparent"  filter="url(#a)" stroke="#000" stroke-dasharray="205.0952325152897, 0"><path class="EdgeBody" d="m106.34 264.8 149.2-140.73"   /></g></g><g id="n" class="Edge GraphicalLine" color="#000" ><g color="#000" fill="transparent"  filter="url(#a)" stroke="#000" stroke-dasharray="194.37263396863787, 0"><path class="EdgeBody" d="m98.966 264.4 141.8-132.94"   /></g></g><g id="o" class="Edge GraphicalLine" color="#000" ><g color="#000" fill="transparent"  filter="url(#a)" stroke="#000" stroke-dasharray="135.06425985933387, 0"><path class="EdgeBody" d="m98.966 251.11 101.92-88.626"   /></g></g><g id="p" class="Edge GraphicalLine" color="#000" ><g color="#000" fill="transparent"  filter="url(#a)" stroke="#000" stroke-dasharray="247.3095226634025, 0"><path class="EdgeBody" d="m485 77 211 129"   /></g></g><g id="q" class="Edge GraphicalLine" color="#000" ><g color="#000" fill="transparent"  filter="url(#a)" stroke="#000" stroke-dasharray="247.3095226634025, 0"><path class="EdgeBody" d="m495 87 211 129"   /></g></g><g id="r" class="Edge GraphicalLine" color="#000" ><g color="#000" fill="transparent"  filter="url(#a)" stroke="#000" stroke-dasharray="247.3095226634025, 0"><path class="EdgeBody" d="m505 104 211 129"   /></g></g><g id="s" class="Edge GraphicalLine" color="#000" ><g color="#000" fill="transparent"  filter="url(#a)" stroke="#000" stroke-dasharray="247.3095226634025, 0"><path class="EdgeBody" d="m513 113 211 129"   /></g></g><g id="t" class="Edge GraphicalLine" color="#000" ><g color="#000" fill="transparent"  filter="url(#a)" stroke="#000" stroke-dasharray="247.3095226634025, 0"><path class="EdgeBody" d="m485 87 211 129"   /></g></g><g id="u" class="Edge GraphicalLine" color="#000" ><g color="#000" fill="transparent"  filter="url(#a)" stroke="#000" stroke-dasharray="247.3095226634025, 0"><path class="EdgeBody" d="m482 100 211 129"   /></g></g><g id="v" class="Interaction" color="#000" ><g color="#000" fill="transparent"  filter="url(#a)" stroke="#000" stroke-dasharray="104, 1"><path class="EdgeBody" d="m427 291v31.009h-41v32.991"   marker-end="url(#c)" /></g></g><g id="w" class="Edge GraphicalLine" color="#000" ><g color="#000" fill="transparent"  filter="url(#a)" stroke="#000" stroke-dasharray="43.65288035450487, 11"><path class="EdgeBody" d="m423.93 771.05h54.653"   marker-end="url(#g)" /></g></g><g id="x" class="Interaction" color="#000" ><g color="#000" fill="transparent"  filter="url(#a)" stroke="#000" stroke-dasharray="78, 1"><path class="EdgeBody" d="m447 291v79"   marker-end="url(#c)" /></g><g class="Burr Anchor" transform="translate(447,322.6)" ><use class="Icon" width="0" height="0" fill="#141414" stroke-width="0" xlink:href="#b"/></g></g><g id="y" class="Interaction" color="#000" ><g color="#000" fill="transparent"  filter="url(#a)" stroke="#000" stroke-dasharray="82.18778508681346, 1"><path class="EdgeBody" d="m530.18 323.48-83.183-0.8771"   marker-end="url(#c)" /></g></g><g id="z" class="Edge GraphicalLine" color="#000" ><g color="#000" fill="transparent"  filter="url(#a)" stroke="#000" stroke-dasharray="147.00000000000006, 0"><path class="EdgeBody" d="m374.48 763.61h147"   /></g></g><g id="aa" class="Interaction" color="#000" ><g color="#000" fill="transparent"  filter="url(#a)" stroke="#000" stroke-dasharray="382.22895125553913, 7"><path class="EdgeBody" d="m103.25 465.48v-85.477h303.75"   marker-end="url(#d)" /></g><g class="Burr Anchor" transform="translate(184.23 380)" ><use class="Icon" width="0" height="0" fill="#141414" stroke-width="0" xlink:href="#b"/></g></g><g id="ab" class="Interaction" color="#000" ><g color="#000" fill="transparent"  filter="url(#a)" stroke="#000" stroke-dasharray="158.37573701349146, 1"><path class="EdgeBody" d="m183.52 220.63 0.70825 159.37"   marker-end="url(#c)" /></g></g><g id="ac" class="Interaction" color="#000" ><g color="#000" fill="transparent"  filter="url(#a)" stroke="#000" stroke-dasharray="342.9298375184656, 1"><path class="EdgeBody" d="m187.59 806.68v-268.14h75.793"   marker-end="url(#c)" /></g><g class="Burr Anchor" transform="translate(218.56 538.54)" ><use class="Icon" width="0" height="0" fill="#141414" stroke-width="0" xlink:href="#b"/></g></g><g id="ad" class="Interaction" color="#000" ><g color="#000" fill="transparent"  filter="url(#a)" stroke="#000" stroke-dasharray="46.52289512555393, 1"><path class="EdgeBody" d="m103.25 533v-47.523"   marker-end="url(#c)" /></g></g><g id="ae" class="Interaction" color="#000" ><g color="#000" fill="transparent"  filter="url(#a)" stroke="#000" stroke-dasharray="254.522895125556, 1"><path class="EdgeBody" d="m161.09 806.68v-20h-57.844v-177.68"   marker-end="url(#c)" /></g></g><g id="af" class="Interaction" color="#000" ><g color="#000" fill="transparent"  filter="url(#a)" stroke="#000" stroke-dasharray="60.04513870264316, 7"><path class="EdgeBody" d="m217.69 605.58 0.8752-67.039"   marker-end="url(#d)" /></g></g><g id="ag" class="Interaction" color="#000" ><g color="#000" fill="transparent"  filter="url(#a)" stroke="#000" stroke-dasharray="139.9494238288305, 1"><path class="EdgeBody" d="m627.95 381.07-140.95-1.072"   marker-end="url(#c)" /></g><g class="Burr Anchor" transform="translate(571.57 380.64)" ><use class="Icon" width="0" height="0" fill="#141414" stroke-width="0" xlink:href="#b"/></g></g><g id="ah" class="Interaction" color="#000" ><g color="#000" fill="transparent"  filter="url(#a)" stroke="#000" stroke-dasharray="46.186402891615245, 1"><path class="EdgeBody" d="m570.18 333.48 1.384 47.166"   marker-end="url(#c)" /></g></g><g id="ai" class="Interaction" color="#000" ><g color="#000" fill="transparent"  filter="url(#a)" stroke="#000" stroke-dasharray="54.001865783443215, 7"><path class="EdgeBody" d="m561 539.54-61 0.4771"   marker-end="url(#d)" /></g><g class="Burr Anchor" transform="translate(536.6 539.73)" ><use class="Icon" width="0" height="0" fill="#141414" stroke-width="0" xlink:href="#b"/></g></g><g id="aj" class="Interaction" color="#000" ><g color="#000" fill="transparent"  filter="url(#a)" stroke="#000" stroke-dasharray="51.63520575047931, 1"><path class="EdgeBody" d="m343.39 538.54 52.614 1.4771"   marker-end="url(#c)" /></g></g><g id="ak" class="Interaction" color="#000" ><g color="#000" fill="transparent"  filter="url(#a)" stroke="#000" stroke-dasharray="111.02343888603423, 7"><path class="EdgeBody" d="m447 390 1 118.02"   marker-end="url(#d)" /></g><g class="Burr Anchor" transform="translate(447.56 456.45)" ><use class="Icon" width="0" height="0" fill="#141414" stroke-width="0" xlink:href="#b"/></g></g><g id="al" class="Interaction" color="#000" ><g color="#000" fill="transparent"  filter="url(#a)" stroke="#000" stroke-dasharray="94.5992997956092, 1"><path class="EdgeBody" d="m448 572.02 1.4771 95.588"   marker-end="url(#c)" /></g><g class="Burr Anchor" transform="translate(448.24 587.86)" ><use class="Icon" width="0" height="0" fill="#141414" stroke-width="0" xlink:href="#b"/></g></g><g id="am" class="Interaction" color="#000" ><g color="#000" fill="transparent"  filter="url(#a)" stroke="#000" stroke-dasharray="62.782809241901745, 7"><path class="EdgeBody" d="m234.95 454.18 69.744 2.3131"   marker-end="url(#d)" /></g></g><g id="an" class="Interaction" color="#000" ><g color="#000" fill="transparent"  filter="url(#a)" stroke="#000" stroke-dasharray="283.49628430807866, 1"><path class="EdgeBody" d="m187.59 806.68-0.63811-284.5"   marker-end="url(#c)" /></g></g><g id="ao" class="Interaction" color="#000" ><g color="#000" fill="transparent"  filter="url(#a)" stroke="#000" stroke-dasharray="550.2821347978917, 7"><path class="EdgeBody" d="m233.63 245.2v20h1.2328v322.66h213.39"   marker-end="url(#d)" /></g></g><g id="ap" class="Interaction" color="#000" ><g color="#000" fill="transparent"  filter="url(#a)" stroke="#000" stroke-dasharray="61.86439378872735, 1"><path class="EdgeBody" d="m384.7 456.5 62.864-0.045872"   marker-end="url(#c)" /></g></g><g id="aq" class="Interaction" color="#000" ><g color="#000" fill="transparent"  filter="url(#a)" stroke="#000" stroke-dasharray="44.04644880516373, 11"><path class="EdgeBody" d="m536.21 484.69 0.39041 55.045"   marker-end="url(#h)" /></g></g><g class="SingleFreeNode Shape PhysicalEntity CellularComponent Nucleus" transform="translate(348.98 634.02)" color="#c0c0c0" ><g fill="transparent"  filter="url(#e)" stroke="#c0c0c0" stroke-width="3"><use class="Icon" transform="matrix(.94419 0 0 .9397 5.6651 5.6382)" width="203" height="187"    xlink:href="#i"/></g></g><g class="SingleFreeNode Shape" transform="translate(34.951 150.16)" color="#000" ><rect class="Icon" transform="matrix(.99624 0 0 .98959 .49812 .49479)" width="264.9" height="95.035" rx="15" ry="15" fill="transparent"  stroke="#000"/></g><g class="SingleFreeNode Shape PhysicalEntity CellularComponent Cell" transform="translate(-16.37 67.977)" color="#c0c0c0" ><g fill="transparent"  filter="url(#e)" stroke="#c0c0c0" stroke-width="3"><rect class="Icon" transform="matrix(.76935 0 0 .98438 4.6161 5.9063)" width="40.027" height="756.27" rx="15" ry="15"   /></g></g><g class="SingleFreeNode Shape PhysicalEntity CellularComponent Cell" transform="translate(50.546 67)" color="#c0c0c0" ><g fill="transparent"  filter="url(#e)" stroke="#c0c0c0" stroke-width="3"><rect class="Icon" transform="matrix(.98373 0 0 .98446 5.9024 5.9068)" width="725.5" height="760.2" rx="15" ry="15"   /></g></g><g class="SingleFreeNode Shape PhysicalEntity CellularComponent Cell" transform="translate(809.87 69.401)" color="#c0c0c0" ><g fill="transparent"  filter="url(#e)" stroke="#c0c0c0" stroke-width="3"><rect class="Icon" transform="matrix(.88694 0 0 .98438 5.3216 5.9063)" width="94.137" height="756.32" rx="15" ry="15"   /></g></g><g class="Label" transform="translate(198.72 220.88)" color="#000"  name="AJ complex"><use class="Icon" width="90" height="25" fill="transparent"  stroke="#000" stroke-width="0" xlink:href="#b"/><text class="Text" transform="translate(45,16.5)"   font-size="12px"  text-anchor="middle"><tspan x="0" y="0">AJ complex</tspan></text></g><g class="Label" transform="translate(406.99 784.34)" color="#000"  name="Nucleoplasm"><use class="Icon" width="90" height="23.633677991137375" fill="transparent"  stroke="#000" stroke-width="0" xlink:href="#b"/><text class="Text" transform="translate(45 15.817)"   font-size="12px"  text-anchor="middle"><tspan x="0" y="0">Nucleoplasm</tspan></text></g><g class="Label" transform="translate(621,227.5)" color="#000"  name="Actin filaments"><use class="Icon" width="90" height="25" fill="transparent"  stroke="#000" stroke-width="0" xlink:href="#b"/><text class="Text" transform="translate(45,16.5)"   font-size="12px"  text-anchor="middle"><tspan x="0" y="0">Actin filaments</tspan></text></g><g class="Label" transform="translate(535.5 789.57)" color="#000"  name="Cytoplasm"><use class="Icon" width="90" height="25" fill="transparent"  stroke="#000" stroke-width="0" xlink:href="#b"/><text class="Text" transform="translate(45,16.5)"   font-size="12px"  text-anchor="middle"><tspan x="0" y="0">Cytoplasm</tspan></text></g><a  class="GeneProduct ACTA1 " transform="translate(561,103)"   name="ACTA1"  ><rect class="Icon" transform="matrix(.98765 0 0 .95238 .49383 .47619)" width="80" height="20" fill="#fff" stroke="#000"/><text class="Text" transform="translate(40,14)"   font-size="12px"  text-anchor="middle"><tspan x="0" y="0">ACTA1</tspan></text></a><a  class="GeneProduct ACTA2 " transform="translate(561,123)"   name="ACTA2"  ><rect class="Icon" transform="matrix(.98765 0 0 .95238 .49383 .47619)" width="80" height="20" fill="#fff" stroke="#000"/><text class="Text" transform="translate(40,14)"   font-size="12px"  text-anchor="middle"><tspan x="0" y="0">ACTA2</tspan></text></a><a  class="GeneProduct YWHAQ " transform="translate(561 529.54)"   name="YWHAQ"  ><rect class="Icon" transform="matrix(.98765 0 0 .95238 .49383 .47619)" width="80" height="20" fill="#fff" stroke="#000"/><text class="Text" transform="translate(40,14)"   font-size="12px"  text-anchor="middle"><tspan x="0" y="0">YWHAQ</tspan></text></a><a  class="GeneProduct ACTC1 " transform="translate(561,163)"   name="ACTC1"  ><rect class="Icon" transform="matrix(.98765 0 0 .95238 .49383 .47619)" width="80" height="20" fill="#fff" stroke="#000"/><text class="Text" transform="translate(40,14)"   font-size="12px"  text-anchor="middle"><tspan x="0" y="0">ACTC1</tspan></text></a><a  class="GeneProduct SRC " transform="translate(263.39 528.54)"   name="SRC"  ><rect class="Icon" transform="matrix(.98765 0 0 .95238 .49383 .47619)" width="80" height="20" fill="#fff" stroke="#000"/><text class="Text" transform="translate(40,14)"   font-size="12px"  text-anchor="middle"><tspan x="0" y="0">SRC</tspan></text></a><a  class="GeneProduct ACTB " transform="translate(561,143)"   name="ACTB"  ><rect class="Icon" transform="matrix(.98765 0 0 .95238 .49383 .47619)" width="80" height="20" fill="#fff" stroke="#000"/><text class="Text" transform="translate(40,14)"   font-size="12px"  text-anchor="middle"><tspan x="0" y="0">ACTB</tspan></text></a><a  class="GeneProduct ACTG2 " transform="translate(561,203)"   name="ACTG2"  ><rect class="Icon" transform="matrix(.98765 0 0 .95238 .49383 .47619)" width="80" height="20" fill="#fff" stroke="#000"/><text class="Text" transform="translate(40,14)"   font-size="12px"  text-anchor="middle"><tspan x="0" y="0">ACTG2</tspan></text></a><a  class="GeneProduct CDH1 " transform="translate(28.871 197.13)"   name="CDH1"  ><rect class="Icon" transform="matrix(.98765 0 0 .95238 .49383 .47619)" width="80" height="20" fill="#fff" stroke="#000"/><text class="Text" transform="translate(40,14)"   font-size="12px"  text-anchor="middle"><tspan x="0" y="0">CDH1</tspan></text></a><a  class="GeneProduct ACTG1 " transform="translate(561,183)"   name="ACTG1"  ><rect class="Icon" transform="matrix(.98765 0 0 .95238 .49383 .47619)" width="80" height="20" fill="#fff" stroke="#000"/><text class="Text" transform="translate(40,14)"   font-size="12px"  text-anchor="middle"><tspan x="0" y="0">ACTG1</tspan></text></a><a  class="GeneProduct LIMD1 " transform="translate(63.248 465.48)"   name="LIMD1"  ><rect class="Icon" transform="matrix(.98765 0 0 .95238 .49383 .47619)" width="80" height="20" fill="#fff" stroke="#000"/><text class="Text" transform="translate(40,14)"   font-size="12px"  text-anchor="middle"><tspan x="0" y="0">LIMD1</tspan></text></a><a  class="GeneProduct NF2 " transform="translate(530.18 313.48)"   name="NF2"  ><rect class="Icon" transform="matrix(.98765 0 0 .95238 .49383 .47619)" width="80" height="20" fill="#fff" stroke="#000"/><text class="Text" transform="translate(40,14)"   font-size="12px"  text-anchor="middle"><tspan x="0" y="0">NF2</tspan></text></a><a  class="GeneProduct CTNNB1 " transform="translate(78.159 173.58)"   name="CTNNB1"  ><rect class="Icon" transform="matrix(.98901 0 0 .96154 .49451 .48077)" width="90" height="25" fill="#fff" stroke="#000"/><text class="Text" transform="translate(45,16.5)"   font-size="12px"  text-anchor="middle"><tspan x="0" y="0">CTNNB1</tspan></text></a><g class="GroupGroup" transform="translate(134.59 806.68)" color="grey" ><use class="Icon" width="106.00000000000009" height="216" fill="transparent"  stroke="grey" stroke-dasharray="5,3" stroke-width="0" xlink:href="#b"/><a  class="GeneProduct ITGB5 " transform="translate(8 108)"   name="ITGB5"  ><rect class="Icon" transform="matrix(.98901 0 0 .96154 .49451 .48077)" width="90" height="25" fill="#fff" stroke="#000"/><text class="Text" transform="translate(45,16.5)"   font-size="12px"  text-anchor="middle"><tspan x="0" y="0">ITGB5</tspan></text></a><a  class="GeneProduct ITGB7 " transform="translate(8 158)"   name="ITGB7"  ><rect class="Icon" transform="matrix(.98901 0 0 .96154 .49451 .48077)" width="90" height="25" fill="#fff" stroke="#000"/><text class="Text" transform="translate(45,16.5)"   font-size="12px"  text-anchor="middle"><tspan x="0" y="0">ITGB7</tspan></text></a><a  class="GeneProduct ITGB8 " transform="translate(8 183)"   name="ITGB8"  ><rect class="Icon" transform="matrix(.98901 0 0 .96154 .49451 .48077)" width="90" height="25" fill="#fff" stroke="#000"/><text class="Text" transform="translate(45,16.5)"   font-size="12px"  text-anchor="middle"><tspan x="0" y="0">ITGB8</tspan></text></a><a  class="GeneProduct ITGB6 " transform="translate(8 133)"   name="ITGB6"  ><rect class="Icon" transform="matrix(.98901 0 0 .96154 .49451 .48077)" width="90" height="25" fill="#fff" stroke="#000"/><text class="Text" transform="translate(45,16.5)"   font-size="12px"  text-anchor="middle"><tspan x="0" y="0">ITGB6</tspan></text></a><a  class="GeneProduct ITGB4 " transform="translate(8 83)"   name="ITGB4"  ><rect class="Icon" transform="matrix(.98901 0 0 .96154 .49451 .48077)" width="90" height="25" fill="#fff" stroke="#000"/><text class="Text" transform="translate(45,16.5)"   font-size="12px"  text-anchor="middle"><tspan x="0" y="0">ITGB4</tspan></text></a><a  class="GeneProduct ITGB3 " transform="translate(8 58)"   name="ITGB3"  ><rect class="Icon" transform="matrix(.98901 0 0 .96154 .49451 .48077)" width="90" height="25" fill="#fff" stroke="#000"/><text class="Text" transform="translate(45,16.5)"   font-size="12px"  text-anchor="middle"><tspan x="0" y="0">ITGB3</tspan></text></a><a  class="GeneProduct ITGB2 " transform="translate(8 33)"   name="ITGB2"  ><rect class="Icon" transform="matrix(.98901 0 0 .96154 .49451 .48077)" width="90" height="25" fill="#fff" stroke="#000"/><text class="Text" transform="translate(45,16.5)"   font-size="12px"  text-anchor="middle"><tspan x="0" y="0">ITGB2</tspan></text></a><a  class="GeneProduct ITGB1 " transform="translate(8 8)"   name="ITGB1"  ><rect class="Icon" transform="matrix(.98901 0 0 .96154 .49451 .48077)" width="90" height="25" fill="#fff" stroke="#000"/><text class="Text" transform="translate(45,16.5)"   font-size="12px"  text-anchor="middle"><tspan x="0" y="0">ITGB1</tspan></text></a></g><g class="GroupGroup" transform="translate(55.248 533)" color="grey" ><use class="Icon" width="96.00000000000001" height="76" fill="transparent"  stroke="grey" stroke-dasharray="5,3" stroke-width="0" xlink:href="#b"/><a  class="GeneProduct MAPK10 " transform="translate(8,28)"   name="MAPK10"  ><rect class="Icon" transform="matrix(.98765 0 0 .95238 .49383 .47619)" width="80" height="20" fill="#fff" stroke="#000"/><text class="Text" transform="translate(40,14)"   font-size="12px"  text-anchor="middle"><tspan x="0" y="0">MAPK10</tspan></text></a><a  class="GeneProduct MAPK8 " transform="translate(8,8)"   name="MAPK8"  ><rect class="Icon" transform="matrix(.98765 0 0 .95238 .49383 .47619)" width="80" height="20" fill="#fff" stroke="#000"/><text class="Text" transform="translate(40,14)"   font-size="12px"  text-anchor="middle"><tspan x="0" y="0">MAPK8</tspan></text></a><a  class="GeneProduct MAPK9 " transform="translate(8,48)"   name="MAPK9"  ><rect class="Icon" transform="matrix(.98765 0 0 .95238 .49383 .47619)" width="80" height="20" fill="#fff" stroke="#000"/><text class="Text" transform="translate(40,14)"   font-size="12px"  text-anchor="middle"><tspan x="0" y="0">MAPK9</tspan></text></a></g><g class="GroupComplex" transform="translate(334,343)" color="grey" ><use class="Icon" transform="matrix(.99398 0 0 .98333 .49699 .49167)" width="165" height="59" fill="#b4b464" fill-opacity=".1" stroke="grey" xlink:href="#f"/><a  class="GeneProduct SGMS1 " transform="translate(12,12)"   name="SGMS1"  ><rect class="Icon" transform="matrix(.98765 0 0 .95238 .49383 .47619)" width="80" height="20" fill="#fff" stroke="#000"/><text class="Text" transform="translate(40,14)"   font-size="12px"  text-anchor="middle"><tspan x="0" y="0">SGMS1</tspan></text></a><a  class="GeneProduct LATS1 " transform="translate(73,27)"   name="LATS1"  ><rect class="Icon" transform="matrix(.98765 0 0 .95238 .49383 .47619)" width="80" height="20" fill="#fff" stroke="#000"/><text class="Text" transform="translate(40,14)"   font-size="12px"  text-anchor="middle"><tspan x="0" y="0">LATS1</tspan></text></a></g><g class="GroupGroup" transform="translate(627.95 345.82)" color="grey" ><use class="Icon" width="106.00000000000023" height="141.00000000000006" fill="transparent"  stroke="grey" stroke-dasharray="5,3" stroke-width="0" xlink:href="#b"/><a  class="GeneProduct MAP4K2 " transform="translate(8 33)"   name="MAP4K2"  ><rect class="Icon" transform="matrix(.98901 0 0 .96154 .49451 .48077)" width="90" height="25" fill="#fff" stroke="#000"/><text class="Text" transform="translate(45,16.5)"   font-size="12px"  text-anchor="middle"><tspan x="0" y="0">MAP4K2</tspan></text></a><a  class="GeneProduct MAP4K5 " transform="translate(8 108)"   name="MAP4K5"  ><rect class="Icon" transform="matrix(.98901 0 0 .96154 .49451 .48077)" width="90" height="25" fill="#fff" stroke="#000"/><text class="Text" transform="translate(45,16.5)"   font-size="12px"  text-anchor="middle"><tspan x="0" y="0">MAP4K5</tspan></text></a><a  class="GeneProduct MAP4K3 " transform="translate(8,58)"   name="MAP4K3"  ><rect class="Icon" transform="matrix(.98901 0 0 .96154 .49451 .48077)" width="90" height="25" fill="#fff" stroke="#000"/><text class="Text" transform="translate(45,16.5)"   font-size="12px"  text-anchor="middle"><tspan x="0" y="0">MAP4K3</tspan></text></a><a  class="GeneProduct MAP4K4 " transform="translate(8 83)"   name="MAP4K4"  ><rect class="Icon" transform="matrix(.98901 0 0 .96154 .49451 .48077)" width="90" height="25" fill="#fff" stroke="#000"/><text class="Text" transform="translate(45,16.5)"   font-size="12px"  text-anchor="middle"><tspan x="0" y="0">MAP4K4</tspan></text></a><a  class="GeneProduct MAP4K1 " transform="translate(8 8)"   name="MAP4K1"  ><rect class="Icon" transform="matrix(.98901 0 0 .96154 .49451 .48077)" width="90" height="25" fill="#fff" stroke="#000"/><text class="Text" transform="translate(45,16.5)"   font-size="12px"  text-anchor="middle"><tspan x="0" y="0">MAP4K1</tspan></text></a></g><g class="GroupComplex" transform="translate(322,233)" color="grey" ><use class="Icon" transform="matrix(.99438 0 0 .98592 .49719 .49296)" width="177" height="70" fill="#b4b464" fill-opacity=".1" stroke="grey" xlink:href="#f"/><a  class="GeneProduct STK3 " transform="translate(84,19)"   name="STK3"  ><rect class="Icon" transform="matrix(.98765 0 0 .95238 .49383 .47619)" width="80" height="20" fill="#fff" stroke="#000"/><text class="Text" transform="translate(40,14)"   font-size="12px"  text-anchor="middle"><tspan x="0" y="0">STK3</tspan></text></a><a  class="GeneProduct SAV1 " transform="translate(12,12)"   name="SAV1"  ><rect class="Icon" transform="matrix(.98765 0 0 .95238 .49383 .47619)" width="80" height="20" fill="#fff" stroke="#000"/><text class="Text" transform="translate(40,14)"   font-size="12px"  text-anchor="middle"><tspan x="0" y="0">SAV1</tspan></text></a><a  class="GeneProduct MST1 " transform="translate(85,38)"   name="MST1"  ><rect class="Icon" transform="matrix(.98765 0 0 .95238 .49383 .47619)" width="80" height="20" fill="#fff" stroke="#000"/><text class="Text" transform="translate(40,14)"   font-size="12px"  text-anchor="middle"><tspan x="0" y="0">MST1</tspan></text></a></g><g class="GroupGroup" transform="translate(401.48 667.61)" color="grey" ><use class="Icon" width="96" height="96" fill="transparent"  stroke="grey" stroke-dasharray="5,3" stroke-width="0" xlink:href="#b"/><a  class="GeneProduct TEAD2 " transform="translate(8,28)"   name="TEAD2"  ><rect class="Icon" transform="matrix(.98765 0 0 .95238 .49383 .47619)" width="80" height="20" fill="#fff" stroke="#000"/><text class="Text" transform="translate(40,14)"   font-size="12px"  text-anchor="middle"><tspan x="0" y="0">TEAD2</tspan></text></a><a  class="GeneProduct TEAD3 " transform="translate(8,48)"   name="TEAD3"  ><rect class="Icon" transform="matrix(.98765 0 0 .95238 .49383 .47619)" width="80" height="20" fill="#fff" stroke="#000"/><text class="Text" transform="translate(40,14)"   font-size="12px"  text-anchor="middle"><tspan x="0" y="0">TEAD3</tspan></text></a><a  class="GeneProduct TEAD4 " transform="translate(8,68)"   name="TEAD4"  ><rect class="Icon" transform="matrix(.98765 0 0 .95238 .49383 .47619)" width="80" height="20" fill="#fff" stroke="#000"/><text class="Text" transform="translate(40,14)"   font-size="12px"  text-anchor="middle"><tspan x="0" y="0">TEAD4</tspan></text></a><a  class="GeneProduct TEAD1 " transform="translate(8,8)"   name="TEAD1"  ><rect class="Icon" transform="matrix(.98765 0 0 .95238 .49383 .47619)" width="80" height="20" fill="#fff" stroke="#000"/><text class="Text" transform="translate(40,14)"   font-size="12px"  text-anchor="middle"><tspan x="0" y="0">TEAD1</tspan></text></a></g><g class="GroupComplex" transform="translate(396 508.02)" color="grey" ><use class="Icon" transform="matrix(.99048 0 0 .98462 .49524 .49231)" width="104" height="64.00000000000102" fill="#b4b464" fill-opacity=".1" stroke="grey" xlink:href="#f"/><a  class="GeneProduct TAZ " transform="translate(12 32)"   name="TAZ"  ><rect class="Icon" transform="matrix(.98765 0 0 .95238 .49383 .47619)" width="80" height="20" fill="#fff" stroke="#000"/><text class="Text" transform="translate(40,14)"   font-size="12px"  text-anchor="middle"><tspan x="0" y="0">TAZ</tspan></text></a><a  class="GeneProduct YY1AP1 " transform="translate(12,12)"   name="YY1AP1"  ><rect class="Icon" transform="matrix(.98765 0 0 .95238 .49383 .47619)" width="80" height="20" fill="#fff" stroke="#000"/><text class="Text" transform="translate(40,14)"   font-size="12px"  text-anchor="middle"><tspan x="0" y="0">YY1AP1</tspan></text></a></g><g class="GroupGroup" transform="translate(138.95 386.18)" color="grey" ><use class="Icon" width="96" height="136.0000000000001" fill="transparent"  stroke="grey" stroke-dasharray="5,3" stroke-width="0" xlink:href="#b"/><a  class="GeneProduct PAK1 " transform="translate(8,8)"   name="PAK1"  ><rect class="Icon" transform="matrix(.98765 0 0 .95238 .49383 .47619)" width="80" height="20" fill="#fff" stroke="#000"/><text class="Text" transform="translate(40,14)"   font-size="12px"  text-anchor="middle"><tspan x="0" y="0">PAK1</tspan></text></a><a  class="GeneProduct PAK2 " transform="translate(8,28)"   name="PAK2"  ><rect class="Icon" transform="matrix(.98765 0 0 .95238 .49383 .47619)" width="80" height="20" fill="#fff" stroke="#000"/><text class="Text" transform="translate(40,14)"   font-size="12px"  text-anchor="middle"><tspan x="0" y="0">PAK2</tspan></text></a><a  class="GeneProduct PAK3 " transform="translate(8,48)"   name="PAK3"  ><rect class="Icon" transform="matrix(.98765 0 0 .95238 .49383 .47619)" width="80" height="20" fill="#fff" stroke="#000"/><text class="Text" transform="translate(40,14)"   font-size="12px"  text-anchor="middle"><tspan x="0" y="0">PAK3</tspan></text></a><a  class="GeneProduct PAK4 " transform="translate(8,68)"   name="PAK4"  ><rect class="Icon" transform="matrix(.98765 0 0 .95238 .49383 .47619)" width="80" height="20" fill="#fff" stroke="#000"/><text class="Text" transform="translate(40,14)"   font-size="12px"  text-anchor="middle"><tspan x="0" y="0">PAK4</tspan></text></a><a  class="GeneProduct PAK5 " transform="translate(8,88)"   name="PAK5"  ><rect class="Icon" transform="matrix(.98765 0 0 .95238 .49383 .47619)" width="80" height="20" fill="#fff" stroke="#000"/><text class="Text" transform="translate(40,14)"   font-size="12px"  text-anchor="middle"><tspan x="0" y="0">PAK5</tspan></text></a><a  class="GeneProduct PAK6 " transform="translate(8 108)"   name="PAK6"  ><rect class="Icon" transform="matrix(.98765 0 0 .95238 .49383 .47619)" width="80" height="20" fill="#fff" stroke="#000"/><text class="Text" transform="translate(40,14)"   font-size="12px"  text-anchor="middle"><tspan x="0" y="0">PAK6</tspan></text></a></g><g id="ar" class="Edge GraphicalLine" color="#000" ><g color="#000" fill="transparent"  filter="url(#a)" stroke="#000" stroke-dasharray="147.00000000000006, 0"><path class="EdgeBody" d="m373.48 755.61h147"   /></g></g><a  class="GeneProduct CDH1 " transform="translate(-36.305 218.34)"   name="CDH1"  ><rect class="Icon" transform="matrix(.98765 0 0 .95238 .49383 .47619)" width="80" height="20" fill="#fff" stroke="#000"/><text class="Text" transform="translate(40,14)"   font-size="12px"  text-anchor="middle"><tspan x="0" y="0">CDH1</tspan></text></a><a  class="GeneProduct NF2 " transform="translate(304.7 446.5)"   name="NF2"  ><rect class="Icon" transform="matrix(.98765 0 0 .95238 .49383 .47619)" width="80" height="20" fill="#fff" stroke="#000"/><text class="Text" transform="translate(40,14)"   font-size="12px"  text-anchor="middle"><tspan x="0" y="0">NF2</tspan></text></a><a  class="GeneProduct CTNNA1 " transform="translate(138.52 195.63)"   name="CTNNA1"  ><rect class="Icon" transform="matrix(.98901 0 0 .96154 .49451 .48077)" width="90" height="25" fill="#fff" stroke="#000"/><text class="Text" transform="translate(45,16.5)"   font-size="12px"  text-anchor="middle"><tspan x="0" y="0">CTNNA1</tspan></text></a><g class="Label" transform="translate(161.16 97.175)" color="#000"  name="Actin cytoskeleton"><use class="Icon" width="115.05462717438047" height="35.76440177252587" fill="transparent"  stroke="#000" stroke-width="0" xlink:href="#b"/><text class="Text" transform="translate(57.527 21.882)"   font-size="12px"  text-anchor="middle"><tspan x="0" y="0">Actin cytoskeleton</tspan></text></g><g class="GeneProduct" transform="translate(491.21 459.69)" color="#000"  name="a-catenin"><rect class="Icon" transform="matrix(.98901 0 0 .96154 .49451 .48077)" width="90" height="25" fill="#fff" stroke="#000"/><text class="Text" transform="translate(45,16.5)"   font-size="12px"  text-anchor="middle"><tspan x="0" y="0">a-catenin</tspan></text></g><g class="GeneProduct" transform="translate(195.19 605.58)" color="#000"  name="a-catenin"><rect class="Icon" transform="matrix(.98901 0 0 .96154 .49451 .48077)" width="90" height="25" fill="#fff" stroke="#000"/><text class="Text" transform="translate(45,16.5)"   font-size="12px"  text-anchor="middle"><tspan x="0" y="0">a-catenin</tspan></text></g><a  class="GeneProduct CDH1 " transform="translate(719.82 140.66)"   name="CDH1"  ><rect class="Icon" transform="matrix(.98765 0 0 .95238 .49383 .47619)" width="80" height="20" fill="#fff" stroke="#000"/><text class="Text" transform="translate(40,14)"   font-size="12px"  text-anchor="middle"><tspan x="0" y="0">CDH1</tspan></text></a><a  class="GeneProduct CTNNB1 " transform="translate(676.05 159.94)"   name="CTNNB1"  ><rect class="Icon" transform="matrix(.98901 0 0 .96154 .49451 .48077)" width="90" height="25" fill="#fff" stroke="#000"/><text class="Text" transform="translate(45,16.5)"   font-size="12px"  text-anchor="middle"><tspan x="0" y="0">CTNNB1</tspan></text></a><a  class="GeneProduct CDH1 " transform="translate(783.15 120.51)"   name="CDH1"  ><rect class="Icon" transform="matrix(.98765 0 0 .95238 .49383 .47619)" width="80" height="20" fill="#fff" stroke="#000"/><text class="Text" transform="translate(40,14)"   font-size="12px"  text-anchor="middle"><tspan x="0" y="0">CDH1</tspan></text></a><a  class="GeneProduct CTNNA1 " transform="translate(652.21 186.42)"   name="CTNNA1"  ><rect class="Icon" transform="matrix(.98901 0 0 .96154 .49451 .48077)" width="90" height="25" fill="#fff" stroke="#000"/><text class="Text" transform="translate(45,16.5)"   font-size="12px"  text-anchor="middle"><tspan x="0" y="0">CTNNA1</tspan></text></a><text class="Text" transform="translate(5,27)" dominant-baseline="central" fill="black"  font-size="12px" font-weight="bold" overflow="visible" ><tspan x="0" y="-9">Name: Mechanoregulation and pathology of YAP/TAZ via Hippo and non-Hippo mechanisms</tspan> <tspan x="0" y="9">Organism: Homo sapiens</tspan></text></g></svg>
