<?xml version="1.0" encoding="UTF-8"?>
<!--
  WikiPathways page: https://www.wikipathways.org/index.php/Pathway:WP4583
  URL for this compressed file: https://github.com/eweitz/cachome/tree/main/data/wikipathways/WP4583.svg
  Source code for compression: https://github.com/eweitz/cachome/tree/main/src/wikipathways.py
-->
<svg class="Diagram" width="800" height="600" color="black" baseProfile="full" prefix="schema:http://schema.org/" preserveAspectRatio="xMidYMid" version="1.1" viewBox="0 0 895.66 882.95" vocab="http://vocabularies.wikipathways.org/wp#" xmlns="http://www.w3.org/2000/svg" xmlns:xlink="http://www.w3.org/1999/xlink"><style>svg {font-family: 'Liberation Sans', Arial, sans-serif; }</style><defs><filter id="a" x="0" y="0" width="895.66" height="882.95" filterUnits="userSpaceOnUse"><feColorMatrix in="SourceGraphic" values="-1   0   0 0 0                   0  -1   0 0 0                   0   0  -1 0 0                   0   0   0 1 0"/></filter><marker id="c" stroke-dasharray="99999" markerHeight="12" markerUnits="userSpaceOnUse" markerWidth="12" orient="auto" preserveAspectRatio="none" refX="12" refY="6" viewBox="0 0 12 12"><path transform="rotate(180 6 6)" d="M12 11L0 6l12-5z" fill="currentColor" stroke-width="0"/></marker><marker id="e" stroke-dasharray="99999" markerHeight="12" markerUnits="userSpaceOnUse" markerWidth="12" orient="auto" preserveAspectRatio="none" refX="12" refY="6" viewBox="0 0 12 12"><circle transform="rotate(180 6 6)" cx="6" cy="6" r="5.3" fill="none" stroke="#000"/></marker><marker id="d" stroke-dasharray="99999" markerHeight="12" markerUnits="userSpaceOnUse" markerWidth="12" orient="auto" preserveAspectRatio="none" refX="12" refY="6" viewBox="0 0 12 12"><path transform="rotate(180 6 6)" d="M12 11L0 6l12-5z" fill="currentColor" stroke-width="0"/></marker><marker id="f" stroke-dasharray="99999" markerHeight="12" markerUnits="userSpaceOnUse" markerWidth="12" orient="auto" preserveAspectRatio="none" refX="12" refY="6" viewBox="0 0 12 12"><g transform="rotate(180 6 6)" fill="none"><path d="m12 6"/><path d="M0 6l11 5V1z" stroke="#000"/></g></marker><symbol id="b" preserveAspectRatio="none" viewBox="0 0 100 100"/></defs><g class="Viewport" color="black"  name="Name: Biomarkers for urea cycle disorders Organism: Homo sapiens"><rect class="Icon" width="895.66" height="882.95" fill="#fff" stroke="#000" stroke-width="0"/><g id="g" class="DirectedInteraction" color="#000" ><g color="#000" fill="transparent"  filter="url(#a)" stroke="#000" stroke-dasharray="5.46, 3.27, 5.46, 3.27, 5.46, 3.27, 5.46, 5.8"><path class="EdgeBody" d="m369.88 212.04 9.3e-13 -37.449"   marker-end="url(#c)" /></g></g><g id="h" class="DirectedInteraction" color="#000" ><g color="#000" fill="transparent"  filter="url(#a)" stroke="#000" stroke-dasharray="5.29, 3.17, 5.29, 3.17, 5.29, 5.8"><path class="EdgeBody" d="m660.2 775.95v-28"   marker-end="url(#c)" /></g></g><g id="i" class="DirectedInteraction" color="#000" ><g color="#000" fill="transparent"  filter="url(#a)" stroke="#000" stroke-dasharray="6, 3.6, 6, 3.6, 6, 3.6, 0, 5.8"><path class="EdgeBody" d="m667.11 237.04v33.284"   marker-end="url(#c)" /></g></g><g id="j" class="Rhea_10657" color="#000" ><g color="#000" fill="transparent"  filter="url(#a)" stroke="#000" stroke-dasharray="107.1569732666019, 5.8"><path class="EdgeBody" d="m502.24 735.45h112.96"   marker-end="url(#d)" /></g><g class="Burr Anchor" transform="translate(547.43 735.45)" ><use class="Icon" width="0" height="0" fill="#141414" stroke-width="0" xlink:href="#b"/></g></g><g id="k" class="Rhea_13202" color="#000" ><g color="#000" fill="transparent"  filter="url(#a)" stroke="#000" stroke-dasharray="91.01564569619842, 5.8"><path class="EdgeBody" d="m429.8 628.78 22.438 94.18"   marker-end="url(#d)" /></g><g class="Burr Anchor" transform="translate(438.78 666.45)" ><use class="Icon" width="0" height="0" fill="#141414" stroke-width="0" xlink:href="#b"/></g></g><g id="l" class="Interaction" color="#000" ><g color="#000" fill="transparent"  filter="url(#a)" stroke="#000" stroke-dasharray="31.16644047940128, 11"><path class="EdgeBody" d="m480.85 663.6-42.07 2.8472"   marker-end="url(#e)" /></g></g><g id="m" class="Rhea_10933" color="#000" ><g color="#000" fill="transparent"  filter="url(#a)" stroke="#000" stroke-dasharray="101.36196471498283, 5.8"><path class="EdgeBody" d="m494.6 400.81 55.087 91.919"   marker-end="url(#d)" /></g><g class="Burr Anchor" transform="translate(532.77 464.5)" ><use class="Icon" width="0" height="0" fill="#141414" stroke-width="0" xlink:href="#b"/></g></g><g id="n" class="DirectedInteraction" color="#000" ><g color="#000" fill="transparent"  filter="url(#a)" stroke="#000" stroke-dasharray="6, 3.6, 6, 3.6, 6, 3.6, 0, 5.8"><path class="EdgeBody" d="m660.2 664.9v-31.808"   marker-end="url(#c)" /></g></g><g id="o" class="Rhea_17122" color="#000" ><g color="#000" fill="transparent"  filter="url(#a)" stroke="#000" stroke-dasharray="115.62449323491862, 5.8"><path class="EdgeBody" d="m306.16 346.41 120.92-11.043"   marker-end="url(#d)" /></g></g><g id="p" class="DirectedInteraction" color="#000" ><g color="#000" fill="transparent"  filter="url(#a)" stroke="#000" stroke-dasharray="5.05, 3.03, 5.05, 3.03, 5.05, 5.8"><path class="EdgeBody" d="m660.2 800.95v27"   marker-end="url(#c)" /></g></g><g id="q" class="DirectedInteraction" color="#000" ><g color="#000" fill="transparent"  filter="url(#a)" stroke="#000" stroke-dasharray="5.71, 3.42, 5.71, 3.42, 5.71, 3.42, 5.71, 3.42, 5.71, 5.8"><path class="EdgeBody" d="m778.85 400.81 41.809 23.639"   marker-end="url(#c)" /></g></g><g id="r" class="DirectedInteraction" color="#000" ><g color="#000" fill="transparent"  filter="url(#a)" stroke="#000" stroke-dasharray="5.81, 3.49, 5.81, 3.49, 5.81, 3.49, 5.81, 3.49, 5.81, 3.49, 5.81, 5.8"><path class="EdgeBody" d="m615.2 788.45h-58.107"   marker-end="url(#c)" /></g></g><g id="s" class="DirectedInteraction" color="#000" ><g color="#000" fill="transparent"  filter="url(#a)" stroke="#000" stroke-dasharray="6, 3.6, 6, 3.6, 6, 3.6, 0, 5.8"><path class="EdgeBody" d="m705.2 788.45 32.063-1e-13"   marker-end="url(#c)" /></g></g><g id="t" class="DirectedInteraction" color="#000" ><g color="#000" fill="transparent"  filter="url(#a)" stroke="#000" stroke-dasharray="5.02, 3.01, 5.02, 3.01, 5.02, 3.01, 5.02, 3.01, 5.02, 3.01, 5.02, 3.01, 5.02, 3.01, 5.02, 3.01, 5.02, 3.01, 5.02, 3.01, 5.02, 3.01, 5.02, 3.01, 5.02, 3.01, 5.02, 3.01, 5.02, 3.01, 5.02, 3.01, 5.02, 3.01, 0, 5.8"><path class="EdgeBody" d="m276.16 340.16 93.726-103.13"   marker-end="url(#c)" /></g></g><g id="u" class="DirectedInteraction" color="#000" ><g color="#000" fill="transparent"  filter="url(#a)" stroke="#000" stroke-dasharray="5.55, 3.33, 5.55, 3.33, 5.55, 3.33, 5.55, 3.33, 5.55, 5.8"><path class="EdgeBody" d="m414.88 224.54h46.878"   marker-end="url(#c)" /></g></g><g id="v" class="DirectedInteraction" color="#000" ><g color="#000" fill="transparent"  filter="url(#a)" stroke="#000" stroke-dasharray="5.13, 3.08, 5.13, 3.08, 5.13, 3.08, 5.13, 3.08, 5.13, 3.08, 5.13, 3.08, 5.13, 3.08, 5.13, 3.08, 5.13, 3.08, 5.13, 3.08, 0, 5.8"><path class="EdgeBody" d="m392.38 212.04 76.161-37.449"   marker-end="url(#c)" /></g></g><g id="w" class="DirectedInteraction" color="#000" ><g color="#000" fill="transparent"  filter="url(#a)" stroke="#000" stroke-dasharray="5.02, 3.01, 5.02, 3.01, 5.02, 3.01, 5.02, 3.01, 5.02, 3.01, 5.02, 3.01, 0, 5.8"><path class="EdgeBody" d="m712.11 224.54h51"   marker-end="url(#c)" /></g></g><g id="x" class="DirectedInteraction" color="#000" ><g color="#000" fill="transparent"  filter="url(#a)" stroke="#000" stroke-dasharray="5.35, 3.21, 5.35, 3.21, 5.35, 3.21, 5.35, 3.21, 5.35, 3.21, 5.35, 3.21, 0, 5.8"><path class="EdgeBody" d="m730.16 449.49 48.69 23.296"   marker-end="url(#c)" /></g></g><g id="y" class="Rhea_19514" color="#000" ><g color="#000" fill="transparent"  filter="url(#a)" stroke="#000" stroke-dasharray="161.74678576270497, 5.8"><path class="EdgeBody" d="m306.16 352.66 165.94 23.15"   marker-end="url(#d)" /></g><g class="Burr Anchor" transform="translate(374.92 362.26)" ><use class="Icon" width="0" height="0" fill="#141414" stroke-width="0" xlink:href="#b"/></g><g class="Burr Anchor" transform="translate(370.53 359.92)" ><rect class="Icon" width="4" height="4" fill="#141414" stroke-width="0"/></g></g><g id="z" class="Rhea_19514" color="#000" ><g color="#000" fill="transparent"  filter="url(#a)" stroke="#000" stroke-dasharray="144.37074862761295, 5.8"><path class="EdgeBody" d="m280.85 479.32 94.066-117.06"   marker-end="url(#d)" /></g></g><g id="aa" class="DirectedInteraction" color="#000" ><g color="#000" fill="transparent"  filter="url(#a)" stroke="#000" stroke-dasharray="5.37, 3.22, 5.37, 3.22, 5.37, 3.22, 5.37, 3.22, 5.37, 3.22, 5.37, 3.22, 0, 5.8"><path class="EdgeBody" d="m778.85 400.81-48.69 23.676"   marker-end="url(#c)" /></g></g><g id="ab" class="DirectedInteraction" color="#000" ><g color="#000" fill="transparent"  filter="url(#a)" stroke="#000" stroke-dasharray="5.69, 3.41, 5.69, 3.41, 5.69, 3.41, 5.69, 3.41, 5.69, 5.8"><path class="EdgeBody" d="m820.66 449.45-41.809 23.334"   marker-end="url(#c)" /></g></g><g id="ac" class="Interaction" color="#000" ><g color="#000" fill="transparent"  filter="url(#a)" stroke="#000" stroke-dasharray="9.508436594086067, 11"><path class="EdgeBody" d="m547.05 714.95 0.37543 20.505"   marker-end="url(#e)" /></g></g><g id="ad" class="Rhea_18030" color="#000" ><g color="#000" fill="transparent"  filter="url(#a)" stroke="#000" stroke-dasharray="97.32558212627599, 5.8"><path class="EdgeBody" d="m246.16 237.04v103.13"   marker-end="url(#d)" /></g><g class="Burr Anchor" transform="translate(246.16 278.29)" ><use class="Icon" width="0" height="0" fill="#141414" stroke-width="0" xlink:href="#b"/></g></g><g id="ae" class="DirectedInteraction" color="#000" ><g color="#000" fill="transparent"  filter="url(#a)" stroke="#000" stroke-dasharray="5.25, 3.15, 5.25, 3.15, 5.25, 3.15, 5.25, 3.15, 5.25, 3.15, 5.25, 3.15, 5.25, 5.8"><path class="EdgeBody" d="m652.45 388.31 61.404 7e-14"   marker-end="url(#c)" /></g></g><g id="af" class="Rhea_20570" color="#000" ><g color="#000" fill="transparent"  filter="url(#a)" stroke="#000" stroke-dasharray="142.45959338638252, 5.8"><path class="EdgeBody" d="m384.8 610.03-103.95-105.71"   marker-end="url(#d)" /></g><g class="Burr Anchor" transform="translate(368.47 593.42)" ><use class="Icon" width="0" height="0" fill="#141414" stroke-width="0" xlink:href="#b"/></g><g class="Burr Anchor" transform="translate(343.22 567.74)" ><use class="Icon" width="0" height="0" fill="#141414" stroke-width="0" xlink:href="#b"/></g></g><g id="ag" class="Rhea_20570" color="#000" ><g color="#000" fill="transparent"  filter="url(#a)" stroke="#000" stroke-dasharray="92.33013287075813, 5.8"><path class="EdgeBody" d="m368.47 593.42v6.7788h-84.573v6.7788"   marker-end="url(#d)" /></g></g><g id="ah" class="Interaction" color="#000" ><g color="#000" fill="transparent"  filter="url(#a)" stroke="#000" stroke-dasharray="24.047597207256842, 11"><path class="EdgeBody" d="m369.48 544.52-26.252 23.22"   marker-end="url(#e)" /></g></g><g id="ai" class="DirectedInteraction" color="#000" ><g color="#000" fill="transparent"  filter="url(#a)" stroke="#000" stroke-dasharray="5.3, 3.18, 5.3, 3.18, 5.3, 5.8"><path class="EdgeBody" d="m660.2 694.9v28.055"   marker-end="url(#c)" /></g></g><g id="aj" class="DirectedInteraction" color="#000" ><g color="#000" fill="transparent"  filter="url(#a)" stroke="#000" stroke-dasharray="6, 3.6, 6, 3.6, 6, 3.6, 0, 5.8"><path class="EdgeBody" d="m79.105 90.055v33.862"   marker-end="url(#c)" /></g></g><g id="ak" class="Rhea_24021" color="#000" ><g color="#000" fill="transparent"  filter="url(#a)" stroke="#000" stroke-dasharray="113.04841930141635, 5.8"><path class="EdgeBody" d="m549.69 517.73-74.881 92.292"   marker-end="url(#d)" /></g><g class="Burr Anchor" transform="translate(519.73 554.65)" ><use class="Icon" width="0" height="0" fill="#141414" stroke-width="0" xlink:href="#b"/></g></g><g id="al" class="Interaction" color="#000" ><g color="#000" fill="transparent"  filter="url(#a)" stroke="#000" stroke-dasharray="23.374771265064098, 11"><path class="EdgeBody" d="m487.63 542.36 32.103 12.288"   marker-end="url(#e)" /></g></g><g id="am" class="Rhea_15890" color="#000" ><g color="#000" fill="transparent"  filter="url(#a)" stroke="#000" stroke-dasharray="165.01315386367537, 5.8"><path class="EdgeBody" d="m79.105 176.4 167.05 35.64"   marker-end="url(#d)" /></g></g><g class="Label" transform="translate(733.85 472.79)" color="#000"  name="AST/ALT ratio"><rect class="Icon" transform="matrix(.98901 0 0 .96774 .49451 .48387)" width="90" height="30" fill="#fff" stroke="#000"/><text class="Text" transform="translate(45,19)"   font-size="12px"  text-anchor="middle"><tspan x="0" y="-6.6000000000000005">AST/ALT</tspan> <tspan x="0" y="6.6000000000000005">ratio</tspan></text></g><a class="Metabolite ChEBI_CHEBI_16643  " transform="translate(615.2 827.95)" color="#00f"  name="Methionine"  ><rect class="Icon" transform="matrix(.98901 0 0 .96154 .49451 .48077)" width="90" height="25" fill="#fff" stroke="#00f"/><text class="Text" transform="translate(45,16.5)" fill="#00f"  font-size="12px"  text-anchor="middle"><tspan x="0" y="0">Methionine</tspan></text></a><a class="WikiPathways_WP106 Pathway " transform="translate(713.85 375.81)" color="#14961e"  name="Alanine and  aspartate metabolism"  ><use class="Icon" width="130" height="25" fill="transparent"  stroke="#14961e" stroke-width="0" xlink:href="#b"/><text class="Text" transform="translate(65,16.5)" fill="#14961e"  font-size="12px" font-weight="bold" stroke="black" stroke-width="0" text-anchor="middle"><tspan x="0" y="-6.6000000000000005">Alanine and </tspan> <tspan x="0" y="6.6000000000000005">aspartate metabolism</tspan></text></a><a class="ChEBI_CHEBI_57743 Metabolite ChEBI_CHEBI_16349   " transform="translate(427.1 375.81)" color="#00f"  name="Citrulline"  ><rect class="Icon" transform="matrix(.98901 0 0 .96154 .49451 .48077)" width="90" height="25" fill="#fff" stroke="#00f"/><text class="Text" transform="translate(45,16.5)" fill="#00f"  font-size="12px"  text-anchor="middle"><tspan x="0" y="0">Citrulline</tspan></text></a><a class="Metabolite ChEBI_CHEBI_16742  " transform="translate(324.88 149.59)" color="#00f"  name="Orotate"  ><rect class="Icon" transform="matrix(.98901 0 0 .96154 .49451 .48077)" width="90" height="25" fill="#fff" stroke="#00f"/><text class="Text" transform="translate(45,16.5)" fill="#00f"  font-size="12px"  text-anchor="middle"><tspan x="0" y="0">Orotate</tspan></text></a><a class="WikiPathways_WP3925 Pathway " transform="translate(615.2 775.95)" color="#14961e"  name="Amino Acid  metabolism"  ><use class="Icon" width="90" height="25" fill="transparent"  stroke="#14961e" stroke-width="0" xlink:href="#b"/><text class="Text" transform="translate(45,16.5)" fill="#14961e"  font-size="12px" font-weight="bold" stroke="black" stroke-width="0" text-anchor="middle"><tspan x="0" y="-6.6000000000000005">Amino Acid </tspan> <tspan x="0" y="6.6000000000000005">metabolism</tspan></text></a><a class="Metabolite ChEBI_CHEBI_17895  " transform="translate(467.09 775.95)" color="#00f"  name="Tyrosine"  ><rect class="Icon" transform="matrix(.98901 0 0 .96154 .49451 .48077)" width="90" height="25" fill="#fff" stroke="#00f"/><text class="Text" transform="translate(45,16.5)" fill="#00f"  font-size="12px"  text-anchor="middle"><tspan x="0" y="0">Tyrosine</tspan></text></a><a class="ChEBI_CHEBI_58148 Metabolite ChEBI_CHEBI_17443   " transform="translate(427.08 322.87)" color="#00f"  name="Homocitrulline"  ><rect class="Icon" transform="matrix(.98901 0 0 .96154 .49451 .48077)" width="90" height="25" fill="#fff" stroke="#00f"/><text class="Text" transform="translate(45,16.5)" fill="#00f"  font-size="12px"  text-anchor="middle"><tspan x="0" y="0">Homocitrulline</tspan></text></a><a class="WikiPathways_WP4225 Pathway " transform="translate(324.88 212.04)" color="#14961e"  name="Pyrimidine metabolism"  ><use class="Icon" width="90" height="25" fill="transparent"  stroke="#14961e" stroke-width="0" xlink:href="#b"/><text class="Text" transform="translate(45,16.5)" fill="#14961e"  font-size="12px" font-weight="bold" stroke="black" stroke-width="0" text-anchor="middle"><tspan x="0" y="-6.6000000000000005">Pyrimidine</tspan> <tspan x="0" y="6.6000000000000005">metabolism</tspan></text></a><g class="Uniprot-TrEMBL_P50440 Protein GATM " transform="translate(480.85 651.1)" color="#000"  name="GATM"><rect class="Icon" transform="matrix(.97561 0 0 .96154 .4878 .48077)" width="40" height="25" fill="#fff" stroke="#000"/><text class="Text" transform="translate(20,16.5)"   font-size="12px"  text-anchor="middle"><tspan x="0" y="0">GATM</tspan></text></g><a class="WikiPathways_WP272 Pathway " transform="translate(622.11 212.04)" color="#14961e"  name="Blood Clotting  Cascade"  ><use class="Icon" width="90" height="25" fill="transparent"  stroke="#14961e" stroke-width="0" xlink:href="#b"/><text class="Text" transform="translate(45,16.5)" fill="#14961e"  font-size="12px" font-weight="bold" stroke="black" stroke-width="0" text-anchor="middle"><tspan x="0" y="-6.6000000000000005">Blood Clotting </tspan> <tspan x="0" y="6.6000000000000005">Cascade</tspan></text></a><a class="Metabolite ChEBI_CHEBI_28061  " transform="translate(615.2 608.09)" color="#00f"  name="Galactose"  ><rect class="Icon" transform="matrix(.98901 0 0 .96154 .49451 .48077)" width="90" height="25" fill="#fff" stroke="#00f"/><text class="Text" transform="translate(45,16.5)" fill="#00f"  font-size="12px"  text-anchor="middle"><tspan x="0" y="0">Galactose</tspan></text></a><a class="WikiPathways_WP3604 Pathway " transform="translate(600.2 664.9)" color="#14961e"  name="Biochemical  Pathways Part I"  ><use class="Icon" width="120" height="30" fill="transparent"  stroke="#14961e" stroke-width="0" xlink:href="#b"/><text class="Text" transform="translate(60,19)" fill="#14961e"  font-size="12px" font-weight="bold" stroke="black" stroke-width="0" text-anchor="middle"><tspan x="0" y="-6.6000000000000005">Biochemical </tspan> <tspan x="0" y="6.6000000000000005">Pathways Part I</tspan></text></a><g class="Uniprot-TrEMBL_P24298 Protein GPT " transform="translate(685.16 424.49)" color="#000"  name="ALT"><rect class="Icon" transform="matrix(.98901 0 0 .96154 .49451 .48077)" width="90" height="25" fill="#fff" stroke="#000"/><text class="Text" transform="translate(45,16.5)"   font-size="12px"  text-anchor="middle"><tspan x="0" y="0">ALT</tspan></text></g><a class="ChEBI_CHEBI_57472 Metabolite  " transform="translate(499.69 492.73)" color="#00f"  name="Argininosuccinate"  ><rect class="Icon" transform="matrix(.9901 0 0 .96154 .49505 .48077)" width="100" height="25" fill="#fff" stroke="#00f"/><text class="Text" transform="translate(50,16.5)" fill="#00f"  font-size="12px"  text-anchor="middle"><tspan x="0" y="0">Argininosuccinate</tspan></text></a><a class="ChEBI_CHEBI_46911 Metabolite  " transform="translate(235.85 479.32)" color="#00f"  name="Ornithine"  ><rect class="Icon" transform="matrix(.98901 0 0 .96154 .49451 .48077)" width="90" height="25" fill="#fff" stroke="#00f"/><text class="Text" transform="translate(45,16.5)" fill="#00f"  font-size="12px"  text-anchor="middle"><tspan x="0" y="0">Ornithine</tspan></text></a><a class="ChEBI_CHEBI_16199 Metabolite  " transform="translate(193.9 594.48)" color="#00f"  name="Urea"  ><rect class="Icon" transform="matrix(.98901 0 0 .96154 .49451 .48077)" width="90" height="25" fill="#fff" stroke="#00f"/><text class="Text" transform="translate(45,16.5)" fill="#00f"  font-size="12px"  text-anchor="middle"><tspan x="0" y="0">Urea</tspan></text></a><g class="Uniprot-TrEMBL_P00742 Protein F10 " transform="translate(763.11 212.04)" color="#000"  name="Factor X"><rect class="Icon" transform="matrix(.98901 0 0 .96154 .49451 .48077)" width="90" height="25" fill="#fff" stroke="#000"/><text class="Text" transform="translate(45,16.5)"   font-size="12px"  text-anchor="middle"><tspan x="0" y="0">Factor X</tspan></text></g><g class="WikiPathways_WP4571 Pathway" transform="translate(34.105 65.055)" color="#14961e"  name="Urea cycle"><use class="Icon" width="90" height="25" fill="transparent"  stroke="#14961e" stroke-width="0" xlink:href="#b"/><text class="Text" transform="translate(45,16.5)" fill="#14961e"  font-size="12px" font-weight="bold" stroke="black" stroke-width="0" text-anchor="middle"><tspan x="0" y="0">Urea cycle</tspan></text></g><g class="Uniprot-TrEMBL_Q14353 Protein GAMT " transform="translate(527.05 689.95)" color="#000"  name="GAMT"><rect class="Icon" transform="matrix(.97561 0 0 .96154 .4878 .48077)" width="40" height="25" fill="#fff" stroke="#000"/><text class="Text" transform="translate(20,16.5)"   font-size="12px"  text-anchor="middle"><tspan x="0" y="0">GAMT</tspan></text></g><a class="ChEBI_CHEBI_57947 Metabolite ChEBI_CHEBI_16919   " transform="translate(615.2 722.95)" color="#00f"  name="Creatine"  ><rect class="Icon" transform="matrix(.98901 0 0 .96154 .49451 .48077)" width="90" height="25" fill="#fff" stroke="#00f"/><text class="Text" transform="translate(45,16.5)" fill="#00f"  font-size="12px"  text-anchor="middle"><tspan x="0" y="0">Creatine</tspan></text></a><g class="Uniprot-TrEMBL_P17174 Protein GOT1 " transform="translate(775.66 424.45)" color="#000"  name="AST"><rect class="Icon" transform="matrix(.98901 0 0 .96154 .49451 .48077)" width="90" height="25" fill="#fff" stroke="#000"/><text class="Text" transform="translate(45,16.5)"   font-size="12px"  text-anchor="middle"><tspan x="0" y="0">AST</tspan></text></g><a class="ChEBI_CHEBI_58228 Metabolite  " transform="translate(186.16 340.16)" color="#00f"  name="Carbamoyl-phosphate"  ><rect class="Icon" transform="matrix(.99174 0 0 .96154 .49587 .48077)" width="120" height="25" fill="#fff" stroke="#00f"/><text class="Text" transform="translate(60,16.5)" fill="#00f"  font-size="12px"  text-anchor="middle"><tspan x="0" y="0">Carbamoyl-phosphate</tspan></text></a><a class="ChEBI_CHEBI_28938 Metabolite  " transform="translate(201.16 212.04)" color="#00f"  name="NH4+"  ><rect class="Icon" transform="matrix(.98901 0 0 .96154 .49451 .48077)" width="90" height="25" fill="#fff" stroke="#00f"/><text class="Text" transform="translate(45,16.5)" fill="#00f"  font-size="12px"  text-anchor="middle"><tspan x="0" y="0">NH4+</tspan></text></a><g class="Uniprot-TrEMBL_P08709 Protein F7 " transform="translate(622.11 270.32)" color="#000"  name="Factor VII"><rect class="Icon" transform="matrix(.98901 0 0 .96154 .49451 .48077)" width="90" height="25" fill="#fff" stroke="#000"/><text class="Text" transform="translate(45,16.5)"   font-size="12px"  text-anchor="middle"><tspan x="0" y="0">Factor VII</tspan></text></g><a class="ChEBI_CHEBI_57742 Metabolite ChEBI_CHEBI_131444   " transform="translate(402.24 722.95)" color="#00f"  name="Guanidinoacetate"  ><rect class="Icon" transform="matrix(.9901 0 0 .96154 .49505 .48077)" width="100" height="25" fill="#fff" stroke="#00f"/><text class="Text" transform="translate(50,16.5)" fill="#00f"  font-size="12px"  text-anchor="middle"><tspan x="0" y="0">Guanidinoacetate</tspan></text></a><a class="ChEBI_CHEBI_58359 Metabolite ChEBI_CHEBI_18050   " transform="translate(34.105 123.92)" color="#00f"  name="Glutamine"  ><rect class="Icon" transform="matrix(.98901 0 0 .96154 .49451 .48077)" width="90" height="25" fill="#fff" stroke="#00f"/><text class="Text" transform="translate(45,16.5)" fill="#00f"  font-size="12px"  text-anchor="middle"><tspan x="0" y="0">Glutamine</tspan></text></a><a class="Metabolite ChEBI_CHEBI_16857  " transform="translate(737.26 775.95)" color="#00f"  name="Threonine"  ><rect class="Icon" transform="matrix(.98901 0 0 .96154 .49451 .48077)" width="90" height="25" fill="#fff" stroke="#00f"/><text class="Text" transform="translate(45,16.5)" fill="#00f"  font-size="12px"  text-anchor="middle"><tspan x="0" y="0">Threonine</tspan></text></a><a class="ChEBI_CHEBI_32682 Metabolite  " transform="translate(384.8 603.78)" color="#00f"  name="Arginine"  ><rect class="Icon" transform="matrix(.98901 0 0 .96154 .49451 .48077)" width="90" height="25" fill="#fff" stroke="#00f"/><text class="Text" transform="translate(45,16.5)" fill="#00f"  font-size="12px"  text-anchor="middle"><tspan x="0" y="0">Arginine</tspan></text></a><g id="an" class="Interaction" color="#000" ><g color="#000" fill="transparent"  filter="url(#a)" stroke="#000" stroke-dasharray="47.90893938606167, 11"><path class="EdgeBody" d="m136.76 164.29-57.651 12.11"   marker-end="url(#e)" /></g></g><g id="ao" class="Rhea_15890" color="#000" ><g color="#000" fill="transparent"  filter="url(#a)" stroke="#000" stroke-dasharray="58.0559804670056, 5.8"><path class="EdgeBody" d="m79.105 148.92 2e-14 63.856"   marker-end="url(#d)" /></g><g class="Burr Anchor" transform="translate(79.105 176.4)" ><use class="Icon" width="0" height="0" fill="#141414" stroke-width="0" xlink:href="#b"/></g></g><g class="Uniprot-TrEMBL_Q9UI32 Protein GLS2 " transform="translate(136.76 152.93)" color="#000"  name="GLS2"><rect class="Icon" transform="matrix(.98208 0 0 .95783 .49104 .47891)" width="54.798" height="22.713" fill="#fff" stroke="#000"/><text class="Text" transform="translate(27.399 15.356)"   font-size="12px"  text-anchor="middle"><tspan x="0" y="0">GLS2</tspan></text></g><a class="ChEBI_CHEBI_29985 Metabolite  " transform="translate(34.105 212.77)" color="#00f"  name="Glutamate"  ><rect class="Icon" transform="matrix(.98901 0 0 .96154 .49451 .48077)" width="90" height="25" fill="#fff" stroke="#00f"/><text class="Text" transform="translate(45,16.5)" fill="#00f"  font-size="12px"  text-anchor="middle"><tspan x="0" y="0">Glutamate</tspan></text></a><g id="ap" class="Interaction" color="#000" ><g color="#000" fill="transparent"  filter="url(#a)" stroke="#000" stroke-dasharray="106.0724503108629, 11"><path class="EdgeBody" d="m129.11 280.38 117.05-2.0956"   marker-end="url(#f)" /></g></g><g id="aq" class="Rhea_24293" color="#000" ><g color="#000" fill="transparent"  filter="url(#a)" stroke="#000" stroke-dasharray="24.31023722264045, 5.8"><path class="EdgeBody" d="m79.105 237.77v30.11"   marker-end="url(#d)" /></g><g class="Burr Anchor" transform="translate(79.105 249.82)" ><use class="Icon" width="0" height="0" fill="#141414" stroke-width="0" xlink:href="#b"/></g><g class="Burr Anchor" transform="translate(79.105 250.58)" ><use class="Icon" width="0" height="0" fill="#141414" stroke-width="0" xlink:href="#b"/></g><g class="Burr Anchor" transform="translate(79.105 258.72)" ><use class="Icon" width="0" height="0" fill="#141414" stroke-width="0" xlink:href="#b"/></g></g><g id="ar" class="Rhea_24021" color="#000" ><g color="#000" fill="transparent"  filter="url(#a)" stroke="#000" stroke-dasharray="56.49260811059836, 5.8"><path class="EdgeBody" d="m519.73 554.65 34.44 51.906"   marker-end="url(#d)" /></g></g><g id="as" class="Rhea_10933" color="#000" ><g color="#000" fill="transparent"  filter="url(#a)" stroke="#000" stroke-dasharray="76.5340005590796, 5.8"><path class="EdgeBody" d="m584.95 400.81-52.178 63.689"   marker-end="url(#d)" /></g></g><g id="at" class="Interaction" color="#000" ><g color="#000" fill="transparent"  filter="url(#a)" stroke="#000" stroke-dasharray="21.671100110047327, 11"><path class="EdgeBody" d="m500.4 460.03 32.364 4.471"   marker-end="url(#e)" /></g></g><g id="au" class="Interaction" color="#000" ><g color="#000" fill="transparent"  filter="url(#a)" stroke="#000" stroke-dasharray="44.96859689914015, 11"><path class="EdgeBody" d="m134.97 253.21-55.866-3.3937"   marker-end="url(#e)" /></g></g><g id="av" class="Interaction" color="#000" ><g color="#000" fill="transparent"  filter="url(#a)" stroke="#000" stroke-dasharray="39.51796821152089, 11"><path class="EdgeBody" d="m388.55 410.9-13.631-48.644"   marker-end="url(#e)" /></g></g><g class="Uniprot-TrEMBL_P05089 Protein ARG1 " transform="translate(349.48 521.81)" color="#000"  name="ARG1"><rect class="Icon" transform="matrix(.97561 0 0 .95783 .4878 .47891)" width="40" height="22.713" fill="#fff" stroke="#000"/><text class="Text" transform="translate(20 15.356)"   font-size="12px"  text-anchor="middle"><tspan x="0" y="0">ARG1</tspan></text></g><g class="Uniprot-TrEMBL_P00966 Protein ASS1 " transform="translate(460.4 448.68)" color="#000"  name="ASS1"><rect class="Icon" transform="matrix(.97561 0 0 .95783 .4878 .47891)" width="40" height="22.713" fill="#fff" stroke="#000"/><text class="Text" transform="translate(20 15.356)"   font-size="12px"  text-anchor="middle"><tspan x="0" y="0">ASS1</tspan></text></g><g class="Uniprot-TrEMBL_P04424 Protein ASL " transform="translate(447.63 530.59)" color="#000"  name="ASL"><rect class="Icon" transform="matrix(.97561 0 0 .95924 .4878 .47962)" width="40" height="23.536" fill="#fff" stroke="#000"/><text class="Text" transform="translate(20 15.768)"   font-size="12px"  text-anchor="middle"><tspan x="0" y="0">ASL</tspan></text></g><g class="Uniprot-TrEMBL_Q8N159 Protein NAGS " transform="translate(134.97 241.03)" color="#000"  name="NAGS"><rect class="Icon" transform="matrix(.98096 0 0 .96057 .49048 .48028)" width="51.508" height="24.358" fill="#fff" stroke="#000"/><text class="Text" transform="translate(25.754 16.179)"   font-size="12px"  text-anchor="middle"><tspan x="0" y="0">NAGS</tspan></text></g><a class="ChEBI_CHEBI_29806 Metabolite  " transform="translate(509.17 606.56)" color="#00f"  name="Fumarate"  ><rect class="Icon" transform="matrix(.98901 0 0 .96154 .49451 .48077)" width="90" height="25" fill="#fff" stroke="#00f"/><text class="Text" transform="translate(45,16.5)" fill="#00f"  font-size="12px"  text-anchor="middle"><tspan x="0" y="0">Fumarate</tspan></text></a><a class="ChEBI_CHEBI_44337 Metabolite  " transform="translate(29.105 267.88)" color="#00f"  name="N-acetylglutamate"  ><rect class="Icon" transform="matrix(.9901 0 0 .96154 .49505 .48077)" width="100" height="25" fill="#fff" stroke="#00f"/><text class="Text" transform="translate(50,16.5)" fill="#00f"  font-size="12px"  text-anchor="middle"><tspan x="0" y="0">N-acetylglutamate</tspan></text></a><g class="Uniprot-TrEMBL_P00480 Protein OTC " transform="translate(368.55 389.01)" color="#000"  name="OTC"><rect class="Icon" transform="matrix(.97561 0 0 .95631 .4878 .47816)" width="40" height="21.89" fill="#fff" stroke="#000"/><text class="Text" transform="translate(20 14.945)"   font-size="12px"  text-anchor="middle"><tspan x="0" y="0">OTC</tspan></text></g><a class="ChEBI_CHEBI_29991 Metabolite  " transform="translate(562.45 375.81)" color="#00f"  name="Aspartate"  ><rect class="Icon" transform="matrix(.98901 0 0 .96154 .49451 .48077)" width="90" height="25" fill="#fff" stroke="#00f"/><text class="Text" transform="translate(45,16.5)" fill="#00f"  font-size="12px"  text-anchor="middle"><tspan x="0" y="0">Aspartate</tspan></text></a><a class="ChEBI_CHEBI_57731 Metabolite ChEBI_CHEBI_16320   " transform="translate(430.33 149.59)" color="#00f"  name="(S)-Beta-aminoisobutyrate"  ><rect class="Icon" transform="matrix(.9935 0 0 .96154 .49675 .48077)" width="152.87" height="25" fill="#fff" stroke="#00f"/><text class="Text" transform="translate(76.434 16.5)" fill="#00f"  font-size="12px"  text-anchor="middle"><tspan x="0" y="0">(S)-Beta-aminoisobutyrate</tspan></text></a><a class="ChEBI_CHEBI_57966 Metabolite ChEBI_CHEBI_16958   " transform="translate(461.76 212.04)" color="#00f"  name="Beta-alanine"  ><rect class="Icon" transform="matrix(.98901 0 0 .96154 .49451 .48077)" width="90" height="25" fill="#fff" stroke="#00f"/><text class="Text" transform="translate(45,16.5)" fill="#00f"  font-size="12px"  text-anchor="middle"><tspan x="0" y="0">Beta-alanine</tspan></text></a><text class="Text" transform="translate(5,27)" dominant-baseline="central" fill="black"  font-size="12px" font-weight="bold" overflow="visible" ><tspan x="0" y="-9">Name: Biomarkers for urea cycle disorders</tspan> <tspan x="0" y="9">Organism: Homo sapiens</tspan></text></g></svg>
