<?xml version="1.0" encoding="UTF-8"?>
<!--
  WikiPathways page: https://www.wikipathways.org/index.php/Pathway:WP4705
  URL for this compressed file: https://github.com/eweitz/cachome/tree/main/data/wikipathways/WP4705.svg
  Source code for compression: https://github.com/eweitz/cachome/tree/main/src/wikipathways.py
-->
<svg class="Diagram" width="800" height="600" color="black" baseProfile="full" prefix="schema:http://schema.org/" preserveAspectRatio="xMidYMid" version="1.1" viewBox="0 0 1294.3 826.52" vocab="http://vocabularies.wikipathways.org/wp#" xmlns="http://www.w3.org/2000/svg" xmlns:xlink="http://www.w3.org/1999/xlink"><style>svg {font-family: 'Liberation Sans', Arial, sans-serif; }</style><defs><filter id="a" x="0" y="0" width="1294.3" height="826.52" filterUnits="userSpaceOnUse"><feColorMatrix in="SourceGraphic" values="-1   0   0 0 0                   0  -1   0 0 0                   0   0  -1 0 0                   0   0   0 1 0"/></filter><marker id="i" stroke-dasharray="99999" markerHeight="12" markerUnits="userSpaceOnUse" markerWidth="12" orient="auto" preserveAspectRatio="none" refX="12" refY="6" viewBox="0 0 12 12"><path transform="rotate(180 6 6)" d="M12 11L0 6l12-5z" fill="currentColor" stroke-width="0"/></marker><marker id="f" stroke-dasharray="99999" markerHeight="12" markerUnits="userSpaceOnUse" markerWidth="12" orient="auto" preserveAspectRatio="none" refX="12" refY="6" viewBox="0 0 12 12"><path transform="rotate(180 6 6)" d="M12 12L0 6l12-6-7 6z" fill="currentColor" stroke-width="0"/></marker><marker id="h" stroke-dasharray="99999" markerHeight="12" markerUnits="userSpaceOnUse" markerWidth="12" orient="auto" preserveAspectRatio="none" refX="12" refY="6" viewBox="0 0 12 12"><circle transform="rotate(180 6 6)" cx="6" cy="6" r="5.3" fill="none" stroke="#000"/></marker><marker id="g" stroke-dasharray="99999" markerHeight="12" markerUnits="userSpaceOnUse" markerWidth="12" orient="auto" preserveAspectRatio="none" refX="12" refY="6" viewBox="0 0 12 12"><path transform="rotate(180 6 6)" d="M12 11L0 6l12-5z" fill="currentColor" stroke-width="0"/></marker><marker id="k" stroke-dasharray="99999" markerHeight="20" markerUnits="userSpaceOnUse" markerWidth="10" orient="auto" preserveAspectRatio="none" refX="10" refY="10" viewBox="0 0 10 20"><path d="m3 0v20" fill="currentColor" stroke="currentColor"/></marker><marker id="j" stroke-dasharray="99999" markerHeight="12" markerUnits="userSpaceOnUse" markerWidth="12" orient="auto" preserveAspectRatio="none" refX="12" refY="6" viewBox="0 0 12 12"><path transform="rotate(180 6 6)" d="M0 6l11 5V1z" fill="currentColor" stroke-width="0"/></marker><marker id="c" stroke-dasharray="99999" markerHeight="12" markerUnits="userSpaceOnUse" markerWidth="12" orient="auto" preserveAspectRatio="none" refX="12" refY="6" viewBox="0 0 12 12"><g transform="rotate(180 6 6)" fill="none"><path d="m12 6"/><path d="M0 6l11 5V1z" stroke="#000"/></g></marker><marker id="e" stroke-dasharray="99999" markerHeight="24" markerUnits="userSpaceOnUse" markerWidth="20" orient="auto" preserveAspectRatio="none" refX="20" refY="12" viewBox="0 0 20 24"><g transform="rotate(180 10 12)" fill="none" stroke="#000"><path d="M15 12V5M15.5 5H8M0 5l8-4v8z"/></g></marker><symbol id="d" overflow="visible" preserveAspectRatio="none" viewBox="0 0 50 50"><ellipse cx="25" cy="25" rx="25" ry="25" stroke="currentColor" vector-effect="non-scaling-stroke"/></symbol><symbol id="m" overflow="visible" preserveAspectRatio="none" viewBox="0 0 100 100"><path d="M0 25L25 0h50l25 25v50l-25 25H25L0 75z" stroke="currentColor" vector-effect="non-scaling-stroke"/></symbol><symbol id="l" overflow="visible" preserveAspectRatio="none" viewBox="0 0 50 50"><path d="M14.5 3.3v43.4L61 25z" stroke="currentColor" vector-effect="non-scaling-stroke"/></symbol><symbol id="b" preserveAspectRatio="none" viewBox="0 0 100 100"/></defs><g class="Viewport" color="black"  name="Name: Pathways of nucleic acid metabolism and innate immune sensing Organism: Homo sapiens"><rect class="Icon" width="1294.3" height="826.52" fill="#fff" stroke="#000" stroke-width="0"/><g class="SingleFreeNode Shape PhysicalEntity CellularComponent Cell" transform="translate(61.786 68.405)" color="#c0c0c0" ><rect class="Icon" transform="matrix(.99751 0 0 .9959 1.4963 1.4938)" width="1202.5" height="728.11" rx="15" ry="15" fill="#ccc" stroke="#c0c0c0" stroke-width="3"/></g><g class="SingleFreeNode Shape PhysicalEntity CellularComponent Organelle" transform="translate(79.361 665.96)" color="#006666" ><rect class="Icon" transform="matrix(.98657 0 0 .97315 1.4799 1.4597)" width="220.41" height="108.74" rx="15" ry="15" fill="#ebe9e9" stroke="#066" stroke-dasharray="5,3" stroke-width="3"/></g><g class="SingleFreeNode Shape PhysicalEntity CellularComponent Nucleus" transform="translate(77.519 75.736)" color="#006666" ><use class="Icon" transform="matrix(.99746 0 0 .98991 1.4962 1.4849)" width="1178.5714285714284" height="294.3697478991597" fill="#ebe9e9" stroke="#006666" stroke-dasharray="5,3" stroke-width="3" xlink:href="#d"/></g><g id="n" class="Interaction" color="#000" ><g color="#000" fill="transparent"  filter="url(#a)" stroke="#000" stroke-dasharray="16.637071500112825, 7"><path class="EdgeBody" d="m176.98 729.73 23.637-2e-13"   marker-end="url(#k)" /></g></g><g id="o" class="Interaction" color="#000" ><g color="#000" fill="transparent"  filter="url(#a)" stroke="#000" stroke-dasharray="19.781672114869878, 11"><path class="EdgeBody" d="m701.75 463.96v30.782"   marker-end="url(#e)" /></g></g><g id="p" class="Interaction" color="#000" ><g color="#000" fill="transparent"  filter="url(#a)" stroke="#000" stroke-dasharray="59.28854024913639, 11"><path class="EdgeBody" d="m984.9 454.76-70.278-1.2228"   marker-end="url(#h)" /></g></g><g id="q" class="Interaction" color="#000" ><g color="#000" fill="transparent"  filter="url(#a)" stroke="#000" stroke-dasharray="186.17461310121314, 11"><path class="EdgeBody" d="m916.82 547.44h86.69v69.52h-40.965"   marker-end="url(#j)" /></g></g><g id="r" class="Interaction" color="#000" ><g color="#000" fill="transparent"  filter="url(#a)" stroke="#000" stroke-dasharray="50.78806741355828, 11"><path class="EdgeBody" d="m237.37 433.27v6.3814h55.407"   marker-end="url(#e)" /></g></g><g id="s" class="Interaction" color="#000" ><g color="#000" fill="transparent"  filter="url(#a)" stroke="#000" stroke-dasharray="82.79762747220794, 5.8"><path class="EdgeBody" d="m940.04 629.46v43.744h44.854"   marker-end="url(#g)" /></g></g><g id="t" class="Interaction" color="#000" ><g color="#000" fill="transparent"  filter="url(#a)" stroke="#000" stroke-dasharray="45.182909352866446, 11"><path class="EdgeBody" d="m1047.6 228.98-56.183-0.0087729"   marker-end="url(#h)" /></g></g><g id="u" class="Interaction" color="#000" ><g color="#000" fill="transparent"  filter="url(#a)" stroke="#000" stroke-dasharray="40.64397819497995, 11"><path class="EdgeBody" d="m474.78 191.03h26.099v-25.545"   marker-end="url(#c)" /></g></g><g id="v" class="DirectedInteraction" color="#000" ><g color="#000" fill="transparent"  filter="url(#a)" stroke="#000" stroke-dasharray="5.49, 3.29, 5.49, 3.29, 5.49, 3.29, 5.49, 3.29, 5.49, 5.8"><path class="EdgeBody" d="m517.64 727.73-46.405-0.56723"   marker-end="url(#i)" /></g></g><g id="w" class="Interaction" color="#000" ><g color="#000" fill="transparent"  filter="url(#a)" stroke="#000" stroke-dasharray="107.0997565646833, 11"><path class="EdgeBody" d="m802.27 169.03v-72.098h46.002"   marker-end="url(#c)" /></g></g><g id="x" class="Interaction" color="#000" ><g color="#000" fill="transparent"  filter="url(#a)" stroke="#000" stroke-dasharray="66.69663428667099, 11"><path class="EdgeBody" d="m360.27 452.16v11.795h38.648v27.254"   marker-end="url(#c)" /></g></g><g id="y" class="Interaction" color="#000" ><g color="#000" fill="transparent"  filter="url(#a)" stroke="#000" stroke-dasharray="64.47246332488078, 1"><path class="EdgeBody" d="m503.01 380.27v33.647h31.825"   marker-end="url(#f)" /></g></g><g id="z" class="Interaction" color="#000" ><g color="#000" fill="transparent"  filter="url(#a)" stroke="#000" stroke-dasharray="24.27790380600561, 1"><path class="EdgeBody" d="m984.9 426.37h-25.278"   marker-end="url(#f)" /></g></g><g id="aa" class="Interaction" color="#000" ><g color="#000" fill="transparent"  filter="url(#a)" stroke="#000" stroke-dasharray="106.27678129492989, 0"><path class="EdgeBody" d="m579.84 295.14-1e-13 106.28"   /></g></g><g id="ab" class="Interaction" color="#000" ><g color="#000" fill="transparent"  filter="url(#a)" stroke="#000" stroke-dasharray="29.035046081092105, 11"><path class="EdgeBody" d="m579.84 230.1v40.035"   marker-end="url(#e)" /></g></g><g id="ac" class="Interaction" color="#000" ><g color="#000" fill="transparent"  filter="url(#a)" stroke="#000" stroke-dasharray="98.17232922422822, 11"><path class="EdgeBody" d="m848.4 53.265-0.32605 109.17"   marker-end="url(#c)" /></g><g class="Burr Anchor" transform="translate(848.27 96.933)" ><use class="Icon" width="0" height="0" fill="#141414" stroke-width="0" xlink:href="#b"/></g></g><g id="ad" class="Interaction" color="#000" ><g color="#000" fill="transparent"  filter="url(#a)" stroke="#000" stroke-dasharray="84.72744631696713, 11"><path class="EdgeBody" d="m216.3 251.53-1.4333 95.717"   marker-end="url(#e)" /></g></g><g id="ae" class="Edge GraphicalLine" color="#000" ><g color="#000" fill="transparent"  filter="url(#a)" stroke="#000" stroke-dasharray="10.163580346615772, 0"><path class="EdgeBody" d="m840.34 169.03 7.7334-6.5949"   /></g><g class="Burr Anchor" transform="translate(848.08 162.44)" ><use class="Icon" width="0" height="0" fill="#141414" stroke-width="0" xlink:href="#b"/></g></g><g id="af" class="Interaction" color="#000" ><g color="#000" fill="transparent"  filter="url(#a)" stroke="#000" stroke-dasharray="26.714091149138426, 11"><path class="EdgeBody" d="m701.75 689.18-1e-13 -37.714"   marker-end="url(#e)" /></g></g><g id="ag" class="Rhea_46149" color="#000" ><g color="#000" fill="transparent"  filter="url(#a)" stroke="#000" stroke-dasharray="47.557221609702495, 5.8"><path class="EdgeBody" d="m429.78 206.55v53.357"   marker-end="url(#g)" /></g><g class="Burr Anchor" transform="translate(429.78 229.59)" ><use class="Icon" width="0" height="0" fill="#141414" stroke-width="0" xlink:href="#b"/></g></g><g id="ah" class="Interaction" color="#000" ><g color="#000" fill="transparent"  filter="url(#a)" stroke="#000" stroke-dasharray="85.21755614028751, 11"><path class="EdgeBody" d="m466.42 572.94 96.217-0.10445"   marker-end="url(#c)" /></g></g><g id="ai" class="Interaction" color="#000" ><g color="#000" fill="transparent"  filter="url(#a)" stroke="#000" stroke-dasharray="24.27790380600561, 1"><path class="EdgeBody" d="m984.9 483.53h-25.278"   marker-end="url(#f)" /></g></g><g id="aj" class="Interaction" color="#000" ><g color="#000" fill="transparent"  filter="url(#a)" stroke="#000" stroke-dasharray="38.46172140107558, 11"><path class="EdgeBody" d="m562.64 632.77v49.462"   marker-end="url(#c)" /></g></g><g id="ak" class="Interaction" color="#000" ><g color="#000" fill="transparent"  filter="url(#a)" stroke="#000" stroke-dasharray="18.27790380600561, 7"><path class="EdgeBody" d="m984.9 392.73-25.278 1e-13"   marker-end="url(#k)" /></g></g><g id="al" class="Interaction" color="#000" ><g color="#000" fill="transparent"  filter="url(#a)" stroke="#000" stroke-dasharray="39.71928880159389, 11"><path class="EdgeBody" d="m379.07 228.89 50.714 0.69906"   marker-end="url(#h)" /></g></g><g id="am" class="Interaction" color="#000" ><g color="#000" fill="transparent"  filter="url(#a)" stroke="#000" stroke-dasharray="33.23616266600675, 11"><path class="EdgeBody" d="m421.42 516.2 1e-13 44.236"   marker-end="url(#c)" /></g></g><g id="an" class="Interaction" color="#000" ><g color="#000" fill="transparent"  filter="url(#a)" stroke="#000" stroke-dasharray="47.22325915291037, 11"><path class="EdgeBody" d="m562.64 549.55v58.223"   marker-end="url(#j)" /></g><g class="Burr Anchor" transform="translate(562.64 572.84)" ><use class="Icon" width="0" height="0" fill="#141414" stroke-width="0" xlink:href="#b"/></g></g><g id="ao" class="Rhea_10121" color="#000" ><g color="#000" fill="transparent"  filter="url(#a)" stroke="#000" stroke-dasharray="26.355768208398285, 5.8"><path class="EdgeBody" d="m914.62 438.87v32.156"   marker-end="url(#g)" /></g><g class="Burr Anchor" transform="translate(914.62 453.54)" ><use class="Icon" width="0" height="0" fill="#141414" stroke-width="0" xlink:href="#b"/></g></g><g id="ap" class="Interaction" color="#000" ><g color="#000" fill="transparent"  filter="url(#a)" stroke="#000" stroke-dasharray="56.196467949442024, 11"><path class="EdgeBody" d="m318.87 557.04v9.6464h57.55"   marker-end="url(#e)" /></g></g><g id="aq" class="Interaction" color="#000" ><g color="#000" fill="transparent"  filter="url(#a)" stroke="#000" stroke-dasharray="83.11454681250822, 11"><path class="EdgeBody" d="m656.75 572.94-94.114-0.10445"   marker-end="url(#c)" /></g></g><g id="ar" class="Interaction" color="#000" ><g color="#000" fill="transparent"  filter="url(#a)" stroke="#000" stroke-dasharray="89.50166947972934, 1"><path class="EdgeBody" d="m824.58 651.65v-12.68h-77.822"   marker-end="url(#f)" /></g></g><g id="as" class="DirectedInteraction" color="#000" ><g color="#000" fill="transparent"  filter="url(#a)" stroke="#000" stroke-dasharray="73.07436811269669, 5.8"><path class="EdgeBody" d="m474.78 198.79h20v18.817h40.057"   marker-end="url(#i)" /></g></g><g id="at" class="Interaction" color="#000" ><g color="#000" fill="transparent"  filter="url(#a)" stroke="#000" stroke-dasharray="30.026714750058886, 11"><path class="EdgeBody" d="m701.75 626.47v-41.027"   marker-end="url(#c)" /></g></g><g id="au" class="Interaction" color="#000" ><g color="#000" fill="transparent"  filter="url(#a)" stroke="#000" stroke-dasharray="152.7575931114166, 11"><path class="EdgeBody" d="m869.62 392.73-122.87 108.26"   marker-end="url(#c)" /></g></g><g class="Label" transform="translate(435.66 387.5)" color="#404040"  name="Degradation"><use class="Icon" width="90" height="25" fill="transparent"  stroke="#404040" stroke-width="0" xlink:href="#b"/><text class="Text" transform="translate(45,16.5)" fill="#404040"  font-size="12px"  text-anchor="middle"><tspan x="0" y="0">Degradation</tspan></text></g><g class="Label" transform="translate(227.06 132.46)" color="#999"  name="Nucleus"><use class="Icon" width="90" height="25" fill="transparent"  stroke="#999" stroke-width="0" xlink:href="#b"/><text class="Text" transform="translate(45,18.5)" fill="#999"  font-size="20px" stroke="black" stroke-width="0" text-anchor="middle"><tspan x="0" y="0">Nucleus</tspan></text></g><g class="Label" transform="translate(803.4 28.265)" color="#ff9966"  name="UV light"><use class="Icon" width="90" height="25" fill="transparent"  stroke="#ff9966" stroke-width="0" xlink:href="#b"/><text class="Text" transform="translate(45,18.5)" fill="#ff9966"  font-size="20px" stroke="black" stroke-width="0" text-anchor="middle"><tspan x="0" y="0">UV light</tspan></text></g><g class="Pathway" transform="translate(190.77 607.88)" color="#14961e"  name="DNA sensing pathway led by cGAS"><rect class="Icon" transform="matrix(.99642 0 0 .96154 .49821 .48077)" width="278.25" height="25" fill="#fff" stroke="#14961e"/><text class="Text" transform="translate(139.13 16.5)" fill="#14961e"  font-size="12px" font-weight="bold" stroke="black" stroke-width="0" text-anchor="middle"><tspan x="0" y="0">DNA sensing pathway led by cGAS</tspan></text></g><g class="Label" transform="translate(122.91 677.19)" color="#999"  name="Lysosome"><use class="Icon" width="130.64814814814804" height="25" fill="transparent"  stroke="#999" stroke-width="0" xlink:href="#b"/><text class="Text" transform="translate(65.324 18.5)" fill="#999"  font-size="20px" stroke="black" stroke-width="0" text-anchor="middle"><tspan x="0" y="0">Lysosome</tspan></text></g><g class="Label" transform="translate(477.64 748.64)" color="#404040"  name="Type I IFN activiation"><use class="Icon" width="170.0000000000001" height="25" fill="transparent"  stroke="#404040" stroke-width="0" xlink:href="#b"/><text class="Text" transform="translate(85 16.5)" fill="#404040"  font-size="12px"  text-anchor="middle"><tspan x="0" y="0">Type I IFN activiation</tspan></text></g><a class="WikiPathways_WP466 Pathway " transform="translate(455.88 131.31)" color="#14961e"  name="DNA replication"  ><rect class="Icon" transform="matrix(.98901 0 0 .97156 .49451 .48578)" width="90" height="34.166" fill="#fff" stroke="#14961e"/><text class="Text" transform="translate(45 21.083)" fill="#14961e"  font-size="12px" font-weight="bold" stroke="black" stroke-width="0" text-anchor="middle"><tspan x="0" y="-6.6000000000000005">DNA</tspan> <tspan x="0" y="6.6000000000000005">replication</tspan></text></a><g class="Label" transform="translate(608.82 162.35)" color="#404040"  name="DNA damage"><use class="Icon" width="90" height="25" fill="transparent"  stroke="#404040" stroke-width="0" xlink:href="#b"/><text class="Text" transform="translate(45,16.5)" fill="#404040"  font-size="12px"  text-anchor="middle"><tspan x="0" y="0">DNA damage</tspan></text></g><g class="Label" transform="translate(984.9 660.7)" color="#404040"  name="RNA  degradation"><use class="Icon" width="90" height="25" fill="transparent"  stroke="#404040" stroke-width="0" xlink:href="#b"/><text class="Text" transform="translate(45,16.5)" fill="#404040"  font-size="12px"  text-anchor="middle"><tspan x="0" y="-6.6000000000000005">RNA </tspan> <tspan x="0" y="6.6000000000000005">degradation</tspan></text></g><g class="WikiPathways_WP1980 Pathway" transform="translate(698.21 206.22)" color="#14961e"  name="Nucleotide excision  repair"><rect class="Icon" transform="matrix(.98901 0 0 .98266 .49451 .49133)" width="90" height="56.657" fill="#fff" stroke="#14961e"/><text class="Text" transform="translate(45 32.328)" fill="#14961e"  font-size="12px" font-weight="bold" stroke="black" stroke-width="0" text-anchor="middle"><tspan x="0" y="-13.200000000000001">Nucleotide</tspan> <tspan x="0" y="0">excision </tspan> <tspan x="0" y="13.200000000000001">repair</tspan></text></g><g class="Label" transform="translate(697.79 314.69)" color="#404040"  name="Byproducts of DNA repair"><use class="Icon" width="207.6764886433397" height="25" fill="transparent"  stroke="#404040" stroke-width="0" xlink:href="#b"/><text class="Text" transform="translate(103.84 16.5)" fill="#404040"  font-size="12px"  text-anchor="middle"><tspan x="0" y="0">Byproducts of DNA repair</tspan></text></g><g class="Label" transform="translate(886.02 217.51)" color="#404040"  name="Ribonucleotide excision repair"><use class="Icon" width="95.87719298245594" height="28.87426900584795" fill="transparent"  stroke="#404040" stroke-width="0" xlink:href="#b"/><text class="Text" transform="translate(47.939 18.437)" fill="#404040"  font-size="12px"  text-anchor="middle"><tspan x="0" y="-6.6000000000000005">Ribonucleotide</tspan> <tspan x="0" y="6.6000000000000005">excision repair</tspan></text></g><a class="Rna ChEBI_CHEBI_67208  " transform="translate(869.62 380.23)" color="#ff6666"  name="dsRNA"  ><rect class="Icon" transform="matrix(.96774 0 0 .89286 1.4516 1.3393)" width="90" height="25" fill="#fff" stroke="#f66" stroke-dasharray="5,3" stroke-width="3"/><text class="Text" transform="translate(45,16.5)" fill="#ff6666"  font-size="12px" stroke="black" stroke-width="0" text-anchor="middle"><tspan x="0" y="0">dsRNA</tspan></text></a><a  class="Uniprot-TrEMBL_O00584 Protein RNASET2 " transform="translate(86.983 717.23)"   name="RNase T2"  ><rect class="Icon" transform="matrix(.98901 0 0 .96154 .49451 .48077)" width="90" height="25" fill="#fff" stroke="#000"/><text class="Text" transform="translate(45,16.5)"   font-size="12px"  text-anchor="middle"><tspan x="0" y="0">RNase T2</tspan></text></a><a  class="Uniprot-TrEMBL_Q9Y3Z3 Protein SAMHD1 " transform="translate(289.07 216.39)"   name="SAMHD1"  ><rect class="Icon" transform="matrix(.98901 0 0 .96154 .49451 .48077)" width="90" height="25" fill="#fff" stroke="#000"/><text class="Text" transform="translate(45,16.5)"   font-size="12px"  text-anchor="middle"><tspan x="0" y="0">SAMHD1</tspan></text></a><a  class="GeneProduct IFIH1 " transform="translate(656.75 438.96)"   name="IFIH1"  ><rect class="Icon" transform="matrix(.98901 0 0 .96154 .49451 .48077)" width="90" height="25" fill="#fff" stroke="#000"/><text class="Text" transform="translate(45,16.5)"   font-size="12px"  text-anchor="middle"><tspan x="0" y="0">IFIH1</tspan></text></a><a  class="GeneProduct DDX58 " transform="translate(656.75 689.18)"   name="DDX58"  ><rect class="Icon" transform="matrix(.98901 0 0 .96154 .49451 .48077)" width="90" height="25" fill="#fff" stroke="#000"/><text class="Text" transform="translate(45,16.5)"   font-size="12px"  text-anchor="middle"><tspan x="0" y="0">DDX58</tspan></text></a><g class="GroupGroup" transform="translate(509.64 682.23)" color="grey" ><use class="Icon" width="106" height="65.99999999999989" fill="transparent"  stroke="grey" stroke-dasharray="5,3" stroke-width="0" xlink:href="#b"/><a class="GeneProduct IFNB1 " transform="translate(8,8)" color="#009933"  name="IFNB"  ><rect class="Icon" transform="matrix(.96774 0 0 .89286 1.4516 1.3393)" width="90" height="25" fill="#fff" stroke="#093" stroke-width="3"/><text class="Text" transform="translate(45,16.5)" fill="#009933"  font-size="12px" stroke="black" stroke-width="0" text-anchor="middle"><tspan x="0" y="0">IFNB</tspan></text></a><a class="InterPro_IPR000471 Protein " transform="translate(8 33)" color="#009933"  name="ISGs"  ><rect class="Icon" transform="matrix(.96774 0 0 .89286 1.4516 1.3393)" width="90" height="25" fill="#fff" stroke="#093" stroke-width="3"/><text class="Text" transform="translate(45,16.5)" fill="#009933"  font-size="12px" stroke="black" stroke-width="0" text-anchor="middle"><tspan x="0" y="0">ISGs</tspan></text></a></g><a class="ChEBI_CHEBI_61560 Metabolite  " transform="translate(384.78 175.5)" color="#00f"  name="dNTP  pools"  ><rect class="Icon" transform="matrix(.98901 0 0 .96879 .49451 .4844)" width="90" height="31.043" rx="15" ry="15" fill="#fff" stroke="#00f"/><text class="Text" transform="translate(45 19.521)" fill="#00f"  font-size="12px"  text-anchor="middle"><tspan x="0" y="-6.6000000000000005">dNTP </tspan> <tspan x="0" y="6.6000000000000005">pools</tspan></text></a><a class="Uniprot-TrEMBL_Q86WV6 Protein TMEM173 " transform="translate(376.42 560.44)" color="#00c"  name="STING"  ><rect class="Icon" transform="matrix(.96774 0 0 .89286 1.4516 1.3393)" width="90" height="25" fill="#fff" stroke="#00c" stroke-width="3"/><text class="Text" transform="translate(45,16.5)" fill="#00c"  font-size="12px"  text-anchor="middle"><tspan x="0" y="0">STING</tspan></text></a><a class="Rna ChEBI_CHEBI_33699  " transform="translate(192.37 347.24)" color="#ff6666"  name="mRNA"  ><rect class="Icon" transform="matrix(.96774 0 0 .89286 1.4516 1.3393)" width="90" height="25" fill="#fff" stroke="#f66" stroke-width="3"/><text class="Text" transform="translate(45,16.5)" fill="#ff6666"  font-size="12px" stroke="black" stroke-width="0" text-anchor="middle"><tspan x="0" y="0">mRNA</tspan></text></a><a  class="Rna ChEBI_CHEBI_16991 " transform="translate(534.84 205.1)"   name="DNA"  ><rect class="Icon" transform="matrix(.98901 0 0 .96154 .49451 .48077)" width="90" height="25" fill="#fff" stroke="#000"/><text class="Text" transform="translate(45,16.5)"   font-size="12px"  text-anchor="middle"><tspan x="0" y="0">DNA</tspan></text></a><a  class="Rna" transform="translate(171.3 226.53)"   name="Retroelement"  ><rect class="Icon" transform="matrix(.98901 0 0 .96154 .49451 .48077)" width="90" height="25" fill="#fff" stroke="#000"/><text class="Text" transform="translate(45,16.5)"   font-size="12px"  text-anchor="middle"><tspan x="0" y="0">Retroelement</tspan></text></a><a  class="GeneProduct TMEM173 " transform="translate(273.87 532.04)"   name="TMEM173"  ><rect class="Icon" transform="matrix(.98901 0 0 .96154 .49451 .48077)" width="90" height="25" fill="#fff" stroke="#000"/><text class="Text" transform="translate(45,16.5)"   font-size="12px"  text-anchor="middle"><tspan x="0" y="0">TMEM173</tspan></text></a><g class="GroupComplex" transform="translate(1047.6 168.38)" color="grey" ><use class="Icon" transform="matrix(.99412 0 0 .98778 .49706 .49389)" width="169.0175438596491" height="80.80555555555549" fill="#b4b464" fill-opacity=".1" stroke="grey" xlink:href="#m"/><a  class="Uniprot-TrEMBL_O75792 Protein RNASEH2A " transform="translate(84.509 12)"   name="RNase H2 subunit A"  ><rect class="Icon" transform="matrix(.9864 0 0 .96608 .4932 .48304)" width="72.509" height="28.48" fill="#fff" stroke="#000"/><text class="Text" transform="translate(36.254 18.24)"   font-size="12px"  text-anchor="middle"><tspan x="0" y="-6.6000000000000005">RNase H2</tspan> <tspan x="0" y="6.6000000000000005">subunit A</tspan></text></a><a  class="Uniprot-TrEMBL_Q5TBB1 Protein RNASEH2B " transform="translate(12,12)"   name="RNase H2 subunit B"  ><rect class="Icon" transform="matrix(.9864 0 0 .96608 .4932 .48304)" width="72.509" height="28.48" fill="#fff" stroke="#000"/><text class="Text" transform="translate(36.254 18.24)"   font-size="12px"  text-anchor="middle"><tspan x="0" y="-6.6000000000000005">RNase H2</tspan> <tspan x="0" y="6.6000000000000005">subunit B</tspan></text></a><a  class="Uniprot-TrEMBL_Q8TDP1 Protein RNASEH2C " transform="translate(47.673 40.326)"   name="RNase H2 subunit C"  ><rect class="Icon" transform="matrix(.9864 0 0 .96608 .4932 .48304)" width="72.509" height="28.48" fill="#fff" stroke="#000"/><text class="Text" transform="translate(36.254 18.24)"   font-size="12px"  text-anchor="middle"><tspan x="0" y="-6.6000000000000005">RNase H2</tspan> <tspan x="0" y="6.6000000000000005">subunit C</tspan></text></a></g><a  class="Uniprot-TrEMBL_Q9NSU2 Protein TREX1 " transform="translate(435.51 355.27)"   name="TREX1"  ><rect class="Icon" transform="matrix(.98901 0 0 .96154 .49451 .48077)" width="90" height="25" fill="#fff" stroke="#000"/><text class="Text" transform="translate(45,16.5)"   font-size="12px"  text-anchor="middle"><tspan x="0" y="0">TREX1</tspan></text></a><g class="Metabolite " transform="translate(984.9 413.87)" color="#00f"  name="Adenosine"><rect class="Icon" transform="matrix(.98901 0 0 .96154 .49451 .48077)" width="90" height="25" rx="15" ry="15" fill="#fff" stroke="#00f"/><text class="Text" transform="translate(45,16.5)" fill="#00f"  font-size="12px"  text-anchor="middle"><tspan x="0" y="0">Adenosine</tspan></text></g><a  class="Uniprot-TrEMBL_P00973 Protein OAS1 " transform="translate(872.12 556.48)"   name="OAS1"  ><rect class="Icon" transform="matrix(.98901 0 0 .96154 .49451 .48077)" width="90" height="25" fill="#fff" stroke="#000"/><text class="Text" transform="translate(45,16.5)"   font-size="12px"  text-anchor="middle"><tspan x="0" y="0">OAS1</tspan></text></a><a class="Rna ChEBI_CHEBI_4705 " transform="translate(292.77 427.16)" color="#000099"  name="dsDNA"  ><rect class="Icon" transform="matrix(.96774 0 0 .89286 1.4516 1.3393)" width="90" height="25" fill="#fff" stroke="#009" stroke-width="3"/><text class="Text" transform="translate(45,16.5)" fill="#000099"  font-size="12px"  text-anchor="middle"><tspan x="0" y="0">dsDNA</tspan></text></a><a  class="Uniprot-TrEMBL_Q05823 Protein RNASEL " transform="translate(872.54 604.46)"   name="RNase L"  ><rect class="Icon" transform="matrix(.98901 0 0 .96154 .49451 .48077)" width="90" height="25" fill="#fff" stroke="#000"/><text class="Text" transform="translate(45,16.5)"   font-size="12px"  text-anchor="middle"><tspan x="0" y="0">RNase L</tspan></text></a><a  class="Uniprot-TrEMBL_P55265 Protein ADAR " transform="translate(984.9 442.26)"   name="ADAR"  ><rect class="Icon" transform="matrix(.98901 0 0 .96154 .49451 .48077)" width="90" height="25" fill="#fff" stroke="#000"/><text class="Text" transform="translate(45,16.5)"   font-size="12px"  text-anchor="middle"><tspan x="0" y="0">ADAR</tspan></text></a><g class="GroupGroup" transform="translate(320.95 692.74)" color="grey" ><use class="Icon" width="150.28571428571348" height="68.85714285714289" fill="transparent"  stroke="grey" stroke-dasharray="5,3" stroke-width="0" xlink:href="#b"/><a class="WikiPathways_WP585 Pathway " transform="translate(8,8)" color="#14961e"  name="Type I signalling"  ><use class="Icon" width="134.28571428571348" height="25" fill="transparent"  stroke="#14961e" stroke-width="0" xlink:href="#b"/><text class="Text" transform="translate(67.143 16.5)" fill="#14961e"  font-size="12px" font-weight="bold" stroke="black" stroke-width="0" text-anchor="middle"><tspan x="0" y="0">Type I signalling</tspan></text></a><a class="WikiPathways_WP619 Pathway " transform="translate(8 35.857)" color="#14961e"  name="Type II signalling"  ><use class="Icon" width="134.28571428571348" height="25" fill="transparent"  stroke="#14961e" stroke-width="0" xlink:href="#b"/><text class="Text" transform="translate(67.143 16.5)" fill="#14961e"  font-size="12px" font-weight="bold" stroke="black" stroke-width="0" text-anchor="middle"><tspan x="0" y="0">Type II signalling</tspan></text></a></g><a class="Uniprot-TrEMBL_Q8N884 Protein CGAS " transform="translate(376.42 491.2)" color="#00c"  name="cGAS"  ><rect class="Icon" transform="matrix(.96774 0 0 .89286 1.4516 1.3393)" width="90" height="25" fill="#fff" stroke="#00c" stroke-width="3"/><text class="Text" transform="translate(45,16.5)" fill="#00c"  font-size="12px"  text-anchor="middle"><tspan x="0" y="0">cGAS</tspan></text></a><a class="Uniprot-TrEMBL_Q7Z434 Protein MAVS " transform="translate(656.75 560.44)" color="#ff6666"  name="MAVS"  ><use class="Icon" transform="matrix(.96774 0 0 .89286 1.4516 1.3393)" width="90" height="25" fill="#fff" stroke="#ff6666" stroke-width="3" xlink:href="#d"/><text class="Text" transform="translate(45,16.5)" fill="#ff6666"  font-size="12px" stroke="black" stroke-width="0" text-anchor="middle"><tspan x="0" y="0">MAVS</tspan></text></a><a class="Uniprot-TrEMBL_Q14653 Protein IRF3 " transform="translate(517.64 524.55)" color="#009933"  name="IRF3"  ><use class="Icon" transform="matrix(.96774 0 0 .89286 1.4516 1.3393)" width="90" height="25" fill="#fff" stroke="#009933" stroke-width="3" xlink:href="#d"/><text class="Text" transform="translate(45,16.5)" fill="#009933"  font-size="12px" stroke="black" stroke-width="0" text-anchor="middle"><tspan x="0" y="0">IRF3</tspan></text></a><a class="Rna" transform="translate(192.37 408.27)" color="#000099"  name="cDNA"  ><rect class="Icon" transform="matrix(.96774 0 0 .89286 1.4516 1.3393)" width="90" height="25" fill="#fff" stroke="#009" stroke-width="3"/><text class="Text" transform="translate(45,16.5)" fill="#000099"  font-size="12px"  text-anchor="middle"><tspan x="0" y="0">cDNA</tspan></text></a><a class="Uniprot-TrEMBL_Q9BYX4 Protein IFIH1 " transform="translate(656.75 494.74)" color="#ff6666"  name="MDA5"  ><rect class="Icon" transform="matrix(.96774 0 0 .89286 1.4516 1.3393)" width="90" height="25" fill="#fff" stroke="#f66" stroke-width="3"/><text class="Text" transform="translate(45,16.5)" fill="#ff6666"  font-size="12px" stroke="black" stroke-width="0" text-anchor="middle"><tspan x="0" y="0">MDA5</tspan></text></a><a class="Uniprot-TrEMBL_O95786 Protein DDX58 " transform="translate(656.75 626.47)" color="#ff6666"  name="RIG-I"  ><rect class="Icon" transform="matrix(.96774 0 0 .89286 1.4516 1.3393)" width="90" height="25" fill="#fff" stroke="#f66" stroke-width="3"/><text class="Text" transform="translate(45,16.5)" fill="#ff6666"  font-size="12px" stroke="black" stroke-width="0" text-anchor="middle"><tspan x="0" y="0">RIG-I</tspan></text></a><a class="ChEBI_CHEBI_18274 Metabolite  " transform="translate(384.78 259.9)" color="#00f"  name="dN"  ><rect class="Icon" transform="matrix(.98901 0 0 .96154 .49451 .48077)" width="90" height="25" rx="15" ry="15" fill="#fff" stroke="#00f"/><text class="Text" transform="translate(45,16.5)" fill="#00f"  font-size="12px"  text-anchor="middle"><tspan x="0" y="0">dN</tspan></text></a><a class="Rna ChEBI_CHEBI_9160  " transform="translate(534.84 270.14)" color="#000099"  name="ssDNA"  ><rect class="Icon" transform="matrix(.96774 0 0 .89286 1.4516 1.3393)" width="90" height="25" fill="#fff" stroke="#009" stroke-width="3"/><text class="Text" transform="translate(45,16.5)" fill="#000099"  font-size="12px"  text-anchor="middle"><tspan x="0" y="0">ssDNA</tspan></text></a><g id="av" class="Interaction" color="#000" ><g color="#000" fill="transparent"  filter="url(#a)" stroke="#000" stroke-dasharray="25.028806584362258, 11"><path class="EdgeBody" d="m237.37 372.24v36.029"   marker-end="url(#e)" /></g></g><a class="Rna ChEBI_CHEBI_9160  " transform="translate(534.84 401.41)" color="#000099"  name="ssDNA"  ><rect class="Icon" transform="matrix(.96774 0 0 .89286 1.4516 1.3393)" width="90" height="25" fill="#fff" stroke="#009" stroke-width="3"/><text class="Text" transform="translate(45,16.5)" fill="#000099"  font-size="12px"  text-anchor="middle"><tspan x="0" y="0">ssDNA</tspan></text></a><g id="aw" class="Interaction" color="#000" ><g color="#000" fill="transparent"  filter="url(#a)" stroke="#000" stroke-dasharray="208.90193367444618, 1"><path class="EdgeBody" d="m458.01 380.27v34.256h-175.65"   marker-end="url(#f)" /></g></g><g id="ax" class="Interaction" color="#000" ><g color="#000" fill="transparent"  filter="url(#a)" stroke="#000" stroke-dasharray="167.20537947609552, 11"><path class="EdgeBody" d="m557.34 426.41v36.751h-113.42v28.038"   marker-end="url(#c)" /></g></g><a  class="Rna ChEBI_CHEBI_16991 " transform="translate(776.93 176.53)"   name="DNA"  ><rect class="Icon" transform="matrix(.98901 0 0 .96154 .49451 .48077)" width="90" height="25" fill="#fff" stroke="#000"/><g class="Burr State" transform="translate(17.838 -7.5)" color="#000"  name="R"><use class="Icon" transform="matrix(.9375 0 0 .9375 .46875 .46875)" width="15" height="15" fill="#fff" stroke="#000" xlink:href="#d"/><text class="Text" transform="translate(7.5,10.5)"   font-size="10px"  text-anchor="middle"><tspan x="0" y="0">R</tspan></text></g><g class="Burr State" transform="translate(55.911 -7.5)" color="#000"  name="T"><use class="Icon" transform="matrix(.9375 0 0 .9375 .46875 .46875)" width="15" height="15" fill="#fff" stroke="#000" xlink:href="#d"/><text class="Text" transform="translate(7.5,10.5)"   font-size="10px"  text-anchor="middle"><tspan x="0" y="0">T</tspan></text></g><g class="Burr State" transform="translate(70.323 -7.5)" color="#000"  name="T"><use class="Icon" transform="matrix(.9375 0 0 .9375 .46875 .46875)" width="15" height="15" fill="#fff" stroke="#000" xlink:href="#d"/><text class="Text" transform="translate(7.5,10.5)"   font-size="10px"  text-anchor="middle"><tspan x="0" y="0">T</tspan></text></g><text class="Text" transform="translate(45,16.5)"   font-size="12px"  text-anchor="middle"><tspan x="0" y="0">DNA</tspan></text></a><a  class="Rna ChEBI_CHEBI_16991 " transform="translate(946.42 176.53)"   name="DNA"  ><rect class="Icon" transform="matrix(.98901 0 0 .96154 .49451 .48077)" width="90" height="25" fill="#fff" stroke="#000"/><g class="Burr State" transform="translate(16.684 -7.5)" color="#000"  name="R"><use class="Icon" transform="matrix(.9375 0 0 .9375 .46875 .46875)" width="15" height="15" fill="#fff" stroke="#000" xlink:href="#d"/><text class="Text" transform="translate(7.5,10.5)"   font-size="10px"  text-anchor="middle"><tspan x="0" y="0">R</tspan></text></g><text class="Text" transform="translate(45,16.5)"   font-size="12px"  text-anchor="middle"><tspan x="0" y="0">DNA</tspan></text></a><a class="Rna ChEBI_CHEBI_9160  " transform="translate(776.93 270.14)" color="#000099"  name="ssDNA"  ><rect class="Icon" transform="matrix(.96774 0 0 .89286 1.4516 1.3393)" width="90" height="25" fill="#fff" stroke="#009" stroke-width="3"/><text class="Text" transform="translate(45,16.5)" fill="#000099"  font-size="12px"  text-anchor="middle"><tspan x="0" y="0">ssDNA</tspan></text></a><a class="Rna ChEBI_CHEBI_9160  " transform="translate(946.42 270.14)" color="#000099"  name="ssDNA"  ><rect class="Icon" transform="matrix(.96774 0 0 .89286 1.4516 1.3393)" width="90" height="25" fill="#fff" stroke="#009" stroke-width="3"/><text class="Text" transform="translate(45,16.5)" fill="#000099"  font-size="12px"  text-anchor="middle"><tspan x="0" y="0">ssDNA</tspan></text></a><g id="ay" class="Interaction" color="#000" ><g color="#000" fill="transparent"  filter="url(#a)" stroke="#000" stroke-dasharray="57.606474652520575, 11"><path class="EdgeBody" d="m821.93 201.53v68.606"   marker-end="url(#e)" /></g></g><g id="az" class="Interaction" color="#000" ><g color="#000" fill="transparent"  filter="url(#a)" stroke="#000" stroke-dasharray="57.606474652520575, 11"><path class="EdgeBody" d="m991.42 201.53v68.606"   marker-end="url(#e)" /></g><g class="Burr Anchor" transform="translate(991.42 228.97)" ><use class="Icon" width="0" height="0" fill="#141414" stroke-width="0" xlink:href="#b"/></g></g><g id="ba" class="Edge GraphicalLine" color="#000" ><g color="#000" fill="transparent"  filter="url(#a)" stroke="#000" stroke-dasharray="9.78083939575855, 0"><path class="EdgeBody" d="m855.3 169.03-7.223-6.5949"   /></g><g class="Burr Anchor" transform="translate(848.08 162.44)" ><use class="Icon" width="0" height="0" fill="#141414" stroke-width="0" xlink:href="#b"/></g></g><a  class="Uniprot-TrEMBL_Q9Y3Z3 Protein SAMHD1 " transform="translate(984.9 380.23)"   name="SAMHD1"  ><rect class="Icon" transform="matrix(.98901 0 0 .96154 .49451 .48077)" width="90" height="25" fill="#fff" stroke="#000"/><text class="Text" transform="translate(45,16.5)"   font-size="12px"  text-anchor="middle"><tspan x="0" y="0">SAMHD1</tspan></text></a><a class="Rna ChEBI_CHEBI_67208  " transform="translate(869.62 413.87)" color="#ff6666"  name="dsRNA"  ><rect class="Icon" transform="matrix(.96774 0 0 .89286 1.4516 1.3393)" width="90" height="25" fill="#fff" stroke="#f66" stroke-width="3"/><g class="Burr State" transform="translate(7.7525 -5.4798)" color="#000"  name="A"><use class="Icon" transform="matrix(.9375 0 0 .9375 .46875 .46875)" width="15" height="15" fill="#fff" stroke="#000" xlink:href="#d"/><text class="Text" transform="translate(7.5,10.5)"   font-size="10px"  text-anchor="middle"><tspan x="0" y="0">A</tspan></text></g><text class="Text" transform="translate(45,16.5)" fill="#ff6666"  font-size="12px" stroke="black" stroke-width="0" text-anchor="middle"><tspan x="0" y="0">dsRNA</tspan></text></a><a  class="Rna ChEBI_CHEBI_67208  " transform="translate(869.62 471.03)"   name="dsRNA"  ><rect class="Icon" transform="matrix(.98901 0 0 .96154 .49451 .48077)" width="90" height="25" fill="#fff" stroke="#000"/><g class="Burr State" transform="translate(11.793 -6.4899)" color="#000"  name="I"><use class="Icon" transform="matrix(.9375 0 0 .9375 .46875 .46875)" width="15" height="15" fill="#fff" stroke="#000" xlink:href="#d"/><text class="Text" transform="translate(7.5,10.5)"   font-size="10px"  text-anchor="middle"><tspan x="0" y="0">I</tspan></text></g><text class="Text" transform="translate(45,16.5)"   font-size="12px"  text-anchor="middle"><tspan x="0" y="0">dsRNA</tspan></text></a><g id="bb" class="Interaction" color="#000" ><g color="#000" fill="transparent"  filter="url(#a)" stroke="#000" stroke-dasharray="136.09109027832324, 11"><path class="EdgeBody" d="m869.62 426.37-122.87 80.869"   marker-end="url(#c)" /></g></g><a class="Rna ChEBI_CHEBI_67208  " transform="translate(871.37 508.88)" color="#ff6666"  name="dsRNA"  ><rect class="Icon" transform="matrix(.96774 0 0 .89286 1.4516 1.3393)" width="90" height="25" fill="#fff" stroke="#f66" stroke-width="3"/><text class="Text" transform="translate(45,16.5)" fill="#ff6666"  font-size="12px" stroke="black" stroke-width="0" text-anchor="middle"><tspan x="0" y="0">dsRNA</tspan></text></a><g class="Metabolite " transform="translate(984.9 471.03)" color="#00f"  name="Inosine"><rect class="Icon" transform="matrix(.98901 0 0 .96154 .49451 .48077)" width="90" height="25" rx="15" ry="15" fill="#fff" stroke="#00f"/><text class="Text" transform="translate(45,16.5)" fill="#00f"  font-size="12px"  text-anchor="middle"><tspan x="0" y="0">Inosine</tspan></text></g><g id="bc" class="Interaction" color="#000" ><g color="#000" fill="transparent"  filter="url(#a)" stroke="#000" stroke-dasharray="21.617169569558236, 1"><path class="EdgeBody" d="m917.12 556.48-0.74143-22.605"   marker-end="url(#f)" /></g><g class="Burr Anchor" transform="translate(916.82 547.44)" ><use class="Icon" width="0" height="0" fill="#141414" stroke-width="0" xlink:href="#b"/></g></g><a  class="Rna ChEBI_CHEBI_67208  " transform="translate(788.3 651.65)"   name="short dsRNA fragments"  ><rect class="Icon" transform="matrix(.9864 0 0 .97733 .4932 .48867)" width="72.544" height="43.112" fill="#fff" stroke="#000"/><text class="Text" transform="translate(36.272 25.556)"   font-size="12px"  text-anchor="middle"><tspan x="0" y="-13.200000000000001">short</tspan> <tspan x="0" y="0">dsRNA</tspan> <tspan x="0" y="13.200000000000001">fragments</tspan></text></a><g id="bd" class="DirectedInteraction" color="#000" ><g color="#000" fill="transparent"  filter="url(#a)" stroke="#000" stroke-dasharray="72.1395263413137, 5.8"><path class="EdgeBody" d="m895.04 629.46v43.744h-34.196"   marker-end="url(#i)" /></g></g><g id="be" class="Interaction" color="#000" ><g color="#000" fill="transparent"  filter="url(#a)" stroke="#000" stroke-dasharray="29.696205950746958, 11"><path class="EdgeBody" d="m701.75 519.74v40.696"   marker-end="url(#c)" /></g></g><g class="Pathway" transform="translate(659.07 748.64)" color="#14961e"  name="RNA sensing pathways led by MDA5 and RIG-I"><rect class="Icon" transform="matrix(.99791 0 0 .96154 .49895 .48077)" width="477.24" height="25" fill="#fff" stroke="#14961e"/><text class="Text" transform="translate(238.62 16.5)" fill="#14961e"  font-size="12px" font-weight="bold" stroke="black" stroke-width="0" text-anchor="middle"><tspan x="0" y="0">RNA sensing pathways led by MDA5 and RIG-I</tspan></text></g><a class="Uniprot-TrEMBL_Q14653 Protein IRF3 " transform="translate(517.64 607.77)" color="#009933"  name="IRF3"  ><use class="Icon" transform="matrix(.96774 0 0 .89286 1.4516 1.3393)" width="90" height="25" fill="#fff" stroke="#009933" stroke-width="3" xlink:href="#d"/><g class="Burr State" transform="translate(82.5,17.5)" color="#000"  name="P"><use class="Icon" transform="matrix(.9375 0 0 .9375 .46875 .46875)" width="15" height="15" fill="#fff" stroke="#000" xlink:href="#d"/><text class="Text" transform="translate(7.5,10.5)"   font-size="10px"  text-anchor="middle"><tspan x="0" y="0">P</tspan></text></g><text class="Text" transform="translate(45,16.5)" fill="#009933"  font-size="12px" stroke="black" stroke-width="0" text-anchor="middle"><tspan x="0" y="0">IRF3</tspan></text></a><g class="SingleFreeNode Shape" transform="translate(595.96 179.67) rotate(133.55 16.75 12.75)" color="#000" ><use class="Icon" transform="matrix(.97101 0 0 .96226 .48551 .48113)" width="33.5" height="25.5" fill="#ffcc66" stroke="#000" xlink:href="#l"/></g><a class="Rna ChEBI_CHEBI_18111 " transform="translate(200.62 717.23)" color="#ff6666"  name="rRNA"  ><rect class="Icon" transform="matrix(.96774 0 0 .89286 1.4516 1.3393)" width="90" height="25" fill="#fff" stroke="#f66" stroke-dasharray="5,3" stroke-width="3"/><text class="Text" transform="translate(45,16.5)" fill="#ff6666"  font-size="12px" stroke="black" stroke-width="0" text-anchor="middle"><tspan x="0" y="0">rRNA</tspan></text></a><text class="Text" transform="translate(5,27)" dominant-baseline="central" fill="black"  font-size="12px" font-weight="bold" overflow="visible" ><tspan x="0" y="-9">Name: Pathways of nucleic acid metabolism and innate immune sensing</tspan> <tspan x="0" y="9">Organism: Homo sapiens</tspan></text></g></svg>
