<?xml version="1.0" encoding="UTF-8"?>
<!--
  WikiPathways page: https://www.wikipathways.org/index.php/Pathway:WP4756
  URL for this compressed file: https://github.com/eweitz/cachome/tree/main/data/wikipathways/WP4756.svg
  Source code for compression: https://github.com/eweitz/cachome/tree/main/src/wikipathways.py
-->
<svg class="Diagram" width="800" height="600" color="black" baseProfile="full" prefix="schema:http://schema.org/" preserveAspectRatio="xMidYMid" version="1.1" viewBox="0 0 990.39 1498.5" vocab="http://vocabularies.wikipathways.org/wp#" xmlns="http://www.w3.org/2000/svg" xmlns:xlink="http://www.w3.org/1999/xlink"><style>svg {font-family: 'Liberation Sans', Arial, sans-serif; }</style><defs><filter id="a" x="0" y="0" width="990.39" height="1498.5" filterUnits="userSpaceOnUse"><feColorMatrix in="SourceGraphic" values="-1   0   0 0 0                   0  -1   0 0 0                   0   0  -1 0 0                   0   0   0 1 0"/></filter><filter id="h" x="0" y="0" width="990.39" height="1498.5" filterUnits="userSpaceOnUse"><feColorMatrix in="SourceGraphic" values="-1   0   0 0 1                   0  -1   0 0 0                   0   0  -1 0 0                   0   0   0 1 0"/></filter><marker id="i" stroke-dasharray="99999" markerHeight="12" markerUnits="userSpaceOnUse" markerWidth="12" orient="auto" preserveAspectRatio="none" refX="12" refY="6" viewBox="0 0 12 12"><path transform="rotate(180 6 6)" d="M12 11L0 6l12-5z" fill="currentColor" stroke-width="0"/></marker><marker id="g" stroke-dasharray="99999" markerHeight="12" markerUnits="userSpaceOnUse" markerWidth="12" orient="auto" preserveAspectRatio="none" refX="12" refY="6" viewBox="0 0 12 12"><path transform="rotate(180 6 6)" d="M12 12L0 6l12-6-7 6z" fill="currentColor" stroke-width="0"/></marker><marker id="e" stroke-dasharray="99999" markerHeight="12" markerUnits="userSpaceOnUse" markerWidth="12" orient="auto" preserveAspectRatio="none" refX="12" refY="6" viewBox="0 0 12 12"><circle transform="rotate(180 6 6)" cx="6" cy="6" r="5.3" fill="none" stroke="#000"/></marker><marker id="d" stroke-dasharray="99999" markerHeight="12" markerUnits="userSpaceOnUse" markerWidth="12" orient="auto" preserveAspectRatio="none" refX="12" refY="6" viewBox="0 0 12 12"><path transform="rotate(180 6 6)" d="M12 11L0 6l12-5z" fill="currentColor" stroke-width="0"/></marker><marker id="f" stroke-dasharray="99999" markerHeight="20" markerUnits="userSpaceOnUse" markerWidth="10" orient="auto" preserveAspectRatio="none" refX="10" refY="10" viewBox="0 0 10 20"><path d="m3 0v20" fill="currentColor" stroke="currentColor"/></marker><marker id="c" stroke-dasharray="99999" markerHeight="12" markerUnits="userSpaceOnUse" markerWidth="12" orient="auto" preserveAspectRatio="none" refX="12" refY="6" viewBox="0 0 12 12"><g transform="rotate(180 6 6)" fill="none"><path d="m12 6"/><path d="M0 6l11 5V1z" stroke="#000"/></g></marker><symbol id="b" preserveAspectRatio="none" viewBox="0 0 100 100"/></defs><g class="Viewport" color="black"  name="Name: Renin-angiotensin-aldosterone system (RAAS) Organism: Homo sapiens"><rect class="Icon" width="990.39" height="1498.5" fill="#fff" stroke="#000" stroke-width="0"/><g id="j" class="Interaction" color="#000" ><g color="#000" fill="transparent"  filter="url(#a)" stroke="#000" stroke-dasharray="99.20476179678609, 5.8"><path class="EdgeBody" d="m454.48 301.91 1 105"   marker-end="url(#d)" /></g><g class="Burr Anchor" transform="translate(455.08 364.91)" ><use class="Icon" width="0" height="0" fill="#141414" stroke-width="0" xlink:href="#b"/></g></g><g id="k" class="Interaction" color="#000" ><g color="#000" fill="transparent"  filter="url(#a)" stroke="#000" stroke-dasharray="24.884423073753446, 11"><path class="EdgeBody" d="m423.48 347.91 31.6 17.004"   marker-end="url(#e)" /></g></g><g id="l" class="DirectedInteraction" color="#000" ><g color="#000" fill="transparent"  filter="url(#a)" stroke="#000" stroke-dasharray="87.2023894555636, 5.8"><path class="EdgeBody" d="m475.14 188.91-0.66667 93"   marker-end="url(#i)" /></g><g class="Burr Anchor" transform="translate(474.99 210.91)" ><use class="Icon" width="0" height="0" fill="#141414" stroke-width="0" xlink:href="#b"/></g></g><g id="m" class="Interaction" color="#f00" ><g color="#f00" fill="transparent"  filter="url(#h)" stroke="#000" stroke-dasharray="92.74106516518673, 7"><path class="EdgeBody" d="m559.98 234.84 0.5 99.74"   marker-end="url(#f)" /></g></g><g id="n" class="Interaction" color="#000" ><g color="#000" fill="transparent"  filter="url(#a)" stroke="#000" stroke-dasharray="99.20476179678609, 5.8"><path class="EdgeBody" d="m494.48 301.91 1 105"   marker-end="url(#d)" /></g><g class="Burr Anchor" transform="translate(494.88 343.91)" ><use class="Icon" width="0" height="0" fill="#141414" stroke-width="0" xlink:href="#b"/></g></g><g id="o" class="Interaction" color="#000" ><g color="#000" fill="transparent"  filter="url(#a)" stroke="#000" stroke-dasharray="24.606241650087775, 11"><path class="EdgeBody" d="m530.48 344.58-35.6-0.66667"   marker-end="url(#e)" /></g></g><g id="p" class="Interaction" color="#000" ><g color="#000" fill="transparent"  filter="url(#a)" stroke="#000" stroke-dasharray="30.10788477257399, 11"><path class="EdgeBody" d="m433.89 209.86 41.094 1.0541"   marker-end="url(#e)" /></g></g><g id="q" class="Interaction" color="#000" ><g color="#000" fill="transparent"  filter="url(#a)" stroke="#000" stroke-dasharray="99.20476179678609, 5.8"><path class="EdgeBody" d="m474.48 301.91 1 105"   marker-end="url(#d)" /></g><g class="Burr Anchor" transform="translate(474.85 340.92)" ><use class="Icon" width="0" height="0" fill="#141414" stroke-width="0" xlink:href="#b"/></g></g><g id="r" class="Interaction" color="#000" ><g color="#000" fill="transparent"  filter="url(#a)" stroke="#000" stroke-dasharray="25.258016995983844, 11"><path class="EdgeBody" d="m443.98 321.91 30.872 19.016"   marker-end="url(#e)" /></g></g><g id="s" class="Interaction" color="#000" ><g color="#000" fill="transparent"  filter="url(#a)" stroke="#000" stroke-dasharray="84.65581009463635, 5.8"><path class="EdgeBody" d="m90.632 1271.2-1.5574 90.442"   marker-end="url(#d)" /></g><g class="Burr Anchor" transform="translate(89.953 1310.7)" ><use class="Icon" width="0" height="0" fill="#141414" stroke-width="0" xlink:href="#b"/></g></g><g id="t" class="Interaction" color="#000" ><g color="#000" fill="transparent"  filter="url(#a)" stroke="#000" stroke-dasharray="13.544468309111998, 11"><path class="EdgeBody" d="m473.98 549.48 0.81288 24.531"   marker-end="url(#c)" /></g></g><g id="u" class="Interaction" color="#000" ><g color="#000" fill="transparent"  filter="url(#a)" stroke="#000" stroke-dasharray="313.63214343383515, 11"><path class="EdgeBody" d="m412.9 1277.7-322.95 32.995"   marker-end="url(#e)" /></g></g><g id="v" class="Interaction" color="#000" ><g color="#000" fill="transparent"  filter="url(#a)" stroke="#000" stroke-dasharray="151.32010791122087, 11"><path class="EdgeBody" d="m247.19 1270.4-157.24 40.291"   marker-end="url(#e)" /></g></g><g id="w" class="Interaction" color="#000" ><g color="#000" fill="transparent"  filter="url(#a)" stroke="#000" stroke-dasharray="39.57664120279432, 5.8"><path class="EdgeBody" d="m141.87 1374.2 45.367 0.91837"   marker-end="url(#d)" /></g><g class="Burr Anchor" transform="translate(160.02 1374.6)" ><use class="Icon" width="0" height="0" fill="#141414" stroke-width="0" xlink:href="#b"/></g></g><g id="x" class="Interaction" color="#000" ><g color="#000" fill="transparent"  filter="url(#a)" stroke="#000" stroke-dasharray="76.97676913559901, 11"><path class="EdgeBody" d="m105.31 1443.5 54.708-68.898"   marker-end="url(#c)" /></g></g><g id="y" class="Interaction" color="#000" ><g color="#000" fill="transparent"  filter="url(#a)" stroke="#000" stroke-dasharray="74.09397967498207, 11"><path class="EdgeBody" d="m211.31 1442.5-51.292-67.898"   marker-end="url(#c)" /></g></g><g id="z" class="Interaction" color="#000" ><g color="#000" fill="transparent"  filter="url(#a)" stroke="#000" stroke-dasharray="8.207075147954146, 11"><path class="EdgeBody" d="m474.79 599.01 1.002 19.181"   marker-end="url(#c)" /></g></g><g id="aa" class="Interaction" color="#000" ><g color="#000" fill="transparent"  filter="url(#a)" stroke="#000" stroke-dasharray="30.175172958668917, 11"><path class="EdgeBody" d="m473.5 483.31 0.47508 41.172"   marker-end="url(#c)" /></g></g><g id="ab" class="Interaction" color="#000" ><g color="#000" fill="transparent"  filter="url(#a)" stroke="#000" stroke-dasharray="35.435149662394885, 5.8"><path class="EdgeBody" d="m284.73 1375.1 41.235 0.19388"   marker-end="url(#d)" /></g><g class="Burr Anchor" transform="translate(301.22 1375.2)" ><use class="Icon" width="0" height="0" fill="#141414" stroke-width="0" xlink:href="#b"/></g></g><g id="ac" class="Interaction" color="#000" ><g color="#000" fill="transparent"  filter="url(#a)" stroke="#000" stroke-dasharray="61.99790147206417, 11"><path class="EdgeBody" d="m333.15 1440.8-31.924-65.647"   marker-end="url(#c)" /></g></g><g id="ad" class="Interaction" color="#000" ><g color="#000" fill="transparent"  filter="url(#a)" stroke="#000" stroke-dasharray="29.036734693876905, 5.8"><path class="EdgeBody" d="m619.43 1374.4 34.837 4.3e-12"   marker-end="url(#d)" /></g><g class="Burr Anchor" transform="translate(633.37 1374.4)" ><use class="Icon" width="0" height="0" fill="#141414" stroke-width="0" xlink:href="#b"/></g></g><g id="ae" class="Interaction" color="#000" ><g color="#000" fill="transparent"  filter="url(#a)" stroke="#000" stroke-dasharray="35.678671827537556, 5.8"><path class="EdgeBody" d="m467.96 1375.3 41.469-0.87755"   marker-end="url(#d)" /></g><g class="Burr Anchor" transform="translate(482.78 1375)" ><use class="Icon" width="0" height="0" fill="#141414" stroke-width="0" xlink:href="#b"/></g></g><g id="af" class="Interaction" color="#000" ><g color="#000" fill="transparent"  filter="url(#a)" stroke="#000" stroke-dasharray="9.81337710635733, 11"><path class="EdgeBody" d="m475.79 643.19 0.24717 20.812"   marker-end="url(#c)" /></g></g><g id="ag" class="Interaction" color="#000" ><g color="#000" fill="transparent"  filter="url(#a)" stroke="#000" stroke-dasharray="20.114548701083255, 11"><path class="EdgeBody" d="m476.04 705.91-0.42846 31.112"   marker-end="url(#c)" /></g></g><g id="ah" class="Interaction" color="#000" ><g color="#000" fill="transparent"  filter="url(#a)" stroke="#000" stroke-dasharray="20.164356764512526, 11"><path class="EdgeBody" d="m475.61 762.02-0.50449 31.16"   marker-end="url(#c)" /></g></g><g id="ai" class="Interaction" color="#000" ><g color="#000" fill="transparent"  filter="url(#a)" stroke="#000" stroke-dasharray="56.979087818717446, 11"><path class="EdgeBody" d="m475.11 871.23-1.2257 67.968"   marker-end="url(#c)" /></g></g><g id="aj" class="Interaction" color="#000" ><g color="#000" fill="transparent"  filter="url(#a)" stroke="#000" stroke-dasharray="71.12565713213156, 11"><path class="EdgeBody" d="m472.57 1196.2-59.665 56.433"   marker-end="url(#c)" /></g></g><g id="ak" class="Interaction" color="#000" ><g color="#000" fill="transparent"  filter="url(#a)" stroke="#000" stroke-dasharray="42.029579666621856, 11"><path class="EdgeBody" d="m473.88 1016.3-1.3115 53.013"   marker-end="url(#c)" /></g></g><g id="al" class="Interaction" color="#000" ><g color="#000" fill="transparent"  filter="url(#a)" stroke="#000" stroke-dasharray="70.93954171054772, 11"><path class="EdgeBody" d="m472.57 1196.2 59.409 56.433"   marker-end="url(#c)" /></g></g><g class="SingleFreeNode Shape" transform="translate(285.19 139.28)" color="#000" ><rect class="Icon" transform="matrix(.99751 0 0 .99729 .49875 .49864)" width="400.18" height="367.74" rx="15" ry="15" fill="transparent"  stroke="#000"/></g><a class="ChEBI_CHEBI_16485 Metabolite  " transform="translate(654.27 1361.9)" color="#00f"  name="18-hydroxycorticosterone"  ><rect class="Icon" transform="matrix(.99394 0 0 .96154 .49697 .48077)" width="164.04" height="25" fill="#fff" stroke="#00f"/><text class="Text" transform="translate(82.02 16.5)" fill="#00f"  font-size="12px"  text-anchor="middle"><tspan x="0" y="0">18-hydroxycorticosterone</tspan></text></a><a  class="CYP11A1 GeneProduct " transform="translate(202.19 1245.4)"   name="CYP11A1"  ><rect class="Icon" transform="matrix(.98901 0 0 .96154 .49451 .48077)" width="90" height="25" fill="#fff" stroke="#000"/><text class="Text" transform="translate(45,16.5)"   font-size="12px"  text-anchor="middle"><tspan x="0" y="0">CYP11A1</tspan></text></a><a  class="HSD3B2 GeneProduct " transform="translate(166.31 1442.5)"   name="HSD3B2"  ><rect class="Icon" transform="matrix(.98901 0 0 .96154 .49451 .48077)" width="90" height="25" fill="#fff" stroke="#000"/><text class="Text" transform="translate(45,16.5)"   font-size="12px"  text-anchor="middle"><tspan x="0" y="0">HSD3B2</tspan></text></a><a class="ChEBI_CHEBI_16595 Metabolite  " transform="translate(430.79 618.19)" color="#00f"  name="IP3"  ><rect class="Icon" transform="matrix(.98901 0 0 .96154 .49451 .48077)" width="90" height="25" fill="#fff" stroke="#00f"/><text class="Text" transform="translate(45,16.5)" fill="#00f"  font-size="12px"  text-anchor="middle"><tspan x="0" y="0">IP3</tspan></text></a><a  class="STAR Protein " transform="translate(368.93 1252.7)"   name="STAR"  ><rect class="Icon" transform="matrix(.98876 0 0 .96154 .49438 .48077)" width="87.939" height="25" fill="#fff" stroke="#000"/><text class="Text" transform="translate(43.969 16.5)"   font-size="12px"  text-anchor="middle"><tspan x="0" y="0">STAR</tspan></text></a><a  class="CYP21A2 GeneProduct " transform="translate(288.15 1440.8)"   name="CYP21A2"  ><rect class="Icon" transform="matrix(.98901 0 0 .96154 .49451 .48077)" width="90" height="25" fill="#fff" stroke="#000"/><text class="Text" transform="translate(45,16.5)"   font-size="12px"  text-anchor="middle"><tspan x="0" y="0">CYP21A2</tspan></text></a><a class="ChEBI_CHEBI_16827 Metabolite  " transform="translate(509.43 1361.9)" color="#00f"  name="Corticosterone"  ><rect class="Icon" transform="matrix(.99099 0 0 .96154 .4955 .48077)" width="110" height="25" fill="#fff" stroke="#00f"/><text class="Text" transform="translate(55,16.5)" fill="#00f"  font-size="12px"  text-anchor="middle"><tspan x="0" y="0">Corticosterone</tspan></text></a><a  class="CYP11B2 GeneProduct " transform="translate(486.98 1252.7)"   name="CYP11B2"  ><rect class="Icon" transform="matrix(.98901 0 0 .96154 .49451 .48077)" width="90" height="25" fill="#fff" stroke="#000"/><text class="Text" transform="translate(45,16.5)"   font-size="12px"  text-anchor="middle"><tspan x="0" y="0">CYP11B2</tspan></text></a><a class="ChEBI_CHEBI_16973 Metabolite  " transform="translate(325.96 1362.8)" color="#00f"  name="11-Deoxycorticosterone"  ><rect class="Icon" transform="matrix(.99301 0 0 .96154 .4965 .48077)" width="142" height="25" fill="#fff" stroke="#00f"/><text class="Text" transform="translate(71,16.5)" fill="#00f"  font-size="12px"  text-anchor="middle"><tspan x="0" y="0">11-Deoxycorticosterone</tspan></text></a><a class="ChEBI_CHEBI_17026 Metabolite  " transform="translate(187.24 1362.6)" color="#00f"  name="Progesterone"  ><rect class="Icon" transform="matrix(.98985 0 0 .96154 .49492 .48077)" width="97.49" height="25" fill="#fff" stroke="#00f"/><text class="Text" transform="translate(48.745 16.5)" fill="#00f"  font-size="12px"  text-anchor="middle"><tspan x="0" y="0">Progesterone</tspan></text></a><a class="ChEBI_CHEBI_16113 Metabolite  " transform="translate(19.926 1246.2)" color="#00f"  name="Cholesterol"  ><rect class="Icon" transform="matrix(.99298 0 0 .96154 .49649 .48077)" width="141.41" height="25" fill="#fff" stroke="#00f"/><text class="Text" transform="translate(70.706 16.5)" fill="#00f"  font-size="12px"  text-anchor="middle"><tspan x="0" y="0">Cholesterol</tspan></text></a><a  class="GeneProduct CTSG " transform="translate(383.98 311.91)"   name="CTSG"  ><rect class="Icon" transform="matrix(.98361 0 0 .95238 .4918 .47619)" width="60" height="20" fill="#fff" stroke="#000"/><text class="Text" transform="translate(30,13)"   font-size="10px"  text-anchor="middle"><tspan x="0" y="0">CTSG</tspan></text></a><a class="Metabolite ChEBI_CHEBI_2719  " transform="translate(435.48 406.91)" color="#00f"  name="Angiotensin II"  ><rect class="Icon" transform="matrix(.98765 0 0 .95238 .49383 .47619)" width="80" height="20" fill="#fff" stroke="#00f"/><text class="Text" transform="translate(40,13)" fill="#00f"  font-size="10px"  text-anchor="middle"><tspan x="0" y="0">Angiotensin II</tspan></text></a><a  class="HSD3B1 GeneProduct " transform="translate(60.309 1443.5)"   name="HSD3B1"  ><rect class="Icon" transform="matrix(.98901 0 0 .96154 .49451 .48077)" width="90" height="25" fill="#fff" stroke="#000"/><text class="Text" transform="translate(45,16.5)"   font-size="12px"  text-anchor="middle"><tspan x="0" y="0">HSD3B1</tspan></text></a><a class="PubChem-compound_3081372 Metabolite ChEBI_CHEBI_2718  " transform="translate(434.48 281.91)" color="#00f"  name="Angiotensin I"  ><rect class="Icon" transform="matrix(.98765 0 0 .95238 .49383 .47619)" width="80" height="20" fill="#fff" stroke="#00f"/><text class="Text" transform="translate(40,13)" fill="#00f"  font-size="10px"  text-anchor="middle"><tspan x="0" y="0">Angiotensin I</tspan></text></a><a class="ChEBI_CHEBI_35457 Metabolite  " transform="translate(514.48 214.84)" color="#c00"  name="ACE Inhibitor"  ><rect class="Icon" transform="matrix(.98913 0 0 .95238 .49457 .47619)" width="91" height="20" fill="#fff" stroke="#c00"/><text class="Text" transform="translate(45.5,13)" fill="#c00"  font-size="10px"  text-anchor="middle"><tspan x="0" y="0">ACE Inhibitor</tspan></text></a><a  class="PLCB2 GeneProduct " transform="translate(429.79 574.01)"   name="PLCB2"  ><rect class="Icon" transform="matrix(.98901 0 0 .96154 .49451 .48077)" width="90" height="25" fill="#fff" stroke="#000"/><text class="Text" transform="translate(45,16.5)"   font-size="12px"  text-anchor="middle"><tspan x="0" y="0">PLCB2</tspan></text></a><a  class="GeneProduct CMA1 " transform="translate(363.48 337.91)"   name="CMA1"  ><rect class="Icon" transform="matrix(.98361 0 0 .95238 .4918 .47619)" width="60" height="20" fill="#fff" stroke="#000"/><text class="Text" transform="translate(30,13)"   font-size="10px"  text-anchor="middle"><tspan x="0" y="0">CMA1</tspan></text></a><a  class="GeneProduct REN " transform="translate(389.22 199.86)"   name="REN"  ><rect class="Icon" transform="matrix(.9781 0 0 .95238 .48905 .47619)" width="44.667" height="20" fill="#fff" stroke="#000"/><text class="Text" transform="translate(22.333 13)"   font-size="10px"  text-anchor="middle"><tspan x="0" y="0">REN</tspan></text></a><a  class="GeneProduct AGT " transform="translate(445.14 168.91)"   name="AGT"  ><rect class="Icon" transform="matrix(.98361 0 0 .95238 .4918 .47619)" width="60" height="20" fill="#fff" stroke="#000"/><text class="Text" transform="translate(30,13)"   font-size="10px"  text-anchor="middle"><tspan x="0" y="0">AGT</tspan></text></a><g class="Metabolite" transform="translate(551,407.5)" color="#c00"  name="AGTR1 Inhibitor"><rect class="Icon" transform="matrix(.99167 0 0 .96154 .49583 .48077)" width="119" height="25" fill="#fff" stroke="#c00"/><text class="Text" transform="translate(59.5,15.5)" fill="#c00"  font-size="10px"  text-anchor="middle"><tspan x="0" y="0">AGTR1 Inhibitor</tspan></text></g><a  class="GeneProduct ACE " transform="translate(530.48 334.58)"   name="ACE"  ><rect class="Icon" transform="matrix(.98361 0 0 .95238 .4918 .47619)" width="60" height="20" fill="#fff" stroke="#000"/><text class="Text" transform="translate(30,13)"   font-size="10px"  text-anchor="middle"><tspan x="0" y="0">ACE</tspan></text></a><a  class="GNAQ GeneProduct " transform="translate(428.98 524.48)"   name="GNAQ"  ><rect class="Icon" transform="matrix(.98901 0 0 .96154 .49451 .48077)" width="90" height="25" fill="#fff" stroke="#000"/><text class="Text" transform="translate(45,16.5)"   font-size="12px"  text-anchor="middle"><tspan x="0" y="0">GNAQ</tspan></text></a><a class="ChEBI_CHEBI_16581 Metabolite  " transform="translate(36.279 1361.7)" color="#00f"  name="Pregnenolone"  ><rect class="Icon" transform="matrix(.99062 0 0 .96154 .49531 .48077)" width="105.59" height="25" fill="#fff" stroke="#00f"/><text class="Text" transform="translate(52.796 16.5)" fill="#00f"  font-size="12px"  text-anchor="middle"><tspan x="0" y="0">Pregnenolone</tspan></text></a><a class="ChEBI_CHEBI_22984 Metabolite  " transform="translate(430.61 737.02)" color="#00f"  name="calcium"  ><rect class="Icon" transform="matrix(.98901 0 0 .96154 .49451 .48077)" width="90" height="25" fill="#fff" stroke="#00f"/><text class="Text" transform="translate(45,16.5)" fill="#00f"  font-size="12px"  text-anchor="middle"><tspan x="0" y="0">calcium</tspan></text></a><g class="GroupGroup" transform="translate(261.33 939.2)" color="grey" ><use class="Icon" width="425.10447761194024" height="77.11940298507523" fill="transparent"  stroke="grey" stroke-dasharray="5,3" stroke-width="0" xlink:href="#b"/><a  class="CAMK1D GeneProduct " transform="translate(113.07 8)"   name="CAMK1D"  ><rect class="Icon" transform="matrix(.98901 0 0 .96154 .49451 .48077)" width="90" height="25" fill="#fff" stroke="#000"/><text class="Text" transform="translate(45,16.5)"   font-size="12px"  text-anchor="middle"><tspan x="0" y="0">CAMK1D</tspan></text></a><a  class="CAMK1G GeneProduct " transform="translate(220.09 8.2985)"   name="CAMK1G"  ><rect class="Icon" transform="matrix(.98901 0 0 .96154 .49451 .48077)" width="90" height="25" fill="#fff" stroke="#000"/><text class="Text" transform="translate(45,16.5)"   font-size="12px"  text-anchor="middle"><tspan x="0" y="0">CAMK1G</tspan></text></a><a  class="CAMK4 GeneProduct " transform="translate(327.1 8.597)"   name="CAMK4"  ><rect class="Icon" transform="matrix(.98901 0 0 .96154 .49451 .48077)" width="90" height="25" fill="#fff" stroke="#000"/><text class="Text" transform="translate(45,16.5)"   font-size="12px"  text-anchor="middle"><tspan x="0" y="0">CAMK4</tspan></text></a><a  class="CAMK2A GeneProduct " transform="translate(8 43.224)"   name="CAMK2A"  ><rect class="Icon" transform="matrix(.98901 0 0 .96154 .49451 .48077)" width="90" height="25" fill="#fff" stroke="#000"/><text class="Text" transform="translate(45,16.5)"   font-size="12px"  text-anchor="middle"><tspan x="0" y="0">CAMK2A</tspan></text></a><a  class="CAMK2B GeneProduct " transform="translate(112.03 42.776)"   name="CAMK2B"  ><rect class="Icon" transform="matrix(.98901 0 0 .96154 .49451 .48077)" width="90" height="25" fill="#fff" stroke="#000"/><text class="Text" transform="translate(45,16.5)"   font-size="12px"  text-anchor="middle"><tspan x="0" y="0">CAMK2B</tspan></text></a><a  class="CAMK2D GeneProduct " transform="translate(219.04 43.821)"   name="CAMK2D"  ><rect class="Icon" transform="matrix(.98901 0 0 .96154 .49451 .48077)" width="90" height="25" fill="#fff" stroke="#000"/><text class="Text" transform="translate(45,16.5)"   font-size="12px"  text-anchor="middle"><tspan x="0" y="0">CAMK2D</tspan></text></a><a  class="CAMK2G GeneProduct " transform="translate(326.06 44.119)"   name="CAMK2G"  ><rect class="Icon" transform="matrix(.98901 0 0 .96154 .49451 .48077)" width="90" height="25" fill="#fff" stroke="#000"/><text class="Text" transform="translate(45,16.5)"   font-size="12px"  text-anchor="middle"><tspan x="0" y="0">CAMK2G</tspan></text></a><a  class="CAMK1 GeneProduct " transform="translate(8.4478 9.3433)"   name="CAMK1"  ><rect class="Icon" transform="matrix(.98901 0 0 .96154 .49451 .48077)" width="90" height="25" fill="#fff" stroke="#000"/><text class="Text" transform="translate(45,16.5)"   font-size="12px"  text-anchor="middle"><tspan x="0" y="0">CAMK1</tspan></text></a></g><g class="GroupGroup" transform="translate(320.25 664)" color="grey" ><use class="Icon" width="311.5760045673716" height="41.90744101633379" fill="transparent"  stroke="grey" stroke-dasharray="5,3" stroke-width="0" xlink:href="#b"/><a  class="ITPR1 GeneProduct " transform="translate(8 8.9074)"   name="ITPR1"  ><rect class="Icon" transform="matrix(.98901 0 0 .96154 .49451 .48077)" width="90" height="25" fill="#fff" stroke="#000"/><text class="Text" transform="translate(45,16.5)"   font-size="12px"  text-anchor="middle"><tspan x="0" y="0">ITPR1</tspan></text></a><a  class="ITPR2 GeneProduct " transform="translate(111.45 8.1648)"   name="ITPR2"  ><rect class="Icon" transform="matrix(.98901 0 0 .96154 .49451 .48077)" width="90" height="25" fill="#fff" stroke="#000"/><text class="Text" transform="translate(45,16.5)"   font-size="12px"  text-anchor="middle"><tspan x="0" y="0">ITPR2</tspan></text></a><a  class="ITPR3 GeneProduct " transform="translate(213.58 8)"   name="ITPR3"  ><rect class="Icon" transform="matrix(.98901 0 0 .96154 .49451 .48077)" width="90" height="25" fill="#fff" stroke="#000"/><text class="Text" transform="translate(45,16.5)"   font-size="12px"  text-anchor="middle"><tspan x="0" y="0">ITPR3</tspan></text></a></g><g class="GroupGroup" transform="translate(269.62 793.18)" color="grey" ><use class="Icon" width="410.9673530888967" height="78.05077611154832" fill="transparent"  stroke="grey" stroke-dasharray="5,3" stroke-width="0" xlink:href="#b"/><a  class="CALML5 GeneProduct " transform="translate(213.25 43.936)"   name="CALML5"  ><rect class="Icon" transform="matrix(.98901 0 0 .96154 .49451 .48077)" width="90" height="25" fill="#fff" stroke="#000"/><text class="Text" transform="translate(45,16.5)"   font-size="12px"  text-anchor="middle"><tspan x="0" y="0">CALML5</tspan></text></a><a  class="CALM1 GeneProduct " transform="translate(49.781 8)"   name="CALM1"  ><rect class="Icon" transform="matrix(.98901 0 0 .96154 .49451 .48077)" width="90" height="25" fill="#fff" stroke="#000"/><text class="Text" transform="translate(45,16.5)"   font-size="12px"  text-anchor="middle"><tspan x="0" y="0">CALM1</tspan></text></a><a  class="CALML6 GeneProduct " transform="translate(312.97 45.051)"   name="CALML6"  ><rect class="Icon" transform="matrix(.98901 0 0 .96154 .49451 .48077)" width="90" height="25" fill="#fff" stroke="#000"/><text class="Text" transform="translate(45,16.5)"   font-size="12px"  text-anchor="middle"><tspan x="0" y="0">CALML6</tspan></text></a><a  class="CALML3 GeneProduct " transform="translate(8 44.91)"   name="CALML3"  ><rect class="Icon" transform="matrix(.98901 0 0 .96154 .49451 .48077)" width="90" height="25" fill="#fff" stroke="#000"/><text class="Text" transform="translate(45,16.5)"   font-size="12px"  text-anchor="middle"><tspan x="0" y="0">CALML3</tspan></text></a><a  class="CALML4 GeneProduct " transform="translate(110.87 44.644)"   name="CALML4"  ><rect class="Icon" transform="matrix(.98901 0 0 .96154 .49451 .48077)" width="90" height="25" fill="#fff" stroke="#000"/><text class="Text" transform="translate(45,16.5)"   font-size="12px"  text-anchor="middle"><tspan x="0" y="0">CALML4</tspan></text></a><a  class="CALM2 GeneProduct " transform="translate(148.36 8.1959)"   name="CALM2"  ><rect class="Icon" transform="matrix(.98901 0 0 .96154 .49451 .48077)" width="90" height="25" fill="#fff" stroke="#000"/><text class="Text" transform="translate(45,16.5)"   font-size="12px"  text-anchor="middle"><tspan x="0" y="0">CALM2</tspan></text></a><a  class="CALM3 GeneProduct " transform="translate(248.33 8.4953)"   name="CALM3"  ><rect class="Icon" transform="matrix(.98901 0 0 .95975 .49451 .47987)" width="90" height="23.842" fill="#fff" stroke="#000"/><text class="Text" transform="translate(45 15.921)"   font-size="12px"  text-anchor="middle"><tspan x="0" y="0">CALM3</tspan></text></a></g><g class="GroupGroup" transform="translate(259.98 1069.3)" color="grey" ><use class="Icon" width="425.17127071823376" height="126.91160220994766" fill="transparent"  stroke="grey" stroke-dasharray="5,3" stroke-width="0" xlink:href="#b"/><a  class="ATF6B GeneProduct " transform="translate(272.92 93.856)"   name="ATF6B"  ><rect class="Icon" transform="matrix(.98901 0 0 .96154 .49451 .48077)" width="90" height="25" fill="#fff" stroke="#000"/><text class="Text" transform="translate(45,16.5)"   font-size="12px"  text-anchor="middle"><tspan x="0" y="0">ATF6B</tspan></text></a><a  class="ATF2 GeneProduct " transform="translate(64.133 93.912)"   name="ATF2"  ><rect class="Icon" transform="matrix(.98901 0 0 .96154 .49451 .48077)" width="90" height="25" fill="#fff" stroke="#000"/><text class="Text" transform="translate(45,16.5)"   font-size="12px"  text-anchor="middle"><tspan x="0" y="0">ATF2</tspan></text></a><a  class="ATF1 GeneProduct " transform="translate(327.17 53.083)"   name="ATF1"  ><rect class="Icon" transform="matrix(.98901 0 0 .96154 .49451 .48077)" width="90" height="25" fill="#fff" stroke="#000"/><text class="Text" transform="translate(45,16.5)"   font-size="12px"  text-anchor="middle"><tspan x="0" y="0">ATF1</tspan></text></a><a  class="CREB5 GeneProduct " transform="translate(220.04 52.033)"   name="CREB5"  ><rect class="Icon" transform="matrix(.98901 0 0 .96154 .49451 .48077)" width="90" height="25" fill="#fff" stroke="#000"/><text class="Text" transform="translate(45,16.5)"   font-size="12px"  text-anchor="middle"><tspan x="0" y="0">CREB5</tspan></text></a><a  class="CREB3L4 GeneProduct " transform="translate(112.92 50.983)"   name="CREB3L4"  ><rect class="Icon" transform="matrix(.98901 0 0 .96154 .49451 .48077)" width="90" height="25" fill="#fff" stroke="#000"/><text class="Text" transform="translate(45,16.5)"   font-size="12px"  text-anchor="middle"><tspan x="0" y="0">CREB3L4</tspan></text></a><a  class="CREB3L3 GeneProduct " transform="translate(8 52.144)"   name="CREB3L3"  ><rect class="Icon" transform="matrix(.98901 0 0 .96154 .49451 .48077)" width="90" height="25" fill="#fff" stroke="#000"/><text class="Text" transform="translate(45,16.5)"   font-size="12px"  text-anchor="middle"><tspan x="0" y="0">CREB3L3</tspan></text></a><a  class="CREB3L2 GeneProduct " transform="translate(325.18 8)"   name="CREB3L2"  ><rect class="Icon" transform="matrix(.98901 0 0 .96154 .49451 .48077)" width="90" height="25" fill="#fff" stroke="#000"/><text class="Text" transform="translate(45,16.5)"   font-size="12px"  text-anchor="middle"><tspan x="0" y="0">CREB3L2</tspan></text></a><a  class="CREB3L1 GeneProduct " transform="translate(219.16 8.0552)"   name="CREB3L1"  ><rect class="Icon" transform="matrix(.98901 0 0 .96154 .49451 .48077)" width="90" height="25" fill="#fff" stroke="#000"/><text class="Text" transform="translate(45,16.5)"   font-size="12px"  text-anchor="middle"><tspan x="0" y="0">CREB3L1</tspan></text></a><a  class="CREB3 GeneProduct " transform="translate(112.03 8.1105)"   name="CREB3"  ><rect class="Icon" transform="matrix(.98901 0 0 .96154 .49451 .48077)" width="90" height="25" fill="#fff" stroke="#000"/><text class="Text" transform="translate(45,16.5)"   font-size="12px"  text-anchor="middle"><tspan x="0" y="0">CREB3</tspan></text></a><a  class="CREB1 GeneProduct " transform="translate(8.221 9.2707)"   name="CREB1"  ><rect class="Icon" transform="matrix(.98901 0 0 .96154 .49451 .48077)" width="90" height="25" fill="#fff" stroke="#000"/><text class="Text" transform="translate(45,16.5)"   font-size="12px"  text-anchor="middle"><tspan x="0" y="0">CREB1</tspan></text></a><a  class="ATF4 GeneProduct " transform="translate(166.9 93.912)"   name="ATF4"  ><rect class="Icon" transform="matrix(.98901 0 0 .96154 .49451 .48077)" width="90" height="25" fill="#fff" stroke="#000"/><text class="Text" transform="translate(45,16.5)"   font-size="12px"  text-anchor="middle"><tspan x="0" y="0">ATF4</tspan></text></a></g><g id="am" class="Interaction" color="#000" ><g color="#000" fill="transparent"  filter="url(#a)" stroke="#000" stroke-dasharray="313.2067483890921, 11"><path class="EdgeBody" d="m531.98 1277.7 309.35 97.027"   marker-end="url(#e)" /></g></g><g id="an" class="Interaction" color="#000" ><g color="#000" fill="transparent"  filter="url(#a)" stroke="#000" stroke-dasharray="85.95840032987466, 1"><path class="EdgeBody" d="m475.48 426.91-78.974 36.398"   marker-end="url(#g)" /></g></g><g id="ao" class="Interaction" color="#000" ><g color="#000" fill="transparent"  filter="url(#a)" stroke="#000" stroke-dasharray="35.451518373129616, 1"><path class="EdgeBody" d="m475.48 426.91-1.9744 36.398"   marker-end="url(#g)" /></g></g><g id="ap" class="Interaction" color="#000" ><g color="#000" fill="transparent"  filter="url(#a)" stroke="#000" stroke-dasharray="37.66415997033627, 5.8"><path class="EdgeBody" d="m818.31 1374.4 43.461 0.54105"   marker-end="url(#d)" /></g><g class="Burr Anchor" transform="translate(841.32 1374.7)" ><use class="Icon" width="0" height="0" fill="#141414" stroke-width="0" xlink:href="#b"/></g></g><a  class="GeneProduct AGTR2 " transform="translate(366.5 463.31)"   name="AGTR2"  ><rect class="Icon" transform="matrix(.98361 0 0 .95238 .4918 .47619)" width="60" height="20" fill="#fff" stroke="#000"/><text class="Text" transform="translate(30,13)"   font-size="10px"  text-anchor="middle"><tspan x="0" y="0">AGTR2</tspan></text></a><a  class="GeneProduct AGTR1 " transform="translate(443.5 463.31)"   name="AGTR1"  ><rect class="Icon" transform="matrix(.98361 0 0 .95238 .4918 .47619)" width="60" height="20" fill="#fff" stroke="#000"/><text class="Text" transform="translate(30,13)"   font-size="10px"  text-anchor="middle"><tspan x="0" y="0">AGTR1</tspan></text></a><a class="Metabolite ChEBI_CHEBI_27584  " transform="translate(861.77 1362.5)" color="#00f"  name="Aldosterone"  ><rect class="Icon" transform="matrix(.98996 0 0 .96154 .49498 .48077)" width="98.621" height="25" fill="#fff" stroke="#00f"/><text class="Text" transform="translate(49.31 16.5)" fill="#00f"  font-size="12px"  text-anchor="middle"><tspan x="0" y="0">Aldosterone</tspan></text></a><g class="Label" transform="translate(283.27 133.89)" color="#999"  name="Molecular initiating events"><use class="Icon" width="239.9937304075238" height="35" fill="transparent"  stroke="#999" stroke-width="0" xlink:href="#b"/><text class="Text" transform="translate(120 21.5)" fill="#999"  font-size="14px" font-weight="bold" stroke="black" stroke-width="0" text-anchor="middle"><tspan x="0" y="0">Molecular initiating events</tspan></text></g><g id="aq" class="Interaction" color="#f00" ><g color="#f00" fill="transparent"  filter="url(#h)" stroke="#000" stroke-dasharray="107.5153358389164, 7"><path class="EdgeBody" d="m610.5 432.5-107 40.807"   marker-end="url(#f)" /></g></g><g id="ar" class="Interaction" color="#000" ><g color="#000" fill="transparent"  filter="url(#a)" stroke="#000" stroke-dasharray="98.036972966424, 11"><path class="EdgeBody" d="m531.98 1277.7-49.202 97.305"   marker-end="url(#e)" /></g></g><g id="as" class="Interaction" color="#000" ><g color="#000" fill="transparent"  filter="url(#a)" stroke="#000" stroke-dasharray="129.13736729521833, 11"><path class="EdgeBody" d="m531.98 1277.7 101.39 96.741"   marker-end="url(#e)" /></g></g><text class="Text" transform="translate(5,27)" dominant-baseline="central" fill="black"  font-size="12px" font-weight="bold" overflow="visible" ><tspan x="0" y="-9">Name: Renin-angiotensin-aldosterone system (RAAS)</tspan> <tspan x="0" y="9">Organism: Homo sapiens</tspan></text></g></svg>
