<?xml version="1.0" encoding="UTF-8"?>
<!--
  WikiPathways page: https://www.wikipathways.org/index.php/Pathway:WP4804
  URL for this compressed file: https://github.com/eweitz/cachome/tree/main/data/wikipathways/WP4804.svg
  Source code for compression: https://github.com/eweitz/cachome/tree/main/src/wikipathways.py
-->
<svg class="Diagram" width="800" height="600" color="black" baseProfile="full" prefix="schema:http://schema.org/" preserveAspectRatio="xMidYMid" version="1.1" viewBox="0 0 1783.4 1063.1" vocab="http://vocabularies.wikipathways.org/wp#" xmlns="http://www.w3.org/2000/svg" xmlns:xlink="http://www.w3.org/1999/xlink"><style>svg {font-family: 'Liberation Sans', Arial, sans-serif; }</style><defs><filter id="a" x="0" y="0" width="1783.4" height="1063.1" filterUnits="userSpaceOnUse"><feColorMatrix in="SourceGraphic" values="-1   0   0 0 0                   0  -1   0 0 0                   0   0  -1 0 0                   0   0   0 1 0"/></filter><marker id="e" stroke-dasharray="99999" markerHeight="12" markerUnits="userSpaceOnUse" markerWidth="12" orient="auto" preserveAspectRatio="none" refX="12" refY="6" viewBox="0 0 12 12"><path transform="rotate(180 6 6)" d="M12 11L0 6l12-5z" fill="currentColor" stroke-width="0"/></marker><marker id="c" stroke-dasharray="99999" markerHeight="12" markerUnits="userSpaceOnUse" markerWidth="12" orient="auto" preserveAspectRatio="none" refX="12" refY="6" viewBox="0 0 12 12"><circle transform="rotate(180 6 6)" cx="6" cy="6" r="5.3" fill="none" stroke="#000"/></marker><marker id="f" stroke-dasharray="99999" markerHeight="12" markerUnits="userSpaceOnUse" markerWidth="12" orient="auto" preserveAspectRatio="none" refY="6" viewBox="0 0 12 12"><path d="M12 11L0 6l12-5z" fill="currentColor" stroke-width="0"/></marker><marker id="d" stroke-dasharray="99999" markerHeight="12" markerUnits="userSpaceOnUse" markerWidth="12" orient="auto" preserveAspectRatio="none" refX="12" refY="6" viewBox="0 0 12 12"><path transform="rotate(180 6 6)" d="M12 11L0 6l12-5z" fill="currentColor" stroke-width="0"/></marker><symbol id="b" preserveAspectRatio="none" viewBox="0 0 100 100"/></defs><g class="Viewport" color="black"  name="Name: Cholesterol biosynthesis with skeletal dysplasias Organism: Homo sapiens"><rect class="Icon" width="1783.4" height="1063.1" fill="#fff" stroke="#000" stroke-width="0"/><g id="g" class="Interaction" color="#000" ><g color="#000" fill="transparent"  filter="url(#a)" stroke="#000" stroke-dasharray="0, 5.8, 238.68428310887174, 5.8"><path class="EdgeBody" d="m1317.3 794.25v17.769c0 17.769 0 53.307-29.788 71.076-29.788 17.769-89.363 17.769-119.15 17.769h-29.788"   marker-end="url(#d)" marker-start="url(#f)" /></g><g class="Burr Anchor" transform="translate(1286.4 883.74)" ><use class="Icon" width="0" height="0" fill="#141414" stroke-width="0" xlink:href="#b"/></g></g><g id="h" class="Edge GraphicalLine DirectedInteraction" color="#000" ><g color="#000" fill="transparent"  filter="url(#a)" stroke="#000" stroke-dasharray="5.07, 3.04, 5.07, 3.04, 5.07, 3.04, 5.07, 3.04, 5.07, 3.04, 5.07, 3.04, 5.07, 3.04, 5.07, 3.04, 5.07, 3.04, 5.07, 3.04, 5.07, 3.04, 5.07, 3.04, 5.07, 3.04, 5.07, 3.04, 5.07, 3.04, 5.07, 3.04, 5.07, 3.04, 5.07, 3.04, 5.07, 3.04, 5.07, 3.04, 5.07, 3.04, 5.07, 3.04, 5.07, 3.04, 5.07, 3.04, 5.07, 3.04, 5.07, 3.04, 5.07, 3.04, 5.07, 3.04, 5.07, 3.04, 5.07, 3.04, 5.07, 3.04, 5.07, 3.04, 5.07, 3.04, 5.07, 3.04, 5.07, 3.04, 5.07, 3.04, 5.07, 3.04, 5.07, 3.04, 0, 5.8"><path class="EdgeBody" d="m1372.3 914.49h234v-77.06"   marker-end="url(#e)" /></g></g><g id="i" class="Interaction" color="#000" ><g color="#000" fill="transparent"  filter="url(#a)" stroke="#000" stroke-dasharray="269.706456364408, 5.8"><path class="EdgeBody" d="m716.55 900.87 275.51-1e-13"   marker-end="url(#d)" /></g><g class="Burr Anchor" transform="translate(865.99 900.87)" ><use class="Icon" width="0" height="0" fill="#141414" stroke-width="0" xlink:href="#b"/></g></g><g id="j" class="Interaction" color="#000" ><g color="#000" fill="transparent"  filter="url(#a)" stroke="#000" stroke-dasharray="292.52706071660543, 5.8"><path class="EdgeBody" d="m1065.3 680.12v3.6897c0 3.6897 0 11.069 41.997 14.759 41.997 3.6897 125.99 3.6897 167.99 14.856 41.997 11.166 41.997 33.499 41.997 44.665v11.166"   marker-end="url(#d)" /></g><g class="Burr Anchor" transform="translate(1226.3 705.78)" ><use class="Icon" width="0" height="0" fill="#141414" stroke-width="0" xlink:href="#b"/></g></g><g id="k" class="Interaction" color="#000" ><g color="#000" fill="transparent"  filter="url(#a)" stroke="#000" stroke-dasharray="96.6960106561964, 5.8"><path class="EdgeBody" d="m1065.3 552.62v102.5"   marker-end="url(#d)" /></g><g class="Burr Anchor" transform="translate(1065.3 601.54)" ><use class="Icon" width="0" height="0" fill="#141414" stroke-width="0" xlink:href="#b"/></g></g><g id="l" class="Interaction" color="#000" ><g color="#000" fill="transparent"  filter="url(#a)" stroke="#000" stroke-dasharray="54.051662005384955, 11"><path class="EdgeBody" d="m1327.3 901.99-55.978-33.139"   marker-end="url(#c)" /></g></g><g id="m" class="DirectedInteraction" color="#000" ><g color="#000" fill="transparent"  filter="url(#a)" stroke="#000" stroke-dasharray="99.25511236379118, 5.8"><path class="EdgeBody" d="m641.44 422.57-2e-13 105.06"   marker-end="url(#e)" /></g><g class="Burr Anchor" transform="translate(641.44 476.43)" ><use class="Icon" width="0" height="0" fill="#141414" stroke-width="0" xlink:href="#b"/></g></g><g id="n" class="Interaction" color="#000" ><g color="#000" fill="transparent"  filter="url(#a)" stroke="#000" stroke-dasharray="328.0771140131621, 5.8"><path class="EdgeBody" d="m686.44 1009.4h333.88"   marker-end="url(#d)" /></g><g class="Burr Anchor" transform="translate(865.99 1009.4)" ><use class="Icon" width="0" height="0" fill="#141414" stroke-width="0" xlink:href="#b"/></g></g><g id="o" class="Interaction" color="#000" ><g color="#000" fill="transparent"  filter="url(#a)" stroke="#000" stroke-dasharray="88.31452205355795, 5.8"><path class="EdgeBody" d="m1065.3 794.25-4e-13 94.115"   marker-end="url(#d)" /></g><g class="Burr Anchor" transform="translate(1065.3 835.64)" ><use class="Icon" width="0" height="0" fill="#141414" stroke-width="0" xlink:href="#b"/></g></g><g id="p" class="Interaction" color="#000" ><g color="#000" fill="transparent"  filter="url(#a)" stroke="#000" stroke-dasharray="96.69601065619652, 5.8"><path class="EdgeBody" d="m641.44 552.62-2e-13 102.5"   marker-end="url(#d)" /></g><g class="Burr Anchor" transform="translate(641.44 603.62)" ><use class="Icon" width="0" height="0" fill="#141414" stroke-width="0" xlink:href="#b"/></g></g><g id="q" class="Interaction" color="#000" ><g color="#000" fill="transparent"  filter="url(#a)" stroke="#000" stroke-dasharray="46.30101075089279, 11"><path class="EdgeBody" d="m1278 684.99-54.058 19.003"   marker-end="url(#c)" /></g></g><g id="r" class="Interaction" color="#000" ><g color="#000" fill="transparent"  filter="url(#a)" stroke="#000" stroke-dasharray="230.07605355225968, 5.8"><path class="EdgeBody" d="m709.83 540.12h235.88"   marker-end="url(#d)" /></g><g class="Burr Anchor" transform="translate(867.45 540.12)" ><use class="Icon" width="0" height="0" fill="#141414" stroke-width="0" xlink:href="#b"/></g></g><g id="s" class="Interaction" color="#000" ><g color="#000" fill="transparent"  filter="url(#a)" stroke="#000" stroke-dasharray="85.98033067418301, 5.8"><path class="EdgeBody" d="m1065.3 305.78-4e-13 91.78"   marker-end="url(#d)" /></g><g class="Burr Anchor" transform="translate(1065.3 344.42)" ><use class="Icon" width="0" height="0" fill="#141414" stroke-width="0" xlink:href="#b"/></g></g><g id="t" class="Interaction" color="#000" ><g color="#000" fill="transparent"  filter="url(#a)" stroke="#000" stroke-dasharray="89.62012899827845, 11"><path class="EdgeBody" d="m1165.9 344.2-100.62 0.21624"   marker-end="url(#c)" /></g></g><g id="u" class="DirectedInteraction" color="#000" ><g color="#000" fill="transparent"  filter="url(#a)" stroke="#000" stroke-dasharray="88.31452205355806, 5.8"><path class="EdgeBody" d="m641.44 794.25v94.115"   marker-end="url(#e)" /></g><g class="Burr Anchor" transform="translate(641.44 839.03)" ><use class="Icon" width="0" height="0" fill="#141414" stroke-width="0" xlink:href="#b"/></g><g class="Burr Anchor" transform="translate(639.44 829.9)" ><rect class="Icon" width="4" height="4" fill="#141414" stroke-width="0"/></g></g><g id="v" class="Interaction" color="#000" ><g color="#000" fill="transparent"  filter="url(#a)" stroke="#000" stroke-dasharray="285.12376544455145, 5.8"><path class="EdgeBody" d="m686.44 667.62 290.92-2e-13"   marker-end="url(#d)" /></g><g class="Burr Anchor" transform="translate(867.49 667.62)" ><use class="Icon" width="0" height="0" fill="#141414" stroke-width="0" xlink:href="#b"/></g></g><g id="w" class="Interaction" color="#000" ><g color="#000" fill="transparent"  filter="url(#a)" stroke="#000" stroke-dasharray="414.9146136784908, 11"><path class="EdgeBody" d="m868.73 241.7-1.2411 425.91"   marker-end="url(#c)" /></g></g><g id="x" class="Interaction" color="#000" ><g color="#000" fill="transparent"  filter="url(#a)" stroke="#000" stroke-dasharray="99.25511236379118, 5.8"><path class="EdgeBody" d="m1065.3 422.57 4e-13 105.06"   marker-end="url(#d)" /></g><g class="Burr Anchor" transform="translate(1065.3 475.44)" ><use class="Icon" width="0" height="0" fill="#141414" stroke-width="0" xlink:href="#b"/></g></g><g id="y" class="DirectedInteraction" color="#000" ><g color="#000" fill="transparent"  filter="url(#a)" stroke="#000" stroke-dasharray="77.76046025537546, 5.8"><path class="EdgeBody" d="m641.44 913.37-3e-13 83.56"   marker-end="url(#e)" /></g><g class="Burr Anchor" transform="translate(641.44 946.79)" ><use class="Icon" width="0" height="0" fill="#141414" stroke-width="0" xlink:href="#b"/></g><g class="Burr Anchor" transform="translate(641.44 955.35)" ><use class="Icon" width="0" height="0" fill="#141414" stroke-width="0" xlink:href="#b"/></g></g><g id="z" class="Interaction" color="#000" ><g color="#000" fill="transparent"  filter="url(#a)" stroke="#000" stroke-dasharray="82.54998181787344, 11"><path class="EdgeBody" d="m547.89 955.67 93.549-0.32285"   marker-end="url(#c)" /></g></g><g id="aa" class="Interaction" color="#000" ><g color="#000" fill="transparent"  filter="url(#a)" stroke="#000" stroke-dasharray="756.7283839884883, 11"><path class="EdgeBody" d="m868.73 241.7-2.7414 767.72"   marker-end="url(#c)" /></g></g><g id="ab" class="Interaction" color="#000" ><g color="#000" fill="transparent"  filter="url(#a)" stroke="#000" stroke-dasharray="83.33570152477735, 5.8"><path class="EdgeBody" d="m1065.3 680.12v89.136"   marker-end="url(#d)" /></g><g class="Burr Anchor" transform="translate(1065.3 733.3)" ><use class="Icon" width="0" height="0" fill="#141414" stroke-width="0" xlink:href="#b"/></g></g><g id="ac" class="Interaction" color="#000" ><g color="#000" fill="transparent"  filter="url(#a)" stroke="#000" stroke-dasharray="49.83009748656455, 11"><path class="EdgeBody" d="m1126.1 835.4-60.83 0.23773"   marker-end="url(#c)" /></g></g><g id="ad" class="Interaction" color="#000" ><g color="#000" fill="transparent"  filter="url(#a)" stroke="#000" stroke-dasharray="82.54942563871855, 11"><path class="EdgeBody" d="m547.89 603.61 93.549 0.013093"   marker-end="url(#c)" /></g></g><g id="ae" class="Interaction" color="#000" ><g color="#000" fill="transparent"  filter="url(#a)" stroke="#000" stroke-dasharray="82.54992938015984, 11"><path class="EdgeBody" d="m547.89 839.34 93.549-0.30728"   marker-end="url(#c)" /></g></g><g id="af" class="Interaction" color="#000" ><g color="#000" fill="transparent"  filter="url(#a)" stroke="#000" stroke-dasharray="287.4195514068898, 11"><path class="EdgeBody" d="m868.73 241.7-1.2826 298.42"   marker-end="url(#c)" /></g></g><g id="ag" class="Interaction" color="#000" ><g color="#000" fill="transparent"  filter="url(#a)" stroke="#000" stroke-dasharray="56.41473249015709, 11"><path class="EdgeBody" d="m1132.7 733.94-67.412-0.63654"   marker-end="url(#c)" /></g></g><g id="ah" class="Interaction" color="#000" ><g color="#000" fill="transparent"  filter="url(#a)" stroke="#000" stroke-dasharray="263.77155845760643, 5.8"><path class="EdgeBody" d="m750.74 781.75h269.57"   marker-end="url(#d)" /></g><g class="Burr Anchor" transform="translate(866.74 781.75)" ><use class="Icon" width="0" height="0" fill="#141414" stroke-width="0" xlink:href="#b"/></g></g><g id="ai" class="Interaction" color="#000" ><g color="#000" fill="transparent"  filter="url(#a)" stroke="#000" stroke-dasharray="85.98033067418301, 5.8"><path class="EdgeBody" d="m641.44 305.78 1e-13 91.78"   marker-end="url(#d)" /></g><g class="Burr Anchor" transform="translate(641.44 346.49)" ><use class="Icon" width="0" height="0" fill="#141414" stroke-width="0" xlink:href="#b"/></g></g><g id="aj" class="Interaction" color="#000" ><g color="#000" fill="transparent"  filter="url(#a)" stroke="#000" stroke-dasharray="82.54983449724222, 11"><path class="EdgeBody" d="m547.89 346.21 93.549 0.27689"   marker-end="url(#c)" /></g></g><g id="ak" class="Interaction" color="#000" ><g color="#000" fill="transparent"  filter="url(#a)" stroke="#000" stroke-dasharray="89.6200220903294, 11"><path class="EdgeBody" d="m1165.9 475.28-100.62 0.15889"   marker-end="url(#c)" /></g></g><g id="al" class="Interaction" color="#000" ><g color="#000" fill="transparent"  filter="url(#a)" stroke="#000" stroke-dasharray="89.62416886539619, 11"><path class="EdgeBody" d="m1165.9 602.47-100.62-0.92723"   marker-end="url(#c)" /></g></g><g id="am" class="Interaction" color="#000" ><g color="#000" fill="transparent"  filter="url(#a)" stroke="#000" stroke-dasharray="648.1687298407046, 11"><path class="EdgeBody" d="m868.73 241.7-2.7414 659.16"   marker-end="url(#c)" /></g></g><g id="an" class="Interaction" color="#000" ><g color="#000" fill="transparent"  filter="url(#a)" stroke="#000" stroke-dasharray="82.549424991854, 11"><path class="EdgeBody" d="m547.89 476.42 93.549 0.0071001"   marker-end="url(#c)" /></g></g><g id="ao" class="Interaction" color="#000" ><g color="#000" fill="transparent"  filter="url(#a)" stroke="#000" stroke-dasharray="328.07711401316186, 5.8"><path class="EdgeBody" d="m686.44 293.28h333.88"   marker-end="url(#d)" /></g><g class="Burr Anchor" transform="translate(868.4 293.28)" ><use class="Icon" width="0" height="0" fill="#141414" stroke-width="0" xlink:href="#b"/></g></g><g id="ap" class="Interaction" color="#000" ><g color="#000" fill="transparent"  filter="url(#a)" stroke="#000" stroke-dasharray="40.582373324815315, 11"><path class="EdgeBody" d="m868.73 241.7-0.32462 51.581"   marker-end="url(#c)" /></g></g><g id="aq" class="Interaction" color="#000" ><g color="#000" fill="transparent"  filter="url(#a)" stroke="#000" stroke-dasharray="219.82779952502207, 5.8"><path class="EdgeBody" d="m1065.3 913.37 206.98 89.81"   marker-end="url(#d)" /></g></g><g id="ar" class="Interaction" color="#000" ><g color="#000" fill="transparent"  filter="url(#a)" stroke="#000" stroke-dasharray="144.07790531787253, 5.8"><path class="EdgeBody" d="m787.88 410.07h149.88"   marker-end="url(#d)" /></g><g class="Burr Anchor" transform="translate(868.12 410.07)" ><use class="Icon" width="0" height="0" fill="#141414" stroke-width="0" xlink:href="#b"/></g></g><g id="as" class="Interaction" color="#000" ><g color="#000" fill="transparent"  filter="url(#a)" stroke="#000" stroke-dasharray="157.3627688638887, 11"><path class="EdgeBody" d="m868.73 241.7-0.60481 168.36"   marker-end="url(#c)" /></g></g><g id="at" class="DirectedInteraction" color="#000" ><g color="#000" fill="transparent"  filter="url(#a)" stroke="#000" stroke-dasharray="83.33570152477724, 5.8"><path class="EdgeBody" d="m641.44 680.12 3e-13 89.136"   marker-end="url(#e)" /></g><g class="Burr Anchor" transform="translate(641.44 715.77)" ><use class="Icon" width="0" height="0" fill="#141414" stroke-width="0" xlink:href="#b"/></g><g class="Burr Anchor" transform="translate(641.44 718.1)" ><use class="Icon" width="0" height="0" fill="#141414" stroke-width="0" xlink:href="#b"/></g></g><g id="au" class="Interaction" color="#000" ><g color="#000" fill="transparent"  filter="url(#a)" stroke="#000" stroke-dasharray="82.54944941550616, 11"><path class="EdgeBody" d="m547.89 718.17 93.549-0.067971"   marker-end="url(#c)" /></g></g><g id="av" class="Interaction" color="#000" ><g color="#000" fill="transparent"  filter="url(#a)" stroke="#000" stroke-dasharray="77.76046025537558, 5.8"><path class="EdgeBody" d="m1065.3 913.37 4e-13 83.56"   marker-end="url(#d)" /></g><g class="Burr Anchor" transform="translate(1065.3 946.79)" ><use class="Icon" width="0" height="0" fill="#141414" stroke-width="0" xlink:href="#b"/></g></g><g id="aw" class="Interaction" color="#000" ><g color="#000" fill="transparent"  filter="url(#a)" stroke="#000" stroke-dasharray="128.6632868285888, 11"><path class="EdgeBody" d="m1190.8 1008.1-125.46-61.358"   marker-end="url(#c)" /></g></g><g id="ax" class="Interaction" color="#000" ><g color="#000" fill="transparent"  filter="url(#a)" stroke="#000" stroke-dasharray="529.0521780662847, 11"><path class="EdgeBody" d="m868.73 241.7-1.9912 540.05"   marker-end="url(#c)" /></g></g><a class="Metabolite " transform="translate(937.76 397.57)" color="#00f"  name="4,4-Dimethylcholesta-8(9),14-dien-3beta-ol"  ><rect class="Icon" transform="matrix(.9961 0 0 .96154 .49805 .48077)" width="255.11" height="25" fill="#fff" stroke="#00f"/><text class="Text" transform="translate(127.55 16.5)" fill="#00f"  font-size="12px"  text-anchor="middle"><tspan x="0" y="0">4,4-Dimethylcholesta-8(9),14-dien-3beta-ol</tspan></text></a><a class="ChEBI_CHEBI_16113 Metabolite  " transform="translate(1020.3 996.93)" color="#00f"  name="Cholesterol"  ><rect class="Icon" transform="matrix(.98901 0 0 .96154 .49451 .48077)" width="90" height="25" fill="#fff" stroke="#00f"/><text class="Text" transform="translate(45,16.5)" fill="#00f"  font-size="12px"  text-anchor="middle"><tspan x="0" y="0">Cholesterol</tspan></text></a><a  class="GeneProduct DHCR24 " transform="translate(823.73 216.7)"   name="DHCR24"  ><rect class="Icon" transform="matrix(.98901 0 0 .96154 .49451 .48077)" width="90" height="25" fill="#fff" stroke="#000"/><text class="Text" transform="translate(45,16.5)"   font-size="12px"  text-anchor="middle"><tspan x="0" y="0">DHCR24</tspan></text></a><a class="ChEBI_CHEBI_18252 Metabolite  " transform="translate(596.44 655.12)" color="#00f"  name="Zymosterol"  ><rect class="Icon" transform="matrix(.98901 0 0 .96154 .49451 .48077)" width="90" height="25" fill="#fff" stroke="#00f"/><text class="Text" transform="translate(45,16.5)" fill="#00f"  font-size="12px"  text-anchor="middle"><tspan x="0" y="0">Zymosterol</tspan></text></a><a  class="GeneProduct DHCR7 " transform="translate(457.89 943.17)"   name="DHCR7"  ><rect class="Icon" transform="matrix(.98901 0 0 .96154 .49451 .48077)" width="90" height="25" fill="#fff" stroke="#000"/><text class="Text" transform="translate(45,16.5)"   font-size="12px"  text-anchor="middle"><tspan x="0" y="0">DHCR7</tspan></text></a><a class="ChEBI_CHEBI_27910 Metabolite  " transform="translate(566.32 888.37)" color="#00f"  name="7-Dehydrodesmosterol"  ><rect class="Icon" transform="matrix(.99339 0 0 .96154 .49669 .48077)" width="150.23" height="25" fill="#fff" stroke="#00f"/><text class="Text" transform="translate(75.114 16.5)" fill="#00f"  font-size="12px"  text-anchor="middle"><tspan x="0" y="0">7-Dehydrodesmosterol</tspan></text></a><a class="Metabolite ChEBI_CHEBI_89982  " transform="translate(1247.5 769.25)" color="#00f"  name="8-Dehydrocholesterol"  ><rect class="Icon" transform="matrix(.99288 0 0 .96154 .49644 .48077)" width="139.52" height="25" fill="#fff" stroke="#00f"/><text class="Text" transform="translate(69.758 16.5)" fill="#00f"  font-size="12px"  text-anchor="middle"><tspan x="0" y="0">8-Dehydrocholesterol</tspan></text></a><a class="ChEBI_CHEBI_16521 Metabolite  " transform="translate(596.44 280.78)" color="#00f"  name="Lanosterol"  ><rect class="Icon" transform="matrix(.98901 0 0 .96154 .49451 .48077)" width="90" height="25" fill="#fff" stroke="#00f"/><text class="Text" transform="translate(45,16.5)" fill="#00f"  font-size="12px"  text-anchor="middle"><tspan x="0" y="0">Lanosterol</tspan></text></a><a class="ChEBI_CHEBI_87044 Metabolite  " transform="translate(945.7 527.62)" color="#00f"  name="4,4-dimethyl-5alpha-cholest-8-en-3beta-ol"  ><rect class="Icon" transform="matrix(.99584 0 0 .96154 .49792 .48077)" width="239.23" height="25" fill="#fff" stroke="#00f"/><text class="Text" transform="translate(119.61 16.5)" fill="#00f"  font-size="12px"  text-anchor="middle"><tspan x="0" y="0">4,4-dimethyl-5alpha-cholest-8-en-3beta-ol</tspan></text></a><a class="ChEBI_CHEBI_27300 Metabolite  " transform="translate(1272.3 996.93)" color="#00f"  name="vitamin Ds"  ><rect class="Icon" transform="matrix(.98901 0 0 .96154 .49451 .48077)" width="90" height="25" fill="#fff" stroke="#00f"/><text class="Text" transform="translate(45,16.5)" fill="#00f"  font-size="12px"  text-anchor="middle"><tspan x="0" y="0">vitamin Ds</tspan></text></a><a  class="GeneProduct LBR " transform="translate(457.89 463.92)"   name="LBR"  ><rect class="Icon" transform="matrix(.98901 0 0 .96154 .49451 .48077)" width="90" height="25" fill="#fff" stroke="#000"/><text class="Text" transform="translate(45,16.5)"   font-size="12px"  text-anchor="middle"><tspan x="0" y="0">LBR</tspan></text></a><a  class="GeneProduct SC5D " transform="translate(457.89 826.84)"   name="SC5D"  ><rect class="Icon" transform="matrix(.98901 0 0 .96154 .49451 .48077)" width="90" height="25" fill="#fff" stroke="#000"/><text class="Text" transform="translate(45,16.5)"   font-size="12px"  text-anchor="middle"><tspan x="0" y="0">SC5D</tspan></text></a><a class="ChEBI_CHEBI_17813 Metabolite  " transform="translate(494.99 397.57)" color="#00f"  name="4,4-dimethyl-5alpha-cholesta-8,14,24-trien-3beta-ol"  ><rect class="Icon" transform="matrix(.9966 0 0 .96154 .4983 .48077)" width="292.89" height="25" fill="#fff" stroke="#00f"/><text class="Text" transform="translate(146.45 16.5)" fill="#00f"  font-size="12px"  text-anchor="middle"><tspan x="0" y="0">4,4-dimethyl-5alpha-cholesta-8,14,24-trien-3beta-ol</tspan></text></a><a class="ChEBI_CHEBI_17737 Metabolite  " transform="translate(596.44 996.93)" color="#00f"  name="Desmosterol"  ><rect class="Icon" transform="matrix(.98901 0 0 .96154 .49451 .48077)" width="90" height="25" fill="#fff" stroke="#00f"/><text class="Text" transform="translate(45,16.5)" fill="#00f"  font-size="12px"  text-anchor="middle"><tspan x="0" y="0">Desmosterol</tspan></text></a><g class="Metabolite" transform="translate(1020.3 280.78)" color="#00f"  name="Metabolite"><rect class="Icon" transform="matrix(.98901 0 0 .96154 .49451 .48077)" width="90" height="25" fill="#fff" stroke="#00f"/><text class="Text" transform="translate(45,16.5)" fill="#00f"  font-size="12px"  text-anchor="middle"><tspan x="0" y="0">Metabolite</tspan></text></g><a  class="GeneProduct CYP51A1 " transform="translate(457.89 333.71)"   name="CYP51A1"  ><rect class="Icon" transform="matrix(.98901 0 0 .96154 .49451 .48077)" width="90" height="25" fill="#fff" stroke="#000"/><text class="Text" transform="translate(45,16.5)"   font-size="12px"  text-anchor="middle"><tspan x="0" y="0">CYP51A1</tspan></text></a><a class="ChEBI_CHEBI_18364 Metabolite  " transform="translate(573.05 527.62)" color="#00f"  name="14-Demethyllanosterol"  ><rect class="Icon" transform="matrix(.99274 0 0 .96154 .49637 .48077)" width="136.77" height="25" fill="#fff" stroke="#00f"/><text class="Text" transform="translate(68.386 16.5)" fill="#00f"  font-size="12px"  text-anchor="middle"><tspan x="0" y="0">14-Demethyllanosterol</tspan></text></a><a class="ChEBI_CHEBI_17759 Metabolite  " transform="translate(992.06 888.37)" color="#00f"  name="7-Dehydrocholesterol"  ><rect class="Icon" transform="matrix(.99322 0 0 .96154 .49661 .48077)" width="146.51" height="25" fill="#fff" stroke="#00f"/><text class="Text" transform="translate(73.256 16.5)" fill="#00f"  font-size="12px"  text-anchor="middle"><tspan x="0" y="0">7-Dehydrocholesterol</tspan></text></a><a class="ChEBI_CHEBI_16608 Metabolite  " transform="translate(977.36 655.12)" color="#00f"  name="(5alpha)-cholest-8-en-3beta-ol"  ><rect class="Icon" transform="matrix(.99435 0 0 .96154 .49717 .48077)" width="175.91" height="25" fill="#fff" stroke="#00f"/><text class="Text" transform="translate(87.953 16.5)" fill="#00f"  font-size="12px"  text-anchor="middle"><tspan x="0" y="0">(5alpha)-cholest-8-en-3beta-ol</tspan></text></a><a class="ChEBI_CHEBI_17168 Metabolite  " transform="translate(1020.3 769.25)" color="#00f"  name="Lathosterol"  ><rect class="Icon" transform="matrix(.98901 0 0 .96154 .49451 .48077)" width="90" height="25" fill="#fff" stroke="#00f"/><text class="Text" transform="translate(45,16.5)" fill="#00f"  font-size="12px"  text-anchor="middle"><tspan x="0" y="0">Lathosterol</tspan></text></a><a class="ChEBI_CHEBI_16290 Metabolite  " transform="translate(532.13 769.25)" color="#00f"  name="(3beta,5alpha)-cholesta-7,24-dien-3-ol"  ><rect class="Icon" transform="matrix(.99545 0 0 .96154 .49772 .48077)" width="218.61" height="25" fill="#fff" stroke="#00f"/><text class="Text" transform="translate(109.31 16.5)" fill="#00f"  font-size="12px"  text-anchor="middle"><tspan x="0" y="0">(3beta,5alpha)-cholesta-7,24-dien-3-ol</tspan></text></a><a  class="GeneProduct NSDHL " transform="translate(457.89 591.11)"   name="NSDHL"  ><rect class="Icon" transform="matrix(.98901 0 0 .96154 .49451 .48077)" width="90" height="25" fill="#fff" stroke="#000"/><text class="Text" transform="translate(45,16.5)"   font-size="12px"  text-anchor="middle"><tspan x="0" y="0">NSDHL</tspan></text></a><a  class="GeneProduct EBP " transform="translate(457.89 705.67)"   name="EBP"  ><rect class="Icon" transform="matrix(.98901 0 0 .96154 .49451 .48077)" width="90" height="25" fill="#fff" stroke="#000"/><text class="Text" transform="translate(45,16.5)"   font-size="12px"  text-anchor="middle"><tspan x="0" y="0">EBP</tspan></text></a><a  class="GeneProduct LBR " transform="translate(1165.9 462.78)"   name="LBR"  ><rect class="Icon" transform="matrix(.98901 0 0 .96154 .49451 .48077)" width="90" height="25" fill="#fff" stroke="#000"/><text class="Text" transform="translate(45,16.5)"   font-size="12px"  text-anchor="middle"><tspan x="0" y="0">LBR</tspan></text></a><a  class="GeneProduct CYP51A1 " transform="translate(1165.9 331.7)"   name="CYP51A1"  ><rect class="Icon" transform="matrix(.98901 0 0 .96154 .49451 .48077)" width="90" height="25" fill="#fff" stroke="#000"/><text class="Text" transform="translate(45,16.5)"   font-size="12px"  text-anchor="middle"><tspan x="0" y="0">CYP51A1</tspan></text></a><a  class="GeneProduct NSDHL " transform="translate(1165.9 589.97)"   name="NSDHL"  ><rect class="Icon" transform="matrix(.98901 0 0 .96154 .49451 .48077)" width="90" height="25" fill="#fff" stroke="#000"/><text class="Text" transform="translate(45,16.5)"   font-size="12px"  text-anchor="middle"><tspan x="0" y="0">NSDHL</tspan></text></a><a  class="GeneProduct EBP " transform="translate(1132.7 721.44)"   name="EBP"  ><rect class="Icon" transform="matrix(.98901 0 0 .96154 .49451 .48077)" width="90" height="25" fill="#fff" stroke="#000"/><text class="Text" transform="translate(45,16.5)"   font-size="12px"  text-anchor="middle"><tspan x="0" y="0">EBP</tspan></text></a><a  class="GeneProduct SC5D " transform="translate(1126.1 822.9)"   name="SC5D"  ><rect class="Icon" transform="matrix(.98901 0 0 .96154 .49451 .48077)" width="90" height="25" fill="#fff" stroke="#000"/><text class="Text" transform="translate(45,16.5)"   font-size="12px"  text-anchor="middle"><tspan x="0" y="0">SC5D</tspan></text></a><a  class="GeneProduct DHCR7 " transform="translate(1145.8 1008.1)"   name="DHCR7"  ><rect class="Icon" transform="matrix(.98901 0 0 .96154 .49451 .48077)" width="90" height="25" fill="#fff" stroke="#000"/><text class="Text" transform="translate(45,16.5)"   font-size="12px"  text-anchor="middle"><tspan x="0" y="0">DHCR7</tspan></text></a><a  class="GeneProduct SC5D " transform="translate(1278 672.49)"   name="SC5D"  ><rect class="Icon" transform="matrix(.98901 0 0 .96154 .49451 .48077)" width="90" height="25" fill="#fff" stroke="#000"/><text class="Text" transform="translate(45,16.5)"   font-size="12px"  text-anchor="middle"><tspan x="0" y="0">SC5D</tspan></text></a><a  class="GeneProduct EBP " transform="translate(1282.3 901.99)"   name="EBP"  ><rect class="Icon" transform="matrix(.98901 0 0 .96154 .49451 .48077)" width="90" height="25" fill="#fff" stroke="#000"/><text class="Text" transform="translate(45,16.5)"   font-size="12px"  text-anchor="middle"><tspan x="0" y="0">EBP</tspan></text></a><g class="Label" transform="translate(1336.3 576.37)" color="#00f"  name="OMIM:308050 Congenital Hemidysplasia With Ichthyosiform  Erythroderma And Limb Defects"><rect class="Icon" transform="matrix(.99632 0 0 .9812 .49816 .4906)" width="270.44" height="52.205" rx="15" ry="15" fill="#ffcece" stroke="#00f"/><text class="Text" transform="translate(135.22 30.103)" fill="#00f"  font-size="12px"  text-anchor="middle"><tspan x="0" y="-13.200000000000001">OMIM:308050</tspan> <tspan x="0" y="0">Congenital Hemidysplasia With Ichthyosiform </tspan> <tspan x="0" y="13.200000000000001">Erythroderma And Limb Defects</tspan></text></g><g class="Label" transform="translate(1372.1 455.78)" color="#00f"  name="OMIM:215140 Greenberg Dysplasia"><rect class="Icon" transform="matrix(.99366 0 0 .975 .49683 .4875)" width="156.63" height="39" rx="15" ry="15" fill="#ffcece" stroke="#00f"/><text class="Text" transform="translate(78.317 23.5)" fill="#00f"  font-size="12px"  text-anchor="middle"><tspan x="0" y="-6.6000000000000005">OMIM:215140</tspan> <tspan x="0" y="6.6000000000000005">Greenberg Dysplasia</tspan></text></g><g class="Label" transform="translate(1459.3 798.43)" color="#00f"  name="OMIM:302960 Chondrodysplasia Punctata 2, X-Linked Dominant"><rect class="Icon" transform="matrix(.99661 0 0 .975 .49831 .4875)" width="294.1" height="39" rx="15" ry="15" fill="#ffcece" stroke="#00f"/><text class="Text" transform="translate(147.05 23.5)" fill="#00f"  font-size="12px"  text-anchor="middle"><tspan x="0" y="-6.6000000000000005">OMIM:302960</tspan> <tspan x="0" y="6.6000000000000005">Chondrodysplasia Punctata 2, X-Linked Dominant</tspan></text></g><g class="Label" transform="translate(160.81 456.92)" color="#00f"  name="OMIM:215140 Greenberg Dysplasia"><rect class="Icon" transform="matrix(.99429 0 0 .975 .49715 .4875)" width="174.15" height="39" rx="15" ry="15" fill="#ffcece" stroke="#00f"/><text class="Text" transform="translate(87.075 23.5)" fill="#00f"  font-size="12px"  text-anchor="middle"><tspan x="0" y="-6.6000000000000005">OMIM:215140</tspan> <tspan x="0" y="6.6000000000000005">Greenberg Dysplasia</tspan></text></g><g class="Label" transform="translate(98.594 697.68)" color="#00f"  name="OMIM:302960 Chondrodysplasia Punctata 2, X-Linked Dominant"><rect class="Icon" transform="matrix(.99666 0 0 .97618 .49833 .48809)" width="298.58" height="40.986" rx="15" ry="15" fill="#ffcece" stroke="#00f"/><text class="Text" transform="translate(149.29 24.493)" fill="#00f"  font-size="12px"  text-anchor="middle"><tspan x="0" y="-6.6000000000000005">OMIM:302960</tspan> <tspan x="0" y="6.6000000000000005">Chondrodysplasia Punctata 2, X-Linked Dominant</tspan></text></g><g class="Label" transform="translate(115.24 577.73)" color="#00f"  name="OMIM:308050 Congenital Hemidysplasia With Ichthyosiform  Erythroderma And Limb Defects"><rect class="Icon" transform="matrix(.99624 0 0 .98105 .49812 .49052)" width="265.29" height="51.757" rx="15" ry="15" fill="#ffcece" stroke="#00f"/><text class="Text" transform="translate(132.65 29.878)" fill="#00f"  font-size="12px"  text-anchor="middle"><tspan x="0" y="-13.200000000000001">OMIM:308050</tspan> <tspan x="0" y="0">Congenital Hemidysplasia With Ichthyosiform </tspan> <tspan x="0" y="13.200000000000001">Erythroderma And Limb Defects</tspan></text></g><g class="Label" transform="translate(796.47 127.66)" color="#00f"  name="OMIM:602398 Desmosterolosis"><rect class="Icon" transform="matrix(.99313 0 0 .97739 .49656 .4887)" width="144.52" height="43.229" rx="15" ry="15" fill="#ffcece" stroke="#00f"/><text class="Text" transform="translate(72.261 25.615)" fill="#00f"  font-size="12px"  text-anchor="middle"><tspan x="0" y="-6.6000000000000005">OMIM:602398</tspan> <tspan x="0" y="6.6000000000000005">Desmosterolosis</tspan></text></g><g id="ay" class="Edge GraphicalLine DirectedInteraction" color="#000" ><g color="#000" fill="transparent"  filter="url(#a)" stroke="#000" stroke-dasharray="5.06, 3.04, 5.06, 3.04, 5.06, 3.04, 5.06, 3.04, 5.06, 3.04, 5.06, 3.04, 5.06, 3.04, 5.06, 3.04, 5.06, 3.04, 5.06, 3.04, 5.06, 3.04, 5.06, 3.04, 5.06, 3.04, 5.06, 3.04, 5.06, 3.04, 5.06, 3.04, 5.06, 3.04, 5.06, 3.04, 5.06, 3.04, 5.06, 3.04, 5.06, 3.04, 5.06, 3.04, 5.06, 3.04, 5.06, 3.04, 5.06, 3.04, 5.06, 3.04, 5.06, 3.04, 5.06, 3.04, 5.06, 3.04, 5.06, 3.04, 5.06, 3.04, 5.06, 3.04, 5.06, 3.04, 5.06, 3.04, 5.06, 3.04, 5.06, 3.04, 5.06, 3.04, 5.06, 3.04, 5.06, 3.04, 5.06, 3.04, 5.06, 3.04, 5.06, 3.04, 5.06, 3.04, 5.06, 3.04, 5.06, 3.04, 5.06, 3.04, 5.06, 3.04, 5.06, 3.04, 5.06, 3.04, 5.06, 3.04, 5.06, 3.04, 5.06, 3.04, 5.06, 3.04, 5.06, 3.04, 5.06, 5.8"><path class="EdgeBody" d="m1222.7 733.94h383.6v64.495"   marker-end="url(#e)" /></g></g><g id="az" class="Edge GraphicalLine DirectedInteraction" color="#000" ><g color="#000" fill="transparent"  filter="url(#a)" stroke="#000" stroke-dasharray="5.41, 3.24, 5.41, 3.24, 5.41, 3.24, 5.41, 3.24, 5.41, 3.24, 5.41, 3.24, 5.41, 3.24, 5.41, 3.24, 5.41, 5.8"><path class="EdgeBody" d="m1255.9 602.47 80.398-2e-13"   marker-end="url(#e)" /></g></g><g id="ba" class="Edge GraphicalLine DirectedInteraction" color="#000" ><g color="#000" fill="transparent"  filter="url(#a)" stroke="#000" stroke-dasharray="5.06, 3.04, 5.06, 3.04, 5.06, 3.04, 5.06, 3.04, 5.06, 3.04, 5.06, 3.04, 5.06, 3.04, 5.06, 3.04, 5.06, 3.04, 5.06, 3.04, 5.06, 3.04, 5.06, 3.04, 5.06, 3.04, 5.06, 5.8"><path class="EdgeBody" d="m1255.9 475.28 116.16-5e-14"   marker-end="url(#e)" /></g></g><g id="bb" class="Edge GraphicalLine DirectedInteraction" color="#000" ><g color="#000" fill="transparent"  filter="url(#a)" stroke="#000" stroke-dasharray="5.18, 3.11, 5.18, 3.11, 5.18, 3.11, 5.18, 3.11, 5.18, 3.11, 5.18, 3.11, 5.18, 5.8"><path class="EdgeBody" d="m457.89 718.17-60.717 1e-13"   marker-end="url(#e)" /></g></g><g id="bc" class="Edge GraphicalLine DirectedInteraction" color="#000" ><g color="#000" fill="transparent"  filter="url(#a)" stroke="#000" stroke-dasharray="5.19, 3.11, 5.19, 3.11, 5.19, 3.11, 5.19, 3.11, 5.19, 3.11, 5.19, 3.11, 5.19, 3.11, 5.19, 3.11, 5.19, 5.8"><path class="EdgeBody" d="m457.89 603.61h-77.361"   marker-end="url(#e)" /></g></g><g id="bd" class="Edge GraphicalLine DirectedInteraction" color="#000" ><g color="#000" fill="transparent"  filter="url(#a)" stroke="#000" stroke-dasharray="5.01, 3, 5.01, 3, 5.01, 3, 5.01, 3, 5.01, 3, 5.01, 3, 5.01, 3, 5.01, 3, 5.01, 3, 5.01, 3, 5.01, 3, 5.01, 3, 5.01, 3, 5.01, 3, 5.01, 5.8"><path class="EdgeBody" d="m457.89 476.42h-122.93"   marker-end="url(#e)" /></g></g><g id="be" class="Edge GraphicalLine DirectedInteraction" color="#000" ><g color="#000" fill="transparent"  filter="url(#a)" stroke="#000" stroke-dasharray="5.41, 3.24, 5.41, 3.24, 5.41, 3.24, 5.41, 3.24, 5.41, 5.8"><path class="EdgeBody" d="m868.73 216.7v-45.817"   marker-end="url(#e)" /></g></g><text class="Text" transform="translate(5,27)" dominant-baseline="central" fill="black"  font-size="12px" font-weight="bold" overflow="visible" ><tspan x="0" y="-9">Name: Cholesterol biosynthesis with skeletal dysplasias</tspan> <tspan x="0" y="9">Organism: Homo sapiens</tspan></text></g></svg>
