<?xml version="1.0" encoding="UTF-8"?>
<!--
  WikiPathways page: https://www.wikipathways.org/index.php/Pathway:WP4891
  URL for this compressed file: https://github.com/eweitz/cachome/tree/main/data/wikipathways/WP4891.svg
  Source code for compression: https://github.com/eweitz/cachome/tree/main/src/wikipathways.py
-->
<svg class="Diagram" width="800" height="600" color="black" baseProfile="full" prefix="schema:http://schema.org/" preserveAspectRatio="xMidYMid" version="1.1" viewBox="0 0 1342.5 892" vocab="http://vocabularies.wikipathways.org/wp#" xmlns="http://www.w3.org/2000/svg" xmlns:xlink="http://www.w3.org/1999/xlink"><style>svg {font-family: 'Liberation Sans', Arial, sans-serif; }</style><defs><filter id="b" x="0" y="0" width="1342.5" height="892" filterUnits="userSpaceOnUse"><feColorMatrix in="SourceGraphic" values="-1   0   0 0 0                   0  -1   0 0 0                   0   0  -1 0 0                   0   0   0 1 0"/></filter><marker id="c" stroke-dasharray="99999" markerHeight="12" markerUnits="userSpaceOnUse" markerWidth="12" orient="auto" preserveAspectRatio="none" refX="12" refY="6" viewBox="0 0 12 12"><path transform="rotate(180 6 6)" d="M0 6l11 5V1z" fill="currentColor" stroke-width="0"/></marker><symbol id="a" preserveAspectRatio="none" viewBox="0 0 100 100"/></defs><g class="Viewport" color="black"  name="Name: COVID-19 adverse outcome pathway Organism: Homo sapiens"><rect class="Icon" width="1342.5" height="892" fill="#fff" stroke="#000" stroke-width="0"/><g class="GroupGroup" transform="translate(591.47 326.28)" color="grey" ><use class="Icon" width="721.0000000000001" height="396" fill="transparent"  stroke="grey" stroke-dasharray="5,3" stroke-width="0" xlink:href="#a"/><g id="d" class="Interaction" color="#000" ><g color="#000" fill="transparent"  filter="url(#b)" stroke="#000" stroke-dasharray="5.24, 3.14, 5.24, 3.14, 5.24, 3.14, 5.24, 3.14, 5.24, 3.14, 5.24, 3.14, 5.24, 3.14, 5.24, 3.14, 5.24, 3.14, 5.24, 3.14, 5.24, 3.14, 5.24, 3.14, 5.24, 3.14, 5.24, 3.14, 5.24, 3.14, 5.24, 3.14, 5.24, 3.14, 0, 0"><path class="EdgeBody" d="m122.65 279.35h34.35v-78.426h26.65"   /></g></g><g id="e" class="Interaction" color="#000" ><g color="#000" fill="transparent"  filter="url(#b)" stroke="#000" stroke-dasharray="5.02, 3.01, 5.02, 3.01, 5.02, 3.01, 5.02, 3.01, 5.02, 3.01, 5.02, 3.01, 5.02, 3.01, 5.02, 3.01, 5.02, 3.01, 5.02, 3.01, 5.02, 3.01, 5.02, 3.01, 5.02, 3.01, 5.02, 3.01, 5.02, 3.01, 5.02, 3.01, 5.02, 3.01, 5.02, 3.01, 5.02, 3.01, 5.02, 3.01, 5.02, 3.01, 5.02, 3.01, 5.02, 0"><path class="EdgeBody" d="m500.96 328.88h45.04v-88.904h47.65"   /></g></g><g id="f" class="Interaction" color="#000" ><g color="#000" fill="transparent"  filter="url(#b)" stroke="#000" stroke-dasharray="5.1, 3.06, 5.1, 3.06, 5.1, 3.06, 5.1, 3.06, 5.1, 3.06, 5.1, 3.06, 5.1, 3.06, 5.1, 3.06, 5.1, 3.06, 5.1, 3.06, 5.1, 3.06, 5.1, 3.06, 5.1, 3.06, 5.1, 3.06, 5.1, 3.06, 5.1, 3.06, 5.1, 3.06, 5.1, 3.06, 5.1, 3.06, 5.1, 3.06, 5.1, 3.06, 5.1, 3.06, 5.1, 3.06, 5.1, 3.06, 5.1, 3.06, 5.1, 3.06, 5.1, 3.06, 5.1, 3.06, 5.1, 3.06, 5.1, 3.06, 5.1, 3.06, 5.1, 3.06, 5.1, 3.06, 5.1, 3.06, 5.1, 3.06, 5.1, 3.06, 5.1, 3.06, 5.1, 3.06, 5.1, 3.06, 5.1, 3.06, 5.1, 3.06, 5.1, 3.06, 5.1, 3.06, 0, 0"><path class="EdgeBody" d="m420.96 328.88h-77.96v-49.532h-220.35"   /></g></g><g id="g" class="Interaction" color="#000" ><g color="#000" fill="transparent"  filter="url(#b)" stroke="#000" stroke-dasharray="5.39, 3.23, 5.39, 3.23, 5.39, 3.23, 5.39, 3.23, 5.39, 3.23, 5.39, 3.23, 5.39, 3.23, 5.39, 3.23, 5.39, 3.23, 5.39, 3.23, 5.39, 3.23, 5.39, 3.23, 5.39, 3.23, 0, 0"><path class="EdgeBody" d="m122.65 279.35h34.35v-48.514h26"   /></g></g><g id="h" class="Interaction" color="#000" ><g color="#000" fill="transparent"  filter="url(#b)" stroke="#000" stroke-dasharray="92.00016215311194, 0"><path class="EdgeBody" d="m499.64 213.49 92-0.17273"   /></g></g><g class="SingleFreeNode Shape" transform="translate(8,8)" color="#000" ><rect class="Icon" transform="matrix(.99858 0 0 .99738 .49929 .49869)" width="705" height="380" rx="15" ry="15" fill="transparent"  stroke="#000"/></g><g class="SingleFreeNode Shape" transform="translate(404 70.5)" color="#000" ><rect class="Icon" transform="matrix(.99091 0 0 .99669 .49545 .49835)" width="109" height="301.5" rx="15" ry="15" fill="transparent"  stroke="#000"/></g><g class="SingleFreeNode Shape" transform="translate(568.5 157.5)" color="#000" ><rect class="Icon" transform="matrix(.9924 0 0 .99142 .4962 .49571)" width="130.5" height="115.5" rx="15" ry="15" fill="transparent"  stroke="#000"/></g><g class="SingleFreeNode Shape" transform="translate(29 224.5)" color="#000" ><rect class="Icon" transform="matrix(.99099 0 0 .98621 .4955 .4931)" width="110" height="71.5" rx="15" ry="15" fill="transparent"  stroke="#000"/></g><a  class="GeneProduct TNF " transform="translate(422.04 292.1)"   name="TNF"  ><rect class="Icon" transform="matrix(.98765 0 0 .95238 .49383 .47619)" width="80" height="20" fill="#fff" stroke="#000"/><text class="Text" transform="translate(40,14)"   font-size="12px"  text-anchor="middle"><tspan x="0" y="0">TNF</tspan></text></a><a  class="GeneProduct IL10 " transform="translate(420 262)"   name="IL10"  ><rect class="Icon" transform="matrix(.98765 0 0 .95238 .49383 .47619)" width="80" height="20" fill="#fff" stroke="#000"/><text class="Text" transform="translate(40,14)"   font-size="12px"  text-anchor="middle"><tspan x="0" y="0">IL10</tspan></text></a><a  class="GeneProduct IL1B " transform="translate(417.08 145.63)"   name="IL1B"  ><rect class="Icon" transform="matrix(.98765 0 0 .95238 .49383 .47619)" width="80" height="20" fill="#fff" stroke="#000"/><text class="Text" transform="translate(40,14)"   font-size="12px"  text-anchor="middle"><tspan x="0" y="0">IL1B</tspan></text></a><a  class="GeneProduct IL7 " transform="translate(418 173.69)"   name="IL7"  ><rect class="Icon" transform="matrix(.98765 0 0 .95238 .49383 .47619)" width="80" height="20" fill="#fff" stroke="#000"/><text class="Text" transform="translate(40,14)"   font-size="12px"  text-anchor="middle"><tspan x="0" y="0">IL7</tspan></text></a><a  class="GeneProduct CSF3 " transform="translate(419.01 233.31)"   name="CSF3"  ><rect class="Icon" transform="matrix(.98765 0 0 .95238 .49383 .47619)" width="80" height="20" fill="#fff" stroke="#000"/><text class="Text" transform="translate(40,14)"   font-size="12px"  text-anchor="middle"><tspan x="0" y="0">CSF3</tspan></text></a><a class="WikiPathways_WP4478 Pathway " transform="translate(31 231.5)" color="#14961e"  name="LTF danger signal response pathway"  ><rect class="Icon" transform="matrix(.99065 0 0 .96154 .49533 .48077)" width="106" height="25" rx="15" ry="15" fill="#fff" stroke="#14961e"/><text class="Text" transform="translate(53,16.5)" fill="#14961e"  font-size="12px" font-weight="bold" stroke="black" stroke-width="0" text-anchor="middle"><tspan x="0" y="-6.6000000000000005">LTF danger signal</tspan> <tspan x="0" y="6.6000000000000005">response pathway</tspan></text></a><g class="Other_GO_0002696 Pathway" transform="translate(566 167.5)" color="#14961e"  name="positive regulation of leukocyte activation"><rect class="Icon" transform="matrix(.9927 0 0 .96154 .49635 .48077)" width="136" height="25" rx="15" ry="15" fill="#fff" stroke="#14961e"/><text class="Text" transform="translate(68,16.5)" fill="#14961e"  font-size="12px" font-weight="bold" stroke="black" stroke-width="0" text-anchor="middle"><tspan x="0" y="-6.6000000000000005">positive regulation of</tspan> <tspan x="0" y="6.6000000000000005">leukocyte activation</tspan></text></g><a class="WikiPathways_WP75 Pathway " transform="translate(86.73 138.96)" color="#14961e"  name="Toll-like receptor signaling"  ><rect class="Icon" transform="matrix(.99158 0 0 .97536 .49579 .48768)" width="117.76" height="39.585" rx="15" ry="15" fill="#fff" stroke="#14961e"/><text class="Text" transform="translate(58.878 23.793)" fill="#14961e"  font-size="12px" font-weight="bold" stroke="black" stroke-width="0" text-anchor="middle"><tspan x="0" y="-6.6000000000000005">Toll-like</tspan> <tspan x="0" y="6.6000000000000005">receptor signaling</tspan></text></a><a  class="GeneProduct CXCL8 " transform="translate(42.65 269.35)"   name="IL8"  ><rect class="Icon" transform="matrix(.98765 0 0 .95238 .49383 .47619)" width="80" height="20" fill="#fff" stroke="#000"/><text class="Text" transform="translate(40,14)"   font-size="12px"  text-anchor="middle"><tspan x="0" y="0">IL8</tspan></text></a><a class="WikiPathways_WP3624 Pathway " transform="translate(331 14.5)" color="#14961e"  name="Lung fibrosis"  ><rect class="Icon" transform="matrix(.98901 0 0 .96154 .49451 .48077)" width="90" height="25" rx="15" ry="15" fill="#fff" stroke="#14961e"/><text class="Text" transform="translate(45,16.5)" fill="#14961e"  font-size="12px" font-weight="bold" stroke="black" stroke-width="0" text-anchor="middle"><tspan x="0" y="0">Lung fibrosis</tspan></text></a><a  class="GeneProduct IL2 " transform="translate(419.64 203.49)"   name="IL2"  ><rect class="Icon" transform="matrix(.98765 0 0 .95238 .49383 .47619)" width="80" height="20" fill="#fff" stroke="#000"/><text class="Text" transform="translate(40,14)"   font-size="12px"  text-anchor="middle"><tspan x="0" y="0">IL2</tspan></text></a><a  class="GeneProduct CCL3 " transform="translate(183.65 190.93)"   name="CCL3"  ><rect class="Icon" transform="matrix(.98765 0 0 .95238 .49383 .47619)" width="80" height="20" fill="#fff" stroke="#000"/><text class="Text" transform="translate(40,14)"   font-size="12px"  text-anchor="middle"><tspan x="0" y="0">CCL3</tspan></text></a><a  class="GeneProduct CCL2 " transform="translate(593.65 229.98)"   name="CCL2"  ><rect class="Icon" transform="matrix(.98765 0 0 .95238 .49383 .47619)" width="80" height="20" fill="#fff" stroke="#000"/><text class="Text" transform="translate(40,14)"   font-size="12px"  text-anchor="middle"><tspan x="0" y="0">CCL2</tspan></text></a><a  class="GeneProduct IL6 " transform="translate(420.96 318.88)"   name="IL6"  ><rect class="Icon" transform="matrix(.98765 0 0 .95238 .49383 .47619)" width="80" height="20" fill="#fff" stroke="#000"/><text class="Text" transform="translate(40,14)"   font-size="12px"  text-anchor="middle"><tspan x="0" y="0">IL6</tspan></text></a><a  class="GeneProduct IL2RA " transform="translate(591.64 203.32)"   name="IL2RA"  ><rect class="Icon" transform="matrix(.98765 0 0 .95238 .49383 .47619)" width="80" height="20" fill="#fff" stroke="#000"/><text class="Text" transform="translate(40,14)"   font-size="12px"  text-anchor="middle"><tspan x="0" y="0">IL2RA</tspan></text></a><a class="WikiPathways_WP530 Pathway " transform="translate(382 86)" color="#14961e"  name="Cytokines and inflammatory response"  ><rect class="Icon" transform="matrix(.99338 0 0 .9798 .49669 .4899)" width="150" height="48.5" rx="15" ry="15" fill="#fff" stroke="#14961e"/><text class="Text" transform="translate(75,28.25)" fill="#14961e"  font-size="12px" font-weight="bold" stroke="black" stroke-width="0" text-anchor="middle"><tspan x="0" y="-13.200000000000001">Cytokines and</tspan> <tspan x="0" y="0">inflammatory</tspan> <tspan x="0" y="13.200000000000001">response</tspan></text></a><a  class="GeneProduct CXCL10 " transform="translate(183 220.84)"   name="CXCL10"  ><rect class="Icon" transform="matrix(.98765 0 0 .95238 .49383 .47619)" width="80" height="20" fill="#fff" stroke="#000"/><text class="Text" transform="translate(40,14)"   font-size="12px"  text-anchor="middle"><tspan x="0" y="0">CXCL10</tspan></text></a><g class="SingleFreeNode Shape" transform="translate(22 135.69)" color="#000" ><rect class="Icon" transform="matrix(.99605 0 0 .99433 .49802 .49716)" width="252" height="175.31" rx="15" ry="15" fill="transparent"  stroke="#000"/></g><g class="Label" transform="translate(414.35 344.86)" color="#000"  name="KE2"><use class="Icon" width="90" height="25" fill="transparent"  stroke="#000" stroke-width="0" xlink:href="#a"/><text class="Text" transform="translate(45,16.5)"   font-size="14px" font-weight="bold"  text-anchor="middle"><tspan x="0" y="0">KE2</tspan></text></g><g class="Label" transform="translate(134.35 286.86)" color="#000"  name="KE1"><use class="Icon" width="90" height="25" fill="transparent"  stroke="#000" stroke-width="0" xlink:href="#a"/><text class="Text" transform="translate(45,16.5)"   font-size="14px" font-weight="bold"  text-anchor="middle"><tspan x="0" y="0">KE1</tspan></text></g><g class="Label" transform="translate(584.35 249.86)" color="#000"  name="KE3"><use class="Icon" width="90" height="25" fill="transparent"  stroke="#000" stroke-width="0" xlink:href="#a"/><text class="Text" transform="translate(45,16.5)"   font-size="14px" font-weight="bold"  text-anchor="middle"><tspan x="0" y="0">KE3</tspan></text></g></g><g class="GroupGroup" transform="translate(221.23 384.59)" color="grey" ><use class="Icon" width="326.6364196874998" height="250.0595259374998" fill="transparent"  stroke="grey" stroke-dasharray="5,3" stroke-width="0" xlink:href="#a"/><g id="i" class="BioGrid_882484" color="#000" ><g color="#000" fill="transparent"  filter="url(#b)" stroke="#000" stroke-dasharray="43.42744863885647, 11"><path class="EdgeBody" d="m140.81 159.77 54.415 1.1836"   marker-end="url(#c)" /></g></g><g class="SingleFreeNode Shape" transform="translate(39.624 102.8)" color="#000" ><rect class="Icon" transform="matrix(.9924 0 0 .99151 .4962 .49576)" width="130.6" height="116.8" rx="15" ry="15" fill="transparent"  stroke="#000"/></g><g class="SingleFreeNode Shape" transform="translate(8,8)" color="#000" ><rect class="Icon" transform="matrix(.99679 0 0 .99575 .4984 .49787)" width="310.64" height="234.06" rx="15" ry="15" fill="transparent"  stroke="#000"/></g><g class="Label" transform="translate(53.728 199.48)" color="#000"  name="MIE"><use class="Icon" width="90" height="25" fill="transparent"  stroke="#000" stroke-width="0" xlink:href="#a"/><text class="Text" transform="translate(45,16.5)"   font-size="14px" font-weight="bold"  text-anchor="middle"><tspan x="0" y="0">MIE</tspan></text></g><a class="WikiPathways_WP4883 Pathway " transform="translate(18.71 15.658)" color="#14961e"  name="SARS-CoV-2 and Angiotensin-converting enzyme 2 (ACE2) receptor: Molecular mechanisms and potential therapeutic target (Homo sapiens)"  ><rect class="Icon" transform="matrix(.99655 0 0 .98698 .49827 .49349)" width="288.44" height="75.801" rx="15" ry="15" fill="#fff" stroke="#14961e"/><text class="Text" transform="translate(144.22 41.9)" fill="#14961e"  font-size="12px" font-weight="bold" stroke="black" stroke-width="0" text-anchor="middle"><tspan x="0" y="-26.400000000000002">SARS-CoV-2 and Angiotensin-converting</tspan> <tspan x="0" y="-13.200000000000001">enzyme 2 (ACE2) receptor:</tspan> <tspan x="0" y="0">Molecular mechanisms and</tspan> <tspan x="0" y="13.200000000000001">potential therapeutic target</tspan> <tspan x="0" y="26.400000000000002">(Homo sapiens)</tspan></text></a><a  class="GeneProduct AGT " transform="translate(195.23 150.95)"   name="AGT"  ><rect class="Icon" transform="matrix(.98765 0 0 .95238 .49383 .47619)" width="80" height="20" fill="#fff" stroke="#000"/><text class="Text" transform="translate(40,14)"   font-size="12px"  text-anchor="middle"><tspan x="0" y="0">AGT</tspan></text></a><a class="WikiPathways_WP4846 Pathway " transform="translate(37.217 100.9)" color="#14961e"  name="SARS-CoV-2 and COVID-19 Pathway"  ><rect class="Icon" transform="matrix(.99274 0 0 .98296 .49637 .49148)" width="136.82" height="57.698" rx="15" ry="15" fill="#fff" stroke="#14961e"/><text class="Text" transform="translate(68.411 32.849)" fill="#14961e"  font-size="12px" font-weight="bold" stroke="black" stroke-width="0" text-anchor="middle"><tspan x="0" y="-6.6000000000000005">SARS-CoV-2 and</tspan> <tspan x="0" y="6.6000000000000005">COVID-19 Pathway</tspan></text></a><a  class="GeneProduct TMPRSS2 " transform="translate(60.811 178.04)"   name="TMPRSS2"  ><rect class="Icon" transform="matrix(.98765 0 0 .95238 .49383 .47619)" width="80" height="20" fill="#fff" stroke="#000"/><text class="Text" transform="translate(40,14)"   font-size="12px"  text-anchor="middle"><tspan x="0" y="0">TMPRSS2</tspan></text></a><a  class="GeneProduct ACE2 " transform="translate(60.811 149.77)"   name="ACE2"  ><rect class="Icon" transform="matrix(.98765 0 0 .95238 .49383 .47619)" width="80" height="20" fill="#fff" stroke="#000"/><text class="Text" transform="translate(40,14)"   font-size="12px"  text-anchor="middle"><tspan x="0" y="0">ACE2</tspan></text></a></g><g class="Label" transform="translate(488,785)" color="#000"  name="15 genes included in the pathway: genes with direct evidence of association to COVID-19 in the Comparative Toxicogenomics Database (http://ctdbase.org/)"><use class="Icon" width="351" height="77" fill="transparent"  stroke="#000" stroke-width="0" xlink:href="#a"/><text class="Text" transform="translate(175.5,42.5)"   font-size="12px"  text-anchor="middle"><tspan x="0" y="-19.8">15 genes included in the pathway:</tspan> <tspan x="0" y="-6.6000000000000005">genes with direct evidence of association</tspan> <tspan x="0" y="6.6000000000000005">to COVID-19 in the Comparative Toxicogenomics Database</tspan> <tspan x="0" y="19.8">(http://ctdbase.org/)</tspan></text></g><g class="GroupGroup" transform="translate(829 56.689)" color="grey" ><use class="Icon" width="491" height="231.31096031242805" fill="transparent"  stroke="grey" stroke-dasharray="5,3" stroke-width="0" xlink:href="#a"/><g class="Label" transform="translate(13 189.81)" color="#000"  name="AO (KE:1751) - Increased mortality"><use class="Icon" width="213" height="25" fill="transparent"  stroke="#000" stroke-width="0" xlink:href="#a"/><text class="Text" transform="translate(106.5,16.5)"   font-size="12px"  text-anchor="middle"><tspan x="0" y="0">AO (KE:1751) - Increased mortality</tspan></text></g><g class="Label" transform="translate(10 91.811)" color="#000"  name="MIE (KE:1739) - Binding of S protein to ACE receptor"><use class="Icon" width="312" height="25" fill="transparent"  stroke="#000" stroke-width="0" xlink:href="#a"/><text class="Text" transform="translate(156,16.5)"   font-size="12px"  text-anchor="middle"><tspan x="0" y="0">MIE (KE:1739) - Binding of S protein to ACE receptor</tspan></text></g><g class="Label" transform="translate(8 13.811)" color="#000"  name="Events related to the Adverse Outcome Pathway for Acute respiratory distress associated mortality (AOP:320)"><use class="Icon" width="463" height="88.5" fill="transparent"  stroke="#000" stroke-width="0" xlink:href="#a"/><text class="Text" transform="translate(231.5,48.25)"   font-size="12px" font-weight="bold"  text-anchor="middle"><tspan x="0" y="-6.6000000000000005">Events related to the Adverse Outcome Pathway for</tspan> <tspan x="0" y="6.6000000000000005">Acute respiratory distress associated mortality (AOP:320)</tspan></text></g><g class="Label" transform="translate(17 169.81)" color="#000"  name="KE4 (KE:1748) -   Increase, the risk of acute respiratory failure"><use class="Icon" width="344" height="25" fill="transparent"  stroke="#000" stroke-width="0" xlink:href="#a"/><text class="Text" transform="translate(172,16.5)"   font-size="12px"  text-anchor="middle"><tspan x="0" y="0">KE4 (KE:1748) - Increase, the risk of acute respiratory failure</tspan></text></g><g class="Label" transform="translate(16 110.81)" color="#000"  name="KE1 (KE:1738) - Enhanced viral entry and gene expression"><use class="Icon" width="337" height="25" fill="transparent"  stroke="#000" stroke-width="0" xlink:href="#a"/><text class="Text" transform="translate(168.5,16.5)"   font-size="12px"  text-anchor="middle"><tspan x="0" y="0">KE1 (KE:1738) - Enhanced viral entry and gene expression</tspan></text></g><g class="Label" transform="translate(15 129.81)" color="#000"  name="KE2 (KE:1496) - Increased, secretion of proinflammatory and profibrotic mediators"><use class="Icon" width="458" height="25" fill="transparent"  stroke="#000" stroke-width="0" xlink:href="#a"/><text class="Text" transform="translate(229,16.5)"   font-size="12px"  text-anchor="middle"><tspan x="0" y="0">KE2 (KE:1496) - Increased, secretion of proinflammatory and profibrotic mediators</tspan></text></g><g class="Label" transform="translate(9 10.811)" color="#000"  name="Legend"><use class="Icon" width="90" height="25" fill="transparent"  stroke="#000" stroke-width="0" xlink:href="#a"/><text class="Text" transform="translate(45,16.5)"   font-size="14px" font-weight="bold"  text-anchor="middle"><tspan x="0" y="0">Legend</tspan></text></g><g class="Label" transform="translate(11 149.81)" color="#000"  name="KE3 (KE:1750) - Increase inflammatory immune responses"><use class="Icon" width="340" height="25" fill="transparent"  stroke="#000" stroke-width="0" xlink:href="#a"/><text class="Text" transform="translate(170,16.5)"   font-size="12px"  text-anchor="middle"><tspan x="0" y="0">KE3 (KE:1750) - Increase inflammatory immune responses</tspan></text></g><g class="SingleFreeNode Shape" transform="translate(16.024 8)" color="#000" ><rect class="Icon" transform="matrix(.99786 0 0 .99538 .49893 .49769)" width="466.98" height="215.31" rx="15" ry="15" fill="transparent"  stroke="#000"/></g></g><text class="Text" transform="translate(5,27)" dominant-baseline="central" fill="black"  font-size="12px" font-weight="bold" overflow="visible" ><tspan x="0" y="-9">Name: COVID-19 adverse outcome pathway</tspan> <tspan x="0" y="9">Organism: Homo sapiens</tspan></text></g></svg>
