<?xml version="1.0" encoding="UTF-8"?>
<!--
  WikiPathways page: https://www.wikipathways.org/index.php/Pathway:WP4950
  URL for this compressed file: https://github.com/eweitz/cachome/tree/main/data/wikipathways/WP4950.svg
  Source code for compression: https://github.com/eweitz/cachome/tree/main/src/wikipathways.py
-->
<svg class="Diagram" width="800" height="600" color="black" baseProfile="full" prefix="schema:http://schema.org/" preserveAspectRatio="xMidYMid" version="1.1" viewBox="0 0 1543.8 578.72" vocab="http://vocabularies.wikipathways.org/wp#" xmlns="http://www.w3.org/2000/svg" xmlns:xlink="http://www.w3.org/1999/xlink"><style>svg {font-family: 'Liberation Sans', Arial, sans-serif; }</style><defs><filter id="a" x="0" y="0" width="1543.8" height="578.72" filterUnits="userSpaceOnUse"><feColorMatrix in="SourceGraphic" values="-1   0   0 0 0                   0  -1   0 0 0                   0   0  -1 0 0                   0   0   0 1 0"/></filter><filter id="l" x="0" y="0" width="1543.8" height="578.72" filterUnits="userSpaceOnUse"><feColorMatrix in="SourceGraphic" values="-1   0   0 0 0.8                   0  -1   0 0 0                   0   0  -1 0 0.2                   0   0   0 1 0"/></filter><filter id="h" x="0" y="0" width="1543.8" height="578.72" filterUnits="userSpaceOnUse"><feColorMatrix in="SourceGraphic" values="-1   0   0 0 1                   0  -1   0 0 0                   0   0  -1 0 0                   0   0   0 1 0"/></filter><marker id="j" stroke-dasharray="99999" markerHeight="12" markerUnits="userSpaceOnUse" markerWidth="12" orient="auto" preserveAspectRatio="none" refY="6" viewBox="0 0 12 12"><path d="M12 11L0 6l12-5z" fill="currentColor" stroke-width="0"/></marker><marker id="g" stroke-dasharray="99999" markerHeight="12" markerUnits="userSpaceOnUse" markerWidth="12" orient="auto" preserveAspectRatio="none" refX="12" refY="6" viewBox="0 0 12 12"><path transform="rotate(180 6 6)" d="M12 11L0 6l12-5z" fill="currentColor" stroke-width="0"/></marker><marker id="b" stroke-dasharray="99999" markerHeight="12" markerUnits="userSpaceOnUse" markerWidth="12" orient="auto" preserveAspectRatio="none" refX="12" refY="6" viewBox="0 0 12 12"><path transform="rotate(180 6 6)" d="M12 12L0 6l12-6-7 6z" fill="currentColor" stroke-width="0"/></marker><marker id="f" stroke-dasharray="99999" markerHeight="12" markerUnits="userSpaceOnUse" markerWidth="12" orient="auto" preserveAspectRatio="none" refX="12" refY="6" viewBox="0 0 12 12"><circle transform="rotate(180 6 6)" cx="6" cy="6" r="5.3" fill="none" stroke="#000"/></marker><marker id="k" stroke-dasharray="99999" markerHeight="12" markerUnits="userSpaceOnUse" markerWidth="12" orient="auto" preserveAspectRatio="none" refX="12" refY="6" viewBox="0 0 12 12"><path transform="rotate(180 6 6)" d="M12 11L0 6l12-5z" fill="currentColor" stroke-width="0"/></marker><marker id="e" stroke-dasharray="99999" markerHeight="20" markerUnits="userSpaceOnUse" markerWidth="10" orient="auto" preserveAspectRatio="none" refX="10" refY="10" viewBox="0 0 10 20"><path d="m3 0v20" fill="currentColor" stroke="currentColor"/></marker><marker id="d" stroke-dasharray="99999" markerHeight="12" markerUnits="userSpaceOnUse" markerWidth="12" orient="auto" preserveAspectRatio="none" refX="12" refY="6" viewBox="0 0 12 12"><g transform="rotate(180 6 6)" fill="none"><path d="m12 6"/><path d="M0 6l11 5V1z" stroke="#000"/></g></marker><symbol id="m" overflow="visible" preserveAspectRatio="none" viewBox="0 0 100 100"><path d="M73.528 56.61c-5.625-18.607 23.514-32.434 23.401-45.066-.344-4.861-10.49-8.898-18.29-5.334C61.6 14.085 62.99 35.515 57.435 48.444c-.356 3.61-7.363 2.469-7.75-.487-5.85-11.39 17.136-24.487 5.961-29.426-19.634-8.17-28.752 21.153-22.068 28.818 7.496 14.176-2.18 24.406-6.747 15.496-2.442-5.306 6.066-11.084-.803-16.177-4.32-2.8-11.756-.646-16.155 3.094C-3.019 60.5 14.602 90.744 30.837 85.91c4.698-1.96-3.236-8.702 3.907-9.6 7.298-.812 5.176 6.19 7.687 9.227 2.307 4.051 4.833 8.355 10.763 11.624 4.786 2.537 15.294 2.112 16.771-1.958 2.032-9.263-26.11-28.359-10.689-31.282 18.556-2.714 4.749 23.846 24.31 29.695 9.502 2.028 15.64-.622 14.813-4.033-2.746-11.263-25.136-22.68-24.964-33.15" stroke="currentColor" vector-effect="non-scaling-stroke"/></symbol><symbol id="i" overflow="visible" preserveAspectRatio="none" viewBox="0 0 100 100"><path d="M0 25L25 0h50l25 25v50l-25 25H25L0 75z" stroke="currentColor" vector-effect="non-scaling-stroke"/></symbol><symbol id="c" preserveAspectRatio="none" viewBox="0 0 100 100"/></defs><g class="Viewport" color="black"  name="Name: 16p11.2 distal deletion syndrome Organism: Homo sapiens"><rect class="Icon" width="1543.8" height="578.72" fill="#fff" stroke="#000" stroke-width="0"/><g id="n" class="Interaction" color="#000" ><g color="#000" fill="transparent"  filter="url(#a)" stroke="#000" stroke-dasharray="69.20775167643154, 1"><path class="EdgeBody" d="m1168.8 177.87v33.965h36.243"   marker-end="url(#b)" /></g></g><g id="o" class="Edge GraphicalLine DirectedInteraction" color="#cc0033" ><g color="#cc0033" fill="transparent"  filter="url(#l)" stroke="#000" stroke-dasharray="1342.810142201859, 5.8"><path class="EdgeBody" d="m165.21 141.47 1348.6-3.3443"   marker-end="url(#g)" /></g></g><g id="p" class="Interaction" color="#000" ><g color="#000" fill="transparent"  filter="url(#a)" stroke="#000" stroke-dasharray="19.498077332764474, 11"><path class="EdgeBody" d="m1250 299.33 1.1813 30.475"   marker-end="url(#d)" /></g></g><g id="q" class="Edge GraphicalLine DirectedInteraction" color="#f00" ><g color="#f00" fill="transparent"  filter="url(#h)" stroke="#000" stroke-dasharray="0, 5.8, 52.216322656379816, 0"><path class="EdgeBody" d="m313.08 48.469-58.005 1.159"   marker-start="url(#j)" /></g></g><g id="r" class="Interaction" color="#000" ><g color="#000" fill="transparent"  filter="url(#a)" stroke="#000" stroke-dasharray="48.138704144775815, 1"><path class="EdgeBody" d="m1348.8 177.87-0.47446 49.136"   marker-end="url(#b)" /></g></g><g id="s" class="Interaction" color="#000" ><g color="#000" fill="transparent"  filter="url(#a)" stroke="#000" stroke-dasharray="17.011515036691847, 0"><path class="EdgeBody" d="m1348.3 252 0.9542 16.985"   /></g></g><g id="t" class="Interaction" color="#000" ><g color="#000" fill="transparent"  filter="url(#a)" stroke="#000" stroke-dasharray="222.89858926539551, 1"><path class="EdgeBody" d="m807.73 179.62 0.44444 223.9"   marker-end="url(#b)" /></g></g><g id="u" class="Interaction" color="#000" ><g color="#000" fill="transparent"  filter="url(#a)" stroke="#000" stroke-dasharray="51.20522693265402, 7"><path class="EdgeBody" d="m500.55 106.22 23.152 53.402"   marker-end="url(#e)" /></g></g><g id="v" class="Interaction" color="#000" ><g color="#000" fill="transparent"  filter="url(#a)" stroke="#000" stroke-dasharray="60.59109402849286, 1"><path class="EdgeBody" d="m226.34 179.62-1.713 61.567"   marker-end="url(#b)" /></g></g><g id="w" class="Interaction" color="#000" ><g color="#000" fill="transparent"  filter="url(#a)" stroke="#000" stroke-dasharray="95.736641221372, 1"><path class="EdgeBody" d="m1132.1 309.83v-57.813h-38.924"   marker-end="url(#b)" /></g></g><g id="x" class="Interaction" color="#000" ><g color="#000" fill="transparent"  filter="url(#a)" stroke="#000" stroke-dasharray="116.40740740740716, 11"><path class="EdgeBody" d="m271.95 359.8h-20v78.685h28.722"   marker-end="url(#d)" /></g></g><g id="y" class="Interaction" color="#000" ><g color="#000" fill="transparent"  filter="url(#a)" stroke="#000" stroke-dasharray="52.77127122232007, 7"><path class="EdgeBody" d="m590.55 106.22-26.848 53.402"   marker-end="url(#e)" /></g></g><g id="z" class="Interaction" color="#000" ><g color="#000" fill="transparent"  filter="url(#a)" stroke="#000" stroke-dasharray="346.26254781146525, 1"><path class="EdgeBody" d="m424.03 179.62v303.39h-43.87"   marker-end="url(#b)" /></g></g><g id="aa" class="Interaction" color="#000" ><g color="#000" fill="transparent"  filter="url(#a)" stroke="#000" stroke-dasharray="287.1085887447548, 1"><path class="EdgeBody" d="m919.59 179.49v252.52h35.585"   marker-end="url(#b)" /></g></g><g id="ab" class="Interaction" color="#000" ><g color="#000" fill="transparent"  filter="url(#a)" stroke="#000" stroke-dasharray="87.80948106194742, 0"><path class="EdgeBody" d="m286.34 179.62-1.213 87.801"   /></g></g><g id="ac" class="Interaction" color="#000" ><g color="#000" fill="transparent"  filter="url(#a)" stroke="#000" stroke-dasharray="17.686045942660325, 11"><path class="EdgeBody" d="m339.45 397.3 0.22222 28.685"   marker-end="url(#d)" /></g></g><g id="ad" class="Interaction" color="#000" ><g color="#000" fill="transparent"  filter="url(#a)" stroke="#000" stroke-dasharray="80.77887180861116, 11"><path class="EdgeBody" d="m785.68 428.52-2.2271 91.752"   marker-end="url(#d)" /></g></g><g id="ae" class="Rhea_18105 DirectedInteraction" color="#f00" ><g color="#f00" fill="transparent"  filter="url(#h)" stroke="#000" stroke-dasharray="29.431785098411407, 5.8"><path class="EdgeBody" d="m529.79 254.48 35.224-0.74627"   marker-end="url(#g)" /></g><g class="Burr Anchor" transform="translate(543.88 254.19)" ><use class="Icon" width="0" height="0" fill="#141414" stroke-width="0" xlink:href="#c"/></g></g><g id="af" class="Interaction" color="#000" ><g color="#000" fill="transparent"  filter="url(#a)" stroke="#000" stroke-dasharray="241.25328855220573, 1"><path class="EdgeBody" d="m424.03 179.62v180.18h-62.074"   marker-end="url(#b)" /></g></g><g id="ag" class="Interaction" color="#000" ><g color="#000" fill="transparent"  filter="url(#a)" stroke="#000" stroke-dasharray="39, 1"><path class="EdgeBody" d="m1045.2 432.02h40"   marker-end="url(#b)" /></g></g><g id="ah" class="Interaction" color="#000" ><g color="#000" fill="transparent"  filter="url(#a)" stroke="#000" stroke-dasharray="61.774762983438976, 1"><path class="EdgeBody" d="m827.73 179.62 30.444 54.898"   marker-end="url(#b)" /></g></g><g id="ai" class="Interaction" color="#000" ><g color="#000" fill="transparent"  filter="url(#a)" stroke="#000" stroke-dasharray="13.169024106540677, 0"><path class="EdgeBody" d="m186.34 179.62-5.2776 12.065"   /></g></g><g id="aj" class="Rhea_18105" color="#000" ><g color="#000" fill="transparent"  filter="url(#a)" stroke="#000" stroke-dasharray="29.4317850984114, 5.8"><path class="EdgeBody" d="m529.79 229.48 35.224-0.74627"   marker-end="url(#k)" /></g><g class="Burr Anchor" transform="translate(543.88 229.19)" ><use class="Icon" width="0" height="0" fill="#141414" stroke-width="0" xlink:href="#c"/></g></g><g id="ak" class="Rhea_18105" color="#000" ><g color="#000" fill="transparent"  filter="url(#a)" stroke="#000" stroke-dasharray="38.56828862025483, 11"><path class="EdgeBody" d="m543.7 179.62 0.17396 49.568"   marker-end="url(#f)" /></g></g><g id="al" class="Interaction" color="#000" ><g color="#000" fill="transparent"  filter="url(#a)" stroke="#000" stroke-dasharray="262.1085887447548, 1"><path class="EdgeBody" d="m919.59 179.49v227.52h35.585"   marker-end="url(#b)" /></g></g><g id="am" class="Interaction" color="#000" ><g color="#000" fill="transparent"  filter="url(#a)" stroke="#000" stroke-dasharray="30.012193308819754, 11"><path class="EdgeBody" d="m1048.2 301.52 1 41"   marker-end="url(#d)" /></g></g><g id="an" class="Interaction" color="#000" ><g color="#000" fill="transparent"  filter="url(#a)" stroke="#000" stroke-dasharray="99.10858874475477, 1"><path class="EdgeBody" d="m919.59 179.49v47.524h52.585"   marker-end="url(#b)" /></g></g><g id="ao" class="Interaction" color="#000" ><g color="#000" fill="transparent"  filter="url(#a)" stroke="#000" stroke-dasharray="23.4553882628994, 1"><path class="EdgeBody" d="m751.89 305.06 0.28704 24.454"   marker-end="url(#b)" /></g></g><g id="ap" class="Interaction" color="#000" ><g color="#000" fill="transparent"  filter="url(#a)" stroke="#000" stroke-dasharray="61.69946018871387, 1"><path class="EdgeBody" d="m787.73 179.62-35.843 51.444"   marker-end="url(#b)" /></g></g><g class="SingleFreeNode Shape PhysicalEntity CellularComponent EndoplasmicReticulum" transform="translate(591.66 219.74) rotate(105.26 31.544 75.223)" color="#c0c0c0" ><use class="Icon" transform="matrix(.95461 0 0 .98045 1.4319 1.4707)" width="63.0882402064281" height="150.44507616717982" fill="transparent"  stroke="#c0c0c0" stroke-width="3" xlink:href="#m"/></g><g class="Label" transform="translate(1304.2 268.99)" color="#000"  name="transporter"><use class="Icon" width="90" height="25" fill="transparent"  stroke="#000" stroke-width="0" xlink:href="#c"/><text class="Text" transform="translate(45,16.5)"   font-size="12px"  text-anchor="middle"><tspan x="0" y="0">transporter</tspan></text></g><g class="Label" transform="translate(152.67 112.45)" color="#c00"  name="Chromosome 16:28,823,196-29,046,783 bp"><use class="Icon" width="261.4351851851868" height="25" fill="transparent"  stroke="#c00" stroke-width="0" xlink:href="#c"/><text class="Text" transform="translate(130.72 16.5)" fill="#c00"  font-size="12px"  text-anchor="middle"><tspan x="0" y="0">Chromosome 16:28,823,196-29,046,783 bp</tspan></text></g><g class="Label" transform="translate(239.44 10.648)" color="#990099"  name="RNA gene"><rect class="Icon" transform="matrix(.98901 0 0 .96154 .49451 .48077)" width="90" height="25" fill="#fff" stroke="#909"/><text class="Text" transform="translate(45,16.5)" fill="#990099"  font-size="12px"  text-anchor="middle"><tspan x="0" y="0">RNA gene</tspan></text></g><g class="Label" transform="translate(136.06 191.68)" color="#000"  name="unknown function"><use class="Icon" width="90" height="25" fill="transparent"  stroke="#000" stroke-width="0" xlink:href="#c"/><text class="Text" transform="translate(45,16.5)"   font-size="12px"  text-anchor="middle"><tspan x="0" y="0">unknown function</tspan></text></g><g class="Label" transform="translate(143.63 267.42)" color="#000"  name="function suspected in mitochondria involved in disease syndromes, such as s ensorineural deafness, diabetes, and retinopathy"><use class="Icon" width="283" height="60.5" fill="transparent"  stroke="#000" stroke-width="0" xlink:href="#c"/><text class="Text" transform="translate(141.5,34.25)"   font-size="12px"  text-anchor="middle"><tspan x="0" y="-13.200000000000001">function suspected in mitochondria</tspan> <tspan x="0" y="0">involved in disease syndromes, such as s</tspan> <tspan x="0" y="13.200000000000001">ensorineural deafness, diabetes, and retinopathy</tspan></text></g><g class="Label" transform="translate(239.44 46.173)" color="#000"  name="translocation"><use class="Icon" width="90" height="25" fill="transparent"  stroke="#000" stroke-width="0" xlink:href="#c"/><text class="Text" transform="translate(45,16.5)"   font-size="12px"  text-anchor="middle"><tspan x="0" y="0">translocation</tspan></text></g><g class="Label" transform="translate(436.79 265.98)" color="#000"  name="Cytosol"><use class="Icon" width="90" height="25" fill="transparent"  stroke="#000" stroke-width="0" xlink:href="#c"/><text class="Text" transform="translate(45,16.5)"   font-size="12px"  text-anchor="middle"><tspan x="0" y="0">Cytosol</tspan></text></g><a class="miRBase_Sequence_MI0017356 GeneProduct MIR4721 " transform="translate(326.34 159.62)" color="#990099"  name="hsa-mir-4721"  ><rect class="Icon" transform="matrix(.98765 0 0 .95238 .49383 .47619)" width="80" height="20" fill="#fff" stroke="#909"/><text class="Text" transform="translate(40,14)" fill="#990099"  font-size="12px"  text-anchor="middle"><tspan x="0" y="0">hsa-mir-4721</tspan></text></a><g class="GeneProduct" transform="translate(1228.8 157.87)" color="#990099"  name="MIR4517"><rect class="Icon" transform="matrix(.98765 0 0 .95238 .49383 .47619)" width="80" height="20" fill="#fff" stroke="#909"/><text class="Text" transform="translate(40,14)" fill="#990099"  font-size="12px"  text-anchor="middle"><tspan x="0" y="0">MIR4517</tspan></text></g><a  class="GeneProduct LAT " transform="translate(1388.8 157.87)"   name="LAT"  ><rect class="Icon" transform="matrix(.98765 0 0 .95238 .49383 .47619)" width="80" height="20" fill="#fff" stroke="#000"/><text class="Text" transform="translate(40,14)"   font-size="12px"  text-anchor="middle"><tspan x="0" y="0">LAT</tspan></text></a><a  class="GeneProduct TRAF1 " transform="translate(1205 224.33)"   name="TRAF1"  ><rect class="Icon" transform="matrix(.98901 0 0 .96154 .49451 .48077)" width="90" height="25" fill="#fff" stroke="#000"/><text class="Text" transform="translate(45,16.5)"   font-size="12px"  text-anchor="middle"><tspan x="0" y="0">TRAF1</tspan></text></a><a  class="GeneProduct VAV2 " transform="translate(955.18 419.52)"   name="VAV2"  ><rect class="Icon" transform="matrix(.98901 0 0 .96154 .49451 .48077)" width="90" height="25" fill="#fff" stroke="#000"/><text class="Text" transform="translate(45,16.5)"   font-size="12px"  text-anchor="middle"><tspan x="0" y="0">VAV2</tspan></text></a><a  class="GeneProduct CD82 " transform="translate(955.18 394.52)"   name="CD82"  ><rect class="Icon" transform="matrix(.98901 0 0 .96154 .49451 .48077)" width="90" height="25" fill="#fff" stroke="#000"/><text class="Text" transform="translate(45,16.5)"   font-size="12px"  text-anchor="middle"><tspan x="0" y="0">CD82</tspan></text></a><a  class="GeneProduct KDR " transform="translate(815.18 292.52)"   name="KDR"  ><rect class="Icon" transform="matrix(.98795 0 0 .96154 .49398 .48077)" width="82" height="25" fill="#fff" stroke="#000"/><text class="Text" transform="translate(41,16.5)"   font-size="12px"  text-anchor="middle"><tspan x="0" y="0">KDR</tspan></text></a><a  class="GeneProduct NFATC2IP " transform="translate(1148.8 157.87)"   name="NFATC2IP"  ><rect class="Icon" transform="matrix(.98765 0 0 .95238 .49383 .47619)" width="80" height="20" fill="#fff" stroke="#000"/><text class="Text" transform="translate(40,14)"   font-size="12px"  text-anchor="middle"><tspan x="0" y="0">NFATC2IP</tspan></text></a><a  class="GeneProduct SH2B1 " transform="translate(404.03 159.62)"   name="SH2B1"  ><rect class="Icon" transform="matrix(.98765 0 0 .95238 .49383 .47619)" width="80" height="20" fill="#fff" stroke="#000"/><text class="Text" transform="translate(40,14)"   font-size="12px"  text-anchor="middle"><tspan x="0" y="0">SH2B1</tspan></text></a><a class="WikiPathways_WP23 Pathway " transform="translate(939.18 342.52)" color="#14961e"  name="B Cell Receptor signaling pathway"  ><rect class="Icon" transform="matrix(.99548 0 0 .96226 .49774 .48113)" width="220" height="25.5" rx="15" ry="15" fill="#fff" stroke="#14961e"/><text class="Text" transform="translate(110,16.75)" fill="#14961e"  font-size="12px" font-weight="bold" stroke="black" stroke-width="0" text-anchor="middle"><tspan x="0" y="0">B Cell Receptor signaling pathway</tspan></text></a><a  class="GeneProduct CD19 " transform="translate(859.59 159.49)"   name="CD19"  ><rect class="Icon" transform="matrix(.98765 0 0 .95238 .49383 .47619)" width="80" height="20" fill="#fff" stroke="#000"/><text class="Text" transform="translate(40,14)"   font-size="12px"  text-anchor="middle"><tspan x="0" y="0">CD19</tspan></text></a><a class="ChEBI_CHEBI_26739 Metabolite  " transform="translate(1303.3 227)" color="#00f"  name="sphingolipids"  ><rect class="Icon" transform="matrix(.98901 0 0 .96154 .49451 .48077)" width="90" height="25" fill="#fff" stroke="#00f"/><text class="Text" transform="translate(45,16.5)" fill="#00f"  font-size="12px"  text-anchor="middle"><tspan x="0" y="0">sphingolipids</tspan></text></a><a class="WikiPathways_WP4249 Pathway " transform="translate(739.65 449.79)" color="#14961e"  name="Hedgehog signaling pathway"  ><rect class="Icon" transform="matrix(.99457 0 0 .96154 .49728 .48077)" width="183" height="25" rx="15" ry="15" fill="#fff" stroke="#14961e"/><text class="Text" transform="translate(91.5,16.5)" fill="#14961e"  font-size="12px" font-weight="bold" stroke="black" stroke-width="0" text-anchor="middle"><tspan x="0" y="0">Hedgehog signaling pathway</tspan></text></a><a  class="GeneProduct RAB5A " transform="translate(707.18 329.52)"   name="RAB5A"  ><rect class="Icon" transform="matrix(.98901 0 0 .96154 .49451 .48077)" width="90" height="25" fill="#fff" stroke="#000"/><text class="Text" transform="translate(45,16.5)"   font-size="12px"  text-anchor="middle"><tspan x="0" y="0">RAB5A</tspan></text></a><a  class="GeneProduct PRMT1 " transform="translate(1205 274.33)"   name="PRMT1"  ><rect class="Icon" transform="matrix(.98901 0 0 .96154 .49451 .48077)" width="90" height="25" fill="#fff" stroke="#000"/><text class="Text" transform="translate(45,16.5)"   font-size="12px"  text-anchor="middle"><tspan x="0" y="0">PRMT1</tspan></text></a><a  class="GeneProduct PLN " transform="translate(455.55 81.216)"   name="PLN"  ><rect class="Icon" transform="matrix(.98901 0 0 .96154 .49451 .48077)" width="90" height="25" fill="#fff" stroke="#000"/><text class="Text" transform="translate(45,16.5)"   font-size="12px"  text-anchor="middle"><tspan x="0" y="0">PLN</tspan></text></a><a  class="GeneProduct GRB2 " transform="translate(271.95 347.3)"   name="GRB2"  ><rect class="Icon" transform="matrix(.98901 0 0 .96154 .49451 .48077)" width="90" height="25" fill="#fff" stroke="#000"/><text class="Text" transform="translate(45,16.5)"   font-size="12px"  text-anchor="middle"><tspan x="0" y="0">GRB2</tspan></text></a><a  class="GeneProduct MPL " transform="translate(179.63 241.19)"   name="MPL"  ><rect class="Icon" transform="matrix(.98901 0 0 .96154 .49451 .48077)" width="90" height="25" fill="#fff" stroke="#000"/><text class="Text" transform="translate(45,16.5)"   font-size="12px"  text-anchor="middle"><tspan x="0" y="0">MPL</tspan></text></a><a  class="GeneProduct ATP2A1 " transform="translate(503.7 159.62)"   name="ATP2A1"  ><rect class="Icon" transform="matrix(.98765 0 0 .95238 .49383 .47619)" width="80" height="20" fill="#fff" stroke="#000"/><text class="Text" transform="translate(40,14)"   font-size="12px"  text-anchor="middle"><tspan x="0" y="0">ATP2A1</tspan></text></a><a  class="GeneProduct JAK2 " transform="translate(290.16 470.51)"   name="JAK2"  ><rect class="Icon" transform="matrix(.98901 0 0 .96154 .49451 .48077)" width="90" height="25" fill="#fff" stroke="#000"/><text class="Text" transform="translate(45,16.5)"   font-size="12px"  text-anchor="middle"><tspan x="0" y="0">JAK2</tspan></text></a><a  class="GeneProduct RABEP2 " transform="translate(767.73 159.62)"   name="RABEP2"  ><rect class="Icon" transform="matrix(.98765 0 0 .95238 .49383 .47619)" width="80" height="20" fill="#fff" stroke="#000"/><text class="Text" transform="translate(40,14)"   font-size="12px"  text-anchor="middle"><tspan x="0" y="0">RABEP2</tspan></text></a><a class="GeneProduct -AS1 ATP2A1-AS1 -AS1 " transform="translate(584.86 159.62)" color="#990099"  name="ATP2A1-AS1"  ><rect class="Icon" transform="matrix(.98765 0 0 .95238 .49383 .47619)" width="80" height="20" fill="#fff" stroke="#909"/><text class="Text" transform="translate(40,14)" fill="#990099"  font-size="12px"  text-anchor="middle"><tspan x="0" y="0">ATP2A1-AS1</tspan></text></a><g class="WikiPathways_WP2657 Pathway" transform="translate(248.32 523.72)" color="#14961e"  name="Growth hormone signaling"><rect class="Icon" transform="matrix(.99438 0 0 .96154 .49719 .48077)" width="177" height="25" rx="15" ry="15" fill="#fff" stroke="#14961e"/><text class="Text" transform="translate(88.5,16.5)" fill="#14961e"  font-size="12px" font-weight="bold" stroke="black" stroke-width="0" text-anchor="middle"><tspan x="0" y="0">Growth hormone signaling</tspan></text></g><a  class="GeneProduct NFATC2 " transform="translate(1205 199.33)"   name="NFATC2"  ><rect class="Icon" transform="matrix(.98901 0 0 .96154 .49451 .48077)" width="90" height="25" fill="#fff" stroke="#000"/><text class="Text" transform="translate(45,16.5)"   font-size="12px"  text-anchor="middle"><tspan x="0" y="0">NFATC2</tspan></text></a><a  class="GeneProduct ATXN2L " transform="translate(166.34 159.62)"   name="ATXN2L"  ><rect class="Icon" transform="matrix(.98765 0 0 .95238 .49383 .47619)" width="80" height="20" fill="#fff" stroke="#000"/><text class="Text" transform="translate(40,14)"   font-size="12px"  text-anchor="middle"><tspan x="0" y="0">ATXN2L</tspan></text></a><a class="WikiPathways_WP4536 Pathway " transform="translate(737.7 520.27)" color="#14961e"  name="Primary cilium development"  ><rect class="Icon" transform="matrix(.99457 0 0 .96154 .49728 .48077)" width="183" height="25" rx="15" ry="15" fill="#fff" stroke="#14961e"/><text class="Text" transform="translate(91.5,16.5)" fill="#14961e"  font-size="12px" font-weight="bold" stroke="black" stroke-width="0" text-anchor="middle"><tspan x="0" y="0">Primary cilium development</tspan></text></a><a class="ChEBI_CHEBI_15422 Metabolite  " transform="translate(439.79 216.98)" color="#00f"  name="ATP"  ><rect class="Icon" transform="matrix(.98901 0 0 .96154 .49451 .48077)" width="90" height="25" fill="#fff" stroke="#00f"/><text class="Text" transform="translate(45,16.5)" fill="#00f"  font-size="12px"  text-anchor="middle"><tspan x="0" y="0">ATP</tspan></text></a><g class="WikiPathways_WP1919 Pathway" transform="translate(812.18 342.52)" color="#14961e"  name="VEGF signaling"><rect class="Icon" transform="matrix(.98901 0 0 .96154 .49451 .48077)" width="90" height="25" rx="15" ry="15" fill="#fff" stroke="#14961e"/><text class="Text" transform="translate(45,16.5)" fill="#14961e"  font-size="12px" font-weight="bold" stroke="black" stroke-width="0" text-anchor="middle"><tspan x="0" y="0">VEGF signaling</tspan></text></g><a  class="GeneProduct C3 " transform="translate(1087.1 309.83)"   name="C3"  ><rect class="Icon" transform="matrix(.98901 0 0 .96154 .49451 .48077)" width="90" height="25" fill="#fff" stroke="#000"/><text class="Text" transform="translate(45,16.5)"   font-size="12px"  text-anchor="middle"><tspan x="0" y="0">C3</tspan></text></a><a  class="GeneProduct SDCCAG8 " transform="translate(763.18 403.52)"   name="SDCCAG8"  ><rect class="Icon" transform="matrix(.98901 0 0 .96154 .49451 .48077)" width="90" height="25" fill="#fff" stroke="#000"/><text class="Text" transform="translate(45,16.5)"   font-size="12px"  text-anchor="middle"><tspan x="0" y="0">SDCCAG8</tspan></text></a><a  class="GeneProduct RAB4A " transform="translate(817.18 234.52)"   name="RAB4A"  ><rect class="Icon" transform="matrix(.98795 0 0 .96154 .49398 .48077)" width="82" height="25" fill="#fff" stroke="#000"/><text class="Text" transform="translate(41,16.5)"   font-size="12px"  text-anchor="middle"><tspan x="0" y="0">RAB4A</tspan></text></a><a  class="GeneProduct GRB2 " transform="translate(1085.2 419.52)"   name="GRB2"  ><rect class="Icon" transform="matrix(.98901 0 0 .96154 .49451 .48077)" width="90" height="25" fill="#fff" stroke="#000"/><text class="Text" transform="translate(45,16.5)"   font-size="12px"  text-anchor="middle"><tspan x="0" y="0">GRB2</tspan></text></a><a  class="GeneProduct TUFM " transform="translate(246.34 159.62)"   name="TUFM"  ><rect class="Icon" transform="matrix(.98765 0 0 .95238 .49383 .47619)" width="80" height="20" fill="#fff" stroke="#000"/><text class="Text" transform="translate(40,14)"   font-size="12px"  text-anchor="middle"><tspan x="0" y="0">TUFM</tspan></text></a><a  class="GeneProduct SPNS1 " transform="translate(1308.8 157.87)"   name="SPNS1"  ><rect class="Icon" transform="matrix(.98765 0 0 .95238 .49383 .47619)" width="80" height="20" fill="#fff" stroke="#000"/><text class="Text" transform="translate(40,14)"   font-size="12px"  text-anchor="middle"><tspan x="0" y="0">SPNS1</tspan></text></a><a  class="GeneProduct SLN " transform="translate(545.55 81.216)"   name="SLN"  ><rect class="Icon" transform="matrix(.98901 0 0 .96154 .49451 .48077)" width="90" height="25" fill="#fff" stroke="#000"/><text class="Text" transform="translate(45,16.5)"   font-size="12px"  text-anchor="middle"><tspan x="0" y="0">SLN</tspan></text></a><a  class="GeneProduct IL4 " transform="translate(1206.2 329.81)"   name="IL4"  ><rect class="Icon" transform="matrix(.98901 0 0 .96154 .49451 .48077)" width="90" height="25" fill="#fff" stroke="#000"/><text class="Text" transform="translate(45,16.5)"   font-size="12px"  text-anchor="middle"><tspan x="0" y="0">IL4</tspan></text></a><a  class="GeneProduct INSR " transform="translate(271.95 372.3)"   name="INSR"  ><rect class="Icon" transform="matrix(.98901 0 0 .96154 .49451 .48077)" width="90" height="25" fill="#fff" stroke="#000"/><text class="Text" transform="translate(45,16.5)"   font-size="12px"  text-anchor="middle"><tspan x="0" y="0">INSR</tspan></text></a><a class="ChEBI_CHEBI_16761 Metabolite  " transform="translate(565.01 216.24)" color="#00f"  name="ADP"  ><rect class="Icon" transform="matrix(.98901 0 0 .96154 .49451 .48077)" width="90" height="25" fill="#fff" stroke="#00f"/><text class="Text" transform="translate(45,16.5)" fill="#00f"  font-size="12px"  text-anchor="middle"><tspan x="0" y="0">ADP</tspan></text></a><a  class="GeneProduct TRAF2 " transform="translate(1205 249.33)"   name="TRAF2"  ><rect class="Icon" transform="matrix(.98901 0 0 .96154 .49451 .48077)" width="90" height="25" fill="#fff" stroke="#000"/><text class="Text" transform="translate(45,16.5)"   font-size="12px"  text-anchor="middle"><tspan x="0" y="0">TRAF2</tspan></text></a><a class="ChEBI_CHEBI_29108 Metabolite  " transform="translate(439.79 241.98)" color="#00f"  name="Ca2+"  ><rect class="Icon" transform="matrix(.98901 0 0 .96154 .49451 .48077)" width="90" height="25" fill="#fff" stroke="#00f"/><text class="Text" transform="translate(45,16.5)" fill="#00f"  font-size="12px"  text-anchor="middle"><tspan x="0" y="0">Ca2+</tspan></text></a><a class="WikiPathways_WP481 Pathway " transform="translate(280.68 425.98)" color="#14961e"  name="Insulin signaling"  ><rect class="Icon" transform="matrix(.9916 0 0 .96154 .4958 .48077)" width="118" height="25" rx="15" ry="15" fill="#fff" stroke="#14961e"/><text class="Text" transform="translate(59,16.5)" fill="#14961e"  font-size="12px" font-weight="bold" stroke="black" stroke-width="0" text-anchor="middle"><tspan x="0" y="0">Insulin signaling</tspan></text></a><g class="GroupComplex" transform="translate(972.18 152.52)" color="grey" ><use class="Icon" transform="matrix(.99346 0 0 .99333 .49673 .49667)" width="152" height="149" fill="#b4b464" fill-opacity=".1" stroke="grey" xlink:href="#i"/><a  class="GeneProduct CD81 " transform="translate(31,62)"   name="CD81"  ><rect class="Icon" transform="matrix(.98901 0 0 .96154 .49451 .48077)" width="90" height="25" fill="#fff" stroke="#000"/><text class="Text" transform="translate(45,16.5)"   font-size="12px"  text-anchor="middle"><tspan x="0" y="0">CD81</tspan></text></a><a  class="GeneProduct IFITM1 " transform="translate(31,112)"   name="IFITM1"  ><rect class="Icon" transform="matrix(.98901 0 0 .96154 .49451 .48077)" width="90" height="25" fill="#fff" stroke="#000"/><text class="Text" transform="translate(45,16.5)"   font-size="12px"  text-anchor="middle"><tspan x="0" y="0">IFITM1</tspan></text></a><a  class="GeneProduct CR2 " transform="translate(31,87)"   name="CR2"  ><rect class="Icon" transform="matrix(.98901 0 0 .96154 .49451 .48077)" width="90" height="25" fill="#fff" stroke="#000"/><text class="Text" transform="translate(45,16.5)"   font-size="12px"  text-anchor="middle"><tspan x="0" y="0">CR2</tspan></text></a><g class="Complex" transform="translate(12,12)" color="#000"  name="CD19/CD21 complex"><rect class="Icon" transform="matrix(.99225 0 0 .96154 .49612 .48077)" width="128" height="25" rx="15" ry="15" fill="#fff" stroke="#000"/><text class="Text" transform="translate(64,16.5)"   font-size="12px"  text-anchor="middle"><tspan x="0" y="0">CD19/CD21 complex</tspan></text></g><a  class="GeneProduct CD19 " transform="translate(31,37)"   name="CD19"  ><rect class="Icon" transform="matrix(.98901 0 0 .96154 .49451 .48077)" width="90" height="25" fill="#fff" stroke="#000"/><text class="Text" transform="translate(45,16.5)"   font-size="12px"  text-anchor="middle"><tspan x="0" y="0">CD19</tspan></text></a></g><g class="GroupComplex" transform="translate(694.89 231.06)" color="grey" ><use class="Icon" transform="matrix(.9913 0 0 .98667 .49565 .49333)" width="114" height="74" fill="#b4b464" fill-opacity=".1" stroke="grey" xlink:href="#i"/><a  class="GeneProduct RABGEF1 " transform="translate(12,12)"   name="RABGEF1"  ><rect class="Icon" transform="matrix(.98901 0 0 .96154 .49451 .48077)" width="90" height="25" fill="#fff" stroke="#000"/><text class="Text" transform="translate(45,16.5)"   font-size="12px"  text-anchor="middle"><tspan x="0" y="0">RABGEF1</tspan></text></a><a  class="GeneProduct RABEP2 " transform="translate(12,37)"   name="RABEP2"  ><rect class="Icon" transform="matrix(.98901 0 0 .96154 .49451 .48077)" width="90" height="25" fill="#fff" stroke="#000"/><text class="Text" transform="translate(45,16.5)"   font-size="12px"  text-anchor="middle"><tspan x="0" y="0">RABEP2</tspan></text></a></g><g id="aq" class="Interaction" color="#000" ><g color="#000" fill="transparent"  filter="url(#a)" stroke="#000" stroke-dasharray="266.25328855220573, 1"><path class="EdgeBody" d="m424.03 179.62v205.18h-62.074"   marker-end="url(#b)" /></g></g><g id="ar" class="Interaction" color="#000" ><g color="#000" fill="transparent"  filter="url(#a)" stroke="#000" stroke-dasharray="17.261604315106062, 11"><path class="EdgeBody" d="m335.16 495.51 1.6574 28.213"   marker-end="url(#d)" /></g></g><g id="as" class="Interaction" color="#000" ><g color="#000" fill="transparent"  filter="url(#a)" stroke="#000" stroke-dasharray="10.280090583356746, 11"><path class="EdgeBody" d="m830.68 428.52 0.4771 21.275"   marker-end="url(#d)" /></g></g><g id="at" class="Interaction" color="#000" ><g color="#000" fill="transparent"  filter="url(#a)" stroke="#000" stroke-dasharray="32.06055050963308, 1"><path class="EdgeBody" d="m858.18 259.52-2 33"   marker-end="url(#b)" /></g></g><g id="au" class="Interaction" color="#000" ><g color="#000" fill="transparent"  filter="url(#a)" stroke="#000" stroke-dasharray="24.019992006393608, 1"><path class="EdgeBody" d="m856.18 317.52 1 25"   marker-end="url(#b)" /></g></g><a class="ChEBI_CHEBI_29108 Metabolite  " transform="translate(565.01 241.24)" color="#00f"  name="Ca2+"  ><rect class="Icon" transform="matrix(.98901 0 0 .96154 .49451 .48077)" width="90" height="25" fill="#fff" stroke="#00f"/><text class="Text" transform="translate(45,16.5)" fill="#00f"  font-size="12px"  text-anchor="middle"><tspan x="0" y="0">Ca2+</tspan></text></a><g class="Label" transform="translate(546.52 283.15)" color="#000"  name="endoplasmatic or sarcoplasmatic reticulum"><use class="Icon" width="130" height="49.5" fill="transparent"  stroke="#000" stroke-width="0" xlink:href="#c"/><text class="Text" transform="translate(65,28.75)"   font-size="12px"  text-anchor="middle"><tspan x="0" y="-13.200000000000001">endoplasmatic or</tspan> <tspan x="0" y="0">sarcoplasmatic</tspan> <tspan x="0" y="13.200000000000001">reticulum</tspan></text></g><g id="av" class="Rhea_18105" color="#000" ><g color="#000" fill="transparent"  filter="url(#a)" stroke="#000" stroke-dasharray="63.5681862831284, 11"><path class="EdgeBody" d="m543.7 179.62 0.17396 74.568"   marker-end="url(#f)" /></g></g><g id="aw" class="Interaction" color="#000" ><g color="#000" fill="transparent"  filter="url(#a)" stroke="#000" stroke-dasharray="94.20775167643163, 1"><path class="EdgeBody" d="m1168.8 177.87v58.965h36.243"   marker-end="url(#b)" /></g></g><g id="ax" class="Interaction" color="#000" ><g color="#000" fill="transparent"  filter="url(#a)" stroke="#000" stroke-dasharray="119.20775167643194, 1"><path class="EdgeBody" d="m1168.8 177.87v83.965h36.243"   marker-end="url(#b)" /></g></g><g id="ay" class="Interaction" color="#000" ><g color="#000" fill="transparent"  filter="url(#a)" stroke="#000" stroke-dasharray="144.20775167643177, 1"><path class="EdgeBody" d="m1168.8 177.87v108.96h36.243"   marker-end="url(#b)" /></g></g><text class="Text" transform="translate(5,27)" dominant-baseline="central" fill="black"  font-size="12px" font-weight="bold" overflow="visible" ><tspan x="0" y="-9">Name: 16p11.2 distal deletion syndrome</tspan> <tspan x="0" y="9">Organism: Homo sapiens</tspan></text></g></svg>
