<?xml version="1.0" encoding="UTF-8"?>
<!--
  WikiPathways page: https://www.wikipathways.org/index.php/Pathway:WP4942
  URL for this compressed file: https://github.com/eweitz/cachome/tree/main/data/wikipathways/WP4942.svg
  Source code for compression: https://github.com/eweitz/cachome/tree/main/src/wikipathways.py
-->
<svg class="Diagram" width="800" height="600" color="black" baseProfile="full" prefix="schema:http://schema.org/" preserveAspectRatio="xMidYMid" version="1.1" viewBox="0 0 1366.7 743.7" vocab="http://vocabularies.wikipathways.org/wp#" xmlns="http://www.w3.org/2000/svg" xmlns:xlink="http://www.w3.org/1999/xlink"><style>svg {font-family: 'Liberation Sans', Arial, sans-serif; }</style><defs><filter id="a" x="0" y="0" width="1366.7" height="743.7" filterUnits="userSpaceOnUse"><feColorMatrix in="SourceGraphic" values="-1   0   0 0 0                   0  -1   0 0 0                   0   0  -1 0 0                   0   0   0 1 0"/></filter><filter id="i" x="0" y="0" width="1366.7" height="743.7" filterUnits="userSpaceOnUse"><feColorMatrix in="SourceGraphic" values="-1   0   0 0 1                   0  -1   0 0 0                   0   0  -1 0 0.2                   0   0   0 1 0"/></filter><marker id="d" stroke-dasharray="99999" markerHeight="12" markerUnits="userSpaceOnUse" markerWidth="12" orient="auto" preserveAspectRatio="none" refX="12" refY="6" viewBox="0 0 12 12"><path transform="rotate(180 6 6)" d="M12 11L0 6l12-5z" fill="currentColor" stroke-width="0"/></marker><marker id="c" stroke-dasharray="99999" markerHeight="12" markerUnits="userSpaceOnUse" markerWidth="12" orient="auto" preserveAspectRatio="none" refX="12" refY="6" viewBox="0 0 12 12"><path transform="rotate(180 6 6)" d="M12 12L0 6l12-6-7 6z" fill="currentColor" stroke-width="0"/></marker><marker id="f" stroke-dasharray="99999" markerHeight="20" markerUnits="userSpaceOnUse" markerWidth="10" orient="auto" preserveAspectRatio="none" refX="10" refY="10" viewBox="0 0 10 20"><path d="m3 0v20" fill="currentColor" stroke="currentColor"/></marker><marker id="e" stroke-dasharray="99999" markerHeight="12" markerUnits="userSpaceOnUse" markerWidth="12" orient="auto" preserveAspectRatio="none" refX="12" refY="6" viewBox="0 0 12 12"><g transform="rotate(180 6 6)" fill="none"><path d="m12 6"/><path d="M0 6l11 5V1z" stroke="#000"/></g></marker><marker id="k" stroke-dasharray="99999" markerHeight="24" markerUnits="userSpaceOnUse" markerWidth="20" orient="auto" preserveAspectRatio="none" refX="20" refY="12" viewBox="0 0 20 24"><g transform="rotate(180 10 12)" fill="none" stroke="#000"><path d="M15 12V5M15.5 5H8M0 5l8-4v8z"/></g></marker><marker id="j" stroke-dasharray="99999" markerHeight="20" markerUnits="userSpaceOnUse" markerWidth="10" orient="auto" preserveAspectRatio="none" refX="10" refY="10" viewBox="0 0 10 20"><path d="m3 0v20" fill="currentColor" stroke="currentColor"/></marker><symbol id="h" overflow="visible" preserveAspectRatio="none" viewBox="0 0 50 50"><ellipse cx="25" cy="25" rx="25" ry="25" stroke="currentColor" vector-effect="non-scaling-stroke"/></symbol><symbol id="g" overflow="visible" preserveAspectRatio="none" viewBox="0 0 50 50"><path d="M14.5 3.3v43.4L61 25z" stroke="currentColor" vector-effect="non-scaling-stroke"/></symbol><symbol id="b" preserveAspectRatio="none" viewBox="0 0 100 100"/></defs><g class="Viewport" color="black"  name="Name: 15q13.3 copy number variation syndrome Organism: Homo sapiens"><rect class="Icon" width="1366.7" height="743.7" fill="#fff" stroke="#000" stroke-width="0"/><g id="l" class="Interaction" color="#000" ><g color="#000" fill="transparent"  filter="url(#a)" stroke="#000" stroke-dasharray="29.798685260741344, 0"><path class="EdgeBody" d="m295.23 196.79-0.91506 29.785"   /></g></g><g id="m" class="Edge GraphicalLine DirectedInteraction" color="#ff0033" ><g color="#ff0033" fill="transparent"  filter="url(#i)" stroke="#000" stroke-dasharray="1112.1677004029862, 5.8"><path class="EdgeBody" d="m186.62 161.94 1118 0.90744"   marker-end="url(#d)" /></g></g><g id="n" class="DirectedInteraction" color="#000" ><g color="#000" fill="transparent"  filter="url(#a)" stroke="#000" stroke-dasharray="51.864047395877314, 5.8"><path class="EdgeBody" d="m375.23 196.79 43.052 38.363"   marker-end="url(#d)" /></g></g><g id="o" class="Interaction" color="#000" ><g color="#000" fill="transparent"  filter="url(#a)" stroke="#000" stroke-dasharray="28.010042841808982, 0"><path class="EdgeBody" d="m600.12 473.19 28-0.75"   /></g></g><g id="p" class="DirectedInteraction" color="#000" ><g color="#000" fill="transparent"  filter="url(#a)" stroke="#000" stroke-dasharray="44.36382712932173, 5.8"><path class="EdgeBody" d="m527.85 197.01-32.574 38.149"   marker-end="url(#d)" /></g></g><g id="q" class="Interaction" color="#000" ><g color="#000" fill="transparent"  filter="url(#a)" stroke="#000" stroke-dasharray="25.250862058715235, 11"><path class="EdgeBody" d="m985.94 615.95-0.25 36.25"   marker-end="url(#e)" /></g></g><g id="r" class="Interaction" color="#000" ><g color="#000" fill="transparent"  filter="url(#a)" stroke="#000" stroke-dasharray="87.62268578723844, 11"><path class="EdgeBody" d="m206.87 563.17 49.155-85.5"   marker-end="url(#e)" /></g></g><g id="s" class="Interaction" color="#000" ><g color="#000" fill="transparent"  filter="url(#a)" stroke="#000" stroke-dasharray="26.514922049737997, 7"><path class="EdgeBody" d="m561.12 516.69-1-33.5"   marker-end="url(#f)" /></g></g><g id="t" class="Interaction" color="#000" ><g color="#000" fill="transparent"  filter="url(#a)" stroke="#000" stroke-dasharray="48.16666666666674, 1"><path class="EdgeBody" d="m934.48 481.75v28.204h20.963"   marker-end="url(#c)" /></g></g><g id="u" class="DirectedInteraction" color="#000" ><g color="#000" fill="transparent"  filter="url(#a)" stroke="#000" stroke-dasharray="28.714489710844585, 5.8"><path class="EdgeBody" d="m847.85 197.01-1 34.5"   marker-end="url(#d)" /></g></g><g id="v" class="Interaction" color="#000" ><g color="#000" fill="transparent"  filter="url(#a)" stroke="#000" stroke-dasharray="77.98570856974331, 0"><path class="EdgeBody" d="m394.49 482.09-4.989 77.826"   /></g></g><g id="w" class="Interaction" color="#000" ><g color="#000" fill="transparent"  filter="url(#a)" stroke="#000" stroke-dasharray="22.017236257093135, 7"><path class="EdgeBody" d="m562.12 570.69-1-29"   marker-end="url(#f)" /></g></g><g id="x" class="Inhibition" color="#000" ><g color="#000" fill="transparent"  filter="url(#a)" stroke="#000" stroke-dasharray="25, 7"><path class="EdgeBody" d="m639.12 583.19h-32"   marker-end="url(#j)" /></g></g><g id="y" class="Interaction" color="#000" ><g color="#000" fill="transparent"  filter="url(#a)" stroke="#000" stroke-dasharray="46.84194372399674, 7"><path class="EdgeBody" d="m1216.7 412.7-22.213 49.046"   marker-end="url(#f)" /></g></g><g id="z" class="Interaction" color="#000" ><g color="#000" fill="transparent"  filter="url(#a)" stroke="#000" stroke-dasharray="97.50350436522059, 11"><path class="EdgeBody" d="m1151.2 590.2 3.287-108.45"   marker-end="url(#e)" /></g></g><g id="aa" class="DirectedInteraction" color="#000" ><g color="#000" fill="transparent"  filter="url(#a)" stroke="#000" stroke-dasharray="51.31610981150587, 5.8"><path class="EdgeBody" d="m1007.9 197.01-20 53.5"   marker-end="url(#d)" /></g></g><g id="ab" class="DirectedInteraction" color="#000" ><g color="#000" fill="transparent"  filter="url(#a)" stroke="#000" stroke-dasharray="120.11666666666567, 5.8"><path class="EdgeBody" d="m1174.5 481.75v84.704h41.213"   marker-end="url(#d)" /></g></g><g id="ac" class="Interaction" color="#000" ><g color="#000" fill="transparent"  filter="url(#a)" stroke="#000" stroke-dasharray="107.45655938830191, 1"><path class="EdgeBody" d="m1174.5 481.75-0.78704 108.45"   marker-end="url(#c)" /></g></g><g id="ad" class="Interaction" color="#000" ><g color="#000" fill="transparent"  filter="url(#a)" stroke="#000" stroke-dasharray="99.89327591569148, 1"><path class="EdgeBody" d="m1027.9 197.01 11.375 100.25"   marker-end="url(#c)" /></g></g><g id="ae" class="Interaction" color="#000" ><g color="#000" fill="transparent"  filter="url(#a)" stroke="#000" stroke-dasharray="36.99999999999966, 11"><path class="EdgeBody" d="m892.94 603.45h48"   marker-end="url(#k)" /></g><g class="Burr Anchor" transform="translate(912.14 603.45)" ><use class="Icon" width="0" height="0" fill="#141414" stroke-width="0" xlink:href="#b"/></g></g><g id="af" class="Interaction" color="#000" ><g color="#000" fill="transparent"  filter="url(#a)" stroke="#000" stroke-dasharray="86.16666666666623, 1"><path class="EdgeBody" d="m1174.5 481.75v45.704h41.463"   marker-end="url(#c)" /></g></g><g id="ag" class="Interaction" color="#000" ><g color="#000" fill="transparent"  filter="url(#a)" stroke="#000" stroke-dasharray="40.952539871025266, 1"><path class="EdgeBody" d="m276.03 477.67 23.145 34.99"   marker-end="url(#c)" /></g></g><g id="ah" class="Interaction" color="#000" ><g color="#000" fill="transparent"  filter="url(#a)" stroke="#000" stroke-dasharray="30.75447015325657, 0"><path class="EdgeBody" d="m257.45 426.95-1.425 30.721"   /></g></g><g id="ai" class="Interaction" color="#000" ><g color="#000" fill="transparent"  filter="url(#a)" stroke="#000" stroke-dasharray="108.1208814244498, 0"><path class="EdgeBody" d="m963.44 615.95-97.25 47.25"   /></g></g><g id="aj" class="Interaction" color="#000" ><g color="#000" fill="transparent"  filter="url(#a)" stroke="#000" stroke-dasharray="110.72614032043904, 11"><path class="EdgeBody" d="m914.48 481.75-2.337 121.7"   marker-end="url(#e)" /></g></g><g id="ak" class="Interaction" color="#000" ><g color="#000" fill="transparent"  filter="url(#a)" stroke="#000" stroke-dasharray="20.468840282160087, 0"><path class="EdgeBody" d="m1094.5 481.75-0.78704 20.454"   /></g></g><g id="al" class="Interaction" color="#000" ><g color="#000" fill="transparent"  filter="url(#a)" stroke="#000" stroke-dasharray="35.511763078000065, 7"><path class="EdgeBody" d="m772.69 481.7-1 42.5"   marker-end="url(#f)" /></g></g><g class="SingleFreeNode Shape" transform="translate(465,59)" color="#000" ><use class="Icon" transform="matrix(.96774 0 0 .96774 .48387 .48387)" width="30" height="30" fill="#ffff33" stroke="#000" xlink:href="#g"/></g><g class="Label" transform="translate(1215.7 551.2)" color="#000"  name="increased Ca2+ flux upon stimulation"><use class="Icon" width="119" height="30.5" fill="transparent"  stroke="#000" stroke-width="0" xlink:href="#b"/><text class="Text" transform="translate(59.5,19.25)"   font-size="12px"  text-anchor="middle"><tspan x="0" y="-6.6000000000000005">increased Ca2+ flux</tspan> <tspan x="0" y="6.6000000000000005">upon stimulation</tspan></text></g><g class="Label" transform="translate(807.69 663.2)" color="#000"  name="recruitment and  stimulation of leukocytes and NKs"><use class="Icon" width="117" height="50.5" fill="transparent"  stroke="#000" stroke-width="0" xlink:href="#b"/><text class="Text" transform="translate(58.5,29.25)"   font-size="12px"  text-anchor="middle"><tspan x="0" y="-13.200000000000001">recruitment and </tspan> <tspan x="0" y="0">stimulation of</tspan> <tspan x="0" y="13.200000000000001">leukocytes and NKs</tspan></text></g><g class="Label" transform="translate(615.12 505.69)" color="#000"  name="Regulation of  photosensitiviy of retina"><use class="Icon" width="101" height="52.5" fill="transparent"  stroke="#000" stroke-width="0" xlink:href="#b"/><text class="Text" transform="translate(50.5,30.25)"   font-size="12px"  text-anchor="middle"><tspan x="0" y="-13.200000000000001">Regulation of </tspan> <tspan x="0" y="0">photosensitiviy</tspan> <tspan x="0" y="13.200000000000001">of retina</tspan></text></g><g class="Label" transform="translate(628.12 455.69)" color="#000"  name="unspecific  cation channel"><use class="Icon" width="86" height="33.5" fill="transparent"  stroke="#000" stroke-width="0" xlink:href="#b"/><text class="Text" transform="translate(43,20.75)"   font-size="12px"  text-anchor="middle"><tspan x="0" y="-6.6000000000000005">unspecific </tspan> <tspan x="0" y="6.6000000000000005">cation channel</tspan></text></g><g class="Label" transform="translate(249.31 226.58)" color="#000"  name="unclear  function"><use class="Icon" width="90" height="25" fill="transparent"  stroke="#000" stroke-width="0" xlink:href="#b"/><text class="Text" transform="translate(45,16.5)"   font-size="12px"  text-anchor="middle"><tspan x="0" y="-6.6000000000000005">unclear </tspan> <tspan x="0" y="6.6000000000000005">function</tspan></text></g><g class="Label" transform="translate(491,57.5)" color="#000"  name="Schizophrenia risk gene"><use class="Icon" width="167" height="31.5" fill="transparent"  stroke="#000" stroke-width="0" xlink:href="#b"/><text class="Text" transform="translate(83.5,19.75)"   font-size="12px"  text-anchor="middle"><tspan x="0" y="0">Schizophrenia risk gene</tspan></text></g><g class="Label" transform="translate(639.12 570.69)" color="#000"  name="light"><use class="Icon" transform="matrix(.97826 0 0 .96154 .48913 .48077)" width="45" height="25" fill="#ffff99" stroke="#000" xlink:href="#h"/><text class="Text" transform="translate(22.5,16.5)"   font-size="12px"  text-anchor="middle"><tspan x="0" y="0">light</tspan></text></g><g class="Label" transform="translate(1030.3 386.72)" color="#ff0033"  name="Chromosome 15:32,500,000"><use class="Icon" width="179.301270417423" height="25" fill="transparent"  stroke="#ff0033" stroke-width="0" xlink:href="#b"/><text class="Text" transform="translate(89.651 16.5)" fill="#ff0033"  font-size="12px" stroke="black" stroke-width="0" text-anchor="middle"><tspan x="0" y="0">Chromosome 15:32,500,000</tspan></text></g><g class="Label" transform="translate(363.35 26.52)" color="#990099"  name="RNA gene"><rect class="Icon" transform="matrix(.98901 0 0 .96154 .49451 .48077)" width="90" height="25" fill="#fff" stroke="#909"/><text class="Text" transform="translate(45,16.5)" fill="#990099"  font-size="12px"  text-anchor="middle"><tspan x="0" y="0">RNA gene</tspan></text></g><g class="Label" transform="translate(379.78 235.15)" color="#000"  name="exact function unclear possibly involved in golgi apparatus organization stacking of cristae"><use class="Icon" width="154" height="75.5" fill="transparent"  stroke="#000" stroke-width="0" xlink:href="#b"/><text class="Text" transform="translate(77,41.75)"   font-size="12px"  text-anchor="middle"><tspan x="0" y="-19.8">exact function unclear</tspan> <tspan x="0" y="-6.6000000000000005">possibly involved in golgi</tspan> <tspan x="0" y="6.6000000000000005">apparatus organization</tspan> <tspan x="0" y="19.8">stacking of cristae</tspan></text></g><g class="Label" transform="translate(178.83 126.75)" color="#ff0033"  name="Chromosome 15:30,500,00"><use class="Icon" width="170.22686025408342" height="25" fill="transparent"  stroke="#ff0033" stroke-width="0" xlink:href="#b"/><text class="Text" transform="translate(85.113 16.5)" fill="#ff0033"  font-size="12px" stroke="black" stroke-width="0" text-anchor="middle"><tspan x="0" y="0">Chromosome 15:30,500,00</tspan></text></g><g class="Label" transform="translate(726.69 524.2)" color="#000"  name="tumor growth"><use class="Icon" width="90" height="25" fill="transparent"  stroke="#000" stroke-width="0" xlink:href="#b"/><text class="Text" transform="translate(45,16.5)"   font-size="12px"  text-anchor="middle"><tspan x="0" y="0">tumor growth</tspan></text></g><g class="Label" transform="translate(942.85 250.51)" color="#000"  name="neocortex  development"><use class="Icon" width="90" height="25" fill="transparent"  stroke="#000" stroke-width="0" xlink:href="#b"/><text class="Text" transform="translate(45,16.5)"   font-size="12px"  text-anchor="middle"><tspan x="0" y="-6.6000000000000005">neocortex </tspan> <tspan x="0" y="6.6000000000000005">development</tspan></text></g><g class="Label" transform="translate(1048.7 502.2)" color="#000"  name="dendritic growth neuronal  development ASD risk gene"><use class="Icon" width="90" height="72.5" fill="transparent"  stroke="#000" stroke-width="0" xlink:href="#b"/><text class="Text" transform="translate(45,40.25)"   font-size="12px"  text-anchor="middle"><tspan x="0" y="-19.8">dendritic growth</tspan> <tspan x="0" y="-6.6000000000000005">neuronal </tspan> <tspan x="0" y="6.6000000000000005">development</tspan> <tspan x="0" y="19.8">ASD risk gene</tspan></text></g><g class="Label" transform="translate(565,26.5)" color="#000"  name="ubiquitinated protein"><use class="Icon" width="131" height="25" fill="transparent"  stroke="#000" stroke-width="0" xlink:href="#b"/><text class="Text" transform="translate(65.5,16.5)"   font-size="12px"  text-anchor="middle"><tspan x="0" y="0">ubiquitinated protein</tspan></text></g><g class="Label" transform="translate(249.5 559.91)" color="#000"  name="Function unclear Inactive phosphatidyl- inositol 3-phosphatase 10 Source: https://www.uniprot.org/uniprot/Q9NXD2"><use class="Icon" width="280" height="56.5" fill="transparent"  stroke="#000" stroke-width="0" xlink:href="#b"/><text class="Text" transform="translate(140,32.25)"   font-size="12px"  text-anchor="middle"><tspan x="0" y="-19.8">Function unclear</tspan> <tspan x="0" y="-6.6000000000000005">Inactive phosphatidyl-</tspan> <tspan x="0" y="6.6000000000000005">inositol 3-phosphatase 10</tspan> <tspan x="0" y="19.8">Source: https://www.uniprot.org/uniprot/Q9NXD2</tspan></text></g><a class="GeneProduct RN7SL796P " transform="translate(567.85 177.01)" color="#666666"  name="RN7SL796P"  ><rect class="Icon" transform="matrix(.98765 0 0 .95238 .49383 .47619)" width="80" height="20" fill="#fff" stroke="#666"/><text class="Text" transform="translate(40,14)" fill="#666666"  font-size="12px"  text-anchor="middle"><tspan x="0" y="0">RN7SL796P</tspan></text></a><a class="GeneProduct DNM1P50 " transform="translate(647.85 177.01)" color="#666666"  name="DNM1P50"  ><rect class="Icon" transform="matrix(.98765 0 0 .95238 .49383 .47619)" width="80" height="20" fill="#fff" stroke="#666"/><text class="Text" transform="translate(40,14)" fill="#666666"  font-size="12px"  text-anchor="middle"><tspan x="0" y="0">DNM1P50</tspan></text></a><a class="GeneProduct ULK4P2 " transform="translate(727.85 177.01)" color="#666666"  name="ULK4P2"  ><rect class="Icon" transform="matrix(.98765 0 0 .95238 .49383 .47619)" width="80" height="20" fill="#fff" stroke="#666"/><text class="Text" transform="translate(40,14)" fill="#666666"  font-size="12px"  text-anchor="middle"><tspan x="0" y="0">ULK4P2</tspan></text></a><a class="GeneProduct RN7SL628P " transform="translate(887.85 177.01)" color="#666666"  name="RN7SL628P"  ><rect class="Icon" transform="matrix(.98765 0 0 .95238 .49383 .47619)" width="80" height="20" fill="#fff" stroke="#666"/><text class="Text" transform="translate(40,14)" fill="#666666"  font-size="12px"  text-anchor="middle"><tspan x="0" y="0">RN7SL628P</tspan></text></a><a class="GeneProduct GOLGA8UP " transform="translate(1047.9 177.01)" color="#666666"  name="GOLGA8UP"  ><rect class="Icon" transform="matrix(.98765 0 0 .95238 .49383 .47619)" width="80" height="20" fill="#fff" stroke="#666"/><text class="Text" transform="translate(40,14)" fill="#666666"  font-size="12px"  text-anchor="middle"><tspan x="0" y="0">GOLGA8UP</tspan></text></a><a class="GeneProduct RN7SL82P " transform="translate(1127.9 177.01)" color="#666666"  name="RN7SL82P"  ><rect class="Icon" transform="matrix(.98765 0 0 .95238 .49383 .47619)" width="80" height="20" fill="#fff" stroke="#666"/><text class="Text" transform="translate(40,14)" fill="#666666"  font-size="12px"  text-anchor="middle"><tspan x="0" y="0">RN7SL82P</tspan></text></a><a class="GeneProduct HERC2P10 " transform="translate(1207.9 177.01)" color="#666666"  name="HERC2P10"  ><rect class="Icon" transform="matrix(.98765 0 0 .95238 .49383 .47619)" width="80" height="20" fill="#fff" stroke="#666"/><text class="Text" transform="translate(40,14)" fill="#666666"  font-size="12px"  text-anchor="middle"><tspan x="0" y="0">HERC2P10</tspan></text></a><a class="GeneProduct -466P RNU6-466P -466P " transform="translate(440.12 463.19)" color="#666666"  name="RNU6-466P"  ><rect class="Icon" transform="matrix(.98765 0 0 .95238 .49383 .47619)" width="80" height="20" fill="#fff" stroke="#666"/><text class="Text" transform="translate(40,14)" fill="#666666"  font-size="12px"  text-anchor="middle"><tspan x="0" y="0">RNU6-466P</tspan></text></a><a class="GeneProduct LINC02352 " transform="translate(815.48 461.75)" color="#990099"  name="LINC02352"  ><rect class="Icon" transform="matrix(.98765 0 0 .95238 .49383 .47619)" width="80" height="20" fill="#fff" stroke="#909"/><text class="Text" transform="translate(40,14)" fill="#990099"  font-size="12px"  text-anchor="middle"><tspan x="0" y="0">LINC02352</tspan></text></a><a class="GeneProduct UBE2CP4 " transform="translate(974.48 461.75)" color="#666666"  name="UBE2CP4"  ><rect class="Icon" transform="matrix(.98765 0 0 .95238 .49383 .47619)" width="80" height="20" fill="#fff" stroke="#666"/><text class="Text" transform="translate(40,14)" fill="#666666"  font-size="12px"  text-anchor="middle"><tspan x="0" y="0">UBE2CP4</tspan></text></a><a class="GeneProduct -18P RNU6-18P -18P " transform="translate(1214.5 461.75)" color="#666666"  name="RNU6-18P"  ><rect class="Icon" transform="matrix(.98765 0 0 .95238 .49383 .47619)" width="80" height="20" fill="#fff" stroke="#666"/><text class="Text" transform="translate(40,14)" fill="#666666"  font-size="12px"  text-anchor="middle"><tspan x="0" y="0">RNU6-18P</tspan></text></a><a class="GeneProduct -17P RNU6-17P -17P " transform="translate(175.23 176.79)" color="#666666"  name="RNU6-17P"  ><rect class="Icon" transform="matrix(.98765 0 0 .95238 .49383 .47619)" width="80" height="20" fill="#fff" stroke="#666"/><text class="Text" transform="translate(40,14)" fill="#666666"  font-size="12px"  text-anchor="middle"><tspan x="0" y="0">RNU6-17P</tspan></text></a><a class="GeneProduct RN7SL196P " transform="translate(415.23 176.79)" color="#666666"  name="RN7SL196P"  ><rect class="Icon" transform="matrix(.98765 0 0 .95238 .49383 .47619)" width="80" height="20" fill="#fff" stroke="#666"/><text class="Text" transform="translate(40,14)" fill="#666666"  font-size="12px"  text-anchor="middle"><tspan x="0" y="0">RN7SL196P</tspan></text></a><a  class="GeneProduct KLF13 " transform="translate(894.48 461.75)"   name="KLF13"  ><rect class="Icon" transform="matrix(.98765 0 0 .95238 .49383 .47619)" width="80" height="20" fill="#fff" stroke="#000"/><text class="Text" transform="translate(40,14)"   font-size="12px"  text-anchor="middle"><tspan x="0" y="0">KLF13</tspan></text></a><g class="WikiPathways_WP3569 Pathway" transform="translate(183.45 404.45)" color="#14961e"  name="Fanconi Anemia Pathway"><rect class="Icon" transform="matrix(.99329 0 0 .95745 .49664 .47872)" width="148" height="22.5" rx="15" ry="15" fill="#fff" stroke="#14961e"/><text class="Text" transform="translate(74,15.25)" fill="#14961e"  font-size="12px" font-weight="bold" stroke="black" stroke-width="0" text-anchor="middle"><tspan x="0" y="0">Fanconi Anemia Pathway</tspan></text></g><a  class="GeneProduct CHRNA7 " transform="translate(1134.5 461.75)"   name="CHRNA7"  ><rect class="Icon" transform="matrix(.98765 0 0 .95238 .49383 .47619)" width="80" height="20" fill="#fff" stroke="#000"/><text class="Text" transform="translate(40,14)"   font-size="12px"  text-anchor="middle"><tspan x="0" y="0">CHRNA7</tspan></text></a><a  class="GeneProduct MTMR10 " transform="translate(354.49 462.09)"   name="MTMR10"  ><rect class="Icon" transform="matrix(.98765 0 0 .95238 .49383 .47619)" width="80" height="20" fill="#fff" stroke="#000"/><text class="Text" transform="translate(40,14)"   font-size="12px"  text-anchor="middle"><tspan x="0" y="0">MTMR10</tspan></text></a><a  class="GeneProduct GPR75 " transform="translate(940.69 652.2)"   name="GPR75"  ><rect class="Icon" transform="matrix(.98901 0 0 .96154 .49451 .48077)" width="90" height="25" fill="#fff" stroke="#000"/><text class="Text" transform="translate(45,16.5)"   font-size="12px"  text-anchor="middle"><tspan x="0" y="0">GPR75</tspan></text></a><a class="ChEBI_CHEBI_16991 Metabolite  " transform="translate(254.17 512.66)" color="#00f"  name="DNA"  ><rect class="Icon" transform="matrix(.98901 0 0 .96154 .49451 .48077)" width="90" height="25" fill="#fff" stroke="#00f"/><text class="Text" transform="translate(45,16.5)" fill="#00f"  font-size="12px"  text-anchor="middle"><tspan x="0" y="0">DNA</tspan></text></a><a  class="GeneProduct GOLGA8R " transform="translate(335.23 176.79)"   name="GOLGA8R"  ><rect class="Icon" transform="matrix(.98765 0 0 .95238 .49383 .47619)" width="80" height="20" fill="#fff" stroke="#000"/><text class="Text" transform="translate(40,14)"   font-size="12px"  text-anchor="middle"><tspan x="0" y="0">GOLGA8R</tspan></text></a><a class="ChEBI_CHEBI_15355 Metabolite  " transform="translate(1128.7 590.2)" color="#00f"  name="Acetylcholine"  ><rect class="Icon" transform="matrix(.98901 0 0 .96154 .49451 .48077)" width="90" height="25" fill="#fff" stroke="#00f"/><text class="Text" transform="translate(45,16.5)" fill="#00f"  font-size="12px"  text-anchor="middle"><tspan x="0" y="0">Acetylcholine</tspan></text></a><a  class="GeneProduct CREBBP " transform="translate(955.44 497.45)"   name="CREBBP"  ><rect class="Icon" transform="matrix(.98901 0 0 .96154 .49451 .48077)" width="90" height="25" fill="#fff" stroke="#000"/><text class="Text" transform="translate(45,16.5)"   font-size="12px"  text-anchor="middle"><tspan x="0" y="0">CREBBP</tspan></text></a><a  class="GeneProduct TRPM1 " transform="translate(520.12 463.19)"   name="TRPM1"  ><rect class="Icon" transform="matrix(.98765 0 0 .95238 .49383 .47619)" width="80" height="20" fill="#fff" stroke="#000"/><text class="Text" transform="translate(40,14)"   font-size="12px"  text-anchor="middle"><tspan x="0" y="0">TRPM1</tspan></text></a><a  class="GeneProduct FANCD2 " transform="translate(161.87 563.17)"   name="FANCD2"  ><rect class="Icon" transform="matrix(.98901 0 0 .96154 .49451 .48077)" width="90" height="25" fill="#fff" stroke="#000"/><g class="Burr State" transform="translate(82.5,17.5)" color="#000" ><use class="Icon" transform="matrix(.9375 0 0 .9375 .46875 .46875)" width="15" height="15" fill="#fff" stroke="#000" xlink:href="#h"/></g><text class="Text" transform="translate(45,16.5)"   font-size="12px"  text-anchor="middle"><tspan x="0" y="0">FANCD2</tspan></text></a><a  class="GeneProduct OTUD7A " transform="translate(1054.5 461.75)"   name="OTUD7A"  ><rect class="Icon" transform="matrix(.98765 0 0 .95238 .49383 .47619)" width="80" height="20" fill="#fff" stroke="#000"/><text class="Text" transform="translate(40,14)"   font-size="12px"  text-anchor="middle"><tspan x="0" y="0">OTUD7A</tspan></text></a><a class="ChEBI_CHEBI_14321 Metabolite  " transform="translate(517.12 570.69)" color="#00f"  name="glutamate"  ><rect class="Icon" transform="matrix(.98901 0 0 .96154 .49451 .48077)" width="90" height="25" fill="#fff" stroke="#00f"/><text class="Text" transform="translate(45,16.5)" fill="#00f"  font-size="12px"  text-anchor="middle"><tspan x="0" y="0">glutamate</tspan></text></a><a  class="GeneProduct GOLGA8Q " transform="translate(487.85 177.01)"   name="GOLGA8Q"  ><rect class="Icon" transform="matrix(.98765 0 0 .95238 .49383 .47619)" width="80" height="20" fill="#fff" stroke="#000"/><text class="Text" transform="translate(40,14)"   font-size="12px"  text-anchor="middle"><tspan x="0" y="0">GOLGA8Q</tspan></text></a><a class="miRBase_Sequence_MI0000287 Rna MIR211 " transform="translate(732.69 461.7)" color="#990099"  name="hsa-mir-211"  ><rect class="Icon" transform="matrix(.98765 0 0 .95238 .49383 .47619)" width="80" height="20" fill="#fff" stroke="#909"/><text class="Text" transform="translate(40,14)" fill="#990099"  font-size="12px"  text-anchor="middle"><tspan x="0" y="0">hsa-mir-211</tspan></text></a><a  class="GeneProduct CHRFAM7A " transform="translate(255.23 176.79)"   name="CHRFAM7A"  ><rect class="Icon" transform="matrix(.98765 0 0 .95238 .49383 .47619)" width="80" height="20" fill="#fff" stroke="#000"/><text class="Text" transform="translate(40,14)"   font-size="12px"  text-anchor="middle"><tspan x="0" y="0">CHRFAM7A</tspan></text></a><a  class="GeneProduct " transform="translate(967.85 177.01)"   name="ARHGAP11B"  ><rect class="Icon" transform="matrix(.98765 0 0 .95238 .49383 .47619)" width="80" height="20" fill="#fff" stroke="#000"/><text class="Text" transform="translate(40,14)"   font-size="12px"  text-anchor="middle"><tspan x="0" y="0">ARHGAP11B</tspan></text></a><a  class="GeneProduct CCL5 " transform="translate(802.94 590.95)"   name="CCL5"  ><rect class="Icon" transform="matrix(.98901 0 0 .96154 .49451 .48077)" width="90" height="25" fill="#fff" stroke="#000"/><text class="Text" transform="translate(45,16.5)"   font-size="12px"  text-anchor="middle"><tspan x="0" y="0">CCL5</tspan></text></a><a  class="GeneProduct FAN1 " transform="translate(216.03 457.67)"   name="FAN1"  ><rect class="Icon" transform="matrix(.98765 0 0 .95238 .49383 .47619)" width="80" height="20" fill="#fff" stroke="#000"/><text class="Text" transform="translate(40,14)"   font-size="12px"  text-anchor="middle"><tspan x="0" y="0">FAN1</tspan></text></a><a  class="Pfam_PF00153 GeneProduct " transform="translate(972.6 297.26)"   name="ADP/ATP translocases"  ><rect class="Icon" transform="matrix(.99255 0 0 .96154 .49628 .48077)" width="133.25" height="25" fill="#fff" stroke="#000"/><text class="Text" transform="translate(66.625,16.5)"   font-size="12px"  text-anchor="middle"><tspan x="0" y="0">ADP/ATP translocases</tspan></text></a><a class="Metabolite" transform="translate(1216.7 400.2)" color="#00f"  name="Alpha-Bungarotoxin"  ><rect class="Icon" transform="matrix(.99174 0 0 .96154 .49587 .48077)" width="120" height="25" fill="#fff" stroke="#00f"/><text class="Text" transform="translate(60,16.5)" fill="#00f"  font-size="12px"  text-anchor="middle"><tspan x="0" y="0">Alpha-Bungarotoxin</tspan></text></a><a  class="GeneProduct GOLGA8H " transform="translate(807.85 177.01)"   name="GOLGA8H"  ><rect class="Icon" transform="matrix(.98765 0 0 .95238 .49383 .47619)" width="80" height="20" fill="#fff" stroke="#000"/><text class="Text" transform="translate(40,14)"   font-size="12px"  text-anchor="middle"><tspan x="0" y="0">GOLGA8H</tspan></text></a><a  class="GeneProduct FYN " transform="translate(1215.9 514.95)"   name="FYN"  ><rect class="Icon" transform="matrix(.98901 0 0 .96154 .49451 .48077)" width="90" height="25" fill="#fff" stroke="#000"/><text class="Text" transform="translate(45,16.5)"   font-size="12px"  text-anchor="middle"><tspan x="0" y="0">FYN</tspan></text></a><a  class="GeneProduct GRM6 " transform="translate(516.12 516.69)"   name="GRM6"  ><rect class="Icon" transform="matrix(.98901 0 0 .96154 .49451 .48077)" width="90" height="25" fill="#fff" stroke="#000"/><text class="Text" transform="translate(45,16.5)"   font-size="12px"  text-anchor="middle"><tspan x="0" y="0">GRM6</tspan></text></a><g class="Label" transform="translate(362.21 55.538)" color="#666666"  name="pseudo gene"><rect class="Icon" transform="matrix(.98901 0 0 .96154 .49451 .48077)" width="90" height="25" fill="#fff" stroke="#666"/><text class="Text" transform="translate(45,16.5)" fill="#666666"  font-size="12px"  text-anchor="middle"><tspan x="0" y="0">pseudo gene</tspan></text></g><g id="am" class="Edge GraphicalLine DirectedInteraction" color="#ff0033" ><g color="#ff0033" fill="transparent"  filter="url(#i)" stroke="#000" stroke-dasharray="1107.2133863654128, 5.8"><path class="EdgeBody" d="m207.61 445.05 1113 1.2323"   marker-end="url(#d)" /></g></g><g class="Label" transform="translate(769.85 231.51)" color="#000"  name="exact function unclear possibly involved in golgi apparatus organization stacking of cristae"><use class="Icon" width="154" height="75.5" fill="transparent"  stroke="#000" stroke-width="0" xlink:href="#b"/><text class="Text" transform="translate(77,41.75)"   font-size="12px"  text-anchor="middle"><tspan x="0" y="-19.8">exact function unclear</tspan> <tspan x="0" y="-6.6000000000000005">possibly involved in golgi</tspan> <tspan x="0" y="6.6000000000000005">apparatus organization</tspan> <tspan x="0" y="19.8">stacking of cristae</tspan></text></g><g class="Label" transform="translate(237.56 578.27)" color="#000"  name="U"><use class="Icon" width="25" height="25" fill="transparent"  stroke="#000" stroke-width="0" xlink:href="#b"/><text class="Text" transform="translate(12.5,16.5)"   font-size="12px"  text-anchor="middle"><tspan x="0" y="0">U</tspan></text></g><a  class="GeneProduct FANCD2 " transform="translate(470,27.5)"   name="FANCD2"  ><rect class="Icon" transform="matrix(.98901 0 0 .96154 .49451 .48077)" width="90" height="25" fill="#fff" stroke="#000"/><g class="Burr State" transform="translate(82.5,17.5)" color="#000" ><use class="Icon" transform="matrix(.9375 0 0 .9375 .46875 .46875)" width="15" height="15" fill="#fff" stroke="#000" xlink:href="#h"/></g><text class="Text" transform="translate(45,16.5)"   font-size="12px"  text-anchor="middle"><tspan x="0" y="0">FANCD2</tspan></text></a><g class="Label" transform="translate(549,42.5)" color="#000"  name="U"><use class="Icon" width="25" height="25" fill="transparent"  stroke="#000" stroke-width="0" xlink:href="#b"/><text class="Text" transform="translate(12.5,16.5)"   font-size="12px"  text-anchor="middle"><tspan x="0" y="0">U</tspan></text></g><g class="SingleFreeNode Shape" transform="translate(122.21 577.23) rotate(-52.306 15 15)" color="#000" ><use class="Icon" transform="matrix(.96774 0 0 .96774 .48387 .48387)" width="30" height="30" fill="#ffff33" stroke="#000" xlink:href="#g"/></g><g class="SingleFreeNode Shape" transform="translate(1139.7 422.7) rotate(92.386 15 15)" color="#000" ><use class="Icon" transform="matrix(.96774 0 0 .96774 .48387 .48387)" width="30" height="30" fill="#ffff33" stroke="#000" xlink:href="#g"/></g><a  class="GeneProduct CCL5 " transform="translate(940.94 590.95)"   name="CCL5"  ><rect class="Icon" transform="matrix(.98901 0 0 .96154 .49451 .48077)" width="90" height="25" fill="#fff" stroke="#000"/><text class="Text" transform="translate(45,16.5)"   font-size="12px"  text-anchor="middle"><tspan x="0" y="0">CCL5</tspan></text></a><a  class="GeneProduct SERPINH1 " transform="translate(955.44 522.45)"   name="SERPINH1"  ><rect class="Icon" transform="matrix(.98901 0 0 .96154 .49451 .48077)" width="90" height="25" fill="#fff" stroke="#000"/><text class="Text" transform="translate(45,16.5)"   font-size="12px"  text-anchor="middle"><tspan x="0" y="0">SERPINH1</tspan></text></a><a  class="GeneProduct KAT2B " transform="translate(955.44 547.45)"   name="KAT2B"  ><rect class="Icon" transform="matrix(.98901 0 0 .96154 .49451 .48077)" width="90" height="25" fill="#fff" stroke="#000"/><text class="Text" transform="translate(45,16.5)"   font-size="12px"  text-anchor="middle"><tspan x="0" y="0">KAT2B</tspan></text></a><g id="an" class="Interaction" color="#000" ><g color="#000" fill="transparent"  filter="url(#a)" stroke="#000" stroke-dasharray="73.16666666666674, 1"><path class="EdgeBody" d="m934.48 481.75v53.204h20.963"   marker-end="url(#c)" /></g></g><g id="ao" class="Interaction" color="#000" ><g color="#000" fill="transparent"  filter="url(#a)" stroke="#000" stroke-dasharray="98.16666666666617, 1"><path class="EdgeBody" d="m934.48 481.75v78.204h20.963"   marker-end="url(#c)" /></g></g><text class="Text" transform="translate(5,27)" dominant-baseline="central" fill="black"  font-size="12px" font-weight="bold" overflow="visible" ><tspan x="0" y="-9">Name: 15q13.3 copy number variation syndrome</tspan> <tspan x="0" y="9">Organism: Homo sapiens</tspan></text></g></svg>
