<?xml version="1.0" encoding="UTF-8"?>
<!--
  WikiPathways page: https://www.wikipathways.org/index.php/Pathway:WP4925
  URL for this compressed file: https://github.com/eweitz/cachome/tree/main/data/wikipathways/WP4925.svg
  Source code for compression: https://github.com/eweitz/cachome/tree/main/src/wikipathways.py
-->
<svg class="Diagram" width="800" height="600" color="black" baseProfile="full" prefix="schema:http://schema.org/" preserveAspectRatio="xMidYMid" version="1.1" viewBox="0 0 1200.4 928.07" vocab="http://vocabularies.wikipathways.org/wp#" xmlns="http://www.w3.org/2000/svg" xmlns:xlink="http://www.w3.org/1999/xlink"><style>svg {font-family: 'Liberation Sans', Arial, sans-serif; }</style><defs><filter id="h" x="-50%" y="-50%" width="200%" height="200%"><feComposite in="SourceGraphic" in2="SourceGraphic" result="doubleDark"/><feMorphology in="doubleDark" operator="dilate" radius="0.16666666666666666" result="in2Double"/><feMorphology in="SourceGraphic" operator="dilate" radius="3" result="inDouble"/><feComposite in="inDouble" in2="in2Double" operator="out" result="doubleResult"/></filter><filter id="a" x="0" y="0" width="1200.4" height="928.07" filterUnits="userSpaceOnUse"><feColorMatrix in="SourceGraphic" values="-1   0   0 0 0                   0  -1   0 0 0                   0   0  -1 0 0                   0   0   0 1 0"/></filter><marker id="d" stroke-dasharray="99999" markerHeight="12" markerUnits="userSpaceOnUse" markerWidth="12" orient="auto" preserveAspectRatio="none" refX="12" refY="6" viewBox="0 0 12 12"><path transform="rotate(180 6 6)" d="M12 11L0 6l12-5z" fill="currentColor" stroke-width="0"/></marker><marker id="g" stroke-dasharray="99999" markerHeight="30" markerUnits="userSpaceOnUse" markerWidth="20" orient="auto" preserveAspectRatio="none" refX="20" refY="15" viewBox="0 0 20 30"><g transform="rotate(180 10 15)" stroke="#000"><path d="m18 14.5v15.5l-18-30"/></g></marker><marker id="b" stroke-dasharray="99999" markerHeight="12" markerUnits="userSpaceOnUse" markerWidth="12" orient="auto" preserveAspectRatio="none" refX="12" refY="6" viewBox="0 0 12 12"><path transform="rotate(180 6 6)" d="M12 11L0 6l12-5z" fill="currentColor" stroke-width="0"/></marker><marker id="f" stroke-dasharray="99999" markerHeight="20" markerUnits="userSpaceOnUse" markerWidth="10" orient="auto" preserveAspectRatio="none" refX="10" refY="10" viewBox="0 0 10 20"><path d="m3 0v20" fill="currentColor" stroke="currentColor"/></marker><marker id="e" stroke-dasharray="99999" markerHeight="24" markerUnits="userSpaceOnUse" markerWidth="20" orient="auto" preserveAspectRatio="none" refX="20" refY="12" viewBox="0 0 20 24"><g transform="rotate(180 10 12)" fill="none" stroke="#000"><path d="M15 12V5M15.5 5H8M0 5l8-4v8z"/></g></marker><symbol id="j" overflow="visible" preserveAspectRatio="none" viewBox="0 0 50 50"><ellipse cx="25" cy="25" rx="25" ry="25" stroke="currentColor" vector-effect="non-scaling-stroke"/></symbol><symbol id="i" overflow="visible" preserveAspectRatio="none" viewBox="0 0 100 100"><path d="M58.467 27.713c-22.205-29.9 37.31-30.258 25.567-4.823-8.807 18.581-17.066 58.135-.941 99.22 13.314 27.067-41.749 27.761-27.756-1.47 11.346-29.42 10.287-80.336 3.13-92.927z" stroke="currentColor" vector-effect="non-scaling-stroke"/><path d="M31.214 36.214c-10.791-21.428 29.898-19.848 18.408.671-4.067 7.423-5.783 61.573 1.16 75.03 8.53 18.596-32.852 19.354-20.5-2.252 6.953-17.358 10.474-52.29.932-73.449z" stroke="currentColor" vector-effect="non-scaling-stroke"/><path d="M29.804 52.16c1.584 11.476 2.723 16.738-1.483 38.362-3.732 12.99-3.6 16.341-11.732 19.413-6.684 1.659-11.865-9.79-4.794-16.114 4.856-5.623 6.141-10.882 6.66-22.954-.24-9.522.814-15.824-5.368-19.959C5.463 48.713 7 34.373 17.911 37.044c5.85 1.027 10.283 8.562 11.893 15.117z" stroke="currentColor" vector-effect="non-scaling-stroke"/></symbol><symbol id="c" preserveAspectRatio="none" viewBox="0 0 100 100"/></defs><g class="Viewport" color="black"  name="Name: Unfolded protein response Organism: Homo sapiens"><rect class="Icon" width="1200.4" height="928.07" fill="#fff" stroke="#000" stroke-width="0"/><g id="k" class="Interaction" color="#000" ><g color="#000" fill="transparent"  filter="url(#a)" stroke="#000" stroke-dasharray="36.82890762294887, 5.8"><path class="EdgeBody" d="m870.42 726.58 1.4085 42.606"   marker-end="url(#b)" /></g></g><g id="l" class="Edge GraphicalLine" color="#000" ><g color="#000" fill="transparent"  filter="url(#a)" stroke="#000" stroke-dasharray="1069.7218853349602, 0" stroke-width="3"><path class="EdgeBody" d="m71.141 210.74 1069.7 6.1632"   /></g></g><g id="m" class="Interaction" color="#000" ><g color="#000" fill="transparent"  filter="url(#a)" stroke="#000" stroke-dasharray="190.49970750201413, 5.8"><path class="EdgeBody" d="m243.61 343.35 1.42e-12 196.3"   marker-end="url(#b)" /></g></g><g id="n" class="DirectedInteraction" color="#000" ><g color="#000" fill="transparent"  filter="url(#a)" stroke="#000" stroke-dasharray="28.265710230321854, 5.8"><path class="EdgeBody" d="m512.67 494.33 9.8607 32.607"   marker-end="url(#d)" /></g></g><g id="o" class="Interaction" color="#000" ><g color="#000" fill="transparent"  filter="url(#a)" stroke="#000" stroke-dasharray="81.29784379046548, 5.8"><path class="EdgeBody" d="m203.41 169.63 40.195 77.268"   marker-end="url(#b)" /></g></g><g id="p" class="Interaction" color="#000" ><g color="#000" fill="transparent"  filter="url(#a)" stroke="#000" stroke-dasharray="89.60724281660944, 5.8"><path class="EdgeBody" d="m415.28 717.81 95.396 1.4738"   marker-end="url(#b)" /></g></g><g id="q" class="Interaction" color="#000" ><g color="#000" fill="transparent"  filter="url(#a)" stroke="#000" stroke-dasharray="166.77730707414688, 5.8"><path class="EdgeBody" d="m534.07 427.17 158.96 67.198"   marker-end="url(#b)" /></g></g><g id="r" class="Interaction" color="#000" ><g color="#000" fill="transparent"  filter="url(#a)" stroke="#000" stroke-dasharray="270.6961143229656, 5.8"><path class="EdgeBody" d="m370.28 548.39v-276.5"   marker-end="url(#b)" /></g></g><g id="s" class="Interaction" color="#000" ><g color="#000" fill="transparent"  filter="url(#a)" stroke="#000" stroke-dasharray="36.375915146964815, 5.8"><path class="EdgeBody" d="m511.57 427.17 1.1033 42.161"   marker-end="url(#b)" /></g></g><g id="t" class="Interaction" color="#000" ><g color="#000" fill="transparent"  filter="url(#a)" stroke="#000" stroke-dasharray="35.528957300440155, 5.8"><path class="EdgeBody" d="m711.64 343.35 1e-13 41.329"   marker-end="url(#b)" /></g></g><g id="u" class="Interaction" color="#000" ><g color="#000" fill="transparent"  filter="url(#a)" stroke="#000" stroke-dasharray="48.134388021108066, 7"><path class="EdgeBody" d="m289.82 621.74 35.457 42.221"   marker-end="url(#f)" /></g></g><g id="v" class="Interaction" color="#000" ><g color="#000" fill="transparent"  filter="url(#a)" stroke="#000" stroke-dasharray="89.60724281660944, 5.8"><path class="EdgeBody" d="m415.28 767.74 95.396 1.4738"   marker-end="url(#b)" /></g></g><g id="w" class="Interaction" color="#000" ><g color="#000" fill="transparent"  filter="url(#a)" stroke="#000" stroke-dasharray="45.421272351341656, 11"><path class="EdgeBody" d="m289.82 773.99 35.457 43.888"   marker-end="url(#e)" /></g></g><g id="x" class="Interaction" color="#000" ><g color="#000" fill="transparent"  filter="url(#a)" stroke="#000" stroke-dasharray="24.456760048721094, 11"><path class="EdgeBody" d="m289.82 767.74 35.457-2e-13"   marker-end="url(#e)" /></g></g><g id="y" class="Interaction" color="#000" ><g color="#000" fill="transparent"  filter="url(#a)" stroke="#000" stroke-dasharray="30.101339829476057, 5.8"><path class="EdgeBody" d="m711.64 113.6v35.901"   marker-end="url(#b)" /></g></g><g id="z" class="Interaction" color="#000" ><g color="#000" fill="transparent"  filter="url(#a)" stroke="#000" stroke-dasharray="19.904225352112757, 5.8"><path class="EdgeBody" d="m870.42 675.88 1e-13 25.704"   marker-end="url(#b)" /></g></g><g id="aa" class="Interaction" color="#000" ><g color="#000" fill="transparent"  filter="url(#a)" stroke="#000" stroke-dasharray="44.04270021520037, 11"><path class="EdgeBody" d="m289.82 609.24 35.457-42.101"   marker-end="url(#e)" /></g></g><g id="ab" class="Interaction" color="#000" ><g color="#000" fill="transparent"  filter="url(#a)" stroke="#000" stroke-dasharray="25.00339335607965, 11"><path class="EdgeBody" d="m289.82 615.49 35.457 6.25"   marker-end="url(#e)" /></g></g><g id="ac" class="Interaction" color="#000" ><g color="#000" fill="transparent"  filter="url(#a)" stroke="#000" stroke-dasharray="31.17183098591489, 5.8"><path class="EdgeBody" d="m870.42 506.87-2e-13 36.972"   marker-end="url(#b)" /></g></g><g id="ad" class="Interaction" color="#000" ><g color="#000" fill="transparent"  filter="url(#a)" stroke="#000" stroke-dasharray="39.54715056836069, 5.8"><path class="EdgeBody" d="m726.76 557.57-15.528 42.606"   marker-end="url(#b)" /></g></g><g id="ae" class="Interaction" color="#000" ><g color="#000" fill="transparent"  filter="url(#a)" stroke="#000" stroke-dasharray="19.914858884830778, 5.8"><path class="EdgeBody" d="m727.5 506.87-0.73944 25.704"   marker-end="url(#b)" /></g></g><g id="af" class="Interaction" color="#000" ><g color="#000" fill="transparent"  filter="url(#a)" stroke="#000" stroke-dasharray="79.03095200790436, 5.8"><path class="EdgeBody" d="m415.28 615.49 84.789-2.6761"   marker-end="url(#b)" /></g></g><g id="ag" class="DirectedInteraction" color="#000" ><g color="#000" fill="transparent"  filter="url(#a)" stroke="#000" stroke-dasharray="66.59629301751893, 5.8"><path class="EdgeBody" d="m711.64 174.5v72.396"   marker-end="url(#d)" /></g></g><g id="ah" class="DirectedInteraction" color="#000" ><g color="#000" fill="transparent"  filter="url(#a)" stroke="#000" stroke-dasharray="108.95931419457266, 5.8"><path class="EdgeBody" d="m511.57 271.89v114.76"   marker-end="url(#d)" /></g></g><g id="ai" class="DirectedInteraction" color="#000" ><g color="#000" fill="transparent"  filter="url(#a)" stroke="#000" stroke-dasharray="22.721126760563333, 5.8"><path class="EdgeBody" d="m870.42 622.36v28.521"   marker-end="url(#d)" /></g></g><g id="aj" class="Interaction" color="#000" ><g color="#000" fill="transparent"  filter="url(#a)" stroke="#000" stroke-dasharray="145.77811080713133, 5.8"><path class="EdgeBody" d="m522.54 551.94 143.7 48.239"   marker-end="url(#b)" /></g></g><g id="ak" class="Interaction" color="#000" ><g color="#000" fill="transparent"  filter="url(#a)" stroke="#000" stroke-dasharray="40.56421182989784, 11"><path class="EdgeBody" d="m289.82 761.49 35.457-37.439"   marker-end="url(#e)" /></g></g><g id="al" class="Interaction" color="#000" ><g color="#000" fill="transparent"  filter="url(#a)" stroke="#000" stroke-dasharray="46.49437212220153, 5.8"><path class="EdgeBody" d="m1069.7 571.83 0.70401 52.29"   marker-end="url(#b)" /></g></g><g id="am" class="DirectedInteraction" color="#000" ><g color="#000" fill="transparent"  filter="url(#a)" stroke="#000" stroke-dasharray="121.45334957368841, 5.8"><path class="EdgeBody" d="m244.82 627.99 1.7e-13 127.25"   marker-end="url(#d)" /></g></g><g id="an" class="DirectedInteraction" color="#000" ><g color="#000" fill="transparent"  filter="url(#a)" stroke="#000" stroke-dasharray="47.863696163894254, 5.8"><path class="EdgeBody" d="m590.07 612.82 53.664-0.13913"   marker-end="url(#d)" /></g></g><g id="ao" class="Interaction" color="#000" ><g color="#000" fill="transparent"  filter="url(#a)" stroke="#000" stroke-dasharray="16.911267605633792, 5.8"><path class="EdgeBody" d="m870.42 574.65v22.711"   marker-end="url(#b)" /></g></g><g id="ap" class="Interaction" color="#000" ><g color="#000" fill="transparent"  filter="url(#a)" stroke="#000" stroke-dasharray="40.660284327183675, 5.8"><path class="EdgeBody" d="m711.64 271.89v46.46"   marker-end="url(#b)" /></g></g><g id="aq" class="DirectedInteraction" color="#000" ><g color="#000" fill="transparent"  filter="url(#a)" stroke="#000" stroke-dasharray="32.55673765742948, 5.8"><path class="EdgeBody" d="m243.61 564.65 1.218 38.337"   marker-end="url(#d)" /></g></g><g id="ar" class="Interaction" color="#000" ><g color="#000" fill="transparent"  filter="url(#a)" stroke="#000" stroke-dasharray="29.674786845310734, 7"><path class="EdgeBody" d="m325.28 259.39-36.675 6e-14"   marker-end="url(#f)" /></g></g><g id="as" class="Interaction" color="#000" ><g color="#000" fill="transparent"  filter="url(#a)" stroke="#000" stroke-dasharray="89.60724281660944, 5.8"><path class="EdgeBody" d="m415.28 824.13 95.396 1.4738"   marker-end="url(#b)" /></g></g><g id="at" class="DirectedInteraction" color="#000" ><g color="#000" fill="transparent"  filter="url(#a)" stroke="#000" stroke-dasharray="111.08170294414708, 5.8"><path class="EdgeBody" d="m203.41 169.63-87.698 77.268"   marker-end="url(#d)" /></g></g><g id="au" class="Interaction" color="#000" ><g color="#000" fill="transparent"  filter="url(#a)" stroke="#000" stroke-dasharray="206.96114203272072, 5.8"><path class="EdgeBody" d="m711.64 174.5-200.07 72.396"   marker-end="url(#b)" /></g></g><g id="av" class="Interaction" color="#000" ><g color="#000" fill="transparent"  filter="url(#a)" stroke="#000" stroke-dasharray="40.660284327183675, 5.8"><path class="EdgeBody" d="m243.61 271.89-2.7e-13 46.46"   marker-end="url(#b)" /></g></g><g id="aw" class="Interaction" color="#000" ><g color="#000" fill="transparent"  filter="url(#a)" stroke="#000" stroke-dasharray="273.95075674090094, 5.8"><path class="EdgeBody" d="m556.57 417.04 268.85 77.327"   marker-end="url(#b)" /></g></g><g id="ax" class="Interaction" color="#000" ><g color="#000" fill="transparent"  filter="url(#a)" stroke="#000" stroke-dasharray="120.35833631621722, 18"><path class="EdgeBody" d="m1069.4 408.47 0.25579 138.36"   marker-end="url(#g)" /></g></g><g id="ay" class="Interaction" color="#000" ><g color="#000" fill="transparent"  filter="url(#a)" stroke="#000" stroke-dasharray="159.73836784409414, 5.8"><path class="EdgeBody" d="m1069.4 176.93v165.54"   marker-end="url(#b)" /></g></g><g class="SingleFreeNode Shape PhysicalEntity CellularComponent Nucleus" transform="translate(115.43 497.06)" color="#c0c0c0" ><g fill="transparent"  filter="url(#h)" stroke="#c0c0c0" stroke-width="3"><use class="Icon" transform="matrix(.96856 0 0 .97105 5.8113 5.8263)" width="369.62606577344707" height="402.51278928136423"    xlink:href="#j"/></g></g><g class="SingleFreeNode Shape PhysicalEntity CellularComponent GolgiApparatus" transform="translate(1036.5 276.37)" color="#c0c0c0" ><use class="Icon" transform="matrix(.97087 0 0 .98522 1.4563 1.4778)" width="100" height="200" fill="transparent"  stroke="#c0c0c0" stroke-width="3" xlink:href="#i"/></g><g class="Label" transform="translate(693.03 481.87)" color="#000"  name="miRNAs"><use class="Icon" width="68.94366197183153" height="25" fill="transparent"  stroke="#000" stroke-width="0" xlink:href="#c"/><text class="Text" transform="translate(34.472 16.5)"   font-size="12px"  text-anchor="middle"><tspan x="0" y="0">miRNAs</tspan></text></g><g class="Label" transform="translate(825.42 701.58)" color="#000"  name="Sterile inflammation"><use class="Icon" width="90" height="25" fill="transparent"  stroke="#000" stroke-width="0" xlink:href="#c"/><text class="Text" transform="translate(45,16.5)"   font-size="12px"  text-anchor="middle"><tspan x="0" y="-6.6000000000000005">Sterile</tspan> <tspan x="0" y="6.6000000000000005">inflammation</tspan></text></g><g class="Label" transform="translate(32.852 219.71)" color="#000"  name="Cytosol"><use class="Icon" width="90" height="25" fill="transparent"  stroke="#000" stroke-width="0" xlink:href="#c"/><text class="Text" transform="translate(45,16.5)"   font-size="12px"  text-anchor="middle"><tspan x="0" y="0">Cytosol</tspan></text></g><g class="Label" transform="translate(825.42 543.84)" color="#000"  name="NLRP3 inflammasome"><use class="Icon" width="90" height="30.80985915492962" fill="transparent"  stroke="#000" stroke-width="0" xlink:href="#c"/><text class="Text" transform="translate(45 19.405)"   font-size="12px"  text-anchor="middle"><tspan x="0" y="-6.6000000000000005">NLRP3</tspan> <tspan x="0" y="6.6000000000000005">inflammasome</tspan></text></g><g class="Label" transform="translate(466.57 246.89)" color="#000"  name="mRNAs miRNAs"><use class="Icon" width="90" height="25" fill="transparent"  stroke="#000" stroke-width="0" xlink:href="#c"/><text class="Text" transform="translate(45,16.5)"   font-size="12px"  text-anchor="middle"><tspan x="0" y="-6.6000000000000005">mRNAs</tspan> <tspan x="0" y="6.6000000000000005">miRNAs</tspan></text></g><g class="Label" transform="translate(32.852 175.42)" color="#000"  name="ER"><use class="Icon" width="90" height="25" fill="transparent"  stroke="#000" stroke-width="0" xlink:href="#c"/><text class="Text" transform="translate(45,16.5)"   font-size="12px"  text-anchor="middle"><tspan x="0" y="0">ER</tspan></text></g><g class="Label" transform="translate(466.57 386.65)" color="#000"  name="Regulated  IRE1-dependent  decay"><use class="Icon" width="90" height="40.51461632155903" fill="transparent"  stroke="#000" stroke-width="0" xlink:href="#c"/><text class="Text" transform="translate(45 24.257)"   font-size="12px"  text-anchor="middle"><tspan x="0" y="-13.200000000000001">Regulated </tspan> <tspan x="0" y="0">IRE1-dependent </tspan> <tspan x="0" y="13.200000000000001">decay</tspan></text></g><g class="Label" transform="translate(603.93 384.68)" color="#000"  name="XBP1(s) activated chaperone genes"><use class="Icon" width="215.42253521126764" height="25" fill="transparent"  stroke="#000" stroke-width="0" xlink:href="#c"/><text class="Text" transform="translate(107.71 16.5)"   font-size="12px"  text-anchor="middle"><tspan x="0" y="0">XBP1(s) activated chaperone genes</tspan></text></g><g class="Label" transform="translate(970.42 624.12)" color="#000"  name="ATF6 activated chaperone genes"><use class="Icon" width="199.929577464792" height="25" fill="transparent"  stroke="#000" stroke-width="0" xlink:href="#c"/><text class="Text" transform="translate(99.965 16.5)"   font-size="12px"  text-anchor="middle"><tspan x="0" y="0">ATF6 activated chaperone genes</tspan></text></g><a  class="GeneProduct BCL2 " transform="translate(325.28 651.46)"   name="BCL2"  ><rect class="Icon" transform="matrix(.98901 0 0 .96154 .49451 .48077)" width="90" height="25" fill="#fff" stroke="#000"/><text class="Text" transform="translate(45,16.5)"   font-size="12px"  text-anchor="middle"><tspan x="0" y="0">BCL2</tspan></text></a><a class="WikiPathways_WP3941 Pathway " transform="translate(863.45 511.44)" color="#14961e"  name="ROS"  ><use class="Icon" width="90" height="25" fill="transparent"  stroke="#14961e" stroke-width="0" xlink:href="#c"/><text class="Text" transform="translate(45,16.5)" fill="#14961e"  font-size="12px" font-weight="bold" stroke="black" stroke-width="0" text-anchor="middle"><tspan x="0" y="0">ROS</tspan></text></a><a  class="GeneProduct NFE2L2 " transform="translate(70.713 246.89)"   name="NFE2L2"  ><rect class="Icon" transform="matrix(.98901 0 0 .96154 .49451 .48077)" width="90" height="25" fill="#fff" stroke="#000"/><text class="Text" transform="translate(45,16.5)"   font-size="12px"  text-anchor="middle"><tspan x="0" y="0">NFE2L2</tspan></text></a><a  class="GeneProduct PMAIP1 " transform="translate(325.28 755.24)"   name="PMAIP1"  ><rect class="Icon" transform="matrix(.98901 0 0 .96154 .49451 .48077)" width="90" height="25" fill="#fff" stroke="#000"/><text class="Text" transform="translate(45,16.5)"   font-size="12px"  text-anchor="middle"><tspan x="0" y="0">PMAIP1</tspan></text></a><a  class="GeneProduct EIF2S1 " transform="translate(198.61 246.89)"   name="EIF2S1"  ><rect class="Icon" transform="matrix(.98901 0 0 .96154 .49451 .48077)" width="90" height="25" fill="#fff" stroke="#000"/><text class="Text" transform="translate(45,16.5)"   font-size="12px"  text-anchor="middle"><tspan x="0" y="0">EIF2S1</tspan></text></a><a  class="GeneProduct DDIT3 " transform="translate(199.82 602.99)"   name="CHOP"  ><rect class="Icon" transform="matrix(.98901 0 0 .96154 .49451 .48077)" width="90" height="25" fill="#fff" stroke="#000"/><text class="Text" transform="translate(45,16.5)"   font-size="12px"  text-anchor="middle"><tspan x="0" y="0">CHOP</tspan></text></a><a  class="GeneProduct TNFRSF10B " transform="translate(325.28 602.99)"   name="TNFRSF10B"  ><rect class="Icon" transform="matrix(.98901 0 0 .96154 .49451 .48077)" width="90" height="25" fill="#fff" stroke="#000"/><text class="Text" transform="translate(45,16.5)"   font-size="12px"  text-anchor="middle"><tspan x="0" y="0">TNFRSF10B</tspan></text></a><a  class="GeneProduct ATF4 " transform="translate(198.61 318.35)"   name="ATF4"  ><rect class="Icon" transform="matrix(.98901 0 0 .96154 .49451 .48077)" width="90" height="25" fill="#fff" stroke="#000"/><text class="Text" transform="translate(45,16.5)"   font-size="12px"  text-anchor="middle"><tspan x="0" y="0">ATF4</tspan></text></a><g class="Uniprot-TrEMBL_A0A0A0MS31 Protein CASP8 " transform="translate(477.54 526.94)" color="#000"  name="Caspase-8"><rect class="Icon" transform="matrix(.98901 0 0 .96154 .49451 .48077)" width="90" height="25" fill="#fff" stroke="#000"/><text class="Text" transform="translate(45,16.5)"   font-size="12px"  text-anchor="middle"><tspan x="0" y="0">Caspase-8</tspan></text></g><a  class="GeneProduct BBC3 " transform="translate(325.28 705.31)"   name="BBC3"  ><rect class="Icon" transform="matrix(.98901 0 0 .96154 .49451 .48077)" width="90" height="25" fill="#fff" stroke="#000"/><text class="Text" transform="translate(45,16.5)"   font-size="12px"  text-anchor="middle"><tspan x="0" y="0">BBC3</tspan></text></a><a  class="GeneProduct PPP1R15A " transform="translate(325.28 246.89)"   name="GADD35"  ><rect class="Icon" transform="matrix(.98901 0 0 .96154 .49451 .48077)" width="90" height="25" fill="#fff" stroke="#000"/><text class="Text" transform="translate(45,16.5)"   font-size="12px"  text-anchor="middle"><tspan x="0" y="0">GADD35</tspan></text></a><a  class="GeneProduct ERN1 " transform="translate(666.64 149.5)"   name="IRE1α"  ><rect class="Icon" transform="matrix(.98901 0 0 .96154 .49451 .48077)" width="90" height="25" fill="#fff" stroke="#000"/><text class="Text" transform="translate(45,16.5)"   font-size="12px"  text-anchor="middle"><tspan x="0" y="0">IRE1α</tspan></text></a><a  class="GeneProduct IL1B " transform="translate(825.42 650.88)"   name="IL1B"  ><rect class="Icon" transform="matrix(.98901 0 0 .96154 .49451 .48077)" width="90" height="25" fill="#fff" stroke="#000"/><text class="Text" transform="translate(45,16.5)"   font-size="12px"  text-anchor="middle"><tspan x="0" y="0">IL1B</tspan></text></a><a  class="GeneProduct XBP1 " transform="translate(666.64 246.89)"   name="XBP1"  ><rect class="Icon" transform="matrix(.98901 0 0 .96154 .49451 .48077)" width="90" height="25" fill="#fff" stroke="#000"/><text class="Text" transform="translate(45,16.5)"   font-size="12px"  text-anchor="middle"><tspan x="0" y="0">XBP1</tspan></text></a><a  class="GeneProduct HSPA5 " transform="translate(666.64 88.596)"   name="BiP"  ><rect class="Icon" transform="matrix(.98901 0 0 .96154 .49451 .48077)" width="90" height="25" fill="#fff" stroke="#000"/><text class="Text" transform="translate(45,16.5)"   font-size="12px"  text-anchor="middle"><tspan x="0" y="0">BiP</tspan></text></a><g class="Uniprot-TrEMBL_A0A1W2PRX7 Protein CASP1 " transform="translate(825.42 597.36)" color="#000"  name="Caspase-1"><rect class="Icon" transform="matrix(.98901 0 0 .96154 .49451 .48077)" width="90" height="25" fill="#fff" stroke="#000"/><text class="Text" transform="translate(45,16.5)"   font-size="12px"  text-anchor="middle"><tspan x="0" y="0">Caspase-1</tspan></text></g><a  class="GeneProduct RTCB " transform="translate(666.64 318.35)"   name="RTCB"  ><rect class="Icon" transform="matrix(.98901 0 0 .96154 .49451 .48077)" width="90" height="25" fill="#fff" stroke="#000"/><text class="Text" transform="translate(45,16.5)"   font-size="12px"  text-anchor="middle"><tspan x="0" y="0">RTCB</tspan></text></a><a  class="GeneProduct TXNIP " transform="translate(825.42 481.87)"   name="TXNIP"  ><rect class="Icon" transform="matrix(.98901 0 0 .96154 .49451 .48077)" width="90" height="25" fill="#fff" stroke="#000"/><text class="Text" transform="translate(45,16.5)"   font-size="12px"  text-anchor="middle"><tspan x="0" y="0">TXNIP</tspan></text></a><a  class="GeneProduct ATF4 " transform="translate(198.61 539.65)"   name="ATF4"  ><rect class="Icon" transform="matrix(.98901 0 0 .96154 .49451 .48077)" width="90" height="25" fill="#fff" stroke="#000"/><text class="Text" transform="translate(45,16.5)"   font-size="12px"  text-anchor="middle"><tspan x="0" y="0">ATF4</tspan></text></a><g class="Uniprot-TrEMBL_A0A087WYM1 Protein CASP2 " transform="translate(681.76 532.57)" color="#000"  name="Caspase-2"><rect class="Icon" transform="matrix(.98901 0 0 .96154 .49451 .48077)" width="90" height="25" fill="#fff" stroke="#000"/><text class="Text" transform="translate(45,16.5)"   font-size="12px"  text-anchor="middle"><tspan x="0" y="0">Caspase-2</tspan></text></g><a  class="GeneProduct ATF6 " transform="translate(1024.4 151.93)"   name="ATF6"  ><rect class="Icon" transform="matrix(.98901 0 0 .96154 .49451 .48077)" width="90" height="25" fill="#fff" stroke="#000"/><text class="Text" transform="translate(45,16.5)"   font-size="12px"  text-anchor="middle"><tspan x="0" y="0">ATF6</tspan></text></a><a class="WikiPathways_WP254 Pathway " transform="translate(826.83 769.19)" color="#14961e"  name="Apoptosis"  ><use class="Icon" width="90" height="25" fill="transparent"  stroke="#14961e" stroke-width="0" xlink:href="#c"/><text class="Text" transform="translate(45,16.5)" fill="#14961e"  font-size="12px" font-weight="bold" stroke="black" stroke-width="0" text-anchor="middle"><tspan x="0" y="0">Apoptosis</tspan></text></a><a  class="GeneProduct BCL2L11 " transform="translate(325.28 811.63)"   name="BCL2L11"  ><rect class="Icon" transform="matrix(.98901 0 0 .96154 .49451 .48077)" width="90" height="25" fill="#fff" stroke="#000"/><text class="Text" transform="translate(45,16.5)"   font-size="12px"  text-anchor="middle"><tspan x="0" y="0">BCL2L11</tspan></text></a><a  class="GeneProduct BID " transform="translate(643.73 600.18)"   name="BID"  ><rect class="Icon" transform="matrix(.98901 0 0 .96154 .49451 .48077)" width="90" height="25" fill="#fff" stroke="#000"/><text class="Text" transform="translate(45,16.5)"   font-size="12px"  text-anchor="middle"><tspan x="0" y="0">BID</tspan></text></a><a  class="GeneProduct EIF2AK3 " transform="translate(158.41 144.63)"   name="PERK"  ><rect class="Icon" transform="matrix(.98901 0 0 .96154 .49451 .48077)" width="90" height="25" fill="#fff" stroke="#000"/><text class="Text" transform="translate(45,16.5)"   font-size="12px"  text-anchor="middle"><tspan x="0" y="0">PERK</tspan></text></a><a  class="GeneProduct TP53 " transform="translate(199.82 755.24)"   name="p53"  ><rect class="Icon" transform="matrix(.98901 0 0 .96154 .49451 .48077)" width="90" height="25" fill="#fff" stroke="#000"/><text class="Text" transform="translate(45,16.5)"   font-size="12px"  text-anchor="middle"><tspan x="0" y="0">p53</tspan></text></a><g class="GroupGroup" transform="translate(1016.4 342.47)" color="grey" ><use class="Icon" width="106" height="66.00000000000097" fill="transparent"  stroke="grey" stroke-dasharray="5,3" stroke-width="0" xlink:href="#c"/><a  class="GeneProduct MBTPS1 " transform="translate(8,8)"   name="MBTPS1"  ><rect class="Icon" transform="matrix(.98901 0 0 .96154 .49451 .48077)" width="90" height="25" fill="#fff" stroke="#000"/><text class="Text" transform="translate(45,16.5)"   font-size="12px"  text-anchor="middle"><tspan x="0" y="0">MBTPS1</tspan></text></a><a  class="GeneProduct MBTPS2 " transform="translate(8 33)"   name="MBTPS2"  ><rect class="Icon" transform="matrix(.98901 0 0 .96154 .49451 .48077)" width="90" height="25" fill="#fff" stroke="#000"/><text class="Text" transform="translate(45,16.5)"   font-size="12px"  text-anchor="middle"><tspan x="0" y="0">MBTPS2</tspan></text></a></g><a  class="GeneProduct ATF6 " transform="translate(1024.7 546.83)"   name="ATF6"  ><rect class="Icon" transform="matrix(.98901 0 0 .96154 .49451 .48077)" width="90" height="25" fill="#fff" stroke="#000"/><text class="Text" transform="translate(45,16.5)"   font-size="12px"  text-anchor="middle"><tspan x="0" y="0">ATF6</tspan></text></a><a  class="GeneProduct PPP1R15A " transform="translate(325.28 548.39)"   name="GADD35"  ><rect class="Icon" transform="matrix(.98901 0 0 .96154 .49451 .48077)" width="90" height="25" fill="#fff" stroke="#000"/><text class="Text" transform="translate(45,16.5)"   font-size="12px"  text-anchor="middle"><tspan x="0" y="0">GADD35</tspan></text></a><a  class="GeneProduct PMAIP1 " transform="translate(510.68 756.72)"   name="PMAIP1"  ><rect class="Icon" transform="matrix(.98901 0 0 .96154 .49451 .48077)" width="90" height="25" fill="#fff" stroke="#000"/><text class="Text" transform="translate(45,16.5)"   font-size="12px"  text-anchor="middle"><tspan x="0" y="0">PMAIP1</tspan></text></a><a  class="GeneProduct BBC3 " transform="translate(510.68 706.78)"   name="BBC3"  ><rect class="Icon" transform="matrix(.98901 0 0 .96154 .49451 .48077)" width="90" height="25" fill="#fff" stroke="#000"/><text class="Text" transform="translate(45,16.5)"   font-size="12px"  text-anchor="middle"><tspan x="0" y="0">BBC3</tspan></text></a><a  class="GeneProduct BCL2L11 " transform="translate(510.68 813.11)"   name="BCL2L11"  ><rect class="Icon" transform="matrix(.98901 0 0 .96154 .49451 .48077)" width="90" height="25" fill="#fff" stroke="#000"/><text class="Text" transform="translate(45,16.5)"   font-size="12px"  text-anchor="middle"><tspan x="0" y="0">BCL2L11</tspan></text></a><a  class="GeneProduct TNFRSF10B " transform="translate(500.07 600.32)"   name="TNFRSF10B"  ><rect class="Icon" transform="matrix(.98901 0 0 .96154 .49451 .48077)" width="90" height="25" fill="#fff" stroke="#000"/><text class="Text" transform="translate(45,16.5)"   font-size="12px"  text-anchor="middle"><tspan x="0" y="0">TNFRSF10B</tspan></text></a><a  class="GeneProduct TNFRSF10B " transform="translate(467.67 469.33)"   name="TNFRSF10B"  ><rect class="Icon" transform="matrix(.98901 0 0 .96154 .49451 .48077)" width="90" height="25" fill="#fff" stroke="#000"/><text class="Text" transform="translate(45,16.5)"   font-size="12px"  text-anchor="middle"><tspan x="0" y="0">TNFRSF10B</tspan></text></a><text class="Text" transform="translate(5,27)" dominant-baseline="central" fill="black"  font-size="12px" font-weight="bold" overflow="visible" ><tspan x="0" y="-9">Name: Unfolded protein response</tspan> <tspan x="0" y="9">Organism: Homo sapiens</tspan></text></g></svg>
