<?xml version="1.0" encoding="UTF-8"?>
<!--
  WikiPathways page: https://www.wikipathways.org/index.php/Pathway:WP4928
  URL for this compressed file: https://github.com/eweitz/cachome/tree/main/data/wikipathways/WP4928.svg
  Source code for compression: https://github.com/eweitz/cachome/tree/main/src/wikipathways.py
-->
<svg class="Diagram" width="800" height="600" color="black" baseProfile="full" prefix="schema:http://schema.org/" preserveAspectRatio="xMidYMid" version="1.1" viewBox="0 0 1189 893" vocab="http://vocabularies.wikipathways.org/wp#" xmlns="http://www.w3.org/2000/svg" xmlns:xlink="http://www.w3.org/1999/xlink"><style>svg {font-family: 'Liberation Sans', Arial, sans-serif; }</style><defs><filter id="f" x="-50%" y="-50%" width="200%" height="200%"><feComposite in="SourceGraphic" in2="SourceGraphic" result="doubleDark"/><feMorphology in="doubleDark" operator="dilate" radius="0.16666666666666666" result="in2Double"/><feMorphology in="SourceGraphic" operator="dilate" radius="3" result="inDouble"/><feComposite in="inDouble" in2="in2Double" operator="out" result="doubleResult"/></filter><filter id="a" x="0" y="0" width="1189" height="893" filterUnits="userSpaceOnUse"><feColorMatrix in="SourceGraphic" values="-1   0   0 0 0                   0  -1   0 0 0                   0   0  -1 0 0                   0   0   0 1 0"/></filter><marker id="g" stroke-dasharray="99999" markerHeight="12" markerUnits="userSpaceOnUse" markerWidth="12" orient="auto" preserveAspectRatio="none" refX="12" refY="6" viewBox="0 0 12 12"><path transform="rotate(180 6 6)" d="M12 11L0 6l12-5z" fill="currentColor" stroke-width="0"/></marker><marker id="e" stroke-dasharray="99999" markerHeight="20" markerUnits="userSpaceOnUse" markerWidth="10" orient="auto" preserveAspectRatio="none" refX="10" refY="10" viewBox="0 0 10 20"><path d="m3 0v20" fill="currentColor" stroke="currentColor"/></marker><marker id="d" stroke-dasharray="99999" markerHeight="12" markerUnits="userSpaceOnUse" markerWidth="16" orient="auto" preserveAspectRatio="none" refX="16" refY="6" viewBox="0 0 16 12"><g transform="rotate(180 8 6)" fill="none"><path d="m14 0v12" stroke="#000"/><path d="m16 6"/><path d="M0 6l9 5V1z" stroke="#000"/></g></marker><marker id="c" stroke-dasharray="99999" markerHeight="12" markerUnits="userSpaceOnUse" markerWidth="12" orient="auto" preserveAspectRatio="none" refX="12" refY="6" viewBox="0 0 12 12"><g transform="rotate(180 6 6)" fill="none"><path d="m12 6"/><path d="M0 6l11 5V1z" stroke="#000"/></g></marker><symbol id="h" overflow="visible" preserveAspectRatio="none" viewBox="0 0 50 50"><ellipse cx="25" cy="25" rx="25" ry="25" stroke="currentColor" vector-effect="non-scaling-stroke"/></symbol><symbol id="b" preserveAspectRatio="none" viewBox="0 0 100 100"/></defs><g class="Viewport" color="black"  name="Name: MAPK pathway in congenital thyroid cancer Organism: Homo sapiens"><rect class="Icon" width="1189" height="893" fill="#fff" stroke="#000" stroke-width="0"/><g id="i" class="Interaction" color="#000" ><g color="#000" fill="transparent"  filter="url(#a)" stroke="#000" stroke-dasharray="145.8674599781612, 11"><path class="EdgeBody" d="m253 499 156.8 4.6"   marker-end="url(#c)" /></g></g><a  class="GeneProduct KSR1 " transform="translate(163,477.5)"   name="KSR1"  ><rect class="Icon" transform="matrix(.98901 0 0 .97727 .49451 .48864)" width="90" height="43" fill="#fff" stroke="#000"/><text class="Text" transform="translate(45,25.5)"   font-size="12px"  text-anchor="middle"><tspan x="0" y="0">KSR1</tspan></text></a><g class="Label" transform="translate(818,801.5)" color="#000"  name="Nucleus"><use class="Icon" width="90" height="25" fill="transparent"  stroke="#000" stroke-width="0" xlink:href="#b"/><text class="Text" transform="translate(45,16.5)"   font-size="12px"  text-anchor="middle"><tspan x="0" y="0">Nucleus</tspan></text></g><g class="Label" transform="translate(1050,817.5)" color="#000"  name="Cytoplasm"><use class="Icon" width="90" height="25" fill="transparent"  stroke="#000" stroke-width="0" xlink:href="#b"/><text class="Text" transform="translate(45,16.5)"   font-size="14px"  text-anchor="middle"><tspan x="0" y="0">Cytoplasm</tspan></text></g><g class="GroupGroup" transform="translate(344,676.5)" color="grey" ><use class="Icon" width="106" height="103" fill="transparent"  stroke="grey" stroke-dasharray="5,3" stroke-width="0" xlink:href="#b"/><a  class="GeneProduct MAP2K2 " transform="translate(8,52)"   name="MAP2K2"  ><rect class="Icon" transform="matrix(.98901 0 0 .97727 .49451 .48864)" width="90" height="43" fill="#fff" stroke="#000"/><text class="Text" transform="translate(45,25.5)"   font-size="12px"  text-anchor="middle"><tspan x="0" y="0">MAP2K2</tspan></text></a><a  class="GeneProduct MAP2K1 " transform="translate(8,8)"   name="MAP2K1"  ><rect class="Icon" transform="matrix(.98901 0 0 .97727 .49451 .48864)" width="90" height="43" fill="#fff" stroke="#000"/><text class="Text" transform="translate(45,25.5)"   font-size="12px"  text-anchor="middle"><tspan x="0" y="0">MAP2K1</tspan></text></a></g><g id="j" class="Interaction" color="#000" ><g color="#000" fill="transparent"  filter="url(#a)" stroke="#000" stroke-dasharray="55.181383593687045, 9"><path class="EdgeBody" d="m870 332-57 29.5"   marker-end="url(#d)" /></g></g><g id="k" class="Interaction" color="#000" ><g color="#000" fill="transparent"  filter="url(#a)" stroke="#000" stroke-dasharray="27.45147103818006, 11"><path class="EdgeBody" d="m768 383-38-5.875"   marker-end="url(#c)" /></g></g><g id="l" class="Interaction" color="#000" ><g color="#000" fill="transparent"  filter="url(#a)" stroke="#000" stroke-dasharray="59.42771116542124, 11"><path class="EdgeBody" d="m404.75 606.5-7.75 70"   marker-end="url(#c)" /></g></g><g id="m" class="Interaction" color="#000" ><g color="#000" fill="transparent"  filter="url(#a)" stroke="#000" stroke-dasharray="62.920448194114684, 5.8"><path class="EdgeBody" d="m441 348-45.5 51.5"   marker-end="url(#g)" /></g><g class="Burr Anchor" transform="translate(422.8 368.6)" ><use class="Icon" width="0" height="0" fill="#141414" stroke-width="0" xlink:href="#b"/></g></g><g id="n" class="Interaction" color="#000" ><g color="#000" fill="transparent"  filter="url(#a)" stroke="#000" stroke-dasharray="129.02700632378028, 11"><path class="EdgeBody" d="M450,702.25L590,705"   marker-end="url(#c)" /></g></g><g id="o" class="Interaction" color="#000" ><g color="#000" fill="transparent"  filter="url(#a)" stroke="#000" stroke-dasharray="201.87239180366876, 9"><path class="EdgeBody" d="m633.5 377.12-210.7-8.525"   marker-end="url(#d)" /></g></g><g id="p" class="Interaction" color="#000" ><g color="#000" fill="transparent"  filter="url(#a)" stroke="#000" stroke-dasharray="211.69442151092926, 7"><path class="EdgeBody" d="m635 683.5-201.5-85"   marker-end="url(#e)" /></g></g><g id="q" class="Interaction" color="#000" ><g color="#000" fill="transparent"  filter="url(#a)" stroke="#000" stroke-dasharray="69.85828652649029, 11"><path class="EdgeBody" d="m424 469 68 43.75"   marker-end="url(#c)" /></g></g><g id="r" class="Interaction" color="#000" ><g color="#000" fill="transparent"  filter="url(#a)" stroke="#000" stroke-dasharray="30.533453718390575, 11"><path class="EdgeBody" d="m839.5 705 41.5 1.6667"   marker-end="url(#c)" /></g></g><g id="s" class="Interaction" color="#000" ><g color="#000" fill="transparent"  filter="url(#a)" stroke="#000" stroke-dasharray="58.5, 11"><path class="EdgeBody" d="m680 705h69.5"   marker-end="url(#c)" /></g></g><g id="t" class="Interaction" color="#000" ><g color="#000" fill="transparent"  filter="url(#a)" stroke="#000" stroke-dasharray="47.52985936653301, 9"><path class="EdgeBody" d="m870 332 49.25 27.75"   marker-end="url(#d)" /></g></g><g id="u" class="Interaction" color="#000" ><g color="#000" fill="transparent"  filter="url(#a)" stroke="#000" stroke-dasharray="82.50133688883813, 11"><path class="EdgeBody" d="m424 469-35.5 86.5"   marker-end="url(#c)" /></g><g class="Burr Anchor" transform="translate(409.8 503.6)" ><use class="Icon" width="0" height="0" fill="#141414" stroke-width="0" xlink:href="#b"/></g></g><g id="v" class="Interaction" color="#000" ><g color="#000" fill="transparent"  filter="url(#a)" stroke="#000" stroke-dasharray="450, 7"><path class="EdgeBody" d="m635 683.5v-111.5h178v-167.5"   marker-end="url(#e)" /></g></g><g class="SingleFreeNode Shape PhysicalEntity CellularComponent Nucleus" transform="translate(714.5,635.5)" color="#c0c0c0" ><g fill="transparent"  filter="url(#f)" stroke="#c0c0c0" stroke-width="3"><use class="Icon" transform="matrix(.96238 0 0 .94521 5.7743 5.6712)" width="307" height="207"    xlink:href="#h"/></g></g><g class="SingleFreeNode Shape PhysicalEntity CellularComponent Cell" transform="translate(130.5,302.5)" color="#c0c0c0" ><g fill="transparent"  filter="url(#f)" stroke="#c0c0c0" stroke-width="3"><rect class="Icon" transform="matrix(.98848 0 0 .97909 5.9309 5.8746)" width="1030" height="562" rx="15" ry="15"   /></g></g><g class="GroupGroup" transform="translate(881 682.67)" color="grey" ><use class="Icon" width="96" height="96.00000000000011" fill="transparent"  stroke="grey" stroke-dasharray="5,3" stroke-width="0" xlink:href="#b"/><a  class="GeneProduct ELK1 " transform="translate(8 68)"   name="ELK1"  ><rect class="Icon" transform="matrix(.98765 0 0 .95238 .49383 .47619)" width="80" height="20" fill="#fff" stroke="#000"/><text class="Text" transform="translate(40,14)"   font-size="12px"  text-anchor="middle"><tspan x="0" y="0">ELK1</tspan></text></a><a  class="GeneProduct FOS " transform="translate(8,8)"   name="c-FOS"  ><rect class="Icon" transform="matrix(.98765 0 0 .95238 .49383 .47619)" width="80" height="20" fill="#fff" stroke="#000"/><text class="Text" transform="translate(40 14)"   font-size="12px"  text-anchor="middle"><tspan x="0" y="0">c-FOS</tspan></text></a><a  class="GeneProduct MYC " transform="translate(8 48)"   name="c-MYC"  ><rect class="Icon" transform="matrix(.98765 0 0 .95238 .49383 .47619)" width="80" height="20" fill="#fff" stroke="#000"/><text class="Text" transform="translate(40,14)"   font-size="12px"  text-anchor="middle"><tspan x="0" y="0">c-MYC</tspan></text></a><a  class="GeneProduct JUN " transform="translate(8 28)"   name="c-JUN"  ><rect class="Icon" transform="matrix(.98765 0 0 .95238 .49383 .47619)" width="80" height="20" fill="#fff" stroke="#000"/><text class="Text" transform="translate(40,14)"   font-size="12px"  text-anchor="middle"><tspan x="0" y="0">c-JUN</tspan></text></a></g><g class="GroupGroup" transform="translate(358,504.75)" color="grey" ><use class="Icon" width="187" height="101.75" fill="transparent"  stroke="grey" stroke-dasharray="5,3" stroke-width="0" xlink:href="#b"/><a  class="GeneProduct RAF1 " transform="translate(89,8)"   name="CRAF"  ><rect class="Icon" transform="matrix(.98901 0 0 .97727 .49451 .48864)" width="90" height="43" fill="#fff" stroke="#000"/><text class="Text" transform="translate(45,25.5)"   font-size="12px"  text-anchor="middle"><tspan x="0" y="0">CRAF</tspan></text></a><a  class="GeneProduct BRAF " transform="translate(8,50.75)"   name="BRAF"  ><rect class="Icon" transform="matrix(.98901 0 0 .97727 .49451 .48864)" width="90" height="43" fill="#fff" stroke="#000"/><text class="Text" transform="translate(45,25.5)"   font-size="12px"  text-anchor="middle"><tspan x="0" y="0">BRAF</tspan></text></a></g><g class="GroupGroup" transform="translate(364,311.5)" color="grey" ><use class="Icon" width="113" height="165.5" fill="transparent"  stroke="grey" stroke-dasharray="5,3" stroke-width="0" xlink:href="#b"/><a  class="Protein KRAS " transform="translate(15,114.5)"   name="RAS"  ><rect class="Icon" transform="matrix(.98901 0 0 .97727 .49451 .48864)" width="90" height="43" fill="#fff" stroke="#000"/><text class="Text" transform="translate(45,25.5)"   font-size="12px"  text-anchor="middle"><tspan x="0" y="0">RAS</tspan></text></a><a class="ChEBI_CHEBI_15996 Metabolite  " transform="translate(8,88)" color="#0066cc"  name="GTP"  ><rect class="Icon" transform="matrix(.97917 0 0 .96078 .48958 .48039)" width="47" height="24.5" fill="#fff" stroke="#06c"/><text class="Text" transform="translate(23.5,16.25)" fill="#0066cc"  font-size="12px"  text-anchor="middle"><tspan x="0" y="0">GTP</tspan></text></a><a class="ChEBI_CHEBI_17552 Metabolite  " transform="translate(52,8)" color="#0066ff"  name="GDP"  ><rect class="Icon" transform="matrix(.98039 0 0 .9661 .4902 .48305)" width="50" height="28.5" fill="#fff" stroke="#06f"/><text class="Text" transform="translate(25,18.25)" fill="#0066ff"  font-size="12px"  text-anchor="middle"><tspan x="0" y="0">GDP</tspan></text></a></g><g class="GroupGroup" transform="translate(633.5,346.25)" color="grey" ><use class="Icon" width="96.5" height="61.75" fill="transparent"  stroke="grey" stroke-dasharray="5,3" stroke-width="0" xlink:href="#b"/><a  class="GeneProduct SOS2 " transform="translate(8,31.25)"   name="SOS2"  ><rect class="Icon" transform="matrix(.98773 0 0 .95745 .49387 .47872)" width="80.5" height="22.5" fill="#fff" stroke="#000"/><text class="Text" transform="translate(40.25,15.25)"   font-size="12px"  text-anchor="middle"><tspan x="0" y="0">SOS2</tspan></text></a><a  class="GeneProduct SOS1 " transform="translate(8,8)"   name="SOS1"  ><rect class="Icon" transform="matrix(.98773 0 0 .95745 .49387 .47872)" width="80.5" height="22.5" fill="#fff" stroke="#000"/><text class="Text" transform="translate(40.25,15.25)"   font-size="12px"  text-anchor="middle"><tspan x="0" y="0">SOS1</tspan></text></a></g><a  class="GeneProduct MAPK3 " transform="translate(590,683.5)"   name="MAPK3"  ><rect class="Icon" transform="matrix(.98901 0 0 .97727 .49451 .48864)" width="90" height="43" fill="#fff" stroke="#000"/><text class="Text" transform="translate(45,25.5)"   font-size="12px"  text-anchor="middle"><tspan x="0" y="0">MAPK3</tspan></text></a><a  class="Uniprot-TrEMBL_Q9UM73 Protein ALK " transform="translate(841,262)"   name="ALK tyrosine kinase receptor"  ><rect class="Icon" transform="matrix(.98305 0 0 .98592 .49153 .49296)" width="58" height="70" fill="#fff" stroke="#000"/><text class="Text" transform="translate(29,39)"   font-size="12px"  text-anchor="middle"><tspan x="0" y="0">ALK tyrosine kinase receptor</tspan></text></a><a  class="GeneProduct MAPK3 " transform="translate(749.5,683.5)"   name="MAPK3"  ><rect class="Icon" transform="matrix(.98901 0 0 .97727 .49451 .48864)" width="90" height="43" fill="#fff" stroke="#000"/><text class="Text" transform="translate(45,25.5)"   font-size="12px"  text-anchor="middle"><tspan x="0" y="0">MAPK3</tspan></text></a><a  class="GeneProduct SHC1 " transform="translate(874.25,359.75)"   name="SHC1"  ><rect class="Icon" transform="matrix(.98901 0 0 .97727 .49451 .48864)" width="90" height="43" fill="#fff" stroke="#000"/><text class="Text" transform="translate(45,25.5)"   font-size="12px"  text-anchor="middle"><tspan x="0" y="0">SHC1</tspan></text></a><a  class="Uniprot-TrEMBL_Q75VX8 Protein GAREM2 " transform="translate(768,361.5)"   name="GRB2"  ><rect class="Icon" transform="matrix(.98901 0 0 .97727 .49451 .48864)" width="90" height="43" fill="#fff" stroke="#000"/><text class="Text" transform="translate(45,25.5)"   font-size="12px"  text-anchor="middle"><tspan x="0" y="0">GRB2</tspan></text></a><text class="Text" transform="translate(5,27)" dominant-baseline="central" fill="black"  font-size="12px" font-weight="bold" overflow="visible" ><tspan x="0" y="-9">Name: MAPK pathway in congenital thyroid cancer</tspan> <tspan x="0" y="9">Organism: Homo sapiens</tspan></text></g></svg>
