<?xml version="1.0" encoding="UTF-8"?>
<!--
  WikiPathways page: https://www.wikipathways.org/index.php/Pathway:WP4905
  URL for this compressed file: https://github.com/eweitz/cachome/tree/main/data/wikipathways/WP4905.svg
  Source code for compression: https://github.com/eweitz/cachome/tree/main/src/wikipathways.py
-->
<svg class="Diagram" width="800" height="600" color="black" baseProfile="full" prefix="schema:http://schema.org/" preserveAspectRatio="xMidYMid" version="1.1" viewBox="0 0 1551 879.9" vocab="http://vocabularies.wikipathways.org/wp#" xmlns="http://www.w3.org/2000/svg" xmlns:xlink="http://www.w3.org/1999/xlink"><style>svg {font-family: 'Liberation Sans', Arial, sans-serif; }</style><defs><filter id="a" x="0" y="0" width="1551" height="879.9" filterUnits="userSpaceOnUse"><feColorMatrix in="SourceGraphic" values="-1   0   0 0 0                   0  -1   0 0 0                   0   0  -1 0 0                   0   0   0 1 0"/></filter><filter id="h" x="0" y="0" width="1551" height="879.9" filterUnits="userSpaceOnUse"><feColorMatrix in="SourceGraphic" values="-1   0   0 0 1                   0  -1   0 0 0                   0   0  -1 0 0                   0   0   0 1 0"/></filter><marker id="g" stroke-dasharray="99999" markerHeight="12" markerUnits="userSpaceOnUse" markerWidth="12" orient="auto" preserveAspectRatio="none" refX="12" refY="6" viewBox="0 0 12 12"><path transform="rotate(180 6 6)" d="M12 11L0 6l12-5z" fill="currentColor" stroke-width="0"/></marker><marker id="c" stroke-dasharray="99999" markerHeight="12" markerUnits="userSpaceOnUse" markerWidth="12" orient="auto" preserveAspectRatio="none" refX="12" refY="6" viewBox="0 0 12 12"><path transform="rotate(180 6 6)" d="M12 12L0 6l12-6-7 6z" fill="currentColor" stroke-width="0"/></marker><marker id="f" stroke-dasharray="99999" markerHeight="12" markerUnits="userSpaceOnUse" markerWidth="12" orient="auto" preserveAspectRatio="none" refX="12" refY="6" viewBox="0 0 12 12"><circle transform="rotate(180 6 6)" cx="6" cy="6" r="5.3" fill="none" stroke="#000"/></marker><marker id="e" stroke-dasharray="99999" markerHeight="12" markerUnits="userSpaceOnUse" markerWidth="12" orient="auto" preserveAspectRatio="none" refX="12" refY="6" viewBox="0 0 12 12"><path transform="rotate(180 6 6)" d="M12 11L0 6l12-5z" fill="currentColor" stroke-width="0"/></marker><marker id="d" stroke-dasharray="99999" markerHeight="12" markerUnits="userSpaceOnUse" markerWidth="12" orient="auto" preserveAspectRatio="none" refX="12" refY="6" viewBox="0 0 12 12"><g transform="rotate(180 6 6)" fill="none"><path d="m12 6"/><path d="M0 6l11 5V1z" stroke="#000"/></g></marker><symbol id="i" overflow="visible" preserveAspectRatio="none" viewBox="0 0 100 100"><path d="M0 25L25 0h50l25 25v50l-25 25H25L0 75z" stroke="currentColor" vector-effect="non-scaling-stroke"/></symbol><symbol id="b" preserveAspectRatio="none" viewBox="0 0 100 100"/></defs><g class="Viewport" color="black"  name="Name: 1q21.1 copy number variation syndrome Organism: Homo sapiens"><rect class="Icon" width="1551" height="879.9" fill="#fff" stroke="#000" stroke-width="0"/><g id="j" class="Interaction" color="#000" ><g color="#000" fill="transparent"  filter="url(#a)" stroke="#000" stroke-dasharray="86.160250902702, 1"><path class="EdgeBody" d="m1378.5 556.98 39.881 77.501"   marker-end="url(#c)" /></g></g><g id="k" class="DirectedInteraction" color="#000" ><g color="#000" fill="transparent"  filter="url(#a)" stroke="#000" stroke-dasharray="26.44564564195885, 5.8"><path class="EdgeBody" d="m1233.5 503.9-0.022785 32.246"   marker-end="url(#g)" /></g></g><g id="l" class="Interaction" color="#000" ><g color="#000" fill="transparent"  filter="url(#a)" stroke="#000" stroke-dasharray="180.92604594436716, 1"><path class="EdgeBody" d="m1378.5 556.98 39.881 177.5"   marker-end="url(#c)" /></g></g><g id="m" class="Interaction" color="#000" ><g color="#000" fill="transparent"  filter="url(#a)" stroke="#000" stroke-dasharray="64.93076007099765, 1"><path class="EdgeBody" d="m1378.5 556.98 39.881 52.501"   marker-end="url(#c)" /></g></g><g id="n" class="Interaction" color="#000" ><g color="#000" fill="transparent"  filter="url(#a)" stroke="#000" stroke-dasharray="40.26104485456607, 1"><path class="EdgeBody" d="m1333.7 503.22-0.24275 41.26"   marker-end="url(#c)" /></g></g><g id="o" class="Interaction" color="#000" ><g color="#000" fill="transparent"  filter="url(#a)" stroke="#000" stroke-dasharray="108.98615163421474, 1"><path class="EdgeBody" d="m1378.5 556.98 39.881 102.5"   marker-end="url(#c)" /></g></g><g id="p" class="Interaction" color="#000" ><g color="#000" fill="transparent"  filter="url(#a)" stroke="#000" stroke-dasharray="132.59265610499324, 1"><path class="EdgeBody" d="m1378.5 556.98 39.881 127.5"   marker-end="url(#c)" /></g></g><g id="q" class="Interaction" color="#000" ><g color="#000" fill="transparent"  filter="url(#a)" stroke="#000" stroke-dasharray="47.4439976638687, 1"><path class="EdgeBody" d="m1378.5 556.98 39.881 27.501"   marker-end="url(#c)" /></g></g><g id="r" class="Interaction" color="#000" ><g color="#000" fill="transparent"  filter="url(#a)" stroke="#000" stroke-dasharray="156.62944515245087, 1"><path class="EdgeBody" d="m1378.5 556.98 39.881 152.5"   marker-end="url(#c)" /></g></g><g id="s" class="Interaction" color="#000" ><g color="#000" fill="transparent"  filter="url(#a)" stroke="#000" stroke-dasharray="38.959688384350585, 1"><path class="EdgeBody" d="m1378.5 556.98 39.881 2.5009"   marker-end="url(#c)" /></g></g><g class="Label" transform="translate(1281.5 576.34)" color="#000"  name="tight junction  proteins"><use class="Icon" width="102.0440795159912" height="28.05747623163325" fill="transparent"  stroke="#000" stroke-width="0" xlink:href="#b"/><text class="Text" transform="translate(51.022 18.029)"   font-size="12px"  text-anchor="middle"><tspan x="0" y="-6.6000000000000005">tight junction </tspan> <tspan x="0" y="6.6000000000000005">proteins</tspan></text></g><a  class="GeneProduct OCLN " transform="translate(1418.3 721.99)"   name="OCLN"  ><rect class="Icon" transform="matrix(.98901 0 0 .96154 .49451 .48077)" width="90" height="25" fill="#fff" stroke="#000"/><text class="Text" transform="translate(45,16.5)"   font-size="12px"  text-anchor="middle"><tspan x="0" y="0">OCLN</tspan></text></a><a  class="GeneProduct GJA1 " transform="translate(1418.3 596.99)"   name="GJA1"  ><rect class="Icon" transform="matrix(.98901 0 0 .96154 .49451 .48077)" width="90" height="25" fill="#fff" stroke="#000"/><text class="Text" transform="translate(45,16.5)"   font-size="12px"  text-anchor="middle"><tspan x="0" y="0">GJA1</tspan></text></a><a  class="GeneProduct TJP1 " transform="translate(1288.5 544.48)"   name="TJP1"  ><rect class="Icon" transform="matrix(.98901 0 0 .96154 .49451 .48077)" width="90" height="25" fill="#fff" stroke="#000"/><text class="Text" transform="translate(45,16.5)"   font-size="12px"  text-anchor="middle"><tspan x="0" y="0">TJP1</tspan></text></a><a  class="GeneProduct GJA3 " transform="translate(1418.3 621.99)"   name="GJA3"  ><rect class="Icon" transform="matrix(.98901 0 0 .96154 .49451 .48077)" width="90" height="25" fill="#fff" stroke="#000"/><text class="Text" transform="translate(45,16.5)"   font-size="12px"  text-anchor="middle"><tspan x="0" y="0">GJA3</tspan></text></a><a  class="GeneProduct F11R " transform="translate(1418.3 646.99)"   name="F11R"  ><rect class="Icon" transform="matrix(.98901 0 0 .96154 .49451 .48077)" width="90" height="25" fill="#fff" stroke="#000"/><text class="Text" transform="translate(45,16.5)"   font-size="12px"  text-anchor="middle"><tspan x="0" y="0">F11R</tspan></text></a><a  class="GeneProduct KIRREL1 " transform="translate(1418.3 671.99)"   name="KIRREL1"  ><rect class="Icon" transform="matrix(.98901 0 0 .96154 .49451 .48077)" width="90" height="25" fill="#fff" stroke="#000"/><text class="Text" transform="translate(45,16.5)"   font-size="12px"  text-anchor="middle"><tspan x="0" y="0">KIRREL1</tspan></text></a><a  class="GeneProduct AFDN " transform="translate(1418.3 696.99)"   name="AFDN"  ><rect class="Icon" transform="matrix(.98901 0 0 .96154 .49451 .48077)" width="90" height="25" fill="#fff" stroke="#000"/><text class="Text" transform="translate(45,16.5)"   font-size="12px"  text-anchor="middle"><tspan x="0" y="0">AFDN</tspan></text></a><a  class="GeneProduct TJP3 " transform="translate(1418.3 571.99)"   name="TJP3"  ><rect class="Icon" transform="matrix(.98901 0 0 .96154 .49451 .48077)" width="90" height="25" fill="#fff" stroke="#000"/><text class="Text" transform="translate(45,16.5)"   font-size="12px"  text-anchor="middle"><tspan x="0" y="0">TJP3</tspan></text></a><a  class="GeneProduct TJP2 " transform="translate(1418.3 546.99)"   name="TJP2"  ><rect class="Icon" transform="matrix(.98901 0 0 .96154 .49451 .48077)" width="90" height="25" fill="#fff" stroke="#000"/><text class="Text" transform="translate(45,16.5)"   font-size="12px"  text-anchor="middle"><tspan x="0" y="0">TJP2</tspan></text></a><g id="t" class="Interaction" color="#000" ><g color="#000" fill="transparent"  filter="url(#a)" stroke="#000" stroke-dasharray="48.03287241310247, 11"><path class="EdgeBody" d="m717.29 184.98 1.9698 59"   marker-end="url(#f)" /></g></g><g id="u" class="Rhea_24468" color="#000" ><g color="#000" fill="transparent"  filter="url(#a)" stroke="#000" stroke-dasharray="64.10497282694094, 5.8"><path class="EdgeBody" d="m686.39 243.98h69.905"   marker-end="url(#e)" /></g><g class="Burr Anchor" transform="translate(719.26 243.98)" ><use class="Icon" width="0" height="0" fill="#141414" stroke-width="0" xlink:href="#b"/></g></g><g id="v" class="Interaction" color="#000" ><g color="#000" fill="transparent"  filter="url(#a)" stroke="#000" stroke-dasharray="30.693307797763097, 11"><path class="EdgeBody" d="m557.29 394.98-0.05042 41.693"   marker-end="url(#d)" /></g></g><g id="w" class="Interaction" color="#000" ><g color="#000" fill="transparent"  filter="url(#a)" stroke="#000" stroke-dasharray="124.00000000000017, 1"><path class="EdgeBody" d="m557.29 185.98 4e-13 125"   marker-end="url(#c)" /></g></g><g id="x" class="Interaction" color="#000" ><g color="#000" fill="transparent"  filter="url(#a)" stroke="#000" stroke-dasharray="37.507731342539834, 11"><path class="EdgeBody" d="m736.29 385.98-47-12"   marker-end="url(#d)" /></g></g><g id="y" class="Interaction" color="#000" ><g color="#000" fill="transparent"  filter="url(#a)" stroke="#000" stroke-dasharray="36.03256850311305, 11"><path class="EdgeBody" d="m736.29 354.73-47-1.75"   marker-end="url(#d)" /></g></g><g id="z" class="Edge GraphicalLine" color="#000" ><g color="#000" fill="transparent"  filter="url(#a)" stroke="#000" stroke-dasharray="23.50531854708632, 0"><path class="EdgeBody" d="m155.29 185.98 0.5 23.5"   /></g></g><g id="aa" class="Edge GraphicalLine" color="#f00" ><g color="#f00" fill="transparent"  filter="url(#h)" stroke="#000" stroke-dasharray="22.02271554554524, 0"><path class="EdgeBody" d="m316.6 138.26 1 22"   /></g></g><g id="ab" class="Edge GraphicalLine DirectedInteraction" color="#f00" ><g color="#f00" fill="transparent"  filter="url(#h)" stroke="#000" stroke-dasharray="1025.1392265193374, 5.8"><path class="EdgeBody" d="m101.66 159.12h1030.9"   marker-end="url(#g)" /></g></g><g class="Label" transform="translate(648.29 262.48)" color="#000"  name="n-oxidation of diet-derived amino-trimethylamines"><use class="Icon" width="151" height="25" fill="transparent"  stroke="#000" stroke-width="0" xlink:href="#b"/><text class="Text" transform="translate(75.5,16.5)"   font-size="12px"  text-anchor="middle"><tspan x="0" y="-6.6000000000000005">n-oxidation of diet-derived</tspan> <tspan x="0" y="6.6000000000000005">amino-trimethylamines</tspan></text></g><g class="Label" transform="translate(432.29 400.48)" color="#000"  name="a subunits"><use class="Icon" width="90" height="25" fill="transparent"  stroke="#000" stroke-width="0" xlink:href="#b"/><text class="Text" transform="translate(45,16.5)"   font-size="12px"  text-anchor="middle"><tspan x="0" y="0">a subunits</tspan></text></g><g class="Label" transform="translate(219.11 112.16)" color="#000"  name="Chromosome 1:146,527,987"><use class="Icon" width="191" height="25" fill="transparent"  stroke="#000" stroke-width="0" xlink:href="#b"/><text class="Text" transform="translate(95.5,16.5)"   font-size="12px"  text-anchor="middle"><tspan x="0" y="0">Chromosome 1:146,527,987</tspan></text></g><g class="Label" transform="translate(29.464 54.803)" color="#666666"  name="pseudo gene"><rect class="Icon" transform="matrix(.98901 0 0 .96154 .49451 .48077)" width="90" height="25" fill="#fff" stroke="#666"/><text class="Text" transform="translate(45,16.5)" fill="#666666"  font-size="12px"  text-anchor="middle"><tspan x="0" y="0">pseudo gene</tspan></text></g><a class="GeneProduct PFN1P8 " transform="translate(195.29 165.98)" color="#666666"  name="PFN1P8"  ><rect class="Icon" transform="matrix(.98765 0 0 .95238 .49383 .47619)" width="80" height="20" fill="#fff" stroke="#666"/><text class="Text" transform="translate(40,14)" fill="#666666"  font-size="12px"  text-anchor="middle"><tspan x="0" y="0">PFN1P8</tspan></text></a><a class="GeneProduct NBPF13P " transform="translate(278.29 165.98)" color="#666666"  name="NBPF13P"  ><rect class="Icon" transform="matrix(.98765 0 0 .95238 .49383 .47619)" width="80" height="20" fill="#fff" stroke="#666"/><text class="Text" transform="translate(40,14)" fill="#666666"  font-size="12px"  text-anchor="middle"><tspan x="0" y="0">NBPF13P</tspan></text></a><g class="GeneProduct -151P RNU1-151P -151P" transform="translate(357.29 165.98)" color="#666666"  name="RNU1-151P"><rect class="Icon" transform="matrix(.98765 0 0 .95238 .49383 .47619)" width="80" height="20" fill="#fff" stroke="#666"/><text class="Text" transform="translate(40,14)" fill="#666666"  font-size="12px"  text-anchor="middle"><tspan x="0" y="0">RNU1-151P</tspan></text></g><g class="GroupComplex" transform="translate(425.29 310.98)" color="grey" ><use class="Icon" transform="matrix(.99623 0 0 .98824 .49811 .49412)" width="263.9999999999996" height="84" fill="#b4b464" fill-opacity=".1" stroke="grey" xlink:href="#i"/><a  class="GeneProduct PRKAG1 " transform="translate(172 12)"   name="PRKAG1"  ><rect class="Icon" transform="matrix(.98765 0 0 .95238 .49383 .47619)" width="80" height="20" fill="#fff" stroke="#000"/><text class="Text" transform="translate(40,14)"   font-size="12px"  text-anchor="middle"><tspan x="0" y="0">PRKAG1</tspan></text></a><a  class="GeneProduct PRKAA1 " transform="translate(12,12)"   name="PRKAA1"  ><rect class="Icon" transform="matrix(.98765 0 0 .95238 .49383 .47619)" width="80" height="20" fill="#fff" stroke="#000"/><text class="Text" transform="translate(40,14)"   font-size="12px"  text-anchor="middle"><tspan x="0" y="0">PRKAA1</tspan></text></a><a  class="GeneProduct PRKAA2 " transform="translate(12,32)"   name="PRKAA2"  ><rect class="Icon" transform="matrix(.98765 0 0 .95238 .49383 .47619)" width="80" height="20" fill="#fff" stroke="#000"/><text class="Text" transform="translate(40,14)"   font-size="12px"  text-anchor="middle"><tspan x="0" y="0">PRKAA2</tspan></text></a><a  class="GeneProduct PRKAG2 " transform="translate(172 32)"   name="PRKAG2"  ><rect class="Icon" transform="matrix(.98765 0 0 .95238 .49383 .47619)" width="80" height="20" fill="#fff" stroke="#000"/><text class="Text" transform="translate(40,14)"   font-size="12px"  text-anchor="middle"><tspan x="0" y="0">PRKAG2</tspan></text></a><a  class="GeneProduct PRKAG3 " transform="translate(172 52)"   name="PRKAG3"  ><rect class="Icon" transform="matrix(.98765 0 0 .95238 .49383 .47619)" width="80" height="20" fill="#fff" stroke="#000"/><text class="Text" transform="translate(40,14)"   font-size="12px"  text-anchor="middle"><tspan x="0" y="0">PRKAG3</tspan></text></a><a  class="GeneProduct PRKAB1 " transform="translate(92 12)"   name="PRKAB1"  ><rect class="Icon" transform="matrix(.98765 0 0 .95238 .49383 .47619)" width="80" height="20" fill="#fff" stroke="#000"/><text class="Text" transform="translate(40,14)"   font-size="12px"  text-anchor="middle"><tspan x="0" y="0">PRKAB1</tspan></text></a><a  class="GeneProduct PRKAB2 " transform="translate(92 32)"   name="PRKAB2"  ><rect class="Icon" transform="matrix(.98765 0 0 .95238 .49383 .47619)" width="80" height="20" fill="#fff" stroke="#000"/><text class="Text" transform="translate(40,14)"   font-size="12px"  text-anchor="middle"><tspan x="0" y="0">PRKAB2</tspan></text></a></g><a class="GeneProduct PDIA3P1 " transform="translate(598.29 164.98)" color="#666666"  name="PDIA3P1"  ><rect class="Icon" transform="matrix(.98765 0 0 .95238 .49383 .47619)" width="80" height="20" fill="#fff" stroke="#666"/><text class="Text" transform="translate(40,14)" fill="#666666"  font-size="12px"  text-anchor="middle"><tspan x="0" y="0">PDIA3P1</tspan></text></a><a class="GeneProduct CCT8P1 " transform="translate(757.29 164.98)" color="#666666"  name="CCT8P1"  ><rect class="Icon" transform="matrix(.98765 0 0 .95238 .49383 .47619)" width="80" height="20" fill="#fff" stroke="#666"/><text class="Text" transform="translate(40,14)" fill="#666666"  font-size="12px"  text-anchor="middle"><tspan x="0" y="0">CCT8P1</tspan></text></a><a class="ChEBI_CHEBI_16269 Metabolite  " transform="translate(574.39 231.48)" color="#00f"  name="N,N-dimethylaniline"  ><rect class="Icon" transform="matrix(.99115 0 0 .96154 .49558 .48077)" width="112" height="25" fill="#fff" stroke="#00f"/><text class="Text" transform="translate(56,16.5)" fill="#00f"  font-size="12px"  text-anchor="middle"><tspan x="0" y="0">N,N-dimethylaniline</tspan></text></a><a  class="GeneProduct PRKAB2 " transform="translate(517.29 165.98)"   name="PRKAB2"  ><rect class="Icon" transform="matrix(.98765 0 0 .95238 .49383 .47619)" width="80" height="20" fill="#fff" stroke="#000"/><text class="Text" transform="translate(40,14)"   font-size="12px"  text-anchor="middle"><tspan x="0" y="0">PRKAB2</tspan></text></a><a  class="GeneProduct FMO5 " transform="translate(677.29 164.98)"   name="FMO5"  ><rect class="Icon" transform="matrix(.98765 0 0 .95238 .49383 .47619)" width="80" height="20" fill="#fff" stroke="#000"/><text class="Text" transform="translate(40,14)"   font-size="12px"  text-anchor="middle"><tspan x="0" y="0">FMO5</tspan></text></a><a class="ChEBI_CHEBI_17735 Metabolite  " transform="translate(756.29 231.48)" color="#00f"  name="N,N-dimethylaniline N-oxide"  ><rect class="Icon" transform="matrix(.99394 0 0 .96154 .49697 .48077)" width="164" height="25" fill="#fff" stroke="#00f"/><text class="Text" transform="translate(82,16.5)" fill="#00f"  font-size="12px"  text-anchor="middle"><tspan x="0" y="0">N,N-dimethylaniline N-oxide</tspan></text></a><g class="GeneProduct RPL7AP15 " transform="translate(837.29 164.98)" color="#666666"  name="RPL7AP15"><rect class="Icon" transform="matrix(.98765 0 0 .95238 .49383 .47619)" width="80" height="20" fill="#fff" stroke="#666"/><text class="Text" transform="translate(40,14)" fill="#666666"  font-size="12px"  text-anchor="middle"><tspan x="0" y="0">RPL7AP15</tspan></text></g><a class="ChEBI_CHEBI_16027 Metabolite  " transform="translate(736.29 348.48)" color="#00f"  name="AMP"  ><rect class="Icon" transform="matrix(.98901 0 0 .96154 .49451 .48077)" width="90" height="25" fill="#fff" stroke="#00f"/><text class="Text" transform="translate(45,16.5)" fill="#00f"  font-size="12px"  text-anchor="middle"><tspan x="0" y="0">AMP</tspan></text></a><a class="Rna " transform="translate(437.29 164.98)" color="#990099"  name="RNVU1-8"  ><rect class="Icon" transform="matrix(.98765 0 0 .95238 .49383 .47619)" width="80" height="20" fill="#fff" stroke="#909"/><text class="Text" transform="translate(40,14)" fill="#990099"  font-size="12px"  text-anchor="middle"><tspan x="0" y="0">RNVU1-8</tspan></text></a><a  class="GeneProduct NBPF12 " transform="translate(115.29 165.98)"   name="NBPF12"  ><rect class="Icon" transform="matrix(.98765 0 0 .95238 .49383 .47619)" width="80" height="20" fill="#fff" stroke="#000"/><text class="Text" transform="translate(40,14)"   font-size="12px"  text-anchor="middle"><tspan x="0" y="0">NBPF12</tspan></text></a><a class="WikiPathways_WP368 Pathway " transform="translate(483.24 436.68)" color="#14961e"  name="Fatty acid b-oxidation"  ><rect class="Icon" transform="matrix(.99329 0 0 .96154 .49664 .48077)" width="148" height="25" rx="15" ry="15" fill="#fff" stroke="#14961e"/><text class="Text" transform="translate(74,16.5)" fill="#14961e"  font-size="12px" font-weight="bold" stroke="black" stroke-width="0" text-anchor="middle"><tspan x="0" y="0">Fatty acid b-oxidation</tspan></text></a><g class="Label" transform="translate(29.464 83.803)" color="#990099"  name="RNA gene"><rect class="Icon" transform="matrix(.98901 0 0 .96154 .49451 .48077)" width="90" height="25" fill="#fff" stroke="#909"/><text class="Text" transform="translate(45,16.5)" fill="#990099"  font-size="12px"  text-anchor="middle"><tspan x="0" y="0">RNA gene</tspan></text></g><g class="Label" transform="translate(88.293 209.48)" color="#000"  name="neuroblastoma related unique in Homo"><use class="Icon" width="135" height="43.5" fill="transparent"  stroke="#000" stroke-width="0" xlink:href="#b"/><text class="Text" transform="translate(67.5,25.75)"   font-size="12px"  text-anchor="middle"><tspan x="0" y="-6.6000000000000005">neuroblastoma related</tspan> <tspan x="0" y="6.6000000000000005">unique in Homo</tspan></text></g><g class="Label" transform="translate(512.29 400.48)" color="#000"  name="b subunits"><use class="Icon" width="90" height="25" fill="transparent"  stroke="#000" stroke-width="0" xlink:href="#b"/><text class="Text" transform="translate(45,16.5)"   font-size="12px"  text-anchor="middle"><tspan x="0" y="0">b subunits</tspan></text></g><g class="Label" transform="translate(590.29 400.48)" color="#000"  name="g subunits"><use class="Icon" width="90" height="25" fill="transparent"  stroke="#000" stroke-width="0" xlink:href="#b"/><text class="Text" transform="translate(45,16.5)"   font-size="12px"  text-anchor="middle"><tspan x="0" y="0">g subunits</tspan></text></g><g class="Label" transform="translate(429.29 368.48)" color="#000"  name="AMPK 5' AMP-activated protein kinase"><use class="Icon" width="193" height="25" fill="transparent"  stroke="#000" stroke-width="0" xlink:href="#b"/><text class="Text" transform="translate(96.5,16.5)"   font-size="12px"  text-anchor="middle"><tspan x="0" y="-6.6000000000000005">AMPK</tspan> <tspan x="0" y="6.6000000000000005">5' AMP-activated protein kinase</tspan></text></g><a class="ChEBI_CHEBI_16761 Metabolite  " transform="translate(736.29 373.48)" color="#00f"  name="ADP"  ><rect class="Icon" transform="matrix(.98901 0 0 .96154 .49451 .48077)" width="90" height="25" fill="#fff" stroke="#00f"/><text class="Text" transform="translate(45,16.5)" fill="#00f"  font-size="12px"  text-anchor="middle"><tspan x="0" y="0">ADP</tspan></text></a><g id="ac" class="Interaction" color="#000" ><g color="#000" fill="transparent"  filter="url(#a)" stroke="#000" stroke-dasharray="232.0470311581367, 11"><path class="EdgeBody" d="m560.03 505.52v20h-149.34v73.711"   marker-end="url(#d)" /></g></g><g id="ad" class="DirectedInteraction" color="#000" ><g color="#000" fill="transparent"  filter="url(#a)" stroke="#000" stroke-dasharray="28.40974799680507, 5.8"><path class="EdgeBody" d="m1000.2 266.6-0.3658 34.208"   marker-end="url(#g)" /></g></g><g id="ae" class="Interaction" color="#000" ><g color="#000" fill="transparent"  filter="url(#a)" stroke="#000" stroke-dasharray="25.562020262544557, 11"><path class="EdgeBody" d="m663.62 707.18-0.14609 36.562"   marker-end="url(#d)" /></g></g><g id="af" class="Rhea_15017" color="#000" ><g color="#000" fill="transparent"  filter="url(#a)" stroke="#000" stroke-dasharray="72.67606946156143, 5.8"><path class="EdgeBody" d="m866.54 591.06 76.41-17.887"   marker-end="url(#e)" /></g><g class="Burr Anchor" transform="translate(908.2 581.31)" ><use class="Icon" width="0" height="0" fill="#141414" stroke-width="0" xlink:href="#b"/></g></g><g id="ag" class="Interaction" color="#000" ><g color="#000" fill="transparent"  filter="url(#a)" stroke="#000" stroke-dasharray="129.8160445678792, 11"><path class="EdgeBody" d="m937.09 504.33v27.644h-52.398v60.774"   marker-end="url(#f)" /></g></g><g id="ah" class="Interaction" color="#000" ><g color="#000" fill="transparent"  filter="url(#a)" stroke="#000" stroke-dasharray="54.4179114052316, 1"><path class="EdgeBody" d="m1000.1 186.19 0.1342 55.418"   marker-end="url(#c)" /></g></g><g id="ai" class="Interaction" color="#000" ><g color="#000" fill="transparent"  filter="url(#a)" stroke="#000" stroke-dasharray="254.891469494638, 1"><path class="EdgeBody" d="m580.03 505.52v54.846h-83.686v117.36"   marker-end="url(#c)" /></g></g><g id="aj" class="Rhea_39835" color="#000" ><g color="#000" fill="transparent"  filter="url(#a)" stroke="#000" stroke-dasharray="158.08643721301294, 5.8"><path class="EdgeBody" d="m998.78 664.77 163.66-8.5231"   marker-end="url(#e)" /></g><g class="Burr Anchor" transform="translate(1089.2 660.07)" ><use class="Icon" width="0" height="0" fill="#141414" stroke-width="0" xlink:href="#b"/></g></g><g id="ak" class="Interaction" color="#000" ><g color="#000" fill="transparent"  filter="url(#a)" stroke="#000" stroke-dasharray="94.86379574216494, 11"><path class="EdgeBody" d="m937.09 504.33v28.15h-28.889v48.825"   marker-end="url(#f)" /></g></g><g id="al" class="Interaction" color="#000" ><g color="#000" fill="transparent"  filter="url(#a)" stroke="#000" stroke-dasharray="45.16375180864551, 11"><path class="EdgeBody" d="m663.47 768.74 0.60494 56.16"   marker-end="url(#d)" /></g></g><g id="am" class="Interaction" color="#000" ><g color="#000" fill="transparent"  filter="url(#a)" stroke="#000" stroke-dasharray="147.74517663406806, 1"><path class="EdgeBody" d="m600.03 505.52v54.846h63.591v30.308"   marker-end="url(#c)" /></g></g><g id="an" class="Interaction" color="#000" ><g color="#000" fill="transparent"  filter="url(#a)" stroke="#000" stroke-dasharray="296.8055045054166, 11"><path class="EdgeBody" d="m937.09 504.33v20h152.07v135.74"   marker-end="url(#f)" /></g></g><g id="ao" class="Interaction" color="#000" ><g color="#000" fill="transparent"  filter="url(#a)" stroke="#000" stroke-dasharray="14.458238099271917, 11"><path class="EdgeBody" d="m704.22 768.74 0.14609 25.458"   marker-end="url(#d)" /></g></g><g id="ap" class="Rhea_15017" color="#000" ><g color="#000" fill="transparent"  filter="url(#a)" stroke="#000" stroke-dasharray="70.94074503402037, 5.8"><path class="EdgeBody" d="m866.54 591.06 76.41 7.113"   marker-end="url(#e)" /></g><g class="Burr Anchor" transform="translate(884.69 592.75)" ><use class="Icon" width="0" height="0" fill="#141414" stroke-width="0" xlink:href="#b"/></g></g><g id="aq" class="Edge GraphicalLine" color="#f00" ><g color="#f00" fill="transparent"  filter="url(#h)" stroke="#000" stroke-dasharray="14.282317972472999, 0"><path class="EdgeBody" d="m1386.4 465.61 0.38247 14.277"   /></g></g><g class="Label" transform="translate(340.19 599.23)" color="#000"  name="Schizophrenia Bipolar disorder Major depressive disorder"><use class="Icon" width="141" height="49" fill="transparent"  stroke="#000" stroke-width="0" xlink:href="#b"/><text class="Text" transform="translate(70.5,28.5)"   font-size="12px"  text-anchor="middle"><tspan x="0" y="-13.200000000000001">Schizophrenia</tspan> <tspan x="0" y="0">Bipolar disorder</tspan> <tspan x="0" y="13.200000000000001">Major depressive disorder</tspan></text></g><g class="Label" transform="translate(1299.5 443.26)" color="#000"  name="Chromosome 1:147,394,444"><use class="Icon" width="174" height="24.817095748769923" fill="transparent"  stroke="#000" stroke-width="0" xlink:href="#b"/><text class="Text" transform="translate(87 16.409)"   font-size="12px"  text-anchor="middle"><tspan x="0" y="0">Chromosome 1:147,394,444</tspan></text></g><g class="Label" transform="translate(885.24 324.21)" color="#000"  name="Helicase activity - involved in any DNA relaxation process required  for DNA replication, repair  and transcription"><use class="Icon" width="229" height="70.5" fill="transparent"  stroke="#000" stroke-width="0" xlink:href="#b"/><text class="Text" transform="translate(114.5,39.25)"   font-size="12px"  text-anchor="middle"><tspan x="0" y="-19.8">Helicase activity - involved in</tspan> <tspan x="0" y="-6.6000000000000005">any DNA relaxation process required </tspan> <tspan x="0" y="6.6000000000000005">for DNA replication, repair </tspan> <tspan x="0" y="19.8">and transcription</tspan></text></g><g class="Label" transform="translate(427.37 812.63)" color="#000"  name="Enamel formation"><use class="Icon" width="130" height="25" fill="transparent"  stroke="#000" stroke-width="0" xlink:href="#b"/><text class="Text" transform="translate(65,16.5)"   font-size="12px"  text-anchor="middle"><tspan x="0" y="0">Enamel formation</tspan></text></g><a  class="GeneProduct CHD1L " transform="translate(960.11 166.19)"   name="CHD1L"  ><rect class="Icon" transform="matrix(.98765 0 0 .95238 .49383 .47619)" width="80" height="20" fill="#fff" stroke="#000"/><text class="Text" transform="translate(40,14)"   font-size="12px"  text-anchor="middle"><tspan x="0" y="0">CHD1L</tspan></text></a><a  class="GeneProduct GJA8 " transform="translate(1293.7 483.22)"   name="GJA8"  ><rect class="Icon" transform="matrix(.98765 0 0 .95238 .49383 .47619)" width="80" height="20" fill="#fff" stroke="#000"/><text class="Text" transform="translate(40,14)"   font-size="12px"  text-anchor="middle"><tspan x="0" y="0">GJA8</tspan></text></a><a class="ChEBI_CHEBI_16991 Metabolite  " transform="translate(955.24 241.6)" color="#00f"  name="DNA"  ><rect class="Icon" transform="matrix(.98901 0 0 .96154 .49451 .48077)" width="90" height="25" fill="#fff" stroke="#00f"/><text class="Text" transform="translate(45,16.5)" fill="#00f"  font-size="12px"  text-anchor="middle"><tspan x="0" y="0">DNA</tspan></text></a><g class="GeneProduct OR13Z3P " transform="translate(440.12 485.52)" color="#666666"  name="OR13Z3P"><rect class="Icon" transform="matrix(.98765 0 0 .95238 .49383 .47619)" width="80" height="20" fill="#fff" stroke="#666"/><text class="Text" transform="translate(40,14)" fill="#666666"  font-size="12px"  text-anchor="middle"><tspan x="0" y="0">OR13Z3P</tspan></text></g><g class="GroupComplex" transform="translate(439.34 677.73)" color="grey" ><use class="Icon" transform="matrix(.9913 0 0 .992 .49565 .496)" width="113.99999999999994" height="123.99999999999841" fill="#b4b464" fill-opacity=".1" stroke="grey" xlink:href="#i"/><a  class="GeneProduct AMELX " transform="translate(12,12)"   name="AMELX"  ><rect class="Icon" transform="matrix(.98901 0 0 .96154 .49451 .48077)" width="90" height="25" fill="#fff" stroke="#000"/><text class="Text" transform="translate(45,16.5)"   font-size="12px"  text-anchor="middle"><tspan x="0" y="0">AMELX</tspan></text></a><a  class="GeneProduct PYGO1 " transform="translate(12 37)"   name="PYGO1"  ><rect class="Icon" transform="matrix(.98901 0 0 .96154 .49451 .48077)" width="90" height="25" fill="#fff" stroke="#000"/><text class="Text" transform="translate(45,16.5)"   font-size="12px"  text-anchor="middle"><tspan x="0" y="0">PYGO1</tspan></text></a><a  class="GeneProduct BCL9 " transform="translate(12 87)"   name="BCL9"  ><rect class="Icon" transform="matrix(.98901 0 0 .96154 .49451 .48077)" width="90" height="25" fill="#fff" stroke="#000"/><text class="Text" transform="translate(45,16.5)"   font-size="12px"  text-anchor="middle"><tspan x="0" y="0">BCL9</tspan></text></a><a  class="GeneProduct PYGO2 " transform="translate(12 62)"   name="PYGO2"  ><rect class="Icon" transform="matrix(.98901 0 0 .96154 .49451 .48077)" width="90" height="25" fill="#fff" stroke="#000"/><text class="Text" transform="translate(45,16.5)"   font-size="12px"  text-anchor="middle"><tspan x="0" y="0">PYGO2</tspan></text></a></g><a class="WikiPathways_WP4239 Pathway " transform="translate(681.87 794.2)" color="#14961e"  name="Colon cancer"  ><rect class="Icon" transform="matrix(.98901 0 0 .96154 .49451 .48077)" width="90" height="25" rx="15" ry="15" fill="#fff" stroke="#14961e"/><text class="Text" transform="translate(45,16.5)" fill="#14961e"  font-size="12px" font-weight="bold" stroke="black" stroke-width="0" text-anchor="middle"><tspan x="0" y="0">Colon cancer</tspan></text></a><a  class="GeneProduct GJA5 " transform="translate(1193.5 483.9)"   name="GJA5"  ><rect class="Icon" transform="matrix(.98765 0 0 .95238 .49383 .47619)" width="80" height="20" fill="#fff" stroke="#000"/><text class="Text" transform="translate(40,14)"   font-size="12px"  text-anchor="middle"><tspan x="0" y="0">GJA5</tspan></text></a><a  class="GeneProduct ACP6 " transform="translate(897.09 484.33)"   name="ACP6"  ><rect class="Icon" transform="matrix(.98765 0 0 .95238 .49383 .47619)" width="80" height="20" fill="#fff" stroke="#000"/><text class="Text" transform="translate(40,14)"   font-size="12px"  text-anchor="middle"><tspan x="0" y="0">ACP6</tspan></text></a><a class="ChEBI_CHEBI_62837 Metabolite  " transform="translate(747.2 652.27)" color="#00f"  name="1-(9Z-octadecenoyl)-sn-glycero-3-phosphate"  ><rect class="Icon" transform="matrix(.99604 0 0 .96154 .49802 .48077)" width="251.58" height="25" fill="#fff" stroke="#00f"/><text class="Text" transform="translate(125.79 16.5)" fill="#00f"  font-size="12px"  text-anchor="middle"><tspan x="0" y="0">1-(9Z-octadecenoyl)-sn-glycero-3-phosphate</tspan></text></a><a class="WikiPathways_WP428 Pathway " transform="translate(581.97 743.74)" color="#14961e"  name="WNT signaling pathway"  ><rect class="Icon" transform="matrix(.9939 0 0 .96154 .49695 .48077)" width="163" height="25" rx="15" ry="15" fill="#fff" stroke="#14961e"/><text class="Text" transform="translate(81.5,16.5)" fill="#14961e"  font-size="12px" font-weight="bold" stroke="black" stroke-width="0" text-anchor="middle"><tspan x="0" y="0">WNT signaling pathway</tspan></text></a><a class="GeneProduct RN7SL261P " transform="translate(1090.5 482.85)" color="#666666"  name="RN7SL261P"  ><rect class="Icon" transform="matrix(.98765 0 0 .95238 .49383 .47619)" width="80" height="20" fill="#fff" stroke="#666"/><text class="Text" transform="translate(40,14)" fill="#666666"  font-size="12px"  text-anchor="middle"><tspan x="0" y="0">RN7SL261P</tspan></text></a><a class="Rna LINC00624 " transform="translate(1039.1 166.19)" color="#990099"  name="LINC00624"  ><rect class="Icon" transform="matrix(.98765 0 0 .95238 .49383 .47619)" width="80" height="20" fill="#fff" stroke="#909"/><text class="Text" transform="translate(40,14)" fill="#990099"  font-size="12px"  text-anchor="middle"><tspan x="0" y="0">LINC00624</tspan></text></a><a class="ChEBI_CHEBI_30879 Metabolite  " transform="translate(942.95 560.67)" color="#00f"  name="an alcohol"  ><rect class="Icon" transform="matrix(.98901 0 0 .96154 .49451 .48077)" width="90" height="25" fill="#fff" stroke="#00f"/><text class="Text" transform="translate(45,16.5)" fill="#00f"  font-size="12px"  text-anchor="middle"><tspan x="0" y="0">an alcohol</tspan></text></a><a class="Metabolite ChEBI_CHEBI_26078  " transform="translate(942.95 585.67)" color="#00f"  name="Phosphate"  ><rect class="Icon" transform="matrix(.98901 0 0 .96154 .49451 .48077)" width="90" height="25" fill="#fff" stroke="#00f"/><text class="Text" transform="translate(45,16.5)" fill="#00f"  font-size="12px"  text-anchor="middle"><tspan x="0" y="0">Phosphate</tspan></text></a><g class="GroupComplex" transform="translate(606.62 590.68)" color="grey" ><use class="Icon" transform="matrix(.9913 0 0 .99149 .49565 .49574)" width="114" height="116.5" fill="#b4b464" fill-opacity=".1" stroke="grey" xlink:href="#i"/><a  class="GeneProduct CTNNB1 " transform="translate(12,37)"   name="CTNNB1"  ><rect class="Icon" transform="matrix(.98901 0 0 .96154 .49451 .48077)" width="90" height="25" fill="#fff" stroke="#000"/><text class="Text" transform="translate(45,16.5)"   font-size="12px"  text-anchor="middle"><tspan x="0" y="0">CTNNB1</tspan></text></a><a  class="GeneProduct PYGO1 " transform="translate(12,12)"   name="PYGO1"  ><rect class="Icon" transform="matrix(.98901 0 0 .96154 .49451 .48077)" width="90" height="25" fill="#fff" stroke="#000"/><text class="Text" transform="translate(45,16.5)"   font-size="12px"  text-anchor="middle"><tspan x="0" y="0">PYGO1</tspan></text></a><a  class="GeneProduct BCL9 " transform="translate(12,79.5)"   name="BCL9"  ><rect class="Icon" transform="matrix(.98901 0 0 .96154 .49451 .48077)" width="90" height="25" fill="#fff" stroke="#000"/><text class="Text" transform="translate(45,16.5)"   font-size="12px"  text-anchor="middle"><tspan x="0" y="0">BCL9</tspan></text></a><a  class="GeneProduct PYGO2 " transform="translate(12 59.5)"   name="PYGO2"  ><rect class="Icon" transform="matrix(.98901 0 0 .96154 .49451 .48077)" width="90" height="25" fill="#fff" stroke="#000"/><text class="Text" transform="translate(45,16.5)"   font-size="12px"  text-anchor="middle"><tspan x="0" y="0">PYGO2</tspan></text></a></g><a class="GeneProduct OR13Z2P " transform="translate(360.12 485.52)" color="#666666"  name="OR13Z2P"  ><rect class="Icon" transform="matrix(.98765 0 0 .95238 .49383 .47619)" width="80" height="20" fill="#fff" stroke="#666"/><text class="Text" transform="translate(40,14)" fill="#666666"  font-size="12px"  text-anchor="middle"><tspan x="0" y="0">OR13Z2P</tspan></text></a><a class="ChEBI_CHEBI_75757 Metabolite  " transform="translate(1109.5 670.93)" color="#00f"  name="1-(9Z-octadecenoyl)-sn-glycerol"  ><rect class="Icon" transform="matrix(.99485 0 0 .96154 .49742 .48077)" width="192.99" height="25" fill="#fff" stroke="#00f"/><text class="Text" transform="translate(96.493 16.5)" fill="#00f"  font-size="12px"  text-anchor="middle"><tspan x="0" y="0">1-(9Z-octadecenoyl)-sn-glycerol</tspan></text></a><a class="WikiPathways_WP1591 Pathway " transform="translate(604.58 824.9)" color="#14961e"  name="Heart development"  ><rect class="Icon" transform="matrix(.99167 0 0 .96154 .49583 .48077)" width="119" height="25" rx="15" ry="15" fill="#fff" stroke="#14961e"/><text class="Text" transform="translate(59.5,16.5)" fill="#14961e"  font-size="12px" font-weight="bold" stroke="black" stroke-width="0" text-anchor="middle"><tspan x="0" y="0">Heart development</tspan></text></a><g class="WikiPathways_WP1980 Pathway" transform="translate(925.37 300.81)" color="#14961e"  name="Base Excision Repair"><rect class="Icon" transform="matrix(.99333 0 0 .96154 .49667 .48077)" width="149" height="25" rx="15" ry="15" fill="#fff" stroke="#14961e"/><text class="Text" transform="translate(74.5,16.5)" fill="#14961e"  font-size="12px" font-weight="bold" stroke="black" stroke-width="0" text-anchor="middle"><tspan x="0" y="0">Base Excision Repair</tspan></text></g><a class="GeneProduct OR13Z1P " transform="translate(280.12 485.52)" color="#666666"  name="OR13Z1P"  ><rect class="Icon" transform="matrix(.98765 0 0 .95238 .49383 .47619)" width="80" height="20" fill="#fff" stroke="#666"/><text class="Text" transform="translate(40,14)" fill="#666666"  font-size="12px"  text-anchor="middle"><tspan x="0" y="0">OR13Z1P</tspan></text></a><a  class="GeneProduct BCL9 " transform="translate(540.03 485.52)"   name="BCL9"  ><rect class="Icon" transform="matrix(.98765 0 0 .95238 .49383 .47619)" width="80" height="20" fill="#fff" stroke="#000"/><text class="Text" transform="translate(40,14)"   font-size="12px"  text-anchor="middle"><tspan x="0" y="0">BCL9</tspan></text></a><g class="ChEBI_CHEBI_7794 Metabolite " transform="translate(731.99 578.56)" color="#00f"  name="phosphate monoesters"><rect class="Icon" transform="matrix(.99262 0 0 .96154 .49631 .48077)" width="134.55" height="25" fill="#fff" stroke="#00f"/><text class="Text" transform="translate(67.275 16.5)" fill="#00f"  font-size="12px"  text-anchor="middle"><tspan x="0" y="0">phosphate monoesters</tspan></text></g><a class="Metabolite ChEBI_CHEBI_26078  " transform="translate(1162.4 643.75)" color="#00f"  name="Phosphate"  ><rect class="Icon" transform="matrix(.98901 0 0 .96154 .49451 .48077)" width="90" height="25" fill="#fff" stroke="#00f"/><text class="Text" transform="translate(45,16.5)" fill="#00f"  font-size="12px"  text-anchor="middle"><tspan x="0" y="0">Phosphate</tspan></text></a><g id="ar" class="Rhea_39835" color="#000" ><g color="#000" fill="transparent"  filter="url(#a)" stroke="#000" stroke-dasharray="106.44612000898445, 5.8"><path class="EdgeBody" d="m998.78 664.77 110.68 18.66"   marker-end="url(#e)" /></g><g class="Burr Anchor" transform="translate(1058.2 674.79)" ><use class="Icon" width="0" height="0" fill="#141414" stroke-width="0" xlink:href="#b"/></g></g><g id="as" class="Interaction" color="#000" ><g color="#000" fill="transparent"  filter="url(#a)" stroke="#000" stroke-dasharray="280.56319974793485, 11"><path class="EdgeBody" d="m937.09 504.33v20h121.1v150.46"   marker-end="url(#f)" /></g></g><g id="at" class="Edge GraphicalLine DirectedInteraction" color="#f00" ><g color="#f00" fill="transparent"  filter="url(#h)" stroke="#000" stroke-dasharray="1163.7228351418169, 5.8"><path class="EdgeBody" d="m274.03 480.66 1169.5-1.0568"   marker-end="url(#g)" /></g></g><g class="Label" transform="translate(1182.5 536.15)" color="#000"  name="gap junction  proteins"><use class="Icon" width="102.0440795159912" height="28.05747623163325" fill="transparent"  stroke="#000" stroke-width="0" xlink:href="#b"/><text class="Text" transform="translate(51.022 18.029)"   font-size="12px"  text-anchor="middle"><tspan x="0" y="-6.6000000000000005">gap junction </tspan> <tspan x="0" y="6.6000000000000005">proteins</tspan></text></g><text class="Text" transform="translate(5,27)" dominant-baseline="central" fill="black"  font-size="12px" font-weight="bold" overflow="visible" ><tspan x="0" y="-9">Name: 1q21.1 copy number variation syndrome</tspan> <tspan x="0" y="9">Organism: Homo sapiens</tspan></text></g></svg>
