<?xml version="1.0" encoding="UTF-8"?>
<!--
  WikiPathways page: https://www.wikipathways.org/index.php/Pathway:WP5033
  URL for this compressed file: https://github.com/eweitz/cachome/tree/main/data/wikipathways/WP5033.svg
  Source code for compression: https://github.com/eweitz/cachome/tree/main/src/wikipathways.py
-->
<svg class="Diagram" width="800" height="600" color="black" baseProfile="full" prefix="schema:http://schema.org/" preserveAspectRatio="xMidYMid" version="1.1" viewBox="0 0 577.15 636.38" vocab="http://vocabularies.wikipathways.org/wp#" xmlns="http://www.w3.org/2000/svg" xmlns:xlink="http://www.w3.org/1999/xlink"><style>svg {font-family: 'Liberation Sans', Arial, sans-serif; }</style><defs><symbol id="b" overflow="visible" preserveAspectRatio="none" viewBox="0 0 50 50"><ellipse cx="25" cy="25" rx="25" ry="25" stroke="currentColor" vector-effect="non-scaling-stroke"/></symbol><symbol id="a" preserveAspectRatio="none" viewBox="0 0 100 100"/></defs><g class="Viewport" color="black"  name="Name: Genes associated with the development of rheumatoid arthritis Organism: Homo sapiens"><rect class="Icon" width="577.15" height="636.38" fill="#fff" stroke="#000" stroke-width="0"/><g class="Label" transform="translate(457.15 111.68)" color="#000"  name="Cytokines"><use class="Icon" width="90" height="25" fill="transparent"  stroke="#000" stroke-width="0" xlink:href="#a"/><text class="Text" transform="translate(45,16.5)"   font-size="12px"  text-anchor="middle"><tspan x="0" y="0">Cytokines</tspan></text></g><a  class="GeneProduct FCRL3 " transform="translate(41.459 309.9)"   name="FCRL3"  ><rect class="Icon" transform="matrix(.9902 0 0 .96154 .4951 .48077)" width="101" height="25" fill="#fff" stroke="#000"/><text class="Text" transform="translate(50.5,16.5)"   font-size="12px"  text-anchor="middle"><tspan x="0" y="0">FCRL3</tspan></text></a><a  class="GeneProduct PHF19 " transform="translate(41.459 499.44)"   name="PHF19"  ><rect class="Icon" transform="matrix(.9902 0 0 .96154 .4951 .48077)" width="101" height="25" fill="#fff" stroke="#000"/><text class="Text" transform="translate(50.5,16.5)"   font-size="12px"  text-anchor="middle"><tspan x="0" y="0">PHF19</tspan></text></a><a  class="GeneProduct PTPN22 " transform="translate(181.39 152.26)"   name="PTPN22"  ><rect class="Icon" transform="matrix(.9902 0 0 .98773 .4951 .49387)" width="101" height="80.5" fill="#fff" stroke="#000"/><g class="Burr State dbSNP_rs2476601" transform="translate(69.378 67.973)" color="#000"  name="R620W"><use class="Icon" transform="matrix(.98387 0 0 .96154 .49194 .48077)" width="61" height="25" fill="#fff" stroke="#000" xlink:href="#b"/><text class="Text" transform="translate(30.5,15.5)"   font-size="10px"  text-anchor="middle"><tspan x="0" y="0">R620W</tspan></text></g><g class="Burr State dbSNP_rs2488457" transform="translate(66.75 4.254)" color="#000"  name="-1123G&gt;C"><use class="Icon" transform="matrix(.98561 0 0 .96226 .49281 .48113)" width="68.5" height="25.5" fill="#fff" stroke="#000" xlink:href="#b"/><text class="Text" transform="translate(34.25,15.75)"   font-size="10px"  text-anchor="middle"><tspan x="0" y="0">-1123G&gt;C</tspan></text></g><text class="Text" transform="translate(50.5,44.25)"   font-size="12px"  text-anchor="middle"><tspan x="0" y="0">PTPN22</tspan></text></a><g class="Pathway" transform="translate(168.76 59.134)" color="#14961e"  name="chronic inflammation"><use class="Icon" width="103" height="25" fill="transparent"  stroke="#14961e" stroke-width="0" xlink:href="#a"/><text class="Text" transform="translate(51.5,16.5)" fill="#14961e"  font-size="12px" font-weight="bold" stroke="black" stroke-width="0" text-anchor="middle"><tspan x="0" y="-6.6000000000000005">chronic</tspan> <tspan x="0" y="6.6000000000000005">inflammation</tspan></text></g><a  class="GeneProduct CIITA " transform="translate(41.459 197.9)"   name="CIITA"  ><rect class="Icon" transform="matrix(.9902 0 0 .96154 .4951 .48077)" width="101" height="25" fill="#fff" stroke="#000"/><text class="Text" transform="translate(50.5,16.5)"   font-size="12px"  text-anchor="middle"><tspan x="0" y="0">CIITA</tspan></text></a><a  class="GeneProduct TRAF1 " transform="translate(457.15 146.49)"   name="TRAF1"  ><rect class="Icon" transform="matrix(.98901 0 0 .96154 .49451 .48077)" width="90" height="25" fill="#fff" stroke="#000"/><text class="Text" transform="translate(45,16.5)"   font-size="12px"  text-anchor="middle"><tspan x="0" y="0">TRAF1</tspan></text></a><a  class="GeneProduct SLC22A4 " transform="translate(41.459 362.9)"   name="SLC22A4"  ><rect class="Icon" transform="matrix(.9902 0 0 .96154 .4951 .48077)" width="101" height="25" fill="#fff" stroke="#000"/><text class="Text" transform="translate(50.5 16.5)"   font-size="12px"  text-anchor="middle"><tspan x="0" y="0">SLC22A4</tspan></text></a><g class="Pathway" transform="translate(315.34 59.937)" color="#14961e"  name="citrullination"><use class="Icon" width="90" height="25" fill="transparent"  stroke="#14961e" stroke-width="0" xlink:href="#a"/><text class="Text" transform="translate(45,16.5)" fill="#14961e"  font-size="12px" font-weight="bold" stroke="black" stroke-width="0" text-anchor="middle"><tspan x="0" y="0">citrullination</tspan></text></g><a  class="GeneProduct -DRB1 HLA-DRB1 -DRB1 " transform="translate(41.459 148.76)"   name="HLA-DRB1"  ><rect class="Icon" transform="matrix(.9902 0 0 .96154 .4951 .48077)" width="101" height="25" fill="#fff" stroke="#000"/><text class="Text" transform="translate(50.5,16.5)"   font-size="12px"  text-anchor="middle"><tspan x="0" y="0">HLA-DRB1</tspan></text></a><a  class="GeneProduct PADI4 " transform="translate(41.459 243.4)"   name="PADI4"  ><rect class="Icon" transform="matrix(.9902 0 0 .96721 .4951 .48361)" width="101" height="29.5" fill="#fff" stroke="#000"/><g class="Burr State dbSNP_rs2240340" transform="translate(-50.5 16.5)" color="#000"  name="C17336144T"><use class="Icon" transform="matrix(.9902 0 0 .96296 .4951 .48148)" width="101" height="25.99999999999999" fill="#fff" stroke="#000" xlink:href="#b"/><text class="Text" transform="translate(50.5 16)"   font-size="10px"  text-anchor="middle"><tspan x="0" y="0">C17336144T</tspan></text></g><text class="Text" transform="translate(50.5 18.75)"   font-size="12px"  text-anchor="middle"><tspan x="0" y="0">PADI4</tspan></text></a><a  class="GeneProduct IL6ST " transform="translate(457.15 188.41)"   name="IL6ST"  ><rect class="Icon" transform="matrix(.98901 0 0 .96154 .49451 .48077)" width="90" height="25" fill="#fff" stroke="#000"/><text class="Text" transform="translate(45,16.5)"   font-size="12px"  text-anchor="middle"><tspan x="0" y="0">IL6ST</tspan></text></a><a  class="GeneProduct STAT4 " transform="translate(457.15 228.49)"   name="STAT4"  ><rect class="Icon" transform="matrix(.98901 0 0 .96154 .49451 .48077)" width="90" height="25" fill="#fff" stroke="#000"/><text class="Text" transform="translate(45,16.5)"   font-size="12px"  text-anchor="middle"><tspan x="0" y="0">STAT4</tspan></text></a><g class="Label" transform="translate(186.89 111.68)" color="#000"  name="T cells"><use class="Icon" width="90" height="25" fill="transparent"  stroke="#000" stroke-width="0" xlink:href="#a"/><text class="Text" transform="translate(45,16.5)"   font-size="12px"  text-anchor="middle"><tspan x="0" y="0">T cells</tspan></text></g><g class="Label" transform="translate(46.959 111.68)" color="#000"  name="Other"><use class="Icon" width="90" height="25" fill="transparent"  stroke="#000" stroke-width="0" xlink:href="#a"/><text class="Text" transform="translate(45,16.5)"   font-size="12px"  text-anchor="middle"><tspan x="0" y="0">Other</tspan></text></g><g class="Label" transform="translate(342.71 111.07)" color="#000"  name="B cells"><use class="Icon" width="90" height="25" fill="transparent"  stroke="#000" stroke-width="0" xlink:href="#a"/><text class="Text" transform="translate(45,16.5)"   font-size="12px"  text-anchor="middle"><tspan x="0" y="0">B cells</tspan></text></g><a  class="GeneProduct BLK " transform="translate(344.99 147.29)"   name="BLK"  ><rect class="Icon" transform="matrix(.98901 0 0 .96154 .49451 .48077)" width="90" height="25" fill="#fff" stroke="#000"/><text class="Text" transform="translate(45,16.5)"   font-size="12px"  text-anchor="middle"><tspan x="0" y="0">BLK</tspan></text></a><a  class="GeneProduct CD40 " transform="translate(345.78 189.82)"   name="CD40"  ><rect class="Icon" transform="matrix(.98901 0 0 .96154 .49451 .48077)" width="90" height="25" fill="#fff" stroke="#000"/><text class="Text" transform="translate(45,16.5)"   font-size="12px"  text-anchor="middle"><tspan x="0" y="0">CD40</tspan></text></a><a  class="GeneProduct CD244 " transform="translate(41.459 409.77)"   name="CD244"  ><rect class="Icon" transform="matrix(.9902 0 0 .96154 .4951 .48077)" width="101" height="25" fill="#fff" stroke="#000"/><text class="Text" transform="translate(50.5 16.5)"   font-size="12px"  text-anchor="middle"><tspan x="0" y="0">CD244</tspan></text></a><a  class="GeneProduct IRF5 " transform="translate(41.459 454.14)"   name="IRF5"  ><rect class="Icon" transform="matrix(.9902 0 0 .96154 .4951 .48077)" width="101" height="25" fill="#fff" stroke="#000"/><text class="Text" transform="translate(50.5,16.5)"   font-size="12px"  text-anchor="middle"><tspan x="0" y="0">IRF5</tspan></text></a><a  class="GeneProduct CTLA4 " transform="translate(181.14 278.14)"   name="CTLA4"  ><rect class="Icon" transform="matrix(.9902 0 0 .96154 .4951 .48077)" width="101" height="25" fill="#fff" stroke="#000"/><text class="Text" transform="translate(50.5 16.5)"   font-size="12px"  text-anchor="middle"><tspan x="0" y="0">CTLA4</tspan></text></a><a  class="GeneProduct CCR6 " transform="translate(181.31 323.74)"   name="CCR6"  ><rect class="Icon" transform="matrix(.9902 0 0 .96154 .4951 .48077)" width="101" height="25" fill="#fff" stroke="#000"/><text class="Text" transform="translate(50.5 16.5)"   font-size="12px"  text-anchor="middle"><tspan x="0" y="0">CCR6</tspan></text></a><a  class="GeneProduct IL2RA " transform="translate(41.459 541.53)"   name="IL2RA"  ><rect class="Icon" transform="matrix(.9902 0 0 .96154 .4951 .48077)" width="101" height="25" fill="#fff" stroke="#000"/><text class="Text" transform="translate(50.5,16.5)"   font-size="12px"  text-anchor="middle"><tspan x="0" y="0">IL2RA</tspan></text></a><a  class="GeneProduct ITGAV " transform="translate(41.459 581.38)"   name="ITGAV"  ><rect class="Icon" transform="matrix(.9902 0 0 .96154 .4951 .48077)" width="101" height="25" fill="#fff" stroke="#000"/><text class="Text" transform="translate(50.5,16.5)"   font-size="12px"  text-anchor="middle"><tspan x="0" y="0">ITGAV</tspan></text></a><text class="Text" transform="translate(5,27)" dominant-baseline="central" fill="black"  font-size="12px" font-weight="bold" overflow="visible" ><tspan x="0" y="-9">Name: Genes associated with the development of rheumatoid arthritis</tspan> <tspan x="0" y="9">Organism: Homo sapiens</tspan></text></g></svg>
