<?xml version="1.0" encoding="UTF-8"?>
<!--
  WikiPathways page: https://www.wikipathways.org/index.php/Pathway:WP5076
  URL for this compressed file: https://github.com/eweitz/cachome/tree/main/data/wikipathways/WP5076.svg
  Source code for compression: https://github.com/eweitz/cachome/tree/main/src/wikipathways.py
-->
<svg class="Diagram" width="800" height="600" color="black" baseProfile="full" prefix="schema:http://schema.org/" preserveAspectRatio="xMidYMid" version="1.1" viewBox="0 0 1137 691" vocab="http://vocabularies.wikipathways.org/wp#" xmlns="http://www.w3.org/2000/svg" xmlns:xlink="http://www.w3.org/1999/xlink"><style type="text/css">[typeof~="wikidata:"]:hover &gt; .Icon {
  cursor: default;
  fill: url(#g);
  transform-box: fill-box;
  transform: scale(2, 3);
  transform-origin: 50% 50%;
}
[typeof~="wikidata:"]:hover &gt; .Text {
  font-size: 0px;
}</style><defs><filter id="e" x="-50%" y="-50%" width="200%" height="200%"><feComposite in="SourceGraphic" in2="SourceGraphic" result="doubleDark"/><feMorphology in="doubleDark" operator="dilate" radius="0.16666666666666666" result="in2Double"/><feMorphology in="SourceGraphic" operator="dilate" radius="3" result="inDouble"/><feComposite in="inDouble" in2="in2Double" operator="out" result="doubleResult"/></filter><filter id="a" x="0" y="0" width="1137" height="691" filterUnits="userSpaceOnUse"><feColorMatrix in="SourceGraphic" values="-1   0   0 0 0                   0  -1   0 0 0                   0   0  -1 0 0                   0   0   0 1 0"/></filter><pattern id="g" width="100%" height="100%" patternContentUnits="objectBoundingBox" preserveAspectRatio="none" viewBox="0 0 1 1"><image width="1" height="1" href="https://tools.wmflabs.org/pathway-viewer/simolecule/?smi=NCCCCC(NC(%3DO)%5BC%40%40H%5D1CCCN1C(%3DO)%5BC%40%40H%5D1CSSC%5BC%40H%5D(N)C(%3DO)N%5BC%40%40H%5D(CC2%3DCC%3DC(O)C%3DC2)C(%3DO)N%5BC%40%40H%5D(CC2%3DCC%3DCC%3DC2)C(%3DO)N%5BC%40%40H%5D(CCC(N)%3DO)C(%3DO)N%5BC%40%40H%5D(CC(N)%3DO)C(%3DO)N1)C(%3DO)NCC(N)%3DO&amp;abbr=on&amp;hdisp=bridgehead&amp;showtitle=false&amp;zoom=1.0&amp;annotate=none" preserveAspectRatio="none"/></pattern><marker id="d" stroke-dasharray="99999" markerHeight="12" markerUnits="userSpaceOnUse" markerWidth="12" orient="auto" preserveAspectRatio="none" refX="12" refY="6" viewBox="0 0 12 12"><path transform="rotate(180 6 6)" d="M12 11L0 6l12-5z" fill="currentColor" stroke-width="0"/></marker><marker id="f" stroke-dasharray="99999" markerHeight="12" markerUnits="userSpaceOnUse" markerWidth="12" orient="auto" preserveAspectRatio="none" refX="12" refY="6" viewBox="0 0 12 12"><circle transform="rotate(180 6 6)" cx="6" cy="6" r="5.3" fill="none" stroke="#000"/></marker><symbol id="b" overflow="visible" preserveAspectRatio="none" viewBox="0 0 50 50"><ellipse cx="25" cy="25" rx="25" ry="25" stroke="currentColor" vector-effect="non-scaling-stroke"/></symbol><symbol id="c" preserveAspectRatio="none" viewBox="0 0 100 100"/></defs><g class="Viewport" color="black"  name="Name: Soluble ACE2-mediated cell entry of SARS-CoV-2 Organism: Homo sapiens"><rect class="Icon" width="1137" height="691" fill="#fff" stroke="#000" stroke-width="0"/><g id="h" class="DirectedInteraction" color="#000" ><g color="#000" fill="transparent"  filter="url(#a)" stroke="#000" stroke-dasharray="236.2, 5.8"><path class="EdgeBody" d="m566 340.5v-242"   marker-end="url(#d)" /></g><g class="Burr Anchor" transform="translate(566,299)" ><use class="Icon" width="0" height="0" fill="#141414" stroke-width="0" xlink:href="#c"/></g></g><g id="i" class="Interaction" color="#000" ><g color="#000" fill="transparent"  filter="url(#a)" stroke="#000" stroke-dasharray="8.215431704298938, 0"><path class="EdgeBody" d="m741.4 72.4-0.81791 8.1746"   /></g></g><g id="j" class="Interaction" color="#000" ><g color="#000" fill="transparent"  filter="url(#a)" stroke="#000" stroke-dasharray="8.174615840679891, 0"><path class="EdgeBody" d="m346.58 69.4v8.1746"   /></g></g><g id="k" class="Interaction" color="#000" ><g color="#000" fill="transparent"  filter="url(#a)" stroke="#000" stroke-dasharray="120, 11"><path class="EdgeBody" d="m476.5 340.5v-41.5h89.5"   marker-end="url(#f)" /></g></g><g class="GroupGroup" transform="translate(636,414.5)" color="grey" ><use class="Icon" width="206.5" height="186" fill="transparent"  stroke="grey" stroke-dasharray="5,3" stroke-width="0" xlink:href="#c"/><g id="l" class="Interaction" color="#000" ><g color="#000" fill="transparent"  filter="url(#a)" stroke="#000" stroke-dasharray="13.174615840679849, 0"><path class="EdgeBody" d="m85.4 82.9v13.175"   /></g></g><g class="SingleFreeNode Shape PhysicalEntity CellularComponent Vesicle" transform="translate(8,8)" color="#c0c0c0" ><g fill="transparent"  filter="url(#e)" stroke="#c0c0c0" stroke-width="3"><use class="Icon" transform="matrix(.94074 0 0 .93407 5.6444 5.6044)" width="190.5" height="170"    xlink:href="#b"/></g></g><a class="Metabolite " transform="translate(106,86)" color="#00f"  name="Vasopressin"  ><rect class="Icon" transform="matrix(.9878 0 0 .96154 .4939 .48077)" width="81" height="25" fill="#fff" stroke="#00f"/><text class="Text" transform="translate(40.5,16.5)" fill="#00f"  font-size="12px"  text-anchor="middle"><tspan x="0" y="0">Vasopressin</tspan></text></a><a  class="GeneProduct ACE2 " transform="translate(55.4 123)"   name="sACE2"  ><rect class="Icon" transform="matrix(.98361 0 0 .96154 .4918 .48077)" width="60" height="25" fill="#fff" stroke="#000"/><text class="Text" transform="translate(30,16.5)"   font-size="12px"  text-anchor="middle"><tspan x="0" y="0">sACE2</tspan></text></a><g class="SingleFreeNode Shape PhysicalEntity CellularComponent Nucleus" transform="translate(34.5 32)" color="#c0c0c0"  name="SARS-CoV-2"><g fill="transparent"  filter="url(#e)" stroke="#c0c0c0" stroke-width="3"><use class="Icon" transform="matrix(.89455 0 0 .81366 5.3673 4.882)" width="101.79999565324549" height="52.40001102499166"    xlink:href="#b"/></g><text class="Text" transform="translate(50.9 30.2)" fill="#c0c0c0"  font-size="12px" stroke="black" stroke-width="0" text-anchor="middle"><tspan x="0" y="0">SARS-CoV-2</tspan></text></g><a  class="Protein" transform="translate(63.012 96.075)"   name="S1"  ><use class="Icon" transform="matrix(.97815 0 0 .96154 .48908 .48077)" width="44.776119402985" height="25" fill="#ffcccc" stroke="#000" xlink:href="#b"/><text class="Text" transform="translate(22.388 16.5)"   font-size="12px"  text-anchor="middle"><tspan x="0" y="0">S1</tspan></text></a></g><g id="m" class="DirectedInteraction" color="#000" ><g color="#000" fill="transparent"  filter="url(#a)" stroke="#000" stroke-dasharray="41.70065789018085, 5.8"><path class="EdgeBody" d="m739 368.5 0.25 47.5"   marker-end="url(#d)" /></g></g><g class="GroupGroup" transform="translate(654.5 162.5)" color="grey" ><use class="Icon" width="168.50000000000034" height="132.00000000000003" fill="transparent"  stroke="grey" stroke-dasharray="5,3" stroke-width="0" xlink:href="#c"/><g id="n" class="Interaction" color="#000" ><g color="#000" fill="transparent"  filter="url(#a)" stroke="#000" stroke-dasharray="13.174615840679934, 0"><path class="EdgeBody" d="m58.9 58.9v13.175"   /></g></g><a class="Metabolite " transform="translate(79.5 62)" color="#00f"  name="Vasopressin"  ><rect class="Icon" transform="matrix(.9878 0 0 .96154 .4939 .48077)" width="81" height="25" fill="#fff" stroke="#00f"/><text class="Text" transform="translate(40.5,16.5)" fill="#00f"  font-size="12px"  text-anchor="middle"><tspan x="0" y="0">Vasopressin</tspan></text></a><a  class="GeneProduct ACE2 " transform="translate(28.9 99)"   name="sACE2"  ><rect class="Icon" transform="matrix(.98361 0 0 .96154 .4918 .48077)" width="60" height="25" fill="#fff" stroke="#000"/><text class="Text" transform="translate(30,16.5)"   font-size="12px"  text-anchor="middle"><tspan x="0" y="0">sACE2</tspan></text></a><g class="SingleFreeNode Shape PhysicalEntity CellularComponent Nucleus" transform="translate(8,8)" color="#c0c0c0"  name="SARS-CoV-2"><g fill="transparent"  filter="url(#e)" stroke="#c0c0c0" stroke-width="3"><use class="Icon" transform="matrix(.89455 0 0 .81366 5.3673 4.882)" width="101.79999565324549" height="52.40001102499166"    xlink:href="#b"/></g><text class="Text" transform="translate(50.9 30.2)" fill="#c0c0c0"  font-size="12px" stroke="black" stroke-width="0" text-anchor="middle"><tspan x="0" y="0">SARS-CoV-2</tspan></text></g><a  class="Protein" transform="translate(36.512 72.075)"   name="S1"  ><use class="Icon" transform="matrix(.97815 0 0 .96154 .48908 .48077)" width="44.776119402985" height="25" fill="#ffcccc" stroke="#000" xlink:href="#b"/><text class="Text" transform="translate(22.388 16.5)"   font-size="12px"  text-anchor="middle"><tspan x="0" y="0">S1</tspan></text></a></g><g id="o" class="DirectedInteraction" color="#000" ><g color="#000" fill="transparent"  filter="url(#a)" stroke="#000" stroke-dasharray="43.20255095400647, 5.8"><path class="EdgeBody" d="m739.5 294.5-0.5 49"   marker-end="url(#d)" /></g></g><g id="p" class="DirectedInteraction" color="#000" ><g color="#000" fill="transparent"  filter="url(#a)" stroke="#000" stroke-dasharray="52.63539290262854, 5.8"><path class="EdgeBody" d="m740.58 105.57-1.0821 58.425"   marker-end="url(#d)" /></g><g class="Burr Anchor" transform="translate(739.9 142.39)" ><use class="Icon" width="0" height="0" fill="#141414" stroke-width="0" xlink:href="#c"/></g></g><g class="GroupGroup" transform="translate(287.68 167.5)" color="grey" ><use class="Icon" width="117.7999956532455" height="126" fill="transparent"  stroke="grey" stroke-dasharray="5,3" stroke-width="0" xlink:href="#c"/><g id="q" class="Interaction" color="#000" ><g color="#000" fill="transparent"  filter="url(#a)" stroke="#000" stroke-dasharray="8.174615840679905, 0"><path class="EdgeBody" d="m58.9 58.9v8.1746"   /></g></g><a  class="Protein" transform="translate(36.512 67.075)"   name="S1"  ><use class="Icon" transform="matrix(.97815 0 0 .96154 .48908 .48077)" width="44.776119402985" height="25" fill="#ffcccc" stroke="#000" xlink:href="#b"/><text class="Text" transform="translate(22.388 16.5)"   font-size="12px"  text-anchor="middle"><tspan x="0" y="0">S1</tspan></text></a><g class="SingleFreeNode Shape PhysicalEntity CellularComponent Nucleus" transform="translate(8,8)" color="#c0c0c0"  name="SARS-CoV-2"><g fill="transparent"  filter="url(#e)" stroke="#c0c0c0" stroke-width="3"><use class="Icon" transform="matrix(.89455 0 0 .81366 5.3673 4.882)" width="101.79999565324549" height="52.40001102499166"    xlink:href="#b"/></g><text class="Text" transform="translate(50.9 30.2)" fill="#c0c0c0"  font-size="12px" stroke="black" stroke-width="0" text-anchor="middle"><tspan x="0" y="0">SARS-CoV-2</tspan></text></g><a  class="GeneProduct ACE2 " transform="translate(25.318 93)"   name="sACE2"  ><rect class="Icon" transform="matrix(.98462 0 0 .96154 .49231 .48077)" width="64" height="25" fill="#fff" stroke="#000"/><text class="Text" transform="translate(32,16.5)"   font-size="12px"  text-anchor="middle"><tspan x="0" y="0">sACE2</tspan></text></a></g><g id="r" class="DirectedInteraction" color="#000" ><g color="#000" fill="transparent"  filter="url(#a)" stroke="#000" stroke-dasharray="52.62537313432843, 5.8"><path class="EdgeBody" d="m346.58 110.57v58.425"   marker-end="url(#d)" /></g><g class="Burr Anchor" transform="translate(346.58 141.28)" ><use class="Icon" width="0" height="0" fill="#141414" stroke-width="0" xlink:href="#c"/></g></g><g id="s" class="DirectedInteraction" color="#000" ><g color="#000" fill="transparent"  filter="url(#a)" stroke="#000" stroke-dasharray="42.20352933115257, 5.8"><path class="EdgeBody" d="m346.58 293.5-0.58209 48"   marker-end="url(#d)" /></g></g><g class="GroupGroup" transform="translate(258.5,415.5)" color="grey" ><use class="Icon" width="176" height="174" fill="transparent"  stroke="grey" stroke-dasharray="5,3" stroke-width="0" xlink:href="#c"/><g id="t" class="Interaction" color="#000" ><g color="#000" fill="transparent"  filter="url(#a)" stroke="#000" stroke-dasharray="8.174615840679849, 0"><path class="EdgeBody" d="m86.082 76.9v8.1746"   /></g></g><g class="SingleFreeNode Shape PhysicalEntity CellularComponent Vesicle" transform="translate(8,8)" color="#c0c0c0" ><g fill="transparent"  filter="url(#e)" stroke="#c0c0c0" stroke-width="3"><use class="Icon" transform="matrix(.93023 0 0 .92941 5.5814 5.5765)" width="160" height="158"    xlink:href="#b"/></g></g><a  class="Protein" transform="translate(63.694 85.075)"   name="S1"  ><use class="Icon" transform="matrix(.97815 0 0 .96154 .48908 .48077)" width="44.776119402985" height="25" fill="#ffcccc" stroke="#000" xlink:href="#b"/><text class="Text" transform="translate(22.388 16.5)"   font-size="12px"  text-anchor="middle"><tspan x="0" y="0">S1</tspan></text></a><g class="SingleFreeNode Shape PhysicalEntity CellularComponent Nucleus" transform="translate(35.182 26)" color="#c0c0c0"  name="SARS-CoV-2"><g fill="transparent"  filter="url(#e)" stroke="#c0c0c0" stroke-width="3"><use class="Icon" transform="matrix(.89455 0 0 .81366 5.3673 4.882)" width="101.79999565324549" height="52.40001102499166"    xlink:href="#b"/></g><text class="Text" transform="translate(50.9 30.2)" fill="#c0c0c0"  font-size="12px" stroke="black" stroke-width="0" text-anchor="middle"><tspan x="0" y="0">SARS-CoV-2</tspan></text></g><a  class="GeneProduct ACE2 " transform="translate(52.5,111)"   name="sACE2"  ><rect class="Icon" transform="matrix(.98462 0 0 .96154 .49231 .48077)" width="64" height="25" fill="#fff" stroke="#000"/><text class="Text" transform="translate(32,16.5)"   font-size="12px"  text-anchor="middle"><tspan x="0" y="0">sACE2</tspan></text></a></g><g id="u" class="DirectedInteraction" color="#000" ><g color="#000" fill="transparent"  filter="url(#a)" stroke="#000" stroke-dasharray="45.11074598481581, 5.8"><path class="EdgeBody" d="m780 125-6.6667-1e-14c-6.6667 1e-14 -20 1e-14 -26.667 2.8985-6.6667 2.8985-6.6667 8.6956-6.6833 11.594-0.016631 2.8985-0.049893 2.8985-0.066524 2.8985h-0.016631"   marker-end="url(#d)" /></g></g><g id="v" class="DirectedInteraction" color="#000" ><g color="#000" fill="transparent"  filter="url(#a)" stroke="#000" stroke-dasharray="170.77617212889712, 5.8"><path class="EdgeBody" d="m598 86 23.667-1e-14c23.667 1e-14 71 1e-14 94.667 9.3985 23.667 9.3985 23.667 28.196 23.65 37.594-0.016631 9.3985-0.049893 9.3985-0.066524 9.3985h-0.016631"   marker-end="url(#d)" /></g></g><g id="w" class="DirectedInteraction" color="#000" ><g color="#000" fill="transparent"  filter="url(#a)" stroke="#000" stroke-dasharray="44.70247518686585, 5.8"><path class="EdgeBody" d="m346 366.5 0.5 50.5"   marker-end="url(#d)" /></g></g><g id="x" class="DirectedInteraction" color="#000" ><g color="#000" fill="transparent"  filter="url(#a)" stroke="#000" stroke-dasharray="213.80615732648184, 5.8"><path class="EdgeBody" d="m534 86-31.333-1e-14c-31.333 1e-14 -94 1e-14 -125.33 9.2139-31.333 9.2139-31.333 27.642-31.236 36.856 0.097015 9.2139 0.29104 9.2139 0.38806 9.2139h0.097015"   marker-end="url(#d)" /></g></g><g class="SingleFreeNode Shape PhysicalEntity CellularComponent Cell" transform="translate(246.5,351.5)" color="#c0c0c0" ><g fill="transparent"  filter="url(#e)" stroke="#c0c0c0" stroke-width="3"><rect class="Icon" transform="matrix(.98125 0 0 .96285 5.8875 5.7771)" width="628" height="311" rx="15" ry="15"   /></g></g><g class="GroupGroup" transform="translate(682.5 13.5)" color="grey" ><use class="Icon" width="117.79999565324545" height="100.07462686567156" fill="transparent"  stroke="grey" stroke-dasharray="5,3" stroke-width="0" xlink:href="#c"/><g class="SingleFreeNode Shape PhysicalEntity CellularComponent Nucleus" transform="translate(8,8)" color="#c0c0c0"  name="SARS-CoV-2"><g fill="transparent"  filter="url(#e)" stroke="#c0c0c0" stroke-width="3"><use class="Icon" transform="matrix(.89455 0 0 .81366 5.3673 4.882)" width="101.79999565324549" height="52.40001102499166"    xlink:href="#b"/></g><text class="Text" transform="translate(50.9 30.2)" fill="#c0c0c0"  font-size="12px" stroke="black" stroke-width="0" text-anchor="middle"><tspan x="0" y="0">SARS-CoV-2</tspan></text></g><a  class="Protein" transform="translate(35.694 67.075)"   name="S1"  ><use class="Icon" transform="matrix(.97815 0 0 .96154 .48908 .48077)" width="44.776119402985" height="25" fill="#ffcccc" stroke="#000" xlink:href="#b"/><text class="Text" transform="translate(22.388 16.5)"   font-size="12px"  text-anchor="middle"><tspan x="0" y="0">S1</tspan></text></a></g><g class="Label" transform="translate(611,379.5)" color="#000"  name="Receptor-mediated  endocytosis"><use class="Icon" width="127" height="32.5" fill="transparent"  stroke="#000" stroke-width="0" xlink:href="#c"/><text class="Text" transform="translate(63.5,20.25)"   font-size="12px" font-weight="bold"  text-anchor="middle"><tspan x="0" y="-6.6000000000000005">Receptor-mediated </tspan> <tspan x="0" y="6.6000000000000005">endocytosis</tspan></text></g><a  class="GeneProduct ACE2 " transform="translate(534,73.5)"   name="sACE2"  ><rect class="Icon" transform="matrix(.98462 0 0 .96154 .49231 .48077)" width="64" height="25" fill="#fff" stroke="#000"/><text class="Text" transform="translate(32,16.5)"   font-size="12px"  text-anchor="middle"><tspan x="0" y="0">sACE2</tspan></text></a><a  class="GeneProduct ADAM17 " transform="translate(439,340.5)"   name="ADAM17"  ><rect class="Icon" transform="matrix(.98684 0 0 .96154 .49342 .48077)" width="75" height="25" fill="#fff" stroke="#000"/><text class="Text" transform="translate(37.5,16.5)"   font-size="12px"  text-anchor="middle"><tspan x="0" y="0">ADAM17</tspan></text></a><a  class="GeneProduct AGTR1 " transform="translate(301,341.5)"   name="AGTR1"  ><rect class="Icon" transform="matrix(.98901 0 0 .96154 .49451 .48077)" width="90" height="25" fill="#fff" stroke="#000"/><text class="Text" transform="translate(45,16.5)"   font-size="12px"  text-anchor="middle"><tspan x="0" y="0">AGTR1</tspan></text></a><a  class="GeneProduct AVPR1B " transform="translate(694,343.5)"   name="AVPR1B"  ><rect class="Icon" transform="matrix(.98901 0 0 .96154 .49451 .48077)" width="90" height="25" fill="#fff" stroke="#000"/><text class="Text" transform="translate(45,16.5)"   font-size="12px"  text-anchor="middle"><tspan x="0" y="0">AVPR1B</tspan></text></a><a  class="GeneProduct ACE2 " transform="translate(532,340.5)"   name="ACE2"  ><rect class="Icon" transform="matrix(.98551 0 0 .96154 .49275 .48077)" width="68" height="25" fill="#fff" stroke="#000"/><text class="Text" transform="translate(34,16.5)"   font-size="12px"  text-anchor="middle"><tspan x="0" y="0">ACE2</tspan></text></a><g class="GroupGroup" transform="translate(287.68 10.5)" color="grey" ><use class="Icon" width="117.7999956532455" height="100.07462686567156" fill="transparent"  stroke="grey" stroke-dasharray="5,3" stroke-width="0" xlink:href="#c"/><a  class="Protein" transform="translate(36.512 67.075)"   name="S1"  ><use class="Icon" transform="matrix(.97815 0 0 .96154 .48908 .48077)" width="44.776119402985" height="25" fill="#ffcccc" stroke="#000" xlink:href="#b"/><text class="Text" transform="translate(22.388 16.5)"   font-size="12px"  text-anchor="middle"><tspan x="0" y="0">S1</tspan></text></a><g class="SingleFreeNode Shape PhysicalEntity CellularComponent Nucleus" transform="translate(8,8)" color="#c0c0c0"  name="SARS-CoV-2"><g fill="transparent"  filter="url(#e)" stroke="#c0c0c0" stroke-width="3"><use class="Icon" transform="matrix(.89455 0 0 .81366 5.3673 4.882)" width="101.79999565324549" height="52.40001102499166"    xlink:href="#b"/></g><text class="Text" transform="translate(50.9 30.2)" fill="#c0c0c0"  font-size="12px" stroke="black" stroke-width="0" text-anchor="middle"><tspan x="0" y="0">SARS-CoV-2</tspan></text></g></g><a class="Metabolite " transform="translate(780,112.5)" color="#00f"  name="Vasopressin"  ><rect class="Icon" transform="matrix(.9878 0 0 .96154 .4939 .48077)" width="81" height="25" fill="#fff" stroke="#00f"/><text class="Text" transform="translate(40.5,16.5)" fill="#00f"  font-size="12px"  text-anchor="middle"><tspan x="0" y="0">Vasopressin</tspan></text></a><g class="Label" transform="translate(353,380.5)" color="#000"  name="Receptor-mediated  endocytosis"><use class="Icon" width="127" height="32.5" fill="transparent"  stroke="#000" stroke-width="0" xlink:href="#c"/><text class="Text" transform="translate(63.5,20.25)"   font-size="12px" font-weight="bold"  text-anchor="middle"><tspan x="0" y="-6.6000000000000005">Receptor-mediated </tspan> <tspan x="0" y="6.6000000000000005">endocytosis</tspan></text></g><text class="Text" transform="translate(5,27)" dominant-baseline="central" fill="black"  font-size="12px" font-weight="bold" overflow="visible" ><tspan x="0" y="-9">Name: Soluble ACE2-mediated cell entry of SARS-CoV-2</tspan> <tspan x="0" y="9">Organism: Homo sapiens</tspan></text></g></svg>
