<?xml version="1.0" encoding="UTF-8"?>
<!--
  WikiPathways page: https://www.wikipathways.org/index.php/Pathway:WP5049
  URL for this compressed file: https://github.com/eweitz/cachome/tree/main/data/wikipathways/WP5049.svg
  Source code for compression: https://github.com/eweitz/cachome/tree/main/src/wikipathways.py
-->
<svg class="Diagram" width="800" height="600" color="black" baseProfile="full" prefix="schema:http://schema.org/" preserveAspectRatio="xMidYMid" version="1.1" viewBox="0 0 962 731.33" vocab="http://vocabularies.wikipathways.org/wp#" xmlns="http://www.w3.org/2000/svg" xmlns:xlink="http://www.w3.org/1999/xlink"><style>svg {font-family: 'Liberation Sans', Arial, sans-serif; }</style><defs><filter id="a" x="0" y="0" width="962" height="731.33" filterUnits="userSpaceOnUse"><feColorMatrix in="SourceGraphic" values="-1   0   0 0 0                   0  -1   0 0 0                   0   0  -1 0 0                   0   0   0 1 0"/></filter><marker id="f" stroke-dasharray="99999" markerHeight="12" markerUnits="userSpaceOnUse" markerWidth="12" orient="auto" preserveAspectRatio="none" refX="12" refY="6" viewBox="0 0 12 12"><circle transform="rotate(180 6 6)" cx="6" cy="6" r="5.3" fill="none" stroke="#000"/></marker><marker id="e" stroke-dasharray="99999" markerHeight="12" markerUnits="userSpaceOnUse" markerWidth="12" orient="auto" preserveAspectRatio="none" refX="12" refY="6" viewBox="0 0 12 12"><path transform="rotate(180 6 6)" d="M12 11L0 6l12-5z" fill="currentColor" stroke-width="0"/></marker><marker id="d" stroke-dasharray="99999" markerHeight="20" markerUnits="userSpaceOnUse" markerWidth="10" orient="auto" preserveAspectRatio="none" refX="10" refY="10" viewBox="0 0 10 20"><path d="m3 0v20" fill="currentColor" stroke="currentColor"/></marker><marker id="b" stroke-dasharray="99999" markerHeight="12" markerUnits="userSpaceOnUse" markerWidth="12" orient="auto" preserveAspectRatio="none" refX="12" refY="6" viewBox="0 0 12 12"><g transform="rotate(180 6 6)" fill="none"><path d="m12 6"/><path d="M0 6l11 5V1z" stroke="#000"/></g></marker><symbol id="c" preserveAspectRatio="none" viewBox="0 0 100 100"/></defs><g class="Viewport" color="black"  name="Name: Glycolysis in senescence Organism: Homo sapiens"><rect class="Icon" width="962" height="731.33" fill="#fff" stroke="#000" stroke-width="0"/><g id="g" class="Interaction" color="#000" ><g color="#000" fill="transparent"  filter="url(#a)" stroke="#000" stroke-dasharray="51.8501135495201, 7"><path class="EdgeBody" d="m666.05 135.02-22.846 54.234"   marker-end="url(#d)" /></g></g><g id="h" class="Interaction" color="#000" ><g color="#000" fill="transparent"  filter="url(#a)" stroke="#000" stroke-dasharray="44.33333333333394, 11"><path class="EdgeBody" d="m216.67 382.67 55.333-7e-14"   marker-end="url(#b)" /></g><g class="Burr Anchor" transform="translate(238.8 382.67)" ><use class="Icon" width="0" height="0" fill="#141414" stroke-width="0" xlink:href="#c"/></g></g><g id="i" class="Interaction" color="#000" ><g color="#000" fill="transparent"  filter="url(#a)" stroke="#000" stroke-dasharray="66.84495337104545, 11"><path class="EdgeBody" d="m226.29 459.5 12.509-76.833"   marker-end="url(#b)" /></g></g><g id="j" class="Interaction" color="#000" ><g color="#000" fill="transparent"  filter="url(#a)" stroke="#000" stroke-dasharray="45.46864914869144, 11"><path class="EdgeBody" d="m431 213.04-6 56.149"   marker-end="url(#b)" /></g></g><g id="k" class="Interaction" color="#000" ><g color="#000" fill="transparent"  filter="url(#a)" stroke="#000" stroke-dasharray="131.05568969179848, 11"><path class="EdgeBody" d="m598.21 214.26-128.21 61.177"   marker-end="url(#b)" /></g></g><g id="l" class="Interaction" color="#000" ><g color="#000" fill="transparent"  filter="url(#a)" stroke="#000" stroke-dasharray="34.02267057522811, 11"><path class="EdgeBody" d="m585.76 292.65 29.425 34.076"   marker-end="url(#b)" /></g></g><g id="m" class="Interaction" color="#000" ><g color="#000" fill="transparent"  filter="url(#a)" stroke="#000" stroke-dasharray="71.18264487769628, 11"><path class="EdgeBody" d="m303 213.04-65.25 49.964"   marker-end="url(#b)" /></g></g><g id="n" class="Interaction" color="#000" ><g color="#000" fill="transparent"  filter="url(#a)" stroke="#000" stroke-dasharray="48.803880258570985, 11"><path class="EdgeBody" d="m859.05 280.15h-59.804"   marker-end="url(#b)" /></g></g><g id="o" class="Interaction" color="#000" ><g color="#000" fill="transparent"  filter="url(#a)" stroke="#000" stroke-dasharray="87.70256530111621, 11"><path class="EdgeBody" d="m339.5 370.17 63-75.982"   marker-end="url(#b)" /></g></g><g id="p" class="Interaction" color="#000" ><g color="#000" fill="transparent"  filter="url(#a)" stroke="#000" stroke-dasharray="47.62053322219466, 11"><path class="EdgeBody" d="m409.26 129.42-0.75728 58.616"   marker-end="url(#b)" /></g></g><g id="q" class="Interaction" color="#000" ><g color="#000" fill="transparent"  filter="url(#a)" stroke="#000" stroke-dasharray="23.839719636176575, 11"><path class="EdgeBody" d="m433.97 523.21-0.66705 34.833"   marker-end="url(#b)" /></g></g><g id="r" class="Interaction" color="#000" ><g color="#000" fill="transparent"  filter="url(#a)" stroke="#000" stroke-dasharray="67.66666666666487, 11"><path class="EdgeBody" d="m433.97 419.55v78.667"   marker-end="url(#b)" /></g><g class="Burr Anchor" transform="translate(433.97 453.14)" ><use class="Icon" width="0" height="0" fill="#141414" stroke-width="0" xlink:href="#c"/></g></g><g id="s" class="Interaction" color="#000" ><g color="#000" fill="transparent"  filter="url(#a)" stroke="#000" stroke-dasharray="196.21431073465038, 7"><path class="EdgeBody" d="m194.17 370.17 185.83-82.232"   marker-end="url(#d)" /></g></g><g id="t" class="Interaction" color="#000" ><g color="#000" fill="transparent"  filter="url(#a)" stroke="#000" stroke-dasharray="54.599999999999966, 11"><path class="EdgeBody" d="m258 200.54-65.6 3e-14"   marker-end="url(#b)" /></g></g><g id="u" class="Interaction" color="#000" ><g color="#000" fill="transparent"  filter="url(#a)" stroke="#000" stroke-dasharray="59.77499560800101, 11"><path class="EdgeBody" d="m540.76 280.15-70.758 1.5395"   marker-end="url(#b)" /></g></g><g id="v" class="Interaction" color="#000" ><g color="#000" fill="transparent"  filter="url(#a)" stroke="#000" stroke-dasharray="116.00810410191352, 11"><path class="EdgeBody" d="m380 281.68-127-1.4348"   marker-end="url(#b)" /></g></g><g id="w" class="Interaction" color="#000" ><g color="#000" fill="transparent"  filter="url(#a)" stroke="#000" stroke-dasharray="67.49174999999957, 11"><path class="EdgeBody" d="m709.25 280.15h-78.492"   marker-end="url(#b)" /></g></g><g id="x" class="Interaction" color="#000" ><g color="#000" fill="transparent"  filter="url(#a)" stroke="#000" stroke-dasharray="37.30949634786307, 11"><path class="EdgeBody" d="m264.37 142.5 16.125 45.539"   marker-end="url(#b)" /></g></g><g id="y" class="Interaction" color="#000" ><g color="#000" fill="transparent"  filter="url(#a)" stroke="#000" stroke-dasharray="31.335153020755662, 11"><path class="EdgeBody" d="m476.31 453.58-42.333-0.4317"   marker-end="url(#f)" /></g></g><g id="z" class="Interaction" color="#000" ><g color="#000" fill="transparent"  filter="url(#a)" stroke="#000" stroke-dasharray="52.64307780797231, 11"><path class="EdgeBody" d="m350.29 129.42-24.792 58.616"   marker-end="url(#b)" /></g></g><g id="aa" class="Interaction" color="#000" ><g color="#000" fill="transparent"  filter="url(#a)" stroke="#000" stroke-dasharray="89.76313385821928, 11"><path class="EdgeBody" d="m425 294.18 8.9737 100.36"   marker-end="url(#b)" /></g><g class="Burr Anchor" transform="translate(431.37 365.47)" ><use class="Icon" width="0" height="0" fill="#141414" stroke-width="0" xlink:href="#c"/></g></g><g id="ab" class="Interaction" color="#000" ><g color="#000" fill="transparent"  filter="url(#a)" stroke="#000" stroke-dasharray="174.59146374280246, 11"><path class="EdgeBody" d="m325.5 213.04 105.87 152.43"   marker-end="url(#b)" /></g></g><g id="ac" class="Interaction" color="#000" ><g color="#000" fill="transparent"  filter="url(#a)" stroke="#000" stroke-dasharray="59.77499560800101, 11"><path class="EdgeBody" d="m470 287.93 70.758-1.5395"   marker-end="url(#b)" /></g></g><g id="ad" class="Interaction" color="#000" ><g color="#000" fill="transparent"  filter="url(#a)" stroke="#000" stroke-dasharray="124.86062646743906, 11"><path class="EdgeBody" d="m550.45 180.53-102.95 88.655"   marker-end="url(#b)" /></g></g><g id="ae" class="Interaction" color="#000" ><g color="#000" fill="transparent"  filter="url(#a)" stroke="#000" stroke-dasharray="32.11059158657355, 11"><path class="EdgeBody" d="m737.63 460.85 43.087-1.4108"   marker-end="url(#b)" /></g></g><g id="af" class="Interaction" color="#000" ><g color="#000" fill="transparent"  filter="url(#a)" stroke="#000" stroke-dasharray="237.36191335517796, 11"><path class="EdgeBody" d="m447.5 294.18 184.13 166.67"   marker-end="url(#b)" /></g></g><g id="ag" class="Interaction" color="#000" ><g color="#000" fill="transparent"  filter="url(#a)" stroke="#000" stroke-dasharray="41.761593937988536, 11"><path class="EdgeBody" d="m433.31 596.05-1.2763 52.746"   marker-end="url(#b)" /></g></g><g id="ah" class="Interaction" color="#000" ><g color="#000" fill="transparent"  filter="url(#a)" stroke="#000" stroke-dasharray="97.55622817232847, 5.8"><path class="EdgeBody" d="m580.84 528.21-101.86-17.501"   marker-end="url(#e)" /></g><g class="Burr Anchor" transform="translate(540.09 521.21)" ><use class="Icon" width="0" height="0" fill="#141414" stroke-width="0" xlink:href="#c"/></g></g><g id="ai" class="Interaction" color="#000" ><g color="#000" fill="transparent"  filter="url(#a)" stroke="#000" stroke-dasharray="172.95659245586558, 11"><path class="EdgeBody" d="m675.3 645.95-135.2-124.74"   marker-end="url(#b)" /></g></g><g class="SingleFreeNode Shape" transform="translate(300 650.67)" color="#000" ><rect class="Icon" transform="matrix(.99651 0 0 .98065 .49825 .49032)" width="285.33" height="50.667" rx="15" ry="15" fill="transparent"  stroke="#000"/></g><g class="Label" transform="translate(62.2 188.04)" color="#000"  name="Oxygen Consumption Rate"><use class="Icon" width="130.20000000000002" height="25" fill="transparent"  stroke="#000" stroke-width="0" xlink:href="#c"/><text class="Text" transform="translate(65.1 16.5)"   font-size="12px" font-weight="bold"  text-anchor="middle"><tspan x="0" y="-6.6000000000000005">Oxygen Consumption</tspan> <tspan x="0" y="6.6000000000000005">Rate</tspan></text></g><g class="Label" transform="translate(555.2 326.72)" color="#000"  name="Inflammatory signalling cascade"><use class="Icon" width="119.96999999999983" height="48.01743104206831" fill="transparent"  stroke="#000" stroke-width="0" xlink:href="#c"/><text class="Text" transform="translate(59.985 28.009)"   font-size="12px" font-weight="bold"  text-anchor="middle"><tspan x="0" y="-6.6000000000000005">Inflammatory</tspan> <tspan x="0" y="6.6000000000000005">signalling cascade</tspan></text></g><g class="Label" transform="translate(859.05 267.65)" color="#000"  name="Irradiation"><use class="Icon" width="72.94611974142933" height="25" fill="transparent"  stroke="#000" stroke-width="0" xlink:href="#c"/><text class="Text" transform="translate(36.473 16.5)"   font-size="12px" font-weight="bold"  text-anchor="middle"><tspan x="0" y="0">Irradiation</tspan></text></g><g class="Label" transform="translate(370.81 558.05)" color="#000"  name="Acidification of cellular environment"><use class="Icon" width="125" height="38.002500000000694" fill="transparent"  stroke="#000" stroke-width="0" xlink:href="#c"/><text class="Text" transform="translate(62.5 23.001)"   font-size="12px" font-weight="bold"  text-anchor="middle"><tspan x="0" y="-6.6000000000000005">Acidification of</tspan> <tspan x="0" y="6.6000000000000005">cellular environment</tspan></text></g><g class="Label" transform="translate(219.37 108)" color="#000"  name="Replicative senescence"><use class="Icon" width="90" height="34.497020082612465" fill="transparent"  stroke="#000" stroke-width="0" xlink:href="#c"/><text class="Text" transform="translate(45 21.249)"   font-size="12px" font-weight="bold"  text-anchor="middle"><tspan x="0" y="-6.6000000000000005">Replicative</tspan> <tspan x="0" y="6.6000000000000005">senescence</tspan></text></g><g class="Label" transform="translate(194.99 459.5)" color="#000"  name="Stress"><use class="Icon" width="62.59907943276812" height="28.50036366186728" fill="transparent"  stroke="#000" stroke-width="0" xlink:href="#c"/><text class="Text" transform="translate(31.3 18.25)"   font-size="12px" font-weight="bold"  text-anchor="middle"><tspan x="0" y="0">Stress</tspan></text></g><g class="GroupGroup" transform="translate(780.72 422.67)" color="grey" ><use class="Icon" width="106.00000000000011" height="73.55250000000018" fill="transparent"  stroke="grey" stroke-dasharray="5,3" stroke-width="0" xlink:href="#c"/><g class="Label" transform="translate(8 8)" color="#000"  name="Cell enlargement"><use class="Icon" width="90" height="32.55250000000024" fill="transparent"  stroke="#000" stroke-width="0" xlink:href="#c"/><text class="Text" transform="translate(45 20.276)"   font-size="12px" font-weight="bold"  text-anchor="middle"><tspan x="0" y="-6.6000000000000005">Cell</tspan> <tspan x="0" y="6.6000000000000005">enlargement</tspan></text></g><g class="WikiPathways_WP3391 Pathway" transform="translate(8 40.553)" color="#14961e"  name="SASP"><rect class="Icon" transform="matrix(.98901 0 0 .96154 .49451 .48077)" width="90" height="25" rx="15" ry="15" fill="#fff" stroke="#14961e"/><text class="Text" transform="translate(45,16.5)" fill="#14961e"  font-size="12px" font-weight="bold" stroke="black" stroke-width="0" text-anchor="middle"><tspan x="0" y="0">SASP</tspan></text></g></g><g class="GroupGroup" transform="translate(272.31 648.8)" color="grey" ><use class="Icon" width="319.44743687500045" height="57.7063446875012" fill="transparent"  stroke="grey" stroke-dasharray="5,3" stroke-width="0" xlink:href="#c"/><g class="Label" transform="translate(8 11.304)" color="#000"  name="Wound healing"><use class="Icon" width="102" height="35.25250000000111" fill="transparent"  stroke="#000" stroke-width="0" xlink:href="#c"/><text class="Text" transform="translate(51 21.626)"   font-size="12px" font-weight="bold"  text-anchor="middle"><tspan x="0" y="-6.6000000000000005">Wound</tspan> <tspan x="0" y="6.6000000000000005">healing</tspan></text></g><g class="Label" transform="translate(209.45 8)" color="#000"  name="Tumorigenesis"><use class="Icon" width="102" height="34.20250000000109" fill="transparent"  stroke="#000" stroke-width="0" xlink:href="#c"/><text class="Text" transform="translate(51 21.101)"   font-size="12px" font-weight="bold"  text-anchor="middle"><tspan x="0" y="0">Tumorigenesis</tspan></text></g><g class="Label" transform="translate(110 8.1538)" color="#000"  name="Evading immune response"><use class="Icon" width="102" height="41.552500000001125" fill="transparent"  stroke="#000" stroke-width="0" xlink:href="#c"/><text class="Text" transform="translate(51 24.776)"   font-size="12px" font-weight="bold"  text-anchor="middle"><tspan x="0" y="-6.6000000000000005">Evading immune</tspan> <tspan x="0" y="6.6000000000000005">response</tspan></text></g></g><g class="WikiPathways_WP3404 Pathway" transform="translate(627.6 110.02)" color="#14961e"  name="Oxidative stress"><rect class="Icon" transform="matrix(.98716 0 0 .96154 .49358 .48077)" width="76.907" height="25" rx="15" ry="15" fill="#fff" stroke="#14961e"/><text class="Text" transform="translate(38.454 16.5)" fill="#14961e"  font-size="12px" font-weight="bold" stroke="black" stroke-width="0" text-anchor="middle"><tspan x="0" y="-6.6000000000000005">Oxidative</tspan> <tspan x="0" y="6.6000000000000005">stress</tspan></text></g><a class="ChEBI_CHEBI_24996 Metabolite  " transform="translate(388.97 498.21)" color="#00f"  name="Lactate"  ><rect class="Icon" transform="matrix(.98901 0 0 .96154 .49451 .48077)" width="90" height="25" fill="#fff" stroke="#00f"/><text class="Text" transform="translate(45,16.5)" fill="#00f"  font-size="12px"  text-anchor="middle"><tspan x="0" y="0">Lactate</tspan></text></a><a  class="GeneProduct RB1 " transform="translate(386 188.04)"   name="RB1"  ><rect class="Icon" transform="matrix(.98901 0 0 .96154 .49451 .48077)" width="90" height="25" fill="#fff" stroke="#000"/><text class="Text" transform="translate(45,16.5)"   font-size="12px"  text-anchor="middle"><tspan x="0" y="0">RB1</tspan></text></a><g class="WikiPathways_WP3308 Pathway" transform="translate(648.42 645.95)" color="#14961e"  name="Oncogene induced senescence"><rect class="Icon" transform="matrix(.99078 0 0 .97272 .49539 .48636)" width="107.51" height="35.653" rx="15" ry="15" fill="#fff" stroke="#14961e"/><text class="Text" transform="translate(53.756 21.826)" fill="#14961e"  font-size="12px" font-weight="bold" stroke="black" stroke-width="0" text-anchor="middle"><tspan x="0" y="-6.6000000000000005">Oncogene induced</tspan> <tspan x="0" y="6.6000000000000005">senescence</tspan></text></g><a class="ChEBI_CHEBI_15361 Metabolite  " transform="translate(388.97 394.55)" color="#00f"  name="Pyruvate"  ><rect class="Icon" transform="matrix(.98901 0 0 .96154 .49451 .48077)" width="90" height="25" fill="#fff" stroke="#00f"/><text class="Text" transform="translate(45,16.5)" fill="#00f"  font-size="12px"  text-anchor="middle"><tspan x="0" y="0">Pyruvate</tspan></text></a><a class="WikiPathways_WP78 Pathway " transform="translate(192,263)" color="#14961e"  name="TCA cycle"  ><rect class="Icon" transform="matrix(.98387 0 0 .97183 .49194 .48592)" width="61" height="34.5" rx="15" ry="15" fill="#fff" stroke="#14961e"/><text class="Text" transform="translate(30.5,21.25)" fill="#14961e"  font-size="12px" font-weight="bold" stroke="black" stroke-width="0" text-anchor="middle"><tspan x="0" y="-6.6000000000000005">TCA</tspan> <tspan x="0" y="6.6000000000000005">cycle</tspan></text></a><a  class="GeneProduct G6PD " transform="translate(272 370.17)"   name="G6PD"  ><rect class="Icon" transform="matrix(.98901 0 0 .96154 .49451 .48077)" width="90" height="25" fill="#fff" stroke="#000"/><text class="Text" transform="translate(45,16.5)"   font-size="12px"  text-anchor="middle"><tspan x="0" y="0">G6PD</tspan></text></a><a  class="GeneProduct LDHA " transform="translate(476.31 441.08)"   name="LDHA"  ><rect class="Icon" transform="matrix(.98901 0 0 .96154 .49451 .48077)" width="90" height="25" fill="#fff" stroke="#000"/><text class="Text" transform="translate(45,16.5)"   font-size="12px"  text-anchor="middle"><tspan x="0" y="0">LDHA</tspan></text></a><g class="WikiPathways_WP3308 Pathway" transform="translate(320.81 104.42)" color="#14961e"  name="Oncogene induced senescence"><rect class="Icon" transform="matrix(.99159 0 0 .96154 .4958 .48077)" width="117.93" height="25" rx="15" ry="15" fill="#fff" stroke="#14961e"/><text class="Text" transform="translate(58.965 16.5)" fill="#14961e"  font-size="12px" font-weight="bold" stroke="black" stroke-width="0" text-anchor="middle"><tspan x="0" y="-6.6000000000000005">Oncogene induced</tspan> <tspan x="0" y="6.6000000000000005">senescence</tspan></text></g><a class="WikiPathways_WP4562 Pathway " transform="translate(540.76 267.65)" color="#14961e"  name="NF-kB signalling"  ><rect class="Icon" transform="matrix(.98901 0 0 .96154 .49451 .48077)" width="90" height="25" rx="15" ry="15" fill="#fff" stroke="#14961e"/><text class="Text" transform="translate(45,16.5)" fill="#14961e"  font-size="12px" font-weight="bold" stroke="black" stroke-width="0" text-anchor="middle"><tspan x="0" y="-6.6000000000000005">NF-kB</tspan> <tspan x="0" y="6.6000000000000005">signalling</tspan></text></a><a class="WikiPathways_WP534 Pathway " transform="translate(380 269.18)" color="#14961e"  name="Glycolysis"  ><rect class="Icon" transform="matrix(.98901 0 0 .96154 .49451 .48077)" width="90" height="25" rx="15" ry="15" fill="#fff" stroke="#14961e"/><text class="Text" transform="translate(45,16.5)" fill="#14961e"  font-size="12px" font-weight="bold" stroke="black" stroke-width="0" text-anchor="middle"><tspan x="0" y="0">Glycolysis</tspan></text></a><a  class="Uniprot-TrEMBL_Q13131 Protein PRKAA1 " transform="translate(709.25 267.65)"   name="AMPK"  ><rect class="Icon" transform="matrix(.98901 0 0 .96154 .49451 .48077)" width="90" height="25" fill="#fff" stroke="#000"/><text class="Text" transform="translate(45,16.5)"   font-size="12px"  text-anchor="middle"><tspan x="0" y="0">AMPK</tspan></text></a><a  class="GeneProduct TP53 " transform="translate(126.67 370.17)"   name="TP53"  ><rect class="Icon" transform="matrix(.98901 0 0 .96154 .49451 .48077)" width="90" height="25" fill="#fff" stroke="#000"/><text class="Text" transform="translate(45,16.5)"   font-size="12px"  text-anchor="middle"><tspan x="0" y="0">TP53</tspan></text></a><a  class="GeneProduct GAPDH " transform="translate(575.71 189.26)"   name="GAPDH"  ><rect class="Icon" transform="matrix(.98901 0 0 .96154 .49451 .48077)" width="90" height="25" fill="#fff" stroke="#000"/><text class="Text" transform="translate(45,16.5)"   font-size="12px"  text-anchor="middle"><tspan x="0" y="0">GAPDH</tspan></text></a><a  class="GeneProduct PKM " transform="translate(258 188.04)"   name="PKM"  ><rect class="Icon" transform="matrix(.98901 0 0 .96154 .49451 .48077)" width="90" height="25" fill="#fff" stroke="#000"/><text class="Text" transform="translate(45,16.5)"   font-size="12px"  text-anchor="middle"><tspan x="0" y="0">PKM</tspan></text></a><g class="GroupGroup" transform="translate(497.45 14.53)" color="grey" ><use class="Icon" width="106.00000000000023" height="166.0000000000001" fill="transparent"  stroke="grey" stroke-dasharray="5,3" stroke-width="0" xlink:href="#c"/><g class="Uniprot-TrEMBL_A0A024R4F1 Protein ENO1 " transform="translate(8 33)" color="#000"  name="Enolase"><rect class="Icon" transform="matrix(.98901 0 0 .96154 .49451 .48077)" width="90" height="25" fill="#fff" stroke="#000"/><text class="Text" transform="translate(45,16.5)"   font-size="12px"  text-anchor="middle"><tspan x="0" y="0">Enolase</tspan></text></g><g class="Uniprot-TrEMBL_A0A024QZ64 Protein ALDOC " transform="translate(8 83)" color="#000"  name="Aldolase"><rect class="Icon" transform="matrix(.98901 0 0 .96154 .49451 .48077)" width="90" height="25" fill="#fff" stroke="#000"/><text class="Text" transform="translate(45,16.5)"   font-size="12px"  text-anchor="middle"><tspan x="0" y="0">Aldolase</tspan></text></g><g class="Uniprot-TrEMBL_A0A024QZK7 Protein HK1 " transform="translate(8 58)" color="#000"  name="Hexokinase"><rect class="Icon" transform="matrix(.98901 0 0 .96154 .49451 .48077)" width="90" height="25" fill="#fff" stroke="#000"/><text class="Text" transform="translate(45,16.5)"   font-size="12px"  text-anchor="middle"><tspan x="0" y="0">Hexokinase</tspan></text></g><g class="ChEBI_CHEBI_33365 Metabolite " transform="translate(8 133)" color="#000"  name="PGM"><rect class="Icon" transform="matrix(.98901 0 0 .96154 .49451 .48077)" width="90" height="25" fill="#fff" stroke="#000"/><text class="Text" transform="translate(45,16.5)"   font-size="12px"  text-anchor="middle"><tspan x="0" y="0">PGM</tspan></text></g><a  class="GeneProduct PGK1 " transform="translate(8 108)"   name="PGK1"  ><rect class="Icon" transform="matrix(.98901 0 0 .96154 .49451 .48077)" width="90" height="25" fill="#fff" stroke="#000"/><text class="Text" transform="translate(45,16.5)"   font-size="12px"  text-anchor="middle"><tspan x="0" y="0">PGK1</tspan></text></a><g class="Uniprot-TrEMBL_A0A024R5Z9 Protein PKM " transform="translate(8 8)" color="#000"  name="Pyruvate kinase"><rect class="Icon" transform="matrix(.98901 0 0 .96154 .49451 .48077)" width="90" height="25" fill="#fff" stroke="#000"/><text class="Text" transform="translate(45,16.5)"   font-size="12px"  text-anchor="middle"><tspan x="0" y="0">Pyruvate kinase</tspan></text></g></g><g class="GroupGroup" transform="translate(631.63 427.85)" color="grey" ><use class="Icon" width="106" height="66.00000000000006" fill="transparent"  stroke="grey" stroke-dasharray="5,3" stroke-width="0" xlink:href="#c"/><a class="ChEBI_CHEBI_18059 Metabolite  " transform="translate(8 33)" color="#00f"  name="Lipids"  ><rect class="Icon" transform="matrix(.98901 0 0 .96154 .49451 .48077)" width="90" height="25" fill="#fff" stroke="#00f"/><text class="Text" transform="translate(45,16.5)" fill="#00f"  font-size="12px"  text-anchor="middle"><tspan x="0" y="0">Lipids</tspan></text></a><a class="ChEBI_CHEBI_36080 Metabolite  " transform="translate(8,8)" color="#00f"  name="Proteins"  ><rect class="Icon" transform="matrix(.98901 0 0 .96154 .49451 .48077)" width="90" height="25" fill="#fff" stroke="#00f"/><text class="Text" transform="translate(45,16.5)" fill="#00f"  font-size="12px"  text-anchor="middle"><tspan x="0" y="0">Proteins</tspan></text></a></g><g class="GroupGroup" transform="translate(580.84 495.21)" color="grey" ><use class="Icon" width="106" height="66.00000000000148" fill="transparent"  stroke="grey" stroke-dasharray="5,3" stroke-width="0" xlink:href="#c"/><a class="ChEBI_CHEBI_28300 Metabolite  " transform="translate(8 33)" color="#00f"  name="Glutamine"  ><rect class="Icon" transform="matrix(.98901 0 0 .96154 .49451 .48077)" width="90" height="25" fill="#fff" stroke="#00f"/><text class="Text" transform="translate(45,16.5)" fill="#00f"  font-size="12px"  text-anchor="middle"><tspan x="0" y="0">Glutamine</tspan></text></a><a class="ChEBI_CHEBI_17822 Metabolite  " transform="translate(8,8)" color="#00f"  name="Serine"  ><rect class="Icon" transform="matrix(.98901 0 0 .96154 .49451 .48077)" width="90" height="25" fill="#fff" stroke="#00f"/><text class="Text" transform="translate(45,16.5)" fill="#00f"  font-size="12px"  text-anchor="middle"><tspan x="0" y="0">Serine</tspan></text></a></g><g id="aj" class="Interaction" color="#000" ><g color="#000" fill="transparent"  filter="url(#a)" stroke="#000" stroke-dasharray="286.85600464105164, 11"><path class="EdgeBody" d="m325.5 213.04 85.974 285.18"   marker-end="url(#b)" /></g></g><text class="Text" transform="translate(5,27)" dominant-baseline="central" fill="black"  font-size="12px" font-weight="bold" overflow="visible" ><tspan x="0" y="-9">Name: Glycolysis in senescence</tspan> <tspan x="0" y="9">Organism: Homo sapiens</tspan></text></g></svg>
