<?xml version="1.0" encoding="UTF-8"?>
<!--
  WikiPathways page: https://www.wikipathways.org/index.php/Pathway:WP5116
  URL for this compressed file: https://github.com/eweitz/cachome/tree/main/data/wikipathways/WP5116.svg
  Source code for compression: https://github.com/eweitz/cachome/tree/main/src/wikipathways.py
-->
<svg class="Diagram" width="800" height="600" color="black" baseProfile="full" prefix="schema:http://schema.org/" preserveAspectRatio="xMidYMid" version="1.1" viewBox="0 0 878.74 985.88" vocab="http://vocabularies.wikipathways.org/wp#" xmlns="http://www.w3.org/2000/svg" xmlns:xlink="http://www.w3.org/1999/xlink"><style>svg {font-family: 'Liberation Sans', Arial, sans-serif; }</style><defs><filter id="i" x="-50%" y="-50%" width="200%" height="200%"><feComposite in="SourceGraphic" in2="SourceGraphic" result="doubleDark"/><feMorphology in="doubleDark" operator="dilate" radius="0.16666666666666666" result="in2Double"/><feMorphology in="SourceGraphic" operator="dilate" radius="3" result="inDouble"/><feComposite in="inDouble" in2="in2Double" operator="out" result="doubleResult"/></filter><filter id="b" x="0" y="0" width="878.74" height="985.88" filterUnits="userSpaceOnUse"><feColorMatrix in="SourceGraphic" values="-1   0   0 0 0                   0  -1   0 0 0                   0   0  -1 0 0                   0   0   0 1 0"/></filter><filter id="c" x="0" y="0" width="878.74" height="985.88" filterUnits="userSpaceOnUse"><feColorMatrix in="SourceGraphic" values="-1   0   0 0 1                   0  -1   0 0 0                   0   0  -1 0 0                   0   0   0 1 0"/></filter><marker id="j" stroke-dasharray="99999" markerHeight="12" markerUnits="userSpaceOnUse" markerWidth="12" orient="auto" preserveAspectRatio="none" refY="6" viewBox="0 0 12 12"><path d="M12 11L0 6l12-5z" fill="currentColor" stroke-width="0"/></marker><marker id="d" stroke-dasharray="99999" markerHeight="12" markerUnits="userSpaceOnUse" markerWidth="12" orient="auto" preserveAspectRatio="none" refX="12" refY="6" viewBox="0 0 12 12"><path transform="rotate(180 6 6)" d="M12 11L0 6l12-5z" fill="currentColor" stroke-width="0"/></marker><marker id="g" stroke-dasharray="99999" markerHeight="20" markerUnits="userSpaceOnUse" markerWidth="10" orient="auto" preserveAspectRatio="none" refX="10" refY="10" viewBox="0 0 10 20"><path d="m3 0v20" fill="currentColor" stroke="currentColor"/></marker><marker id="f" stroke-dasharray="99999" markerHeight="12" markerUnits="userSpaceOnUse" markerWidth="12" orient="auto" preserveAspectRatio="none" refX="12" refY="6" viewBox="0 0 12 12"><g transform="rotate(180 6 6)" fill="none"><path d="m12 6"/><path d="M0 6l11 5V1z" stroke="#000"/></g></marker><marker id="h" stroke-dasharray="99999" markerHeight="24" markerUnits="userSpaceOnUse" markerWidth="20" orient="auto" preserveAspectRatio="none" refX="20" refY="12" viewBox="0 0 20 24"><g transform="rotate(180 10 12)" fill="none" stroke="#000"><path d="M15 12V5M15.5 5H8M0 5l8-4v8z"/></g></marker><marker id="k" stroke-dasharray="99999" markerHeight="20" markerUnits="userSpaceOnUse" markerWidth="10" orient="auto" preserveAspectRatio="none" refX="10" refY="10" viewBox="0 0 10 20"><path d="m3 0v20" fill="currentColor" stroke="currentColor"/></marker><symbol id="a" overflow="visible" preserveAspectRatio="none" viewBox="0 0 50 50"><ellipse cx="25" cy="25" rx="25" ry="25" stroke="currentColor" vector-effect="non-scaling-stroke"/></symbol><symbol id="l" overflow="visible" preserveAspectRatio="none" viewBox="0 0 100 100"><path d="M0 25L25 0h50l25 25v50l-25 25H25L0 75z" stroke="currentColor" vector-effect="non-scaling-stroke"/></symbol><symbol id="e" preserveAspectRatio="none" viewBox="0 0 100 100"/></defs><g class="Viewport" color="black"  name="Name: SARS-CoV-2 B.1.1.7 variant antagonises innate immune activation Organism: Homo sapiens"><rect class="Icon" width="878.74" height="985.88" fill="#fff" stroke="#000" stroke-width="0"/><g id="m" class="DirectedInteraction" color="#000" ><g color="#000" fill="transparent"  filter="url(#b)" stroke="#000" stroke-dasharray="0, 5.8, 39.400000000000006, 5.8"><path class="EdgeBody" d="m606.09 477.7v51"   marker-end="url(#d)" marker-start="url(#j)" /></g></g><g id="n" class="DirectedInteraction" color="#000" ><g color="#000" fill="transparent"  filter="url(#b)" stroke="#000" stroke-dasharray="145.49411764706048, 5.8"><path class="EdgeBody" d="m509 686.39v151.29"   marker-end="url(#d)" /></g><g class="Burr Anchor" transform="translate(509 716.11)" ><use class="Icon" width="0" height="0" fill="#141414" stroke-width="0" xlink:href="#e"/></g></g><g id="o" class="Interaction" color="#000" ><g color="#000" fill="transparent"  filter="url(#b)" stroke="#000" stroke-dasharray="139.94246220861214, 11"><path class="EdgeBody" d="m548.5 850.19h150.94"   marker-end="url(#h)" /></g></g><g id="p" class="DirectedInteraction" color="#000" ><g color="#000" fill="transparent"  filter="url(#b)" stroke="#000" stroke-dasharray="5.03, 3.02, 5.03, 3.02, 5.03, 3.02, 5.03, 3.02, 5.03, 3.02, 5.03, 3.02, 5.03, 3.02, 5.03, 3.02, 5.03, 3.02, 5.03, 3.02, 5.03, 3.02, 5.03, 3.02, 5.03, 3.02, 5.03, 3.02, 5.03, 3.02, 5.03, 3.02, 5.03, 3.02, 5.03, 3.02, 5.03, 3.02, 5.03, 3.02, 5.03, 5.8"><path class="EdgeBody" d="m390 377h99.532v72.161"   marker-end="url(#d)" /></g></g><g id="q" class="Interaction" color="#000" ><g color="#000" fill="transparent"  filter="url(#b)" stroke="#000" stroke-dasharray="378.80117608855284, 7"><path class="EdgeBody" d="m715.15 479.4 1e-13 39.452c-1e-13 39.452-1e-13 118.36-34.359 157.81-34.359 39.452-103.08 39.452-137.43 39.452h-34.359"   marker-end="url(#g)" /></g></g><g id="r" class="Interaction" color="#000" ><g color="#000" fill="transparent"  filter="url(#b)" stroke="#000" stroke-dasharray="76.76466051822433, 7"><path class="EdgeBody" d="m462.04 464.16-4.506-5e-14c-4.506 5e-14 -13.518 5e-14 -18.024-4.5269-4.506-4.5269-4.506-13.581-12.006-18.107-7.5-4.5269-22.5-4.5269-30-4.5269l-7.5 6e-14"   marker-end="url(#g)" /></g></g><g id="s" class="Inhibition" color="#000" ><g color="#000" fill="transparent"  filter="url(#b)" stroke="#000" stroke-dasharray="158.04328950288385, 7"><path class="EdgeBody" d="m558.09 465.2-3.3333-4e-14c-3.3333 4e-14 -10 4e-14 -13.333 10.951-3.3333 10.951-3.3333 32.853-21.5 43.804-18.166 10.951-54.499 10.951-72.666 10.951h-18.166"   marker-end="url(#k)" /></g></g><g id="t" class="DirectedInteraction" color="#000" ><g color="#000" fill="transparent"  filter="url(#b)" stroke="#000" stroke-dasharray="5.17, 3.1, 5.17, 3.1, 5.17, 3.1, 5.17, 3.1, 5.17, 3.1, 5.17, 3.1, 5.17, 3.1, 5.17, 3.1, 5.17, 3.1, 5.17, 3.1, 5.17, 5.8"><path class="EdgeBody" d="m738.94 837.69v-93.606"   marker-end="url(#d)" /></g></g><g id="u" class="Interaction" color="#000" ><g color="#000" fill="transparent"  filter="url(#b)" stroke="#000" stroke-dasharray="45.90841572966493, 11"><path class="EdgeBody" d="m350.5 449.5-0.55766 56.906"   marker-end="url(#f)" /></g></g><g id="v" class="Interaction" color="#000" ><g color="#000" fill="transparent"  filter="url(#b)" stroke="#000" stroke-dasharray="6, 3.6, 6, 3.6, 0, 11"><path class="EdgeBody" d="m350.5 268.5v29"   marker-end="url(#h)" /></g></g><g id="w" class="DirectedInteraction" color="#000" ><g color="#000" fill="transparent"  filter="url(#b)" stroke="#000" stroke-dasharray="5.05, 3.03, 5.05, 3.03, 5.05, 5.8"><path class="EdgeBody" d="m350.5 397.5v27"   marker-end="url(#d)" /></g></g><g id="x" class="DirectedInteraction" color="#000" ><g color="#000" fill="transparent"  filter="url(#b)" stroke="#000" stroke-dasharray="5.81, 3.49, 5.81, 3.49, 5.81, 3.49, 5.81, 3.49, 5.81, 3.49, 5.81, 5.8"><path class="EdgeBody" d="m350.45 185.4 0.050335 58.103"   marker-end="url(#d)" /></g></g><g id="y" class="Interaction" color="#000" ><g color="#000" fill="transparent"  filter="url(#b)" stroke="#000" stroke-dasharray="24.094364043770902, 11"><path class="EdgeBody" d="m349.94 605.41 0.057661 35.094"   marker-end="url(#f)" /></g></g><g id="z" class="Interaction" color="#000" ><g color="#000" fill="transparent"  filter="url(#b)" stroke="#000" stroke-dasharray="61.00106423523579, 11"><path class="EdgeBody" d="m397.5 673.5 72 0.39147"   marker-end="url(#f)" /></g></g><g class="SingleFreeNode Shape PhysicalEntity CellularComponent Cell" transform="translate(166.5 207.5)" color="#c0c0c0"  name="Respiratory epithelial cell"><g fill="transparent"  filter="url(#i)" stroke="#c0c0c0" stroke-width="3"><rect class="Icon" transform="matrix(.98275 0 0 .98425 5.8965 5.9055)" width="683.74" height="749.88" rx="15" ry="15"   /></g><text class="Text" transform="translate(8 18.6)" fill="#c0c0c0"  font-size="12px" stroke="black" stroke-width="0"><tspan x="0" y="0">Respiratory epithelial cell</tspan></text></g><g class="SingleFreeNode Shape PhysicalEntity CellularComponent Nucleus" transform="translate(422.87 771.99)" color="#c0c0c0"  name="Nucleus"><g fill="transparent"  filter="url(#i)" stroke="#c0c0c0" stroke-width="3"><use class="Icon" transform="matrix(.97025 0 0 .93197 5.8215 5.5918)" width="391.32773109243635" height="164.38655462184744"    xlink:href="#a"/></g><text class="Text" transform="translate(195.66 18.6)" fill="#c0c0c0"  font-size="12px" font-weight="bold" stroke="black" stroke-width="0" text-anchor="middle"><tspan x="0" y="0">Nucleus</tspan></text></g><g class="Label" transform="translate(690.94 719.08)" color="#000"  name="IFN antiviral signaling"><use class="Icon" width="96" height="25" fill="transparent"  stroke="#000" stroke-width="0" xlink:href="#e"/><text class="Text" transform="translate(48,16.5)"   font-size="12px" font-weight="bold"  text-anchor="middle"><tspan x="0" y="-6.6000000000000005">IFN antiviral</tspan> <tspan x="0" y="6.6000000000000005">signaling</tspan></text></g><a  class="GeneProduct IFNB1 " transform="translate(699.44 837.69)"   name="IFNB1"  ><rect class="Icon" transform="matrix(.9875 0 0 .96154 .49375 .48077)" width="79" height="25" fill="#fff" stroke="#000"/><text class="Text" transform="translate(39.5,16.5)"   font-size="12px"  text-anchor="middle"><tspan x="0" y="0">IFNB1</tspan></text></a><a  class="GeneProduct DDX58 " transform="translate(311,424.5)"   name="DDX58"  ><rect class="Icon" transform="matrix(.9875 0 0 .96154 .49375 .48077)" width="79" height="25" fill="#fff" stroke="#000"/><text class="Text" transform="translate(39.5,16.5)"   font-size="12px"  text-anchor="middle"><tspan x="0" y="0">DDX58</tspan></text></a><g class="GroupGroup" transform="translate(303,297.5)" color="grey" ><use class="Icon" width="95" height="100" fill="transparent"  stroke="grey" stroke-dasharray="5,3" stroke-width="0" xlink:href="#e"/><g class="Rna " transform="translate(8,8)" color="#000"  name="Orf6 sgRNA"><rect class="Icon" transform="matrix(.9875 0 0 .96154 .49375 .48077)" width="79" height="25" fill="#fff" stroke="#000"/><text class="Text" transform="translate(39.5,16.5)"   font-size="12px"  text-anchor="middle"><tspan x="0" y="0">Orf6 sgRNA</tspan></text></g><g class="Rna " transform="translate(8,67)" color="#000"  name="N sgRNA"><rect class="Icon" transform="matrix(.9875 0 0 .96154 .49375 .48077)" width="79" height="25" fill="#fff" stroke="#000"/><text class="Text" transform="translate(39.5,16.5)"   font-size="12px"  text-anchor="middle"><tspan x="0" y="0">N sgRNA</tspan></text></g><g class="Rna" transform="translate(8,37)" color="#000"  name="Orf9b sgRNA"><rect class="Icon" transform="matrix(.9875 0 0 .96154 .49375 .48077)" width="79" height="25" fill="#fff" stroke="#000"/><text class="Text" transform="translate(39.5,16.5)"   font-size="12px"  text-anchor="middle"><tspan x="0" y="0">Orf9b sgRNA</tspan></text></g></g><g class="GroupGroup" transform="translate(302.5,640.5)" color="grey" ><use class="Icon" width="95" height="66" fill="transparent"  stroke="grey" stroke-dasharray="5,3" stroke-width="0" xlink:href="#e"/><a  class="GeneProduct TBK1 " transform="translate(8,8)"   name="TBK1"  ><rect class="Icon" transform="matrix(.9875 0 0 .96154 .49375 .48077)" width="79" height="25" fill="#fff" stroke="#000"/><text class="Text" transform="translate(39.5,16.5)"   font-size="12px"  text-anchor="middle"><tspan x="0" y="0">TBK1</tspan></text></a><a  class="GeneProduct IKBKE " transform="translate(8,33)"   name="IKBKE"  ><rect class="Icon" transform="matrix(.9875 0 0 .96154 .49375 .48077)" width="79" height="25" fill="#fff" stroke="#000"/><text class="Text" transform="translate(39.5,16.5)"   font-size="12px"  text-anchor="middle"><tspan x="0" y="0">IKBKE</tspan></text></a></g><a  class="Protein " transform="translate(462.04 449.16)"   name="N"  ><use class="Icon" transform="matrix(.98214 0 0 .96774 .49107 .48387)" width="54.992746849132345" height="30" fill="#ffcccc" stroke="#000" xlink:href="#a"/><text class="Text" transform="translate(27.496 19)"   font-size="12px"  text-anchor="middle"><tspan x="0" y="0">N</tspan></text></a><g class="GroupComplex" transform="translate(258.79 506.41)" color="grey" ><use class="Icon" transform="matrix(.99454 0 0 .99 .49727 .495)" width="182.29953301837395" height="99" fill="#b4b464" fill-opacity=".1" stroke="grey" xlink:href="#l"/><a  class="GeneProduct TRAF6 " transform="translate(91.3 62)"   name="TRAF6"  ><rect class="Icon" transform="matrix(.9875 0 0 .96154 .49375 .48077)" width="79" height="25" fill="#fff" stroke="#000"/><text class="Text" transform="translate(39.5,16.5)"   font-size="12px"  text-anchor="middle"><tspan x="0" y="0">TRAF6</tspan></text></a><a  class="GeneProduct TRAF3 " transform="translate(91.3 37)"   name="TRAF3"  ><rect class="Icon" transform="matrix(.9875 0 0 .96154 .49375 .48077)" width="79" height="25" fill="#fff" stroke="#000"/><text class="Text" transform="translate(39.5,16.5)"   font-size="12px"  text-anchor="middle"><tspan x="0" y="0">TRAF3</tspan></text></a><a  class="GeneProduct MAVS " transform="translate(12 37.009)"   name="MAVS"  ><rect class="Icon" transform="matrix(.9875 0 0 .96154 .49375 .48077)" width="79" height="25" fill="#fff" stroke="#000"/><text class="Text" transform="translate(39.5,16.5)"   font-size="12px"  text-anchor="middle"><tspan x="0" y="0">MAVS</tspan></text></a><a  class="Protein TOMM70 " transform="translate(91.3 12)"   name="TOMM70"  ><rect class="Icon" transform="matrix(.9875 0 0 .96154 .49375 .48077)" width="79" height="25" fill="#fff" stroke="#000"/><text class="Text" transform="translate(39.5,16.5)"   font-size="12px"  text-anchor="middle"><tspan x="0" y="0">TOMM70</tspan></text></a></g><g class="Uniprot-TrEMBL_P0DTD2 Protein " transform="translate(558.09 452.7)" color="#000"  name="Orf9b"><use class="Icon" transform="matrix(.98969 0 0 .96154 .49485 .48077)" width="96" height="25" fill="#ffcccc" stroke="#000" xlink:href="#a"/><text class="Text" transform="translate(48,16.5)"   font-size="12px"  text-anchor="middle"><tspan x="0" y="0">Orf9b</tspan></text></g><g class="Uniprot-TrEMBL_P0DTC6 GeneProduct " transform="translate(691.36 454.4)" color="#000"  name="Orf6"><use class="Icon" transform="matrix(.9896 0 0 .96154 .4948 .48077)" width="95.16273653893899" height="25" fill="#ffcccc" stroke="#000" xlink:href="#a"/><text class="Text" transform="translate(47.581 16.5)"   font-size="12px"  text-anchor="middle"><tspan x="0" y="0">Orf6</tspan></text></g><g class="GroupGroup" transform="translate(265.7 23.397)" color="grey" ><use class="Icon" width="169.5000000000009" height="161.99999999999966" fill="transparent"  stroke="grey" stroke-dasharray="5,3" stroke-width="0" xlink:href="#e"/><g id="aa" class="Edge GraphicalLine" color="#f00" ><g color="#f00" fill="transparent"  filter="url(#c)" stroke="#000" stroke-dasharray="27.73084924772399, 0"><path class="EdgeBody" d="m102.5 51 12-25"   /></g></g><g class="SingleFreeNode Shape PhysicalEntity CellularComponent Vesicle" transform="translate(45 46.5)" color="#ffcc00" ><use class="Icon" transform="matrix(.96226 0 0 .95804 1.4434 1.4371)" width="76.5" height="68.5" fill="transparent"  stroke="#ffcc00" stroke-width="3" xlink:href="#a"/></g><g class="Label" transform="translate(42.5 67.5)" color="#000"  name="SARS-CoV-2"><use class="Icon" width="80" height="25" fill="transparent"  stroke="#000" stroke-width="0" xlink:href="#e"/><text class="Text" transform="translate(40,16.5)"   font-size="12px" font-weight="bold"  text-anchor="middle"><tspan x="0" y="0">SARS-CoV-2</tspan></text></g><g id="ab" class="Edge GraphicalLine" color="#f00" ><g color="#f00" fill="transparent"  filter="url(#c)" stroke="#000" stroke-dasharray="29.068883707497363, 0"><path class="EdgeBody" d="m118.5 64 22-19"   /></g></g><g id="ac" class="Edge GraphicalLine" color="#f00" ><g color="#f00" fill="transparent"  filter="url(#c)" stroke="#000" stroke-dasharray="27.000000000000227, 0"><path class="EdgeBody" d="m122.5 78h27"   /></g></g><g id="ad" class="Edge GraphicalLine" color="#f00" ><g color="#f00" fill="transparent"  filter="url(#c)" stroke="#000" stroke-dasharray="31.30495168499703, 0"><path class="EdgeBody" d="m119.5 93 28 14"   /></g></g><g id="ae" class="Edge GraphicalLine" color="#f00" ><g color="#f00" fill="transparent"  filter="url(#c)" stroke="#000" stroke-dasharray="28.42534080710389, 0"><path class="EdgeBody" d="m109.5 107 18 22"   /></g></g><g id="af" class="Edge GraphicalLine" color="#f00" ><g color="#f00" fill="transparent"  filter="url(#c)" stroke="#000" stroke-dasharray="26, 0"><path class="EdgeBody" d="m81.5 46v-26"   /></g></g><g id="ag" class="Edge GraphicalLine" color="#f00" ><g color="#f00" fill="transparent"  filter="url(#c)" stroke="#000" stroke-dasharray="28.65309756378882, 0"><path class="EdgeBody" d="m61.5 51-14-25"   /></g></g><g id="ah" class="Edge GraphicalLine" color="#f00" ><g color="#f00" fill="transparent"  filter="url(#c)" stroke="#000" stroke-dasharray="26.627053911388696, 0"><path class="EdgeBody" d="m46.5 67-22-15"   /></g></g><g id="ai" class="Edge GraphicalLine" color="#f00" ><g color="#f00" fill="transparent"  filter="url(#c)" stroke="#000" stroke-dasharray="27.073972741361995, 0"><path class="EdgeBody" d="m46.5 84-27 2"   /></g></g><g id="aj" class="Edge GraphicalLine" color="#f00" ><g color="#f00" fill="transparent"  filter="url(#c)" stroke="#000" stroke-dasharray="28.178005607210743, 0"><path class="EdgeBody" d="m51.5 103-25 13"   /></g></g><g id="ak" class="Edge GraphicalLine" color="#f00" ><g color="#f00" fill="transparent"  filter="url(#c)" stroke="#000" stroke-dasharray="29.06888370749706, 0"><path class="EdgeBody" d="m67.5 114-13 26"   /></g></g><g id="al" class="Edge GraphicalLine" color="#f00" ><g color="#f00" fill="transparent"  filter="url(#c)" stroke="#000" stroke-dasharray="26.476404589747077, 0"><path class="EdgeBody" d="m87.5 116 5 26"   /></g></g><g class="SingleFreeNode Shape PhysicalEntity CellularComponent Vesicle" transform="translate(150 73)" color="#f00" ><use class="Icon" transform="matrix(.92 0 0 .91667 .46 .45833)" width="11.5" height="11" fill="transparent"  stroke="#f00" xlink:href="#a"/></g><g class="SingleFreeNode Shape PhysicalEntity CellularComponent Vesicle" transform="translate(146 104)" color="#f00" ><use class="Icon" transform="matrix(.92 0 0 .91667 .46 .45833)" width="11.5" height="11" fill="transparent"  stroke="#f00" xlink:href="#a"/></g><g class="SingleFreeNode Shape PhysicalEntity CellularComponent Vesicle" transform="translate(126 127)" color="#f00" ><use class="Icon" transform="matrix(.92 0 0 .91667 .46 .45833)" width="11.5" height="11" fill="transparent"  stroke="#f00" xlink:href="#a"/></g><g class="SingleFreeNode Shape PhysicalEntity CellularComponent Vesicle" transform="translate(141 35)" color="#f00" ><use class="Icon" transform="matrix(.92 0 0 .91667 .46 .45833)" width="11.5" height="11" fill="transparent"  stroke="#f00" xlink:href="#a"/></g><g class="SingleFreeNode Shape PhysicalEntity CellularComponent Vesicle" transform="translate(15 113)" color="#f00" ><use class="Icon" transform="matrix(.92 0 0 .91667 .46 .45833)" width="11.5" height="11" fill="transparent"  stroke="#f00" xlink:href="#a"/></g><g class="SingleFreeNode Shape PhysicalEntity CellularComponent Vesicle" transform="translate(8 80)" color="#f00" ><use class="Icon" transform="matrix(.92 0 0 .91667 .46 .45833)" width="11.5" height="11" fill="transparent"  stroke="#f00" xlink:href="#a"/></g><g class="SingleFreeNode Shape PhysicalEntity CellularComponent Vesicle" transform="translate(15,43)" color="#f00" ><use class="Icon" transform="matrix(.92 0 0 .91667 .46 .45833)" width="11.5" height="11" fill="transparent"  stroke="#f00" xlink:href="#a"/></g><g class="SingleFreeNode Shape PhysicalEntity CellularComponent Vesicle" transform="translate(41 16)" color="#f00" ><use class="Icon" transform="matrix(.92 0 0 .91667 .46 .45833)" width="11.5" height="11" fill="transparent"  stroke="#f00" xlink:href="#a"/></g><g class="SingleFreeNode Shape PhysicalEntity CellularComponent Vesicle" transform="translate(75 8)" color="#f00" ><use class="Icon" transform="matrix(.92 0 0 .91667 .46 .45833)" width="11.5" height="11" fill="transparent"  stroke="#f00" xlink:href="#a"/></g><g class="SingleFreeNode Shape PhysicalEntity CellularComponent Vesicle" transform="translate(112 16)" color="#f00" ><use class="Icon" transform="matrix(.92 0 0 .91667 .46 .45833)" width="11.5" height="11" fill="transparent"  stroke="#f00" xlink:href="#a"/></g><g class="SingleFreeNode Shape PhysicalEntity CellularComponent Vesicle" transform="translate(47 141)" color="#f00" ><use class="Icon" transform="matrix(.92 0 0 .91667 .46 .45833)" width="11.5" height="11" fill="transparent"  stroke="#f00" xlink:href="#a"/></g><g class="SingleFreeNode Shape PhysicalEntity CellularComponent Vesicle" transform="translate(89 143)" color="#f00" ><use class="Icon" transform="matrix(.92 0 0 .91667 .46 .45833)" width="11.5" height="11" fill="transparent"  stroke="#f00" xlink:href="#a"/></g></g><a  class="GeneProduct IRF3 " transform="translate(469.5 661.39)"   name="IRF3"  ><rect class="Icon" transform="matrix(.9875 0 0 .96154 .49375 .48077)" width="79" height="25" fill="#fff" stroke="#000"/><text class="Text" transform="translate(39.5,16.5)"   font-size="12px"  text-anchor="middle"><tspan x="0" y="0">IRF3</tspan></text></a><g class="Uniprot-TrEMBL_P0DTD2 Protein " transform="translate(558.09 528.7)" color="#000"  name="Orf9b"><use class="Icon" transform="matrix(.98969 0 0 .96154 .49485 .48077)" width="96" height="25" fill="#ffcccc" stroke="#000" xlink:href="#a"/><g class="Burr State" transform="translate(78.5,-2.5)" color="#000"  name="P"><use class="Icon" transform="matrix(.9375 0 0 .9375 .46875 .46875)" width="15" height="15" fill="#fff" stroke="#000" xlink:href="#a"/><text class="Text" transform="translate(7.5,10.5)"   font-size="10px"  text-anchor="middle"><tspan x="0" y="0">P</tspan></text></g><text class="Text" transform="translate(48,16.5)"   font-size="12px"  text-anchor="middle"><tspan x="0" y="0">Orf9b</tspan></text></g><g id="am" class="Interaction" color="#000" ><g color="#000" fill="transparent"  filter="url(#b)" stroke="#000" stroke-dasharray="232.68457143613148, 7"><path class="EdgeBody" d="m738.94 479.4v239.68"   marker-end="url(#g)" /></g></g><a  class="GeneProduct IRF3 " transform="translate(469.5 837.69)"   name="IRF3"  ><rect class="Icon" transform="matrix(.9875 0 0 .96154 .49375 .48077)" width="79" height="25" fill="#fff" stroke="#000"/><text class="Text" transform="translate(39.5,16.5)"   font-size="12px"  text-anchor="middle"><tspan x="0" y="0">IRF3</tspan></text></a><g id="an" class="DirectedInteraction" color="#000" ><g color="#000" fill="transparent"  filter="url(#b)" stroke="#000" stroke-dasharray="5.03, 3.02, 5.03, 3.02, 5.03, 3.02, 5.03, 3.02, 5.03, 3.02, 5.03, 3.02, 5.03, 3.02, 5.03, 3.02, 5.03, 3.02, 5.03, 3.02, 5.03, 3.02, 5.03, 3.02, 5.03, 3.02, 5.03, 3.02, 5.03, 3.02, 5.03, 3.02, 5.03, 3.02, 5.03, 3.02, 5.03, 3.02, 5.03, 3.02, 5.03, 3.02, 5.03, 3.02, 5.03, 3.02, 5.03, 3.02, 5.03, 3.02, 5.03, 3.02, 5.03, 3.02, 5.03, 3.02, 5.03, 3.02, 5.03, 3.02, 5.03, 3.02, 5.03, 3.02, 5.03, 3.02, 5.03, 3.02, 5.03, 3.02, 5.03, 3.02, 5.03, 3.02, 5.03, 3.02, 5.03, 3.02, 5.03, 3.02, 5.03, 3.02, 5.03, 3.02, 5.03, 3.02, 5.03, 3.02, 5.03, 3.02, 5.03, 3.02, 5.03, 3.02, 5.03, 3.02, 5.03, 3.02, 5.03, 3.02, 5.03, 3.02, 5.03, 3.02, 5.03, 3.02, 5.03, 3.02, 5.03, 3.02, 5.03, 3.02, 5.03, 3.02, 5.03, 3.02, 5.03, 3.02, 5.03, 5.8"><path class="EdgeBody" d="m390 318h348.94v136.4"   marker-end="url(#d)" /></g></g><g id="ao" class="DirectedInteraction" color="#000" ><g color="#000" fill="transparent"  filter="url(#b)" stroke="#000" stroke-dasharray="5.11, 3.07, 5.11, 3.07, 5.11, 3.07, 5.11, 3.07, 5.11, 3.07, 5.11, 3.07, 5.11, 3.07, 5.11, 3.07, 5.11, 3.07, 5.11, 3.07, 5.11, 3.07, 5.11, 3.07, 5.11, 3.07, 5.11, 3.07, 5.11, 3.07, 5.11, 3.07, 5.11, 3.07, 5.11, 3.07, 5.11, 3.07, 5.11, 3.07, 5.11, 3.07, 5.11, 3.07, 5.11, 3.07, 5.11, 3.07, 5.11, 3.07, 5.11, 3.07, 5.11, 3.07, 5.11, 3.07, 5.11, 3.07, 5.11, 3.07, 5.11, 3.07, 5.11, 3.07, 5.11, 3.07, 5.11, 3.07, 5.11, 3.07, 5.11, 3.07, 5.11, 3.07, 5.11, 3.07, 5.11, 3.07, 0, 5.8"><path class="EdgeBody" d="m390 347h216.09v105.7"   marker-end="url(#d)" /></g></g><g class="Rna" transform="translate(302,243.5)" color="#000"  name="Genomic RNA"><rect class="Icon" transform="matrix(.9898 0 0 .96154 .4949 .48077)" width="97" height="25" fill="#fff" stroke="#000"/><text class="Text" transform="translate(48.5,16.5)"   font-size="12px" font-weight="bold"  text-anchor="middle"><tspan x="0" y="0">Genomic RNA</tspan></text></g><g class="Label" transform="translate(174,331.5)" color="#000"  name="Subgenomic RNAs"><use class="Icon" width="123.94246220861214" height="25" fill="transparent"  stroke="#000" stroke-width="0" xlink:href="#e"/><text class="Text" transform="translate(61.971 16.5)"   font-size="12px" font-weight="bold"  text-anchor="middle"><tspan x="0" y="0">Subgenomic RNAs</tspan></text></g><text class="Text" transform="translate(5,27)" dominant-baseline="central" fill="black"  font-size="12px" font-weight="bold" overflow="visible" ><tspan x="0" y="-9">Name: SARS-CoV-2 B.1.1.7 variant antagonises innate immune activation</tspan> <tspan x="0" y="9">Organism: Homo sapiens</tspan></text></g></svg>
