<?xml version="1.0" encoding="UTF-8"?>
<!--
  WikiPathways page: https://www.wikipathways.org/index.php/Pathway:WP5104
  URL for this compressed file: https://github.com/eweitz/cachome/tree/main/data/wikipathways/WP5104.svg
  Source code for compression: https://github.com/eweitz/cachome/tree/main/src/wikipathways.py
-->
<svg class="Diagram" width="800" height="600" color="black" baseProfile="full" prefix="schema:http://schema.org/" preserveAspectRatio="xMidYMid" version="1.1" viewBox="0 0 1297 1126" vocab="http://vocabularies.wikipathways.org/wp#" xmlns="http://www.w3.org/2000/svg" xmlns:xlink="http://www.w3.org/1999/xlink"><style>svg {font-family: 'Liberation Sans', Arial, sans-serif; }</style><defs><filter id="a" x="0" y="0" width="1297" height="1126" filterUnits="userSpaceOnUse"><feColorMatrix in="SourceGraphic" values="-1   0   0 0 0                   0  -1   0 0 0                   0   0  -1 0 0                   0   0   0 1 0"/></filter><filter id="l" x="0" y="0" width="1297" height="1126" filterUnits="userSpaceOnUse"><feColorMatrix in="SourceGraphic" values="-1   0   0 0 1                   0  -1   0 0 0                   0   0  -1 0 0                   0   0   0 1 0"/></filter><marker id="e" stroke-dasharray="99999" markerHeight="12" markerUnits="userSpaceOnUse" markerWidth="12" orient="auto" preserveAspectRatio="none" refX="12" refY="6" viewBox="0 0 12 12"><path transform="rotate(180 6 6)" d="M12 11L0 6l12-5z" fill="currentColor" stroke-width="0"/></marker><marker id="f" stroke-dasharray="99999" markerHeight="12" markerUnits="userSpaceOnUse" markerWidth="12" orient="auto" preserveAspectRatio="none" refX="12" refY="6" viewBox="0 0 12 12"><path transform="rotate(180 6 6)" d="M12 12L0 6l12-6-7 6z" fill="currentColor" stroke-width="0"/></marker><marker id="g" stroke-dasharray="99999" markerHeight="12" markerUnits="userSpaceOnUse" markerWidth="12" orient="auto" preserveAspectRatio="none" refX="12" refY="6" viewBox="0 0 12 12"><circle transform="rotate(180 6 6)" cx="6" cy="6" r="5.3" fill="none" stroke="#000"/></marker><marker id="i" stroke-dasharray="99999" markerHeight="30" markerUnits="userSpaceOnUse" markerWidth="20" orient="auto" preserveAspectRatio="none" refX="20" refY="15" viewBox="0 0 20 30"><g transform="rotate(180 10 15)" stroke="#000"><path d="m18 14.5v15.5l-18-30"/></g></marker><marker id="c" stroke-dasharray="99999" markerHeight="12" markerUnits="userSpaceOnUse" markerWidth="12" orient="auto" preserveAspectRatio="none" refX="12" refY="6" viewBox="0 0 12 12"><path transform="rotate(180 6 6)" d="M12 11L0 6l12-5z" fill="currentColor" stroke-width="0"/></marker><marker id="k" stroke-dasharray="99999" markerHeight="12" markerUnits="userSpaceOnUse" markerWidth="12" orient="auto" preserveAspectRatio="none" refX="12" refY="6" viewBox="0 0 12 12"><g transform="rotate(180 6 6)" fill="none"><path d="m12 6"/><path d="M0 6l11 5V1z" stroke="#000"/></g></marker><marker id="j" stroke-dasharray="99999" markerHeight="24" markerUnits="userSpaceOnUse" markerWidth="20" orient="auto" preserveAspectRatio="none" refX="20" refY="12" viewBox="0 0 20 24"><g transform="rotate(180 10 12)" fill="none" stroke="#000"><path d="M15 12V5M15.5 5H8M0 5l8-4v8z"/></g></marker><symbol id="h" overflow="visible" preserveAspectRatio="none" viewBox="0 0 50 50"><ellipse cx="25" cy="25" rx="25" ry="25" stroke="currentColor" vector-effect="non-scaling-stroke"/></symbol><symbol id="d" overflow="visible" preserveAspectRatio="none" viewBox="0 0 100 100"><path d="M0 25L25 0h50l25 25v50l-25 25H25L0 75z" stroke="currentColor" vector-effect="non-scaling-stroke"/></symbol><symbol id="b" preserveAspectRatio="none" viewBox="0 0 100 100"/></defs><g class="Viewport" color="black"  name="Name: Acquired partial lipodystrophy / Barraquer-Simons syndrome Organism: Homo sapiens"><rect class="Icon" width="1297" height="1126" fill="#fff" stroke="#000" stroke-width="0"/><g id="m" class="Interaction" color="#000" ><g color="#000" fill="transparent"  filter="url(#a)" stroke="#000" stroke-dasharray="252.7785744994465, 5.8"><path class="EdgeBody" d="m493.76 820.28v-53.893h-150.79v53.893"   marker-end="url(#c)" /></g></g><g id="n" class="Edge GraphicalLine" color="#000" ><g color="#000" fill="transparent"  filter="url(#a)" stroke="#000" stroke-dasharray="38.5248735469345, 18"><path class="EdgeBody" d="m210.7 237.12 56.52 0.70445"   marker-end="url(#i)" /></g></g><g id="o" class="Interaction" color="#000" ><g color="#000" fill="transparent"  filter="url(#a)" stroke="#000" stroke-dasharray="33.641215058974524, 18"><path class="EdgeBody" d="m240.04 726.47h51.641"   marker-end="url(#i)" /></g></g><g id="p" class="DirectedInteraction" color="#000" ><g color="#000" fill="transparent"  filter="url(#a)" stroke="#000" stroke-dasharray="38.328201508685666, 5.8"><path class="EdgeBody" d="m493.76 200.46-1.13e-12 -44.128"   marker-end="url(#e)" /></g></g><g id="q" class="Interaction" color="#000" ><g color="#000" fill="transparent"  filter="url(#a)" stroke="#000" stroke-dasharray="541.4830391601422, 11"><path class="EdgeBody" d="m550.76 435.59h160.42v352.18h-39.883"   marker-end="url(#k)" /></g></g><g id="r" class="DirectedInteraction" color="#000" ><g color="#000" fill="transparent"  filter="url(#a)" stroke="#000" stroke-dasharray="49.01270884758419, 5.8"><path class="EdgeBody" d="m1180.5 876.77-2e-12 54.813"   marker-end="url(#e)" /></g></g><g id="s" class="Interaction" color="#000" ><g color="#000" fill="transparent"  filter="url(#a)" stroke="#000" stroke-dasharray="251.67818802878674, 11"><path class="EdgeBody" d="m550.76 588.12h75.542v187.14"   marker-end="url(#k)" /></g></g><g class="SingleFreeNode Shape" transform="translate(20.327 225.6)" color="#000"  name="x"><rect class="Icon" transform="matrix(.9873 0 0 .95591 .49365 .47795)" width="77.734" height="21.68" fill="transparent"  stroke="#000"/><text class="Text" transform="translate(38.867 14.84)"   font-size="12px"  text-anchor="middle"><tspan x="0" y="0">x</tspan></text></g><g class="Label" transform="translate(770.12 88.667)" color="#000"  name="Not enough evidence"><use class="Icon" width="124.05822544071405" height="25" fill="transparent"  stroke="#000" stroke-width="0" xlink:href="#b"/><text class="Text" transform="translate(62.029 16.5)"   font-size="12px"  text-anchor="middle"><tspan x="0" y="0">Not enough evidence</tspan></text></g><g class="Label" transform="translate(444.64 934.51)" color="#000"  name="Adipocyte"><use class="Icon" width="90" height="25" fill="transparent"  stroke="#000" stroke-width="0" xlink:href="#b"/><text class="Text" transform="translate(45,16.5)"   font-size="12px"  text-anchor="middle"><tspan x="0" y="0">Adipocyte</tspan></text></g><g class="Label" transform="translate(267.22 225.33)" color="#000"  name="Cleaving"><use class="Icon" width="90" height="25" fill="transparent"  stroke="#000" stroke-width="0" xlink:href="#b"/><text class="Text" transform="translate(45,16.5)"   font-size="12px"  text-anchor="middle"><tspan x="0" y="0">Cleaving</tspan></text></g><g class="Label" transform="translate(578.66 407.28)" color="#000"  name="Continuous stimulation"><use class="Icon" width="131.07752251343425" height="25" fill="transparent"  stroke="#000" stroke-width="0" xlink:href="#b"/><text class="Text" transform="translate(65.539 16.5)"   font-size="12px"  text-anchor="middle"><tspan x="0" y="0">Continuous stimulation</tspan></text></g><g class="Label" transform="translate(102.85 147.14)" color="#000"  name="Disease"><use class="Icon" width="90" height="25" fill="transparent"  stroke="#000" stroke-width="0" xlink:href="#b"/><text class="Text" transform="translate(45,16.5)"   font-size="12px"  text-anchor="middle"><tspan x="0" y="0">Disease</tspan></text></g><g class="Label" transform="translate(448.76 131.33)" color="#000"  name="Adipocyte lysis"><use class="Icon" width="90" height="25" fill="transparent"  stroke="#000" stroke-width="0" xlink:href="#b"/><text class="Text" transform="translate(45,16.5)"   font-size="12px"  text-anchor="middle"><tspan x="0" y="0">Adipocyte lysis</tspan></text></g><g class="Label" transform="translate(581.3 775.26)" color="#000"  name="Hydrolysis"><use class="Icon" width="90" height="25" fill="transparent"  stroke="#000" stroke-width="0" xlink:href="#b"/><text class="Text" transform="translate(45,16.5)"   font-size="12px"  text-anchor="middle"><tspan x="0" y="0">Hydrolysis</tspan></text></g><g class="Label" transform="translate(413.9 200.46)" color="#000"  name="Excess amount of  membrane attack complex"><use class="Icon" width="159.71485211886795" height="36.32165595031637" fill="transparent"  stroke="#000" stroke-width="0" xlink:href="#b"/><text class="Text" transform="translate(79.857 22.161)"   font-size="12px"  text-anchor="middle"><tspan x="0" y="-6.6000000000000005">Excess amount of </tspan> <tspan x="0" y="6.6000000000000005">membrane attack complex</tspan></text></g><a  class="GeneProduct C5 " transform="translate(448.76 299.72)"   name="C5"  ><rect class="Icon" transform="matrix(.98901 0 0 .96154 .49451 .48077)" width="90" height="25" fill="#fff" stroke="#000"/><text class="Text" transform="translate(45,16.5)"   font-size="12px"  text-anchor="middle"><tspan x="0" y="0">C5</tspan></text></a><a  class="GeneProduct CFD " transform="translate(150.04 713.97)"   name="CFD"  ><rect class="Icon" transform="matrix(.98901 0 0 .96154 .49451 .48077)" width="90" height="25" fill="#fff" stroke="#000"/><text class="Text" transform="translate(45 16.5)"   font-size="12px"  text-anchor="middle"><tspan x="0" y="0">CFD</tspan></text></a><a  class="GeneProduct LMNA " transform="translate(992.52 895.26)"   name="LMNA"  ><rect class="Icon" transform="matrix(.98901 0 0 .96154 .49451 .48077)" width="90" height="25" fill="#fff" stroke="#000"/><text class="Text" transform="translate(45,16.5)"   font-size="12px"  text-anchor="middle"><tspan x="0" y="0">LMNA</tspan></text></a><a  class="Unknown" transform="translate(233.64 476.64)"   name="Membranoproliferative  glomerulonephritis"  ><rect class="Icon" transform="matrix(.99283 0 0 .97418 .49642 .48709)" width="138.54" height="37.724" fill="#fff" stroke="#000"/><text class="Text" transform="translate(69.27 22.862)"   font-size="12px"  text-anchor="middle"><tspan x="0" y="-6.6000000000000005">Membranoproliferative </tspan> <tspan x="0" y="6.6000000000000005">glomerulonephritis</tspan></text></a><a  class="Unknown" transform="translate(236.79 383.45)"   name="Autoimmune disease"  ><rect class="Icon" transform="matrix(.99249 0 0 .96154 .49625 .48077)" width="132.23" height="25" fill="#fff" stroke="#000"/><text class="Text" transform="translate(66.117 16.5)"   font-size="12px"  text-anchor="middle"><tspan x="0" y="0">Autoimmune disease</tspan></text></a><a  class="GeneProduct C3 " transform="translate(297.97 820.28)"   name="C3a"  ><rect class="Icon" transform="matrix(.98901 0 0 .96154 .49451 .48077)" width="90" height="25" fill="#fff" stroke="#000"/><text class="Text" transform="translate(45,16.5)"   font-size="12px"  text-anchor="middle"><tspan x="0" y="0">C3a</tspan></text></a><a  class="Unknown" transform="translate(605.07 35.649)"   name="Barraquer-Simons syndrome"  ><rect class="Icon" transform="matrix(.99409 0 0 .96154 .49705 .48077)" width="168.27" height="25" rx="15" ry="15" fill="#fff" stroke="#000"/><text class="Text" transform="translate(84.134 16.5)"   font-size="12px"  text-anchor="middle"><tspan x="0" y="0">Barraquer-Simons syndrome</tspan></text></a><a  class="GeneProduct CFB " transform="translate(291.68 713.97)"   name="CFB"  ><rect class="Icon" transform="matrix(.98901 0 0 .96154 .49451 .48077)" width="90" height="25" fill="#fff" stroke="#000"/><text class="Text" transform="translate(45,16.5)"   font-size="12px"  text-anchor="middle"><tspan x="0" y="0">CFB</tspan></text></a><g id="t" class="DirectedInteraction" color="#000" ><g color="#000" fill="transparent"  filter="url(#a)" stroke="#000" stroke-dasharray="218.2571872417593, 5.8"><path class="EdgeBody" d="m493.76 131.33v-20h153.38v-50.682"   marker-end="url(#e)" /></g></g><g id="u" class="DirectedInteraction" color="#000" ><g color="#000" fill="transparent"  filter="url(#a)" stroke="#000" stroke-dasharray="57.14297767220957, 5.8"><path class="EdgeBody" d="m493.76 299.72 1.13e-12 -62.943"   marker-end="url(#e)" /></g></g><g id="v" class="DirectedInteraction" color="#f00" ><g color="#f00" fill="transparent"  filter="url(#l)" stroke="#000" stroke-dasharray="231.32006269840417, 5.8"><path class="EdgeBody" d="m897.7 131.33v-20h-166.44v-50.682"   marker-end="url(#e)" /></g></g><g id="w" class="Interaction" color="#000" ><g color="#000" fill="transparent"  filter="url(#a)" stroke="#000" stroke-dasharray="71.57659951376327, 5.8"><path class="EdgeBody" d="m493.76 922.66-1.83e-12 -77.377"   marker-end="url(#c)" /></g></g><g id="x" class="Interaction" color="#000" ><g color="#000" fill="transparent"  filter="url(#a)" stroke="#000" stroke-dasharray="83.0487685407954, 5.8"><path class="EdgeBody" d="m493.76 713.97v-88.849"   marker-end="url(#c)" /></g><g class="Burr Anchor" transform="translate(493.76 678.43)" ><use class="Icon" width="0" height="0" fill="#141414" stroke-width="0" xlink:href="#b"/></g></g><g id="y" class="Interaction" color="#000" ><g color="#000" fill="transparent"  filter="url(#a)" stroke="#000" stroke-dasharray="88.85003757802838, 1"><path class="EdgeBody" d="m346.91 588.12 89.85 2.3941e-4"   marker-end="url(#f)" /></g></g><g id="z" class="DirectedInteraction" color="#000" ><g color="#000" fill="transparent"  filter="url(#a)" stroke="#000" stroke-dasharray="55.46400931430587, 5.8"><path class="EdgeBody" d="m302.91 514.37-1 61.256"   marker-end="url(#e)" /></g></g><g id="aa" class="Interaction" color="#000" ><g color="#000" fill="transparent"  filter="url(#a)" stroke="#000" stroke-dasharray="55.56166222445786, 5.8"><path class="EdgeBody" d="m493.76 386.09v-61.362"   marker-end="url(#c)" /></g></g><g id="ab" class="Interaction" color="#000" ><g color="#000" fill="transparent"  filter="url(#a)" stroke="#000" stroke-dasharray="60.239534637021805, 5.8"><path class="EdgeBody" d="m493.76 551.12v-66.04"   marker-end="url(#c)" /></g></g><g id="ac" class="Interaction" color="#000" ><g color="#000" fill="transparent"  filter="url(#a)" stroke="#000" stroke-dasharray="76.54165933045053, 11"><path class="EdgeBody" d="m581.3 787.76-87.542-0.0027885"   marker-end="url(#g)" /></g></g><g id="ad" class="DirectedInteraction" color="#000" ><g color="#000" fill="transparent"  filter="url(#a)" stroke="#000" stroke-dasharray="62.39649032441339, 5.8"><path class="EdgeBody" d="m302.91 408.45 2.15e-12 68.196"   marker-end="url(#e)" /></g></g><g id="ae" class="Interaction" color="#000" ><g color="#000" fill="transparent"  filter="url(#a)" stroke="#000" stroke-dasharray="75.50828611561401, 5.8"><path class="EdgeBody" d="m493.76 820.28v-81.308"   marker-end="url(#c)" /></g><g class="Burr Anchor" transform="translate(493.76 787.76)" ><use class="Icon" width="0" height="0" fill="#141414" stroke-width="0" xlink:href="#b"/></g></g><g id="af" class="Interaction" color="#000" ><g color="#000" fill="transparent"  filter="url(#a)" stroke="#000" stroke-dasharray="66.07455878207759, 1"><path class="EdgeBody" d="m381.68 726.47 67.075-3e-13"   marker-end="url(#f)" /></g></g><g class="SingleFreeNode Shape PhysicalEntity CellularComponent Vesicle" transform="translate(382.63 922.66)" color="#c0c0c0" ><use class="Icon" transform="matrix(.98668 0 0 .98242 1.48 1.4736)" width="222.26260378919505" height="167.61020854256844" fill="transparent"  stroke="#c0c0c0" stroke-width="3" xlink:href="#h"/></g><g class="SingleFreeNode Shape PhysicalEntity CellularComponent Vesicle" transform="translate(409.68 968.57)" color="#c0c0c0" ><use class="Icon" transform="matrix(.98247 0 0 .97274 1.4737 1.4591)" width="168.16121614346508" height="107.06466422656862" fill="transparent"  stroke="#c0c0c0" stroke-width="3" xlink:href="#h"/></g><a  class="GeneProduct C3 " transform="translate(448.76 820.28)"   name="C3"  ><rect class="Icon" transform="matrix(.98901 0 0 .96154 .49451 .48077)" width="90" height="25" fill="#fff" stroke="#000"/><text class="Text" transform="translate(45,16.5)"   font-size="12px"  text-anchor="middle"><tspan x="0" y="0">C3</tspan></text></a><a  class="GeneProduct C3 " transform="translate(448.76 713.97)"   name="C3b"  ><rect class="Icon" transform="matrix(.98901 0 0 .96154 .49451 .48077)" width="90" height="25" fill="#fff" stroke="#000"/><text class="Text" transform="translate(45,16.5)"   font-size="12px"  text-anchor="middle"><tspan x="0" y="0">C3b</tspan></text></a><a  class="GeneProduct LMNB2 " transform="translate(852.7 131.33)"   name="LMNB2"  ><rect class="Icon" transform="matrix(.98901 0 0 .96154 .49451 .48077)" width="90" height="25" fill="#fff" stroke="#000"/><text class="Text" transform="translate(45,16.5)"   font-size="12px"  text-anchor="middle"><tspan x="0" y="0">LMNB2</tspan></text></a><a class="Metabolite" transform="translate(256.91 575.62)" color="#00f"  name="C3NeF"  ><rect class="Icon" transform="matrix(.98901 0 0 .96154 .49451 .48077)" width="90" height="25" fill="#fff" stroke="#00f"/><text class="Text" transform="translate(45,16.5)" fill="#00f"  font-size="12px"  text-anchor="middle"><tspan x="0" y="0">C3NeF</tspan></text></a><g class="GroupComplex" transform="translate(436.76 551.12)" color="grey" ><use class="Icon" transform="matrix(.9913 0 0 .98667 .49565 .49333)" width="114.00000000000006" height="73.99999999999864" fill="#b4b464" fill-opacity=".1" stroke="grey" xlink:href="#d"/><a  class="GeneProduct C3 " transform="translate(12,12)"   name="C3b"  ><rect class="Icon" transform="matrix(.98901 0 0 .96154 .49451 .48077)" width="90" height="25" fill="#fff" stroke="#000"/><text class="Text" transform="translate(45,16.5)"   font-size="12px"  text-anchor="middle"><tspan x="0" y="0">C3b</tspan></text></a><a  class="GeneProduct CFB " transform="translate(12 37)"   name="CFBb"  ><rect class="Icon" transform="matrix(.98901 0 0 .96154 .49451 .48077)" width="90" height="25" fill="#fff" stroke="#000"/><text class="Text" transform="translate(45,16.5)"   font-size="12px"  text-anchor="middle"><tspan x="0" y="0">CFBb</tspan></text></a></g><g class="GroupComplex" transform="translate(436.76 386.09)" color="grey" ><use class="Icon" transform="matrix(.9913 0 0 .99 .49565 .495)" width="114.00000000000006" height="98.99999999999892" fill="#b4b464" fill-opacity=".1" stroke="grey" xlink:href="#d"/><a  class="GeneProduct C3 " transform="translate(12 37)"   name="C3b"  ><rect class="Icon" transform="matrix(.98901 0 0 .96154 .49451 .48077)" width="90" height="25" fill="#fff" stroke="#000"/><text class="Text" transform="translate(45,16.5)"   font-size="12px"  text-anchor="middle"><tspan x="0" y="0">C3b</tspan></text></a><a  class="GeneProduct CFB " transform="translate(12 62)"   name="CFBb"  ><rect class="Icon" transform="matrix(.98901 0 0 .96154 .49451 .48077)" width="90" height="25" fill="#fff" stroke="#000"/><text class="Text" transform="translate(45,16.5)"   font-size="12px"  text-anchor="middle"><tspan x="0" y="0">CFBb</tspan></text></a><a class="Metabolite" transform="translate(12,12)" color="#00f"  name="C3NeF"  ><rect class="Icon" transform="matrix(.98901 0 0 .96154 .49451 .48077)" width="90" height="25" fill="#fff" stroke="#00f"/><text class="Text" transform="translate(45,16.5)" fill="#00f"  font-size="12px"  text-anchor="middle"><tspan x="0" y="0">C3NeF</tspan></text></a></g><g id="ag" class="Interaction" color="#000" ><g color="#000" fill="transparent"  filter="url(#a)" stroke="#000" stroke-dasharray="83.81659872672297, 11"><path class="EdgeBody" d="m992.52 285.34-94.817 0.10336"   marker-end="url(#g)" /></g></g><g id="ah" class="Interaction" color="#000" ><g color="#000" fill="transparent"  filter="url(#a)" stroke="#000" stroke-dasharray="27.388788442262864, 11"><path class="EdgeBody" d="m897.7 156.33v38.389"   marker-end="url(#j)" /></g></g><g id="ai" class="Interaction" color="#000" ><g color="#000" fill="transparent"  filter="url(#a)" stroke="#000" stroke-dasharray="36.52579878561353, 5.8"><path class="EdgeBody" d="m897.7 268.72v42.326"   marker-end="url(#c)" /></g><g class="Burr Anchor" transform="translate(897.7 285.44)" ><use class="Icon" width="0" height="0" fill="#141414" stroke-width="0" xlink:href="#b"/></g></g><g id="aj" class="Interaction" color="#000" ><g color="#000" fill="transparent"  filter="url(#a)" stroke="#000" stroke-dasharray="29.683470138173856, 5.8"><path class="EdgeBody" d="m897.7 522.84v35.483"   marker-end="url(#c)" /></g><g class="Burr Anchor" transform="translate(897.7 537.04)" ><use class="Icon" width="0" height="0" fill="#141414" stroke-width="0" xlink:href="#b"/></g></g><g id="ak" class="Interaction" color="#000" ><g color="#000" fill="transparent"  filter="url(#a)" stroke="#000" stroke-dasharray="76.81658247521679, 18"><path class="EdgeBody" d="m992.52 425.48-94.817 0.087192"   marker-end="url(#i)" /></g></g><g id="al" class="Interaction" color="#000" ><g color="#000" fill="transparent"  filter="url(#a)" stroke="#000" stroke-dasharray="32.996818887604675, 5.8"><path class="EdgeBody" d="m897.7 410.05-6e-13 38.797"   marker-end="url(#c)" /></g><g class="Burr Anchor" transform="translate(897.7 425.56)" ><use class="Icon" width="0" height="0" fill="#141414" stroke-width="0" xlink:href="#b"/></g></g><g id="am" class="Interaction" color="#000" ><g color="#000" fill="transparent"  filter="url(#a)" stroke="#000" stroke-dasharray="83.81654238472711, 11"><path class="EdgeBody" d="m992.52 537.04-94.817 6.9957e-6"   marker-end="url(#g)" /></g></g><g class="GroupComplex" transform="translate(840.7 311.05)" color="grey" ><use class="Icon" transform="matrix(.9913 0 0 .99 .49565 .495)" width="114.00000000000011" height="99.00000000000006" fill="#b4b464" fill-opacity=".1" stroke="grey" xlink:href="#d"/><g class="ChEBI_CHEBI_86019 Metabolite " transform="translate(12 62)" color="#00f"  name="Farnesyl"><rect class="Icon" transform="matrix(.98901 0 0 .96154 .49451 .48077)" width="90" height="25" fill="#fff" stroke="#00f"/><text class="Text" transform="translate(45,16.5)" fill="#00f"  font-size="12px"  text-anchor="middle"><tspan x="0" y="0">Farnesyl</tspan></text></g><a  class="Protein LMNB2 " transform="translate(12,12)"   name="Prelamin-B2"  ><rect class="Icon" transform="matrix(.98901 0 0 .96154 .49451 .48077)" width="90" height="25" fill="#fff" stroke="#000"/><text class="Text" transform="translate(45,16.5)"   font-size="12px"  text-anchor="middle"><tspan x="0" y="0">Prelamin-B2</tspan></text></a><a class="ChEBI_CHEBI_15356 Metabolite ChEBI_CHEBI_35237   " transform="translate(12 37)" color="#00f"  name="CAAX"  ><rect class="Icon" transform="matrix(.98901 0 0 .96154 .49451 .48077)" width="90" height="25" fill="#fff" stroke="#00f"/><text class="Text" transform="translate(45,16.5)" fill="#00f"  font-size="12px"  text-anchor="middle"><tspan x="0" y="0">CAAX</tspan></text></a></g><g id="an" class="Interaction" color="#000" ><g color="#000" fill="transparent"  filter="url(#a)" stroke="#000" stroke-dasharray="138.46456954667678, 1"><path class="EdgeBody" d="m1037.5 773.82v53.45h86.015"   marker-end="url(#f)" /></g></g><g id="ao" class="Interaction" color="#000" ><g color="#000" fill="transparent"  filter="url(#a)" stroke="#000" stroke-dasharray="153.00946808839512, 1"><path class="EdgeBody" d="m1037.5 895.26v-67.995h86.015"   marker-end="url(#f)" /></g></g><g class="GroupComplex" transform="translate(840.7 194.72)" color="grey" ><use class="Icon" transform="matrix(.9913 0 0 .98667 .49565 .49333)" width="114" height="74.00000000000026" fill="#b4b464" fill-opacity=".1" stroke="grey" xlink:href="#d"/><a  class="Protein LMNB2 " transform="translate(12,12)"   name="Prelamin-B2"  ><rect class="Icon" transform="matrix(.98901 0 0 .96154 .49451 .48077)" width="90" height="25" fill="#fff" stroke="#000"/><text class="Text" transform="translate(45,16.5)"   font-size="12px"  text-anchor="middle"><tspan x="0" y="0">Prelamin-B2</tspan></text></a><a class="ChEBI_CHEBI_15356 Metabolite ChEBI_CHEBI_35237   " transform="translate(12 37)" color="#00f"  name="CAAX"  ><rect class="Icon" transform="matrix(.98901 0 0 .96154 .49451 .48077)" width="90" height="25" fill="#fff" stroke="#00f"/><text class="Text" transform="translate(45,16.5)" fill="#00f"  font-size="12px"  text-anchor="middle"><tspan x="0" y="0">CAAX</tspan></text></a></g><g class="GroupComplex" transform="translate(824.06 558.33)" color="grey" ><use class="Icon" transform="matrix(.99326 0 0 .98654 .49663 .49327)" width="147.29727333743017" height="73.28219165337146" fill="#b4b464" fill-opacity=".1" stroke="grey" xlink:href="#d"/><a  class="Protein LMNB2 " transform="translate(28.982 12)"   name="Prelamin-B2"  ><rect class="Icon" transform="matrix(.98893 0 0 .96154 .49446 .48077)" width="89.334" height="25" fill="#fff" stroke="#000"/><text class="Text" transform="translate(44.667 16.5)"   font-size="12px"  text-anchor="middle"><tspan x="0" y="0">Prelamin-B2</tspan></text></a><g class="ChEBI_CHEBI_86019 Metabolite " transform="translate(12 36.282)" color="#00f"  name="Farnesyl-L-cysteine"><rect class="Icon" transform="matrix(.99195 0 0 .96154 .49598 .48077)" width="123.3" height="25" fill="#fff" stroke="#00f"/><g class="Burr State" transform="translate(115.8 17.5)" color="#000" ><use class="Icon" transform="matrix(.9375 0 0 .9375 .46875 .46875)" width="15" height="15" fill="#fff" stroke="#000" xlink:href="#h"/></g><text class="Text" transform="translate(61.649 16.5)" fill="#00f"  font-size="12px"  text-anchor="middle"><tspan x="0" y="0">Farnesyl-L-cysteine</tspan></text></g></g><a  class="GeneProduct RCE1 " transform="translate(992.52 412.98)"   name="RCE1"  ><rect class="Icon" transform="matrix(.98901 0 0 .96154 .49451 .48077)" width="90" height="25" fill="#fff" stroke="#000"/><text class="Text" transform="translate(45,16.5)"   font-size="12px"  text-anchor="middle"><tspan x="0" y="0">RCE1</tspan></text></a><a  class="GeneProduct FNTA " transform="translate(992.52 272.84)"   name="FNTA"  ><rect class="Icon" transform="matrix(.98901 0 0 .96154 .49451 .48077)" width="90" height="25" fill="#fff" stroke="#000"/><text class="Text" transform="translate(45,16.5)"   font-size="12px"  text-anchor="middle"><tspan x="0" y="0">FNTA</tspan></text></a><a  class="GeneProduct ICMT " transform="translate(992.52 524.54)"   name="ICMT"  ><rect class="Icon" transform="matrix(.98901 0 0 .96154 .49451 .48077)" width="90" height="25" fill="#fff" stroke="#000"/><text class="Text" transform="translate(45,16.5)"   font-size="12px"  text-anchor="middle"><tspan x="0" y="0">ICMT</tspan></text></a><g class="GroupComplex" transform="translate(824.06 448.84)" color="grey" ><use class="Icon" transform="matrix(.99326 0 0 .98667 .49663 .49333)" width="147.29727333743017" height="73.99999999999898" fill="#b4b464" fill-opacity=".1" stroke="grey" xlink:href="#d"/><a  class="Protein LMNB2 " transform="translate(28.229 12)"   name="Prelamin-B2"  ><rect class="Icon" transform="matrix(.98911 0 0 .96154 .49456 .48077)" width="90.838" height="25" fill="#fff" stroke="#000"/><text class="Text" transform="translate(45.419 16.5)"   font-size="12px"  text-anchor="middle"><tspan x="0" y="0">Prelamin-B2</tspan></text></a><g class="ChEBI_CHEBI_86019 Metabolite " transform="translate(12 37)" color="#00f"  name="Farnesyl-L-cysteine"><rect class="Icon" transform="matrix(.99195 0 0 .96154 .49598 .48077)" width="123.3" height="25" fill="#fff" stroke="#00f"/><text class="Text" transform="translate(61.649 16.5)" fill="#00f"  font-size="12px"  text-anchor="middle"><tspan x="0" y="0">Farnesyl-L-cysteine</tspan></text></g></g><g class="Label" transform="translate(946.6 608.67)" color="#000"  name="M"><use class="Icon" width="25.544718429736985" height="21.760087399939728" fill="transparent"  stroke="#000" stroke-width="0" xlink:href="#b"/><text class="Text" transform="translate(12.772 14.88)"   font-size="12px"  text-anchor="middle"><tspan x="0" y="0">M</tspan></text></g><g id="ap" class="Interaction" color="#000" ><g color="#000" fill="transparent"  filter="url(#a)" stroke="#000" stroke-dasharray="207.02791519237996, 1"><path class="EdgeBody" d="m897.7 631.61v20h139.82v48.211"   marker-end="url(#f)" /></g></g><g id="aq" class="Interaction" color="#000" ><g color="#000" fill="transparent"  filter="url(#a)" stroke="#000" stroke-dasharray="90.13414885773156, 11"><path class="EdgeBody" d="m1082.5 285.34 101.13 0.30844"   marker-end="url(#g)" /></g></g><g id="ar" class="Interaction" color="#000" ><g color="#000" fill="transparent"  filter="url(#a)" stroke="#000" stroke-dasharray="27.388788442262864, 11"><path class="EdgeBody" d="m1183.7 156.33v38.389"   marker-end="url(#j)" /></g></g><g id="as" class="Interaction" color="#000" ><g color="#000" fill="transparent"  filter="url(#a)" stroke="#000" stroke-dasharray="36.52579878561342, 5.8"><path class="EdgeBody" d="m1183.7 268.72v42.326"   marker-end="url(#c)" /></g><g class="Burr Anchor" transform="translate(1183.7 285.65)" ><use class="Icon" width="0" height="0" fill="#141414" stroke-width="0" xlink:href="#b"/></g></g><g id="at" class="Interaction" color="#000" ><g color="#000" fill="transparent"  filter="url(#a)" stroke="#000" stroke-dasharray="29.683470138173856, 5.8"><path class="EdgeBody" d="m1183.7 522.84 1.3e-12 35.483"   marker-end="url(#c)" /></g><g class="Burr Anchor" transform="translate(1183.7 537.04)" ><use class="Icon" width="0" height="0" fill="#141414" stroke-width="0" xlink:href="#b"/></g></g><g id="au" class="Interaction" color="#000" ><g color="#000" fill="transparent"  filter="url(#a)" stroke="#000" stroke-dasharray="83.13371609769285, 18"><path class="EdgeBody" d="m1082.5 425.48 101.13 0.087192"   marker-end="url(#i)" /></g></g><g id="av" class="Interaction" color="#000" ><g color="#000" fill="transparent"  filter="url(#a)" stroke="#000" stroke-dasharray="32.996818887604675, 5.8"><path class="EdgeBody" d="m1183.7 410.05-3.8e-12 38.797"   marker-end="url(#c)" /></g><g class="Burr Anchor" transform="translate(1183.7 425.56)" ><use class="Icon" width="0" height="0" fill="#141414" stroke-width="0" xlink:href="#b"/></g></g><g id="aw" class="Interaction" color="#000" ><g color="#000" fill="transparent"  filter="url(#a)" stroke="#000" stroke-dasharray="90.13367851138152, 11"><path class="EdgeBody" d="m1082.5 537.04 101.13 6.9957e-6"   marker-end="url(#g)" /></g></g><g class="GroupComplex" transform="translate(1126.7 311.05)" color="grey" ><use class="Icon" transform="matrix(.9913 0 0 .99 .49565 .495)" width="114" height="98.99999999999994" fill="#b4b464" fill-opacity=".1" stroke="grey" xlink:href="#d"/><g class="ChEBI_CHEBI_86019 Metabolite " transform="translate(12 62)" color="#00f"  name="Farnesyl"><rect class="Icon" transform="matrix(.98901 0 0 .96154 .49451 .48077)" width="90" height="25" fill="#fff" stroke="#00f"/><text class="Text" transform="translate(45,16.5)" fill="#00f"  font-size="12px"  text-anchor="middle"><tspan x="0" y="0">Farnesyl</tspan></text></g><a  class="Protein LMNB1 " transform="translate(12,12)"   name="Prelamin-B1"  ><rect class="Icon" transform="matrix(.98901 0 0 .96154 .49451 .48077)" width="90" height="25" fill="#fff" stroke="#000"/><text class="Text" transform="translate(45,16.5)"   font-size="12px"  text-anchor="middle"><tspan x="0" y="0">Prelamin-B1</tspan></text></a><a class="ChEBI_CHEBI_15356 Metabolite ChEBI_CHEBI_35237   " transform="translate(12,37)" color="#00f"  name="CAAX"  ><rect class="Icon" transform="matrix(.98901 0 0 .96154 .49451 .48077)" width="90" height="25" fill="#fff" stroke="#00f"/><text class="Text" transform="translate(45,16.5)" fill="#00f"  font-size="12px"  text-anchor="middle"><tspan x="0" y="0">CAAX</tspan></text></a></g><g class="GroupComplex" transform="translate(1126.7 194.72)" color="grey" ><use class="Icon" transform="matrix(.9913 0 0 .98667 .49565 .49333)" width="114" height="74.00000000000037" fill="#b4b464" fill-opacity=".1" stroke="grey" xlink:href="#d"/><a  class="Protein LMNB1 " transform="translate(12,12)"   name="Prelamin-B1"  ><rect class="Icon" transform="matrix(.98901 0 0 .96154 .49451 .48077)" width="90" height="25" fill="#fff" stroke="#000"/><text class="Text" transform="translate(45,16.5)"   font-size="12px"  text-anchor="middle"><tspan x="0" y="0">Prelamin-B1</tspan></text></a><a class="ChEBI_CHEBI_15356 Metabolite ChEBI_CHEBI_35237   " transform="translate(12 37)" color="#00f"  name="CAAX"  ><rect class="Icon" transform="matrix(.98901 0 0 .96154 .49451 .48077)" width="90" height="25" fill="#fff" stroke="#00f"/><text class="Text" transform="translate(45,16.5)" fill="#00f"  font-size="12px"  text-anchor="middle"><tspan x="0" y="0">CAAX</tspan></text></a></g><g class="GroupComplex" transform="translate(1110 558.33)" color="grey" ><use class="Icon" transform="matrix(.99326 0 0 .98654 .49663 .49327)" width="147.29727333743017" height="73.28219165337146" fill="#b4b464" fill-opacity=".1" stroke="grey" xlink:href="#d"/><a  class="Protein LMNB1 " transform="translate(28.982 12)"   name="Prelamin-B1"  ><rect class="Icon" transform="matrix(.98893 0 0 .96154 .49446 .48077)" width="89.334" height="25" fill="#fff" stroke="#000"/><text class="Text" transform="translate(44.667 16.5)"   font-size="12px"  text-anchor="middle"><tspan x="0" y="0">Prelamin-B1</tspan></text></a><g class="ChEBI_CHEBI_86019 Metabolite " transform="translate(12 36.282)" color="#00f"  name="Farnesyl-L-cysteine"><rect class="Icon" transform="matrix(.99195 0 0 .96154 .49598 .48077)" width="123.3" height="25" fill="#fff" stroke="#00f"/><g class="Burr State" transform="translate(115.44 16.878)" color="#000" ><use class="Icon" transform="matrix(.9375 0 0 .9375 .46875 .46875)" width="15" height="15" fill="#fff" stroke="#000" xlink:href="#h"/></g><text class="Text" transform="translate(61.649 16.5)" fill="#00f"  font-size="12px"  text-anchor="middle"><tspan x="0" y="0">Farnesyl-L-cysteine</tspan></text></g></g><a  class="GeneProduct LMNB1 " transform="translate(1138.7 131.33)"   name="LMNB1"  ><rect class="Icon" transform="matrix(.98901 0 0 .96154 .49451 .48077)" width="90" height="25" fill="#fff" stroke="#000"/><text class="Text" transform="translate(45,16.5)"   font-size="12px"  text-anchor="middle"><tspan x="0" y="0">LMNB1</tspan></text></a><g class="GroupComplex" transform="translate(1110 448.84)" color="grey" ><use class="Icon" transform="matrix(.99326 0 0 .98667 .49663 .49333)" width="147.29727333743017" height="73.99999999999898" fill="#b4b464" fill-opacity=".1" stroke="grey" xlink:href="#d"/><a  class="Protein LMNB1 " transform="translate(28.229 12)"   name="Prelamin-B1"  ><rect class="Icon" transform="matrix(.98911 0 0 .96154 .49456 .48077)" width="90.838" height="25" fill="#fff" stroke="#000"/><text class="Text" transform="translate(45.419 16.5)"   font-size="12px"  text-anchor="middle"><tspan x="0" y="0">Prelamin-B1</tspan></text></a><g class="ChEBI_CHEBI_86019 Metabolite " transform="translate(12 37)" color="#00f"  name="Farnesyl-L-cysteine"><rect class="Icon" transform="matrix(.99195 0 0 .96154 .49598 .48077)" width="123.3" height="25" fill="#fff" stroke="#00f"/><text class="Text" transform="translate(61.649 16.5)" fill="#00f"  font-size="12px"  text-anchor="middle"><tspan x="0" y="0">Farnesyl-L-cysteine</tspan></text></g></g><g class="Label" transform="translate(1222.6 608.35)" color="#000"  name="M"><use class="Icon" width="44.320782202337526" height="21.760087399939728" fill="transparent"  stroke="#000" stroke-width="0" xlink:href="#b"/><text class="Text" transform="translate(22.16 14.88)"   font-size="12px"  text-anchor="middle"><tspan x="0" y="0">M</tspan></text></g><g id="ax" class="Interaction" color="#000" ><g color="#000" fill="transparent"  filter="url(#a)" stroke="#000" stroke-dasharray="213.3450513190353, 1"><path class="EdgeBody" d="m1183.7 631.61v20h-146.13v48.211"   marker-end="url(#f)" /></g></g><g id="ay" class="DirectedInteraction" color="#000" ><g color="#000" fill="transparent"  filter="url(#a)" stroke="#000" stroke-dasharray="50.31862534242323, 5.8"><path class="EdgeBody" d="m1180.5 956.58v20h2.5e-12v36.119"   marker-end="url(#e)" /></g></g><g class="Label" transform="translate(1116.9 1012.7)" color="#000"  name="DNA replication RNA transcription Cell cycle regulation Mehcanical support etc."><use class="Icon" width="127.20733231299891" height="83.26274931515536" fill="transparent"  stroke="#000" stroke-width="0" xlink:href="#b"/><text class="Text" transform="translate(63.604 45.631)"   font-size="12px"  text-anchor="middle"><tspan x="0" y="-26.400000000000002">DNA replication</tspan> <tspan x="0" y="-13.200000000000001">RNA transcription</tspan> <tspan x="0" y="0">Cell cycle regulation</tspan> <tspan x="0" y="13.200000000000001">Mehcanical support</tspan> <tspan x="0" y="26.400000000000002">etc.</tspan></text></g><g class="Label" transform="translate(1130.7 931.58)" color="#000"  name="Nuclear Lamina"><use class="Icon" width="99.75312163957403" height="25" fill="transparent"  stroke="#000" stroke-width="0" xlink:href="#b"/><text class="Text" transform="translate(49.877 16.5)"   font-size="12px"  text-anchor="middle"><tspan x="0" y="0">Nuclear Lamina</tspan></text></g><g class="GroupComplex" transform="translate(980.52 699.82)" color="grey" ><use class="Icon" transform="matrix(.9913 0 0 .98667 .49565 .49333)" width="114" height="74" fill="#b4b464" fill-opacity=".1" stroke="grey" xlink:href="#d"/><a  class="GeneProduct LMNB2 " transform="translate(12,37)"   name="Lamin B2"  ><rect class="Icon" transform="matrix(.98901 0 0 .96154 .49451 .48077)" width="90" height="25" fill="#fff" stroke="#000"/><text class="Text" transform="translate(45,16.5)"   font-size="12px"  text-anchor="middle"><tspan x="0" y="0">Lamin B2</tspan></text></a><a  class="GeneProduct LMNB1 " transform="translate(12,12)"   name="Lamin B1"  ><rect class="Icon" transform="matrix(.98901 0 0 .96154 .49451 .48077)" width="90" height="25" fill="#fff" stroke="#000"/><text class="Text" transform="translate(45,16.5)"   font-size="12px"  text-anchor="middle"><tspan x="0" y="0">Lamin B1</tspan></text></a></g><g class="GroupComplex" transform="translate(1123.5 777.77)" color="grey" ><use class="Icon" transform="matrix(.9913 0 0 .99 .49565 .495)" width="114" height="98.99999999999966" fill="#b4b464" fill-opacity=".1" stroke="grey" xlink:href="#d"/><a  class="GeneProduct LMNA " transform="translate(12,12)"   name="Lamin A"  ><rect class="Icon" transform="matrix(.98901 0 0 .96154 .49451 .48077)" width="90" height="25" fill="#fff" stroke="#000"/><text class="Text" transform="translate(45,16.5)"   font-size="12px"  text-anchor="middle"><tspan x="0" y="0">Lamin A</tspan></text></a><a  class="GeneProduct LMNB2 " transform="translate(12 62)"   name="Lamin B2"  ><rect class="Icon" transform="matrix(.98901 0 0 .96154 .49451 .48077)" width="90" height="25" fill="#fff" stroke="#000"/><text class="Text" transform="translate(45,16.5)"   font-size="12px"  text-anchor="middle"><tspan x="0" y="0">Lamin B2</tspan></text></a><a  class="GeneProduct LMNB1 " transform="translate(12 37)"   name="Lamin B1"  ><rect class="Icon" transform="matrix(.98901 0 0 .96154 .49451 .48077)" width="90" height="25" fill="#fff" stroke="#000"/><text class="Text" transform="translate(45,16.5)"   font-size="12px"  text-anchor="middle"><tspan x="0" y="0">Lamin B1</tspan></text></a></g><g id="az" class="Edge GraphicalLine" color="#000" ><g color="#000" fill="transparent"  filter="url(#a)" stroke="#000" stroke-dasharray="54.517544564272704, 1"><path class="EdgeBody" d="m211.7 171.05 55.518-0.06101"   marker-end="url(#f)" /></g></g><g id="ba" class="Edge GraphicalLine" color="#000" ><g color="#000" fill="transparent"  filter="url(#a)" stroke="#000" stroke-dasharray="46.36402282785159, 5.8"><path class="EdgeBody" d="m215.06 77.636 52.164 0.077882"   marker-end="url(#c)" /></g></g><g id="bb" class="Edge GraphicalLine" color="#000" ><g color="#000" fill="transparent"  filter="url(#a)" stroke="#000" stroke-dasharray="44.51832338328133, 11"><path class="EdgeBody" d="m211.7 110.45 55.518-0.30033"   marker-end="url(#k)" /></g></g><g id="bc" class="Edge GraphicalLine" color="#000" ><g color="#000" fill="transparent"  filter="url(#a)" stroke="#000" stroke-dasharray="43.797150239489746, 11"><path class="EdgeBody" d="m212.42 138.52 54.797-0.19973"   marker-end="url(#g)" /></g></g><g class="Label" transform="translate(267.22 158.48)" color="#000"  name="Binding"><use class="Icon" width="90" height="25" fill="transparent"  stroke="#000" stroke-width="0" xlink:href="#b"/><text class="Text" transform="translate(45,16.5)"   font-size="12px"  text-anchor="middle"><tspan x="0" y="0">Binding</tspan></text></g><g class="Label" transform="translate(267.22 65.213)" color="#000"  name="Conversion"><use class="Icon" width="90" height="25" fill="transparent"  stroke="#000" stroke-width="0" xlink:href="#b"/><text class="Text" transform="translate(45,16.5)"   font-size="12px"  text-anchor="middle"><tspan x="0" y="0">Conversion</tspan></text></g><g class="Label" transform="translate(112.48 224.73)" color="#000"  name="Gene/protein"><use class="Icon" width="70.72181859618681" height="25" fill="transparent"  stroke="#000" stroke-width="0" xlink:href="#b"/><text class="Text" transform="translate(35.361 16.5)"   font-size="12px"  text-anchor="middle"><tspan x="0" y="0">Gene/protein</tspan></text></g><g class="Label" transform="translate(117.43 185.92)" color="#000"  name="Metabolite"><use class="Icon" width="60.82881144380738" height="25" fill="transparent"  stroke="#000" stroke-width="0" xlink:href="#b"/><text class="Text" transform="translate(30.414 16.5)"   font-size="12px"  text-anchor="middle"><tspan x="0" y="0">Metabolite</tspan></text></g><g class="Label" transform="translate(267.22 125.82)" color="#000"  name="Catalysis"><use class="Icon" width="90" height="25" fill="transparent"  stroke="#000" stroke-width="0" xlink:href="#b"/><text class="Text" transform="translate(45,16.5)"   font-size="12px"  text-anchor="middle"><tspan x="0" y="0">Catalysis</tspan></text></g><g class="Label" transform="translate(267.22 97.65)" color="#000"  name="Stimulation"><use class="Icon" width="90" height="25" fill="transparent"  stroke="#000" stroke-width="0" xlink:href="#b"/><text class="Text" transform="translate(45,16.5)"   font-size="12px"  text-anchor="middle"><tspan x="0" y="0">Stimulation</tspan></text></g><g class="SingleFreeNode Shape" transform="translate(44.194 108.4)" color="#000" ><use class="Icon" transform="matrix(.96774 0 0 .96774 .48387 .48387)" width="30" height="30" fill="transparent"  stroke="#000" xlink:href="#h"/></g><g class="Label" transform="translate(112.92 114.91)" color="#000"  name="Methylation"><use class="Icon" width="69.84164579875119" height="25" fill="transparent"  stroke="#000" stroke-width="0" xlink:href="#b"/><text class="Text" transform="translate(34.921 16.5)"   font-size="12px"  text-anchor="middle"><tspan x="0" y="0">Methylation</tspan></text></g><g class="Label" transform="translate(50.401 115.69)" color="#000"  name="M"><use class="Icon" width="17.585921862903895" height="15.094004758680285" fill="transparent"  stroke="#000" stroke-width="0" xlink:href="#b"/><text class="Text" transform="translate(8.793 11.547)"   font-size="12px"  text-anchor="middle"><tspan x="0" y="0">M</tspan></text></g><g id="bd" class="Edge GraphicalLine DirectedInteraction" color="#f00" ><g color="#f00" fill="transparent"  filter="url(#l)" stroke="#000" stroke-dasharray="41.97125361979109, 5.8"><path class="EdgeBody" d="m36.541 93.584 47.771-0.14802"   marker-end="url(#e)" /></g></g><g class="SingleFreeNode Shape" transform="translate(10.071 54.762)" color="#000" ><rect class="Icon" transform="matrix(.9973 0 0 .99529 .49865 .49764)" width="368.77" height="211.18" fill="transparent"  stroke="#000"/></g><g class="Label" transform="translate(120 81.37)" color="#000"  name="Mutations"><use class="Icon" width="55.69741551544408" height="25" fill="transparent"  stroke="#000" stroke-width="0" xlink:href="#b"/><text class="Text" transform="translate(27.849 16.5)"   font-size="12px"  text-anchor="middle"><tspan x="0" y="0">Mutations</tspan></text></g><g class="Label" transform="translate(18.456 60.639)" color="#000"  name="Legend"><use class="Icon" width="50.05263157894808" height="25" fill="transparent"  stroke="#000" stroke-width="0" xlink:href="#b"/><text class="Text" transform="translate(25.026 16.5)"   font-size="12px"  text-anchor="middle"><tspan x="0" y="0">Legend</tspan></text></g><g id="be" class="Edge GraphicalLine" color="#000" ><g color="#000" fill="transparent"  filter="url(#a)" stroke="#000" stroke-dasharray="44.882035686349035, 11"><path class="EdgeBody" d="m211.34 203.17 55.882 0.20654"   marker-end="url(#j)" /></g></g><g class="Label" transform="translate(267.22 190.88)" color="#000"  name="Transcription"><use class="Icon" width="90" height="25" fill="transparent"  stroke="#000" stroke-width="0" xlink:href="#b"/><text class="Text" transform="translate(45,16.5)"   font-size="12px"  text-anchor="middle"><tspan x="0" y="0">Transcription</tspan></text></g><g class="SingleFreeNode Shape" transform="translate(20.327 188.18)" color="#00f"  name="x"><rect class="Icon" transform="matrix(.9873 0 0 .95591 .49365 .47795)" width="77.734" height="21.68" fill="transparent"  stroke="#00f"/><text class="Text" transform="translate(38.867 14.84)" fill="#00f"  font-size="12px"  text-anchor="middle"><tspan x="0" y="0">x</tspan></text></g><g class="SingleFreeNode Shape" transform="translate(20.327 149.4)" color="#000"  name="x"><rect class="Icon" transform="matrix(.9873 0 0 .95591 .49365 .47795)" width="77.734" height="21.68" rx="15" ry="15" fill="transparent"  stroke="#000"/><text class="Text" transform="translate(38.867 14.84)"   font-size="12px"  text-anchor="middle"><tspan x="0" y="0">x</tspan></text></g><text class="Text" transform="translate(5,27)" dominant-baseline="central" fill="black"  font-size="12px" font-weight="bold" overflow="visible" ><tspan x="0" y="-9">Name: Acquired partial lipodystrophy / Barraquer-Simons syndrome</tspan> <tspan x="0" y="9">Organism: Homo sapiens</tspan></text></g></svg>
