<?xml version="1.0" encoding="UTF-8"?>
<!--
  WikiPathways page: https://www.wikipathways.org/index.php/Pathway:WP5118
  URL for this compressed file: https://github.com/eweitz/cachome/tree/main/data/wikipathways/WP5118.svg
  Source code for compression: https://github.com/eweitz/cachome/tree/main/src/wikipathways.py
-->
<svg class="Diagram" width="800" height="600" color="black" baseProfile="full" prefix="schema:http://schema.org/" preserveAspectRatio="xMidYMid" version="1.1" viewBox="0 0 1854.5 2078.6" vocab="http://vocabularies.wikipathways.org/wp#" xmlns="http://www.w3.org/2000/svg" xmlns:xlink="http://www.w3.org/1999/xlink"><style>svg {font-family: 'Liberation Sans', Arial, sans-serif; }</style><defs><filter id="o" x="-50%" y="-50%" width="200%" height="200%"><feComposite in="SourceGraphic" in2="SourceGraphic" result="doubleDark"/><feMorphology in="doubleDark" operator="dilate" radius="0.16666666666666666" result="in2Double"/><feMorphology in="SourceGraphic" operator="dilate" radius="3" result="inDouble"/><feComposite in="inDouble" in2="in2Double" operator="out" result="doubleResult"/></filter><filter id="b" x="0" y="0" width="1854.5" height="2078.6" filterUnits="userSpaceOnUse"><feColorMatrix in="SourceGraphic" values="-1   0   0 0 0                   0  -1   0 0 0                   0   0  -1 0 0                   0   0   0 1 0"/></filter><filter id="p" x="0" y="0" width="1854.5" height="2078.6" filterUnits="userSpaceOnUse"><feColorMatrix in="SourceGraphic" values="-1   0   0 0 1                   0  -1   0 0 0                   0   0  -1 0 0.4                   0   0   0 1 0"/></filter><filter id="j" x="0" y="0" width="1854.5" height="2078.6" filterUnits="userSpaceOnUse"><feColorMatrix in="SourceGraphic" values="-1   0   0 0 0                   0  -1   0 0 0.8                   0   0  -1 0 0.4                   0   0   0 1 0"/></filter><filter id="e" x="0" y="0" width="1854.5" height="2078.6" filterUnits="userSpaceOnUse"><feColorMatrix in="SourceGraphic" values="-1   0   0 0 0.2                   0  -1   0 0 0.2                   0   0  -1 0 1                   0   0   0 1 0"/></filter><filter id="k" x="0" y="0" width="1854.5" height="2078.6" filterUnits="userSpaceOnUse"><feColorMatrix in="SourceGraphic" values="-1   0   0 0 1                   0  -1   0 0 0.2                   0   0  -1 0 1                   0   0   0 1 0"/></filter><filter id="m" x="0" y="0" width="1854.5" height="2078.6" filterUnits="userSpaceOnUse"><feColorMatrix in="SourceGraphic" values="-1   0   0 0 1                   0  -1   0 0 0.2                   0   0  -1 0 0.2                   0   0   0 1 0"/></filter><marker id="d" stroke-dasharray="99999" markerHeight="12" markerUnits="userSpaceOnUse" markerWidth="12" orient="auto" preserveAspectRatio="none" refX="12" refY="6" viewBox="0 0 12 12"><path transform="rotate(180 6 6)" d="M12 11L0 6l12-5z" fill="currentColor" stroke-width="0"/></marker><marker id="g" stroke-dasharray="99999" markerHeight="12" markerUnits="userSpaceOnUse" markerWidth="12" orient="auto" preserveAspectRatio="none" refX="12" refY="6" viewBox="0 0 12 12"><circle transform="rotate(180 6 6)" cx="6" cy="6" r="5.3" fill="none" stroke="#000"/></marker><marker id="n" stroke-dasharray="99999" markerHeight="12" markerUnits="userSpaceOnUse" markerWidth="12" orient="auto" preserveAspectRatio="none" refX="12" refY="6" viewBox="0 0 12 12"><path transform="rotate(180 6 6)" d="M12 11L0 6l12-5z" fill="currentColor" stroke-width="0"/></marker><marker id="l" stroke-dasharray="99999" markerHeight="20" markerUnits="userSpaceOnUse" markerWidth="10" orient="auto" preserveAspectRatio="none" refX="10" refY="10" viewBox="0 0 10 20"><path d="m3 0v20" fill="currentColor" stroke="currentColor"/></marker><marker id="f" stroke-dasharray="99999" markerHeight="12" markerUnits="userSpaceOnUse" markerWidth="12" orient="auto" preserveAspectRatio="none" refX="12" refY="6" viewBox="0 0 12 12"><path transform="rotate(180 6 6)" d="M0 6l11 5V1z" fill="currentColor" stroke-width="0"/></marker><marker id="i" stroke-dasharray="99999" markerHeight="12" markerUnits="userSpaceOnUse" markerWidth="12" orient="auto" preserveAspectRatio="none" refX="12" refY="6" viewBox="0 0 12 12"><g transform="rotate(180 6 6)" fill="none"><path d="m12 6"/><path d="M0 6l11 5V1z" stroke="#000"/></g></marker><symbol id="h" overflow="visible" preserveAspectRatio="none" viewBox="0 0 50 50"><ellipse cx="25" cy="25" rx="25" ry="25" stroke="currentColor" vector-effect="non-scaling-stroke"/></symbol><symbol id="c" overflow="visible" preserveAspectRatio="none" viewBox="0 0 100 100"><path d="M0 25L25 0h50l25 25v50l-25 25H25L0 75z" stroke="currentColor" vector-effect="non-scaling-stroke"/></symbol><symbol id="a" preserveAspectRatio="none" viewBox="0 0 100 100"/></defs><g class="Viewport" color="black"  name="Name: SMC1/SMC3 role in DNA damage - Cornelia de Lange Syndrome Organism: Homo sapiens"><rect class="Icon" width="1854.5" height="2078.6" fill="#fff" stroke="#000" stroke-width="0"/><g id="q" class="Interaction" color="#000" ><g color="#000" fill="transparent"  filter="url(#b)" stroke="#000" stroke-dasharray="79.27382970992106, 11"><path class="EdgeBody" d="m390.46 1656.8 90.261-1.5148"   marker-end="url(#g)" /></g></g><g id="r" class="Interaction" color="#000" ><g color="#000" fill="transparent"  filter="url(#b)" stroke="#000" stroke-dasharray="362.16068056111135, 11"><path class="EdgeBody" d="m1450.6 1770.7v-254.36h-118.8"   marker-end="url(#f)" /></g><g class="Burr Anchor" transform="translate(1450.6 1621.5)" ><use class="Icon" width="0" height="0" fill="#141414" stroke-width="0" xlink:href="#a"/></g></g><g id="s" class="Interaction" color="#000" ><g color="#000" fill="transparent"  filter="url(#b)" stroke="#000" stroke-dasharray="85.79679296716625, 5.8"><path class="EdgeBody" d="m438.45 1097.3 91.597 0.14541"   marker-end="url(#n)" /></g></g><g id="t" class="Interaction" color="#000" ><g color="#000" fill="transparent"  filter="url(#b)" stroke="#000" stroke-dasharray="71.49270634635174, 11"><path class="EdgeBody" d="m1533.1 1622.1-82.49-0.66329"   marker-end="url(#g)" /></g></g><g id="u" class="Interaction" color="#000" ><g color="#000" fill="transparent"  filter="url(#b)" stroke="#000" stroke-dasharray="124.62045895562696, 11"><path class="EdgeBody" d="m1151.2 1411.1 135.62 0.35228"   marker-end="url(#g)" /></g><g class="Burr Anchor" transform="translate(1205.4 1411.2)" ><use class="Icon" width="0" height="0" fill="#141414" stroke-width="0" xlink:href="#a"/></g></g><g id="v" class="Interaction" color="#000" ><g color="#000" fill="transparent"  filter="url(#b)" stroke="#000" stroke-dasharray="213.23205065839574, 11"><path class="EdgeBody" d="m1048.9 1774.6-0.21753-224.23"   marker-end="url(#f)" /></g><g class="Burr Anchor" transform="translate(1048.9 1684.9)" ><use class="Icon" width="0" height="0" fill="#141414" stroke-width="0" xlink:href="#a"/></g></g><g id="w" class="Interaction" color="#000" ><g color="#000" fill="transparent"  filter="url(#b)" stroke="#000" stroke-dasharray="154.15864044655805, 11"><path class="EdgeBody" d="m509.53 1415 165.16 0.66357"   marker-end="url(#g)" /></g><g class="Burr Anchor" transform="translate(591.03 1415.3)" ><use class="Icon" width="0" height="0" fill="#141414" stroke-width="0" xlink:href="#a"/></g></g><g id="x" class="Interaction" color="#00cc66" ><g color="#00cc66" fill="transparent"  filter="url(#j)" stroke="#000" stroke-dasharray="404.3923515513023, 11"><path class="EdgeBody" d="m296.39 1294.6h294.65v120.75"   marker-end="url(#i)" /></g></g><g id="y" class="Interaction" color="#00cc66" ><g color="#00cc66" fill="transparent"  filter="url(#j)" stroke="#000" stroke-dasharray="362.88385168552696, 11"><path class="EdgeBody" d="m296.39 1336.1h294.65v79.238"   marker-end="url(#i)" /></g></g><g id="z" class="DirectedInteraction" color="#ff33ff" ><g color="#ff33ff" fill="transparent"  filter="url(#k)" stroke="#000" stroke-dasharray="5.1, 3.06, 5.1, 3.06, 5.1, 3.06, 5.1, 3.06, 5.1, 3.06, 5.1, 3.06, 5.1, 3.06, 5.1, 3.06, 5.1, 3.06, 5.1, 3.06, 5.1, 3.06, 5.1, 3.06, 5.1, 3.06, 5.1, 3.06, 5.1, 3.06, 5.1, 3.06, 5.1, 3.06, 5.1, 3.06, 5.1, 3.06, 5.1, 3.06, 5.1, 3.06, 5.1, 3.06, 5.1, 3.06, 5.1, 3.06, 5.1, 3.06, 5.1, 3.06, 5.1, 3.06, 5.1, 3.06, 5.1, 3.06, 5.1, 3.06, 0, 5.8" stroke-width="2"><path class="EdgeBody" d="m1147.6 688.21h-20v-68.371h-159.2"   marker-end="url(#d)" /></g></g><g id="aa" class="Interaction" color="#000" ><g color="#000" fill="transparent"  filter="url(#b)" stroke="#000" stroke-dasharray="81.30813480322975, 11"><path class="EdgeBody" d="m956.54 1684.7 92.308 0.23096"   marker-end="url(#g)" /></g></g><g id="ab" class="Interaction" color="#000" ><g color="#000" fill="transparent"  filter="url(#b)" stroke="#000" stroke-dasharray="144.95781272253873, 11"><path class="EdgeBody" d="m1061.2 1411.1-155.96-0.26024"   marker-end="url(#g)" /></g></g><g id="ac" class="DirectedInteraction" color="#ff33ff" ><g color="#ff33ff" fill="transparent"  filter="url(#k)" stroke="#000" stroke-dasharray="5.07, 3.04, 5.07, 3.04, 5.07, 3.04, 5.07, 3.04, 5.07, 3.04, 5.07, 3.04, 5.07, 3.04, 5.07, 3.04, 5.07, 3.04, 5.07, 3.04, 5.07, 3.04, 5.07, 3.04, 5.07, 3.04, 5.07, 3.04, 5.07, 3.04, 5.07, 3.04, 5.07, 3.04, 5.07, 3.04, 5.07, 3.04, 5.07, 3.04, 5.07, 3.04, 5.07, 3.04, 5.07, 3.04, 5.07, 3.04, 5.07, 3.04, 5.07, 3.04, 5.07, 3.04, 5.07, 3.04, 5.07, 3.04, 0, 5.8" stroke-width="2"><path class="EdgeBody" d="m1130 543.25h-20v76.59h-141.58"   marker-end="url(#d)" /></g></g><g id="ad" class="Interaction" color="#000" ><g color="#000" fill="transparent"  filter="url(#b)" stroke="#000" stroke-dasharray="105.58649066185808, 11"><path class="EdgeBody" d="m1286.8 1362.3v116.59"   marker-end="url(#f)" /></g><g class="Burr Anchor" transform="translate(1286.8 1411.4)" ><use class="Icon" width="0" height="0" fill="#141414" stroke-width="0" xlink:href="#a"/></g></g><g id="ae" class="Interaction" color="#000" ><g color="#000" fill="transparent"  filter="url(#b)" stroke="#000" stroke-dasharray="85.59582044322812, 11"><path class="EdgeBody" d="m674.54 1379 0.37904 96.595"   marker-end="url(#f)" /></g><g class="Burr Anchor" transform="translate(674.68 1415.6)" ><use class="Icon" width="0" height="0" fill="#141414" stroke-width="0" xlink:href="#a"/></g></g><g id="af" class="Interaction" color="#ff3333" ><g color="#ff3333" fill="transparent"  filter="url(#m)" stroke="#000" stroke-dasharray="299.3442774517622, 7"><path class="EdgeBody" d="m445.02 1575.6h146.02v-160.33"   marker-end="url(#l)" /></g></g><g id="ag" class="Interaction" color="#000" ><g color="#000" fill="transparent"  filter="url(#b)" stroke="#000" stroke-dasharray="127.03292894761285, 11"><path class="EdgeBody" d="m905.24 1364.4-3.6e-12 138.03"   marker-end="url(#f)" /></g><g class="Burr Anchor" transform="translate(905.24 1410.8)" ><use class="Icon" width="0" height="0" fill="#141414" stroke-width="0" xlink:href="#a"/></g></g><g id="ah" class="Edge GraphicalLine DirectedInteraction" color="#000" ><g color="#000" fill="transparent"  filter="url(#b)" stroke="#000" stroke-dasharray="151.6054226357775, 5.8"><path class="EdgeBody" d="m683.1 1121.7 90.219 128.98"   marker-end="url(#d)" /></g></g><g id="ai" class="Edge GraphicalLine" color="#00cc66" ><g color="#00cc66" fill="transparent"  filter="url(#j)" stroke="#000" stroke-dasharray="51.24120927266224, 11"><path class="EdgeBody" d="m116.86 451.94 62.238 0.64458"   marker-end="url(#i)" /></g></g><g class="SingleFreeNode Shape" transform="translate(92.875 380.21)" color="#000" ><g fill="transparent"  filter="url(#o)" stroke="#000" stroke-width="3"><rect class="Icon" transform="matrix(.95985 0 0 .96883 5.7591 5.813)" width="286.88" height="372.94"   /></g></g><g class="Label" transform="translate(217.42 441.04)" color="#000"  name="Stimulation"><use class="Icon" width="90" height="25" fill="transparent"  stroke="#000" stroke-width="0" xlink:href="#a"/><text class="Text" transform="translate(45,16.5)"   font-size="12px"  text-anchor="middle"><tspan x="0" y="0">Stimulation</tspan></text></g><g class="Label" transform="translate(110.71 394.93)" color="#000"  name="Legend"><use class="Icon" width="90" height="25" fill="transparent"  stroke="#000" stroke-width="0" xlink:href="#a"/><text class="Text" transform="translate(45,18.5)"   font-size="20px" font-weight="bold"  text-anchor="middle"><tspan x="0" y="0">Legend</tspan></text></g><a  class="GeneProduct SMC3 " transform="translate(1405.6 1770.7)"   name="SMC3"  ><rect class="Icon" transform="matrix(.98901 0 0 .96154 .49451 .48077)" width="90" height="25" fill="#fff" stroke="#000"/><text class="Text" transform="translate(45,16.5)"   font-size="12px"  text-anchor="middle"><tspan x="0" y="0">SMC3</tspan></text></a><g class="SingleFreeNode Shape" transform="translate(28.488 146.8)" color="#000" ><rect class="Icon" transform="matrix(.99944 0 0 .99947 .49972 .49974)" width="1796" height="1901.8" rx="15" ry="15" fill="transparent"  stroke="#000"/></g><g class="Label" transform="translate(69.868 198.44)" color="#000"  name="SMC1A/SMC3 Role in DNA Damage Repair"><rect class="Icon" transform="matrix(.99818 0 0 .98768 .49909 .49384)" width="547.73" height="80.186" fill="#fff" stroke="#000"/><text class="Text" transform="translate(273.86 48.093)"   font-size="26px" font-weight="bold"  text-anchor="middle"><tspan x="0" y="0">SMC1A/SMC3 Role in DNA Damage Repair</tspan></text></g><g id="aj" class="Edge GraphicalLine" color="#ff0066" ><g color="#ff0066" fill="transparent"  filter="url(#p)" stroke="#000" stroke-dasharray="235.59148671292365, 0" stroke-width="4"><path class="EdgeBody" d="m1217.6 260.72-184.91 145.99"   /></g></g><g class="Label" transform="translate(897.15 425.55)" color="#000"  name="DSB"><use class="Icon" width="118.58490566037747" height="35.87531323702834" fill="transparent"  stroke="#000" stroke-width="0" xlink:href="#a"/><text class="Text" transform="translate(59.292 23.938)"   font-size="18px" font-weight="bold"  text-anchor="middle"><tspan x="0" y="0">DSB</tspan></text></g><g id="ak" class="Edge GraphicalLine" color="#3333ff" ><g color="#3333ff" fill="transparent"  filter="url(#e)" stroke="#000" stroke-dasharray="322.5190839694711, 0" stroke-width="4"><path class="EdgeBody" d="m512.51 438.53h322.52"   /></g></g><g id="al" class="Edge GraphicalLine" color="#3333ff" ><g color="#3333ff" fill="transparent"  filter="url(#e)" stroke="#000" stroke-dasharray="322.5190839694642, 0" stroke-width="4"><path class="EdgeBody" d="m1114.8 438.53h322.52"   /></g></g><g class="GroupComplex" transform="translate(703.16 572.9)" color="grey" ><use class="Icon" transform="matrix(.9913 0 0 .99 .49565 .495)" width="114" height="98.99999999999955" fill="#b4b464" fill-opacity=".1" stroke="grey" xlink:href="#c"/><a  class="GeneProduct RAD21 " transform="translate(12 62)"   name="RAD21"  ><rect class="Icon" transform="matrix(.98901 0 0 .96154 .49451 .48077)" width="90" height="25" fill="#fff" stroke="#000"/><text class="Text" transform="translate(45,16.5)"   font-size="12px"  text-anchor="middle"><tspan x="0" y="0">RAD21</tspan></text></a><a  class="GeneProduct SMC1A " transform="translate(12,12)"   name="SMC1A"  ><rect class="Icon" transform="matrix(.98901 0 0 .96154 .49451 .48077)" width="90" height="25" fill="#fff" stroke="#000"/><text class="Text" transform="translate(45,16.5)"   font-size="12px"  text-anchor="middle"><tspan x="0" y="0">SMC1A</tspan></text></a><a  class="GeneProduct SMC3 " transform="translate(12 37)"   name="SMC3"  ><rect class="Icon" transform="matrix(.98901 0 0 .96154 .49451 .48077)" width="90" height="25" fill="#fff" stroke="#000"/><text class="Text" transform="translate(45,16.5)"   font-size="12px"  text-anchor="middle"><tspan x="0" y="0">SMC3</tspan></text></a></g><a  class="GeneProduct BRCA1 " transform="translate(1147.6 675.71)"   name="BRCA1"  ><rect class="Icon" transform="matrix(.98901 0 0 .96154 .49451 .48077)" width="90" height="25" fill="#fff" stroke="#000"/><text class="Text" transform="translate(45,16.5)"   font-size="12px"  text-anchor="middle"><tspan x="0" y="0">BRCA1</tspan></text></a><g class="GroupComplex" transform="translate(1130 493.75)" color="grey" ><use class="Icon" transform="matrix(.9913 0 0 .99 .49565 .495)" width="114" height="99.00000000000023" fill="#b4b464" fill-opacity=".1" stroke="grey" xlink:href="#c"/><a  class="GeneProduct NBN " transform="translate(12 62)"   name="NBN"  ><rect class="Icon" transform="matrix(.98901 0 0 .96154 .49451 .48077)" width="90" height="25" fill="#fff" stroke="#000"/><text class="Text" transform="translate(45,16.5)"   font-size="12px"  text-anchor="middle"><tspan x="0" y="0">NBN</tspan></text></a><a  class="GeneProduct MRE11 " transform="translate(12,12)"   name="MRE11"  ><rect class="Icon" transform="matrix(.98901 0 0 .96154 .49451 .48077)" width="90" height="25" fill="#fff" stroke="#000"/><text class="Text" transform="translate(45,16.5)"   font-size="12px"  text-anchor="middle"><tspan x="0" y="0">MRE11</tspan></text></a><a  class="GeneProduct RAD50 " transform="translate(12 37)"   name="RAD50"  ><rect class="Icon" transform="matrix(.98901 0 0 .96154 .49451 .48077)" width="90" height="25" fill="#fff" stroke="#000"/><text class="Text" transform="translate(45,16.5)"   font-size="12px"  text-anchor="middle"><tspan x="0" y="0">RAD50</tspan></text></a></g><g class="Label" transform="translate(1196.1 219.97)" color="#ff0066"  name="IR"><use class="Icon" width="90" height="25" fill="transparent"  stroke="#ff0066" stroke-width="0" xlink:href="#a"/><text class="Text" transform="translate(45,18.5)" fill="#ff0066"  font-size="18px" font-weight="bold" stroke="black" stroke-width="0" text-anchor="middle"><tspan x="0" y="0">IR</tspan></text></g><g id="am" class="Edge GraphicalLine DirectedInteraction" color="#000" ><g color="#000" fill="transparent"  filter="url(#b)" stroke="#000" stroke-dasharray="189.2757575757575, 5.8"><path class="EdgeBody" d="m968.38 532.47v195.08"   marker-end="url(#d)" /></g><g class="Burr Anchor" transform="translate(968.38 619.84)" ><use class="Icon" width="0" height="0" fill="#141414" stroke-width="0" xlink:href="#a"/></g></g><g id="an" class="Edge GraphicalLine" color="#3333ff" ><g color="#3333ff" fill="transparent"  filter="url(#e)" stroke="#000" stroke-dasharray="322.5190839694693, 0" stroke-width="4"><path class="EdgeBody" d="m512.55 818.59h322.52"   /></g></g><g id="ao" class="Edge GraphicalLine" color="#3333ff" ><g color="#3333ff" fill="transparent"  filter="url(#e)" stroke="#000" stroke-dasharray="322.51908396946783, 0" stroke-width="4"><path class="EdgeBody" d="m1133 818.59h322.52"   /></g></g><a  class="GeneProduct BRCA1 " transform="translate(865.35 806.13)"   name="BRCA1"  ><rect class="Icon" transform="matrix(.98901 0 0 .96154 .49451 .48077)" width="90" height="25" fill="#fff" stroke="#000"/><text class="Text" transform="translate(45,16.5)"   font-size="12px"  text-anchor="middle"><tspan x="0" y="0">BRCA1</tspan></text></a><g class="GroupComplex" transform="translate(613.91 769.55)" color="grey" ><use class="Icon" transform="matrix(.9913 0 0 .99 .49565 .495)" width="114" height="98.99999999999943" fill="#b4b464" fill-opacity=".1" stroke="grey" xlink:href="#c"/><a  class="GeneProduct RAD21 " transform="translate(12 62)"   name="RAD21"  ><rect class="Icon" transform="matrix(.98901 0 0 .96154 .49451 .48077)" width="90" height="25" fill="#fff" stroke="#000"/><text class="Text" transform="translate(45,16.5)"   font-size="12px"  text-anchor="middle"><tspan x="0" y="0">RAD21</tspan></text></a><a  class="GeneProduct SMC1A " transform="translate(12,12)"   name="SMC1A"  ><rect class="Icon" transform="matrix(.98901 0 0 .96154 .49451 .48077)" width="90" height="25" fill="#fff" stroke="#000"/><text class="Text" transform="translate(45,16.5)"   font-size="12px"  text-anchor="middle"><tspan x="0" y="0">SMC1A</tspan></text></a><a  class="GeneProduct SMC3 " transform="translate(12 37)"   name="SMC3"  ><rect class="Icon" transform="matrix(.98901 0 0 .96154 .49451 .48077)" width="90" height="25" fill="#fff" stroke="#000"/><text class="Text" transform="translate(45,16.5)"   font-size="12px"  text-anchor="middle"><tspan x="0" y="0">SMC3</tspan></text></a></g><g class="GroupComplex" transform="translate(1246.8 766.39)" color="grey" ><use class="Icon" transform="matrix(.9913 0 0 .99 .49565 .495)" width="114" height="98.99999999999932" fill="#b4b464" fill-opacity=".1" stroke="grey" xlink:href="#c"/><a  class="GeneProduct RAD21 " transform="translate(12 62)"   name="RAD21"  ><rect class="Icon" transform="matrix(.98901 0 0 .96154 .49451 .48077)" width="90" height="25" fill="#fff" stroke="#000"/><text class="Text" transform="translate(45,16.5)"   font-size="12px"  text-anchor="middle"><tspan x="0" y="0">RAD21</tspan></text></a><a  class="GeneProduct SMC1A " transform="translate(12,12)"   name="SMC1A"  ><rect class="Icon" transform="matrix(.98901 0 0 .96154 .49451 .48077)" width="90" height="25" fill="#fff" stroke="#000"/><text class="Text" transform="translate(45,16.5)"   font-size="12px"  text-anchor="middle"><tspan x="0" y="0">SMC1A</tspan></text></a><a  class="GeneProduct SMC3 " transform="translate(12 37)"   name="SMC3"  ><rect class="Icon" transform="matrix(.98901 0 0 .96154 .49451 .48077)" width="90" height="25" fill="#fff" stroke="#000"/><text class="Text" transform="translate(45,16.5)"   font-size="12px"  text-anchor="middle"><tspan x="0" y="0">SMC3</tspan></text></a></g><g class="GroupComplex" transform="translate(993.07 763.3)" color="grey" ><use class="Icon" transform="matrix(.9913 0 0 .99 .49565 .495)" width="114" height="99.00000000000023" fill="#b4b464" fill-opacity=".1" stroke="grey" xlink:href="#c"/><a  class="GeneProduct NBN " transform="translate(12 62)"   name="NBN"  ><rect class="Icon" transform="matrix(.98901 0 0 .96154 .49451 .48077)" width="90" height="25" fill="#fff" stroke="#000"/><text class="Text" transform="translate(45,16.5)"   font-size="12px"  text-anchor="middle"><tspan x="0" y="0">NBN</tspan></text></a><a  class="GeneProduct MRE11 " transform="translate(12,12)"   name="MRE11"  ><rect class="Icon" transform="matrix(.98901 0 0 .96154 .49451 .48077)" width="90" height="25" fill="#fff" stroke="#000"/><text class="Text" transform="translate(45,16.5)"   font-size="12px"  text-anchor="middle"><tspan x="0" y="0">MRE11</tspan></text></a><a  class="GeneProduct RAD50 " transform="translate(12 37)"   name="RAD50"  ><rect class="Icon" transform="matrix(.98901 0 0 .96154 .49451 .48077)" width="90" height="25" fill="#fff" stroke="#000"/><text class="Text" transform="translate(45,16.5)"   font-size="12px"  text-anchor="middle"><tspan x="0" y="0">RAD50</tspan></text></a></g><g id="ap" class="Edge GraphicalLine DirectedInteraction" color="#000" ><g color="#000" fill="transparent"  filter="url(#b)" stroke="#000" stroke-dasharray="189.27575757575556, 5.8"><path class="EdgeBody" d="m973.38 948.04v195.08"   marker-end="url(#d)" /></g></g><g class="GroupComplex" transform="translate(234.45 1072.8)" color="grey" ><use class="Icon" transform="matrix(.99512 0 0 .98 .49756 .49)" width="204.0000000000024" height="49" fill="#b4b464" fill-opacity=".1" stroke="grey" xlink:href="#c"/><a  class="GeneProduct ATM " transform="translate(102 12)"   name="ATM"  ><rect class="Icon" transform="matrix(.98901 0 0 .96154 .49451 .48077)" width="90" height="25" fill="#fff" stroke="#000"/><text class="Text" transform="translate(45,16.5)"   font-size="12px"  text-anchor="middle"><tspan x="0" y="0">ATM</tspan></text></a><a  class="GeneProduct ATM " transform="translate(12,12)"   name="ATM"  ><rect class="Icon" transform="matrix(.98901 0 0 .96154 .49451 .48077)" width="90" height="25" fill="#fff" stroke="#000"/><text class="Text" transform="translate(45,16.5)"   font-size="12px"  text-anchor="middle"><tspan x="0" y="0">ATM</tspan></text></a></g><a  class="GeneProduct ATM " transform="translate(530.05 1085)"   name="ATM"  ><rect class="Icon" transform="matrix(.98901 0 0 .96154 .49451 .48077)" width="90" height="25" fill="#fff" stroke="#000"/><g class="Burr State" transform="translate(82.5,17.5)" color="#000" ><use class="Icon" transform="matrix(.9375 0 0 .9375 .46875 .46875)" width="15" height="15" fill="#fff" stroke="#000" xlink:href="#h"/></g><text class="Text" transform="translate(45,16.5)"   font-size="12px"  text-anchor="middle"><tspan x="0" y="0">ATM</tspan></text></a><g id="aq" class="Edge GraphicalLine" color="#3333ff" ><g color="#3333ff" fill="transparent"  filter="url(#e)" stroke="#000" stroke-dasharray="322.5190839694684, 0" stroke-width="4"><path class="EdgeBody" d="m507.44 1514.9h322.52"   /></g></g><g id="ar" class="Edge GraphicalLine" color="#3333ff" ><g color="#3333ff" fill="transparent"  filter="url(#e)" stroke="#000" stroke-dasharray="322.51908396946965, 0" stroke-width="4"><path class="EdgeBody" d="m1127.9 1514.9h322.52"   /></g></g><a  class="GeneProduct BRCA1 " transform="translate(860.24 1502.4)"   name="BRCA1"  ><rect class="Icon" transform="matrix(.98901 0 0 .96154 .49451 .48077)" width="90" height="25" fill="#fff" stroke="#000"/><text class="Text" transform="translate(45,16.5)"   font-size="12px"  text-anchor="middle"><tspan x="0" y="0">BRCA1</tspan></text></a><g class="GroupComplex" transform="translate(991.72 1463.4)" color="grey" ><use class="Icon" transform="matrix(.9913 0 0 .99 .49565 .495)" width="114" height="99.00000000000023" fill="#b4b464" fill-opacity=".1" stroke="grey" xlink:href="#c"/><a  class="GeneProduct NBN " transform="translate(12 62)"   name="NBN"  ><rect class="Icon" transform="matrix(.98901 0 0 .96154 .49451 .48077)" width="90" height="25" fill="#fff" stroke="#000"/><text class="Text" transform="translate(45,16.5)"   font-size="12px"  text-anchor="middle"><tspan x="0" y="0">NBN</tspan></text></a><a  class="GeneProduct MRE11 " transform="translate(12,12)"   name="MRE11"  ><rect class="Icon" transform="matrix(.98901 0 0 .96154 .49451 .48077)" width="90" height="25" fill="#fff" stroke="#000"/><text class="Text" transform="translate(45,16.5)"   font-size="12px"  text-anchor="middle"><tspan x="0" y="0">MRE11</tspan></text></a><a  class="GeneProduct RAD50 " transform="translate(12,37)"   name="RAD50"  ><rect class="Icon" transform="matrix(.98901 0 0 .96154 .49451 .48077)" width="90" height="25" fill="#fff" stroke="#000"/><text class="Text" transform="translate(45,16.5)"   font-size="12px"  text-anchor="middle"><tspan x="0" y="0">RAD50</tspan></text></a></g><g class="GroupComplex" transform="translate(617.92 1463.5)" color="grey" ><use class="Icon" transform="matrix(.9913 0 0 .99 .49565 .495)" width="114" height="98.99999999999955" fill="#b4b464" fill-opacity=".1" stroke="grey" xlink:href="#c"/><a  class="GeneProduct RAD21 " transform="translate(12 62)"   name="RAD21"  ><rect class="Icon" transform="matrix(.98901 0 0 .96154 .49451 .48077)" width="90" height="25" fill="#fff" stroke="#000"/><text class="Text" transform="translate(45,16.5)"   font-size="12px"  text-anchor="middle"><tspan x="0" y="0">RAD21</tspan></text></a><a  class="GeneProduct SMC1A " transform="translate(12,12)"   name="SMC1A"  ><rect class="Icon" transform="matrix(.98901 0 0 .96154 .49451 .48077)" width="90" height="25" fill="#fff" stroke="#000"/><text class="Text" transform="translate(45,16.5)"   font-size="12px"  text-anchor="middle"><tspan x="0" y="0">SMC1A</tspan></text></a><a  class="GeneProduct SMC3 " transform="translate(12 37)"   name="SMC3"  ><rect class="Icon" transform="matrix(.98901 0 0 .96154 .49451 .48077)" width="90" height="25" fill="#fff" stroke="#000"/><g class="Burr State" transform="translate(82.5,17.5)" color="#000" ><use class="Icon" transform="matrix(.9375 0 0 .9375 .46875 .46875)" width="15" height="15" fill="#fff" stroke="#000" xlink:href="#h"/></g><text class="Text" transform="translate(45,16.5)"   font-size="12px"  text-anchor="middle"><tspan x="0" y="0">SMC3</tspan></text></a></g><g class="GroupComplex" transform="translate(1229.8 1466.9)" color="grey" ><use class="Icon" transform="matrix(.9913 0 0 .99 .49565 .495)" width="114" height="98.99999999999955" fill="#b4b464" fill-opacity=".1" stroke="grey" xlink:href="#c"/><a  class="GeneProduct RAD21 " transform="translate(12 62)"   name="RAD21"  ><rect class="Icon" transform="matrix(.98901 0 0 .96154 .49451 .48077)" width="90" height="25" fill="#fff" stroke="#000"/><text class="Text" transform="translate(45,16.5)"   font-size="12px"  text-anchor="middle"><tspan x="0" y="0">RAD21</tspan></text></a><a  class="GeneProduct SMC1A " transform="translate(12,12)"   name="SMC1A"  ><rect class="Icon" transform="matrix(.98901 0 0 .96154 .49451 .48077)" width="90" height="25" fill="#fff" stroke="#000"/><text class="Text" transform="translate(45,16.5)"   font-size="12px"  text-anchor="middle"><tspan x="0" y="0">SMC1A</tspan></text></a><a  class="GeneProduct SMC3 " transform="translate(12 37)"   name="SMC3"  ><rect class="Icon" transform="matrix(.98901 0 0 .96154 .49451 .48077)" width="90" height="25" fill="#fff" stroke="#000"/><g class="Burr State" transform="translate(82.5,17.5)" color="#000" ><use class="Icon" transform="matrix(.9375 0 0 .9375 .46875 .46875)" width="15" height="15" fill="#fff" stroke="#000" xlink:href="#h"/></g><text class="Text" transform="translate(45,16.5)"   font-size="12px"  text-anchor="middle"><tspan x="0" y="0">SMC3</tspan></text></a></g><a  class="GeneProduct ATM " transform="translate(438.57 1175)"   name="ATM"  ><rect class="Icon" transform="matrix(.98901 0 0 .96154 .49451 .48077)" width="90" height="25" fill="#fff" stroke="#000"/><text class="Text" transform="translate(45,16.5)"   font-size="12px"  text-anchor="middle"><tspan x="0" y="0">ATM</tspan></text></a><a  class="GeneProduct ATM " transform="translate(1533.1 1609.6)"   name="ATM"  ><rect class="Icon" transform="matrix(.98901 0 0 .96154 .49451 .48077)" width="90" height="25" fill="#fff" stroke="#000"/><text class="Text" transform="translate(45,16.5)"   font-size="12px"  text-anchor="middle"><tspan x="0" y="0">ATM</tspan></text></a><a  class="GeneProduct SMC1A " transform="translate(629.54 1354)"   name="SMC1A"  ><rect class="Icon" transform="matrix(.98901 0 0 .96154 .49451 .48077)" width="90" height="25" fill="#fff" stroke="#000"/><text class="Text" transform="translate(45,16.5)"   font-size="12px"  text-anchor="middle"><tspan x="0" y="0">SMC1A</tspan></text></a><a  class="GeneProduct SMC1A " transform="translate(1241.8 1337.3)"   name="SMC1A"  ><rect class="Icon" transform="matrix(.98901 0 0 .96154 .49451 .48077)" width="90" height="25" fill="#fff" stroke="#000"/><text class="Text" transform="translate(45,16.5)"   font-size="12px"  text-anchor="middle"><tspan x="0" y="0">SMC1A</tspan></text></a><a  class="GeneProduct BRCA1 " transform="translate(860.24 1339.4)"   name="BRCA1"  ><rect class="Icon" transform="matrix(.98901 0 0 .96154 .49451 .48077)" width="90" height="25" fill="#fff" stroke="#000"/><text class="Text" transform="translate(45,16.5)"   font-size="12px"  text-anchor="middle"><tspan x="0" y="0">BRCA1</tspan></text></a><a  class="GeneProduct NBN " transform="translate(1003.9 1774.6)"   name="NBN"  ><rect class="Icon" transform="matrix(.98901 0 0 .96154 .49451 .48077)" width="90" height="25" fill="#fff" stroke="#000"/><text class="Text" transform="translate(45,16.5)"   font-size="12px"  text-anchor="middle"><tspan x="0" y="0">NBN</tspan></text></a><a  class="GeneProduct ATM " transform="translate(866.54 1672.2)"   name="ATM"  ><rect class="Icon" transform="matrix(.98901 0 0 .96154 .49451 .48077)" width="90" height="25" fill="#fff" stroke="#000"/><g class="Burr State" transform="translate(82.5,17.5)" color="#000" ><use class="Icon" transform="matrix(.9375 0 0 .9375 .46875 .46875)" width="15" height="15" fill="#fff" stroke="#000" xlink:href="#h"/></g><text class="Text" transform="translate(45,16.5)"   font-size="12px"  text-anchor="middle"><tspan x="0" y="0">ATM</tspan></text></a><a  class="GeneProduct ATM " transform="translate(1061.2 1398.6)"   name="ATM"  ><rect class="Icon" transform="matrix(.98901 0 0 .96154 .49451 .48077)" width="90" height="25" fill="#fff" stroke="#000"/><g class="Burr State" transform="translate(82.5,17.5)" color="#000" ><use class="Icon" transform="matrix(.9375 0 0 .9375 .46875 .46875)" width="15" height="15" fill="#fff" stroke="#000" xlink:href="#h"/></g><text class="Text" transform="translate(45,16.5)"   font-size="12px"  text-anchor="middle"><tspan x="0" y="0">ATM</tspan></text></a><a  class="GeneProduct ATM " transform="translate(419.53 1402.5)"   name="ATM"  ><rect class="Icon" transform="matrix(.98901 0 0 .96154 .49451 .48077)" width="90" height="25" fill="#fff" stroke="#000"/><g class="Burr State" transform="translate(82.5,17.5)" color="#000" ><use class="Icon" transform="matrix(.9375 0 0 .9375 .46875 .46875)" width="15" height="15" fill="#fff" stroke="#000" xlink:href="#h"/></g><text class="Text" transform="translate(45,16.5)"   font-size="12px"  text-anchor="middle"><tspan x="0" y="0">ATM</tspan></text></a><a  class="GeneProduct PAXIP1 " transform="translate(206.39 1282.1)"   name="PAXIP1"  ><rect class="Icon" transform="matrix(.98901 0 0 .96154 .49451 .48077)" width="90" height="25" fill="#fff" stroke="#000"/><text class="Text" transform="translate(45,16.5)"   font-size="12px"  text-anchor="middle"><tspan x="0" y="0">PAXIP1</tspan></text></a><a  class="GeneProduct RAD18 " transform="translate(1160.8 1650.6)"   name="RAD18"  ><rect class="Icon" transform="matrix(.98901 0 0 .96154 .49451 .48077)" width="90" height="25" fill="#fff" stroke="#000"/><text class="Text" transform="translate(45,16.5)"   font-size="12px"  text-anchor="middle"><tspan x="0" y="0">RAD18</tspan></text></a><a  class="GeneProduct MDC1 " transform="translate(206.39 1323.6)"   name="MDC1"  ><rect class="Icon" transform="matrix(.98901 0 0 .96154 .49451 .48077)" width="90" height="25" fill="#fff" stroke="#000"/><text class="Text" transform="translate(45,16.5)"   font-size="12px"  text-anchor="middle"><tspan x="0" y="0">MDC1</tspan></text></a><a  class="GeneProduct MDC1 " transform="translate(1337 1222.4)"   name="MDC1"  ><rect class="Icon" transform="matrix(.98901 0 0 .96154 .49451 .48077)" width="90" height="25" fill="#fff" stroke="#000"/><text class="Text" transform="translate(45,16.5)"   font-size="12px"  text-anchor="middle"><tspan x="0" y="0">MDC1</tspan></text></a><a  class="GeneProduct PAXIP1 " transform="translate(1069.1 1259.4)"   name="PAXIP1"  ><rect class="Icon" transform="matrix(.98901 0 0 .96154 .49451 .48077)" width="90" height="25" fill="#fff" stroke="#000"/><text class="Text" transform="translate(45,16.5)"   font-size="12px"  text-anchor="middle"><tspan x="0" y="0">PAXIP1</tspan></text></a><g id="as" class="Interaction" color="#00cc66" ><g color="#00cc66" fill="transparent"  filter="url(#j)" stroke="#000" stroke-dasharray="174.71934288423859, 11"><path class="EdgeBody" d="m1159.1 1271.9h46.396v139.32"   marker-end="url(#i)" /></g></g><g id="at" class="Interaction" color="#00cc66" ><g color="#00cc66" fill="transparent"  filter="url(#j)" stroke="#000" stroke-dasharray="296.8664929479039, 11"><path class="EdgeBody" d="m1337 1234.9h-131.52v176.35"   marker-end="url(#i)" /></g></g><g class="Label" transform="translate(896.1 2011.5)" color="#000"  name="S Phase Arrest"><use class="Icon" width="162.74891774891762" height="25" fill="transparent"  stroke="#000" stroke-width="0" xlink:href="#a"/><text class="Text" transform="translate(81.374 18.5)"   font-size="18px" font-weight="bold"  text-anchor="middle"><tspan x="0" y="0">S Phase Arrest</tspan></text></g><g id="au" class="Edge GraphicalLine DirectedInteraction" color="#000" ><g color="#000" fill="transparent"  filter="url(#b)" stroke="#000" stroke-dasharray="130.56781948576298, 5.8"><path class="EdgeBody" d="m980.33 1851.9 1.0681 136.36"   marker-end="url(#d)" /></g></g><a  class="GeneProduct RAD18 " transform="translate(355.02 1563.1)"   name="RAD18"  ><rect class="Icon" transform="matrix(.98901 0 0 .96154 .49451 .48077)" width="90" height="25" fill="#fff" stroke="#000"/><text class="Text" transform="translate(45,16.5)"   font-size="12px"  text-anchor="middle"><tspan x="0" y="0">RAD18</tspan></text></a><g id="av" class="Interaction" color="#ff3333" ><g color="#ff3333" fill="transparent"  filter="url(#m)" stroke="#000" stroke-dasharray="232.7142506264995, 7"><path class="EdgeBody" d="m1205.8 1650.6v-42.874h-0.33866v-196.5"   marker-end="url(#l)" /></g></g><g id="aw" class="Edge GraphicalLine" color="#ff3333" ><g color="#ff3333" fill="transparent"  filter="url(#m)" stroke="#000" stroke-dasharray="55.241209272662225, 7"><path class="EdgeBody" d="m121.38 509.79 62.238 0.64458"   marker-end="url(#l)" /></g></g><g class="Label" transform="translate(217.42 497.93)" color="#000"  name="Inhibition"><use class="Icon" width="90" height="25" fill="transparent"  stroke="#000" stroke-width="0" xlink:href="#a"/><text class="Text" transform="translate(45,16.5)"   font-size="12px"  text-anchor="middle"><tspan x="0" y="0">Inhibition</tspan></text></g><g id="ax" class="Edge GraphicalLine" color="#3333ff" ><g color="#3333ff" fill="transparent"  filter="url(#e)" stroke="#000" stroke-dasharray="72.17249170056924, 0" stroke-width="4"><path class="EdgeBody" d="m113.61 569.43 72.172 0.24552"   /></g></g><g class="Label" transform="translate(217.42 558.49)" color="#000"  name="Chromatid"><use class="Icon" width="90" height="25" fill="transparent"  stroke="#000" stroke-width="0" xlink:href="#a"/><text class="Text" transform="translate(45,16.5)"   font-size="12px"  text-anchor="middle"><tspan x="0" y="0">Chromatid</tspan></text></g><g id="ay" class="DirectedInteraction" color="#ff33ff" ><g color="#ff33ff" fill="transparent"  filter="url(#k)" stroke="#000" stroke-dasharray="5.16, 3.09, 5.16, 3.09, 5.16, 3.09, 5.16, 3.09, 5.16, 3.09, 5.16, 3.09, 5.16, 3.09, 5.16, 3.09, 5.16, 3.09, 5.16, 3.09, 5.16, 3.09, 5.16, 3.09, 5.16, 3.09, 5.16, 3.09, 5.16, 3.09, 5.16, 3.09, 5.16, 3.09, 5.16, 3.09, 0, 5.8" stroke-width="2"><path class="EdgeBody" d="m817.16 622.4 151.22-2.5642"   marker-end="url(#d)" /></g></g><g id="az" class="DirectedInteraction" color="#ff33ff" ><g color="#ff33ff" fill="transparent"  filter="url(#k)" stroke="#000" stroke-dasharray="5.24, 3.15, 5.24, 3.15, 5.24, 3.15, 5.24, 3.15, 5.24, 3.15, 5.24, 3.15, 5.24, 3.15, 5.24, 3.15, 0, 5.8" stroke-width="2"><path class="EdgeBody" d="m114.07 624.33 69.787-0.31"   marker-end="url(#d)" /></g></g><g class="Label" transform="translate(217.42 614.48)" color="#000"  name="Recruitment"><use class="Icon" width="90" height="25" fill="transparent"  stroke="#000" stroke-width="0" xlink:href="#a"/><text class="Text" transform="translate(45,16.5)"   font-size="12px"  text-anchor="middle"><tspan x="0" y="0">Recruitment</tspan></text></g><g class="Label" transform="translate(104.69 666.21)" color="#ff0066"  name="IR"><use class="Icon" width="90" height="25" fill="transparent"  stroke="#ff0066" stroke-width="0" xlink:href="#a"/><text class="Text" transform="translate(45,18.5)" fill="#ff0066"  font-size="18px" font-weight="bold" stroke="black" stroke-width="0" text-anchor="middle"><tspan x="0" y="0">IR</tspan></text></g><g class="Label" transform="translate(217.42 666.21)" color="#000"  name="Ionizing Radiation"><use class="Icon" width="107.32454361450837" height="25" fill="transparent"  stroke="#000" stroke-width="0" xlink:href="#a"/><text class="Text" transform="translate(53.662 16.5)"   font-size="12px"  text-anchor="middle"><tspan x="0" y="0">Ionizing Radiation</tspan></text></g><g class="Label" transform="translate(90.401 703.99)" color="#000"  name="DSB"><use class="Icon" width="118.58490566037747" height="35.87531323702834" fill="transparent"  stroke="#000" stroke-width="0" xlink:href="#a"/><text class="Text" transform="translate(59.292 23.938)"   font-size="18px" font-weight="bold"  text-anchor="middle"><tspan x="0" y="0">DSB</tspan></text></g><g class="Label" transform="translate(222.05 709.43)" color="#000"  name="Double Strand Break"><use class="Icon" width="128.19702683598626" height="25" fill="transparent"  stroke="#000" stroke-width="0" xlink:href="#a"/><text class="Text" transform="translate(64.099 16.5)"   font-size="12px"  text-anchor="middle"><tspan x="0" y="0">Double Strand Break</tspan></text></g><a  class="GeneProduct SMC3 " transform="translate(435.72 1770.7)"   name="SMC3"  ><rect class="Icon" transform="matrix(.98901 0 0 .96154 .49451 .48077)" width="90" height="25" fill="#fff" stroke="#000"/><text class="Text" transform="translate(45,16.5)"   font-size="12px"  text-anchor="middle"><tspan x="0" y="0">SMC3</tspan></text></a><g id="ba" class="Interaction" color="#000" ><g color="#000" fill="transparent"  filter="url(#b)" stroke="#000" stroke-dasharray="395.87122536790844, 11"><path class="EdgeBody" d="m480.72 1770.7v-257.67h149.2"   marker-end="url(#f)" /></g><g class="Burr Anchor" transform="translate(480.72 1655.3)" ><use class="Icon" width="0" height="0" fill="#141414" stroke-width="0" xlink:href="#a"/></g></g><a  class="GeneProduct ATM " transform="translate(300.46 1644.3)"   name="ATM"  ><rect class="Icon" transform="matrix(.98901 0 0 .96154 .49451 .48077)" width="90" height="25" fill="#fff" stroke="#000"/><text class="Text" transform="translate(45,16.5)"   font-size="12px"  text-anchor="middle"><tspan x="0" y="0">ATM</tspan></text></a><text class="Text" transform="translate(5,27)" dominant-baseline="central" fill="black"  font-size="12px" font-weight="bold" overflow="visible" ><tspan x="0" y="-9">Name: SMC1/SMC3 role in DNA damage - Cornelia de Lange Syndrome</tspan> <tspan x="0" y="9">Organism: Homo sapiens</tspan></text></g></svg>
