<?xml version="1.0" encoding="UTF-8"?>
<!--
  WikiPathways page: https://www.wikipathways.org/index.php/Pathway:WP521
  URL for this compressed file: https://github.com/eweitz/cachome/tree/main/data/wikipathways/WP521.svg
  Source code for compression: https://github.com/eweitz/cachome/tree/main/src/wikipathways.py
-->
<svg class="Diagram" width="800" height="600" color="black" baseProfile="full" prefix="schema:http://schema.org/" preserveAspectRatio="xMidYMid" version="1.1" viewBox="0 0 351.1 464.08" vocab="http://vocabularies.wikipathways.org/wp#" xmlns="http://www.w3.org/2000/svg" xmlns:xlink="http://www.w3.org/1999/xlink"><style>svg {font-family: 'Liberation Sans', Arial, sans-serif; }</style><defs><filter id="a" x="0" y="0" width="351.1" height="464.08" filterUnits="userSpaceOnUse"><feColorMatrix in="SourceGraphic" values="-1   0   0 0 0                   0  -1   0 0 0                   0   0  -1 0 0                   0   0   0 1 0"/></filter><marker id="e" stroke-dasharray="99999" markerHeight="12" markerUnits="userSpaceOnUse" markerWidth="12" orient="auto" preserveAspectRatio="none" refX="12" refY="6" viewBox="0 0 12 12"><path transform="rotate(180 6 6)" d="M12 11L0 6l12-5z" fill="currentColor" stroke-width="0"/></marker><marker id="d" stroke-dasharray="99999" markerHeight="12" markerUnits="userSpaceOnUse" markerWidth="12" orient="auto" preserveAspectRatio="none" refX="12" refY="6" viewBox="0 0 12 12"><circle transform="rotate(180 6 6)" cx="6" cy="6" r="5.3" fill="none" stroke="#000"/></marker><marker id="b" stroke-dasharray="99999" markerHeight="12" markerUnits="userSpaceOnUse" markerWidth="12" orient="auto" preserveAspectRatio="none" refX="12" refY="6" viewBox="0 0 12 12"><path transform="rotate(180 6 6)" d="M12 11L0 6l12-5z" fill="currentColor" stroke-width="0"/></marker><symbol id="f" overflow="visible" preserveAspectRatio="none" viewBox="0 0 100 100"><path d="M0 25L25 0h50l25 25v50l-25 25H25L0 75z" stroke="currentColor" vector-effect="non-scaling-stroke"/></symbol><symbol id="c" preserveAspectRatio="none" viewBox="0 0 100 100"/></defs><g class="Viewport" color="black"  name="Name: Amino acid conjugation of benzoic acid Organism: Homo sapiens"><rect class="Icon" width="351.1" height="464.08" fill="#fff" stroke="#000" stroke-width="0"/><g id="g" class="Interaction" color="#000" ><g color="#000" fill="transparent"  filter="url(#a)" stroke="#000" stroke-dasharray="64.86666666666669, 5.8"><path class="EdgeBody" d="m194.04 343.41v70.667"   marker-end="url(#b)" /></g><g class="Burr Anchor" transform="translate(194.04 371.68)" ><use class="Icon" width="0" height="0" fill="#141414" stroke-width="0" xlink:href="#c"/></g></g><g id="h" class="Interaction" color="#000" ><g color="#000" fill="transparent"  filter="url(#a)" stroke="#000" stroke-dasharray="65.94164262927261, 5.8"><path class="EdgeBody" d="m193 199.67-3e-14 5.6701c3e-14 5.6701 3e-14 17.01 8.0164 22.68 8.0164 5.6701 24.049 5.6701 32.066 5.6701l8.0164 3e-14"   marker-end="url(#b)" /></g></g><g id="i" class="DirectedInteraction" color="#000" ><g color="#000" fill="transparent"  filter="url(#a)" stroke="#000" stroke-dasharray="52.01967324603413, 5.8"><path class="EdgeBody" d="m194.04 343.41v2.9628c-4e-14 2.9628-4e-14 8.8883 7.8423 11.851 7.8423 2.9628 23.527 2.9628 31.369 2.9628h7.8423"   marker-end="url(#e)" /></g></g><g id="j" class="Interaction" color="#000" ><g color="#000" fill="transparent"  filter="url(#a)" stroke="#000" stroke-dasharray="117.9513619845403, 5.8"><path class="EdgeBody" d="m193 199.67 1.0447 123.75"   marker-end="url(#b)" /></g><g class="Burr Anchor" transform="translate(193.45 252.62)" ><use class="Icon" width="0" height="0" fill="#141414" stroke-width="0" xlink:href="#c"/></g></g><g id="k" class="Interaction" color="#000" ><g color="#000" fill="transparent"  filter="url(#a)" stroke="#000" stroke-dasharray="31.508453191025893, 11"><path class="EdgeBody" d="m150.94 252.69 42.508-0.078532"   marker-end="url(#d)" /></g></g><g id="l" class="DirectedInteraction" color="#000" ><g color="#000" fill="transparent"  filter="url(#a)" stroke="#000" stroke-dasharray="61.033927686653115, 5.8"><path class="EdgeBody" d="m241.1 384.86-7.8423-1e-13c-7.8423 4e-14 -23.527 4e-14 -31.369 4.8706-7.8423 4.8706-7.8423 14.612-7.8423 19.482v4.8706"   marker-end="url(#e)" /></g></g><g id="m" class="Interaction" color="#000" ><g color="#000" fill="transparent"  filter="url(#a)" stroke="#000" stroke-dasharray="79.52007882022737, 5.8"><path class="EdgeBody" d="m241.1 272.49-7.8423-4e-14c-7.8423 4e-14 -23.527 4e-14 -31.369 8.487-7.8423 8.487-7.8423 25.461-7.8423 33.948v8.487"   marker-end="url(#b)" /></g></g><g id="n" class="Interaction" color="#000" ><g color="#000" fill="transparent"  filter="url(#a)" stroke="#000" stroke-dasharray="104.2, 5.8"><path class="EdgeBody" d="m193 69.667v110"   marker-end="url(#b)" /></g><g class="Burr Anchor" transform="translate(193 113.67)" ><use class="Icon" width="0" height="0" fill="#141414" stroke-width="0" xlink:href="#c"/></g></g><g id="o" class="Interaction" color="#000" ><g color="#000" fill="transparent"  filter="url(#a)" stroke="#000" stroke-dasharray="50.689898351291916, 0"><path class="EdgeBody" d="m241.1 97.667-48.099 16"   /></g></g><g id="p" class="Interaction" color="#000" ><g color="#000" fill="transparent"  filter="url(#a)" stroke="#000" stroke-dasharray="39.599293291915636, 5.8"><path class="EdgeBody" d="m193 113.67 40.099 21.289"   marker-end="url(#b)" /></g></g><g id="q" class="Interaction" color="#000" ><g color="#000" fill="transparent"  filter="url(#a)" stroke="#000" stroke-dasharray="39.106776652539914, 11"><path class="EdgeBody" d="m143.94 371.41 50.106 0.26667"   marker-end="url(#d)" /></g></g><a class="Metabolite ChEBI_CHEBI_18089  " transform="translate(154.04 414.08)" color="#00f"  name="hippuric acid"  ><rect class="Icon" transform="matrix(.98765 0 0 .95238 .49383 .47619)" width="80" height="20" fill="#fff" stroke="#00f"/><text class="Text" transform="translate(40,13)" fill="#00f"  font-size="10px"  text-anchor="middle"><tspan x="0" y="0">hippuric acid</tspan></text></a><a  class="GeneProduct ACSS2 " transform="translate(32.939 242.69)"   name="Acyl-CoA synthetase"  ><rect class="Icon" transform="matrix(.9916 0 0 .95238 .4958 .47619)" width="118" height="20" fill="#fff" stroke="#000"/><text class="Text" transform="translate(59,13)"   font-size="10px"  text-anchor="middle"><tspan x="0" y="0">Acyl-CoA synthetase</tspan></text></a><a class="Metabolite ChEBI_CHEBI_15346  " transform="translate(241.1 351.19)" color="#00f"  name="Coenzyme A"  ><rect class="Icon" transform="matrix(.98765 0 0 .95238 .49383 .47619)" width="80" height="20" fill="#fff" stroke="#00f"/><text class="Text" transform="translate(40,13)" fill="#00f"  font-size="10px"  text-anchor="middle"><tspan x="0" y="0">Coenzyme A</tspan></text></a><a class="CAS_72-89-9 Metabolite ChEBI_CHEBI_15351  " transform="translate(241.1 262.49)" color="#3333ff"  name="Acetyl CoA"  ><rect class="Icon" transform="matrix(.98765 0 0 .95238 .49383 .47619)" width="80" height="20" fill="#fff" stroke="#33f"/><text class="Text" transform="translate(40,13)" fill="#3333ff"  font-size="10px"  text-anchor="middle"><tspan x="0" y="0">Acetyl CoA</tspan></text></a><a class="Metabolite ChEBI_CHEBI_15428  " transform="translate(241.1 374.86)" color="#00f"  name="glycine"  ><rect class="Icon" transform="matrix(.98765 0 0 .95238 .49383 .47619)" width="80" height="20" fill="#fff" stroke="#00f"/><text class="Text" transform="translate(40,13)" fill="#00f"  font-size="10px"  text-anchor="middle"><tspan x="0" y="0">glycine</tspan></text></a><a class="Metabolite ChEBI_CHEBI_15422  " transform="translate(241.1 87.667)" color="#00f"  name="ATP"  ><rect class="Icon" transform="matrix(.98765 0 0 .95238 .49383 .47619)" width="80" height="20" fill="#fff" stroke="#00f"/><text class="Text" transform="translate(40,13)" fill="#00f"  font-size="10px"  text-anchor="middle"><tspan x="0" y="0">ATP</tspan></text></a><a class="Metabolite ChEBI_CHEBI_30746  " transform="translate(153 49.667)" color="#3333ff"  name="Benzoic acid"  ><rect class="Icon" transform="matrix(.98765 0 0 .95238 .49383 .47619)" width="80" height="20" fill="#fff" stroke="#33f"/><text class="Text" transform="translate(40,13)" fill="#3333ff"  font-size="10px"  text-anchor="middle"><tspan x="0" y="0">Benzoic acid</tspan></text></a><a class="Metabolite ChEBI_CHEBI_15515  " transform="translate(154.04 323.41)" color="#00f"  name="Benzoyl-CoA"  ><rect class="Icon" transform="matrix(.98765 0 0 .95238 .49383 .47619)" width="80" height="20" fill="#fff" stroke="#00f"/><text class="Text" transform="translate(40,13)" fill="#00f"  font-size="10px"  text-anchor="middle"><tspan x="0" y="0">Benzoyl-CoA</tspan></text></a><a class="Metabolite ChEBI_CHEBI_16027  " transform="translate(241.1 223.69)" color="#00f"  name="AMP"  ><rect class="Icon" transform="matrix(.98765 0 0 .95238 .49383 .47619)" width="80" height="20" fill="#fff" stroke="#00f"/><text class="Text" transform="translate(40,13)" fill="#00f"  font-size="10px"  text-anchor="middle"><tspan x="0" y="0">AMP</tspan></text></a><a class="Metabolite ChEBI_CHEBI_156046  " transform="translate(130 179.67)" color="#3333ff"  name="benzoyl-AMP"  ><rect class="Icon" transform="matrix(.99213 0 0 .95238 .49606 .47619)" width="126" height="20" fill="#fff" stroke="#33f"/><text class="Text" transform="translate(63,13)" fill="#3333ff"  font-size="10px"  text-anchor="middle"><tspan x="0" y="0">benzoyl-AMP</tspan></text></a><g class="GroupGroup" transform="translate(233.1 120.96)" color="grey" ><use class="Icon" width="96" height="56" fill="transparent"  stroke="grey" stroke-dasharray="5,3" stroke-width="0" xlink:href="#c"/><a class="Metabolite ChEBI_CHEBI_26078  " transform="translate(8,28)" color="#00f"  name="Phosphate"  ><rect class="Icon" transform="matrix(.98765 0 0 .95238 .49383 .47619)" width="80" height="20" fill="#fff" stroke="#00f"/><text class="Text" transform="translate(40,13)" fill="#00f"  font-size="10px"  text-anchor="middle"><tspan x="0" y="0">Phosphate</tspan></text></a><a class="Metabolite ChEBI_CHEBI_26078  " transform="translate(8,8)" color="#00f"  name="Phosphate"  ><rect class="Icon" transform="matrix(.98765 0 0 .95238 .49383 .47619)" width="80" height="20" fill="#fff" stroke="#00f"/><text class="Text" transform="translate(40,13)" fill="#00f"  font-size="10px"  text-anchor="middle"><tspan x="0" y="0">Phosphate</tspan></text></a></g><g class="GroupComplex" transform="translate(39.939 329.41)" color="grey" ><use class="Icon" transform="matrix(.99048 0 0 .98824 .49524 .49412)" width="104" height="84" fill="#b4b464" fill-opacity=".1" stroke="grey" xlink:href="#f"/><a  class="GeneProduct GLYAT " transform="translate(12,12)"   name="GLYAT"  ><rect class="Icon" transform="matrix(.98765 0 0 .95238 .49383 .47619)" width="80" height="20" fill="#fff" stroke="#000"/><text class="Text" transform="translate(40,13)"   font-size="10px"  text-anchor="middle"><tspan x="0" y="0">GLYAT</tspan></text></a><a  class="GeneProduct GLYATL2 " transform="translate(12,52)"   name="GLYATL2"  ><rect class="Icon" transform="matrix(.98765 0 0 .95238 .49383 .47619)" width="80" height="20" fill="#fff" stroke="#000"/><text class="Text" transform="translate(40,13)"   font-size="10px"  text-anchor="middle"><tspan x="0" y="0">GLYATL2</tspan></text></a><a  class="GeneProduct GLYATL1 " transform="translate(12,32)"   name="GLYATL1"  ><rect class="Icon" transform="matrix(.98765 0 0 .95238 .49383 .47619)" width="80" height="20" fill="#fff" stroke="#000"/><text class="Text" transform="translate(40,13)"   font-size="10px"  text-anchor="middle"><tspan x="0" y="0">GLYATL1</tspan></text></a></g><text class="Text" transform="translate(5,27)" dominant-baseline="central" fill="black"  font-size="12px" font-weight="bold" overflow="visible" ><tspan x="0" y="-9">Name: Amino acid conjugation of benzoic acid</tspan> <tspan x="0" y="9">Organism: Homo sapiens</tspan></text></g></svg>
