<?xml version="1.0" encoding="UTF-8"?>
<!--
  WikiPathways page: https://www.wikipathways.org/index.php/Pathway:WP545
  URL for this compressed file: https://github.com/eweitz/cachome/tree/main/data/wikipathways/WP545.svg
  Source code for compression: https://github.com/eweitz/cachome/tree/main/src/wikipathways.py
-->
<svg class="Diagram" width="800" height="600" color="black" baseProfile="full" prefix="schema:http://schema.org/" preserveAspectRatio="xMidYMid" version="1.1" viewBox="0 0 913.02 611.21" vocab="http://vocabularies.wikipathways.org/wp#" xmlns="http://www.w3.org/2000/svg" xmlns:xlink="http://www.w3.org/1999/xlink"><style>svg {font-family: 'Liberation Sans', Arial, sans-serif; }</style><defs><filter id="k" x="-50%" y="-50%" width="200%" height="200%"><feComposite in="SourceGraphic" in2="SourceGraphic" result="doubleDark"/><feMorphology in="doubleDark" operator="dilate" radius="0.16666666666666666" result="in2Double"/><feMorphology in="SourceGraphic" operator="dilate" radius="3" result="inDouble"/><feComposite in="inDouble" in2="in2Double" operator="out" result="doubleResult"/></filter><filter id="b" x="0" y="0" width="913.02" height="611.21" filterUnits="userSpaceOnUse"><feColorMatrix in="SourceGraphic" values="-1   0   0 0 0                   0  -1   0 0 0                   0   0  -1 0 0                   0   0   0 1 0"/></filter><filter id="d" x="0" y="0" width="913.02" height="611.21" filterUnits="userSpaceOnUse"><feColorMatrix in="SourceGraphic" values="-1   0   0 0 0                   0  -1   0 0 0.2                   0   0  -1 0 0.8                   0   0   0 1 0"/></filter><filter id="h" x="0" y="0" width="913.02" height="611.21" filterUnits="userSpaceOnUse"><feColorMatrix in="SourceGraphic" values="-1   0   0 0 0.8                   0  -1   0 0 0                   0   0  -1 0 0                   0   0   0 1 0"/></filter><marker id="c" stroke-dasharray="99999" markerHeight="12" markerUnits="userSpaceOnUse" markerWidth="12" orient="auto" preserveAspectRatio="none" refX="12" refY="6" viewBox="0 0 12 12"><path transform="rotate(180 6 6)" d="M12 11L0 6l12-5z" fill="currentColor" stroke-width="0"/></marker><marker id="e" stroke-dasharray="99999" markerHeight="12" markerUnits="userSpaceOnUse" markerWidth="12" orient="auto" preserveAspectRatio="none" refX="12" refY="6" viewBox="0 0 12 12"><path transform="rotate(180 6 6)" d="M12 12L0 6l12-6-7 6z" fill="currentColor" stroke-width="0"/></marker><marker id="i" stroke-dasharray="99999" markerHeight="20" markerUnits="userSpaceOnUse" markerWidth="10" orient="auto" preserveAspectRatio="none" refY="10" viewBox="0 0 10 20"><path transform="rotate(180 5 10)" d="m3 0v20" fill="currentColor" stroke="currentColor"/></marker><marker id="j" stroke-dasharray="99999" markerHeight="20" markerUnits="userSpaceOnUse" markerWidth="10" orient="auto" preserveAspectRatio="none" refX="10" refY="10" viewBox="0 0 10 20"><path d="m3 0v20" fill="currentColor" stroke="currentColor"/></marker><symbol id="g" overflow="visible" preserveAspectRatio="none" viewBox="0 0 50 50"><ellipse cx="25" cy="25" rx="25" ry="25" stroke="currentColor" vector-effect="non-scaling-stroke"/></symbol><symbol id="f" overflow="visible" preserveAspectRatio="none" viewBox="0 0 100 100"><path d="M0 25L25 0h50l25 25v50l-25 25H25L0 75z" stroke="currentColor" vector-effect="non-scaling-stroke"/></symbol><symbol id="a" preserveAspectRatio="none" viewBox="0 0 100 100"/></defs><g class="Viewport" color="black"  name="Name: Complement activation License: CC BY 2.0 Organism: Homo sapiens"><rect class="Icon" width="913.02" height="611.21" fill="#fff" stroke="#000" stroke-width="0"/><g id="l" class="DirectedInteraction" color="#000" ><g color="#000" fill="transparent"  filter="url(#b)" stroke="#000" stroke-dasharray="5, 3, 5, 3, 5, 3, 5, 3, 5, 3, 5, 3, 5, 3, 5, 3, 5, 3, 5, 3, 5, 3, 5, 3, 5, 3, 5, 3, 5, 3, 5, 3, 5, 3, 5, 3, 5, 3, 5, 3, 5, 3, 5, 3, 5, 3, 5, 3, 5, 3, 5, 3, 5, 3, 5, 3, 0, 5.8"><path class="EdgeBody" d="m837.02 372.34-226.83 1.4141"   marker-end="url(#c)" /></g></g><g id="m" class="DirectedInteraction" color="#0033cc" ><g color="#0033cc" fill="transparent"  filter="url(#d)" stroke="#000" stroke-dasharray="84.59942711551871, 5.8"><path class="EdgeBody" d="m485.21 223.15 58.273-69.111"   marker-end="url(#c)" /></g><g class="Burr Anchor" transform="translate(522.36 179.09)" ><use class="Icon" width="0" height="0" fill="#141414" stroke-width="0" xlink:href="#a"/></g></g><g id="n" class="Interaction" color="#000" ><g color="#000" fill="transparent"  filter="url(#b)" stroke="#000" stroke-dasharray="86.97970810279621, 1"><path class="EdgeBody" d="m404.72 144.04 38.495 79.111"   marker-end="url(#e)" /></g></g><g id="o" class="Interaction" color="#000" ><g color="#000" fill="transparent"  filter="url(#b)" stroke="#000" stroke-dasharray="37.30120824204763, 1"><path class="EdgeBody" d="m405.55 204.67 16.667 34.485"   marker-end="url(#e)" /></g></g><g id="p" class="Inhibition" color="#c00" ><g color="#c00" fill="transparent"  filter="url(#h)" stroke="#000" stroke-dasharray="0, 7, 67.47631643877993, 0"><path class="EdgeBody" d="m522.36 179.09-57.666-47.131"   marker-start="url(#i)" /></g></g><g id="q" class="Interaction" color="#000" ><g color="#000" fill="transparent"  filter="url(#b)" stroke="#000" stroke-dasharray="106.30308783018384, 1"><path class="EdgeBody" d="m108.02 194.17 107.3-0.11111"   marker-end="url(#e)" /></g><g class="Burr Anchor" transform="translate(126.66 194.15)" ><use class="Icon" width="0" height="0" fill="#141414" stroke-width="0" xlink:href="#a"/></g><g class="Burr Anchor" transform="translate(192.04 194.08)" ><use class="Icon" width="0" height="0" fill="#141414" stroke-width="0" xlink:href="#a"/></g><g class="Burr Anchor" transform="translate(171.93 194.11)" ><use class="Icon" width="0" height="0" fill="#141414" stroke-width="0" xlink:href="#a"/></g></g><g id="r" class="DirectedInteraction" color="#0033cc" ><g color="#0033cc" fill="transparent"  filter="url(#d)" stroke="#000" stroke-dasharray="71.45119762891089, 5.8"><path class="EdgeBody" d="m639.78 245.86 9.0859-6e-14c9.0859 4e-14 27.258 4e-14 36.343 5.6061 9.0859 5.6061 9.0859 16.818 9.0859 22.424v5.6061"   marker-end="url(#c)" /></g></g><g id="s" class="Interaction" color="#000" ><g color="#000" fill="transparent"  filter="url(#b)" stroke="#000" stroke-dasharray="49.01738805909654, 1"><path class="EdgeBody" d="m506.21 239.15 49.566 6.7071"   marker-end="url(#e)" /></g></g><g id="t" class="Interaction" color="#000" ><g color="#000" fill="transparent"  filter="url(#b)" stroke="#000" stroke-dasharray="52.070542693526534, 1"><path class="EdgeBody" d="m558.48 154.04 18.293 49.818"   marker-end="url(#e)" /></g></g><g id="u" class="DirectedInteraction" color="#0033cc" ><g color="#0033cc" fill="transparent"  filter="url(#d)" stroke="#000" stroke-dasharray="50.17395978826591, 5.8"><path class="EdgeBody" d="m298.37 127.84v2.7003c0 2.7003 0 8.101 7.7239 10.801 7.7239 2.7003 23.172 2.7003 30.896 2.7003h7.7239"   marker-end="url(#c)" /></g></g><g id="v" class="Interaction" color="#000" ><g color="#000" fill="transparent"  filter="url(#b)" stroke="#000" stroke-dasharray="68.57534526777822, 0"><path class="EdgeBody" d="m126.66 194.15-1.1895-4e-14c-1.1895 0-3.5686 0-4.7581 4.3162-1.1895 4.3162-1.1895 12.949-5.5175 17.265-4.328 4.3162-12.984 4.3162-17.312 8.6076-4.328 4.2914-4.328 12.874-4.328 17.165l1e-14 4.2914"   /></g></g><g id="w" class="Interaction" color="#000" ><g color="#000" fill="transparent"  filter="url(#b)" stroke="#000" stroke-dasharray="30.194946472001938, 0"><path class="EdgeBody" d="m174.26 211.13v-2.805c0-2.805 0-8.4149 2.9635-11.22 2.9635-2.805 8.8905-2.805 11.854-2.8411 2.9635-0.036139 2.9635-0.10842 2.9635-0.14455v-0.036139"   /></g></g><g id="x" class="Interaction" color="#000" ><g color="#000" fill="transparent"  filter="url(#b)" stroke="#000" stroke-dasharray="28.85029353136628, 0"><path class="EdgeBody" d="m153.57 179.26-3e-14 2.4466c3e-14 2.4466 3e-14 7.3397 3.0602 9.7862 3.0602 2.4466 9.1806 2.4466 12.241 2.4742 3.0602 0.027691 3.0602 0.083074 3.0602 0.11077v0.027691"   /></g></g><g id="y" class="Interaction" color="#000" ><g color="#000" fill="transparent"  filter="url(#b)" stroke="#000" stroke-dasharray="20.63640136185917, 1"><path class="EdgeBody" d="m694.29 299.49 0.040404 21.636"   marker-end="url(#e)" /></g></g><g class="GroupGroup" transform="translate(32.181 362.7)" color="grey" ><use class="Icon" width="246.02075648524647" height="66.3616394320922" fill="transparent"  stroke="grey" stroke-dasharray="5,3" stroke-width="0" xlink:href="#a"/><g id="z" class="Edge GraphicalLine Inhibition" color="#c00" ><g color="#c00" fill="transparent"  filter="url(#h)" stroke="#000" stroke-dasharray="32.91596638655446, 7"><path class="EdgeBody" d="m15.819 43.59h39.916"   marker-end="url(#j)" /></g></g><g id="aa" class="Edge GraphicalLine DirectedInteraction" color="#0033cc" ><g color="#0033cc" fill="transparent"  filter="url(#d)" stroke="#000" stroke-dasharray="30.891921734289635, 5.8"><path class="EdgeBody" d="m14.973 21.862h36.692"   marker-end="url(#c)" /></g></g><g class="SingleFreeNode Shape" transform="translate(8,8)" color="#000" ><rect class="Icon" transform="matrix(.99567 0 0 .98053 .49784 .49027)" width="230.02" height="50.362" fill="transparent"  stroke="#000"/></g><g class="Label" transform="translate(58.401 14.725)" color="#000"  name="Proteolytic Cleavage &amp; Activation"><use class="Icon" width="175.07453064219726" height="16" fill="transparent"  stroke="#000" stroke-width="0" xlink:href="#a"/><text class="Text" transform="translate(87.537 11)"   font-size="10px" font-weight="bold"  text-anchor="middle"><tspan x="0" y="0">Proteolytic Cleavage &amp; Activation</tspan></text></g><g class="Label" transform="translate(41.421 36.759)" color="#000"  name="Prevents Complement Attack"><use class="Icon" width="188.33333333333334" height="16" fill="transparent"  stroke="#000" stroke-width="0" xlink:href="#a"/><text class="Text" transform="translate(94.167 11)"   font-size="10px" font-weight="bold"  text-anchor="middle"><tspan x="0" y="0">Prevents Complement Attack</tspan></text></g></g><g id="ab" class="DirectedInteraction" color="#0033cc" ><g color="#0033cc" fill="transparent"  filter="url(#d)" stroke="#000" stroke-dasharray="28.42758833580493, 5.8"><path class="EdgeBody" d="m299.32 194.06 34.222 0.60606"   marker-end="url(#c)" /></g></g><g class="SingleFreeNode Shape PhysicalEntity CellularComponent Cell" transform="translate(22.499 277.29)" color="#c0c0c0" ><g fill="transparent"  filter="url(#k)" stroke="#c0c0c0" stroke-width="3"><rect class="Icon" transform="matrix(.98173 0 0 .93067 5.8904 5.584)" width="644.66" height="161.08" rx="15" ry="15"   /></g></g><g class="GroupGroup" transform="translate(50.889 231.8)" color="grey" ><use class="Icon" width="42.66666666666662" height="56.000000000000966" fill="transparent"  stroke="grey" stroke-dasharray="5,3" stroke-width="0" xlink:href="#a"/><g class="SingleFreeNode Shape" transform="translate(8 14.667)" color="#000" ><use class="Icon" transform="matrix(.93023 0 0 .96386 .46512 .48193)" width="13.333333333333334" height="26.666666666666668" fill="#c0c0c0" stroke="#000" xlink:href="#g"/></g><g class="SingleFreeNode Shape" transform="translate(21.333 14.667)" color="#000" ><use class="Icon" transform="matrix(.93023 0 0 .96386 .46512 .48193)" width="13.333333333333334" height="26.666666666666668" fill="#c0c0c0" stroke="#000" xlink:href="#g"/></g><g class="SingleFreeNode Shape" transform="translate(14.667 8)" color="#000" ><use class="Icon" transform="matrix(.93023 0 0 .96386 .46512 .48193)" width="13.333333333333334" height="26.666666666666668" fill="grey" stroke="#000" xlink:href="#g"/></g><g class="SingleFreeNode Shape" transform="translate(14.667 21.333)" color="#000" ><use class="Icon" transform="matrix(.93023 0 0 .96386 .46512 .48193)" width="13.333333333333334" height="26.666666666666668" fill="#dfdfdf" stroke="#000" xlink:href="#g"/></g></g><g class="Label" transform="translate(34.596 311.17)" color="#000"  name="aggregated IgG, IgM-antigen complex, polyanions, RNA, DNA lipopolysaccharides"><use class="Icon" width="83.33333333333333" height="46" fill="transparent"  stroke="#000" stroke-width="0" xlink:href="#a"/><text class="Text" transform="translate(41.667 25)"   font-size="8px" font-weight="bold"  text-anchor="middle"><tspan x="0" y="-13.200000000000001">aggregated IgG,</tspan> <tspan x="0" y="-4.4">IgM-antigen complex,</tspan> <tspan x="0" y="4.4">polyanions, RNA, DNA</tspan> <tspan x="0" y="13.200000000000001">lipopolysaccharides</tspan></text></g><g class="Label" transform="translate(19.894 282.1)" color="#000"  name="antigen/antibody complex"><use class="Icon" width="112.33333333333333" height="30.666666666666668" fill="transparent"  stroke="#000" stroke-width="0" xlink:href="#a"/><text class="Text" transform="translate(56.167 18.333)"   font-size="10px" font-weight="bold"  text-anchor="middle"><tspan x="0" y="-5.5">antigen/antibody</tspan> <tspan x="0" y="5.5">complex</tspan></text></g><g class="Label" transform="translate(280.03 347.36)" color="#666666"  name="Pathogenic Bacterial Cell"><use class="Icon" width="242.19470878045456" height="25.342613214551193" fill="transparent"  stroke="#666666" stroke-width="0" xlink:href="#a"/><text class="Text" transform="translate(121.1 17.671)" fill="#666666"  font-size="16px" font-weight="bold"  text-anchor="middle"><tspan x="0" y="0">Pathogenic Bacterial Cell</tspan></text></g><g class="Label" transform="translate(729.59 425.03)" color="#000"  name="Membrane Attack Complex"><use class="Icon" width="89" height="32.666666666666664" fill="transparent"  stroke="#000" stroke-width="0" xlink:href="#a"/><text class="Text" transform="translate(44.5 19.333)"   font-size="10px" font-weight="bold"  text-anchor="middle"><tspan x="0" y="-5.5">Membrane</tspan> <tspan x="0" y="5.5">Attack Complex</tspan></text></g><a  class="GeneProduct C1S " transform="translate(144.26 211.13)"   name="C1S"  ><rect class="Icon" transform="matrix(.98361 0 0 .95238 .4918 .47619)" width="60" height="20" fill="#fff" stroke="#000"/><text class="Text" transform="translate(30,13)"   font-size="10px"  text-anchor="middle"><tspan x="0" y="0">C1S</tspan></text></a><a  class="GeneProduct C1R " transform="translate(123.57 159.26)"   name="C1R"  ><rect class="Icon" transform="matrix(.98361 0 0 .95238 .4918 .47619)" width="60" height="20" fill="#fff" stroke="#000"/><text class="Text" transform="translate(30,13)"   font-size="10px"  text-anchor="middle"><tspan x="0" y="0">C1R</tspan></text></a><a  class="GeneProduct C3 " transform="translate(528.48 134.04)"   name="C3"  ><rect class="Icon" transform="matrix(.98361 0 0 .95238 .4918 .47619)" width="60" height="20" fill="#fff" stroke="#000"/><text class="Text" transform="translate(30,13)"   font-size="10px"  text-anchor="middle"><tspan x="0" y="0">C3</tspan></text></a><a class="Metabolite ChEBI_CHEBI_15377  " transform="translate(837.02 362.34)" color="#00f"  name="H2O"  ><rect class="Icon" transform="matrix(.97872 0 0 .95238 .48936 .47619)" width="46" height="20" fill="#fff" stroke="#00f"/><text class="Text" transform="translate(23,13)" fill="#00f"  font-size="10px"  text-anchor="middle"><tspan x="0" y="0">H2O</tspan></text></a><a  class="GeneProduct CD55 " transform="translate(434.7 111.96)"   name="DAF"  ><rect class="Icon" transform="matrix(.98361 0 0 .95238 .4918 .47619)" width="60" height="20" fill="#fff" stroke="#000"/><text class="Text" transform="translate(30,13)"   font-size="10px"  text-anchor="middle"><tspan x="0" y="0">DAF</tspan></text></a><a  class="GeneProduct C5 " transform="translate(679.29 279.49)"   name="C5"  ><rect class="Icon" transform="matrix(.98361 0 0 .95238 .4918 .47619)" width="60" height="20" fill="#fff" stroke="#000"/><text class="Text" transform="translate(30,13)"   font-size="10px"  text-anchor="middle"><tspan x="0" y="0">C5</tspan></text></a><g class="GroupComplex" transform="translate(422.21 223.15)" color="grey" ><use class="Icon" transform="matrix(.98824 0 0 .98462 .49412 .49231)" width="84" height="63.99999999999983" fill="#b4b464" fill-opacity=".1" stroke="grey" xlink:href="#f"/><a  class="GeneProduct C2 " transform="translate(12,12)"   name="C2A"  ><rect class="Icon" transform="matrix(.98361 0 0 .95238 .4918 .47619)" width="60" height="20" fill="#fff" stroke="#000"/><text class="Text" transform="translate(30,13)"   font-size="10px"  text-anchor="middle"><tspan x="0" y="0">C2A</tspan></text></a><a  class="GeneProduct C4B " transform="translate(12 32)"   name="C4B"  ><rect class="Icon" transform="matrix(.98361 0 0 .95238 .4918 .47619)" width="60" height="20" fill="#fff" stroke="#000"/><text class="Text" transform="translate(30,13)"   font-size="10px"  text-anchor="middle"><tspan x="0" y="0">C4B</tspan></text></a></g><g class="GroupComplex" transform="translate(24.02 131.17)" color="grey" ><use class="Icon" transform="matrix(.98824 0 0 .98824 .49412 .49412)" width="84" height="83.99999999999966" fill="#b4b464" fill-opacity=".1" stroke="grey" xlink:href="#f"/><a  class="GeneProduct C1QB " transform="translate(12 32)"   name="C1QB"  ><rect class="Icon" transform="matrix(.98361 0 0 .95238 .4918 .47619)" width="60" height="20" fill="#fff" stroke="#000"/><text class="Text" transform="translate(30,13)"   font-size="10px"  text-anchor="middle"><tspan x="0" y="0">C1QB</tspan></text></a><a  class="GeneProduct C1QA " transform="translate(12,12)"   name="C1QA"  ><rect class="Icon" transform="matrix(.98361 0 0 .95238 .4918 .47619)" width="60" height="20" fill="#fff" stroke="#000"/><text class="Text" transform="translate(30,13)"   font-size="10px"  text-anchor="middle"><tspan x="0" y="0">C1QA</tspan></text></a><a  class="GeneProduct C1QC " transform="translate(12 52)"   name="C1QG"  ><rect class="Icon" transform="matrix(.98361 0 0 .95238 .4918 .47619)" width="60" height="20" fill="#fff" stroke="#000"/><text class="Text" transform="translate(30,13)"   font-size="10px"  text-anchor="middle"><tspan x="0" y="0">C1QG</tspan></text></a></g><g class="GroupGroup" transform="translate(260.37 71.838)" color="grey" ><use class="Icon" width="76" height="56" fill="transparent"  stroke="grey" stroke-dasharray="5,3" stroke-width="0" xlink:href="#a"/><a  class="GeneProduct MASP2 " transform="translate(8,28)"   name="MASP2"  ><rect class="Icon" transform="matrix(.98361 0 0 .95238 .4918 .47619)" width="60" height="20" fill="#fff" stroke="#000"/><text class="Text" transform="translate(30,13)"   font-size="10px"  text-anchor="middle"><tspan x="0" y="0">MASP2</tspan></text></a><a  class="GeneProduct MASP1 " transform="translate(8,8)"   name="MASP1"  ><rect class="Icon" transform="matrix(.98361 0 0 .95238 .4918 .47619)" width="60" height="20" fill="#fff" stroke="#000"/><text class="Text" transform="translate(30,13)"   font-size="10px"  text-anchor="middle"><tspan x="0" y="0">MASP1</tspan></text></a></g><g class="GroupComplex" transform="translate(658.2 321.13)" color="grey" ><use class="Icon" transform="matrix(.99313 0 0 .99049 .49656 .49524)" width="144.5252525252514" height="104.10101010100936" fill="#b4b464" fill-opacity=".1" stroke="grey" xlink:href="#f"/><a  class="GeneProduct C8A " transform="translate(72.525 12)"   name="C8A"  ><rect class="Icon" transform="matrix(.98361 0 0 .95238 .4918 .47619)" width="60" height="20" fill="#fff" stroke="#000"/><text class="Text" transform="translate(30,13)"   font-size="10px"  text-anchor="middle"><tspan x="0" y="0">C8A</tspan></text></a><a  class="GeneProduct C9 " transform="translate(72.525 72)"   name="C9"  ><rect class="Icon" transform="matrix(.98361 0 0 .95238 .4918 .47619)" width="60" height="20" fill="#fff" stroke="#000"/><text class="Text" transform="translate(30,13)"   font-size="10px"  text-anchor="middle"><tspan x="0" y="0">C9</tspan></text></a><a  class="GeneProduct C8B " transform="translate(72.525 32)"   name="C8B"  ><rect class="Icon" transform="matrix(.98361 0 0 .95238 .4918 .47619)" width="60" height="20" fill="#fff" stroke="#000"/><text class="Text" transform="translate(30,13)"   font-size="10px"  text-anchor="middle"><tspan x="0" y="0">C8B</tspan></text></a><a  class="GeneProduct C6 " transform="translate(12 52.101)"   name="C6"  ><rect class="Icon" transform="matrix(.98361 0 0 .95238 .4918 .47619)" width="60" height="20" fill="#fff" stroke="#000"/><text class="Text" transform="translate(30,13)"   font-size="10px"  text-anchor="middle"><tspan x="0" y="0">C6</tspan></text></a><a  class="GeneProduct C7 " transform="translate(12 32.101)"   name="C7"  ><rect class="Icon" transform="matrix(.98361 0 0 .95238 .4918 .47619)" width="60" height="20" fill="#fff" stroke="#000"/><text class="Text" transform="translate(30,13)"   font-size="10px"  text-anchor="middle"><tspan x="0" y="0">C7</tspan></text></a><a  class="GeneProduct C5 " transform="translate(12 72.101)"   name="C5B"  ><rect class="Icon" transform="matrix(.98361 0 0 .95238 .4918 .47619)" width="60" height="20" fill="#fff" stroke="#000"/><text class="Text" transform="translate(30,13)"   font-size="10px"  text-anchor="middle"><tspan x="0" y="0">C5B</tspan></text></a><a  class="GeneProduct C8G " transform="translate(72.525 52)"   name="C8G"  ><rect class="Icon" transform="matrix(.98361 0 0 .95238 .4918 .47619)" width="60" height="20" fill="#fff" stroke="#000"/><text class="Text" transform="translate(30,13)"   font-size="10px"  text-anchor="middle"><tspan x="0" y="0">C8G</tspan></text></a></g><g class="GroupComplex" transform="translate(333.55 162.67)" color="grey" ><use class="Icon" transform="matrix(.98824 0 0 .98462 .49412 .49231)" width="84" height="64" fill="#b4b464" fill-opacity=".1" stroke="grey" xlink:href="#f"/><a  class="GeneProduct C4B " transform="translate(12,32)"   name="C4B"  ><rect class="Icon" transform="matrix(.98361 0 0 .95238 .4918 .47619)" width="60" height="20" fill="#fff" stroke="#000"/><text class="Text" transform="translate(30,13)"   font-size="10px"  text-anchor="middle"><tspan x="0" y="0">C4B</tspan></text></a><a  class="GeneProduct C4A " transform="translate(12,12)"   name="C4A"  ><rect class="Icon" transform="matrix(.98361 0 0 .95238 .4918 .47619)" width="60" height="20" fill="#fff" stroke="#000"/><text class="Text" transform="translate(30,13)"   font-size="10px"  text-anchor="middle"><tspan x="0" y="0">C4A</tspan></text></a></g><a  class="GeneProduct C2 " transform="translate(344.72 134.04)"   name="C2"  ><rect class="Icon" transform="matrix(.98361 0 0 .95238 .4918 .47619)" width="60" height="20" fill="#fff" stroke="#000"/><text class="Text" transform="translate(30,13)"   font-size="10px"  text-anchor="middle"><tspan x="0" y="0">C2</tspan></text></a><g id="ac" class="DirectedInteraction" color="#0033cc" ><g color="#0033cc" fill="transparent"  filter="url(#d)" stroke="#000" stroke-dasharray="71.35348414079961, 5.8"><path class="EdgeBody" d="m278.32 163.06-4e-14 -3.17c4e-14 -3.17 4e-14 -9.5101 11.066-12.68 11.066-3.17 33.197-3.17 44.263-3.17h11.066"   marker-end="url(#c)" /></g></g><g class="GroupComplex" transform="translate(555.78 203.86)" color="grey" ><use class="Icon" transform="matrix(.98824 0 0 .98824 .49412 .49412)" width="84.00000000000011" height="83.99999999999955" fill="#b4b464" fill-opacity=".1" stroke="grey" xlink:href="#f"/><a  class="GeneProduct C3 " transform="translate(12,12)"   name="C3B"  ><rect class="Icon" transform="matrix(.98361 0 0 .95238 .4918 .47619)" width="60" height="20" fill="#fff" stroke="#000"/><text class="Text" transform="translate(30,13)"   font-size="10px"  text-anchor="middle"><tspan x="0" y="0">C3B</tspan></text></a><a  class="GeneProduct C2 " transform="translate(12 32)"   name="C2A"  ><rect class="Icon" transform="matrix(.98361 0 0 .95238 .4918 .47619)" width="60" height="20" fill="#fff" stroke="#000"/><text class="Text" transform="translate(30,13)"   font-size="10px"  text-anchor="middle"><tspan x="0" y="0">C2A</tspan></text></a><a  class="GeneProduct C4B " transform="translate(12 52)"   name="C4B"  ><rect class="Icon" transform="matrix(.98361 0 0 .95238 .4918 .47619)" width="60" height="20" fill="#fff" stroke="#000"/><text class="Text" transform="translate(30,13)"   font-size="10px"  text-anchor="middle"><tspan x="0" y="0">C4B</tspan></text></a></g><g class="Label" transform="translate(416.41 285.22)" color="#000"  name="C3 convertase"><use class="Icon" width="92.68181818181836" height="28.333333333333332" fill="transparent"  stroke="#000" stroke-width="0" xlink:href="#a"/><text class="Text" transform="translate(46.341 17.167)"   font-size="10px" font-weight="bold"  text-anchor="middle"><tspan x="0" y="0">C3 convertase</tspan></text></g><g class="Label" transform="translate(549.64 285.22)" color="#000"  name="C5 convertase"><use class="Icon" width="92.68181818181836" height="28.333333333333332" fill="transparent"  stroke="#000" stroke-width="0" xlink:href="#a"/><text class="Text" transform="translate(46.341 17.167)"   font-size="10px" font-weight="bold"  text-anchor="middle"><tspan x="0" y="0">C5 convertase</tspan></text></g><g class="GroupComplex" transform="translate(215.32 163.06)" color="grey" ><use class="Icon" transform="matrix(.98824 0 0 .992 .49412 .496)" width="84.00000000000011" height="124" fill="#b4b464" fill-opacity=".1" stroke="grey" xlink:href="#f"/><a  class="GeneProduct C1QB " transform="translate(12 72)"   name="C1QB"  ><rect class="Icon" transform="matrix(.98361 0 0 .95238 .4918 .47619)" width="60" height="20" fill="#fff" stroke="#000"/><text class="Text" transform="translate(30,13)"   font-size="10px"  text-anchor="middle"><tspan x="0" y="0">C1QB</tspan></text></a><a  class="GeneProduct C1QC " transform="translate(12 52)"   name="C1QG"  ><rect class="Icon" transform="matrix(.98361 0 0 .95238 .4918 .47619)" width="60" height="20" fill="#fff" stroke="#000"/><text class="Text" transform="translate(30,13)"   font-size="10px"  text-anchor="middle"><tspan x="0" y="0">C1QG</tspan></text></a><a  class="GeneProduct C1QA " transform="translate(12,92)"   name="C1QA"  ><rect class="Icon" transform="matrix(.98361 0 0 .95238 .4918 .47619)" width="60" height="20" fill="#fff" stroke="#000"/><text class="Text" transform="translate(30,13)"   font-size="10px"  text-anchor="middle"><tspan x="0" y="0">C1QA</tspan></text></a><a  class="GeneProduct C1R " transform="translate(12 32)"   name="C1R"  ><rect class="Icon" transform="matrix(.98361 0 0 .95238 .4918 .47619)" width="60" height="20" fill="#fff" stroke="#000"/><text class="Text" transform="translate(30,13)"   font-size="10px"  text-anchor="middle"><tspan x="0" y="0">C1R</tspan></text></a><a  class="GeneProduct C1S " transform="translate(12 12)"   name="C1S"  ><rect class="Icon" transform="matrix(.98361 0 0 .95238 .4918 .47619)" width="60" height="20" fill="#fff" stroke="#000"/><text class="Text" transform="translate(30,13)"   font-size="10px"  text-anchor="middle"><tspan x="0" y="0">C1S</tspan></text></a></g><g class="Label" transform="translate(215.7 290.69)" color="#000"  name="C1 complex"><use class="Icon" width="79.75252525252998" height="17.39393939394013" fill="transparent"  stroke="#000" stroke-width="0" xlink:href="#a"/><text class="Text" transform="translate(39.876 11.697)"   font-size="10px" font-weight="bold"  text-anchor="middle"><tspan x="0" y="0">C1 complex</tspan></text></g><a class="Metabolite ChEBI_CHEBI_15377  " transform="translate(564.19 363.76)" color="#00f"  name="H2O"  ><rect class="Icon" transform="matrix(.97872 0 0 .95238 .48936 .47619)" width="46" height="20" fill="#fff" stroke="#00f"/><text class="Text" transform="translate(23,13)" fill="#00f"  font-size="10px"  text-anchor="middle"><tspan x="0" y="0">H2O</tspan></text></a><g class="Label" transform="translate(546.51 340.67)" color="#000"  name="Osmotic lysis"><use class="Icon" width="82.27777777778536" height="28.333333333333332" fill="transparent"  stroke="#000" stroke-width="0" xlink:href="#a"/><text class="Text" transform="translate(41.139 17.167)"   font-size="10px" font-weight="bold"  text-anchor="middle"><tspan x="0" y="0">Osmotic lysis</tspan></text></g><g id="ad" class="DirectedInteraction" color="#0033cc" ><g color="#0033cc" fill="transparent"  filter="url(#d)" stroke="#000" stroke-dasharray="84.00931562165636, 5.8"><path class="EdgeBody" d="m298.37 127.84v11.138c0 11.138 0 33.414 5.862 44.552 5.862 11.138 17.586 11.138 23.448 11.138l5.862-3e-14"   marker-end="url(#c)" /></g></g><g class="GroupComplex" transform="translate(424.53 429.64)" color="grey" ><use class="Icon" transform="matrix(.98824 0 0 .98824 .49412 .49412)" width="84" height="84.00000000000006" fill="#b4b464" fill-opacity=".1" stroke="grey" xlink:href="#f"/><a  class="GeneProduct C3 " transform="translate(12,12)"   name="C3B"  ><rect class="Icon" transform="matrix(.98361 0 0 .95238 .4918 .47619)" width="60" height="20" fill="#fff" stroke="#000"/><text class="Text" transform="translate(30,13)"   font-size="10px"  text-anchor="middle"><tspan x="0" y="0">C3B</tspan></text></a><a  class="GeneProduct CFB " transform="translate(12 32)"   name="CFBb"  ><rect class="Icon" transform="matrix(.98361 0 0 .95238 .4918 .47619)" width="60" height="20" fill="#fff" stroke="#000"/><text class="Text" transform="translate(30,13)"   font-size="10px"  text-anchor="middle"><tspan x="0" y="0">CFBb</tspan></text></a><a  class="GeneProduct CFP " transform="translate(12 52)"   name="CFP"  ><rect class="Icon" transform="matrix(.98361 0 0 .95238 .4918 .47619)" width="60" height="20" fill="#fff" stroke="#000"/><text class="Text" transform="translate(30,13)"   font-size="10px"  text-anchor="middle"><tspan x="0" y="0">CFP</tspan></text></a></g><g class="Label" transform="translate(14.986 110.5)" color="#000"  name="Classical pathway"><use class="Icon" width="107.63131313131703" height="17.39393939394013" fill="transparent"  stroke="#000" stroke-width="0" xlink:href="#a"/><text class="Text" transform="translate(53.816 11.697)"   font-size="10px" font-weight="bold"  text-anchor="middle"><tspan x="0" y="0">Classical pathway</tspan></text></g><g class="Label" transform="translate(250.13 61.529)" color="#000"  name="Lectin pathway"><use class="Icon" width="107.63131313131703" height="17.39393939394013" fill="transparent"  stroke="#000" stroke-width="0" xlink:href="#a"/><text class="Text" transform="translate(53.816 11.697)"   font-size="10px" font-weight="bold"  text-anchor="middle"><tspan x="0" y="0">Lectin pathway</tspan></text></g><g class="Label" transform="translate(251.97 516.84)" color="#000"  name="Alternative pathway"><use class="Icon" width="107.63131313131703" height="17.39393939394013" fill="transparent"  stroke="#000" stroke-width="0" xlink:href="#a"/><text class="Text" transform="translate(53.816 11.697)"   font-size="10px" font-weight="bold"  text-anchor="middle"><tspan x="0" y="0">Alternative pathway</tspan></text></g><a  class="GeneProduct C3 " transform="translate(490 561.21)"   name="C3"  ><rect class="Icon" transform="matrix(.98361 0 0 .95238 .4918 .47619)" width="60" height="20" fill="#fff" stroke="#000"/><text class="Text" transform="translate(30,13)"   font-size="10px"  text-anchor="middle"><tspan x="0" y="0">C3</tspan></text></a><g id="ae" class="DirectedInteraction" color="#0033cc" ><g color="#0033cc" fill="transparent"  filter="url(#d)" stroke="#000" stroke-dasharray="44.88210473333336, 5.8"><path class="EdgeBody" d="m487.53 513.64 17.468 47.577"   marker-end="url(#c)" /></g></g><a  class="GeneProduct C3 " transform="translate(326.84 453.66)"   name="C3"  ><rect class="Icon" transform="matrix(.98361 0 0 .95238 .4918 .47619)" width="60" height="20" fill="#fff" stroke="#000"/><text class="Text" transform="translate(30,13)"   font-size="10px"  text-anchor="middle"><tspan x="0" y="0">C3</tspan></text></a><a  class="GeneProduct CFB " transform="translate(325.82 488.81)"   name="CFB"  ><rect class="Icon" transform="matrix(.98361 0 0 .95238 .4918 .47619)" width="60" height="20" fill="#fff" stroke="#000"/><text class="Text" transform="translate(30,13)"   font-size="10px"  text-anchor="middle"><tspan x="0" y="0">CFB</tspan></text></a><g class="Label" transform="translate(419.84 402.79)" color="#000"  name="C3 convertase"><use class="Icon" width="92.68181818181836" height="28.333333333333332" fill="transparent"  stroke="#000" stroke-width="0" xlink:href="#a"/><text class="Text" transform="translate(46.341 17.167)"   font-size="10px" font-weight="bold"  text-anchor="middle"><tspan x="0" y="0">C3 convertase</tspan></text></g><a  class="GeneProduct CFD " transform="translate(229.26 488.71)"   name="CFD"  ><rect class="Icon" transform="matrix(.98361 0 0 .95238 .4918 .47619)" width="60" height="20" fill="#fff" stroke="#000"/><text class="Text" transform="translate(30,13)"   font-size="10px"  text-anchor="middle"><tspan x="0" y="0">CFD</tspan></text></a><g class="GroupComplex" transform="translate(542.11 428.52)" color="grey" ><use class="Icon" transform="matrix(.98824 0 0 .99048 .49412 .49524)" width="84" height="103.99999999999955" fill="#b4b464" fill-opacity=".1" stroke="grey" xlink:href="#f"/><a  class="GeneProduct C3 " transform="translate(12 72)"   name="C3B"  ><rect class="Icon" transform="matrix(.98361 0 0 .95238 .4918 .47619)" width="60" height="20" fill="#fff" stroke="#000"/><text class="Text" transform="translate(30,13)"   font-size="10px"  text-anchor="middle"><tspan x="0" y="0">C3B</tspan></text></a><a  class="GeneProduct C3 " transform="translate(12,12)"   name="C3B"  ><rect class="Icon" transform="matrix(.98361 0 0 .95238 .4918 .47619)" width="60" height="20" fill="#fff" stroke="#000"/><text class="Text" transform="translate(30,13)"   font-size="10px"  text-anchor="middle"><tspan x="0" y="0">C3B</tspan></text></a><a  class="GeneProduct CFB " transform="translate(12,32)"   name="CFBb"  ><rect class="Icon" transform="matrix(.98361 0 0 .95238 .4918 .47619)" width="60" height="20" fill="#fff" stroke="#000"/><text class="Text" transform="translate(30,13)"   font-size="10px"  text-anchor="middle"><tspan x="0" y="0">CFBb</tspan></text></a><a  class="GeneProduct CFP " transform="translate(12 52)"   name="CFP"  ><rect class="Icon" transform="matrix(.98361 0 0 .95238 .4918 .47619)" width="60" height="20" fill="#fff" stroke="#000"/><text class="Text" transform="translate(30,13)"   font-size="10px"  text-anchor="middle"><tspan x="0" y="0">CFP</tspan></text></a></g><g class="Label" transform="translate(220.65 449.66)" color="#000"  name="Hydrolysis"><use class="Icon" width="68.23737373738146" height="28.333333333333332" fill="transparent"  stroke="#000" stroke-width="0" xlink:href="#a"/><text class="Text" transform="translate(34.119 17.167)"   font-size="10px" font-weight="bold"  text-anchor="middle"><tspan x="0" y="0">Hydrolysis</tspan></text></g><g id="af" class="DirectedInteraction" color="#0033cc" ><g color="#0033cc" fill="transparent"  filter="url(#d)" stroke="#000" stroke-dasharray="32.146520844480676, 5.8"><path class="EdgeBody" d="m288.89 463.83 37.946-0.17268"   marker-end="url(#c)" /></g></g><g id="ag" class="Interaction" color="#000" ><g color="#000" fill="transparent"  filter="url(#b)" stroke="#000" stroke-dasharray="37.53230722565896, 1"><path class="EdgeBody" d="m386.84 463.66 37.697 7.9798"   marker-end="url(#e)" /></g></g><g id="ah" class="Interaction" color="#000" ><g color="#000" fill="transparent"  filter="url(#b)" stroke="#000" stroke-dasharray="38.19601275091414, 1"><path class="EdgeBody" d="m385.82 498.81 38.707-6.1717"   marker-end="url(#e)" /></g></g><g id="ai" class="DirectedInteraction" color="#0033cc" ><g color="#0033cc" fill="transparent"  filter="url(#d)" stroke="#000" stroke-dasharray="30.76579608210532, 5.8"><path class="EdgeBody" d="m289.26 498.71 36.566 0.10101"   marker-end="url(#c)" /></g><g class="Burr Anchor" transform="translate(312.57 498.77)" ><use class="Icon" width="0" height="0" fill="#141414" stroke-width="0" xlink:href="#a"/></g></g><g id="aj" class="Interaction" color="#000" ><g color="#000" fill="transparent"  filter="url(#b)" stroke="#000" stroke-dasharray="39.16263074550738, 1"><path class="EdgeBody" d="m535 561.21 28.108-28.688"   marker-end="url(#e)" /></g></g><g class="Label" transform="translate(535.9 402.79)" color="#000"  name="C5 convertase"><use class="Icon" width="92.68181818181836" height="28.333333333333332" fill="transparent"  stroke="#000" stroke-width="0" xlink:href="#a"/><text class="Text" transform="translate(46.341 17.167)"   font-size="10px" font-weight="bold"  text-anchor="middle"><tspan x="0" y="0">C5 convertase</tspan></text></g><a  class="GeneProduct C5 " transform="translate(649.39 461.72)"   name="C5"  ><rect class="Icon" transform="matrix(.98361 0 0 .95238 .4918 .47619)" width="60" height="20" fill="#fff" stroke="#000"/><text class="Text" transform="translate(30,13)"   font-size="10px"  text-anchor="middle"><tspan x="0" y="0">C5</tspan></text></a><g id="ak" class="Interaction" color="#000" ><g color="#000" fill="transparent"  filter="url(#b)" stroke="#000" stroke-dasharray="35.484898822073184, 1"><path class="EdgeBody" d="m694.39 461.72-0.060606-36.485"   marker-end="url(#e)" /></g></g><g id="al" class="DirectedInteraction" color="#0033cc" ><g color="#0033cc" fill="transparent"  filter="url(#d)" stroke="#000" stroke-dasharray="63.25860227009578, 5.8"><path class="EdgeBody" d="m626.11 506.52h8.881c8.881-4e-14 26.643-4e-14 35.524-4.1345 8.881-4.1345 8.881-12.404 8.881-16.538v-4.1345"   marker-end="url(#c)" /></g></g><text class="Text" transform="translate(5,36)" dominant-baseline="central" fill="black"  font-size="12px" font-weight="bold" overflow="visible" ><tspan x="0" y="-18">Name: Complement activation</tspan> <tspan x="0" y="0">License: CC BY 2.0</tspan> <tspan x="0" y="18">Organism: Homo sapiens</tspan></text></g></svg>
