<?xml version="1.0" encoding="UTF-8"?>
<!--
  WikiPathways page: https://www.wikipathways.org/index.php/Pathway:WP550
  URL for this compressed file: https://github.com/eweitz/cachome/tree/main/data/wikipathways/WP550.svg
  Source code for compression: https://github.com/eweitz/cachome/tree/main/src/wikipathways.py
-->
<svg class="Diagram" width="800" height="600" color="black" baseProfile="full" prefix="schema:http://schema.org/" preserveAspectRatio="xMidYMid" version="1.1" viewBox="0 0 818.67 694.19" vocab="http://vocabularies.wikipathways.org/wp#" xmlns="http://www.w3.org/2000/svg" xmlns:xlink="http://www.w3.org/1999/xlink"><style>svg {font-family: 'Liberation Sans', Arial, sans-serif; }</style><defs><filter id="a" x="0" y="0" width="818.67" height="694.19" filterUnits="userSpaceOnUse"><feColorMatrix in="SourceGraphic" values="-1   0   0 0 0                   0  -1   0 0 0                   0   0  -1 0 0                   0   0   0 1 0"/></filter><marker id="d" stroke-dasharray="99999" markerHeight="12" markerUnits="userSpaceOnUse" markerWidth="12" orient="auto" preserveAspectRatio="none" refX="12" refY="6" viewBox="0 0 12 12"><path transform="rotate(180 6 6)" d="M12 11L0 6l12-5z" fill="currentColor" stroke-width="0"/></marker><marker id="c" stroke-dasharray="99999" markerHeight="12" markerUnits="userSpaceOnUse" markerWidth="12" orient="auto" preserveAspectRatio="none" refX="12" refY="6" viewBox="0 0 12 12"><circle transform="rotate(180 6 6)" cx="6" cy="6" r="5.3" fill="none" stroke="#000"/></marker><symbol id="e" overflow="visible" preserveAspectRatio="none" viewBox="0 0 100 100"><circle cx="50" cy="50" r="49" stroke="currentColor" vector-effect="non-scaling-stroke"/><path d="m1 1 99 99" stroke="currentColor" vector-effect="non-scaling-stroke"/></symbol><symbol id="b" preserveAspectRatio="none" viewBox="0 0 100 100"/></defs><g class="Viewport" color="black"  name="Name: Biogenic amine synthesis License: CC BY 2.0 Organism: Homo sapiens"><rect class="Icon" width="818.67" height="694.19" fill="#fff" stroke="#000" stroke-width="0"/><g id="f" class="DirectedInteraction" color="#000" ><g color="#000" fill="transparent"  filter="url(#a)" stroke="#000" stroke-dasharray="5.13, 3.08, 5.13, 3.08, 5.13, 3.08, 5.13, 3.08, 5.13, 3.08, 5.13, 3.08, 5.13, 3.08, 5.13, 3.08, 5.13, 3.08, 0, 5.8"><path class="EdgeBody" d="m65.333 348.87 0.15 76.652"   marker-end="url(#d)" /></g><g class="Burr Anchor" transform="translate(65.393 379.53)" ><use class="Icon" width="0" height="0" fill="#141414" stroke-width="0" xlink:href="#b"/></g></g><g id="g" class="DirectedInteraction" color="#000" ><g color="#000" fill="transparent"  filter="url(#a)" stroke="#000" stroke-dasharray="64.33932365101778, 5.8"><path class="EdgeBody" d="m694.42 435.87 0.91667 70.133"   marker-end="url(#d)" /></g><g class="Burr Anchor" transform="translate(694.88 471.24)" ><use class="Icon" width="0" height="0" fill="#141414" stroke-width="0" xlink:href="#b"/></g></g><g id="h" class="DirectedInteraction" color="#000" ><g color="#000" fill="transparent"  filter="url(#a)" stroke="#000" stroke-dasharray="58.53527630917414, 5.8"><path class="EdgeBody" d="m536.17 259.53-0.5 64.333"   marker-end="url(#d)" /></g><g class="Burr Anchor" transform="translate(535.97 285.27)" ><use class="Icon" width="0" height="0" fill="#141414" stroke-width="0" xlink:href="#b"/></g></g><g id="i" class="DirectedInteraction" color="#000" ><g color="#000" fill="transparent"  filter="url(#a)" stroke="#000" stroke-dasharray="86.53333333333303, 5.8"><path class="EdgeBody" d="m203.33 245.2-3e-14 92.333"   marker-end="url(#d)" /></g><g class="Burr Anchor" transform="translate(203.33 282.13)" ><use class="Icon" width="0" height="0" fill="#141414" stroke-width="0" xlink:href="#b"/></g></g><g id="j" class="Interaction" color="#000" ><g color="#000" fill="transparent"  filter="url(#a)" stroke="#000" stroke-dasharray="18.703161073828046, 11"><path class="EdgeBody" d="m565.67 285.7-29.7-0.43333"   marker-end="url(#c)" /></g></g><g id="k" class="DirectedInteraction" color="#000" ><g color="#000" fill="transparent"  filter="url(#a)" stroke="#000" stroke-dasharray="68.53333333333332, 5.8"><path class="EdgeBody" d="m694 166.2v74.333"   marker-end="url(#d)" /></g><g class="Burr Anchor" transform="translate(694 195.93)" ><use class="Icon" width="0" height="0" fill="#141414" stroke-width="0" xlink:href="#b"/></g></g><g id="l" class="Interaction" color="#000" ><g color="#000" fill="transparent"  filter="url(#a)" stroke="#000" stroke-dasharray="23.667451914183417, 11"><path class="EdgeBody" d="m728.67 195.7-34.667 0.23333"   marker-end="url(#c)" /></g></g><g id="m" class="DirectedInteraction" color="#000" ><g color="#000" fill="transparent"  filter="url(#a)" stroke="#000" stroke-dasharray="64.20178569150933, 5.8"><path class="EdgeBody" d="m535.67 342.87 0.5 70"   marker-end="url(#d)" /></g><g class="Burr Anchor" transform="translate(535.91 377.5)" ><use class="Icon" width="0" height="0" fill="#141414" stroke-width="0" xlink:href="#b"/></g></g><g id="n" class="DirectedInteraction" color="#000" ><g color="#000" fill="transparent"  filter="url(#a)" stroke="#000" stroke-dasharray="68.53352017913735, 5.8"><path class="EdgeBody" d="m536 166.2 0.16667 74.333"   marker-end="url(#d)" /></g><g class="Burr Anchor" transform="translate(536.07 195.93)" ><use class="Icon" width="0" height="0" fill="#141414" stroke-width="0" xlink:href="#b"/></g></g><g id="o" class="Interaction" color="#000" ><g color="#000" fill="transparent"  filter="url(#a)" stroke="#000" stroke-dasharray="18.605423677277543, 11"><path class="EdgeBody" d="m565.67 195.37-29.6 0.56667"   marker-end="url(#c)" /></g></g><g id="p" class="Interaction" color="#000" ><g color="#000" fill="transparent"  filter="url(#a)" stroke="#000" stroke-dasharray="15.385340637691225, 11"><path class="EdgeBody" d="m91.333 374.7-25.94 4.8273"   marker-end="url(#c)" /></g></g><g id="q" class="DirectedInteraction" color="#000" ><g color="#000" fill="transparent"  filter="url(#a)" stroke="#000" stroke-dasharray="68.20117303875062, 5.8"><path class="EdgeBody" d="m694 342.87 0.41667 74"   marker-end="url(#d)" /></g><g class="Burr Anchor" transform="translate(694.17 372.47)" ><use class="Icon" width="0" height="0" fill="#141414" stroke-width="0" xlink:href="#b"/></g></g><g id="r" class="Interaction" color="#000" ><g color="#000" fill="transparent"  filter="url(#a)" stroke="#000" stroke-dasharray="11.501209844016042, 11"><path class="EdgeBody" d="m671.67 372.7 22.5-0.23333"   marker-end="url(#c)" /></g></g><g id="s" class="Interaction" color="#000" ><g color="#000" fill="transparent"  filter="url(#a)" stroke="#000" stroke-dasharray="13.758398054077443, 11"><path class="EdgeBody" d="m560.67 378.03-24.753-0.53452"   marker-end="url(#c)" /></g></g><g id="t" class="DirectedInteraction" color="#000" ><g color="#000" fill="transparent"  filter="url(#a)" stroke="#000" stroke-dasharray="84.66666666666661, 5.8"><path class="EdgeBody" d="m343.33 246.2 1.3e-13 90.467"   marker-end="url(#d)" /></g><g class="Burr Anchor" transform="translate(343.33 282.39)" ><use class="Icon" width="0" height="0" fill="#141414" stroke-width="0" xlink:href="#b"/></g></g><g id="u" class="Interaction" color="#000" ><g color="#000" fill="transparent"  filter="url(#a)" stroke="#000" stroke-dasharray="11.217109467535664, 11"><path class="EdgeBody" d="m672.67 471.7 22.212-0.46069"   marker-end="url(#c)" /></g></g><g id="v" class="DirectedInteraction" color="#000" ><g color="#000" fill="transparent"  filter="url(#a)" stroke="#000" stroke-dasharray="74.33766627220658, 5.8"><path class="EdgeBody" d="m536.17 431.87-0.83333 80.133"   marker-end="url(#d)" /></g><g class="Burr Anchor" transform="translate(535.83 463.92)" ><use class="Icon" width="0" height="0" fill="#141414" stroke-width="0" xlink:href="#b"/></g></g><g id="w" class="DirectedInteraction" color="#000" ><g color="#000" fill="transparent"  filter="url(#a)" stroke="#000" stroke-dasharray="5.07, 3.04, 5.07, 3.04, 5.07, 3.04, 5.07, 3.04, 5.07, 3.04, 5.07, 3.04, 5.07, 3.04, 5.07, 3.04, 5.07, 3.04, 5.07, 3.04, 5.07, 3.04, 5.07, 3.04, 5.07, 3.04, 5.07, 3.04, 5.07, 3.04, 5.07, 3.04, 5.07, 3.04, 5.07, 3.04, 5.07, 3.04, 5.07, 3.04, 5.07, 3.04, 5.07, 3.04, 5.07, 3.04, 5.07, 3.04, 5.07, 3.04, 5.07, 3.04, 5.07, 3.04, 5.07, 3.04, 5.07, 3.04, 5.07, 3.04, 5.07, 3.04, 5.07, 3.04, 5.07, 3.04, 5.07, 3.04, 5.07, 3.04, 5.07, 3.04, 5.07, 3.04, 5.07, 3.04, 0, 5.8"><path class="EdgeBody" d="m495.5 333.37h-19.5v291.63"   marker-end="url(#d)" /></g><g class="Burr Anchor" transform="translate(476 587.65)" ><use class="Icon" width="0" height="0" fill="#141414" stroke-width="0" xlink:href="#b"/></g></g><g id="x" class="Interaction" color="#000" ><g color="#000" fill="transparent"  filter="url(#a)" stroke="#000" stroke-dasharray="22.351511386215698, 11"><path class="EdgeBody" d="m442.65 587.61 33.351 0.044158"   marker-end="url(#c)" /></g></g><g id="y" class="DirectedInteraction" color="#000" ><g color="#000" fill="transparent"  filter="url(#a)" stroke="#000" stroke-dasharray="79.53333333333335, 5.8"><path class="EdgeBody" d="m65.333 244.53v85.333"   marker-end="url(#d)" /></g><g class="Burr Anchor" transform="translate(65.333 278.67)" ><use class="Icon" width="0" height="0" fill="#141414" stroke-width="0" xlink:href="#b"/></g></g><g id="z" class="DirectedInteraction" color="#000" ><g color="#000" fill="transparent"  filter="url(#a)" stroke="#000" stroke-dasharray="58.533333333333374, 5.8"><path class="EdgeBody" d="m694 259.53v64.333"   marker-end="url(#d)" /></g><g class="Burr Anchor" transform="translate(694 290)" ><use class="Icon" width="0" height="0" fill="#141414" stroke-width="0" xlink:href="#b"/></g></g><g id="aa" class="Interaction" color="#000" ><g color="#000" fill="transparent"  filter="url(#a)" stroke="#000" stroke-dasharray="19.67465475672778, 11"><path class="EdgeBody" d="m724.67 290.7-30.667-0.7"   marker-end="url(#c)" /></g></g><g id="ab" class="DirectedInteraction" color="#000" ><g color="#000" fill="transparent"  filter="url(#a)" stroke="#000" stroke-dasharray="5.07, 3.04, 5.07, 3.04, 5.07, 3.04, 5.07, 3.04, 5.07, 3.04, 5.07, 3.04, 5.07, 3.04, 5.07, 3.04, 5.07, 3.04, 5.07, 3.04, 5.07, 3.04, 5.07, 3.04, 5.07, 3.04, 5.07, 3.04, 5.07, 3.04, 5.07, 3.04, 5.07, 3.04, 5.07, 3.04, 5.07, 3.04, 5.07, 3.04, 5.07, 3.04, 5.07, 3.04, 5.07, 3.04, 5.07, 3.04, 5.07, 3.04, 5.07, 3.04, 5.07, 3.04, 5.07, 3.04, 5.07, 3.04, 5.07, 3.04, 5.07, 3.04, 5.07, 3.04, 5.07, 3.04, 5.07, 3.04, 5.07, 3.04, 5.07, 3.04, 5.07, 3.04, 5.07, 3.04, 5.07, 3.04, 5.07, 3.04, 5.07, 3.04, 0, 5.8"><path class="EdgeBody" d="m735.67 333.37h34.604v300.83"   marker-end="url(#d)" /></g><g class="Burr Anchor" transform="translate(770.27 568.97)" ><use class="Icon" width="0" height="0" fill="#141414" stroke-width="0" xlink:href="#b"/></g><g class="Burr Anchor" transform="translate(770.27 425.59)" ><use class="Icon" width="0" height="0" fill="#141414" stroke-width="0" xlink:href="#b"/></g><g class="Burr Anchor" transform="translate(770.27 515.43)" ><use class="Icon" width="0" height="0" fill="#141414" stroke-width="0" xlink:href="#b"/></g></g><g id="ac" class="Interaction" color="#000" ><g color="#000" fill="transparent"  filter="url(#a)" stroke="#000" stroke-dasharray="5.68, 3.41, 5.68, 3.41, 5.68, 3.41, 5.68, 0"><path class="EdgeBody" d="m737.33 426.37 32.938-0.77683"   /></g></g><g id="ad" class="Interaction" color="#000" ><g color="#000" fill="transparent"  filter="url(#a)" stroke="#000" stroke-dasharray="6, 3.6, 6, 3.6, 6, 3.6, 6, 3.6, 0, 0"><path class="EdgeBody" d="m735.33 516 34.938-0.5735"   /></g></g><g id="ae" class="Interaction" color="#000" ><g color="#000" fill="transparent"  filter="url(#a)" stroke="#000" stroke-dasharray="6.00264685276969, 11"><path class="EdgeBody" d="m82.333 278.37-17 0.3"   marker-end="url(#c)" /></g></g><g id="af" class="Interaction" color="#000" ><g color="#000" fill="transparent"  filter="url(#a)" stroke="#000" stroke-dasharray="71.84231715199122, 11"><path class="EdgeBody" d="m618.67 462.7-82.833 1.22"   marker-end="url(#c)" /></g></g><g id="ag" class="DirectedInteraction" color="#000" ><g color="#000" fill="transparent"  filter="url(#a)" stroke="#000" stroke-dasharray="71.86666666666666, 5.8"><path class="EdgeBody" d="m694 69.533v77.667"   marker-end="url(#d)" /></g><g class="Burr Anchor" transform="translate(694 100.6)" ><use class="Icon" width="0" height="0" fill="#141414" stroke-width="0" xlink:href="#b"/></g></g><g id="ah" class="Interaction" color="#000" ><g color="#000" fill="transparent"  filter="url(#a)" stroke="#000" stroke-dasharray="21.66749998937098, 11"><path class="EdgeBody" d="m726.67 100.37-32.667 0.23333"   marker-end="url(#c)" /></g></g><g id="ai" class="Interaction" color="#000" ><g color="#000" fill="transparent"  filter="url(#a)" stroke="#000" stroke-dasharray="81.0065758519466, 11"><path class="EdgeBody" d="m295.33 281.03-92 1.1"   marker-end="url(#c)" /></g></g><g id="aj" class="Interaction" color="#000" ><g color="#000" fill="transparent"  filter="url(#a)" stroke="#000" stroke-dasharray="14.87436515173654, 11"><path class="EdgeBody" d="m744.41 568.11 25.86 0.85898"   marker-end="url(#c)" /></g></g><g id="ak" class="Interaction" color="#000" ><g color="#000" fill="transparent"  filter="url(#a)" stroke="#000" stroke-dasharray="9.669686876088544, 11"><path class="EdgeBody" d="m364 282.03-20.667 0.35333"   marker-end="url(#c)" /></g></g><g class="SingleFreeNode Shape" transform="translate(755.27 634.19)" color="#000" ><use class="Icon" transform="matrix(.96774 0 0 .96774 .48387 .48387)" width="30" height="30" fill="transparent"  stroke="#000" xlink:href="#e"/></g><g class="SingleFreeNode Shape" transform="translate(461,625)" color="#000" ><use class="Icon" transform="matrix(.96774 0 0 .96774 .48387 .48387)" width="30" height="30" fill="transparent"  stroke="#000" xlink:href="#e"/></g><g class="Label" transform="translate(31.333 121)" color="#000"  name="Synthesis pathways for biogenic amines follow solid arrows through enzymatic steps, while degradation steps follow dashed arrows."><rect class="Icon" transform="matrix(.99661 0 0 .98361 .4983 .4918)" width="293.67" height="60" fill="#fff" stroke="#000"/><text class="Text" transform="translate(146.83 33)"   font-size="10px" font-weight="bold"  text-anchor="middle"><tspan x="0" y="-11">Synthesis pathways for biogenic amines</tspan> <tspan x="0" y="0">follow solid arrows through enzymatic steps,</tspan> <tspan x="0" y="11">while degradation steps follow dashed arrows.</tspan></text></g><a class="CAS_62-49-7 Metabolite ChEBI_CHEBI_15354  " transform="translate(33.167 225.53)" color="#00f"  name="Choline"  ><rect class="Icon" transform="matrix(.98469 0 0 .95 .49235 .475)" width="64.333" height="19" fill="#fff" stroke="#00f"/><text class="Text" transform="translate(32.167 12.5)" fill="#00f"  font-size="10px"  text-anchor="middle"><tspan x="0" y="0">Choline</tspan></text></a><a class="Metabolite ChEBI_CHEBI_28918  " transform="translate(655.33 506)" color="#00f"  name="Epinephrine"  ><rect class="Icon" transform="matrix(.98765 0 0 .95238 .49383 .47619)" width="80" height="20" fill="#fff" stroke="#00f"/><text class="Text" transform="translate(40,13)" fill="#00f"  font-size="10px"  text-anchor="middle"><tspan x="0" y="0">Epinephrine</tspan></text></a><a class="CAS_4350-09-8 Metabolite ChEBI_CHEBI_58266 ChEBI_CHEBI_17780   " transform="translate(473 240.53)" color="#00f"  name="5-hydroxy-tryptophan"  ><rect class="Icon" transform="matrix(.99215 0 0 .95 .49607 .475)" width="126.33" height="19" fill="#fff" stroke="#00f"/><text class="Text" transform="translate(63.167 12.5)" fill="#00f"  font-size="10px"  text-anchor="middle"><tspan x="0" y="0">5-hydroxy-tryptophan</tspan></text></a><a  class="GeneProduct TPH1 " transform="translate(565.67 185.37)"   name="TPH1"  ><rect class="Icon" transform="matrix(.98361 0 0 .95238 .4918 .47619)" width="60" height="20" fill="#fff" stroke="#000"/><text class="Text" transform="translate(30,13)"   font-size="10px"  text-anchor="middle"><tspan x="0" y="0">TPH1</tspan></text></a><a class="CAS_1210-83-9 Metabolite ChEBI_CHEBI_17697  " transform="translate(491 412.87)" color="#00f"  name="Acetylserotonin"  ><rect class="Icon" transform="matrix(.98905 0 0 .95 .49453 .475)" width="90.333" height="19" fill="#fff" stroke="#00f"/><text class="Text" transform="translate(45.167 12.5)" fill="#00f"  font-size="10px"  text-anchor="middle"><tspan x="0" y="0">Acetylserotonin</tspan></text></a><a class="Metabolite ChEBI_CHEBI_16865  " transform="translate(303.33 336.67)" color="#00f"  name="GABA"  ><rect class="Icon" transform="matrix(.98765 0 0 .95238 .49383 .47619)" width="80" height="20" fill="#fff" stroke="#00f"/><text class="Text" transform="translate(40,13)" fill="#00f"  font-size="10px"  text-anchor="middle"><tspan x="0" y="0">GABA</tspan></text></a><a  class="GeneProduct DBH " transform="translate(633.33 362.7)"   name="DBH"  ><rect class="Icon" transform="matrix(.97458 0 0 .95238 .48729 .47619)" width="38.333" height="20" fill="#fff" stroke="#000"/><text class="Text" transform="translate(19.167 13)"   font-size="10px"  text-anchor="middle"><tspan x="0" y="0">DBH</tspan></text></a><a  class="GeneProduct DDC " transform="translate(565.67 275.7)"   name="DDC"  ><rect class="Icon" transform="matrix(.98361 0 0 .95238 .4918 .47619)" width="60" height="20" fill="#fff" stroke="#000"/><text class="Text" transform="translate(30,13)"   font-size="10px"  text-anchor="middle"><tspan x="0" y="0">DDC</tspan></text></a><a  class="GeneProduct TH " transform="translate(728.67 185.7)"   name="TH"  ><rect class="Icon" transform="matrix(.98361 0 0 .95238 .4918 .47619)" width="60" height="20" fill="#fff" stroke="#000"/><text class="Text" transform="translate(30,13)"   font-size="10px"  text-anchor="middle"><tspan x="0" y="0">TH</tspan></text></a><a class="CAS_59-92-7 Metabolite ChEBI_CHEBI_15765 ChEBI_CHEBI_57504   " transform="translate(660.83 240.53)" color="#00f"  name="L-DOPA"  ><rect class="Icon" transform="matrix(.98515 0 0 .95 .49257 .475)" width="66.333" height="19" fill="#fff" stroke="#00f"/><text class="Text" transform="translate(33.167 12.5)" fill="#00f"  font-size="10px"  text-anchor="middle"><tspan x="0" y="0">L-DOPA</tspan></text></a><a class="CAS_71-00-1 Metabolite ChEBI_CHEBI_57595 ChEBI_CHEBI_15971   " transform="translate(167.17 226.2)" color="#00f"  name="Histidine"  ><rect class="Icon" transform="matrix(.98636 0 0 .95 .49318 .475)" width="72.333" height="19" fill="#fff" stroke="#00f"/><text class="Text" transform="translate(36.167 12.5)" fill="#00f"  font-size="10px"  text-anchor="middle"><tspan x="0" y="0">Histidine</tspan></text></a><a  class="GeneProduct PNMT " transform="translate(628.33 461.7)"   name="PNMT"  ><rect class="Icon" transform="matrix(.97794 0 0 .95238 .48897 .47619)" width="44.333" height="20" fill="#fff" stroke="#000"/><text class="Text" transform="translate(22.167 13)"   font-size="10px"  text-anchor="middle"><tspan x="0" y="0">PNMT</tspan></text></a><a class="CAS_62-31-7 Metabolite ChEBI_CHEBI_18243 ChEBI_CHEBI_4698   " transform="translate(652.33 323.87)" color="#00f"  name="Dopamine"  ><rect class="Icon" transform="matrix(.98814 0 0 .95 .49407 .475)" width="83.333" height="19" fill="#fff" stroke="#00f"/><text class="Text" transform="translate(41.667 12.5)" fill="#00f"  font-size="10px"  text-anchor="middle"><tspan x="0" y="0">Dopamine</tspan></text></a><a  class="GeneProduct ACHE " transform="translate(91.333 364.7)"   name="ACHE"  ><rect class="Icon" transform="matrix(.98361 0 0 .95238 .4918 .47619)" width="60" height="20" fill="#fff" stroke="#000"/><text class="Text" transform="translate(30,13)"   font-size="10px"  text-anchor="middle"><tspan x="0" y="0">ACHE</tspan></text></a><a class="CAS_51-84-3 Metabolite ChEBI_CHEBI_15355  " transform="translate(24.917 329.87)" color="#00f"  name="Acetylcholine"  ><rect class="Icon" transform="matrix(.98778 0 0 .95 .49389 .475)" width="80.833" height="19" fill="#fff" stroke="#00f"/><text class="Text" transform="translate(40.417 12.5)" fill="#00f"  font-size="10px"  text-anchor="middle"><tspan x="0" y="0">Acetylcholine</tspan></text></a><a  class="GeneProduct PAH " transform="translate(726.67 90.367)"   name="PAH"  ><rect class="Icon" transform="matrix(.98361 0 0 .95238 .4918 .47619)" width="60" height="20" fill="#fff" stroke="#000"/><text class="Text" transform="translate(30,13)"   font-size="10px"  text-anchor="middle"><tspan x="0" y="0">PAH</tspan></text></a><a class="CAS_60-18-4 Metabolite ChEBI_CHEBI_17895 ChEBI_CHEBI_58315   " transform="translate(657.83 147.2)" color="#00f"  name="Tyrosine"  ><rect class="Icon" transform="matrix(.98636 0 0 .95 .49318 .475)" width="72.333" height="19" fill="#fff" stroke="#00f"/><text class="Text" transform="translate(36.167 12.5)" fill="#00f"  font-size="10px"  text-anchor="middle"><tspan x="0" y="0">Tyrosine</tspan></text></a><a  class="GeneProduct CHAT " transform="translate(82.333 268.37)"   name="CHAT"  ><rect class="Icon" transform="matrix(.97345 0 0 .95238 .48673 .47619)" width="36.667" height="20" fill="#fff" stroke="#000"/><text class="Text" transform="translate(18.333 13)"   font-size="10px"  text-anchor="middle"><tspan x="0" y="0">CHAT</tspan></text></a><a class="CAS_50-67-9 Metabolite ChEBI_CHEBI_28790  " transform="translate(495.5 323.87)" color="#00f"  name="Serotonin"  ><rect class="Icon" transform="matrix(.9877 0 0 .95 .49385 .475)" width="80.333" height="19" fill="#fff" stroke="#00f"/><text class="Text" transform="translate(40.167 12.5)" fill="#00f"  font-size="10px"  text-anchor="middle"><tspan x="0" y="0">Serotonin</tspan></text></a><a  class="GeneProduct AANAT " transform="translate(560.67 368.03)"   name="AANAT"  ><rect class="Icon" transform="matrix(.98361 0 0 .95238 .4918 .47619)" width="60" height="20" fill="#fff" stroke="#000"/><text class="Text" transform="translate(30,13)"   font-size="10px"  text-anchor="middle"><tspan x="0" y="0">AANAT</tspan></text></a><a class="CAS_63-91-2 Metabolite ChEBI_CHEBI_17295 ChEBI_CHEBI_58095   " transform="translate(637.33 50.533)" color="#00f"  name="Phenylalanine"  ><rect class="Icon" transform="matrix(.99125 0 0 .95 .49563 .475)" width="113.33" height="19" fill="#fff" stroke="#00f"/><text class="Text" transform="translate(56.667 12.5)" fill="#00f"  font-size="10px"  text-anchor="middle"><tspan x="0" y="0">Phenylalanine</tspan></text></a><a class="Metabolite ChEBI_CHEBI_16796  " transform="translate(495.33 512)" color="#00f"  name="Melatonin"  ><rect class="Icon" transform="matrix(.98765 0 0 .95238 .49383 .47619)" width="80" height="20" fill="#fff" stroke="#00f"/><text class="Text" transform="translate(40,13)" fill="#00f"  font-size="10px"  text-anchor="middle"><tspan x="0" y="0">Melatonin</tspan></text></a><a class="CAS_56-86-0 Metabolite ChEBI_CHEBI_16015  " transform="translate(302.17 227.2)" color="#00f"  name="Glutamate"  ><rect class="Icon" transform="matrix(.988 0 0 .95 .494 .475)" width="82.333" height="19" fill="#fff" stroke="#00f"/><text class="Text" transform="translate(41.167 12.5)" fill="#00f"  font-size="10px"  text-anchor="middle"><tspan x="0" y="0">Glutamate</tspan></text></a><a  class="GeneProduct MAOA " transform="translate(382.65 577.61)"   name="MAOA"  ><rect class="Icon" transform="matrix(.98361 0 0 .95238 .4918 .47619)" width="60" height="20" fill="#fff" stroke="#000"/><text class="Text" transform="translate(30,13)"   font-size="10px"  text-anchor="middle"><tspan x="0" y="0">MAOA</tspan></text></a><a class="CAS_73-22-3 Metabolite ChEBI_CHEBI_16828 ChEBI_CHEBI_57912   " transform="translate(488.83 147.2)" color="#00f"  name="Tryptophan"  ><rect class="Icon" transform="matrix(.98951 0 0 .95 .49476 .475)" width="94.333" height="19" fill="#fff" stroke="#00f"/><text class="Text" transform="translate(47.167 12.5)" fill="#00f"  font-size="10px"  text-anchor="middle"><tspan x="0" y="0">Tryptophan</tspan></text></a><a  class="GeneProduct ASMT " transform="translate(558.67 452.7)"   name="ASMT"  ><rect class="Icon" transform="matrix(.98361 0 0 .95238 .4918 .47619)" width="60" height="20" fill="#fff" stroke="#000"/><text class="Text" transform="translate(30,13)"   font-size="10px"  text-anchor="middle"><tspan x="0" y="0">ASMT</tspan></text></a><a class="CAS_51-41-2 Metabolite ChEBI_CHEBI_18357  " transform="translate(651.5 416.87)" color="#00f"  name="Norepinephrine"  ><rect class="Icon" transform="matrix(.98848 0 0 .95 .49424 .475)" width="85.833" height="19" fill="#fff" stroke="#00f"/><text class="Text" transform="translate(42.917 12.5)" fill="#00f"  font-size="10px"  text-anchor="middle"><tspan x="0" y="0">Norepinephrine</tspan></text></a><a class="CAS_51-45-6 Metabolite ChEBI_CHEBI_18295  " transform="translate(162.67 337.53)" color="#00f"  name="Histamine"  ><rect class="Icon" transform="matrix(.98785 0 0 .95 .49393 .475)" width="81.333" height="19" fill="#fff" stroke="#00f"/><text class="Text" transform="translate(40.667 12.5)" fill="#00f"  font-size="10px"  text-anchor="middle"><tspan x="0" y="0">Histamine</tspan></text></a><a  class="GeneProduct DDC " transform="translate(724.67 280.7)"   name="DDC"  ><rect class="Icon" transform="matrix(.98361 0 0 .95238 .4918 .47619)" width="60" height="20" fill="#fff" stroke="#000"/><text class="Text" transform="translate(30,13)"   font-size="10px"  text-anchor="middle"><tspan x="0" y="0">DDC</tspan></text></a><g class="GroupNone" transform="translate(218.33 252.03)" color="grey" ><rect class="Icon" transform="matrix(.98734 0 0 .98305 .49367 .49153)" width="78" height="58" fill="#b4b464" fill-opacity=".1" stroke="grey" stroke-dasharray="5,3"/><a  class="GeneProduct DDC " transform="translate(9,29)"   name="DDC"  ><rect class="Icon" transform="matrix(.98361 0 0 .95238 .4918 .47619)" width="60" height="20" fill="#fff" stroke="#000"/><text class="Text" transform="translate(30,13)"   font-size="10px"  text-anchor="middle"><tspan x="0" y="0">DDC</tspan></text></a><a  class="GeneProduct HDC " transform="translate(9,9)"   name="HDC"  ><rect class="Icon" transform="matrix(.98361 0 0 .95238 .4918 .47619)" width="60" height="20" fill="#fff" stroke="#000"/><text class="Text" transform="translate(30,13)"   font-size="10px"  text-anchor="middle"><tspan x="0" y="0">HDC</tspan></text></a></g><g class="GroupNone" transform="translate(667.41 539.11)" color="grey" ><rect class="Icon" transform="matrix(.98734 0 0 .98305 .49367 .49153)" width="78" height="58" fill="#b4b464" fill-opacity=".1" stroke="grey" stroke-dasharray="5,3"/><a  class="GeneProduct COMT " transform="translate(9 29)"   name="COMT"  ><rect class="Icon" transform="matrix(.98361 0 0 .95238 .4918 .47619)" width="60" height="20" fill="#fff" stroke="#000"/><text class="Text" transform="translate(30,13)"   font-size="10px"  text-anchor="middle"><tspan x="0" y="0">COMT</tspan></text></a><a  class="GeneProduct MAOA " transform="translate(9,9)"   name="MAOA"  ><rect class="Icon" transform="matrix(.98361 0 0 .95238 .4918 .47619)" width="60" height="20" fill="#fff" stroke="#000"/><text class="Text" transform="translate(30,13)"   font-size="10px"  text-anchor="middle"><tspan x="0" y="0">MAOA</tspan></text></a></g><g class="GroupNone" transform="translate(363 253.03)" color="grey" ><rect class="Icon" transform="matrix(.98734 0 0 .98305 .49367 .49153)" width="78" height="58" fill="#b4b464" fill-opacity=".1" stroke="grey" stroke-dasharray="5,3"/><a  class="GeneProduct GAD2 " transform="translate(9,29)"   name="GAD2"  ><rect class="Icon" transform="matrix(.98361 0 0 .95238 .4918 .47619)" width="60" height="20" fill="#fff" stroke="#000"/><text class="Text" transform="translate(30,13)"   font-size="10px"  text-anchor="middle"><tspan x="0" y="0">GAD2</tspan></text></a><a  class="GeneProduct GAD1 " transform="translate(9,9)"   name="GAD1"  ><rect class="Icon" transform="matrix(.98361 0 0 .95238 .4918 .47619)" width="60" height="20" fill="#fff" stroke="#000"/><text class="Text" transform="translate(30,13)"   font-size="10px"  text-anchor="middle"><tspan x="0" y="0">GAD1</tspan></text></a></g><g class="SingleFreeNode Shape" transform="translate(50.483 425.52)" color="#000" ><use class="Icon" transform="matrix(.96774 0 0 .96774 .48387 .48387)" width="30" height="30" fill="transparent"  stroke="#000" xlink:href="#e"/></g><text class="Text" transform="translate(5,36)" dominant-baseline="central" fill="black"  font-size="12px" font-weight="bold" overflow="visible" ><tspan x="0" y="-18">Name: Biogenic amine synthesis</tspan> <tspan x="0" y="0">License: CC BY 2.0</tspan> <tspan x="0" y="18">Organism: Homo sapiens</tspan></text></g></svg>
