<?xml version="1.0" encoding="UTF-8"?>
<!--
  WikiPathways page: https://www.wikipathways.org/index.php/Pathway:WP623
  URL for this compressed file: https://github.com/eweitz/cachome/tree/main/data/wikipathways/WP623.svg
  Source code for compression: https://github.com/eweitz/cachome/tree/main/src/wikipathways.py
-->
<svg class="Diagram" width="800" height="600" color="black" baseProfile="full" prefix="schema:http://schema.org/" preserveAspectRatio="xMidYMid" version="1.1" viewBox="0 0 770 422" vocab="http://vocabularies.wikipathways.org/wp#" xmlns="http://www.w3.org/2000/svg" xmlns:xlink="http://www.w3.org/1999/xlink"><style>svg {font-family: 'Liberation Sans', Arial, sans-serif; }</style><defs><filter id="b" x="0" y="0" width="770" height="422" filterUnits="userSpaceOnUse"><feColorMatrix in="SourceGraphic" values="-1   0   0 0 0                   0  -1   0 0 0                   0   0  -1 0 0                   0   0   0 1 0"/></filter><marker id="c" stroke-dasharray="99999" markerHeight="12" markerUnits="userSpaceOnUse" markerWidth="12" orient="auto" preserveAspectRatio="none" refX="12" refY="6" viewBox="0 0 12 12"><path transform="rotate(180 6 6)" d="M12 11L0 6l12-5z" fill="currentColor" stroke-width="0"/></marker><marker id="d" stroke-dasharray="99999" markerHeight="12" markerUnits="userSpaceOnUse" markerWidth="12" orient="auto" preserveAspectRatio="none" refX="12" refY="6" viewBox="0 0 12 12"><circle transform="rotate(180 6 6)" cx="6" cy="6" r="5.3" fill="none" stroke="#000"/></marker><symbol id="e" overflow="visible" preserveAspectRatio="none" viewBox="0 0 100 100"><path d="M0 25L25 0h50l25 25v50l-25 25H25L0 75z" stroke="currentColor" vector-effect="non-scaling-stroke"/></symbol><symbol id="a" preserveAspectRatio="none" viewBox="0 0 100 100"/></defs><g class="Viewport" color="black"  name="Name: Oxidative phosphorylation Organism: Homo sapiens"><rect class="Icon" width="770" height="422" fill="#fff" stroke="#000" stroke-width="0"/><g id="f" class="DirectedInteraction" color="#000" ><g color="#000" fill="transparent"  filter="url(#b)" stroke="#000" stroke-dasharray="99.2, 5.8"><path class="EdgeBody" d="m186 81h105"   marker-end="url(#c)" /></g><g class="Burr Anchor" transform="translate(238.5,81)" ><use class="Icon" width="0" height="0" fill="#141414" stroke-width="0" xlink:href="#a"/></g><g class="Burr Anchor" transform="translate(259.5,81)" ><use class="Icon" width="0" height="0" fill="#141414" stroke-width="0" xlink:href="#a"/></g></g><g id="g" class="DirectedInteraction" color="#000" ><g color="#000" fill="transparent"  filter="url(#b)" stroke="#000" stroke-dasharray="142.2032666681531, 5.8"><path class="EdgeBody" d="m512 130.98 148-0.98333"   marker-end="url(#c)" /></g><g class="Burr Anchor" transform="translate(590.04 130.46)" ><use class="Icon" width="0" height="0" fill="#141414" stroke-width="0" xlink:href="#a"/></g><g class="Burr Anchor" transform="translate(571.2,130.59)" ><use class="Icon" width="0" height="0" fill="#141414" stroke-width="0" xlink:href="#a"/></g></g><g id="h" class="DirectedInteraction" color="#000" ><g color="#000" fill="transparent"  filter="url(#b)" stroke="#000" stroke-dasharray="43.6245698008592, 5.8"><path class="EdgeBody" d="m543 90 28.2 40.59"   marker-end="url(#c)" /></g></g><g id="i" class="DirectedInteraction" color="#000" ><g color="#000" fill="transparent"  filter="url(#b)" stroke="#000" stroke-dasharray="302.7578135039183, 5.8"><path class="EdgeBody" d="m259.5 81v-8.5c0-8.5 0-25.5 43.917-34 43.917-8.5 131.75-8.5 175.67-1.8333 43.917 6.6667 43.917 20 43.917 26.667l1e-13 6.6667"   marker-end="url(#c)" /></g></g><g id="j" class="Interaction" color="#000" ><g color="#000" fill="transparent"  filter="url(#b)" stroke="#000" stroke-dasharray="48.02758288089024, 11"><path class="EdgeBody" d="m589 189.48 1.0368-59.018"   marker-end="url(#d)" /></g></g><g id="k" class="Interaction" color="#000" ><g color="#000" fill="transparent"  filter="url(#b)" stroke="#000" stroke-dasharray="68.00158226263572, 11"><path class="EdgeBody" d="m238 160 0.5-79"   marker-end="url(#d)" /></g></g><g class="Label" transform="translate(56,131)" color="#000"  name="Nicotinamide nucleotide  transhydrogenase"><use class="Icon" width="171" height="34" fill="transparent"  stroke="#000" stroke-width="0" xlink:href="#a"/><text class="Text" transform="translate(85.5,21)"   font-size="12px" font-weight="bold"  text-anchor="middle"><tspan x="0" y="-6.6000000000000005">Nicotinamide nucleotide </tspan> <tspan x="0" y="6.6000000000000005">transhydrogenase</tspan></text></g><g class="Label" transform="translate(455,173)" color="#000"  name="ATP synthase"><use class="Icon" width="104" height="20" fill="transparent"  stroke="#000" stroke-width="0" xlink:href="#a"/><text class="Text" transform="translate(52,14)"   font-size="12px" font-weight="bold"  text-anchor="middle"><tspan x="0" y="0">ATP synthase</tspan></text></g><a class="Metabolite ChEBI_CHEBI_44215  " transform="translate(291,71)" color="#00f"  name="NAD"  ><rect class="Icon" transform="matrix(.98765 0 0 .95238 .49383 .47619)" width="80" height="20" fill="#fff" stroke="#00f"/><text class="Text" transform="translate(40,13)" fill="#00f"  font-size="10px"  text-anchor="middle"><tspan x="0" y="0">NAD</tspan></text></a><a class="Metabolite ChEBI_CHEBI_16908  " transform="translate(106,71)" color="#00f"  name="NADH"  ><rect class="Icon" transform="matrix(.98765 0 0 .95238 .49383 .47619)" width="80" height="20" fill="#fff" stroke="#00f"/><text class="Text" transform="translate(40,13)" fill="#00f"  font-size="10px"  text-anchor="middle"><tspan x="0" y="0">NADH</tspan></text></a><a class="Metabolite ChEBI_CHEBI_16761  " transform="translate(428.48 120.98)" color="#00f"  name="ADP"  ><rect class="Icon" transform="matrix(.98817 0 0 .95238 .49408 .47619)" width="83.517" height="20" fill="#fff" stroke="#00f"/><text class="Text" transform="translate(41.758 13)" fill="#00f"  font-size="10px"  text-anchor="middle"><tspan x="0" y="0">ADP</tspan></text></a><a class="Metabolite ChEBI_CHEBI_15422  " transform="translate(660,120)" color="#00f"  name="ATP"  ><rect class="Icon" transform="matrix(.98765 0 0 .95238 .49383 .47619)" width="80" height="20" fill="#fff" stroke="#00f"/><text class="Text" transform="translate(40,13)" fill="#00f"  font-size="10px"  text-anchor="middle"><tspan x="0" y="0">ATP</tspan></text></a><a class="ChEBI_CHEBI_15378 Metabolite  " transform="translate(483,70)" color="#00f"  name="Hydrogen"  ><rect class="Icon" transform="matrix(.98765 0 0 .95238 .49383 .47619)" width="80" height="20" fill="#fff" stroke="#00f"/><text class="Text" transform="translate(40,13)" fill="#00f"  font-size="10px"  text-anchor="middle"><tspan x="0" y="0">Hydrogen</tspan></text></a><g class="GroupComplex" transform="translate(457 189.48)" color="grey" ><use class="Icon" transform="matrix(.99623 0 0 .99394 .49811 .49697)" width="264" height="164" fill="#b4b464" fill-opacity=".1" stroke="grey" xlink:href="#e"/><a  class="GeneProduct ATP5D " transform="translate(92,72)"   name="ATP5D"  ><rect class="Icon" transform="matrix(.98765 0 0 .95238 .49383 .47619)" width="80" height="20" fill="#fff" stroke="#000"/><text class="Text" transform="translate(40,13)"   font-size="10px"  text-anchor="middle"><tspan x="0" y="0">ATP5D</tspan></text></a><a  class="GeneProduct ATP5G3 " transform="translate(12,92)"   name="ATP5G3"  ><rect class="Icon" transform="matrix(.98765 0 0 .95238 .49383 .47619)" width="80" height="20" fill="#fff" stroke="#000"/><text class="Text" transform="translate(40,13)"   font-size="10px"  text-anchor="middle"><tspan x="0" y="0">ATP5G3</tspan></text></a><a  class="GeneProduct ATP5G1 " transform="translate(92,92)"   name="ATP5G1"  ><rect class="Icon" transform="matrix(.98765 0 0 .95238 .49383 .47619)" width="80" height="20" fill="#fff" stroke="#000"/><text class="Text" transform="translate(40,13)"   font-size="10px"  text-anchor="middle"><tspan x="0" y="0">ATP5G1</tspan></text></a><a  class="GeneProduct -ATP6 MT-ATP6 -ATP6 " transform="translate(172,112)"   name="ATP6"  ><rect class="Icon" transform="matrix(.98765 0 0 .95238 .49383 .47619)" width="80" height="20" fill="#fff" stroke="#000"/><text class="Text" transform="translate(40,13)"   font-size="10px"  text-anchor="middle"><tspan x="0" y="0">ATP6</tspan></text></a><a  class="GeneProduct ATP5O " transform="translate(12 32)"   name="ATP5O"  ><rect class="Icon" transform="matrix(.98765 0 0 .95238 .49383 .47619)" width="80" height="20" fill="#fff" stroke="#000"/><text class="Text" transform="translate(40,13)"   font-size="10px"  text-anchor="middle"><tspan x="0" y="0">ATP5O</tspan></text></a><a  class="GeneProduct ATP5F1 " transform="translate(12 52)"   name="ATP5F1"  ><rect class="Icon" transform="matrix(.98765 0 0 .95238 .49383 .47619)" width="80" height="20" fill="#fff" stroke="#000"/><text class="Text" transform="translate(40,13)"   font-size="10px"  text-anchor="middle"><tspan x="0" y="0">ATP5F1</tspan></text></a><a  class="GeneProduct ATP5L " transform="translate(92,132)"   name="ATP5L"  ><rect class="Icon" transform="matrix(.98765 0 0 .95238 .49383 .47619)" width="80" height="20" fill="#fff" stroke="#000"/><text class="Text" transform="translate(40,13)"   font-size="10px"  text-anchor="middle"><tspan x="0" y="0">ATP5L</tspan></text></a><a  class="GeneProduct -ATP6 MT-ATP6 -ATP6 " transform="translate(92,32)"   name="MT-ATP6"  ><rect class="Icon" transform="matrix(.98765 0 0 .95238 .49383 .47619)" width="80" height="20" fill="#fff" stroke="#000"/><text class="Text" transform="translate(40,13)"   font-size="10px"  text-anchor="middle"><tspan x="0" y="0">MT-ATP6</tspan></text></a><a  class="GeneProduct MTCO3P12 " transform="translate(172,72)"   name="MT-ATP8"  ><rect class="Icon" transform="matrix(.98765 0 0 .95238 .49383 .47619)" width="80" height="20" fill="#fff" stroke="#000"/><text class="Text" transform="translate(40,13)"   font-size="10px"  text-anchor="middle"><tspan x="0" y="0">MT-ATP8</tspan></text></a><a  class="GeneProduct ATP5G2 " transform="translate(172,32)"   name="ATP5G2"  ><rect class="Icon" transform="matrix(.98765 0 0 .95238 .49383 .47619)" width="80" height="20" fill="#fff" stroke="#000"/><text class="Text" transform="translate(40,13)"   font-size="10px"  text-anchor="middle"><tspan x="0" y="0">ATP5G2</tspan></text></a><a  class="GeneProduct ATP5H " transform="translate(172,132)"   name="ATP5H"  ><rect class="Icon" transform="matrix(.98765 0 0 .95238 .49383 .47619)" width="80" height="20" fill="#fff" stroke="#000"/><text class="Text" transform="translate(40,13)"   font-size="10px"  text-anchor="middle"><tspan x="0" y="0">ATP5H</tspan></text></a><a  class="GeneProduct ATP5G1 " transform="translate(92,112)"   name="ATP5G1"  ><rect class="Icon" transform="matrix(.98765 0 0 .95238 .49383 .47619)" width="80" height="20" fill="#fff" stroke="#000"/><text class="Text" transform="translate(40,13)"   font-size="10px"  text-anchor="middle"><tspan x="0" y="0">ATP5G1</tspan></text></a><a  class="GeneProduct ATP6AP1 " transform="translate(12,72)"   name="ATP6AP1"  ><rect class="Icon" transform="matrix(.98765 0 0 .95238 .49383 .47619)" width="80" height="20" fill="#fff" stroke="#000"/><text class="Text" transform="translate(40,13)"   font-size="10px"  text-anchor="middle"><tspan x="0" y="0">ATP6AP1</tspan></text></a><a  class="GeneProduct ATP5E " transform="translate(92,52)"   name="ATP5E"  ><rect class="Icon" transform="matrix(.98765 0 0 .95238 .49383 .47619)" width="80" height="20" fill="#fff" stroke="#000"/><text class="Text" transform="translate(40,13)"   font-size="10px"  text-anchor="middle"><tspan x="0" y="0">ATP5E</tspan></text></a><a  class="GeneProduct ATP5I " transform="translate(92,12)"   name="ATP5I"  ><rect class="Icon" transform="matrix(.98765 0 0 .95238 .49383 .47619)" width="80" height="20" fill="#fff" stroke="#000"/><text class="Text" transform="translate(40,13)"   font-size="10px"  text-anchor="middle"><tspan x="0" y="0">ATP5I</tspan></text></a><a  class="GeneProduct ATP5B " transform="translate(12,112)"   name="ATP5B"  ><rect class="Icon" transform="matrix(.98765 0 0 .95238 .49383 .47619)" width="80" height="20" fill="#fff" stroke="#000"/><text class="Text" transform="translate(40,13)"   font-size="10px"  text-anchor="middle"><tspan x="0" y="0">ATP5B</tspan></text></a><a  class="GeneProduct ATP5S " transform="translate(12 12)"   name="ATP5S"  ><rect class="Icon" transform="matrix(.98765 0 0 .95238 .49383 .47619)" width="80" height="20" fill="#fff" stroke="#000"/><text class="Text" transform="translate(40,13)"   font-size="10px"  text-anchor="middle"><tspan x="0" y="0">ATP5S</tspan></text></a><a  class="GeneProduct ATP5J " transform="translate(172,12)"   name="ATP5J"  ><rect class="Icon" transform="matrix(.98765 0 0 .95238 .49383 .47619)" width="80" height="20" fill="#fff" stroke="#000"/><text class="Text" transform="translate(40,13)"   font-size="10px"  text-anchor="middle"><tspan x="0" y="0">ATP5J</tspan></text></a><a  class="GeneProduct ATP6AP2 " transform="translate(172,52)"   name="ATP6AP2"  ><rect class="Icon" transform="matrix(.98765 0 0 .95238 .49383 .47619)" width="80" height="20" fill="#fff" stroke="#000"/><text class="Text" transform="translate(40,13)"   font-size="10px"  text-anchor="middle"><tspan x="0" y="0">ATP6AP2</tspan></text></a><a  class="GeneProduct ATP5J2 " transform="translate(172,92)"   name="ATP5J2"  ><rect class="Icon" transform="matrix(.98765 0 0 .95238 .49383 .47619)" width="80" height="20" fill="#fff" stroke="#000"/><text class="Text" transform="translate(40,13)"   font-size="10px"  text-anchor="middle"><tspan x="0" y="0">ATP5J2</tspan></text></a><a  class="GeneProduct ATP5A1 " transform="translate(12,132)"   name="ATP5A1"  ><rect class="Icon" transform="matrix(.98765 0 0 .95238 .49383 .47619)" width="80" height="20" fill="#fff" stroke="#000"/><text class="Text" transform="translate(40,13)"   font-size="10px"  text-anchor="middle"><tspan x="0" y="0">ATP5A1</tspan></text></a></g><g class="GroupComplex" transform="translate(66,160)" color="grey" ><use class="Icon" transform="matrix(.9971 0 0 .99592 .49855 .49796)" width="344" height="244" fill="#b4b464" fill-opacity=".1" stroke="grey" xlink:href="#e"/><a  class="GeneProduct NDUFS7 " transform="translate(12,112)"   name="NDUFS7"  ><rect class="Icon" transform="matrix(.98765 0 0 .95238 .49383 .47619)" width="80" height="20" fill="#fff" stroke="#000"/><text class="Text" transform="translate(40,13)"   font-size="10px"  text-anchor="middle"><tspan x="0" y="0">NDUFS7</tspan></text></a><a  class="GeneProduct NDUFA4 " transform="translate(12,132)"   name="NDUFA4"  ><rect class="Icon" transform="matrix(.98765 0 0 .95238 .49383 .47619)" width="80" height="20" fill="#fff" stroke="#000"/><text class="Text" transform="translate(40,13)"   font-size="10px"  text-anchor="middle"><tspan x="0" y="0">NDUFA4</tspan></text></a><a  class="GeneProduct NDUFB4 " transform="translate(92,112)"   name="NDUFB4"  ><rect class="Icon" transform="matrix(.98765 0 0 .95238 .49383 .47619)" width="80" height="20" fill="#fff" stroke="#000"/><text class="Text" transform="translate(40,13)"   font-size="10px"  text-anchor="middle"><tspan x="0" y="0">NDUFB4</tspan></text></a><a  class="GeneProduct NDUFS5 " transform="translate(252,72)"   name="NDUFS5"  ><rect class="Icon" transform="matrix(.98765 0 0 .95238 .49383 .47619)" width="80" height="20" fill="#fff" stroke="#000"/><text class="Text" transform="translate(40,13)"   font-size="10px"  text-anchor="middle"><tspan x="0" y="0">NDUFS5</tspan></text></a><a  class="GeneProduct NDUFB9 " transform="translate(252,132)"   name="B22"  ><rect class="Icon" transform="matrix(.98765 0 0 .95238 .49383 .47619)" width="80" height="20" fill="#fff" stroke="#000"/><text class="Text" transform="translate(40,13)"   font-size="10px"  text-anchor="middle"><tspan x="0" y="0">B22</tspan></text></a><a  class="GeneProduct NDUFS1 " transform="translate(12,172)"   name="CI-75Kd"  ><rect class="Icon" transform="matrix(.98765 0 0 .95238 .49383 .47619)" width="80" height="20" fill="#fff" stroke="#000"/><text class="Text" transform="translate(40,13)"   font-size="10px"  text-anchor="middle"><tspan x="0" y="0">CI-75Kd</tspan></text></a><a  class="GeneProduct NDUFA3 " transform="translate(12,32)"   name="B9"  ><rect class="Icon" transform="matrix(.98765 0 0 .95238 .49383 .47619)" width="80" height="20" fill="#fff" stroke="#000"/><text class="Text" transform="translate(40,13)"   font-size="10px"  text-anchor="middle"><tspan x="0" y="0">B9</tspan></text></a><a  class="GeneProduct NDUFB7 " transform="translate(172,152)"   name="B18"  ><rect class="Icon" transform="matrix(.98765 0 0 .95238 .49383 .47619)" width="80" height="20" fill="#fff" stroke="#000"/><text class="Text" transform="translate(40,13)"   font-size="10px"  text-anchor="middle"><tspan x="0" y="0">B18</tspan></text></a><a  class="GeneProduct NDUFB2 " transform="translate(12,52)"   name="NDUFB2"  ><rect class="Icon" transform="matrix(.98765 0 0 .95238 .49383 .47619)" width="80" height="20" fill="#fff" stroke="#000"/><text class="Text" transform="translate(40,13)"   font-size="10px"  text-anchor="middle"><tspan x="0" y="0">NDUFB2</tspan></text></a><a  class="GeneProduct NDUFB1 " transform="translate(12,212)"   name="CI-SGDH"  ><rect class="Icon" transform="matrix(.98765 0 0 .95238 .49383 .47619)" width="80" height="20" fill="#fff" stroke="#000"/><text class="Text" transform="translate(40,13)"   font-size="10px"  text-anchor="middle"><tspan x="0" y="0">CI-SGDH</tspan></text></a><a  class="GeneProduct NDUFS6 " transform="translate(252,152)"   name="NDUFS6"  ><rect class="Icon" transform="matrix(.98765 0 0 .95238 .49383 .47619)" width="80" height="20" fill="#fff" stroke="#000"/><text class="Text" transform="translate(40,13)"   font-size="10px"  text-anchor="middle"><tspan x="0" y="0">NDUFS6</tspan></text></a><a  class="GeneProduct NDUFC1 " transform="translate(92,212)"   name="KFYI"  ><rect class="Icon" transform="matrix(.98765 0 0 .95238 .49383 .47619)" width="80" height="20" fill="#fff" stroke="#000"/><text class="Text" transform="translate(40,13)"   font-size="10px"  text-anchor="middle"><tspan x="0" y="0">KFYI</tspan></text></a><a  class="GeneProduct NDUFV3 " transform="translate(12,92)"   name="NDUFV3"  ><rect class="Icon" transform="matrix(.98765 0 0 .95238 .49383 .47619)" width="80" height="20" fill="#fff" stroke="#000"/><text class="Text" transform="translate(40,13)"   font-size="10px"  text-anchor="middle"><tspan x="0" y="0">NDUFV3</tspan></text></a><a  class="GeneProduct NDUFB8 " transform="translate(252,52)"   name="ASHI"  ><rect class="Icon" transform="matrix(.98765 0 0 .95238 .49383 .47619)" width="80" height="20" fill="#fff" stroke="#000"/><text class="Text" transform="translate(40,13)"   font-size="10px"  text-anchor="middle"><tspan x="0" y="0">ASHI</tspan></text></a><a  class="GeneProduct NDUFA8 " transform="translate(172,132)"   name="NDUFA8"  ><rect class="Icon" transform="matrix(.98765 0 0 .95238 .49383 .47619)" width="80" height="20" fill="#fff" stroke="#000"/><text class="Text" transform="translate(40,13)"   font-size="10px"  text-anchor="middle"><tspan x="0" y="0">NDUFA8</tspan></text></a><a  class="GeneProduct NDUFAB1 " transform="translate(12 192)"   name="FASN2A"  ><rect class="Icon" transform="matrix(.98765 0 0 .95238 .49383 .47619)" width="80" height="20" fill="#fff" stroke="#000"/><text class="Text" transform="translate(40,13)"   font-size="10px"  text-anchor="middle"><tspan x="0" y="0">FASN2A</tspan></text></a><a  class="GeneProduct NDUFA5 " transform="translate(92,52)"   name="B13"  ><rect class="Icon" transform="matrix(.98765 0 0 .95238 .49383 .47619)" width="80" height="20" fill="#fff" stroke="#000"/><text class="Text" transform="translate(40,13)"   font-size="10px"  text-anchor="middle"><tspan x="0" y="0">B13</tspan></text></a><a  class="GeneProduct NDUFB6 " transform="translate(172,72)"   name="B17"  ><rect class="Icon" transform="matrix(.98765 0 0 .95238 .49383 .47619)" width="80" height="20" fill="#fff" stroke="#000"/><text class="Text" transform="translate(40,13)"   font-size="10px"  text-anchor="middle"><tspan x="0" y="0">B17</tspan></text></a><a  class="GeneProduct NDUFA10 " transform="translate(252,112)"   name="CI-42KD"  ><rect class="Icon" transform="matrix(.98765 0 0 .95238 .49383 .47619)" width="80" height="20" fill="#fff" stroke="#000"/><text class="Text" transform="translate(40,13)"   font-size="10px"  text-anchor="middle"><tspan x="0" y="0">CI-42KD</tspan></text></a><a  class="GeneProduct NDUFA9 " transform="translate(252,32)"   name="NDUFA9"  ><rect class="Icon" transform="matrix(.98765 0 0 .95238 .49383 .47619)" width="80" height="20" fill="#fff" stroke="#000"/><text class="Text" transform="translate(40,13)"   font-size="10px"  text-anchor="middle"><tspan x="0" y="0">NDUFA9</tspan></text></a><a  class="GeneProduct NDUFA7 " transform="translate(172,52)"   name="B14.5a"  ><rect class="Icon" transform="matrix(.98765 0 0 .95238 .49383 .47619)" width="80" height="20" fill="#fff" stroke="#000"/><text class="Text" transform="translate(40,13)"   font-size="10px"  text-anchor="middle"><tspan x="0" y="0">B14.5a</tspan></text></a><a  class="GeneProduct NDUFC2 " transform="translate(12 72)"   name="B14.5b"  ><rect class="Icon" transform="matrix(.98765 0 0 .95238 .49383 .47619)" width="80" height="20" fill="#fff" stroke="#000"/><text class="Text" transform="translate(40,13)"   font-size="10px"  text-anchor="middle"><tspan x="0" y="0">B14.5b</tspan></text></a><a  class="GeneProduct NDUFS4 " transform="translate(172,172)"   name="AQDQ"  ><rect class="Icon" transform="matrix(.98765 0 0 .95238 .49383 .47619)" width="80" height="20" fill="#fff" stroke="#000"/><text class="Text" transform="translate(40,13)"   font-size="10px"  text-anchor="middle"><tspan x="0" y="0">AQDQ</tspan></text></a><a  class="GeneProduct -ND4L MT-ND4L -ND4L " transform="translate(252,12)"   name="ND4L"  ><rect class="Icon" transform="matrix(.98765 0 0 .95238 .49383 .47619)" width="80" height="20" fill="#fff" stroke="#000"/><text class="Text" transform="translate(40,13)"   font-size="10px"  text-anchor="middle"><tspan x="0" y="0">ND4L</tspan></text></a><a  class="GeneProduct NDUFA4L2 " transform="translate(92,12)"   name="NUOMS"  ><rect class="Icon" transform="matrix(.98765 0 0 .95238 .49383 .47619)" width="80" height="20" fill="#fff" stroke="#000"/><text class="Text" transform="translate(40,13)"   font-size="10px"  text-anchor="middle"><tspan x="0" y="0">NUOMS</tspan></text></a><a  class="GeneProduct NDUFB10 " transform="translate(92,192)"   name="NDUFB10"  ><rect class="Icon" transform="matrix(.98765 0 0 .95238 .49383 .47619)" width="80" height="20" fill="#fff" stroke="#000"/><text class="Text" transform="translate(40,13)"   font-size="10px"  text-anchor="middle"><tspan x="0" y="0">NDUFB10</tspan></text></a><a  class="GeneProduct GZMB " transform="translate(12,152)"   name="GZMB"  ><rect class="Icon" transform="matrix(.98765 0 0 .95238 .49383 .47619)" width="80" height="20" fill="#fff" stroke="#000"/><text class="Text" transform="translate(40,13)"   font-size="10px"  text-anchor="middle"><tspan x="0" y="0">GZMB</tspan></text></a><a  class="GeneProduct NDUFS3 " transform="translate(172,12)"   name="NDUFS3"  ><rect class="Icon" transform="matrix(.98765 0 0 .95238 .49383 .47619)" width="80" height="20" fill="#fff" stroke="#000"/><text class="Text" transform="translate(40,13)"   font-size="10px"  text-anchor="middle"><tspan x="0" y="0">NDUFS3</tspan></text></a><a  class="GeneProduct NDUFV2 " transform="translate(172,212)"   name="NDUFV2"  ><rect class="Icon" transform="matrix(.98765 0 0 .95238 .49383 .47619)" width="80" height="20" fill="#fff" stroke="#000"/><text class="Text" transform="translate(40,13)"   font-size="10px"  text-anchor="middle"><tspan x="0" y="0">NDUFV2</tspan></text></a><a  class="GeneProduct -ND5 MT-ND5 -ND5 " transform="translate(252,92)"   name="ND5"  ><rect class="Icon" transform="matrix(.98765 0 0 .95238 .49383 .47619)" width="80" height="20" fill="#fff" stroke="#000"/><text class="Text" transform="translate(40,13)"   font-size="10px"  text-anchor="middle"><tspan x="0" y="0">ND5</tspan></text></a><a  class="GeneProduct -ND3 MT-ND3 -ND3 " transform="translate(172,32)"   name="ND3"  ><rect class="Icon" transform="matrix(.98765 0 0 .95238 .49383 .47619)" width="80" height="20" fill="#fff" stroke="#000"/><text class="Text" transform="translate(40,13)"   font-size="10px"  text-anchor="middle"><tspan x="0" y="0">ND3</tspan></text></a><a  class="GeneProduct NDUFA2 " transform="translate(252,192)"   name="NDUFA2"  ><rect class="Icon" transform="matrix(.98765 0 0 .95238 .49383 .47619)" width="80" height="20" fill="#fff" stroke="#000"/><text class="Text" transform="translate(40,13)"   font-size="10px"  text-anchor="middle"><tspan x="0" y="0">NDUFA2</tspan></text></a><a  class="GeneProduct NDUFB4 " transform="translate(92,72)"   name="B15"  ><rect class="Icon" transform="matrix(.98765 0 0 .95238 .49383 .47619)" width="80" height="20" fill="#fff" stroke="#000"/><text class="Text" transform="translate(40,13)"   font-size="10px"  text-anchor="middle"><tspan x="0" y="0">B15</tspan></text></a><a  class="GeneProduct NDUFS2 " transform="translate(92,92)"   name="NDUFS2"  ><rect class="Icon" transform="matrix(.98765 0 0 .95238 .49383 .47619)" width="80" height="20" fill="#fff" stroke="#000"/><text class="Text" transform="translate(40,13)"   font-size="10px"  text-anchor="middle"><tspan x="0" y="0">NDUFS2</tspan></text></a><a  class="GeneProduct NDUFS8 " transform="translate(172,192)"   name="NDUFS8"  ><rect class="Icon" transform="matrix(.98765 0 0 .95238 .49383 .47619)" width="80" height="20" fill="#fff" stroke="#000"/><text class="Text" transform="translate(40,13)"   font-size="10px"  text-anchor="middle"><tspan x="0" y="0">NDUFS8</tspan></text></a><a  class="GeneProduct NDUFB5 " transform="translate(92,172)"   name="CI-SGDH"  ><rect class="Icon" transform="matrix(.98765 0 0 .95238 .49383 .47619)" width="80" height="20" fill="#fff" stroke="#000"/><text class="Text" transform="translate(40,13)"   font-size="10px"  text-anchor="middle"><tspan x="0" y="0">CI-SGDH</tspan></text></a><a  class="GeneProduct -ND1 MT-ND1 -ND1 " transform="translate(92,32)"   name="ND1"  ><rect class="Icon" transform="matrix(.98765 0 0 .95238 .49383 .47619)" width="80" height="20" fill="#fff" stroke="#000"/><text class="Text" transform="translate(40,13)"   font-size="10px"  text-anchor="middle"><tspan x="0" y="0">ND1</tspan></text></a><a  class="GeneProduct NDUFA6 " transform="translate(92,152)"   name="B14"  ><rect class="Icon" transform="matrix(.98765 0 0 .95238 .49383 .47619)" width="80" height="20" fill="#fff" stroke="#000"/><text class="Text" transform="translate(40,13)"   font-size="10px"  text-anchor="middle"><tspan x="0" y="0">B14</tspan></text></a><a  class="GeneProduct -ND6 MT-ND6 -ND6 " transform="translate(252,172)"   name="ND6"  ><rect class="Icon" transform="matrix(.98765 0 0 .95238 .49383 .47619)" width="80" height="20" fill="#fff" stroke="#000"/><text class="Text" transform="translate(40,13)"   font-size="10px"  text-anchor="middle"><tspan x="0" y="0">ND6</tspan></text></a><a  class="GeneProduct NDUFA11 " transform="translate(12,12)"   name="NDUFA11"  ><rect class="Icon" transform="matrix(.98765 0 0 .95238 .49383 .47619)" width="80" height="20" fill="#fff" stroke="#000"/><text class="Text" transform="translate(40,13)"   font-size="10px"  text-anchor="middle"><tspan x="0" y="0">NDUFA11</tspan></text></a><a  class="GeneProduct NDUFV1 " transform="translate(172,92)"   name="CI-51kD"  ><rect class="Icon" transform="matrix(.98765 0 0 .95238 .49383 .47619)" width="80" height="20" fill="#fff" stroke="#000"/><text class="Text" transform="translate(40,13)"   font-size="10px"  text-anchor="middle"><tspan x="0" y="0">CI-51kD</tspan></text></a><a  class="GeneProduct -ND4 MT-ND4 -ND4 " transform="translate(172,112)"   name="ND4"  ><rect class="Icon" transform="matrix(.98765 0 0 .95238 .49383 .47619)" width="80" height="20" fill="#fff" stroke="#000"/><text class="Text" transform="translate(40,13)"   font-size="10px"  text-anchor="middle"><tspan x="0" y="0">ND4</tspan></text></a><a  class="GeneProduct -ND2 MT-ND2 -ND2 " transform="translate(92,132)"   name="ND2"  ><rect class="Icon" transform="matrix(.98765 0 0 .95238 .49383 .47619)" width="80" height="20" fill="#fff" stroke="#000"/><text class="Text" transform="translate(40,13)"   font-size="10px"  text-anchor="middle"><tspan x="0" y="0">ND2</tspan></text></a></g><text class="Text" transform="translate(5,27)" dominant-baseline="central" fill="black"  font-size="12px" font-weight="bold" overflow="visible" ><tspan x="0" y="-9">Name: Oxidative phosphorylation</tspan> <tspan x="0" y="9">Organism: Homo sapiens</tspan></text></g></svg>
