<?xml version="1.0" encoding="UTF-8"?>
<!--
  WikiPathways page: https://www.wikipathways.org/index.php/Pathway:WP690
  URL for this compressed file: https://github.com/eweitz/cachome/tree/main/data/wikipathways/WP690.svg
  Source code for compression: https://github.com/eweitz/cachome/tree/main/src/wikipathways.py
-->
<svg class="Diagram" width="800" height="600" color="black" baseProfile="full" prefix="schema:http://schema.org/" preserveAspectRatio="xMidYMid" version="1.1" viewBox="0 0 705.92 549.27" vocab="http://vocabularies.wikipathways.org/wp#" xmlns="http://www.w3.org/2000/svg" xmlns:xlink="http://www.w3.org/1999/xlink"><style>svg {font-family: 'Liberation Sans', Arial, sans-serif; }</style><defs><filter id="a" x="0" y="0" width="705.92" height="549.27" filterUnits="userSpaceOnUse"><feColorMatrix in="SourceGraphic" values="-1   0   0 0 0                   0  -1   0 0 0                   0   0  -1 0 0                   0   0   0 1 0"/></filter><marker id="e" stroke-dasharray="99999" markerHeight="12" markerUnits="userSpaceOnUse" markerWidth="12" orient="auto" preserveAspectRatio="none" refX="12" refY="6" viewBox="0 0 12 12"><path transform="rotate(180 6 6)" d="M12 11L0 6l12-5z" fill="currentColor" stroke-width="0"/></marker><marker id="d" stroke-dasharray="99999" markerHeight="12" markerUnits="userSpaceOnUse" markerWidth="12" orient="auto" preserveAspectRatio="none" refX="12" refY="6" viewBox="0 0 12 12"><circle transform="rotate(180 6 6)" cx="6" cy="6" r="5.3" fill="none" stroke="#000"/></marker><marker id="b" stroke-dasharray="99999" markerHeight="12" markerUnits="userSpaceOnUse" markerWidth="12" orient="auto" preserveAspectRatio="none" refX="12" refY="6" viewBox="0 0 12 12"><path transform="rotate(180 6 6)" d="M12 11L0 6l12-5z" fill="currentColor" stroke-width="0"/></marker><symbol id="c" preserveAspectRatio="none" viewBox="0 0 100 100"/></defs><g class="Viewport" color="black"  name="Name: Polyol pathway Organism: Homo sapiens"><rect class="Icon" width="705.92" height="549.27" fill="#fff" stroke="#000" stroke-width="0"/><g id="f" class="Interaction" color="#000" ><g color="#000" fill="transparent"  filter="url(#a)" stroke="#000" stroke-dasharray="135.99744336049977, 5.8"><path class="EdgeBody" d="m387.92 322.27v3.3333c-7e-14 3.3333-7e-14 10-14.167 13.333-14.167 3.3333-42.5 3.3333-56.667 14.167-14.167 10.833-14.167 32.5-14.167 43.333v10.833"   marker-end="url(#b)" /></g></g><g id="g" class="DirectedInteraction" color="#000" ><g color="#000" fill="transparent"  filter="url(#a)" stroke="#000" stroke-dasharray="5.22, 3.13, 5.22, 3.13, 5.22, 3.13, 5.22, 3.13, 5.22, 3.13, 5.22, 3.13, 5.22, 3.13, 5.22, 3.13, 5.22, 3.13, 5.22, 3.13, 5.22, 3.13, 5.22, 3.13, 5.22, 3.13, 5.22, 3.13, 5.22, 3.13, 0, 5.8"><path class="EdgeBody" d="m467.92 509.27h128"   marker-end="url(#e)" /></g></g><g id="h" class="Interaction" color="#000" ><g color="#000" fill="transparent"  filter="url(#a)" stroke="#000" stroke-dasharray="134.27926184632136, 5.8"><path class="EdgeBody" d="m387.92 322.27v3.3333c-7e-14 3.3333-7e-14 10 13.833 13.333 13.833 3.3333 41.5 3.3333 55.333 14.167 13.833 10.833 13.833 32.5 13.833 43.333v10.833"   marker-end="url(#b)" /></g><g class="Burr Anchor" transform="translate(467.85 369.64)" ><use class="Icon" width="0" height="0" fill="#141414" stroke-width="0" xlink:href="#c"/></g></g><g id="i" class="Interaction" color="#000" ><g color="#000" fill="transparent"  filter="url(#a)" stroke="#000" stroke-dasharray="115.35722263116446, 5.8"><path class="EdgeBody" d="m550.5 125.43-121.16-0.19119"   marker-end="url(#b)" /></g><g class="Burr Anchor" transform="translate(495.79 125.34)" ><use class="Icon" width="0" height="0" fill="#141414" stroke-width="0" xlink:href="#c"/></g></g><g id="j" class="DirectedInteraction" color="#000" ><g color="#000" fill="transparent"  filter="url(#a)" stroke="#000" stroke-dasharray="5.09, 3.05, 5.09, 3.05, 5.09, 3.05, 5.09, 3.05, 5.09, 3.05, 5.09, 3.05, 5.09, 3.05, 5.09, 5.8"><path class="EdgeBody" d="m590.5 135.43v67.843"   marker-end="url(#e)" /></g></g><g id="k" class="Interaction" color="#000" ><g color="#000" fill="transparent"  filter="url(#a)" stroke="#000" stroke-dasharray="49.414241101957444, 11"><path class="EdgeBody" d="m524.92 371.27-60.414 0.028726"   marker-end="url(#d)" /></g></g><g id="l" class="Interaction" color="#000" ><g color="#000" fill="transparent"  filter="url(#a)" stroke="#000" stroke-dasharray="30.070959673520136, 11"><path class="EdgeBody" d="m495.92 84.272-0.13756 41.071"   marker-end="url(#d)" /></g></g><g id="m" class="Interaction" color="#000" ><g color="#000" fill="transparent"  filter="url(#a)" stroke="#000" stroke-dasharray="66.22337969175165, 5.8"><path class="EdgeBody" d="m388.91 230.26-0.98333 72.017"   marker-end="url(#b)" /></g><g class="Burr Anchor" transform="translate(388.51 259.06)" ><use class="Icon" width="0" height="0" fill="#141414" stroke-width="0" xlink:href="#c"/></g></g><g id="n" class="Interaction" color="#000" ><g color="#000" fill="transparent"  filter="url(#a)" stroke="#000" stroke-dasharray="37.41644555313821, 11"><path class="EdgeBody" d="m436.92 258.27-48.41 0.79"   marker-end="url(#d)" /></g></g><g id="o" class="Interaction" color="#000" ><g color="#000" fill="transparent"  filter="url(#a)" stroke="#000" stroke-dasharray="63.03227571551656, 5.8"><path class="EdgeBody" d="m389.35 141.42-0.43813 68.831"   marker-end="url(#b)" /></g><g class="Burr Anchor" transform="translate(389.14 173.94)" ><use class="Icon" width="0" height="0" fill="#141414" stroke-width="0" xlink:href="#c"/></g></g><g id="p" class="Interaction" color="#000" ><g color="#000" fill="transparent"  filter="url(#a)" stroke="#000" stroke-dasharray="32.81737602050896, 11"><path class="EdgeBody" d="m432.92 172.27-43.786 1.6704"   marker-end="url(#d)" /></g></g><g id="q" class="Interaction" color="#000" ><g color="#000" fill="transparent"  filter="url(#a)" stroke="#000" stroke-dasharray="124.21605215788846, 5.8"><path class="EdgeBody" d="m470.92 427.27v2.5c0 2.5 0 7.5-13.833 10-13.833 2.5-41.5 2.5-55.333 12-13.833 9.5-13.833 28.5-13.833 38v9.5"   marker-end="url(#b)" /></g></g><g id="r" class="Interaction" color="#000" ><g color="#000" fill="transparent"  filter="url(#a)" stroke="#000" stroke-dasharray="125.97651435196003, 5.8"><path class="EdgeBody" d="m302.92 427.27v2.5c0 2.5 0 7.5 14.167 10 14.167 2.5 42.5 2.5 56.667 12 14.167 9.5 14.167 28.5 14.167 38v9.5"   marker-end="url(#b)" /></g></g><g id="s" class="Interaction" color="#000" ><g color="#000" fill="transparent"  filter="url(#a)" stroke="#000" stroke-dasharray="65.23047638746064, 5.8"><path class="EdgeBody" d="m349.35 133.33-51.693 48.716"   marker-end="url(#b)" /></g></g><g id="t" class="Interaction" color="#000" ><g color="#000" fill="transparent"  filter="url(#a)" stroke="#000" stroke-dasharray="23.677611940298515, 5.8"><path class="EdgeBody" d="m151.39 125.24h-29.478"   marker-end="url(#b)" /></g></g><g id="u" class="Interaction" color="#000" ><g color="#000" fill="transparent"  filter="url(#a)" stroke="#000" stroke-dasharray="45.892608386638315, 5.8"><path class="EdgeBody" d="m349.35 125.24h-51.693"   marker-end="url(#b)" /></g></g><a class="Metabolite ChEBI_CHEBI_17924  " transform="translate(349.35 109.05)" color="#00f"  name="D-Sorbitol"  ><rect class="Icon" transform="matrix(.98765 0 0 .97004 .49383 .48502)" width="80" height="32.373" fill="#fff" stroke="#00f"/><text class="Text" transform="translate(40 19.187)" fill="#00f"  font-size="10px"  text-anchor="middle"><tspan x="0" y="0">D-Sorbitol</tspan></text></a><a class="Metabolite ChEBI_CHEBI_15903  " transform="translate(550.5 115.43)" color="#00f"  name="D-Glucose"  ><rect class="Icon" transform="matrix(.98765 0 0 .95238 .49383 .47619)" width="80" height="20" fill="#fff" stroke="#00f"/><text class="Text" transform="translate(40,13)" fill="#00f"  font-size="10px"  text-anchor="middle"><tspan x="0" y="0">D-Glucose</tspan></text></a><a  class="GeneProduct KHK " transform="translate(436.92 248.27)"   name="Fructokinase"  ><rect class="Icon" transform="matrix(.98765 0 0 .95238 .49383 .47619)" width="80" height="20" fill="#fff" stroke="#000"/><text class="Text" transform="translate(40,13)"   font-size="10px"  text-anchor="middle"><tspan x="0" y="0">Fructokinase</tspan></text></a><a class="Metabolite ChEBI_CHEBI_28645  " transform="translate(348.91 210.26)" color="#00f"  name="D-Fructose"  ><rect class="Icon" transform="matrix(.98765 0 0 .95238 .49383 .47619)" width="80" height="20" fill="#fff" stroke="#00f"/><text class="Text" transform="translate(40,13)" fill="#00f"  font-size="10px"  text-anchor="middle"><tspan x="0" y="0">D-Fructose</tspan></text></a><a  class="GeneProduct ALDOB " transform="translate(524.92 361.27)"   name="ALDOB"  ><rect class="Icon" transform="matrix(.98765 0 0 .95238 .49383 .47619)" width="80" height="20" fill="#fff" stroke="#000"/><text class="Text" transform="translate(40,13)"   font-size="10px"  text-anchor="middle"><tspan x="0" y="0">ALDOB</tspan></text></a><a class="Metabolite ChEBI_CHEBI_16108  " transform="translate(223.92 407.27)" color="#00f"  name="Dihydroxyacetone phosphate"  ><rect class="Icon" transform="matrix(.99371 0 0 .95238 .49686 .47619)" width="158" height="20" fill="#fff" stroke="#00f"/><text class="Text" transform="translate(79,13)" fill="#00f"  font-size="10px"  text-anchor="middle"><tspan x="0" y="0">Dihydroxyacetone phosphate</tspan></text></a><a class="Metabolite ChEBI_CHEBI_5445  " transform="translate(430.92 407.27)" color="#00f"  name="Glyceraldehyde"  ><rect class="Icon" transform="matrix(.98765 0 0 .95238 .49383 .47619)" width="80" height="20" fill="#fff" stroke="#00f"/><text class="Text" transform="translate(40,13)" fill="#00f"  font-size="10px"  text-anchor="middle"><tspan x="0" y="0">Glyceraldehyde</tspan></text></a><a  class="GeneProduct AKR1B1 " transform="translate(455.92 64.272)"   name="ALR2"  ><rect class="Icon" transform="matrix(.98765 0 0 .95238 .49383 .47619)" width="80" height="20" fill="#fff" stroke="#000"/><text class="Text" transform="translate(40,13)"   font-size="10px"  text-anchor="middle"><tspan x="0" y="0">ALR2</tspan></text></a><a class="Metabolite ChEBI_CHEBI_16070  " transform="translate(151.39 55.02)" color="#00f"  name="1,5-anhydrosorbitol"  ><rect class="Icon" transform="matrix(.99321 0 0 .96154 .4966 .48077)" width="146.27" height="25" fill="#fff" stroke="#00f"/><text class="Text" transform="translate(73.133 16.5)" fill="#00f"  font-size="12px"  text-anchor="middle"><tspan x="0" y="0">1,5-anhydrosorbitol</tspan></text></a><a class="Metabolite ChEBI_CHEBI_139419  " transform="translate(331.92 302.27)" color="#00f"  name="Fructose 1-phosphate"  ><rect class="Icon" transform="matrix(.99115 0 0 .95238 .49558 .47619)" width="112" height="20" fill="#fff" stroke="#00f"/><text class="Text" transform="translate(56,13)" fill="#00f"  font-size="10px"  text-anchor="middle"><tspan x="0" y="0">Fructose 1-phosphate</tspan></text></a><a class="WikiPathways_WP534 Pathway " transform="translate(550.5 203.27)" color="#14961e"  name="Glycolysis"  ><rect class="Icon" transform="matrix(.98765 0 0 .95238 .49383 .47619)" width="80" height="20" rx="15" ry="15" fill="#fff" stroke="#14961e"/><text class="Text" transform="translate(40,14)" fill="#14961e"  font-size="12px" font-weight="bold" stroke="black" stroke-width="0" text-anchor="middle"><tspan x="0" y="0">Glycolysis</tspan></text></a><a  class="GeneProduct SORD " transform="translate(432.92 162.27)"   name="SORD"  ><rect class="Icon" transform="matrix(.98765 0 0 .95238 .49383 .47619)" width="80" height="20" fill="#fff" stroke="#000"/><text class="Text" transform="translate(40,13)"   font-size="10px"  text-anchor="middle"><tspan x="0" y="0">SORD</tspan></text></a><a class="Metabolite ChEBI_CHEBI_29052  " transform="translate(307.92 499.27)" color="#00f"  name="D-Glyceraldehyde 3-phosphate"  ><rect class="Icon" transform="matrix(.99379 0 0 .95238 .49689 .47619)" width="160" height="20" fill="#fff" stroke="#00f"/><text class="Text" transform="translate(80,13)" fill="#00f"  font-size="10px"  text-anchor="middle"><tspan x="0" y="0">D-Glyceraldehyde 3-phosphate</tspan></text></a><a class="WikiPathways_WP534 Pathway " transform="translate(595.92 499.27)" color="#14961e"  name="Glycolysis"  ><rect class="Icon" transform="matrix(.98765 0 0 .95238 .49383 .47619)" width="80" height="20" rx="15" ry="15" fill="#fff" stroke="#14961e"/><text class="Text" transform="translate(40,14)" fill="#14961e"  font-size="12px" font-weight="bold" stroke="black" stroke-width="0" text-anchor="middle"><tspan x="0" y="0">Glycolysis</tspan></text></a><a class="PubChem-compound_10953859 Metabolite " transform="translate(151.39 112.74)" color="#00f"  name="1,4-anhydrosorbitol"  ><rect class="Icon" transform="matrix(.99321 0 0 .96154 .4966 .48077)" width="146.27" height="25" fill="#fff" stroke="#00f"/><text class="Text" transform="translate(73.133 16.5)" fill="#00f"  font-size="12px"  text-anchor="middle"><tspan x="0" y="0">1,4-anhydrosorbitol</tspan></text></a><a class="Chemspider_16739231 Metabolite " transform="translate(151.39 169.55)" color="#00f"  name="1,4,3,6-dianhydrosorbitol"  ><rect class="Icon" transform="matrix(.99321 0 0 .96154 .4966 .48077)" width="146.27" height="25" fill="#fff" stroke="#00f"/><text class="Text" transform="translate(73.133 16.5)" fill="#00f"  font-size="12px"  text-anchor="middle"><tspan x="0" y="0">1,4,3,6-dianhydrosorbitol</tspan></text></a><a class="Metabolite ChEBI_CHEBI_6060  " transform="translate(31.908 112.74)" color="#00f"  name="Isosorbid"  ><rect class="Icon" transform="matrix(.98901 0 0 .96154 .49451 .48077)" width="90" height="25" fill="#fff" stroke="#00f"/><text class="Text" transform="translate(45,16.5)" fill="#00f"  font-size="12px"  text-anchor="middle"><tspan x="0" y="0">Isosorbid</tspan></text></a><g id="v" class="Interaction" color="#000" ><g color="#000" fill="transparent"  filter="url(#a)" stroke="#000" stroke-dasharray="65.857468832244, 5.8"><path class="EdgeBody" d="m349.35 117.14-51.693-49.625"   marker-end="url(#b)" /></g></g><text class="Text" transform="translate(5,27)" dominant-baseline="central" fill="black"  font-size="12px" font-weight="bold" overflow="visible" ><tspan x="0" y="-9">Name: Polyol pathway</tspan> <tspan x="0" y="9">Organism: Homo sapiens</tspan></text></g></svg>
