<?xml version="1.0" encoding="UTF-8"?>
<!--
  WikiPathways page: https://www.wikipathways.org/index.php/Pathway:WP712
  URL for this compressed file: https://github.com/eweitz/cachome/tree/main/data/wikipathways/WP712.svg
  Source code for compression: https://github.com/eweitz/cachome/tree/main/src/wikipathways.py
-->
<svg class="Diagram" width="800" height="600" color="black" baseProfile="full" prefix="schema:http://schema.org/" preserveAspectRatio="xMidYMid" version="1.1" viewBox="0 0 1784 1168" vocab="http://vocabularies.wikipathways.org/wp#" xmlns="http://www.w3.org/2000/svg" xmlns:xlink="http://www.w3.org/1999/xlink"><style>svg {font-family: 'Liberation Sans', Arial, sans-serif; }</style><defs><filter id="f" x="-50%" y="-50%" width="200%" height="200%"><feComposite in="SourceGraphic" in2="SourceGraphic" result="doubleDark"/><feMorphology in="doubleDark" operator="dilate" radius="0.16666666666666666" result="in2Double"/><feMorphology in="SourceGraphic" operator="dilate" radius="3" result="inDouble"/><feComposite in="inDouble" in2="in2Double" operator="out" result="doubleResult"/></filter><filter id="a" x="0" y="0" width="1784" height="1168" filterUnits="userSpaceOnUse"><feColorMatrix in="SourceGraphic" values="-1   0   0 0 0                   0  -1   0 0 0                   0   0  -1 0 0                   0   0   0 1 0"/></filter><marker id="b" stroke-dasharray="99999" markerHeight="12" markerUnits="userSpaceOnUse" markerWidth="12" orient="auto" preserveAspectRatio="none" refX="12" refY="6" viewBox="0 0 12 12"><path transform="rotate(180 6 6)" d="M12 11L0 6l12-5z" fill="currentColor" stroke-width="0"/></marker><marker id="d" stroke-dasharray="99999" markerHeight="20" markerUnits="userSpaceOnUse" markerWidth="10" orient="auto" preserveAspectRatio="none" refX="10" refY="10" viewBox="0 0 10 20"><path d="m3 0v20" fill="currentColor" stroke="currentColor"/></marker><symbol id="h" overflow="visible" preserveAspectRatio="none" viewBox="0 0 100 100"><path d="M1.5 49.5c0-16.167 8.167-24.25 24.5-24.25S50.5 17.167 50.5 1c0 16.167 8.167 24.25 24.5 24.25s24.5 8.083 24.5 24.25" stroke="currentColor" vector-effect="non-scaling-stroke"/></symbol><symbol id="e" overflow="visible" preserveAspectRatio="none" viewBox="0 0 50 50"><ellipse cx="25" cy="25" rx="25" ry="25" stroke="currentColor" vector-effect="non-scaling-stroke"/></symbol><symbol id="g" overflow="visible" preserveAspectRatio="none" viewBox="0 0 100 100"><path d="M0 25L25 0h50l25 25v50l-25 25H25L0 75z" stroke="currentColor" vector-effect="non-scaling-stroke"/></symbol><symbol id="c" preserveAspectRatio="none" viewBox="0 0 100 100"/></defs><g class="Viewport" color="black"  name="Name: Estrogen signaling pathway License: CC BY 2.0 Last Modified: 5/16/2012 Organism: Homo sapiens"><rect class="Icon" width="1784" height="1168" fill="#fff" stroke="#000" stroke-width="0"/><g id="i" class="DirectedInteraction" color="#000" ><g color="#000" fill="transparent"  filter="url(#a)" stroke="#000" stroke-dasharray="362.7210870751759, 5.8"><path class="EdgeBody" d="m535.98 139-1e-13 16.5c1e-13 16.5 1e-13 49.5 51.836 66 51.836 16.5 155.51 16.5 207.34 16.5l51.836 3e-14"   marker-end="url(#b)" /></g></g><g class="GroupGroup" transform="translate(746.97 411)" color="grey" ><use class="Icon" width="288.0333333333333" height="72.00000000000006" fill="transparent"  stroke="grey" stroke-dasharray="5,3" stroke-width="0" xlink:href="#c"/><g id="j" class="Interaction" color="#000" ><g color="#000" fill="transparent"  filter="url(#a)" stroke="#000" stroke-dasharray="235, 0"><path class="EdgeBody" d="m45.517 43.967v-20.483h194.52v20"   /></g></g><g class="Label" transform="translate(100.03 8)" color="#000"  name="MAPKs"><use class="Icon" width="80" height="20" fill="transparent"  stroke="#000" stroke-width="0" xlink:href="#c"/><text class="Text" transform="translate(40,13)"   font-size="10px"  text-anchor="middle"><tspan x="0" y="0">MAPKs</tspan></text></g><a  class="GeneProduct MAPK1 " transform="translate(200.03 43.483)"   name="ERK 1/2"  ><rect class="Icon" transform="matrix(.98765 0 0 .95238 .49383 .47619)" width="80" height="20" fill="#fff" stroke="#000"/><text class="Text" transform="translate(40,13)"   font-size="10px"  text-anchor="middle"><tspan x="0" y="0">ERK 1/2</tspan></text></a><a  class="GeneProduct MAPK9 " transform="translate(8 43.967)"   name="JNKs"  ><rect class="Icon" transform="matrix(.98685 0 0 .95008 .49342 .47504)" width="75.033" height="19.033" fill="#fff" stroke="#000"/><text class="Text" transform="translate(37.517 12.517)"   font-size="10px"  text-anchor="middle"><tspan x="0" y="0">JNKs</tspan></text></a><a  class="GeneProduct MAPK14 " transform="translate(103 42.967)"   name="p38"  ><rect class="Icon" transform="matrix(.98702 0 0 .95461 .49351 .47731)" width="76.033" height="21.033" fill="#fff" stroke="#000"/><text class="Text" transform="translate(38.017 13.517)"   font-size="10px"  text-anchor="middle"><tspan x="0" y="0">p38</tspan></text></a></g><g id="k" class="DirectedInteraction" color="#000" ><g color="#000" fill="transparent"  filter="url(#a)" stroke="#000" stroke-dasharray="310.35039538169167, 5.8"><path class="EdgeBody" d="m685.5 138.33-0.5 316.15"   marker-end="url(#b)" /></g></g><g id="l" class="DirectedInteraction" color="#000" ><g color="#000" fill="transparent"  filter="url(#a)" stroke="#000" stroke-dasharray="41.16932805329216, 5.8"><path class="EdgeBody" d="m535.48 52 0.5 46.967"   marker-end="url(#b)" /></g></g><g id="m" class="DirectedInteraction" color="#000" ><g color="#000" fill="transparent"  filter="url(#a)" stroke="#000" stroke-dasharray="238.35846813814163, 5.8"><path class="EdgeBody" d="m645 464.48h-14.833c-14.833 0-44.5 0-59.333-12.331-14.833-12.331-14.833-36.992-35.667-49.322-20.833-12.331-62.5-12.331-83.333-12.331l-20.833 6e-14"   marker-end="url(#b)" /></g></g><g id="n" class="Inhibition" color="#000" ><g color="#000" fill="transparent"  filter="url(#a)" stroke="#000" stroke-dasharray="155.39294336748614, 7"><path class="EdgeBody" d="m140 354 130.97-96.017"   marker-end="url(#d)" /></g></g><g id="o" class="DirectedInteraction" color="#000" ><g color="#000" fill="transparent"  filter="url(#a)" stroke="#000" stroke-dasharray="224.11881175754198, 5.8"><path class="EdgeBody" d="m578.98 358.07-132.5 187.9"   marker-end="url(#b)" /></g></g><g class="GroupGroup" transform="translate(1374 146)" color="grey" ><use class="Icon" width="212.0333333333333" height="151" fill="transparent"  stroke="grey" stroke-dasharray="5,3" stroke-width="0" xlink:href="#c"/><g id="p" class="Edge GraphicalLine DirectedInteraction" color="#000" ><g color="#000" fill="transparent"  filter="url(#a)" stroke="#000" stroke-dasharray="38.211362169330776, 5.8"><path class="EdgeBody" d="m37.033 38 44 1"   marker-end="url(#b)" /></g></g><g id="q" class="Edge GraphicalLine DirectedInteraction" color="#000" ><g color="#000" fill="transparent"  filter="url(#a)" stroke="#000" stroke-dasharray="5.3, 3.18, 5.3, 3.18, 5.3, 3.18, 5.3, 3.18, 5.3, 5.8"><path class="EdgeBody" d="m37.033 65 45 1"   marker-end="url(#b)" /></g></g><g id="r" class="Edge GraphicalLine Inhibition" color="#000" ><g color="#000" fill="transparent"  filter="url(#a)" stroke="#000" stroke-dasharray="45, 7"><path class="EdgeBody" d="m36.033 99h52"   marker-end="url(#d)" /></g></g><g class="SingleFreeNode Shape" transform="translate(8,8)" color="#000" ><rect class="Icon" transform="matrix(.99492 0 0 .99265 .49746 .49632)" width="196.03" height="135" fill="transparent"  stroke="#000"/></g><g class="Label" transform="translate(98.033 85)" color="#000"  name="Inhibition"><use class="Icon" width="80" height="20" fill="transparent"  stroke="#000" stroke-width="0" xlink:href="#c"/><text class="Text" transform="translate(40,13)"   font-size="10px"  text-anchor="middle"><tspan x="0" y="0">Inhibition</tspan></text></g><g class="Label" transform="translate(98.033 29)" color="#000"  name="Activation"><use class="Icon" width="80" height="20" fill="transparent"  stroke="#000" stroke-width="0" xlink:href="#c"/><text class="Text" transform="translate(40,13)"   font-size="10px"  text-anchor="middle"><tspan x="0" y="0">Activation</tspan></text></g><g class="Label" transform="translate(98.033 56)" color="#000"  name="Translocation"><use class="Icon" width="80" height="20" fill="transparent"  stroke="#000" stroke-width="0" xlink:href="#c"/><text class="Text" transform="translate(40,13)"   font-size="10px"  text-anchor="middle"><tspan x="0" y="0">Translocation</tspan></text></g></g><g id="s" class="DirectedInteraction" color="#000" ><g color="#000" fill="transparent"  filter="url(#a)" stroke="#000" stroke-dasharray="634.5817613562849, 5.8"><path class="EdgeBody" d="m987 474.48-518 376.52"   marker-end="url(#b)" /></g></g><g class="GroupGroup" transform="translate(1150,821)" color="grey" ><use class="Icon" width="408" height="79" fill="transparent"  stroke="grey" stroke-dasharray="5,3" stroke-width="0" xlink:href="#c"/><g id="t" class="DirectedInteraction" color="#000" ><g color="#000" fill="transparent"  filter="url(#a)" stroke="#000" stroke-dasharray="29.2, 5.8"><path class="EdgeBody" d="m261 20h35"   marker-end="url(#b)" /></g></g><g id="u" class="Interaction" color="#000" ><g color="#000" fill="transparent"  filter="url(#a)" stroke="#000" stroke-dasharray="28, 0"><path class="EdgeBody" d="m261 49v-28"   /></g></g><g class="SingleFreeNode Shape" transform="translate(8 51.967)" color="#000" ><rect class="Icon" transform="matrix(.99686 0 0 .94455 .49843 .47227)" width="317" height="17.033" fill="transparent"  stroke="#000"/></g><g class="Label" transform="translate(259,8)" color="#ff0066"  name="Gene  expression (pS2, Complement 3 etc.)"><use class="Icon" width="141" height="38" fill="transparent"  stroke="#ff0066" stroke-width="0" xlink:href="#c"/><text class="Text" transform="translate(70.5,22)" fill="#ff0066"  font-size="10px" stroke="black" stroke-width="0" text-anchor="middle"><tspan x="0" y="-11">Gene </tspan> <tspan x="0" y="0">expression</tspan> <tspan x="0" y="11">(pS2, Complement 3 etc.)</tspan></text></g><a  class="GeneProduct ESR1 " transform="translate(40 44.967)"   name="ERE"  ><rect class="Icon" transform="matrix(.9939 0 0 .96301 .49695 .4815)" width="163" height="26.033" fill="#fff" stroke="#000"/><text class="Text" transform="translate(81.5 16.017)"   font-size="10px"  text-anchor="middle"><tspan x="0" y="0">ERE</tspan></text></a><a  class="GeneProduct ESR1 " transform="translate(73 23.967)"   name="ER"  ><rect class="Icon" transform="matrix(.99066 0 0 .96301 .49533 .4815)" width="106.03" height="26.033" fill="#fff" stroke="#000"/><text class="Text" transform="translate(53.017 16.017)"   font-size="10px"  text-anchor="middle"><tspan x="0" y="0">ER</tspan></text></a></g><g id="v" class="DirectedInteraction" color="#000" ><g color="#000" fill="transparent"  filter="url(#a)" stroke="#000" stroke-dasharray="49.1666666666667, 5.8"><path class="EdgeBody" d="m95.483 166v54.967"   marker-end="url(#b)" /></g></g><g id="w" class="DirectedInteraction" color="#000" ><g color="#000" fill="transparent"  filter="url(#a)" stroke="#000" stroke-dasharray="5.04, 3.02, 5.04, 3.02, 5.04, 3.02, 5.04, 3.02, 5.04, 3.02, 5.04, 3.02, 5.04, 3.02, 5.04, 3.02, 5.04, 3.02, 5.04, 3.02, 5.04, 3.02, 5.04, 3.02, 5.04, 3.02, 5.04, 3.02, 5.04, 3.02, 5.04, 3.02, 5.04, 3.02, 5.04, 3.02, 5.04, 3.02, 5.04, 3.02, 5.04, 3.02, 5.04, 3.02, 5.04, 3.02, 5.04, 3.02, 5.04, 3.02, 5.04, 3.02, 5.04, 3.02, 5.04, 3.02, 5.04, 3.02, 5.04, 3.02, 5.04, 3.02, 5.04, 3.02, 5.04, 3.02, 5.04, 3.02, 0, 5.8"><path class="EdgeBody" d="m95.483 574-0.25833 277"   marker-end="url(#b)" /></g></g><g id="x" class="DirectedInteraction" color="#000" ><g color="#000" fill="transparent"  filter="url(#a)" stroke="#000" stroke-dasharray="157.16743369288372, 5.8"><path class="EdgeBody" d="m95.983 382-0.5 162.97"   marker-end="url(#b)" /></g></g><g class="GroupGroup" transform="translate(755 812.97)" color="grey" ><use class="Icon" width="384" height="89.0333333333333" fill="transparent"  stroke="grey" stroke-dasharray="5,3" stroke-width="0" xlink:href="#c"/><g id="y" class="DirectedInteraction" color="#000" ><g color="#000" fill="transparent"  filter="url(#a)" stroke="#000" stroke-dasharray="29.2, 5.8"><path class="EdgeBody" d="m261 28.033h35"   marker-end="url(#b)" /></g></g><g id="z" class="Interaction" color="#000" ><g color="#000" fill="transparent"  filter="url(#a)" stroke="#000" stroke-dasharray="28, 0"><path class="EdgeBody" d="m261 57.033v-28"   /></g></g><g class="SingleFreeNode Shape" transform="translate(8,60)" color="#000" ><rect class="Icon" transform="matrix(.99686 0 0 .94455 .49843 .47227)" width="317" height="17.033" fill="transparent"  stroke="#000"/></g><g class="Label" transform="translate(270 18.033)" color="#ff0066"  name="Gene  expression (Cyc D, IGFR1 etc.)"><use class="Icon" width="106" height="37" fill="transparent"  stroke="#ff0066" stroke-width="0" xlink:href="#c"/><text class="Text" transform="translate(53,21.5)" fill="#ff0066"  font-size="10px" stroke="black" stroke-width="0" text-anchor="middle"><tspan x="0" y="-11">Gene </tspan> <tspan x="0" y="0">expression</tspan> <tspan x="0" y="11">(Cyc D, IGFR1 etc.)</tspan></text></g><a  class="GeneProduct ESR1 " transform="translate(40,55)"   name="Non-ERE"  ><rect class="Icon" transform="matrix(.9939 0 0 .96301 .49695 .4815)" width="163" height="26.033" fill="#fff" stroke="#000"/><text class="Text" transform="translate(81.5 16.017)"   font-size="10px"  text-anchor="middle"><tspan x="0" y="0">Non-ERE</tspan></text></a><a  class="GeneProduct ESR1 " transform="translate(73,8)"   name="ER"  ><rect class="Icon" transform="matrix(.99066 0 0 .96301 .49533 .4815)" width="106.03" height="26.033" fill="#fff" stroke="#000"/><text class="Text" transform="translate(53.017 16.017)"   font-size="10px"  text-anchor="middle"><tspan x="0" y="0">ER</tspan></text></a><a  class="GeneProduct ESR1 " transform="translate(73,34)"   name="TF"  ><rect class="Icon" transform="matrix(.99066 0 0 .96301 .49533 .4815)" width="106.03" height="26.033" fill="#fff" stroke="#000"/><text class="Text" transform="translate(53.017 16.017)"   font-size="10px"  text-anchor="middle"><tspan x="0" y="0">TF</tspan></text></a></g><g id="aa" class="DirectedInteraction" color="#000" ><g color="#000" fill="transparent"  filter="url(#a)" stroke="#000" stroke-dasharray="196.2562269011031, 5.8"><path class="EdgeBody" d="m882.48 140-1e-13 3.3333c0 3.3333 0 10-27.079 13.333-27.079 3.3333-81.238 3.3333-108.32-1.9444-27.079-5.2778-27.079-15.833-30.413-21.111-3.3333-5.2778-10-5.2778-13.333-5.2778h-3.3333"   marker-end="url(#b)" /></g></g><g id="ab" class="DirectedInteraction" color="#000" ><g color="#000" fill="transparent"  filter="url(#a)" stroke="#000" stroke-dasharray="69.2, 5.8"><path class="EdgeBody" d="m887 344v75"   marker-end="url(#b)" /></g></g><g id="ac" class="DirectedInteraction" color="#000" ><g color="#000" fill="transparent"  filter="url(#a)" stroke="#000" stroke-dasharray="193.7004016556278, 5.8"><path class="EdgeBody" d="m925.98 590-1e-13 3.3333c1e-13 3.3333 1e-13 10 26.672 13.333 26.672 3.3333 80.017 3.3333 106.69 11.994 26.672 8.6611 26.672 25.983 26.672 34.644v8.6611"   marker-end="url(#b)" /></g></g><g id="ad" class="DirectedInteraction" color="#000" ><g color="#000" fill="transparent"  filter="url(#a)" stroke="#000" stroke-dasharray="265.2304617089023, 5.8"><path class="EdgeBody" d="m1112.5 688v3.3333c0 3.3333 0 10 27.249 13.333 27.249 3.3333 81.746 3.3333 108.99 26.161 27.249 22.828 27.249 68.483 27.249 91.311v22.828"   marker-end="url(#b)" /></g></g><g class="GroupGroup" transform="translate(63,820)" color="grey" ><use class="Icon" width="705" height="77" fill="transparent"  stroke="grey" stroke-dasharray="5,3" stroke-width="0" xlink:href="#c"/><g id="ae" class="Interaction" color="#000" ><g color="#000" fill="transparent"  filter="url(#a)" stroke="#000" stroke-dasharray="27, 0"><path class="EdgeBody" d="m499 49v-27"   /></g></g><g id="af" class="DirectedInteraction" color="#000" ><g color="#000" fill="transparent"  filter="url(#a)" stroke="#000" stroke-dasharray="38.2, 5.8"><path class="EdgeBody" d="m499 22h44"   marker-end="url(#b)" /></g></g><g class="SingleFreeNode Shape" transform="translate(8 50.967)" color="#000" ><rect class="Icon" transform="matrix(.9983 0 0 .94746 .49915 .47373)" width="586" height="18.033" fill="transparent"  stroke="#000"/></g><g class="Label" transform="translate(543,8)" color="#ff0066"  name="Gene expression (anti apoptotic and proliferation)"><use class="Icon" width="154" height="28" fill="transparent"  stroke="#ff0066" stroke-width="0" xlink:href="#c"/><text class="Text" transform="translate(77,17)" fill="#ff0066"  font-size="10px" stroke="black" stroke-width="0" text-anchor="middle"><tspan x="0" y="-5.5">Gene expression</tspan> <tspan x="0" y="5.5">(anti apoptotic and proliferation)</tspan></text></g><a  class="GeneProduct FOS " transform="translate(301.97 31)"   name="C-FOS"  ><rect class="Icon" transform="matrix(.98486 0 0 .95 .49243 .475)" width="65.033" height="19" fill="#fff" stroke="#000"/><text class="Text" transform="translate(32.517 12.5)"   font-size="10px"  text-anchor="middle"><tspan x="0" y="0">C-FOS</tspan></text></a><a  class="GeneProduct SP1 " transform="translate(158.97 31)"   name="SP1"  ><rect class="Icon" transform="matrix(.98508 0 0 .95 .49254 .475)" width="66.033" height="19" fill="#fff" stroke="#000"/><text class="Text" transform="translate(33.017 12.5)"   font-size="10px"  text-anchor="middle"><tspan x="0" y="0">SP1</tspan></text></a><a  class="GeneProduct ELK1 " transform="translate(366,31)"   name="ELK"  ><rect class="Icon" transform="matrix(.98765 0 0 .95122 .49383 .47561)" width="80" height="19.5" fill="#fff" stroke="#000"/><text class="Text" transform="translate(40,12.75)"   font-size="10px"  text-anchor="middle"><tspan x="0" y="0">ELK</tspan></text></a><a  class="GeneProduct JUN " transform="translate(225,31)"   name="c-Jun"  ><rect class="Icon" transform="matrix(.98718 0 0 .95 .49359 .475)" width="77" height="19" fill="#fff" stroke="#000"/><text class="Text" transform="translate(38.5,12.5)"   font-size="10px"  text-anchor="middle"><tspan x="0" y="0">c-Jun</tspan></text></a><a  class="GeneProduct NFKB1 " transform="translate(100.97 31)"   name="NFKB"  ><rect class="Icon" transform="matrix(.98277 0 0 .95 .49138 .475)" width="57.033" height="19" fill="#fff" stroke="#000"/><text class="Text" transform="translate(28.517 12.5)"   font-size="10px"  text-anchor="middle"><tspan x="0" y="0">NFKB</tspan></text></a><a  class="GeneProduct CREB1 " transform="translate(8.9667 31)"   name="CREB"  ><rect class="Icon" transform="matrix(.98937 0 0 .95 .49468 .475)" width="93.033" height="19" fill="#fff" stroke="#000"/><text class="Text" transform="translate(46.517 12.5)"   font-size="10px"  text-anchor="middle"><tspan x="0" y="0">CREB</tspan></text></a></g><g id="ag" class="DirectedInteraction" color="#000" ><g color="#000" fill="transparent"  filter="url(#a)" stroke="#000" stroke-dasharray="385.4851830778971, 5.8"><path class="EdgeBody" d="m1224.5 689-2e-13 3.3333c2e-13 3.3333 2e-13 10-52.831 13.333-52.831 3.3333-158.49 3.3333-211.32 21.994-52.831 18.661-52.831 55.983-52.831 74.644l1e-13 18.661"   marker-end="url(#b)" /></g></g><g id="ah" class="DirectedInteraction" color="#000" ><g color="#000" fill="transparent"  filter="url(#a)" stroke="#000" stroke-dasharray="233.89829958626802, 5.8"><path class="EdgeBody" d="m665 474.48v13.332c0 13.332 0 39.996-31.667 53.328s-95 13.332-126.67 13.332h-31.667"   marker-end="url(#b)" /></g></g><g id="ai" class="DirectedInteraction" color="#000" ><g color="#000" fill="transparent"  filter="url(#a)" stroke="#000" stroke-dasharray="70.2, 5.8"><path class="EdgeBody" d="m887 248v76"   marker-end="url(#b)" /></g></g><g id="aj" class="DirectedInteraction" color="#000" ><g color="#000" fill="transparent"  filter="url(#a)" stroke="#000" stroke-dasharray="593.5909132981951, 5.8"><path class="EdgeBody" d="m792.48 474-465.98 377"   marker-end="url(#b)" /></g></g><g id="ak" class="Interaction" color="#000" ><g color="#000" fill="transparent"  filter="url(#a)" stroke="#000" stroke-dasharray="105.89290242735568, 0"><path class="EdgeBody" d="m906.99 475-1e-13 3.3333c0 3.3333 0 10 3.1653 13.333 3.1653 3.3333 9.4958 3.3333 12.661 16.667s3.1653 40 3.1653 53.333l1e-13 13.333"   /></g></g><g id="al" class="DirectedInteraction" color="#000" ><g color="#000" fill="transparent"  filter="url(#a)" stroke="#000" stroke-dasharray="348.051981780217, 5.8"><path class="EdgeBody" d="m476.97 28.725h-55.581c-55.581-2e-15 -166.74-2e-15 -222.32 7.3736-55.581 7.3736-55.581 22.121-55.581 29.494v7.3736"   marker-end="url(#b)" /></g></g><g id="am" class="DirectedInteraction" color="#000" ><g color="#000" fill="transparent"  filter="url(#a)" stroke="#000" stroke-dasharray="527.5246882025326, 5.8"><path class="EdgeBody" d="m1115 185.74h22.747c22.747 0 68.242 0 90.989 75.871 22.747 75.871 22.747 227.61 22.747 303.48v75.871"   marker-end="url(#b)" /></g></g><g id="an" class="DirectedInteraction" color="#000" ><g color="#000" fill="transparent"  filter="url(#a)" stroke="#000" stroke-dasharray="378.41319247430465, 5.8"><path class="EdgeBody" d="m908.98 140v25.832c-1e-13 25.832-1e-13 77.496-46.997 103.33-46.997 25.832-140.99 25.832-187.99 25.832l-46.997 1e-13"   marker-end="url(#b)" /></g></g><g id="ao" class="Edge GraphicalLine" color="#000" ><g color="#000" fill="transparent"  filter="url(#a)" stroke="#000" stroke-dasharray="5.02, 3.01, 5.02, 3.01, 5.02, 3.01, 5.02, 3.01, 5.02, 3.01, 5.02, 3.01, 5.02, 3.01, 5.02, 3.01, 5.02, 3.01, 5.02, 3.01, 5.02, 3.01, 5.02, 3.01, 5.02, 3.01, 5.02, 3.01, 5.02, 3.01, 5.02, 3.01, 5.02, 3.01, 5.02, 3.01, 5.02, 3.01, 5.02, 3.01, 5.02, 3.01, 5.02, 3.01, 5.02, 3.01, 5.02, 3.01, 5.02, 3.01, 5.02, 3.01, 5.02, 3.01, 5.02, 3.01, 5.02, 3.01, 5.02, 3.01, 5.02, 3.01, 5.02, 3.01, 5.02, 3.01, 5.02, 3.01, 5.02, 3.01, 5.02, 3.01, 5.02, 3.01, 5.02, 3.01, 5.02, 3.01, 5.02, 3.01, 5.02, 3.01, 5.02, 3.01, 5.02, 3.01, 5.02, 3.01, 5.02, 3.01, 5.02, 3.01, 5.02, 3.01, 5.02, 3.01, 5.02, 3.01, 5.02, 3.01, 5.02, 3.01, 5.02, 3.01, 5.02, 3.01, 5.02, 3.01, 5.02, 3.01, 5.02, 3.01, 5.02, 3.01, 5.02, 3.01, 5.02, 3.01, 5.02, 3.01, 5.02, 3.01, 5.02, 3.01, 5.02, 3.01, 5.02, 3.01, 5.02, 3.01, 5.02, 3.01, 5.02, 3.01, 5.02, 3.01, 5.02, 3.01, 5.02, 3.01, 5.02, 3.01, 5.02, 3.01, 5.02, 3.01, 5.02, 3.01, 5.02, 3.01, 5.02, 3.01, 5.02, 3.01, 5.02, 3.01, 5.02, 3.01, 5.02, 3.01, 5.02, 3.01, 5.02, 3.01, 5.02, 3.01, 5.02, 3.01, 5.02, 3.01, 5.02, 3.01, 5.02, 3.01, 5.02, 3.01, 5.02, 3.01, 5.02, 3.01, 5.02, 3.01, 5.02, 3.01, 5.02, 3.01, 5.02, 3.01, 5.02, 3.01, 5.02, 3.01, 5.02, 3.01, 5.02, 3.01, 5.02, 3.01, 5.02, 3.01, 5.02, 3.01, 5.02, 3.01, 5.02, 3.01, 5.02, 3.01, 5.02, 3.01, 5.02, 3.01, 5.02, 3.01, 5.02, 3.01, 5.02, 3.01, 5.02, 3.01, 5.02, 3.01, 5.02, 3.01, 5.02, 3.01, 5.02, 3.01, 5.02, 3.01, 5.02, 3.01, 5.02, 3.01, 5.02, 3.01, 5.02, 3.01, 5.02, 3.01, 5.02, 3.01, 5.02, 3.01, 5.02, 3.01, 5.02, 3.01, 5.02, 3.01, 5.02, 3.01, 5.02, 3.01, 5.02, 3.01, 5.02, 3.01, 5.02, 3.01, 5.02, 3.01, 5.02, 3.01, 5.02, 3.01, 5.02, 3.01, 5.02, 3.01, 5.02, 3.01, 5.02, 3.01, 5.02, 3.01, 5.02, 3.01, 5.02, 3.01, 5.02, 3.01, 5.02, 3.01, 5.02, 3.01, 5.02, 3.01, 5.02, 3.01, 5.02, 3.01, 5.02, 3.01, 5.02, 3.01, 5.02, 3.01, 5.02, 3.01, 5.02, 3.01, 5.02, 3.01, 5.02, 3.01, 5.02, 3.01, 5.02, 3.01, 5.02, 3.01, 5.02, 3.01, 5.02, 3.01, 5.02, 3.01, 5.02, 3.01, 5.02, 3.01, 5.02, 3.01, 5.02, 3.01, 5.02, 3.01, 5.02, 3.01, 5.02, 3.01, 5.02, 3.01, 5.02, 3.01, 5.02, 3.01, 5.02, 3.01, 5.02, 3.01, 5.02, 3.01, 5.02, 3.01, 5.02, 3.01, 5.02, 3.01, 5.02, 3.01, 5.02, 3.01, 5.02, 3.01, 5.02, 3.01, 5.02, 3.01, 5.02, 3.01, 5.02, 3.01, 5.02, 3.01, 5.02, 3.01, 5.02, 3.01, 5.02, 3.01, 5.02, 3.01, 5.02, 3.01, 5.02, 3.01, 5.02, 3.01, 5.02, 3.01, 5.02, 3.01, 5.02, 3.01, 5.02, 3.01, 5.02, 3.01, 5.02, 3.01, 5.02, 3.01, 5.02, 3.01, 5.02, 3.01, 5.02, 3.01, 5.02, 3.01, 5.02, 3.01, 5.02, 3.01, 5.02, 3.01, 5.02, 3.01, 5.02, 3.01, 5.02, 3.01, 5.02, 3.01, 5.02, 3.01, 5.02, 3.01, 5.02, 3.01, 5.02, 3.01, 5.02, 3.01, 5.02, 3.01, 5.02, 3.01, 5.02, 3.01, 5.02, 3.01, 0, 0"><path class="EdgeBody" d="m13 104 1740 4"   /></g></g><g id="ap" class="DirectedInteraction" color="#000" ><g color="#000" fill="transparent"  filter="url(#a)" stroke="#000" stroke-dasharray="491.8182850653188, 5.8"><path class="EdgeBody" d="m185.97 166v3.3333c0 3.3333 0 10 78.421 13.333 78.421 3.3333 235.26 3.3333 313.68-4.6111 78.421-7.9444 78.421-23.833 78.421-31.778l1e-13 -7.9444"   marker-end="url(#b)" /></g></g><g id="aq" class="Interaction" color="#000" ><g color="#000" fill="transparent"  filter="url(#a)" stroke="#000" stroke-dasharray="197.7217897397683, 0"><path class="EdgeBody" d="m792.48 474-1e-13 3.3333c1e-13 3.3333 1e-13 10 22.25 13.333 22.25 3.3333 66.75 3.3333 89 16.833 22.25 13.5 22.25 40.5 22.25 54l1e-13 13.5"   /></g></g><g id="ar" class="DirectedInteraction" color="#000" ><g color="#000" fill="transparent"  filter="url(#a)" stroke="#000" stroke-dasharray="465.1980377812724, 5.8"><path class="EdgeBody" d="m1077.5 195v64.583c0 64.583 0 193.75-23.247 258.33-23.247 64.583-69.742 64.583-92.989 64.583h-23.247"   marker-end="url(#b)" /></g></g><g id="as" class="DirectedInteraction" color="#000" ><g color="#000" fill="transparent"  filter="url(#a)" stroke="#000" stroke-dasharray="99.38392358960236, 5.8"><path class="EdgeBody" d="m562.49 139v3.3333c-1e-13 3.3333-1e-13 10 9.9181 13.333 9.9181 3.3333 29.754 3.3333 39.672-1.7778 9.9181-5.1111 9.9181-15.333 13.251-20.444 3.3333-5.1111 10-5.1111 13.333-5.1111h3.3333"   marker-end="url(#b)" /></g></g><g id="at" class="DirectedInteraction" color="#000" ><g color="#000" fill="transparent"  filter="url(#a)" stroke="#000" stroke-dasharray="615.9840853622586, 5.8"><path class="EdgeBody" d="m1516.5 56v3.3333c-2e-13 3.3333-2e-13 10-101.25 13.333-101.25 3.3333-303.75 3.3333-405 7.3278-101.25 3.9944-101.25 11.983-101.25 15.978v3.9944"   marker-end="url(#b)" /></g></g><g id="au" class="DirectedInteraction" color="#000" ><g color="#000" fill="transparent"  filter="url(#a)" stroke="#000" stroke-dasharray="549.5137725568751, 5.8"><path class="EdgeBody" d="m594 28.725h80.581c80.581-2e-15 241.74-2e-15 322.32 21.54 80.581 21.54 80.581 64.621 80.581 86.161v21.54"   marker-end="url(#b)" /></g></g><g id="av" class="DirectedInteraction" color="#000" ><g color="#000" fill="transparent"  filter="url(#a)" stroke="#000" stroke-dasharray="650.732748611979, 5.8"><path class="EdgeBody" d="m792.48 474-537.5 377"   marker-end="url(#b)" /></g></g><g id="aw" class="Interaction" color="#000" ><g color="#000" fill="transparent"  filter="url(#a)" stroke="#000" stroke-dasharray="151.75677592504465, 0"><path class="EdgeBody" d="m1007 474.48-2e-13 3.3333c1e-13 3.3333 1e-13 10-13.503 13.333-13.503 3.3333-40.508 3.3333-54.011 16.753-13.503 13.419-13.503 40.258-13.503 53.678l1e-13 13.419"   /></g></g><g id="ax" class="DirectedInteraction" color="#000" ><g color="#000" fill="transparent"  filter="url(#a)" stroke="#000" stroke-dasharray="612.234181902587, 5.8"><path class="EdgeBody" d="m887.98 475-490.5 376"   marker-end="url(#b)" /></g></g><g id="ay" class="Interaction" color="#000" ><g color="#000" fill="transparent"  filter="url(#a)" stroke="#000" stroke-dasharray="277.6893806511602, 0"><path class="EdgeBody" d="m705 474.48v3.3333c0 3.3333 0 10 36.831 13.333 36.831 3.3333 110.49 3.3333 147.32 16.753 36.831 13.419 36.831 40.258 36.831 53.678l1e-13 13.419"   /></g></g><g id="az" class="Interaction" color="#000" ><g color="#000" fill="transparent"  filter="url(#a)" stroke="#000" stroke-dasharray="898.7214878705233, 0"><path class="EdgeBody" d="m118.49 382-2e-14 25c1e-14 25 1e-14 75 134.58 100 134.58 25 403.75 25 538.33 32.167 134.58 7.1667 134.58 21.5 134.58 28.667l1e-13 7.1667"   /></g></g><g id="ba" class="DirectedInteraction" color="#000" ><g color="#000" fill="transparent"  filter="url(#a)" stroke="#000" stroke-dasharray="258.3855735391697, 5.8"><path class="EdgeBody" d="m1059.5 688-2e-13 3.3333c2e-13 3.3333 2e-13 10-29.749 13.333-29.749 3.3333-89.246 3.3333-118.99 22.161-29.749 18.828-29.749 56.483-29.749 75.311v18.828"   marker-end="url(#b)" /></g></g><g id="bb" class="DirectedInteraction" color="#000" ><g color="#000" fill="transparent"  filter="url(#a)" stroke="#000" stroke-dasharray="96.16789255011173, 5.8"><path class="EdgeBody" d="m95.483 251 0.5 101.97"   marker-end="url(#b)" /></g></g><g id="bc" class="DirectedInteraction" color="#000" ><g color="#000" fill="transparent"  filter="url(#a)" stroke="#000" stroke-dasharray="5.01, 3.01, 5.01, 3.01, 5.01, 3.01, 5.01, 3.01, 5.01, 3.01, 5.01, 3.01, 5.01, 3.01, 5.01, 3.01, 5.01, 3.01, 5.01, 3.01, 5.01, 3.01, 5.01, 3.01, 5.01, 3.01, 5.01, 3.01, 5.01, 3.01, 5.01, 3.01, 5.01, 3.01, 5.01, 3.01, 5.01, 3.01, 5.01, 3.01, 5.01, 3.01, 5.01, 3.01, 5.01, 3.01, 5.01, 3.01, 5.01, 3.01, 5.01, 3.01, 5.01, 3.01, 5.01, 3.01, 5.01, 3.01, 5.01, 3.01, 5.01, 3.01, 5.01, 3.01, 5.01, 3.01, 5.01, 3.01, 5.01, 3.01, 5.01, 3.01, 5.01, 3.01, 5.01, 3.01, 5.01, 3.01, 5.01, 3.01, 5.01, 3.01, 5.01, 3.01, 5.01, 3.01, 5.01, 3.01, 5.01, 3.01, 5.01, 5.8"><path class="EdgeBody" d="m446.48 580-254 271"   marker-end="url(#b)" /></g></g><g id="bd" class="DirectedInteraction" color="#000" ><g color="#000" fill="transparent"  filter="url(#a)" stroke="#000" stroke-dasharray="167.0985758278838, 5.8"><path class="EdgeBody" d="m671 138.33v3.3333c0 3.3333 0 10-11.335 13.333-11.335 3.3333-34.004 3.3333-45.339 22.606-11.335 19.272-11.335 57.817-11.335 77.089v19.272"   marker-end="url(#b)" /></g></g><g id="be" class="DirectedInteraction" color="#000" ><g color="#000" fill="transparent"  filter="url(#a)" stroke="#000" stroke-dasharray="108.62812315529379, 5.8"><path class="EdgeBody" d="m935.49 140-1e-13 3.3333c0 3.3333 0 10-8.0819 13.333-8.0819 3.3333-24.246 3.3333-32.328 14.667-8.0819 11.333-8.0819 34-8.0819 45.333l2e-13 11.333"   marker-end="url(#b)" /></g></g><g id="bf" class="DirectedInteraction" color="#000" ><g color="#000" fill="transparent"  filter="url(#a)" stroke="#000" stroke-dasharray="174.09992948845857, 5.8"><path class="EdgeBody" d="m1251 689v3.3333c0 3.3333 0 10 8.5847 13.333 8.5847 3.3333 25.754 3.3333 34.339 25.994 8.5847 22.661 8.5847 67.983 8.5847 90.644v22.661"   marker-end="url(#b)" /></g></g><g id="bg" class="Edge GraphicalLine" color="#000" ><g color="#000" fill="transparent"  filter="url(#a)" stroke="#000" stroke-dasharray="5, 3, 5, 3, 5, 3, 5, 3, 5, 3, 5, 3, 5, 3, 5, 3, 5, 3, 5, 3, 5, 3, 5, 3, 5, 3, 5, 3, 5, 3, 5, 3, 5, 3, 5, 3, 5, 3, 5, 3, 5, 3, 5, 3, 5, 3, 5, 3, 5, 3, 5, 3, 5, 3, 5, 3, 5, 3, 5, 3, 5, 3, 5, 3, 5, 3, 5, 3, 5, 3, 5, 3, 5, 3, 5, 3, 5, 3, 5, 3, 5, 3, 5, 3, 5, 3, 5, 3, 5, 3, 5, 3, 5, 3, 5, 3, 5, 3, 5, 3, 5, 3, 5, 3, 5, 3, 5, 3, 5, 3, 5, 3, 5, 3, 5, 3, 5, 3, 5, 3, 5, 3, 5, 3, 5, 3, 5, 3, 5, 3, 5, 3, 5, 3, 5, 3, 5, 3, 5, 3, 5, 3, 5, 3, 5, 3, 5, 3, 5, 3, 5, 3, 5, 3, 5, 3, 5, 3, 5, 3, 5, 3, 5, 3, 5, 3, 5, 3, 5, 3, 5, 3, 5, 3, 5, 3, 5, 3, 5, 3, 5, 3, 5, 3, 5, 3, 5, 3, 5, 3, 5, 3, 5, 3, 5, 3, 5, 3, 5, 3, 5, 3, 5, 3, 5, 3, 5, 3, 5, 3, 5, 3, 5, 3, 5, 3, 5, 3, 5, 3, 5, 3, 5, 3, 5, 3, 5, 3, 5, 3, 5, 3, 5, 3, 5, 3, 5, 3, 5, 3, 5, 3, 5, 3, 5, 3, 5, 3, 5, 3, 5, 3, 5, 3, 5, 3, 5, 3, 5, 3, 5, 3, 5, 3, 5, 3, 5, 3, 5, 3, 5, 3, 5, 3, 5, 3, 5, 3, 5, 3, 5, 3, 5, 3, 5, 3, 5, 3, 5, 3, 5, 3, 5, 3, 5, 3, 5, 3, 5, 3, 5, 3, 5, 3, 5, 3, 5, 3, 5, 3, 5, 3, 5, 3, 5, 3, 5, 3, 5, 3, 5, 3, 5, 3, 5, 3, 5, 3, 5, 3, 5, 3, 5, 3, 5, 3, 5, 3, 5, 3, 5, 3, 5, 3, 5, 3, 5, 3, 5, 3, 5, 3, 5, 3, 5, 3, 5, 3, 5, 3, 5, 3, 5, 3, 5, 3, 5, 3, 5, 3, 5, 3, 5, 3, 5, 3, 5, 3, 5, 3, 5, 3, 5, 3, 5, 3, 5, 3, 5, 3, 5, 3, 5, 3, 5, 3, 5, 3, 5, 3, 5, 3, 5, 3, 5, 3, 5, 3, 5, 3, 5, 3, 5, 3, 5, 3, 5, 3, 5, 3, 5, 3, 5, 3, 5, 3, 5, 3, 5, 3, 5, 3, 5, 3, 5, 3, 0, 0"><path class="EdgeBody" d="m13 116 1741 6"   /></g></g><g id="bh" class="Inhibition" color="#000" ><g color="#000" fill="transparent"  filter="url(#a)" stroke="#000" stroke-dasharray="306.28621099563253, 7"><path class="EdgeBody" d="m665 454.48-244-196.5"   marker-end="url(#d)" /></g></g><g class="SingleFreeNode Shape" transform="translate(-5.5,540.5)" color="#c0c0c0" ><g fill="transparent"  filter="url(#f)" stroke="#c0c0c0" stroke-width="3"><use class="Icon" transform="matrix(.99296 0 0 .98036 5.9578 5.8822)" width="1693" height="599"    xlink:href="#e"/></g></g><g class="GroupGroup" transform="translate(227.97 189)" color="grey" ><use class="Icon" width="249.0333333333333" height="279" fill="transparent"  stroke="grey" stroke-dasharray="5,3" stroke-width="0" xlink:href="#c"/><g class="SingleFreeNode Shape" transform="translate(43 19.967)" color="#000" ><use class="Icon" transform="matrix(.99338 0 0 .9899 .49669 .49495)" width="150.03333333333333" height="98.03333333333333" fill="transparent"  stroke="#000" xlink:href="#e"/></g><g class="SingleFreeNode Shape" transform="translate(8,8)" color="#ccc" ><rect class="Icon" transform="matrix(.99573 0 0 .99621 .49786 .49811)" width="233.03" height="263" fill="transparent"  stroke="#ccc"/></g><g class="Label" transform="translate(73.033 91)" color="#000"  name="Mitochondrion"><use class="Icon" width="80" height="20" fill="transparent"  stroke="#000" stroke-width="0" xlink:href="#c"/><text class="Text" transform="translate(40,13)"   font-size="10px"  text-anchor="middle"><tspan x="0" y="0">Mitochondrion</tspan></text></g><g class="Label" transform="translate(49.033 250)" color="#ff3333"  name="Non-genomic function of ER (fast)"><use class="Icon" width="159" height="20" fill="transparent"  stroke="#ff3333" stroke-width="0" xlink:href="#c"/><text class="Text" transform="translate(79.5,13)" fill="#ff3333"  font-size="10px" stroke="black" stroke-width="0" text-anchor="middle"><tspan x="0" y="0">Non-genomic function of ER (fast)</tspan></text></g><g class="Label" transform="translate(44.033 184)" color="#000"  name="cell proliferation and progression MTOR signaling etc."><use class="Icon" width="159" height="35" fill="transparent"  stroke="#000" stroke-width="0" xlink:href="#c"/><text class="Text" transform="translate(79.5,20.5)"   font-size="10px"  text-anchor="middle"><tspan x="0" y="-5.5">cell proliferation and progression</tspan> <tspan x="0" y="5.5">MTOR signaling etc.</tspan></text></g><a  class="GeneProduct BCL2 " transform="translate(54 54.967)"   name="BCL2 Apoptotic switch"  ><rect class="Icon" transform="matrix(.99237 0 0 .96301 .49618 .4815)" width="130.03" height="26.033" fill="#fff" stroke="#000"/><text class="Text" transform="translate(65.017 16.017)"   font-size="10px"  text-anchor="middle"><tspan x="0" y="0">BCL2 Apoptotic switch</tspan></text></a></g><g class="SingleFreeNode Shape" transform="translate(431 903) rotate(180 497 29.5)" color="#000" ><use class="Icon" transform="matrix(.99899 0 0 .98333 .4995 .49167)" width="994" height="59.00000000000012" fill="transparent"  stroke="#000" xlink:href="#h"/></g><g class="SingleFreeNode Shape" transform="translate(913.97 575)" color="#000" ><use class="Icon" transform="matrix(.96005 0 0 .9375 .48003 .46875)" width="24.033333333333335" height="15" fill="transparent"  stroke="#000" xlink:href="#e"/></g><g class="Label" transform="translate(1341,982)" color="#000"  name="Nucleus"><use class="Icon" width="80" height="27" fill="transparent"  stroke="#000" stroke-width="0" xlink:href="#c"/><text class="Text" transform="translate(40,19.5)"   font-size="20px"  text-anchor="middle"><tspan x="0" y="0">Nucleus</tspan></text></g><g class="Label" transform="translate(514,257)" color="#000"  name="IKK Complex"><use class="Icon" width="80" height="20" fill="transparent"  stroke="#000" stroke-width="0" xlink:href="#c"/><text class="Text" transform="translate(40,13)"   font-size="10px" font-weight="bold"  text-anchor="middle"><tspan x="0" y="0">IKK Complex</tspan></text></g><g class="Label" transform="translate(838,967)" color="#ff3333"  name="Genomic function of ER (Slow)"><use class="Icon" width="159" height="20" fill="transparent"  stroke="#ff3333" stroke-width="0" xlink:href="#c"/><text class="Text" transform="translate(79.5,13)" fill="#ff3333"  font-size="10px" stroke="black" stroke-width="0" text-anchor="middle"><tspan x="0" y="0">Genomic function of ER (Slow)</tspan></text></g><g class="GroupGroup" transform="translate(1190 632.97)" color="grey" ><use class="Icon" width="122.0333333333333" height="64.0333333333333" fill="transparent"  stroke="grey" stroke-dasharray="5,3" stroke-width="0" xlink:href="#c"/><a class="Metabolite ChEBI_CHEBI_16469  " transform="translate(31.967 8)" color="#00f"  name="Estradiol"  ><rect class="Icon" transform="matrix(.98334 0 0 .95461 .49167 .47731)" width="59.033" height="21.033" fill="#fff" stroke="#00f"/><text class="Text" transform="translate(29.517 13.517)" fill="#00f"  font-size="10px"  text-anchor="middle"><tspan x="0" y="0">Estradiol</tspan></text></a><a  class="GeneProduct ESR1 " transform="translate(8,30)"   name="ER-AF2"  ><rect class="Icon" transform="matrix(.99066 0 0 .96301 .49533 .4815)" width="106.03" height="26.033" fill="#fff" stroke="#000"/><text class="Text" transform="translate(53.017 16.017)"   font-size="10px"  text-anchor="middle"><tspan x="0" y="0">ER-AF2</tspan></text></a></g><g class="GroupGroup" transform="translate(1025 653.97)" color="grey" ><use class="Icon" width="122.0333333333333" height="42.0333333333333" fill="transparent"  stroke="grey" stroke-dasharray="5,3" stroke-width="0" xlink:href="#c"/><a  class="GeneProduct ESR1 " transform="translate(8,8)"   name="ER-AF1"  ><rect class="Icon" transform="matrix(.99066 0 0 .96301 .49533 .4815)" width="106.03" height="26.033" fill="#fff" stroke="#000"/><text class="Text" transform="translate(53.017 16.017)"   font-size="10px"  text-anchor="middle"><tspan x="0" y="0">ER-AF1</tspan></text></a></g><a  class="GeneProduct ESR1 " transform="translate(482.97 98.967)"   name="ER"  ><rect class="Icon" transform="matrix(.99066 0 0 .97563 .49533 .48781)" width="106.03" height="40.033" fill="#fff" stroke="#000"/><text class="Text" transform="translate(53.017 23.017)"   font-size="10px"  text-anchor="middle"><tspan x="0" y="0">ER</tspan></text></a><g class="GroupGroup" transform="translate(1040 157.97)" color="grey" ><use class="Icon" width="75.0333333333333" height="37.03333333333333" fill="transparent"  stroke="grey" stroke-dasharray="5,3" stroke-width="0" xlink:href="#c"/><a class="Metabolite ChEBI_CHEBI_16469  " transform="translate(8,8)" color="#00f"  name="Estradiol"  ><rect class="Icon" transform="matrix(.98334 0 0 .95461 .49167 .47731)" width="59.033" height="21.033" fill="#fff" stroke="#00f"/><text class="Text" transform="translate(29.517 13.517)" fill="#00f"  font-size="10px"  text-anchor="middle"><tspan x="0" y="0">Estradiol</tspan></text></a></g><g class="GroupGroup" transform="translate(60.967 64.967)" color="grey" ><use class="Icon" width="169.0333333333333" height="109.0333333333333" fill="transparent"  stroke="grey" stroke-dasharray="5,3" stroke-width="0" xlink:href="#c"/><a  class="GeneProduct GPER1 " transform="translate(36 8)"   name="GPR30"  ><rect class="Icon" transform="matrix(.98937 0 0 .9853 .49468 .49265)" width="93.033" height="67.033" fill="#fff" stroke="#000"/><text class="Text" transform="translate(46.517 36.517)"   font-size="10px"  text-anchor="middle"><tspan x="0" y="0">GPR30</tspan></text></a><a  class="GeneProduct GNGT1 " transform="translate(113 76)"   name="GNGT1"  ><rect class="Icon" transform="matrix(.97961 0 0 .96159 .4898 .48079)" width="48.033" height="25.033" fill="#fff" stroke="#000"/><text class="Text" transform="translate(24.017 15.517)"   font-size="10px"  text-anchor="middle"><tspan x="0" y="0">GNGT1</tspan></text></a><a  class="GeneProduct GNB1 " transform="translate(62 76)"   name="GNB1"  ><rect class="Icon" transform="matrix(.9804 0 0 .96159 .4902 .48079)" width="50.033" height="25.033" fill="#fff" stroke="#000"/><text class="Text" transform="translate(25.017 15.517)"   font-size="10px"  text-anchor="middle"><tspan x="0" y="0">GNB1</tspan></text></a><a  class="GeneProduct GNAS " transform="translate(8 76)"   name="GSA"  ><rect class="Icon" transform="matrix(.98149 0 0 .96159 .49075 .48079)" width="53.033" height="25.033" fill="#fff" stroke="#000"/><text class="Text" transform="translate(26.517 15.517)"   font-size="10px"  text-anchor="middle"><tspan x="0" y="0">GSA</tspan></text></a></g><a  class="GeneProduct PIK3CA " transform="translate(642 118.33)"   name="PI3K"  ><rect class="Icon" transform="matrix(.98305 0 0 .95238 .49153 .47619)" width="58" height="20" fill="#fff" stroke="#000"/><text class="Text" transform="translate(29,13)"   font-size="10px"  text-anchor="middle"><tspan x="0" y="0">PI3K</tspan></text></a><a class="Metabolite ChEBI_CHEBI_16469  " transform="translate(476.97 20.967)" color="#00f"  name="Estradiol"  ><rect class="Icon" transform="matrix(.99153 0 0 .96878 .49576 .48439)" width="117.03" height="31.033" fill="#fff" stroke="#00f"/><text class="Text" transform="translate(58.517 18.517)" fill="#00f"  font-size="10px"  text-anchor="middle"><tspan x="0" y="0">Estradiol</tspan></text></a><a class="Metabolite ChEBI_CHEBI_16469  " transform="translate(1458 24.967)" color="#00f"  name="Growth factors"  ><rect class="Icon" transform="matrix(.99153 0 0 .96878 .49576 .48439)" width="117.03" height="31.033" fill="#fff" stroke="#00f"/><text class="Text" transform="translate(58.517 18.517)" fill="#00f"  font-size="10px"  text-anchor="middle"><tspan x="0" y="0">Growth factors</tspan></text></a><a  class="GeneProduct ESR1 " transform="translate(855.97 99.967)"   name="GFRs"  ><rect class="Icon" transform="matrix(.99066 0 0 .97563 .49533 .48781)" width="106.03" height="40.033" fill="#fff" stroke="#000"/><text class="Text" transform="translate(53.017 23.017)"   font-size="10px"  text-anchor="middle"><tspan x="0" y="0">GFRs</tspan></text></a><a class="Metabolite ChEBI_CHEBI_17489  " transform="translate(49.967 220.97)" color="#00f"  name="Cyclic AMP"  ><rect class="Icon" transform="matrix(.98913 0 0 .96778 .49457 .48389)" width="91.033" height="30.033" fill="#fff" stroke="#00f"/><text class="Text" transform="translate(45.517 18.017)" fill="#00f"  font-size="10px"  text-anchor="middle"><tspan x="0" y="0">Cyclic AMP</tspan></text></a><a  class="GeneProduct AKT1 " transform="translate(645 454.48)"   name="PKB/Akt"  ><rect class="Icon" transform="matrix(.98765 0 0 .95238 .49383 .47619)" width="80" height="20" fill="#fff" stroke="#000"/><text class="Text" transform="translate(40,13)"   font-size="10px"  text-anchor="middle"><tspan x="0" y="0">PKB/Akt</tspan></text></a><a  class="GeneProduct BRAF " transform="translate(847,228)"   name="MAPKKK"  ><rect class="Icon" transform="matrix(.98765 0 0 .95238 .49383 .47619)" width="80" height="20" fill="#fff" stroke="#000"/><text class="Text" transform="translate(40,13)"   font-size="10px"  text-anchor="middle"><tspan x="0" y="0">MAPKKK</tspan></text></a><a  class="GeneProduct MAP2K1 " transform="translate(847,324)"   name="MAPKK"  ><rect class="Icon" transform="matrix(.98765 0 0 .95238 .49383 .47619)" width="80" height="20" fill="#fff" stroke="#000"/><text class="Text" transform="translate(40,13)"   font-size="10px"  text-anchor="middle"><tspan x="0" y="0">MAPKK</tspan></text></a><a  class="GeneProduct PRKACA " transform="translate(50.967 352.97)"   name="PKACA"  ><rect class="Icon" transform="matrix(.98902 0 0 .9667 .49451 .48335)" width="90.033" height="29.033" fill="#fff" stroke="#000"/><text class="Text" transform="translate(45.017 17.517)"   font-size="10px"  text-anchor="middle"><tspan x="0" y="0">PKACA</tspan></text></a><a  class="GeneProduct NFKB1 " transform="translate(417.97 545.97)"   name="NFKB"  ><rect class="Icon" transform="matrix(.98277 0 0 .97146 .49138 .48573)" width="57.033" height="34.033" fill="#fff" stroke="#000"/><text class="Text" transform="translate(28.517 20.017)"   font-size="10px"  text-anchor="middle"><tspan x="0" y="0">NFKB</tspan></text></a><a  class="GeneProduct CREB1 " transform="translate(48.967 544.97)"   name="CREB"  ><rect class="Icon" transform="matrix(.98937 0 0 .9667 .49468 .48335)" width="93.033" height="29.033" fill="#fff" stroke="#000"/><text class="Text" transform="translate(46.517 17.517)"   font-size="10px"  text-anchor="middle"><tspan x="0" y="0">CREB</tspan></text></a><g class="GroupComplex" transform="translate(530.97 273.97)" color="grey" ><use class="Icon" transform="matrix(.98969 0 0 .98825 .49485 .49412)" width="96.03333333333319" height="84.09999999999991" fill="#b4b464" fill-opacity=".1" stroke="grey" xlink:href="#g"/><a  class="GeneProduct CHUK " transform="translate(12,12)"   name="CHUK"  ><rect class="Icon" transform="matrix(.98631 0 0 .95246 .49315 .47623)" width="72.033" height="20.033" fill="#fff" stroke="#000"/><text class="Text" transform="translate(36.017 13.017)"   font-size="10px"  text-anchor="middle"><tspan x="0" y="0">CHUK</tspan></text></a><a  class="GeneProduct IKBKB " transform="translate(12 32.033)"   name="IKBKB"  ><rect class="Icon" transform="matrix(.98631 0 0 .95246 .49315 .47623)" width="72.033" height="20.033" fill="#fff" stroke="#000"/><text class="Text" transform="translate(36.017 13.017)"   font-size="10px"  text-anchor="middle"><tspan x="0" y="0">IKBKB</tspan></text></a><a  class="GeneProduct IKBKG " transform="translate(12 52.067)"   name="IKBKG"  ><rect class="Icon" transform="matrix(.98631 0 0 .95246 .49315 .47623)" width="72.033" height="20.033" fill="#fff" stroke="#000"/><text class="Text" transform="translate(36.017 13.017)"   font-size="10px"  text-anchor="middle"><tspan x="0" y="0">IKBKG</tspan></text></a></g><text class="Text" transform="translate(5,45)" dominant-baseline="central" fill="black"  font-size="12px" font-weight="bold" overflow="visible" ><tspan x="0" y="-27">Name: Estrogen signaling pathway</tspan> <tspan x="0" y="-9">License: CC BY 2.0</tspan> <tspan x="0" y="9">Last Modified: 5/16/2012</tspan> <tspan x="0" y="27">Organism: Homo sapiens</tspan></text></g></svg>
