<?xml version="1.0" encoding="UTF-8"?>
<!--
  WikiPathways page: https://www.wikipathways.org/index.php/Pathway:WP87
  URL for this compressed file: https://github.com/eweitz/cachome/tree/main/data/wikipathways/WP87.svg
  Source code for compression: https://github.com/eweitz/cachome/tree/main/src/wikipathways.py
-->
<svg class="Diagram" width="800" height="600" color="black" baseProfile="full" prefix="schema:http://schema.org/" preserveAspectRatio="xMidYMid" version="1.1" viewBox="0 0 814.7 712.83" vocab="http://vocabularies.wikipathways.org/wp#" xmlns="http://www.w3.org/2000/svg" xmlns:xlink="http://www.w3.org/1999/xlink"><style>svg {font-family: 'Liberation Sans', Arial, sans-serif; }</style><defs><filter id="a" x="0" y="0" width="814.7" height="712.83" filterUnits="userSpaceOnUse"><feColorMatrix in="SourceGraphic" values="-1   0   0 0 0                   0  -1   0 0 0                   0   0  -1 0 0                   0   0   0 1 0"/></filter><marker id="b" stroke-dasharray="99999" markerHeight="12" markerUnits="userSpaceOnUse" markerWidth="12" orient="auto" preserveAspectRatio="none" refX="12" refY="6" viewBox="0 0 12 12"><path transform="rotate(180 6 6)" d="M12 11L0 6l12-5z" fill="currentColor" stroke-width="0"/></marker><symbol id="c" preserveAspectRatio="none" viewBox="0 0 100 100"/></defs><g class="Viewport" color="black"  name="Name: Nucleotide metabolism Last Modified: 10/17/2013 Organism: Mus musculus"><rect class="Icon" width="814.7" height="712.83" fill="#fff" stroke="#000" stroke-width="0"/><g id="d" class="DirectedInteraction" color="#000" ><g color="#000" fill="transparent"  filter="url(#a)" stroke="#000" stroke-dasharray="6, 3.6, 6, 3.6, 6, 5.8"><path class="EdgeBody" d="m338.5 494v26.5"   marker-end="url(#b)" /></g></g><g id="e" class="DirectedInteraction" color="#000" ><g color="#000" fill="transparent"  filter="url(#a)" stroke="#000" stroke-dasharray="129.82734892999187, 5.8"><path class="EdgeBody" d="m226.17 325 112.33 76"   marker-end="url(#b)" /></g></g><g id="f" class="DirectedInteraction" color="#000" ><g color="#000" fill="transparent"  filter="url(#a)" stroke="#000" stroke-dasharray="314.03333333333353, 5.8"><path class="EdgeBody" d="m387 411h263v-56.833"   marker-end="url(#b)" /></g></g><g id="g" class="DirectedInteraction" color="#000" ><g color="#000" fill="transparent"  filter="url(#a)" stroke="#000" stroke-dasharray="48.53333333333326, 5.8"><path class="EdgeBody" d="m653.33 587.17-2e-13 -54.333"   marker-end="url(#b)" /></g><g class="Burr Anchor" transform="translate(653.33 565.43)" ><use class="Icon" width="0" height="0" fill="#141414" stroke-width="0" xlink:href="#c"/></g></g><g id="h" class="DirectedInteraction" color="#000" ><g color="#000" fill="transparent"  filter="url(#a)" stroke="#000" stroke-dasharray="198.46666666666658, 5.8"><path class="EdgeBody" d="m653.33 565.43h-133v-71.267"   marker-end="url(#b)" /></g></g><g id="i" class="DirectedInteraction" color="#000" ><g color="#000" fill="transparent"  filter="url(#a)" stroke="#000" stroke-dasharray="114.34990636700472, 5.8"><path class="EdgeBody" d="m650 170.5-6-120"   marker-end="url(#b)" /></g><g class="Burr Anchor" transform="translate(647.6 122.5)" ><use class="Icon" width="0" height="0" fill="#141414" stroke-width="0" xlink:href="#c"/></g></g><g id="j" class="DirectedInteraction" color="#000" ><g color="#000" fill="transparent"  filter="url(#a)" stroke="#000" stroke-dasharray="5.37, 3.22, 5.37, 3.22, 5.37, 3.22, 5.37, 3.22, 5.37, 3.22, 5.37, 3.22, 5.37, 3.22, 5.37, 3.22, 5.37, 3.22, 5.37, 3.22, 5.37, 3.22, 5.37, 3.22, 0, 5.8"><path class="EdgeBody" d="m338.5 539.5-94.667 47.167"   marker-end="url(#b)" /></g></g><g id="k" class="DirectedInteraction" color="#000" ><g color="#000" fill="transparent"  filter="url(#a)" stroke="#000" stroke-dasharray="142.5333333333333, 5.8"><path class="EdgeBody" d="m207.67 483.33 3e-14 -148.33"   marker-end="url(#b)" /></g></g><g id="l" class="DirectedInteraction" color="#000" ><g color="#000" fill="transparent"  filter="url(#a)" stroke="#000" stroke-dasharray="37.36666666666669, 5.8"><path class="EdgeBody" d="m86.667 414v43.167"   marker-end="url(#b)" /></g></g><g id="m" class="DirectedInteraction" color="#000" ><g color="#000" fill="transparent"  filter="url(#a)" stroke="#000" stroke-dasharray="24.23422122253965, 5.8"><path class="EdgeBody" d="m623.33 564 30 1.4333"   marker-end="url(#b)" /></g></g><g id="n" class="DirectedInteraction" color="#000" ><g color="#000" fill="transparent"  filter="url(#a)" stroke="#000" stroke-dasharray="101.86873063037186, 5.8"><path class="EdgeBody" d="m486.17 484.67-107.67-0.66667"   marker-end="url(#b)" /></g></g><g id="o" class="DirectedInteraction" color="#000" ><g color="#000" fill="transparent"  filter="url(#a)" stroke="#000" stroke-dasharray="48.533333333333374, 5.8"><path class="EdgeBody" d="m650 243.83v-54.333"   marker-end="url(#b)" /></g><g class="Burr Anchor" transform="translate(650 222.1)" ><use class="Icon" width="0" height="0" fill="#141414" stroke-width="0" xlink:href="#c"/></g></g><g id="p" class="DirectedInteraction" color="#000" ><g color="#000" fill="transparent"  filter="url(#a)" stroke="#000" stroke-dasharray="24.900144769835965, 5.8"><path class="EdgeBody" d="m619.33 220.67 30.667 1.4333"   marker-end="url(#b)" /></g></g><g id="q" class="DirectedInteraction" color="#000" ><g color="#000" fill="transparent"  filter="url(#a)" stroke="#000" stroke-dasharray="68.53333333333337, 5.8"><path class="EdgeBody" d="m653.33 513.83 2e-13 -74.333"   marker-end="url(#b)" /></g><g class="Burr Anchor" transform="translate(653.33 487)" ><use class="Icon" width="0" height="0" fill="#141414" stroke-width="0" xlink:href="#c"/></g></g><g id="r" class="DirectedInteraction" color="#000" ><g color="#000" fill="transparent"  filter="url(#a)" stroke="#000" stroke-dasharray="41.90130339680454, 5.8"><path class="EdgeBody" d="m625.33 486 28-38.619"   marker-end="url(#b)" /></g></g><g id="s" class="DirectedInteraction" color="#000" ><g color="#000" fill="transparent"  filter="url(#a)" stroke="#000" stroke-dasharray="56.52620280071258, 5.8"><path class="EdgeBody" d="m177.67 493.33-56.333 26.667"   marker-end="url(#b)" /></g></g><g id="t" class="DirectedInteraction" color="#000" ><g color="#000" fill="transparent"  filter="url(#a)" stroke="#000" stroke-dasharray="47.2, 5.8"><path class="EdgeBody" d="m338.5 421v53"   marker-end="url(#b)" /></g></g><g id="u" class="DirectedInteraction" color="#000" ><g color="#000" fill="transparent"  filter="url(#a)" stroke="#000" stroke-dasharray="69.53333333333335, 5.8"><path class="EdgeBody" d="m207.67 65.167v75.333"   marker-end="url(#b)" /></g><g class="Burr Anchor" transform="translate(207.67 95.3)" ><use class="Icon" width="0" height="0" fill="#141414" stroke-width="0" xlink:href="#c"/></g></g><g id="v" class="DirectedInteraction" color="#000" ><g color="#000" fill="transparent"  filter="url(#a)" stroke="#000" stroke-dasharray="119.42900819351149, 5.8"><path class="EdgeBody" d="m653.33 407.76-98.833 76.904"   marker-end="url(#b)" /></g></g><g id="w" class="DirectedInteraction" color="#000" ><g color="#000" fill="transparent"  filter="url(#a)" stroke="#000" stroke-dasharray="6, 3.6, 6, 3.6, 0, 5.8"><path class="EdgeBody" d="m207.67 292.83v22.167"   marker-end="url(#b)" /></g></g><g id="x" class="DirectedInteraction" color="#000" ><g color="#000" fill="transparent"  filter="url(#a)" stroke="#000" stroke-dasharray="5.49, 3.3, 5.49, 3.3, 5.49, 3.3, 5.49, 5.8"><path class="EdgeBody" d="m207.67 159.5v37.667"   marker-end="url(#b)" /></g><g class="Burr Anchor" transform="translate(207.67 174.57)" ><use class="Icon" width="0" height="0" fill="#141414" stroke-width="0" xlink:href="#c"/></g></g><g id="y" class="DirectedInteraction" color="#000" ><g color="#000" fill="transparent"  filter="url(#a)" stroke="#000" stroke-dasharray="5.1, 3.06, 5.1, 3.06, 5.1, 3.06, 5.1, 3.06, 5.1, 3.06, 5.1, 3.06, 5.1, 3.06, 5.1, 3.06, 5.1, 3.06, 5.1, 3.06, 5.1, 3.06, 5.1, 5.8"><path class="EdgeBody" d="m86.667 529.5 82.833 57.167"   marker-end="url(#b)" /></g></g><g id="z" class="DirectedInteraction" color="#000" ><g color="#000" fill="transparent"  filter="url(#a)" stroke="#000" stroke-dasharray="51.86666666666666, 5.8"><path class="EdgeBody" d="m207.67 216.17v57.667"   marker-end="url(#b)" /></g><g class="Burr Anchor" transform="translate(207.67 239.23)" ><use class="Icon" width="0" height="0" fill="#141414" stroke-width="0" xlink:href="#c"/></g></g><g id="aa" class="DirectedInteraction" color="#000" ><g color="#000" fill="transparent"  filter="url(#a)" stroke="#000" stroke-dasharray="116.92937708633579, 5.8"><path class="EdgeBody" d="m189.17 325-102.5 67.5"   marker-end="url(#b)" /></g><g class="Burr Anchor" transform="translate(148.17 352)" ><use class="Icon" width="0" height="0" fill="#141414" stroke-width="0" xlink:href="#c"/></g></g><g id="ab" class="DirectedInteraction" color="#000" ><g color="#000" fill="transparent"  filter="url(#a)" stroke="#000" stroke-dasharray="6, 3.6, 6, 3.6, 6, 3.6, 0, 5.8"><path class="EdgeBody" d="m86.667 476.17 2e-14 34.333"   marker-end="url(#b)" /></g></g><g id="ac" class="DirectedInteraction" color="#000" ><g color="#000" fill="transparent"  filter="url(#a)" stroke="#000" stroke-dasharray="144.69999999999982, 5.8"><path class="EdgeBody" d="m621.33 344.67h-20v-61.833h48.667v-20"   marker-end="url(#b)" /></g><g class="Burr Anchor" transform="translate(601.33 329.61)" ><use class="Icon" width="0" height="0" fill="#141414" stroke-width="0" xlink:href="#c"/></g><g class="Burr Anchor" transform="translate(601.33 283.68)" ><use class="Icon" width="0" height="0" fill="#141414" stroke-width="0" xlink:href="#c"/></g></g><g id="ad" class="Interaction" color="#000" ><g color="#000" fill="transparent"  filter="url(#a)" stroke="#000" stroke-dasharray="47.636759712757254, 0"><path class="EdgeBody" d="m555.67 343.17 45.667-13.558"   /></g></g><g id="ae" class="DirectedInteraction" color="#000" ><g color="#000" fill="transparent"  filter="url(#a)" stroke="#000" stroke-dasharray="69.41893969532464, 5.8"><path class="EdgeBody" d="m177.67 493.33-70.333-26.667"   marker-end="url(#b)" /></g></g><g id="af" class="DirectedInteraction" color="#000" ><g color="#000" fill="transparent"  filter="url(#a)" stroke="#000" stroke-dasharray="24.25197349777736, 5.8"><path class="EdgeBody" d="m177.67 241 30-1.7667"   marker-end="url(#b)" /></g></g><g id="ag" class="DirectedInteraction" color="#000" ><g color="#000" fill="transparent"  filter="url(#a)" stroke="#000" stroke-dasharray="51.866666666666745, 5.8"><path class="EdgeBody" d="m653.33 663.83v-57.667"   marker-end="url(#b)" /></g><g class="Burr Anchor" transform="translate(653.33 640.77)" ><use class="Icon" width="0" height="0" fill="#141414" stroke-width="0" xlink:href="#c"/></g></g><g id="ah" class="DirectedInteraction" color="#000" ><g color="#000" fill="transparent"  filter="url(#a)" stroke="#000" stroke-dasharray="3.0999999999999774, 5.8"><path class="EdgeBody" d="m653.33 649.67 2e-13 -8.9"   marker-end="url(#b)" /></g></g><g id="ai" class="DirectedInteraction" color="#000" ><g color="#000" fill="transparent"  filter="url(#a)" stroke="#000" stroke-dasharray="7.542705039750296, 5.8"><path class="EdgeBody" d="m139.33 362 8.8333-10"   marker-end="url(#b)" /></g></g><g id="aj" class="DirectedInteraction" color="#000" ><g color="#000" fill="transparent"  filter="url(#a)" stroke="#000" stroke-dasharray="144.70000000000027, 5.8"><path class="EdgeBody" d="m678.67 344.67h20v-61.833h-48.667v-20"   marker-end="url(#b)" /></g><g class="Burr Anchor" transform="translate(698.67 329.61)" ><use class="Icon" width="0" height="0" fill="#141414" stroke-width="0" xlink:href="#c"/></g><g class="Burr Anchor" transform="translate(698.67 283.68)" ><use class="Icon" width="0" height="0" fill="#141414" stroke-width="0" xlink:href="#c"/></g></g><g id="ak" class="Interaction" color="#000" ><g color="#000" fill="transparent"  filter="url(#a)" stroke="#000" stroke-dasharray="26.6986222769359, 0"><path class="EdgeBody" d="m721.67 343.17-23-13.558"   /></g></g><g id="al" class="DirectedInteraction" color="#000" ><g color="#000" fill="transparent"  filter="url(#a)" stroke="#000" stroke-dasharray="18.456219081698194, 5.8"><path class="EdgeBody" d="m625 289-23.667-5.3154"   marker-end="url(#b)" /></g></g><g id="am" class="DirectedInteraction" color="#000" ><g color="#000" fill="transparent"  filter="url(#a)" stroke="#000" stroke-dasharray="27.471532641975795, 5.8"><path class="EdgeBody" d="m666 290 32.667-6.3154"   marker-end="url(#b)" /></g></g><g id="an" class="DirectedInteraction" color="#000" ><g color="#000" fill="transparent"  filter="url(#a)" stroke="#000" stroke-dasharray="44.20001111110988, 5.8"><path class="EdgeBody" d="m257.67 95.333-50-0.033333"   marker-end="url(#b)" /></g></g><g id="ao" class="DirectedInteraction" color="#000" ><g color="#000" fill="transparent"  filter="url(#a)" stroke="#000" stroke-dasharray="32.042495219586755, 5.8"><path class="EdgeBody" d="m612 109.67 35.6 12.833"   marker-end="url(#b)" /></g></g><g id="ap" class="DirectedInteraction" color="#000" ><g color="#000" fill="transparent"  filter="url(#a)" stroke="#000" stroke-dasharray="43.867214762076394, 5.8"><path class="EdgeBody" d="m257.33 174.33-49.667 0.23333"   marker-end="url(#b)" /></g></g><g class="Label" transform="translate(621.33 243.83)" color="#000"  name="dNDPs"><use class="Icon" width="57.333333333333336" height="19" fill="transparent"  stroke="#000" stroke-width="0" xlink:href="#c"/><text class="Text" transform="translate(28.667 13.5)"   font-size="12px" font-weight="bold"  text-anchor="middle"><tspan x="0" y="0">dNDPs</tspan></text></g><g class="Label" transform="translate(484 570.5)" color="#000"  name="Polyamine Synthesis"><use class="Icon" width="85.33333333333333" height="32.5" fill="transparent"  stroke="#000" stroke-width="0" xlink:href="#c"/><text class="Text" transform="translate(42.667 20.25)"   font-size="12px" font-weight="bold"  text-anchor="middle"><tspan x="0" y="-6.6000000000000005">Polyamine</tspan> <tspan x="0" y="6.6000000000000005">Synthesis</tspan></text></g><g class="Label" transform="translate(623.83 31.5)" color="#000"  name="DNA"><use class="Icon" width="40.333333333333336" height="19" fill="transparent"  stroke="#000" stroke-width="0" xlink:href="#c"/><text class="Text" transform="translate(20.167 13.5)"   font-size="12px" font-weight="bold"  text-anchor="middle"><tspan x="0" y="0">DNA</tspan></text></g><g class="Label" transform="translate(456.5 170.5)" color="#000"  name="DNA Synthesis"><use class="Icon" width="120.33333333333333" height="19" fill="transparent"  stroke="#000" stroke-width="0" xlink:href="#c"/><text class="Text" transform="translate(60.167 13.5)"   font-size="12px" font-weight="bold"  text-anchor="middle"><tspan x="0" y="0">DNA Synthesis</tspan></text></g><g class="Label" transform="translate(621.33 335.17)" color="#000"  name="NDPs"><use class="Icon" width="57.333333333333336" height="19" fill="transparent"  stroke="#000" stroke-width="0" xlink:href="#c"/><text class="Text" transform="translate(28.667 13.5)"   font-size="12px" font-weight="bold"  text-anchor="middle"><tspan x="0" y="0">NDPs</tspan></text></g><g class="Label" transform="translate(621.33 170.5)" color="#000"  name="dNTPs"><use class="Icon" width="57.333333333333336" height="19" fill="transparent"  stroke="#000" stroke-width="0" xlink:href="#c"/><text class="Text" transform="translate(28.667 13.5)"   font-size="12px" font-weight="bold"  text-anchor="middle"><tspan x="0" y="0">dNTPs</tspan></text></g><a class="Metabolite ChEBI_CHEBI_17345  " transform="translate(66 457.17)" color="#00f"  name="GMP"  ><rect class="Icon" transform="matrix(.97638 0 0 .95 .48819 .475)" width="41.333" height="19" fill="#fff" stroke="#00f"/><text class="Text" transform="translate(20.667 12.5)" fill="#00f"  font-size="10px"  text-anchor="middle"><tspan x="0" y="0">GMP</tspan></text></a><a class="Metabolite ChEBI_CHEBI_28931  " transform="translate(298.5,474)" color="#00f"  name="AMP"  ><rect class="Icon" transform="matrix(.98765 0 0 .95238 .49383 .47619)" width="80" height="20" fill="#fff" stroke="#00f"/><text class="Text" transform="translate(40,13)" fill="#00f"  font-size="10px"  text-anchor="middle"><tspan x="0" y="0">AMP</tspan></text></a><a class="Metabolite ChEBI_CHEBI_16610  " transform="translate(607.17 513.83)" color="#00f"  name="Spermidine"  ><rect class="Icon" transform="matrix(.98929 0 0 .95 .49464 .475)" width="92.333" height="19" fill="#fff" stroke="#00f"/><text class="Text" transform="translate(46.167 12.5)" fill="#00f"  font-size="10px"  text-anchor="middle"><tspan x="0" y="0">Spermidine</tspan></text></a><a class="Metabolite ChEBI_CHEBI_17775  " transform="translate(169.5 577.17)" color="#00f"  name="Uric acid"  ><rect class="Icon" transform="matrix(.98673 0 0 .95 .49336 .475)" width="74.333" height="19" fill="#fff" stroke="#00f"/><text class="Text" transform="translate(37.167 12.5)" fill="#00f"  font-size="10px"  text-anchor="middle"><tspan x="0" y="0">Uric acid</tspan></text></a><a class="Metabolite ChEBI_CHEBI_16708  " transform="translate(486.17 475.17)" color="#00f"  name="Adenine"  ><rect class="Icon" transform="matrix(.98558 0 0 .95 .49279 .475)" width="68.333" height="19" fill="#fff" stroke="#00f"/><text class="Text" transform="translate(34.167 12.5)" fill="#00f"  font-size="10px"  text-anchor="middle"><tspan x="0" y="0">Adenine</tspan></text></a><a class="Metabolite ChEBI_CHEBI_17148  " transform="translate(609.67 587.17)" color="#00f"  name="Putrescine"  ><rect class="Icon" transform="matrix(.98868 0 0 .95 .49434 .475)" width="87.333" height="19" fill="#fff" stroke="#00f"/><text class="Text" transform="translate(43.667 12.5)" fill="#00f"  font-size="10px"  text-anchor="middle"><tspan x="0" y="0">Putrescine</tspan></text></a><a class="Metabolite ChEBI_CHEBI_17712  " transform="translate(20.333 392.5)" color="#00f"  name="Xanthine monophosphate"  ><rect class="Icon" transform="matrix(.99252 0 0 .95556 .49626 .47778)" width="132.67" height="21.5" fill="#fff" stroke="#00f"/><text class="Text" transform="translate(66.333 13.75)" fill="#00f"  font-size="10px"  text-anchor="middle"><tspan x="0" y="0">Xanthine monophosphate</tspan></text></a><a class="Metabolite ChEBI_CHEBI_17368  " transform="translate(282.33 520.5)" color="#00f"  name="Hypoxanthine"  ><rect class="Icon" transform="matrix(.99118 0 0 .95 .49559 .475)" width="112.33" height="19" fill="#fff" stroke="#00f"/><text class="Text" transform="translate(56.167 12.5)" fill="#00f"  font-size="10px"  text-anchor="middle"><tspan x="0" y="0">Hypoxanthine</tspan></text></a><a  class="GeneProduct P594_ENSMUSG00000003500 " transform="translate(109.33 342)"   name="Impdh1"  ><rect class="Icon" transform="matrix(.98361 0 0 .95238 .4918 .47619)" width="60" height="20" fill="#fff" stroke="#000"/><text class="Text" transform="translate(30,13)"   font-size="10px"  text-anchor="middle"><tspan x="0" y="0">Impdh1</tspan></text></a><a class="Metabolite ChEBI_CHEBI_17345  " transform="translate(711.33 343.17)" color="#00f"  name="GMP"  ><rect class="Icon" transform="matrix(.97638 0 0 .95 .48819 .475)" width="41.333" height="19" fill="#fff" stroke="#00f"/><text class="Text" transform="translate(20.667 12.5)" fill="#00f"  font-size="10px"  text-anchor="middle"><tspan x="0" y="0">GMP</tspan></text></a><a  class="GeneProduct P594_ENSMUSG00000035242 " transform="translate(623.33 629.67)"   name="Oaz1"  ><rect class="Icon" transform="matrix(.98361 0 0 .95238 .4918 .47619)" width="60" height="20" fill="#fff" stroke="#000"/><text class="Text" transform="translate(30,13)"   font-size="10px"  text-anchor="middle"><tspan x="0" y="0">Oaz1</tspan></text></a><a class="Metabolite ChEBI_CHEBI_16235  " transform="translate(52 510.5)" color="#00f"  name="Guanine"  ><rect class="Icon" transform="matrix(.98578 0 0 .95 .49289 .475)" width="69.333" height="19" fill="#fff" stroke="#00f"/><text class="Text" transform="translate(34.667 12.5)" fill="#00f"  font-size="10px"  text-anchor="middle"><tspan x="0" y="0">Guanine</tspan></text></a><a  class="GeneProduct P594_ENSMUSG00000025283 " transform="translate(625.33 475)"   name="Sat1"  ><rect class="Icon" transform="matrix(.98361 0 0 .95652 .4918 .47826)" width="60" height="22" fill="#fff" stroke="#000"/><text class="Text" transform="translate(30,14)"   font-size="10px"  text-anchor="middle"><tspan x="0" y="0">Sat1</tspan></text></a><g class="Metabolite" transform="translate(182.5,140.5)" color="#00f"  name="PRPP"><rect class="Icon" transform="matrix(.98052 0 0 .95 .49026 .475)" width="50.333" height="19" fill="#fff" stroke="#00f"/><text class="Text" transform="translate(25.167 12.5)" fill="#00f"  font-size="10px"  text-anchor="middle"><tspan x="0" y="0">PRPP</tspan></text></g><a  class="GeneProduct P594_ENSMUSG00000020857 " transform="translate(619.33 210.67)"   name="Nme2"  ><rect class="Icon" transform="matrix(.98361 0 0 .95238 .4918 .47619)" width="60" height="20" fill="#fff" stroke="#000"/><text class="Text" transform="translate(30,13)"   font-size="10px"  text-anchor="middle"><tspan x="0" y="0">Nme2</tspan></text></a><a class="Metabolite ChEBI_CHEBI_18406  " transform="translate(180 273.83)" color="#00f"  name="AICAR"  ><rect class="Icon" transform="matrix(.98225 0 0 .95 .49112 .475)" width="55.333" height="19" fill="#fff" stroke="#00f"/><text class="Text" transform="translate(27.667 12.5)" fill="#00f"  font-size="10px"  text-anchor="middle"><tspan x="0" y="0">AICAR</tspan></text></a><a class="Metabolite ChEBI_CHEBI_15746  " transform="translate(614.17 420.5)" color="#00f"  name="Spermine"  ><rect class="Icon" transform="matrix(.98739 0 0 .95 .4937 .475)" width="78.333" height="19" fill="#fff" stroke="#00f"/><text class="Text" transform="translate(39.167 12.5)" fill="#00f"  font-size="10px"  text-anchor="middle"><tspan x="0" y="0">Spermine</tspan></text></a><a class="ChEBI_CHEBI_17202 Metabolite  " transform="translate(189.17 315)" color="#00f"  name="IMP"  ><rect class="Icon" transform="matrix(.97368 0 0 .95238 .48684 .47619)" width="37" height="20" fill="#fff" stroke="#00f"/><text class="Text" transform="translate(18.5,13)" fill="#00f"  font-size="10px"  text-anchor="middle"><tspan x="0" y="0">IMP</tspan></text></a><a class="ChEBI_CHEBI_15919 Metabolite  " transform="translate(290,401)" color="#00f"  name="Adenylosuccinate"  ><rect class="Icon" transform="matrix(.9898 0 0 .95238 .4949 .47619)" width="97" height="20" fill="#fff" stroke="#00f"/><text class="Text" transform="translate(48.5,13)" fill="#00f"  font-size="10px"  text-anchor="middle"><tspan x="0" y="0">Adenylosuccinate</tspan></text></a><a  class="GeneProduct P594_ENSMUSG00000025630 " transform="translate(177.67 483.33)"   name="Hprt1"  ><rect class="Icon" transform="matrix(.98361 0 0 .95238 .4918 .47619)" width="60" height="20" fill="#fff" stroke="#000"/><text class="Text" transform="translate(30,13)"   font-size="10px"  text-anchor="middle"><tspan x="0" y="0">Hprt1</tspan></text></a><a class="Metabolite ChEBI_CHEBI_15729  " transform="translate(615.67 663.83)" color="#00f"  name="Ornithine"  ><rect class="Icon" transform="matrix(.9869 0 0 .95 .49345 .475)" width="75.333" height="19" fill="#fff" stroke="#00f"/><text class="Text" transform="translate(37.667 12.5)" fill="#00f"  font-size="10px"  text-anchor="middle"><tspan x="0" y="0">Ornithine</tspan></text></a><a  class="GeneProduct P594_ENSMUSG00000022407 " transform="translate(177.67 231)"   name="Adsl"  ><rect class="Icon" transform="matrix(.98361 0 0 .95238 .4918 .47619)" width="60" height="20" fill="#fff" stroke="#000"/><text class="Text" transform="translate(30,13)"   font-size="10px"  text-anchor="middle"><tspan x="0" y="0">Adsl</tspan></text></a><a class="Metabolite ChEBI_CHEBI_47013  " transform="translate(178 46.167)" color="#00f"  name="Ribose"  ><rect class="Icon" transform="matrix(.98343 0 0 .95 .49171 .475)" width="59.333" height="19" fill="#fff" stroke="#00f"/><text class="Text" transform="translate(29.667 12.5)" fill="#00f"  font-size="10px"  text-anchor="middle"><tspan x="0" y="0">Ribose</tspan></text></a><a class="Metabolite ChEBI_CHEBI_17345  " transform="translate(545.33 343.17)" color="#00f"  name="GMP"  ><rect class="Icon" transform="matrix(.97638 0 0 .95 .48819 .475)" width="41.333" height="19" fill="#fff" stroke="#00f"/><text class="Text" transform="translate(20.667 12.5)" fill="#00f"  font-size="10px"  text-anchor="middle"><tspan x="0" y="0">GMP</tspan></text></a><a class="Metabolite ChEBI_CHEBI_18319  " transform="translate(174.5 197.17)" color="#00f"  name="SAICAR"  ><rect class="Icon" transform="matrix(.98515 0 0 .95 .49257 .475)" width="66.333" height="19" fill="#fff" stroke="#00f"/><text class="Text" transform="translate(33.167 12.5)" fill="#00f"  font-size="10px"  text-anchor="middle"><tspan x="0" y="0">SAICAR</tspan></text></a><a  class="GeneProduct P594_ENSMUSG00000006442 " transform="translate(623.33 554)"   name="Srm"  ><rect class="Icon" transform="matrix(.98361 0 0 .95238 .4918 .47619)" width="60" height="20" fill="#fff" stroke="#000"/><text class="Text" transform="translate(30,13)"   font-size="10px"  text-anchor="middle"><tspan x="0" y="0">Srm</tspan></text></a><a  class="GeneProduct P594_ENSMUSG00000015961 " transform="translate(250 350)"   name="Adss"  ><rect class="Icon" transform="matrix(.97902 0 0 .95238 .48951 .47619)" width="46.667" height="20" fill="#fff" stroke="#000"/><text class="Text" transform="translate(23.333 13)"   font-size="10px"  text-anchor="middle"><tspan x="0" y="0">Adss</tspan></text></a><g class="GroupNone" transform="translate(531,260)" color="grey" ><rect class="Icon" transform="matrix(.9899 0 0 .98305 .49495 .49153)" width="98" height="58" fill="#b4b464" fill-opacity=".1" stroke="grey" stroke-dasharray="5,3"/><a  class="GeneProduct P594_ENSMUSG00000030978 " transform="translate(9,9)"   name="Rrm1"  ><rect class="Icon" transform="matrix(.98765 0 0 .95238 .49383 .47619)" width="80" height="20" fill="#fff" stroke="#000"/><text class="Text" transform="translate(40,13)"   font-size="10px"  text-anchor="middle"><tspan x="0" y="0">Rrm1</tspan></text></a><a  class="GeneProduct P594_ENSMUSG00000020649 " transform="translate(9,29)"   name="Rrm2"  ><rect class="Icon" transform="matrix(.98765 0 0 .95238 .49383 .47619)" width="80" height="20" fill="#fff" stroke="#000"/><text class="Text" transform="translate(40,13)"   font-size="10px"  text-anchor="middle"><tspan x="0" y="0">Rrm2</tspan></text></a></g><g class="GroupNone" transform="translate(662,261)" color="grey" ><rect class="Icon" transform="matrix(.9899 0 0 .98305 .49495 .49153)" width="98" height="58" fill="#b4b464" fill-opacity=".1" stroke="grey" stroke-dasharray="5,3"/><a  class="GeneProduct P594_ENSMUSG00000030978 " transform="translate(9,9)"   name="Rrm1"  ><rect class="Icon" transform="matrix(.98765 0 0 .95238 .49383 .47619)" width="80" height="20" fill="#fff" stroke="#000"/><text class="Text" transform="translate(40,13)"   font-size="10px"  text-anchor="middle"><tspan x="0" y="0">Rrm1</tspan></text></a><a  class="GeneProduct P594_ENSMUSG00000022292 " transform="translate(9,29)"   name="Rrm2b"  ><rect class="Icon" transform="matrix(.98765 0 0 .95238 .49383 .47619)" width="80" height="20" fill="#fff" stroke="#000"/><text class="Text" transform="translate(40,13)"   font-size="10px"  text-anchor="middle"><tspan x="0" y="0">Rrm2b</tspan></text></a></g><g class="GroupNone" transform="translate(253.67 66.333)" color="grey" ><rect class="Icon" transform="matrix(.98734 0 0 .98305 .49367 .49153)" width="78" height="58" fill="#b4b464" fill-opacity=".1" stroke="grey" stroke-dasharray="5,3"/><a  class="GeneProduct P594_ENSMUSG00000025742 " transform="translate(9,29)"   name="Prps2"  ><rect class="Icon" transform="matrix(.98361 0 0 .95238 .4918 .47619)" width="60" height="20" fill="#fff" stroke="#000"/><text class="Text" transform="translate(30,13)"   font-size="10px"  text-anchor="middle"><tspan x="0" y="0">Prps2</tspan></text></a><a  class="GeneProduct P594_ENSMUSG00000031432 " transform="translate(9,9)"   name="Prps1"  ><rect class="Icon" transform="matrix(.98361 0 0 .95238 .4918 .47619)" width="60" height="20" fill="#fff" stroke="#000"/><text class="Text" transform="translate(30,13)"   font-size="10px"  text-anchor="middle"><tspan x="0" y="0">Prps1</tspan></text></a></g><g class="GroupNone" transform="translate(608 60.667)" color="grey" ><rect class="Icon" transform="matrix(.98734 0 0 .9899 .49367 .49495)" width="78" height="98" fill="#b4b464" fill-opacity=".1" stroke="grey" stroke-dasharray="5,3"/><a  class="GeneProduct P594_ENSMUSG00000038644 " transform="translate(9 69)"   name="Pold1"  ><rect class="Icon" transform="matrix(.98361 0 0 .95238 .4918 .47619)" width="60" height="20" fill="#fff" stroke="#000"/><text class="Text" transform="translate(30,13)"   font-size="10px"  text-anchor="middle"><tspan x="0" y="0">Pold1</tspan></text></a><a  class="GeneProduct P594_ENSMUSG00000031536 " transform="translate(9,29)"   name="Polb"  ><rect class="Icon" transform="matrix(.98361 0 0 .95238 .4918 .47619)" width="60" height="20" fill="#fff" stroke="#000"/><text class="Text" transform="translate(30,13)"   font-size="10px"  text-anchor="middle"><tspan x="0" y="0">Polb</tspan></text></a><a  class="GeneProduct P594_ENSMUSG00000039176 " transform="translate(9,49)"   name="Polg"  ><rect class="Icon" transform="matrix(.98361 0 0 .95238 .4918 .47619)" width="60" height="20" fill="#fff" stroke="#000"/><text class="Text" transform="translate(30,13)"   font-size="10px"  text-anchor="middle"><tspan x="0" y="0">Polg</tspan></text></a><a  class="GeneProduct P594_ENSMUSG00000006678 " transform="translate(9,9)"   name="Pola1"  ><rect class="Icon" transform="matrix(.98361 0 0 .95238 .4918 .47619)" width="60" height="20" fill="#fff" stroke="#000"/><text class="Text" transform="translate(30,13)"   font-size="10px"  text-anchor="middle"><tspan x="0" y="0">Pola1</tspan></text></a></g><g class="GroupNone" transform="translate(253.33 145.33)" color="grey" ><rect class="Icon" transform="matrix(.98734 0 0 .98305 .49367 .49153)" width="78" height="58" fill="#b4b464" fill-opacity=".1" stroke="grey" stroke-dasharray="5,3"/><a  class="GeneProduct P594_ENSMUSG00000005667 " transform="translate(9,29)"   name="Mthfd2"  ><rect class="Icon" transform="matrix(.98361 0 0 .95238 .4918 .47619)" width="60" height="20" fill="#fff" stroke="#000"/><text class="Text" transform="translate(30,13)"   font-size="10px"  text-anchor="middle"><tspan x="0" y="0">Mthfd2</tspan></text></a><a  class="GeneProduct P594_ENSMUSG00000021707 " transform="translate(9,9)"   name="Dhfr"  ><rect class="Icon" transform="matrix(.98361 0 0 .95238 .4918 .47619)" width="60" height="20" fill="#fff" stroke="#000"/><text class="Text" transform="translate(30,13)"   font-size="10px"  text-anchor="middle"><tspan x="0" y="0">Dhfr</tspan></text></a></g><text class="Text" transform="translate(5,36)" dominant-baseline="central" fill="black"  font-size="12px" font-weight="bold" overflow="visible" ><tspan x="0" y="-18">Name: Nucleotide metabolism</tspan> <tspan x="0" y="0">Last Modified: 10/17/2013</tspan> <tspan x="0" y="18">Organism: Mus musculus</tspan></text></g></svg>
