<?xml version="1.0" encoding="UTF-8"?>
<!--
  WikiPathways page: https://www.wikipathways.org/index.php/Pathway:WP1263
  URL for this compressed file: https://github.com/eweitz/cachome/tree/main/data/wikipathways/WP1263.svg
  Source code for compression: https://github.com/eweitz/cachome/tree/main/src/wikipathways.py
-->
<svg class="Diagram" width="800" height="600" color="black" baseProfile="full" prefix="schema:http://schema.org/" preserveAspectRatio="xMidYMid" version="1.1" viewBox="0 0 746 767" vocab="http://vocabularies.wikipathways.org/wp#" xmlns="http://www.w3.org/2000/svg" xmlns:xlink="http://www.w3.org/1999/xlink"><style>svg {font-family: 'Liberation Sans', Arial, sans-serif; }</style><defs><filter id="a" x="0" y="0" width="746" height="767" filterUnits="userSpaceOnUse"><feColorMatrix in="SourceGraphic" values="-1   0   0 0 0                   0  -1   0 0 0                   0   0  -1 0 0                   0   0   0 1 0"/></filter><marker id="b" stroke-dasharray="99999" markerHeight="12" markerUnits="userSpaceOnUse" markerWidth="12" orient="auto" preserveAspectRatio="none" refX="12" refY="6" viewBox="0 0 12 12"><path transform="rotate(180 6 6)" d="M12 11L0 6l12-5z" fill="currentColor" stroke-width="0"/></marker><symbol id="c" overflow="visible" preserveAspectRatio="none" viewBox="0 0 50 50"><ellipse cx="25" cy="25" rx="25" ry="25" stroke="currentColor" vector-effect="non-scaling-stroke"/></symbol></defs><g class="Viewport" color="black"  name="Name: Mitochondrial gene expression Last Modified: 10/17/2013 Organism: Mus musculus"><rect class="Icon" width="746" height="767" fill="#fff" stroke="#000" stroke-width="0"/><g id="d" class="DirectedInteraction" color="#000" ><g color="#000" fill="transparent"  filter="url(#a)" stroke="#000" stroke-dasharray="38.9213595499958, 5.8"><path class="EdgeBody" d="m308 158 44 8"   marker-end="url(#b)" /></g></g><g id="e" class="Interaction" color="#000" ><g color="#000" fill="transparent"  filter="url(#a)" stroke="#000" stroke-dasharray="60.8276253029822, 0"><path class="EdgeBody" d="m530 270-44 42"   /></g></g><g id="f" class="DirectedInteraction" color="#000" ><g color="#000" fill="transparent"  filter="url(#a)" stroke="#000" stroke-dasharray="57.8553218513582, 5.8"><path class="EdgeBody" d="m308 158 44 46"   marker-end="url(#b)" /></g></g><g id="g" class="DirectedInteraction" color="#000" ><g color="#000" fill="transparent"  filter="url(#a)" stroke="#000" stroke-dasharray="36.3070065428546, 5.8"><path class="EdgeBody" d="m163 106-3 42"   marker-end="url(#b)" /></g></g><g id="h" class="DirectedInteraction" color="#000" ><g color="#000" fill="transparent"  filter="url(#a)" stroke="#000" stroke-dasharray="78.58404930896467, 5.8"><path class="EdgeBody" d="m611 337-68 49.967"   marker-end="url(#b)" /></g></g><g id="i" class="DirectedInteraction" color="#000" ><g color="#000" fill="transparent"  filter="url(#a)" stroke="#000" stroke-dasharray="28.405262752974142, 5.8"><path class="EdgeBody" d="m95 227 21 27"   marker-end="url(#b)" /></g></g><g id="j" class="DirectedInteraction" color="#000" ><g color="#000" fill="transparent"  filter="url(#a)" stroke="#000" stroke-dasharray="90.45487000666512, 5.8"><path class="EdgeBody" d="m261 264 7-96"   marker-end="url(#b)" /></g></g><g id="k" class="DirectedInteraction" color="#000" ><g color="#000" fill="transparent"  filter="url(#a)" stroke="#000" stroke-dasharray="94.6987562112089, 5.8"><path class="EdgeBody" d="m196 254 52-86"   marker-end="url(#b)" /></g></g><g id="l" class="DirectedInteraction" color="#000" ><g color="#000" fill="transparent"  filter="url(#a)" stroke="#000" stroke-dasharray="22.80069929215018, 5.8"><path class="EdgeBody" d="m95 227 23-17"   marker-end="url(#b)" /></g></g><g id="m" class="DirectedInteraction" color="#000" ><g color="#000" fill="transparent"  filter="url(#a)" stroke="#000" stroke-dasharray="82.53001896402439, 5.8"><path class="EdgeBody" d="m506 332-72.761 50.08"   marker-end="url(#b)" /></g></g><g id="n" class="DirectedInteraction" color="#000" ><g color="#000" fill="transparent"  filter="url(#a)" stroke="#000" stroke-dasharray="46.897248505021594, 5.8"><path class="EdgeBody" d="m308 158 44-29"   marker-end="url(#b)" /></g></g><g id="o" class="DirectedInteraction" color="#000" ><g color="#000" fill="transparent"  filter="url(#a)" stroke="#000" stroke-dasharray="26.262439083762796, 5.8"><path class="EdgeBody" d="m158 200 2-32"   marker-end="url(#b)" /></g></g><g id="p" class="DirectedInteraction" color="#000" ><g color="#000" fill="transparent"  filter="url(#a)" stroke="#000" stroke-dasharray="55.79519815886763, 5.8"><path class="EdgeBody" d="m506 332-37.236 49.066"   marker-end="url(#b)" /></g></g><g id="q" class="DirectedInteraction" color="#000" ><g color="#000" fill="transparent"  filter="url(#a)" stroke="#000" stroke-dasharray="46.52590180780452, 5.8"><path class="EdgeBody" d="m305 117 47-23"   marker-end="url(#b)" /></g></g><g id="r" class="DirectedInteraction" color="#000" ><g color="#000" fill="transparent"  filter="url(#a)" stroke="#000" stroke-dasharray="71.8659513557904, 5.8"><path class="EdgeBody" d="m308 158 44-64"   marker-end="url(#b)" /></g></g><g id="s" class="DirectedInteraction" color="#000" ><g color="#000" fill="transparent"  filter="url(#a)" stroke="#000" stroke-dasharray="60.22878940513857, 5.8"><path class="EdgeBody" d="m506 332-45.236 48.099"   marker-end="url(#b)" /></g></g><g id="t" class="DirectedInteraction" color="#000" ><g color="#000" fill="transparent"  filter="url(#a)" stroke="#000" stroke-dasharray="19.2, 5.8"><path class="EdgeBody" d="m98 96h25"   marker-end="url(#b)" /></g></g><g id="u" class="Interaction" color="#000" ><g color="#000" fill="transparent"  filter="url(#a)" stroke="#000" stroke-dasharray="50.00999900019995, 0"><path class="EdgeBody" d="m490 260 1-50"   /></g></g><g id="v" class="Interaction" color="#000" ><g color="#000" fill="transparent"  filter="url(#a)" stroke="#000" stroke-dasharray="56.08029957123981, 0"><path class="EdgeBody" d="m582 229-52 21"   /></g></g><g id="w" class="DirectedInteraction" color="#000" ><g color="#000" fill="transparent"  filter="url(#a)" stroke="#000" stroke-dasharray="22.2, 5.8"><path class="EdgeBody" d="m200 158h28"   marker-end="url(#b)" /></g></g><g id="x" class="DirectedInteraction" color="#000" ><g color="#000" fill="transparent"  filter="url(#a)" stroke="#000" stroke-dasharray="43.84876634922564, 5.8"><path class="EdgeBody" d="m305 78 47 16"   marker-end="url(#b)" /></g></g><g class="SingleFreeNode Shape" transform="translate(466.92 381.26) rotate(7.5583 1.8411 5.7918)" color="#9999ff" ><rect class="Icon" transform="matrix(.78642 0 0 .92053 .39321 .46027)" width="3.6821" height="11.584" fill="#33f" stroke="#99f"/></g><g class="SingleFreeNode Shape" transform="translate(270 386.97)" color="#3333ff" ><use class="Icon" transform="matrix(.99726 0 0 .99715 .49863 .49858)" width="364" height="350.03333333333336" fill="transparent"  stroke="#3333ff" xlink:href="#c"/></g><g class="SingleFreeNode Shape" transform="translate(430.87 382.3) rotate(-6.131 2.3657 5.74)" color="#9999ff" ><rect class="Icon" transform="matrix(.82552 0 0 .91987 .41276 .45994)" width="4.7314" height="11.48" fill="#33f" stroke="#99f"/></g><g class="SingleFreeNode Shape" transform="translate(458.92 380.26) rotate(5.9028 1.8411 5.7918)" color="#9999ff" ><rect class="Icon" transform="matrix(.78642 0 0 .92053 .39321 .46027)" width="3.6821" height="11.584" fill="#33f" stroke="#99f"/></g><a class="PubChem-compound_24316 Metabolite ChEBI_CHEBI_16356  " transform="translate(20,290)" color="#00f"  name="cGMP"  ><rect class="Icon" transform="matrix(.98765 0 0 .95238 .49383 .47619)" width="80" height="20" fill="#fff" stroke="#00f"/><text class="Text" transform="translate(40,13)" fill="#00f"  font-size="10px"  text-anchor="middle"><tspan x="0" y="0">cGMP</tspan></text></a><a  class="Protein P594_ENSMUSG00000003923 " transform="translate(490,250)"   name="Tfam"  ><rect class="Icon" transform="matrix(.98765 0 0 .95238 .49383 .47619)" width="80" height="20" fill="#fff" stroke="#000"/><text class="Text" transform="translate(40,13)"   font-size="10px"  text-anchor="middle"><tspan x="0" y="0">Tfam</tspan></text></a><a  class="Protein P594_ENSMUSG00000031386 " transform="translate(215,22)"   name="Hcfc1"  ><rect class="Icon" transform="matrix(.98765 0 0 .95238 .49383 .47619)" width="80" height="20" fill="#fff" stroke="#000"/><text class="Text" transform="translate(40,13)"   font-size="10px"  text-anchor="middle"><tspan x="0" y="0">Hcfc1</tspan></text></a><a  class="Protein P594_ENSMUSG00000036983 " transform="translate(542,209)"   name="Tfb1m"  ><rect class="Icon" transform="matrix(.98765 0 0 .95238 .49383 .47619)" width="80" height="20" fill="#fff" stroke="#000"/><text class="Text" transform="translate(40,13)"   font-size="10px"  text-anchor="middle"><tspan x="0" y="0">Tfb1m</tspan></text></a><a class="Metabolite ChEBI_CHEBI_17489  " transform="translate(18,86)" color="#00f"  name="cAMP"  ><rect class="Icon" transform="matrix(.98765 0 0 .95238 .49383 .47619)" width="80" height="20" fill="#fff" stroke="#00f"/><text class="Text" transform="translate(40,13)" fill="#00f"  font-size="10px"  text-anchor="middle"><tspan x="0" y="0">cAMP</tspan></text></a><a  class="Protein P594_ENSMUSG00000026492 " transform="translate(451,210)"   name="Tfb2m"  ><rect class="Icon" transform="matrix(.98765 0 0 .95238 .49383 .47619)" width="80" height="20" fill="#fff" stroke="#000"/><text class="Text" transform="translate(40,13)"   font-size="10px"  text-anchor="middle"><tspan x="0" y="0">Tfb2m</tspan></text></a><a  class="Protein P594_ENSMUSG00000055491 " transform="translate(225,68)"   name="Pprc1"  ><rect class="Icon" transform="matrix(.98765 0 0 .95238 .49383 .47619)" width="80" height="20" fill="#fff" stroke="#000"/><text class="Text" transform="translate(40,13)"   font-size="10px"  text-anchor="middle"><tspan x="0" y="0">Pprc1</tspan></text></a><a  class="Protein P594_ENSMUSG00000021519 " transform="translate(636,91)"   name="Mterfd1"  ><rect class="Icon" transform="matrix(.98765 0 0 .95238 .49383 .47619)" width="80" height="20" fill="#fff" stroke="#000"/><text class="Text" transform="translate(40,13)"   font-size="10px"  text-anchor="middle"><tspan x="0" y="0">Mterfd1</tspan></text></a><a  class="Protein P594_ENSMUSG00000040429 " transform="translate(571,317)"   name="Mterf"  ><rect class="Icon" transform="matrix(.98765 0 0 .95238 .49383 .47619)" width="80" height="20" fill="#fff" stroke="#000"/><text class="Text" transform="translate(40,13)"   font-size="10px"  text-anchor="middle"><tspan x="0" y="0">Mterf</tspan></text></a><a  class="Protein P594_ENSMUSG00000008976 " transform="translate(352,119)"   name="Gabpa"  ><rect class="Icon" transform="matrix(.98765 0 0 .95238 .49383 .47619)" width="80" height="20" fill="#fff" stroke="#000"/><text class="Text" transform="translate(40,13)"   font-size="10px"  text-anchor="middle"><tspan x="0" y="0">Gabpa</tspan></text></a><a  class="Protein P594_ENSMUSG00000020329 " transform="translate(466,312)"   name="Polrmt"  ><rect class="Icon" transform="matrix(.98765 0 0 .95238 .49383 .47619)" width="80" height="20" fill="#fff" stroke="#000"/><text class="Text" transform="translate(40,13)"   font-size="10px"  text-anchor="middle"><tspan x="0" y="0">Polrmt</tspan></text></a><a  class="Protein P594_ENSMUSG00000024955 " transform="translate(352,194)"   name="Esrra"  ><rect class="Icon" transform="matrix(.98765 0 0 .95238 .49383 .47619)" width="80" height="20" fill="#fff" stroke="#000"/><text class="Text" transform="translate(40,13)"   font-size="10px"  text-anchor="middle"><tspan x="0" y="0">Esrra</tspan></text></a><a  class="Protein P594_ENSMUSG00000058440 " transform="translate(352,84)"   name="Nrf1"  ><rect class="Icon" transform="matrix(.98765 0 0 .95238 .49383 .47619)" width="80" height="20" fill="#fff" stroke="#000"/><text class="Text" transform="translate(40,13)"   font-size="10px"  text-anchor="middle"><tspan x="0" y="0">Nrf1</tspan></text></a><a  class="Protein P594_ENSMUSG00000038766 " transform="translate(352,156)"   name="Gabpb2"  ><rect class="Icon" transform="matrix(.98765 0 0 .95238 .49383 .47619)" width="80" height="20" fill="#fff" stroke="#000"/><text class="Text" transform="translate(40,13)"   font-size="10px"  text-anchor="middle"><tspan x="0" y="0">Gabpb2</tspan></text></a><a class="PubChem-compound_271 Metabolite ChEBI_CHEBI_29108  " transform="translate(15,217)" color="#00f"  name="Ca2+"  ><rect class="Icon" transform="matrix(.98765 0 0 .95238 .49383 .47619)" width="80" height="20" fill="#fff" stroke="#00f"/><text class="Text" transform="translate(40,13)" fill="#00f"  font-size="10px"  text-anchor="middle"><tspan x="0" y="0">Ca2+</tspan></text></a><a  class="Protein P594_ENSMUSG00000001280 " transform="translate(353,274)"   name="Sp1"  ><rect class="Icon" transform="matrix(.98765 0 0 .95238 .49383 .47619)" width="80" height="20" fill="#fff" stroke="#000"/><text class="Text" transform="translate(40,13)"   font-size="10px"  text-anchor="middle"><tspan x="0" y="0">Sp1</tspan></text></a><a  class="Protein P594_ENSMUSG00000029167 " transform="translate(228,148)"   name="Ppargc1a"  ><rect class="Icon" transform="matrix(.98765 0 0 .95238 .49383 .47619)" width="80" height="20" fill="#fff" stroke="#000"/><text class="Text" transform="translate(40,13)"   font-size="10px"  text-anchor="middle"><tspan x="0" y="0">Ppargc1a</tspan></text></a><a  class="Protein P594_ENSMUSG00000033871 " transform="translate(225,107)"   name="Ppargc1b"  ><rect class="Icon" transform="matrix(.98765 0 0 .95238 .49383 .47619)" width="80" height="20" fill="#fff" stroke="#000"/><text class="Text" transform="translate(40,13)"   font-size="10px"  text-anchor="middle"><tspan x="0" y="0">Ppargc1b</tspan></text></a><a  class="Protein P594_ENSMUSG00000027201 " transform="translate(221,244)"   name="Myef2"  ><rect class="Icon" transform="matrix(.98765 0 0 .95238 .49383 .47619)" width="80" height="20" fill="#fff" stroke="#000"/><text class="Text" transform="translate(40,13)"   font-size="10px"  text-anchor="middle"><tspan x="0" y="0">Myef2</tspan></text></a><a  class="Protein P594_ENSMUSG00000038128 " transform="translate(118,200)"   name="Camk4"  ><rect class="Icon" transform="matrix(.98765 0 0 .95238 .49383 .47619)" width="80" height="20" fill="#fff" stroke="#000"/><text class="Text" transform="translate(40,13)"   font-size="10px"  text-anchor="middle"><tspan x="0" y="0">Camk4</tspan></text></a><a  class="Protein P594_ENSMUSG00000025958 " transform="translate(120,148)"   name="Creb1"  ><rect class="Icon" transform="matrix(.98765 0 0 .95238 .49383 .47619)" width="80" height="20" fill="#fff" stroke="#000"/><text class="Text" transform="translate(40,13)"   font-size="10px"  text-anchor="middle"><tspan x="0" y="0">Creb1</tspan></text></a><a  class="Protein P594_ENSMUSG00000028161 " transform="translate(116,244)"   name="Ppp3ca"  ><rect class="Icon" transform="matrix(.98765 0 0 .95238 .49383 .47619)" width="80" height="20" fill="#fff" stroke="#000"/><text class="Text" transform="translate(40,13)"   font-size="10px"  text-anchor="middle"><tspan x="0" y="0">Ppp3ca</tspan></text></a><g class="Complex" transform="translate(123,86)" color="#000"  name="PKA"><rect class="Icon" transform="matrix(.98765 0 0 .95238 .49383 .47619)" width="80" height="20" fill="#fff" stroke="#000"/><text class="Text" transform="translate(40,13)"   font-size="10px"  text-anchor="middle"><tspan x="0" y="0">PKA</tspan></text></g><text class="Text" transform="translate(5,36)" dominant-baseline="central" fill="black"  font-size="12px" font-weight="bold" overflow="visible" ><tspan x="0" y="-18">Name: Mitochondrial gene expression</tspan> <tspan x="0" y="0">Last Modified: 10/17/2013</tspan> <tspan x="0" y="18">Organism: Mus musculus</tspan></text></g></svg>
