<?xml version="1.0" encoding="UTF-8"?>
<!--
  WikiPathways page: https://www.wikipathways.org/index.php/Pathway:WP1248
  URL for this compressed file: https://github.com/eweitz/cachome/tree/main/data/wikipathways/WP1248.svg
  Source code for compression: https://github.com/eweitz/cachome/tree/main/src/wikipathways.py
-->
<svg class="Diagram" width="800" height="600" color="black" baseProfile="full" prefix="schema:http://schema.org/" preserveAspectRatio="xMidYMid" version="1.1" viewBox="0 0 828 1209" vocab="http://vocabularies.wikipathways.org/wp#" xmlns="http://www.w3.org/2000/svg" xmlns:xlink="http://www.w3.org/1999/xlink"><style>svg {font-family: 'Liberation Sans', Arial, sans-serif; }</style><defs><filter id="a" x="0" y="0" width="828" height="1209" filterUnits="userSpaceOnUse"><feColorMatrix in="SourceGraphic" values="-1   0   0 0 0                   0  -1   0 0 0                   0   0  -1 0 0                   0   0   0 1 0"/></filter><marker id="c" stroke-dasharray="99999" markerHeight="12" markerUnits="userSpaceOnUse" markerWidth="12" orient="auto" preserveAspectRatio="none" refX="12" refY="6" viewBox="0 0 12 12"><path transform="rotate(180 6 6)" d="M12 11L0 6l12-5z" fill="currentColor" stroke-width="0"/></marker><symbol id="b" preserveAspectRatio="none" viewBox="0 0 100 100"/></defs><g class="Viewport" color="black"  name="Name: Oxidative phosphorylation Organism: Mus musculus"><rect class="Icon" width="828" height="1209" fill="#fff" stroke="#000" stroke-width="0"/><g id="d" class="DirectedInteraction" color="#000" ><g color="#000" fill="transparent"  filter="url(#a)" stroke="#000" stroke-dasharray="68.20042229609234, 5.8"><path class="EdgeBody" d="m494 502 74 0.25"   marker-end="url(#c)" /></g></g><g id="e" class="DirectedInteraction" color="#000" ><g color="#000" fill="transparent"  filter="url(#a)" stroke="#000" stroke-dasharray="889.45, 5.8"><path class="EdgeBody" d="m798 502.25h20v-387.25h-468v20"   marker-end="url(#c)" /></g></g><g id="f" class="DirectedInteraction" color="#000" ><g color="#000" fill="transparent"  filter="url(#a)" stroke="#000" stroke-dasharray="583.45, 5.8"><path class="EdgeBody" d="m798 502.25h20v-322.25h-227v20"   marker-end="url(#c)" /></g></g><g id="g" class="DirectedInteraction" color="#000" ><g color="#000" fill="transparent"  filter="url(#a)" stroke="#000" stroke-dasharray="82.20000157828282, 5.8"><path class="EdgeBody" d="m93 259.98 88 0.016667"   marker-end="url(#c)" /></g></g><g id="h" class="DirectedInteraction" color="#000" ><g color="#000" fill="transparent"  filter="url(#a)" stroke="#000" stroke-dasharray="140.2, 5.8"><path class="EdgeBody" d="m277 260h146"   marker-end="url(#c)" /></g><g class="Burr Anchor" transform="translate(350,260)" ><use class="Icon" width="0" height="0" fill="#141414" stroke-width="0" xlink:href="#b"/></g></g><g id="i" class="Interaction" color="#000" ><g color="#000" fill="transparent"  filter="url(#a)" stroke="#000" stroke-dasharray="105, 0"><path class="EdgeBody" d="m350 155v105"   /></g></g><g class="GroupGroup" transform="translate(568,274)" color="grey" ><use class="Icon" width="230" height="913" fill="transparent"  stroke="grey" stroke-dasharray="5,3" stroke-width="0" xlink:href="#b"/><g class="Label" transform="translate(8,8)" color="#000"  name="Nicotinamide nucleotide transhydrogenase."><use class="Icon" width="214" height="34" fill="transparent"  stroke="#000" stroke-width="0" xlink:href="#b"/><text class="Text" transform="translate(107,20)"   font-size="10px"  text-anchor="middle"><tspan x="0" y="0">Nicotinamide nucleotide transhydrogenase.</tspan></text></g><a  class="GeneProduct P594_ENSMUSG00000020153 " transform="translate(64,145)"   name="Ndufs7"  ><rect class="Icon" transform="matrix(.98765 0 0 .95238 .49383 .47619)" width="80" height="20" fill="#fff" stroke="#000"/><text class="Text" transform="translate(40,13)"   font-size="10px"  text-anchor="middle"><tspan x="0" y="0">Ndufs7</tspan></text></a><a  class="GeneProduct P594_ENSMUSG00000029632 " transform="translate(64,165)"   name="Ndufa4"  ><rect class="Icon" transform="matrix(.98765 0 0 .95238 .49383 .47619)" width="80" height="20" fill="#fff" stroke="#000"/><text class="Text" transform="translate(40,13)"   font-size="10px"  text-anchor="middle"><tspan x="0" y="0">Ndufa4</tspan></text></a><g class="GeneProduct" transform="translate(64,325)" color="#000"  name="LOC727762"><rect class="Icon" transform="matrix(.98765 0 0 .95238 .49383 .47619)" width="80" height="20" fill="#fff" stroke="#000"/><text class="Text" transform="translate(40,13)"   font-size="10px"  text-anchor="middle"><tspan x="0" y="0">LOC727762</tspan></text></g><a  class="GeneProduct P594_ENSMUSG00000028648 " transform="translate(64,645)"   name="Ndufs5"  ><rect class="Icon" transform="matrix(.98765 0 0 .95238 .49383 .47619)" width="80" height="20" fill="#fff" stroke="#000"/><text class="Text" transform="translate(40,13)"   font-size="10px"  text-anchor="middle"><tspan x="0" y="0">Ndufs5</tspan></text></a><a  class="GeneProduct P594_ENSMUSG00000022354 " transform="translate(64,705)"   name="Ndufb9"  ><rect class="Icon" transform="matrix(.98765 0 0 .95238 .49383 .47619)" width="80" height="20" fill="#fff" stroke="#000"/><text class="Text" transform="translate(40,13)"   font-size="10px"  text-anchor="middle"><tspan x="0" y="0">Ndufb9</tspan></text></a><a  class="GeneProduct P594_ENSMUSG00000025968 " transform="translate(64,205)"   name="Ndufs1"  ><rect class="Icon" transform="matrix(.98765 0 0 .95238 .49383 .47619)" width="80" height="20" fill="#fff" stroke="#000"/><text class="Text" transform="translate(40,13)"   font-size="10px"  text-anchor="middle"><tspan x="0" y="0">Ndufs1</tspan></text></a><a  class="GeneProduct P594_ENSMUSG00000035674 " transform="translate(64,65)"   name="Ndufa3"  ><rect class="Icon" transform="matrix(.98765 0 0 .95238 .49383 .47619)" width="80" height="20" fill="#fff" stroke="#000"/><text class="Text" transform="translate(40,13)"   font-size="10px"  text-anchor="middle"><tspan x="0" y="0">Ndufa3</tspan></text></a><a  class="GeneProduct P594_ENSMUSG00000033938 " transform="translate(64,545)"   name="Ndufb7"  ><rect class="Icon" transform="matrix(.98765 0 0 .95238 .49383 .47619)" width="80" height="20" fill="#fff" stroke="#000"/><text class="Text" transform="translate(40,13)"   font-size="10px"  text-anchor="middle"><tspan x="0" y="0">Ndufb7</tspan></text></a><a  class="GeneProduct P594_ENSMUSG00000002416 " transform="translate(64,85)"   name="Ndufb2"  ><rect class="Icon" transform="matrix(.98765 0 0 .95238 .49383 .47619)" width="80" height="20" fill="#fff" stroke="#000"/><text class="Text" transform="translate(40,13)"   font-size="10px"  text-anchor="middle"><tspan x="0" y="0">Ndufb2</tspan></text></a><g class="GeneProduct" transform="translate(64,845)" color="#000"  name="CI-SGDH"><rect class="Icon" transform="matrix(.98765 0 0 .95238 .49383 .47619)" width="80" height="20" fill="#fff" stroke="#000"/><text class="Text" transform="translate(40,13)"   font-size="10px"  text-anchor="middle"><tspan x="0" y="0">CI-SGDH</tspan></text></g><a  class="GeneProduct P594_ENSMUSG00000021606 " transform="translate(64,725)"   name="Ndufs6"  ><rect class="Icon" transform="matrix(.98765 0 0 .95238 .49383 .47619)" width="80" height="20" fill="#fff" stroke="#000"/><text class="Text" transform="translate(40,13)"   font-size="10px"  text-anchor="middle"><tspan x="0" y="0">Ndufs6</tspan></text></a><a  class="GeneProduct P594_ENSMUSG00000037152 " transform="translate(64,865)"   name="Ndufc1"  ><rect class="Icon" transform="matrix(.98765 0 0 .95238 .49383 .47619)" width="80" height="20" fill="#fff" stroke="#000"/><text class="Text" transform="translate(40,13)"   font-size="10px"  text-anchor="middle"><tspan x="0" y="0">Ndufc1</tspan></text></a><a  class="GeneProduct P594_ENSMUSG00000024038 " transform="translate(64,125)"   name="Ndufv3"  ><rect class="Icon" transform="matrix(.98765 0 0 .95238 .49383 .47619)" width="80" height="20" fill="#fff" stroke="#000"/><text class="Text" transform="translate(40,13)"   font-size="10px"  text-anchor="middle"><tspan x="0" y="0">Ndufv3</tspan></text></a><a  class="GeneProduct P594_ENSMUSG00000025204 " transform="translate(64,625)"   name="Ndufb8"  ><rect class="Icon" transform="matrix(.98765 0 0 .95238 .49383 .47619)" width="80" height="20" fill="#fff" stroke="#000"/><text class="Text" transform="translate(40,13)"   font-size="10px"  text-anchor="middle"><tspan x="0" y="0">Ndufb8</tspan></text></a><a  class="GeneProduct P594_ENSMUSG00000026895 " transform="translate(64,525)"   name="Ndufa8"  ><rect class="Icon" transform="matrix(.98765 0 0 .95238 .49383 .47619)" width="80" height="20" fill="#fff" stroke="#000"/><text class="Text" transform="translate(40,13)"   font-size="10px"  text-anchor="middle"><tspan x="0" y="0">Ndufa8</tspan></text></a><g class="GeneProduct" transform="translate(64,765)" color="#000"  name="FASN2A"><rect class="Icon" transform="matrix(.98765 0 0 .95238 .49383 .47619)" width="80" height="20" fill="#fff" stroke="#000"/><text class="Text" transform="translate(40,13)"   font-size="10px"  text-anchor="middle"><tspan x="0" y="0">FASN2A</tspan></text></g><a  class="GeneProduct P594_ENSMUSG00000023089 " transform="translate(64,265)"   name="Ndufa5"  ><rect class="Icon" transform="matrix(.98765 0 0 .95238 .49383 .47619)" width="80" height="20" fill="#fff" stroke="#000"/><text class="Text" transform="translate(40,13)"   font-size="10px"  text-anchor="middle"><tspan x="0" y="0">Ndufa5</tspan></text></a><a  class="GeneProduct P594_ENSMUSG00000071014 " transform="translate(64,465)"   name="Ndufb6"  ><rect class="Icon" transform="matrix(.98765 0 0 .95238 .49383 .47619)" width="80" height="20" fill="#fff" stroke="#000"/><text class="Text" transform="translate(40,13)"   font-size="10px"  text-anchor="middle"><tspan x="0" y="0">Ndufb6</tspan></text></a><a  class="GeneProduct P594_ENSMUSG00000026260 " transform="translate(64,685)"   name="Ndufa10"  ><rect class="Icon" transform="matrix(.98765 0 0 .95238 .49383 .47619)" width="80" height="20" fill="#fff" stroke="#000"/><text class="Text" transform="translate(40,13)"   font-size="10px"  text-anchor="middle"><tspan x="0" y="0">Ndufa10</tspan></text></a><a  class="GeneProduct P594_ENSMUSG00000000399 " transform="translate(64,605)"   name="Ndufa9"  ><rect class="Icon" transform="matrix(.98765 0 0 .95238 .49383 .47619)" width="80" height="20" fill="#fff" stroke="#000"/><text class="Text" transform="translate(40,13)"   font-size="10px"  text-anchor="middle"><tspan x="0" y="0">Ndufa9</tspan></text></a><a  class="GeneProduct P594_ENSMUSG00000041881 " transform="translate(64,445)"   name="Ndufa7"  ><rect class="Icon" transform="matrix(.98765 0 0 .95238 .49383 .47619)" width="80" height="20" fill="#fff" stroke="#000"/><text class="Text" transform="translate(40,13)"   font-size="10px"  text-anchor="middle"><tspan x="0" y="0">Ndufa7</tspan></text></a><a  class="GeneProduct P594_ENSMUSG00000030647 " transform="translate(64,105)"   name="Ndufc2"  ><rect class="Icon" transform="matrix(.98765 0 0 .95238 .49383 .47619)" width="80" height="20" fill="#fff" stroke="#000"/><text class="Text" transform="translate(40,13)"   font-size="10px"  text-anchor="middle"><tspan x="0" y="0">Ndufc2</tspan></text></a><a  class="GeneProduct P594_ENSMUSG00000021764 " transform="translate(64,565)"   name="Ndufs4"  ><rect class="Icon" transform="matrix(.98765 0 0 .95238 .49383 .47619)" width="80" height="20" fill="#fff" stroke="#000"/><text class="Text" transform="translate(40,13)"   font-size="10px"  text-anchor="middle"><tspan x="0" y="0">Ndufs4</tspan></text></a><a  class="GeneProduct P594_ENSMUSG00000065947 " transform="translate(64,585)"   name="ND4L"  ><rect class="Icon" transform="matrix(.98765 0 0 .95238 .49383 .47619)" width="80" height="20" fill="#fff" stroke="#000"/><text class="Text" transform="translate(40,13)"   font-size="10px"  text-anchor="middle"><tspan x="0" y="0">ND4L</tspan></text></a><a  class="GeneProduct P594_ENSMUSG00000040280 " transform="translate(64,225)"   name="Ndufa4l2"  ><rect class="Icon" transform="matrix(.98765 0 0 .95238 .49383 .47619)" width="80" height="20" fill="#fff" stroke="#000"/><text class="Text" transform="translate(40,13)"   font-size="10px"  text-anchor="middle"><tspan x="0" y="0">Ndufa4l2</tspan></text></a><a  class="GeneProduct P594_ENSMUSG00000040048 " transform="translate(64,785)"   name="Ndufb10"  ><rect class="Icon" transform="matrix(.98765 0 0 .95238 .49383 .47619)" width="80" height="20" fill="#fff" stroke="#000"/><text class="Text" transform="translate(40,13)"   font-size="10px"  text-anchor="middle"><tspan x="0" y="0">Ndufb10</tspan></text></a><a  class="GeneProduct P594_ENSMUSG00000015437 " transform="translate(64,185)"   name="Gzmb"  ><rect class="Icon" transform="matrix(.98765 0 0 .95238 .49383 .47619)" width="80" height="20" fill="#fff" stroke="#000"/><text class="Text" transform="translate(40,13)"   font-size="10px"  text-anchor="middle"><tspan x="0" y="0">Gzmb</tspan></text></a><a  class="GeneProduct P594_ENSMUSG00000005510 " transform="translate(64,405)"   name="Ndufs3"  ><rect class="Icon" transform="matrix(.98765 0 0 .95238 .49383 .47619)" width="80" height="20" fill="#fff" stroke="#000"/><text class="Text" transform="translate(40,13)"   font-size="10px"  text-anchor="middle"><tspan x="0" y="0">Ndufs3</tspan></text></a><a  class="GeneProduct P594_ENSMUSG00000024099 " transform="translate(64,885)"   name="Ndufv2"  ><rect class="Icon" transform="matrix(.98765 0 0 .95238 .49383 .47619)" width="80" height="20" fill="#fff" stroke="#000"/><text class="Text" transform="translate(40,13)"   font-size="10px"  text-anchor="middle"><tspan x="0" y="0">Ndufv2</tspan></text></a><a  class="GeneProduct P594_ENSMUSG00000064367 " transform="translate(64,665)"   name="ND5"  ><rect class="Icon" transform="matrix(.98765 0 0 .95238 .49383 .47619)" width="80" height="20" fill="#fff" stroke="#000"/><text class="Text" transform="translate(40,13)"   font-size="10px"  text-anchor="middle"><tspan x="0" y="0">ND5</tspan></text></a><a  class="GeneProduct P594_ENSMUSG00000064360 " transform="translate(64,425)"   name="ND3"  ><rect class="Icon" transform="matrix(.98765 0 0 .95238 .49383 .47619)" width="80" height="20" fill="#fff" stroke="#000"/><text class="Text" transform="translate(40,13)"   font-size="10px"  text-anchor="middle"><tspan x="0" y="0">ND3</tspan></text></a><a  class="GeneProduct P594_ENSMUSG00000014294 " transform="translate(64,825)"   name="Ndufa2"  ><rect class="Icon" transform="matrix(.98765 0 0 .95238 .49383 .47619)" width="80" height="20" fill="#fff" stroke="#000"/><text class="Text" transform="translate(40,13)"   font-size="10px"  text-anchor="middle"><tspan x="0" y="0">Ndufa2</tspan></text></a><g class="GeneProduct" transform="translate(64,285)" color="#000"  name="B15"><rect class="Icon" transform="matrix(.98765 0 0 .95238 .49383 .47619)" width="80" height="20" fill="#fff" stroke="#000"/><text class="Text" transform="translate(40,13)"   font-size="10px"  text-anchor="middle"><tspan x="0" y="0">B15</tspan></text></g><a  class="GeneProduct P594_ENSMUSG00000013593 " transform="translate(64,305)"   name="Ndufs2"  ><rect class="Icon" transform="matrix(.98765 0 0 .95238 .49383 .47619)" width="80" height="20" fill="#fff" stroke="#000"/><text class="Text" transform="translate(40,13)"   font-size="10px"  text-anchor="middle"><tspan x="0" y="0">Ndufs2</tspan></text></a><a  class="GeneProduct P594_ENSMUSG00000059734 " transform="translate(64,805)"   name="Ndufs8"  ><rect class="Icon" transform="matrix(.98765 0 0 .95238 .49383 .47619)" width="80" height="20" fill="#fff" stroke="#000"/><text class="Text" transform="translate(40,13)"   font-size="10px"  text-anchor="middle"><tspan x="0" y="0">Ndufs8</tspan></text></a><a  class="GeneProduct P594_ENSMUSG00000027673 " transform="translate(64,385)"   name="Ndufb5"  ><rect class="Icon" transform="matrix(.98765 0 0 .95238 .49383 .47619)" width="80" height="20" fill="#fff" stroke="#000"/><text class="Text" transform="translate(40,13)"   font-size="10px"  text-anchor="middle"><tspan x="0" y="0">Ndufb5</tspan></text></a><a  class="GeneProduct P594_ENSMUSG00000064341 " transform="translate(64,245)"   name="ND1"  ><rect class="Icon" transform="matrix(.98765 0 0 .95238 .49383 .47619)" width="80" height="20" fill="#fff" stroke="#000"/><text class="Text" transform="translate(40,13)"   font-size="10px"  text-anchor="middle"><tspan x="0" y="0">ND1</tspan></text></a><a  class="GeneProduct P594_ENSMUSG00000022450 " transform="translate(64,365)"   name="Ndufa6"  ><rect class="Icon" transform="matrix(.98765 0 0 .95238 .49383 .47619)" width="80" height="20" fill="#fff" stroke="#000"/><text class="Text" transform="translate(40,13)"   font-size="10px"  text-anchor="middle"><tspan x="0" y="0">Ndufa6</tspan></text></a><a  class="GeneProduct P594_ENSMUSG00000064368 " transform="translate(64,745)"   name="ND6"  ><rect class="Icon" transform="matrix(.98765 0 0 .95238 .49383 .47619)" width="80" height="20" fill="#fff" stroke="#000"/><text class="Text" transform="translate(40,13)"   font-size="10px"  text-anchor="middle"><tspan x="0" y="0">ND6</tspan></text></a><a  class="GeneProduct P594_ENSMUSG00000002379 " transform="translate(64,45)"   name="Ndufa11"  ><rect class="Icon" transform="matrix(.98765 0 0 .95238 .49383 .47619)" width="80" height="20" fill="#fff" stroke="#000"/><text class="Text" transform="translate(40,13)"   font-size="10px"  text-anchor="middle"><tspan x="0" y="0">Ndufa11</tspan></text></a><a  class="GeneProduct P594_ENSMUSG00000037916 " transform="translate(64,485)"   name="Ndufv1"  ><rect class="Icon" transform="matrix(.98765 0 0 .95238 .49383 .47619)" width="80" height="20" fill="#fff" stroke="#000"/><text class="Text" transform="translate(40,13)"   font-size="10px"  text-anchor="middle"><tspan x="0" y="0">Ndufv1</tspan></text></a><a  class="GeneProduct P594_ENSMUSG00000064363 " transform="translate(64,505)"   name="ND4"  ><rect class="Icon" transform="matrix(.98765 0 0 .95238 .49383 .47619)" width="80" height="20" fill="#fff" stroke="#000"/><text class="Text" transform="translate(40,13)"   font-size="10px"  text-anchor="middle"><tspan x="0" y="0">ND4</tspan></text></a><a  class="GeneProduct P594_ENSMUSG00000064345 " transform="translate(64,345)"   name="ND2"  ><rect class="Icon" transform="matrix(.98765 0 0 .95238 .49383 .47619)" width="80" height="20" fill="#fff" stroke="#000"/><text class="Text" transform="translate(40,13)"   font-size="10px"  text-anchor="middle"><tspan x="0" y="0">ND2</tspan></text></a></g><g class="GroupGroup" transform="translate(181,32)" color="grey" ><use class="Icon" width="96" height="456" fill="transparent"  stroke="grey" stroke-dasharray="5,3" stroke-width="0" xlink:href="#b"/><g class="Label" transform="translate(8,8)" color="#000"  name="ATP synthase"><use class="Icon" width="80" height="20" fill="transparent"  stroke="#000" stroke-width="0" xlink:href="#b"/><text class="Text" transform="translate(40,13)"   font-size="10px"  text-anchor="middle"><tspan x="0" y="0">ATP synthase</tspan></text></g><a  class="GeneProduct P594_ENSMUSG00000003072 " transform="translate(8,288)"   name="Atp5d"  ><rect class="Icon" transform="matrix(.98765 0 0 .95238 .49383 .47619)" width="80" height="20" fill="#fff" stroke="#000"/><text class="Text" transform="translate(40,13)"   font-size="10px"  text-anchor="middle"><tspan x="0" y="0">Atp5d</tspan></text></a><a  class="GeneProduct P594_ENSMUSG00000018770 " transform="translate(8,108)"   name="Atp5g3"  ><rect class="Icon" transform="matrix(.98765 0 0 .95238 .49383 .47619)" width="80" height="20" fill="#fff" stroke="#000"/><text class="Text" transform="translate(40,13)"   font-size="10px"  text-anchor="middle"><tspan x="0" y="0">Atp5g3</tspan></text></a><a  class="GeneProduct P594_ENSMUSG00000006057 " transform="translate(8,308)"   name="Atp5g1"  ><rect class="Icon" transform="matrix(.98765 0 0 .95238 .49383 .47619)" width="80" height="20" fill="#fff" stroke="#000"/><text class="Text" transform="translate(40,13)"   font-size="10px"  text-anchor="middle"><tspan x="0" y="0">Atp5g1</tspan></text></a><a  class="GeneProduct P594_ENSMUSG00000064357 " transform="translate(8,368)"   name="ATP6"  ><rect class="Icon" transform="matrix(.98765 0 0 .95238 .49383 .47619)" width="80" height="20" fill="#fff" stroke="#000"/><text class="Text" transform="translate(40,13)"   font-size="10px"  text-anchor="middle"><tspan x="0" y="0">ATP6</tspan></text></a><a  class="GeneProduct P594_ENSMUSG00000022956 " transform="translate(8 48)"   name="Atp5o"  ><rect class="Icon" transform="matrix(.98765 0 0 .95238 .49383 .47619)" width="80" height="20" fill="#fff" stroke="#000"/><text class="Text" transform="translate(40,13)"   font-size="10px"  text-anchor="middle"><tspan x="0" y="0">Atp5o</tspan></text></a><a  class="GeneProduct P594_ENSMUSG00000000563 " transform="translate(8 68)"   name="Atp5f1"  ><rect class="Icon" transform="matrix(.98765 0 0 .95238 .49383 .47619)" width="80" height="20" fill="#fff" stroke="#000"/><text class="Text" transform="translate(40,13)"   font-size="10px"  text-anchor="middle"><tspan x="0" y="0">Atp5f1</tspan></text></a><a  class="GeneProduct P594_ENSMUSG00000038717 " transform="translate(8,348)"   name="Atp5l"  ><rect class="Icon" transform="matrix(.98765 0 0 .95238 .49383 .47619)" width="80" height="20" fill="#fff" stroke="#000"/><text class="Text" transform="translate(40,13)"   font-size="10px"  text-anchor="middle"><tspan x="0" y="0">Atp5l</tspan></text></a><a  class="MGI_MGI_99927 GeneProduct P594_ENSMUSG00000064357 " transform="translate(8 248)"   name="mt-Atp6"  ><rect class="Icon" transform="matrix(.98765 0 0 .95238 .49383 .47619)" width="80" height="20" fill="#fff" stroke="#000"/><text class="Text" transform="translate(40,13)"   font-size="10px"  text-anchor="middle"><tspan x="0" y="0">mt-Atp6</tspan></text></a><a  class="MGI_MGI_99926 GeneProduct P594_ENSMUSG00000064356 " transform="translate(8,388)"   name="mt-Atp8"  ><rect class="Icon" transform="matrix(.98765 0 0 .95238 .49383 .47619)" width="80" height="20" fill="#fff" stroke="#000"/><text class="Text" transform="translate(40,13)"   font-size="10px"  text-anchor="middle"><tspan x="0" y="0">mt-Atp8</tspan></text></a><a  class="GeneProduct P594_ENSMUSG00000062683 " transform="translate(8,208)"   name="Atp5g2"  ><rect class="Icon" transform="matrix(.98765 0 0 .95238 .49383 .47619)" width="80" height="20" fill="#fff" stroke="#000"/><text class="Text" transform="translate(40,13)"   font-size="10px"  text-anchor="middle"><tspan x="0" y="0">Atp5g2</tspan></text></a><a  class="GeneProduct P594_ENSMUSG00000034566 " transform="translate(8,168)"   name="Atp5h"  ><rect class="Icon" transform="matrix(.98765 0 0 .95238 .49383 .47619)" width="80" height="20" fill="#fff" stroke="#000"/><text class="Text" transform="translate(40,13)"   font-size="10px"  text-anchor="middle"><tspan x="0" y="0">Atp5h</tspan></text></a><a  class="GeneProduct P594_ENSMUSG00000006057 " transform="translate(8,328)"   name="Atp5g1"  ><rect class="Icon" transform="matrix(.98765 0 0 .95238 .49383 .47619)" width="80" height="20" fill="#fff" stroke="#000"/><text class="Text" transform="translate(40,13)"   font-size="10px"  text-anchor="middle"><tspan x="0" y="0">Atp5g1</tspan></text></a><a  class="GeneProduct P594_ENSMUSG00000019087 " transform="translate(8,88)"   name="Atp6ap1"  ><rect class="Icon" transform="matrix(.98765 0 0 .95238 .49383 .47619)" width="80" height="20" fill="#fff" stroke="#000"/><text class="Text" transform="translate(40,13)"   font-size="10px"  text-anchor="middle"><tspan x="0" y="0">Atp6ap1</tspan></text></a><a  class="GeneProduct P594_ENSMUSG00000016252 " transform="translate(8,268)"   name="Atp5e"  ><rect class="Icon" transform="matrix(.98765 0 0 .95238 .49383 .47619)" width="80" height="20" fill="#fff" stroke="#000"/><text class="Text" transform="translate(40,13)"   font-size="10px"  text-anchor="middle"><tspan x="0" y="0">Atp5e</tspan></text></a><a  class="GeneProduct P594_ENSMUSG00000050856 " transform="translate(8 228)"   name="Atp5k"  ><rect class="Icon" transform="matrix(.98765 0 0 .95238 .49383 .47619)" width="80" height="20" fill="#fff" stroke="#000"/><text class="Text" transform="translate(40,13)"   font-size="10px"  text-anchor="middle"><tspan x="0" y="0">Atp5k</tspan></text></a><a  class="GeneProduct P594_ENSMUSG00000025393 " transform="translate(8,128)"   name="Atp5b"  ><rect class="Icon" transform="matrix(.98765 0 0 .95238 .49383 .47619)" width="80" height="20" fill="#fff" stroke="#000"/><text class="Text" transform="translate(40,13)"   font-size="10px"  text-anchor="middle"><tspan x="0" y="0">Atp5b</tspan></text></a><a  class="GeneProduct P594_ENSMUSG00000054894 " transform="translate(8,28)"   name="Atp5s"  ><rect class="Icon" transform="matrix(.98765 0 0 .95238 .49383 .47619)" width="80" height="20" fill="#fff" stroke="#000"/><text class="Text" transform="translate(40,13)"   font-size="10px"  text-anchor="middle"><tspan x="0" y="0">Atp5s</tspan></text></a><a  class="GeneProduct P594_ENSMUSG00000022890 " transform="translate(8,188)"   name="Atp5j"  ><rect class="Icon" transform="matrix(.98765 0 0 .95238 .49383 .47619)" width="80" height="20" fill="#fff" stroke="#000"/><text class="Text" transform="translate(40,13)"   font-size="10px"  text-anchor="middle"><tspan x="0" y="0">Atp5j</tspan></text></a><a  class="GeneProduct P594_ENSMUSG00000031007 " transform="translate(8,428)"   name="Atp6ap2"  ><rect class="Icon" transform="matrix(.98765 0 0 .95238 .49383 .47619)" width="80" height="20" fill="#fff" stroke="#000"/><text class="Text" transform="translate(40,13)"   font-size="10px"  text-anchor="middle"><tspan x="0" y="0">Atp6ap2</tspan></text></a><a  class="GeneProduct P594_ENSMUSG00000038690 " transform="translate(8,408)"   name="Atp5j2"  ><rect class="Icon" transform="matrix(.98765 0 0 .95238 .49383 .47619)" width="80" height="20" fill="#fff" stroke="#000"/><text class="Text" transform="translate(40,13)"   font-size="10px"  text-anchor="middle"><tspan x="0" y="0">Atp5j2</tspan></text></a><a  class="GeneProduct P594_ENSMUSG00000025428 " transform="translate(8,148)"   name="Atp5a1"  ><rect class="Icon" transform="matrix(.98765 0 0 .95238 .49383 .47619)" width="80" height="20" fill="#fff" stroke="#000"/><text class="Text" transform="translate(40,13)"   font-size="10px"  text-anchor="middle"><tspan x="0" y="0">Atp5a1</tspan></text></a></g><a class="Metabolite ChEBI_CHEBI_44215  " transform="translate(551,200)" color="#00f"  name="NAD"  ><rect class="Icon" transform="matrix(.98765 0 0 .95238 .49383 .47619)" width="80" height="20" fill="#fff" stroke="#00f"/><text class="Text" transform="translate(40,13)" fill="#00f"  font-size="10px"  text-anchor="middle"><tspan x="0" y="0">NAD</tspan></text></a><a class="Metabolite ChEBI_CHEBI_16908  " transform="translate(414,492)" color="#00f"  name="NADH"  ><rect class="Icon" transform="matrix(.98765 0 0 .95238 .49383 .47619)" width="80" height="20" fill="#fff" stroke="#00f"/><text class="Text" transform="translate(40,13)" fill="#00f"  font-size="10px"  text-anchor="middle"><tspan x="0" y="0">NADH</tspan></text></a><a class="Metabolite ChEBI_CHEBI_16761  " transform="translate(9.4833 249.98)" color="#00f"  name="ADP"  ><rect class="Icon" transform="matrix(.98817 0 0 .95238 .49408 .47619)" width="83.517" height="20" fill="#fff" stroke="#00f"/><text class="Text" transform="translate(41.758 13)" fill="#00f"  font-size="10px"  text-anchor="middle"><tspan x="0" y="0">ADP</tspan></text></a><a class="Metabolite ChEBI_CHEBI_15422  " transform="translate(423,250)" color="#00f"  name="ATP"  ><rect class="Icon" transform="matrix(.98765 0 0 .95238 .49383 .47619)" width="80" height="20" fill="#fff" stroke="#00f"/><text class="Text" transform="translate(40,13)" fill="#00f"  font-size="10px"  text-anchor="middle"><tspan x="0" y="0">ATP</tspan></text></a><a class="Metabolite ChEBI_CHEBI_18276  " transform="translate(310,135)" color="#00f"  name="Hydrogen"  ><rect class="Icon" transform="matrix(.98765 0 0 .95238 .49383 .47619)" width="80" height="20" fill="#fff" stroke="#00f"/><text class="Text" transform="translate(40,13)" fill="#00f"  font-size="10px"  text-anchor="middle"><tspan x="0" y="0">Hydrogen</tspan></text></a><text class="Text" transform="translate(5,27)" dominant-baseline="central" fill="black"  font-size="12px" font-weight="bold" overflow="visible" ><tspan x="0" y="-9">Name: Oxidative phosphorylation</tspan> <tspan x="0" y="9">Organism: Mus musculus</tspan></text></g></svg>
