<?xml version="1.0" encoding="UTF-8"?>
<!--
  WikiPathways page: https://www.wikipathways.org/index.php/Pathway:WP1262
  URL for this compressed file: https://github.com/eweitz/cachome/tree/main/data/wikipathways/WP1262.svg
  Source code for compression: https://github.com/eweitz/cachome/tree/main/src/wikipathways.py
-->
<svg class="Diagram" width="800" height="600" color="black" baseProfile="full" prefix="schema:http://schema.org/" preserveAspectRatio="xMidYMid" version="1.1" viewBox="0 0 845 685" vocab="http://vocabularies.wikipathways.org/wp#" xmlns="http://www.w3.org/2000/svg" xmlns:xlink="http://www.w3.org/1999/xlink"><style>svg {font-family: 'Liberation Sans', Arial, sans-serif; }</style><defs><filter id="a" x="0" y="0" width="845" height="685" filterUnits="userSpaceOnUse"><feColorMatrix in="SourceGraphic" values="-1   0   0 0 0                   0  -1   0 0 0                   0   0  -1 0 0                   0   0   0 1 0"/></filter><marker id="d" stroke-dasharray="99999" markerHeight="12" markerUnits="userSpaceOnUse" markerWidth="12" orient="auto" preserveAspectRatio="none" refX="12" refY="6" viewBox="0 0 12 12"><circle transform="rotate(180 6 6)" cx="6" cy="6" r="5.3" fill="none" stroke="#000"/></marker><marker id="f" stroke-dasharray="99999" markerHeight="12" markerUnits="userSpaceOnUse" markerWidth="12" orient="auto" preserveAspectRatio="none" refY="6" viewBox="0 0 12 12"><path d="M12 11L0 6l12-5z" fill="currentColor" stroke-width="0"/></marker><marker id="b" stroke-dasharray="99999" markerHeight="12" markerUnits="userSpaceOnUse" markerWidth="12" orient="auto" preserveAspectRatio="none" refX="12" refY="6" viewBox="0 0 12 12"><path transform="rotate(180 6 6)" d="M12 11L0 6l12-5z" fill="currentColor" stroke-width="0"/></marker><symbol id="e" overflow="visible" preserveAspectRatio="none" viewBox="0 0 100 100"><path d="M0 25L25 0h50l25 25v50l-25 25H25L0 75z" stroke="currentColor" vector-effect="non-scaling-stroke"/></symbol><symbol id="c" preserveAspectRatio="none" viewBox="0 0 100 100"/></defs><g class="Viewport" color="black"  name="Name: Aflatoxin B1 metabolism Last Modified: 2/21/2013 Organism: Mus musculus"><rect class="Icon" width="845" height="685" fill="#fff" stroke="#000" stroke-width="0"/><g id="g" class="Interaction" color="#000" ><g color="#000" fill="transparent"  filter="url(#a)" stroke="#000" stroke-dasharray="0, 5.8, 38.40249993750313, 5.8"><path class="EdgeBody" d="m290.5 349-0.5 50"   marker-end="url(#b)" marker-start="url(#f)" /></g></g><g id="h" class="Interaction" color="#000" ><g color="#000" fill="transparent"  filter="url(#a)" stroke="#000" stroke-dasharray="77.2, 5.8"><path class="EdgeBody" d="m280 142h-83"   marker-end="url(#b)" /></g><g class="Burr Anchor" transform="translate(239,142)" ><use class="Icon" width="0" height="0" fill="#141414" stroke-width="0" xlink:href="#c"/></g></g><g id="i" class="Interaction" color="#000" ><g color="#000" fill="transparent"  filter="url(#a)" stroke="#000" stroke-dasharray="5.02, 3.01, 5.02, 3.01, 5.02, 3.01, 5.02, 3.01, 5.02, 3.01, 5.02, 3.01, 0, 5.8"><path class="EdgeBody" d="m406.5 260-0.5 51"   marker-end="url(#b)" /></g></g><g id="j" class="Interaction" color="#000" ><g color="#000" fill="transparent"  filter="url(#a)" stroke="#000" stroke-dasharray="43.20255095400647, 5.8"><path class="EdgeBody" d="m430 530 0.5 49"   marker-end="url(#b)" /></g></g><g id="k" class="Interaction" color="#000" ><g color="#000" fill="transparent"  filter="url(#a)" stroke="#000" stroke-dasharray="49, 11"><path class="EdgeBody" d="m239 82v60"   marker-end="url(#d)" /></g></g><g id="l" class="Interaction" color="#000" ><g color="#000" fill="transparent"  filter="url(#a)" stroke="#000" stroke-dasharray="111.36761497956678, 5.8"><path class="EdgeBody" d="M430.5,599L319,635"   marker-end="url(#b)" /></g></g><g id="m" class="Interaction" color="#000" ><g color="#000" fill="transparent"  filter="url(#a)" stroke="#000" stroke-dasharray="87.83759928575701, 5.8"><path class="EdgeBody" d="m300 152-32 88"   marker-end="url(#b)" /></g><g class="Burr Anchor" transform="translate(284.64 194.23)" ><use class="Icon" width="0" height="0" fill="#141414" stroke-width="0" xlink:href="#c"/></g></g><g id="n" class="Interaction" color="#000" ><g color="#000" fill="transparent"  filter="url(#a)" stroke="#000" stroke-dasharray="83.64262399876844, 11"><path class="EdgeBody" d="m190 194 94.642 0.23358"   marker-end="url(#d)" /></g></g><g id="o" class="Interaction" color="#000" ><g color="#000" fill="transparent"  filter="url(#a)" stroke="#000" stroke-dasharray="152.2, 5.8"><path class="EdgeBody" d="m480 250h158"   marker-end="url(#b)" /></g><g class="Burr Anchor" transform="translate(577,250)" ><use class="Icon" width="0" height="0" fill="#141414" stroke-width="0" xlink:href="#c"/></g></g><g id="p" class="Interaction" color="#000" ><g color="#000" fill="transparent"  filter="url(#a)" stroke="#000" stroke-dasharray="58.2, 5.8"><path class="EdgeBody" d="m542 142h64"   marker-end="url(#b)" /></g><g class="Burr Anchor" transform="translate(572,142)" ><use class="Icon" width="0" height="0" fill="#141414" stroke-width="0" xlink:href="#c"/></g></g><g id="q" class="Interaction" color="#000" ><g color="#000" fill="transparent"  filter="url(#a)" stroke="#000" stroke-dasharray="43, 11"><path class="EdgeBody" d="m572 88v54"   marker-end="url(#d)" /></g></g><g id="r" class="Interaction" color="#000" ><g color="#000" fill="transparent"  filter="url(#a)" stroke="#000" stroke-dasharray="109.34447446577713, 5.8"><path class="EdgeBody" d="m257 419-66.5 94"   marker-end="url(#b)" /></g><g class="Burr Anchor" transform="translate(211.57 483.22)" ><use class="Icon" width="0" height="0" fill="#141414" stroke-width="0" xlink:href="#c"/></g></g><g id="s" class="Interaction" color="#000" ><g color="#000" fill="transparent"  filter="url(#a)" stroke="#000" stroke-dasharray="107.50158869142128, 5.8"><path class="EdgeBody" d="m323 419 67.5 91"   marker-end="url(#b)" /></g><g class="Burr Anchor" transform="translate(370.96 483.66)" ><use class="Icon" width="0" height="0" fill="#141414" stroke-width="0" xlink:href="#c"/></g></g><g id="t" class="Interaction" color="#000" ><g color="#000" fill="transparent"  filter="url(#a)" stroke="#000" stroke-dasharray="87.09274729493148, 5.8"><path class="EdgeBody" d="m340 152 29.75 88"   marker-end="url(#b)" /></g><g class="Burr Anchor" transform="translate(354.58 195.13)" ><use class="Icon" width="0" height="0" fill="#141414" stroke-width="0" xlink:href="#c"/></g></g><g id="u" class="Interaction" color="#000" ><g color="#000" fill="transparent"  filter="url(#a)" stroke="#000" stroke-dasharray="40.20271731104588, 5.8"><path class="EdgeBody" d="m151 533 0.5 46"   marker-end="url(#b)" /></g></g><g id="v" class="Interaction" color="#000" ><g color="#000" fill="transparent"  filter="url(#a)" stroke="#000" stroke-dasharray="100.01233387464809, 5.8"><path class="EdgeBody" d="m151.5 599 99.5 36"   marker-end="url(#b)" /></g></g><g id="w" class="Interaction" color="#000" ><g color="#000" fill="transparent"  filter="url(#a)" stroke="#000" stroke-dasharray="96.2, 5.8"><path class="EdgeBody" d="m360 142h102"   marker-end="url(#b)" /></g><g class="Burr Anchor" transform="translate(408.96 142)" ><use class="Icon" width="0" height="0" fill="#141414" stroke-width="0" xlink:href="#c"/></g></g><g id="x" class="Interaction" color="#000" ><g color="#000" fill="transparent"  filter="url(#a)" stroke="#000" stroke-dasharray="46.008083637322876, 11"><path class="EdgeBody" d="m408 85 0.96 57"   marker-end="url(#d)" /></g></g><g id="y" class="Interaction" color="#000" ><g color="#000" fill="transparent"  filter="url(#a)" stroke="#000" stroke-dasharray="99.27883944924402, 5.8"><path class="EdgeBody" d="m369.75 260-79.25 69"   marker-end="url(#b)" /></g><g class="Burr Anchor" transform="translate(314.05 308.5)" ><use class="Icon" width="0" height="0" fill="#141414" stroke-width="0" xlink:href="#c"/></g></g><g id="z" class="Interaction" color="#000" ><g color="#000" fill="transparent"  filter="url(#a)" stroke="#000" stroke-dasharray="5.78, 3.47, 5.78, 3.47, 5.78, 3.47, 5.78, 3.47, 5.78, 3.47, 5.78, 3.47, 0, 11"><path class="EdgeBody" d="m251 308 63.05 0.49587"   marker-end="url(#d)" /></g></g><g id="aa" class="Interaction" color="#000" ><g color="#000" fill="transparent"  filter="url(#a)" stroke="#000" stroke-dasharray="16.432136656208204, 11"><path class="EdgeBody" d="m239 483-27.431 0.21863"   marker-end="url(#d)" /></g></g><g id="ab" class="Interaction" color="#000" ><g color="#000" fill="transparent"  filter="url(#a)" stroke="#000" stroke-dasharray="16.966204155064222, 11"><path class="EdgeBody" d="m343 483 27.959 0.6552"   marker-end="url(#d)" /></g></g><g id="ac" class="Interaction" color="#000" ><g color="#000" fill="transparent"  filter="url(#a)" stroke="#000" stroke-dasharray="19.420150160680585, 11"><path class="EdgeBody" d="m385 195-30.42 0.12774"   marker-end="url(#d)" /></g></g><g id="ad" class="Interaction" color="#000" ><g color="#000" fill="transparent"  filter="url(#a)" stroke="#000" stroke-dasharray="12, 11"><path class="EdgeBody" d="m577 227v23"   marker-end="url(#d)" /></g></g><g class="Label" transform="translate(262,271)" color="#000"  name="nonenzymatic"><use class="Icon" width="80" height="20" fill="transparent"  stroke="#000" stroke-width="0" xlink:href="#c"/><text class="Text" transform="translate(40,13)"   font-size="10px"  text-anchor="middle"><tspan x="0" y="0">nonenzymatic</tspan></text></g><g class="Label" transform="translate(208,358)" color="#000"  name="nonenzymatic (pH-dependent)"><use class="Icon" width="80" height="28" fill="transparent"  stroke="#000" stroke-width="0" xlink:href="#c"/><text class="Text" transform="translate(40,17)"   font-size="10px"  text-anchor="middle"><tspan x="0" y="-5.5">nonenzymatic</tspan> <tspan x="0" y="5.5">(pH-dependent)</tspan></text></g><g class="Label" transform="translate(366,311)" color="#000"  name="DNA adducts"><use class="Icon" width="80" height="20" fill="transparent"  stroke="#000" stroke-width="0" xlink:href="#c"/><text class="Text" transform="translate(40,13)"   font-size="10px"  text-anchor="middle"><tspan x="0" y="0">DNA adducts</tspan></text></g><g class="Metabolite" transform="translate(355,579)" color="#00f"  name="Aflatoxin B1 C8-monoalcohol"><rect class="Icon" transform="matrix(.99342 0 0 .95238 .49671 .47619)" width="151" height="20" fill="#fff" stroke="#00f"/><text class="Text" transform="translate(75.5,13)" fill="#00f"  font-size="10px"  text-anchor="middle"><tspan x="0" y="0">Aflatoxin B1 C8-monoalcohol</tspan></text></g><g class="Metabolite" transform="translate(151,240)" color="#00f"  name="Aflatoxin-endo-B1-8,9-epoxide"><rect class="Icon" transform="matrix(.99363 0 0 .95238 .49682 .47619)" width="156" height="20" fill="#fff" stroke="#00f"/><text class="Text" transform="translate(78,13)" fill="#00f"  font-size="10px"  text-anchor="middle"><tspan x="0" y="0">Aflatoxin-endo-B1-8,9-epoxide</tspan></text></g><a class="PubChem-compound_5460816 Metabolite " transform="translate(638,240)" color="#00f"  name="Aflatoxin B1 exo-8,9-epoxide-GSH"  ><rect class="Icon" transform="matrix(.99438 0 0 .95238 .49719 .47619)" width="177" height="20" fill="#fff" stroke="#00f"/><text class="Text" transform="translate(88.5,13)" fill="#00f"  font-size="10px"  text-anchor="middle"><tspan x="0" y="0">Aflatoxin B1 exo-8,9-epoxide-GSH</tspan></text></a><a  class="GeneProduct P594_ENSMUSG00000038776 " transform="translate(171,298)"   name="Ephx1"  ><rect class="Icon" transform="matrix(.98765 0 0 .95238 .49383 .47619)" width="80" height="20" fill="#fff" stroke="#000"/><text class="Text" transform="translate(40,13)"   font-size="10px"  text-anchor="middle"><tspan x="0" y="0">Ephx1</tspan></text></a><a  class="GeneProduct P594_ENSMUSG00000032310 " transform="translate(368,65)"   name="Cyp1a2"  ><rect class="Icon" transform="matrix(.98765 0 0 .95238 .49383 .47619)" width="80" height="20" fill="#fff" stroke="#000"/><text class="Text" transform="translate(40,13)"   font-size="10px"  text-anchor="middle"><tspan x="0" y="0">Cyp1a2</tspan></text></a><g class="Metabolite" transform="translate(217,635)" color="#00f"  name="Aflatoxin B1-6,8-dialcohol"><rect class="Icon" transform="matrix(.9927 0 0 .95238 .49635 .47619)" width="136" height="20" fill="#fff" stroke="#00f"/><text class="Text" transform="translate(68,13)" fill="#00f"  font-size="10px"  text-anchor="middle"><tspan x="0" y="0">Aflatoxin B1-6,8-dialcohol</tspan></text></g><g class="Metabolite" transform="translate(218,329)" color="#00f"  name="Aflatoxin B1 8,9-dihydrodiol"><rect class="Icon" transform="matrix(.99315 0 0 .95238 .49658 .47619)" width="145" height="20" fill="#fff" stroke="#00f"/><text class="Text" transform="translate(72.5,13)" fill="#00f"  font-size="10px"  text-anchor="middle"><tspan x="0" y="0">Aflatoxin B1 8,9-dihydrodiol</tspan></text></g><g class="Metabolite" transform="translate(224,399)" color="#00f"  name="Aflatoxin B1 dialdehyde"><rect class="Icon" transform="matrix(.99248 0 0 .95238 .49624 .47619)" width="132" height="20" fill="#fff" stroke="#00f"/><text class="Text" transform="translate(66,13)" fill="#00f"  font-size="10px"  text-anchor="middle"><tspan x="0" y="0">Aflatoxin B1 dialdehyde</tspan></text></g><a  class="GeneProduct P594_ENSMUSG00000032310 " transform="translate(110,184)"   name="Cyp1a2"  ><rect class="Icon" transform="matrix(.98765 0 0 .95238 .49383 .47619)" width="80" height="20" fill="#fff" stroke="#000"/><text class="Text" transform="translate(40,13)"   font-size="10px"  text-anchor="middle"><tspan x="0" y="0">Cyp1a2</tspan></text></a><a class="Metabolite ChEBI_CHEBI_2504  " transform="translate(280,132)" color="#00f"  name="aflatoxin B1"  ><rect class="Icon" transform="matrix(.98765 0 0 .95238 .49383 .47619)" width="80" height="20" fill="#fff" stroke="#00f"/><text class="Text" transform="translate(40,13)" fill="#00f"  font-size="10px"  text-anchor="middle"><tspan x="0" y="0">aflatoxin B1</tspan></text></a><a class="Metabolite ChEBI_CHEBI_30725  " transform="translate(333,240)" color="#00f"  name="Aflatoxin B1 exo-8,9-epoxide"  ><rect class="Icon" transform="matrix(.99324 0 0 .95238 .49662 .47619)" width="147" height="20" fill="#fff" stroke="#00f"/><text class="Text" transform="translate(73.5,13)" fill="#00f"  font-size="10px"  text-anchor="middle"><tspan x="0" y="0">Aflatoxin B1 exo-8,9-epoxide</tspan></text></a><a class="PubChem-compound_15558498 Metabolite ChEBI_CHEBI_78576  " transform="translate(462,132)" color="#00f"  name="Aflatoxin M1"  ><rect class="Icon" transform="matrix(.98765 0 0 .95238 .49383 .47619)" width="80" height="20" fill="#fff" stroke="#00f"/><text class="Text" transform="translate(40,13)" fill="#00f"  font-size="10px"  text-anchor="middle"><tspan x="0" y="0">Aflatoxin M1</tspan></text></a><g class="Metabolite" transform="translate(351,510)" color="#00f"  name="Aflatoxin B1 C8-monoaldehyde"><rect class="Icon" transform="matrix(.99371 0 0 .95238 .49686 .47619)" width="158" height="20" fill="#fff" stroke="#00f"/><text class="Text" transform="translate(79,13)" fill="#00f"  font-size="10px"  text-anchor="middle"><tspan x="0" y="0">Aflatoxin B1 C8-monoaldehyde</tspan></text></g><g class="Metabolite" transform="translate(606,132)" color="#00f"  name="Aflatoxin M1 epoxide"><rect class="Icon" transform="matrix(.99138 0 0 .95238 .49569 .47619)" width="115" height="20" fill="#fff" stroke="#00f"/><text class="Text" transform="translate(57.5,13)" fill="#00f"  font-size="10px"  text-anchor="middle"><tspan x="0" y="0">Aflatoxin M1 epoxide</tspan></text></g><g class="GeneProduct" transform="translate(532,68)" color="#000"  name="CYP2A13"><rect class="Icon" transform="matrix(.98765 0 0 .95238 .49383 .47619)" width="80" height="20" fill="#fff" stroke="#000"/><text class="Text" transform="translate(40,13)"   font-size="10px"  text-anchor="middle"><tspan x="0" y="0">CYP2A13</tspan></text></g><g class="Metabolite" transform="translate(76,579)" color="#00f"  name="Aflatoxin B1 C6-monoalcohol"><rect class="Icon" transform="matrix(.99342 0 0 .95238 .49671 .47619)" width="151" height="20" fill="#fff" stroke="#00f"/><text class="Text" transform="translate(75.5,13)" fill="#00f"  font-size="10px"  text-anchor="middle"><tspan x="0" y="0">Aflatoxin B1 C6-monoalcohol</tspan></text></g><a class="PubChem-compound_104757 Metabolite ChEBI_CHEBI_78582  " transform="translate(117,132)" color="#00f"  name="Aflatoxin Q1"  ><rect class="Icon" transform="matrix(.98765 0 0 .95238 .49383 .47619)" width="80" height="20" fill="#fff" stroke="#00f"/><text class="Text" transform="translate(40,13)" fill="#00f"  font-size="10px"  text-anchor="middle"><tspan x="0" y="0">Aflatoxin Q1</tspan></text></a><g class="GeneProduct" transform="translate(199,62)" color="#000"  name="CYP3A4"><rect class="Icon" transform="matrix(.98765 0 0 .95238 .49383 .47619)" width="80" height="20" fill="#fff" stroke="#000"/><text class="Text" transform="translate(40,13)"   font-size="10px"  text-anchor="middle"><tspan x="0" y="0">CYP3A4</tspan></text></g><g class="Metabolite" transform="translate(72,513)" color="#00f"  name="Aflatoxin B1 C6-monoaldehyde"><rect class="Icon" transform="matrix(.99371 0 0 .95238 .49686 .47619)" width="158" height="20" fill="#fff" stroke="#00f"/><text class="Text" transform="translate(79,13)" fill="#00f"  font-size="10px"  text-anchor="middle"><tspan x="0" y="0">Aflatoxin B1 C6-monoaldehyde</tspan></text></g><g class="GroupComplex" transform="translate(239,451)" color="grey" ><use class="Icon" transform="matrix(.99048 0 0 .98462 .49524 .49231)" width="104" height="64" fill="#b4b464" fill-opacity=".1" stroke="grey" xlink:href="#e"/><a  class="GeneProduct P594_ENSMUSG00000028743 " transform="translate(12,12)"   name="Akr7a5"  ><rect class="Icon" transform="matrix(.98765 0 0 .95238 .49383 .47619)" width="80" height="20" fill="#fff" stroke="#000"/><text class="Text" transform="translate(40,13)"   font-size="10px"  text-anchor="middle"><tspan x="0" y="0">Akr7a5</tspan></text></a><g class="GeneProduct" transform="translate(12,32)" color="#000"  name="AKR7A3"><rect class="Icon" transform="matrix(.98765 0 0 .95238 .49383 .47619)" width="80" height="20" fill="#fff" stroke="#000"/><text class="Text" transform="translate(40,13)"   font-size="10px"  text-anchor="middle"><tspan x="0" y="0">AKR7A3</tspan></text></g></g><g class="GroupComplex" transform="translate(385,153)" color="grey" ><use class="Icon" transform="matrix(.99048 0 0 .98824 .49524 .49412)" width="104" height="84" fill="#b4b464" fill-opacity=".1" stroke="grey" xlink:href="#e"/><a  class="GeneProduct P594_ENSMUSG00000032310 " transform="translate(12,12)"   name="Cyp1a2"  ><rect class="Icon" transform="matrix(.98765 0 0 .95238 .49383 .47619)" width="80" height="20" fill="#fff" stroke="#000"/><text class="Text" transform="translate(40,13)"   font-size="10px"  text-anchor="middle"><tspan x="0" y="0">Cyp1a2</tspan></text></a><g class="GeneProduct" transform="translate(12,52)" color="#000"  name="CYP2A13"><rect class="Icon" transform="matrix(.98765 0 0 .95238 .49383 .47619)" width="80" height="20" fill="#fff" stroke="#000"/><text class="Text" transform="translate(40,13)"   font-size="10px"  text-anchor="middle"><tspan x="0" y="0">CYP2A13</tspan></text></g><g class="GeneProduct" transform="translate(12,32)" color="#000"  name="CYP3A4"><rect class="Icon" transform="matrix(.98765 0 0 .95238 .49383 .47619)" width="80" height="20" fill="#fff" stroke="#000"/><text class="Text" transform="translate(40,13)"   font-size="10px"  text-anchor="middle"><tspan x="0" y="0">CYP3A4</tspan></text></g></g><g class="GroupComplex" transform="translate(525,163)" color="grey" ><use class="Icon" transform="matrix(.99048 0 0 .98462 .49524 .49231)" width="104" height="64" fill="#b4b464" fill-opacity=".1" stroke="grey" xlink:href="#e"/><a  class="GeneProduct P594_ENSMUSG00000001663 " transform="translate(12,12)"   name="Gstt1"  ><rect class="Icon" transform="matrix(.98765 0 0 .95238 .49383 .47619)" width="80" height="20" fill="#fff" stroke="#000"/><text class="Text" transform="translate(40,13)"   font-size="10px"  text-anchor="middle"><tspan x="0" y="0">Gstt1</tspan></text></a><a  class="GeneProduct P594_ENSMUSG00000058135 " transform="translate(12,32)"   name="Gstm1"  ><rect class="Icon" transform="matrix(.98765 0 0 .95238 .49383 .47619)" width="80" height="20" fill="#fff" stroke="#000"/><text class="Text" transform="translate(40,13)"   font-size="10px"  text-anchor="middle"><tspan x="0" y="0">Gstm1</tspan></text></a></g><text class="Text" transform="translate(5,36)" dominant-baseline="central" fill="black"  font-size="12px" font-weight="bold" overflow="visible" ><tspan x="0" y="-18">Name: Aflatoxin B1 metabolism</tspan> <tspan x="0" y="0">Last Modified: 2/21/2013</tspan> <tspan x="0" y="18">Organism: Mus musculus</tspan></text></g></svg>
