<?xml version="1.0" encoding="UTF-8"?>
<!--
  WikiPathways page: https://www.wikipathways.org/index.php/Pathway:WP1596
  URL for this compressed file: https://github.com/eweitz/cachome/tree/main/data/wikipathways/WP1596.svg
  Source code for compression: https://github.com/eweitz/cachome/tree/main/src/wikipathways.py
-->
<svg class="Diagram" width="800" height="600" color="black" baseProfile="full" prefix="schema:http://schema.org/" preserveAspectRatio="xMidYMid" version="1.1" viewBox="0 0 678 561" vocab="http://vocabularies.wikipathways.org/wp#" xmlns="http://www.w3.org/2000/svg" xmlns:xlink="http://www.w3.org/1999/xlink"><style>svg {font-family: 'Liberation Sans', Arial, sans-serif; }</style><defs><filter id="i" x="-50%" y="-50%" width="200%" height="200%"><feComposite in="SourceGraphic" in2="SourceGraphic" result="doubleDark"/><feMorphology in="doubleDark" operator="dilate" radius="0.16666666666666666" result="in2Double"/><feMorphology in="SourceGraphic" operator="dilate" radius="3" result="inDouble"/><feComposite in="inDouble" in2="in2Double" operator="out" result="doubleResult"/></filter><filter id="a" x="0" y="0" width="678" height="561" filterUnits="userSpaceOnUse"><feColorMatrix in="SourceGraphic" values="-1   0   0 0 0                   0  -1   0 0 0                   0   0  -1 0 0                   0   0   0 1 0"/></filter><marker id="b" stroke-dasharray="99999" markerHeight="12" markerUnits="userSpaceOnUse" markerWidth="12" orient="auto" preserveAspectRatio="none" refX="12" refY="6" viewBox="0 0 12 12"><path transform="rotate(180 6 6)" d="M12 11L0 6l12-5z" fill="currentColor" stroke-width="0"/></marker><marker id="d" stroke-dasharray="99999" markerHeight="12" markerUnits="userSpaceOnUse" markerWidth="12" orient="auto" preserveAspectRatio="none" refY="6" viewBox="0 0 12 12"><path d="M12 12L0 6l12-6-7 6z" fill="currentColor" stroke-width="0"/></marker><marker id="f" stroke-dasharray="99999" markerHeight="12" markerUnits="userSpaceOnUse" markerWidth="12" orient="auto" preserveAspectRatio="none" refX="12" refY="6" viewBox="0 0 12 12"><path transform="rotate(180 6 6)" d="M12 12L0 6l12-6-7 6z" fill="currentColor" stroke-width="0"/></marker><marker id="e" stroke-dasharray="99999" markerHeight="12" markerUnits="userSpaceOnUse" markerWidth="12" orient="auto" preserveAspectRatio="none" refX="12" refY="6" viewBox="0 0 12 12"><g transform="rotate(180 6 6)" fill="none"><path d="m12 6"/><path d="M0 6l11 5V1z" stroke="#000"/></g></marker><marker id="h" stroke-dasharray="99999" markerHeight="20" markerUnits="userSpaceOnUse" markerWidth="10" orient="auto" preserveAspectRatio="none" refX="10" refY="10" viewBox="0 0 10 20"><path d="m3 0v20" fill="currentColor" stroke="currentColor"/></marker><symbol id="g" overflow="visible" preserveAspectRatio="none" viewBox="0 0 50 50"><ellipse cx="25" cy="25" rx="25" ry="25" stroke="currentColor" vector-effect="non-scaling-stroke"/></symbol><symbol id="j" overflow="visible" preserveAspectRatio="none" viewBox="0 0 100 100"><path d="M0 25L25 0h50l25 25v50l-25 25H25L0 75z" stroke="currentColor" vector-effect="non-scaling-stroke"/></symbol><symbol id="c" preserveAspectRatio="none" viewBox="0 0 100 100"/></defs><g class="Viewport" color="black"  name="Name: Iron homeostasis License: CC BY 2.0 Last Modified: 10/17/2013 Organism: Mus musculus"><rect class="Icon" width="678" height="561" fill="#fff" stroke="#000" stroke-width="0"/><g id="k" class="DirectedInteraction" color="#000" ><g color="#000" fill="transparent"  filter="url(#a)" stroke="#000" stroke-dasharray="33.90201506221058, 5.8"><path class="EdgeBody" d="m447 407-39.5-4"   marker-end="url(#b)" /></g></g><g id="l" class="DirectedInteraction" color="#000" ><g color="#000" fill="transparent"  filter="url(#a)" stroke="#000" stroke-dasharray="203.18385105074506, 5.8"><path class="EdgeBody" d="M322.5,372L117,334"   marker-end="url(#b)" /></g></g><g id="m" class="DirectedInteraction" color="#000" ><g color="#000" fill="transparent"  filter="url(#a)" stroke="#000" stroke-dasharray="152.52640335711538, 5.8"><path class="EdgeBody" d="M322.5,496L180,427"   marker-end="url(#b)" /></g></g><g id="n" class="DirectedInteraction" color="#000" ><g color="#000" fill="transparent"  filter="url(#a)" stroke="#000" stroke-dasharray="101.2, 5.8"><path class="EdgeBody" d="m318 311h-39v-25h-43"   marker-end="url(#b)" /></g></g><g id="o" class="DirectedInteraction" color="#000" ><g color="#000" fill="transparent"  filter="url(#a)" stroke="#000" stroke-dasharray="81.86413177577246, 5.8"><path class="EdgeBody" d="m196 296-79 38"   marker-end="url(#b)" /></g></g><g id="p" class="DirectedInteraction" color="#000" ><g color="#000" fill="transparent"  filter="url(#a)" stroke="#000" stroke-dasharray="76.01315538608209, 5.8"><path class="EdgeBody" d="m316.81 285h-37.813v1h-43"   marker-end="url(#b)" /></g></g><g id="q" class="DirectedInteraction" color="#000" ><g color="#000" fill="transparent"  filter="url(#a)" stroke="#000" stroke-dasharray="36.92001872658766, 5.8"><path class="EdgeBody" d="m568 379-41-12"   marker-end="url(#b)" /></g></g><g id="r" class="Inhibition" color="#000" ><g color="#000" fill="transparent"  filter="url(#a)" stroke="#000" stroke-dasharray="214.4544253339725, 7"><path class="EdgeBody" d="m515 321-138.25-173"   marker-end="url(#h)" /></g></g><g id="s" class="DirectedInteraction" color="#000" ><g color="#000" fill="transparent"  filter="url(#a)" stroke="#000" stroke-dasharray="94.62410069301094, 5.8"><path class="EdgeBody" d="m194 370-97-26"   marker-end="url(#b)" /></g></g><g id="t" class="DirectedInteraction" color="#000" ><g color="#000" fill="transparent"  filter="url(#a)" stroke="#000" stroke-dasharray="43.84876634922564, 5.8"><path class="EdgeBody" d="m568 379-41 28"   marker-end="url(#b)" /></g></g><g id="u" class="DirectedInteraction" color="#000" ><g color="#000" fill="transparent"  filter="url(#a)" stroke="#000" stroke-dasharray="240.2, 5.8"><path class="EdgeBody" d="m261 218v-23h203v20"   marker-end="url(#b)" /></g><g class="Burr Anchor" transform="translate(426.6 195)" ><use class="Icon" width="0" height="0" fill="#141414" stroke-width="0" xlink:href="#c"/></g></g><g id="v" class="Interaction" color="#000" ><g color="#000" fill="transparent"  filter="url(#a)" stroke="#000" stroke-dasharray="54.79513659838392, 11"><path class="EdgeBody" d="m398 138 27 60"   marker-end="url(#e)" /></g></g><g id="w" class="DirectedInteraction" color="#000" ><g color="#000" fill="transparent"  filter="url(#a)" stroke="#000" stroke-dasharray="43.80090724976712, 5.8"><path class="EdgeBody" d="m447 466-39.5 30"   marker-end="url(#b)" /></g></g><g id="x" class="DirectedInteraction" color="#000" ><g color="#000" fill="transparent"  filter="url(#a)" stroke="#000" stroke-dasharray="40.94665763453041, 5.8"><path class="EdgeBody" d="m447 521-39.5-25"   marker-end="url(#b)" /></g></g><g id="y" class="DirectedInteraction" color="#000" ><g color="#000" fill="transparent"  filter="url(#a)" stroke="#000" stroke-dasharray="15.833307652783937, 5.8"><path class="EdgeBody" d="m246 408-12-18"   marker-end="url(#b)" /></g></g><g id="z" class="DirectedInteraction" color="#000" ><g color="#000" fill="transparent"  filter="url(#a)" stroke="#000" stroke-dasharray="240.2, 5.8"><path class="EdgeBody" d="m464 235v23h-203v-20"   marker-end="url(#b)" /></g><g class="Burr Anchor" transform="translate(424.48 258)" ><use class="Icon" width="0" height="0" fill="#141414" stroke-width="0" xlink:href="#c"/></g></g><g id="aa" class="DirectedInteraction" color="#000" ><g color="#000" fill="transparent"  filter="url(#a)" stroke="#000" stroke-dasharray="16.4991031209778, 5.8"><path class="EdgeBody" d="m322.5 403-16.5 15"   marker-end="url(#b)" /></g></g><g id="ab" class="Interaction" color="#000" ><g color="#000" fill="transparent"  filter="url(#a)" stroke="#000" stroke-dasharray="0, 1, 47.01020301937138, 1"><path class="EdgeBody" d="m485 166-1 49"   marker-end="url(#f)" marker-start="url(#d)" /></g><g class="Burr Anchor" transform="translate(480.56 183.64)" ><use class="Icon" width="8" height="8" fill="#141414" stroke-width="0" xlink:href="#g"/></g></g><g id="ac" class="DirectedInteraction" color="#000" ><g color="#000" fill="transparent"  filter="url(#a)" stroke="#000" stroke-dasharray="34.01519810323691, 5.8"><path class="EdgeBody" d="m447 367-39.5 5"   marker-end="url(#b)" /></g></g><g id="ad" class="DirectedInteraction" color="#000" ><g color="#000" fill="transparent"  filter="url(#a)" stroke="#000" stroke-dasharray="372.2119045744459, 5.8"><path class="EdgeBody" d="m117 334 378-3"   marker-end="url(#b)" /></g></g><g id="ae" class="DirectedInteraction" color="#000" ><g color="#000" fill="transparent"  filter="url(#a)" stroke="#000" stroke-dasharray="90.62613753542138, 5.8"><path class="EdgeBody" d="m140 417-63-73"   marker-end="url(#b)" /></g></g><g id="af" class="Interaction" color="#000" ><g color="#000" fill="transparent"  filter="url(#a)" stroke="#000" stroke-dasharray="25.727134174807354, 11"><path class="EdgeBody" d="m401.81 285 21.187-30"   marker-end="url(#e)" /></g><g class="Burr Anchor" transform="translate(417.89 262.24)" ><use class="Icon" width="0" height="0" fill="#141414" stroke-width="0" xlink:href="#c"/></g></g><g id="ag" class="Interaction" color="#000" ><g color="#000" fill="transparent"  filter="url(#a)" stroke="#000" stroke-dasharray="50.985349026427095, 0"><path class="EdgeBody" d="m403 311 14.889-48.763"   /></g></g><g id="ah" class="DirectedInteraction" color="#000" ><g color="#000" fill="transparent"  filter="url(#a)" stroke="#000" stroke-dasharray="63.77010852370435, 5.8"><path class="EdgeBody" d="m119 130 66-22"   marker-end="url(#b)" /></g></g><g id="ai" class="Interaction" color="#000" ><g color="#000" fill="transparent"  filter="url(#a)" stroke="#000" stroke-dasharray="0, 1, 76.10249675906654, 1"><path class="EdgeBody" d="m237 140 4 78"   marker-end="url(#f)" marker-start="url(#d)" /></g><g class="Burr Anchor" transform="translate(234.77 170.44)" ><use class="Icon" width="8" height="8" fill="#141414" stroke-width="0" xlink:href="#g"/></g></g><g id="aj" class="DirectedInteraction" color="#000" ><g color="#000" fill="transparent"  filter="url(#a)" stroke="#000" stroke-dasharray="63.1492567037528, 5.8"><path class="EdgeBody" d="m120 85 65 23"   marker-end="url(#b)" /></g></g><g id="ak" class="DirectedInteraction" color="#000" ><g color="#000" fill="transparent"  filter="url(#a)" stroke="#000" stroke-dasharray="81.52124598286491, 5.8"><path class="EdgeBody" d="m135 183 76-43"   marker-end="url(#b)" /></g></g><g id="al" class="DirectedInteraction" color="#000" ><g color="#000" fill="transparent"  filter="url(#a)" stroke="#000" stroke-dasharray="79.20588214941364, 5.8"><path class="EdgeBody" d="m100 109 85-1"   marker-end="url(#b)" /></g></g><g class="SingleFreeNode Shape PhysicalEntity CellularComponent Cell" transform="translate(16.702 57.096)" color="#c0c0c0" ><g fill="transparent"  filter="url(#i)" stroke="#c0c0c0" stroke-width="3"><rect class="Icon" transform="matrix(.96727 0 0 .97464 5.8036 5.8478)" width="354.67" height="461.13" rx="15" ry="15"   /></g></g><g class="Label" transform="translate(287.01 72.052)" color="#f00"  name="Cell"><use class="Icon" width="80" height="20" fill="transparent"  stroke="#f00" stroke-width="0" xlink:href="#c"/><text class="Text" transform="translate(40,13)" fill="#f00"  font-size="10px" font-weight="bold" stroke="black" stroke-width="0" text-anchor="middle"><tspan x="0" y="0">Cell</tspan></text></g><g class="Label" transform="translate(369.23 71.103)" color="#f00"  name="Blood"><use class="Icon" width="80" height="20" fill="transparent"  stroke="#f00" stroke-width="0" xlink:href="#c"/><text class="Text" transform="translate(40,13)" fill="#f00"  font-size="10px" font-weight="bold" stroke="black" stroke-width="0" text-anchor="middle"><tspan x="0" y="0">Blood</tspan></text></g><g class="Label" transform="translate(568,369)" color="#000"  name="Inflammation"><use class="Icon" width="80" height="20" fill="transparent"  stroke="#000" stroke-width="0" xlink:href="#c"/><text class="Text" transform="translate(40,13)"   font-size="10px"  text-anchor="middle"><tspan x="0" y="0">Inflammation</tspan></text></g><g class="Label" transform="translate(20,99)" color="#000"  name="Oxidative Stress"><use class="Icon" width="80" height="20" fill="transparent"  stroke="#000" stroke-width="0" xlink:href="#c"/><text class="Text" transform="translate(40,13)"   font-size="10px"  text-anchor="middle"><tspan x="0" y="0">Oxidative Stress</tspan></text></g><a  class="GeneProduct P594_ENSMUSG00000032554 " transform="translate(445,146)"   name="Transferrin"  ><rect class="Icon" transform="matrix(.98765 0 0 .95238 .49383 .47619)" width="80" height="20" fill="#fff" stroke="#000"/><text class="Text" transform="translate(40,13)"   font-size="10px"  text-anchor="middle"><tspan x="0" y="0">Transferrin</tspan></text></a><a  class="GeneProduct P594_ENSMUSG00000029716 " transform="translate(318,301)"   name="Trfr2"  ><rect class="Icon" transform="matrix(.98837 0 0 .95238 .49419 .47619)" width="85" height="20" fill="#fff" stroke="#000"/><text class="Text" transform="translate(42.5 13)"   font-size="10px"  text-anchor="middle"><tspan x="0" y="0">Trfr2</tspan></text></a><g class="GeneProduct" transform="translate(316.81 274)" color="#000"  name="Trfr1"><rect class="Icon" transform="matrix(.98837 0 0 .95652 .49419 .47826)" width="85" height="22" fill="#fff" stroke="#000"/><text class="Text" transform="translate(42.5,14)"   font-size="10px"  text-anchor="middle"><tspan x="0" y="0">Trfr1</tspan></text></g><a  class="GeneProduct P594_ENSMUSG00000056978 " transform="translate(495,301)"   name="hepcidin-2"  ><rect class="Icon" transform="matrix(.98765 0 0 .95238 .49383 .47619)" width="80" height="20" fill="#fff" stroke="#000"/><text class="Text" transform="translate(40,13)"   font-size="10px"  text-anchor="middle"><tspan x="0" y="0">hepcidin-2</tspan></text></a><a  class="GeneProduct P594_ENSMUSG00000032293 " transform="translate(95,183)"   name="Ireb2"  ><rect class="Icon" transform="matrix(.98765 0 0 .95238 .49383 .47619)" width="80" height="20" fill="#fff" stroke="#000"/><text class="Text" transform="translate(40,13)"   font-size="10px"  text-anchor="middle"><tspan x="0" y="0">Ireb2</tspan></text></a><a  class="GeneProduct P594_ENSMUSG00000050440 " transform="translate(495,321)"   name="hepcidin"  ><rect class="Icon" transform="matrix(.98765 0 0 .95238 .49383 .47619)" width="80" height="20" fill="#fff" stroke="#000"/><text class="Text" transform="translate(40,13)"   font-size="10px"  text-anchor="middle"><tspan x="0" y="0">hepcidin</tspan></text></a><g class="GeneProduct" transform="translate(174,370)" color="#000"  name="STAT3"><rect class="Icon" transform="matrix(.98765 0 0 .95238 .49383 .47619)" width="80" height="20" fill="#fff" stroke="#000"/><text class="Text" transform="translate(40,13)"   font-size="10px"  text-anchor="middle"><tspan x="0" y="0">STAT3</tspan></text></g><g class="GeneProduct" transform="translate(322.5,362)" color="#000"  name="IL1R"><rect class="Icon" transform="matrix(.98837 0 0 .95238 .49419 .47619)" width="85" height="20" fill="#fff" stroke="#000"/><text class="Text" transform="translate(42.5 13)"   font-size="10px"  text-anchor="middle"><tspan x="0" y="0">IL1R</tspan></text></g><a  class="GeneProduct P594_ENSMUSG00000024401 " transform="translate(39,120)"   name="Tnf"  ><rect class="Icon" transform="matrix(.98765 0 0 .95238 .49383 .47619)" width="80" height="20" fill="#fff" stroke="#000"/><text class="Text" transform="translate(40,13)"   font-size="10px"  text-anchor="middle"><tspan x="0" y="0">Tnf</tspan></text></a><g class="GeneProduct" transform="translate(226,408)" color="#000"  name="JAK1/2"><rect class="Icon" transform="matrix(.98765 0 0 .95238 .49383 .47619)" width="80" height="20" fill="#fff" stroke="#000"/><text class="Text" transform="translate(40,13)"   font-size="10px"  text-anchor="middle"><tspan x="0" y="0">JAK1/2</tspan></text></g><g class="GeneProduct" transform="translate(100,417)" color="#000"  name="SMAD-1/5/8"><rect class="Icon" transform="matrix(.98765 0 0 .95238 .49383 .47619)" width="80" height="20" fill="#fff" stroke="#000"/><text class="Text" transform="translate(40,13)"   font-size="10px"  text-anchor="middle"><tspan x="0" y="0">SMAD-1/5/8</tspan></text></g><a  class="GeneProduct P594_ENSMUSG00000025746 " transform="translate(447,397)"   name="IL-6"  ><rect class="Icon" transform="matrix(.98765 0 0 .95238 .49383 .47619)" width="80" height="20" fill="#fff" stroke="#000"/><text class="Text" transform="translate(40,13)"   font-size="10px"  text-anchor="middle"><tspan x="0" y="0">IL-6</tspan></text></a><a  class="Metabolite ChEBI_CHEBI_29033  " transform="translate(201,218)"   name="Iron"  ><rect class="Icon" transform="matrix(.98765 0 0 .95238 .49383 .47619)" width="80" height="20" fill="#fff" stroke="#000"/><text class="Text" transform="translate(40,13)"   font-size="10px"  text-anchor="middle"><tspan x="0" y="0">Iron</tspan></text></a><g class="GeneProduct" transform="translate(322.5,486)" color="#000"  name="BMPR-1"><rect class="Icon" transform="matrix(.98837 0 0 .95238 .49419 .47619)" width="85" height="20" fill="#fff" stroke="#000"/><text class="Text" transform="translate(42.5 13)"   font-size="10px"  text-anchor="middle"><tspan x="0" y="0">BMPR-1</tspan></text></g><a  class="GeneProduct P594_ENSMUSG00000038403 " transform="translate(447 511)"   name="hemojuvelin"  ><rect class="Icon" transform="matrix(.98765 0 0 .95238 .49383 .47619)" width="80" height="20" fill="#fff" stroke="#000"/><text class="Text" transform="translate(40,13)"   font-size="10px"  text-anchor="middle"><tspan x="0" y="0">hemojuvelin</tspan></text></a><a  class="Metabolite ChEBI_CHEBI_29033  " transform="translate(444,215)"   name="Iron"  ><rect class="Icon" transform="matrix(.98765 0 0 .95238 .49383 .47619)" width="80" height="20" fill="#fff" stroke="#000"/><text class="Text" transform="translate(40,13)"   font-size="10px"  text-anchor="middle"><tspan x="0" y="0">Iron</tspan></text></a><g class="GeneProduct" transform="translate(447 456)" color="#000"  name="BMP1/2/4/9"><rect class="Icon" transform="matrix(.98765 0 0 .95238 .49383 .47619)" width="80" height="20" fill="#fff" stroke="#000"/><text class="Text" transform="translate(40,13)"   font-size="10px"  text-anchor="middle"><tspan x="0" y="0">BMP1/2/4/9</tspan></text></g><g class="GeneProduct" transform="translate(40,75)" color="#000"  name="cMyc"><rect class="Icon" transform="matrix(.98765 0 0 .95238 .49383 .47619)" width="80" height="20" fill="#fff" stroke="#000"/><text class="Text" transform="translate(40,13)"   font-size="10px"  text-anchor="middle"><tspan x="0" y="0">cMyc</tspan></text></g><a  class="GeneProduct P594_ENSMUSG00000006611 " transform="translate(156,276)"   name="Hfe"  ><rect class="Icon" transform="matrix(.98765 0 0 .95238 .49383 .47619)" width="80" height="20" fill="#fff" stroke="#000"/><text class="Text" transform="translate(40,13)"   font-size="10px"  text-anchor="middle"><tspan x="0" y="0">Hfe</tspan></text></a><a  class="GeneProduct P594_ENSMUSG00000027947 " transform="translate(322.5 393)"   name="IL6R"  ><rect class="Icon" transform="matrix(.98837 0 0 .95238 .49419 .47619)" width="85" height="20" fill="#fff" stroke="#000"/><text class="Text" transform="translate(42.5 13)"   font-size="10px"  text-anchor="middle"><tspan x="0" y="0">IL6R</tspan></text></a><a  class="GeneProduct P594_ENSMUSG00000056978 " transform="translate(37,304)"   name="hepcidin-2"  ><rect class="Icon" transform="matrix(.98765 0 0 .95238 .49383 .47619)" width="80" height="20" fill="#fff" stroke="#000"/><text class="Text" transform="translate(40,13)"   font-size="10px"  text-anchor="middle"><tspan x="0" y="0">hepcidin-2</tspan></text></a><a  class="GeneProduct P594_ENSMUSG00000050440 " transform="translate(37,324)"   name="hepcidin"  ><rect class="Icon" transform="matrix(.98765 0 0 .95238 .49383 .47619)" width="80" height="20" fill="#fff" stroke="#000"/><text class="Text" transform="translate(40,13)"   font-size="10px"  text-anchor="middle"><tspan x="0" y="0">hepcidin</tspan></text></a><a  class="GeneProduct P594_ENSMUSG00000025993 " transform="translate(313,128)"   name="Ferroportin"  ><rect class="Icon" transform="matrix(.98837 0 0 .95238 .49419 .47619)" width="85" height="20" fill="#fff" stroke="#000"/><text class="Text" transform="translate(42.5 13)"   font-size="10px"  text-anchor="middle"><tspan x="0" y="0">Ferroportin</tspan></text></a><a  class="GeneProduct P594_ENSMUSG00000027399 " transform="translate(447,357)"   name="IL-1"  ><rect class="Icon" transform="matrix(.98765 0 0 .95238 .49383 .47619)" width="80" height="20" fill="#fff" stroke="#000"/><text class="Text" transform="translate(40,13)"   font-size="10px"  text-anchor="middle"><tspan x="0" y="0">IL-1</tspan></text></a><g class="GroupComplex" transform="translate(185,76)" color="grey" ><use class="Icon" transform="matrix(.99048 0 0 .98462 .49524 .49231)" width="104" height="64" fill="#b4b464" fill-opacity=".1" stroke="grey" xlink:href="#j"/><a  class="GeneProduct P594_ENSMUSG00000024661 " transform="translate(12,32)"   name="Fth1"  ><rect class="Icon" transform="matrix(.98765 0 0 .95238 .49383 .47619)" width="80" height="20" fill="#fff" stroke="#000"/><text class="Text" transform="translate(40,13)"   font-size="10px"  text-anchor="middle"><tspan x="0" y="0">Fth1</tspan></text></a><a  class="GeneProduct P594_ENSMUSG00000050708 " transform="translate(12,12)"   name="Ftl1"  ><rect class="Icon" transform="matrix(.98765 0 0 .95238 .49383 .47619)" width="80" height="20" fill="#fff" stroke="#000"/><text class="Text" transform="translate(40,13)"   font-size="10px"  text-anchor="middle"><tspan x="0" y="0">Ftl1</tspan></text></a></g><text class="Text" transform="translate(5,45)" dominant-baseline="central" fill="black"  font-size="12px" font-weight="bold" overflow="visible" ><tspan x="0" y="-27">Name: Iron homeostasis</tspan> <tspan x="0" y="-9">License: CC BY 2.0</tspan> <tspan x="0" y="9">Last Modified: 10/17/2013</tspan> <tspan x="0" y="27">Organism: Mus musculus</tspan></text></g></svg>
