<?xml version="1.0" encoding="UTF-8"?>
<!--
  WikiPathways page: https://www.wikipathways.org/index.php/Pathway:WP166
  URL for this compressed file: https://github.com/eweitz/cachome/tree/main/data/wikipathways/WP166.svg
  Source code for compression: https://github.com/eweitz/cachome/tree/main/src/wikipathways.py
-->
<svg class="Diagram" width="800" height="600" color="black" baseProfile="full" prefix="schema:http://schema.org/" preserveAspectRatio="xMidYMid" version="1.1" viewBox="0 0 930 678" vocab="http://vocabularies.wikipathways.org/wp#" xmlns="http://www.w3.org/2000/svg" xmlns:xlink="http://www.w3.org/1999/xlink"><style>svg {font-family: 'Liberation Sans', Arial, sans-serif; }</style><defs><filter id="b" x="0" y="0" width="930" height="678" filterUnits="userSpaceOnUse"><feColorMatrix in="SourceGraphic" values="-1   0   0 0 0                   0  -1   0 0 0                   0   0  -1 0 0                   0   0   0 1 0"/></filter><filter id="e" x="0" y="0" width="930" height="678" filterUnits="userSpaceOnUse"><feColorMatrix in="SourceGraphic" values="-1   0   0 0 0                   0  -1   0 0 0                   0   0  -1 0 1                   0   0   0 1 0"/></filter><filter id="d" x="0" y="0" width="930" height="678" filterUnits="userSpaceOnUse"><feColorMatrix in="SourceGraphic" values="-1   0   0 0 1                   0  -1   0 0 0                   0   0  -1 0 0                   0   0   0 1 0"/></filter><filter id="f" x="0" y="0" width="930" height="678" filterUnits="userSpaceOnUse"><feColorMatrix in="SourceGraphic" values="-1   0   0 0 0.6                   0  -1   0 0 0.6                   0   0  -1 0 0.6                   0   0   0 1 0"/></filter><marker id="a" stroke-dasharray="99999" markerHeight="12" markerUnits="userSpaceOnUse" markerWidth="12" orient="auto" preserveAspectRatio="none" refX="12" refY="6" viewBox="0 0 12 12"><path transform="rotate(180 6 6)" d="M12 11L0 6l12-5z" fill="currentColor" stroke-width="0"/></marker><symbol id="h" overflow="visible" preserveAspectRatio="none" viewBox="0 0 100 100"><path d="M1.5 49.5c0-16.167 8.167-24.25 24.5-24.25S50.5 17.167 50.5 1c0 16.167 8.167 24.25 24.5 24.25s24.5 8.083 24.5 24.25" stroke="currentColor" vector-effect="non-scaling-stroke"/></symbol><symbol id="g" overflow="visible" preserveAspectRatio="none" viewBox="0 0 50 50"><ellipse cx="25" cy="25" rx="25" ry="25" stroke="currentColor" vector-effect="non-scaling-stroke"/></symbol><symbol id="c" preserveAspectRatio="none" viewBox="0 0 100 100"/></defs><g class="Viewport" color="black"  name="Name: Apoptosis modulation by HSP70 Organism: Mus musculus"><rect class="Icon" width="930" height="678" fill="#fff" stroke="#000" stroke-width="0"/><g id="i" class="DirectedInteraction" color="#000" ><g color="#000" fill="transparent"  filter="url(#b)" stroke="#000" stroke-dasharray="78.66474187220234, 5.8"><path class="EdgeBody" d="m399.59 250.33-56.261 63"   marker-end="url(#a)" /></g></g><g id="j" class="Edge GraphicalLine" color="#999" ><g color="#999" fill="transparent"  filter="url(#f)" stroke="#000" stroke-dasharray="830.057803468208, 0" stroke-width="2"><path class="EdgeBody" d="m63.584 142.2h830.06"   /></g></g><g id="k" class="DirectedInteraction" color="#000" ><g color="#000" fill="transparent"  filter="url(#b)" stroke="#000" stroke-dasharray="90.53333333333333, 5.8"><path class="EdgeBody" d="m469.67 95.667-3.6198e-7 96.333"   marker-end="url(#a)" /></g></g><g id="l" class="DirectedInteraction" color="#f00" ><g color="#f00" fill="transparent"  filter="url(#d)" stroke="#000" stroke-dasharray="5.1, 3.06, 5.1, 3.06, 5.1, 3.06, 5.1, 3.06, 5.1, 3.06, 5.1, 3.06, 5.1, 3.06, 5.1, 3.06, 5.1, 3.06, 5.1, 3.06, 5.1, 3.06, 5.1, 3.06, 5.1, 3.06, 5.1, 3.06, 5.1, 3.06, 5.1, 3.06, 5.1, 3.06, 0, 5.8"><path class="EdgeBody" d="m426.67 603.33-141.5 2.8333"   marker-end="url(#a)" /></g></g><g id="m" class="DirectedInteraction" color="#000" ><g color="#000" fill="transparent"  filter="url(#b)" stroke="#000" stroke-dasharray="234.86702735430026, 5.8"><path class="EdgeBody" d="m166 347.67 0.41667 240.67"   marker-end="url(#a)" /></g></g><g id="n" class="DirectedInteraction" color="#00f" ><g color="#00f" fill="transparent"  filter="url(#e)" stroke="#000" stroke-dasharray="264.62846661465875, 5.8"><path class="EdgeBody" d="m528.67 603.33 240.67-123.33"   marker-end="url(#a)" /></g></g><g id="o" class="DirectedInteraction" color="#000" ><g color="#000" fill="transparent"  filter="url(#b)" stroke="#000" stroke-dasharray="64.20079364629453, 5.8"><path class="EdgeBody" d="m154 154.33 0.33333 70"   marker-end="url(#a)" /></g></g><g id="p" class="DirectedInteraction" color="#000" ><g color="#000" fill="transparent"  filter="url(#b)" stroke="#000" stroke-dasharray="28.53333333333337, 5.8"><path class="EdgeBody" d="m480 559v34.333"   marker-end="url(#a)" /></g></g><g id="q" class="DirectedInteraction" color="#f00" ><g color="#f00" fill="transparent"  filter="url(#d)" stroke="#000" stroke-dasharray="5.35, 3.21, 5.35, 3.21, 5.35, 3.21, 5.35, 3.21, 5.35, 3.21, 5.35, 3.21, 5.35, 3.21, 5.35, 3.21, 5.35, 3.21, 5.35, 5.8"><path class="EdgeBody" d="m241.67 272 71.667 51.333"   marker-end="url(#a)" /></g></g><g id="r" class="DirectedInteraction" color="#000" ><g color="#000" fill="transparent"  filter="url(#b)" stroke="#000" stroke-dasharray="96.37156051356853, 5.8"><path class="EdgeBody" d="m799.33 490 1 102.17"   marker-end="url(#a)" /></g></g><g id="s" class="DirectedInteraction" color="#000" ><g color="#000" fill="transparent"  filter="url(#b)" stroke="#000" stroke-dasharray="267.2935050490948, 5.8"><path class="EdgeBody" d="m343.33 333.33-97.75 255"   marker-end="url(#a)" /></g></g><g id="t" class="DirectedInteraction" color="#000" ><g color="#000" fill="transparent"  filter="url(#b)" stroke="#000" stroke-dasharray="46.533333333333346, 5.8"><path class="EdgeBody" d="m760 74.333v52.333"   marker-end="url(#a)" /></g></g><g id="u" class="DirectedInteraction" color="#000" ><g color="#000" fill="transparent"  filter="url(#b)" stroke="#000" stroke-dasharray="64.20000000000006, 5.8"><path class="EdgeBody" d="m154.33 254.33v70"   marker-end="url(#a)" /></g></g><g id="v" class="DirectedInteraction" color="#f00" ><g color="#f00" fill="transparent"  filter="url(#d)" stroke="#000" stroke-dasharray="5.43, 3.26, 5.43, 3.26, 5.43, 3.26, 5.43, 3.26, 5.43, 3.26, 5.43, 3.26, 5.43, 3.26, 5.43, 5.8"><path class="EdgeBody" d="m211.67 272-45.667 55.667"   marker-end="url(#a)" /></g></g><g id="w" class="DirectedInteraction" color="#000" ><g color="#000" fill="transparent"  filter="url(#b)" stroke="#000" stroke-dasharray="5.05, 3.03, 5.05, 3.03, 5.05, 3.03, 5.05, 3.03, 5.05, 3.03, 5.05, 3.03, 5.05, 3.03, 5.05, 3.03, 5.05, 3.03, 5.05, 3.03, 5.05, 3.03, 5.05, 3.03, 5.05, 3.03, 5.05, 3.03, 5.05, 3.03, 0, 5.8"><path class="EdgeBody" d="m797 346 2.3333 124"   marker-end="url(#a)" /></g></g><g id="x" class="DirectedInteraction" color="#000" ><g color="#000" fill="transparent"  filter="url(#b)" stroke="#000" stroke-dasharray="56.06903731090194, 5.8"><path class="EdgeBody" d="m696.67 193.33-55 28.333"   marker-end="url(#a)" /></g></g><g id="y" class="DirectedInteraction" color="#00f" ><g color="#00f" fill="transparent"  filter="url(#e)" stroke="#000" stroke-dasharray="59.86751268490556, 5.8"><path class="EdgeBody" d="m594.33 603.67-65.667-0.33333"   marker-end="url(#a)" /></g></g><g id="z" class="DirectedInteraction" color="#000" ><g color="#000" fill="transparent"  filter="url(#b)" stroke="#000" stroke-dasharray="22.201984056689824, 5.8"><path class="EdgeBody" d="m476.33 268.67 0.33333 28"   marker-end="url(#a)" /></g></g><g id="aa" class="DirectedInteraction" color="#000" ><g color="#000" fill="transparent"  filter="url(#b)" stroke="#000" stroke-dasharray="126.86708542647476, 5.8"><path class="EdgeBody" d="m796.67 173.33 0.33333 132.67"   marker-end="url(#a)" /></g></g><g id="ab" class="DirectedInteraction" color="#000" ><g color="#000" fill="transparent"  filter="url(#b)" stroke="#000" stroke-dasharray="32.366666666666674, 5.8"><path class="EdgeBody" d="m169 96.167v38.167"   marker-end="url(#a)" /></g></g><g id="ac" class="DirectedInteraction" color="#000" ><g color="#000" fill="transparent"  filter="url(#b)" stroke="#000" stroke-dasharray="169.62260480843895, 5.8"><path class="EdgeBody" d="m438.67 512.33-153.5 84.917"   marker-end="url(#a)" /></g><g class="Burr Anchor" transform="translate(377.27 546.3)" ><use class="Icon" width="0" height="0" fill="#141414" stroke-width="0" xlink:href="#c"/></g></g><g id="ad" class="DirectedInteraction" color="#000" ><g color="#000" fill="transparent"  filter="url(#b)" stroke="#000" stroke-dasharray="40.86666666666663, 5.8"><path class="EdgeBody" d="m476.67 316.67v46.667"   marker-end="url(#a)" /></g></g><g id="ae" class="DirectedInteraction" color="#000" ><g color="#000" fill="transparent"  filter="url(#b)" stroke="#000" stroke-dasharray="19.200000000000056, 5.8"><path class="EdgeBody" d="m476.67 439.33v25"   marker-end="url(#a)" /></g></g><g id="af" class="DirectedInteraction" color="#000" ><g color="#000" fill="transparent"  filter="url(#b)" stroke="#000" stroke-dasharray="29.79582743312599, 5.8"><path class="EdgeBody" d="m596.67 231.67-35.594 0.33333"   marker-end="url(#a)" /></g></g><g id="ag" class="DirectedInteraction" color="#f00" ><g color="#f00" fill="transparent"  filter="url(#d)" stroke="#000" stroke-dasharray="5.09, 3.05, 5.09, 3.05, 5.09, 3.05, 5.09, 3.05, 5.09, 3.05, 5.09, 3.05, 5.09, 3.05, 5.09, 3.05, 5.09, 3.05, 5.09, 3.05, 5.09, 3.05, 5.09, 3.05, 5.09, 3.05, 5.09, 3.05, 5.09, 3.05, 5.09, 3.05, 5.09, 3.05, 5.09, 3.05, 5.09, 3.05, 5.09, 3.05, 5.09, 3.05, 5.09, 3.05, 5.09, 3.05, 5.09, 3.05, 5.09, 3.05, 0, 5.8"><path class="EdgeBody" d="m438.67 401.33h-61.4v144.97"   marker-end="url(#a)" /></g><g class="Burr Anchor" transform="translate(377.27 443.35)" ><use class="Icon" width="0" height="0" fill="#141414" stroke-width="0" xlink:href="#c"/></g></g><g id="ah" class="DirectedInteraction" color="#000" ><g color="#000" fill="transparent"  filter="url(#b)" stroke="#000" stroke-dasharray="9.559650573284973, 5.8"><path class="EdgeBody" d="m377.67 428-0.4 15.354"   marker-end="url(#a)" /></g></g><g class="SingleFreeNode Shape" transform="translate(394.67 513) rotate(-89.197 43.333 4.3333)" color="#000" ><use class="Icon" transform="matrix(.98859 0 0 .89655 .4943 .44828)" width="86.66666666666667" height="8.666666666666666" fill="#000" stroke="#000" xlink:href="#h"/></g><g class="GroupNone" transform="translate(390.59 186.33)" color="grey" ><rect class="Icon" transform="matrix(.9942 0 0 .98917 .4971 .49458)" width="171.48" height="91.333" fill="#b4b464" fill-opacity=".1" stroke="grey" stroke-dasharray="5,3"/><g class="SingleFreeNode Shape" transform="translate(9,9)" color="#000" ><use class="Icon" transform="matrix(.99353 0 0 .98655 .49676 .49327)" width="153.47813333333335" height="73.33333333333333" fill="transparent"  stroke="#000" xlink:href="#g"/></g><g class="Label" transform="translate(33.072 36.167)" color="#000"  name="Mitochondria"><use class="Icon" width="105.33333333333333" height="19" fill="transparent"  stroke="#000" stroke-width="0" xlink:href="#c"/><text class="Text" transform="translate(52.667 13.5)"   font-size="12px" font-weight="bold"  text-anchor="middle"><tspan x="0" y="0">Mitochondria</tspan></text></g></g><g class="Label" transform="translate(717.83 54.833)" color="#000"  name="TNF-alpha"><use class="Icon" width="84.33333333333333" height="19" fill="transparent"  stroke="#000" stroke-width="0" xlink:href="#c"/><text class="Text" transform="translate(42.167 13.5)"   font-size="12px" font-weight="bold"  text-anchor="middle"><tspan x="0" y="0">TNF-alpha</tspan></text></g><g class="Label" transform="translate(434 76.167)" color="#000"  name="STRESS"><use class="Icon" width="71.33333333333333" height="19" fill="transparent"  stroke="#000" stroke-width="0" xlink:href="#c"/><text class="Text" transform="translate(35.667 13.5)"   font-size="12px" font-weight="bold"  text-anchor="middle"><tspan x="0" y="0">STRESS</tspan></text></g><g class="Label" transform="translate(126.83 588.33)" color="#00f"  name="APOPTOSIS"><rect class="Icon" transform="matrix(.99372 0 0 .97273 .49686 .48636)" width="158.33" height="35.667" fill="#fff" stroke="#00f"/><text class="Text" transform="translate(79.167 23.833)" fill="#00f"  font-size="20px" font-weight="bold"  text-anchor="middle"><tspan x="0" y="0">APOPTOSIS</tspan></text></g><g class="Label" transform="translate(702.17 592.17)" color="#00f"  name="CELL SURVIVAL"><rect class="Icon" transform="matrix(.99493 0 0 .97129 .49747 .48565)" width="196.33" height="33.833" fill="#fff" stroke="#00f"/><text class="Text" transform="translate(98.167 22.917)" fill="#00f"  font-size="18px" font-weight="bold"  text-anchor="middle"><tspan x="0" y="0">CELL SURVIVAL</tspan></text></g><g class="Label" transform="translate(579.83 491.33)" color="#f00"  name="Degradation of Ik alpha (activation of NFkB)"><use class="Icon" width="98.33333333333333" height="39.666666666666664" fill="transparent"  stroke="#f00" stroke-width="0" xlink:href="#c"/><text class="Text" transform="translate(49.167 22.833)" fill="#f00"  font-size="10px" font-weight="bold" stroke="black" stroke-width="0" text-anchor="middle"><tspan x="0" y="-11">Degradation of</tspan> <tspan x="0" y="0">Ik alpha</tspan> <tspan x="0" y="11">(activation of NFkB)</tspan></text></g><g class="Label" transform="translate(532.5,612)" color="#f00"  name="Activation"><use class="Icon" width="68.33333333333333" height="16" fill="transparent"  stroke="#f00" stroke-width="0" xlink:href="#c"/><text class="Text" transform="translate(34.167 11)" fill="#f00"  font-size="10px" font-weight="bold" stroke="black" stroke-width="0" text-anchor="middle"><tspan x="0" y="0">Activation</tspan></text></g><g class="Label" transform="translate(300,632)" color="#f00"  name="Degradation of proteins"><use class="Icon" width="139.5" height="16" fill="transparent"  stroke="#f00" stroke-width="0" xlink:href="#c"/><text class="Text" transform="translate(69.75,11)" fill="#f00"  font-size="10px" font-weight="bold" stroke="black" stroke-width="0" text-anchor="middle"><tspan x="0" y="0">Degradation of proteins</tspan></text></g><g class="Label" transform="translate(364,372)" color="#f00"  name="Inhibition"><use class="Icon" width="65.33333333333333" height="16" fill="transparent"  stroke="#f00" stroke-width="0" xlink:href="#c"/><text class="Text" transform="translate(32.667 11)" fill="#f00"  font-size="10px" font-weight="bold" stroke="black" stroke-width="0" text-anchor="middle"><tspan x="0" y="0">Inhibition</tspan></text></g><g class="Label" transform="translate(433.33 345.33)" color="#f00"  name="Apoptosome"><use class="Icon" width="93.33333333333333" height="16" fill="transparent"  stroke="#f00" stroke-width="0" xlink:href="#c"/><text class="Text" transform="translate(46.667 11)" fill="#f00"  font-size="11px" font-weight="bold" stroke="black" stroke-width="0" text-anchor="middle"><tspan x="0" y="0">Apoptosome</tspan></text></g><g class="Label" transform="translate(372.33 455.33)" color="#f00"  name="Inhibition"><use class="Icon" width="65.33333333333333" height="16" fill="transparent"  stroke="#f00" stroke-width="0" xlink:href="#c"/><text class="Text" transform="translate(32.667 11)" fill="#f00"  font-size="10px" font-weight="bold" stroke="black" stroke-width="0" text-anchor="middle"><tspan x="0" y="0">Inhibition</tspan></text></g><g class="Label" transform="translate(761,306)" color="#000"  name="NF-kB pathway"><rect class="Icon" transform="matrix(.9863 0 0 .97561 .49315 .4878)" width="72" height="40" fill="#fff" stroke="#000"/><text class="Text" transform="translate(36,24)"   font-size="12px" font-weight="bold"  text-anchor="middle"><tspan x="0" y="-6.6000000000000005">NF-kB</tspan> <tspan x="0" y="6.6000000000000005">pathway</tspan></text></g><g class="Label" transform="translate(121.33 77.167)" color="#000"  name="FAS-Ligand"><use class="Icon" width="95.33333333333333" height="19" fill="transparent"  stroke="#000" stroke-width="0" xlink:href="#c"/><text class="Text" transform="translate(47.667 13.5)"   font-size="12px" font-weight="bold"  text-anchor="middle"><tspan x="0" y="0">FAS-Ligand</tspan></text></g><g class="Label" transform="translate(431.33 593.83)" color="#000"  name="Proteasome"><use class="Icon" width="97.33333333333333" height="19" fill="transparent"  stroke="#000" stroke-width="0" xlink:href="#c"/><text class="Text" transform="translate(48.667 13.5)"   font-size="12px" font-weight="bold"  text-anchor="middle"><tspan x="0" y="0">Proteasome</tspan></text></g><g class="Label" transform="translate(150.67 292)" color="#f00"  name="Inhibition"><use class="Icon" width="65.33333333333333" height="16" fill="transparent"  stroke="#f00" stroke-width="0" xlink:href="#c"/><text class="Text" transform="translate(32.667 11)" fill="#f00"  font-size="10px" font-weight="bold" stroke="black" stroke-width="0" text-anchor="middle"><tspan x="0" y="0">Inhibition</tspan></text></g><g class="Label" transform="translate(240.67 292)" color="#f00"  name="Inhibition"><use class="Icon" width="65.33333333333333" height="16" fill="transparent"  stroke="#f00" stroke-width="0" xlink:href="#c"/><text class="Text" transform="translate(32.667 11)" fill="#f00"  font-size="10px" font-weight="bold" stroke="black" stroke-width="0" text-anchor="middle"><tspan x="0" y="0">Inhibition</tspan></text></g><a  class="GeneProduct P594_ENSMUSG00000021754 " transform="translate(124.33 227.67)"   name="Map3k1"  ><rect class="Icon" transform="matrix(.98361 0 0 .95238 .4918 .47619)" width="60" height="20" fill="#fff" stroke="#000"/><text class="Text" transform="translate(30,13)"   font-size="10px"  text-anchor="middle"><tspan x="0" y="0">Map3k1</tspan></text></a><a  class="GeneProduct P594_ENSMUSG00000004446 " transform="translate(596.67 221.67)"   name="Bid"  ><rect class="Icon" transform="matrix(.98361 0 0 .95238 .4918 .47619)" width="60" height="20" fill="#fff" stroke="#000"/><text class="Text" transform="translate(30,13)"   font-size="10px"  text-anchor="middle"><tspan x="0" y="0">Bid</tspan></text></a><a  class="GeneProduct P594_ENSMUSG00000036932 " transform="translate(313.33 313.33)"   name="Aifm1"  ><rect class="Icon" transform="matrix(.98361 0 0 .95238 .4918 .47619)" width="60" height="20" fill="#fff" stroke="#000"/><text class="Text" transform="translate(30,13)"   font-size="10px"  text-anchor="middle"><tspan x="0" y="0">Aifm1</tspan></text></a><a  class="GeneProduct " transform="translate(446.67 296.67)"   name="Gm10108"  ><rect class="Icon" transform="matrix(.98361 0 0 .95238 .4918 .47619)" width="60" height="20" fill="#fff" stroke="#000"/><text class="Text" transform="translate(30,13)"   font-size="10px"  text-anchor="middle"><tspan x="0" y="0">Gm10108</tspan></text></a><a  class="GeneProduct P594_ENSMUSG00000028163 " transform="translate(769.33 470)"   name="Nfkb1"  ><rect class="Icon" transform="matrix(.98361 0 0 .95238 .4918 .47619)" width="60" height="20" fill="#fff" stroke="#000"/><text class="Text" transform="translate(30,13)"   font-size="10px"  text-anchor="middle"><tspan x="0" y="0">Nfkb1</tspan></text></a><a  class="GeneProduct P594_ENSMUSG00000046709 " transform="translate(121 327.67)"   name="Mapk10"  ><rect class="Icon" transform="matrix(.98361 0 0 .95238 .4918 .47619)" width="60" height="20" fill="#fff" stroke="#000"/><text class="Text" transform="translate(30,13)"   font-size="10px"  text-anchor="middle"><tspan x="0" y="0">Mapk10</tspan></text></a><a  class="GeneProduct P594_ENSMUSG00000091971 " transform="translate(196.67 252)"   name="Hspa1a"  ><rect class="Icon" transform="matrix(.98361 0 0 .95238 .4918 .47619)" width="60" height="20" fill="#fff" stroke="#000"/><text class="Text" transform="translate(30,13)"   font-size="10px"  text-anchor="middle"><tspan x="0" y="0">Hspa1a</tspan></text></a><a  class="GeneProduct P594_ENSMUSG00000091971 " transform="translate(347.67 428)"   name="Hspa1a"  ><rect class="Icon" transform="matrix(.98361 0 0 .95238 .4918 .47619)" width="60" height="20" fill="#fff" stroke="#000"/><text class="Text" transform="translate(30,13)"   font-size="10px"  text-anchor="middle"><tspan x="0" y="0">Hspa1a</tspan></text></a><a  class="GeneProduct P594_ENSMUSG00000091971 " transform="translate(594.33 593.67)"   name="Hspa1a"  ><rect class="Icon" transform="matrix(.98361 0 0 .95238 .4918 .47619)" width="60" height="20" fill="#fff" stroke="#000"/><text class="Text" transform="translate(30,13)"   font-size="10px"  text-anchor="middle"><tspan x="0" y="0">Hspa1a</tspan></text></a><g class="GroupNone" transform="translate(130 125.33)" color="grey" ><rect class="Icon" transform="matrix(.99263 0 0 .98734 .49631 .49367)" width="134.67" height="78" fill="#b4b464" fill-opacity=".1" stroke="grey" stroke-dasharray="5,3"/><a  class="GeneProduct P594_ENSMUSG00000026029 " transform="translate(65.667 49)"   name="Casp8"  ><rect class="Icon" transform="matrix(.98361 0 0 .95238 .4918 .47619)" width="60" height="20" fill="#fff" stroke="#000"/><text class="Text" transform="translate(30,13)"   font-size="10px"  text-anchor="middle"><tspan x="0" y="0">Casp8</tspan></text></a><a  class="GeneProduct P594_ENSMUSG00000031077 " transform="translate(29,29)"   name="Fadd"  ><rect class="Icon" transform="matrix(.98361 0 0 .95238 .4918 .47619)" width="60" height="20" fill="#fff" stroke="#000"/><text class="Text" transform="translate(30,13)"   font-size="10px"  text-anchor="middle"><tspan x="0" y="0">Fadd</tspan></text></a><a  class="GeneProduct P594_ENSMUSG00000024778 " transform="translate(9,9)"   name="Fas"  ><rect class="Icon" transform="matrix(.98361 0 0 .95238 .4918 .47619)" width="60" height="20" fill="#fff" stroke="#000"/><text class="Text" transform="translate(30,13)"   font-size="10px"  text-anchor="middle"><tspan x="0" y="0">Fas</tspan></text></a></g><g class="GroupNone" transform="translate(437.67 463.33)" color="grey" ><rect class="Icon" transform="matrix(.98734 0 0 .9899 .49367 .49495)" width="78" height="98" fill="#b4b464" fill-opacity=".1" stroke="grey" stroke-dasharray="5,3"/><a  class="GeneProduct P594_ENSMUSG00000031628 " transform="translate(9 49)"   name="Casp3"  ><rect class="Icon" transform="matrix(.98361 0 0 .95238 .4918 .47619)" width="60" height="20" fill="#fff" stroke="#000"/><text class="Text" transform="translate(30,13)"   font-size="10px"  text-anchor="middle"><tspan x="0" y="0">Casp3</tspan></text></a><a  class="GeneProduct P594_ENSMUSG00000029863 " transform="translate(9 69)"   name="Casp2"  ><rect class="Icon" transform="matrix(.98361 0 0 .95238 .4918 .47619)" width="60" height="20" fill="#fff" stroke="#000"/><text class="Text" transform="translate(30,13)"   font-size="10px"  text-anchor="middle"><tspan x="0" y="0">Casp2</tspan></text></a><a  class="GeneProduct P594_ENSMUSG00000027997 " transform="translate(9,9)"   name="Casp6"  ><rect class="Icon" transform="matrix(.98361 0 0 .95238 .4918 .47619)" width="60" height="20" fill="#fff" stroke="#000"/><text class="Text" transform="translate(30,13)"   font-size="10px"  text-anchor="middle"><tspan x="0" y="0">Casp6</tspan></text></a><a  class="GeneProduct P594_ENSMUSG00000025076 " transform="translate(9,29)"   name="Casp7"  ><rect class="Icon" transform="matrix(.98361 0 0 .95238 .4918 .47619)" width="60" height="20" fill="#fff" stroke="#000"/><text class="Text" transform="translate(30,13)"   font-size="10px"  text-anchor="middle"><tspan x="0" y="0">Casp7</tspan></text></a></g><g class="GroupNone" transform="translate(437.67 362.33)" color="grey" ><rect class="Icon" transform="matrix(.98734 0 0 .98734 .49367 .49367)" width="78" height="78" fill="#b4b464" fill-opacity=".1" stroke="grey" stroke-dasharray="5,3"/><a  class="GeneProduct " transform="translate(9,9)"   name="Gm10108"  ><rect class="Icon" transform="matrix(.98361 0 0 .95238 .4918 .47619)" width="60" height="20" fill="#fff" stroke="#000"/><text class="Text" transform="translate(30,13)"   font-size="10px"  text-anchor="middle"><tspan x="0" y="0">Gm10108</tspan></text></a><a  class="GeneProduct P594_ENSMUSG00000019979 " transform="translate(9,29)"   name="Apaf1"  ><rect class="Icon" transform="matrix(.98361 0 0 .95238 .4918 .47619)" width="60" height="20" fill="#fff" stroke="#000"/><text class="Text" transform="translate(30,13)"   font-size="10px"  text-anchor="middle"><tspan x="0" y="0">Apaf1</tspan></text></a><a  class="GeneProduct P594_ENSMUSG00000028914 " transform="translate(9,49)"   name="Casp9"  ><rect class="Icon" transform="matrix(.98361 0 0 .95238 .4918 .47619)" width="60" height="20" fill="#fff" stroke="#000"/><text class="Text" transform="translate(30,13)"   font-size="10px"  text-anchor="middle"><tspan x="0" y="0">Casp9</tspan></text></a></g><g class="GroupNone" transform="translate(657.67 124.33)" color="grey" ><rect class="Icon" transform="matrix(.99431 0 0 .98734 .49715 .49367)" width="174.67" height="78" fill="#b4b464" fill-opacity=".1" stroke="grey" stroke-dasharray="5,3"/><a  class="GeneProduct P594_ENSMUSG00000026029 " transform="translate(9,49)"   name="Casp8"  ><rect class="Icon" transform="matrix(.98361 0 0 .95238 .4918 .47619)" width="60" height="20" fill="#fff" stroke="#000"/><text class="Text" transform="translate(30,13)"   font-size="10px"  text-anchor="middle"><tspan x="0" y="0">Casp8</tspan></text></a><a  class="GeneProduct P594_ENSMUSG00000031077 " transform="translate(35.667 29)"   name="Fadd"  ><rect class="Icon" transform="matrix(.98361 0 0 .95238 .4918 .47619)" width="60" height="20" fill="#fff" stroke="#000"/><text class="Text" transform="translate(30,13)"   font-size="10px"  text-anchor="middle"><tspan x="0" y="0">Fadd</tspan></text></a><a  class="GeneProduct P594_ENSMUSG00000030341 " transform="translate(75.667 9)"   name="Tnfrsf1a"  ><rect class="Icon" transform="matrix(.98361 0 0 .95238 .4918 .47619)" width="60" height="20" fill="#fff" stroke="#000"/><text class="Text" transform="translate(30,13)"   font-size="10px"  text-anchor="middle"><tspan x="0" y="0">Tnfrsf1a</tspan></text></a><a  class="GeneProduct P594_ENSMUSG00000021408 " transform="translate(112.33 29)"   name="Ripk1"  ><rect class="Icon" transform="matrix(.9816 0 0 .95238 .4908 .47619)" width="53.333" height="20" fill="#fff" stroke="#000"/><text class="Text" transform="translate(26.667 13)"   font-size="10px"  text-anchor="middle"><tspan x="0" y="0">Ripk1</tspan></text></a></g><text class="Text" transform="translate(5,27)" dominant-baseline="central" fill="black"  font-size="12px" font-weight="bold" overflow="visible" ><tspan x="0" y="-9">Name: Apoptosis modulation by HSP70</tspan> <tspan x="0" y="9">Organism: Mus musculus</tspan></text></g></svg>
