<?xml version="1.0" encoding="UTF-8"?>
<!--
  WikiPathways page: https://www.wikipathways.org/index.php/Pathway:WP163
  URL for this compressed file: https://github.com/eweitz/cachome/tree/main/data/wikipathways/WP163.svg
  Source code for compression: https://github.com/eweitz/cachome/tree/main/src/wikipathways.py
-->
<svg class="Diagram" width="800" height="600" color="black" baseProfile="full" prefix="schema:http://schema.org/" preserveAspectRatio="xMidYMid" version="1.1" viewBox="0 0 705.83 693.67" vocab="http://vocabularies.wikipathways.org/wp#" xmlns="http://www.w3.org/2000/svg" xmlns:xlink="http://www.w3.org/1999/xlink"><style>svg {font-family: 'Liberation Sans', Arial, sans-serif; }</style><defs><filter id="d" x="0" y="0" width="705.83" height="693.67" filterUnits="userSpaceOnUse"><feColorMatrix in="SourceGraphic" values="-1   0   0 0 0                   0  -1   0 0 0                   0   0  -1 0 0                   0   0   0 1 0"/></filter><marker id="c" stroke-dasharray="99999" markerHeight="12" markerUnits="userSpaceOnUse" markerWidth="12" orient="auto" preserveAspectRatio="none" refX="12" refY="6" viewBox="0 0 12 12"><path transform="rotate(180 6 6)" d="M12 11L0 6l12-5z" fill="currentColor" stroke-width="0"/></marker><symbol id="a" overflow="visible" preserveAspectRatio="none" viewBox="0 0 100 100"><path d="M0 25L25 0h50l25 25v50l-25 25H25L0 75z" stroke="currentColor" vector-effect="non-scaling-stroke"/></symbol><symbol id="b" preserveAspectRatio="none" viewBox="0 0 100 100"/></defs><g class="Viewport" color="black"  name="Name: Cytoplasmic ribosomal proteins Last Modified: 10/17/2013 Organism: Mus musculus"><rect class="Icon" width="705.83" height="693.67" fill="#fff" stroke="#000" stroke-width="0"/><g id="e" class="DirectedInteraction" color="#000" ><g color="#000" fill="transparent"  filter="url(#d)" stroke="#000" stroke-dasharray="50.033395522353466, 5.8"><path class="EdgeBody" d="m453.67 327 55.833-0.083333"   marker-end="url(#c)" /></g></g><g class="GroupComplex" transform="translate(509.5 140.17)" color="grey" ><use class="Icon" transform="matrix(.99442 0 0 .99733 .49721 .49866)" width="178.33333333333337" height="373.5" fill="#b4b464" fill-opacity=".1" stroke="grey" xlink:href="#a"/><g class="Label" transform="translate(12,12)" color="#000"  name="Small (40S) Subunit"><use class="Icon" width="154.33333333333334" height="19" fill="transparent"  stroke="#000" stroke-width="0" xlink:href="#b"/><text class="Text" transform="translate(77.167 13.5)"   font-size="12px" font-weight="bold"  text-anchor="middle"><tspan x="0" y="0">Small (40S) Subunit</tspan></text></g><a  class="GeneProduct P594_ENSMUSG00000008668 " transform="translate(105.83 101.5)"   name="Rps18"  ><rect class="Icon" transform="matrix(.98361 0 0 .95238 .4918 .47619)" width="60" height="20" fill="#fff" stroke="#000"/><text class="Text" transform="translate(30,13)"   font-size="10px"  text-anchor="middle"><tspan x="0" y="0">Rps18</tspan></text></a><a  class="GeneProduct P594_ENSMUSG00000030744 " transform="translate(12.5,81.5)"   name="Rps3"  ><rect class="Icon" transform="matrix(.98361 0 0 .95238 .4918 .47619)" width="60" height="20" fill="#fff" stroke="#000"/><text class="Text" transform="translate(30,13)"   font-size="10px"  text-anchor="middle"><tspan x="0" y="0">Rps3</tspan></text></a><a  class="GeneProduct P594_ENSMUSG00000044533 " transform="translate(12.5,61.5)"   name="Rps2"  ><rect class="Icon" transform="matrix(.98361 0 0 .95238 .4918 .47619)" width="60" height="20" fill="#fff" stroke="#000"/><text class="Text" transform="translate(30,13)"   font-size="10px"  text-anchor="middle"><tspan x="0" y="0">Rps2</tspan></text></a><a  class="GeneProduct P594_ENSMUSG00000012848 " transform="translate(12.5 141.5)"   name="Rps5"  ><rect class="Icon" transform="matrix(.98361 0 0 .95238 .4918 .47619)" width="60" height="20" fill="#fff" stroke="#000"/><text class="Text" transform="translate(30,13)"   font-size="10px"  text-anchor="middle"><tspan x="0" y="0">Rps5</tspan></text></a><a  class="GeneProduct P594_ENSMUSG00000037563 " transform="translate(105.83 61.5)"   name="Rps16"  ><rect class="Icon" transform="matrix(.98361 0 0 .95238 .4918 .47619)" width="60" height="20" fill="#fff" stroke="#000"/><text class="Text" transform="translate(30,13)"   font-size="10px"  text-anchor="middle"><tspan x="0" y="0">Rps16</tspan></text></a><a  class="GeneProduct P594_ENSMUSG00000028081 " transform="translate(12.5,101.5)"   name="Rps3a"  ><rect class="Icon" transform="matrix(.98361 0 0 .95238 .4918 .47619)" width="60" height="20" fill="#fff" stroke="#000"/><text class="Text" transform="translate(30,13)"   font-size="10px"  text-anchor="middle"><tspan x="0" y="0">Rps3a</tspan></text></a><a  class="GeneProduct P594_ENSMUSG00000061983 " transform="translate(12.5,281.5)"   name="Rps12"  ><rect class="Icon" transform="matrix(.98361 0 0 .95238 .4918 .47619)" width="60" height="20" fill="#fff" stroke="#000"/><text class="Text" transform="translate(30,13)"   font-size="10px"  text-anchor="middle"><tspan x="0" y="0">Rps12</tspan></text></a><a  class="GeneProduct P594_ENSMUSG00000025362 " transform="translate(105.83 241.5)"   name="Rps26"  ><rect class="Icon" transform="matrix(.98361 0 0 .95238 .4918 .47619)" width="60" height="20" fill="#fff" stroke="#000"/><text class="Text" transform="translate(30,13)"   font-size="10px"  text-anchor="middle"><tspan x="0" y="0">Rps26</tspan></text></a><a  class="GeneProduct P594_ENSMUSG00000031320 " transform="translate(12.5 121.5)"   name="Rps4x"  ><rect class="Icon" transform="matrix(.98361 0 0 .95238 .4918 .47619)" width="60" height="20" fill="#fff" stroke="#000"/><text class="Text" transform="translate(30,13)"   font-size="10px"  text-anchor="middle"><tspan x="0" y="0">Rps4x</tspan></text></a><a  class="GeneProduct P594_ENSMUSG00000028495 " transform="translate(12.5 161.5)"   name="Rps6"  ><rect class="Icon" transform="matrix(.98361 0 0 .95238 .4918 .47619)" width="60" height="20" fill="#fff" stroke="#000"/><text class="Text" transform="translate(30,13)"   font-size="10px"  text-anchor="middle"><tspan x="0" y="0">Rps6</tspan></text></a><a  class="GeneProduct P594_ENSMUSG00000061477 " transform="translate(12.5 181.5)"   name="Rps7"  ><rect class="Icon" transform="matrix(.98361 0 0 .95238 .4918 .47619)" width="60" height="20" fill="#fff" stroke="#000"/><text class="Text" transform="translate(30,13)"   font-size="10px"  text-anchor="middle"><tspan x="0" y="0">Rps7</tspan></text></a><a  class="GeneProduct P594_ENSMUSG00000047675 " transform="translate(12.5 201.5)"   name="Rps8"  ><rect class="Icon" transform="matrix(.98361 0 0 .95238 .4918 .47619)" width="60" height="20" fill="#fff" stroke="#000"/><text class="Text" transform="translate(30,13)"   font-size="10px"  text-anchor="middle"><tspan x="0" y="0">Rps8</tspan></text></a><a  class="GeneProduct P594_ENSMUSG00000003429 " transform="translate(12.5,261.5)"   name="Rps11"  ><rect class="Icon" transform="matrix(.98361 0 0 .95238 .4918 .47619)" width="60" height="20" fill="#fff" stroke="#000"/><text class="Text" transform="translate(30,13)"   font-size="10px"  text-anchor="middle"><tspan x="0" y="0">Rps11</tspan></text></a><a  class="GeneProduct P594_ENSMUSG00000063457 " transform="translate(12.5,341.5)"   name="Rps15"  ><rect class="Icon" transform="matrix(.98361 0 0 .95238 .4918 .47619)" width="60" height="20" fill="#fff" stroke="#000"/><text class="Text" transform="translate(30,13)"   font-size="10px"  text-anchor="middle"><tspan x="0" y="0">Rps15</tspan></text></a><a  class="GeneProduct P594_ENSMUSG00000067288 " transform="translate(105.83 301.5)"   name="Rps28"  ><rect class="Icon" transform="matrix(.98361 0 0 .95238 .4918 .47619)" width="60" height="20" fill="#fff" stroke="#000"/><text class="Text" transform="translate(30,13)"   font-size="10px"  text-anchor="middle"><tspan x="0" y="0">Rps28</tspan></text></a><a  class="GeneProduct P594_ENSMUSG00000034892 " transform="translate(105.83 321.5)"   name="Rps29"  ><rect class="Icon" transform="matrix(.98361 0 0 .95238 .4918 .47619)" width="60" height="20" fill="#fff" stroke="#000"/><text class="Text" transform="translate(30,13)"   font-size="10px"  text-anchor="middle"><tspan x="0" y="0">Rps29</tspan></text></a><a  class="GeneProduct P594_ENSMUSG00000038274 " transform="translate(105.83 341.5)"   name="Fau"  ><rect class="Icon" transform="matrix(.98361 0 0 .95238 .4918 .47619)" width="60" height="20" fill="#fff" stroke="#000"/><text class="Text" transform="translate(30,13)"   font-size="10px"  text-anchor="middle"><tspan x="0" y="0">Fau</tspan></text></a><a  class="GeneProduct P594_ENSMUSG00000052146 " transform="translate(12.5 241.5)"   name="Rps10"  ><rect class="Icon" transform="matrix(.98361 0 0 .95238 .4918 .47619)" width="60" height="20" fill="#fff" stroke="#000"/><text class="Text" transform="translate(30,13)"   font-size="10px"  text-anchor="middle"><tspan x="0" y="0">Rps10</tspan></text></a><g class="GeneProduct" transform="translate(12.5 221.5)" color="#000"  name="S9e"><rect class="Icon" transform="matrix(.98361 0 0 .95238 .4918 .47619)" width="60" height="20" fill="#fff" stroke="#000"/><text class="Text" transform="translate(30,13)"   font-size="10px"  text-anchor="middle"><tspan x="0" y="0">S9e</tspan></text></g><a  class="GeneProduct P594_ENSMUSG00000090862 " transform="translate(12.5,301.5)"   name="Rps13"  ><rect class="Icon" transform="matrix(.98361 0 0 .95238 .4918 .47619)" width="60" height="20" fill="#fff" stroke="#000"/><text class="Text" transform="translate(30,13)"   font-size="10px"  text-anchor="middle"><tspan x="0" y="0">Rps13</tspan></text></a><a  class="GeneProduct P594_ENSMUSG00000024608 " transform="translate(12.5,321.5)"   name="Rps14"  ><rect class="Icon" transform="matrix(.98361 0 0 .95238 .4918 .47619)" width="60" height="20" fill="#fff" stroke="#000"/><text class="Text" transform="translate(30,13)"   font-size="10px"  text-anchor="middle"><tspan x="0" y="0">Rps14</tspan></text></a><a  class="GeneProduct P594_ENSMUSG00000032518 " transform="translate(12.5,41.5)"   name="Lamr1"  ><rect class="Icon" transform="matrix(.98361 0 0 .95238 .4918 .47619)" width="60" height="20" fill="#fff" stroke="#000"/><text class="Text" transform="translate(30,13)"   font-size="10px"  text-anchor="middle"><tspan x="0" y="0">Lamr1</tspan></text></a><a  class="GeneProduct P594_ENSMUSG00000008683 " transform="translate(105.83 41.5)"   name="Rps15a"  ><rect class="Icon" transform="matrix(.98361 0 0 .95238 .4918 .47619)" width="60" height="20" fill="#fff" stroke="#000"/><text class="Text" transform="translate(30,13)"   font-size="10px"  text-anchor="middle"><tspan x="0" y="0">Rps15a</tspan></text></a><a  class="GeneProduct P594_ENSMUSG00000061787 " transform="translate(105.83 81.5)"   name="Rps17"  ><rect class="Icon" transform="matrix(.98361 0 0 .95238 .4918 .47619)" width="60" height="20" fill="#fff" stroke="#000"/><text class="Text" transform="translate(30,13)"   font-size="10px"  text-anchor="middle"><tspan x="0" y="0">Rps17</tspan></text></a><a  class="GeneProduct P594_ENSMUSG00000025290 " transform="translate(105.83 201.5)"   name="Rps24"  ><rect class="Icon" transform="matrix(.98361 0 0 .95238 .4918 .47619)" width="60" height="20" fill="#fff" stroke="#000"/><text class="Text" transform="translate(30,13)"   font-size="10px"  text-anchor="middle"><tspan x="0" y="0">Rps24</tspan></text></a><a  class="GeneProduct P594_ENSMUSG00000040952 " transform="translate(105.83 121.5)"   name="Rps19"  ><rect class="Icon" transform="matrix(.98361 0 0 .95238 .4918 .47619)" width="60" height="20" fill="#fff" stroke="#000"/><text class="Text" transform="translate(30,13)"   font-size="10px"  text-anchor="middle"><tspan x="0" y="0">Rps19</tspan></text></a><a  class="GeneProduct P594_ENSMUSG00000028234 " transform="translate(105.83 141.5)"   name="Rps20"  ><rect class="Icon" transform="matrix(.98361 0 0 .95238 .4918 .47619)" width="60" height="20" fill="#fff" stroke="#000"/><text class="Text" transform="translate(30,13)"   font-size="10px"  text-anchor="middle"><tspan x="0" y="0">Rps20</tspan></text></a><a  class="GeneProduct P594_ENSMUSG00000039001 " transform="translate(105.83 161.5)"   name="Rps21"  ><rect class="Icon" transform="matrix(.98361 0 0 .95238 .4918 .47619)" width="60" height="20" fill="#fff" stroke="#000"/><text class="Text" transform="translate(30,13)"   font-size="10px"  text-anchor="middle"><tspan x="0" y="0">Rps21</tspan></text></a><a  class="GeneProduct P594_ENSMUSG00000049517 " transform="translate(105.83 181.5)"   name="Rps23"  ><rect class="Icon" transform="matrix(.98361 0 0 .95238 .4918 .47619)" width="60" height="20" fill="#fff" stroke="#000"/><text class="Text" transform="translate(30,13)"   font-size="10px"  text-anchor="middle"><tspan x="0" y="0">Rps23</tspan></text></a><a  class="GeneProduct P594_ENSMUSG00000009927 " transform="translate(105.83 221.5)"   name="Rps25"  ><rect class="Icon" transform="matrix(.98361 0 0 .95238 .4918 .47619)" width="60" height="20" fill="#fff" stroke="#000"/><text class="Text" transform="translate(30,13)"   font-size="10px"  text-anchor="middle"><tspan x="0" y="0">Rps25</tspan></text></a><a  class="GeneProduct P594_ENSMUSG00000090733 " transform="translate(105.83 261.5)"   name="Rps27"  ><rect class="Icon" transform="matrix(.98361 0 0 .95238 .4918 .47619)" width="60" height="20" fill="#fff" stroke="#000"/><text class="Text" transform="translate(30,13)"   font-size="10px"  text-anchor="middle"><tspan x="0" y="0">Rps27</tspan></text></a><a  class="GeneProduct P594_ENSMUSG00000020460 " transform="translate(105.83 281.5)"   name="Rps27a"  ><rect class="Icon" transform="matrix(.98361 0 0 .95238 .4918 .47619)" width="60" height="20" fill="#fff" stroke="#000"/><text class="Text" transform="translate(30,13)"   font-size="10px"  text-anchor="middle"><tspan x="0" y="0">Rps27a</tspan></text></a></g><g class="GroupComplex" transform="translate(52.667 108.83)" color="grey" ><use class="Icon" transform="matrix(.99512 0 0 .99824 .49756 .49912)" width="204" height="566.8333333333333" fill="#b4b464" fill-opacity=".1" stroke="grey" xlink:href="#a"/><g class="Label" transform="translate(33.833 12)" color="#000"  name="Large (60S) Subunit"><use class="Icon" width="156.33333333333334" height="19" fill="transparent"  stroke="#000" stroke-width="0" xlink:href="#b"/><text class="Text" transform="translate(78.167 13.5)"   font-size="12px" font-weight="bold"  text-anchor="middle"><tspan x="0" y="0">Large (60S) Subunit</tspan></text></g><a  class="GeneProduct P594_ENSMUSG00000060036 " transform="translate(12,41.5)"   name="Rpl3"  ><rect class="Icon" transform="matrix(.98361 0 0 .95238 .4918 .47619)" width="60" height="20" fill="#fff" stroke="#000"/><text class="Text" transform="translate(30,13)"   font-size="10px"  text-anchor="middle"><tspan x="0" y="0">Rpl3</tspan></text></a><a  class="GeneProduct P594_ENSMUSG00000047215 " transform="translate(12 181.5)"   name="Rpl9"  ><rect class="Icon" transform="matrix(.98361 0 0 .95238 .4918 .47619)" width="60" height="20" fill="#fff" stroke="#000"/><text class="Text" transform="translate(30,13)"   font-size="10px"  text-anchor="middle"><tspan x="0" y="0">Rpl9</tspan></text></a><a  class="GeneProduct P594_ENSMUSG00000037805 " transform="translate(12 221.5)"   name="Rpl10a"  ><rect class="Icon" transform="matrix(.98361 0 0 .95238 .4918 .47619)" width="60" height="20" fill="#fff" stroke="#000"/><text class="Text" transform="translate(30,13)"   font-size="10px"  text-anchor="middle"><tspan x="0" y="0">Rpl10a</tspan></text></a><a  class="GeneProduct P594_ENSMUSG00000067274 " transform="translate(82 494.83)"   name="Arbp"  ><rect class="Icon" transform="matrix(.98361 0 0 .95238 .4918 .47619)" width="60" height="20" fill="#fff" stroke="#000"/><text class="Text" transform="translate(30,13)"   font-size="10px"  text-anchor="middle"><tspan x="0" y="0">Arbp</tspan></text></a><a  class="GeneProduct P594_ENSMUSG00000007892 " transform="translate(82 514.83)"   name="Rplp1"  ><rect class="Icon" transform="matrix(.98361 0 0 .95238 .4918 .47619)" width="60" height="20" fill="#fff" stroke="#000"/><text class="Text" transform="translate(30,13)"   font-size="10px"  text-anchor="middle"><tspan x="0" y="0">Rplp1</tspan></text></a><a  class="GeneProduct P594_ENSMUSG00000074129 " transform="translate(12,301.5)"   name="Rpl13a"  ><rect class="Icon" transform="matrix(.98361 0 0 .95238 .4918 .47619)" width="60" height="20" fill="#fff" stroke="#000"/><text class="Text" transform="translate(30,13)"   font-size="10px"  text-anchor="middle"><tspan x="0" y="0">Rpl13a</tspan></text></a><a  class="GeneProduct P594_ENSMUSG00000046364 " transform="translate(132,121.5)"   name="Rpl27a"  ><rect class="Icon" transform="matrix(.98361 0 0 .95238 .4918 .47619)" width="60" height="20" fill="#fff" stroke="#000"/><text class="Text" transform="translate(30,13)"   font-size="10px"  text-anchor="middle"><tspan x="0" y="0">Rpl27a</tspan></text></a><g class="GeneProduct" transform="translate(12,81.5)" color="#000"  name="Rpl5"><rect class="Icon" transform="matrix(.98361 0 0 .95238 .4918 .47619)" width="60" height="20" fill="#fff" stroke="#000"/><text class="Text" transform="translate(30,13)"   font-size="10px"  text-anchor="middle"><tspan x="0" y="0">Rpl5</tspan></text></g><a  class="GeneProduct P594_ENSMUSG00000043716 " transform="translate(12,121.5)"   name="Rpl7"  ><rect class="Icon" transform="matrix(.98361 0 0 .95238 .4918 .47619)" width="60" height="20" fill="#fff" stroke="#000"/><text class="Text" transform="translate(30,13)"   font-size="10px"  text-anchor="middle"><tspan x="0" y="0">Rpl7</tspan></text></a><a  class="GeneProduct P594_ENSMUSG00000029614 " transform="translate(12,101.5)"   name="Rpl6"  ><rect class="Icon" transform="matrix(.98361 0 0 .95238 .4918 .47619)" width="60" height="20" fill="#fff" stroke="#000"/><text class="Text" transform="translate(30,13)"   font-size="10px"  text-anchor="middle"><tspan x="0" y="0">Rpl6</tspan></text></a><a  class="GeneProduct P594_ENSMUSG00000062647 " transform="translate(12 141.5)"   name="Rpl7a"  ><rect class="Icon" transform="matrix(.98361 0 0 .95238 .4918 .47619)" width="60" height="20" fill="#fff" stroke="#000"/><text class="Text" transform="translate(30,13)"   font-size="10px"  text-anchor="middle"><tspan x="0" y="0">Rpl7a</tspan></text></a><a  class="GeneProduct P594_ENSMUSG00000008682 " transform="translate(12 201.5)"   name="Rpl10"  ><rect class="Icon" transform="matrix(.98361 0 0 .95238 .4918 .47619)" width="60" height="20" fill="#fff" stroke="#000"/><text class="Text" transform="translate(30,13)"   font-size="10px"  text-anchor="middle"><tspan x="0" y="0">Rpl10</tspan></text></a><a  class="GeneProduct P594_ENSMUSG00000000740 " transform="translate(12,281.5)"   name="Rpl13"  ><rect class="Icon" transform="matrix(.98361 0 0 .95238 .4918 .47619)" width="60" height="20" fill="#fff" stroke="#000"/><text class="Text" transform="translate(30,13)"   font-size="10px"  text-anchor="middle"><tspan x="0" y="0">Rpl13</tspan></text></a><a  class="GeneProduct P594_ENSMUSG00000017404 " transform="translate(12,421.5)"   name="Rpl19"  ><rect class="Icon" transform="matrix(.98361 0 0 .95238 .4918 .47619)" width="60" height="20" fill="#fff" stroke="#000"/><text class="Text" transform="translate(30,13)"   font-size="10px"  text-anchor="middle"><tspan x="0" y="0">Rpl19</tspan></text></a><a  class="GeneProduct P594_ENSMUSG00000041453 " transform="translate(12,441.5)"   name="Rpl21"  ><rect class="Icon" transform="matrix(.98361 0 0 .95238 .4918 .47619)" width="60" height="20" fill="#fff" stroke="#000"/><text class="Text" transform="translate(30,13)"   font-size="10px"  text-anchor="middle"><tspan x="0" y="0">Rpl21</tspan></text></a><a  class="GeneProduct P594_ENSMUSG00000028936 " transform="translate(12,461.5)"   name="Rpl22"  ><rect class="Icon" transform="matrix(.98361 0 0 .95238 .4918 .47619)" width="60" height="20" fill="#fff" stroke="#000"/><text class="Text" transform="translate(30,13)"   font-size="10px"  text-anchor="middle"><tspan x="0" y="0">Rpl22</tspan></text></a><a  class="GeneProduct P594_ENSMUSG00000030432 " transform="translate(132 141.5)"   name="Rpl28"  ><rect class="Icon" transform="matrix(.98361 0 0 .95238 .4918 .47619)" width="60" height="20" fill="#fff" stroke="#000"/><text class="Text" transform="translate(30,13)"   font-size="10px"  text-anchor="middle"><tspan x="0" y="0">Rpl28</tspan></text></a><a  class="GeneProduct P594_ENSMUSG00000048758 " transform="translate(132 161.5)"   name="Rpl29"  ><rect class="Icon" transform="matrix(.98361 0 0 .95238 .4918 .47619)" width="60" height="20" fill="#fff" stroke="#000"/><text class="Text" transform="translate(30,13)"   font-size="10px"  text-anchor="middle"><tspan x="0" y="0">Rpl29</tspan></text></a><a  class="GeneProduct P594_ENSMUSG00000057841 " transform="translate(132 221.5)"   name="Rpl32"  ><rect class="Icon" transform="matrix(.98361 0 0 .95238 .4918 .47619)" width="60" height="20" fill="#fff" stroke="#000"/><text class="Text" transform="translate(30,13)"   font-size="10px"  text-anchor="middle"><tspan x="0" y="0">Rpl32</tspan></text></a><a  class="GeneProduct " transform="translate(132 241.5)"   name="Rpl32-ps"  ><rect class="Icon" transform="matrix(.98361 0 0 .95238 .4918 .47619)" width="60" height="20" fill="#fff" stroke="#000"/><text class="Text" transform="translate(30,13)"   font-size="10px"  text-anchor="middle"><tspan x="0" y="0">Rpl32-ps</tspan></text></a><a  class="GeneProduct P594_ENSMUSG00000060636 " transform="translate(132,301.5)"   name="Rpl35a"  ><rect class="Icon" transform="matrix(.98361 0 0 .95238 .4918 .47619)" width="60" height="20" fill="#fff" stroke="#000"/><text class="Text" transform="translate(30,13)"   font-size="10px"  text-anchor="middle"><tspan x="0" y="0">Rpl35a</tspan></text></a><a  class="GeneProduct P594_ENSMUSG00000057863 " transform="translate(132,321.5)"   name="Rpl36"  ><rect class="Icon" transform="matrix(.98361 0 0 .95238 .4918 .47619)" width="60" height="20" fill="#fff" stroke="#000"/><text class="Text" transform="translate(30,13)"   font-size="10px"  text-anchor="middle"><tspan x="0" y="0">Rpl36</tspan></text></a><a  class="GeneProduct P594_ENSMUSG00000003970 " transform="translate(12 161.5)"   name="Rpl8"  ><rect class="Icon" transform="matrix(.98361 0 0 .95238 .4918 .47619)" width="60" height="20" fill="#fff" stroke="#000"/><text class="Text" transform="translate(30,13)"   font-size="10px"  text-anchor="middle"><tspan x="0" y="0">Rpl8</tspan></text></a><a  class="GeneProduct P594_ENSMUSG00000060938 " transform="translate(132,81.5)"   name="Rpl26"  ><rect class="Icon" transform="matrix(.98361 0 0 .95238 .4918 .47619)" width="60" height="20" fill="#fff" stroke="#000"/><text class="Text" transform="translate(30,13)"   font-size="10px"  text-anchor="middle"><tspan x="0" y="0">Rpl26</tspan></text></a><a  class="GeneProduct P594_ENSMUSG00000058600 " transform="translate(132 181.5)"   name="Rpl30"  ><rect class="Icon" transform="matrix(.98361 0 0 .95238 .4918 .47619)" width="60" height="20" fill="#fff" stroke="#000"/><text class="Text" transform="translate(30,13)"   font-size="10px"  text-anchor="middle"><tspan x="0" y="0">Rpl30</tspan></text></a><a  class="GeneProduct P594_ENSMUSG00000046330 " transform="translate(132,361.5)"   name="Rpl37a"  ><rect class="Icon" transform="matrix(.98361 0 0 .95238 .4918 .47619)" width="60" height="20" fill="#fff" stroke="#000"/><text class="Text" transform="translate(30,13)"   font-size="10px"  text-anchor="middle"><tspan x="0" y="0">Rpl37a</tspan></text></a><a  class="GeneProduct P594_ENSMUSG00000093674 " transform="translate(132,441.5)"   name="Rpl41"  ><rect class="Icon" transform="matrix(.98361 0 0 .95238 .4918 .47619)" width="60" height="20" fill="#fff" stroke="#000"/><text class="Text" transform="translate(30,13)"   font-size="10px"  text-anchor="middle"><tspan x="0" y="0">Rpl41</tspan></text></a><a  class="GeneProduct P594_ENSMUSG00000079435 " transform="translate(132,461.5)"   name="Rpl36a"  ><rect class="Icon" transform="matrix(.98361 0 0 .95238 .4918 .47619)" width="60" height="20" fill="#fff" stroke="#000"/><text class="Text" transform="translate(30,13)"   font-size="10px"  text-anchor="middle"><tspan x="0" y="0">Rpl36a</tspan></text></a><a  class="GeneProduct P594_ENSMUSG00000025508 " transform="translate(82 534.83)"   name="Rplp2"  ><rect class="Icon" transform="matrix(.98361 0 0 .95238 .4918 .47619)" width="60" height="20" fill="#fff" stroke="#000"/><text class="Text" transform="translate(30,13)"   font-size="10px"  text-anchor="middle"><tspan x="0" y="0">Rplp2</tspan></text></a><a  class="GeneProduct P594_ENSMUSG00000038900 " transform="translate(12,261.5)"   name="Rpl12"  ><rect class="Icon" transform="matrix(.98361 0 0 .95238 .4918 .47619)" width="60" height="20" fill="#fff" stroke="#000"/><text class="Text" transform="translate(30,13)"   font-size="10px"  text-anchor="middle"><tspan x="0" y="0">Rpl12</tspan></text></a><a  class="GeneProduct P594_ENSMUSG00000012405 " transform="translate(12,341.5)"   name="Rpl15"  ><rect class="Icon" transform="matrix(.98361 0 0 .95238 .4918 .47619)" width="60" height="20" fill="#fff" stroke="#000"/><text class="Text" transform="translate(30,13)"   font-size="10px"  text-anchor="middle"><tspan x="0" y="0">Rpl15</tspan></text></a><a  class="GeneProduct P594_ENSMUSG00000062328 " transform="translate(12,361.5)"   name="Rpl17"  ><rect class="Icon" transform="matrix(.98361 0 0 .95238 .4918 .47619)" width="60" height="20" fill="#fff" stroke="#000"/><text class="Text" transform="translate(30,13)"   font-size="10px"  text-anchor="middle"><tspan x="0" y="0">Rpl17</tspan></text></a><a  class="GeneProduct P594_ENSMUSG00000059291 " transform="translate(12 241.5)"   name="Rpl11"  ><rect class="Icon" transform="matrix(.98361 0 0 .95238 .4918 .47619)" width="60" height="20" fill="#fff" stroke="#000"/><text class="Text" transform="translate(30,13)"   font-size="10px"  text-anchor="middle"><tspan x="0" y="0">Rpl11</tspan></text></a><a  class="GeneProduct P594_ENSMUSG00000059070 " transform="translate(12,381.5)"   name="Rpl18"  ><rect class="Icon" transform="matrix(.98361 0 0 .95238 .4918 .47619)" width="60" height="20" fill="#fff" stroke="#000"/><text class="Text" transform="translate(30,13)"   font-size="10px"  text-anchor="middle"><tspan x="0" y="0">Rpl18</tspan></text></a><a  class="GeneProduct P594_ENSMUSG00000045128 " transform="translate(12,401.5)"   name="Rpl18a"  ><rect class="Icon" transform="matrix(.98361 0 0 .95238 .4918 .47619)" width="60" height="20" fill="#fff" stroke="#000"/><text class="Text" transform="translate(30,13)"   font-size="10px"  text-anchor="middle"><tspan x="0" y="0">Rpl18a</tspan></text></a><a  class="GeneProduct P594_ENSMUSG00000058546 " transform="translate(132,41.5)"   name="Rpl23a"  ><rect class="Icon" transform="matrix(.98361 0 0 .95238 .4918 .47619)" width="60" height="20" fill="#fff" stroke="#000"/><text class="Text" transform="translate(30,13)"   font-size="10px"  text-anchor="middle"><tspan x="0" y="0">Rpl23a</tspan></text></a><a  class="GeneProduct P594_ENSMUSG00000098274 " transform="translate(132,61.5)"   name="Rpl24"  ><rect class="Icon" transform="matrix(.98361 0 0 .95238 .4918 .47619)" width="60" height="20" fill="#fff" stroke="#000"/><text class="Text" transform="translate(30,13)"   font-size="10px"  text-anchor="middle"><tspan x="0" y="0">Rpl24</tspan></text></a><a  class="GeneProduct P594_ENSMUSG00000063316 " transform="translate(132,101.5)"   name="Rpl27"  ><rect class="Icon" transform="matrix(.98361 0 0 .95238 .4918 .47619)" width="60" height="20" fill="#fff" stroke="#000"/><text class="Text" transform="translate(30,13)"   font-size="10px"  text-anchor="middle"><tspan x="0" y="0">Rpl27</tspan></text></a><a  class="GeneProduct P594_ENSMUSG00000073702 " transform="translate(132 201.5)"   name="Rpl31"  ><rect class="Icon" transform="matrix(.98361 0 0 .95238 .4918 .47619)" width="60" height="20" fill="#fff" stroke="#000"/><text class="Text" transform="translate(30,13)"   font-size="10px"  text-anchor="middle"><tspan x="0" y="0">Rpl31</tspan></text></a><a  class="GeneProduct P594_ENSMUSG00000062006 " transform="translate(132,261.5)"   name="1100001I22Rik"  ><rect class="Icon" transform="matrix(.98361 0 0 .95238 .4918 .47619)" width="60" height="20" fill="#fff" stroke="#000"/><text class="Text" transform="translate(30,13)"   font-size="10px"  text-anchor="middle"><tspan x="0" y="0">1100001I22Rik</tspan></text></a><a  class="GeneProduct P594_ENSMUSG00000062997 " transform="translate(132,281.5)"   name="Rpl35"  ><rect class="Icon" transform="matrix(.98361 0 0 .95238 .4918 .47619)" width="60" height="20" fill="#fff" stroke="#000"/><text class="Text" transform="translate(30,13)"   font-size="10px"  text-anchor="middle"><tspan x="0" y="0">Rpl35</tspan></text></a><a  class="GeneProduct P594_ENSMUSG00000041841 " transform="translate(132,341.5)"   name="Rpl37"  ><rect class="Icon" transform="matrix(.98361 0 0 .95238 .4918 .47619)" width="60" height="20" fill="#fff" stroke="#000"/><text class="Text" transform="translate(30,13)"   font-size="10px"  text-anchor="middle"><tspan x="0" y="0">Rpl37</tspan></text></a><a  class="GeneProduct P594_ENSMUSG00000057322 " transform="translate(132,381.5)"   name="Rpl38"  ><rect class="Icon" transform="matrix(.98361 0 0 .95238 .4918 .47619)" width="60" height="20" fill="#fff" stroke="#000"/><text class="Text" transform="translate(30,13)"   font-size="10px"  text-anchor="middle"><tspan x="0" y="0">Rpl38</tspan></text></a><a  class="GeneProduct P594_ENSMUSG00000032399 " transform="translate(12,61.5)"   name="Rpl4"  ><rect class="Icon" transform="matrix(.98361 0 0 .95238 .4918 .47619)" width="60" height="20" fill="#fff" stroke="#000"/><text class="Text" transform="translate(30,13)"   font-size="10px"  text-anchor="middle"><tspan x="0" y="0">Rpl4</tspan></text></a><a  class="GeneProduct P594_ENSMUSG00000079641 " transform="translate(132,401.5)"   name="Rpl39"  ><rect class="Icon" transform="matrix(.98361 0 0 .95238 .4918 .47619)" width="60" height="20" fill="#fff" stroke="#000"/><text class="Text" transform="translate(30,13)"   font-size="10px"  text-anchor="middle"><tspan x="0" y="0">Rpl39</tspan></text></a><g class="GeneProduct" transform="translate(132,421.5)" color="#000"  name="L40e"><rect class="Icon" transform="matrix(.98361 0 0 .95238 .4918 .47619)" width="60" height="20" fill="#fff" stroke="#000"/><text class="Text" transform="translate(30,13)"   font-size="10px"  text-anchor="middle"><tspan x="0" y="0">L40e</tspan></text></g><g class="GeneProduct" transform="translate(12,321.5)" color="#000"  name="L14e"><rect class="Icon" transform="matrix(.98361 0 0 .95238 .4918 .47619)" width="60" height="20" fill="#fff" stroke="#000"/><text class="Text" transform="translate(30,13)"   font-size="10px"  text-anchor="middle"><tspan x="0" y="0">L14e</tspan></text></g></g><g class="GroupComplex" transform="translate(369.67 275)" color="grey" ><use class="Icon" transform="matrix(.98824 0 0 .99048 .49412 .49524)" width="84" height="104" fill="#b4b464" fill-opacity=".1" stroke="grey" xlink:href="#a"/><a  class="GeneProduct P594_ENSMUSG00000003644 " transform="translate(12,32)"   name="Rps6ka1"  ><rect class="Icon" transform="matrix(.98361 0 0 .95238 .4918 .47619)" width="60" height="20" fill="#fff" stroke="#000"/><text class="Text" transform="translate(30,13)"   font-size="10px"  text-anchor="middle"><tspan x="0" y="0">Rps6ka1</tspan></text></a><a  class="GeneProduct P594_ENSMUSG00000023809 " transform="translate(12,52)"   name="Rps6ka2"  ><rect class="Icon" transform="matrix(.98361 0 0 .95238 .4918 .47619)" width="60" height="20" fill="#fff" stroke="#000"/><text class="Text" transform="translate(30,13)"   font-size="10px"  text-anchor="middle"><tspan x="0" y="0">Rps6ka2</tspan></text></a><a  class="GeneProduct P594_ENSMUSG00000031309 " transform="translate(12,72)"   name="Rps6ka3"  ><rect class="Icon" transform="matrix(.98361 0 0 .95238 .4918 .47619)" width="60" height="20" fill="#fff" stroke="#000"/><text class="Text" transform="translate(30,13)"   font-size="10px"  text-anchor="middle"><tspan x="0" y="0">Rps6ka3</tspan></text></a><a  class="GeneProduct P594_ENSMUSG00000024830 " transform="translate(12,12)"   name="Rps6kb2"  ><rect class="Icon" transform="matrix(.98361 0 0 .95238 .4918 .47619)" width="60" height="20" fill="#fff" stroke="#000"/><text class="Text" transform="translate(30,13)"   font-size="10px"  text-anchor="middle"><tspan x="0" y="0">Rps6kb2</tspan></text></a></g><text class="Text" transform="translate(5,36)" dominant-baseline="central" fill="black"  font-size="12px" font-weight="bold" overflow="visible" ><tspan x="0" y="-18">Name: Cytoplasmic ribosomal proteins</tspan> <tspan x="0" y="0">Last Modified: 10/17/2013</tspan> <tspan x="0" y="18">Organism: Mus musculus</tspan></text></g></svg>
