<?xml version="1.0" encoding="UTF-8"?>
<!--
  WikiPathways page: https://www.wikipathways.org/index.php/Pathway:WP1771
  URL for this compressed file: https://github.com/eweitz/cachome/tree/main/data/wikipathways/WP1771.svg
  Source code for compression: https://github.com/eweitz/cachome/tree/main/src/wikipathways.py
-->
<svg class="Diagram" width="800" height="600" color="black" baseProfile="full" prefix="schema:http://schema.org/" preserveAspectRatio="xMidYMid" version="1.1" viewBox="0 0 663.45 578.42" vocab="http://vocabularies.wikipathways.org/wp#" xmlns="http://www.w3.org/2000/svg" xmlns:xlink="http://www.w3.org/1999/xlink"><style>svg {font-family: 'Liberation Sans', Arial, sans-serif; }</style><defs><filter id="a" x="0" y="0" width="663.45" height="578.42" filterUnits="userSpaceOnUse"><feColorMatrix in="SourceGraphic" values="-1   0   0 0 0                   0  -1   0 0 0                   0   0  -1 0 0                   0   0   0 1 0"/></filter><marker id="d" stroke-dasharray="99999" markerHeight="12" markerUnits="userSpaceOnUse" markerWidth="12" orient="auto" preserveAspectRatio="none" refX="12" refY="6" viewBox="0 0 12 12"><circle transform="rotate(180 6 6)" cx="6" cy="6" r="5.3" fill="none" stroke="#000"/></marker><marker id="b" stroke-dasharray="99999" markerHeight="12" markerUnits="userSpaceOnUse" markerWidth="12" orient="auto" preserveAspectRatio="none" refX="12" refY="6" viewBox="0 0 12 12"><path transform="rotate(180 6 6)" d="M12 11L0 6l12-5z" fill="currentColor" stroke-width="0"/></marker><symbol id="c" preserveAspectRatio="none" viewBox="0 0 100 100"/></defs><g class="Viewport" color="black"  name="Name: Kennedy pathway License: CC BY 2.0 Last Modified: 10/17/2013 Organism: Mus musculus"><rect class="Icon" width="663.45" height="578.42" fill="#fff" stroke="#000" stroke-width="0"/><g id="e" class="Interaction" color="#000" ><g color="#000" fill="transparent"  filter="url(#a)" stroke="#000" stroke-dasharray="49.2, 5.8"><path class="EdgeBody" d="m213.67 80-3e-14 55"   marker-end="url(#b)" /></g><g class="Burr Anchor" transform="translate(213.67 102)" ><use class="Icon" width="0" height="0" fill="#141414" stroke-width="0" xlink:href="#c"/></g></g><g id="f" class="Interaction" color="#000" ><g color="#000" fill="transparent"  filter="url(#a)" stroke="#000" stroke-dasharray="58.69253731343282, 5.8"><path class="EdgeBody" d="m453.67 154.17v64.493"   marker-end="url(#b)" /></g><g class="Burr Anchor" transform="translate(453.67 179.97)" ><use class="Icon" width="0" height="0" fill="#141414" stroke-width="0" xlink:href="#c"/></g></g><g id="g" class="Interaction" color="#000" ><g color="#000" fill="transparent"  filter="url(#a)" stroke="#000" stroke-dasharray="26.199999999999985, 5.8"><path class="EdgeBody" d="m453.67 29.333 7e-14 32"   marker-end="url(#b)" /></g><g class="Burr Anchor" transform="translate(453.67 41.791)" ><use class="Icon" width="0" height="0" fill="#141414" stroke-width="0" xlink:href="#c"/></g></g><g id="h" class="Interaction" color="#000" ><g color="#000" fill="transparent"  filter="url(#a)" stroke="#000" stroke-dasharray="57.2, 5.8"><path class="EdgeBody" d="m213.67 155 3e-14 63"   marker-end="url(#b)" /></g><g class="Burr Anchor" transform="translate(213.67 180.2)" ><use class="Icon" width="0" height="0" fill="#141414" stroke-width="0" xlink:href="#c"/></g></g><g id="i" class="Interaction" color="#000" ><g color="#000" fill="transparent"  filter="url(#a)" stroke="#000" stroke-dasharray="47.040796019900526, 5.8"><path class="EdgeBody" d="m453.67 81.333 4e-14 52.841"   marker-end="url(#b)" /></g><g class="Burr Anchor" transform="translate(453.67 102.47)" ><use class="Icon" width="0" height="0" fill="#141414" stroke-width="0" xlink:href="#c"/></g></g><g id="j" class="Interaction" color="#000" ><g color="#000" fill="transparent"  filter="url(#a)" stroke="#000" stroke-dasharray="51.33402756066267, 11"><path class="EdgeBody" d="m516 179.68-62.333 0.29419"   marker-end="url(#d)" /></g></g><g id="k" class="Interaction" color="#000" ><g color="#000" fill="transparent"  filter="url(#a)" stroke="#000" stroke-dasharray="98.95, 5.8"><path class="EdgeBody" d="m213.67 238-3e-14 104.75"   marker-end="url(#b)" /></g><g class="Burr Anchor" transform="translate(213.67 271.56)" ><use class="Icon" width="0" height="0" fill="#141414" stroke-width="0" xlink:href="#c"/></g></g><g id="l" class="Interaction" color="#000" ><g color="#000" fill="transparent"  filter="url(#a)" stroke="#000" stroke-dasharray="97.20000000000003, 5.8"><path class="EdgeBody" d="m453.67 238.67v103"   marker-end="url(#b)" /></g><g class="Burr Anchor" transform="translate(453.67 270.51)" ><use class="Icon" width="0" height="0" fill="#141414" stroke-width="0" xlink:href="#c"/></g></g><g id="m" class="Interaction" color="#000" ><g color="#000" fill="transparent"  filter="url(#a)" stroke="#000" stroke-dasharray="89.59460902474277, 5.8"><path class="EdgeBody" d="m213.67 180.2h-0.038972c-0.038972 0-0.11692 0-0.15589 3.8-0.038972 3.8-0.038972 11.4 13.722 15.2 13.761 3.8 41.284 3.8 55.045 3.8l13.761 6e-14"   marker-end="url(#b)" /></g></g><g id="n" class="Interaction" color="#000" ><g color="#000" fill="transparent"  filter="url(#a)" stroke="#000" stroke-dasharray="113.86666666666669, 5.8"><path class="EdgeBody" d="m453.67 481.33 1.1e-13 -119.67"   marker-end="url(#b)" /></g><g class="Burr Anchor" transform="translate(453.67 450.42)" ><use class="Icon" width="0" height="0" fill="#141414" stroke-width="0" xlink:href="#c"/></g></g><g id="o" class="Interaction" color="#000" ><g color="#000" fill="transparent"  filter="url(#a)" stroke="#000" stroke-dasharray="85.08086433508694, 5.8"><path class="EdgeBody" d="m453.67 179.97 0.010779-3e-14c0.010779 3e-14 0.032338 3e-14 0.043118 3.8381 0.010779 3.8381 0.010779 11.514-12.944 15.353-12.955 3.8381-38.866 3.8381-51.821 3.8381l-12.955 6e-14"   marker-end="url(#b)" /></g></g><g id="p" class="Interaction" color="#000" ><g color="#000" fill="transparent"  filter="url(#a)" stroke="#000" stroke-dasharray="108.41150508161239, 5.8"><path class="EdgeBody" d="m453.67 270.51h-0.1136c-0.1136 0-0.3408 0-0.45439 8.9147-0.1136 8.9147-0.1136 26.744-12.944 35.659-12.831 8.9147-38.493 8.9147-51.323 8.9147h-12.831"   marker-end="url(#b)" /></g></g><g id="q" class="Interaction" color="#000" ><g color="#000" fill="transparent"  filter="url(#a)" stroke="#000" stroke-dasharray="94.83414904102797, 0"><path class="EdgeBody" d="m296 80-13.761-1e-14c-13.761 1e-14 -41.284 1e-14 -55.045 3.6667-13.761 3.6667-13.761 11-13.722 14.667 0.038972 3.6667 0.11692 3.6667 0.15589 3.6667h0.038972"   /></g></g><g id="r" class="Interaction" color="#000" ><g color="#000" fill="transparent"  filter="url(#a)" stroke="#000" stroke-dasharray="21.267357345553215, 11"><path class="EdgeBody" d="m421.4 449.85 32.262 0.56343"   marker-end="url(#d)" /></g></g><g id="s" class="Interaction" color="#000" ><g color="#000" fill="transparent"  filter="url(#a)" stroke="#000" stroke-dasharray="53.40559495229374, 11"><path class="EdgeBody" d="m515 290.17-61.333-19.655"   marker-end="url(#d)" /></g></g><g id="t" class="Interaction" color="#000" ><g color="#000" fill="transparent"  filter="url(#a)" stroke="#000" stroke-dasharray="273.196913580247, 5.8"><path class="EdgeBody" d="m213.67 362.75v129.58h149.41"   marker-end="url(#b)" /></g><g class="Burr Anchor" transform="translate(258.96 492.33)" ><use class="Icon" width="0" height="0" fill="#141414" stroke-width="0" xlink:href="#c"/></g></g><g id="u" class="Interaction" color="#000" ><g color="#000" fill="transparent"  filter="url(#a)" stroke="#000" stroke-dasharray="62.23374182280676, 0"><path class="EdgeBody" d="m223.72 528.42-6e-14 -6.0348c3e-14 -6.0348 3e-14 -18.104 5.8731-24.139 5.8731-6.0348 17.619-6.0348 23.493-6.0141 5.8731 0.02073 5.8731 0.062189 5.8731 0.082919v0.02073"   /></g></g><g id="v" class="Interaction" color="#000" ><g color="#000" fill="transparent"  filter="url(#a)" stroke="#000" stroke-dasharray="61.30118212163657, 5.8"><path class="EdgeBody" d="m258.96 492.33v-0.02073c-1e-13 -0.02073-1e-13 -0.062189 6.9204-0.082919 6.9204-0.02073 20.761-0.02073 27.682 5.8897 6.9204 5.9104 6.9204 17.731 6.9204 23.642v5.9104"   marker-end="url(#b)" /></g></g><g id="w" class="Interaction" color="#000" ><g color="#000" fill="transparent"  filter="url(#a)" stroke="#000" stroke-dasharray="113.86666666666669, 5.8"><path class="EdgeBody" d="m498.96 361.67-1.3e-13 119.67"   marker-end="url(#b)" /></g><g class="Burr Anchor" transform="translate(498.96 420)" ><use class="Icon" width="0" height="0" fill="#141414" stroke-width="0" xlink:href="#c"/></g></g><g id="x" class="Interaction" color="#000" ><g color="#000" fill="transparent"  filter="url(#a)" stroke="#000" stroke-dasharray="57.05362439726851, 5.8"><path class="EdgeBody" d="m498.96 420h-0.075402c-0.075402-3e-14 -0.22621-3e-14 -0.30161 5.3707-0.075402 5.3707-0.075402 16.112 6.549 21.483 6.6244 5.3707 19.873 5.3707 26.498 5.3707l6.6244 7e-14"   marker-end="url(#b)" /></g></g><g id="y" class="Interaction" color="#000" ><g color="#000" fill="transparent"  filter="url(#a)" stroke="#000" stroke-dasharray="63.020280634524994, 0"><path class="EdgeBody" d="m536.76 386.03-6.3756-1e-13c-6.3756 4e-14 -19.127 4e-14 -25.502 5.6617-6.3756 5.6617-6.3756 16.985-6.3002 22.647 0.075402 5.6617 0.22621 5.6617 0.30161 5.6617h0.075402"   /></g></g><g id="z" class="Interaction" color="#000" ><g color="#000" fill="transparent"  filter="url(#a)" stroke="#000" stroke-dasharray="18.728518620950464, 11"><path class="EdgeBody" d="m528.69 420.33-29.727-0.32967"   marker-end="url(#d)" /></g></g><g id="aa" class="Interaction" color="#000" ><g color="#000" fill="transparent"  filter="url(#a)" stroke="#000" stroke-dasharray="13.5126249012121, 11"><path class="EdgeBody" d="m258.86 467.82 0.095771 24.512"   marker-end="url(#d)" /></g></g><g id="ab" class="Interaction" color="#000" ><g color="#000" fill="transparent"  filter="url(#a)" stroke="#000" stroke-dasharray="112.47339030340466, 5.8"><path class="EdgeBody" d="m213.67 271.56h-0.038972c-0.038972 0-0.11692 0-0.15589 8.7401-0.038972 8.7401-0.038972 26.22 13.722 34.96 13.761 8.7401 41.284 8.7401 55.045 8.7401h13.761"   marker-end="url(#b)" /></g></g><g id="ac" class="Interaction" color="#000" ><g color="#000" fill="transparent"  filter="url(#a)" stroke="#000" stroke-dasharray="5.16, 3.1, 5.16, 3.1, 5.16, 3.1, 5.16, 3.1, 5.16, 3.1, 5.16, 3.1, 5.16, 3.1, 5.16, 3.1, 5.16, 5.8"><path class="EdgeBody" d="m363.08 351.67-77.039 1.0833"   marker-end="url(#b)" /></g><g class="Burr Anchor" transform="translate(329.5 352.14)" ><use class="Icon" width="0" height="0" fill="#141414" stroke-width="0" xlink:href="#c"/></g></g><g id="ad" class="Interaction" color="#000" ><g color="#000" fill="transparent"  filter="url(#a)" stroke="#000" stroke-dasharray="72.32044245271273, 5.8"><path class="EdgeBody" d="m329.5 352.14-3e-14 0.086305c3e-14 0.086305 3e-14 0.25892-8.1315 0.34522-8.1315 0.086305-24.394 0.086305-32.526 6.8693-8.1315 6.783-8.1315 20.349-8.1315 27.132v6.783"   marker-end="url(#b)" /></g></g><g id="ae" class="Interaction" color="#000" ><g color="#000" fill="transparent"  filter="url(#a)" stroke="#000" stroke-dasharray="71.60283643552617, 0"><path class="EdgeBody" d="m329.5 352.14-3e-14 0.086305c3e-14 0.086305 3e-14 0.25892 6.7723 0.34522 6.7723 0.086305 20.317 0.086305 27.089 6.9936 6.7723 6.9073 6.7723 20.722 6.7723 27.629l7e-14 6.9073"   /></g></g><g id="af" class="Interaction" color="#000" ><g color="#000" fill="transparent"  filter="url(#a)" stroke="#000" stroke-dasharray="31.213073931398924, 11"><path class="EdgeBody" d="m329.04 394.35 0.45542-42.211"   marker-end="url(#d)" /></g></g><g id="ag" class="Interaction" color="#000" ><g color="#000" fill="transparent"  filter="url(#a)" stroke="#000" stroke-dasharray="97.9114091628923, 0"><path class="EdgeBody" d="m376 238 12.955-3e-14c12.955 3e-14 38.866 3e-14 51.821 5.4187 12.955 5.4187 12.955 16.256 12.944 21.675-0.010779 5.4187-0.032338 5.4187-0.043118 5.4187h-0.010779"   /></g></g><g id="ah" class="Interaction" color="#000" ><g color="#000" fill="transparent"  filter="url(#a)" stroke="#000" stroke-dasharray="89.69309259227157, 0"><path class="EdgeBody" d="m375 160 13.122-3e-14c13.122 3e-14 39.366 3e-14 52.488 3.3285 13.122 3.3285 13.122 9.9856 13.111 13.314-0.010779 3.3285-0.032338 3.3285-0.043118 3.3285l-0.010779 3e-14"   /></g></g><g id="ai" class="Interaction" color="#000" ><g color="#000" fill="transparent"  filter="url(#a)" stroke="#000" stroke-dasharray="103.2949190969173, 0"><path class="EdgeBody" d="m296 238-13.761-3e-14c-13.761 3e-14 -41.284 3e-14 -55.045 5.5932-13.761 5.5932-13.761 16.78-13.722 22.373 0.038972 5.5932 0.11692 5.5932 0.15589 5.5932h0.038972"   /></g></g><g id="aj" class="Interaction" color="#000" ><g color="#000" fill="transparent"  filter="url(#a)" stroke="#000" stroke-dasharray="49.84089447268682, 11"><path class="EdgeBody" d="m514.51 41.682-60.841 0.10945"   marker-end="url(#d)" /></g></g><g id="ak" class="Interaction" color="#000" ><g color="#000" fill="transparent"  filter="url(#a)" stroke="#000" stroke-dasharray="92.6248249314519, 0"><path class="EdgeBody" d="m295 160-13.595-3e-14c-13.595 3e-14 -40.784 3e-14 -54.378 3.3667-13.595 3.3667-13.595 10.1-13.556 13.467 0.038972 3.3667 0.11692 3.3667 0.15589 3.3667h0.038972"   /></g></g><g id="al" class="Interaction" color="#000" ><g color="#000" fill="transparent"  filter="url(#a)" stroke="#000" stroke-dasharray="75.33356499325407, 11"><path class="EdgeBody" d="m127.33 180 86.333 0.2"   marker-end="url(#d)" /></g></g><g id="am" class="Interaction" color="#000" ><g color="#000" fill="transparent"  filter="url(#a)" stroke="#000" stroke-dasharray="87.37638847069779, 5.8"><path class="EdgeBody" d="m213.67 102h-0.038972c-0.038972 0-0.11692 0-0.15589 3.5-0.038972 3.5-0.038972 10.5 13.556 14 13.595 3.5 40.784 3.5 54.378 3.5h13.595"   marker-end="url(#b)" /></g></g><g id="an" class="Interaction" color="#000" ><g color="#000" fill="transparent"  filter="url(#a)" stroke="#000" stroke-dasharray="90.48248307197288, 0"><path class="EdgeBody" d="m376 80 12.955-1e-14c12.955 1e-14 38.866 1e-14 51.821 3.7449 12.955 3.7449 12.955 11.235 12.944 14.98s-0.032338 3.7449-0.043118 3.7449h-0.010779"   /></g></g><g id="ao" class="Interaction" color="#000" ><g color="#000" fill="transparent"  filter="url(#a)" stroke="#000" stroke-dasharray="83.79119035637503, 5.8"><path class="EdgeBody" d="m453.67 102.47h-0.1136c-0.1136 0-0.3408 0-0.45439 3.4217-0.1136 3.4217-0.1136 10.265-13.111 13.687-12.998 3.4217-38.993 3.4217-51.99 3.4217h-12.998"   marker-end="url(#b)" /></g></g><g id="ap" class="Interaction" color="#000" ><g color="#000" fill="transparent"  filter="url(#a)" stroke="#000" stroke-dasharray="43.3401974325041, 11"><path class="EdgeBody" d="m508 103.33-54.333-0.86368"   marker-end="url(#d)" /></g></g><g id="aq" class="Interaction" color="#000" ><g color="#000" fill="transparent"  filter="url(#a)" stroke="#000" stroke-dasharray="61.47499131771845, 11"><path class="EdgeBody" d="m144.33 292.67 69.333-21.107"   marker-end="url(#d)" /></g></g><g id="ar" class="Interaction" color="#000" ><g color="#000" fill="transparent"  filter="url(#a)" stroke="#000" stroke-dasharray="67.33423093457353, 11"><path class="EdgeBody" d="m135.33 102.37 78.333-0.375"   marker-end="url(#d)" /></g></g><a class="KEGG_Compound_C00189 Metabolite ChEBI_CHEBI_16000  " transform="translate(406.77 61.333)" color="#00f"  name="Ethanolamine"  ><rect class="Icon" transform="matrix(.98945 0 0 .95238 .49473 .47619)" width="93.796" height="20" rx="15" ry="15" fill="#fff" stroke="#00f"/><text class="Text" transform="translate(46.898 14)" fill="#00f"  font-size="12px"  text-anchor="middle"><tspan x="0" y="0">Ethanolamine</tspan></text></a><a class="KEGG_Compound_C00019 Metabolite ChEBI_CHEBI_15414 ChEBI_CHEBI_67040   " transform="translate(361.57 394.1)" color="#00f"  name="SAM"  ><rect class="Icon" transform="matrix(.97163 0 0 .95238 .48582 .47619)" width="34.25" height="20" rx="15" ry="15" fill="#fff" stroke="#00f"/><text class="Text" transform="translate(17.125,14)" fill="#00f"  font-size="12px"  text-anchor="middle"><tspan x="0" y="0">SAM</tspan></text></a><a  class="GeneProduct P594_ENSMUSG00000023452 " transform="translate(341.4 439.85)"   name="Pisd"  ><rect class="Icon" transform="matrix(.98765 0 0 .95238 .49383 .47619)" width="80" height="20" fill="#fff" stroke="#000"/><text class="Text" transform="translate(40,14)"   font-size="12px"  text-anchor="middle"><tspan x="0" y="0">Pisd</tspan></text></a><a class="ChEBI_CHEBI_18361 Metabolite  " transform="translate(296,193)" color="#00f"  name="PPi"  ><rect class="Icon" transform="matrix(.98765 0 0 .95238 .49383 .47619)" width="80" height="20" rx="15" ry="15" fill="#fff" stroke="#00f"/><text class="Text" transform="translate(40,14)" fill="#00f"  font-size="12px"  text-anchor="middle"><tspan x="0" y="0">PPi</tspan></text></a><a  class="GeneProduct P594_ENSMUSG00000040774 " transform="translate(515 280.17)"   name="Cept1"  ><rect class="Icon" transform="matrix(.98765 0 0 .95238 .49383 .47619)" width="80" height="20" fill="#fff" stroke="#000"/><text class="Text" transform="translate(40,14)"   font-size="12px"  text-anchor="middle"><tspan x="0" y="0">Cept1</tspan></text></a><a class="ChEBI_CHEBI_18132 Metabolite  " transform="translate(159.67 135)" color="#00f"  name="Phosphocholine"  ><rect class="Icon" transform="matrix(.99083 0 0 .95238 .49541 .47619)" width="108" height="20" rx="15" ry="15" fill="#fff" stroke="#00f"/><text class="Text" transform="translate(54,14)" fill="#00f"  font-size="12px"  text-anchor="middle"><tspan x="0" y="0">Phosphocholine</tspan></text></a><a class="ChEBI_CHEBI_26739 Metabolite  " transform="translate(408.26 9.3333)" color="#00f"  name="Sphingolipids"  ><rect class="Icon" transform="matrix(.98911 0 0 .95238 .49455 .47619)" width="90.811" height="20" rx="15" ry="15" fill="#fff" stroke="#00f"/><text class="Text" transform="translate(45.405 14)" fill="#00f"  font-size="12px"  text-anchor="middle"><tspan x="0" y="0">Sphingolipids</tspan></text></a><a  class="GeneProduct P594_ENSMUSG00000000301 " transform="translate(305.92 394.35)"   name="Pemt"  ><rect class="Icon" transform="matrix(.97884 0 0 .95238 .48942 .47619)" width="46.25" height="20" fill="#fff" stroke="#000"/><text class="Text" transform="translate(23.125,14)"   font-size="12px"  text-anchor="middle"><tspan x="0" y="0">Pemt</tspan></text></a><a class="KEGG_Compound_C02737 Metabolite ChEBI_CHEBI_11750  " transform="translate(363.08 481.33)" color="#00f"  name="Phosphatidylserine"  ><rect class="Icon" transform="matrix(.99451 0 0 .95652 .49726 .47826)" width="181.17" height="22" rx="15" ry="15" fill="#fff" stroke="#00f"/><text class="Text" transform="translate(90.586 15)" fill="#00f"  font-size="12px"  text-anchor="middle"><tspan x="0" y="0">Phosphatidylserine</tspan></text></a><a class="KEGG_Compound_C00350 Metabolite ChEBI_CHEBI_64612 ChEBI_CHEBI_64674 ChEBI_CHEBI_16038   " transform="translate(363.08 341.67)" color="#00f"  name="Phosphatidylethanolamine"  ><rect class="Icon" transform="matrix(.99451 0 0 .95238 .49726 .47619)" width="181.17" height="20" rx="15" ry="15" fill="#fff" stroke="#00f"/><text class="Text" transform="translate(90.586 14)" fill="#00f"  font-size="12px"  text-anchor="middle"><tspan x="0" y="0">Phosphatidylethanolamine</tspan></text></a><a class="KEGG_Compound_C00021 Metabolite ChEBI_CHEBI_57856 ChEBI_CHEBI_16680   " transform="translate(263.59 393.35)" color="#00f"  name="SAH"  ><rect class="Icon" transform="matrix(.97163 0 0 .95238 .48582 .47619)" width="34.25" height="20" rx="15" ry="15" fill="#fff" stroke="#00f"/><text class="Text" transform="translate(17.125,14)" fill="#00f"  font-size="12px"  text-anchor="middle"><tspan x="0" y="0">SAH</tspan></text></a><g class="Metabolite" transform="translate(298,252.5)" color="#00f"  name="DAG"><rect class="Icon" transform="matrix(.98765 0 0 .95556 .49383 .47778)" width="80" height="21.5" rx="15" ry="15" fill="#fff" stroke="#00f"/><text class="Text" transform="translate(40,14.75)" fill="#00f"  font-size="12px"  text-anchor="middle"><tspan x="0" y="0">DAG</tspan></text></g><a class="ChEBI_CHEBI_17361 Metabolite  " transform="translate(296,314)" color="#00f"  name="CMP"  ><rect class="Icon" transform="matrix(.98765 0 0 .95238 .49383 .47619)" width="80" height="20" rx="15" ry="15" fill="#fff" stroke="#00f"/><text class="Text" transform="translate(40,14)" fill="#00f"  font-size="12px"  text-anchor="middle"><tspan x="0" y="0">CMP</tspan></text></a><a class="CAS_1927-31-7 Metabolite ChEBI_CHEBI_16284  " transform="translate(295,113)" color="#00f"  name="ATP"  ><rect class="Icon" transform="matrix(.98765 0 0 .95238 .49383 .47619)" width="80" height="20" rx="15" ry="15" fill="#fff" stroke="#00f"/><text class="Text" transform="translate(40,14)" fill="#00f"  font-size="12px"  text-anchor="middle"><tspan x="0" y="0">ATP</tspan></text></a><a  class="GeneProduct P594_ENSMUSG00000020097 " transform="translate(514.51 31.682)"   name="Sgpl1"  ><rect class="Icon" transform="matrix(.98765 0 0 .95238 .49383 .47619)" width="80" height="20" fill="#fff" stroke="#000"/><text class="Text" transform="translate(40,14)"   font-size="12px"  text-anchor="middle"><tspan x="0" y="0">Sgpl1</tspan></text></a><a  class="GeneProduct P594_ENSMUSG00000021518 " transform="translate(218.86 447.82)"   name="Ptdss1"  ><rect class="Icon" transform="matrix(.98765 0 0 .95238 .49383 .47619)" width="80" height="20" fill="#fff" stroke="#000"/><text class="Text" transform="translate(40,14)"   font-size="12px"  text-anchor="middle"><tspan x="0" y="0">Ptdss1</tspan></text></a><a class="CAS_8002-43-5 Metabolite ChEBI_CHEBI_18303 ChEBI_CHEBI_61995 ChEBI_CHEBI_16110 ChEBI_CHEBI_49183   " transform="translate(141.29 342.75)" color="#00f"  name="Phosphatidylcholines"  ><rect class="Icon" transform="matrix(.99314 0 0 .95238 .49657 .47619)" width="144.75" height="20" rx="15" ry="15" fill="#fff" stroke="#00f"/><text class="Text" transform="translate(72.375,14)" fill="#00f"  font-size="12px"  text-anchor="middle"><tspan x="0" y="0">Phosphatidylcholines</tspan></text></a><a class="KEGG_Compound_C00189 Metabolite ChEBI_CHEBI_16000  " transform="translate(538.25 442.22)" color="#00f"  name="Ethanolamine"  ><rect class="Icon" transform="matrix(.9896 0 0 .95238 .4948 .47619)" width="95.194" height="20" rx="15" ry="15" fill="#fff" stroke="#00f"/><text class="Text" transform="translate(47.597 14)" fill="#00f"  font-size="12px"  text-anchor="middle"><tspan x="0" y="0">Ethanolamine</tspan></text></a><a class="KEGG_Compound_C00065 Metabolite ChEBI_CHEBI_33384 ChEBI_CHEBI_17115   " transform="translate(536.76 376.03)" color="#00f"  name="L-Serine"  ><rect class="Icon" transform="matrix(.9896 0 0 .95238 .4948 .47619)" width="95.194" height="20" rx="15" ry="15" fill="#fff" stroke="#00f"/><text class="Text" transform="translate(47.597 14)" fill="#00f"  font-size="12px"  text-anchor="middle"><tspan x="0" y="0">L-Serine</tspan></text></a><a class="CAS_58-64-0 Metabolite ChEBI_CHEBI_16761  " transform="translate(296,70)" color="#00f"  name="ADP"  ><rect class="Icon" transform="matrix(.98765 0 0 .95238 .49383 .47619)" width="80" height="20" rx="15" ry="15" fill="#fff" stroke="#00f"/><text class="Text" transform="translate(40,14)" fill="#00f"  font-size="12px"  text-anchor="middle"><tspan x="0" y="0">ADP</tspan></text></a><a class="KEGG_Compound_C00307 Metabolite ChEBI_CHEBI_16436  " transform="translate(173.67 218)" color="#00f"  name="CDP-choline"  ><rect class="Icon" transform="matrix(.98765 0 0 .95238 .49383 .47619)" width="80" height="20" rx="15" ry="15" fill="#fff" stroke="#00f"/><text class="Text" transform="translate(40,14)" fill="#00f"  font-size="12px"  text-anchor="middle"><tspan x="0" y="0">CDP-choline</tspan></text></a><a class="KEGG_Compound_C00065 Metabolite ChEBI_CHEBI_33384 ChEBI_CHEBI_17115   " transform="translate(183.72 528.42)" color="#00f"  name="L-Serine"  ><rect class="Icon" transform="matrix(.98765 0 0 .95238 .49383 .47619)" width="80" height="20" rx="15" ry="15" fill="#fff" stroke="#00f"/><text class="Text" transform="translate(40,14)" fill="#00f"  font-size="12px"  text-anchor="middle"><tspan x="0" y="0">L-Serine</tspan></text></a><a  class="GeneProduct P594_ENSMUSG00000025137 " transform="translate(516 169.68)"   name="Pcyt2"  ><rect class="Icon" transform="matrix(.98765 0 0 .95238 .49383 .47619)" width="80" height="20" fill="#fff" stroke="#000"/><text class="Text" transform="translate(40,14)"   font-size="12px"  text-anchor="middle"><tspan x="0" y="0">Pcyt2</tspan></text></a><a class="KEGG_Compound_C00114 Metabolite ChEBI_CHEBI_15354  " transform="translate(173.67 60)" color="#00f"  name="Choline"  ><rect class="Icon" transform="matrix(.98765 0 0 .95238 .49383 .47619)" width="80" height="20" rx="15" ry="15" fill="#fff" stroke="#00f"/><text class="Text" transform="translate(40,14)" fill="#00f"  font-size="12px"  text-anchor="middle"><tspan x="0" y="0">Choline</tspan></text></a><a class="KEGG_Compound_C00114 Metabolite ChEBI_CHEBI_15354  " transform="translate(280.48 527.67)" color="#00f"  name="Choline"  ><rect class="Icon" transform="matrix(.98765 0 0 .95238 .49383 .47619)" width="80" height="20" rx="15" ry="15" fill="#fff" stroke="#00f"/><text class="Text" transform="translate(40,14)" fill="#00f"  font-size="12px"  text-anchor="middle"><tspan x="0" y="0">Choline</tspan></text></a><a  class="GeneProduct P594_ENSMUSG00000060002 " transform="translate(47.333 170)"   name="Chpt1"  ><rect class="Icon" transform="matrix(.98765 0 0 .95238 .49383 .47619)" width="80" height="20" fill="#fff" stroke="#000"/><text class="Text" transform="translate(40,14)"   font-size="12px"  text-anchor="middle"><tspan x="0" y="0">Chpt1</tspan></text></a><a  class="GeneProduct P594_ENSMUSG00000025495 " transform="translate(528.69 410.33)"   name="Ptdss2"  ><rect class="Icon" transform="matrix(.98765 0 0 .95238 .49383 .47619)" width="80" height="20" fill="#fff" stroke="#000"/><text class="Text" transform="translate(40,14)"   font-size="12px"  text-anchor="middle"><tspan x="0" y="0">Ptdss2</tspan></text></a><a class="KEGG_Compound_C00346 Metabolite ChEBI_CHEBI_17553  " transform="translate(374.19 134.17)" color="#00f"  name="O-Phosphoethanolamine"  ><rect class="Icon" transform="matrix(.99375 0 0 .95238 .49687 .47619)" width="158.96" height="20" rx="15" ry="15" fill="#fff" stroke="#00f"/><text class="Text" transform="translate(79.481 14)" fill="#00f"  font-size="12px"  text-anchor="middle"><tspan x="0" y="0">O-Phosphoethanolamine</tspan></text></a><a class="ChEBI_CHEBI_73318 Metabolite  " transform="translate(296,228)" color="#00f"  name="AAG"  ><rect class="Icon" transform="matrix(.98765 0 0 .95238 .49383 .47619)" width="80" height="20" rx="15" ry="15" fill="#fff" stroke="#00f"/><text class="Text" transform="translate(40,14)" fill="#00f"  font-size="12px"  text-anchor="middle"><tspan x="0" y="0">AAG</tspan></text></a><a class="KEGG_Compound_C00570 Metabolite ChEBI_CHEBI_16732  " transform="translate(392.67 218.67)" color="#00f"  name="CDP-Ethanolamine"  ><rect class="Icon" transform="matrix(.99187 0 0 .95238 .49593 .47619)" width="122" height="20" rx="15" ry="15" fill="#fff" stroke="#00f"/><text class="Text" transform="translate(61,14)" fill="#00f"  font-size="12px"  text-anchor="middle"><tspan x="0" y="0">CDP-Ethanolamine</tspan></text></a><a class="CAS_2056-98-6 Metabolite ChEBI_CHEBI_16311  " transform="translate(295,150)" color="#00f"  name="CTP"  ><rect class="Icon" transform="matrix(.98765 0 0 .95238 .49383 .47619)" width="80" height="20" rx="15" ry="15" fill="#fff" stroke="#00f"/><text class="Text" transform="translate(40,14)" fill="#00f"  font-size="12px"  text-anchor="middle"><tspan x="0" y="0">CTP</tspan></text></a><g class="GroupGroup" transform="translate(508 75.333)" color="grey" ><use class="Icon" width="96" height="56" fill="transparent"  stroke="grey" stroke-dasharray="5,3" stroke-width="0" xlink:href="#c"/><a  class="GeneProduct P594_ENSMUSG00000030275 " transform="translate(8,8)"   name="Etnk1"  ><rect class="Icon" transform="matrix(.98765 0 0 .95238 .49383 .47619)" width="80" height="20" fill="#fff" stroke="#000"/><text class="Text" transform="translate(40,14)"   font-size="12px"  text-anchor="middle"><tspan x="0" y="0">Etnk1</tspan></text></a><a  class="GeneProduct P594_ENSMUSG00000070644 " transform="translate(8,28)"   name="Etnk2"  ><rect class="Icon" transform="matrix(.98765 0 0 .95238 .49383 .47619)" width="80" height="20" fill="#fff" stroke="#000"/><text class="Text" transform="translate(40,14)"   font-size="12px"  text-anchor="middle"><tspan x="0" y="0">Etnk2</tspan></text></a></g><g class="GroupGroup" transform="translate(48.333 264.67)" color="grey" ><use class="Icon" width="96" height="55.99999999999926" fill="transparent"  stroke="grey" stroke-dasharray="5,3" stroke-width="0" xlink:href="#c"/><a  class="GeneProduct P594_ENSMUSG00000035246 " transform="translate(8,8)"   name="Pcyt1b"  ><rect class="Icon" transform="matrix(.98765 0 0 .95238 .49383 .47619)" width="80" height="20" fill="#fff" stroke="#000"/><text class="Text" transform="translate(40,14)"   font-size="12px"  text-anchor="middle"><tspan x="0" y="0">Pcyt1b</tspan></text></a><a  class="GeneProduct P594_ENSMUSG00000005615 " transform="translate(8 28)"   name="Pcyt1a"  ><rect class="Icon" transform="matrix(.98765 0 0 .95238 .49383 .47619)" width="80" height="20" fill="#fff" stroke="#000"/><text class="Text" transform="translate(40,14)"   font-size="12px"  text-anchor="middle"><tspan x="0" y="0">Pcyt1a</tspan></text></a></g><g class="GroupGroup" transform="translate(39.333 75.25)" color="grey" ><use class="Icon" width="96" height="54.25" fill="transparent"  stroke="grey" stroke-dasharray="5,3" stroke-width="0" xlink:href="#c"/><a  class="GeneProduct P594_ENSMUSG00000022617 " transform="translate(8,8)"   name="Chkb"  ><rect class="Icon" transform="matrix(.98765 0 0 .95238 .49383 .47619)" width="80" height="20" fill="#fff" stroke="#000"/><text class="Text" transform="translate(40,14)"   font-size="12px"  text-anchor="middle"><tspan x="0" y="0">Chkb</tspan></text></a><a  class="GeneProduct P594_ENSMUSG00000024843 " transform="translate(8,26.25)"   name="Chka"  ><rect class="Icon" transform="matrix(.98765 0 0 .95238 .49383 .47619)" width="80" height="20" fill="#fff" stroke="#000"/><text class="Text" transform="translate(40,14)"   font-size="12px"  text-anchor="middle"><tspan x="0" y="0">Chka</tspan></text></a></g><g id="as" class="Interaction" color="#000" ><g color="#000" fill="transparent"  filter="url(#a)" stroke="#000" stroke-dasharray="86.03567809036501, 0"><path class="EdgeBody" d="m298 263.25h-12c-12 0-36 0-48 1.3849-12 1.3849-12 4.1547-14.056 5.5397-2.0556 1.3849-6.1667 1.3849-8.2222 1.3849h-2.0556"   /></g></g><g id="at" class="Interaction" color="#000" ><g color="#000" fill="transparent"  filter="url(#a)" stroke="#000" stroke-dasharray="77.69361754999035, 0"><path class="EdgeBody" d="m378 263.25h12c12 0 36 0 48 1.2103s12 3.631 12.611 4.8414c0.61111 1.2103 1.8333 1.2103 2.4444 1.2103h0.61111"   /></g></g><text class="Text" transform="translate(5,45)" dominant-baseline="central" fill="black"  font-size="12px" font-weight="bold" overflow="visible" ><tspan x="0" y="-27">Name: Kennedy pathway</tspan> <tspan x="0" y="-9">License: CC BY 2.0</tspan> <tspan x="0" y="9">Last Modified: 10/17/2013</tspan> <tspan x="0" y="27">Organism: Mus musculus</tspan></text></g></svg>
