<?xml version="1.0" encoding="UTF-8"?>
<!--
  WikiPathways page: https://www.wikipathways.org/index.php/Pathway:WP18
  URL for this compressed file: https://github.com/eweitz/cachome/tree/main/data/wikipathways/WP18.svg
  Source code for compression: https://github.com/eweitz/cachome/tree/main/src/wikipathways.py
-->
<svg class="Diagram" width="800" height="600" color="black" baseProfile="full" prefix="schema:http://schema.org/" preserveAspectRatio="xMidYMid" version="1.1" viewBox="0 0 813.5 778" vocab="http://vocabularies.wikipathways.org/wp#" xmlns="http://www.w3.org/2000/svg" xmlns:xlink="http://www.w3.org/1999/xlink"><style>svg {font-family: 'Liberation Sans', Arial, sans-serif; }</style><defs><filter id="c" x="0" y="0" width="813.5" height="778" filterUnits="userSpaceOnUse"><feColorMatrix in="SourceGraphic" values="-1   0   0 0 0                   0  -1   0 0 0                   0   0  -1 0 0                   0   0   0 1 0"/></filter><filter id="d" x="0" y="0" width="813.5" height="778" filterUnits="userSpaceOnUse"><feColorMatrix in="SourceGraphic" values="-1   0   0 0 1                   0  -1   0 0 0                   0   0  -1 0 0                   0   0   0 1 0"/></filter><marker id="b" stroke-dasharray="99999" markerHeight="12" markerUnits="userSpaceOnUse" markerWidth="12" orient="auto" preserveAspectRatio="none" refX="12" refY="6" viewBox="0 0 12 12"><path transform="rotate(180 6 6)" d="M12 11L0 6l12-5z" fill="currentColor" stroke-width="0"/></marker><symbol id="a" preserveAspectRatio="none" viewBox="0 0 100 100"/></defs><g class="Viewport" color="black"  name="Name: Heme biosynthesis Organism: Mus musculus"><rect class="Icon" width="813.5" height="778" fill="#fff" stroke="#000" stroke-width="0"/><g id="e" class="DirectedInteraction" color="#000" ><g color="#000" fill="transparent"  filter="url(#c)" stroke="#000" stroke-dasharray="43.533333333333374, 5.8"><path class="EdgeBody" d="m317.67 330.33v49.333"   marker-end="url(#b)" /></g><g class="Burr Anchor" transform="translate(317.67 358.57)" ><use class="Icon" width="0" height="0" fill="#141414" stroke-width="0" xlink:href="#a"/></g><g class="Burr Anchor" transform="translate(317.67 350.07)" ><use class="Icon" width="0" height="0" fill="#141414" stroke-width="0" xlink:href="#a"/></g></g><g id="f" class="DirectedInteraction" color="#000" ><g color="#000" fill="transparent"  filter="url(#c)" stroke="#000" stroke-dasharray="63.2, 5.8"><path class="EdgeBody" d="m316.67 473v69"   marker-end="url(#b)" /></g><g class="Burr Anchor" transform="translate(316.67 494.45)" ><use class="Icon" width="0" height="0" fill="#141414" stroke-width="0" xlink:href="#a"/></g><g class="Burr Anchor" transform="translate(316.67 522.42)" ><use class="Icon" width="0" height="0" fill="#141414" stroke-width="0" xlink:href="#a"/></g><g class="Burr Anchor" transform="translate(316.67 505.64)" ><use class="Icon" width="0" height="0" fill="#141414" stroke-width="0" xlink:href="#a"/></g></g><g id="g" class="Interaction" color="#000" ><g color="#000" fill="transparent"  filter="url(#c)" stroke="#000" stroke-dasharray="118.5135347583745, 0"><path class="EdgeBody" d="m207 477h18.333c18.333 0 55 0 73.333 2.9077 18.333 2.9077 18.333 8.723 18.278 11.631-0.055556 2.9077-0.16667 2.9077-0.22222 2.9077l-0.055556 4e-14"   /></g></g><g id="h" class="DirectedInteraction" color="#000" ><g color="#000" fill="transparent"  filter="url(#c)" stroke="#000" stroke-dasharray="55.54148496554168, 5.8"><path class="EdgeBody" d="m317.67 395.67-1 61.333"   marker-end="url(#b)" /></g><g class="Burr Anchor" transform="translate(317.04 434.27)" ><use class="Icon" width="0" height="0" fill="#141414" stroke-width="0" xlink:href="#a"/></g><g class="Burr Anchor" transform="translate(317.27 420.2)" ><use class="Icon" width="0" height="0" fill="#141414" stroke-width="0" xlink:href="#a"/></g></g><g id="i" class="DirectedInteraction" color="#f00" ><g color="#f00" fill="transparent"  filter="url(#d)" stroke="#000" stroke-dasharray="122.24232678047444, 5.8"><path class="EdgeBody" d="m317.04 434.27-0.0061999-7e-14c-0.0061999 7e-14 -0.0186 7e-14 -0.024799 2.2877-0.0061999 2.2877-0.0061999 6.863 20.327 9.1507 20.333 2.2877 61 2.2877 81.333 2.2877l20.333 1e-13"   marker-end="url(#b)" /></g></g><g id="j" class="DirectedInteraction" color="#000" ><g color="#000" fill="transparent"  filter="url(#c)" stroke="#000" stroke-dasharray="6.739714687521549, 5.8"><path class="EdgeBody" d="m317.67 407.67-0.4 12.533"   marker-end="url(#b)" /></g></g><g id="k" class="DirectedInteraction" color="#000" ><g color="#000" fill="transparent"  filter="url(#c)" stroke="#000" stroke-dasharray="68.2, 5.8"><path class="EdgeBody" d="m316.67 558v74"   marker-end="url(#b)" /></g><g class="Burr Anchor" transform="translate(316.67 577.53)" ><use class="Icon" width="0" height="0" fill="#141414" stroke-width="0" xlink:href="#a"/></g><g class="Burr Anchor" transform="translate(316.67 611.44)" ><use class="Icon" width="0" height="0" fill="#141414" stroke-width="0" xlink:href="#a"/></g><g class="Burr Anchor" transform="translate(316.67 595.01)" ><use class="Icon" width="0" height="0" fill="#141414" stroke-width="0" xlink:href="#a"/></g></g><g id="l" class="DirectedInteraction" color="#000" ><g color="#000" fill="transparent"  filter="url(#c)" stroke="#000" stroke-dasharray="5.571336796691313, 5.8"><path class="EdgeBody" d="m319.67 494.67-3 10.968"   marker-end="url(#b)" /></g></g><g id="m" class="DirectedInteraction" color="#000" ><g color="#000" fill="transparent"  filter="url(#c)" stroke="#000" stroke-dasharray="86.87206219304234, 5.8"><path class="EdgeBody" d="m318.67 24.667-1 92.667"   marker-end="url(#b)" /></g><g class="Burr Anchor" transform="translate(318.36 53.309)" ><use class="Icon" width="0" height="0" fill="#141414" stroke-width="0" xlink:href="#a"/></g><g class="Burr Anchor" transform="translate(318.1 77.318)" ><use class="Icon" width="0" height="0" fill="#141414" stroke-width="0" xlink:href="#a"/></g></g><g id="n" class="DirectedInteraction" color="#f00" ><g color="#f00" fill="transparent"  filter="url(#d)" stroke="#000" stroke-dasharray="120.95902926436678, 5.8"><path class="EdgeBody" d="m317.67 358.57h0.055556c0.055556 0 0.16667 0 0.22222 2.7379 0.055556 2.7379 0.055556 8.2138 19.889 10.952 19.833 2.7379 59.5 2.7379 79.333 2.7379h19.833"   marker-end="url(#b)" /></g></g><g id="o" class="Interaction" color="#000" ><g color="#000" fill="transparent"  filter="url(#c)" stroke="#000" stroke-dasharray="104.02816763982882, 0"><path class="EdgeBody" d="m222 562 16-1e-13c16 1e-13 48 1e-13 64 2.588 16 2.588 16 7.7639 15.778 10.352-0.22222 2.588-0.66667 2.588-0.88889 2.588h-0.22222"   /></g></g><g id="p" class="DirectedInteraction" color="#000" ><g color="#000" fill="transparent"  filter="url(#c)" stroke="#000" stroke-dasharray="4.971430439853134, 5.8"><path class="EdgeBody" d="m319.67 584.67-3 10.345"   marker-end="url(#b)" /></g></g><g id="q" class="DirectedInteraction" color="#000" ><g color="#000" fill="transparent"  filter="url(#c)" stroke="#000" stroke-dasharray="3.9333333333333487, 5.8"><path class="EdgeBody" d="m317.67 340.33v9.7333"   marker-end="url(#b)" /></g></g><g id="r" class="DirectedInteraction" color="#000" ><g color="#000" fill="transparent"  filter="url(#c)" stroke="#000" stroke-dasharray="78.20595217006948, 5.8"><path class="EdgeBody" d="m316.67 648 1 84"   marker-end="url(#b)" /></g><g class="Burr Anchor" transform="translate(316.91 668.07)" ><use class="Icon" width="0" height="0" fill="#141414" stroke-width="0" xlink:href="#a"/></g><g class="Burr Anchor" transform="translate(317.32 702.64)" ><use class="Icon" width="0" height="0" fill="#141414" stroke-width="0" xlink:href="#a"/></g><g class="Burr Anchor" transform="translate(317.07 681.6)" ><use class="Icon" width="0" height="0" fill="#141414" stroke-width="0" xlink:href="#a"/></g></g><g id="s" class="Interaction" color="#000" ><g color="#000" fill="transparent"  filter="url(#c)" stroke="#000" stroke-dasharray="117.41338827579625, 0"><path class="EdgeBody" d="m206 654h18.5c18.5 0 55.5 0 74 2.3451s18.5 7.0354 18.484 9.3805c-0.015733 2.3451-0.047198 2.3451-0.06293 2.3451l-0.015733 1e-13"   /></g></g><g id="t" class="DirectedInteraction" color="#000" ><g color="#000" fill="transparent"  filter="url(#c)" stroke="#000" stroke-dasharray="3.603781745186928, 5.8"><path class="EdgeBody" d="m318.67 672.33-1.6 9.2667"   marker-end="url(#b)" /></g></g><g id="u" class="DirectedInteraction" color="#000" ><g color="#000" fill="transparent"  filter="url(#c)" stroke="#000" stroke-dasharray="76.20000000000003, 5.8"><path class="EdgeBody" d="m317.67 133.33-7e-14 82"   marker-end="url(#b)" /></g><g class="Burr Anchor" transform="translate(317.67 155.72)" ><use class="Icon" width="0" height="0" fill="#141414" stroke-width="0" xlink:href="#a"/></g><g class="Burr Anchor" transform="translate(317.67 176.22)" ><use class="Icon" width="0" height="0" fill="#141414" stroke-width="0" xlink:href="#a"/></g><g class="Burr Anchor" transform="translate(317.67 189.88)" ><use class="Icon" width="0" height="0" fill="#141414" stroke-width="0" xlink:href="#a"/></g></g><g id="v" class="Interaction" color="#000" ><g color="#000" fill="transparent"  filter="url(#c)" stroke="#000" stroke-dasharray="137.24106288479214, 0"><path class="EdgeBody" d="m192 133.33h21c21-3e-14 63-3e-14 84 3.7314 21 3.7314 21 11.194 20.944 14.926-0.055556 3.7314-0.16667 3.7314-0.22222 3.7314h-0.055556"   /></g></g><g id="w" class="DirectedInteraction" color="#f00" ><g color="#f00" fill="transparent"  filter="url(#d)" stroke="#000" stroke-dasharray="127.13542082626516, 5.8"><path class="EdgeBody" d="m317.67 189.88h-0.11111c-0.11111-3e-14 -0.33333-3e-14 -0.44444 3.853-0.11111 3.853-0.11111 11.559 20.056 15.412 20.167 3.853 60.5 3.853 80.667 3.853h20.167"   marker-end="url(#b)" /></g></g><g id="x" class="DirectedInteraction" color="#f00" ><g color="#f00" fill="transparent"  filter="url(#d)" stroke="#000" stroke-dasharray="114.70351242901, 5.8"><path class="EdgeBody" d="m316.67 611.44h0.055556c0.055556 0 0.16667 0 0.22222 1.7593 0.055556 1.7593 0.055556 5.2778 19.389 7.037 19.333 1.7593 58 1.7593 77.333 1.7593l19.333 1e-13"   marker-end="url(#b)" /></g></g><g id="y" class="DirectedInteraction" color="#f00" ><g color="#f00" fill="transparent"  filter="url(#d)" stroke="#000" stroke-dasharray="120.5196844205179, 5.8"><path class="EdgeBody" d="m316.67 522.42v1.7984c0 1.7984 0 5.3953 19.556 7.1937 19.556 1.7984 58.667 1.7984 78.222 3.5968 19.556 1.7984 19.556 5.3953 19.556 7.1937l6e-14 1.7984"   marker-end="url(#b)" /></g></g><g id="z" class="DirectedInteraction" color="#000" ><g color="#000" fill="transparent"  filter="url(#c)" stroke="#000" stroke-dasharray="4.084603021536492, 5.8"><path class="EdgeBody" d="m317.67 166.33-7e-14 9.8846"   marker-end="url(#b)" /></g></g><g id="aa" class="DirectedInteraction" color="#f00" ><g color="#f00" fill="transparent"  filter="url(#d)" stroke="#000" stroke-dasharray="125.02422070204481, 5.8"><path class="EdgeBody" d="m317.32 702.64h-0.052852c-0.052852-2e-13 -0.15855-2e-13 -0.21141 3.0605-0.052852 3.0605-0.052852 9.1814 20.28 12.242 20.333 3.0605 61 3.0605 81.333 3.0605l20.333 1e-13"   marker-end="url(#b)" /></g></g><g id="ab" class="DirectedInteraction" color="#000" ><g color="#000" fill="transparent"  filter="url(#c)" stroke="#000" stroke-dasharray="77.19999999999997, 5.8"><path class="EdgeBody" d="m317.67 231.33 7e-14 83"   marker-end="url(#b)" /></g><g class="Burr Anchor" transform="translate(317.67 260)" ><use class="Icon" width="0" height="0" fill="#141414" stroke-width="0" xlink:href="#a"/></g><g class="Burr Anchor" transform="translate(317.67 288.21)" ><use class="Icon" width="0" height="0" fill="#141414" stroke-width="0" xlink:href="#a"/></g><g class="Burr Anchor" transform="translate(317.67 271.72)" ><use class="Icon" width="0" height="0" fill="#141414" stroke-width="0" xlink:href="#a"/></g></g><g id="ac" class="DirectedInteraction" color="#f00" ><g color="#f00" fill="transparent"  filter="url(#d)" stroke="#000" stroke-dasharray="118.2272266409195, 5.8"><path class="EdgeBody" d="m317.67 288.21h0.055556c0.055556 0 0.16667 0 0.22222 2.7977 0.055556 2.7977 0.055556 8.393 19.389 11.191 19.333 2.7977 58 2.7977 77.333 2.7977l19.333 6e-14"   marker-end="url(#b)" /></g></g><g id="ad" class="DirectedInteraction" color="#000" ><g color="#000" fill="transparent"  filter="url(#c)" stroke="#000" stroke-dasharray="3.307968717768099, 5.8"><path class="EdgeBody" d="m316.67 262.67 1 9.0529"   marker-end="url(#b)" /></g></g><g id="ae" class="Interaction" color="#000" ><g color="#000" fill="transparent"  filter="url(#c)" stroke="#000" stroke-dasharray="139.3011254999586, 0"><path class="EdgeBody" d="m194 231.5 20.667-6e-14c20.667 3e-14 62 3e-14 82.667 4.75 20.667 4.75 20.667 14.25 20.611 19-0.055556 4.75-0.16667 4.75-0.22222 4.75l-0.055556 6e-14"   /></g></g><g id="af" class="DirectedInteraction" color="#f00" ><g color="#f00" fill="transparent"  filter="url(#d)" stroke="#000" stroke-dasharray="108.89717883357916, 5.8"><path class="EdgeBody" d="m318.1 77.318h-0.016414c-0.016414 0-0.049242 0-0.065657 5.197-0.016414 5.197-0.016414 15.591 16.067 20.788 16.083 5.197 48.25 5.197 64.333 5.197l16.083 1e-14"   marker-end="url(#b)" /></g></g><g id="ag" class="DirectedInteraction" color="#000" ><g color="#000" fill="transparent"  filter="url(#c)" stroke="#000" stroke-dasharray="15.178034776094584, 5.8"><path class="EdgeBody" d="m318.67 32.333-0.30909 20.976"   marker-end="url(#b)" /></g></g><g class="Label" transform="translate(633.83 40.5)" color="#000"  name="Black - reactants"><use class="Icon" width="132.33333333333334" height="19" fill="transparent"  stroke="#000" stroke-width="0" xlink:href="#a"/><text class="Text" transform="translate(66.167 13.5)"   font-size="12px" font-weight="bold"  text-anchor="middle"><tspan x="0" y="0">Black - reactants</tspan></text></g><g class="Label" transform="translate(166.67 646)" color="#000"  name="Fe2+"><use class="Icon" width="39.333333333333336" height="16" fill="transparent"  stroke="#000" stroke-width="0" xlink:href="#a"/><text class="Text" transform="translate(19.667 11)"   font-size="11px" font-weight="bold"  text-anchor="middle"><tspan x="0" y="0">Fe2+</tspan></text></g><g class="Label" transform="translate(234.5,542)" color="#000"  name="protoporphyrinogen IX"><use class="Icon" width="164.33333333333334" height="16" fill="transparent"  stroke="#000" stroke-width="0" xlink:href="#a"/><text class="Text" transform="translate(82.167 11)"   font-size="11px" font-weight="bold"  text-anchor="middle"><tspan x="0" y="0">protoporphyrinogen IX</tspan></text></g><g class="Label" transform="translate(68.333 75.333)" color="#00f"  name="rate limiting step"><use class="Icon" width="123.33333333333333" height="16" fill="transparent"  stroke="#00f" stroke-width="0" xlink:href="#a"/><text class="Text" transform="translate(61.667 11)" fill="#00f"  font-size="11px" font-weight="bold"  text-anchor="middle"><tspan x="0" y="0">rate limiting step</tspan></text></g><g class="Label" transform="translate(239 117.33)" color="#000"  name="delta-aminolevulinate"><use class="Icon" width="157.33333333333334" height="16" fill="transparent"  stroke="#000" stroke-width="0" xlink:href="#a"/><text class="Text" transform="translate(78.667 11)"   font-size="11px" font-weight="bold"  text-anchor="middle"><tspan x="0" y="0">delta-aminolevulinate</tspan></text></g><g class="Label" transform="translate(439,711)" color="#000"  name="H+"><use class="Icon" width="45" height="20" fill="transparent"  stroke="#000" stroke-width="0" xlink:href="#a"/><text class="Text" transform="translate(22.5,13)"   font-size="10px" font-weight="bold"  text-anchor="middle"><tspan x="0" y="0">H+</tspan></text></g><g class="Label" transform="translate(34.667 125.33)" color="#000"  name="delta-aminolevulinate"><use class="Icon" width="157.33333333333334" height="16" fill="transparent"  stroke="#000" stroke-width="0" xlink:href="#a"/><text class="Text" transform="translate(78.667 11)"   font-size="11px" font-weight="bold"  text-anchor="middle"><tspan x="0" y="0">delta-aminolevulinate</tspan></text></g><g class="Label" transform="translate(238 8.6667)" color="#000"  name="succinyl-CoA + glycine"><use class="Icon" width="161.33333333333334" height="16" fill="transparent"  stroke="#000" stroke-width="0" xlink:href="#a"/><text class="Text" transform="translate(80.667 11)"   font-size="11px" font-weight="bold"  text-anchor="middle"><tspan x="0" y="0">succinyl-CoA + glycine</tspan></text></g><g class="Label" transform="translate(629.17 61.5)" color="#f00"  name="Red - side products"><use class="Icon" width="154.33333333333334" height="19" fill="transparent"  stroke="#f00" stroke-width="0" xlink:href="#a"/><text class="Text" transform="translate(77.167 13.5)" fill="#f00"  font-size="12px" font-weight="bold" stroke="black" stroke-width="0" text-anchor="middle"><tspan x="0" y="0">Red - side products</tspan></text></g><a class="Metabolite ChEBI_CHEBI_15379  " transform="translate(185,552)" color="#00f"  name="O2"  ><rect class="Icon" transform="matrix(.97368 0 0 .95238 .48684 .47619)" width="37" height="20" fill="#fff" stroke="#00f"/><text class="Text" transform="translate(18.5,13)" fill="#00f"  font-size="10px"  text-anchor="middle"><tspan x="0" y="0">O2</tspan></text></a><a class="CAS_487-90-1 Metabolite ChEBI_CHEBI_17381  " transform="translate(256.5 215.33)" color="#00f"  name="Porphobilinogen"  ><rect class="Icon" transform="matrix(.99189 0 0 .94118 .49595 .47059)" width="122.33" height="16" fill="#fff" stroke="#00f"/><text class="Text" transform="translate(61.167 11)" fill="#00f"  font-size="10px"  text-anchor="middle"><tspan x="0" y="0">Porphobilinogen</tspan></text></a><a class="Metabolite ChEBI_CHEBI_16134  " transform="translate(434,295)" color="#00f"  name="NH3"  ><rect class="Icon" transform="matrix(.97959 0 0 .95238 .4898 .47619)" width="48" height="20" fill="#fff" stroke="#00f"/><text class="Text" transform="translate(24,13)" fill="#00f"  font-size="10px"  text-anchor="middle"><tspan x="0" y="0">NH3</tspan></text></a><a class="Metabolite ChEBI_CHEBI_16240  " transform="translate(433,612)" color="#00f"  name="H2O2"  ><rect class="Icon" transform="matrix(.97778 0 0 .95238 .48889 .47619)" width="44" height="20" fill="#fff" stroke="#00f"/><text class="Text" transform="translate(22,13)" fill="#00f"  font-size="10px"  text-anchor="middle"><tspan x="0" y="0">H2O2</tspan></text></a><a class="Metabolite ChEBI_CHEBI_15379  " transform="translate(170,467)" color="#00f"  name="O2"  ><rect class="Icon" transform="matrix(.97368 0 0 .95238 .48684 .47619)" width="37" height="20" fill="#fff" stroke="#00f"/><text class="Text" transform="translate(18.5,13)" fill="#00f"  font-size="10px"  text-anchor="middle"><tspan x="0" y="0">O2</tspan></text></a><a  class="GeneProduct P594_ENSMUSG00000024588 " transform="translate(288.67 672.33)"   name="Fech"  ><rect class="Icon" transform="matrix(.98361 0 0 .95238 .4918 .47619)" width="60" height="20" fill="#fff" stroke="#000"/><text class="Text" transform="translate(30,13)"   font-size="10px"  text-anchor="middle"><tspan x="0" y="0">Fech</tspan></text></a><a  class="GeneProduct P594_ENSMUSG00000062729 " transform="translate(289.67 584.67)"   name="Ppox"  ><rect class="Icon" transform="matrix(.98361 0 0 .95238 .4918 .47619)" width="60" height="20" fill="#fff" stroke="#000"/><text class="Text" transform="translate(30,13)"   font-size="10px"  text-anchor="middle"><tspan x="0" y="0">Ppox</tspan></text></a><a class="CAS_1976-85-8 Metabolite ChEBI_CHEBI_15437  " transform="translate(243 379.67)" color="#00f"  name="Uroporphyrinogen III"  ><rect class="Icon" transform="matrix(.99335 0 0 .94118 .49667 .47059)" width="149.33" height="16" fill="#fff" stroke="#00f"/><text class="Text" transform="translate(74.667 11)" fill="#00f"  font-size="10px"  text-anchor="middle"><tspan x="0" y="0">Uroporphyrinogen III</tspan></text></a><a class="Metabolite ChEBI_CHEBI_16526  " transform="translate(439,438)" color="#00f"  name="CO2"  ><rect class="Icon" transform="matrix(.97561 0 0 .95238 .4878 .47619)" width="40" height="20" fill="#fff" stroke="#00f"/><text class="Text" transform="translate(20,13)" fill="#00f"  font-size="10px"  text-anchor="middle"><tspan x="0" y="0">CO2</tspan></text></a><a  class="GeneProduct P594_ENSMUSG00000022742 " transform="translate(289.67 494.67)"   name="Cpox"  ><rect class="Icon" transform="matrix(.98361 0 0 .95238 .4918 .47619)" width="60" height="20" fill="#fff" stroke="#000"/><text class="Text" transform="translate(30,13)"   font-size="10px"  text-anchor="middle"><tspan x="0" y="0">Cpox</tspan></text></a><a class="Metabolite ChEBI_CHEBI_15377  " transform="translate(438,203)" color="#00f"  name="H2O"  ><rect class="Icon" transform="matrix(.98148 0 0 .95238 .49074 .47619)" width="53" height="20" fill="#fff" stroke="#00f"/><text class="Text" transform="translate(26.5,13)" fill="#00f"  font-size="10px"  text-anchor="middle"><tspan x="0" y="0">H2O</tspan></text></a><a  class="GeneProduct P594_ENSMUSG00000032126 " transform="translate(286.67 262.67)"   name="Hmbs"  ><rect class="Icon" transform="matrix(.98361 0 0 .95238 .4918 .47619)" width="60" height="20" fill="#fff" stroke="#000"/><text class="Text" transform="translate(30,13)"   font-size="10px"  text-anchor="middle"><tspan x="0" y="0">Hmbs</tspan></text></a><a class="CAS_2624-63-7 Metabolite ChEBI_CHEBI_15439  " transform="translate(233.5,457)" color="#00f"  name="Coproporphyrinogen III"  ><rect class="Icon" transform="matrix(.99402 0 0 .94118 .49701 .47059)" width="166.33" height="16" fill="#fff" stroke="#00f"/><text class="Text" transform="translate(83.167 11)" fill="#00f"  font-size="10px"  text-anchor="middle"><tspan x="0" y="0">Coproporphyrinogen III</tspan></text></a><a class="ChEBI_CHEBI_16645 Metabolite  " transform="translate(243 314.33)" color="#00f"  name="Hydroxymethylbilane"  ><rect class="Icon" transform="matrix(.99335 0 0 .94118 .49667 .47059)" width="149.33" height="16" fill="#fff" stroke="#00f"/><text class="Text" transform="translate(74.667 11)" fill="#00f"  font-size="10px"  text-anchor="middle"><tspan x="0" y="0">Hydroxymethylbilane</tspan></text></a><a class="Metabolite ChEBI_CHEBI_16526  " transform="translate(434,534)" color="#00f"  name="CO2"  ><rect class="Icon" transform="matrix(.97561 0 0 .95238 .4878 .47619)" width="40" height="20" fill="#fff" stroke="#00f"/><text class="Text" transform="translate(20,13)" fill="#00f"  font-size="10px"  text-anchor="middle"><tspan x="0" y="0">CO2</tspan></text></a><a  class="GeneProduct P594_ENSMUSG00000028393 " transform="translate(287.67 166.33)"   name="Alad"  ><rect class="Icon" transform="matrix(.98361 0 0 .95238 .4918 .47619)" width="60" height="20" fill="#fff" stroke="#000"/><text class="Text" transform="translate(30,13)"   font-size="10px"  text-anchor="middle"><tspan x="0" y="0">Alad</tspan></text></a><a class="Metabolite ChEBI_CHEBI_15377  " transform="translate(437,365)" color="#00f"  name="H2O"  ><rect class="Icon" transform="matrix(.98148 0 0 .95238 .49074 .47619)" width="53" height="20" fill="#fff" stroke="#00f"/><text class="Text" transform="translate(26.5,13)" fill="#00f"  font-size="10px"  text-anchor="middle"><tspan x="0" y="0">H2O</tspan></text></a><a  class="GeneProduct P594_ENSMUSG00000030979 " transform="translate(287.67 340.33)"   name="Uros"  ><rect class="Icon" transform="matrix(.98361 0 0 .95238 .4918 .47619)" width="60" height="20" fill="#fff" stroke="#000"/><text class="Text" transform="translate(30,13)"   font-size="10px"  text-anchor="middle"><tspan x="0" y="0">Uros</tspan></text></a><a class="CAS_14875-96-8 Metabolite ChEBI_CHEBI_17627 ChEBI_CHEBI_26355   " transform="translate(276.5,732)" color="#00f"  name="protoheme"  ><rect class="Icon" transform="matrix(.988 0 0 .94118 .494 .47059)" width="82.333" height="16" fill="#fff" stroke="#00f"/><text class="Text" transform="translate(41.167 11)" fill="#00f"  font-size="10px"  text-anchor="middle"><tspan x="0" y="0">protoheme</tspan></text></a><a class="CAS_553-12-8 Metabolite ChEBI_CHEBI_15430  " transform="translate(252.5,632)" color="#00f"  name="Protoporphyrin IX"  ><rect class="Icon" transform="matrix(.99227 0 0 .94118 .49613 .47059)" width="128.33" height="16" fill="#fff" stroke="#00f"/><text class="Text" transform="translate(64.167 11)" fill="#00f"  font-size="10px"  text-anchor="middle"><tspan x="0" y="0">Protoporphyrin IX</tspan></text></a><a  class="GeneProduct P594_ENSMUSG00000028684 " transform="translate(287.67 407.67)"   name="Urod"  ><rect class="Icon" transform="matrix(.98361 0 0 .95238 .4918 .47619)" width="60" height="20" fill="#fff" stroke="#000"/><text class="Text" transform="translate(30,13)"   font-size="10px"  text-anchor="middle"><tspan x="0" y="0">Urod</tspan></text></a><g class="GroupNone" transform="translate(76,199)" color="grey" ><rect class="Icon" transform="matrix(.99167 0 0 .98485 .49583 .49242)" width="119" height="65" fill="#b4b464" fill-opacity=".1" stroke="grey" stroke-dasharray="5,3"/><a class="CAS_487-90-1 Metabolite ChEBI_CHEBI_17381  " transform="translate(9,9)" color="#00f"  name="Porphobilinogen"  ><rect class="Icon" transform="matrix(.9902 0 0 .95652 .4951 .47826)" width="101" height="22" fill="#fff" stroke="#00f"/><text class="Text" transform="translate(50.5,14)" fill="#00f"  font-size="10px"  text-anchor="middle"><tspan x="0" y="0">Porphobilinogen</tspan></text></a><a class="Metabolite ChEBI_CHEBI_15377  " transform="translate(36,36)" color="#00f"  name="H2O"  ><rect class="Icon" transform="matrix(.97826 0 0 .95238 .48913 .47619)" width="45" height="20" fill="#fff" stroke="#00f"/><text class="Text" transform="translate(22.5,13)" fill="#00f"  font-size="10px"  text-anchor="middle"><tspan x="0" y="0">H2O</tspan></text></a></g><g class="GroupNone" transform="translate(413.5,76)" color="grey" ><rect class="Icon" transform="matrix(.98305 0 0 .98485 .49153 .49242)" width="58" height="65" fill="#b4b464" fill-opacity=".1" stroke="grey" stroke-dasharray="5,3"/><a class="Metabolite ChEBI_CHEBI_15346  " transform="translate(9.5,9)" color="#00f"  name="CoA"  ><rect class="Icon" transform="matrix(.975 0 0 .95238 .4875 .47619)" width="39" height="20" fill="#fff" stroke="#00f"/><text class="Text" transform="translate(19.5,13)" fill="#00f"  font-size="10px"  text-anchor="middle"><tspan x="0" y="0">CoA</tspan></text></a><a class="Metabolite ChEBI_CHEBI_16526  " transform="translate(9,36)" color="#00f"  name="CO2"  ><rect class="Icon" transform="matrix(.97561 0 0 .95238 .4878 .47619)" width="40" height="20" fill="#fff" stroke="#00f"/><text class="Text" transform="translate(20,13)" fill="#00f"  font-size="10px"  text-anchor="middle"><tspan x="0" y="0">CO2</tspan></text></a></g><g class="GroupNone" transform="translate(279.67 31.333)" color="grey" ><rect class="Icon" transform="matrix(.98734 0 0 .98305 .49367 .49153)" width="78" height="58" fill="#b4b464" fill-opacity=".1" stroke="grey" stroke-dasharray="5,3"/><a  class="GeneProduct P594_ENSMUSG00000025270 " transform="translate(9,29)"   name="Alas2"  ><rect class="Icon" transform="matrix(.98361 0 0 .95238 .4918 .47619)" width="60" height="20" fill="#fff" stroke="#000"/><text class="Text" transform="translate(30,13)"   font-size="10px"  text-anchor="middle"><tspan x="0" y="0">Alas2</tspan></text></a><a  class="GeneProduct P594_ENSMUSG00000032786 " transform="translate(9,9)"   name="Alas1"  ><rect class="Icon" transform="matrix(.98361 0 0 .95385 .4918 .47692)" width="60" height="20.667" fill="#fff" stroke="#000"/><text class="Text" transform="translate(30 13.333)"   font-size="10px"  text-anchor="middle"><tspan x="0" y="0">Alas1</tspan></text></a></g><text class="Text" transform="translate(5,27)" dominant-baseline="central" fill="black"  font-size="12px" font-weight="bold" overflow="visible" ><tspan x="0" y="-9">Name: Heme biosynthesis</tspan> <tspan x="0" y="9">Organism: Mus musculus</tspan></text></g></svg>
