<?xml version="1.0" encoding="UTF-8"?>
<!--
  WikiPathways page: https://www.wikipathways.org/index.php/Pathway:WP1991
  URL for this compressed file: https://github.com/eweitz/cachome/tree/main/data/wikipathways/WP1991.svg
  Source code for compression: https://github.com/eweitz/cachome/tree/main/src/wikipathways.py
-->
<svg class="Diagram" width="800" height="600" color="black" baseProfile="full" prefix="schema:http://schema.org/" preserveAspectRatio="xMidYMid" version="1.1" viewBox="0 0 1084.4 930" vocab="http://vocabularies.wikipathways.org/wp#" xmlns="http://www.w3.org/2000/svg" xmlns:xlink="http://www.w3.org/1999/xlink"><style>svg {font-family: 'Liberation Sans', Arial, sans-serif; }</style><defs><filter id="f" x="-50%" y="-50%" width="200%" height="200%"><feComposite in="SourceGraphic" in2="SourceGraphic" result="doubleDark"/><feMorphology in="doubleDark" operator="dilate" radius="0.16666666666666666" result="in2Double"/><feMorphology in="SourceGraphic" operator="dilate" radius="3" result="inDouble"/><feComposite in="inDouble" in2="in2Double" operator="out" result="doubleResult"/></filter><filter id="a" x="0" y="0" width="1084.4" height="930" filterUnits="userSpaceOnUse"><feColorMatrix in="SourceGraphic" values="-1   0   0 0 0                   0  -1   0 0 0                   0   0  -1 0 0                   0   0   0 1 0"/></filter><marker id="b" stroke-dasharray="99999" markerHeight="12" markerUnits="userSpaceOnUse" markerWidth="12" orient="auto" preserveAspectRatio="none" refX="12" refY="6" viewBox="0 0 12 12"><path transform="rotate(180 6 6)" d="M12 11L0 6l12-5z" fill="currentColor" stroke-width="0"/></marker><marker id="e" stroke-dasharray="99999" markerHeight="12" markerUnits="userSpaceOnUse" markerWidth="12" orient="auto" preserveAspectRatio="none" refX="12" refY="6" viewBox="0 0 12 12"><path transform="rotate(180 6 6)" d="M12 12L0 6l12-6-7 6z" fill="currentColor" stroke-width="0"/></marker><marker id="g" stroke-dasharray="99999" markerHeight="12" markerUnits="userSpaceOnUse" markerWidth="16" orient="auto" preserveAspectRatio="none" refX="16" refY="6" viewBox="0 0 16 12"><g transform="rotate(180 8 6)" fill="none"><path d="m14 0v12" stroke="#000"/><path d="m16 6"/><path d="M0 6l9 5V1z" stroke="#000"/></g></marker><marker id="c" stroke-dasharray="99999" markerHeight="20" markerUnits="userSpaceOnUse" markerWidth="10" orient="auto" preserveAspectRatio="none" refX="10" refY="10" viewBox="0 0 10 20"><path d="m3 0v20" fill="currentColor" stroke="currentColor"/></marker><symbol id="h" overflow="visible" preserveAspectRatio="none" viewBox="0 0 50 50"><ellipse cx="25" cy="25" rx="25" ry="25" stroke="currentColor" vector-effect="non-scaling-stroke"/></symbol><symbol id="d" preserveAspectRatio="none" viewBox="0 0 100 100"/></defs><g class="Viewport" color="black"  name="Name: SRF and miRs in smooth muscle differentiation and proliferation Last Modified: 2/21/2013 Organism: Homo sapiens"><rect class="Icon" width="1084.4" height="930" fill="#fff" stroke="#000" stroke-width="0"/><g id="i" class="DirectedInteraction" color="#000" ><g color="#000" fill="transparent"  filter="url(#a)" stroke="#000" stroke-dasharray="206.66160307663563, 5.8"><path class="EdgeBody" d="m356.33 257.45-5e-14 212.46"   marker-end="url(#b)" /></g></g><g id="j" class="Edge GraphicalLine DirectedInteraction" color="#000" ><g color="#000" fill="transparent"  filter="url(#a)" stroke="#000" stroke-dasharray="6, 3.6, 6, 3.6, 6, 5.8"><path class="EdgeBody" d="m847.4 117.11 26.769-0.31793"   marker-end="url(#b)" /></g></g><g id="k" class="Inhibition" color="#000" ><g color="#000" fill="transparent"  filter="url(#a)" stroke="#000" stroke-dasharray="665.9215417475615, 7"><path class="EdgeBody" d="m356.33 167.23v-29.918h411.88v131.73h-87.789v-11.597"   marker-end="url(#c)" /></g></g><g id="l" class="Inhibition" color="#000" ><g color="#000" fill="transparent"  filter="url(#a)" stroke="#000" stroke-dasharray="43.21920165361712, 7"><path class="EdgeBody" d="m660.43 187.23v50.219"   marker-end="url(#c)" /></g></g><g id="m" class="DirectedInteraction" color="#000" ><g color="#000" fill="transparent"  filter="url(#a)" stroke="#000" stroke-dasharray="317.7083113360736, 5.8"><path class="EdgeBody" d="m567.84 640.25v-60.421h-191.51v-71.579"   marker-end="url(#b)" /></g></g><g id="n" class="DirectedInteraction" color="#000" ><g color="#000" fill="transparent"  filter="url(#a)" stroke="#000" stroke-dasharray="62.69951470981148, 5.8"><path class="EdgeBody" d="m551.93 177.23 68.5-1.1e-13"   marker-end="url(#b)" /></g></g><g id="o" class="DirectedInteraction" color="#000" ><g color="#000" fill="transparent"  filter="url(#a)" stroke="#000" stroke-dasharray="5.11, 3.07, 5.11, 3.07, 5.11, 3.07, 5.11, 3.07, 5.11, 3.07, 5.11, 3.07, 5.11, 3.07, 5.11, 3.07, 5.11, 3.07, 5.11, 3.07, 5.11, 3.07, 0, 5.8"><path class="EdgeBody" d="m526.59 247.45h-10.644v82.078"   marker-end="url(#b)" /></g></g><g id="p" class="DirectedInteraction" color="#000" ><g color="#000" fill="transparent"  filter="url(#a)" stroke="#000" stroke-dasharray="355.22196278972086, 5.8"><path class="EdgeBody" d="m316.33 498.25h-20v-321.02h20"   marker-end="url(#b)" /></g></g><g id="q" class="Interaction" color="#000" ><g color="#000" fill="transparent"  filter="url(#a)" stroke="#000" stroke-dasharray="19, 1"><path class="EdgeBody" d="m660 385.81 1e-13 20"   marker-end="url(#e)" /></g></g><g id="r" class="DirectedInteraction" color="#000" ><g color="#000" fill="transparent"  filter="url(#a)" stroke="#000" stroke-dasharray="69.79642787133709, 5.8"><path class="EdgeBody" d="m471.93 177.23-75.596-1.1e-13"   marker-end="url(#b)" /></g></g><g id="s" class="Interaction" color="#000" ><g color="#000" fill="transparent"  filter="url(#a)" stroke="#000" stroke-dasharray="0.6588419405319428, 1"><path class="EdgeBody" d="m356.33 488.25v1.6588"   marker-end="url(#e)" /></g></g><g id="t" class="Inhibition" color="#000" ><g color="#000" fill="transparent"  filter="url(#a)" stroke="#000" stroke-dasharray="21.327520308312614, 7"><path class="EdgeBody" d="m424.66 247.45h-28.328"   marker-end="url(#c)" /></g></g><g id="u" class="Inhibition" color="#000" ><g color="#000" fill="transparent"  filter="url(#a)" stroke="#000" stroke-dasharray="65.93734189312012, 7"><path class="EdgeBody" d="m471.25 657.49 72.577-7.2399"   marker-end="url(#c)" /></g></g><g id="v" class="Interaction" color="#000" ><g color="#000" fill="transparent"  filter="url(#a)" stroke="#000" stroke-dasharray="38.99999999999994, 1"><path class="EdgeBody" d="m464.66 365.81-6e-14 40"   marker-end="url(#e)" /></g></g><g id="w" class="Inhibition" color="#000" ><g color="#000" fill="transparent"  filter="url(#a)" stroke="#000" stroke-dasharray="151.54672196192973, 7"><path class="EdgeBody" d="m356.33 187.23v31.256h108.33v18.963"   marker-end="url(#c)" /></g></g><g id="x" class="DirectedInteraction" color="#000" ><g color="#000" fill="transparent"  filter="url(#a)" stroke="#000" stroke-dasharray="289.42171183278356, 5.8"><path class="EdgeBody" d="m615.86 640.25v-101.39h60.776v-133.06"   marker-end="url(#b)" /></g></g><g id="y" class="Inhibition" color="#000" ><g color="#000" fill="transparent"  filter="url(#a)" stroke="#000" stroke-dasharray="5.19, 3.11, 5.19, 3.11, 5.19, 3.11, 5.19, 3.11, 5.19, 3.11, 5.19, 3.11, 5.19, 3.11, 5.19, 3.11, 5.19, 3.11, 5.19, 3.11, 5.19, 3.11, 5.19, 3.11, 5.19, 3.11, 5.19, 3.11, 5.19, 3.11, 5.19, 3.11, 5.19, 3.11, 5.19, 3.11, 5.19, 3.11, 5.19, 3.11, 5.19, 3.11, 0, 7"><path class="EdgeBody" d="m566.59 257.45-0.28493 178.25"   marker-end="url(#c)" /></g></g><g id="z" class="Interaction" color="#000" ><g color="#000" fill="transparent"  filter="url(#a)" stroke="#000" stroke-dasharray="41.21920165361712, 9"><path class="EdgeBody" d="m336.33 187.23v50.219"   marker-end="url(#g)" /></g></g><g id="aa" class="DirectedInteraction" color="#000" ><g color="#000" fill="transparent"  filter="url(#a)" stroke="#000" stroke-dasharray="5.04, 3.03, 5.04, 3.03, 5.04, 3.03, 5.04, 3.03, 5.04, 3.03, 5.04, 3.03, 5.04, 3.03, 5.04, 3.03, 5.04, 3.03, 5.04, 3.03, 5.04, 3.03, 5.04, 3.03, 5.04, 3.03, 5.04, 3.03, 5.04, 3.03, 5.04, 3.03, 5.04, 3.03, 5.04, 3.03, 5.04, 3.03, 5.04, 3.03, 5.04, 3.03, 5.04, 3.03, 5.04, 3.03, 5.04, 3.03, 5.04, 3.03, 5.04, 3.03, 5.04, 3.03, 5.04, 3.03, 5.04, 3.03, 5.04, 3.03, 5.04, 3.03, 5.04, 3.03, 5.04, 3.03, 5.04, 3.03, 5.04, 3.03, 5.04, 3.03, 5.04, 3.03, 5.04, 3.03, 5.04, 3.03, 5.04, 3.03, 5.04, 3.03, 5.04, 3.03, 5.04, 3.03, 5.04, 3.03, 5.04, 3.03, 5.04, 3.03, 5.04, 3.03, 5.04, 3.03, 5.04, 3.03, 5.04, 3.03, 5.04, 3.03, 5.04, 3.03, 5.04, 3.03, 5.04, 3.03, 5.04, 3.03, 5.04, 3.03, 5.04, 3.03, 5.04, 3.03, 5.04, 3.03, 5.04, 3.03, 5.04, 3.03, 0, 5.8"><path class="EdgeBody" d="m778.31 700.99v-361.47h-133.68"   marker-end="url(#b)" /></g></g><g id="ab" class="DirectedInteraction" color="#000" ><g color="#000" fill="transparent"  filter="url(#a)" stroke="#000" stroke-dasharray="102.55720203574414, 5.8"><path class="EdgeBody" d="m464.66 257.45-4e-14 108.36"   marker-end="url(#b)" /></g></g><g id="ac" class="DirectedInteraction" color="#000" ><g color="#000" fill="transparent"  filter="url(#a)" stroke="#000" stroke-dasharray="375.83923167390617, 5.8"><path class="EdgeBody" d="m591.85 640.25v-101.39h-147.19v-133.06"   marker-end="url(#b)" /></g></g><g id="ad" class="Inhibition" color="#000" ><g color="#000" fill="transparent"  filter="url(#a)" stroke="#000" stroke-dasharray="233.4834437981819, 7"><path class="EdgeBody" d="m376.33 187.23v20h190.26v30.219"   marker-end="url(#c)" /></g></g><g id="ae" class="DirectedInteraction" color="#000" ><g color="#000" fill="transparent"  filter="url(#a)" stroke="#000" stroke-dasharray="19.771877218665974, 5.8"><path class="EdgeBody" d="m512.66 371.81h3.2924v-22.279"   marker-end="url(#b)" /></g></g><g id="af" class="Inhibition" color="#000" ><g color="#000" fill="transparent"  filter="url(#a)" stroke="#000" stroke-dasharray="34.43043356880099, 7"><path class="EdgeBody" d="m512.66 399.81h5.5393v35.891"   marker-end="url(#c)" /></g></g><g id="ag" class="DirectedInteraction" color="#000" ><g color="#000" fill="transparent"  filter="url(#a)" stroke="#000" stroke-dasharray="1463.7532750874445, 5.8"><path class="EdgeBody" d="m431.25 675.49v154.84h500.51v-582.88h-231.33"   marker-end="url(#b)" /></g></g><g id="ah" class="DirectedInteraction" color="#000" ><g color="#000" fill="transparent"  filter="url(#a)" stroke="#000" stroke-dasharray="33.468469386383916, 5.8"><path class="EdgeBody" d="m618.73 371.81h-16.989v-22.279"   marker-end="url(#b)" /></g></g><g id="ai" class="Inhibition" color="#000" ><g color="#000" fill="transparent"  filter="url(#a)" stroke="#000" stroke-dasharray="33.19778515450821, 7"><path class="EdgeBody" d="m618.73 399.81h-4.3066v35.891"   marker-end="url(#c)" /></g></g><g id="aj" class="Inhibition" color="#000" ><g color="#000" fill="transparent"  filter="url(#a)" stroke="#000" stroke-dasharray="91.33872298799618, 7"><path class="EdgeBody" d="m639.97 710.88 98.339 0.11367"   marker-end="url(#c)" /></g></g><g id="ak" class="DirectedInteraction" color="#000" ><g color="#000" fill="transparent"  filter="url(#a)" stroke="#000" stroke-dasharray="15.931574573162962, 5.8"><path class="EdgeBody" d="m592.1 760.61-0.13138-21.731"   marker-end="url(#b)" /></g></g><g id="al" class="DirectedInteraction" color="#000" ><g color="#000" fill="transparent"  filter="url(#a)" stroke="#000" stroke-dasharray="16.827897661749738, 5.8"><path class="EdgeBody" d="m615.86 660.25 0.10657 22.628"   marker-end="url(#b)" /></g></g><g id="am" class="Inhibition" color="#000" ><g color="#000" fill="transparent"  filter="url(#a)" stroke="#000" stroke-dasharray="15.628033667906902, 7"><path class="EdgeBody" d="m567.97 682.88-0.13234-22.628"   marker-end="url(#c)" /></g></g><g id="an" class="DirectedInteraction" color="#000" ><g color="#000" fill="transparent"  filter="url(#a)" stroke="#000" stroke-dasharray="189.563135819644, 5.8"><path class="EdgeBody" d="m404.33 489.08h161.98v-33.384"   marker-end="url(#b)" /></g></g><g class="SingleFreeNode Shape PhysicalEntity CellularComponent Cell" transform="translate(83.294 69.088)" color="#c0c0c0" ><g fill="transparent"  filter="url(#f)" stroke="#c0c0c0" stroke-width="3"><rect class="Icon" transform="matrix(.98781 0 0 .98579 5.9269 5.9147)" width="972.62" height="832.41" rx="15" ry="15"   /></g></g><g class="SingleFreeNode Shape" transform="translate(833.8 99.108)" color="#000" ><rect class="Icon" transform="matrix(.99382 0 0 .97211 .49691 .48605)" width="160.86" height="34.855" fill="transparent"  stroke="#000"/></g><g class="SingleFreeNode Shape PhysicalEntity CellularComponent Nucleus" transform="translate(232.32 297.17)" color="#c0c0c0" ><g fill="transparent"  filter="url(#f)" stroke="#c0c0c0" stroke-width="3"><use class="Icon" transform="matrix(.9829 0 0 .96366 5.8974 5.782)" width="689.6724270912803" height="318.25299009577145"    xlink:href="#h"/></g></g><g class="Label" transform="translate(809.7 440.7)" color="#666666"  name="Nucleus"><use class="Icon" width="98.95337773549016" height="25.68981921979071" fill="transparent"  stroke="#666666" stroke-width="0" xlink:href="#d"/><text class="Text" transform="translate(49.477 16.845)" fill="#666666"  font-size="14px" font-weight="bold"  text-anchor="middle"><tspan x="0" y="0">Nucleus</tspan></text></g><g class="Label" transform="translate(887.8 111.42)" color="#000"  name="Mechanism Unknown"><use class="Icon" width="107.20688418788032" height="9.322337755467913" fill="transparent"  stroke="#000" stroke-width="0" xlink:href="#d"/><text class="Text" transform="translate(53.603 7.6612)"   font-size="10px"  text-anchor="middle"><tspan x="0" y="0">Mechanism Unknown</tspan></text></g><a class="Rna MIR143 " transform="translate(620.43 167.23)" color="#990099"  name="MIR143"  ><rect class="Icon" transform="matrix(.98765 0 0 .95238 .49383 .47619)" width="80" height="20" fill="#fff" stroke="#909"/><text class="Text" transform="translate(40,13)" fill="#990099"  font-size="10px"  text-anchor="middle"><tspan x="0" y="0">MIR143</tspan></text></a><a  class="GeneProduct CAMK2D " transform="translate(526.59 237.45)"   name="CAMK2D"  ><rect class="Icon" transform="matrix(.98765 0 0 .95238 .49383 .47619)" width="80" height="20" fill="#fff" stroke="#000"/><text class="Text" transform="translate(40,13)"   font-size="10px"  text-anchor="middle"><tspan x="0" y="0">CAMK2D</tspan></text></a><a  class="GeneProduct MYOCD " transform="translate(316.33 237.45)"   name="MYOCD"  ><rect class="Icon" transform="matrix(.98765 0 0 .95238 .49383 .47619)" width="80" height="20" fill="#fff" stroke="#000"/><text class="Text" transform="translate(40,13)"   font-size="10px"  text-anchor="middle"><tspan x="0" y="0">MYOCD</tspan></text></a><a  class="GeneProduct KLF4 " transform="translate(424.66 237.45)"   name="KLF4"  ><rect class="Icon" transform="matrix(.98765 0 0 .95238 .49383 .47619)" width="80" height="20" fill="#fff" stroke="#000"/><text class="Text" transform="translate(40,13)"   font-size="10px"  text-anchor="middle"><tspan x="0" y="0">KLF4</tspan></text></a><a  class="GeneProduct -5 NKX2-5 -5 " transform="translate(471.93 167.23)"   name="NKX2-5"  ><rect class="Icon" transform="matrix(.98765 0 0 .95238 .49383 .47619)" width="80" height="20" fill="#fff" stroke="#000"/><text class="Text" transform="translate(40,13)"   font-size="10px"  text-anchor="middle"><tspan x="0" y="0">NKX2-5</tspan></text></a><g class="Pathway" transform="translate(473.06 329.53)" color="#14961e"  name="Smooth Muscle Proliferation"><use class="Icon" width="171.57894736842104" height="20" fill="transparent"  stroke="#14961e" stroke-width="0" xlink:href="#d"/><text class="Text" transform="translate(85.789 14)" fill="#14961e"  font-size="12px" font-weight="bold" stroke="black" stroke-width="0" text-anchor="middle"><tspan x="0" y="0">Smooth Muscle Proliferation</tspan></text></g><a  class="GeneProduct CCND2 " transform="translate(738.31 700.99)"   name="CCND2"  ><rect class="Icon" transform="matrix(.98765 0 0 .95238 .49383 .47619)" width="80" height="20" fill="#fff" stroke="#000"/><text class="Text" transform="translate(40,13)"   font-size="10px"  text-anchor="middle"><tspan x="0" y="0">CCND2</tspan></text></a><a class="Rna MIR145 " transform="translate(316.33 167.23)" color="#990099"  name="MIR145"  ><rect class="Icon" transform="matrix(.98765 0 0 .95238 .49383 .47619)" width="80" height="20" fill="#fff" stroke="#909"/><text class="Text" transform="translate(40,13)" fill="#990099"  font-size="10px"  text-anchor="middle"><tspan x="0" y="0">MIR145</tspan></text></a><a  class="GeneProduct ELK1 " transform="translate(620.43 237.45)"   name="ELK1"  ><rect class="Icon" transform="matrix(.98765 0 0 .95238 .49383 .47619)" width="80" height="20" fill="#fff" stroke="#000"/><text class="Text" transform="translate(40,13)"   font-size="10px"  text-anchor="middle"><tspan x="0" y="0">ELK1</tspan></text></a><g class="Pathway" transform="translate(470.08 435.7)" color="#14961e"  name="Smooth Muscle Differentiation"><use class="Icon" width="192.45009074410103" height="20" fill="transparent"  stroke="#14961e" stroke-width="0" xlink:href="#d"/><text class="Text" transform="translate(96.225 14)" fill="#14961e"  font-size="12px" font-weight="bold" stroke="black" stroke-width="0" text-anchor="middle"><tspan x="0" y="0">Smooth Muscle Differentiation</tspan></text></g><g class="GroupGroup" transform="translate(504.1 760.61)" color="grey" ><use class="Icon" width="175.99999999999977" height="56" fill="transparent"  stroke="grey" stroke-dasharray="5,3" stroke-width="0" xlink:href="#d"/><a  class="GeneProduct MEF2D " transform="translate(8 28)"   name="MEF2D"  ><rect class="Icon" transform="matrix(.98765 0 0 .95238 .49383 .47619)" width="80" height="20" fill="#fff" stroke="#000"/><text class="Text" transform="translate(40,13)"   font-size="10px"  text-anchor="middle"><tspan x="0" y="0">MEF2D</tspan></text></a><a  class="GeneProduct MEF2A " transform="translate(8,8)"   name="MEF2A"  ><rect class="Icon" transform="matrix(.98765 0 0 .95238 .49383 .47619)" width="80" height="20" fill="#fff" stroke="#000"/><text class="Text" transform="translate(40,13)"   font-size="10px"  text-anchor="middle"><tspan x="0" y="0">MEF2A</tspan></text></a><a  class="GeneProduct MEF2B " transform="translate(88 8)"   name="MEF2B"  ><rect class="Icon" transform="matrix(.98765 0 0 .95238 .49383 .47619)" width="80" height="20" fill="#fff" stroke="#000"/><text class="Text" transform="translate(40,13)"   font-size="10px"  text-anchor="middle"><tspan x="0" y="0">MEF2B</tspan></text></a><a  class="GeneProduct MEF2C " transform="translate(88 28)"   name="MEF2C"  ><rect class="Icon" transform="matrix(.98765 0 0 .95238 .49383 .47619)" width="80" height="20" fill="#fff" stroke="#000"/><text class="Text" transform="translate(40,13)"   font-size="10px"  text-anchor="middle"><tspan x="0" y="0">MEF2C</tspan></text></a></g><g class="GroupGroup" transform="translate(383.25 619.49)" color="grey" ><use class="Icon" width="96" height="56" fill="transparent"  stroke="grey" stroke-dasharray="5,3" stroke-width="0" xlink:href="#d"/><a class="Rna MIR199A1 " transform="translate(8,8)" color="#990099"  name="MIR199A1"  ><rect class="Icon" transform="matrix(.98765 0 0 .95238 .49383 .47619)" width="80" height="20" fill="#fff" stroke="#909"/><text class="Text" transform="translate(40,13)" fill="#990099"  font-size="10px"  text-anchor="middle"><tspan x="0" y="0">MIR199A1</tspan></text></a><a class="Rna MIR214 " transform="translate(8,28)" color="#990099"  name="MIR214"  ><rect class="Icon" transform="matrix(.98765 0 0 .95238 .49383 .47619)" width="80" height="20" fill="#fff" stroke="#909"/><text class="Text" transform="translate(40,13)" fill="#990099"  font-size="10px"  text-anchor="middle"><tspan x="0" y="0">MIR214</tspan></text></a></g><g class="GroupGroup" transform="translate(543.97 682.88)" color="grey" ><use class="Icon" width="96.00000000000023" height="56" fill="transparent"  stroke="grey" stroke-dasharray="5,3" stroke-width="0" xlink:href="#d"/><a class="Rna MIR133A2 " transform="translate(8,28)" color="#990099"  name="MIR133A2"  ><rect class="Icon" transform="matrix(.98765 0 0 .95238 .49383 .47619)" width="80" height="20" fill="#fff" stroke="#909"/><text class="Text" transform="translate(40,13)" fill="#990099"  font-size="10px"  text-anchor="middle"><tspan x="0" y="0">MIR133A2</tspan></text></a><a class="Rna MIR133A1 " transform="translate(8 8)" color="#990099"  name="MIR133A1"  ><rect class="Icon" transform="matrix(.98765 0 0 .95238 .49383 .47619)" width="80" height="20" fill="#fff" stroke="#909"/><text class="Text" transform="translate(40 13)" fill="#990099"  font-size="10px"  text-anchor="middle"><tspan x="0" y="0">MIR133A1</tspan></text></a></g><g class="GroupGroup" transform="translate(308.33 461.91)" color="grey" ><use class="Icon" width="96" height="54.34115805946806" fill="transparent"  stroke="grey" stroke-dasharray="5,3" stroke-width="0" xlink:href="#d"/><a  class="GeneProduct SRF " transform="translate(8 26.341)"   name="SRF"  ><rect class="Icon" transform="matrix(.98765 0 0 .95238 .49383 .47619)" width="80" height="20" fill="#fff" stroke="#000"/><text class="Text" transform="translate(40,13)"   font-size="10px"  text-anchor="middle"><tspan x="0" y="0">SRF</tspan></text></a><a  class="GeneProduct MYOCD " transform="translate(8,8)"   name="MYOCD"  ><rect class="Icon" transform="matrix(.98765 0 0 .95238 .49383 .47619)" width="80" height="20" fill="#fff" stroke="#000"/><text class="Text" transform="translate(40,13)"   font-size="10px"  text-anchor="middle"><tspan x="0" y="0">MYOCD</tspan></text></a></g><g class="GroupGroup" transform="translate(416.66 357.81)" color="grey" ><use class="Icon" width="96.00000000000006" height="55.99999999999994" fill="transparent"  stroke="grey" stroke-dasharray="5,3" stroke-width="0" xlink:href="#d"/><a  class="GeneProduct KLF4 " transform="translate(8 8)"   name="KLF4"  ><rect class="Icon" transform="matrix(.98765 0 0 .95238 .49383 .47619)" width="80" height="20" fill="#fff" stroke="#000"/><text class="Text" transform="translate(40,13)"   font-size="10px"  text-anchor="middle"><tspan x="0" y="0">KLF4</tspan></text></a><a  class="GeneProduct SRF " transform="translate(8 28)"   name="SRF"  ><rect class="Icon" transform="matrix(.98765 0 0 .95238 .49383 .47619)" width="80" height="20" fill="#fff" stroke="#000"/><text class="Text" transform="translate(40,13)"   font-size="10px"  text-anchor="middle"><tspan x="0" y="0">SRF</tspan></text></a></g><g class="GroupGroup" transform="translate(618.73 357.81)" color="grey" ><use class="Icon" width="82.54901809402236" height="56" fill="transparent"  stroke="grey" stroke-dasharray="5,3" stroke-width="0" xlink:href="#d"/><a  class="GeneProduct ELK1 " transform="translate(8,8)"   name="ELK1"  ><rect class="Icon" transform="matrix(.9852 0 0 .95238 .4926 .47619)" width="66.549" height="20" fill="#fff" stroke="#000"/><text class="Text" transform="translate(33.275 13)"   font-size="10px"  text-anchor="middle"><tspan x="0" y="0">ELK1</tspan></text></a><a  class="GeneProduct SRF " transform="translate(8,28)"   name="SRF"  ><rect class="Icon" transform="matrix(.9852 0 0 .95238 .4926 .47619)" width="66.549" height="20" fill="#fff" stroke="#000"/><text class="Text" transform="translate(33.275 13)"   font-size="10px"  text-anchor="middle"><tspan x="0" y="0">SRF</tspan></text></a></g><g id="ao" class="DirectedInteraction" color="#000" ><g color="#000" fill="transparent"  filter="url(#a)" stroke="#000" stroke-dasharray="102.55802755951724, 5.8"><path class="EdgeBody" d="m660.43 257.45-0.42297 108.36"   marker-end="url(#b)" /></g></g><g id="ap" class="DirectedInteraction" color="#000" ><g color="#000" fill="transparent"  filter="url(#a)" stroke="#000" stroke-dasharray="1068.2005336645443, 5.8"><path class="EdgeBody" d="m356.33 516.25v9.3004h-149.87v-409.59l453.96-1e-14v51.272"   marker-end="url(#b)" /></g></g><a  class="GeneProduct SRF " transform="translate(543.83 640.25)"   name="SRF"  ><rect class="Icon" transform="matrix(.9897 0 0 .95238 .49485 .47619)" width="96.052" height="20" fill="#fff" stroke="#000"/><text class="Text" transform="translate(48.026 13)"   font-size="10px"  text-anchor="middle"><tspan x="0" y="0">SRF</tspan></text></a><g id="aq" class="Inhibition" color="#000" ><g color="#000" fill="transparent"  filter="url(#a)" stroke="#000" stroke-dasharray="66.6902859387631, 7"><path class="EdgeBody" d="m471.25 637.49 72.577 12.76"   marker-end="url(#c)" /></g></g><g class="Label" transform="translate(143.23 747.76)" color="#666666"  name="Cytoplasm"><use class="Icon" width="262.649770571874" height="25.68981921979071" fill="transparent"  stroke="#666666" stroke-width="0" xlink:href="#d"/><text class="Text" transform="translate(131.32 16.845)" fill="#666666"  font-size="14px" font-weight="bold"  text-anchor="middle"><tspan x="0" y="0">Cytoplasm</tspan></text></g><text class="Text" transform="translate(5,36)" dominant-baseline="central" fill="black"  font-size="12px" font-weight="bold" overflow="visible" ><tspan x="0" y="-18">Name: SRF and miRs in smooth muscle differentiation and proliferation</tspan> <tspan x="0" y="0">Last Modified: 2/21/2013</tspan> <tspan x="0" y="18">Organism: Homo sapiens</tspan></text></g></svg>
