<?xml version="1.0" encoding="UTF-8"?>
<!--
  WikiPathways page: https://www.wikipathways.org/index.php/Pathway:WP197
  URL for this compressed file: https://github.com/eweitz/cachome/tree/main/data/wikipathways/WP197.svg
  Source code for compression: https://github.com/eweitz/cachome/tree/main/src/wikipathways.py
-->
<svg class="Diagram" width="800" height="600" color="black" baseProfile="full" prefix="schema:http://schema.org/" preserveAspectRatio="xMidYMid" version="1.1" viewBox="0 0 709.65 679.01" vocab="http://vocabularies.wikipathways.org/wp#" xmlns="http://www.w3.org/2000/svg" xmlns:xlink="http://www.w3.org/1999/xlink"><style>svg {font-family: 'Liberation Sans', Arial, sans-serif; }</style><defs><filter id="a" x="0" y="0" width="709.65" height="679.01" filterUnits="userSpaceOnUse"><feColorMatrix in="SourceGraphic" values="-1   0   0 0 0                   0  -1   0 0 0                   0   0  -1 0 0                   0   0   0 1 0"/></filter><marker id="e" stroke-dasharray="99999" markerHeight="12" markerUnits="userSpaceOnUse" markerWidth="12" orient="auto" preserveAspectRatio="none" refY="6" viewBox="0 0 12 12"><path d="M12 11L0 6l12-5z" fill="currentColor" stroke-width="0"/></marker><marker id="f" stroke-dasharray="99999" markerHeight="12" markerUnits="userSpaceOnUse" markerWidth="12" orient="auto" preserveAspectRatio="none" refX="12" refY="6" viewBox="0 0 12 12"><path transform="rotate(180 6 6)" d="M12 11L0 6l12-5z" fill="currentColor" stroke-width="0"/></marker><marker id="d" stroke-dasharray="99999" markerHeight="12" markerUnits="userSpaceOnUse" markerWidth="12" orient="auto" preserveAspectRatio="none" refX="12" refY="6" viewBox="0 0 12 12"><circle transform="rotate(180 6 6)" cx="6" cy="6" r="5.3" fill="none" stroke="#000"/></marker><marker id="c" stroke-dasharray="99999" markerHeight="12" markerUnits="userSpaceOnUse" markerWidth="12" orient="auto" preserveAspectRatio="none" refX="12" refY="6" viewBox="0 0 12 12"><path transform="rotate(180 6 6)" d="M12 11L0 6l12-5z" fill="currentColor" stroke-width="0"/></marker><symbol id="b" preserveAspectRatio="none" viewBox="0 0 100 100"/></defs><g class="Viewport" color="black"  name="Name: Cholesterol biosynthesis pathway Last Modified: 2/22/2013 Organism: Homo sapiens"><rect class="Icon" width="709.65" height="679.01" fill="#fff" stroke="#000" stroke-width="0"/><g id="g" class="Interaction" color="#000" ><g color="#000" fill="transparent"  filter="url(#a)" stroke="#000" stroke-dasharray="238.13877540637267, 5.8"><path class="EdgeBody" d="m189.25 506.98v80.684h163.25"   marker-end="url(#c)" /></g><g class="Burr Anchor" transform="translate(322.39 587.67)" ><use class="Icon" width="0" height="0" fill="#141414" stroke-width="0" xlink:href="#b"/></g><g class="Burr Anchor" transform="translate(305.87 587.67)" ><use class="Icon" width="0" height="0" fill="#141414" stroke-width="0" xlink:href="#b"/></g></g><g id="h" class="Interaction" color="#000" ><g color="#000" fill="transparent"  filter="url(#a)" stroke="#000" stroke-dasharray="52.456442577030444, 5.8"><path class="EdgeBody" d="m370 107v58.256"   marker-end="url(#c)" /></g><g class="Burr Anchor" transform="translate(370 135.86)" ><use class="Icon" width="0" height="0" fill="#141414" stroke-width="0" xlink:href="#b"/></g></g><g id="i" class="Interaction" color="#000" ><g color="#000" fill="transparent"  filter="url(#a)" stroke="#000" stroke-dasharray="56.24935233762143, 5.8"><path class="EdgeBody" d="m370 337v62.049"   marker-end="url(#c)" /></g><g class="Burr Anchor" transform="translate(370 364.11)" ><use class="Icon" width="0" height="0" fill="#141414" stroke-width="0" xlink:href="#b"/></g></g><g id="j" class="Interaction" color="#000" ><g color="#000" fill="transparent"  filter="url(#a)" stroke="#000" stroke-dasharray="46.05000000000065, 5.8"><path class="EdgeBody" d="m370 184.26v51.85"   marker-end="url(#c)" /></g><g class="Burr Anchor" transform="translate(370 209.91)" ><use class="Icon" width="0" height="0" fill="#141414" stroke-width="0" xlink:href="#b"/></g></g><g id="k" class="Interaction" color="#000" ><g color="#000" fill="transparent"  filter="url(#a)" stroke="#000" stroke-dasharray="51.95644257703047, 5.8"><path class="EdgeBody" d="m563.11 164.76 1e-13 -57.756"   marker-end="url(#c)" /></g><g class="Burr Anchor" transform="translate(563.11 136.41)" ><use class="Icon" width="0" height="0" fill="#141414" stroke-width="0" xlink:href="#b"/></g></g><g id="l" class="Interaction" color="#000" ><g color="#000" fill="transparent"  filter="url(#a)" stroke="#000" stroke-dasharray="62.809226935354175, 5.8"><path class="EdgeBody" d="m432.5 587.67h68.609"   marker-end="url(#c)" /></g><g class="Burr Anchor" transform="translate(467.08 587.67)" ><use class="Icon" width="0" height="0" fill="#141414" stroke-width="0" xlink:href="#b"/></g><g class="Burr Anchor" transform="translate(441.34 587.67)" ><use class="Icon" width="0" height="0" fill="#141414" stroke-width="0" xlink:href="#b"/></g></g><g id="m" class="DirectedInteraction" color="#000" ><g color="#000" fill="transparent"  filter="url(#a)" stroke="#000" stroke-dasharray="29.700880270776384, 5.8"><path class="EdgeBody" d="M370.25,55.5L370,91"   marker-end="url(#f)" /></g></g><g id="n" class="Interaction" color="#000" ><g color="#000" fill="transparent"  filter="url(#a)" stroke="#000" stroke-dasharray="66.88422555949025, 5.8"><path class="EdgeBody" d="m563.11 577.67-1e-13 -72.684"   marker-end="url(#c)" /></g><g class="Burr Anchor" transform="translate(563.11 540.97)" ><use class="Icon" width="0" height="0" fill="#141414" stroke-width="0" xlink:href="#b"/></g></g><g id="o" class="Interaction" color="#000" ><g color="#000" fill="transparent"  filter="url(#a)" stroke="#000" stroke-dasharray="62.13516303771367, 5.8"><path class="EdgeBody" d="m370 419.05v67.935"   marker-end="url(#c)" /></g><g class="Burr Anchor" transform="translate(370 452.03)" ><use class="Icon" width="0" height="0" fill="#141414" stroke-width="0" xlink:href="#b"/></g></g><g id="p" class="Interaction" color="#000" ><g color="#000" fill="transparent"  filter="url(#a)" stroke="#000" stroke-dasharray="56.249352337621374, 5.8"><path class="EdgeBody" d="m563.11 399.05 1e-12 -62.049"   marker-end="url(#c)" /></g><g class="Burr Anchor" transform="translate(563.11 364.03)" ><use class="Icon" width="0" height="0" fill="#141414" stroke-width="0" xlink:href="#b"/></g></g><g id="q" class="Interaction" color="#000" ><g color="#000" fill="transparent"  filter="url(#a)" stroke="#000" stroke-dasharray="55.093557422968914, 5.8"><path class="EdgeBody" d="m370 256.11v60.894"   marker-end="url(#c)" /></g><g class="Burr Anchor" transform="translate(370 280.46)" ><use class="Icon" width="0" height="0" fill="#141414" stroke-width="0" xlink:href="#b"/></g></g><g id="r" class="DirectedInteraction" color="#000" ><g color="#000" fill="transparent"  filter="url(#a)" stroke="#000" stroke-dasharray="0, 5.8, 60.32686225800802, 5.8"><path class="EdgeBody" d="m227.22 496.98 71.927-1e-13"   marker-end="url(#c)" marker-start="url(#e)" /></g><g class="Burr Anchor" transform="translate(263.52 496.98)" ><use class="Icon" width="0" height="0" fill="#141414" stroke-width="0" xlink:href="#b"/></g></g><g id="s" class="Interaction" color="#000" ><g color="#000" fill="transparent"  filter="url(#a)" stroke="#000" stroke-dasharray="47.550000000000566, 5.8"><path class="EdgeBody" d="m563.11 238.11-1e-13 -53.35"   marker-end="url(#c)" /></g><g class="Burr Anchor" transform="translate(563.11 211.02)" ><use class="Icon" width="0" height="0" fill="#141414" stroke-width="0" xlink:href="#b"/></g></g><g id="t" class="Interaction" color="#000" ><g color="#000" fill="transparent"  filter="url(#a)" stroke="#000" stroke-dasharray="5.39, 3.23, 5.39, 3.23, 5.39, 3.23, 5.39, 3.23, 5.39, 3.23, 5.39, 3.23, 5.39, 5.8"><path class="EdgeBody" d="m563.11 317 1e-13 -62.894"   marker-end="url(#c)" /></g><g class="Burr Anchor" transform="translate(563.11 281.81)" ><use class="Icon" width="0" height="0" fill="#141414" stroke-width="0" xlink:href="#b"/></g></g><g id="u" class="Interaction" color="#000" ><g color="#000" fill="transparent"  filter="url(#a)" stroke="#000" stroke-dasharray="64.13516303771367, 5.8"><path class="EdgeBody" d="m563.11 488.98-1.6e-12 -69.935"   marker-end="url(#c)" /></g><g class="Burr Anchor" transform="translate(563.11 453.76)" ><use class="Icon" width="0" height="0" fill="#141414" stroke-width="0" xlink:href="#b"/></g></g><g id="v" class="Interaction" color="#000" ><g color="#000" fill="transparent"  filter="url(#a)" stroke="#000" stroke-dasharray="41.27304693619233, 11"><path class="EdgeBody" d="m317.73 280.49 52.273-0.025182"   marker-end="url(#d)" /></g></g><g id="w" class="Interaction" color="#000" ><g color="#000" fill="transparent"  filter="url(#a)" stroke="#000" stroke-dasharray="37.85254482075272, 11"><path class="EdgeBody" d="m611.96 363.96-48.852 0.071787"   marker-end="url(#d)" /></g></g><g id="x" class="Interaction" color="#000" ><g color="#000" fill="transparent"  filter="url(#a)" stroke="#000" stroke-dasharray="37.85255909665129, 11"><path class="EdgeBody" d="m611.96 136.33-48.852 0.080921"   marker-end="url(#d)" /></g></g><g id="y" class="Interaction" color="#000" ><g color="#000" fill="transparent"  filter="url(#a)" stroke="#000" stroke-dasharray="30.341372556164714, 11"><path class="EdgeBody" d="m467.26 629.01-0.17232-41.341"   marker-end="url(#d)" /></g></g><g id="z" class="Interaction" color="#000" ><g color="#000" fill="transparent"  filter="url(#a)" stroke="#000" stroke-dasharray="30.3410671973229, 11"><path class="EdgeBody" d="m322.46 629.01-0.066672-41.341"   marker-end="url(#d)" /></g></g><g id="aa" class="Interaction" color="#000" ><g color="#000" fill="transparent"  filter="url(#a)" stroke="#000" stroke-dasharray="37.85249822014765, 11"><path class="EdgeBody" d="m611.96 211-48.852 0.024499"   marker-end="url(#d)" /></g></g><g id="ab" class="Interaction" color="#000" ><g color="#000" fill="transparent"  filter="url(#a)" stroke="#000" stroke-dasharray="15.923176038950796, 11"><path class="EdgeBody" d="m263.62 523.91-0.098529-26.923"   marker-end="url(#d)" /></g></g><g id="ac" class="Interaction" color="#000" ><g color="#000" fill="transparent"  filter="url(#a)" stroke="#000" stroke-dasharray="37.85467517165729, 11"><path class="EdgeBody" d="m611.96 540.51-48.852 0.46185"   marker-end="url(#d)" /></g></g><g id="ad" class="Interaction" color="#000" ><g color="#000" fill="transparent"  filter="url(#a)" stroke="#000" stroke-dasharray="37.860302076922935, 11"><path class="EdgeBody" d="m611.96 452.89-48.852 0.87358"   marker-end="url(#d)" /></g></g><g id="ae" class="Interaction" color="#000" ><g color="#000" fill="transparent"  filter="url(#a)" stroke="#000" stroke-dasharray="41.27305057666072, 11"><path class="EdgeBody" d="m317.73 135.83 52.273 0.031855"   marker-end="url(#d)" /></g></g><g id="af" class="Interaction" color="#000" ><g color="#000" fill="transparent"  filter="url(#a)" stroke="#000" stroke-dasharray="41.27327996452222, 11"><path class="EdgeBody" d="m317.73 363.96 52.273 0.1581"   marker-end="url(#d)" /></g></g><g id="ag" class="Interaction" color="#000" ><g color="#000" fill="transparent"  filter="url(#a)" stroke="#000" stroke-dasharray="41.273132906176805, 11"><path class="EdgeBody" d="m317.73 209.81 52.273 0.098092"   marker-end="url(#d)" /></g></g><g id="ah" class="Interaction" color="#000" ><g color="#000" fill="transparent"  filter="url(#a)" stroke="#000" stroke-dasharray="139.01211445824185, 5.8"><path class="EdgeBody" d="m370 506.98v51.224h-64.128v29.46"   marker-end="url(#c)" /></g></g><g id="ai" class="Interaction" color="#000" ><g color="#000" fill="transparent"  filter="url(#a)" stroke="#000" stroke-dasharray="41.403968216371716, 11"><path class="EdgeBody" d="m317.6 452.5 52.402-0.46853"   marker-end="url(#d)" /></g></g><g id="aj" class="Interaction" color="#000" ><g color="#000" fill="transparent"  filter="url(#a)" stroke="#000" stroke-dasharray="30.878269331536934, 11"><path class="EdgeBody" d="m604.99 281.71-41.878 0.10682"   marker-end="url(#d)" /></g></g><a class="ChEBI_CHEBI_15441 Metabolite  " transform="translate(501.61 399.05)" color="#00f"  name="(S)-2,3-Epoxysqualene"  ><rect class="Icon" transform="matrix(.99194 0 0 .95238 .49597 .47619)" width="123" height="20" fill="#fff" stroke="#00f"/><text class="Text" transform="translate(61.5,13)" fill="#00f"  font-size="10px"  text-anchor="middle"><tspan x="0" y="0">(S)-2,3-Epoxysqualene</tspan></text></a><a class="CAS_150-97-0 Metabolite ChEBI_CHEBI_17710  " transform="translate(330 236.11)" color="#00f"  name="Mevalonic acid"  ><rect class="Icon" transform="matrix(.98765 0 0 .95238 .49383 .47619)" width="80" height="20" fill="#fff" stroke="#00f"/><text class="Text" transform="translate(40,13)" fill="#00f"  font-size="10px"  text-anchor="middle"><tspan x="0" y="0">Mevalonic acid</tspan></text></a><a class="CAS_13058-04-3 Metabolite ChEBI_CHEBI_50277 ChEBI_CHEBI_17407  " transform="translate(501.11 577.67)" color="#00f"  name="farnesyl pyrophosphate"  ><rect class="Icon" transform="matrix(.992 0 0 .95238 .496 .47619)" width="124" height="20" fill="#fff" stroke="#00f"/><text class="Text" transform="translate(62,13)" fill="#00f"  font-size="10px"  text-anchor="middle"><tspan x="0" y="0">farnesyl pyrophosphate</tspan></text></a><a  class="GeneProduct FDPS " transform="translate(289.13 629.01)"   name="FDPS"  ><rect class="Icon" transform="matrix(.98522 0 0 .95238 .49261 .47619)" width="66.667" height="20" fill="#fff" stroke="#000"/><text class="Text" transform="translate(33.333 13)"   font-size="10px"  text-anchor="middle"><tspan x="0" y="0">FDPS</tspan></text></a><a  class="GeneProduct HMGCS1 " transform="translate(251.06 125.83)"   name="HMGCS1"  ><rect class="Icon" transform="matrix(.98522 0 0 .95238 .49261 .47619)" width="66.667" height="20" fill="#fff" stroke="#000"/><text class="Text" transform="translate(33.333 13)"   font-size="10px"  text-anchor="middle"><tspan x="0" y="0">HMGCS1</tspan></text></a><a class="CAS_80-99-9 Metabolite ChEBI_CHEBI_17168  " transform="translate(524.94 238.11)" color="#00f"  name="Lathosterol"  ><rect class="Icon" transform="matrix(.98707 0 0 .94118 .49353 .47059)" width="76.333" height="16" fill="#fff" stroke="#00f"/><text class="Text" transform="translate(38.167 11)" fill="#00f"  font-size="10px"  text-anchor="middle"><tspan x="0" y="0">Lathosterol</tspan></text></a><a  class="GeneProduct SQLE " transform="translate(611.96 442.89)"   name="SQLE"  ><rect class="Icon" transform="matrix(.98522 0 0 .95238 .49261 .47619)" width="66.667" height="20" fill="#fff" stroke="#000"/><text class="Text" transform="translate(33.333 13)"   font-size="10px"  text-anchor="middle"><tspan x="0" y="0">SQLE</tspan></text></a><a class="CAS_79-63-0 Metabolite ChEBI_CHEBI_16521  " transform="translate(523.11 317)" color="#00f"  name="Lanosterin"  ><rect class="Icon" transform="matrix(.98765 0 0 .95238 .49383 .47619)" width="80" height="20" fill="#fff" stroke="#00f"/><text class="Text" transform="translate(40,13)" fill="#00f"  font-size="10px"  text-anchor="middle"><tspan x="0" y="0">Lanosterin</tspan></text></a><a class="CAS_1492-08-6 Metabolite " transform="translate(285.5 399.05)" color="#00f"  name="Mevalonic acid 5-pyrophosphate"  ><rect class="Icon" transform="matrix(.99412 0 0 .95238 .49706 .47619)" width="169" height="20" fill="#fff" stroke="#00f"/><text class="Text" transform="translate(84.5,13)" fill="#00f"  font-size="10px"  text-anchor="middle"><tspan x="0" y="0">Mevalonic acid 5-pyrophosphate</tspan></text></a><a  class="GeneProduct IDI1 " transform="translate(230.29 523.91)"   name="IDI1"  ><rect class="Icon" transform="matrix(.98522 0 0 .95238 .49261 .47619)" width="66.667" height="20" fill="#fff" stroke="#000"/><text class="Text" transform="translate(33.333 13)"   font-size="10px"  text-anchor="middle"><tspan x="0" y="0">IDI1</tspan></text></a><a  class="GeneProduct MVD " transform="translate(250.93 442.5)"   name="MVD"  ><rect class="Icon" transform="matrix(.98522 0 0 .95238 .49261 .47619)" width="66.667" height="20" fill="#fff" stroke="#000"/><text class="Text" transform="translate(33.333 13)"   font-size="10px"  text-anchor="middle"><tspan x="0" y="0">MVD</tspan></text></a><a  class="GeneProduct HMGCR " transform="translate(251.06 199.81)"   name="HMGCR"  ><rect class="Icon" transform="matrix(.98522 0 0 .95238 .49261 .47619)" width="66.667" height="20" fill="#fff" stroke="#000"/><text class="Text" transform="translate(33.333 13)"   font-size="10px"  text-anchor="middle"><tspan x="0" y="0">HMGCR</tspan></text></a><a class="CAS_434-16-2 Metabolite ChEBI_CHEBI_17759  " transform="translate(503.89 164.76)" color="#00f"  name="7-Dehydrocholesterol"  ><rect class="Icon" transform="matrix(.99163 0 0 .95238 .49581 .47619)" width="118.45" height="20" fill="#fff" stroke="#00f"/><text class="Text" transform="translate(59.223 13)" fill="#00f"  font-size="10px"  text-anchor="middle"><tspan x="0" y="0">7-Dehydrocholesterol</tspan></text></a><a  class="GeneProduct DHCR7 " transform="translate(611.96 126.33)"   name="DHCR7"  ><rect class="Icon" transform="matrix(.98522 0 0 .95238 .49261 .47619)" width="66.667" height="20" fill="#fff" stroke="#000"/><text class="Text" transform="translate(33.333 13)"   font-size="10px"  text-anchor="middle"><tspan x="0" y="0">DHCR7</tspan></text></a><a class="CAS_358-71-4 Metabolite ChEBI_CHEBI_16584  " transform="translate(299.14 486.98)" color="#00f"  name="isopentenyl pyrophosphate"  ><rect class="Icon" transform="matrix(.99299 0 0 .95238 .4965 .47619)" width="141.71" height="20" fill="#fff" stroke="#00f"/><text class="Text" transform="translate(70.857 13)" fill="#00f"  font-size="10px"  text-anchor="middle"><tspan x="0" y="0">isopentenyl pyrophosphate</tspan></text></a><a  class="GeneProduct PMVK " transform="translate(251.06 353.96)"   name="PMVK"  ><rect class="Icon" transform="matrix(.98522 0 0 .95238 .49261 .47619)" width="66.667" height="20" fill="#fff" stroke="#000"/><text class="Text" transform="translate(33.333 13)"   font-size="10px"  text-anchor="middle"><tspan x="0" y="0">PMVK</tspan></text></a><a class="Metabolite ChEBI_CHEBI_15467  " transform="translate(327.98 165.26)" color="#00f"  name="HMG-CoA"  ><rect class="Icon" transform="matrix(.98824 0 0 .95 .49412 .475)" width="84.033" height="19" fill="#fff" stroke="#00f"/><text class="Text" transform="translate(42.017 12.5)" fill="#00f"  font-size="10px"  text-anchor="middle"><tspan x="0" y="0">HMG-CoA</tspan></text></a><a class="CAS_6699-20-3 Metabolite ChEBI_CHEBI_48861  " transform="translate(352.5 577.67)" color="#00f"  name="Geranyl-PP"  ><rect class="Icon" transform="matrix(.98765 0 0 .95238 .49383 .47619)" width="80" height="20" fill="#fff" stroke="#00f"/><text class="Text" transform="translate(40,13)" fill="#00f"  font-size="10px"  text-anchor="middle"><tspan x="0" y="0">Geranyl-PP</tspan></text></a><a class="CAS_57-88-5 Metabolite ChEBI_CHEBI_16113  " transform="translate(524.44 91)" color="#00f"  name="Cholesterol"  ><rect class="Icon" transform="matrix(.98723 0 0 .94118 .49362 .47059)" width="77.333" height="16" fill="#fff" stroke="#00f"/><text class="Text" transform="translate(38.667 11)" fill="#00f"  font-size="10px"  text-anchor="middle"><tspan x="0" y="0">Cholesterol</tspan></text></a><a class="WikiPathways_WP143 Pathway " transform="translate(288.5,30.5)" color="#14961e"  name="Fatty Acid Beta Oxidation"  ><use class="Icon" width="163.5" height="25" fill="transparent"  stroke="#14961e" stroke-width="0" xlink:href="#b"/><text class="Text" transform="translate(81.75,16.5)" fill="#14961e"  font-size="12px" font-weight="bold" stroke="black" stroke-width="0" text-anchor="middle"><tspan x="0" y="0">Fatty Acid Beta Oxidation</tspan></text></a><a class="CAS_73566-35-5 Metabolite ChEBI_CHEBI_17436  " transform="translate(321,317)" color="#00f"  name="Mevalonic acid-5P"  ><rect class="Icon" transform="matrix(.9899 0 0 .95238 .49495 .47619)" width="98" height="20" fill="#fff" stroke="#00f"/><text class="Text" transform="translate(49,13)" fill="#00f"  font-size="10px"  text-anchor="middle"><tspan x="0" y="0">Mevalonic acid-5P</tspan></text></a><a class="CAS_111-02-4 Metabolite ChEBI_CHEBI_15440  " transform="translate(529.94 488.98)" color="#00f"  name="Squalene"  ><rect class="Icon" transform="matrix(.98515 0 0 .94118 .49257 .47059)" width="66.333" height="16" fill="#fff" stroke="#00f"/><text class="Text" transform="translate(33.167 11)" fill="#00f"  font-size="10px"  text-anchor="middle"><tspan x="0" y="0">Squalene</tspan></text></a><a  class="GeneProduct SC5D " transform="translate(611.96 201)"   name="SC5DL"  ><rect class="Icon" transform="matrix(.98522 0 0 .95238 .49261 .47619)" width="66.667" height="20" fill="#fff" stroke="#000"/><text class="Text" transform="translate(33.333 13)"   font-size="10px"  text-anchor="middle"><tspan x="0" y="0">SC5DL</tspan></text></a><a  class="GeneProduct FDFT1 " transform="translate(611.96 530.51)"   name="FDFT1"  ><rect class="Icon" transform="matrix(.98522 0 0 .95238 .49261 .47619)" width="66.667" height="20" fill="#fff" stroke="#000"/><text class="Text" transform="translate(33.333 13)"   font-size="10px"  text-anchor="middle"><tspan x="0" y="0">FDFT1</tspan></text></a><a  class="GeneProduct LSS " transform="translate(611.96 353.96)"   name="LSS"  ><rect class="Icon" transform="matrix(.98522 0 0 .95238 .49261 .47619)" width="66.667" height="20" fill="#fff" stroke="#000"/><text class="Text" transform="translate(33.333 13)"   font-size="10px"  text-anchor="middle"><tspan x="0" y="0">LSS</tspan></text></a><a  class="GeneProduct MVK " transform="translate(251.06 270.49)"   name="MVK"  ><rect class="Icon" transform="matrix(.98522 0 0 .95238 .49261 .47619)" width="66.667" height="20" fill="#fff" stroke="#000"/><text class="Text" transform="translate(33.333 13)"   font-size="10px"  text-anchor="middle"><tspan x="0" y="0">MVK</tspan></text></a><a class="CAS_72-89-9 Metabolite ChEBI_CHEBI_15351  " transform="translate(332.83 91)" color="#00f"  name="Acetyl-CoA"  ><rect class="Icon" transform="matrix(.98673 0 0 .94118 .49336 .47059)" width="74.333" height="16" fill="#fff" stroke="#00f"/><text class="Text" transform="translate(37.167 11)" fill="#00f"  font-size="10px"  text-anchor="middle"><tspan x="0" y="0">Acetyl-CoA</tspan></text></a><a class="CAS_358-72-5 Metabolite ChEBI_CHEBI_16057  " transform="translate(75.334 486.98)" color="#00f"  name="Dimethylallyl pyrophosphate"  ><rect class="Icon" transform="matrix(.99346 0 0 .95238 .49673 .47619)" width="151.88" height="20" fill="#fff" stroke="#00f"/><text class="Text" transform="translate(75.941 13)" fill="#00f"  font-size="10px"  text-anchor="middle"><tspan x="0" y="0">Dimethylallyl pyrophosphate</tspan></text></a><g class="GroupGroup" transform="translate(604.99 243.71)" color="grey" ><use class="Icon" width="82.66666666666663" height="76.00000000000017" fill="transparent"  stroke="grey" stroke-dasharray="5,3" stroke-width="0" xlink:href="#b"/><a  class="GeneProduct NSDHL " transform="translate(8,8)"   name="NSDHL"  ><rect class="Icon" transform="matrix(.98522 0 0 .95238 .49261 .47619)" width="66.667" height="20" fill="#fff" stroke="#000"/><text class="Text" transform="translate(33.333 13)"   font-size="10px"  text-anchor="middle"><tspan x="0" y="0">NSDHL</tspan></text></a><a  class="GeneProduct MSMO1 " transform="translate(8 28)"   name="SC4MOL"  ><rect class="Icon" transform="matrix(.98522 0 0 .95238 .49261 .47619)" width="66.667" height="20" fill="#fff" stroke="#000"/><text class="Text" transform="translate(33.333 13)"   font-size="10px"  text-anchor="middle"><tspan x="0" y="0">SC4MOL</tspan></text></a><a  class="GeneProduct CYP51A1 " transform="translate(8 48)"   name="CYP51A1"  ><rect class="Icon" transform="matrix(.98522 0 0 .95238 .49261 .47619)" width="66.667" height="20" fill="#fff" stroke="#000"/><text class="Text" transform="translate(33.333 13)"   font-size="10px"  text-anchor="middle"><tspan x="0" y="0">CYP51A1</tspan></text></a></g><g id="ak" class="Interaction" color="#000" ><g color="#000" fill="transparent"  filter="url(#a)" stroke="#000" stroke-dasharray="146.22430184388702, 5.8"><path class="EdgeBody" d="m370 506.98v51.224h71.34v29.46"   marker-end="url(#c)" /></g></g><a  class="GeneProduct FDPS " transform="translate(433.92 629.01)"   name="FDPS"  ><rect class="Icon" transform="matrix(.98522 0 0 .95238 .49261 .47619)" width="66.667" height="20" fill="#fff" stroke="#000"/><text class="Text" transform="translate(33.333 13)"   font-size="10px"  text-anchor="middle"><tspan x="0" y="0">FDPS</tspan></text></a><text class="Text" transform="translate(5,36)" dominant-baseline="central" fill="black"  font-size="12px" font-weight="bold" overflow="visible" ><tspan x="0" y="-18">Name: Cholesterol biosynthesis pathway</tspan> <tspan x="0" y="0">Last Modified: 2/22/2013</tspan> <tspan x="0" y="18">Organism: Homo sapiens</tspan></text></g></svg>
