<?xml version="1.0" encoding="UTF-8"?>
<!--
  WikiPathways page: https://www.wikipathways.org/index.php/Pathway:WP2141
  URL for this compressed file: https://github.com/eweitz/cachome/tree/main/data/wikipathways/WP2141.svg
  Source code for compression: https://github.com/eweitz/cachome/tree/main/src/wikipathways.py
-->
<svg class="Diagram" width="800" height="600" color="black" baseProfile="full" prefix="schema:http://schema.org/" preserveAspectRatio="xMidYMid" version="1.1" viewBox="0 0 1169.1 792.87" vocab="http://vocabularies.wikipathways.org/wp#" xmlns="http://www.w3.org/2000/svg" xmlns:xlink="http://www.w3.org/1999/xlink"><style>svg {font-family: 'Liberation Sans', Arial, sans-serif; }</style><defs><filter id="g" x="-50%" y="-50%" width="200%" height="200%"><feComposite in="SourceGraphic" in2="SourceGraphic" result="doubleDark"/><feMorphology in="doubleDark" operator="dilate" radius="0.16666666666666666" result="in2Double"/><feMorphology in="SourceGraphic" operator="dilate" radius="3" result="inDouble"/><feComposite in="inDouble" in2="in2Double" operator="out" result="doubleResult"/></filter><filter id="a" x="0" y="0" width="1169.1" height="792.87" filterUnits="userSpaceOnUse"><feColorMatrix in="SourceGraphic" values="-1   0   0 0 0                   0  -1   0 0 0                   0   0  -1 0 0                   0   0   0 1 0"/></filter><filter id="h" x="0" y="0" width="1169.1" height="792.87" filterUnits="userSpaceOnUse"><feColorMatrix in="SourceGraphic" values="-1   0   0 0 0.4                   0  -1   0 0 0.4                   0   0  -1 0 0.4                   0   0   0 1 0"/></filter><marker id="b" stroke-dasharray="99999" markerHeight="12" markerUnits="userSpaceOnUse" markerWidth="12" orient="auto" preserveAspectRatio="none" refX="12" refY="6" viewBox="0 0 12 12"><path transform="rotate(180 6 6)" d="M12 11L0 6l12-5z" fill="currentColor" stroke-width="0"/></marker><marker id="f" stroke-dasharray="99999" markerHeight="12" markerUnits="userSpaceOnUse" markerWidth="12" orient="auto" preserveAspectRatio="none" refX="12" refY="6" viewBox="0 0 12 12"><circle transform="rotate(180 6 6)" cx="6" cy="6" r="5.3" fill="none" stroke="#000"/></marker><marker id="d" stroke-dasharray="99999" markerHeight="20" markerUnits="userSpaceOnUse" markerWidth="10" orient="auto" preserveAspectRatio="none" refX="10" refY="10" viewBox="0 0 10 20"><path d="m3 0v20" fill="currentColor" stroke="currentColor"/></marker><marker id="e" stroke-dasharray="99999" markerHeight="12" markerUnits="userSpaceOnUse" markerWidth="12" orient="auto" preserveAspectRatio="none" refX="12" refY="6" viewBox="0 0 12 12"><g transform="rotate(180 6 6)" fill="none"><path d="m12 6"/><path d="M0 6l11 5V1z" stroke="#000"/></g></marker><marker id="k" stroke-dasharray="99999" markerHeight="24" markerUnits="userSpaceOnUse" markerWidth="20" orient="auto" preserveAspectRatio="none" refX="20" refY="12" viewBox="0 0 20 24"><g transform="rotate(180 10 12)" fill="none" stroke="#000"><path d="M15 12V5M15.5 5H8M0 5l8-4v8z"/></g></marker><marker id="j" stroke-dasharray="99999" markerHeight="20" markerUnits="userSpaceOnUse" markerWidth="10" orient="auto" preserveAspectRatio="none" refX="10" refY="10" viewBox="0 0 10 20"><path d="m3 0v20" fill="currentColor" stroke="currentColor"/></marker><symbol id="l" overflow="visible" preserveAspectRatio="none" viewBox="0 0 50 50"><ellipse cx="25" cy="25" rx="25" ry="25" stroke="currentColor" vector-effect="non-scaling-stroke"/></symbol><symbol id="i" overflow="visible" preserveAspectRatio="none" viewBox="0 0 100 100"><path d="M0 25L25 0h50l25 25v50l-25 25H25L0 75z" stroke="currentColor" vector-effect="non-scaling-stroke"/></symbol><symbol id="c" preserveAspectRatio="none" viewBox="0 0 100 100"/></defs><g class="Viewport" color="black"  name="Name: Serotonin and anxiety Organism: Mus musculus"><rect class="Icon" width="1169.1" height="792.87" fill="#fff" stroke="#000" stroke-width="0"/><g id="m" class="Edge GraphicalLine" color="#666666" ><g color="#666666" fill="transparent"  filter="url(#h)" stroke="#000" stroke-dasharray="234.43823234124739, 0" stroke-width="2"><path class="EdgeBody" d="m828.48 340.24 234.44-4e-14"   /></g></g><g id="n" class="Inhibition" color="#000" ><g color="#000" fill="transparent"  filter="url(#a)" stroke="#000" stroke-dasharray="203.41064232739348, 7"><path class="EdgeBody" d="m564.09 284.13v40.868h-99.125v-50.417h-20"   marker-end="url(#j)" /></g></g><g id="o" class="Edge GraphicalLine" color="#666666" ><g color="#666666" fill="transparent"  filter="url(#h)" stroke="#000" stroke-dasharray="233.21743421052736, 0" stroke-width="2"><path class="EdgeBody" d="m832.29 320.04h233.22"   /></g></g><g id="p" class="DirectedInteraction" color="#000" ><g color="#000" fill="transparent"  filter="url(#a)" stroke="#000" stroke-dasharray="48.65407951939632, 5.8"><path class="EdgeBody" d="m610.77 263.18 54.451-0.62244"   marker-end="url(#b)" /></g></g><g id="q" class="DirectedInteraction" color="#000" ><g color="#000" fill="transparent"  filter="url(#a)" stroke="#000" stroke-dasharray="5.09, 3.05, 5.09, 3.05, 5.09, 3.05, 5.09, 3.05, 5.09, 3.05, 5.09, 3.05, 5.09, 3.05, 5.09, 3.05, 5.09, 3.05, 5.09, 3.05, 5.09, 3.05, 5.09, 3.05, 5.09, 3.05, 5.09, 3.05, 5.09, 3.05, 5.09, 3.05, 5.09, 3.05, 5.09, 3.05, 5.09, 3.05, 5.09, 3.05, 5.09, 3.05, 5.09, 3.05, 5.09, 3.05, 5.09, 3.05, 5.09, 3.05, 5.09, 3.05, 5.09, 3.05, 5.09, 3.05, 5.09, 3.05, 5.09, 3.05, 5.09, 3.05, 5.09, 3.05, 5.09, 3.05, 5.09, 3.05, 5.09, 3.05, 5.09, 3.05, 5.09, 3.05, 5.09, 3.05, 5.09, 3.05, 5.09, 3.05, 5.09, 3.05, 5.09, 3.05, 5.09, 3.05, 5.09, 3.05, 5.09, 3.05, 5.09, 3.05, 5.09, 3.05, 5.09, 3.05, 5.09, 3.05, 5.09, 3.05, 5.09, 3.05, 5.09, 3.05, 5.09, 3.05, 0, 5.8"><path class="EdgeBody" d="m676.69 413.66h-305.97v-128.39"   marker-end="url(#b)" /></g></g><g id="r" class="DirectedInteraction" color="#000" ><g color="#000" fill="transparent"  filter="url(#a)" stroke="#000" stroke-dasharray="191.1769006757799, 5.8"><path class="EdgeBody" d="m372.42 470.61h171.71v25.266"   marker-end="url(#b)" /></g></g><g id="s" class="DirectedInteraction" color="#000" ><g color="#000" fill="transparent"  filter="url(#a)" stroke="#000" stroke-dasharray="6, 3.6, 6, 3.6, 0, 5.8"><path class="EdgeBody" d="m153.56 561.59-23.233 0.48744"   marker-end="url(#b)" /></g></g><g id="t" class="DirectedInteraction" color="#000" ><g color="#000" fill="transparent"  filter="url(#a)" stroke="#000" stroke-dasharray="5.81, 3.48, 5.81, 3.48, 5.81, 5.8"><path class="EdgeBody" d="m273.25 561.68-30.194-0.091217"   marker-end="url(#b)" /></g></g><g id="u" class="Interaction" color="#000" ><g color="#000" fill="transparent"  filter="url(#a)" stroke="#000" stroke-dasharray="82.54226502309842, 7"><path class="EdgeBody" d="m999.08 231.05v20h0.03481v69.507"   marker-end="url(#d)" /></g></g><g id="v" class="DirectedInteraction" color="#000" ><g color="#000" fill="transparent"  filter="url(#a)" stroke="#000" stroke-dasharray="56.778756671875115, 5.8"><path class="EdgeBody" d="m713.61 216.19h62.579"   marker-end="url(#b)" /></g><g class="Burr Anchor" transform="translate(735.52 216.19)" ><use class="Icon" width="0" height="0" fill="#141414" stroke-width="0" xlink:href="#c"/></g></g><g id="w" class="Interaction" color="#000" ><g color="#000" fill="transparent"  filter="url(#a)" stroke="#000" stroke-dasharray="98.95465124189856, 11"><path class="EdgeBody" d="m889.16 340.19 109.95 0.37244"   marker-end="url(#k)" /></g></g><g id="x" class="Interaction" color="#000" ><g color="#000" fill="transparent"  filter="url(#a)" stroke="#000" stroke-dasharray="289.1239897623402, 7"><path class="EdgeBody" d="m30.543 297.56v173.11h123.01"   marker-end="url(#d)" /></g></g><g id="y" class="Interaction" color="#000" ><g color="#000" fill="transparent"  filter="url(#a)" stroke="#000" stroke-dasharray="207.9879079767992, 7"><path class="EdgeBody" d="m77.409 297.56v138.84h76.147"   marker-end="url(#d)" /></g></g><g id="z" class="DirectedInteraction" color="#000" ><g color="#000" fill="transparent"  filter="url(#a)" stroke="#000" stroke-dasharray="66.64480779272893, 5.8"><path class="EdgeBody" d="m444.96 263.9 72.441-0.72442"   marker-end="url(#b)" /></g></g><g id="aa" class="DirectedInteraction" color="#000" ><g color="#000" fill="transparent"  filter="url(#a)" stroke="#000" stroke-dasharray="5.5, 3.3, 5.5, 3.3, 5.5, 3.3, 5.5, 3.3, 5.5, 3.3, 5.5, 3.3, 5.5, 3.3, 5.5, 3.3, 5.5, 3.3, 5.5, 3.3, 0, 5.8"><path class="EdgeBody" d="m856.19 216.19h58.848v31.693"   marker-end="url(#b)" /></g></g><g id="ab" class="Interaction" color="#000" ><g color="#000" fill="transparent"  filter="url(#a)" stroke="#000" stroke-dasharray="58.41873298025922, 11"><path class="EdgeBody" d="m664.13 555.87 69.419-0.15201"   marker-end="url(#e)" /></g></g><g id="ac" class="Interaction" color="#000" ><g color="#000" fill="transparent"  filter="url(#a)" stroke="#000" stroke-dasharray="75.75089175497271, 11"><path class="EdgeBody" d="m955.04 257.88h24.073v62.678"   marker-end="url(#e)" /></g></g><g id="ad" class="Interaction" color="#000" ><g color="#000" fill="transparent"  filter="url(#a)" stroke="#000" stroke-dasharray="45.19325218943533, 7"><path class="EdgeBody" d="m100.84 280.88h20v-0.38567h31.808"   marker-end="url(#d)" /></g></g><g id="ae" class="Interaction" color="#000" ><g color="#000" fill="transparent"  filter="url(#a)" stroke="#000" stroke-dasharray="25.89239116168512, 11"><path class="EdgeBody" d="m711.91 283.51-0.22547 36.892"   marker-end="url(#e)" /></g></g><g id="af" class="Interaction" color="#000" ><g color="#000" fill="transparent"  filter="url(#a)" stroke="#000" stroke-dasharray="426.05826431896435, 7"><path class="EdgeBody" d="m760.33 16.738h238.74v194.32"   marker-end="url(#d)" /></g></g><g id="ag" class="Interaction" color="#000" ><g color="#000" fill="transparent"  filter="url(#a)" stroke="#000" stroke-dasharray="44.80866121396964, 7"><path class="EdgeBody" d="m100.84 247.51 51.808-0.33379"   marker-end="url(#d)" /></g></g><g id="ah" class="Interaction" color="#000" ><g color="#000" fill="transparent"  filter="url(#a)" stroke="#000" stroke-dasharray="29.00027619230334, 11"><path class="EdgeBody" d="m735.37 176.19 0.14865 40"   marker-end="url(#f)" /></g></g><g id="ai" class="DirectedInteraction" color="#000" ><g color="#000" fill="transparent"  filter="url(#a)" stroke="#000" stroke-dasharray="228.80526041666707, 5.8"><path class="EdgeBody" d="m624.13 565.87v121.52h91.354v21.732"   marker-end="url(#b)" /></g></g><g id="aj" class="DirectedInteraction" color="#000" ><g color="#000" fill="transparent"  filter="url(#a)" stroke="#000" stroke-dasharray="41.51300271566838, 5.8"><path class="EdgeBody" d="m243.06 470.67h20v-0.065261h27.248"   marker-end="url(#b)" /></g></g><g id="ak" class="DirectedInteraction" color="#000" ><g color="#000" fill="transparent"  filter="url(#a)" stroke="#000" stroke-dasharray="5.27, 3.16, 5.27, 3.16, 5.27, 3.16, 5.27, 3.16, 5.27, 3.16, 5.27, 3.16, 5.27, 3.16, 5.27, 3.16, 5.27, 3.16, 5.27, 3.16, 0, 5.8"><path class="EdgeBody" d="m504.22 26.051h-20v40.819h-26.168"   marker-end="url(#b)" /></g></g><g id="al" class="DirectedInteraction" color="#000" ><g color="#000" fill="transparent"  filter="url(#a)" stroke="#000" stroke-dasharray="250.7220564619932, 5.8"><path class="EdgeBody" d="m959.11 340.56v73.094h-183.43"   marker-end="url(#b)" /></g></g><g id="am" class="DirectedInteraction" color="#000" ><g color="#000" fill="transparent"  filter="url(#a)" stroke="#000" stroke-dasharray="74.19999999999989, 5.8"><path class="EdgeBody" d="m504.13 555.87h80"   marker-end="url(#b)" /></g><g class="Burr Anchor" transform="translate(544.13 555.87)" ><use class="Icon" width="0" height="0" fill="#141414" stroke-width="0" xlink:href="#c"/></g></g><g id="an" class="Interaction" color="#000" ><g color="#000" fill="transparent"  filter="url(#a)" stroke="#000" stroke-dasharray="29.00000000000034, 11"><path class="EdgeBody" d="m544.13 515.87v40"   marker-end="url(#f)" /></g></g><g id="ao" class="DirectedInteraction" color="#000" ><g color="#000" fill="transparent"  filter="url(#a)" stroke="#000" stroke-dasharray="219.40435182507818, 5.8"><path class="EdgeBody" d="m250.15 284.73h60.683v164.52"   marker-end="url(#b)" /></g></g><g id="ap" class="DirectedInteraction" color="#000" ><g color="#000" fill="transparent"  filter="url(#a)" stroke="#000" stroke-dasharray="90.09142991784113, 5.8"><path class="EdgeBody" d="m250.15 263.83h20v0.072608h75.819"   marker-end="url(#b)" /></g></g><g id="aq" class="DirectedInteraction" color="#000" ><g color="#000" fill="transparent"  filter="url(#a)" stroke="#000" stroke-dasharray="183.82828844944464, 5.8"><path class="EdgeBody" d="m250.15 242.94h62.851v-92.857h33.92"   marker-end="url(#b)" /></g></g><g id="ar" class="DirectedInteraction" color="#000" ><g color="#000" fill="transparent"  filter="url(#a)" stroke="#000" stroke-dasharray="5.08, 3.05, 5.08, 3.05, 5.08, 3.05, 5.08, 3.05, 5.08, 3.05, 5.08, 3.05, 5.08, 3.05, 5.08, 3.05, 5.08, 3.05, 5.08, 3.05, 5.08, 3.05, 0, 5.8"><path class="EdgeBody" d="m596.22 38.659 3.3333-6e-15c3.3333 6e-15 10 6e-15 13.333-3.6535 3.3333-3.6535 3.3333-10.96 14.019-14.614s32.058-3.6535 42.744-3.6535h10.686"   marker-end="url(#b)" /></g></g><g id="as" class="DirectedInteraction" color="#000" ><g color="#000" fill="transparent"  filter="url(#a)" stroke="#000" stroke-dasharray="187.6128449565765, 5.8"><path class="EdgeBody" d="m419.05 80.726v20h151.17v-22.243"   marker-end="url(#b)" /></g></g><g id="at" class="DirectedInteraction" color="#000" ><g color="#000" fill="transparent"  filter="url(#a)" stroke="#000" stroke-dasharray="5.04, 3.03, 5.04, 3.03, 5.04, 3.03, 5.04, 3.03, 5.04, 3.03, 5.04, 3.03, 5.04, 3.03, 5.04, 3.03, 5.04, 3.03, 5.04, 3.03, 5.04, 3.03, 5.04, 3.03, 5.04, 3.03, 5.04, 3.03, 5.04, 3.03, 5.04, 3.03, 5.04, 3.03, 5.04, 3.03, 5.04, 3.03, 5.04, 3.03, 5.04, 3.03, 5.04, 3.03, 5.04, 3.03, 5.04, 3.03, 5.04, 3.03, 5.04, 3.03, 5.04, 3.03, 5.04, 3.03, 5.04, 5.8"><path class="EdgeBody" d="m596.22 58.571h139.15v97.62"   marker-end="url(#b)" /></g></g><g class="SingleFreeNode Shape PhysicalEntity CellularComponent Nucleus" transform="translate(814.72 181.29)" color="#c0c0c0" ><g fill="transparent"  filter="url(#g)" stroke="#c0c0c0" stroke-width="3"><use class="Icon" transform="matrix(.96095 0 0 .96146 5.7657 5.7687)" width="295.2756578947369" height="299.33749999999986"    xlink:href="#l"/></g></g><g class="SingleFreeNode Shape PhysicalEntity CellularComponent Cell" transform="translate(209.66 22.407)" color="#c0c0c0" ><g fill="transparent"  filter="url(#g)" stroke="#c0c0c0" stroke-width="3"><rect class="Icon" transform="matrix(.98727 0 0 .98345 5.9236 5.9007)" width="930.92" height="713" rx="15" ry="15"   /></g></g><g class="Label" transform="translate(733.55 521.1)" color="#cc0033"  name="CHRONIC STRESS"><rect class="Icon" transform="matrix(.99215 0 0 .98576 .49607 .49288)" width="126.34" height="69.241" fill="#fff" stroke="#c03"/><text class="Text" transform="translate(63.171 42.621)" fill="#cc0033"  font-size="24px" font-weight="bold"  text-anchor="middle"><tspan x="0" y="-13.200000000000001">CHRONIC</tspan> <tspan x="0" y="13.200000000000001">STRESS</tspan></text></g><g class="Label" transform="translate(706.67 659.05)" color="#000"  name="positive  allosteric  modulation"><use class="Icon" width="80" height="38.57142857142844" fill="transparent"  stroke="#000" stroke-width="0" xlink:href="#c"/><text class="Text" transform="translate(40 22.286)"   font-size="10px"  text-anchor="middle"><tspan x="0" y="-11">positive </tspan> <tspan x="0" y="0">allosteric </tspan> <tspan x="0" y="11">modulation</tspan></text></g><g class="Label" transform="translate(462.84 80.617)" color="#000"  name="Dissociation"><use class="Icon" width="80" height="20" fill="transparent"  stroke="#000" stroke-width="0" xlink:href="#c"/><text class="Text" transform="translate(40,13)"   font-size="10px"  text-anchor="middle"><tspan x="0" y="0">Dissociation</tspan></text></g><g class="Label" transform="translate(647.88 320.4)" color="#cc0033"  name="ANXIETY"><rect class="Icon" transform="matrix(.99222 0 0 .98025 .49611 .49012)" width="127.61" height="49.631" fill="#fff" stroke="#c03"/><text class="Text" transform="translate(63.806 32.815)" fill="#cc0033"  font-size="24px" font-weight="bold"  text-anchor="middle"><tspan x="0" y="0">ANXIETY</tspan></text></g><g class="Label" transform="translate(939.11 320.56)" color="#000"  name="Arc"><rect class="Icon" transform="matrix(.98765 0 0 .95238 .49383 .47619)" width="80" height="20" fill="#fff" stroke="#000"/><text class="Text" transform="translate(40,13)"   font-size="10px"  text-anchor="middle"><tspan x="0" y="0">Arc</tspan></text></g><g class="Label" transform="translate(916.6 442.17)" color="#000"  name="Nucleus"><use class="Icon" width="80" height="20" fill="transparent"  stroke="#000" stroke-width="0" xlink:href="#c"/><text class="Text" transform="translate(40,13)"   font-size="10px"  text-anchor="middle"><tspan x="0" y="0">Nucleus</tspan></text></g><g class="Label" transform="translate(860.57 395.36)" color="#000"  name="de Novo synthesis"><use class="Icon" width="88.03750000000109" height="18.137500000000077" fill="transparent"  stroke="#000" stroke-width="0" xlink:href="#c"/><text class="Text" transform="translate(44.019 12.069)"   font-size="10px"  text-anchor="middle"><tspan x="0" y="0">de Novo synthesis</tspan></text></g><g class="Label" transform="translate(984,566)" color="#000"  name="Miscellaneous genes possibly involved"><use class="Icon" width="144" height="20" fill="transparent"  stroke="#000" stroke-width="0" xlink:href="#c"/><text class="Text" transform="translate(72,13)"   font-size="10px"  text-anchor="middle"><tspan x="0" y="-5.5">Miscellaneous genes</tspan> <tspan x="0" y="5.5">possibly involved</tspan></text></g><g class="Label" transform="translate(849.16 320.19)" color="#000"  name="E-box"><rect class="Icon" transform="matrix(.98765 0 0 .95238 .49383 .47619)" width="80" height="20" fill="#fff" stroke="#000"/><text class="Text" transform="translate(40,13)"   font-size="10px"  text-anchor="middle"><tspan x="0" y="0">E-box</tspan></text></g><a  class="GeneProduct P594_ENSMUSG00000026173 " transform="translate(997.37 680.55)"   name="Plcd4"  ><rect class="Icon" transform="matrix(.99078 0 0 .97784 .49539 .48892)" width="107.44" height="44.12" fill="#fff" stroke="#000"/><text class="Text" transform="translate(53.72 25.06)"   font-size="10px"  text-anchor="middle"><tspan x="0" y="0">Plcd4</tspan></text></a><a  class="GeneProduct P594_ENSMUSG00000020120 " transform="translate(997.37 636.43)"   name="Plek"  ><rect class="Icon" transform="matrix(.99078 0 0 .97784 .49539 .48892)" width="107.44" height="44.12" fill="#fff" stroke="#000"/><text class="Text" transform="translate(53.72 25.06)"   font-size="10px"  text-anchor="middle"><tspan x="0" y="0">Plek</tspan></text></a><a class="PubChem-compound_91475 Metabolite " transform="translate(584.13 545.87)" color="#00f"  name="THDOC"  ><rect class="Icon" transform="matrix(.98765 0 0 .95238 .49383 .47619)" width="80" height="20" fill="#fff" stroke="#00f"/><text class="Text" transform="translate(40,13)" fill="#00f"  font-size="10px"  text-anchor="middle"><tspan x="0" y="0">THDOC</tspan></text></a><a  class="GeneProduct P594_ENSMUSG00000020660 " transform="translate(504.13 495.87)"   name="Pomc"  ><rect class="Icon" transform="matrix(.98765 0 0 .95238 .49383 .47619)" width="80" height="20" fill="#fff" stroke="#000"/><text class="Text" transform="translate(40,13)"   font-size="10px"  text-anchor="middle"><tspan x="0" y="0">Pomc</tspan></text></a><a class="PubChem-compound_3822 Metabolite ChEBI_CHEBI_6123  " transform="translate(7.1101 230.82)" color="#00f"  name="Ketanserin"  ><rect class="Icon" transform="matrix(.98944 0 0 .98524 .49472 .49262)" width="93.731" height="66.74" fill="#fff" stroke="#00f"/><text class="Text" transform="translate(46.866 36.37)" fill="#00f"  font-size="10px"  text-anchor="middle"><tspan x="0" y="0">Ketanserin</tspan></text></a><a class="ChEBI_CHEBI_29108 Metabolite  " transform="translate(380.05 53.015)" color="#00f"  name="Ca2+"  ><rect class="Icon" transform="matrix(.98734 0 0 .96517 .49367 .48259)" width="78.005" height="27.711" fill="#fff" stroke="#00f"/><text class="Text" transform="translate(39.002 16.855)" fill="#00f"  font-size="10px"  text-anchor="middle"><tspan x="0" y="0">Ca2+</tspan></text></a><a  class="GeneProduct P594_ENSMUSG00000005952 " transform="translate(665.23 241.61)"   name="Trpv1"  ><rect class="Icon" transform="matrix(.9894 0 0 .97669 .4947 .48835)" width="93.369" height="41.903" fill="#fff" stroke="#000"/><text class="Text" transform="translate(46.684 23.951)"   font-size="10px"  text-anchor="middle"><tspan x="0" y="0">Trpv1</tspan></text></a><a  class="GeneProduct P594_ENSMUSG00000052889 " transform="translate(997.37 592.31)"   name="Prkcb"  ><rect class="Icon" transform="matrix(.99078 0 0 .97784 .49539 .48892)" width="107.44" height="44.12" fill="#fff" stroke="#000"/><text class="Text" transform="translate(53.72 25.06)"   font-size="10px"  text-anchor="middle"><tspan x="0" y="0">Prkcb</tspan></text></a><a  class="GeneProduct P594_ENSMUSG00000000838 " transform="translate(959.08 211.05)"   name="Fmr1"  ><rect class="Icon" transform="matrix(.98765 0 0 .95238 .49383 .47619)" width="80" height="20" fill="#fff" stroke="#000"/><text class="Text" transform="translate(40,13)"   font-size="10px"  text-anchor="middle"><tspan x="0" y="0">Fmr1</tspan></text></a><a class="ChEBI_CHEBI_29108 Metabolite  " transform="translate(40.823 544.94)" color="#00f"  name="Ca2+"  ><rect class="Icon" transform="matrix(.98895 0 0 .97165 .49448 .48582)" width="89.5" height="34.27" fill="#fff" stroke="#00f"/><text class="Text" transform="translate(44.75 20.135)" fill="#00f"  font-size="10px"  text-anchor="middle"><tspan x="0" y="0">Ca2+</tspan></text></a><a  class="GeneProduct P594_ENSMUSG00000049796 " transform="translate(290.3 449.25)"   name="Crh"  ><rect class="Icon" transform="matrix(.98797 0 0 .97712 .49398 .48856)" width="82.112" height="42.713" fill="#fff" stroke="#000"/><text class="Text" transform="translate(41.056 24.357)"   font-size="10px"  text-anchor="middle"><tspan x="0" y="0">Crh</tspan></text></a><a class="ChEBI_CHEBI_29108 Metabolite  " transform="translate(273.25 544.54)" color="#00f"  name="Ca2+"  ><rect class="Icon" transform="matrix(.98895 0 0 .97165 .49448 .48582)" width="89.5" height="34.27" fill="#fff" stroke="#00f"/><text class="Text" transform="translate(44.75 20.135)" fill="#00f"  font-size="10px"  text-anchor="middle"><tspan x="0" y="0">Ca2+</tspan></text></a><a  class="GeneProduct P594_ENSMUSG00000028161 " transform="translate(517.41 242.23)"   name="Ppp3ca"  ><rect class="Icon" transform="matrix(.9894 0 0 .97669 .4947 .48835)" width="93.369" height="41.903" fill="#fff" stroke="#000"/><text class="Text" transform="translate(46.684 23.951)"   font-size="10px"  text-anchor="middle"><tspan x="0" y="0">Ppp3ca</tspan></text></a><g class="Uniprot-TrEMBL_P58252 GeneProduct P594_ENSMUSG00000034994 " transform="translate(776.19 206.19)" color="#000"  name="eEF2-P"><rect class="Icon" transform="matrix(.98765 0 0 .95238 .49383 .47619)" width="80" height="20" fill="#fff" stroke="#000"/><text class="Text" transform="translate(40,13)"   font-size="10px"  text-anchor="middle"><tspan x="0" y="0">eEF2-P</tspan></text></g><a  class="GeneProduct P594_ENSMUSG00000010803 " transform="translate(678.6 709.12)"   name="Gabra1"  ><rect class="Icon" transform="matrix(.99327 0 0 .98174 .49663 .49087)" width="147.52" height="53.751" fill="#fff" stroke="#000"/><text class="Text" transform="translate(73.759 29.875)"   font-size="10px"  text-anchor="middle"><tspan x="0" y="0">Gabra1</tspan></text></a><a  class="GeneProduct P594_ENSMUSG00000022602 " transform="translate(153.56 544.45)"   name="Arc"  ><rect class="Icon" transform="matrix(.98895 0 0 .97165 .49448 .48582)" width="89.5" height="34.27" fill="#fff" stroke="#000"/><text class="Text" transform="translate(44.75 20.135)"   font-size="10px"  text-anchor="middle"><tspan x="0" y="0">Arc</tspan></text></a><a  class="GeneProduct P594_ENSMUSG00000021250 " transform="translate(346.92 128.72)"   name="Fos"  ><rect class="Icon" transform="matrix(.99 0 0 .97712 .495 .48856)" width="98.997" height="42.713" fill="#fff" stroke="#000"/><text class="Text" transform="translate(49.499 24.357)"   font-size="10px"  text-anchor="middle"><tspan x="0" y="0">Fos</tspan></text></a><a class="PubChem-compound_6166 Metabolite ChEBI_CHEBI_16973  " transform="translate(424.13 545.87)" color="#00f"  name="DOC"  ><rect class="Icon" transform="matrix(.98765 0 0 .95238 .49383 .47619)" width="80" height="20" fill="#fff" stroke="#00f"/><text class="Text" transform="translate(40,13)" fill="#00f"  font-size="10px"  text-anchor="middle"><tspan x="0" y="0">DOC</tspan></text></a><a  class="GeneProduct P594_ENSMUSG00000021721 " transform="translate(153.56 453.54)"   name="Htr1a"  ><rect class="Icon" transform="matrix(.98895 0 0 .97165 .49448 .48582)" width="89.5" height="34.27" fill="#fff" stroke="#000"/><text class="Text" transform="translate(44.75 20.135)"   font-size="10px"  text-anchor="middle"><tspan x="0" y="0">Htr1a</tspan></text></a><a  class="GeneProduct P594_ENSMUSG00000045875 " transform="translate(153.56 419.27)"   name="Adra1a"  ><rect class="Icon" transform="matrix(.98895 0 0 .97165 .49448 .48582)" width="89.5" height="34.27" fill="#fff" stroke="#000"/><text class="Text" transform="translate(44.75 20.135)"   font-size="10px"  text-anchor="middle"><tspan x="0" y="0">Adra1a</tspan></text></a><a  class="GeneProduct P594_ENSMUSG00000022602 " transform="translate(345.97 242.55)"   name="Arc"  ><rect class="Icon" transform="matrix(.99 0 0 .97712 .495 .48856)" width="98.997" height="42.713" fill="#fff" stroke="#000"/><text class="Text" transform="translate(49.499 24.357)"   font-size="10px"  text-anchor="middle"><tspan x="0" y="0">Arc</tspan></text></a><g class="Uniprot-TrEMBL_P58252 GeneProduct P594_ENSMUSG00000034994 " transform="translate(633.61 206.19)" color="#000"  name="eEF2"><rect class="Icon" transform="matrix(.98765 0 0 .95238 .49383 .47619)" width="80" height="20" fill="#fff" stroke="#000"/><text class="Text" transform="translate(40,13)"   font-size="10px"  text-anchor="middle"><tspan x="0" y="0">eEF2</tspan></text></g><g class="GroupGroup" transform="translate(144.65 222.04)" color="grey" ><use class="Icon" width="105.5" height="83.58843933511918" fill="transparent"  stroke="grey" stroke-dasharray="5,3" stroke-width="0" xlink:href="#c"/><a  class="GeneProduct P594_ENSMUSG00000041380 " transform="translate(8,8)"   name="Htr2c"  ><rect class="Icon" transform="matrix(.98895 0 0 .97165 .49448 .48582)" width="89.5" height="34.27" fill="#fff" stroke="#000"/><text class="Text" transform="translate(44.75 20.135)"   font-size="10px"  text-anchor="middle"><tspan x="0" y="0">Htr2c</tspan></text></a><a  class="GeneProduct P594_ENSMUSG00000034997 " transform="translate(8 41.318)"   name="Htr2a"  ><rect class="Icon" transform="matrix(.98895 0 0 .97165 .49448 .48582)" width="89.5" height="34.27" fill="#fff" stroke="#000"/><text class="Text" transform="translate(44.75 20.135)"   font-size="10px"  text-anchor="middle"><tspan x="0" y="0">Htr2a</tspan></text></a></g><g class="GroupComplex" transform="translate(683.37 144.19)" color="grey" ><use class="Icon" transform="matrix(.99457 0 0 .97778 .49728 .48889)" width="183.13616240146837" height="44" fill="#b4b464" fill-opacity=".1" stroke="grey" xlink:href="#i"/><a  class="GeneProduct P594_ENSMUSG00000057897 " transform="translate(91.136 12)"   name="CaM"  ><rect class="Icon" transform="matrix(.98765 0 0 .95238 .49383 .47619)" width="80" height="20" fill="#fff" stroke="#000"/><text class="Text" transform="translate(40,13)"   font-size="10px"  text-anchor="middle"><tspan x="0" y="0">CaM</tspan></text></a><g class="GeneProduct" transform="translate(12,12)" color="#000"  name="eEF2K"><rect class="Icon" transform="matrix(.98765 0 0 .95238 .49383 .47619)" width="80" height="20" fill="#fff" stroke="#000"/><text class="Text" transform="translate(40,13)"   font-size="10px"  text-anchor="middle"><tspan x="0" y="0">eEF2K</tspan></text></g></g><g class="GroupComplex" transform="translate(492.22 -1.1651)" color="grey" ><use class="Icon" transform="matrix(.99048 0 0 .9876 .49524 .4938)" width="104.00000000000011" height="79.64795918367345" fill="#b4b464" fill-opacity=".1" stroke="grey" xlink:href="#i"/><a  class="GeneProduct P594_ENSMUSG00000019828 " transform="translate(12 12)"   name="mGluR1"  ><rect class="Icon" transform="matrix(.98765 0 0 .96819 .49383 .48409)" width="80" height="30.432" fill="#fff" stroke="#000"/><text class="Text" transform="translate(40 18.216)"   font-size="10px"  text-anchor="middle"><tspan x="0" y="0">mGluR1</tspan></text></a><g class="GeneProduct" transform="translate(12 37.216)" color="#000"  name="eEF2K"><rect class="Icon" transform="matrix(.98765 0 0 .96819 .49383 .48409)" width="80" height="30.432" fill="#fff" stroke="#000"/><text class="Text" transform="translate(40 18.216)"   font-size="10px"  text-anchor="middle"><tspan x="0" y="0">eEF2K</tspan></text></g></g><a  class="GeneProduct P594_ENSMUSG00000019828 " transform="translate(680.33 1.5219)"   name="mGluR1"  ><rect class="Icon" transform="matrix(.98765 0 0 .96819 .49383 .48409)" width="80" height="30.432" fill="#fff" stroke="#000"/><text class="Text" transform="translate(40 18.216)"   font-size="10px"  text-anchor="middle"><tspan x="0" y="0">mGluR1</tspan></text></a><g class="Uniprot-TrEMBL_P58252 GeneProduct P594_ENSMUSG00000034994 " transform="translate(875.04 247.88)" color="#000"  name="eEF2-P"><rect class="Icon" transform="matrix(.98765 0 0 .95238 .49383 .47619)" width="80" height="20" fill="#fff" stroke="#000"/><text class="Text" transform="translate(40,13)"   font-size="10px"  text-anchor="middle"><tspan x="0" y="0">eEF2-P</tspan></text></g><a  class="GeneProduct P594_ENSMUSG00000022602 " transform="translate(676.69 392.3)"   name="Arc"  ><rect class="Icon" transform="matrix(.99 0 0 .97712 .495 .48856)" width="98.997" height="42.713" fill="#fff" stroke="#000"/><text class="Text" transform="translate(49.499 24.357)"   font-size="10px"  text-anchor="middle"><tspan x="0" y="0">Arc</tspan></text></a><text class="Text" transform="translate(5,27)" dominant-baseline="central" fill="black"  font-size="12px" font-weight="bold" overflow="visible" ><tspan x="0" y="-9">Name: Serotonin and anxiety</tspan> <tspan x="0" y="9">Organism: Mus musculus</tspan></text></g></svg>
