<?xml version="1.0" encoding="UTF-8"?>
<!--
  WikiPathways page: https://www.wikipathways.org/index.php/Pathway:WP2113
  URL for this compressed file: https://github.com/eweitz/cachome/tree/main/data/wikipathways/WP2113.svg
  Source code for compression: https://github.com/eweitz/cachome/tree/main/src/wikipathways.py
-->
<svg class="Diagram" width="800" height="600" color="black" baseProfile="full" prefix="schema:http://schema.org/" preserveAspectRatio="xMidYMid" version="1.1" viewBox="0 0 1413 1224" vocab="http://vocabularies.wikipathways.org/wp#" xmlns="http://www.w3.org/2000/svg" xmlns:xlink="http://www.w3.org/1999/xlink"><style>svg {font-family: 'Liberation Sans', Arial, sans-serif; }</style><defs><filter id="e" x="-50%" y="-50%" width="200%" height="200%"><feComposite in="SourceGraphic" in2="SourceGraphic" result="doubleDark"/><feMorphology in="doubleDark" operator="dilate" radius="0.16666666666666666" result="in2Double"/><feMorphology in="SourceGraphic" operator="dilate" radius="3" result="inDouble"/><feComposite in="inDouble" in2="in2Double" operator="out" result="doubleResult"/></filter><filter id="a" x="0" y="0" width="1413" height="1224" filterUnits="userSpaceOnUse"><feColorMatrix in="SourceGraphic" values="-1   0   0 0 0                   0  -1   0 0 0                   0   0  -1 0 0                   0   0   0 1 0"/></filter><marker id="c" stroke-dasharray="99999" markerHeight="12" markerUnits="userSpaceOnUse" markerWidth="12" orient="auto" preserveAspectRatio="none" refX="12" refY="6" viewBox="0 0 12 12"><path transform="rotate(180 6 6)" d="M12 11L0 6l12-5z" fill="currentColor" stroke-width="0"/></marker><marker id="b" stroke-dasharray="99999" markerHeight="12" markerUnits="userSpaceOnUse" markerWidth="12" orient="auto" preserveAspectRatio="none" refX="12" refY="6" viewBox="0 0 12 12"><path transform="rotate(180 6 6)" d="M12 12L0 6l12-6-7 6z" fill="currentColor" stroke-width="0"/></marker><marker id="g" stroke-dasharray="99999" markerHeight="12" markerUnits="userSpaceOnUse" markerWidth="12" orient="auto" preserveAspectRatio="none" refX="12" refY="6" viewBox="0 0 12 12"><path transform="rotate(180 6 6)" d="M12 11L0 6l12-5z" fill="currentColor" stroke-width="0"/></marker><symbol id="i" overflow="visible" preserveAspectRatio="none" viewBox="0 0 50 50"><ellipse cx="25" cy="25" rx="25" ry="25" stroke="currentColor" vector-effect="non-scaling-stroke"/></symbol><symbol id="h" overflow="visible" preserveAspectRatio="none" viewBox="0 0 100 100"><path d="M0 25L25 0h50l25 25v50l-25 25H25L0 75z" stroke="currentColor" vector-effect="non-scaling-stroke"/></symbol><symbol id="f" overflow="visible" preserveAspectRatio="none" viewBox="0 0 50 50"><path d="M14.5 3.3v43.4L61 25z" stroke="currentColor" vector-effect="non-scaling-stroke"/></symbol><symbol id="d" preserveAspectRatio="none" viewBox="0 0 100 100"/></defs><g class="Viewport" color="black"  name="Name: Type III interferon signaling Organism: Homo sapiens"><rect class="Icon" width="1413" height="1224" fill="#fff" stroke="#000" stroke-width="0"/><g id="j" class="DirectedInteraction" color="#000" ><g color="#000" fill="transparent"  filter="url(#a)" stroke="#000" stroke-dasharray="432.9174489349609, 5.8"><path class="EdgeBody" d="m671.75 586-148 413"   marker-end="url(#c)" /></g></g><g id="k" class="DirectedInteraction" color="#000" ><g color="#000" fill="transparent"  filter="url(#a)" stroke="#000" stroke-dasharray="418.8998940428406, 5.8"><path class="EdgeBody" d="m671.75 586 161 393"   marker-end="url(#c)" /></g></g><g id="l" class="Interaction" color="#000" ><g color="#000" fill="transparent"  filter="url(#a)" stroke="#000" stroke-dasharray="120.34455076351801, 1"><path class="EdgeBody" d="m703 107-66.5 101.5"   marker-end="url(#b)" /></g></g><g id="m" class="Interaction" color="#000" ><g color="#000" fill="transparent"  filter="url(#a)" stroke="#000" stroke-dasharray="95.10671152422186, 1"><path class="EdgeBody" d="m584 128 52.5 80.5"   marker-end="url(#b)" /></g></g><g id="n" class="Interaction" color="#000" ><g color="#000" fill="transparent"  filter="url(#a)" stroke="#000" stroke-dasharray="134.71477443521024, 1"><path class="EdgeBody" d="m509 162 127.5 46.5"   marker-end="url(#b)" /></g></g><g class="GroupGroup" transform="translate(609.5,337)" color="grey" ><use class="Icon" width="170.5" height="257" fill="transparent"  stroke="grey" stroke-dasharray="5,3" stroke-width="0" xlink:href="#d"/><g id="o" class="DirectedInteraction" color="#000" ><g color="#000" fill="transparent"  filter="url(#a)" stroke="#000" stroke-dasharray="91.32266728215407, 5.8"><path class="EdgeBody" d="m27 8 35.25 90.5"   marker-end="url(#c)" /></g></g><g class="SingleFreeNode Shape" transform="translate(8,98.5)" color="#66ff33" ><rect class="Icon" transform="matrix(.97309 0 0 .98046 1.4596 1.4707)" width="108.5" height="150.5" rx="15" ry="15" fill="transparent"  stroke="#6f3" stroke-width="3"/></g><g class="Label" transform="translate(66.5,75)" color="#000"  name="ISGF3 complex"><use class="Icon" width="96" height="20" fill="transparent"  stroke="#000" stroke-width="0" xlink:href="#d"/><text class="Text" transform="translate(48,14)"   font-size="12px" font-weight="bold"  text-anchor="middle"><tspan x="0" y="0">ISGF3 complex</tspan></text></g><a  class="GeneProduct IRF9 " transform="translate(21.5,199)"   name="IRF9"  ><rect class="Icon" transform="matrix(.98765 0 0 .95238 .49383 .47619)" width="80" height="20" fill="#fff" stroke="#000"/><text class="Text" transform="translate(40,13)"   font-size="10px"  text-anchor="middle"><tspan x="0" y="0">IRF9</tspan></text></a></g><g id="p" class="Interaction" color="#000" ><g color="#000" fill="transparent"  filter="url(#a)" stroke="#000" stroke-dasharray="222.9515787601077, 5.8"><path class="EdgeBody" d="m636.5 345v3.3333c0 3.3333 0 10-26.125 13.333-26.125 3.3333-78.375 3.3333-104.5 18.917-26.125 15.583-26.125 46.75-26.125 62.333l6e-14 15.583"   marker-end="url(#g)" /></g></g><g class="SingleFreeNode Shape PhysicalEntity CellularComponent Cell" transform="translate(24,257.5)" color="#c0c0c0" ><g fill="transparent"  filter="url(#e)" stroke="#c0c0c0" stroke-width="3"><rect class="Icon" transform="matrix(.99126 0 0 .98737 5.9475 5.9242)" width="1360.5" height="938" rx="15" ry="15"   /></g></g><g class="SingleFreeNode Shape" transform="translate(536,208.5)" color="#33ff33" ><rect class="Icon" transform="matrix(.98529 0 0 .97849 1.4779 1.4677)" width="201" height="136.5" rx="15" ry="15" fill="transparent"  stroke="#3f3" stroke-width="3"/></g><g class="SingleFreeNode Shape PhysicalEntity CellularComponent Nucleus" transform="translate(389.5,829.5)" color="#c0c0c0" ><g fill="transparent"  filter="url(#e)" stroke="#c0c0c0" stroke-width="3"><use class="Icon" transform="matrix(.98256 0 0 .96439 5.8953 5.7864)" width="676" height="325"    xlink:href="#i"/></g></g><g class="SingleFreeNode Shape" transform="translate(512,999)" color="#000"  name="ISRE"><use class="Icon" transform="matrix(.97917 0 0 .97619 .48958 .4881)" width="47" height="41" fill="transparent"  stroke="#000" xlink:href="#f"/><text class="Text" transform="translate(23.5,24.5)"   font-size="12px" font-weight="bold"  text-anchor="middle"><tspan x="0" y="0">ISRE</tspan></text></g><a  class="GeneProduct IFNL2 " transform="translate(469,142)"   name="IL28A"  ><rect class="Icon" transform="matrix(.98765 0 0 .95238 .49383 .47619)" width="80" height="20" rx="15" ry="15" fill="#fff" stroke="#000"/><text class="Text" transform="translate(40,13)"   font-size="10px"  text-anchor="middle"><tspan x="0" y="0">IL28A</tspan></text></a><a  class="GeneProduct IFNL1 " transform="translate(663,87)"   name="IL29"  ><rect class="Icon" transform="matrix(.98765 0 0 .95238 .49383 .47619)" width="80" height="20" rx="15" ry="15" fill="#fff" stroke="#000"/><text class="Text" transform="translate(40,13)"   font-size="10px"  text-anchor="middle"><tspan x="0" y="0">IL29</tspan></text></a><a  class="GeneProduct IFNL3 " transform="translate(544,108)"   name="IL28B"  ><rect class="Icon" transform="matrix(.98765 0 0 .95238 .49383 .47619)" width="80" height="20" rx="15" ry="15" fill="#fff" stroke="#000"/><text class="Text" transform="translate(40,13)"   font-size="10px"  text-anchor="middle"><tspan x="0" y="0">IL28B</tspan></text></a><a  class="GeneProduct JAK1 " transform="translate(541,275)"   name="JAK1"  ><rect class="Icon" transform="matrix(.98765 0 0 .95238 .49383 .47619)" width="80" height="20" rx="15" ry="15" fill="#fff" stroke="#000"/><text class="Text" transform="translate(40,13)"   font-size="10px"  text-anchor="middle"><tspan x="0" y="0">JAK1</tspan></text></a><a  class="GeneProduct IL10RB " transform="translate(636,248)"   name="IL10RB"  ><rect class="Icon" transform="matrix(.98765 0 0 .95238 .49383 .47619)" width="80" height="20" rx="15" ry="15" fill="#fff" stroke="#000"/><text class="Text" transform="translate(40,13)"   font-size="10px"  text-anchor="middle"><tspan x="0" y="0">IL10RB</tspan></text></a><a  class="GeneProduct TYK2 " transform="translate(648,273)"   name="TYK2"  ><rect class="Icon" transform="matrix(.98765 0 0 .95238 .49383 .47619)" width="80" height="20" rx="15" ry="15" fill="#fff" stroke="#000"/><text class="Text" transform="translate(40,13)"   font-size="10px"  text-anchor="middle"><tspan x="0" y="0">TYK2</tspan></text></a><a  class="GeneProduct IFNLR1 " transform="translate(547,247)"   name="IL28RA"  ><rect class="Icon" transform="matrix(.98765 0 0 .95238 .49383 .47619)" width="80" height="20" rx="15" ry="15" fill="#fff" stroke="#000"/><text class="Text" transform="translate(40,13)"   font-size="10px"  text-anchor="middle"><tspan x="0" y="0">IL28RA</tspan></text></a><a  class="GeneProduct STAT2 " transform="translate(630,453)"   name="STAT2"  ><rect class="Icon" transform="matrix(.98765 0 0 .95238 .49383 .47619)" width="80" height="20" rx="15" ry="15" fill="#fff" stroke="#000"/><text class="Text" transform="translate(40,13)"   font-size="10px"  text-anchor="middle"><tspan x="0" y="0">STAT2</tspan></text></a><g class="GroupComplex" transform="translate(413.5,458.5)" color="grey" ><use class="Icon" transform="matrix(.99251 0 0 .98857 .49625 .49429)" width="132.5" height="86.5" fill="#b4b464" fill-opacity=".1" stroke="grey" xlink:href="#h"/><a  class="GeneProduct STAT1 " transform="translate(22.5,44.5)"   name="STAT1"  ><rect class="Icon" transform="matrix(.98765 0 0 .95238 .49383 .47619)" width="80" height="20" rx="15" ry="15" fill="#fff" stroke="#000"/><text class="Text" transform="translate(40,13)"   font-size="10px"  text-anchor="middle"><tspan x="0" y="0">STAT1</tspan></text></a><a  class="GeneProduct STAT1 " transform="translate(20.5,22.5)"   name="STAT1"  ><rect class="Icon" transform="matrix(.98765 0 0 .95238 .49383 .47619)" width="80" height="20" rx="15" ry="15" fill="#fff" stroke="#000"/><text class="Text" transform="translate(40,13)"   font-size="10px"  text-anchor="middle"><tspan x="0" y="0">STAT1</tspan></text></a><g class="SingleFreeNode Shape" transform="translate(12,12)" color="#66ff33" ><rect class="Icon" transform="matrix(.97309 0 0 .9542 1.4596 1.4313)" width="108.5" height="62.5" rx="15" ry="15" fill="transparent"  stroke="#6f3" stroke-width="3"/></g></g><g class="SingleFreeNode Shape" transform="translate(821,979)" color="#000"  name="GAS"><use class="Icon" transform="matrix(.97917 0 0 .97619 .48958 .4881)" width="47" height="41" fill="transparent"  stroke="#000" xlink:href="#f"/><text class="Text" transform="translate(23.5,24.5)"   font-size="12px" font-weight="bold"  text-anchor="middle"><tspan x="0" y="0">GAS</tspan></text></g><a  class="GeneProduct STAT1 " transform="translate(632,495)"   name="STAT1"  ><rect class="Icon" transform="matrix(.98765 0 0 .95238 .49383 .47619)" width="80" height="20" rx="15" ry="15" fill="#fff" stroke="#000"/><text class="Text" transform="translate(40,13)"   font-size="10px"  text-anchor="middle"><tspan x="0" y="0">STAT1</tspan></text></a><text class="Text" transform="translate(5,27)" dominant-baseline="central" fill="black"  font-size="12px" font-weight="bold" overflow="visible" ><tspan x="0" y="-9">Name: Type III interferon signaling</tspan> <tspan x="0" y="9">Organism: Homo sapiens</tspan></text></g></svg>
