<?xml version="1.0" encoding="UTF-8"?>
<!--
  WikiPathways page: https://www.wikipathways.org/index.php/Pathway:WP2291
  URL for this compressed file: https://github.com/eweitz/cachome/tree/main/data/wikipathways/WP2291.svg
  Source code for compression: https://github.com/eweitz/cachome/tree/main/src/wikipathways.py
-->
<svg class="Diagram" width="800" height="600" color="black" baseProfile="full" prefix="schema:http://schema.org/" preserveAspectRatio="xMidYMid" version="1.1" viewBox="0 0 1053 567" vocab="http://vocabularies.wikipathways.org/wp#" xmlns="http://www.w3.org/2000/svg" xmlns:xlink="http://www.w3.org/1999/xlink"><style>svg {font-family: 'Liberation Sans', Arial, sans-serif; }</style><defs><filter id="a" x="0" y="0" width="1053" height="567" filterUnits="userSpaceOnUse"><feColorMatrix in="SourceGraphic" values="-1   0   0 0 0                   0  -1   0 0 0                   0   0  -1 0 0                   0   0   0 1 0"/></filter><marker id="b" stroke-dasharray="99999" markerHeight="12" markerUnits="userSpaceOnUse" markerWidth="12" orient="auto" preserveAspectRatio="none" refX="12" refY="6" viewBox="0 0 12 12"><path transform="rotate(180 6 6)" d="M12 11L0 6l12-5z" fill="currentColor" stroke-width="0"/></marker><marker id="c" stroke-dasharray="99999" markerHeight="20" markerUnits="userSpaceOnUse" markerWidth="10" orient="auto" preserveAspectRatio="none" refX="10" refY="10" viewBox="0 0 10 20"><path d="m3 0v20" fill="currentColor" stroke="currentColor"/></marker></defs><g class="Viewport" color="black"  name="Name: Deregulation of Rab and Rab effector genes in bladder cancer Last Modified: 2/21/2013 Organism: Homo sapiens"><rect class="Icon" width="1053" height="567" fill="#fff" stroke="#000" stroke-width="0"/><g id="d" class="Interaction" color="#000" ><g color="#000" fill="transparent"  filter="url(#a)" stroke="#000" stroke-dasharray="157.5, 7"><path class="EdgeBody" d="m706.75 197v164.5"   marker-end="url(#c)" /></g></g><g id="e" class="DirectedInteraction" color="#000" ><g color="#000" fill="transparent"  filter="url(#a)" stroke="#000" stroke-dasharray="206.20058962182156, 5.8"><path class="EdgeBody" d="m747 373.25 195.5-82"   marker-end="url(#b)" /></g></g><g id="f" class="DirectedInteraction" color="#000" ><g color="#000" fill="transparent"  filter="url(#a)" stroke="#000" stroke-dasharray="193.7501190177545, 5.8"><path class="EdgeBody" d="m747 373.25 195.5-40"   marker-end="url(#b)" /></g></g><g id="g" class="DirectedInteraction" color="#000" ><g color="#000" fill="transparent"  filter="url(#a)" stroke="#000" stroke-dasharray="189.7, 5.8"><path class="EdgeBody" d="m747 373.25h195.5"   marker-end="url(#b)" /></g></g><g id="h" class="DirectedInteraction" color="#000" ><g color="#000" fill="transparent"  filter="url(#a)" stroke="#000" stroke-dasharray="194.16062112326014, 5.8"><path class="EdgeBody" d="m747 373.25 195.5 42"   marker-end="url(#b)" /></g></g><g id="i" class="DirectedInteraction" color="#000" ><g color="#000" fill="transparent"  filter="url(#a)" stroke="#000" stroke-dasharray="206.20058962182156, 5.8"><path class="EdgeBody" d="m747 373.25 195.5 82"   marker-end="url(#b)" /></g></g><g id="j" class="DirectedInteraction" color="#000" ><g color="#000" fill="transparent"  filter="url(#a)" stroke="#000" stroke-dasharray="214.90172178757464, 5.8"><path class="EdgeBody" d="m666.5 373.25-204.5-83"   marker-end="url(#b)" /></g></g><g id="k" class="DirectedInteraction" color="#000" ><g color="#000" fill="transparent"  filter="url(#a)" stroke="#000" stroke-dasharray="202.5752624473452, 5.8"><path class="EdgeBody" d="m666.5 373.25-204.5-40"   marker-end="url(#b)" /></g></g><g id="l" class="DirectedInteraction" color="#000" ><g color="#000" fill="transparent"  filter="url(#a)" stroke="#000" stroke-dasharray="198.7, 5.8"><path class="EdgeBody" d="m666.5 373.25h-204.5"   marker-end="url(#b)" /></g></g><g id="m" class="DirectedInteraction" color="#000" ><g color="#000" fill="transparent"  filter="url(#a)" stroke="#000" stroke-dasharray="216.04735743298812, 5.8"><path class="EdgeBody" d="m666.5 373.25-204.5 86"   marker-end="url(#b)" /></g></g><g id="n" class="DirectedInteraction" color="#000" ><g color="#000" fill="transparent"  filter="url(#a)" stroke="#000" stroke-dasharray="203.80975645231783, 5.8"><path class="EdgeBody" d="m666.5 373.25-204.5 46"   marker-end="url(#b)" /></g></g><g id="o" class="DirectedInteraction" color="#000" ><g color="#000" fill="transparent"  filter="url(#a)" stroke="#000" stroke-dasharray="238.14517826757714, 5.8"><path class="EdgeBody" d="m666.5 373.25-204.5 133"   marker-end="url(#b)" /></g></g><g id="p" class="DirectedInteraction" color="#000" ><g color="#000" fill="transparent"  filter="url(#a)" stroke="#000" stroke-dasharray="232.84041987894673, 5.8"><path class="EdgeBody" d="m462 250.25 204.5 123"   marker-end="url(#b)" /></g></g><g id="q" class="DirectedInteraction" color="#000" ><g color="#000" fill="transparent"  filter="url(#a)" stroke="#000" stroke-dasharray="241.4635233915427, 5.8"><path class="EdgeBody" d="m381.5 250.25-214.5 123"   marker-end="url(#b)" /></g></g><g id="r" class="DirectedInteraction" color="#000" ><g color="#000" fill="transparent"  filter="url(#a)" stroke="#000" stroke-dasharray="224.1983695594384, 5.8"><path class="EdgeBody" d="m167 373.25 214.5-83"   marker-end="url(#b)" /></g></g><g id="s" class="DirectedInteraction" color="#000" ><g color="#000" fill="transparent"  filter="url(#a)" stroke="#000" stroke-dasharray="212.39773142725383, 5.8"><path class="EdgeBody" d="m167 373.25 214.5-40"   marker-end="url(#b)" /></g></g><g id="t" class="DirectedInteraction" color="#000" ><g color="#000" fill="transparent"  filter="url(#a)" stroke="#000" stroke-dasharray="208.7, 5.8"><path class="EdgeBody" d="m167 373.25h214.5"   marker-end="url(#b)" /></g></g><g id="u" class="DirectedInteraction" color="#000" ><g color="#000" fill="transparent"  filter="url(#a)" stroke="#000" stroke-dasharray="213.57695868071468, 5.8"><path class="EdgeBody" d="m167 373.25 214.5 46"   marker-end="url(#b)" /></g></g><g id="v" class="DirectedInteraction" color="#000" ><g color="#000" fill="transparent"  filter="url(#a)" stroke="#000" stroke-dasharray="225.29792296773243, 5.8"><path class="EdgeBody" d="m167 373.25 214.5 86"   marker-end="url(#b)" /></g></g><g id="w" class="DirectedInteraction" color="#000" ><g color="#000" fill="transparent"  filter="url(#a)" stroke="#000" stroke-dasharray="246.58710347400873, 5.8"><path class="EdgeBody" d="m167 373.25 214.5 133"   marker-end="url(#b)" /></g></g><g id="x" class="DirectedInteraction" color="#000" ><g color="#000" fill="transparent"  filter="url(#a)" stroke="#000" stroke-dasharray="122.7, 5.8"><path class="EdgeBody" d="m126.75 385v128.5"   marker-end="url(#b)" /></g></g><a  class="GeneProduct MADD " transform="translate(381.5,238.5)"   name="MADD"  ><rect class="Icon" transform="matrix(.98773 0 0 .95918 .49387 .47959)" width="80.5" height="23.5" fill="#fff" stroke="#000"/><text class="Text" transform="translate(40.25,14.75)"   font-size="10px"  text-anchor="middle"><tspan x="0" y="0">MADD</tspan></text></a><a  class="GeneProduct MLPH " transform="translate(381.5,278.5)"   name="MLPH"  ><rect class="Icon" transform="matrix(.98773 0 0 .95918 .49387 .47959)" width="80.5" height="23.5" fill="#fff" stroke="#000"/><text class="Text" transform="translate(40.25,14.75)"   font-size="10px"  text-anchor="middle"><tspan x="0" y="0">MLPH</tspan></text></a><a  class="GeneProduct MYRIP " transform="translate(381.5,321.5)"   name="MYRIP"  ><rect class="Icon" transform="matrix(.98773 0 0 .95918 .49387 .47959)" width="80.5" height="23.5" fill="#fff" stroke="#000"/><text class="Text" transform="translate(40.25,14.75)"   font-size="10px"  text-anchor="middle"><tspan x="0" y="0">MYRIP</tspan></text></a><a  class="GeneProduct RPH3A " transform="translate(381.5,361.5)"   name="RPH3A"  ><rect class="Icon" transform="matrix(.98773 0 0 .95918 .49387 .47959)" width="80.5" height="23.5" fill="#fff" stroke="#000"/><text class="Text" transform="translate(40.25,14.75)"   font-size="10px"  text-anchor="middle"><tspan x="0" y="0">RPH3A</tspan></text></a><a  class="GeneProduct RPH3AL " transform="translate(381.5,407.5)"   name="RPH3AL"  ><rect class="Icon" transform="matrix(.98773 0 0 .95918 .49387 .47959)" width="80.5" height="23.5" fill="#fff" stroke="#000"/><text class="Text" transform="translate(40.25,14.75)"   font-size="10px"  text-anchor="middle"><tspan x="0" y="0">RPH3AL</tspan></text></a><a  class="GeneProduct SYTL1 " transform="translate(381.5,447.5)"   name="SYTL1"  ><rect class="Icon" transform="matrix(.98773 0 0 .95918 .49387 .47959)" width="80.5" height="23.5" fill="#fff" stroke="#000"/><text class="Text" transform="translate(40.25,14.75)"   font-size="10px"  text-anchor="middle"><tspan x="0" y="0">SYTL1</tspan></text></a><a  class="GeneProduct UNC13D " transform="translate(381.5,494.5)"   name="UNC13D"  ><rect class="Icon" transform="matrix(.98773 0 0 .95918 .49387 .47959)" width="80.5" height="23.5" fill="#fff" stroke="#000"/><text class="Text" transform="translate(40.25,14.75)"   font-size="10px"  text-anchor="middle"><tspan x="0" y="0">UNC13D</tspan></text></a><a  class="GeneProduct SYTL2 " transform="translate(942.5,321.5)"   name="SYTL2"  ><rect class="Icon" transform="matrix(.98773 0 0 .95918 .49387 .47959)" width="80.5" height="23.5" fill="#fff" stroke="#000"/><text class="Text" transform="translate(40.25,14.75)"   font-size="10px"  text-anchor="middle"><tspan x="0" y="0">SYTL2</tspan></text></a><a  class="GeneProduct EXPH5 " transform="translate(942.5,279.5)"   name="EXPH5"  ><rect class="Icon" transform="matrix(.98773 0 0 .95918 .49387 .47959)" width="80.5" height="23.5" fill="#fff" stroke="#000"/><text class="Text" transform="translate(40.25,14.75)"   font-size="10px"  text-anchor="middle"><tspan x="0" y="0">EXPH5</tspan></text></a><a  class="GeneProduct SYTL3 " transform="translate(942.5,361.5)"   name="SYTL3"  ><rect class="Icon" transform="matrix(.98773 0 0 .95918 .49387 .47959)" width="80.5" height="23.5" fill="#fff" stroke="#000"/><text class="Text" transform="translate(40.25,14.75)"   font-size="10px"  text-anchor="middle"><tspan x="0" y="0">SYTL3</tspan></text></a><a  class="GeneProduct SYTL4 " transform="translate(942.5,403.5)"   name="SYTL4"  ><rect class="Icon" transform="matrix(.98773 0 0 .95918 .49387 .47959)" width="80.5" height="23.5" fill="#fff" stroke="#000"/><text class="Text" transform="translate(40.25,14.75)"   font-size="10px"  text-anchor="middle"><tspan x="0" y="0">SYTL4</tspan></text></a><a  class="GeneProduct SYTL5 " transform="translate(942.5,443.5)"   name="SYTL5"  ><rect class="Icon" transform="matrix(.98773 0 0 .95918 .49387 .47959)" width="80.5" height="23.5" fill="#fff" stroke="#000"/><text class="Text" transform="translate(40.25,14.75)"   font-size="10px"  text-anchor="middle"><tspan x="0" y="0">SYTL5</tspan></text></a><a  class="GeneProduct TBC1D10A " transform="translate(666.5,173.5)"   name="TBC1D10A"  ><rect class="Icon" transform="matrix(.98773 0 0 .95918 .49387 .47959)" width="80.5" height="23.5" fill="#fff" stroke="#000"/><text class="Text" transform="translate(40.25,14.75)"   font-size="10px"  text-anchor="middle"><tspan x="0" y="0">TBC1D10A</tspan></text></a><a  class="GeneProduct RAB27A " transform="translate(666.5,361.5)"   name="RAB27A"  ><rect class="Icon" transform="matrix(.98773 0 0 .95918 .49387 .47959)" width="80.5" height="23.5" fill="#fff" stroke="#000"/><text class="Text" transform="translate(40.25,14.75)"   font-size="10px"  text-anchor="middle"><tspan x="0" y="0">RAB27A</tspan></text></a><a  class="GeneProduct RAB27B " transform="translate(86.5,361.5)"   name="RAB27B"  ><rect class="Icon" transform="matrix(.98773 0 0 .95918 .49387 .47959)" width="80.5" height="23.5" fill="#fff" stroke="#000"/><text class="Text" transform="translate(40.25,14.75)"   font-size="10px"  text-anchor="middle"><tspan x="0" y="0">RAB27B</tspan></text></a><a  class="GeneProduct GCC2 " transform="translate(86.5,513.5)"   name="GCC2"  ><rect class="Icon" transform="matrix(.98773 0 0 .95918 .49387 .47959)" width="80.5" height="23.5" fill="#fff" stroke="#000"/><text class="Text" transform="translate(40.25,14.75)"   font-size="10px"  text-anchor="middle"><tspan x="0" y="0">GCC2</tspan></text></a><text class="Text" transform="translate(5,36)" dominant-baseline="central" fill="black"  font-size="12px" font-weight="bold" overflow="visible" ><tspan x="0" y="-18">Name: Deregulation of Rab and Rab effector genes in bladder cancer</tspan> <tspan x="0" y="0">Last Modified: 2/21/2013</tspan> <tspan x="0" y="18">Organism: Homo sapiens</tspan></text></g></svg>
