<?xml version="1.0" encoding="UTF-8"?>
<!--
  WikiPathways page: https://www.wikipathways.org/index.php/Pathway:WP2366
  URL for this compressed file: https://github.com/eweitz/cachome/tree/main/data/wikipathways/WP2366.svg
  Source code for compression: https://github.com/eweitz/cachome/tree/main/src/wikipathways.py
-->
<svg class="Diagram" width="800" height="600" color="black" baseProfile="full" prefix="schema:http://schema.org/" preserveAspectRatio="xMidYMid" version="1.1" viewBox="0 0 873 602" vocab="http://vocabularies.wikipathways.org/wp#" xmlns="http://www.w3.org/2000/svg" xmlns:xlink="http://www.w3.org/1999/xlink"><style>svg {font-family: 'Liberation Sans', Arial, sans-serif; }</style><defs><filter id="e" x="-50%" y="-50%" width="200%" height="200%"><feComposite in="SourceGraphic" in2="SourceGraphic" result="doubleDark"/><feMorphology in="doubleDark" operator="dilate" radius="0.16666666666666666" result="in2Double"/><feMorphology in="SourceGraphic" operator="dilate" radius="3" result="inDouble"/><feComposite in="inDouble" in2="in2Double" operator="out" result="doubleResult"/></filter><filter id="a" x="0" y="0" width="873" height="602" filterUnits="userSpaceOnUse"><feColorMatrix in="SourceGraphic" values="-1   0   0 0 0                   0  -1   0 0 0                   0   0  -1 0 0                   0   0   0 1 0"/></filter><marker id="c" stroke-dasharray="99999" markerHeight="12" markerUnits="userSpaceOnUse" markerWidth="12" orient="auto" preserveAspectRatio="none" refX="12" refY="6" viewBox="0 0 12 12"><path transform="rotate(180 6 6)" d="M12 11L0 6l12-5z" fill="currentColor" stroke-width="0"/></marker><marker id="f" stroke-dasharray="99999" markerHeight="12" markerUnits="userSpaceOnUse" markerWidth="12" orient="auto" preserveAspectRatio="none" refY="6" viewBox="0 0 12 12"><path d="M12 11L0 6l12-5z" fill="currentColor" stroke-width="0"/></marker><marker id="b" stroke-dasharray="99999" markerHeight="12" markerUnits="userSpaceOnUse" markerWidth="12" orient="auto" preserveAspectRatio="none" refX="12" refY="6" viewBox="0 0 12 12"><path transform="rotate(180 6 6)" d="M12 11L0 6l12-5z" fill="currentColor" stroke-width="0"/></marker><marker id="h" stroke-dasharray="99999" markerHeight="20" markerUnits="userSpaceOnUse" markerWidth="10" orient="auto" preserveAspectRatio="none" refX="10" refY="10" viewBox="0 0 10 20"><path d="m3 0v20" fill="currentColor" stroke="currentColor"/></marker><marker id="g" stroke-dasharray="99999" markerHeight="20" markerUnits="userSpaceOnUse" markerWidth="10" orient="auto" preserveAspectRatio="none" refX="10" refY="10" viewBox="0 0 10 20"><path d="m3 0v20" fill="currentColor" stroke="currentColor"/></marker><symbol id="j" overflow="visible" preserveAspectRatio="none" viewBox="0 0 50 50"><ellipse cx="25" cy="25" rx="25" ry="25" stroke="currentColor" vector-effect="non-scaling-stroke"/></symbol><symbol id="i" overflow="visible" preserveAspectRatio="none" viewBox="0 0 100 100"><ellipse cx="50" cy="50" rx="50" ry="50" stroke="currentColor"/><path d="M14.895 26.347c4.364-.741 3.827 17.037 8.183 16.184 8.273.03 2.982-28.149 9.9-28.337 6.967-.187 2.246 29.948 9.204 29.44 7.633-.56.508-32.935 8.137-33.623 7.698-.689 2.919 32.04 10.628 32.225 6.547.16 3.026-27.643 9.56-26.921 7.193.793.665 29.842 7.782 31.667 4.748 1.216 4.42-18.258 9.204-17.44 11.129 7.577 8.628 37.698-2.18 44.644-3.138.699-3.966-10.502-7.113-9.905-5.59 1.059-3.982 22.284-9.603 21.8-5.24-.457-2.226-21.637-7.47-21.73-6.962-.117-3.358 28.924-10.317 28.495-6.14-.376-1.73-24.95-7.825-26.192-5.682-1.157-5.378 22.17-11.027 20.68-6.25-1.644-.47-26.673-6.76-27.865-3.728-.706-2.647 14.4-6.403 14.545-14.016-5.939-15.749-39.708-3.9-47.667z" stroke="currentColor" vector-effect="non-scaling-stroke"/></symbol><symbol id="d" preserveAspectRatio="none" viewBox="0 0 100 100"/></defs><g class="Viewport" color="black"  name="Name: Butyrate-induced histone acetylation Organism: Homo sapiens"><rect class="Icon" width="873" height="602" fill="#fff" stroke="#000" stroke-width="0"/><g id="k" class="Interaction" color="#000" ><g color="#000" fill="transparent"  filter="url(#a)" stroke="#000" stroke-dasharray="32.213155617496426, 5.8"><path class="EdgeBody" d="m323 202 1 38"   marker-end="url(#b)" /></g></g><g id="l" class="Edge GraphicalLine Inhibition" color="#000" ><g color="#000" fill="transparent"  filter="url(#a)" stroke="#000" stroke-dasharray="54, 7"><path class="EdgeBody" d="m428 502h61"   marker-end="url(#g)" /></g></g><g id="m" class="Interaction" color="#000" ><g color="#000" fill="transparent"  filter="url(#a)" stroke="#000" stroke-dasharray="72.2, 5.8"><path class="EdgeBody" d="m589 316h78"   marker-end="url(#b)" /></g></g><g id="n" class="Edge GraphicalLine" color="#000" ><g color="#000" fill="transparent"  filter="url(#a)" stroke="#000" stroke-dasharray="70.90477041874942, 7"><path class="EdgeBody" d="m516 502 77.903-0.5669"   marker-end="url(#h)" /></g></g><g id="o" class="DirectedInteraction" color="#000" ><g color="#000" fill="transparent"  filter="url(#a)" stroke="#000" stroke-dasharray="116.20409829181969, 5.8"><path class="EdgeBody" d="m707 306 1-122"   marker-end="url(#c)" /></g></g><g id="p" class="Interaction" color="#000" ><g color="#000" fill="transparent"  filter="url(#a)" stroke="#000" stroke-dasharray="79.64003745317531, 5.8"><path class="EdgeBody" d="m324 260 72 46"   marker-end="url(#b)" /></g></g><g id="q" class="DirectedInteraction" color="#000" ><g color="#000" fill="transparent"  filter="url(#a)" stroke="#000" stroke-dasharray="121.20885795880538, 5.8"><path class="EdgeBody" d="m707 326-1.5 127"   marker-end="url(#c)" /></g></g><g id="r" class="DirectedInteraction" color="#000" ><g color="#000" fill="transparent"  filter="url(#a)" stroke="#000" stroke-dasharray="970.2, 5.8"><path class="EdgeBody" d="m283 106h-126v357h493"   marker-end="url(#c)" /></g></g><g id="s" class="Interaction" color="#000" ><g color="#000" fill="transparent"  filter="url(#a)" stroke="#000" stroke-dasharray="53.20847396772772, 5.8"><path class="EdgeBody" d="m322 37 1 59"   marker-end="url(#b)" /></g></g><g id="t" class="Interaction" color="#000" ><g color="#000" fill="transparent"  filter="url(#a)" stroke="#000" stroke-dasharray="60.2, 5.8"><path class="EdgeBody" d="m323 116v66"   marker-end="url(#b)" /></g></g><g id="u" class="Interaction" color="#000" ><g color="#000" fill="transparent"  filter="url(#a)" stroke="#000" stroke-dasharray="0, 5.8, 61.400000000000006, 5.8"><path class="EdgeBody" d="m436 316h73"   marker-end="url(#b)" marker-start="url(#f)" /></g></g><g id="v" class="DirectedInteraction" color="#000" ><g color="#000" fill="transparent"  filter="url(#a)" stroke="#000" stroke-dasharray="62.20735254367722, 5.8"><path class="EdgeBody" d="m550 41 1 68"   marker-end="url(#c)" /></g></g><g id="w" class="DirectedInteraction" color="#000" ><g color="#000" fill="transparent"  filter="url(#a)" stroke="#000" stroke-dasharray="106.2044641967453, 5.8"><path class="EdgeBody" d="m551 129-1 112"   marker-end="url(#c)" /></g></g><g class="SingleFreeNode Shape PhysicalEntity CellularComponent Cell" transform="translate(134,58.5)" color="#c0c0c0" ><g fill="transparent"  filter="url(#e)" stroke="#c0c0c0" stroke-width="3"><rect class="Icon" transform="matrix(.98339 0 0 .97723 5.9003 5.8634)" width="710.5" height="515" rx="15" ry="15"   /></g></g><g class="SingleFreeNode Shape PhysicalEntity CellularComponent Nucleus" transform="translate(607.5,354.5)" color="#c0c0c0" ><g fill="transparent"  filter="url(#e)" stroke="#c0c0c0" stroke-width="3"><use class="Icon" transform="matrix(.9434 0 0 .94258 5.6604 5.6555)" width="200" height="197"    xlink:href="#j"/></g></g><g class="SingleFreeNode Shape PhysicalEntity CellularComponent Mitochondria" transform="translate(170.5,144.5)" color="#c0c0c0" ><use class="Icon" transform="matrix(.99064 0 0 .98844 1.486 1.4827)" width="317.5" height="256.5" fill="transparent"  stroke="#c0c0c0" stroke-width="3" xlink:href="#i"/></g><a  class="ChEBI_CHEBI_17968 Metabolite  " transform="translate(282,17)"   name="Butyrate"  ><rect class="Icon" transform="matrix(.98765 0 0 .95238 .49383 .47619)" width="80" height="20" fill="#0c3" stroke="#000"/><text class="Text" transform="translate(40,13)"   font-size="10px"  text-anchor="middle"><tspan x="0" y="0">Butyrate</tspan></text></a><g class="Label" transform="translate(208,211)" color="#000"  name="Beta oxidation"><use class="Icon" width="86" height="20" fill="transparent"  stroke="#000" stroke-width="0" xlink:href="#d"/><text class="Text" transform="translate(43,13)"   font-size="10px"  text-anchor="middle"><tspan x="0" y="0">Beta oxidation</tspan></text></g><a class="ChEBI_CHEBI_17968 Metabolite  " transform="translate(283,182)" color="#00f"  name="Butyrate"  ><rect class="Icon" transform="matrix(.98765 0 0 .95238 .49383 .47619)" width="80" height="20" fill="#fff" stroke="#00f"/><text class="Text" transform="translate(40,13)" fill="#00f"  font-size="10px"  text-anchor="middle"><tspan x="0" y="0">Butyrate</tspan></text></a><a class="ChEBI_CHEBI_17968 Metabolite  " transform="translate(283,96)" color="#00f"  name="Butyrate"  ><rect class="Icon" transform="matrix(.98765 0 0 .95238 .49383 .47619)" width="80" height="20" fill="#fff" stroke="#00f"/><text class="Text" transform="translate(40,13)" fill="#00f"  font-size="10px"  text-anchor="middle"><tspan x="0" y="0">Butyrate</tspan></text></a><a class="ChEBI_CHEBI_35808 Metabolite  " transform="translate(356,306)" color="#00f"  name="Citrate"  ><rect class="Icon" transform="matrix(.98765 0 0 .95238 .49383 .47619)" width="80" height="20" fill="#fff" stroke="#00f"/><text class="Text" transform="translate(40,13)" fill="#00f"  font-size="10px"  text-anchor="middle"><tspan x="0" y="0">Citrate</tspan></text></a><a class="ChEBI_CHEBI_35808 Metabolite  " transform="translate(509,306)" color="#00f"  name="Citrate"  ><rect class="Icon" transform="matrix(.98765 0 0 .95238 .49383 .47619)" width="80" height="20" fill="#fff" stroke="#00f"/><text class="Text" transform="translate(40,13)" fill="#00f"  font-size="10px"  text-anchor="middle"><tspan x="0" y="0">Citrate</tspan></text></a><a class="ChEBI_CHEBI_15351 Metabolite  " transform="translate(284,240)" color="#00f"  name="Acetyl CoA"  ><rect class="Icon" transform="matrix(.98765 0 0 .95238 .49383 .47619)" width="80" height="20" fill="#fff" stroke="#00f"/><text class="Text" transform="translate(40,13)" fill="#00f"  font-size="10px"  text-anchor="middle"><tspan x="0" y="0">Acetyl CoA</tspan></text></a><a class="ChEBI_CHEBI_17634 Metabolite  " transform="translate(510,21)" color="#00f"  name="Glucose"  ><rect class="Icon" transform="matrix(.98765 0 0 .95238 .49383 .47619)" width="80" height="20" fill="#fff" stroke="#00f"/><text class="Text" transform="translate(40,13)" fill="#00f"  font-size="10px"  text-anchor="middle"><tspan x="0" y="0">Glucose</tspan></text></a><a class="ChEBI_CHEBI_15351 Metabolite  " transform="translate(667,306)" color="#00f"  name="Acetyl CoA"  ><rect class="Icon" transform="matrix(.98765 0 0 .95238 .49383 .47619)" width="80" height="20" fill="#fff" stroke="#00f"/><text class="Text" transform="translate(40,13)" fill="#00f"  font-size="10px"  text-anchor="middle"><tspan x="0" y="0">Acetyl CoA</tspan></text></a><a  class="WikiPathways_WP357 Pathway " transform="translate(668,151)"   name="Lipid biosynthesis"  ><rect class="Icon" transform="matrix(.98765 0 0 .97059 .49383 .48529)" width="80" height="33" fill="#fff" stroke="#000"/><text class="Text" transform="translate(40,19.5)"   font-size="10px"  text-anchor="middle"><tspan x="0" y="-5.5">Lipid</tspan> <tspan x="0" y="5.5">biosynthesis</tspan></text></a><g class="Uniprot-TrEMBL_P31749 Protein AKT1 " transform="translate(511,109)" color="#000"  name="AKT"><rect class="Icon" transform="matrix(.98765 0 0 .95238 .49383 .47619)" width="80" height="20" fill="#fff" stroke="#000"/><text class="Text" transform="translate(40,13)"   font-size="10px"  text-anchor="middle"><tspan x="0" y="0">AKT</tspan></text></g><g class="Uniprot-TrEMBL_P53396 Protein ACLY " transform="translate(510,241)" color="#000"  name="ACL"><rect class="Icon" transform="matrix(.98765 0 0 .95238 .49383 .47619)" width="80" height="20" fill="#fff" stroke="#000"/><text class="Text" transform="translate(40,13)"   font-size="10px"  text-anchor="middle"><tspan x="0" y="0">ACL</tspan></text></g><a class="WikiPathways_WP78 Pathway " transform="translate(274,282)" color="#14961e"  name="TCA cycle"  ><use class="Icon" width="80" height="34" fill="transparent"  stroke="#14961e" stroke-width="0" xlink:href="#d"/><text class="Text" transform="translate(40,21)" fill="#14961e"  font-size="12px" font-weight="bold" stroke="black" stroke-width="0" text-anchor="middle"><tspan x="0" y="-6.6000000000000005">TCA</tspan> <tspan x="0" y="6.6000000000000005">cycle</tspan></text></a><a  class="Complex ChEBI_CHEBI_15358  " transform="translate(650,453)"   name="Acetylated Histone"  ><rect class="Icon" transform="matrix(.99107 0 0 .95238 .49554 .47619)" width="111" height="20" fill="#0c3" stroke="#000"/><text class="Text" transform="translate(55.5,13)"   font-size="10px"  text-anchor="middle"><tspan x="0" y="0">Acetylated Histone</tspan></text></a><a  class="InterPro_IPR000286 Protein " transform="translate(489,492)"   name="HDACs"  ><rect class="Icon" transform="matrix(.98182 0 0 .95238 .49091 .47619)" width="54" height="20" fill="#fff" stroke="#000"/><text class="Text" transform="translate(27,13)"   font-size="10px"  text-anchor="middle"><tspan x="0" y="0">HDACs</tspan></text></a><a class="ChEBI_CHEBI_17968 Metabolite  " transform="translate(348,492)" color="#00f"  name="Butyrate"  ><rect class="Icon" transform="matrix(.98765 0 0 .95238 .49383 .47619)" width="80" height="20" fill="#fff" stroke="#00f"/><text class="Text" transform="translate(40,13)" fill="#00f"  font-size="10px"  text-anchor="middle"><tspan x="0" y="0">Butyrate</tspan></text></a><text class="Text" transform="translate(5,27)" dominant-baseline="central" fill="black"  font-size="12px" font-weight="bold" overflow="visible" ><tspan x="0" y="-9">Name: Butyrate-induced histone acetylation</tspan> <tspan x="0" y="9">Organism: Homo sapiens</tspan></text></g></svg>
