<?xml version="1.0" encoding="UTF-8"?>
<!--
  WikiPathways page: https://www.wikipathways.org/index.php/Pathway:WP2363
  URL for this compressed file: https://github.com/eweitz/cachome/tree/main/data/wikipathways/WP2363.svg
  Source code for compression: https://github.com/eweitz/cachome/tree/main/src/wikipathways.py
-->
<svg class="Diagram" width="800" height="600" color="black" baseProfile="full" prefix="schema:http://schema.org/" preserveAspectRatio="xMidYMid" version="1.1" viewBox="0 0 1172 737" vocab="http://vocabularies.wikipathways.org/wp#" xmlns="http://www.w3.org/2000/svg" xmlns:xlink="http://www.w3.org/1999/xlink"><style>svg {font-family: 'Liberation Sans', Arial, sans-serif; }</style><defs><filter id="a" x="0" y="0" width="1172" height="737" filterUnits="userSpaceOnUse"><feColorMatrix in="SourceGraphic" values="-1   0   0 0 0                   0  -1   0 0 0                   0   0  -1 0 0                   0   0   0 1 0"/></filter><marker id="c" stroke-dasharray="99999" markerHeight="12" markerUnits="userSpaceOnUse" markerWidth="12" orient="auto" preserveAspectRatio="none" refY="6" viewBox="0 0 12 12"><path d="M12 11L0 6l12-5z" fill="currentColor" stroke-width="0"/></marker><marker id="b" stroke-dasharray="99999" markerHeight="12" markerUnits="userSpaceOnUse" markerWidth="12" orient="auto" preserveAspectRatio="none" refX="12" refY="6" viewBox="0 0 12 12"><path transform="rotate(180 6 6)" d="M12 11L0 6l12-5z" fill="currentColor" stroke-width="0"/></marker><marker id="d" stroke-dasharray="99999" markerHeight="20" markerUnits="userSpaceOnUse" markerWidth="10" orient="auto" preserveAspectRatio="none" refX="10" refY="10" viewBox="0 0 10 20"><path d="m3 0v20" fill="currentColor" stroke="currentColor"/></marker></defs><g class="Viewport" color="black"  name="Name: Gastric cancer network 2 Last Modified: 10/17/2013 Organism: Homo sapiens"><rect class="Icon" width="1172" height="737" fill="#fff" stroke="#000" stroke-width="0"/><g id="e" class="Interaction" color="#000" ><g color="#000" fill="transparent"  filter="url(#a)" stroke="#000" stroke-dasharray="91.6027428628641, 0"><path class="EdgeBody" d="m95.75 214-60.25 69"   /></g></g><g id="f" class="Interaction" color="#000" ><g color="#000" fill="transparent"  filter="url(#a)" stroke="#000" stroke-dasharray="308.5206638136253, 0"><path class="EdgeBody" d="m203 395 296 87"   /></g></g><g id="g" class="DirectedInteraction" color="#000" ><g color="#000" fill="transparent"  filter="url(#a)" stroke="#000" stroke-dasharray="5.02, 3.01, 5.02, 3.01, 5.02, 3.01, 5.02, 3.01, 5.02, 3.01, 5.02, 3.01, 5.02, 3.01, 5.02, 3.01, 5.02, 3.01, 5.02, 3.01, 5.02, 3.01, 5.02, 3.01, 5.02, 3.01, 5.02, 3.01, 5.02, 3.01, 5.02, 3.01, 5.02, 3.01, 5.02, 3.01, 5.02, 3.01, 5.02, 3.01, 5.02, 3.01, 5.02, 3.01, 5.02, 3.01, 5.02, 3.01, 5.02, 3.01, 5.02, 3.01, 5.02, 3.01, 5.02, 3.01, 5.02, 3.01, 5.02, 3.01, 5.02, 3.01, 0, 5.8"><path class="EdgeBody" d="m583 302-231.75 99"   marker-end="url(#b)" /></g></g><g id="h" class="DirectedInteraction" color="#000" ><g color="#000" fill="transparent"  filter="url(#a)" stroke="#000" stroke-dasharray="5.05, 3.03, 5.05, 3.03, 5.05, 3.03, 5.05, 3.03, 5.05, 3.03, 5.05, 3.03, 5.05, 3.03, 5.05, 3.03, 5.05, 3.03, 5.05, 3.03, 5.05, 3.03, 5.05, 3.03, 5.05, 3.03, 5.05, 3.03, 5.05, 3.03, 5.05, 3.03, 5.05, 3.03, 5.05, 3.03, 5.05, 3.03, 5.05, 3.03, 5.05, 3.03, 5.05, 3.03, 5.05, 3.03, 5.05, 3.03, 5.05, 3.03, 5.05, 3.03, 5.05, 3.03, 5.05, 3.03, 5.05, 3.03, 5.05, 3.03, 5.05, 3.03, 5.05, 3.03, 5.05, 3.03, 5.05, 3.03, 5.05, 3.03, 5.05, 3.03, 5.05, 3.03, 5.05, 5.8"><path class="EdgeBody" d="m583 302-292-103"   marker-end="url(#b)" /></g></g><g id="i" class="DirectedInteraction" color="#000" ><g color="#000" fill="transparent"  filter="url(#a)" stroke="#000" stroke-dasharray="105.50588483993108, 5.8"><path class="EdgeBody" d="m486 174-58 95"   marker-end="url(#b)" /></g></g><g id="j" class="Interaction" color="#000" ><g color="#000" fill="transparent"  filter="url(#a)" stroke="#000" stroke-dasharray="54.88366517958521, 0"><path class="EdgeBody" d="m374.5 571v-3.3333c0-3.3333 0-10 4.5-13.333 4.5-3.3333 13.5-3.3333 18-1e-13 4.5 3.3333 4.5 10 4.5 13.333l1e-13 3.3333"   /></g></g><g id="k" class="Interaction" color="#000" ><g color="#000" fill="transparent"  filter="url(#a)" stroke="#000" stroke-dasharray="111.40017953306898, 0"><path class="EdgeBody" d="m538.75 492 47 101"   /></g></g><g id="l" class="Interaction" color="#000" ><g color="#000" fill="transparent"  filter="url(#a)" stroke="#000" stroke-dasharray="177.22866585290316, 0"><path class="EdgeBody" d="m732 697-177-9"   /></g></g><g id="m" class="Interaction" color="#000" ><g color="#000" fill="transparent"  filter="url(#a)" stroke="#000" stroke-dasharray="253.04940229133123, 0"><path class="EdgeBody" d="m799 427-247 55"   /></g></g><g id="n" class="Inhibition" color="#000" ><g color="#000" fill="transparent"  filter="url(#a)" stroke="#000" stroke-dasharray="5.05, 3.03, 5.05, 3.03, 5.05, 3.03, 5.05, 3.03, 5.05, 3.03, 5.05, 3.03, 5.05, 3.03, 5.05, 3.03, 5.05, 3.03, 5.05, 3.03, 5.05, 3.03, 5.05, 3.03, 5.05, 3.03, 5.05, 7"><path class="EdgeBody" d="m667 373 57.5 102"   marker-end="url(#d)" /></g></g><g id="o" class="Interaction" color="#000" ><g color="#000" fill="transparent"  filter="url(#a)" stroke="#000" stroke-dasharray="5.23, 3.14, 5.23, 3.14, 5.23, 3.14, 5.23, 3.14, 5.23, 3.14, 5.23, 3.14, 5.23, 3.14, 5.23, 3.14, 5.23, 3.14, 5.23, 3.14, 5.23, 3.14, 5.23, 3.14, 5.23, 3.14, 5.23, 3.14, 5.23, 3.14, 5.23, 3.14, 5.23, 3.14, 5.23, 0"><path class="EdgeBody" d="m639 363-87 119"   /></g></g><g id="p" class="Interaction" color="#000" ><g color="#000" fill="transparent"  filter="url(#a)" stroke="#000" stroke-dasharray="90.27769658116007, 0"><path class="EdgeBody" d="M550.25,79L500,154"   /></g></g><g id="q" class="DirectedInteraction" color="#000" ><g color="#000" fill="transparent"  filter="url(#a)" stroke="#000" stroke-dasharray="5.14, 3.09, 5.14, 3.09, 5.14, 3.09, 5.14, 3.09, 5.14, 3.09, 5.14, 3.09, 5.14, 3.09, 5.14, 3.09, 5.14, 3.09, 5.14, 3.09, 5.14, 3.09, 5.14, 3.09, 5.14, 3.09, 5.14, 3.09, 5.14, 3.09, 5.14, 3.09, 5.14, 3.09, 5.14, 3.09, 0, 5.8"><path class="EdgeBody" d="m608 292-94-118"   marker-end="url(#b)" /></g></g><g id="r" class="Interaction" color="#000" ><g color="#000" fill="transparent"  filter="url(#a)" stroke="#000" stroke-dasharray="95.53566088115997, 0"><path class="EdgeBody" d="m620.5 292 25.75-92"   /></g></g><g id="s" class="DirectedInteraction" color="#000" ><g color="#000" fill="transparent"  filter="url(#a)" stroke="#000" stroke-dasharray="200.8689684011608, 5.8"><path class="EdgeBody" d="m620.5 292 121.75-167"   marker-end="url(#b)" /></g></g><g id="t" class="DirectedInteraction" color="#000" ><g color="#000" fill="transparent"  filter="url(#a)" stroke="#000" stroke-dasharray="47.490043197368514, 5.8"><path class="EdgeBody" d="m620.5 292-1e-13 -3.3333c1e-13 -3.3333 1e-13 -10-4.1667-13.333-4.1667-3.3333-12.5-3.3333-16.667 0-4.1667 3.3333-4.1667 10-4.1667 13.333v3.3333"   marker-end="url(#b)" /></g></g><g id="u" class="DirectedInteraction" color="#000" ><g color="#000" fill="transparent"  filter="url(#a)" stroke="#000" stroke-dasharray="5.09, 3.05, 5.09, 3.05, 5.09, 3.05, 5.09, 3.05, 5.09, 3.05, 5.09, 3.05, 5.09, 3.05, 5.09, 3.05, 5.09, 3.05, 5.09, 3.05, 5.09, 3.05, 5.09, 3.05, 5.09, 3.05, 5.09, 3.05, 5.09, 3.05, 5.09, 3.05, 5.09, 3.05, 5.09, 3.05, 5.09, 3.05, 5.09, 3.05, 5.09, 3.05, 5.09, 3.05, 5.09, 3.05, 5.09, 5.8"><path class="EdgeBody" d="M620.5,292L775,168"   marker-end="url(#b)" /></g></g><g id="v" class="Interaction" color="#000" ><g color="#000" fill="transparent"  filter="url(#a)" stroke="#000" stroke-dasharray="223.98660674245681, 0"><path class="EdgeBody" d="m856 281-223 21"   /></g></g><g id="w" class="DirectedInteraction" color="#000" ><g color="#000" fill="transparent"  filter="url(#a)" stroke="#000" stroke-dasharray="206.95807857752428, 5.8"><path class="EdgeBody" d="m633 302 179 115"   marker-end="url(#b)" /></g></g><g id="x" class="DirectedInteraction" color="#000" ><g color="#000" fill="transparent"  filter="url(#a)" stroke="#000" stroke-dasharray="137.53025674992702, 5.8"><path class="EdgeBody" d="M973.75,501L851,427"   marker-end="url(#b)" /></g></g><g id="y" class="Interaction" color="#000" ><g color="#000" fill="transparent"  filter="url(#a)" stroke="#000" stroke-dasharray="108.46197490364999, 0"><path class="EdgeBody" d="m805 583 100 42"   /></g></g><g id="z" class="DirectedInteraction" color="#000" ><g color="#000" fill="transparent"  filter="url(#a)" stroke="#000" stroke-dasharray="53.99717012624604, 5.8"><path class="EdgeBody" d="m788.5 573-1e-13 -3.3333c1e-13 -3.3333 1e-13 -10-5.5-13.333-5.5-3.3333-16.5-3.3333-22 0-5.5 3.3333-5.5 10-5.5 13.333l1e-13 3.3333"   marker-end="url(#b)" /></g></g><g id="aa" class="Interaction" color="#000" ><g color="#000" fill="transparent"  filter="url(#a)" stroke="#000" stroke-dasharray="218.70585268803393, 0"><path class="EdgeBody" d="m667 373 88.5 200"   /></g></g><g id="ab" class="DirectedInteraction" color="#000" ><g color="#000" fill="transparent"  filter="url(#a)" stroke="#000" stroke-dasharray="49.88950644493373, 5.8"><path class="EdgeBody" d="m681 353v-3.3333c0-3.3333 0-10-4.6667-13.333-4.6667-3.3333-14-3.3333-18.667 0-4.6667 3.3333-4.6667 10-4.6667 13.333v3.3333"   marker-end="url(#b)" /></g></g><g id="ac" class="DirectedInteraction" color="#000" ><g color="#000" fill="transparent"  filter="url(#a)" stroke="#000" stroke-dasharray="46.51873469418006, 5.8"><path class="EdgeBody" d="m620.5 312 32.5 41"   marker-end="url(#b)" /></g></g><g id="ad" class="DirectedInteraction" color="#000" ><g color="#000" fill="transparent"  filter="url(#a)" stroke="#000" stroke-dasharray="0, 5.8, 168.762308978345, 5.8"><path class="EdgeBody" d="m595.5 312-83.25 160"   marker-end="url(#b)" marker-start="url(#c)" /></g></g><g id="ae" class="DirectedInteraction" color="#000" ><g color="#000" fill="transparent"  filter="url(#a)" stroke="#000" stroke-dasharray="272.1929180752632, 5.8"><path class="EdgeBody" d="M538.75,472L785,343"   marker-end="url(#b)" /></g></g><a  class="GeneProduct MTDH " transform="translate(762,148)"   name="MTDH"  ><rect class="Icon" transform="matrix(.98113 0 0 .95238 .49057 .47619)" width="52" height="20" fill="#fff" stroke="#000"/><text class="Text" transform="translate(26,13)"   font-size="10px"  text-anchor="middle"><tspan x="0" y="0">MTDH</tspan></text></a><a  class="GeneProduct CD48 " transform="translate(496,678)"   name="CD48"  ><rect class="Icon" transform="matrix(.98333 0 0 .95238 .49167 .47619)" width="59" height="20" fill="#fff" stroke="#000"/><text class="Text" transform="translate(29.5,13)"   font-size="10px"  text-anchor="middle"><tspan x="0" y="0">CD48</tspan></text></a><g class="GeneProduct" transform="translate(107,555)" color="#ff9300"  name="Basc"><rect class="Icon" transform="matrix(.98182 0 0 .95238 .49091 .47619)" width="54" height="20" fill="#fff" stroke="#ff9300"/><text class="Text" transform="translate(27,13)" fill="#ff9300"  font-size="10px" stroke="black" stroke-width="0" text-anchor="middle"><tspan x="0" y="0">Basc</tspan></text></g><g class="GeneProduct" transform="translate(220,517)" color="#ff9300"  name="Rfc?"><rect class="Icon" transform="matrix(.98148 0 0 .95238 .49074 .47619)" width="53" height="20" fill="#fff" stroke="#ff9300"/><text class="Text" transform="translate(26.5,13)" fill="#ff9300"  font-size="10px" stroke="black" stroke-width="0" text-anchor="middle"><tspan x="0" y="0">Rfc?</tspan></text></g><a  class="GeneProduct LMNB2 " transform="translate(312,685)"   name="LMNB2"  ><rect class="Icon" transform="matrix(.98276 0 0 .95238 .49138 .47619)" width="57" height="20" fill="#fff" stroke="#000"/><text class="Text" transform="translate(28.5,13)"   font-size="10px"  text-anchor="middle"><tspan x="0" y="0">LMNB2</tspan></text></a><a  class="GeneProduct UBE2C " transform="translate(413,378)"   name="UBE2C"  ><rect class="Icon" transform="matrix(.98276 0 0 .95238 .49138 .47619)" width="57" height="20" fill="#fff" stroke="#000"/><text class="Text" transform="translate(28.5,13)"   font-size="10px"  text-anchor="middle"><tspan x="0" y="0">UBE2C</tspan></text></a><a  class="GeneProduct COL9A3 " transform="translate(634,180)"   name="COL9A3"  ><rect class="Icon" transform="matrix(.98 0 0 .95238 .49 .47619)" width="49" height="20" fill="#fff" stroke="#000"/><text class="Text" transform="translate(24.5,13)"   font-size="10px"  text-anchor="middle"><tspan x="0" y="0">COL9A3</tspan></text></a><a  class="GeneProduct PLAC8 " transform="translate(741,239)"   name="PLAC8"  ><rect class="Icon" transform="matrix(.97959 0 0 .95238 .4898 .47619)" width="48" height="20" fill="#fff" stroke="#000"/><text class="Text" transform="translate(24,13)"   font-size="10px"  text-anchor="middle"><tspan x="0" y="0">PLAC8</tspan></text></a><a  class="GeneProduct TP53 " transform="translate(583,292)"   name="TP53"  ><rect class="Icon" transform="matrix(.98039 0 0 .95238 .4902 .47619)" width="50" height="20" fill="#fff" stroke="#000"/><text class="Text" transform="translate(25,13)"   font-size="10px"  text-anchor="middle"><tspan x="0" y="0">TP53</tspan></text></a><a  class="GeneProduct COL9A1 " transform="translate(692,105)"   name="COL9A1"  ><rect class="Icon" transform="matrix(.98529 0 0 .95238 .49265 .47619)" width="67" height="20" fill="#fff" stroke="#000"/><text class="Text" transform="translate(33.5,13)"   font-size="10px"  text-anchor="middle"><tspan x="0" y="0">COL9A1</tspan></text></a><a  class="GeneProduct UBE2T " transform="translate(472,154)"   name="UBE2T"  ><rect class="Icon" transform="matrix(.98246 0 0 .95238 .49123 .47619)" width="56" height="20" fill="#fff" stroke="#000"/><text class="Text" transform="translate(28,13)"   font-size="10px"  text-anchor="middle"><tspan x="0" y="0">UBE2T</tspan></text></a><a  class="GeneProduct RNF144B " transform="translate(533,57)"   name="RNF144B"  ><rect class="Icon" transform="matrix(.98571 0 0 .95652 .49286 .47826)" width="69" height="22" fill="#fff" stroke="#000"/><text class="Text" transform="translate(34.5,14)"   font-size="10px"  text-anchor="middle"><tspan x="0" y="0">RNF144B</tspan></text></a><a  class="GeneProduct FANCI " transform="translate(389,269)"   name="FANCI"  ><rect class="Icon" transform="matrix(.98113 0 0 .95238 .49057 .47619)" width="52" height="20" fill="#fff" stroke="#000"/><text class="Text" transform="translate(26,13)"   font-size="10px"  text-anchor="middle"><tspan x="0" y="0">FANCI</tspan></text></a><a  class="GeneProduct SNURF " transform="translate(376,104)"   name="SNURF"  ><rect class="Icon" transform="matrix(.98333 0 0 .95238 .49167 .47619)" width="59" height="20" fill="#fff" stroke="#000"/><text class="Text" transform="translate(29.5,13)"   font-size="10px"  text-anchor="middle"><tspan x="0" y="0">SNURF</tspan></text></a><a  class="GeneProduct RAD17 " transform="translate(231,189)"   name="RAD17"  ><rect class="Icon" transform="matrix(.98361 0 0 .95238 .4918 .47619)" width="60" height="20" fill="#fff" stroke="#000"/><text class="Text" transform="translate(30,13)"   font-size="10px"  text-anchor="middle"><tspan x="0" y="0">RAD17</tspan></text></a><a  class="GeneProduct DSCC1 " transform="translate(5,283)"   name="DSCC1"  ><rect class="Icon" transform="matrix(.98387 0 0 .95238 .49194 .47619)" width="61" height="20" fill="#fff" stroke="#000"/><text class="Text" transform="translate(30.5,13)"   font-size="10px"  text-anchor="middle"><tspan x="0" y="0">DSCC1</tspan></text></a><a  class="GeneProduct RFC3 " transform="translate(166,280)"   name="RFC3"  ><rect class="Icon" transform="matrix(.98182 0 0 .95238 .49091 .47619)" width="54" height="20" fill="#fff" stroke="#000"/><text class="Text" transform="translate(27,13)"   font-size="10px"  text-anchor="middle"><tspan x="0" y="0">RFC3</tspan></text></a><a  class="GeneProduct CHTF18 " transform="translate(80,194)"   name="CHTF18"  ><rect class="Icon" transform="matrix(.98438 0 0 .95238 .49219 .47619)" width="63" height="20" fill="#fff" stroke="#000"/><text class="Text" transform="translate(31.5,13)"   font-size="10px"  text-anchor="middle"><tspan x="0" y="0">CHTF18</tspan></text></a><a  class="GeneProduct TOP2A " transform="translate(698,475)"   name="TOP2A"  ><rect class="Icon" transform="matrix(.98148 0 0 .95238 .49074 .47619)" width="53" height="20" fill="#fff" stroke="#000"/><text class="Text" transform="translate(26.5,13)"   font-size="10px"  text-anchor="middle"><tspan x="0" y="0">TOP2A</tspan></text></a><a  class="GeneProduct LBR " transform="translate(799,417)"   name="LBR"  ><rect class="Icon" transform="matrix(.98113 0 0 .95238 .49057 .47619)" width="52" height="20" fill="#fff" stroke="#000"/><text class="Text" transform="translate(26,13)"   font-size="10px"  text-anchor="middle"><tspan x="0" y="0">LBR</tspan></text></a><a  class="GeneProduct OTUD5 " transform="translate(856,271)"   name="OTUD5"  ><rect class="Icon" transform="matrix(.97959 0 0 .95238 .4898 .47619)" width="48" height="20" fill="#fff" stroke="#000"/><text class="Text" transform="translate(24,13)"   font-size="10px"  text-anchor="middle"><tspan x="0" y="0">OTUD5</tspan></text></a><a  class="GeneProduct CACYBP " transform="translate(898,350)"   name="CACYBP"  ><rect class="Icon" transform="matrix(.98485 0 0 .95238 .49242 .47619)" width="65" height="20" fill="#fff" stroke="#000"/><text class="Text" transform="translate(32.5,13)"   font-size="10px"  text-anchor="middle"><tspan x="0" y="0">CACYBP</tspan></text></a><a  class="GeneProduct S100A6 " transform="translate(785,333)"   name="S100A6"  ><rect class="Icon" transform="matrix(.97959 0 0 .95238 .4898 .47619)" width="48" height="20" fill="#fff" stroke="#000"/><text class="Text" transform="translate(24,13)"   font-size="10px"  text-anchor="middle"><tspan x="0" y="0">S100A6</tspan></text></a><a  class="GeneProduct AHCTF1 " transform="translate(905,615)"   name="AHCTF1"  ><rect class="Icon" transform="matrix(.98529 0 0 .95238 .49265 .47619)" width="67" height="20" fill="#fff" stroke="#000"/><text class="Text" transform="translate(33.5,13)"   font-size="10px"  text-anchor="middle"><tspan x="0" y="0">AHCTF1</tspan></text></a><a  class="GeneProduct CTNNB1 " transform="translate(739,573)"   name="CTNNB1"  ><rect class="Icon" transform="matrix(.98507 0 0 .95238 .49254 .47619)" width="66" height="20" fill="#fff" stroke="#000"/><text class="Text" transform="translate(33,13)"   font-size="10px"  text-anchor="middle"><tspan x="0" y="0">CTNNB1</tspan></text></a><a class="Rna MIRLET7E " transform="translate(956,501)" color="#990099"  name="MIRLET7E"  ><rect class="Icon" transform="matrix(.98611 0 0 .95238 .49306 .47619)" width="71" height="20" fill="#fff" stroke="#909"/><text class="Text" transform="translate(35.5,13)" fill="#990099"  font-size="10px"  text-anchor="middle"><tspan x="0" y="0">MIRLET7E</tspan></text></a><a  class="GeneProduct FAM91A1 " transform="translate(1083,395)"   name="FAM91A1"  ><rect class="Icon" transform="matrix(.98333 0 0 .95238 .49167 .47619)" width="59" height="20" fill="#fff" stroke="#000"/><text class="Text" transform="translate(29.5,13)"   font-size="10px"  text-anchor="middle"><tspan x="0" y="0">FAM91A1</tspan></text></a><a  class="GeneProduct ATAD2 " transform="translate(310,401)"   name="ATAD2"  ><rect class="Icon" transform="matrix(.98214 0 0 .95238 .49107 .47619)" width="55" height="20" fill="#fff" stroke="#000"/><text class="Text" transform="translate(27.5,13)"   font-size="10px"  text-anchor="middle"><tspan x="0" y="0">ATAD2</tspan></text></a><a  class="GeneProduct CEBPZ " transform="translate(572,593)"   name="CEBPZ"  ><rect class="Icon" transform="matrix(.98214 0 0 .95238 .49107 .47619)" width="55" height="20" fill="#fff" stroke="#000"/><text class="Text" transform="translate(27.5,13)"   font-size="10px"  text-anchor="middle"><tspan x="0" y="0">CEBPZ</tspan></text></a><g class="GeneProduct" transform="translate(361,571)" color="#ff9300"  name="RECCL4"><rect class="Icon" transform="matrix(.98182 0 0 .95238 .49091 .47619)" width="54" height="20" fill="#fff" stroke="#ff9300"/><text class="Text" transform="translate(27,13)" fill="#ff9300"  font-size="10px" stroke="black" stroke-width="0" text-anchor="middle"><tspan x="0" y="0">RECCL4</tspan></text></g><a  class="GeneProduct MYC " transform="translate(499,472)"   name="MYC"  ><rect class="Icon" transform="matrix(.98148 0 0 .95238 .49074 .47619)" width="53" height="20" fill="#fff" stroke="#000"/><text class="Text" transform="translate(26.5,13)"   font-size="10px"  text-anchor="middle"><tspan x="0" y="0">MYC</tspan></text></a><a  class="GeneProduct BRIX1 " transform="translate(732,687)"   name="BRIX1"  ><rect class="Icon" transform="matrix(.98246 0 0 .95238 .49123 .47619)" width="56" height="20" fill="#fff" stroke="#000"/><text class="Text" transform="translate(28,13)"   font-size="10px"  text-anchor="middle"><tspan x="0" y="0">BRIX1</tspan></text></a><a  class="GeneProduct CHTF8 " transform="translate(19,390)"   name="CHTF8"  ><rect class="Icon" transform="matrix(.98413 0 0 .95238 .49206 .47619)" width="62" height="20" fill="#fff" stroke="#000"/><text class="Text" transform="translate(31,13)"   font-size="10px"  text-anchor="middle"><tspan x="0" y="0">CHTF8</tspan></text></a><a  class="GeneProduct RFC4 " transform="translate(149,385)"   name="RFC4"  ><rect class="Icon" transform="matrix(.98182 0 0 .95238 .49091 .47619)" width="54" height="20" fill="#fff" stroke="#000"/><text class="Text" transform="translate(27,13)"   font-size="10px"  text-anchor="middle"><tspan x="0" y="0">RFC4</tspan></text></a><g id="af" class="Interaction" color="#000" ><g color="#000" fill="transparent"  filter="url(#a)" stroke="#000" stroke-dasharray="84.17875325757682, 0"><path class="EdgeBody" d="m127.25 214 52.25 66"   /></g></g><g id="ag" class="Interaction" color="#000" ><g color="#000" fill="transparent"  filter="url(#a)" stroke="#000" stroke-dasharray="181.91206666958627, 0"><path class="EdgeBody" d="m111.5 214-46 176"   /></g></g><g id="ah" class="Interaction" color="#000" ><g color="#000" fill="transparent"  filter="url(#a)" stroke="#000" stroke-dasharray="88.20005668932419, 0"><path class="EdgeBody" d="M35.5,303L50,390"   /></g></g><g id="ai" class="Interaction" color="#000" ><g color="#000" fill="transparent"  filter="url(#a)" stroke="#000" stroke-dasharray="68.18357573492314, 0"><path class="EdgeBody" d="m149 395-68 5"   /></g></g><g id="aj" class="Interaction" color="#000" ><g color="#000" fill="transparent"  filter="url(#a)" stroke="#000" stroke-dasharray="100.04498987955368, 0"><path class="EdgeBody" d="m166 290-100 3"   /></g></g><g id="ak" class="Interaction" color="#000" ><g color="#000" fill="transparent"  filter="url(#a)" stroke="#000" stroke-dasharray="145.24462124292245, 0"><path class="EdgeBody" d="m179.5 300-114 90"   /></g></g><g id="al" class="Interaction" color="#000" ><g color="#000" fill="transparent"  filter="url(#a)" stroke="#000" stroke-dasharray="177.81327987526691, 0"><path class="EdgeBody" d="M127.25,214L176,385"   /></g></g><g id="am" class="Interaction" color="#000" ><g color="#000" fill="transparent"  filter="url(#a)" stroke="#000" stroke-dasharray="133.3276040435738, 0"><path class="EdgeBody" d="m66 293 96.5 92"   /></g></g><g id="an" class="Interaction" color="#000" ><g color="#000" fill="transparent"  filter="url(#a)" stroke="#000" stroke-dasharray="85.07202830543069, 0"><path class="EdgeBody" d="m193 300-3.5 85"   /></g></g><g id="ao" class="Interaction" color="#000" ><g color="#000" fill="transparent"  filter="url(#a)" stroke="#000" stroke-dasharray="88.60022573334675, 0"><path class="EdgeBody" d="m193 280 53-71"   /></g></g><g id="ap" class="Interaction" color="#000" ><g color="#000" fill="transparent"  filter="url(#a)" stroke="#000" stroke-dasharray="189.969076430876, 0"><path class="EdgeBody" d="m261 209-71.5 176"   /></g></g><g id="aq" class="DirectedInteraction" color="#000" ><g color="#000" fill="transparent"  filter="url(#a)" stroke="#000" stroke-dasharray="0, 5.8, 119.98379267616318, 0"><path class="EdgeBody" d="m176 405 57.25 112"   marker-start="url(#c)" /></g></g><g id="ar" class="DirectedInteraction" color="#000" ><g color="#000" fill="transparent"  filter="url(#a)" stroke="#000" stroke-dasharray="0, 5.8, 149.969059828966, 0"><path class="EdgeBody" d="m162.5 405-42 150"   marker-start="url(#c)" /></g></g><g id="as" class="DirectedInteraction" color="#000" ><g color="#000" fill="transparent"  filter="url(#a)" stroke="#000" stroke-dasharray="0, 5.8, 64.378344238091, 0"><path class="EdgeBody" d="m220 527-59 38"   marker-start="url(#c)" /></g></g><g id="at" class="DirectedInteraction" color="#000" ><g color="#000" fill="transparent"  filter="url(#a)" stroke="#000" stroke-dasharray="0, 5.8, 214.85584062063708, 0"><path class="EdgeBody" d="m206.5 300 40 217"   marker-start="url(#c)" /></g></g><g id="au" class="DirectedInteraction" color="#000" ><g color="#000" fill="transparent"  filter="url(#a)" stroke="#000" stroke-dasharray="5.17, 3.1, 5.17, 3.1, 5.17, 3.1, 5.17, 3.1, 5.17, 3.1, 5.17, 3.1, 5.17, 3.1, 5.17, 3.1, 5.17, 3.1, 5.17, 3.1, 5.17, 3.1, 5.17, 3.1, 5.17, 3.1, 5.17, 3.1, 5.17, 3.1, 5.17, 3.1, 5.17, 3.1, 5.17, 3.1, 0, 5.8"><path class="EdgeBody" d="m365 411 134 71"   marker-end="url(#b)" /></g></g><g id="av" class="DirectedInteraction" color="#000" ><g color="#000" fill="transparent"  filter="url(#a)" stroke="#000" stroke-dasharray="0, 5.8, 385.41477477211924, 0"><path class="EdgeBody" d="m203 395 380-93"   marker-start="url(#c)" /></g></g><g id="aw" class="Interaction" color="#000" ><g color="#000" fill="transparent"  filter="url(#a)" stroke="#000" stroke-dasharray="363.19829294753026, 0"><path class="EdgeBody" d="m583 302-363-12"   /></g></g><g id="ax" class="Interaction" color="#000" ><g color="#000" fill="transparent"  filter="url(#a)" stroke="#000" stroke-dasharray="92.86145594378758, 0"><path class="EdgeBody" d="m415 289 26.5 89"   /></g></g><g id="ay" class="DirectedInteraction" color="#000" ><g color="#000" fill="transparent"  filter="url(#a)" stroke="#000" stroke-dasharray="148.7511646672389, 5.8"><path class="EdgeBody" d="m595.5 312-139.75 66"   marker-end="url(#b)" /></g></g><g id="az" class="DirectedInteraction" color="#000" ><g color="#000" fill="transparent"  filter="url(#a)" stroke="#000" stroke-dasharray="5.19, 3.11, 5.19, 3.11, 5.19, 3.11, 5.19, 3.11, 5.19, 3.11, 5.19, 3.11, 5.19, 3.11, 5.19, 3.11, 5.19, 3.11, 5.19, 3.11, 5.19, 3.11, 5.19, 3.11, 5.19, 3.11, 5.19, 3.11, 5.19, 3.11, 5.19, 3.11, 5.19, 3.11, 0, 5.8"><path class="EdgeBody" d="m583 302-142-23"   marker-end="url(#b)" /></g></g><g id="ba" class="Interaction" color="#000" ><g color="#000" fill="transparent"  filter="url(#a)" stroke="#000" stroke-dasharray="56.094543381108224, 0"><path class="EdgeBody" d="m427.25 378-6e-14 -3.3333c6e-14 -3.3333 6e-14 -10 4.75-13.333 4.75-3.3333 14.25-3.3333 19 0 4.75 3.3333 4.75 10 4.75 13.333l6e-14 3.3333"   /></g></g><g id="bb" class="DirectedInteraction" color="#000" ><g color="#000" fill="transparent"  filter="url(#a)" stroke="#000" stroke-dasharray="96.57950234299832, 5.8"><path class="EdgeBody" d="m512.25 472-70.75-74"   marker-end="url(#b)" /></g></g><g id="bc" class="DirectedInteraction" color="#000" ><g color="#000" fill="transparent"  filter="url(#a)" stroke="#000" stroke-dasharray="5.08, 3.05, 5.08, 3.05, 5.08, 3.05, 5.08, 3.05, 5.08, 3.05, 5.08, 3.05, 5.08, 3.05, 5.08, 3.05, 5.08, 3.05, 5.08, 3.05, 5.08, 3.05, 5.08, 3.05, 5.08, 3.05, 5.08, 3.05, 5.08, 3.05, 5.08, 3.05, 5.08, 3.05, 5.08, 3.05, 5.08, 3.05, 5.08, 3.05, 5.08, 3.05, 5.08, 3.05, 5.08, 3.05, 5.08, 3.05, 5.08, 3.05, 5.08, 3.05, 5.08, 3.05, 5.08, 3.05, 0, 5.8"><path class="EdgeBody" d="m499 482-226 45"   marker-end="url(#b)" /></g></g><g id="bd" class="DirectedInteraction" color="#000" ><g color="#000" fill="transparent"  filter="url(#a)" stroke="#000" stroke-dasharray="136.47438279606064, 5.8"><path class="EdgeBody" d="m499 482-111 89"   marker-end="url(#b)" /></g></g><g id="be" class="DirectedInteraction" color="#000" ><g color="#000" fill="transparent"  filter="url(#a)" stroke="#000" stroke-dasharray="94.1599919967984, 5.8"><path class="EdgeBody" d="m374.5 591-34 94"   marker-end="url(#b)" /></g></g><g id="bf" class="DirectedInteraction" color="#000" ><g color="#000" fill="transparent"  filter="url(#a)" stroke="#000" stroke-dasharray="5.13, 3.08, 5.13, 3.08, 5.13, 3.08, 5.13, 3.08, 5.13, 3.08, 5.13, 3.08, 5.13, 3.08, 5.13, 3.08, 5.13, 3.08, 5.13, 3.08, 5.13, 3.08, 5.13, 3.08, 5.13, 3.08, 5.13, 3.08, 5.13, 3.08, 5.13, 3.08, 5.13, 3.08, 5.13, 3.08, 5.13, 3.08, 5.13, 3.08, 5.13, 3.08, 5.13, 3.08, 5.13, 3.08, 5.13, 3.08, 5.13, 3.08, 5.13, 3.08, 5.13, 3.08, 5.13, 3.08, 5.13, 3.08, 5.13, 3.08, 0, 5.8"><path class="EdgeBody" d="m512.25 492-157.5 193"   marker-end="url(#b)" /></g></g><g id="bg" class="DirectedInteraction" color="#000" ><g color="#000" fill="transparent"  filter="url(#a)" stroke="#000" stroke-dasharray="180.2, 5.8"><path class="EdgeBody" d="m525.5 492v186"   marker-end="url(#b)" /></g></g><g id="bh" class="Interaction" color="#000" ><g color="#000" fill="transparent"  filter="url(#a)" stroke="#000" stroke-dasharray="281.1285293242221, 0"><path class="EdgeBody" d="m608 312-8.5 281"   /></g></g><g id="bi" class="Interaction" color="#000" ><g color="#000" fill="transparent"  filter="url(#a)" stroke="#000" stroke-dasharray="94.76286192385707, 0"><path class="EdgeBody" d="m772 593-12 94"   /></g></g><g id="bj" class="DirectedInteraction" color="#000" ><g color="#000" fill="transparent"  filter="url(#a)" stroke="#000" stroke-dasharray="0, 5.8, 200.93235047869769, 5.8"><path class="EdgeBody" d="m739 583-187-101"   marker-end="url(#b)" marker-start="url(#c)" /></g></g><g id="bk" class="DirectedInteraction" color="#000" ><g color="#000" fill="transparent"  filter="url(#a)" stroke="#000" stroke-dasharray="0, 5.8, 282.2468989116611, 5.8"><path class="EdgeBody" d="m755.5 573-135-261"   marker-end="url(#b)" marker-start="url(#c)" /></g></g><g id="bl" class="DirectedInteraction" color="#000" ><g color="#000" fill="transparent"  filter="url(#a)" stroke="#000" stroke-dasharray="5.27, 3.16, 5.27, 3.16, 5.27, 3.16, 5.27, 3.16, 5.27, 3.16, 5.27, 3.16, 5.27, 3.16, 5.27, 3.16, 5.27, 3.16, 5.27, 3.16, 5.27, 3.16, 5.27, 3.16, 5.27, 3.16, 5.27, 3.16, 5.27, 3.16, 5.27, 3.16, 5.27, 3.16, 0, 5.8"><path class="EdgeBody" d="m698 485-146-3"   marker-end="url(#b)" /></g></g><g id="bm" class="Interaction" color="#000" ><g color="#000" fill="transparent"  filter="url(#a)" stroke="#000" stroke-dasharray="54.482939010648145, 0"><path class="EdgeBody" d="m737.75 475v-3.3333c0-3.3333 0-10-4.4167-13.333-4.4167-3.3333-13.25-3.3333-17.667-4e-14 -4.4167 3.3333-4.4167 10-4.4167 13.333l1e-13 3.3333"   /></g></g><g id="bn" class="DirectedInteraction" color="#000" ><g color="#000" fill="transparent"  filter="url(#a)" stroke="#000" stroke-dasharray="208.4651686579039, 5.8"><path class="EdgeBody" d="m608 292-23.25-213"   marker-end="url(#b)" /></g></g><g id="bo" class="Interaction" color="#000" ><g color="#000" fill="transparent"  filter="url(#a)" stroke="#000" stroke-dasharray="76.32168761236873, 0"><path class="EdgeBody" d="m435 114 65 40"   /></g></g><g id="bp" class="Interaction" color="#000" ><g color="#000" fill="transparent"  filter="url(#a)" stroke="#000" stroke-dasharray="267.2901045680517, 0"><path class="EdgeBody" d="m405.5 124 190 188"   /></g></g><g id="bq" class="Interaction" color="#000" ><g color="#000" fill="transparent"  filter="url(#a)" stroke="#000" stroke-dasharray="74.49874160011026, 0"><path class="EdgeBody" d="m708.75 125-50.25 55"   /></g></g><g id="br" class="DirectedInteraction" color="#000" ><g color="#000" fill="transparent"  filter="url(#a)" stroke="#000" stroke-dasharray="5.25, 3.15, 5.25, 3.15, 5.25, 3.15, 5.25, 3.15, 5.25, 3.15, 5.25, 3.15, 5.25, 3.15, 5.25, 3.15, 5.25, 3.15, 5.25, 3.15, 5.25, 3.15, 5.25, 3.15, 5.25, 3.15, 5.25, 3.15, 0, 5.8"><path class="EdgeBody" d="m741 249-108 53"   marker-end="url(#b)" /></g></g><g id="bs" class="Interaction" color="#000" ><g color="#000" fill="transparent"  filter="url(#a)" stroke="#000" stroke-dasharray="77.66112283504533, 0"><path class="EdgeBody" d="m880 291 50.5 59"   /></g></g><g id="bt" class="Interaction" color="#000" ><g color="#000" fill="transparent"  filter="url(#a)" stroke="#000" stroke-dasharray="59.38104563091241, 0"><path class="EdgeBody" d="m914.25 350v-3.3333c0-3.3333 0-10 5.4167-13.333 5.4167-3.3333 16.25-3.3333 21.667 0 5.4167 3.3333 5.4167 10 5.4167 13.333l1e-13 3.3333"   /></g></g><g id="bu" class="Interaction" color="#000" ><g color="#000" fill="transparent"  filter="url(#a)" stroke="#000" stroke-dasharray="67.1863081289633, 0"><path class="EdgeBody" d="m833 343 65 17"   /></g></g><g id="bv" class="Interaction" color="#000" ><g color="#000" fill="transparent"  filter="url(#a)" stroke="#000" stroke-dasharray="52.5029735646238, 0"><path class="EdgeBody" d="m797 333-2e-13 -3.3333c1e-13 -3.3333 1e-13 -10 4-13.333 4-3.3333 12-3.3333 16 0 4 3.3333 4 10 4 13.333l2e-13 3.3333"   /></g></g><g id="bw" class="Interaction" color="#000" ><g color="#000" fill="transparent"  filter="url(#a)" stroke="#000" stroke-dasharray="157.4325252290644, 0"><path class="EdgeBody" d="m633 302 152 41"   /></g></g><g id="bx" class="DirectedInteraction" color="#000" ><g color="#000" fill="transparent"  filter="url(#a)" stroke="#000" stroke-dasharray="117.60279575439124, 5.8"><path class="EdgeBody" d="m1009.2 501 88.5-86"   marker-end="url(#b)" /></g></g><g id="by" class="DirectedInteraction" color="#000" ><g color="#000" fill="transparent"  filter="url(#a)" stroke="#000" stroke-dasharray="102.11200118615167, 5.8"><path class="EdgeBody" d="m991.5 521-53 94"   marker-end="url(#b)" /></g></g><g id="bz" class="Interaction" color="#000" ><g color="#000" fill="transparent"  filter="url(#a)" stroke="#000" stroke-dasharray="247.22307740176686, 0"><path class="EdgeBody" d="m805 583 125.5-213"   /></g></g><a  class="GeneProduct EGFR " transform="translate(639,353)"   name="EGFR"  ><rect class="Icon" transform="matrix(.98246 0 0 .95238 .49123 .47619)" width="56" height="20" fill="#fff" stroke="#000"/><text class="Text" transform="translate(28,13)"   font-size="10px"  text-anchor="middle"><tspan x="0" y="0">EGFR</tspan></text></a><text class="Text" transform="translate(5,36)" dominant-baseline="central" fill="black"  font-size="12px" font-weight="bold" overflow="visible" ><tspan x="0" y="-18">Name: Gastric cancer network 2</tspan> <tspan x="0" y="0">Last Modified: 10/17/2013</tspan> <tspan x="0" y="18">Organism: Homo sapiens</tspan></text></g></svg>
