<?xml version="1.0" encoding="UTF-8"?>
<!--
  WikiPathways page: https://www.wikipathways.org/index.php/Pathway:WP24
  URL for this compressed file: https://github.com/eweitz/cachome/tree/main/data/wikipathways/WP24.svg
  Source code for compression: https://github.com/eweitz/cachome/tree/main/src/wikipathways.py
-->
<svg class="Diagram" width="800" height="600" color="black" baseProfile="full" prefix="schema:http://schema.org/" preserveAspectRatio="xMidYMid" version="1.1" viewBox="0 0 824 668" vocab="http://vocabularies.wikipathways.org/wp#" xmlns="http://www.w3.org/2000/svg" xmlns:xlink="http://www.w3.org/1999/xlink"><style>svg {font-family: 'Liberation Sans', Arial, sans-serif; }</style><defs><filter id="h" x="0" y="0" width="824" height="668" filterUnits="userSpaceOnUse"><feColorMatrix in="SourceGraphic" values="-1   0   0 0 0                   0  -1   0 0 0                   0   0  -1 0 0                   0   0   0 1 0"/></filter><filter id="f" x="0" y="0" width="824" height="668" filterUnits="userSpaceOnUse"><feColorMatrix in="SourceGraphic" values="-1   0   0 0 0                   0  -1   0 0 0                   0   0  -1 0 1                   0   0   0 1 0"/></filter><filter id="b" x="0" y="0" width="824" height="668" filterUnits="userSpaceOnUse"><feColorMatrix in="SourceGraphic" values="-1   0   0 0 0                   0  -1   0 0 1                   0   0  -1 0 0                   0   0   0 1 0"/></filter><filter id="e" x="0" y="0" width="824" height="668" filterUnits="userSpaceOnUse"><feColorMatrix in="SourceGraphic" values="-1   0   0 0 1                   0  -1   0 0 0.5019607843137255                   0   0  -1 0 0                   0   0   0 1 0"/></filter><marker id="d" stroke-dasharray="99999" markerHeight="12" markerUnits="userSpaceOnUse" markerWidth="12" orient="auto" preserveAspectRatio="none" refY="6" viewBox="0 0 12 12"><path d="M12 11L0 6l12-5z" fill="currentColor" stroke-width="0"/></marker><marker id="c" stroke-dasharray="99999" markerHeight="12" markerUnits="userSpaceOnUse" markerWidth="12" orient="auto" preserveAspectRatio="none" refX="12" refY="6" viewBox="0 0 12 12"><path transform="rotate(180 6 6)" d="M12 11L0 6l12-5z" fill="currentColor" stroke-width="0"/></marker><marker id="g" stroke-dasharray="99999" markerHeight="12" markerUnits="userSpaceOnUse" markerWidth="12" orient="auto" preserveAspectRatio="none" refX="12" refY="6" viewBox="0 0 12 12"><path transform="rotate(180 6 6)" d="M12 12L0 6l12-6-7 6z" fill="currentColor" stroke-width="0"/></marker><symbol id="a" preserveAspectRatio="none" viewBox="0 0 100 100"/></defs><g class="Viewport" color="black"  name="Name: Peptide GPCRs License: CC BY 2.0 Organism: Homo sapiens"><rect class="Icon" width="824" height="668" fill="#fff" stroke="#000" stroke-width="0"/><g id="i" class="DirectedInteraction" color="#00f" ><g color="#00f" fill="transparent"  filter="url(#f)" stroke="#000" stroke-dasharray="0, 5.8, 405.0333333333333, 0"><path class="EdgeBody" d="m369.5 617v-356h54.833"   marker-start="url(#d)" /></g></g><g id="j" class="DirectedInteraction" color="#0f0" ><g color="#0f0" fill="transparent"  filter="url(#b)" stroke="#000" stroke-dasharray="257.2833333333333, 5.8"><path class="EdgeBody" d="m144.67 380h28.083v235"   marker-end="url(#c)" /></g></g><g id="k" class="DirectedInteraction" color="#00f" ><g color="#00f" fill="transparent"  filter="url(#f)" stroke="#000" stroke-dasharray="0, 5.8, 513.7, 0"><path class="EdgeBody" d="m369.5 617v-464.67h54.833"   marker-start="url(#d)" /></g></g><g id="l" class="DirectedInteraction" color="#ff8000" ><g color="#ff8000" fill="transparent"  filter="url(#e)" stroke="#000" stroke-dasharray="236.28333333333336, 5.8"><path class="EdgeBody" d="m483.33 398.33h22.417v219.67"   marker-end="url(#c)" /></g></g><g id="m" class="DirectedInteraction" color="#0f0" ><g color="#0f0" fill="transparent"  filter="url(#b)" stroke="#000" stroke-dasharray="0, 5.8, 114.70000000000006, 0"><path class="EdgeBody" d="m202.5 615v-64.333h56.167"   marker-start="url(#d)" /></g></g><g id="n" class="DirectedInteraction" color="#0f0" ><g color="#0f0" fill="transparent"  filter="url(#b)" stroke="#000" stroke-dasharray="0, 5.8, 190.7, 0"><path class="EdgeBody" d="m202.5 615v-140.33h56.167"   marker-start="url(#d)" /></g></g><g id="o" class="DirectedInteraction" color="#0f0" ><g color="#0f0" fill="transparent"  filter="url(#b)" stroke="#000" stroke-dasharray="0, 5.8, 504.3666666666667, 0"><path class="EdgeBody" d="m202.5 615v-453h57.167"   marker-start="url(#d)" /></g></g><g id="p" class="DirectedInteraction" color="#0f0" ><g color="#0f0" fill="transparent"  filter="url(#b)" stroke="#000" stroke-dasharray="181.61666666666662, 5.8"><path class="EdgeBody" d="m144.67 455.67h28.083v159.33"   marker-end="url(#c)" /></g></g><g id="q" class="DirectedInteraction" color="#ff8000" ><g color="#ff8000" fill="transparent"  filter="url(#e)" stroke="#000" stroke-dasharray="113.94999999999995, 5.8"><path class="EdgeBody" d="m483.33 520.67h22.417v97.333"   marker-end="url(#c)" /></g></g><g id="r" class="DirectedInteraction" color="#00f" ><g color="#00f" fill="transparent"  filter="url(#f)" stroke="#000" stroke-dasharray="429.2833333333333, 5.8"><path class="EdgeBody" d="m319.67 202h20.083v415"   marker-end="url(#c)" /></g></g><g id="s" class="DirectedInteraction" color="#0f0" ><g color="#0f0" fill="transparent"  filter="url(#b)" stroke="#000" stroke-dasharray="161.61666666666662, 5.8"><path class="EdgeBody" d="m144.67 475.67h28.083v139.33"   marker-end="url(#c)" /></g></g><g id="t" class="DirectedInteraction" color="#0f0" ><g color="#0f0" fill="transparent"  filter="url(#b)" stroke="#000" stroke-dasharray="513.95, 5.8"><path class="EdgeBody" d="m144.67 123.33h28.083v491.67"   marker-end="url(#c)" /></g></g><g id="u" class="DirectedInteraction" color="#00f" ><g color="#00f" fill="transparent"  filter="url(#f)" stroke="#000" stroke-dasharray="0, 5.8, 385.0333333333333, 0"><path class="EdgeBody" d="m369.5 617v-336h54.833"   marker-start="url(#d)" /></g></g><g id="v" class="DirectedInteraction" color="#0f0" ><g color="#0f0" fill="transparent"  filter="url(#b)" stroke="#000" stroke-dasharray="384.6166666666666, 5.8"><path class="EdgeBody" d="m144.67 252.67h28.083v362.33"   marker-end="url(#c)" /></g></g><g id="w" class="DirectedInteraction" color="#ff8000" ><g color="#ff8000" fill="transparent"  filter="url(#e)" stroke="#000" stroke-dasharray="133.94999999999993, 5.8"><path class="EdgeBody" d="m483.33 500.67h22.417v117.33"   marker-end="url(#c)" /></g></g><g id="x" class="DirectedInteraction" color="#0f0" ><g color="#0f0" fill="transparent"  filter="url(#b)" stroke="#000" stroke-dasharray="0, 5.8, 394.0333333333333, 0"><path class="EdgeBody" d="m202.5 615v-342.67h57.167"   marker-start="url(#d)" /></g></g><g id="y" class="DirectedInteraction" color="#0f0" ><g color="#0f0" fill="transparent"  filter="url(#b)" stroke="#000" stroke-dasharray="0, 5.8, 484.3666666666667, 0"><path class="EdgeBody" d="m202.5 615v-433h57.167"   marker-start="url(#d)" /></g></g><g id="z" class="DirectedInteraction" color="#0f0" ><g color="#0f0" fill="transparent"  filter="url(#b)" stroke="#000" stroke-dasharray="201.61666666666662, 5.8"><path class="EdgeBody" d="m144.67 435.67h28.083v179.33"   marker-end="url(#c)" /></g></g><g id="aa" class="DirectedInteraction" color="#0f0" ><g color="#0f0" fill="transparent"  filter="url(#b)" stroke="#000" stroke-dasharray="277.2833333333333, 5.8"><path class="EdgeBody" d="m144.67 360h28.083v255"   marker-end="url(#c)" /></g></g><g id="ab" class="DirectedInteraction" color="#00f" ><g color="#00f" fill="transparent"  filter="url(#f)" stroke="#000" stroke-dasharray="0, 5.8, 473.69999999999993, 0"><path class="EdgeBody" d="m369.5 617v-424.67l54.833-3e-14"   marker-start="url(#d)" /></g></g><g id="ac" class="DirectedInteraction" color="#0f0" ><g color="#0f0" fill="transparent"  filter="url(#b)" stroke="#000" stroke-dasharray="0, 5.8, 277.7, 0"><path class="EdgeBody" d="m202.5 615v-227.33h56.167"   marker-start="url(#d)" /></g></g><g id="ad" class="DirectedInteraction" color="#ff8000" ><g color="#ff8000" fill="transparent"  filter="url(#e)" stroke="#000" stroke-dasharray="93.94999999999995, 5.8"><path class="EdgeBody" d="m483.33 540.67h22.417v77.333"   marker-end="url(#c)" /></g></g><g id="ae" class="DirectedInteraction" color="#0f0" ><g color="#0f0" fill="transparent"  filter="url(#b)" stroke="#000" stroke-dasharray="0, 5.8, 297.7, 0"><path class="EdgeBody" d="m202.5 615v-247.33h56.167"   marker-start="url(#d)" /></g></g><g id="af" class="DirectedInteraction" color="#0f0" ><g color="#0f0" fill="transparent"  filter="url(#b)" stroke="#000" stroke-dasharray="0, 5.8, 374.03333333333336, 0"><path class="EdgeBody" d="m202.5 615v-322.67h57.167"   marker-start="url(#d)" /></g></g><g id="ag" class="DirectedInteraction" color="#0f0" ><g color="#0f0" fill="transparent"  filter="url(#b)" stroke="#000" stroke-dasharray="364.6166666666666, 5.8"><path class="EdgeBody" d="m144.67 272.67h28.083v342.33"   marker-end="url(#c)" /></g></g><g id="ah" class="DirectedInteraction" color="#ff8000" ><g color="#ff8000" fill="transparent"  filter="url(#e)" stroke="#000" stroke-dasharray="0, 5.8, 157.0333333333333, 0"><path class="EdgeBody" d="m535.5 618v-131.33h31.5"   marker-start="url(#d)" /></g></g><g id="ai" class="Interaction" color="#000" ><g color="#000" fill="transparent"  filter="url(#h)" stroke="#000" stroke-dasharray="16.667452812697466, 1"><path class="EdgeBody" d="m288.5 439 0.16667 17.667"   marker-end="url(#g)" /></g></g><g id="aj" class="Interaction" color="#000" ><g color="#000" fill="transparent"  filter="url(#h)" stroke="#000" stroke-dasharray="14.170329228098108, 1"><path class="EdgeBody" d="m289.33 128.83 0.33333 15.167"   marker-end="url(#g)" /></g></g><g class="Label" transform="translate(22.5,89.5)" color="#000"  name="Angiotensin Receptors"><use class="Icon" width="180.33333333333334" height="19" fill="transparent"  stroke="#000" stroke-width="0" xlink:href="#a"/><text class="Text" transform="translate(90.167 13.5)"   font-size="12px" font-weight="bold"  text-anchor="middle"><tspan x="0" y="0">Angiotensin Receptors</tspan></text></g><g class="Label" transform="translate(224 332.17)" color="#000"  name="Endothelin Receptors"><use class="Icon" width="131" height="19" fill="transparent"  stroke="#000" stroke-width="0" xlink:href="#a"/><text class="Text" transform="translate(65.5,13.5)"   font-size="12px" font-weight="bold"  text-anchor="middle"><tspan x="0" y="0">Endothelin Receptors</tspan></text></g><g class="Label" transform="translate(547.17 439.5)" color="#000"  name="Neuropeptide Y  Receptors"><use class="Icon" width="101.83333333333333" height="32.833333333333336" fill="transparent"  stroke="#000" stroke-width="0" xlink:href="#a"/><text class="Text" transform="translate(50.917 20.417)"   font-size="12px" font-weight="bold"  text-anchor="middle"><tspan x="0" y="0">Neuropeptide Y Receptors</tspan></text></g><g class="Label" transform="translate(221.5 241.83)" color="#000"  name="Bombesin Receptors"><use class="Icon" width="129.5" height="19" fill="transparent"  stroke="#000" stroke-width="0" xlink:href="#a"/><text class="Text" transform="translate(64.75,13.5)"   font-size="12px" font-weight="bold"  text-anchor="middle"><tspan x="0" y="0">Bombesin Receptors</tspan></text></g><g class="Label" transform="translate(397.17 471.17)" color="#000"  name="Opioid Receptors"><use class="Icon" width="107.83333333333333" height="19" fill="transparent"  stroke="#000" stroke-width="0" xlink:href="#a"/><text class="Text" transform="translate(53.917 13.5)"   font-size="12px" font-weight="bold"  text-anchor="middle"><tspan x="0" y="0">Opioid Receptors</tspan></text></g><g class="Label" transform="translate(550.67 286.83)" color="#000"  name="Somatostatin  Receptors"><use class="Icon" width="91.33333333333333" height="28.833333333333332" fill="transparent"  stroke="#000" stroke-width="0" xlink:href="#a"/><text class="Text" transform="translate(45.667 18.417)"   font-size="12px" font-weight="bold"  text-anchor="middle"><tspan x="0" y="0">Somatostatin Receptors</tspan></text></g><g class="Label" transform="translate(218,518.5)" color="#000"  name="Neurotensin Receptors"><use class="Icon" width="137.83333333333334" height="19" fill="transparent"  stroke="#000" stroke-width="0" xlink:href="#a"/><text class="Text" transform="translate(68.917 13.5)"   font-size="12px" font-weight="bold"  text-anchor="middle"><tspan x="0" y="0">Neurotensin Receptors</tspan></text></g><g class="Label" transform="translate(408.83 221.17)" color="#000"  name="Melanocortin Receptors"><use class="Icon" width="94.16666666666667" height="26.833333333333332" fill="transparent"  stroke="#000" stroke-width="0" xlink:href="#a"/><text class="Text" transform="translate(47.083 17.417)"   font-size="12px" font-weight="bold"  text-anchor="middle"><tspan x="0" y="0">Melanocortin Receptors</tspan></text></g><g class="Label" transform="translate(389 110.17)" color="#000"  name="Glycoprotein Hormone Receptors"><use class="Icon" width="127.83333333333333" height="27.5" fill="transparent"  stroke="#000" stroke-width="0" xlink:href="#a"/><text class="Text" transform="translate(63.917 17.75)"   font-size="12px" font-weight="bold"  text-anchor="middle"><tspan x="0" y="0">Glycoprotein Hormone Receptors</tspan></text></g><g class="Label" transform="translate(50.5 402.83)" color="#000"  name="Tachykinin Receptors"><use class="Icon" width="129.5" height="19" fill="transparent"  stroke="#000" stroke-width="0" xlink:href="#a"/><text class="Text" transform="translate(64.75,13.5)"   font-size="12px" font-weight="bold"  text-anchor="middle"><tspan x="0" y="0">Tachykinin Receptors</tspan></text></g><g class="Label" transform="translate(220.5,84.5)" color="#000"  name="Vasopressin and Oxytocin Receptors"><use class="Icon" width="134.33333333333334" height="32.833333333333336" fill="transparent"  stroke="#000" stroke-width="0" xlink:href="#a"/><text class="Text" transform="translate(67.167 20.417)"   font-size="12px" font-weight="bold"  text-anchor="middle"><tspan x="0" y="0">Vasopressin and Oxytocin Receptors</tspan></text></g><g class="Label" transform="translate(59 319.17)" color="#000"  name="Cholecystokinin/ Gastrin Receptors"><use class="Icon" width="114" height="31.5" fill="transparent"  stroke="#000" stroke-width="0" xlink:href="#a"/><text class="Text" transform="translate(57,19.75)"   font-size="12px" font-weight="bold"  text-anchor="middle"><tspan x="0" y="0">Cholecystokinin/ Gastrin Receptors</tspan></text></g><g class="Label" transform="translate(648.83 308.17)" color="#000"  name="Chemotactic Receptors"><use class="Icon" width="145.16666666666666" height="19" fill="transparent"  stroke="#000" stroke-width="0" xlink:href="#a"/><text class="Text" transform="translate(72.583 13.5)"   font-size="12px" font-weight="bold"  text-anchor="middle"><tspan x="0" y="0">Chemotactic Receptors</tspan></text></g><g class="Label" transform="translate(36.5 211.17)" color="#000"  name="Releasing Hormone Receptors"><use class="Icon" width="156.33333333333334" height="30.166666666666668" fill="transparent"  stroke="#000" stroke-width="0" xlink:href="#a"/><text class="Text" transform="translate(78.167 19.083)"   font-size="12px" font-weight="bold"  text-anchor="middle"><tspan x="0" y="0">Releasing Hormone Receptors</tspan></text></g><g class="Label" transform="translate(217 403.17)" color="#000"  name="Bradykinin Receptors"><use class="Icon" width="135" height="19" fill="transparent"  stroke="#000" stroke-width="0" xlink:href="#a"/><text class="Text" transform="translate(67.5,13.5)"   font-size="12px" font-weight="bold"  text-anchor="middle"><tspan x="0" y="0">Bradykinin Receptors</tspan></text></g><g class="Label" transform="translate(397.17 371.83)" color="#000"  name="Galanin Receptors"><use class="Icon" width="111.83333333333333" height="19" fill="transparent"  stroke="#000" stroke-width="0" xlink:href="#a"/><text class="Text" transform="translate(55.917 13.5)"   font-size="12px" font-weight="bold"  text-anchor="middle"><tspan x="0" y="0">Galanin Receptors</tspan></text></g><g class="Label" transform="translate(589 121.83)" color="#000"  name="Chemokine Receptors"><use class="Icon" width="136" height="19" fill="transparent"  stroke="#000" stroke-width="0" xlink:href="#a"/><text class="Text" transform="translate(68,13.5)"   font-size="12px" font-weight="bold"  text-anchor="middle"><tspan x="0" y="0">Chemokine Receptors</tspan></text></g><a class="WikiPathways_WP35 Pathway " transform="translate(476,618)" color="#14961e"  name="Gi/Go Pathway"  ><rect class="Icon" transform="matrix(.99167 0 0 .95238 .49583 .47619)" width="119" height="20" rx="15" ry="15" fill="#fff" stroke="#14961e"/><text class="Text" transform="translate(59.5,14)" fill="#14961e"  font-size="12px" font-weight="bold" stroke="black" stroke-width="0" text-anchor="middle"><tspan x="0" y="0">Gi/Go Pathway</tspan></text></a><a class="CAS_50-56-6 Metabolite ChEBI_CHEBI_7872  " transform="translate(261 114.67)" color="#00f"  name="Oxytocin"  ><rect class="Icon" transform="matrix(.98266 0 0 .93407 .49133 .46703)" width="56.667" height="14.167" fill="#fff" stroke="#00f"/><text class="Text" transform="translate(28.333 10.083)" fill="#00f"  font-size="10px"  text-anchor="middle"><tspan x="0" y="0">Oxytocin</tspan></text></a><a class="WikiPathways_WP35 Pathway " transform="translate(143,615)" color="#14961e"  name="Gq/G11 Pathway"  ><rect class="Icon" transform="matrix(.99167 0 0 .95238 .49583 .47619)" width="119" height="20" rx="15" ry="15" fill="#fff" stroke="#14961e"/><text class="Text" transform="translate(59.5,14)" fill="#14961e"  font-size="12px" font-weight="bold" stroke="black" stroke-width="0" text-anchor="middle"><tspan x="0" y="0">Gq/G11 Pathway</tspan></text></a><a class="WikiPathways_WP35 Pathway " transform="translate(310,617)" color="#14961e"  name="Gs Pathway"  ><rect class="Icon" transform="matrix(.99167 0 0 .95238 .49583 .47619)" width="119" height="20" rx="15" ry="15" fill="#fff" stroke="#14961e"/><text class="Text" transform="translate(59.5,14)" fill="#14961e"  font-size="12px" font-weight="bold" stroke="black" stroke-width="0" text-anchor="middle"><tspan x="0" y="0">Gs Pathway</tspan></text></a><a class="Metabolite ChEBI_CHEBI_3165  " transform="translate(257,422)" color="#00f"  name="Bradykinin"  ><rect class="Icon" transform="matrix(.98438 0 0 .94444 .49219 .47222)" width="63" height="17" fill="#fff" stroke="#00f"/><text class="Text" transform="translate(31.5,11.5)" fill="#00f"  font-size="10px"  text-anchor="middle"><tspan x="0" y="0">Bradykinin</tspan></text></a><g class="GroupGroup" transform="translate(250.67 532.67)" color="grey" ><use class="Icon" width="76" height="56" fill="transparent"  stroke="grey" stroke-dasharray="5,3" stroke-width="0" xlink:href="#a"/><a  class="GeneProduct NTSR2 " transform="translate(8,28)"   name="NTSR2"  ><rect class="Icon" transform="matrix(.98361 0 0 .95238 .4918 .47619)" width="60" height="20" fill="#fff" stroke="#000"/><text class="Text" transform="translate(30,13)"   font-size="10px"  text-anchor="middle"><tspan x="0" y="0">NTSR2</tspan></text></a><a  class="GeneProduct NTSR1 " transform="translate(8,8)"   name="NTSR1"  ><rect class="Icon" transform="matrix(.98361 0 0 .95238 .4918 .47619)" width="60" height="20" fill="#fff" stroke="#000"/><text class="Text" transform="translate(30,13)"   font-size="10px"  text-anchor="middle"><tspan x="0" y="0">NTSR1</tspan></text></a></g><g class="GroupGroup" transform="translate(76.667 417.67)" color="grey" ><use class="Icon" width="76.00000000000001" height="95.99999999999994" fill="transparent"  stroke="grey" stroke-dasharray="5,3" stroke-width="0" xlink:href="#a"/><a  class="GeneProduct TACR1 " transform="translate(8,8)"   name="TACR1"  ><rect class="Icon" transform="matrix(.98361 0 0 .95238 .4918 .47619)" width="60" height="20" fill="#fff" stroke="#000"/><text class="Text" transform="translate(30,13)"   font-size="10px"  text-anchor="middle"><tspan x="0" y="0">TACR1</tspan></text></a><a  class="GeneProduct TAC4 " transform="translate(8 68)"   name="TAC4"  ><rect class="Icon" transform="matrix(.98361 0 0 .95238 .4918 .47619)" width="60" height="20" fill="#fff" stroke="#000"/><text class="Text" transform="translate(30,13)"   font-size="10px"  text-anchor="middle"><tspan x="0" y="0">TAC4</tspan></text></a><a  class="GeneProduct TACR3 " transform="translate(8,48)"   name="TACR3"  ><rect class="Icon" transform="matrix(.98361 0 0 .95238 .4918 .47619)" width="60" height="20" fill="#fff" stroke="#000"/><text class="Text" transform="translate(30,13)"   font-size="10px"  text-anchor="middle"><tspan x="0" y="0">TACR3</tspan></text></a><a  class="GeneProduct TACR2 " transform="translate(8,28)"   name="TACR2"  ><rect class="Icon" transform="matrix(.98361 0 0 .95238 .4918 .47619)" width="60" height="20" fill="#fff" stroke="#000"/><text class="Text" transform="translate(30,13)"   font-size="10px"  text-anchor="middle"><tspan x="0" y="0">TACR2</tspan></text></a></g><g class="GroupGroup" transform="translate(76.667 342)" color="grey" ><use class="Icon" width="76.00000000000001" height="56" fill="transparent"  stroke="grey" stroke-dasharray="5,3" stroke-width="0" xlink:href="#a"/><a  class="GeneProduct CCKAR " transform="translate(8,8)"   name="CCKAR"  ><rect class="Icon" transform="matrix(.98361 0 0 .95238 .4918 .47619)" width="60" height="20" fill="#fff" stroke="#000"/><text class="Text" transform="translate(30,13)"   font-size="10px"  text-anchor="middle"><tspan x="0" y="0">CCKAR</tspan></text></a><a  class="GeneProduct CCKBR " transform="translate(8,28)"   name="CCKBR"  ><rect class="Icon" transform="matrix(.98361 0 0 .95238 .4918 .47619)" width="60" height="20" fill="#fff" stroke="#000"/><text class="Text" transform="translate(30,13)"   font-size="10px"  text-anchor="middle"><tspan x="0" y="0">CCKBR</tspan></text></a></g><g class="GroupGroup" transform="translate(76.667 234.67)" color="grey" ><use class="Icon" width="76.00000000000001" height="76" fill="transparent"  stroke="grey" stroke-dasharray="5,3" stroke-width="0" xlink:href="#a"/><a  class="GeneProduct GHSR " transform="translate(8,48)"   name="GHSR"  ><rect class="Icon" transform="matrix(.98361 0 0 .95238 .4918 .47619)" width="60" height="20" fill="#fff" stroke="#000"/><text class="Text" transform="translate(30,13)"   font-size="10px"  text-anchor="middle"><tspan x="0" y="0">GHSR</tspan></text></a><a  class="GeneProduct GNRHR " transform="translate(8,8)"   name="GNRHR"  ><rect class="Icon" transform="matrix(.98361 0 0 .95238 .4918 .47619)" width="60" height="20" fill="#fff" stroke="#000"/><text class="Text" transform="translate(30,13)"   font-size="10px"  text-anchor="middle"><tspan x="0" y="0">GNRHR</tspan></text></a><a  class="GeneProduct TRHR " transform="translate(8,28)"   name="TRHR"  ><rect class="Icon" transform="matrix(.98361 0 0 .95238 .4918 .47619)" width="60" height="20" fill="#fff" stroke="#000"/><text class="Text" transform="translate(30,13)"   font-size="10px"  text-anchor="middle"><tspan x="0" y="0">TRHR</tspan></text></a></g><g class="GroupGroup" transform="translate(76.667 105.33)" color="grey" ><use class="Icon" width="76.00000000000001" height="96" fill="transparent"  stroke="grey" stroke-dasharray="5,3" stroke-width="0" xlink:href="#a"/><a  class="GeneProduct AGTR2 " transform="translate(8,68)"   name="AGTR2"  ><rect class="Icon" transform="matrix(.98361 0 0 .95238 .4918 .47619)" width="60" height="20" fill="#fff" stroke="#000"/><text class="Text" transform="translate(30,13)"   font-size="10px"  text-anchor="middle"><tspan x="0" y="0">AGTR2</tspan></text></a><a  class="GeneProduct AGTR1 " transform="translate(8,8)"   name="AGTR1"  ><rect class="Icon" transform="matrix(.98361 0 0 .95238 .4918 .47619)" width="60" height="20" fill="#fff" stroke="#000"/><text class="Text" transform="translate(30,13)"   font-size="10px"  text-anchor="middle"><tspan x="0" y="0">AGTR1</tspan></text></a><a  class="GeneProduct ATP8A1 " transform="translate(8,28)"   name="ATP8A1"  ><rect class="Icon" transform="matrix(.98361 0 0 .95238 .4918 .47619)" width="60" height="20" fill="#fff" stroke="#000"/><text class="Text" transform="translate(30,13)"   font-size="10px"  text-anchor="middle"><tspan x="0" y="0">ATP8A1</tspan></text></a><a  class="GeneProduct AGTR1 " transform="translate(8,48)"   name="AGTR1"  ><rect class="Icon" transform="matrix(.98361 0 0 .95238 .4918 .47619)" width="60" height="20" fill="#fff" stroke="#000"/><text class="Text" transform="translate(30,13)"   font-size="10px"  text-anchor="middle"><tspan x="0" y="0">AGTR1</tspan></text></a></g><g class="GroupGroup" transform="translate(251.67 254.33)" color="grey" ><use class="Icon" width="76" height="75.99999999999994" fill="transparent"  stroke="grey" stroke-dasharray="5,3" stroke-width="0" xlink:href="#a"/><a  class="GeneProduct NMBR " transform="translate(8,8)"   name="NMBR"  ><rect class="Icon" transform="matrix(.98361 0 0 .95238 .4918 .47619)" width="60" height="20" fill="#fff" stroke="#000"/><text class="Text" transform="translate(30,13)"   font-size="10px"  text-anchor="middle"><tspan x="0" y="0">NMBR</tspan></text></a><a  class="GeneProduct GRPR " transform="translate(8 28)"   name="GRPR"  ><rect class="Icon" transform="matrix(.98361 0 0 .95238 .4918 .47619)" width="60" height="20" fill="#fff" stroke="#000"/><text class="Text" transform="translate(30,13)"   font-size="10px"  text-anchor="middle"><tspan x="0" y="0">GRPR</tspan></text></a><a  class="GeneProduct BRS3 " transform="translate(8 48)"   name="BRS3"  ><rect class="Icon" transform="matrix(.98361 0 0 .95238 .4918 .47619)" width="60" height="20" fill="#fff" stroke="#000"/><text class="Text" transform="translate(30,13)"   font-size="10px"  text-anchor="middle"><tspan x="0" y="0">BRS3</tspan></text></a></g><g class="GroupGroup" transform="translate(250.67 349.67)" color="grey" ><use class="Icon" width="76" height="56" fill="transparent"  stroke="grey" stroke-dasharray="5,3" stroke-width="0" xlink:href="#a"/><a  class="GeneProduct EDNRA " transform="translate(8,8)"   name="EDNRA"  ><rect class="Icon" transform="matrix(.98361 0 0 .95238 .4918 .47619)" width="60" height="20" fill="#fff" stroke="#000"/><text class="Text" transform="translate(30,13)"   font-size="10px"  text-anchor="middle"><tspan x="0" y="0">EDNRA</tspan></text></a><a  class="GeneProduct EDNRB " transform="translate(8,28)"   name="EDNRB"  ><rect class="Icon" transform="matrix(.98361 0 0 .95238 .4918 .47619)" width="60" height="20" fill="#fff" stroke="#000"/><text class="Text" transform="translate(30,13)"   font-size="10px"  text-anchor="middle"><tspan x="0" y="0">EDNRB</tspan></text></a></g><g class="GroupGroup" transform="translate(416.33 134.33)" color="grey" ><use class="Icon" width="76" height="76.00000000000003" fill="transparent"  stroke="grey" stroke-dasharray="5,3" stroke-width="0" xlink:href="#a"/><a  class="GeneProduct LHCGR " transform="translate(8 28)"   name="LHCGR"  ><rect class="Icon" transform="matrix(.98361 0 0 .95238 .4918 .47619)" width="60" height="20" fill="#fff" stroke="#000"/><text class="Text" transform="translate(30,13)"   font-size="10px"  text-anchor="middle"><tspan x="0" y="0">LHCGR</tspan></text></a><a  class="GeneProduct FSHR " transform="translate(8,8)"   name="FSHR"  ><rect class="Icon" transform="matrix(.98361 0 0 .95238 .4918 .47619)" width="60" height="20" fill="#fff" stroke="#000"/><text class="Text" transform="translate(30,13)"   font-size="10px"  text-anchor="middle"><tspan x="0" y="0">FSHR</tspan></text></a><a  class="GeneProduct TSHR " transform="translate(8 48)"   name="TSHR"  ><rect class="Icon" transform="matrix(.98361 0 0 .95238 .4918 .47619)" width="60" height="20" fill="#fff" stroke="#000"/><text class="Text" transform="translate(30,13)"   font-size="10px"  text-anchor="middle"><tspan x="0" y="0">TSHR</tspan></text></a></g><g class="GroupGroup" transform="translate(416.33 243)" color="grey" ><use class="Icon" width="76" height="116" fill="transparent"  stroke="grey" stroke-dasharray="5,3" stroke-width="0" xlink:href="#a"/><a  class="GeneProduct MC3R " transform="translate(8,48)"   name="MC3R"  ><rect class="Icon" transform="matrix(.98361 0 0 .95238 .4918 .47619)" width="60" height="20" fill="#fff" stroke="#000"/><text class="Text" transform="translate(30,13)"   font-size="10px"  text-anchor="middle"><tspan x="0" y="0">MC3R</tspan></text></a><a  class="GeneProduct MC4R " transform="translate(8,68)"   name="MC4R"  ><rect class="Icon" transform="matrix(.98361 0 0 .95238 .4918 .47619)" width="60" height="20" fill="#fff" stroke="#000"/><text class="Text" transform="translate(30,13)"   font-size="10px"  text-anchor="middle"><tspan x="0" y="0">MC4R</tspan></text></a><a  class="GeneProduct MC2R " transform="translate(8,8)"   name="MC2R"  ><rect class="Icon" transform="matrix(.98361 0 0 .95238 .4918 .47619)" width="60" height="20" fill="#fff" stroke="#000"/><text class="Text" transform="translate(30,13)"   font-size="10px"  text-anchor="middle"><tspan x="0" y="0">MC2R</tspan></text></a><a  class="GeneProduct MC5R " transform="translate(8,88)"   name="MC5R"  ><rect class="Icon" transform="matrix(.98361 0 0 .95238 .4918 .47619)" width="60" height="20" fill="#fff" stroke="#000"/><text class="Text" transform="translate(30,13)"   font-size="10px"  text-anchor="middle"><tspan x="0" y="0">MC5R</tspan></text></a><a  class="GeneProduct MC1R " transform="translate(8,28)"   name="MC1R"  ><rect class="Icon" transform="matrix(.98361 0 0 .95238 .4918 .47619)" width="60" height="20" fill="#fff" stroke="#000"/><text class="Text" transform="translate(30,13)"   font-size="10px"  text-anchor="middle"><tspan x="0" y="0">MC1R</tspan></text></a></g><g class="GroupGroup" transform="translate(415.33 380.33)" color="grey" ><use class="Icon" width="76" height="76" fill="transparent"  stroke="grey" stroke-dasharray="5,3" stroke-width="0" xlink:href="#a"/><a  class="GeneProduct GALR3 " transform="translate(8,48)"   name="GALR3"  ><rect class="Icon" transform="matrix(.98361 0 0 .95238 .4918 .47619)" width="60" height="20" fill="#fff" stroke="#000"/><text class="Text" transform="translate(30,13)"   font-size="10px"  text-anchor="middle"><tspan x="0" y="0">GALR3</tspan></text></a><a  class="GeneProduct GALR1 " transform="translate(8,8)"   name="GALR1"  ><rect class="Icon" transform="matrix(.98361 0 0 .95238 .4918 .47619)" width="60" height="20" fill="#fff" stroke="#000"/><text class="Text" transform="translate(30,13)"   font-size="10px"  text-anchor="middle"><tspan x="0" y="0">GALR1</tspan></text></a><a  class="GeneProduct GALR2 " transform="translate(8,28)"   name="GALR2"  ><rect class="Icon" transform="matrix(.98361 0 0 .95238 .4918 .47619)" width="60" height="20" fill="#fff" stroke="#000"/><text class="Text" transform="translate(30,13)"   font-size="10px"  text-anchor="middle"><tspan x="0" y="0">GALR2</tspan></text></a></g><g class="GroupGroup" transform="translate(415.33 482.67)" color="grey" ><use class="Icon" width="76" height="95.99999999999989" fill="transparent"  stroke="grey" stroke-dasharray="5,3" stroke-width="0" xlink:href="#a"/><a  class="GeneProduct OPRM1 " transform="translate(8,48)"   name="OPRM1"  ><rect class="Icon" transform="matrix(.98361 0 0 .95238 .4918 .47619)" width="60" height="20" fill="#fff" stroke="#000"/><text class="Text" transform="translate(30,13)"   font-size="10px"  text-anchor="middle"><tspan x="0" y="0">OPRM1</tspan></text></a><a  class="GeneProduct OPRK1 " transform="translate(8,28)"   name="OPRK1"  ><rect class="Icon" transform="matrix(.98361 0 0 .95238 .4918 .47619)" width="60" height="20" fill="#fff" stroke="#000"/><text class="Text" transform="translate(30,13)"   font-size="10px"  text-anchor="middle"><tspan x="0" y="0">OPRK1</tspan></text></a><a  class="GeneProduct OPRD1 " transform="translate(8,8)"   name="OPRD1"  ><rect class="Icon" transform="matrix(.98361 0 0 .95238 .4918 .47619)" width="60" height="20" fill="#fff" stroke="#000"/><text class="Text" transform="translate(30,13)"   font-size="10px"  text-anchor="middle"><tspan x="0" y="0">OPRD1</tspan></text></a><a  class="GeneProduct OPRL1 " transform="translate(8 68)"   name="OPRL1"  ><rect class="Icon" transform="matrix(.98361 0 0 .95238 .4918 .47619)" width="60" height="20" fill="#fff" stroke="#000"/><text class="Text" transform="translate(30,13)"   font-size="10px"  text-anchor="middle"><tspan x="0" y="0">OPRL1</tspan></text></a></g><g class="GroupGroup" transform="translate(559 468.67)" color="grey" ><use class="Icon" width="76" height="115.99999999999994" fill="transparent"  stroke="grey" stroke-dasharray="5,3" stroke-width="0" xlink:href="#a"/><a  class="GeneProduct NPY2R " transform="translate(8 28)"   name="NPY2R"  ><rect class="Icon" transform="matrix(.98361 0 0 .95238 .4918 .47619)" width="60" height="20" fill="#fff" stroke="#000"/><text class="Text" transform="translate(30,13)"   font-size="10px"  text-anchor="middle"><tspan x="0" y="0">NPY2R</tspan></text></a><a  class="GeneProduct NPY5R " transform="translate(8 68)"   name="NPY5R"  ><rect class="Icon" transform="matrix(.98361 0 0 .95238 .4918 .47619)" width="60" height="20" fill="#fff" stroke="#000"/><text class="Text" transform="translate(30,13)"   font-size="10px"  text-anchor="middle"><tspan x="0" y="0">NPY5R</tspan></text></a><a  class="GeneProduct NPY1R " transform="translate(8,8)"   name="NPY1R"  ><rect class="Icon" transform="matrix(.98361 0 0 .95238 .4918 .47619)" width="60" height="20" fill="#fff" stroke="#000"/><text class="Text" transform="translate(30,13)"   font-size="10px"  text-anchor="middle"><tspan x="0" y="0">NPY1R</tspan></text></a><a  class="GeneProduct NPY4R " transform="translate(8 48)"   name="PPYR1"  ><rect class="Icon" transform="matrix(.98361 0 0 .95238 .4918 .47619)" width="60" height="20" fill="#fff" stroke="#000"/><text class="Text" transform="translate(30,13)"   font-size="10px"  text-anchor="middle"><tspan x="0" y="0">PPYR1</tspan></text></a><a  class="GeneProduct NPY6R " transform="translate(8 88)"   name="NPY6R"  ><rect class="Icon" transform="matrix(.98361 0 0 .95238 .4918 .47619)" width="60" height="20" fill="#fff" stroke="#000"/><text class="Text" transform="translate(30,13)"   font-size="10px"  text-anchor="middle"><tspan x="0" y="0">NPY6R</tspan></text></a></g><g class="GroupGroup" transform="translate(650 326.67)" color="grey" ><use class="Icon" width="136" height="96" fill="transparent"  stroke="grey" stroke-dasharray="5,3" stroke-width="0" xlink:href="#a"/><a  class="GeneProduct CXCR1 " transform="translate(8,48)"   name="IL8RA"  ><rect class="Icon" transform="matrix(.98361 0 0 .95238 .4918 .47619)" width="60" height="20" fill="#fff" stroke="#000"/><text class="Text" transform="translate(30,13)"   font-size="10px"  text-anchor="middle"><tspan x="0" y="0">IL8RA</tspan></text></a><a  class="GeneProduct FPR1 " transform="translate(68,8)"   name="FPR1"  ><rect class="Icon" transform="matrix(.98361 0 0 .95238 .4918 .47619)" width="60" height="20" fill="#fff" stroke="#000"/><text class="Text" transform="translate(30,13)"   font-size="10px"  text-anchor="middle"><tspan x="0" y="0">FPR1</tspan></text></a><a  class="GeneProduct FPR2 " transform="translate(68,28)"   name="FPRL1"  ><rect class="Icon" transform="matrix(.98361 0 0 .95238 .4918 .47619)" width="60" height="20" fill="#fff" stroke="#000"/><text class="Text" transform="translate(30,13)"   font-size="10px"  text-anchor="middle"><tspan x="0" y="0">FPRL1</tspan></text></a><a  class="GeneProduct FPR3 " transform="translate(68,48)"   name="FPRL2"  ><rect class="Icon" transform="matrix(.98361 0 0 .95238 .4918 .47619)" width="60" height="20" fill="#fff" stroke="#000"/><text class="Text" transform="translate(30,13)"   font-size="10px"  text-anchor="middle"><tspan x="0" y="0">FPRL2</tspan></text></a><a  class="GeneProduct CXCR2 " transform="translate(8,68)"   name="IL8RB"  ><rect class="Icon" transform="matrix(.98361 0 0 .95238 .4918 .47619)" width="60" height="20" fill="#fff" stroke="#000"/><text class="Text" transform="translate(30,13)"   font-size="10px"  text-anchor="middle"><tspan x="0" y="0">IL8RB</tspan></text></a><a  class="GeneProduct C3AR1 " transform="translate(8,8)"   name="C3AR1"  ><rect class="Icon" transform="matrix(.98361 0 0 .95238 .4918 .47619)" width="60" height="20" fill="#fff" stroke="#000"/><text class="Text" transform="translate(30,13)"   font-size="10px"  text-anchor="middle"><tspan x="0" y="0">C3AR1</tspan></text></a><a  class="GeneProduct C5AR1 " transform="translate(8,28)"   name="C5R1"  ><rect class="Icon" transform="matrix(.98361 0 0 .95238 .4918 .47619)" width="60" height="20" fill="#fff" stroke="#000"/><text class="Text" transform="translate(30,13)"   font-size="10px"  text-anchor="middle"><tspan x="0" y="0">C5R1</tspan></text></a></g><g class="GroupGroup" transform="translate(559.33 310.33)" color="grey" ><use class="Icon" width="76" height="116" fill="transparent"  stroke="grey" stroke-dasharray="5,3" stroke-width="0" xlink:href="#a"/><a  class="GeneProduct SSTR2 " transform="translate(8,28)"   name="SSTR2"  ><rect class="Icon" transform="matrix(.98361 0 0 .95238 .4918 .47619)" width="60" height="20" fill="#fff" stroke="#000"/><text class="Text" transform="translate(30,13)"   font-size="10px"  text-anchor="middle"><tspan x="0" y="0">SSTR2</tspan></text></a><a  class="GeneProduct SSTR4 " transform="translate(8,68)"   name="SSTR4"  ><rect class="Icon" transform="matrix(.98361 0 0 .95238 .4918 .47619)" width="60" height="20" fill="#fff" stroke="#000"/><text class="Text" transform="translate(30,13)"   font-size="10px"  text-anchor="middle"><tspan x="0" y="0">SSTR4</tspan></text></a><a  class="GeneProduct SSTR3 " transform="translate(8,48)"   name="SSTR3"  ><rect class="Icon" transform="matrix(.98361 0 0 .95238 .4918 .47619)" width="60" height="20" fill="#fff" stroke="#000"/><text class="Text" transform="translate(30,13)"   font-size="10px"  text-anchor="middle"><tspan x="0" y="0">SSTR3</tspan></text></a><a  class="GeneProduct SSTR5 " transform="translate(8,88)"   name="SSTR5"  ><rect class="Icon" transform="matrix(.98361 0 0 .95238 .4918 .47619)" width="60" height="20" fill="#fff" stroke="#000"/><text class="Text" transform="translate(30,13)"   font-size="10px"  text-anchor="middle"><tspan x="0" y="0">SSTR5</tspan></text></a><a  class="GeneProduct SSTR1 " transform="translate(8,8)"   name="SSTR1"  ><rect class="Icon" transform="matrix(.98361 0 0 .95238 .4918 .47619)" width="60" height="20" fill="#fff" stroke="#000"/><text class="Text" transform="translate(30,13)"   font-size="10px"  text-anchor="middle"><tspan x="0" y="0">SSTR1</tspan></text></a></g><g class="GroupGroup" transform="translate(558 138.67)" color="grey" ><use class="Icon" width="196" height="135.99999999999994" fill="transparent"  stroke="grey" stroke-dasharray="5,3" stroke-width="0" xlink:href="#a"/><a  class="GeneProduct CXCR3 " transform="translate(128,8)"   name="CXCR3"  ><rect class="Icon" transform="matrix(.98361 0 0 .95238 .4918 .47619)" width="60" height="20" fill="#fff" stroke="#000"/><text class="Text" transform="translate(30,13)"   font-size="10px"  text-anchor="middle"><tspan x="0" y="0">CXCR3</tspan></text></a><a  class="GeneProduct CCR5 " transform="translate(8 88)"   name="CCR5"  ><rect class="Icon" transform="matrix(.98361 0 0 .95238 .4918 .47619)" width="60" height="20" fill="#fff" stroke="#000"/><text class="Text" transform="translate(30,13)"   font-size="10px"  text-anchor="middle"><tspan x="0" y="0">CCR5</tspan></text></a><a  class="GeneProduct CXCR5 " transform="translate(128 48)"   name="BLR1"  ><rect class="Icon" transform="matrix(.98361 0 0 .95238 .4918 .47619)" width="60" height="20" fill="#fff" stroke="#000"/><text class="Text" transform="translate(30,13)"   font-size="10px"  text-anchor="middle"><tspan x="0" y="0">BLR1</tspan></text></a><a  class="GeneProduct CXCR4 " transform="translate(128 28)"   name="CXCR4"  ><rect class="Icon" transform="matrix(.98361 0 0 .95238 .4918 .47619)" width="60" height="20" fill="#fff" stroke="#000"/><text class="Text" transform="translate(30,13)"   font-size="10px"  text-anchor="middle"><tspan x="0" y="0">CXCR4</tspan></text></a><a  class="GeneProduct CCR7 " transform="translate(68,8)"   name="CCR7"  ><rect class="Icon" transform="matrix(.98361 0 0 .95238 .4918 .47619)" width="60" height="20" fill="#fff" stroke="#000"/><text class="Text" transform="translate(30,13)"   font-size="10px"  text-anchor="middle"><tspan x="0" y="0">CCR7</tspan></text></a><a  class="GeneProduct CX3CR1 " transform="translate(128 88)"   name="CX3CR1"  ><rect class="Icon" transform="matrix(.98361 0 0 .95238 .4918 .47619)" width="60" height="20" fill="#fff" stroke="#000"/><text class="Text" transform="translate(30,13)"   font-size="10px"  text-anchor="middle"><tspan x="0" y="0">CX3CR1</tspan></text></a><a  class="GeneProduct CCR8 " transform="translate(68 28)"   name="CCR8"  ><rect class="Icon" transform="matrix(.98361 0 0 .95238 .4918 .47619)" width="60" height="20" fill="#fff" stroke="#000"/><text class="Text" transform="translate(30,13)"   font-size="10px"  text-anchor="middle"><tspan x="0" y="0">CCR8</tspan></text></a><a  class="GeneProduct CCR9 " transform="translate(68 48)"   name="CCR-9"  ><rect class="Icon" transform="matrix(.98361 0 0 .95238 .4918 .47619)" width="60" height="20" fill="#fff" stroke="#000"/><text class="Text" transform="translate(30,13)"   font-size="10px"  text-anchor="middle"><tspan x="0" y="0">CCR-9</tspan></text></a><a  class="GeneProduct CXCR6 " transform="translate(68 108)"   name="CXCR6"  ><rect class="Icon" transform="matrix(.98361 0 0 .95238 .4918 .47619)" width="60" height="20" fill="#fff" stroke="#000"/><text class="Text" transform="translate(30,13)"   font-size="10px"  text-anchor="middle"><tspan x="0" y="0">CXCR6</tspan></text></a><a  class="GeneProduct CCR2 " transform="translate(8 28)"   name="CCR2"  ><rect class="Icon" transform="matrix(.98361 0 0 .95238 .4918 .47619)" width="60" height="20" fill="#fff" stroke="#000"/><text class="Text" transform="translate(30,13)"   font-size="10px"  text-anchor="middle"><tspan x="0" y="0">CCR2</tspan></text></a><a  class="GeneProduct CCR1 " transform="translate(8,8)"   name="CCR1"  ><rect class="Icon" transform="matrix(.98361 0 0 .95238 .4918 .47619)" width="60" height="20" fill="#fff" stroke="#000"/><text class="Text" transform="translate(30,13)"   font-size="10px"  text-anchor="middle"><tspan x="0" y="0">CCR1</tspan></text></a><a  class="GeneProduct CCR10 " transform="translate(68 68)"   name="CCR10"  ><rect class="Icon" transform="matrix(.98361 0 0 .95238 .4918 .47619)" width="60" height="20" fill="#fff" stroke="#000"/><text class="Text" transform="translate(30,13)"   font-size="10px"  text-anchor="middle"><tspan x="0" y="0">CCR10</tspan></text></a><a  class="GeneProduct CCR3 " transform="translate(8 48)"   name="CCR3"  ><rect class="Icon" transform="matrix(.98361 0 0 .95238 .4918 .47619)" width="60" height="20" fill="#fff" stroke="#000"/><text class="Text" transform="translate(30,13)"   font-size="10px"  text-anchor="middle"><tspan x="0" y="0">CCR3</tspan></text></a><a  class="GeneProduct ACKR1 " transform="translate(128 68)"   name="FY"  ><rect class="Icon" transform="matrix(.98361 0 0 .95238 .4918 .47619)" width="60" height="20" fill="#fff" stroke="#000"/><text class="Text" transform="translate(30,13)"   font-size="10px"  text-anchor="middle"><tspan x="0" y="0">FY</tspan></text></a><a  class="GeneProduct CCR1 " transform="translate(68 88)"   name="CCR1"  ><rect class="Icon" transform="matrix(.98361 0 0 .95238 .4918 .47619)" width="60" height="20" fill="#fff" stroke="#000"/><text class="Text" transform="translate(30,13)"   font-size="10px"  text-anchor="middle"><tspan x="0" y="0">CCR1</tspan></text></a><a  class="GeneProduct CCR4 " transform="translate(8 68)"   name="CCR4"  ><rect class="Icon" transform="matrix(.98361 0 0 .95238 .4918 .47619)" width="60" height="20" fill="#fff" stroke="#000"/><text class="Text" transform="translate(30,13)"   font-size="10px"  text-anchor="middle"><tspan x="0" y="0">CCR4</tspan></text></a><a  class="GeneProduct CCR6 " transform="translate(8 108)"   name="CCR6"  ><rect class="Icon" transform="matrix(.98361 0 0 .95238 .4918 .47619)" width="60" height="20" fill="#fff" stroke="#000"/><text class="Text" transform="translate(30,13)"   font-size="10px"  text-anchor="middle"><tspan x="0" y="0">CCR6</tspan></text></a></g><g class="GroupGroup" transform="translate(250.67 456.67)" color="grey" ><use class="Icon" width="76" height="56.00000000000006" fill="transparent"  stroke="grey" stroke-dasharray="5,3" stroke-width="0" xlink:href="#a"/><a  class="GeneProduct BDKRB2 " transform="translate(8,8)"   name="BDKRB2"  ><rect class="Icon" transform="matrix(.98361 0 0 .95238 .4918 .47619)" width="60" height="20" fill="#fff" stroke="#000"/><text class="Text" transform="translate(30,13)"   font-size="10px"  text-anchor="middle"><tspan x="0" y="0">BDKRB2</tspan></text></a><a  class="GeneProduct BDKRB1 " transform="translate(8 28)"   name="BDKRB1"  ><rect class="Icon" transform="matrix(.98361 0 0 .95238 .4918 .47619)" width="60" height="20" fill="#fff" stroke="#000"/><text class="Text" transform="translate(30,13)"   font-size="10px"  text-anchor="middle"><tspan x="0" y="0">BDKRB1</tspan></text></a></g><g class="GroupGroup" transform="translate(251.67 144)" color="grey" ><use class="Icon" width="76" height="96" fill="transparent"  stroke="grey" stroke-dasharray="5,3" stroke-width="0" xlink:href="#a"/><a  class="GeneProduct AVPR2 " transform="translate(8,48)"   name="AVPR2"  ><rect class="Icon" transform="matrix(.98361 0 0 .95238 .4918 .47619)" width="60" height="20" fill="#fff" stroke="#000"/><text class="Text" transform="translate(30,13)"   font-size="10px"  text-anchor="middle"><tspan x="0" y="0">AVPR2</tspan></text></a><a  class="GeneProduct AVPR1A " transform="translate(8,8)"   name="AVPR1A"  ><rect class="Icon" transform="matrix(.98361 0 0 .95238 .4918 .47619)" width="60" height="20" fill="#fff" stroke="#000"/><text class="Text" transform="translate(30,13)"   font-size="10px"  text-anchor="middle"><tspan x="0" y="0">AVPR1A</tspan></text></a><a  class="GeneProduct AVPR1B " transform="translate(8,28)"   name="AVPR1B"  ><rect class="Icon" transform="matrix(.98361 0 0 .95238 .4918 .47619)" width="60" height="20" fill="#fff" stroke="#000"/><text class="Text" transform="translate(30,13)"   font-size="10px"  text-anchor="middle"><tspan x="0" y="0">AVPR1B</tspan></text></a><a  class="GeneProduct OXTR " transform="translate(8,68)"   name="OXTR"  ><rect class="Icon" transform="matrix(.98361 0 0 .95238 .4918 .47619)" width="60" height="20" fill="#fff" stroke="#000"/><text class="Text" transform="translate(30,13)"   font-size="10px"  text-anchor="middle"><tspan x="0" y="0">OXTR</tspan></text></a></g><g class="GroupGroup" transform="translate(78.667 532.67)" color="grey" ><use class="Icon" width="76" height="56" fill="transparent"  stroke="grey" stroke-dasharray="5,3" stroke-width="0" xlink:href="#a"/><a  class="GeneProduct HCRTR1 " transform="translate(8,8)"   name="HCRTR1"  ><rect class="Icon" transform="matrix(.98361 0 0 .95238 .4918 .47619)" width="60" height="20" fill="#fff" stroke="#000"/><text class="Text" transform="translate(30,13)"   font-size="10px"  text-anchor="middle"><tspan x="0" y="0">HCRTR1</tspan></text></a><a  class="GeneProduct HCRTR2 " transform="translate(8,28)"   name="HCRTR2"  ><rect class="Icon" transform="matrix(.98361 0 0 .95238 .4918 .47619)" width="60" height="20" fill="#fff" stroke="#000"/><text class="Text" transform="translate(30,13)"   font-size="10px"  text-anchor="middle"><tspan x="0" y="0">HCRTR2</tspan></text></a></g><g class="Label" transform="translate(52,524)" color="#000"  name="Orexin Receptors"><use class="Icon" width="126" height="21.333333333333258" fill="transparent"  stroke="#000" stroke-width="0" xlink:href="#a"/><text class="Text" transform="translate(63 14.667)"   font-size="12px" font-weight="bold"  text-anchor="middle"><tspan x="0" y="0">Orexin Receptors</tspan></text></g><g id="ak" class="DirectedInteraction" color="#0f0" ><g color="#0f0" fill="transparent"  filter="url(#b)" stroke="#000" stroke-dasharray="84.61666666666669, 5.8"><path class="EdgeBody" d="m146.67 550.67h26.083v64.333"   marker-end="url(#c)" /></g></g><g id="al" class="DirectedInteraction" color="#0f0" ><g color="#0f0" fill="transparent"  filter="url(#b)" stroke="#000" stroke-dasharray="64.61666666666669, 5.8"><path class="EdgeBody" d="m146.67 570.67h26.083v44.333"   marker-end="url(#c)" /></g></g><text class="Text" transform="translate(5,36)" dominant-baseline="central" fill="black"  font-size="12px" font-weight="bold" overflow="visible" ><tspan x="0" y="-18">Name: Peptide GPCRs</tspan> <tspan x="0" y="0">License: CC BY 2.0</tspan> <tspan x="0" y="18">Organism: Homo sapiens</tspan></text></g></svg>
