<?xml version="1.0" encoding="UTF-8"?>
<!--
  WikiPathways page: https://www.wikipathways.org/index.php/Pathway:WP2583
  URL for this compressed file: https://github.com/eweitz/cachome/tree/main/data/wikipathways/WP2583.svg
  Source code for compression: https://github.com/eweitz/cachome/tree/main/src/wikipathways.py
-->
<svg class="Diagram" width="800" height="600" color="black" baseProfile="full" prefix="schema:http://schema.org/" preserveAspectRatio="xMidYMid" version="1.1" viewBox="0 0 1094.4 1023.7" vocab="http://vocabularies.wikipathways.org/wp#" xmlns="http://www.w3.org/2000/svg" xmlns:xlink="http://www.w3.org/1999/xlink"><style>svg {font-family: 'Liberation Sans', Arial, sans-serif; }</style><defs><filter id="s" x="-50%" y="-50%" width="200%" height="200%"><feComposite in="SourceGraphic" in2="SourceGraphic" result="doubleDark"/><feMorphology in="doubleDark" operator="dilate" radius="0.16666666666666666" result="in2Double"/><feMorphology in="SourceGraphic" operator="dilate" radius="3" result="inDouble"/><feComposite in="inDouble" in2="in2Double" operator="out" result="doubleResult"/></filter><filter id="k" x="0" y="0" width="1094.4" height="1023.7" filterUnits="userSpaceOnUse"><feColorMatrix in="SourceGraphic" values="-1   0   0 0 0                   0  -1   0 0 0                   0   0  -1 0 0                   0   0   0 1 0"/></filter><filter id="n" x="0" y="0" width="1094.4" height="1023.7" filterUnits="userSpaceOnUse"><feColorMatrix in="SourceGraphic" values="-1   0   0 0 1                   0  -1   0 0 0                   0   0  -1 0 0.2                   0   0   0 1 0"/></filter><filter id="w" x="0" y="0" width="1094.4" height="1023.7" filterUnits="userSpaceOnUse"><feColorMatrix in="SourceGraphic" values="-1   0   0 0 0                   0  -1   0 0 0                   0   0  -1 0 1                   0   0   0 1 0"/></filter><filter id="t" x="0" y="0" width="1094.4" height="1023.7" filterUnits="userSpaceOnUse"><feColorMatrix in="SourceGraphic" values="-1   0   0 0 1                   0  -1   0 0 0.6                   0   0  -1 0 0.2                   0   0   0 1 0"/></filter><filter id="p" x="0" y="0" width="1094.4" height="1023.7" filterUnits="userSpaceOnUse"><feColorMatrix in="SourceGraphic" values="-1   0   0 0 0.2                   0  -1   0 0 0.2                   0   0  -1 0 1                   0   0   0 1 0"/></filter><filter id="q" x="0" y="0" width="1094.4" height="1023.7" filterUnits="userSpaceOnUse"><feColorMatrix in="SourceGraphic" values="-1   0   0 0 0                   0  -1   0 0 0.2                   0   0  -1 0 1                   0   0   0 1 0"/></filter><filter id="c" x="0" y="0" width="1094.4" height="1023.7" filterUnits="userSpaceOnUse"><feColorMatrix in="SourceGraphic" values="-1   0   0 0 0.8                   0  -1   0 0 0                   0   0  -1 0 0.8                   0   0   0 1 0"/></filter><filter id="d" x="0" y="0" width="1094.4" height="1023.7" filterUnits="userSpaceOnUse"><feColorMatrix in="SourceGraphic" values="-1   0   0 0 0.2                   0  -1   0 0 0.8                   0   0  -1 0 0                   0   0   0 1 0"/></filter><filter id="u" x="0" y="0" width="1094.4" height="1023.7" filterUnits="userSpaceOnUse"><feColorMatrix in="SourceGraphic" values="-1   0   0 0 0                   0  -1   0 0 0.8                   0   0  -1 0 0.2                   0   0   0 1 0"/></filter><filter id="f" x="0" y="0" width="1094.4" height="1023.7" filterUnits="userSpaceOnUse"><feColorMatrix in="SourceGraphic" values="-1   0   0 0 0                   0  -1   0 0 0.8                   0   0  -1 0 0                   0   0   0 1 0"/></filter><filter id="j" x="0" y="0" width="1094.4" height="1023.7" filterUnits="userSpaceOnUse"><feColorMatrix in="SourceGraphic" values="-1   0   0 0 1                   0  -1   0 0 0.6                   0   0  -1 0 0                   0   0   0 1 0"/></filter><filter id="v" x="0" y="0" width="1094.4" height="1023.7" filterUnits="userSpaceOnUse"><feColorMatrix in="SourceGraphic" values="-1   0   0 0 0                   0  -1   0 0 0.4                   0   0  -1 0 1                   0   0   0 1 0"/></filter><filter id="o" x="0" y="0" width="1094.4" height="1023.7" filterUnits="userSpaceOnUse"><feColorMatrix in="SourceGraphic" values="-1   0   0 0 1                   0  -1   0 0 0                   0   0  -1 0 0                   0   0   0 1 0"/></filter><marker id="a" stroke-dasharray="99999" markerHeight="12" markerUnits="userSpaceOnUse" markerWidth="12" orient="auto" preserveAspectRatio="none" refX="12" refY="6" viewBox="0 0 12 12"><path transform="rotate(180 6 6)" d="M12 11L0 6l12-5z" fill="currentColor" stroke-width="0"/></marker><marker id="g" stroke-dasharray="99999" markerHeight="12" markerUnits="userSpaceOnUse" markerWidth="12" orient="auto" preserveAspectRatio="none" refX="12" refY="6" viewBox="0 0 12 12"><path transform="rotate(180 6 6)" d="M12 11L0 6l12-5z" fill="currentColor" stroke-width="0"/></marker><marker id="r" stroke-dasharray="99999" markerHeight="12" markerUnits="userSpaceOnUse" markerWidth="12" orient="auto" preserveAspectRatio="none" refX="12" refY="6" viewBox="0 0 12 12"><g transform="rotate(180 6 6)" fill="none"><path d="m12 6"/><path d="M0 6l11 5V1z" stroke="#000"/></g></marker><marker id="i" stroke-dasharray="99999" markerHeight="24" markerUnits="userSpaceOnUse" markerWidth="20" orient="auto" preserveAspectRatio="none" refX="20" refY="12" viewBox="0 0 20 24"><g transform="rotate(180 10 12)" fill="none" stroke="#000"><path d="M15 12V5M15.5 5H8M0 5l8-4v8z"/></g></marker><marker id="h" stroke-dasharray="99999" markerHeight="20" markerUnits="userSpaceOnUse" markerWidth="10" orient="auto" preserveAspectRatio="none" refX="10" refY="10" viewBox="0 0 10 20"><path d="m3 0v20" fill="currentColor" stroke="currentColor"/></marker><symbol id="e" overflow="visible" preserveAspectRatio="none" viewBox="0 0 50 50"><ellipse cx="25" cy="25" rx="25" ry="25" stroke="currentColor" vector-effect="non-scaling-stroke"/></symbol><symbol id="m" overflow="visible" preserveAspectRatio="none" viewBox="0 8 100 86"><path transform="scale(1 .85)" d="M1.42 50.996l21.073-42.14h56.191l21.067 42.14-21.067 42.145H22.493L1.42 50.996z" stroke="currentColor" vector-effect="non-scaling-stroke"/></symbol><symbol id="l" overflow="visible" preserveAspectRatio="none" viewBox="0 0 100 100"><path d="M0 25L25 0h50l25 25v50l-25 25H25L0 75z" stroke="currentColor" vector-effect="non-scaling-stroke"/></symbol><symbol id="b" preserveAspectRatio="none" viewBox="0 0 100 100"/></defs><g class="Viewport" color="black"  name="Name: T cell receptor and co-stimulatory signaling Organism: Homo sapiens"><rect class="Icon" width="1094.4" height="1023.7" fill="#fff" stroke="#000" stroke-width="0"/><g id="x" class="Inhibition" color="#ff0033" ><g color="#ff0033" fill="transparent"  filter="url(#n)" stroke="#000" stroke-dasharray="56.23981149510098, 7"><path class="EdgeBody" d="m656.38 689.34v63.24"   marker-end="url(#h)" /></g></g><g id="y" class="Edge GraphicalLine" color="#ff9933" ><g color="#ff9933" fill="transparent"  filter="url(#t)" stroke="#000" stroke-dasharray="37.03703703703707, 0" stroke-width="2"><path class="EdgeBody" d="m850.61 751.49h37.037"   /></g></g><g id="z" class="Inhibition" color="#0033ff" ><g color="#0033ff" fill="transparent"  filter="url(#q)" stroke="#000" stroke-dasharray="551.8163938476533, 7"><path class="EdgeBody" d="m738.5 231.59v-23.784h-506.71v28.321"   marker-end="url(#h)" /></g></g><g id="aa" class="Interaction" color="#33cc00" ><g color="#33cc00" fill="transparent"  filter="url(#d)" stroke="#000" stroke-dasharray="40.45199848173972, 11"><path class="EdgeBody" d="m454.17 801.66 0.2541 51.451"   marker-end="url(#i)" /></g></g><g id="ab" class="DirectedInteraction" color="#0c0" ><g color="#0c0" fill="transparent"  filter="url(#f)" stroke="#000" stroke-dasharray="23.84696724892127, 5.8"><path class="EdgeBody" d="m324.65 342.06 29.647 7e-14"   marker-end="url(#a)" /></g></g><g id="ac" class="DirectedInteraction" color="#33cc00" ><g color="#33cc00" fill="transparent"  filter="url(#d)" stroke="#000" stroke-dasharray="250.3122923557367, 5.8"><path class="EdgeBody" d="m621.29 106.56v33.182h131.09v91.842"   marker-end="url(#a)" /></g></g><g id="ad" class="DirectedInteraction" color="#ff9900" ><g color="#ff9900" fill="transparent"  filter="url(#j)" stroke="#000" stroke-dasharray="32.20804786880309, 5.8"><path class="EdgeBody" d="m389.2 618.53h38.008"   marker-end="url(#a)" /></g><g class="Burr Anchor" transform="translate(404.41 618.53)" ><use class="Icon" width="0" height="0" fill="#141414" stroke-width="0" xlink:href="#b"/></g></g><g id="ae" class="Interaction" color="#0c0" ><g color="#0c0" fill="transparent"  filter="url(#f)" stroke="#000" stroke-dasharray="163.7634003786128, 5.8"><path class="EdgeBody" d="m495.14 106.56-0.34392 169.56"   marker-end="url(#g)" /></g></g><g id="af" class="Interaction" color="#0c0" ><g color="#0c0" fill="transparent"  filter="url(#f)" stroke="#000" stroke-dasharray="248.6344259737706, 5.8"><path class="EdgeBody" d="m607.41 106.56v20h-84.871v149.56"   marker-end="url(#g)" /></g></g><g id="ag" class="DirectedInteraction" color="#c0c" ><g color="#c0c" fill="transparent"  filter="url(#c)" stroke="#000" stroke-dasharray="38.50886800823919, 5.8"><path class="EdgeBody" d="m650.95 401.19 44.309-6e-14"   marker-end="url(#a)" /></g></g><g id="ah" class="DirectedInteraction" color="#c0c" ><g color="#c0c" fill="transparent"  filter="url(#c)" stroke="#000" stroke-dasharray="49.059308263020164, 5.8"><path class="EdgeBody" d="m638.41 487.13 0.48272 54.857"   marker-end="url(#a)" /></g></g><g id="ai" class="Interaction" color="#0c0" ><g color="#0c0" fill="transparent"  filter="url(#f)" stroke="#000" stroke-dasharray="144.52339322175112, 11"><path class="EdgeBody" d="m656.38 776.68v88.796h-66.728"   marker-end="url(#i)" /></g></g><g id="aj" class="DirectedInteraction" color="#33cc00" ><g color="#33cc00" fill="transparent"  filter="url(#d)" stroke="#000" stroke-dasharray="46.66074153145667, 5.8"><path class="EdgeBody" d="m404.29 566.07 0.11246 52.461"   marker-end="url(#a)" /></g></g><g id="ak" class="DirectedInteraction" color="#33cc00" ><g color="#33cc00" fill="transparent"  filter="url(#d)" stroke="#000" stroke-dasharray="31.608782024390802, 5.8"><path class="EdgeBody" d="m194.79 629.66v37.409"   marker-end="url(#a)" /></g></g><g id="al" class="Inhibition" color="#0066ff" ><g color="#0066ff" fill="transparent"  filter="url(#v)" stroke="#000" stroke-dasharray="154.3051683568323, 7"><path class="EdgeBody" d="m752.38 253.86v88.208h-73.098"   marker-end="url(#h)" /></g></g><g id="am" class="DirectedInteraction" color="#c0c" ><g color="#c0c" fill="transparent"  filter="url(#c)" stroke="#000" stroke-dasharray="111.04850524226772, 5.8"><path class="EdgeBody" d="m382.05 353.2v47.991h-68.857"   marker-end="url(#a)" /></g></g><g id="an" class="Interaction" color="#33cc00" ><g color="#33cc00" fill="transparent"  filter="url(#d)" stroke="#000" stroke-dasharray="26.409416488035276, 11"><path class="EdgeBody" d="m454.96 629.66 0.21787 37.409"   marker-end="url(#r)" /></g></g><g id="ao" class="DirectedInteraction" color="#33cc00" ><g color="#33cc00" fill="transparent"  filter="url(#d)" stroke="#000" stroke-dasharray="50.87296914047411, 5.8"><path class="EdgeBody" d="m194.47 487.13 0.31987 56.672"   marker-end="url(#a)" /></g></g><g id="ap" class="DirectedInteraction" color="#c0c" ><g color="#c0c" fill="transparent"  filter="url(#c)" stroke="#000" stroke-dasharray="97.018153364885, 5.8"><path class="EdgeBody" d="m656.42 564.25-0.041087 102.82"   marker-end="url(#a)" /></g></g><g id="aq" class="DirectedInteraction" color="#f00" ><g color="#f00" fill="transparent"  filter="url(#o)" stroke="#000" stroke-dasharray="5.34, 3.2, 5.34, 3.2, 5.34, 3.2, 5.34, 3.2, 5.34, 3.2, 5.34, 3.2, 5.34, 3.2, 5.34, 3.2, 0, 5.8"><path class="EdgeBody" d="m454.43 877.83-0.7039 70.951"   marker-end="url(#a)" /></g></g><g id="ar" class="DirectedInteraction" color="#ff9900" ><g color="#ff9900" fill="transparent"  filter="url(#j)" stroke="#000" stroke-dasharray="66.73657126726674, 5.8"><path class="EdgeBody" d="m651.52 258.39 0.010646 72.537"   marker-end="url(#a)" /></g><g class="Burr Anchor" transform="translate(651.52 287.41)" ><use class="Icon" width="0" height="0" fill="#141414" stroke-width="0" xlink:href="#b"/></g></g><g id="as" class="Inhibition" color="#3333ff" ><g color="#3333ff" fill="transparent"  filter="url(#p)" stroke="#000" stroke-dasharray="26.321553900151244, 7"><path class="EdgeBody" d="m684.84 287.26-33.321 0.14644"   marker-end="url(#h)" /></g></g><g id="at" class="Interaction" color="#33cc00" ><g color="#33cc00" fill="transparent"  filter="url(#d)" stroke="#000" stroke-dasharray="193.13702232936413, 11"><path class="EdgeBody" d="m222.54 860.03 204.14-0.74223"   marker-end="url(#i)" /></g></g><g id="au" class="DirectedInteraction" color="#33cc00" ><g color="#33cc00" fill="transparent"  filter="url(#d)" stroke="#000" stroke-dasharray="120.29227760590585, 5.8"><path class="EdgeBody" d="m484.57 475.99h126.09"   marker-end="url(#a)" /></g></g><g id="av" class="DirectedInteraction" color="#0c0" ><g color="#0c0" fill="transparent"  filter="url(#f)" stroke="#000" stroke-dasharray="31.061699142475955, 5.8"><path class="EdgeBody" d="m284.88 353.2 0.56057 36.857"   marker-end="url(#a)" /></g></g><g id="aw" class="DirectedInteraction" color="#ff9900" ><g color="#ff9900" fill="transparent"  filter="url(#j)" stroke="#000" stroke-dasharray="77.46375444718656, 5.8"><path class="EdgeBody" d="m345.81 475.99h83.264"   marker-end="url(#a)" /></g><g class="Burr Anchor" transform="translate(379.11 475.99)" ><use class="Icon" width="0" height="0" fill="#141414" stroke-width="0" xlink:href="#b"/></g></g><g id="ax" class="DirectedInteraction" color="#0c0" ><g color="#0c0" fill="transparent"  filter="url(#f)" stroke="#000" stroke-dasharray="31.061933742934126, 5.8"><path class="EdgeBody" d="m637.65 353.2-0.57579 36.857"   marker-end="url(#a)" /></g></g><g id="ay" class="DirectedInteraction" color="#33cc00" ><g color="#33cc00" fill="transparent"  filter="url(#d)" stroke="#000" stroke-dasharray="137.6661342548441, 5.8"><path class="EdgeBody" d="m299.32 412.32v20h79.795v43.671"   marker-end="url(#a)" /></g></g><g id="az" class="Inhibition" color="#ff0033" ><g color="#ff0033" fill="transparent"  filter="url(#n)" stroke="#000" stroke-dasharray="25.299606083398487, 7"><path class="EdgeBody" d="m515.01 618.53h-32.3"   marker-end="url(#h)" /></g></g><g id="ba" class="DirectedInteraction" color="#0c0" ><g color="#0c0" fill="transparent"  filter="url(#f)" stroke="#000" stroke-dasharray="88.6655153316354, 5.8"><path class="EdgeBody" d="m665.4 353.2v20h57.608v16.857"   marker-end="url(#a)" /></g></g><g id="bb" class="DirectedInteraction" color="#c0c" ><g color="#c0c" fill="transparent"  filter="url(#c)" stroke="#000" stroke-dasharray="109.3060369667285, 5.8"><path class="EdgeBody" d="m536.42 287.26 115.11 0.14644"   marker-end="url(#a)" /></g></g><g id="bc" class="DirectedInteraction" color="#33cc00" ><g color="#33cc00" fill="transparent"  filter="url(#d)" stroke="#000" stroke-dasharray="35.52676088523363, 5.8"><path class="EdgeBody" d="m194.79 566.07v41.327"   marker-end="url(#a)" /></g></g><g id="bd" class="Interaction" color="#33cc00" ><g color="#33cc00" fill="transparent"  filter="url(#d)" stroke="#000" stroke-dasharray="242.47284539260846, 11"><path class="EdgeBody" d="m628.63 764.63h-106.63v107.02h-39.821"   marker-end="url(#i)" /></g></g><g id="be" class="DirectedInteraction" color="#0c0" ><g color="#0c0" fill="transparent"  filter="url(#f)" stroke="#000" stroke-dasharray="82.43254224603348, 5.8"><path class="EdgeBody" d="m455.18 689.34-1.0041 88.227"   marker-end="url(#a)" /></g></g><g id="bf" class="DirectedInteraction" color="#0c0" ><g color="#0c0" fill="transparent"  filter="url(#f)" stroke="#000" stroke-dasharray="119.22380382762317, 5.8"><path class="EdgeBody" d="m766.23 106.56 0.018163 125.02"   marker-end="url(#a)" /></g></g><g id="bg" class="DirectedInteraction" color="#c0c" ><g color="#c0c" fill="transparent"  filter="url(#c)" stroke="#000" stroke-dasharray="172.93011155330038, 5.8"><path class="EdgeBody" d="m723.01 412.32v93.678h-49.068v35.984"   marker-end="url(#a)" /></g></g><g id="bh" class="DirectedInteraction" color="#c0c" ><g color="#c0c" fill="transparent"  filter="url(#c)" stroke="#000" stroke-dasharray="66.73869618907483, 5.8"><path class="EdgeBody" d="m245.67 258.39-0.55533 72.537"   marker-end="url(#a)" /></g></g><g id="bi" class="DirectedInteraction" color="#ff9900" ><g color="#ff9900" fill="transparent"  filter="url(#j)" stroke="#000" stroke-dasharray="62.2824181032865, 5.8"><path class="EdgeBody" d="m290.31 475.99h-68.082"   marker-end="url(#a)" /></g><g class="Burr Anchor" transform="translate(271.43 475.99)" ><use class="Icon" width="0" height="0" fill="#141414" stroke-width="0" xlink:href="#b"/></g></g><g id="bj" class="DirectedInteraction" color="#33cc00" ><g color="#33cc00" fill="transparent"  filter="url(#d)" stroke="#000" stroke-dasharray="103.39786115185656, 5.8"><path class="EdgeBody" d="m456.82 487.13v18.873h-52.526v37.799"   marker-end="url(#a)" /></g></g><g id="bk" class="Interaction" color="#0c0" ><g color="#0c0" fill="transparent"  filter="url(#f)" stroke="#000" stroke-dasharray="124.00470699088912, 5.8"><path class="EdgeBody" d="m283.5 130.28v20h-23.959v85.846"   marker-end="url(#g)" /></g></g><g id="bl" class="Inhibition" color="#0033ff" ><g color="#0033ff" fill="transparent"  filter="url(#q)" stroke="#000" stroke-dasharray="602.3197981483065, 7"><path class="EdgeBody" d="m780.13 242.72h20v-92.442h-476.88v-20"   marker-end="url(#h)" /></g></g><g id="bm" class="Interaction" color="#c0c" ><g color="#c0c" fill="transparent"  filter="url(#c)" stroke="#000" stroke-dasharray="169.2515154665338, 5.8"><path class="EdgeBody" d="m417.8 232.03h49.588v-125.46"   marker-end="url(#g)" /></g></g><g id="bn" class="Interaction" color="#c0c" ><g color="#c0c" fill="transparent"  filter="url(#c)" stroke="#000" stroke-dasharray="47.69982677162365, 5.8"><path class="EdgeBody" d="m382.05 277.43v53.5"   marker-end="url(#g)" /></g></g><g id="bo" class="Interaction" color="#0c0" ><g color="#0c0" fill="transparent"  filter="url(#f)" stroke="#000" stroke-dasharray="79.86262330967286, 5.8"><path class="EdgeBody" d="m382.33 131.23-0.2834 85.662"   marker-end="url(#g)" /></g></g><g id="bp" class="Interaction" color="#c0c" ><g color="#c0c" fill="transparent"  filter="url(#c)" stroke="#000" stroke-dasharray="484.71543212938064, 5.8"><path class="EdgeBody" d="m399.92 216.89v-20h380.19v-90.33"   marker-end="url(#g)" /></g></g><g id="bq" class="DirectedInteraction" color="#c0c" ><g color="#c0c" fill="transparent"  filter="url(#c)" stroke="#000" stroke-dasharray="141.6136024172558, 5.8"><path class="EdgeBody" d="m364.17 216.89v-20h-60.799v-66.615"   marker-end="url(#a)" /></g></g><g id="br" class="Interaction" color="#c0c" ><g color="#c0c" fill="transparent"  filter="url(#c)" stroke="#000" stroke-dasharray="67.08332670190245, 5.8"><path class="EdgeBody" d="m346.3 247.16-72.883 0.097116"   marker-end="url(#g)" /></g></g><g id="bs" class="Interaction" color="#c0c" ><g color="#c0c" fill="transparent"  filter="url(#c)" stroke="#000" stroke-dasharray="310.5378256639402, 5.8"><path class="EdgeBody" d="m417.8 247.16h175.74v-140.6"   marker-end="url(#g)" /></g></g><g id="bt" class="DirectedInteraction" color="#00f" ><g color="#00f" fill="transparent"  filter="url(#w)" stroke="#000" stroke-dasharray="29.56954129362534, 5.8"><path class="EdgeBody" d="m194.79 689.34-0.40397 35.367"   marker-end="url(#a)" /></g></g><g id="bu" class="DirectedInteraction" color="#000" ><g color="#000" fill="transparent"  filter="url(#k)" stroke="#000" stroke-dasharray="26.672574667499976, 5.8"><path class="EdgeBody" d="m194.39 815.52 0.40397 32.47"   marker-end="url(#a)" /></g></g><g class="SingleFreeNode Shape PhysicalEntity CellularComponent Nucleus" transform="translate(295.2 753.02)" color="#c0c0c0" ><g fill="transparent"  filter="url(#s)" stroke="#c0c0c0" stroke-width="3"><use class="Icon" transform="matrix(.96507 0 0 .93652 5.7904 5.6191)" width="331.5270480094356" height="177.027930161867"    xlink:href="#e"/></g></g><g class="SingleFreeNode Shape" transform="translate(829.92 587.16)" color="#000" ><rect class="Icon" transform="matrix(.99575 0 0 .99751 .49788 .49876)" width="234.52" height="401.35" fill="transparent"  stroke="#000"/></g><g class="SingleFreeNode Shape PhysicalEntity CellularComponent Extracellular_region" transform="translate(88.353 96.189)" color="#c0c0c0" ><rect class="Icon" transform="matrix(.99863 0 0 .99889 .49931 .49944)" width="726.65" height="897.51" rx="15" ry="15" fill="transparent"  stroke="#c0c0c0" stroke-dasharray="5,3"/></g><g class="Label" transform="translate(390.94 948.78)" color="#ff0033"  name="Proliferation"><use class="Icon" width="125.56149732620293" height="26.809315967198643" fill="transparent"  stroke="#ff0033" stroke-width="0" xlink:href="#b"/><text class="Text" transform="translate(62.781 18.405)" fill="#ff0033"  font-size="16px" font-weight="bold" stroke="black" stroke-width="0" text-anchor="middle"><tspan x="0" y="0">Proliferation</tspan></text></g><g class="Label" transform="translate(887.29 593.14)" color="#000"  name="LEGEND"><use class="Icon" width="80" height="20" fill="transparent"  stroke="#000" stroke-width="0" xlink:href="#b"/><text class="Text" transform="translate(40,14)"   font-size="12px" font-weight="bold"  text-anchor="middle"><tspan x="0" y="0">LEGEND</tspan></text></g><g class="Label" transform="translate(908.26 631.1)" color="#000"  name="protein-protein interaction"><use class="Icon" width="149.84537850209585" height="19.990009990010037" fill="transparent"  stroke="#000" stroke-width="0" xlink:href="#b"/><text class="Text" transform="translate(74.923 12.995)"   font-size="11px"  text-anchor="middle"><tspan x="0" y="0">protein-protein interaction</tspan></text></g><g class="GroupGroup" transform="translate(346.3 216.89)" color="grey" ><use class="Icon" width="71.5" height="60.53544042665172" fill="transparent"  stroke="grey" stroke-dasharray="5,3" stroke-width="0" xlink:href="#b"/><a  class="GeneProduct LCK " transform="translate(8,8)"   name="LCK"  ><rect class="Icon" transform="matrix(.9823 0 0 .95702 .49115 .47851)" width="55.5" height="22.268" fill="#fff" stroke="#000"/><text class="Text" transform="translate(27.75 14.134)"   font-size="10px"  text-anchor="middle"><tspan x="0" y="0">LCK</tspan></text></a><a  class="GeneProduct FYN " transform="translate(8 30.268)"   name="FYN"  ><rect class="Icon" transform="matrix(.9823 0 0 .95702 .49115 .47851)" width="55.5" height="22.268" fill="#fff" stroke="#000"/><text class="Text" transform="translate(27.75 14.134)"   font-size="10px"  text-anchor="middle"><tspan x="0" y="0">FYN</tspan></text></a></g><a  class="GeneProduct ZAP70 " transform="translate(217.92 236.12)"   name="ZAP70"  ><rect class="Icon" transform="matrix(.9823 0 0 .95702 .49115 .47851)" width="55.5" height="22.268" fill="#fff" stroke="#000"/><text class="Text" transform="translate(27.75 14.134)"   font-size="10px"  text-anchor="middle"><tspan x="0" y="0">ZAP70</tspan></text></a><a class="Metabolite " transform="translate(623.77 236.12)" color="#00f"  name="PIP2"  ><rect class="Icon" transform="matrix(.9823 0 0 .95702 .49115 .47851)" width="55.5" height="22.268" fill="#fff" stroke="#00f"/><text class="Text" transform="translate(27.75 14.134)" fill="#00f"  font-size="10px"  text-anchor="middle"><tspan x="0" y="0">PIP2</tspan></text></a><g class="Protein" transform="translate(165.57 330.93)" color="#000"  name="LAT / SLP-76 scaffold complex"><rect class="Icon" transform="matrix(.99375 0 0 .95702 .49688 .47851)" width="159.08" height="22.268" fill="#fff" stroke="#000"/><text class="Text" transform="translate(79.542 14.134)"   font-size="10px"  text-anchor="middle"><tspan x="0" y="0">LAT / SLP-76 scaffold complex</tspan></text></g><a class="Metabolite " transform="translate(623.78 330.93)" color="#00f"  name="PIP3"  ><rect class="Icon" transform="matrix(.9823 0 0 .95702 .49115 .47851)" width="55.5" height="22.268" fill="#fff" stroke="#00f"/><text class="Text" transform="translate(27.75 14.134)" fill="#00f"  font-size="10px"  text-anchor="middle"><tspan x="0" y="0">PIP3</tspan></text></a><a  class="GeneProduct PLCG1 " transform="translate(257.69 390.05)"   name="PLCG1"  ><rect class="Icon" transform="matrix(.9823 0 0 .95702 .49115 .47851)" width="55.5" height="22.268" fill="#fff" stroke="#000"/><text class="Text" transform="translate(27.75 14.134)"   font-size="10px"  text-anchor="middle"><tspan x="0" y="0">PLCG1</tspan></text></a><a  class="Protein ITK " transform="translate(354.3 330.93)"   name="ITK"  ><rect class="Icon" transform="matrix(.9823 0 0 .95702 .49115 .47851)" width="55.5" height="22.268" fill="#fff" stroke="#000"/><text class="Text" transform="translate(27.75 14.134)"   font-size="10px"  text-anchor="middle"><tspan x="0" y="0">ITK</tspan></text></a><a  class="GeneProduct AKT1 " transform="translate(695.26 390.05)"   name="AKT1"  ><rect class="Icon" transform="matrix(.9823 0 0 .95702 .49115 .47851)" width="55.5" height="22.268" fill="#fff" stroke="#000"/><text class="Text" transform="translate(27.75 14.134)"   font-size="10px"  text-anchor="middle"><tspan x="0" y="0">AKT1</tspan></text></a><a  class="GeneProduct PRKCA " transform="translate(610.66 464.86)"   name="PKC-a"  ><rect class="Icon" transform="matrix(.9823 0 0 .95702 .49115 .47851)" width="55.5" height="22.268" fill="#fff" stroke="#000"/><text class="Text" transform="translate(27.75 14.134)"   font-size="10px"  text-anchor="middle"><tspan x="0" y="0">PKC-a</tspan></text></a><a  class="GeneProduct PTPN6 " transform="translate(724.63 231.59)"   name="SHP1"  ><rect class="Icon" transform="matrix(.9823 0 0 .95702 .49115 .47851)" width="55.5" height="22.268" fill="#fff" stroke="#000"/><text class="Text" transform="translate(27.75 14.134)"   font-size="10px"  text-anchor="middle"><tspan x="0" y="0">SHP1</tspan></text></a><g class="Protein" transform="translate(480.92 276.13)" color="#000"  name="P13K"><rect class="Icon" transform="matrix(.9823 0 0 .95702 .49115 .47851)" width="55.5" height="22.268" fill="#fff" stroke="#000"/><text class="Text" transform="translate(27.75 14.134)"   font-size="10px"  text-anchor="middle"><tspan x="0" y="0">P13K</tspan></text></g><a class="Metabolite ChEBI_CHEBI_29108  " transform="translate(167.04 543.8)" color="#00f"  name="Ca2+"  ><rect class="Icon" transform="matrix(.9823 0 0 .95702 .49115 .47851)" width="55.5" height="22.268" fill="#fff" stroke="#00f"/><text class="Text" transform="translate(27.75 14.134)" fill="#00f"  font-size="10px"  text-anchor="middle"><tspan x="0" y="0">Ca2+</tspan></text></a><g class="Protein" transform="translate(534.15 853.11)" color="#000"  name="Bcl-xL"><use class="Icon" transform="matrix(.9823 0 0 .96111 .49115 .48056)" width="55.5" height="24.714526341316173" fill="#fff" stroke="#000" xlink:href="#m"/><text class="Text" transform="translate(27.75 15.357)"   font-size="10px"  text-anchor="middle"><tspan x="0" y="0">Bcl-xL</tspan></text></g><g class="Protein" transform="translate(427.43 667.07)" color="#000"  name="Erk"><rect class="Icon" transform="matrix(.9823 0 0 .95702 .49115 .47851)" width="55.5" height="22.268" fill="#fff" stroke="#000"/><text class="Text" transform="translate(27.75 14.134)"   font-size="10px"  text-anchor="middle"><tspan x="0" y="0">Erk</tspan></text></g><a  class="GeneProduct NFKB1 " transform="translate(628.63 752.58)"   name="NFKB1"  ><use class="Icon" transform="matrix(.9823 0 0 .96016 .49115 .48008)" width="55.5" height="24.097420397609767" fill="#fff" stroke="#000" xlink:href="#e"/><text class="Text" transform="translate(27.75 15.049)"   font-size="10px"  text-anchor="middle"><tspan x="0" y="0">NFKB1</tspan></text></a><g class="Protein" transform="translate(426.42 777.56)" color="#000"  name="AP-1"><use class="Icon" transform="matrix(.9823 0 0 .96016 .49115 .48008)" width="55.5" height="24.097420397609767" fill="#fff" stroke="#000" xlink:href="#e"/><text class="Text" transform="translate(27.75 15.049)"   font-size="10px"  text-anchor="middle"><tspan x="0" y="0">AP-1</tspan></text></g><a  class="Protein NFATC2 " transform="translate(167.04 847.99)"   name="NFAT1"  ><use class="Icon" transform="matrix(.9823 0 0 .96016 .49115 .48008)" width="55.5" height="24.097420397609767" fill="#fff" stroke="#000" xlink:href="#e"/><text class="Text" transform="translate(27.75 15.049)"   font-size="10px"  text-anchor="middle"><tspan x="0" y="0">NFAT1</tspan></text></a><a  class="GeneProduct RASA1 " transform="translate(515.01 607.39)"   name="Ras-GAP"  ><rect class="Icon" transform="matrix(.9823 0 0 .95702 .49115 .47851)" width="55.5" height="22.268" fill="#fff" stroke="#000"/><text class="Text" transform="translate(27.75 14.134)"   font-size="10px"  text-anchor="middle"><tspan x="0" y="0">Ras-GAP</tspan></text></a><g class="Protein" transform="translate(427.21 607.39)" color="#000"  name="Ras-GTP"><rect class="Icon" transform="matrix(.9823 0 0 .95702 .49115 .47851)" width="55.5" height="22.268" fill="#fff" stroke="#000"/><text class="Text" transform="translate(27.75 14.134)"   font-size="10px"  text-anchor="middle"><tspan x="0" y="0">Ras-GTP</tspan></text></g><a class="Metabolite ChEBI_CHEBI_89224  " transform="translate(429.07 464.86)" color="#00f"  name="DAG"  ><rect class="Icon" transform="matrix(.9823 0 0 .95702 .49115 .47851)" width="55.5" height="22.268" fill="#fff" stroke="#00f"/><text class="Text" transform="translate(27.75 14.134)" fill="#00f"  font-size="10px"  text-anchor="middle"><tspan x="0" y="0">DAG</tspan></text></a><a class="Metabolite ChEBI_CHEBI_16783  " transform="translate(166.72 464.86)" color="#00f"  name="IP3"  ><rect class="Icon" transform="matrix(.9823 0 0 .95702 .49115 .47851)" width="55.5" height="22.268" fill="#fff" stroke="#00f"/><text class="Text" transform="translate(27.75 14.134)" fill="#00f"  font-size="10px"  text-anchor="middle"><tspan x="0" y="0">IP3</tspan></text></a><a  class="Protein CALM1 " transform="translate(167.04 607.39)"   name="Calmodulin"  ><rect class="Icon" transform="matrix(.9823 0 0 .95702 .49115 .47851)" width="55.5" height="22.268" fill="#fff" stroke="#000"/><text class="Text" transform="translate(27.75 14.134)"   font-size="10px"  text-anchor="middle"><tspan x="0" y="0">Calmodulin</tspan></text></a><a  class="GeneProduct RASGRP1 " transform="translate(376.54 543.8)"   name="RasGRP"  ><rect class="Icon" transform="matrix(.9823 0 0 .95702 .49115 .47851)" width="55.5" height="22.268" fill="#fff" stroke="#000"/><text class="Text" transform="translate(27.75 14.134)"   font-size="10px"  text-anchor="middle"><tspan x="0" y="0">RasGRP</tspan></text></a><a  class="GeneProduct IL2 " transform="translate(426.68 853.11)"   name="IL2"  ><use class="Icon" transform="matrix(.9823 0 0 .96111 .49115 .48056)" width="55.5" height="24.714526341316173" fill="#fff" stroke="#000" xlink:href="#m"/><text class="Text" transform="translate(27.75 15.357)"   font-size="10px"  text-anchor="middle"><tspan x="0" y="0">IL2</tspan></text></a><a  class="GeneProduct PPP3CA " transform="translate(167.04 667.07)"   name="Calcineurin"  ><rect class="Icon" transform="matrix(.9823 0 0 .95702 .49115 .47851)" width="55.5" height="22.268" fill="#fff" stroke="#000"/><text class="Text" transform="translate(27.75 14.134)"   font-size="10px"  text-anchor="middle"><tspan x="0" y="0">Calcineurin</tspan></text></a><g class="Uniprot-TrEMBL_P25963 Protein NFKBIA " transform="translate(628.63 667.07)" color="#000"  name="IkBa"><rect class="Icon" transform="matrix(.9823 0 0 .95702 .49115 .47851)" width="55.5" height="22.268" fill="#fff" stroke="#000"/><text class="Text" transform="translate(27.75 14.134)"   font-size="10px"  text-anchor="middle"><tspan x="0" y="0">IkBa</tspan></text></g><g class="Enzyme_Nomenclature_2_7_11_10 GeneProduct " transform="translate(621.37 541.98)" color="#000"  name="IKK complex"><rect class="Icon" transform="matrix(.98594 0 0 .95702 .49297 .47851)" width="70.101" height="22.268" fill="#fff" stroke="#000"/><text class="Text" transform="translate(35.051 14.134)"   font-size="10px"  text-anchor="middle"><tspan x="0" y="0">IKK complex</tspan></text></g><g class="Label" transform="translate(908.27 652.61)" color="#000"  name="inhibition"><use class="Icon" width="69.52266638833947" height="22.977022977022216" fill="transparent"  stroke="#000" stroke-width="0" xlink:href="#b"/><text class="Text" transform="translate(34.761 14.489)"   font-size="11px"  text-anchor="middle"><tspan x="0" y="0">inhibition</tspan></text></g><g class="Label" transform="translate(906.08 677.85)" color="#000"  name="activation / recruitment"><use class="Icon" width="138.55421822256426" height="24.96503496503294" fill="transparent"  stroke="#000" stroke-width="0" xlink:href="#b"/><text class="Text" transform="translate(69.277 15.483)"   font-size="11px"  text-anchor="middle"><tspan x="0" y="0">activation / recruitment</tspan></text></g><g class="Label" transform="translate(908.64 700.05)" color="#000"  name="phosphorylation"><use class="Icon" width="103.3395460261151" height="21.968031968029436" fill="transparent"  stroke="#000" stroke-width="0" xlink:href="#b"/><text class="Text" transform="translate(51.67 13.984)"   font-size="11px"  text-anchor="middle"><tspan x="0" y="0">phosphorylation</tspan></text></g><g class="Label" transform="translate(906.8 718.4)" color="#000"  name="dephosphorylation"><use class="Icon" width="116.74937712667874" height="25.954045954044204" fill="transparent"  stroke="#000" stroke-width="0" xlink:href="#b"/><text class="Text" transform="translate(58.375 15.977)"   font-size="11px"  text-anchor="middle"><tspan x="0" y="0">dephosphorylation</tspan></text></g><g class="Label" transform="translate(906.91 738.04)" color="#000"  name="necessary precursor"><use class="Icon" width="129.23019409343806" height="25.944055944053574" fill="transparent"  stroke="#000" stroke-width="0" xlink:href="#b"/><text class="Text" transform="translate(64.615 15.972)"   font-size="11px"  text-anchor="middle"><tspan x="0" y="0">necessary precursor</tspan></text></g><a  class="Protein PTEN " transform="translate(684.84 276.13)"   name="PTEN"  ><rect class="Icon" transform="matrix(.9823 0 0 .95702 .49115 .47851)" width="55.5" height="22.268" fill="#fff" stroke="#000"/><text class="Text" transform="translate(27.75 14.134)"   font-size="10px"  text-anchor="middle"><tspan x="0" y="0">PTEN</tspan></text></a><a  class="GeneProduct PDK1 " transform="translate(595.45 390.05)"   name="PDK1"  ><rect class="Icon" transform="matrix(.9823 0 0 .95702 .49115 .47851)" width="55.5" height="22.268" fill="#fff" stroke="#000"/><text class="Text" transform="translate(27.75 14.134)"   font-size="10px"  text-anchor="middle"><tspan x="0" y="0">PDK1</tspan></text></a><g id="bv" class="DirectedInteraction" color="#f00" ><g color="#f00" fill="transparent"  filter="url(#o)" stroke="#000" stroke-dasharray="5.27, 3.16, 5.27, 3.16, 5.27, 3.16, 5.27, 3.16, 5.27, 3.16, 5.27, 3.16, 5.27, 3.16, 5.27, 5.8"><path class="EdgeBody" d="m561.9 877.83 0.54795 70.043"   marker-end="url(#a)" /></g></g><g class="Label" transform="translate(499.67 947.87)" color="#ff0033"  name="Survival"><use class="Icon" width="125.5614973262029" height="26.809315967198586" fill="transparent"  stroke="#ff0033" stroke-width="0" xlink:href="#b"/><text class="Text" transform="translate(62.781 18.405)" fill="#ff0033"  font-size="16px" font-weight="bold" stroke="black" stroke-width="0" text-anchor="middle"><tspan x="0" y="0">Survival</tspan></text></g><g class="Protein" transform="translate(333.7 607.39)" color="#000"  name="Ras-GDP"><rect class="Icon" transform="matrix(.9823 0 0 .95702 .49115 .47851)" width="55.5" height="22.268" fill="#fff" stroke="#000"/><text class="Text" transform="translate(27.75 14.134)"   font-size="10px"  text-anchor="middle"><tspan x="0" y="0">Ras-GDP</tspan></text></g><a class="Metabolite " transform="translate(290.31 464.86)" color="#00f"  name="PIP2"  ><rect class="Icon" transform="matrix(.9823 0 0 .95702 .49115 .47851)" width="55.5" height="22.268" fill="#fff" stroke="#00f"/><text class="Text" transform="translate(27.75 14.134)" fill="#00f"  font-size="10px"  text-anchor="middle"><tspan x="0" y="0">PIP2</tspan></text></a><g id="bw" class="DirectedInteraction" color="#33cc00" ><g color="#33cc00" fill="transparent"  filter="url(#d)" stroke="#000" stroke-dasharray="57.871523581139535, 5.8"><path class="EdgeBody" d="m271.57 412.32-0.13755 63.671"   marker-end="url(#a)" /></g></g><g class="Label" transform="translate(845.38 776.82)" color="#000" ><rect class="Icon" transform="matrix(.9823 0 0 .95702 .49115 .47851)" width="55.5" height="22.268" fill="#fff" stroke="#000"/></g><g class="Label" transform="translate(846.39 817.19)" color="#000" ><use class="Icon" transform="matrix(.9823 0 0 .96016 .49115 .48008)" width="55.5" height="24.097420397609767" fill="#fff" stroke="#000" xlink:href="#e"/></g><g class="Label" transform="translate(845.4 853.79)" color="#000" ><use class="Icon" transform="matrix(.9823 0 0 .96615 .49115 .48307)" width="55.5" height="28.537877777137282" fill="#fff" stroke="#000" xlink:href="#m"/></g><g class="Label" transform="translate(903.93 770.01)" color="#000"  name="signaling molecule"><use class="Icon" width="125.82061859431138" height="25.944055944053574" fill="transparent"  stroke="#000" stroke-width="0" xlink:href="#b"/><text class="Text" transform="translate(62.91 15.972)"   font-size="11px"  text-anchor="middle"><tspan x="0" y="0">signaling molecule</tspan></text></g><g class="Label" transform="translate(918.12 812.69)" color="#000"  name="transcription factor"><use class="Icon" width="129.65255779938474" height="25.944055944053574" fill="transparent"  stroke="#000" stroke-width="0" xlink:href="#b"/><text class="Text" transform="translate(8 15.972)"   font-size="11px" ><tspan x="0" y="0">transcription factor</tspan></text></g><g class="Label" transform="translate(918.43 852.95)" color="#000"  name="target gene"><use class="Icon" width="107.81684307187837" height="25.944055944053574" fill="transparent"  stroke="#000" stroke-width="0" xlink:href="#b"/><text class="Text" transform="translate(8 15.972)"   font-size="11px" ><tspan x="0" y="0">target gene</tspan></text></g><g class="Complex" transform="translate(314.99 18.066)" color="#000"  name="MHC peptide"><use class="Icon" transform="matrix(.98186 0 0 .98051 .49093 .49026)" width="54.133597883598085" height="50.310269445813695" fill="#fff" stroke="#000" xlink:href="#e"/><text class="Text" transform="translate(27.067 28.155)"   font-size="10px"  text-anchor="middle"><tspan x="0" y="0">MHC peptide</tspan></text></g><g class="Complex" transform="translate(455.95 29.862)" color="#000"  name="B7-1/ B7-2"><use class="Icon" transform="matrix(.9817 0 0 .98051 .49085 .49026)" width="53.63232812157827" height="50.310269445813695" fill="#fff" stroke="#000" xlink:href="#e"/><text class="Text" transform="translate(26.816 28.155)"   font-size="10px"  text-anchor="middle"><tspan x="0" y="0">B7-1/ B7-2</tspan></text></g><g class="Complex" transform="translate(580.7 29.862)" color="#000"  name="B7-1/ B7-2"><use class="Icon" transform="matrix(.9817 0 0 .98051 .49085 .49026)" width="53.63232812157827" height="50.310269445813695" fill="#fff" stroke="#000" xlink:href="#e"/><text class="Text" transform="translate(26.816 28.155)"   font-size="10px"  text-anchor="middle"><tspan x="0" y="0">B7-1/ B7-2</tspan></text></g><g class="Complex" transform="translate(737.36 29.862)" color="#000"  name="PD-L1"><use class="Icon" transform="matrix(.9817 0 0 .98051 .49085 .49026)" width="53.63232812157827" height="50.310269445813695" fill="#fff" stroke="#000" xlink:href="#e"/><text class="Text" transform="translate(26.816 28.155)"   font-size="10px"  text-anchor="middle"><tspan x="0" y="0">PD-L1</tspan></text></g><g class="Label" transform="translate(845.98 894.1)" color="#000" ><use class="Icon" transform="matrix(.9817 0 0 .98051 .49085 .49026)" width="53.63232812157827" height="50.310269445813695" fill="#fff" stroke="#000" xlink:href="#e"/></g><g class="Label" transform="translate(919.37 904.84)" color="#000"  name="ligand"><use class="Icon" width="85.08536159039693" height="25.944055944053574" fill="transparent"  stroke="#000" stroke-width="0" xlink:href="#b"/><text class="Text" transform="translate(8 15.972)"   font-size="11px" ><tspan x="0" y="0">ligand</tspan></text></g><g class="GroupComplex" transform="translate(99.679 724.71)" color="grey" ><use class="Icon" transform="matrix(.99475 0 0 .98911 .49737 .49455)" width="189.41991961573598" height="90.81047058149875" fill="#b4b464" fill-opacity=".1" stroke="grey" xlink:href="#l"/><a  class="Protein NFATC2 " transform="translate(121.92 35.197)"   name="NFAT1"  ><use class="Icon" transform="matrix(.9823 0 0 .96016 .49115 .48008)" width="55.5" height="24.097420397609767" fill="#fff" stroke="#000" xlink:href="#e"/><g class="Burr State" transform="translate(35.719 -7.5)" color="#000"  name="P"><use class="Icon" transform="matrix(.9375 0 0 .9375 .46875 .46875)" width="15" height="15" fill="#fff" stroke="#000" xlink:href="#e"/><text class="Text" transform="translate(7.5,10.5)"   font-size="10px"  text-anchor="middle"><tspan x="0" y="0">P</tspan></text></g><text class="Text" transform="translate(27.75 15.049)"   font-size="10px"  text-anchor="middle"><tspan x="0" y="0">NFAT1</tspan></text></a><a  class="GeneProduct CSNK1A1 " transform="translate(12 12.007)"   name="CSNK1A1"  ><rect class="Icon" transform="matrix(.9823 0 0 .95702 .49115 .47851)" width="55.5" height="22.268" fill="#fff" stroke="#000"/><text class="Text" transform="translate(27.75 14.134)"   font-size="10px"  text-anchor="middle"><tspan x="0" y="0">CSNK1A1</tspan></text></a><a  class="GeneProduct GSK3A " transform="translate(12 34.275)"   name="GSK3A"  ><rect class="Icon" transform="matrix(.9823 0 0 .95702 .49115 .47851)" width="55.5" height="22.268" fill="#fff" stroke="#000"/><text class="Text" transform="translate(27.75 14.134)"   font-size="10px"  text-anchor="middle"><tspan x="0" y="0">GSK3A</tspan></text></a><a  class="GeneProduct GSK3B " transform="translate(12 56.543)"   name="GSK3B"  ><rect class="Icon" transform="matrix(.9823 0 0 .95702 .49115 .47851)" width="55.5" height="22.268" fill="#fff" stroke="#000"/><text class="Text" transform="translate(27.75 14.134)"   font-size="10px"  text-anchor="middle"><tspan x="0" y="0">GSK3B</tspan></text></a><a  class="GeneProduct DYRK1A " transform="translate(67.556 56.535)"   name="DYRK1A"  ><rect class="Icon" transform="matrix(.9823 0 0 .95702 .49115 .47851)" width="55.5" height="22.268" fill="#fff" stroke="#000"/><text class="Text" transform="translate(27.75 14.134)"   font-size="10px"  text-anchor="middle"><tspan x="0" y="0">DYRK1A</tspan></text></a><a  class="GeneProduct DYRK2 " transform="translate(67.556 34.268)"   name="DYRK2"  ><rect class="Icon" transform="matrix(.9823 0 0 .95702 .49115 .47851)" width="55.5" height="22.268" fill="#fff" stroke="#000"/><text class="Text" transform="translate(27.75 14.134)"   font-size="10px"  text-anchor="middle"><tspan x="0" y="0">DYRK2</tspan></text></a><a class="GeneProduct NRON " transform="translate(67.556 12)" color="#990099"  name="NRON"  ><rect class="Icon" transform="matrix(.9823 0 0 .95702 .49115 .47851)" width="55.5" height="22.268" fill="#fff" stroke="#909"/><text class="Text" transform="translate(27.75 14.134)" fill="#990099"  font-size="10px"  text-anchor="middle"><tspan x="0" y="0">NRON</tspan></text></a></g><g class="GroupComplex" transform="translate(263.62 61.744)" color="grey" ><use class="Icon" transform="matrix(.98758 0 0 .98562 .49379 .49281)" width="79.5" height="68.5354404266519" fill="#b4b464" fill-opacity=".1" stroke="grey" xlink:href="#l"/><a  class="GeneProduct " transform="translate(12,12)"   name="TCRA"  ><rect class="Icon" transform="matrix(.9823 0 0 .95702 .49115 .47851)" width="55.5" height="22.268" fill="#fff" stroke="#000"/><text class="Text" transform="translate(27.75 14.134)"   font-size="10px"  text-anchor="middle"><tspan x="0" y="0">TCRA</tspan></text></a><a  class="GeneProduct " transform="translate(12 34.268)"   name="TCRB"  ><rect class="Icon" transform="matrix(.9823 0 0 .95702 .49115 .47851)" width="55.5" height="22.268" fill="#fff" stroke="#000"/><text class="Text" transform="translate(27.75 14.134)"   font-size="10px"  text-anchor="middle"><tspan x="0" y="0">TCRB</tspan></text></a></g><g class="GroupComplex" transform="translate(342.58 62.696)" color="grey" ><use class="Icon" transform="matrix(.98758 0 0 .98562 .49379 .49281)" width="79.5" height="68.53544042665177" fill="#b4b464" fill-opacity=".1" stroke="grey" xlink:href="#l"/><a  class="GeneProduct CD8A " transform="translate(12,12)"   name="CD8A"  ><rect class="Icon" transform="matrix(.9823 0 0 .95702 .49115 .47851)" width="55.5" height="22.268" fill="#fff" stroke="#000"/><text class="Text" transform="translate(27.75 14.134)"   font-size="10px"  text-anchor="middle"><tspan x="0" y="0">CD8A</tspan></text></a><a  class="GeneProduct CD8B " transform="translate(12 34.268)"   name="CD8B"  ><rect class="Icon" transform="matrix(.9823 0 0 .95702 .49115 .47851)" width="55.5" height="22.268" fill="#fff" stroke="#000"/><text class="Text" transform="translate(27.75 14.134)"   font-size="10px"  text-anchor="middle"><tspan x="0" y="0">CD8B</tspan></text></a></g><a  class="GeneProduct CD28 " transform="translate(453.51 84.296)"   name="CD28"  ><rect class="Icon" transform="matrix(.9823 0 0 .95702 .49115 .47851)" width="55.5" height="22.268" fill="#fff" stroke="#000"/><text class="Text" transform="translate(27.75 14.134)"   font-size="10px"  text-anchor="middle"><tspan x="0" y="0">CD28</tspan></text></a><a  class="GeneProduct CTLA4 " transform="translate(579.66 84.296)"   name="CTLA4"  ><rect class="Icon" transform="matrix(.9823 0 0 .95702 .49115 .47851)" width="55.5" height="22.268" fill="#fff" stroke="#000"/><text class="Text" transform="translate(27.75 14.134)"   font-size="10px"  text-anchor="middle"><tspan x="0" y="0">CTLA4</tspan></text></a><a  class="GeneProduct PDCD1 " transform="translate(738.48 84.296)"   name="PDCD1"  ><rect class="Icon" transform="matrix(.9823 0 0 .95702 .49115 .47851)" width="55.5" height="22.268" fill="#fff" stroke="#000"/><text class="Text" transform="translate(27.75 14.134)"   font-size="10px"  text-anchor="middle"><tspan x="0" y="0">PDCD1</tspan></text></a><g id="bx" class="Edge GraphicalLine" color="#3333ff" ><g color="#3333ff" fill="transparent"  filter="url(#p)" stroke="#000" stroke-dasharray="37.03703703703707, 0" stroke-width="2"><path class="EdgeBody" d="m850.61 730.52h37.037"   /></g></g><g id="by" class="Edge GraphicalLine" color="#c0c" ><g color="#c0c" fill="transparent"  filter="url(#c)" stroke="#000" stroke-dasharray="37.03703703703707, 0" stroke-width="2"><path class="EdgeBody" d="m850.61 710.2h37.037"   /></g></g><g id="bz" class="Edge GraphicalLine" color="#00cc33" ><g color="#00cc33" fill="transparent"  filter="url(#u)" stroke="#000" stroke-dasharray="37.03703703703707, 0" stroke-width="2"><path class="EdgeBody" d="m850.61 691.16h37.037"   /></g></g><g id="ca" class="Edge GraphicalLine DirectedInteraction" color="#000" ><g color="#000" fill="transparent"  filter="url(#k)" stroke="#000" stroke-dasharray="31.237037037037066, 5.8"><path class="EdgeBody" d="m850.24 639.23h37.037"   marker-end="url(#a)" /></g></g><g id="cb" class="Edge GraphicalLine Inhibition" color="#000" ><g color="#000" fill="transparent"  filter="url(#k)" stroke="#000" stroke-dasharray="30.037037037037067, 7"><path class="EdgeBody" d="m853.46 662.78h37.037"   marker-end="url(#h)" /></g></g><text class="Text" transform="translate(5,27)" dominant-baseline="central" fill="black"  font-size="12px" font-weight="bold" overflow="visible" ><tspan x="0" y="-9">Name: T cell receptor and co-stimulatory signaling</tspan> <tspan x="0" y="9">Organism: Homo sapiens</tspan></text></g></svg>
