<?xml version="1.0" encoding="UTF-8"?>
<!--
  WikiPathways page: https://www.wikipathways.org/index.php/Pathway:WP2643
  URL for this compressed file: https://github.com/eweitz/cachome/tree/main/data/wikipathways/WP2643.svg
  Source code for compression: https://github.com/eweitz/cachome/tree/main/src/wikipathways.py
-->
<svg class="Diagram" width="800" height="600" color="black" baseProfile="full" prefix="schema:http://schema.org/" preserveAspectRatio="xMidYMid" version="1.1" viewBox="0 0 801.88 646" vocab="http://vocabularies.wikipathways.org/wp#" xmlns="http://www.w3.org/2000/svg" xmlns:xlink="http://www.w3.org/1999/xlink"><style>svg {font-family: 'Liberation Sans', Arial, sans-serif; }</style><defs><filter id="f" x="-50%" y="-50%" width="200%" height="200%"><feComposite in="SourceGraphic" in2="SourceGraphic" result="doubleDark"/><feMorphology in="doubleDark" operator="dilate" radius="0.16666666666666666" result="in2Double"/><feMorphology in="SourceGraphic" operator="dilate" radius="3" result="inDouble"/><feComposite in="inDouble" in2="in2Double" operator="out" result="doubleResult"/></filter><filter id="e" x="-50%" y="-50%" width="200%" height="200%"><feMorphology in="SourceGraphic" operator="dilate" radius="1" result="in2Double"/><feMorphology in="SourceGraphic" radius="1" result="inDouble"/><feComposite in="inDouble" in2="in2Double" operator="atop" result="doubleResult"/></filter><filter id="b" x="0" y="0" width="801.88" height="646" filterUnits="userSpaceOnUse"><feColorMatrix in="SourceGraphic" values="-1   0   0 0 0                   0  -1   0 0 0                   0   0  -1 0 0                   0   0   0 1 0"/></filter><marker id="c" stroke-dasharray="99999" markerHeight="12" markerUnits="userSpaceOnUse" markerWidth="12" orient="auto" preserveAspectRatio="none" refX="12" refY="6" viewBox="0 0 12 12"><path transform="rotate(180 6 6)" d="M12 11L0 6l12-5z" fill="currentColor" stroke-width="0"/></marker><symbol id="a" overflow="visible" preserveAspectRatio="none" viewBox="0 0 50 50"><ellipse cx="25" cy="25" rx="25" ry="25" stroke="currentColor" vector-effect="non-scaling-stroke"/></symbol><symbol id="d" preserveAspectRatio="none" viewBox="0 0 100 100"/></defs><g class="Viewport" color="black"  name="Name: Nanoparticle-mediated activation of receptor signaling Organism: Homo sapiens"><rect class="Icon" width="801.88" height="646" fill="#fff" stroke="#000" stroke-width="0"/><g class="SingleFreeNode Shape PhysicalEntity CellularComponent Cell" transform="translate(117.55 109.93)" color="#c0c0c0" ><g fill="transparent"  filter="url(#f)" stroke="#c0c0c0" stroke-width="3"><rect class="Icon" transform="matrix(.98073 0 0 .97368 5.8844 5.8421)" width="610.81" height="443.95" rx="15" ry="15"   /></g></g><g id="g" class="DirectedInteraction" color="#000" ><g color="#000" fill="transparent"  filter="url(#b)" stroke="#000" stroke-dasharray="25.016901620429802, 5.8"><path class="EdgeBody" d="m662.11 310.71 0.12687 30.817"   marker-end="url(#c)" /></g></g><g id="h" class="DirectedInteraction" color="#000" ><g color="#000" fill="transparent"  filter="url(#b)" stroke="#000" stroke-dasharray="152.53826287066758, 5.8"><path class="EdgeBody" d="m396.63 448.93-143.22 67.528"   marker-end="url(#c)" /></g></g><g id="i" class="DirectedInteraction" color="#000" ><g color="#000" fill="transparent"  filter="url(#b)" stroke="#000" stroke-dasharray="128.88737522269807, 5.8"><path class="EdgeBody" d="m262.72 228.54-33.145 130.55"   marker-end="url(#c)" /></g></g><g id="j" class="DirectedInteraction" color="#000" ><g color="#000" fill="transparent"  filter="url(#b)" stroke="#000" stroke-dasharray="84.93805777102521, 5.8"><path class="EdgeBody" d="m594.39 226.53-69.808 57.968"   marker-end="url(#c)" /></g></g><g id="k" class="DirectedInteraction" color="#000" ><g color="#000" fill="transparent"  filter="url(#b)" stroke="#000" stroke-dasharray="74.73976346731534, 5.8"><path class="EdgeBody" d="m553.08 297.95 80.537-0.6959"   marker-end="url(#c)" /></g></g><g id="l" class="DirectedInteraction" color="#000" ><g color="#000" fill="transparent"  filter="url(#b)" stroke="#000" stroke-dasharray="267.3999586224424, 5.8"><path class="EdgeBody" d="m415.8 146.9-172.09 212.19"   marker-end="url(#c)" /></g></g><g id="m" class="DirectedInteraction" color="#000" ><g color="#000" fill="transparent"  filter="url(#b)" stroke="#000" stroke-dasharray="88.93928107215754, 5.8"><path class="EdgeBody" d="m510.33 284.5-0.43503-94.738"   marker-end="url(#c)" /></g></g><g id="n" class="DirectedInteraction" color="#000" ><g color="#000" fill="transparent"  filter="url(#b)" stroke="#000" stroke-dasharray="60.80876045022198, 5.8"><path class="EdgeBody" d="m410.87 462.38-53.381 39.839"   marker-end="url(#c)" /></g></g><g id="o" class="Interaction" color="#000" ><g color="#000" fill="transparent"  filter="url(#b)" stroke="#000" stroke-dasharray="1221.1767934984941, 0"><path class="EdgeBody" d="m357.49 530.69v59.145h-349.78l-2.5e-15 -548.36 263.89-2e-14"   /></g></g><g id="p" class="DirectedInteraction" color="#000" ><g color="#000" fill="transparent"  filter="url(#b)" stroke="#000" stroke-dasharray="106.71123052789711, 5.8"><path class="EdgeBody" d="m335.82 461.68-104.96 40.535"   marker-end="url(#c)" /></g></g><g id="q" class="DirectedInteraction" color="#000" ><g color="#000" fill="transparent"  filter="url(#b)" stroke="#000" stroke-dasharray="218.6091174321502, 5.8"><path class="EdgeBody" d="m96.278 371.17 181.84-131.5"   marker-end="url(#c)" /></g></g><g id="r" class="DirectedInteraction" color="#000" ><g color="#000" fill="transparent"  filter="url(#b)" stroke="#000" stroke-dasharray="151.52165790120878, 5.8"><path class="EdgeBody" d="m324.34 217.41 72.164 139.79"   marker-end="url(#c)" /></g></g><g id="s" class="DirectedInteraction" color="#000" ><g color="#000" fill="transparent"  filter="url(#b)" stroke="#000" stroke-dasharray="24.323158293771574, 5.8"><path class="EdgeBody" d="m424.61 320.36 0.3813 30.121"   marker-end="url(#c)" /></g></g><g id="t" class="DirectedInteraction" color="#000" ><g color="#000" fill="transparent"  filter="url(#b)" stroke="#000" stroke-dasharray="49.16319583027441, 5.8"><path class="EdgeBody" d="m424.43 238.49 0.18545 54.963"   marker-end="url(#c)" /></g></g><g id="u" class="DirectedInteraction" color="#000" ><g color="#000" fill="transparent"  filter="url(#b)" stroke="#000" stroke-dasharray="284.19709073135294, 5.8"><path class="EdgeBody" d="m308.93 239.67-123.16 262.55"   marker-end="url(#c)" /></g></g><g id="v" class="DirectedInteraction" color="#000" ><g color="#000" fill="transparent"  filter="url(#b)" stroke="#000" stroke-dasharray="53.88545782260917, 5.8"><path class="EdgeBody" d="m208 241.25 54.717-23.841"   marker-end="url(#c)" /></g></g><g id="w" class="DirectedInteraction" color="#000" ><g color="#000" fill="transparent"  filter="url(#b)" stroke="#000" stroke-dasharray="239.39487299288874, 5.8"><path class="EdgeBody" d="m424.34 155.5-88.52 228.66"   marker-end="url(#c)" /></g></g><g id="x" class="DirectedInteraction" color="#000" ><g color="#000" fill="transparent"  filter="url(#b)" stroke="#000" stroke-dasharray="50.285170282935844, 5.8"><path class="EdgeBody" d="m424.34 155.5 0.088276 56.085"   marker-end="url(#c)" /></g></g><g id="y" class="DirectedInteraction" color="#000" ><g color="#000" fill="transparent"  filter="url(#b)" stroke="#000" stroke-dasharray="26.662410771352736, 5.8"><path class="EdgeBody" d="m425 403.01 0.12687 32.462"   marker-end="url(#c)" /></g></g><g id="z" class="DirectedInteraction" color="#000" ><g color="#000" fill="transparent"  filter="url(#b)" stroke="#000" stroke-dasharray="47.97302597457673, 5.8"><path class="EdgeBody" d="m243.8 461.81-35.479 40.408"   marker-end="url(#c)" /></g></g><g id="aa" class="DirectedInteraction" color="#000" ><g color="#000" fill="transparent"  filter="url(#b)" stroke="#000" stroke-dasharray="144.71767876397502, 5.8"><path class="EdgeBody" d="m524.58 311.4-85.212 124.07"   marker-end="url(#c)" /></g></g><g id="ab" class="DirectedInteraction" color="#000" ><g color="#000" fill="transparent"  filter="url(#b)" stroke="#000" stroke-dasharray="68.01750242099978, 5.8"><path class="EdgeBody" d="m350 48.401 52.17 52.224"   marker-end="url(#c)" /></g></g><g id="ac" class="DirectedInteraction" color="#000" ><g color="#000" fill="transparent"  filter="url(#b)" stroke="#000" stroke-dasharray="139.24067115683874, 5.8"><path class="EdgeBody" d="m308.93 239.67 12.641 144.49"   marker-end="url(#c)" /></g></g><g id="ad" class="DirectedInteraction" color="#000" ><g color="#000" fill="transparent"  filter="url(#b)" stroke="#000" stroke-dasharray="189.4849692964787, 5.8"><path class="EdgeBody" d="m633.74 354.97-128.28 147.24"   marker-end="url(#c)" /></g></g><g id="ae" class="DirectedInteraction" color="#000" ><g color="#000" fill="transparent"  filter="url(#b)" stroke="#000" stroke-dasharray="38.030402919578385, 5.8"><path class="EdgeBody" d="m481.4 176.31-42.727 9.774"   marker-end="url(#c)" /></g></g><g id="af" class="DirectedInteraction" color="#000" ><g color="#000" fill="transparent"  filter="url(#b)" stroke="#000" stroke-dasharray="20.080073317622418, 5.8"><path class="EdgeBody" d="m594.39 173.75v25.88"   marker-end="url(#c)" /></g></g><g id="ag" class="DirectedInteraction" color="#000" ><g color="#000" fill="transparent"  filter="url(#b)" stroke="#000" stroke-dasharray="64.39605249131905, 5.8"><path class="EdgeBody" d="m425.12 462.38 57.796 39.839"   marker-end="url(#c)" /></g></g><g id="ah" class="DirectedInteraction" color="#000" ><g color="#000" fill="transparent"  filter="url(#b)" stroke="#000" stroke-dasharray="34.193376882969396, 5.8"><path class="EdgeBody" d="m66.009 324.62 5.0187 39.677"   marker-end="url(#c)" /></g></g><g id="ai" class="DirectedInteraction" color="#000" ><g color="#000" fill="transparent"  filter="url(#b)" stroke="#000" stroke-dasharray="42.7025772511111, 5.8"><path class="EdgeBody" d="m178.25 164 0.5 48.5"   marker-end="url(#c)" /></g></g><g id="aj" class="DirectedInteraction" color="#000" ><g color="#000" fill="transparent"  filter="url(#b)" stroke="#000" stroke-dasharray="44.72312627392898, 5.8"><path class="EdgeBody" d="m608.64 56.236 28.73 41.559"   marker-end="url(#c)" /></g></g><g id="ak" class="DirectedInteraction" color="#000" ><g color="#000" fill="transparent"  filter="url(#b)" stroke="#000" stroke-dasharray="246.8245740289414, 5.8"><path class="EdgeBody" d="m667.07 172.32-16.433 252.09"   marker-end="url(#c)" /></g></g><g id="al" class="DirectedInteraction" color="#000" ><g color="#000" fill="transparent"  filter="url(#b)" stroke="#000" stroke-dasharray="40.74202642846907, 5.8"><path class="EdgeBody" d="m713.33 54.297-16.554 43.498"   marker-end="url(#c)" /></g></g><g id="am" class="DirectedInteraction" color="#000" ><g color="#000" fill="transparent"  filter="url(#b)" stroke="#000" stroke-dasharray="106.06658458313397, 5.8"><path class="EdgeBody" d="m667.07 172.32 9.2851 111.48"   marker-end="url(#c)" /></g></g><g id="an" class="DirectedInteraction" color="#000" ><g color="#000" fill="transparent"  filter="url(#b)" stroke="#000" stroke-dasharray="62.67582515361167, 5.8"><path class="EdgeBody" d="m696.78 122.64 31.192-60.959"   marker-end="url(#c)" /></g></g><g id="ao" class="DirectedInteraction" color="#000" ><g color="#000" fill="transparent"  filter="url(#b)" stroke="#000" stroke-dasharray="210.63458430879072, 5.8"><path class="EdgeBody" d="m177.37 422.29 116.16-182.62"   marker-end="url(#c)" /></g></g><g class="SingleFreeNode Shape" transform="translate(415.8 121.08)" color="#000" ><rect class="Icon" transform="matrix(.94469 0 0 .97177 .47234 .48588)" width="17.079" height="34.423" fill="transparent"  stroke="#000"/></g><g class="SingleFreeNode Shape PhysicalEntity CellularComponent Cell" transform="translate(159.5,116.5)" color="#000" ><use class="Icon" transform="matrix(.93939 0 0 .93548 .4697 .46774)" width="15.5" height="14.5" fill="#c00" stroke="#000" xlink:href="#a"/></g><g class="GroupGroup" transform="translate(637.37 72.953)" color="grey" ><use class="Icon" width="59.41044776119293" height="98.90298507462683" fill="transparent"  stroke="grey" stroke-dasharray="5,3" stroke-width="0" xlink:href="#d"/><g class="SingleFreeNode Shape" transform="translate(12.937 59.834)" color="#000" ><rect class="Icon" transform="matrix(.90522 0 0 .95104 .45261 .47552)" width="9.5504" height="19.424" fill="transparent"  stroke="#000"/></g><a  class="Uniprot-TrEMBL_P56199 Protein ITGA1 " transform="translate(8,8)"   name="α"  ><rect class="Icon" transform="matrix(.95104 0 0 .98125 .47552 .49063)" width="19.424" height="52.334" fill="#fff" stroke="#000"/><text class="Text" transform="translate(9.7118 29.167)"   font-size="10px"  text-anchor="middle"><tspan x="0" y="0">α</tspan></text></a><g class="SingleFreeNode Shape" transform="translate(10.468 76.289) rotate(-89.577 7.6549 7.2435)" color="#000" ><use class="Icon" transform="matrix(.93869 0 0 .93543 .46934 .46771)" width="15.309701492537332" height="14.48694029850742" fill="#fff" stroke="#000" xlink:href="#a"/></g><g class="SingleFreeNode Shape" transform="translate(36.101 59.961)" color="#000" ><rect class="Icon" transform="matrix(.90522 0 0 .95104 .45261 .47552)" width="9.5504" height="19.424" fill="transparent"  stroke="#000"/></g><g class="SingleFreeNode Shape" transform="translate(33.632 76.416) rotate(-89.577 7.6549 7.2435)" color="#000" ><use class="Icon" transform="matrix(.93869 0 0 .93543 .46934 .46771)" width="15.309701492537332" height="14.48694029850742" fill="#fff" stroke="#000" xlink:href="#a"/></g><a  class="Uniprot-TrEMBL_P05556 Protein ITGB1 " transform="translate(31.987 8.1269)"   name="β"  ><rect class="Icon" transform="matrix(.95104 0 0 .98125 .47552 .49063)" width="19.424" height="52.334" fill="#fff" stroke="#000"/><text class="Text" transform="translate(9.7118 29.167)"   font-size="10px"  text-anchor="middle"><tspan x="0" y="0">β</tspan></text></a></g><g class="Label" transform="translate(13,217)" color="#000"  name="NP-induced  extracellular ROS  production"><use class="Icon" width="97" height="44" fill="transparent"  stroke="#000" stroke-width="0" xlink:href="#d"/><text class="Text" transform="translate(48.5,25)"   font-size="10px"  text-anchor="middle"><tspan x="0" y="-11">NP-induced </tspan> <tspan x="0" y="0">extracellular ROS </tspan> <tspan x="0" y="11">production</tspan></text></g><g class="Label" transform="translate(5,500)" color="#000"  name="Receptor-mediated  NP uptake"><use class="Icon" width="117" height="18" fill="transparent"  stroke="#000" stroke-width="0" xlink:href="#d"/><text class="Text" transform="translate(58.5,12)"   font-size="10px"  text-anchor="middle"><tspan x="0" y="-5.5">Receptor-mediated </tspan> <tspan x="0" y="5.5">NP uptake</tspan></text></g><g class="Label" transform="translate(102,596)" color="#000"  name="Autocrine loop"><use class="Icon" width="127" height="20" fill="transparent"  stroke="#000" stroke-width="0" xlink:href="#d"/><text class="Text" transform="translate(63.5,13)"   font-size="10px"  text-anchor="middle"><tspan x="0" y="0">Autocrine loop</tspan></text></g><g class="Label" transform="translate(627,57)" color="#000"  name="Integrin"><use class="Icon" width="80" height="20" fill="transparent"  stroke="#000" stroke-width="0" xlink:href="#d"/><text class="Text" transform="translate(40,13)"   font-size="10px"  text-anchor="middle"><tspan x="0" y="0">Integrin</tspan></text></g><a  class="Uniprot-TrEMBL_P02751 Protein FN1 " transform="translate(557 26.711)"   name="Fibronectin"  ><rect class="Icon" transform="matrix(.98568 0 0 .96724 .49284 .48362)" width="68.85" height="29.525" fill="#fff" stroke="#000"/><text class="Text" transform="translate(34.425 17.762)"   font-size="10px"  text-anchor="middle"><tspan x="0" y="0">Fibronectin</tspan></text></a><a  class="Uniprot-TrEMBL_P15514 Protein AREG " transform="translate(271.61 27.618)"   name="Amphiregulin"  ><rect class="Icon" transform="matrix(.9874 0 0 .96517 .4937 .48259)" width="78.391" height="27.711" fill="#fff" stroke="#000"/><text class="Text" transform="translate(39.196 16.855)"   font-size="10px"  text-anchor="middle"><tspan x="0" y="0">Amphiregulin</tspan></text></a><a  class="Uniprot-TrEMBL_P02452 Protein COL1A1 " transform="translate(713.33 32.153)"   name="Collagen"  ><rect class="Icon" transform="matrix(.98321 0 0 .96724 .4916 .48362)" width="58.55" height="29.525" fill="#fff" stroke="#000"/><text class="Text" transform="translate(29.275 17.762)"   font-size="10px"  text-anchor="middle"><tspan x="0" y="0">Collagen</tspan></text></a><a  class="Uniprot-TrEMBL_P01112 Protein HRAS " transform="translate(395.93 211.59)"   name="HRAS"  ><rect class="Icon" transform="matrix(.98276 0 0 .96416 .49138 .48208)" width="56.991" height="26.904" fill="#fff" stroke="#000"/><text class="Text" transform="translate(28.496 16.452)"   font-size="10px"  text-anchor="middle"><tspan x="0" y="0">HRAS</tspan></text></a><a  class="WikiPathways_WP254 Pathway " transform="translate(163.23 502.22)"   name="Apoptosis"  ><rect class="Icon" transform="matrix(.98903 0 0 .96607 .49452 .48304)" width="90.181" height="28.474" fill="#fff" stroke="#000"/><text class="Text" transform="translate(45.09 17.237)"   font-size="10px"  text-anchor="middle"><tspan x="0" y="0">Apoptosis</tspan></text></a><a  class="Uniprot-TrEMBL_P00533 Protein EGFR " transform="translate(402.17 93.5)"   name="EGFR"  ><rect class="Icon" transform="matrix(.97802 0 0 .9661 .48901 .48305)" width="44.5" height="28.5" fill="#fff" stroke="#000"/><text class="Text" transform="translate(22.25,18)"   font-size="10px"  text-anchor="middle"><tspan x="0" y="0">EGFR</tspan></text></a><g class="GroupGroup" transform="translate(139.5,71)" color="grey" ><use class="Icon" width="78" height="94.5" fill="transparent"  stroke="grey" stroke-dasharray="5,3" stroke-width="0" xlink:href="#d"/><g class="SingleFreeNode Shape" transform="translate(17.5,28.5)" color="#000" ><g fill="#fff" filter="url(#e)" stroke="#000" stroke-width="0"><use class="Icon" width="44" height="43.5"    xlink:href="#a"/></g></g><g class="SingleFreeNode Shape PhysicalEntity CellularComponent Nucleus" transform="translate(8.5,26)" color="#c0c0c0" ><g fill="transparent"  filter="url(#f)" stroke="#c0c0c0" stroke-width="3"><use class="Icon" transform="matrix(.83673 0 0 .83448 5.0204 5.0069)" width="61.5" height="60.5"    xlink:href="#a"/></g></g><g class="SingleFreeNode Shape" transform="translate(8,8)" color="#000" ><g fill="#fff" filter="url(#e)" stroke="#000" stroke-width="0"><rect class="Icon" width="61.5" height="28"   /></g></g></g><g class="SingleFreeNode Shape PhysicalEntity CellularComponent Nucleus" transform="translate(148,211)" color="#c0c0c0" ><g fill="transparent"  filter="url(#f)" stroke="#c0c0c0" stroke-width="3"><use class="Icon" transform="matrix(.83673 0 0 .83448 5.0204 5.0069)" width="61.5" height="60.5"    xlink:href="#a"/></g></g><a  class="Unknown ChEBI_CHEBI_26523  " transform="translate(45.778 364.3)"   name="ROS"  ><rect class="Icon" transform="matrix(.98058 0 0 .96491 .49029 .48246)" width="50.5" height="27.5" fill="#fff" stroke="#000"/><text class="Text" transform="translate(25.25,16.75)"   font-size="10px"  text-anchor="middle"><tspan x="0" y="0">ROS</tspan></text></a><g class="GroupGroup" transform="translate(78.5,432.5)" color="grey" ><use class="Icon" width="81.5" height="44.5" fill="transparent"  stroke="grey" stroke-dasharray="5,3" stroke-width="0" xlink:href="#d"/><g class="SingleFreeNode Shape" transform="translate(8,24)" color="#000" ><rect class="Icon" transform="matrix(.98496 0 0 .92593 .49248 .46296)" width="65.5" height="12.5" fill="#fff" stroke="#000"/></g><g class="SingleFreeNode Shape" transform="translate(8,8)" color="#000" ><rect class="Icon" transform="matrix(.98496 0 0 .92593 .49248 .46296)" width="65.5" height="12.5" fill="#fff" stroke="#000"/></g></g><g class="GroupGroup" transform="translate(11.769 264.01)" color="grey" ><use class="Icon" width="72.32089552238813" height="60.61380597014926" fill="transparent"  stroke="grey" stroke-dasharray="5,3" stroke-width="0" xlink:href="#d"/><g class="SingleFreeNode Shape PhysicalEntity CellularComponent Cell" transform="translate(38.504 8)" color="#000" ><use class="Icon" transform="matrix(.91304 0 0 .91304 .45652 .45652)" width="10.5" height="10.5" fill="#c00" stroke="#000" xlink:href="#a"/></g><g class="SingleFreeNode Shape PhysicalEntity CellularComponent Cell" transform="translate(40.276 41.037)" color="#000" ><use class="Icon" transform="matrix(.91304 0 0 .91304 .45652 .45652)" width="10.5" height="10.5" fill="#c00" stroke="#000" xlink:href="#a"/></g><g class="SingleFreeNode Shape PhysicalEntity CellularComponent Cell" transform="translate(33.821 25.532)" color="#000" ><use class="Icon" transform="matrix(.91304 0 0 .91304 .45652 .45652)" width="10.5" height="10.5" fill="#c00" stroke="#000" xlink:href="#a"/></g><g class="SingleFreeNode Shape PhysicalEntity CellularComponent Cell" transform="translate(22.429 42.114)" color="#000" ><use class="Icon" transform="matrix(.91304 0 0 .91304 .45652 .45652)" width="10.5" height="10.5" fill="#c00" stroke="#000" xlink:href="#a"/></g><g class="SingleFreeNode Shape PhysicalEntity CellularComponent Cell" transform="translate(53.821 27.431)" color="#000" ><use class="Icon" transform="matrix(.91304 0 0 .91304 .45652 .45652)" width="10.5" height="10.5" fill="#c00" stroke="#000" xlink:href="#a"/></g><g class="SingleFreeNode Shape PhysicalEntity CellularComponent Cell" transform="translate(16.924 15.216)" color="#000" ><use class="Icon" transform="matrix(.91304 0 0 .91304 .45652 .45652)" width="10.5" height="10.5" fill="#c00" stroke="#000" xlink:href="#a"/></g><g class="SingleFreeNode Shape PhysicalEntity CellularComponent Cell" transform="translate(8 28.507)" color="#000" ><use class="Icon" transform="matrix(.91304 0 0 .91304 .45652 .45652)" width="10.5" height="10.5" fill="#c00" stroke="#000" xlink:href="#a"/></g></g><g class="SingleFreeNode Shape" transform="translate(409.17 86)" color="#000" ><use class="Icon" transform="matrix(.96825 0 0 .94118 .48413 .47059)" width="30.5" height="16" fill="#fff" stroke="#000" xlink:href="#a"/></g><g class="SingleFreeNode Shape" transform="translate(408.17 69.95)" color="#000" ><g fill="#fff" filter="url(#e)" stroke="#000" stroke-width="0"><rect class="Icon" width="35.5" height="23.5"   /></g></g><a  class="Uniprot-TrEMBL_P01111 Protein NRAS " transform="translate(395.93 237.09)"   name="NRAS"  ><rect class="Icon" transform="matrix(.98276 0 0 .96416 .49138 .48208)" width="56.991" height="26.904" fill="#fff" stroke="#000"/><text class="Text" transform="translate(28.496 16.452)"   font-size="10px"  text-anchor="middle"><tspan x="0" y="0">NRAS</tspan></text></a><a  class="Uniprot-TrEMBL_P01116 Protein KRAS " transform="translate(395.93 186.08)"   name="KRAS"  ><rect class="Icon" transform="matrix(.98276 0 0 .96416 .49138 .48208)" width="56.991" height="26.904" fill="#fff" stroke="#000"/><text class="Text" transform="translate(28.496 16.452)"   font-size="10px"  text-anchor="middle"><tspan x="0" y="0">KRAS</tspan></text></a><a  class="Uniprot-TrEMBL_P04049 Protein RAF1 " transform="translate(396.12 293.45)"   name="RAF"  ><rect class="Icon" transform="matrix(.98276 0 0 .96416 .49138 .48208)" width="56.991" height="26.904" fill="#fff" stroke="#000"/><text class="Text" transform="translate(28.496 16.452)"   font-size="10px"  text-anchor="middle"><tspan x="0" y="0">RAF</tspan></text></a><a  class="Uniprot-TrEMBL_Q02750 Protein MAP2K1 " transform="translate(396.5 350.48)"   name="MAP2K1"  ><rect class="Icon" transform="matrix(.98276 0 0 .96416 .49138 .48208)" width="56.991" height="26.904" fill="#fff" stroke="#000"/><text class="Text" transform="translate(28.496 16.452)"   font-size="10px"  text-anchor="middle"><tspan x="0" y="0">MAP2K1</tspan></text></a><a  class="Uniprot-TrEMBL_P36507 Protein MAP2K2 " transform="translate(396.5 376.11)"   name="MAP2K2"  ><rect class="Icon" transform="matrix(.98276 0 0 .96416 .49138 .48208)" width="56.991" height="26.904" fill="#fff" stroke="#000"/><text class="Text" transform="translate(28.496 16.452)"   font-size="10px"  text-anchor="middle"><tspan x="0" y="0">MAP2K2</tspan></text></a><a  class="Uniprot-TrEMBL_P28482 Protein MAPK1 " transform="translate(396.63 435.48)"   name="MAPK1"  ><rect class="Icon" transform="matrix(.98276 0 0 .96416 .49138 .48208)" width="56.991" height="26.904" fill="#fff" stroke="#000"/><text class="Text" transform="translate(28.496 16.452)"   font-size="10px"  text-anchor="middle"><tspan x="0" y="0">MAPK1</tspan></text></a><a  class="Uniprot-TrEMBL_P45983 Protein MAPK8 " transform="translate(307.33 384.16)"   name="JNK1"  ><rect class="Icon" transform="matrix(.98276 0 0 .96416 .49138 .48208)" width="56.991" height="26.904" fill="#fff" stroke="#000"/><text class="Text" transform="translate(28.496 16.452)"   font-size="10px"  text-anchor="middle"><tspan x="0" y="0">JNK1</tspan></text></a><a  class="Uniprot-TrEMBL_P45984 Protein MAPK9 " transform="translate(307.33 409.97)"   name="JNK2"  ><rect class="Icon" transform="matrix(.98276 0 0 .96416 .49138 .48208)" width="56.991" height="26.904" fill="#fff" stroke="#000"/><text class="Text" transform="translate(28.496 16.452)"   font-size="10px"  text-anchor="middle"><tspan x="0" y="0">JNK2</tspan></text></a><a  class="Uniprot-TrEMBL_P53779 Protein MAPK10 " transform="translate(307.33 434.78)"   name="JNK3"  ><rect class="Icon" transform="matrix(.98276 0 0 .96416 .49138 .48208)" width="56.991" height="26.904" fill="#fff" stroke="#000"/><text class="Text" transform="translate(28.496 16.452)"   font-size="10px"  text-anchor="middle"><tspan x="0" y="0">JNK3</tspan></text></a><a  class="Uniprot-TrEMBL_P53778 Protein MAPK12 " transform="translate(215.3 385.29)"   name="MAPK12"  ><rect class="Icon" transform="matrix(.98276 0 0 .96416 .49138 .48208)" width="56.991" height="26.904" fill="#fff" stroke="#000"/><text class="Text" transform="translate(28.496 16.452)"   font-size="10px"  text-anchor="middle"><tspan x="0" y="0">MAPK12</tspan></text></a><a  class="Uniprot-TrEMBL_O15264 Protein MAPK13 " transform="translate(215.3 410.1)"   name="MAPK13"  ><rect class="Icon" transform="matrix(.98276 0 0 .96416 .49138 .48208)" width="56.991" height="26.904" fill="#fff" stroke="#000"/><text class="Text" transform="translate(28.496 16.452)"   font-size="10px"  text-anchor="middle"><tspan x="0" y="0">MAPK13</tspan></text></a><a  class="Uniprot-TrEMBL_Q16539 Protein MAPK14 " transform="translate(215.3 434.91)"   name="MAPK14"  ><rect class="Icon" transform="matrix(.98276 0 0 .96416 .49138 .48208)" width="56.991" height="26.904" fill="#fff" stroke="#000"/><text class="Text" transform="translate(28.496 16.452)"   font-size="10px"  text-anchor="middle"><tspan x="0" y="0">MAPK14</tspan></text></a><a  class="Uniprot-TrEMBL_Q15759 Protein MAPK11 " transform="translate(215.43 359.09)"   name="MAPK11"  ><rect class="Icon" transform="matrix(.98263 0 0 .96416 .49131 .48208)" width="56.57" height="26.904" fill="#fff" stroke="#000"/><text class="Text" transform="translate(28.285 16.452)"   font-size="10px"  text-anchor="middle"><tspan x="0" y="0">MAPK11</tspan></text></a><a  class="Uniprot-TrEMBL_Q9Y490 Protein TLN1 " transform="translate(583.65 119.56)"   name="Talin"  ><rect class="Icon" transform="matrix(.98276 0 0 .96416 .49138 .48208)" width="56.991" height="26.904" fill="#fff" stroke="#000"/><text class="Text" transform="translate(28.496 16.452)"   font-size="10px"  text-anchor="middle"><tspan x="0" y="0">Talin</tspan></text></a><a  class="Uniprot-TrEMBL_P49023 Protein PXN " transform="translate(565.89 146.84)"   name="Paxillin"  ><rect class="Icon" transform="matrix(.98276 0 0 .96416 .49138 .48208)" width="56.991" height="26.904" fill="#fff" stroke="#000"/><text class="Text" transform="translate(28.496 16.452)"   font-size="10px"  text-anchor="middle"><tspan x="0" y="0">Paxillin</tspan></text></a><a  class="Uniprot-TrEMBL_P12931 Protein SRC " transform="translate(565.89 199.63)"   name="Src"  ><rect class="Icon" transform="matrix(.98276 0 0 .96416 .49138 .48208)" width="56.991" height="26.904" fill="#fff" stroke="#000"/><text class="Text" transform="translate(28.496 16.452)"   font-size="10px"  text-anchor="middle"><tspan x="0" y="0">Src</tspan></text></a><a  class="Uniprot-TrEMBL_Q05397 Protein PTK2 " transform="translate(496.09 284.5)"   name="FAK"  ><rect class="Icon" transform="matrix(.98276 0 0 .96416 .49138 .48208)" width="56.991" height="26.904" fill="#fff" stroke="#000"/><text class="Text" transform="translate(28.496 16.452)"   font-size="10px"  text-anchor="middle"><tspan x="0" y="0">FAK</tspan></text></a><a  class="Uniprot-TrEMBL_Q07889 Protein SOS1 " transform="translate(481.4 162.86)"   name="Sos"  ><rect class="Icon" transform="matrix(.98276 0 0 .96416 .49138 .48208)" width="56.991" height="26.904" fill="#fff" stroke="#000"/><text class="Text" transform="translate(28.496 16.452)"   font-size="10px"  text-anchor="middle"><tspan x="0" y="0">Sos</tspan></text></a><a  class="Uniprot-TrEMBL_P62993 Protein GRB2 " transform="translate(481.53 135.83)"   name="Grb"  ><rect class="Icon" transform="matrix(.98276 0 0 .96416 .49138 .48208)" width="56.991" height="26.904" fill="#fff" stroke="#000"/><text class="Text" transform="translate(28.496 16.452)"   font-size="10px"  text-anchor="middle"><tspan x="0" y="0">Grb</tspan></text></a><a  class="Uniprot-TrEMBL_O00329 Protein PIK3CD " transform="translate(633.61 283.8)"   name="PI3K"  ><rect class="Icon" transform="matrix(.98276 0 0 .96416 .49138 .48208)" width="56.991" height="26.904" fill="#fff" stroke="#000"/><text class="Text" transform="translate(28.496 16.452)"   font-size="10px"  text-anchor="middle"><tspan x="0" y="0">PI3K</tspan></text></a><a  class="Uniprot-TrEMBL_Q9Y243 Protein AKT3 " transform="translate(633.74 341.52)"   name="AKT"  ><rect class="Icon" transform="matrix(.98276 0 0 .96416 .49138 .48208)" width="56.991" height="26.904" fill="#fff" stroke="#000"/><text class="Text" transform="translate(28.496 16.452)"   font-size="10px"  text-anchor="middle"><tspan x="0" y="0">AKT</tspan></text></a><a  class="Unknown" transform="translate(460.37 502.22)"   name="Proliferation"  ><rect class="Icon" transform="matrix(.98903 0 0 .96607 .49452 .48304)" width="90.181" height="28.474" fill="#fff" stroke="#000"/><text class="Text" transform="translate(45.09 17.237)"   font-size="10px"  text-anchor="middle"><tspan x="0" y="0">Proliferation</tspan></text></a><a  class="Unknown" transform="translate(312.4 502.22)"   name="Inflammation"  ><rect class="Icon" transform="matrix(.98903 0 0 .96607 .49452 .48304)" width="90.181" height="28.474" fill="#fff" stroke="#000"/><text class="Text" transform="translate(45.09 17.237)"   font-size="10px"  text-anchor="middle"><tspan x="0" y="0">Inflammation</tspan></text></a><g class="GroupGroup" transform="translate(596.91 424.41)" color="grey" ><use class="Icon" width="107.45974252777023" height="114.28171641791067" fill="transparent"  stroke="grey" stroke-dasharray="5,3" stroke-width="0" xlink:href="#d"/><a  class="Unknown" transform="translate(8 77.808)"   name="Migration"  ><rect class="Icon" transform="matrix(.98903 0 0 .96607 .49452 .48304)" width="90.181" height="28.474" fill="#fff" stroke="#000"/><text class="Text" transform="translate(45.09 17.237)"   font-size="10px"  text-anchor="middle"><tspan x="0" y="0">Migration</tspan></text></a><a  class="WikiPathways_WP1539 Pathway " transform="translate(9.2788 8)"   name="Angiogenesis"  ><rect class="Icon" transform="matrix(.98903 0 0 .96607 .49452 .48304)" width="90.181" height="28.474" fill="#fff" stroke="#000"/><text class="Text" transform="translate(45.09 17.237)"   font-size="10px"  text-anchor="middle"><tspan x="0" y="0">Angiogenesis</tspan></text></a><a  class="Unknown" transform="translate(8 43.506)"   name="Differentiation"  ><rect class="Icon" transform="matrix(.98903 0 0 .96607 .49452 .48304)" width="90.181" height="28.474" fill="#fff" stroke="#000"/><text class="Text" transform="translate(45.09 17.237)"   font-size="10px"  text-anchor="middle"><tspan x="0" y="0">Differentiation</tspan></text></a></g><g class="SingleFreeNode Shape PhysicalEntity CellularComponent Cell" transform="translate(159.83 49.987)" color="#000" ><use class="Icon" transform="matrix(.91304 0 0 .91304 .45652 .45652)" width="10.5" height="10.5" fill="#c00" stroke="#000" xlink:href="#a"/></g><g class="SingleFreeNode Shape PhysicalEntity CellularComponent Cell" transform="translate(152.55 65.746)" color="#000" ><use class="Icon" transform="matrix(.91304 0 0 .91304 .45652 .45652)" width="10.5" height="10.5" fill="#c00" stroke="#000" xlink:href="#a"/></g><g class="SingleFreeNode Shape PhysicalEntity CellularComponent Cell" transform="translate(171.6 65.05)" color="#000" ><use class="Icon" transform="matrix(.91304 0 0 .91304 .45652 .45652)" width="10.5" height="10.5" fill="#c00" stroke="#000" xlink:href="#a"/></g><g class="SingleFreeNode Shape PhysicalEntity CellularComponent Cell" transform="translate(165.97 82.455)" color="#000" ><use class="Icon" transform="matrix(.91304 0 0 .91304 .45652 .45652)" width="10.5" height="10.5" fill="#c00" stroke="#000" xlink:href="#a"/></g><g class="SingleFreeNode Shape PhysicalEntity CellularComponent Cell" transform="translate(166.92 107.26)" color="#000" ><use class="Icon" transform="matrix(.91304 0 0 .91304 .45652 .45652)" width="10.5" height="10.5" fill="#c00" stroke="#000" xlink:href="#a"/></g><g class="SingleFreeNode Shape PhysicalEntity CellularComponent Cell" transform="translate(163.75 127.14)" color="#000" ><use class="Icon" transform="matrix(.91304 0 0 .91304 .45652 .45652)" width="10.5" height="10.5" fill="#c00" stroke="#000" xlink:href="#a"/></g><g class="SingleFreeNode Shape PhysicalEntity CellularComponent Cell" transform="translate(182.8 114.92)" color="#000" ><use class="Icon" transform="matrix(.91304 0 0 .91304 .45652 .45652)" width="10.5" height="10.5" fill="#c00" stroke="#000" xlink:href="#a"/></g><g class="SingleFreeNode Shape PhysicalEntity CellularComponent Cell" transform="translate(180.46 130.68)" color="#000" ><use class="Icon" transform="matrix(.91304 0 0 .91304 .45652 .45652)" width="10.5" height="10.5" fill="#c00" stroke="#000" xlink:href="#a"/></g><g class="SingleFreeNode Shape PhysicalEntity CellularComponent Cell" transform="translate(166.22 224.22)" color="#000" ><use class="Icon" transform="matrix(.91304 0 0 .91304 .45652 .45652)" width="10.5" height="10.5" fill="#c00" stroke="#000" xlink:href="#a"/></g><g class="SingleFreeNode Shape PhysicalEntity CellularComponent Cell" transform="translate(182.11 231.88)" color="#000" ><use class="Icon" transform="matrix(.91304 0 0 .91304 .45652 .45652)" width="10.5" height="10.5" fill="#c00" stroke="#000" xlink:href="#a"/></g><g class="SingleFreeNode Shape PhysicalEntity CellularComponent Cell" transform="translate(179.76 247.64)" color="#000" ><use class="Icon" transform="matrix(.91304 0 0 .91304 .45652 .45652)" width="10.5" height="10.5" fill="#c00" stroke="#000" xlink:href="#a"/></g><g class="SingleFreeNode Shape PhysicalEntity CellularComponent Cell" transform="translate(162.23 241.63)" color="#000" ><use class="Icon" transform="matrix(.91304 0 0 .91304 .45652 .45652)" width="10.5" height="10.5" fill="#c00" stroke="#000" xlink:href="#a"/></g><g class="SingleFreeNode Shape PhysicalEntity CellularComponent Cell" transform="translate(24.451 442.82)" color="#000" ><use class="Icon" transform="matrix(.91304 0 0 .91304 .45652 .45652)" width="10.5" height="10.5" fill="#c00" stroke="#000" xlink:href="#a"/></g><g class="SingleFreeNode Shape PhysicalEntity CellularComponent Cell" transform="translate(36.92 464.34)" color="#000" ><use class="Icon" transform="matrix(.91304 0 0 .91304 .45652 .45652)" width="10.5" height="10.5" fill="#c00" stroke="#000" xlink:href="#a"/></g><g class="SingleFreeNode Shape PhysicalEntity CellularComponent Cell" transform="translate(71.603 449.66)" color="#000" ><use class="Icon" transform="matrix(.91304 0 0 .91304 .45652 .45652)" width="10.5" height="10.5" fill="#c00" stroke="#000" xlink:href="#a"/></g><g class="SingleFreeNode Shape PhysicalEntity CellularComponent Cell" transform="translate(47.047 440.74)" color="#000" ><use class="Icon" transform="matrix(.91304 0 0 .91304 .45652 .45652)" width="10.5" height="10.5" fill="#c00" stroke="#000" xlink:href="#a"/></g><g class="SingleFreeNode Shape PhysicalEntity CellularComponent Cell" transform="translate(57.869 466.37)" color="#000" ><use class="Icon" transform="matrix(.91304 0 0 .91304 .45652 .45652)" width="10.5" height="10.5" fill="#c00" stroke="#000" xlink:href="#a"/></g><g class="SingleFreeNode Shape PhysicalEntity CellularComponent Cell" transform="translate(104.07 449.22)" color="#000" ><use class="Icon" transform="matrix(.91304 0 0 .91304 .45652 .45652)" width="10.5" height="10.5" fill="#c00" stroke="#000" xlink:href="#a"/></g><g class="GroupGroup" transform="translate(138.98 422.29)" color="grey" ><use class="Icon" width="51.18283582089549" height="46.37313432835822" fill="transparent"  stroke="grey" stroke-dasharray="5,3" stroke-width="0" xlink:href="#d"/><g class="SingleFreeNode Shape PhysicalEntity CellularComponent Cell" transform="translate(8 25.405)" color="#000" ><use class="Icon" transform="matrix(.91304 0 0 .91304 .45652 .45652)" width="10.5" height="10.5" fill="#c00" stroke="#000" xlink:href="#a"/></g><g class="SingleFreeNode Shape PhysicalEntity CellularComponent Cell" transform="translate(23.506 8)" color="#000" ><use class="Icon" transform="matrix(.91304 0 0 .91304 .45652 .45652)" width="10.5" height="10.5" fill="#c00" stroke="#000" xlink:href="#a"/></g><g class="SingleFreeNode Shape PhysicalEntity CellularComponent Cell" transform="translate(32.683 27.873)" color="#000" ><use class="Icon" transform="matrix(.91304 0 0 .91304 .45652 .45652)" width="10.5" height="10.5" fill="#c00" stroke="#000" xlink:href="#a"/></g></g><a  class="Unknown ChEBI_CHEBI_26523  " transform="translate(262.72 195.15)"   name="ROS"  ><rect class="Icon" transform="matrix(.98403 0 0 .97803 .49202 .48902)" width="61.619" height="44.525" fill="#fff" stroke="#000"/><text class="Text" transform="translate(30.81 25.263)"   font-size="10px"  text-anchor="middle"><tspan x="0" y="0">ROS</tspan></text></a><g class="SingleFreeNode Shape PhysicalEntity CellularComponent Cell" transform="translate(410.39 18.967)" color="#000" ><use class="Icon" transform="matrix(.91304 0 0 .91304 .45652 .45652)" width="10.5" height="10.5" fill="#c00" stroke="#000" xlink:href="#a"/></g><g class="SingleFreeNode Shape PhysicalEntity CellularComponent Cell" transform="translate(412.16 52.004)" color="#000" ><use class="Icon" transform="matrix(.91304 0 0 .91304 .45652 .45652)" width="10.5" height="10.5" fill="#c00" stroke="#000" xlink:href="#a"/></g><g class="SingleFreeNode Shape PhysicalEntity CellularComponent Cell" transform="translate(405.7 36.499)" color="#000" ><use class="Icon" transform="matrix(.91304 0 0 .91304 .45652 .45652)" width="10.5" height="10.5" fill="#c00" stroke="#000" xlink:href="#a"/></g><g class="SingleFreeNode Shape PhysicalEntity CellularComponent Cell" transform="translate(394.31 53.081)" color="#000" ><use class="Icon" transform="matrix(.91304 0 0 .91304 .45652 .45652)" width="10.5" height="10.5" fill="#c00" stroke="#000" xlink:href="#a"/></g><g class="SingleFreeNode Shape PhysicalEntity CellularComponent Cell" transform="translate(425.7 38.398)" color="#000" ><use class="Icon" transform="matrix(.91304 0 0 .91304 .45652 .45652)" width="10.5" height="10.5" fill="#c00" stroke="#000" xlink:href="#a"/></g><g class="SingleFreeNode Shape PhysicalEntity CellularComponent Cell" transform="translate(388.81 26.183)" color="#000" ><use class="Icon" transform="matrix(.91304 0 0 .91304 .45652 .45652)" width="10.5" height="10.5" fill="#c00" stroke="#000" xlink:href="#a"/></g><g class="SingleFreeNode Shape PhysicalEntity CellularComponent Cell" transform="translate(379.88 39.475)" color="#000" ><use class="Icon" transform="matrix(.91304 0 0 .91304 .45652 .45652)" width="10.5" height="10.5" fill="#c00" stroke="#000" xlink:href="#a"/></g><g class="SingleFreeNode Shape PhysicalEntity CellularComponent Cell" transform="translate(418.53 91.029)" color="#000" ><use class="Icon" transform="matrix(.91304 0 0 .91304 .45652 .45652)" width="10.5" height="10.5" fill="#c00" stroke="#000" xlink:href="#a"/></g><g class="SingleFreeNode Shape PhysicalEntity CellularComponent Cell" transform="translate(429.41 71.075)" color="#000" ><use class="Icon" transform="matrix(.91304 0 0 .91304 .45652 .45652)" width="10.5" height="10.5" fill="#c00" stroke="#000" xlink:href="#a"/></g><g class="SingleFreeNode Shape PhysicalEntity CellularComponent Cell" transform="translate(665.28 49.829)" color="#000" ><use class="Icon" transform="matrix(.91304 0 0 .91304 .45652 .45652)" width="10.5" height="10.5" fill="#c00" stroke="#000" xlink:href="#a"/></g><g class="SingleFreeNode Shape PhysicalEntity CellularComponent Cell" transform="translate(661.61 76.517)" color="#000" ><use class="Icon" transform="matrix(.91304 0 0 .91304 .45652 .45652)" width="10.5" height="10.5" fill="#c00" stroke="#000" xlink:href="#a"/></g><g class="SingleFreeNode Shape PhysicalEntity CellularComponent Cell" transform="translate(656.97 30.172)" color="#000" ><use class="Icon" transform="matrix(.91304 0 0 .91304 .45652 .45652)" width="10.5" height="10.5" fill="#c00" stroke="#000" xlink:href="#a"/></g><g class="SingleFreeNode Shape PhysicalEntity CellularComponent Cell" transform="translate(645.58 46.754)" color="#000" ><use class="Icon" transform="matrix(.91304 0 0 .91304 .45652 .45652)" width="10.5" height="10.5" fill="#c00" stroke="#000" xlink:href="#a"/></g><g class="SingleFreeNode Shape PhysicalEntity CellularComponent Cell" transform="translate(640.08 19.857)" color="#000" ><use class="Icon" transform="matrix(.91304 0 0 .91304 .45652 .45652)" width="10.5" height="10.5" fill="#c00" stroke="#000" xlink:href="#a"/></g><g class="SingleFreeNode Shape PhysicalEntity CellularComponent Cell" transform="translate(681.04 33.148)" color="#000" ><use class="Icon" transform="matrix(.91304 0 0 .91304 .45652 .45652)" width="10.5" height="10.5" fill="#c00" stroke="#000" xlink:href="#a"/></g><g id="ap" class="DirectedInteraction" color="#000" ><g color="#000" fill="transparent"  filter="url(#b)" stroke="#000" stroke-dasharray="74.9455053925073, 5.8"><path class="EdgeBody" d="m637.37 122.64-45.942-66.401"   marker-end="url(#c)" /></g></g><g class="Label" transform="translate(163,78)" color="#000"  name="Endocytosis of NP"><use class="Icon" width="131" height="20" fill="transparent"  stroke="#000" stroke-width="0" xlink:href="#d"/><text class="Text" transform="translate(65.5,13)"   font-size="10px"  text-anchor="middle"><tspan x="0" y="0">Endocytosis of NP</tspan></text></g><text class="Text" transform="translate(5,27)" dominant-baseline="central" fill="black"  font-size="12px" font-weight="bold" overflow="visible" ><tspan x="0" y="-9">Name: Nanoparticle-mediated activation of receptor signaling</tspan> <tspan x="0" y="9">Organism: Homo sapiens</tspan></text></g></svg>
