<?xml version="1.0" encoding="UTF-8"?>
<!--
  WikiPathways page: https://www.wikipathways.org/index.php/Pathway:WP272
  URL for this compressed file: https://github.com/eweitz/cachome/tree/main/data/wikipathways/WP272.svg
  Source code for compression: https://github.com/eweitz/cachome/tree/main/src/wikipathways.py
-->
<svg class="Diagram" width="800" height="600" color="black" baseProfile="full" prefix="schema:http://schema.org/" preserveAspectRatio="xMidYMid" version="1.1" viewBox="0 0 1286 1086.5" vocab="http://vocabularies.wikipathways.org/wp#" xmlns="http://www.w3.org/2000/svg" xmlns:xlink="http://www.w3.org/1999/xlink"><style>svg {font-family: 'Liberation Sans', Arial, sans-serif; }</style><defs><filter id="a" x="0" y="0" width="1286" height="1086.5" filterUnits="userSpaceOnUse"><feColorMatrix in="SourceGraphic" values="-1   0   0 0 0                   0  -1   0 0 0                   0   0  -1 0 0                   0   0   0 1 0"/></filter><marker id="b" stroke-dasharray="99999" markerHeight="12" markerUnits="userSpaceOnUse" markerWidth="12" orient="auto" preserveAspectRatio="none" refX="12" refY="6" viewBox="0 0 12 12"><path transform="rotate(180 6 6)" d="M12 11L0 6l12-5z" fill="currentColor" stroke-width="0"/></marker><marker id="d" stroke-dasharray="99999" markerHeight="12" markerUnits="userSpaceOnUse" markerWidth="12" orient="auto" preserveAspectRatio="none" refX="12" refY="6" viewBox="0 0 12 12"><circle transform="rotate(180 6 6)" cx="6" cy="6" r="5.3" fill="none" stroke="#000"/></marker><marker id="e" stroke-dasharray="99999" markerHeight="20" markerUnits="userSpaceOnUse" markerWidth="10" orient="auto" preserveAspectRatio="none" refX="10" refY="10" viewBox="0 0 10 20"><path d="m3 0v20" fill="currentColor" stroke="currentColor"/></marker><symbol id="f" overflow="visible" preserveAspectRatio="none" viewBox="0 0 100 100"><path d="M0 25L25 0h50l25 25v50l-25 25H25L0 75z" stroke="currentColor" vector-effect="non-scaling-stroke"/></symbol><symbol id="c" preserveAspectRatio="none" viewBox="0 0 100 100"/></defs><g class="Viewport" color="black"  name="Name: Blood clotting cascade License: CC BY 2.0 Last Modified: 10/17/2013 Organism: Homo sapiens"><rect class="Icon" width="1286" height="1086.5" fill="#fff" stroke="#000" stroke-width="0"/><g id="g" class="DirectedInteraction" color="#000" ><g color="#000" fill="transparent"  filter="url(#a)" stroke="#000" stroke-dasharray="37.17637568424148, 5.8"><path class="EdgeBody" d="m828.86 704.95v42.976"   marker-end="url(#b)" /></g></g><g id="h" class="DirectedInteraction" color="#000" ><g color="#000" fill="transparent"  filter="url(#a)" stroke="#000" stroke-dasharray="66.34750792278909, 5.8"><path class="EdgeBody" d="m460.86 684.26h72.148"   marker-end="url(#b)" /></g><g class="Burr Anchor" transform="translate(506.48 684.26)" ><use class="Icon" width="0" height="0" fill="#141414" stroke-width="0" xlink:href="#c"/></g></g><g id="i" class="DirectedInteraction" color="#000" ><g color="#000" fill="transparent"  filter="url(#a)" stroke="#000" stroke-dasharray="39.46973412674522, 5.8"><path class="EdgeBody" d="m828.86 766.92v45.27"   marker-end="url(#b)" /></g></g><g id="j" class="DirectedInteraction" color="#000" ><g color="#000" fill="transparent"  filter="url(#a)" stroke="#000" stroke-dasharray="217.56718819110708, 5.8"><path class="EdgeBody" d="m853.53 821.69 223.37-0.07883"   marker-end="url(#b)" /></g><g class="Burr Anchor" transform="translate(1021 821.63)" ><use class="Icon" width="0" height="0" fill="#141414" stroke-width="0" xlink:href="#c"/></g></g><g id="k" class="DirectedInteraction" color="#000" ><g color="#000" fill="transparent"  filter="url(#a)" stroke="#000" stroke-dasharray="27.334716616552054, 5.8"><path class="EdgeBody" d="m617.76 486.52-33.135 1e-13"   marker-end="url(#b)" /></g></g><g id="l" class="DirectedInteraction" color="#000" ><g color="#000" fill="transparent"  filter="url(#a)" stroke="#000" stroke-dasharray="25.851605728192066, 5.8"><path class="EdgeBody" d="m828.86 654.29v31.652"   marker-end="url(#b)" /></g></g><g id="m" class="DirectedInteraction" color="#000" ><g color="#000" fill="transparent"  filter="url(#a)" stroke="#000" stroke-dasharray="65.62624603860552, 5.8"><path class="EdgeBody" d="m191.74 435.33h71.426"   marker-end="url(#b)" /></g><g class="Burr Anchor" transform="translate(235.12 435.33)" ><use class="Icon" width="0" height="0" fill="#141414" stroke-width="0" xlink:href="#c"/></g></g><g id="n" class="DirectedInteraction" color="#000" ><g color="#000" fill="transparent"  filter="url(#a)" stroke="#000" stroke-dasharray="100.99213509674118, 5.8"><path class="EdgeBody" d="m234.24 542.12 0.87926-106.79"   marker-end="url(#b)" /></g></g><g id="o" class="Interaction" color="#000" ><g color="#000" fill="transparent"  filter="url(#a)" stroke="#000" stroke-dasharray="24.72019742826722, 11"><path class="EdgeBody" d="m1021.4 857.35-0.38465-35.718"   marker-end="url(#d)" /></g></g><g id="p" class="DirectedInteraction" color="#000" ><g color="#000" fill="transparent"  filter="url(#a)" stroke="#000" stroke-dasharray="26.471412722780723, 5.8"><path class="EdgeBody" d="m738.42 757.42h32.271"   marker-end="url(#b)" /></g></g><g id="q" class="DirectedInteraction" color="#000" ><g color="#000" fill="transparent"  filter="url(#a)" stroke="#000" stroke-dasharray="123.30760587726861, 5.8"><path class="EdgeBody" d="m221 337.6h129.11"   marker-end="url(#b)" /></g><g class="Burr Anchor" transform="translate(286.08 337.6)" ><use class="Icon" width="0" height="0" fill="#141414" stroke-width="0" xlink:href="#c"/></g></g><g id="r" class="Interaction" color="#000" ><g color="#000" fill="transparent"  filter="url(#a)" stroke="#000" stroke-dasharray="19.779217388819056, 11"><path class="EdgeBody" d="m286.78 306.83-0.69404 30.771"   marker-end="url(#d)" /></g></g><g id="s" class="DirectedInteraction" color="#000" ><g color="#000" fill="transparent"  filter="url(#a)" stroke="#000" stroke-dasharray="43.38696087256487, 5.8"><path class="EdgeBody" d="m140.07 555.58 49.178-0.95379"   marker-end="url(#b)" /></g></g><g id="t" class="DirectedInteraction" color="#000" ><g color="#000" fill="transparent"  filter="url(#a)" stroke="#000" stroke-dasharray="93.97873811581731, 5.8"><path class="EdgeBody" d="m140.33 297.33h99.779"   marker-end="url(#b)" /></g><g class="Burr Anchor" transform="translate(196.23 297.33)" ><use class="Icon" width="0" height="0" fill="#141414" stroke-width="0" xlink:href="#c"/></g></g><g id="u" class="Interaction" color="#000" ><g color="#000" fill="transparent"  filter="url(#a)" stroke="#000" stroke-dasharray="49.501602150413554, 11"><path class="EdgeBody" d="m196.67 236.83-0.4403 60.5"   marker-end="url(#d)" /></g></g><g id="v" class="Interaction" color="#000" ><g color="#000" fill="transparent"  filter="url(#a)" stroke="#000" stroke-dasharray="50.723433306784045, 7"><path class="EdgeBody" d="m1111.3 867.35h-57.723"   marker-end="url(#e)" /></g></g><g id="w" class="DirectedInteraction" color="#000" ><g color="#000" fill="transparent"  filter="url(#a)" stroke="#000" stroke-dasharray="194.5107947689729, 5.8"><path class="EdgeBody" d="m828.86 831.19-1.0856 200.31"   marker-end="url(#b)" /></g></g><g id="x" class="DirectedInteraction" color="#000" ><g color="#000" fill="transparent"  filter="url(#a)" stroke="#000" stroke-dasharray="38.840729850021674, 5.8"><path class="EdgeBody" d="m944.56 867.35h44.641"   marker-end="url(#b)" /></g><g class="Burr Anchor" transform="translate(962.42 867.35)" ><use class="Icon" width="0" height="0" fill="#141414" stroke-width="0" xlink:href="#c"/></g></g><g id="y" class="Interaction" color="#000" ><g color="#000" fill="transparent"  filter="url(#a)" stroke="#000" stroke-dasharray="47.862773739470484, 11"><path class="EdgeBody" d="m924.85 912.66 37.57-45.313"   marker-end="url(#d)" /></g></g><g id="z" class="Interaction" color="#000" ><g color="#000" fill="transparent"  filter="url(#a)" stroke="#000" stroke-dasharray="44.490527275465354, 11"><path class="EdgeBody" d="m993.97 913-31.55-45.648"   marker-end="url(#d)" /></g></g><g id="aa" class="Interaction" color="#000" ><g color="#000" fill="transparent"  filter="url(#a)" stroke="#000" stroke-dasharray="35.740777707932686, 11"><path class="EdgeBody" d="m506.5 637.52-0.017718 46.741"   marker-end="url(#d)" /></g></g><g id="ab" class="DirectedInteraction" color="#000" ><g color="#000" fill="transparent"  filter="url(#a)" stroke="#000" stroke-dasharray="42.240542032757425, 5.8"><path class="EdgeBody" d="m548.28 496.52-10.031 46.982"   marker-end="url(#b)" /></g></g><g id="ac" class="DirectedInteraction" color="#000" ><g color="#000" fill="transparent"  filter="url(#a)" stroke="#000" stroke-dasharray="41.883452739303394, 5.8"><path class="EdgeBody" d="m466.6 496.52 8.1516 46.982"   marker-end="url(#b)" /></g></g><g id="ad" class="Interaction" color="#000" ><g color="#000" fill="transparent"  filter="url(#a)" stroke="#000" stroke-dasharray="43.04590727877892, 7"><path class="EdgeBody" d="m957.44 970.64-32.595-37.976"   marker-end="url(#e)" /></g></g><g id="ae" class="Interaction" color="#000" ><g color="#000" fill="transparent"  filter="url(#a)" stroke="#000" stroke-dasharray="45.44982119695819, 7"><path class="EdgeBody" d="m957.44 970.64 36.526-37.641"   marker-end="url(#e)" /></g></g><g id="af" class="DirectedInteraction" color="#000" ><g color="#000" fill="transparent"  filter="url(#a)" stroke="#000" stroke-dasharray="53.7834523465564, 5.8"><path class="EdgeBody" d="m370.63 485.81 59.579 0.71325"   marker-end="url(#b)" /></g><g class="Burr Anchor" transform="translate(403.86 486.2)" ><use class="Icon" width="0" height="0" fill="#141414" stroke-width="0" xlink:href="#c"/></g><g class="Burr Anchor" transform="translate(394.46 486.09)" ><use class="Icon" width="0" height="0" fill="#141414" stroke-width="0" xlink:href="#c"/></g></g><g id="ag" class="DirectedInteraction" color="#000" ><g color="#000" fill="transparent"  filter="url(#a)" stroke="#000" stroke-dasharray="38.70124842193881, 5.8"><path class="EdgeBody" d="m109 227 44.5 0.33333"   marker-end="url(#b)" /></g></g><g id="ah" class="DirectedInteraction" color="#000" ><g color="#000" fill="transparent"  filter="url(#a)" stroke="#000" stroke-dasharray="90.7326769165357, 5.8"><path class="EdgeBody" d="m523.07 757.82 96.532-0.40156"   marker-end="url(#b)" /></g><g class="Burr Anchor" transform="translate(589.45 757.55)" ><use class="Icon" width="0" height="0" fill="#141414" stroke-width="0" xlink:href="#c"/></g></g><g id="ai" class="Interaction" color="#000" ><g color="#000" fill="transparent"  filter="url(#a)" stroke="#000" stroke-dasharray="56.80907505610945, 11"><path class="EdgeBody" d="m349.5 435.33 44.964 50.757"   marker-end="url(#d)" /></g></g><g id="aj" class="Interaction" color="#000" ><g color="#000" fill="transparent"  filter="url(#a)" stroke="#000" stroke-dasharray="86.64362921397579, 11"><path class="EdgeBody" d="m453.38 408.23-58.918 77.865"   marker-end="url(#d)" /></g></g><g id="ak" class="Interaction" color="#000" ><g color="#000" fill="transparent"  filter="url(#a)" stroke="#000" stroke-dasharray="127.98615441254148, 11"><path class="EdgeBody" d="m394.15 347.1 0.30925 138.99"   marker-end="url(#d)" /></g></g><g id="al" class="DirectedInteraction" color="#000" ><g color="#000" fill="transparent"  filter="url(#a)" stroke="#000" stroke-dasharray="45.94436217898595, 5.8"><path class="EdgeBody" d="m654.62 263.77-51.744 0.23153"   marker-end="url(#b)" /></g></g><g id="am" class="DirectedInteraction" color="#000" ><g color="#000" fill="transparent"  filter="url(#a)" stroke="#000" stroke-dasharray="179.5813876052615, 5.8"><path class="EdgeBody" d="m513.54 264h-60.156v125.23"   marker-end="url(#b)" /></g></g><g id="an" class="Interaction" color="#000" ><g color="#000" fill="transparent"  filter="url(#a)" stroke="#000" stroke-dasharray="52.2889798446201, 11"><path class="EdgeBody" d="m589.66 694.26-0.21602 63.289"   marker-end="url(#d)" /></g></g><a  class="GeneProduct F12 " transform="translate(153.5 217.83)"   name="Factor XIIa"  ><rect class="Icon" transform="matrix(.98855 0 0 .95 .49427 .475)" width="86.333" height="19" fill="#fff" stroke="#000"/><text class="Text" transform="translate(43.167 13.5)"   font-size="12px" font-weight="bold"  text-anchor="middle"><tspan x="0" y="0">Factor XIIa</tspan></text></a><g class="Label" transform="translate(770.7 747.92)" color="#000"  name="Fibrin Polymer"><use class="Icon" width="116.33333333333333" height="19" fill="transparent"  stroke="#000" stroke-width="0" xlink:href="#c"/><text class="Text" transform="translate(58.167 13.5)"   font-size="12px" font-weight="bold"  text-anchor="middle"><tspan x="0" y="0">Fibrin Polymer</tspan></text></g><a  class="GeneProduct F13B " transform="translate(783.7 685.95)"   name="Factor XIIIa"  ><rect class="Icon" transform="matrix(.98905 0 0 .95 .49453 .475)" width="90.333" height="19" fill="#fff" stroke="#000"/><text class="Text" transform="translate(45.167 13.5)"   font-size="12px" font-weight="bold"  text-anchor="middle"><tspan x="0" y="0">Factor XIIIa</tspan></text></a><g class="Label" transform="translate(45.922 131.83)" color="#ff9900"  name="Intrinsic Pathway"><rect class="Icon" transform="matrix(.99272 0 0 .95862 .49636 .47931)" width="136.33" height="23.167" fill="#fff" stroke="#f90"/><text class="Text" transform="translate(68.167 15.583)" fill="#ff9900"  font-size="12px" font-weight="bold" stroke="black" stroke-width="0" text-anchor="middle"><tspan x="0" y="0">Intrinsic Pathway</tspan></text></g><a  class="GeneProduct F9 " transform="translate(350.11 328.1)"   name="Factor IXa"  ><rect class="Icon" transform="matrix(.98878 0 0 .95 .49439 .475)" width="88.095" height="19" fill="#fff" stroke="#000"/><text class="Text" transform="translate(44.047 13.5)"   font-size="12px" font-weight="bold"  text-anchor="middle"><tspan x="0" y="0">Factor IXa</tspan></text></a><a  class="GeneProduct F8 " transform="translate(405.27 389.23)"   name="Factor VIIIa"  ><rect class="Icon" transform="matrix(.98971 0 0 .95 .49486 .475)" width="96.22" height="19" fill="#fff" stroke="#000"/><text class="Text" transform="translate(48.11 13.5)"   font-size="12px" font-weight="bold"  text-anchor="middle"><tspan x="0" y="0">Factor VIIIa</tspan></text></a><g class="Label" transform="translate(58.922 663.05)" color="#ff9900"  name="Thrombolysis"><rect class="Icon" transform="matrix(.99102 0 0 .95745 .49551 .47872)" width="110.33" height="22.5" fill="#fff" stroke="#f90"/><text class="Text" transform="translate(55.167 15.25)" fill="#ff9900"  font-size="12px" font-weight="bold" stroke="black" stroke-width="0" text-anchor="middle"><tspan x="0" y="0">Thrombolysis</tspan></text></g><a  class="GeneProduct F11 " transform="translate(245.61 287.83)"   name="Factor XIa"  ><rect class="Icon" transform="matrix(.988 0 0 .95 .494 .475)" width="82.333" height="19" fill="#fff" stroke="#000"/><text class="Text" transform="translate(41.167 13.5)"   font-size="12px" font-weight="bold"  text-anchor="middle"><tspan x="0" y="0">Factor XIa</tspan></text></a><g class="Label" transform="translate(42.922 375.36)" color="#ff9900"  name="Extrinsic Pathway"><rect class="Icon" transform="matrix(.99302 0 0 .95745 .49651 .47872)" width="142.33" height="22.5" fill="#fff" stroke="#f90"/><text class="Text" transform="translate(71.167 15.25)" fill="#ff9900"  font-size="12px" font-weight="bold" stroke="black" stroke-width="0" text-anchor="middle"><tspan x="0" y="0">Extrinsic Pathway</tspan></text></g><a  class="GeneProduct F7 " transform="translate(263.17 425.83)"   name="Factor VIIa"  ><rect class="Icon" transform="matrix(.98855 0 0 .95 .49427 .475)" width="86.333" height="19" fill="#fff" stroke="#000"/><text class="Text" transform="translate(43.167 13.5)"   font-size="12px" font-weight="bold"  text-anchor="middle"><tspan x="0" y="0">Factor VIIa</tspan></text></a><g class="Label" transform="translate(53.399 546.08)" color="#000"  name="Tissue Injury"><use class="Icon" width="86.66666666666667" height="19" fill="transparent"  stroke="#000" stroke-width="0" xlink:href="#c"/><text class="Text" transform="translate(43.333 13.5)"   font-size="12px" font-weight="bold"  text-anchor="middle"><tspan x="0" y="0">Tissue Injury</tspan></text></g><g class="Label" transform="translate(1076.9 811.53)" color="#000"  name="Fibrin Degradation Products"><use class="Icon" width="179.10377262675775" height="20.166666666666668" fill="transparent"  stroke="#000" stroke-width="0" xlink:href="#c"/><text class="Text" transform="translate(89.552 14.083)"   font-size="12px" font-weight="bold"  text-anchor="middle"><tspan x="0" y="0">Fibrin Degradation Products</tspan></text></g><g class="Label" transform="translate(1136.8 366.57)" color="#000" ><use class="Icon" width="14.333333333333334" height="19" fill="transparent"  stroke="#000" stroke-width="0" xlink:href="#c"/></g><g class="Label" transform="translate(234.44 793.44)" color="#000" ><use class="Icon" width="14.333333333333334" height="19" fill="transparent"  stroke="#000" stroke-width="0" xlink:href="#c"/></g><g class="Label" transform="translate(619.61 747.92)" color="#000"  name="Fibrin Monomer"><use class="Icon" width="118.81886509970836" height="19" fill="transparent"  stroke="#000" stroke-width="0" xlink:href="#c"/><text class="Text" transform="translate(59.409 13.5)"   font-size="12px" font-weight="bold"  text-anchor="middle"><tspan x="0" y="0">Fibrin Monomer</tspan></text></g><g class="GroupComplex" transform="translate(443,543.5)" color="grey" ><use class="Icon" transform="matrix(.99219 0 0 .98948 .49609 .49474)" width="127" height="94.01848490959173" fill="#b4b464" fill-opacity=".1" stroke="grey" xlink:href="#f"/><g class="Label" transform="translate(12,12)" color="#000"  name="Prothrombinase  complex"><use class="Icon" width="103" height="25" fill="transparent"  stroke="#000" stroke-width="0" xlink:href="#c"/><text class="Text" transform="translate(51.5,16.5)"   font-size="12px" font-weight="bold"  text-anchor="middle"><tspan x="0" y="-6.6000000000000005">Prothrombinase </tspan> <tspan x="0" y="6.6000000000000005">complex</tspan></text></g><a  class="GeneProduct F5 " transform="translate(25.257 62.018)"   name="Factor Va"  ><rect class="Icon" transform="matrix(.98643 0 0 .95238 .49321 .47619)" width="72.682" height="20" fill="#fff" stroke="#000"/><text class="Text" transform="translate(36.341 14)"   font-size="12px"  text-anchor="middle"><tspan x="0" y="0">Factor Va</tspan></text></a><a  class="GeneProduct F10 " transform="translate(25.212 42.018)"   name="Factor Xa"  ><rect class="Icon" transform="matrix(.98644 0 0 .95238 .49322 .47619)" width="72.773" height="20" fill="#fff" stroke="#000"/><text class="Text" transform="translate(36.387 14)"   font-size="12px"  text-anchor="middle"><tspan x="0" y="0">Factor Xa</tspan></text></a></g><a  class="GeneProduct F2 " transform="translate(400.86 674.26)"   name="Factor II"  ><rect class="Icon" transform="matrix(.98361 0 0 .95238 .4918 .47619)" width="60" height="20" fill="#fff" stroke="#000"/><text class="Text" transform="translate(30,13)"   font-size="10px"  text-anchor="middle"><tspan x="0" y="0">Factor II</tspan></text></a><a class="ChEBI_CHEBI_5054 Metabolite  " transform="translate(804.2 812.19)" color="#00f"  name="Fibrin"  ><rect class="Icon" transform="matrix(.98013 0 0 .95 .49007 .475)" width="49.333" height="19" fill="#fff" stroke="#00f"/><text class="Text" transform="translate(24.667 12.5)" fill="#00f"  font-size="10px"  text-anchor="middle"><tspan x="0" y="0">Fibrin</tspan></text></a><a  class="GeneProduct PLG " transform="translate(880.2 857.35)"   name="Plasminogen"  ><rect class="Icon" transform="matrix(.9847 0 0 .95238 .49235 .47619)" width="64.359" height="20" fill="#fff" stroke="#000"/><text class="Text" transform="translate(32.18 13)"   font-size="10px"  text-anchor="middle"><tspan x="0" y="0">Plasminogen</tspan></text></a><a  class="GeneProduct F3 " transform="translate(189.24 542.12)"   name="Tissue Factor"  ><rect class="Icon" transform="matrix(.98901 0 0 .96154 .49451 .48077)" width="90" height="25" fill="#fff" stroke="#000"/><text class="Text" transform="translate(45,16.5)"   font-size="12px"  text-anchor="middle"><tspan x="0" y="0">Tissue Factor</tspan></text></a><a  class="GeneProduct F5 " transform="translate(511.94 476.52)"   name="Factor Va"  ><rect class="Icon" transform="matrix(.98643 0 0 .95238 .49321 .47619)" width="72.682" height="20" fill="#fff" stroke="#000"/><text class="Text" transform="translate(36.341 14)"   font-size="12px" font-weight="bold"  text-anchor="middle"><tspan x="0" y="0">Factor Va</tspan></text></a><a  class="GeneProduct F9 " transform="translate(161 327.6)"   name="Factor IX"  ><rect class="Icon" transform="matrix(.98361 0 0 .95238 .4918 .47619)" width="60" height="20" fill="#fff" stroke="#000"/><text class="Text" transform="translate(30,13)"   font-size="10px"  text-anchor="middle"><tspan x="0" y="0">Factor IX</tspan></text></a><a  class="GeneProduct F2 " transform="translate(533.01 674.26)"   name="Thrombin (II)"  ><rect class="Icon" transform="matrix(.99125 0 0 .95238 .49563 .47619)" width="113.3" height="20" fill="#fff" stroke="#000"/><text class="Text" transform="translate(56.651 14)"   font-size="12px" font-weight="bold"  text-anchor="middle"><tspan x="0" y="0">Thrombin (II)</tspan></text></a><a  class="GeneProduct PLAU " transform="translate(968 913)"   name="PLAU"  ><rect class="Icon" transform="matrix(.98111 0 0 .95238 .49056 .47619)" width="51.94" height="20" fill="#fff" stroke="#000"/><text class="Text" transform="translate(25.97 13)"   font-size="10px"  text-anchor="middle"><tspan x="0" y="0">PLAU</tspan></text></a><a  class="GeneProduct VWF " transform="translate(654.62 253.77)"   name="VWF"  ><rect class="Icon" transform="matrix(.98361 0 0 .95238 .4918 .47619)" width="60" height="20" fill="#fff" stroke="#000"/><text class="Text" transform="translate(30,13)"   font-size="10px"  text-anchor="middle"><tspan x="0" y="0">VWF</tspan></text></a><a  class="GeneProduct F5 " transform="translate(617.76 476.52)"   name="Factor V"  ><rect class="Icon" transform="matrix(.98361 0 0 .95238 .4918 .47619)" width="60" height="20" fill="#fff" stroke="#000"/><text class="Text" transform="translate(30,13)"   font-size="10px"  text-anchor="middle"><tspan x="0" y="0">Factor V</tspan></text></a><a  class="GeneProduct F13B " transform="translate(793.84 634.29)"   name="Factor XIIIb"  ><rect class="Icon" transform="matrix(.98593 0 0 .95238 .49296 .47619)" width="70.052" height="20" fill="#fff" stroke="#000"/><text class="Text" transform="translate(35.026 13)"   font-size="10px"  text-anchor="middle"><tspan x="0" y="0">Factor XIIIb</tspan></text></a><a  class="GeneProduct F10 " transform="translate(430.21 476.52)"   name="Factor Xa"  ><rect class="Icon" transform="matrix(.98644 0 0 .95238 .49322 .47619)" width="72.773" height="20" fill="#fff" stroke="#000"/><text class="Text" transform="translate(36.387 14)"   font-size="12px" font-weight="bold"  text-anchor="middle"><tspan x="0" y="0">Factor Xa</tspan></text></a><a  class="GeneProduct F11 " transform="translate(80.333 287.33)"   name="Factor XI"  ><rect class="Icon" transform="matrix(.98361 0 0 .95238 .4918 .47619)" width="60" height="20" fill="#fff" stroke="#000"/><text class="Text" transform="translate(30,13)"   font-size="10px"  text-anchor="middle"><tspan x="0" y="0">Factor XI</tspan></text></a><a  class="GeneProduct SERPINF2 " transform="translate(1111.3 857.35)"   name="SERPINF2"  ><rect class="Icon" transform="matrix(.98655 0 0 .95238 .49327 .47619)" width="73.333" height="20" fill="#fff" stroke="#000"/><text class="Text" transform="translate(36.667 13)"   font-size="10px"  text-anchor="middle"><tspan x="0" y="0">SERPINF2</tspan></text></a><a  class="GeneProduct PLAT " transform="translate(901 912.66)"   name="tPA"  ><rect class="Icon" transform="matrix(.97947 0 0 .95238 .48973 .47619)" width="47.699" height="20" fill="#fff" stroke="#000"/><text class="Text" transform="translate(23.849 13)"   font-size="10px"  text-anchor="middle"><tspan x="0" y="0">tPA</tspan></text></a><a class="WikiPathways_WP4136 Pathway " transform="translate(758.78 1031.5)" color="#14961e"  name="Fibrin Complement  Receptor 3 Signaling"  ><rect class="Icon" transform="matrix(.99281 0 0 .96154 .4964 .48077)" width="138" height="25" rx="15" ry="15" fill="#fff" stroke="#14961e"/><text class="Text" transform="translate(69,16.5)" fill="#14961e"  font-size="12px" font-weight="bold" stroke="black" stroke-width="0" text-anchor="middle"><tspan x="0" y="-6.6000000000000005">Fibrin Complement </tspan> <tspan x="0" y="6.6000000000000005">Receptor 3 Signaling</tspan></text></a><a  class="GeneProduct F7 " transform="translate(131.74 425.33)"   name="Factor VII"  ><rect class="Icon" transform="matrix(.98361 0 0 .95238 .4918 .47619)" width="60" height="20" fill="#fff" stroke="#000"/><text class="Text" transform="translate(30,13)"   font-size="10px"  text-anchor="middle"><tspan x="0" y="0">Factor VII</tspan></text></a><g class="GroupNone" transform="translate(917.5 969.64)" color="grey" ><rect class="Icon" transform="matrix(.98764 0 0 .98305 .49382 .49153)" width="79.888" height="58" fill="#b4b464" fill-opacity=".1" stroke="grey" stroke-dasharray="5,3"/><a  class="GeneProduct SERPINB2 " transform="translate(9,29)"   name="SERPINB2"  ><rect class="Icon" transform="matrix(.9841 0 0 .95238 .49205 .47619)" width="61.888" height="20" fill="#fff" stroke="#000"/><text class="Text" transform="translate(30.944 13)"   font-size="10px"  text-anchor="middle"><tspan x="0" y="0">SERPINB2</tspan></text></a><a  class="GeneProduct SERPINE1 " transform="translate(9,9)"   name="SERPINE1"  ><rect class="Icon" transform="matrix(.9841 0 0 .95238 .49205 .47619)" width="61.888" height="20" fill="#fff" stroke="#000"/><text class="Text" transform="translate(30.944 13)"   font-size="10px"  text-anchor="middle"><tspan x="0" y="0">SERPINE1</tspan></text></a></g><g class="GroupNone" transform="translate(293.63 456.81)" color="grey" ><rect class="Icon" transform="matrix(.98734 0 0 .98305 .49367 .49153)" width="78" height="58" fill="#b4b464" fill-opacity=".1" stroke="grey" stroke-dasharray="5,3"/><a  class="GeneProduct F10 " transform="translate(9 29)"   name="Factor X"  ><rect class="Icon" transform="matrix(.98361 0 0 .95238 .4918 .47619)" width="60" height="20" fill="#fff" stroke="#000"/><text class="Text" transform="translate(30,13)"   font-size="10px"  text-anchor="middle"><tspan x="0" y="0">Factor X</tspan></text></a><a  class="GeneProduct F10 " transform="translate(9,9)"   name="Factor X"  ><rect class="Icon" transform="matrix(.98361 0 0 .95238 .4918 .47619)" width="60" height="20" fill="#fff" stroke="#000"/><text class="Text" transform="translate(30,13)"   font-size="10px"  text-anchor="middle"><tspan x="0" y="0">Factor X</tspan></text></a></g><g class="GroupGroup" transform="translate(13,179)" color="grey" ><use class="Icon" width="96" height="96" fill="transparent"  stroke="grey" stroke-dasharray="5,3" stroke-width="0" xlink:href="#c"/><a  class="GeneProduct F12 " transform="translate(8,28)"   name="Factor XII"  ><rect class="Icon" transform="matrix(.98765 0 0 .95238 .49383 .47619)" width="80" height="20" fill="#fff" stroke="#000"/><text class="Text" transform="translate(40,13)"   font-size="10px"  text-anchor="middle"><tspan x="0" y="0">Factor XII</tspan></text></a><a  class="GeneProduct KLKB1 " transform="translate(8,8)"   name="KLKB1"  ><rect class="Icon" transform="matrix(.98765 0 0 .95238 .49383 .47619)" width="80" height="20" fill="#fff" stroke="#000"/><text class="Text" transform="translate(40,13)"   font-size="10px"  text-anchor="middle"><tspan x="0" y="0">KLKB1</tspan></text></a><a class="Metabolite " transform="translate(8,48)" color="#00f"  name="Zinc"  ><rect class="Icon" transform="matrix(.98765 0 0 .95238 .49383 .47619)" width="80" height="20" fill="#fff" stroke="#00f"/><text class="Text" transform="translate(40,13)" fill="#00f"  font-size="10px"  text-anchor="middle"><tspan x="0" y="0">Zinc</tspan></text></a><a  class="GeneProduct KLK1 " transform="translate(8,68)"   name="KLK1"  ><rect class="Icon" transform="matrix(.98765 0 0 .95238 .49383 .47619)" width="80" height="20" fill="#fff" stroke="#000"/><text class="Text" transform="translate(40,13)"   font-size="10px"  text-anchor="middle"><tspan x="0" y="0">KLK1</tspan></text></a></g><g class="GroupNone" transform="translate(446.07 718.82)" color="grey" ><rect class="Icon" transform="matrix(.98734 0 0 .98734 .49367 .49367)" width="78" height="78" fill="#b4b464" fill-opacity=".1" stroke="grey" stroke-dasharray="5,3"/><a  class="GeneProduct FGG " transform="translate(9,49)"   name="FGG"  ><rect class="Icon" transform="matrix(.98361 0 0 .95238 .4918 .47619)" width="60" height="20" fill="#fff" stroke="#000"/><text class="Text" transform="translate(30,13)"   font-size="10px"  text-anchor="middle"><tspan x="0" y="0">FGG</tspan></text></a><a  class="GeneProduct FGB " transform="translate(9,29)"   name="FGB"  ><rect class="Icon" transform="matrix(.98361 0 0 .95238 .4918 .47619)" width="60" height="20" fill="#fff" stroke="#000"/><text class="Text" transform="translate(30,13)"   font-size="10px"  text-anchor="middle"><tspan x="0" y="0">FGB</tspan></text></a><a  class="GeneProduct FGA " transform="translate(9,9)"   name="FGA"  ><rect class="Icon" transform="matrix(.98361 0 0 .95238 .4918 .47619)" width="60" height="20" fill="#fff" stroke="#000"/><text class="Text" transform="translate(30,13)"   font-size="10px"  text-anchor="middle"><tspan x="0" y="0">FGA</tspan></text></a></g><g class="GroupNone" transform="translate(512.54 235)" color="grey" ><rect class="Icon" transform="matrix(.98917 0 0 .98305 .49458 .49153)" width="91.333" height="58" fill="#b4b464" fill-opacity=".1" stroke="grey" stroke-dasharray="5,3"/><g class="GeneProduct F8A1 " transform="translate(9 29)" color="#000"  name="Factor VIII A1"><rect class="Icon" transform="matrix(.98655 0 0 .95238 .49327 .47619)" width="73.333" height="20" fill="#fff" stroke="#000"/><text class="Text" transform="translate(36.667 13)"   font-size="10px"  text-anchor="middle"><tspan x="0" y="0">Factor VIII A1</tspan></text></g><a  class="GeneProduct F8 " transform="translate(9,9)"   name="Factor VIII"  ><rect class="Icon" transform="matrix(.98655 0 0 .95238 .49327 .47619)" width="73.333" height="20" fill="#fff" stroke="#000"/><text class="Text" transform="translate(36.667 13)"   font-size="10px"  text-anchor="middle"><tspan x="0" y="0">Factor VIII</tspan></text></a></g><a  class="GeneProduct PLG " transform="translate(989.2 857.35)"   name="Plasmin"  ><rect class="Icon" transform="matrix(.9847 0 0 .95238 .49235 .47619)" width="64.359" height="20" fill="#fff" stroke="#000"/><text class="Text" transform="translate(32.18 13)"   font-size="10px"  text-anchor="middle"><tspan x="0" y="0">Plasmin</tspan></text></a><text class="Text" transform="translate(5,45)" dominant-baseline="central" fill="black"  font-size="12px" font-weight="bold" overflow="visible" ><tspan x="0" y="-27">Name: Blood clotting cascade</tspan> <tspan x="0" y="-9">License: CC BY 2.0</tspan> <tspan x="0" y="9">Last Modified: 10/17/2013</tspan> <tspan x="0" y="27">Organism: Homo sapiens</tspan></text></g></svg>
