<?xml version="1.0" encoding="UTF-8"?>
<!--
  WikiPathways page: https://www.wikipathways.org/index.php/Pathway:WP2815
  URL for this compressed file: https://github.com/eweitz/cachome/tree/main/data/wikipathways/WP2815.svg
  Source code for compression: https://github.com/eweitz/cachome/tree/main/src/wikipathways.py
-->
<svg class="Diagram" width="800" height="600" color="black" baseProfile="full" prefix="schema:http://schema.org/" preserveAspectRatio="xMidYMid" version="1.1" viewBox="0 0 724.35 431.98" vocab="http://vocabularies.wikipathways.org/wp#" xmlns="http://www.w3.org/2000/svg" xmlns:xlink="http://www.w3.org/1999/xlink"><style>svg {font-family: 'Liberation Sans', Arial, sans-serif; }</style><defs><filter id="c" x="-50%" y="-50%" width="200%" height="200%"><feComposite in="SourceGraphic" in2="SourceGraphic" result="doubleDark"/><feMorphology in="doubleDark" operator="dilate" radius="0.5" result="in2Double"/><feMorphology in="SourceGraphic" operator="dilate" radius="1" result="inDouble"/><feComposite in="inDouble" in2="in2Double" operator="out" result="doubleResult"/></filter><filter id="a" x="0" y="0" width="724.35" height="431.98" filterUnits="userSpaceOnUse"><feColorMatrix in="SourceGraphic" values="-1   0   0 0 0                   0  -1   0 0 0                   0   0  -1 0 0                   0   0   0 1 0"/></filter><filter id="f" x="0" y="0" width="724.35" height="431.98" filterUnits="userSpaceOnUse"><feColorMatrix in="SourceGraphic" values="-1   0   0 0 0.6                   0  -1   0 0 0.6                   0   0  -1 0 0.6                   0   0   0 1 0"/></filter><marker id="d" stroke-dasharray="99999" markerHeight="12" markerUnits="userSpaceOnUse" markerWidth="12" orient="auto" preserveAspectRatio="none" refY="6" viewBox="0 0 12 12"><path d="M12 11L0 6l12-5z" fill="currentColor" stroke-width="0"/></marker><marker id="b" stroke-dasharray="99999" markerHeight="12" markerUnits="userSpaceOnUse" markerWidth="12" orient="auto" preserveAspectRatio="none" refX="12" refY="6" viewBox="0 0 12 12"><path transform="rotate(180 6 6)" d="M12 11L0 6l12-5z" fill="currentColor" stroke-width="0"/></marker><marker id="e" stroke-dasharray="99999" markerHeight="20" markerUnits="userSpaceOnUse" markerWidth="10" orient="auto" preserveAspectRatio="none" refX="10" refY="10" viewBox="0 0 10 20"><path d="m3 0v20" fill="currentColor" stroke="currentColor"/></marker></defs><g class="Viewport" color="black"  name="Name: Mammary gland development pathway - Involution (Stage 4 of 4) Organism: Homo sapiens"><rect class="Icon" width="724.35" height="431.98" fill="#fff" stroke="#000" stroke-width="0"/><g id="g" class="Edge GraphicalLine" color="#000" ><g color="#000" fill="transparent"  filter="url(#a)" stroke="#000" stroke-dasharray="200, 0"><g   filter="url(#c)" stroke="inherit" ><path class="EdgeBody" d="m114 100v200"   /></g></g></g><g id="h" class="DirectedInteraction" color="#000" ><g color="#000" fill="transparent"  filter="url(#a)" stroke="#000" stroke-dasharray="5.21, 3.12, 5.21, 3.12, 5.21, 3.12, 5.21, 5.8"><path class="EdgeBody" d="m457.5 200h36"   marker-end="url(#b)" /></g></g><g id="i" class="DirectedInteraction" color="#000" ><g color="#000" fill="transparent"  filter="url(#a)" stroke="#000" stroke-dasharray="16.315103397740632, 5.8"><path class="EdgeBody" d="m538.5 200 22.093 0.97814"   marker-end="url(#b)" /></g></g><g id="j" class="Edge GraphicalLine" color="#000" ><g color="#000" fill="transparent"  filter="url(#a)" stroke="#000" stroke-dasharray="200, 0"><g   filter="url(#c)" stroke="inherit" ><path class="EdgeBody" d="m150 100v200"   /></g></g></g><g id="k" class="Inhibition" color="#000" ><g color="#000" fill="transparent"  filter="url(#a)" stroke="#000" stroke-dasharray="29, 7"><path class="EdgeBody" d="m73.5 200h36"   marker-end="url(#e)" /></g></g><g id="l" class="Edge GraphicalLine" color="#999" ><g color="#999" fill="transparent"  filter="url(#f)" stroke="#000" stroke-dasharray="5.08, 3.05, 5.08, 3.05, 5.08, 3.05, 5.08, 3.05, 5.08, 3.05, 5.08, 3.05, 5.08, 3.05, 5.08, 3.05, 5.08, 3.05, 5.08, 3.05, 5.08, 3.05, 5.08, 3.05, 5.08, 3.05, 5.08, 3.05, 5.08, 3.05, 5.08, 3.05, 5.08, 3.05, 5.08, 3.05, 5.08, 3.05, 5.08, 3.05, 5.08, 3.05, 5.08, 3.05, 5.08, 3.05, 5.08, 3.05, 5.08, 0" stroke-width="3"><path class="EdgeBody" d="m200 100v200"   /></g></g><g id="m" class="DirectedInteraction" color="#000" ><g color="#000" fill="transparent"  filter="url(#a)" stroke="#000" stroke-dasharray="12.844838420281025, 5.8"><path class="EdgeBody" d="m250.5 200 18.644 0.21766"   marker-end="url(#b)" /></g></g><g id="n" class="DirectedInteraction" color="#000" ><g color="#000" fill="transparent"  filter="url(#a)" stroke="#000" stroke-dasharray="66.27063409310709, 5.8"><path class="EdgeBody" d="m602.75 200.98 46.6-54.978"   marker-end="url(#b)" /></g></g><g id="o" class="DirectedInteraction" color="#000" ><g color="#000" fill="transparent"  filter="url(#a)" stroke="#000" stroke-dasharray="30.2, 5.8"><path class="EdgeBody" d="m51 191v-36"   marker-end="url(#b)" /></g></g><g id="p" class="DirectedInteraction" color="#000" ><g color="#000" fill="transparent"  filter="url(#a)" stroke="#000" stroke-dasharray="391.2, 5.8"><path class="EdgeBody" d="m132 263v20h303v-74"   marker-end="url(#b)" /></g></g><g id="q" class="DirectedInteraction" color="#000" ><g color="#000" fill="transparent"  filter="url(#a)" stroke="#000" stroke-dasharray="40.810477789161574, 5.8"><path class="EdgeBody" d="m602.75 200.98 46.6-0.97814"   marker-end="url(#b)" /></g></g><g id="r" class="DirectedInteraction" color="#000" ><g color="#000" fill="transparent"  filter="url(#a)" stroke="#000" stroke-dasharray="26.2, 5.8"><path class="EdgeBody" d="m497.5 70h32"   marker-end="url(#b)" /></g></g><g id="s" class="DirectedInteraction" color="#000" ><g color="#000" fill="transparent"  filter="url(#a)" stroke="#000" stroke-dasharray="26.2, 5.8"><path class="EdgeBody" d="m330.5 70h32"   marker-end="url(#b)" /></g></g><g id="t" class="DirectedInteraction" color="#000" ><g color="#000" fill="transparent"  filter="url(#a)" stroke="#000" stroke-dasharray="64.78963791439448, 5.8"><path class="EdgeBody" d="m602.75 200.98 46.6 53.022"   marker-end="url(#b)" /></g></g><g id="u" class="DirectedInteraction" color="#000" ><g color="#000" fill="transparent"  filter="url(#a)" stroke="#000" stroke-dasharray="14.400533032661432, 5.8"><path class="EdgeBody" d="m311.3 200.22 20.199-0.21766"   marker-end="url(#b)" /></g></g><g id="v" class="DirectedInteraction" color="#000" ><g color="#000" fill="transparent"  filter="url(#a)" stroke="#000" stroke-dasharray="26.2, 5.8"><path class="EdgeBody" d="m163.5 70h32"   marker-end="url(#b)" /></g></g><g id="w" class="DirectedInteraction" color="#000" ><g color="#000" fill="transparent"  filter="url(#a)" stroke="#000" stroke-dasharray="0, 5.8, 238.7, 0"><path class="EdgeBody" d="m154.5 254h199.5v-45"   marker-start="url(#d)" /></g></g><g class="SingleFreeNode Shape" transform="translate(314.5,126)" color="#000"  name="SOCS3-STAT3 signaling pathway"><rect class="Icon" transform="matrix(.99379 0 0 .97561 .49689 .4878)" width="160" height="40" rx="15" ry="15" fill="transparent"  stroke="#000"/><text class="Text" transform="translate(80,23)"   font-size="10px"  text-anchor="middle"><tspan x="0" y="0">SOCS3-STAT3 signaling pathway</tspan></text></g><g class="SingleFreeNode Shape" transform="translate(362.5,58.75)" color="#000"  name="Pregnancy and lactation"><rect class="Icon" transform="matrix(.99265 0 0 .95745 .49632 .47872)" width="135" height="22.5" rx="15" ry="15" fill="transparent"  stroke="#000"/><text class="Text" transform="translate(67.5,14.25)"   font-size="10px"  text-anchor="middle"><tspan x="0" y="0">Pregnancy and lactation</tspan></text></g><g class="SingleFreeNode Shape" transform="translate(484.5,12)" color="#f00"  name="MAMMARY GLAND DEVELOPMENT PATHWAY"><rect class="Icon" transform="matrix(.99448 0 0 .97297 .49724 .48649)" width="180" height="36" fill="transparent"  stroke="#f00"/><text class="Text" transform="translate(90,21)" fill="#f00"  font-size="10px" stroke="black" stroke-width="0" text-anchor="middle"><tspan x="0" y="-5.5">MAMMARY GLAND DEVELOPMENT</tspan> <tspan x="0" y="5.5">PATHWAY</tspan></text></g><a  class="ChEBI_CHEBI_16991 Metabolite  " transform="translate(269.14 190.06)"   name="DNA"  ><rect class="Icon" transform="matrix(.97683 0 0 .95309 .48841 .47655)" width="42.157" height="20.318" fill="#fff" stroke="#000"/><text class="Text" transform="translate(21.079 14.159)"   font-size="12px"  text-anchor="middle"><tspan x="0" y="0">DNA</tspan></text></a><a  class="GeneProduct CHI3L1 " transform="translate(28.5,191)"   name="CHI3L1"  ><rect class="Icon" transform="matrix(.97826 0 0 .94737 .48913 .47368)" width="45" height="18" fill="#fff" stroke="#000"/><text class="Text" transform="translate(22.5,12)"   font-size="10px"  text-anchor="middle"><tspan x="0" y="0">CHI3L1</tspan></text></a><a  class="InterPro_IPR035858 GeneProduct " transform="translate(205.5,191)"   name="STAT5"  ><rect class="Icon" transform="matrix(.97826 0 0 .94737 .48913 .47368)" width="45" height="18" fill="#fff" stroke="#000"/><text class="Text" transform="translate(22.5,12)"   font-size="10px"  text-anchor="middle"><tspan x="0" y="0">STAT5</tspan></text></a><a  class="GeneProduct SOCS3 " transform="translate(331.5,191)"   name="SOCS3"  ><rect class="Icon" transform="matrix(.97826 0 0 .94737 .48913 .47368)" width="45" height="18" fill="#fff" stroke="#000"/><text class="Text" transform="translate(22.5,12)"   font-size="10px"  text-anchor="middle"><tspan x="0" y="0">SOCS3</tspan></text></a><a  class="GeneProduct MYC " transform="translate(493.5,191)"   name="MYC"  ><rect class="Icon" transform="matrix(.97826 0 0 .94737 .48913 .47368)" width="45" height="18" fill="#fff" stroke="#000"/><text class="Text" transform="translate(22.5,12)"   font-size="10px"  text-anchor="middle"><tspan x="0" y="0">MYC</tspan></text></a><a  class="GeneProduct MMP9 " transform="translate(28.5,137)"   name="MMP9"  ><rect class="Icon" transform="matrix(.97826 0 0 .94737 .48913 .47368)" width="45" height="18" fill="#fff" stroke="#000"/><text class="Text" transform="translate(22.5,12)"   font-size="10px"  text-anchor="middle"><tspan x="0" y="0">MMP9</tspan></text></a><a  class="GeneProduct E2F1 " transform="translate(649.35 245)"   name="E2F1"  ><rect class="Icon" transform="matrix(.97826 0 0 .94737 .48913 .47368)" width="45" height="18" fill="#fff" stroke="#000"/><text class="Text" transform="translate(22.5,12)"   font-size="10px"  text-anchor="middle"><tspan x="0" y="0">E2F1</tspan></text></a><a  class="GeneProduct STAT3 " transform="translate(412.5,191)"   name="STAT3"  ><rect class="Icon" transform="matrix(.97826 0 0 .94737 .48913 .47368)" width="45" height="18" fill="#fff" stroke="#000"/><text class="Text" transform="translate(22.5,12)"   font-size="10px"  text-anchor="middle"><tspan x="0" y="0">STAT3</tspan></text></a><a  class="GeneProduct TP53 " transform="translate(649.35 137)"   name="TP53"  ><rect class="Icon" transform="matrix(.97826 0 0 .94737 .48913 .47368)" width="45" height="18" fill="#fff" stroke="#000"/><text class="Text" transform="translate(22.5,12)"   font-size="10px"  text-anchor="middle"><tspan x="0" y="0">TP53</tspan></text></a><a  class="GeneProduct BAX " transform="translate(649.35 191)"   name="BAX"  ><rect class="Icon" transform="matrix(.97826 0 0 .94737 .48913 .47368)" width="45" height="18" fill="#fff" stroke="#000"/><text class="Text" transform="translate(22.5,12)"   font-size="10px"  text-anchor="middle"><tspan x="0" y="0">BAX</tspan></text></a><a  class="GeneProduct CDH1 " transform="translate(109.5,191)"   name="CDH1"  ><rect class="Icon" transform="matrix(.97826 0 0 .94737 .48913 .47368)" width="45" height="18" fill="#fff" stroke="#000"/><text class="Text" transform="translate(22.5,12)"   font-size="10px"  text-anchor="middle"><tspan x="0" y="0">CDH1</tspan></text></a><a  class="GeneProduct IL6ST " transform="translate(109.5,245)"   name="IL6ST"  ><rect class="Icon" transform="matrix(.97826 0 0 .94737 .48913 .47368)" width="45" height="18" fill="#fff" stroke="#000"/><text class="Text" transform="translate(22.5,12)"   font-size="10px"  text-anchor="middle"><tspan x="0" y="0">IL6ST</tspan></text></a><g class="SingleFreeNode Shape" transform="translate(28.5,58.75)" color="#000"  name="Embryonic development"><rect class="Icon" transform="matrix(.99265 0 0 .95745 .49632 .47872)" width="135" height="22.5" rx="15" ry="15" fill="transparent"  stroke="#000"/><text class="Text" transform="translate(67.5,14.25)"   font-size="10px"  text-anchor="middle"><tspan x="0" y="0">Embryonic development</tspan></text></g><g class="SingleFreeNode Shape" transform="translate(195.5,58.75)" color="#000"  name="Puberty"><rect class="Icon" transform="matrix(.99265 0 0 .95745 .49632 .47872)" width="135" height="22.5" rx="15" ry="15" fill="transparent"  stroke="#000"/><text class="Text" transform="translate(67.5,14.25)"   font-size="10px"  text-anchor="middle"><tspan x="0" y="0">Puberty</tspan></text></g><g class="SingleFreeNode Shape" transform="translate(529.5,58.75)" color="#f00"  name="Involution"><rect class="Icon" transform="matrix(.99265 0 0 .95745 .49632 .47872)" width="135" height="22.5" fill="transparent"  stroke="#f00"/><text class="Text" transform="translate(67.5,14.25)" fill="#f00"  font-size="10px" stroke="black" stroke-width="0" text-anchor="middle"><tspan x="0" y="0">Involution</tspan></text></g><a  class="ChEBI_CHEBI_16991 Metabolite  " transform="translate(560.59 190.82)"   name="DNA"  ><rect class="Icon" transform="matrix(.97683 0 0 .95309 .48841 .47655)" width="42.157" height="20.318" fill="#fff" stroke="#000"/><text class="Text" transform="translate(21.079 14.159)"   font-size="12px"  text-anchor="middle"><tspan x="0" y="0">DNA</tspan></text></a><text class="Text" transform="translate(5,27)" dominant-baseline="central" fill="black"  font-size="12px" font-weight="bold" overflow="visible" ><tspan x="0" y="-9">Name: Mammary gland development pathway - Involution (Stage 4 of 4)</tspan> <tspan x="0" y="9">Organism: Homo sapiens</tspan></text></g></svg>
