<?xml version="1.0" encoding="UTF-8"?>
<!--
  WikiPathways page: https://www.wikipathways.org/index.php/Pathway:WP2881
  URL for this compressed file: https://github.com/eweitz/cachome/tree/main/data/wikipathways/WP2881.svg
  Source code for compression: https://github.com/eweitz/cachome/tree/main/src/wikipathways.py
-->
<svg class="Diagram" width="800" height="600" color="black" baseProfile="full" prefix="schema:http://schema.org/" preserveAspectRatio="xMidYMid" version="1.1" viewBox="0 0 964.94 974.58" vocab="http://vocabularies.wikipathways.org/wp#" xmlns="http://www.w3.org/2000/svg" xmlns:xlink="http://www.w3.org/1999/xlink"><style>svg {font-family: 'Liberation Sans', Arial, sans-serif; }</style><defs><filter id="e" x="-50%" y="-50%" width="200%" height="200%"><feComposite in="SourceGraphic" in2="SourceGraphic" result="doubleDark"/><feMorphology in="doubleDark" operator="dilate" radius="0.16666666666666666" result="in2Double"/><feMorphology in="SourceGraphic" operator="dilate" radius="3" result="inDouble"/><feComposite in="inDouble" in2="in2Double" operator="out" result="doubleResult"/></filter><filter id="b" x="0" y="0" width="964.94" height="974.58" filterUnits="userSpaceOnUse"><feColorMatrix in="SourceGraphic" values="-1   0   0 0 0                   0  -1   0 0 0                   0   0  -1 0 0                   0   0   0 1 0"/></filter><marker id="c" stroke-dasharray="99999" markerHeight="12" markerUnits="userSpaceOnUse" markerWidth="12" orient="auto" preserveAspectRatio="none" refX="12" refY="6" viewBox="0 0 12 12"><path transform="rotate(180 6 6)" d="M12 11L0 6l12-5z" fill="currentColor" stroke-width="0"/></marker><marker id="f" stroke-dasharray="99999" markerHeight="24" markerUnits="userSpaceOnUse" markerWidth="20" orient="auto" preserveAspectRatio="none" refX="20" refY="12" viewBox="0 0 20 24"><g transform="rotate(180 10 12)" fill="none" stroke="#000"><path d="M15 12V5M15.5 5H8M0 5l8-4v8z"/></g></marker><symbol id="g" overflow="visible" preserveAspectRatio="none" viewBox="0 0 50 50"><ellipse cx="25" cy="25" rx="25" ry="25" stroke="currentColor" vector-effect="non-scaling-stroke"/></symbol><symbol id="d" overflow="visible" preserveAspectRatio="none" viewBox="0 0 100 100"><path d="M0 25L25 0h50l25 25v50l-25 25H25L0 75z" stroke="currentColor" vector-effect="non-scaling-stroke"/></symbol><symbol id="a" preserveAspectRatio="none" viewBox="0 0 100 100"/></defs><g class="Viewport" color="black"  name="Name: Estrogen receptor pathway Organism: Homo sapiens"><rect class="Icon" width="964.94" height="974.58" fill="#fff" stroke="#000" stroke-width="0"/><g id="h" class="Edge GraphicalLine" color="#000" ><g color="#000" fill="transparent"  filter="url(#b)" stroke="#000" stroke-dasharray="179.77819356797482, 11"><path class="EdgeBody" d="m429.47 705.3 190.78 0.054429"   marker-end="url(#f)" /></g></g><g class="Label" transform="translate(653.78 794.36)" color="#000"  name="Cell proliferation  and apoptosis"><use class="Icon" width="80" height="20" fill="transparent"  stroke="#000" stroke-width="0" xlink:href="#a"/><text class="Text" transform="translate(40,13)"   font-size="10px"  text-anchor="middle"><tspan x="0" y="-5.5">Cell proliferation </tspan> <tspan x="0" y="5.5">and apoptosis</tspan></text></g><g class="Label" transform="translate(322.12 764.26)" color="#000"  name="Drug and steroid  metabolism"><use class="Icon" width="80" height="20" fill="transparent"  stroke="#000" stroke-width="0" xlink:href="#a"/><text class="Text" transform="translate(40,13)"   font-size="10px"  text-anchor="middle"><tspan x="0" y="-5.5">Drug and steroid </tspan> <tspan x="0" y="5.5">metabolism</tspan></text></g><g class="Label" transform="translate(552.89 782.21)" color="#000"  name="Transcription  factors"><use class="Icon" width="80" height="20" fill="transparent"  stroke="#000" stroke-width="0" xlink:href="#a"/><text class="Text" transform="translate(40,13)"   font-size="10px"  text-anchor="middle"><tspan x="0" y="-5.5">Transcription </tspan> <tspan x="0" y="5.5">factors</tspan></text></g><g class="Label" transform="translate(439.28 760.09)" color="#000"  name="Metabolism"><use class="Icon" width="80" height="20" fill="transparent"  stroke="#000" stroke-width="0" xlink:href="#a"/><text class="Text" transform="translate(40,13)"   font-size="10px"  text-anchor="middle"><tspan x="0" y="0">Metabolism</tspan></text></g><a class="ChEBI_CHEBI_4903 Metabolite  " transform="translate(359.28 70.854)" color="#00f"  name="Estrogen"  ><rect class="Icon" transform="matrix(.98765 0 0 .95238 .49383 .47619)" width="80" height="20" fill="#fff" stroke="#00f"/><text class="Text" transform="translate(40,13)" fill="#00f"  font-size="10px"  text-anchor="middle"><tspan x="0" y="0">Estrogen</tspan></text></a><g class="GroupComplex" transform="translate(421.51 334.22)" color="grey" ><use class="Icon" transform="matrix(.99048 0 0 .98462 .49524 .49231)" width="104.00000000000006" height="63.99999999999977" fill="#b4b464" fill-opacity=".1" stroke="grey" xlink:href="#d"/><a class="ChEBI_CHEBI_48705 Metabolite  " transform="translate(12 32)" color="#00f"  name="Ligand"  ><rect class="Icon" transform="matrix(.98765 0 0 .95238 .49383 .47619)" width="80" height="20" fill="#fff" stroke="#00f"/><text class="Text" transform="translate(40,13)" fill="#00f"  font-size="10px"  text-anchor="middle"><tspan x="0" y="0">Ligand</tspan></text></a><a  class="GeneProduct ESR1 " transform="translate(12,12)"   name="ESR1"  ><rect class="Icon" transform="matrix(.98765 0 0 .95238 .49383 .47619)" width="80" height="20" fill="#fff" stroke="#000"/><text class="Text" transform="translate(40 13)"   font-size="10px"  text-anchor="middle"><tspan x="0" y="0">ESR1</tspan></text></a></g><g id="i" class="DirectedInteraction" color="#000" ><g color="#000" fill="transparent"  filter="url(#b)" stroke="#000" stroke-dasharray="53.31899690806714, 5.8"><path class="EdgeBody" d="m334.42 396.86 41.387 42.216"   marker-end="url(#c)" /></g></g><g id="j" class="DirectedInteraction" color="#000" ><g color="#000" fill="transparent"  filter="url(#b)" stroke="#000" stroke-dasharray="55.50751010921669, 5.8"><path class="EdgeBody" d="m473.51 398.22-45.712 40.854"   marker-end="url(#c)" /></g></g><g id="k" class="DirectedInteraction" color="#000" ><g color="#000" fill="transparent"  filter="url(#b)" stroke="#000" stroke-dasharray="116.43561559172765, 5.8"><path class="EdgeBody" d="m324.25 211.04 10.167 121.81"   marker-end="url(#c)" /></g></g><g id="l" class="DirectedInteraction" color="#000" ><g color="#000" fill="transparent"  filter="url(#b)" stroke="#000" stroke-dasharray="113.33531395632498, 5.8"><path class="EdgeBody" d="m478.45 215.19-4.9321 119.03"   marker-end="url(#c)" /></g></g><g id="m" class="DirectedInteraction" color="#000" ><g color="#000" fill="transparent"  filter="url(#b)" stroke="#000" stroke-dasharray="56.577570932185374, 5.8"><path class="EdgeBody" d="m401.8 543.07 2.9316 62.309"   marker-end="url(#c)" /></g></g><g id="n" class="DirectedInteraction" color="#000" ><g color="#000" fill="transparent"  filter="url(#b)" stroke="#000" stroke-dasharray="125.16674195975274, 5.8"><path class="EdgeBody" d="m399.28 90.854 79.166 104.33"   marker-end="url(#c)" /></g></g><g id="o" class="DirectedInteraction" color="#000" ><g color="#000" fill="transparent"  filter="url(#b)" stroke="#000" stroke-dasharray="119.37083205511902, 5.8"><path class="EdgeBody" d="m399.28 90.854-75.031 100.19"   marker-end="url(#c)" /></g></g><g class="SingleFreeNode Shape PhysicalEntity CellularComponent Cell" transform="translate(75.608 134.64)" color="#c0c0c0" ><g fill="transparent"  filter="url(#e)" stroke="#c0c0c0" stroke-width="3"><rect class="Icon" transform="matrix(.98625 0 0 .98543 5.9175 5.9126)" width="860.83" height="811.44" rx="15" ry="15"   /></g></g><g class="GroupGroup" transform="translate(481.7 624.14)" color="grey" ><use class="Icon" width="96.22652277145278" height="78.40477968633343" fill="transparent"  stroke="grey" stroke-dasharray="5,3" stroke-width="0" xlink:href="#a"/><a  class="GeneProduct SP1 " transform="translate(8 50.405)"   name="SP1"  ><rect class="Icon" transform="matrix(.98765 0 0 .95238 .49383 .47619)" width="80" height="20" fill="#fff" stroke="#000"/><text class="Text" transform="translate(40,13)"   font-size="10px"  text-anchor="middle"><tspan x="0" y="0">SP1</tspan></text></a><a  class="GeneProduct JUN " transform="translate(8 30.405)"   name="JUN"  ><rect class="Icon" transform="matrix(.98765 0 0 .95238 .49383 .47619)" width="80" height="20" fill="#fff" stroke="#000"/><text class="Text" transform="translate(40,13)"   font-size="10px"  text-anchor="middle"><tspan x="0" y="0">JUN</tspan></text></a><g class="Label" transform="translate(9.063 8)" color="#000"  name="Coregulators"><use class="Icon" width="79.16355489171035" height="22.40477968633298" fill="transparent"  stroke="#000" stroke-width="0" xlink:href="#a"/><text class="Text" transform="translate(39.582 14.202)"   font-size="10px"  text-anchor="middle"><tspan x="0" y="0">Coregulators</tspan></text></g></g><a  class="GeneProduct ESR1 " transform="translate(284.25 191.04)"   name="ESR1"  ><rect class="Icon" transform="matrix(.98765 0 0 .95238 .49383 .47619)" width="80" height="20" fill="#fff" stroke="#000"/><text class="Text" transform="translate(40,13)"   font-size="10px"  text-anchor="middle"><tspan x="0" y="0">ESR1</tspan></text></a><g class="SingleFreeNode Shape PhysicalEntity CellularComponent Nucleus" transform="translate(97.328 259.19)" color="#c0c0c0" ><g fill="transparent"  filter="url(#e)" stroke="#c0c0c0" stroke-width="3"><use class="Icon" transform="matrix(.98527 0 0 .98208 5.9116 5.8925)" width="802.6575342465756" height="657.4633434936404"    xlink:href="#g"/></g></g><g class="GroupComplex" transform="translate(349.8 439.07)" color="grey" ><use class="Icon" transform="matrix(.99048 0 0 .99048 .49524 .49524)" width="104.00000000000091" height="103.99999999999937" fill="#b4b464" fill-opacity=".1" stroke="grey" xlink:href="#d"/><a  class="GeneProduct ESR1 " transform="translate(12 32)"   name="ESR1"  ><rect class="Icon" transform="matrix(.98765 0 0 .95238 .49383 .47619)" width="80" height="20" fill="#fff" stroke="#000"/><text class="Text" transform="translate(40,13)"   font-size="10px"  text-anchor="middle"><tspan x="0" y="0">ESR1</tspan></text></a><a  class="GeneProduct ESR1 " transform="translate(12 52)"   name="ESR1"  ><rect class="Icon" transform="matrix(.98765 0 0 .95238 .49383 .47619)" width="80" height="20" fill="#fff" stroke="#000"/><text class="Text" transform="translate(40 13)"   font-size="10px"  text-anchor="middle"><tspan x="0" y="0">ESR1</tspan></text></a><a class="ChEBI_CHEBI_48705 Metabolite  " transform="translate(12 72)" color="#00f"  name="Ligand"  ><rect class="Icon" transform="matrix(.98765 0 0 .95238 .49383 .47619)" width="80" height="20" fill="#fff" stroke="#00f"/><text class="Text" transform="translate(40 13)" fill="#00f"  font-size="10px"  text-anchor="middle"><tspan x="0" y="0">Ligand</tspan></text></a><a class="ChEBI_CHEBI_48705 Metabolite  " transform="translate(12 12)" color="#00f"  name="Ligand"  ><rect class="Icon" transform="matrix(.98765 0 0 .95238 .49383 .47619)" width="80" height="20" fill="#fff" stroke="#00f"/><text class="Text" transform="translate(40 13)" fill="#00f"  font-size="10px"  text-anchor="middle"><tspan x="0" y="0">Ligand</tspan></text></a></g><g class="GroupComplex" transform="translate(352.73 605.38)" color="grey" ><use class="Icon" transform="matrix(.99048 0 0 .99172 .49524 .49586)" width="104.00000000000131" height="119.83113456464434" fill="#b4b464" fill-opacity=".1" stroke="grey" xlink:href="#d"/><g class="Label" transform="translate(27.267 92)" color="#000"  name="ERE"><rect class="Icon" transform="matrix(.98018 0 0 .94059 .49009 .47029)" width="49.466" height="15.831" fill="#fff" stroke="#000"/><text class="Text" transform="translate(24.733 10.916)"   font-size="10px"  text-anchor="middle"><tspan x="0" y="0">ERE</tspan></text></g><a  class="GeneProduct ESR1 " transform="translate(12 32)"   name="ESR1"  ><rect class="Icon" transform="matrix(.98765 0 0 .95238 .49383 .47619)" width="80" height="20" fill="#fff" stroke="#000"/><text class="Text" transform="translate(40,13)"   font-size="10px"  text-anchor="middle"><tspan x="0" y="0">ESR1</tspan></text></a><a  class="GeneProduct ESR1 " transform="translate(12 52)"   name="ESR1"  ><rect class="Icon" transform="matrix(.98765 0 0 .95238 .49383 .47619)" width="80" height="20" fill="#fff" stroke="#000"/><text class="Text" transform="translate(40,13)"   font-size="10px"  text-anchor="middle"><tspan x="0" y="0">ESR1</tspan></text></a><g class="Label" transform="translate(12,12)" color="#000"  name="Ligand"><rect class="Icon" transform="matrix(.98765 0 0 .95238 .49383 .47619)" width="80" height="20" fill="#fff" stroke="#000"/><text class="Text" transform="translate(40 13)"   font-size="10px"  text-anchor="middle"><tspan x="0" y="0">Ligand</tspan></text></g><g class="Label" transform="translate(12,72)" color="#000"  name="Ligand"><rect class="Icon" transform="matrix(.98765 0 0 .95238 .49383 .47619)" width="80" height="20" fill="#fff" stroke="#000"/><text class="Text" transform="translate(40 13)"   font-size="10px"  text-anchor="middle"><tspan x="0" y="0">Ligand</tspan></text></g></g><g class="GroupComplex" transform="translate(282.42 332.86)" color="grey" ><use class="Icon" transform="matrix(.99048 0 0 .98462 .49524 .49231)" width="104.00000000000233" height="63.99999999999966" fill="#b4b464" fill-opacity=".1" stroke="grey" xlink:href="#d"/><a  class="GeneProduct ESR1 " transform="translate(12,12)"   name="ESR1"  ><rect class="Icon" transform="matrix(.98765 0 0 .95238 .49383 .47619)" width="80" height="20" fill="#fff" stroke="#000"/><text class="Text" transform="translate(40,13)"   font-size="10px"  text-anchor="middle"><tspan x="0" y="0">ESR1</tspan></text></a><a class="ChEBI_CHEBI_48705 Metabolite  " transform="translate(12 32)" color="#00f"  name="Ligand"  ><rect class="Icon" transform="matrix(.98765 0 0 .95238 .49383 .47619)" width="80" height="20" fill="#fff" stroke="#00f"/><text class="Text" transform="translate(40 13)" fill="#00f"  font-size="10px"  text-anchor="middle"><tspan x="0" y="0">Ligand</tspan></text></a></g><a  class="GeneProduct ESR1 " transform="translate(438.45 195.19)"   name="ESR1"  ><rect class="Icon" transform="matrix(.98765 0 0 .95238 .49383 .47619)" width="80" height="20" fill="#fff" stroke="#000"/><text class="Text" transform="translate(40,13)"   font-size="10px"  text-anchor="middle"><tspan x="0" y="0">ESR1</tspan></text></a><g class="GroupGroup" transform="translate(434.13 781.26)" color="grey" ><use class="Icon" width="95.99999999999994" height="95.99999999999977" fill="transparent"  stroke="grey" stroke-dasharray="5,3" stroke-width="0" xlink:href="#a"/><a  class="GeneProduct PDK4 " transform="translate(8 68)"   name="PDK4"  ><rect class="Icon" transform="matrix(.98765 0 0 .95238 .49383 .47619)" width="80" height="20" fill="#fff" stroke="#000"/><text class="Text" transform="translate(40,13)"   font-size="10px"  text-anchor="middle"><tspan x="0" y="0">PDK4</tspan></text></a><a  class="GeneProduct ACOX1 " transform="translate(8,8)"   name="ACOX1"  ><rect class="Icon" transform="matrix(.98765 0 0 .95238 .49383 .47619)" width="80" height="20" fill="#fff" stroke="#000"/><text class="Text" transform="translate(40,13)"   font-size="10px"  text-anchor="middle"><tspan x="0" y="0">ACOX1</tspan></text></a><a  class="GeneProduct GPAM " transform="translate(8 28)"   name="GPAM"  ><rect class="Icon" transform="matrix(.98765 0 0 .95238 .49383 .47619)" width="80" height="20" fill="#fff" stroke="#000"/><text class="Text" transform="translate(40,13)"   font-size="10px"  text-anchor="middle"><tspan x="0" y="0">GPAM</tspan></text></a><a  class="GeneProduct PCK1 " transform="translate(8,48)"   name="PCK1"  ><rect class="Icon" transform="matrix(.98765 0 0 .95238 .49383 .47619)" width="80" height="20" fill="#fff" stroke="#000"/><text class="Text" transform="translate(40,13)"   font-size="10px"  text-anchor="middle"><tspan x="0" y="0">PCK1</tspan></text></a></g><g class="GroupGroup" transform="translate(648.59 810.54)" color="grey" ><use class="Icon" width="96" height="36" fill="transparent"  stroke="grey" stroke-dasharray="5,3" stroke-width="0" xlink:href="#a"/><a  class="GeneProduct STAT3 " transform="translate(8,8)"   name="STAT3"  ><rect class="Icon" transform="matrix(.98765 0 0 .95238 .49383 .47619)" width="80" height="20" fill="#fff" stroke="#000"/><text class="Text" transform="translate(40,13)"   font-size="10px"  text-anchor="middle"><tspan x="0" y="0">STAT3</tspan></text></a></g><g class="GroupGroup" transform="translate(316.46 789.88)" color="grey" ><use class="Icon" width="96" height="75.99999999999966" fill="transparent"  stroke="grey" stroke-dasharray="5,3" stroke-width="0" xlink:href="#a"/><a  class="GeneProduct CYP1A1 " transform="translate(8,8)"   name="CYP1A1"  ><rect class="Icon" transform="matrix(.98765 0 0 .95238 .49383 .47619)" width="80" height="20" fill="#fff" stroke="#000"/><text class="Text" transform="translate(40,13)"   font-size="10px"  text-anchor="middle"><tspan x="0" y="0">CYP1A1</tspan></text></a><a  class="GeneProduct CYP1A2 " transform="translate(8 28)"   name="CYP1A2"  ><rect class="Icon" transform="matrix(.98765 0 0 .95238 .49383 .47619)" width="80" height="20" fill="#fff" stroke="#000"/><text class="Text" transform="translate(40,13)"   font-size="10px"  text-anchor="middle"><tspan x="0" y="0">CYP1A2</tspan></text></a><a  class="GeneProduct CYP1B1 " transform="translate(8 48)"   name="CYP1B1"  ><rect class="Icon" transform="matrix(.98765 0 0 .95238 .49383 .47619)" width="80" height="20" fill="#fff" stroke="#000"/><text class="Text" transform="translate(40,13)"   font-size="10px"  text-anchor="middle"><tspan x="0" y="0">CYP1B1</tspan></text></a></g><g class="GroupGroup" transform="translate(547.7 799.36)" color="grey" ><use class="Icon" width="96" height="56.00000000000023" fill="transparent"  stroke="grey" stroke-dasharray="5,3" stroke-width="0" xlink:href="#a"/><a  class="GeneProduct PPARA " transform="translate(8 28)"   name="PPARA"  ><rect class="Icon" transform="matrix(.98765 0 0 .95238 .49383 .47619)" width="80" height="20" fill="#fff" stroke="#000"/><text class="Text" transform="translate(40,13)"   font-size="10px"  text-anchor="middle"><tspan x="0" y="0">PPARA</tspan></text></a><a  class="GeneProduct NR0B2 " transform="translate(8,8)"   name="NR0B2"  ><rect class="Icon" transform="matrix(.98765 0 0 .95238 .49383 .47619)" width="80" height="20" fill="#fff" stroke="#000"/><text class="Text" transform="translate(40,13)"   font-size="10px"  text-anchor="middle"><tspan x="0" y="0">NR0B2</tspan></text></a></g><text class="Text" transform="translate(5,27)" dominant-baseline="central" fill="black"  font-size="12px" font-weight="bold" overflow="visible" ><tspan x="0" y="-9">Name: Estrogen receptor pathway</tspan> <tspan x="0" y="9">Organism: Homo sapiens</tspan></text></g></svg>
