<?xml version="1.0" encoding="UTF-8"?>
<!--
  WikiPathways page: https://www.wikipathways.org/index.php/Pathway:WP2870
  URL for this compressed file: https://github.com/eweitz/cachome/tree/main/data/wikipathways/WP2870.svg
  Source code for compression: https://github.com/eweitz/cachome/tree/main/src/wikipathways.py
-->
<svg class="Diagram" width="800" height="600" color="black" baseProfile="full" prefix="schema:http://schema.org/" preserveAspectRatio="xMidYMid" version="1.1" viewBox="0 0 890.77 768" vocab="http://vocabularies.wikipathways.org/wp#" xmlns="http://www.w3.org/2000/svg" xmlns:xlink="http://www.w3.org/1999/xlink"><style>svg {font-family: 'Liberation Sans', Arial, sans-serif; }</style><defs><filter id="e" x="-50%" y="-50%" width="200%" height="200%"><feComposite in="SourceGraphic" in2="SourceGraphic" result="doubleDark"/><feMorphology in="doubleDark" operator="dilate" radius="0.16666666666666666" result="in2Double"/><feMorphology in="SourceGraphic" operator="dilate" radius="3" result="inDouble"/><feComposite in="inDouble" in2="in2Double" operator="out" result="doubleResult"/></filter><filter id="b" x="0" y="0" width="890.77" height="768" filterUnits="userSpaceOnUse"><feColorMatrix in="SourceGraphic" values="-1   0   0 0 0                   0  -1   0 0 0                   0   0  -1 0 0                   0   0   0 1 0"/></filter><marker id="a" stroke-dasharray="99999" markerHeight="12" markerUnits="userSpaceOnUse" markerWidth="12" orient="auto" preserveAspectRatio="none" refX="12" refY="6" viewBox="0 0 12 12"><path transform="rotate(180 6 6)" d="M12 11L0 6l12-5z" fill="currentColor" stroke-width="0"/></marker><symbol id="f" overflow="visible" preserveAspectRatio="none" viewBox="0 0 100 100"><path d="M99.5 50c0 27.338-22.162 49.5-49.5 49.5S.5 77.338.5 50" stroke="currentColor" vector-effect="non-scaling-stroke"/></symbol><symbol id="d" overflow="visible" preserveAspectRatio="none" viewBox="0 0 50 50"><ellipse cx="25" cy="25" rx="25" ry="25" stroke="currentColor" vector-effect="non-scaling-stroke"/></symbol><symbol id="c" preserveAspectRatio="none" viewBox="0 0 100 100"/></defs><g class="Viewport" color="black"  name="Name: Extracellular vesicle-mediated signaling in recipient cells Organism: Homo sapiens"><rect class="Icon" width="890.77" height="768" fill="#fff" stroke="#000" stroke-width="0"/><g class="SingleFreeNode Shape PhysicalEntity CellularComponent Cell" transform="translate(84.5 79)" color="#ff6666" ><g fill="transparent"  filter="url(#e)" stroke="#f66" stroke-width="3"><use class="Icon" transform="matrix(.97521 0 0 .97394 5.8512 5.8436)" width="472" height="448.5000000000001"    xlink:href="#d"/></g></g><g class="SingleFreeNode Shape PhysicalEntity CellularComponent Cell" transform="translate(600.5 621.47)" color="#ff6600" ><g fill="transparent"  filter="url(#e)" stroke="#f60" stroke-width="3"><use class="Icon" transform="matrix(.95617 0 0 .90771 5.737 5.4463)" width="261.7673649393605" height="118.02646085997822"    xlink:href="#d"/></g></g><g id="g" class="DirectedInteraction" color="#000" ><g color="#000" fill="transparent"  filter="url(#b)" stroke="#000" stroke-dasharray="26.203906011610517, 5.8"><path class="EdgeBody" d="m200 74 0.5 32"   marker-end="url(#a)" /></g></g><g id="h" class="DirectedInteraction" color="#000" ><g color="#000" fill="transparent"  filter="url(#b)" stroke="#000" stroke-dasharray="78.47373552892978, 5.8"><path class="EdgeBody" d="M109.75,242L144,319"   marker-end="url(#a)" /></g></g><g id="i" class="DirectedInteraction" color="#000" ><g color="#000" fill="transparent"  filter="url(#b)" stroke="#000" stroke-dasharray="57.93770335981732, 5.8"><path class="EdgeBody" d="m155 339 35.749 52.768"   marker-end="url(#a)" /></g></g><g id="j" class="DirectedInteraction" color="#000" ><g color="#000" fill="transparent"  filter="url(#b)" stroke="#000" stroke-dasharray="36.20813202804816, 5.8"><path class="EdgeBody" d="m220 401.77 42.001-0.76847"   marker-end="url(#a)" /></g></g><g id="k" class="DirectedInteraction" color="#000" ><g color="#000" fill="transparent"  filter="url(#b)" stroke="#000" stroke-dasharray="30.996738985948195, 5.8"><path class="EdgeBody" d="m285 326 27 25"   marker-end="url(#a)" /></g></g><g id="l" class="DirectedInteraction" color="#000" ><g color="#000" fill="transparent"  filter="url(#b)" stroke="#000" stroke-dasharray="26.2, 5.8"><path class="EdgeBody" d="m350 40v32"   marker-end="url(#a)" /></g></g><g id="m" class="DirectedInteraction" color="#000" ><g color="#000" fill="transparent"  filter="url(#b)" stroke="#000" stroke-dasharray="47.2, 5.8"><path class="EdgeBody" d="m98.5 169v53"   marker-end="url(#a)" /></g></g><g id="n" class="DirectedInteraction" color="#000" ><g color="#000" fill="transparent"  filter="url(#b)" stroke="#000" stroke-dasharray="54.80938698456919, 5.8"><path class="EdgeBody" d="m720.5 553.88 0.17971 60.609"   marker-end="url(#a)" /></g></g><g id="o" class="DirectedInteraction" color="#000" ><g color="#000" fill="transparent"  filter="url(#b)" stroke="#000" stroke-dasharray="249.14043730646762, 5.8"><path class="EdgeBody" d="m326.5 399.25 253.5 27.073"   marker-end="url(#a)" /></g></g><g id="p" class="DirectedInteraction" color="#000" ><g color="#000" fill="transparent"  filter="url(#b)" stroke="#000" stroke-dasharray="36.28622102303793, 5.8"><path class="EdgeBody" d="m200.5 126 9.5 41"   marker-end="url(#a)" /></g></g><g id="q" class="DirectedInteraction" color="#000" ><g color="#000" fill="transparent"  filter="url(#b)" stroke="#000" stroke-dasharray="20.610634068910304, 5.8"><path class="EdgeBody" d="m241 243 10.25 24.34"   marker-end="url(#a)" /></g></g><g id="r" class="DirectedInteraction" color="#000" ><g color="#000" fill="transparent"  filter="url(#b)" stroke="#000" stroke-dasharray="20.2, 5.8"><path class="EdgeBody" d="m520 104v26"   marker-end="url(#a)" /></g></g><g id="s" class="DirectedInteraction" color="#000" ><g color="#000" fill="transparent"  filter="url(#b)" stroke="#000" stroke-dasharray="36.16724913548659, 5.8"><path class="EdgeBody" d="m502.5 206-15.5 39"   marker-end="url(#a)" /></g></g><g id="t" class="DirectedInteraction" color="#000" ><g color="#000" fill="transparent"  filter="url(#b)" stroke="#000" stroke-dasharray="113.39757757605648, 5.8"><path class="EdgeBody" d="M467.75,321L362,376"   marker-end="url(#a)" /></g></g><g id="u" class="DirectedInteraction" color="#000" ><g color="#000" fill="transparent"  filter="url(#b)" stroke="#000" stroke-dasharray="31.2, 5.8"><path class="EdgeBody" d="m350 92v37"   marker-end="url(#a)" /></g></g><g id="v" class="DirectedInteraction" color="#000" ><g color="#000" fill="transparent"  filter="url(#b)" stroke="#000" stroke-dasharray="140.77762448614044, 5.8"><path class="EdgeBody" d="m350 205-13 146"   marker-end="url(#a)" /></g></g><g class="SingleFreeNode Shape PhysicalEntity CellularComponent Vesicle" transform="translate(262,351)" color="#ff6666" ><use class="Icon" transform="matrix(.97087 0 0 .97087 1.4563 1.4563)" width="100" height="100" fill="transparent"  stroke="#ff6666" stroke-width="3" xlink:href="#d"/></g><g class="GroupGroup" transform="translate(580 298.77)" color="grey" ><use class="Icon" width="281.0000000000001" height="255.1086302775949" fill="transparent"  stroke="grey" stroke-dasharray="5,3" stroke-width="0" xlink:href="#c"/><g class="SingleFreeNode Shape PhysicalEntity CellularComponent Vesicle" transform="translate(32 30)" color="#990000" ><use class="Icon" transform="matrix(.98623 0 0 .98637 1.4793 1.4796)" width="214.85881887808713" height="217.1086302775949" fill="transparent"  stroke="#990000" stroke-width="3" xlink:href="#d"/></g><g class="Label" transform="translate(8,92)" color="#000"  name="EGFRvIII"><rect class="Icon" transform="matrix(.98214 0 0 .95238 .49107 .47619)" width="55" height="20" fill="#fff" stroke="#000"/><text class="Text" transform="translate(27.5,13)"   font-size="10px"  text-anchor="middle"><tspan x="0" y="0">EGFRvIII</tspan></text></g><g class="Label" transform="translate(172 8)" color="#000"  name="Exosome"><use class="Icon" width="80" height="20" fill="transparent"  stroke="#000" stroke-width="0" xlink:href="#c"/><text class="Text" transform="translate(40,14)"   font-size="12px" font-weight="bold"  text-anchor="middle"><tspan x="0" y="0">Exosome</tspan></text></g><a  class="GeneProduct WNT3A " transform="translate(37 55)"   name="WNT3A"  ><rect class="Icon" transform="matrix(.98077 0 0 .95238 .49038 .47619)" width="51" height="20" fill="#fff" stroke="#000"/><text class="Text" transform="translate(25.5,13)"   font-size="10px"  text-anchor="middle"><tspan x="0" y="0">WNT3A</tspan></text></a><a  class="GeneProduct WNT5A " transform="translate(37 35)"   name="WNT5A"  ><rect class="Icon" transform="matrix(.98077 0 0 .95238 .49038 .47619)" width="51" height="20" fill="#fff" stroke="#000"/><text class="Text" transform="translate(25.5,13)"   font-size="10px"  text-anchor="middle"><tspan x="0" y="0">WNT5A</tspan></text></a><a  class="GeneProduct ERBB2 " transform="translate(42 205)"   name="ERBB2"  ><rect class="Icon" transform="matrix(.98077 0 0 .95238 .49038 .47619)" width="51" height="20" fill="#fff" stroke="#000"/><text class="Text" transform="translate(25.5,13)"   font-size="10px"  text-anchor="middle"><tspan x="0" y="0">ERBB2</tspan></text></a><a  class="GeneProduct EGFR " transform="translate(188 53)"   name="EGFR"  ><rect class="Icon" transform="matrix(.97959 0 0 .95238 .4898 .47619)" width="48" height="20" fill="#fff" stroke="#000"/><text class="Text" transform="translate(24,13)"   font-size="10px"  text-anchor="middle"><tspan x="0" y="0">EGFR</tspan></text></a><a  class="GeneProduct MFGE8 " transform="translate(111 122)"   name="MFGE8"  ><rect class="Icon" transform="matrix(.97959 0 0 .95238 .4898 .47619)" width="48" height="20" fill="#fff" stroke="#000"/><text class="Text" transform="translate(24,13)"   font-size="10px"  text-anchor="middle"><tspan x="0" y="0">MFGE8</tspan></text></a><a  class="GeneProduct TSPAN8 " transform="translate(107 18)"   name="TSPAN8"  ><rect class="Icon" transform="matrix(.98182 0 0 .95238 .49091 .47619)" width="54" height="20" fill="#fff" stroke="#000"/><text class="Text" transform="translate(27,13)"   font-size="10px"  text-anchor="middle"><tspan x="0" y="0">TSPAN8</tspan></text></a><a  class="GeneProduct DKK4 " transform="translate(154 227)"   name="DKK4"  ><rect class="Icon" transform="matrix(.97778 0 0 .95238 .48889 .47619)" width="44" height="20" fill="#fff" stroke="#000"/><text class="Text" transform="translate(22,13)"   font-size="10px"  text-anchor="middle"><tspan x="0" y="0">DKK4</tspan></text></a><a  class="GeneProduct TGFA " transform="translate(107 79)"   name="TGFA"  ><rect class="Icon" transform="matrix(.97826 0 0 .95238 .48913 .47619)" width="45" height="20" fill="#fff" stroke="#000"/><text class="Text" transform="translate(22.5,13)"   font-size="10px"  text-anchor="middle"><tspan x="0" y="0">TGFA</tspan></text></a><a  class="GeneProduct TGFB1 " transform="translate(162 91)"   name="TGFB1"  ><rect class="Icon" transform="matrix(.97727 0 0 .95238 .48864 .47619)" width="43" height="20" fill="#fff" stroke="#000"/><text class="Text" transform="translate(21.5,13)"   font-size="10px"  text-anchor="middle"><tspan x="0" y="0">TGFB1</tspan></text></a><a  class="GeneProduct PROM1 " transform="translate(224 131)"   name="CD133"  ><rect class="Icon" transform="matrix(.98 0 0 .95238 .49 .47619)" width="49" height="20" fill="#fff" stroke="#000"/><text class="Text" transform="translate(24.5,13)"   font-size="10px"  text-anchor="middle"><tspan x="0" y="0">CD133</tspan></text></a><a  class="GeneProduct AKT1 " transform="translate(67 143)"   name="AKT1"  ><rect class="Icon" transform="matrix(.975 0 0 .95238 .4875 .47619)" width="39" height="20" fill="#fff" stroke="#000"/><g class="Burr State" transform="translate(31.5,12.5)" color="#000"  name="P"><use class="Icon" transform="matrix(.9375 0 0 .9375 .46875 .46875)" width="15" height="15" fill="#fff" stroke="#000" xlink:href="#d"/><text class="Text" transform="translate(7.5,10.5)"   font-size="10px"  text-anchor="middle"><tspan x="0" y="0">P</tspan></text></g><text class="Text" transform="translate(19.5,13)"   font-size="10px"  text-anchor="middle"><tspan x="0" y="0">AKT1</tspan></text></a><a  class="GeneProduct MTOR " transform="translate(106 181)"   name="MTOR"  ><rect class="Icon" transform="matrix(.97778 0 0 .95238 .48889 .47619)" width="44" height="20" fill="#fff" stroke="#000"/><g class="Burr State" transform="translate(36.5,12.5)" color="#000"  name="P"><use class="Icon" transform="matrix(.9375 0 0 .9375 .46875 .46875)" width="15" height="15" fill="#fff" stroke="#000" xlink:href="#d"/><text class="Text" transform="translate(7.5,10.5)"   font-size="10px"  text-anchor="middle"><tspan x="0" y="0">P</tspan></text></g><text class="Text" transform="translate(22,13)"   font-size="10px"  text-anchor="middle"><tspan x="0" y="0">MTOR</tspan></text></a><g class="Label" transform="translate(162 150)" color="#000"  name="Mutant  KRAS"><rect class="Icon" transform="matrix(.97917 0 0 .96667 .48958 .48333)" width="47" height="29" fill="#fff" stroke="#000"/><text class="Text" transform="translate(23.5,17.5)"   font-size="10px"  text-anchor="middle"><tspan x="0" y="-5.5">Mutant </tspan> <tspan x="0" y="5.5">KRAS</tspan></text></g></g><g class="GroupGroup" transform="translate(701.18 577.49)" color="grey" ><use class="Icon" width="39" height="73" fill="transparent"  stroke="grey" stroke-dasharray="5,3" stroke-width="0" xlink:href="#c"/><g class="SingleFreeNode Shape" transform="translate(14,34)" color="#0066cc" ><rect class="Icon" transform="matrix(.90909 0 0 .96875 .45455 .48438)" width="10" height="31" fill="#06c" stroke="#06c"/></g><g class="SingleFreeNode Shape" transform="translate(8,8)" color="#0066cc" ><use class="Icon" transform="matrix(.88462 0 0 .90625 1.3269 1.3594)" width="23" height="29" fill="transparent"  stroke="#0066cc" stroke-width="3" xlink:href="#f"/></g></g><g class="Label" transform="translate(545.77 617.97)" color="#000"  name="Recipient cell"><use class="Icon" width="92" height="20" fill="transparent"  stroke="#000" stroke-width="0" xlink:href="#c"/><text class="Text" transform="translate(46,14)"   font-size="12px" font-weight="bold"  text-anchor="middle"><tspan x="0" y="0">Recipient cell</tspan></text></g><g class="Label" transform="translate(-2,116)" color="#000"  name="Host cell"><use class="Icon" width="80" height="20" fill="transparent"  stroke="#000" stroke-width="0" xlink:href="#c"/><text class="Text" transform="translate(40,14)"   font-size="12px" font-weight="bold"  text-anchor="middle"><tspan x="0" y="0">Host cell</tspan></text></g><g class="Label" transform="translate(179,423)" color="#000"  name="Packaging of  proteins"><use class="Icon" width="85" height="28" fill="transparent"  stroke="#000" stroke-width="0" xlink:href="#c"/><text class="Text" transform="translate(42.5,18)"   font-size="12px" font-weight="bold"  text-anchor="middle"><tspan x="0" y="-6.6000000000000005">Packaging of </tspan> <tspan x="0" y="6.6000000000000005">proteins</tspan></text></g><g class="Label" transform="translate(76,222)" color="#000"  name="RTK"><rect class="Icon" transform="matrix(.97826 0 0 .95238 .48913 .47619)" width="45" height="20" fill="#fff" stroke="#000"/><text class="Text" transform="translate(22.5,13)"   font-size="10px"  text-anchor="middle"><tspan x="0" y="0">RTK</tspan></text></g><g class="Label" transform="translate(68,149)" color="#000"  name="RTK ligand"><rect class="Icon" transform="matrix(.98387 0 0 .95238 .49194 .47619)" width="61" height="20" fill="#fff" stroke="#000"/><text class="Text" transform="translate(30.5,13)"   font-size="10px"  text-anchor="middle"><tspan x="0" y="0">RTK ligand</tspan></text></g><g class="Label" transform="translate(358,421)" color="#000"  name="Multivesicular  bodies"><use class="Icon" width="97" height="24" fill="transparent"  stroke="#000" stroke-width="0" xlink:href="#c"/><text class="Text" transform="translate(48.5,16)"   font-size="12px" font-weight="bold"  text-anchor="middle"><tspan x="0" y="-6.6000000000000005">Multivesicular </tspan> <tspan x="0" y="6.6000000000000005">bodies</tspan></text></g><a  class="GeneProduct HGF " transform="translate(177,54)"   name="HGF"  ><rect class="Icon" transform="matrix(.97872 0 0 .95238 .48936 .47619)" width="46" height="20" fill="#fff" stroke="#000"/><text class="Text" transform="translate(23,13)"   font-size="10px"  text-anchor="middle"><tspan x="0" y="0">HGF</tspan></text></a><a  class="GeneProduct MET " transform="translate(176,106)"   name="HGFR"  ><rect class="Icon" transform="matrix(.98 0 0 .95238 .49 .47619)" width="49" height="20" fill="#fff" stroke="#000"/><text class="Text" transform="translate(24.5,13)"   font-size="10px"  text-anchor="middle"><tspan x="0" y="0">HGFR</tspan></text></a><a  class="GeneProduct PIK3R5 " transform="translate(133,319)"   name="PI3K"  ><rect class="Icon" transform="matrix(.97778 0 0 .95238 .48889 .47619)" width="44" height="20" fill="#fff" stroke="#000"/><text class="Text" transform="translate(22,13)"   font-size="10px"  text-anchor="middle"><tspan x="0" y="0">PI3K</tspan></text></a><a  class="GeneProduct RAF1 " transform="translate(240 267.34)"   name="RAF1"  ><rect class="Icon" transform="matrix(.97826 0 0 .95238 .48913 .47619)" width="45" height="20" fill="#fff" stroke="#000"/><text class="Text" transform="translate(22.5,13)"   font-size="10px"  text-anchor="middle"><tspan x="0" y="0">RAF1</tspan></text></a><g class="GeneProduct" transform="translate(258,306)" color="#000"  name="MAPK"><rect class="Icon" transform="matrix(.98182 0 0 .95238 .49091 .47619)" width="54" height="20" fill="#fff" stroke="#000"/><text class="Text" transform="translate(27,13)"   font-size="10px"  text-anchor="middle"><tspan x="0" y="0">MAPK</tspan></text></g><g class="GeneProduct" transform="translate(328,20)" color="#000"  name="WNT"><rect class="Icon" transform="matrix(.97778 0 0 .95238 .48889 .47619)" width="44" height="20" fill="#fff" stroke="#000"/><text class="Text" transform="translate(22,13)"   font-size="10px"  text-anchor="middle"><tspan x="0" y="0">WNT</tspan></text></g><g class="GeneProduct" transform="translate(319,72)" color="#000"  name="Frizzled"><rect class="Icon" transform="matrix(.98413 0 0 .95238 .49206 .47619)" width="62" height="20" fill="#fff" stroke="#000"/><text class="Text" transform="translate(31,13)"   font-size="10px"  text-anchor="middle"><tspan x="0" y="0">Frizzled</tspan></text></g><g class="GroupGroup" transform="translate(194.5,167)" color="grey" ><use class="Icon" width="62" height="76" fill="transparent"  stroke="grey" stroke-dasharray="5,3" stroke-width="0" xlink:href="#c"/><a  class="GeneProduct HRAS " transform="translate(8,8)"   name="HRAS"  ><rect class="Icon" transform="matrix(.97872 0 0 .95238 .48936 .47619)" width="46" height="20" fill="#fff" stroke="#000"/><text class="Text" transform="translate(23,13)"   font-size="10px"  text-anchor="middle"><tspan x="0" y="0">HRAS</tspan></text></a><a  class="Protein NRAS " transform="translate(8,28)"   name="NRAS"  ><rect class="Icon" transform="matrix(.97872 0 0 .95238 .48936 .47619)" width="46" height="20" fill="#fff" stroke="#000"/><text class="Text" transform="translate(23,13)"   font-size="10px"  text-anchor="middle"><tspan x="0" y="0">NRAS</tspan></text></a><a  class="GeneProduct KRAS " transform="translate(8,48)"   name="KRAS"  ><rect class="Icon" transform="matrix(.97872 0 0 .95238 .48936 .47619)" width="46" height="20" fill="#fff" stroke="#000"/><text class="Text" transform="translate(23,13)"   font-size="10px"  text-anchor="middle"><tspan x="0" y="0">KRAS</tspan></text></a></g><g class="GroupGroup" transform="translate(485,130)" color="grey" ><use class="Icon" width="70" height="76" fill="transparent"  stroke="grey" stroke-dasharray="5,3" stroke-width="0" xlink:href="#c"/><a  class="GeneProduct TGFBR1 " transform="translate(8,8)"   name="TGFBR1"  ><rect class="Icon" transform="matrix(.98182 0 0 .95238 .49091 .47619)" width="54" height="20" fill="#fff" stroke="#000"/><text class="Text" transform="translate(27,13)"   font-size="10px"  text-anchor="middle"><tspan x="0" y="0">TGFBR1</tspan></text></a><a  class="Protein TGFBR2 " transform="translate(8,28)"   name="TGFBR2"  ><rect class="Icon" transform="matrix(.98182 0 0 .95238 .49091 .47619)" width="54" height="20" fill="#fff" stroke="#000"/><text class="Text" transform="translate(27,13)"   font-size="10px"  text-anchor="middle"><tspan x="0" y="0">TGFBR2</tspan></text></a><a  class="GeneProduct TGFBR3 " transform="translate(8,48)"   name="TGFBR3"  ><rect class="Icon" transform="matrix(.98182 0 0 .95238 .49091 .47619)" width="54" height="20" fill="#fff" stroke="#000"/><text class="Text" transform="translate(27,13)"   font-size="10px"  text-anchor="middle"><tspan x="0" y="0">TGFBR3</tspan></text></a></g><g class="GroupGroup" transform="translate(488.5,28)" color="grey" ><use class="Icon" width="63" height="76" fill="transparent"  stroke="grey" stroke-dasharray="5,3" stroke-width="0" xlink:href="#c"/><a  class="GeneProduct TGFB1 " transform="translate(8,8)"   name="TGFB1"  ><rect class="Icon" transform="matrix(.97917 0 0 .95238 .48958 .47619)" width="47" height="20" fill="#fff" stroke="#000"/><text class="Text" transform="translate(23.5,13)"   font-size="10px"  text-anchor="middle"><tspan x="0" y="0">TGFB1</tspan></text></a><a  class="GeneProduct TGFB2 " transform="translate(8,28)"   name="TGFB2"  ><rect class="Icon" transform="matrix(.97917 0 0 .95238 .48958 .47619)" width="47" height="20" fill="#fff" stroke="#000"/><text class="Text" transform="translate(23.5,13)"   font-size="10px"  text-anchor="middle"><tspan x="0" y="0">TGFB2</tspan></text></a><a  class="GeneProduct TGFB3 " transform="translate(8,48)"   name="TGFB3"  ><rect class="Icon" transform="matrix(.97917 0 0 .95238 .48958 .47619)" width="47" height="20" fill="#fff" stroke="#000"/><text class="Text" transform="translate(23.5,13)"   font-size="10px"  text-anchor="middle"><tspan x="0" y="0">TGFB3</tspan></text></a></g><g class="GroupGroup" transform="translate(448.5,245)" color="grey" ><use class="Icon" width="77" height="76" fill="transparent"  stroke="grey" stroke-dasharray="5,3" stroke-width="0" xlink:href="#c"/><a  class="GeneProduct SMAD4 " transform="translate(8,8)"   name="SMAD4"  ><rect class="Icon" transform="matrix(.98387 0 0 .95238 .49194 .47619)" width="61" height="20" fill="#fff" stroke="#000"/><text class="Text" transform="translate(30.5,13)"   font-size="10px"  text-anchor="middle"><tspan x="0" y="0">SMAD4</tspan></text></a><a  class="GeneProduct SMAD2 " transform="translate(8,28)"   name="SMAD2"  ><rect class="Icon" transform="matrix(.98387 0 0 .95238 .49194 .47619)" width="61" height="20" fill="#fff" stroke="#000"/><text class="Text" transform="translate(30.5,13)"   font-size="10px"  text-anchor="middle"><tspan x="0" y="0">SMAD2</tspan></text></a><a  class="GeneProduct SMAD3 " transform="translate(8,48)"   name="SMAD3"  ><rect class="Icon" transform="matrix(.98387 0 0 .95238 .49194 .47619)" width="61" height="20" fill="#fff" stroke="#000"/><text class="Text" transform="translate(30.5,13)"   font-size="10px"  text-anchor="middle"><tspan x="0" y="0">SMAD3</tspan></text></a></g><g class="GroupGroup" transform="translate(314.5,129)" color="grey" ><use class="Icon" width="71" height="76" fill="transparent"  stroke="grey" stroke-dasharray="5,3" stroke-width="0" xlink:href="#c"/><a  class="GeneProduct APC " transform="translate(14.5,8)"   name="APC"  ><rect class="Icon" transform="matrix(.97674 0 0 .95238 .48837 .47619)" width="42" height="20" fill="#fff" stroke="#000"/><text class="Text" transform="translate(21,13)"   font-size="10px"  text-anchor="middle"><tspan x="0" y="0">APC</tspan></text></a><a  class="GeneProduct AXIN1 " transform="translate(13.5,28)"   name="AXIN1"  ><rect class="Icon" transform="matrix(.97778 0 0 .95238 .48889 .47619)" width="44" height="20" fill="#fff" stroke="#000"/><text class="Text" transform="translate(22,13)"   font-size="10px"  text-anchor="middle"><tspan x="0" y="0">AXIN1</tspan></text></a><a  class="GeneProduct CTNNB1 " transform="translate(8,48)"   name="CTNNB1"  ><rect class="Icon" transform="matrix(.98214 0 0 .95238 .49107 .47619)" width="55" height="20" fill="#fff" stroke="#000"/><text class="Text" transform="translate(27.5,13)"   font-size="10px"  text-anchor="middle"><tspan x="0" y="0">CTNNB1</tspan></text></a></g><g class="Label" transform="translate(644.77 653.97)" color="#000"  name="Exosome mediated signal transduction"><use class="Icon" width="125" height="28" fill="transparent"  stroke="#000" stroke-width="0" xlink:href="#c"/><text class="Text" transform="translate(62.5,18)"   font-size="12px" font-weight="bold"  text-anchor="middle"><tspan x="0" y="-6.6000000000000005">Exosome mediated</tspan> <tspan x="0" y="6.6000000000000005">signal transduction</tspan></text></g><a  class="GeneProduct AKT1 " transform="translate(181 391.77)"   name="AKT1"  ><rect class="Icon" transform="matrix(.975 0 0 .95238 .4875 .47619)" width="39" height="20" fill="#fff" stroke="#000"/><text class="Text" transform="translate(19.5,13)"   font-size="10px"  text-anchor="middle"><tspan x="0" y="0">AKT1</tspan></text></a><g class="SingleFreeNode Shape PhysicalEntity CellularComponent Vesicle" transform="translate(300,364)" color="#990000" ><use class="Icon" transform="matrix(.86047 0 0 .86047 1.2907 1.2907)" width="18.5" height="18.5" fill="transparent"  stroke="#990000" stroke-width="3" xlink:href="#d"/></g><g class="SingleFreeNode Shape PhysicalEntity CellularComponent Vesicle" transform="translate(308,390)" color="#990000" ><use class="Icon" transform="matrix(.86047 0 0 .86047 1.2907 1.2907)" width="18.5" height="18.5" fill="transparent"  stroke="#990000" stroke-width="3" xlink:href="#d"/></g><g class="SingleFreeNode Shape PhysicalEntity CellularComponent Vesicle" transform="translate(282,387)" color="#990000" ><use class="Icon" transform="matrix(.86047 0 0 .86047 1.2907 1.2907)" width="18.5" height="18.5" fill="transparent"  stroke="#990000" stroke-width="3" xlink:href="#d"/></g><g class="SingleFreeNode Shape PhysicalEntity CellularComponent Vesicle" transform="translate(291,417)" color="#990000" ><use class="Icon" transform="matrix(.86047 0 0 .86047 1.2907 1.2907)" width="18.5" height="18.5" fill="transparent"  stroke="#990000" stroke-width="3" xlink:href="#d"/></g><g id="w" class="DirectedInteraction" color="#000" ><g color="#000" fill="transparent"  filter="url(#b)" stroke="#000" stroke-dasharray="14.91660181065907, 5.8"><path class="EdgeBody" d="m262.5 287.34 9 18.66"   marker-end="url(#a)" /></g></g><text class="Text" transform="translate(5,27)" dominant-baseline="central" fill="black"  font-size="12px" font-weight="bold" overflow="visible" ><tspan x="0" y="-9">Name: Extracellular vesicle-mediated signaling in recipient cells</tspan> <tspan x="0" y="9">Organism: Homo sapiens</tspan></text></g></svg>
