<?xml version="1.0" encoding="UTF-8"?>
<!--
  WikiPathways page: https://www.wikipathways.org/index.php/Pathway:WP2895
  URL for this compressed file: https://github.com/eweitz/cachome/tree/main/data/wikipathways/WP2895.svg
  Source code for compression: https://github.com/eweitz/cachome/tree/main/src/wikipathways.py
-->
<svg class="Diagram" width="800" height="600" color="black" baseProfile="full" prefix="schema:http://schema.org/" preserveAspectRatio="xMidYMid" version="1.1" viewBox="0 0 637.96 594.46" vocab="http://vocabularies.wikipathways.org/wp#" xmlns="http://www.w3.org/2000/svg" xmlns:xlink="http://www.w3.org/1999/xlink"><style>svg {font-family: 'Liberation Sans', Arial, sans-serif; }</style><defs><filter id="a" x="0" y="0" width="637.96" height="594.46" filterUnits="userSpaceOnUse"><feColorMatrix in="SourceGraphic" values="-1   0   0 0 0                   0  -1   0 0 0                   0   0  -1 0 0                   0   0   0 1 0"/></filter><marker id="e" stroke-dasharray="99999" markerHeight="12" markerUnits="userSpaceOnUse" markerWidth="12" orient="auto" preserveAspectRatio="none" refX="12" refY="6" viewBox="0 0 12 12"><path transform="rotate(180 6 6)" d="M12 11L0 6l12-5z" fill="currentColor" stroke-width="0"/></marker><marker id="f" stroke-dasharray="99999" markerHeight="20" markerUnits="userSpaceOnUse" markerWidth="10" orient="auto" preserveAspectRatio="none" refX="10" refY="10" viewBox="0 0 10 20"><path d="m3 0v20" fill="currentColor" stroke="currentColor"/></marker><marker id="c" stroke-dasharray="99999" markerHeight="12" markerUnits="userSpaceOnUse" markerWidth="12" orient="auto" preserveAspectRatio="none" refX="12" refY="6" viewBox="0 0 12 12"><g transform="rotate(180 6 6)" fill="none"><path d="m12 6"/><path d="M0 6l11 5V1z" stroke="#000"/></g></marker><symbol id="d" overflow="visible" preserveAspectRatio="none" viewBox="0 0 100 100"><path d="M0 25L25 0h50l25 25v50l-25 25H25L0 75z" stroke="currentColor" vector-effect="non-scaling-stroke"/></symbol><symbol id="b" preserveAspectRatio="none" viewBox="0 0 100 100"/></defs><g class="Viewport" color="black"  name="Name: Differentiation of white and brown adipocyte Organism: Homo sapiens"><rect class="Icon" width="637.96" height="594.46" fill="#fff" stroke="#000" stroke-width="0"/><g id="g" class="Interaction" color="#000" ><g color="#000" fill="transparent"  filter="url(#a)" stroke="#000" stroke-dasharray="176.85192053698574, 5.8"><path class="EdgeBody" d="m252.85 65.014h-13.645v148.53h20.482"   marker-end="url(#e)" /></g><g class="Burr Anchor" transform="translate(239.2 138.62)" ><use class="Icon" width="0" height="0" fill="#141414" stroke-width="0" xlink:href="#b"/></g></g><g id="h" class="Interaction" color="#000" ><g color="#000" fill="transparent"  filter="url(#a)" stroke="#000" stroke-dasharray="177.18538504210636, 5.8"><path class="EdgeBody" d="m430.05 65.014h7.957v148.53h-26.503"   marker-end="url(#e)" /></g><g class="Burr Anchor" transform="translate(438 138.62)" ><use class="Icon" width="0" height="0" fill="#141414" stroke-width="0" xlink:href="#b"/></g></g><g id="i" class="Interaction" color="#000" ><g color="#000" fill="transparent"  filter="url(#a)" stroke="#000" stroke-dasharray="49.094067916193985, 11"><path class="EdgeBody" d="m377.91 138.7 60.094-0.075794"   marker-end="url(#c)" /></g></g><g id="j" class="Interaction" color="#000" ><g color="#000" fill="transparent"  filter="url(#a)" stroke="#000" stroke-dasharray="47.707675646380295, 11"><path class="EdgeBody" d="m297.91 138.7-58.708-0.075794"   marker-end="url(#c)" /></g></g><g id="k" class="Interaction" color="#000" ><g color="#000" fill="transparent"  filter="url(#a)" stroke="#000" stroke-dasharray="212.0375673551822, 5.8"><path class="EdgeBody" d="m297.64 223.54-125.63 177.96"   marker-end="url(#e)" /></g><g class="Burr Anchor" transform="translate(211.62 345.38)" ><use class="Icon" width="0" height="0" fill="#141414" stroke-width="0" xlink:href="#b"/></g><g class="Burr Anchor" transform="translate(264.42 270.58)" ><use class="Icon" width="0" height="0" fill="#141414" stroke-width="0" xlink:href="#b"/></g><g class="Burr Anchor" transform="translate(255.52 283.2)" ><use class="Icon" width="0" height="0" fill="#141414" stroke-width="0" xlink:href="#b"/></g><g class="Burr Anchor" transform="translate(227.36 323.09)" ><use class="Icon" width="0" height="0" fill="#141414" stroke-width="0" xlink:href="#b"/></g></g><g id="l" class="Interaction" color="#000" ><g color="#000" fill="transparent"  filter="url(#a)" stroke="#000" stroke-dasharray="211.54553916176965, 5.8"><path class="EdgeBody" d="m373.54 223.54 121.6 180.14"   marker-end="url(#e)" /></g><g class="Burr Anchor" transform="translate(441.51 324.22)" ><use class="Icon" width="0" height="0" fill="#141414" stroke-width="0" xlink:href="#b"/></g><g class="Burr Anchor" transform="translate(413.47 282.69)" ><use class="Icon" width="0" height="0" fill="#141414" stroke-width="0" xlink:href="#b"/></g><g class="Burr Anchor" transform="translate(402.39 266.27)" ><use class="Icon" width="0" height="0" fill="#141414" stroke-width="0" xlink:href="#b"/></g><g class="Burr Anchor" transform="translate(460.9 352.95)" ><use class="Icon" width="0" height="0" fill="#141414" stroke-width="0" xlink:href="#b"/></g></g><g id="m" class="Interaction" color="#000" ><g color="#000" fill="transparent"  filter="url(#a)" stroke="#000" stroke-dasharray="33.67188243941591, 11"><path class="EdgeBody" d="m194.53 138.11 44.669 0.51445"   marker-end="url(#c)" /></g></g><g id="n" class="Interaction" color="#000" ><g color="#000" fill="transparent"  filter="url(#a)" stroke="#000" stroke-dasharray="27.911169250777654, 11"><path class="EdgeBody" d="m294.42 282.51-38.905 0.68919"   marker-end="url(#c)" /></g></g><g id="o" class="Interaction" color="#000" ><g color="#000" fill="transparent"  filter="url(#a)" stroke="#000" stroke-dasharray="56.07338769349941, 11"><path class="EdgeBody" d="m294.42 324.09-67.066-0.99354"   marker-end="url(#c)" /></g></g><g id="p" class="Interaction" color="#000" ><g color="#000" fill="transparent"  filter="url(#a)" stroke="#000" stroke-dasharray="50.88467603392792, 7"><path class="EdgeBody" d="m153.74 345.73 57.884-0.35024"   marker-end="url(#f)" /></g></g><g id="q" class="Interaction" color="#000" ><g color="#000" fill="transparent"  filter="url(#a)" stroke="#000" stroke-dasharray="64.39105951766055, 11"><path class="EdgeBody" d="m513.39 139.65-75.384-1.0302"   marker-end="url(#c)" /></g></g><g id="r" class="Interaction" color="#000" ><g color="#000" fill="transparent"  filter="url(#a)" stroke="#000" stroke-dasharray="28.051655033589036, 11"><path class="EdgeBody" d="m374.42 282.51 39.051 0.17599"   marker-end="url(#c)" /></g></g><g id="s" class="Interaction" color="#000" ><g color="#000" fill="transparent"  filter="url(#a)" stroke="#000" stroke-dasharray="56.08538193151456, 11"><path class="EdgeBody" d="m374.42 324.09 67.085 0.13409"   marker-end="url(#c)" /></g></g><g id="t" class="Interaction" color="#000" ><g color="#000" fill="transparent"  filter="url(#a)" stroke="#000" stroke-dasharray="102.57671833951609, 11"><path class="EdgeBody" d="m515.96 265.05-113.57 1.2268"   marker-end="url(#c)" /></g></g><g id="u" class="Interaction" color="#000" ><g color="#000" fill="transparent"  filter="url(#a)" stroke="#000" stroke-dasharray="42.904530634079116, 11"><path class="EdgeBody" d="m514.8 353.28-53.903-0.33631"   marker-end="url(#c)" /></g></g><g id="v" class="Interaction" color="#000" ><g color="#000" fill="transparent"  filter="url(#a)" stroke="#000" stroke-dasharray="84.64188368835532, 11"><path class="EdgeBody" d="m168.78 269.98 95.64 0.60032"   marker-end="url(#c)" /></g></g><g class="GroupNone" transform="translate(94.515 400.5)" color="grey" ><rect class="Icon" transform="matrix(.99359 0 0 .99309 .49679 .49654)" width="154.98" height="143.64" fill="#b4b464" fill-opacity=".1" stroke="grey" stroke-dasharray="5,3"/><g class="Label" transform="translate(9,9)" color="#cc0066"  name="White Adipocyte"><use class="Icon" width="136.97534613454744" height="20" fill="transparent"  stroke="#cc0066" stroke-width="0" xlink:href="#b"/><text class="Text" transform="translate(68.488 14)" fill="#cc0066"  font-size="14px" font-weight="bold"  text-anchor="middle"><tspan x="0" y="0">White Adipocyte</tspan></text></g><a  class="GeneProduct LEP " transform="translate(37.171 34.645)"   name="Leptin"  ><rect class="Icon" transform="matrix(.98765 0 0 .95238 .49383 .47619)" width="80" height="20" fill="#fff" stroke="#000"/><text class="Text" transform="translate(40,13)"   font-size="10px"  text-anchor="middle"><tspan x="0" y="0">Leptin</tspan></text></a><a  class="GeneProduct ADIPOQ " transform="translate(37.171 54.645)"   name="Adiponectin"  ><rect class="Icon" transform="matrix(.98765 0 0 .95238 .49383 .47619)" width="80" height="20" fill="#fff" stroke="#000"/><text class="Text" transform="translate(40,13)"   font-size="10px"  text-anchor="middle"><tspan x="0" y="0">Adiponectin</tspan></text></a><a  class="GeneProduct SLC7A10 " transform="translate(37.171 74.645)"   name="ASC-1"  ><rect class="Icon" transform="matrix(.98765 0 0 .95238 .49383 .47619)" width="80" height="20" fill="#fff" stroke="#000"/><text class="Text" transform="translate(40,13)"   font-size="10px"  text-anchor="middle"><tspan x="0" y="0">ASC-1</tspan></text></a><a  class="GeneProduct HOXC8 " transform="translate(37.171 94.645)"   name="HOXC8"  ><rect class="Icon" transform="matrix(.98765 0 0 .95238 .49383 .47619)" width="80" height="20" fill="#fff" stroke="#000"/><text class="Text" transform="translate(40,13)"   font-size="10px"  text-anchor="middle"><tspan x="0" y="0">HOXC8</tspan></text></a><a  class="GeneProduct HOXC9 " transform="translate(37.171 114.64)"   name="HOXC9"  ><rect class="Icon" transform="matrix(.98765 0 0 .95238 .49383 .47619)" width="80" height="20" fill="#fff" stroke="#000"/><text class="Text" transform="translate(40,13)"   font-size="10px"  text-anchor="middle"><tspan x="0" y="0">HOXC9</tspan></text></a></g><a  class="GeneProduct ZNF423 " transform="translate(297.91 128.7)"   name="Zfp423"  ><rect class="Icon" transform="matrix(.98765 0 0 .95238 .49383 .47619)" width="80" height="20" fill="#fff" stroke="#000"/><text class="Text" transform="translate(40,13)"   font-size="10px"  text-anchor="middle"><tspan x="0" y="0">Zfp423</tspan></text></a><a  class="GeneProduct PPARG " transform="translate(294.42 272.51)"   name="PPARγ"  ><rect class="Icon" transform="matrix(.98765 0 0 .95238 .49383 .47619)" width="80" height="20" fill="#fff" stroke="#000"/><text class="Text" transform="translate(40,13)"   font-size="10px"  text-anchor="middle"><tspan x="0" y="0">PPARγ</tspan></text></a><a  class="GeneProduct CEBPA " transform="translate(294.42 314.09)"   name="C/EBPα"  ><rect class="Icon" transform="matrix(.98765 0 0 .95238 .49383 .47619)" width="80" height="20" fill="#fff" stroke="#000"/><text class="Text" transform="translate(40,13)"   font-size="10px"  text-anchor="middle"><tspan x="0" y="0">C/EBPα</tspan></text></a><a  class="GeneProduct PRDM16 " transform="translate(73.737 335.73)"   name="PRDM16"  ><rect class="Icon" transform="matrix(.98765 0 0 .95238 .49383 .47619)" width="80" height="20" fill="#fff" stroke="#000"/><text class="Text" transform="translate(40,13)"   font-size="10px"  text-anchor="middle"><tspan x="0" y="0">PRDM16</tspan></text></a><g class="GroupNone" transform="translate(415.24 402.68)" color="grey" ><rect class="Icon" transform="matrix(.99378 0 0 .99389 .49689 .49695)" width="159.81" height="162.78" fill="#b4b464" fill-opacity=".1" stroke="grey" stroke-dasharray="5,3"/><a  class="GeneProduct PRDM16 " transform="translate(42.618 33.776)"   name="PRDM16"  ><rect class="Icon" transform="matrix(.98765 0 0 .95238 .49383 .47619)" width="80" height="20" fill="#fff" stroke="#000"/><text class="Text" transform="translate(40,13)"   font-size="10px"  text-anchor="middle"><tspan x="0" y="0">PRDM16</tspan></text></a><a  class="GeneProduct CIDEA " transform="translate(42.618 53.776)"   name="CIDEA"  ><rect class="Icon" transform="matrix(.98765 0 0 .95238 .49383 .47619)" width="80" height="20" fill="#fff" stroke="#000"/><text class="Text" transform="translate(40,13)"   font-size="10px"  text-anchor="middle"><tspan x="0" y="0">CIDEA</tspan></text></a><a  class="GeneProduct EBF3 " transform="translate(42.618 93.776)"   name="EBF3"  ><rect class="Icon" transform="matrix(.98765 0 0 .95238 .49383 .47619)" width="80" height="20" fill="#fff" stroke="#000"/><text class="Text" transform="translate(40,13)"   font-size="10px"  text-anchor="middle"><tspan x="0" y="0">EBF3</tspan></text></a><a  class="GeneProduct HSPB7 " transform="translate(42.618 113.78)"   name="HSPB7"  ><rect class="Icon" transform="matrix(.98765 0 0 .95238 .49383 .47619)" width="80" height="20" fill="#fff" stroke="#000"/><text class="Text" transform="translate(40,13)"   font-size="10px"  text-anchor="middle"><tspan x="0" y="0">HSPB7</tspan></text></a><a  class="GeneProduct ZIC1 " transform="translate(42.618 133.78)"   name="ZIC1"  ><rect class="Icon" transform="matrix(.98765 0 0 .95238 .49383 .47619)" width="80" height="20" fill="#fff" stroke="#000"/><text class="Text" transform="translate(40,13)"   font-size="10px"  text-anchor="middle"><tspan x="0" y="0">ZIC1</tspan></text></a><a  class="GeneProduct MPZL2 " transform="translate(42.618 73.776)"   name="EVA1"  ><rect class="Icon" transform="matrix(.98765 0 0 .95238 .49383 .47619)" width="80" height="20" fill="#fff" stroke="#000"/><text class="Text" transform="translate(40,13)"   font-size="10px"  text-anchor="middle"><tspan x="0" y="0">EVA1</tspan></text></a><g class="Label" transform="translate(9,9)" color="#cc0066"  name="Brown Adipocyte"><use class="Icon" width="141.80868467771197" height="20" fill="transparent"  stroke="#cc0066" stroke-width="0" xlink:href="#b"/><text class="Text" transform="translate(70.904 14)" fill="#cc0066"  font-size="14px" font-weight="bold"  text-anchor="middle"><tspan x="0" y="0">Brown Adipocyte</tspan></text></g></g><g class="GroupComplex" transform="translate(90.532 76.106)" color="grey" ><use class="Icon" transform="matrix(.99048 0 0 .992 .49524 .496)" width="104" height="123.99999999999997" fill="#b4b464" fill-opacity=".1" stroke="grey" xlink:href="#d"/><a  class="GeneProduct BMP2 " transform="translate(12,12)"   name="BMP2"  ><rect class="Icon" transform="matrix(.98765 0 0 .95238 .49383 .47619)" width="80" height="20" fill="#fff" stroke="#000"/><text class="Text" transform="translate(40,13)"   font-size="10px"  text-anchor="middle"><tspan x="0" y="0">BMP2</tspan></text></a><a  class="GeneProduct BMP4 " transform="translate(12 32)"   name="BMP4"  ><rect class="Icon" transform="matrix(.98765 0 0 .95238 .49383 .47619)" width="80" height="20" fill="#fff" stroke="#000"/><text class="Text" transform="translate(40,13)"   font-size="10px"  text-anchor="middle"><tspan x="0" y="0">BMP4</tspan></text></a><a  class="GeneProduct SMAD1 " transform="translate(12 52)"   name="Smad1"  ><rect class="Icon" transform="matrix(.98765 0 0 .95238 .49383 .47619)" width="80" height="20" fill="#fff" stroke="#000"/><text class="Text" transform="translate(40,13)"   font-size="10px"  text-anchor="middle"><tspan x="0" y="0">Smad1</tspan></text></a><a  class="GeneProduct SMAD5 " transform="translate(12 72)"   name="Smad5"  ><rect class="Icon" transform="matrix(.98765 0 0 .95238 .49383 .47619)" width="80" height="20" fill="#fff" stroke="#000"/><text class="Text" transform="translate(40,13)"   font-size="10px"  text-anchor="middle"><tspan x="0" y="0">Smad5</tspan></text></a><a  class="GeneProduct SMAD9 " transform="translate(12 92)"   name="Smad8"  ><rect class="Icon" transform="matrix(.98765 0 0 .95238 .49383 .47619)" width="80" height="20" fill="#fff" stroke="#000"/><text class="Text" transform="translate(40,13)"   font-size="10px"  text-anchor="middle"><tspan x="0" y="0">Smad8</tspan></text></a></g><g class="GroupComplex" transform="translate(513.39 87.65)" color="grey" ><use class="Icon" transform="matrix(.99048 0 0 .99048 .49524 .49524)" width="104.00000000000023" height="104.00000000000004" fill="#b4b464" fill-opacity=".1" stroke="grey" xlink:href="#d"/><a  class="GeneProduct BMP7 " transform="translate(12 12)"   name="BMP7"  ><rect class="Icon" transform="matrix(.98765 0 0 .95238 .49383 .47619)" width="80" height="20" fill="#fff" stroke="#000"/><text class="Text" transform="translate(40,13)"   font-size="10px"  text-anchor="middle"><tspan x="0" y="0">BMP7</tspan></text></a><a  class="GeneProduct SMAD9 " transform="translate(12 72)"   name="Smad9"  ><rect class="Icon" transform="matrix(.98765 0 0 .95238 .49383 .47619)" width="80" height="20" fill="#fff" stroke="#000"/><text class="Text" transform="translate(40,13)"   font-size="10px"  text-anchor="middle"><tspan x="0" y="0">Smad9</tspan></text></a><a  class="GeneProduct SMAD5 " transform="translate(12 52)"   name="Smad5"  ><rect class="Icon" transform="matrix(.98765 0 0 .95238 .49383 .47619)" width="80" height="20" fill="#fff" stroke="#000"/><text class="Text" transform="translate(40,13)"   font-size="10px"  text-anchor="middle"><tspan x="0" y="0">Smad5</tspan></text></a><a  class="GeneProduct SMAD1 " transform="translate(12 32)"   name="Smad1"  ><rect class="Icon" transform="matrix(.98765 0 0 .95238 .49383 .47619)" width="80" height="20" fill="#fff" stroke="#000"/><text class="Text" transform="translate(40,13)"   font-size="10px"  text-anchor="middle"><tspan x="0" y="0">Smad1</tspan></text></a></g><g class="GroupComplex" transform="translate(515.96 223.05)" color="grey" ><use class="Icon" transform="matrix(.99048 0 0 .98824 .49524 .49412)" width="104" height="84" fill="#b4b464" fill-opacity=".1" stroke="grey" xlink:href="#d"/><a  class="GeneProduct CEBPB " transform="translate(12,32)"   name="C/EBPβ"  ><rect class="Icon" transform="matrix(.98765 0 0 .95238 .49383 .47619)" width="80" height="20" fill="#fff" stroke="#000"/><text class="Text" transform="translate(40,13)"   font-size="10px"  text-anchor="middle"><tspan x="0" y="0">C/EBPβ</tspan></text></a><a  class="GeneProduct PRDM16 " transform="translate(12,52)"   name="PRDM16"  ><rect class="Icon" transform="matrix(.98765 0 0 .95238 .49383 .47619)" width="80" height="20" fill="#fff" stroke="#000"/><text class="Text" transform="translate(40,13)"   font-size="10px"  text-anchor="middle"><tspan x="0" y="0">PRDM16</tspan></text></a><a  class="GeneProduct PLAC8 " transform="translate(12,12)"   name="PLAC8"  ><rect class="Icon" transform="matrix(.98765 0 0 .95238 .49383 .47619)" width="80" height="20" fill="#fff" stroke="#000"/><text class="Text" transform="translate(40,13)"   font-size="10px"  text-anchor="middle"><tspan x="0" y="0">PLAC8</tspan></text></a></g><g class="GroupComplex" transform="translate(514.8 321.28)" color="grey" ><use class="Icon" transform="matrix(.99048 0 0 .98462 .49524 .49231)" width="104" height="64.00000000000006" fill="#b4b464" fill-opacity=".1" stroke="grey" xlink:href="#d"/><a  class="GeneProduct PPARGC1A " transform="translate(12,12)"   name="PGC-1α"  ><rect class="Icon" transform="matrix(.98765 0 0 .95238 .49383 .47619)" width="80" height="20" fill="#fff" stroke="#000"/><text class="Text" transform="translate(40,13)"   font-size="10px"  text-anchor="middle"><tspan x="0" y="0">PGC-1α</tspan></text></a><a  class="GeneProduct PPARGC1B " transform="translate(12 32)"   name="PGC-1β"  ><rect class="Icon" transform="matrix(.98765 0 0 .95238 .49383 .47619)" width="80" height="20" fill="#fff" stroke="#000"/><text class="Text" transform="translate(40,13)"   font-size="10px"  text-anchor="middle"><tspan x="0" y="0">PGC-1β</tspan></text></a></g><g class="GroupComplex" transform="translate(64.785 237.98)" color="grey" ><use class="Icon" transform="matrix(.99048 0 0 .98462 .49524 .49231)" width="103.99999999999999" height="64" fill="#b4b464" fill-opacity=".1" stroke="grey" xlink:href="#d"/><a  class="GeneProduct CEBPG " transform="translate(12,32)"   name="C/EBPδ"  ><rect class="Icon" transform="matrix(.98765 0 0 .95238 .49383 .47619)" width="80" height="20" fill="#fff" stroke="#000"/><text class="Text" transform="translate(40,13)"   font-size="10px"  text-anchor="middle"><tspan x="0" y="0">C/EBPδ</tspan></text></a><a  class="GeneProduct CEBPB " transform="translate(12,12)"   name="C/EBPβ"  ><rect class="Icon" transform="matrix(.98765 0 0 .95238 .49383 .47619)" width="80" height="20" fill="#fff" stroke="#000"/><text class="Text" transform="translate(40,13)"   font-size="10px"  text-anchor="middle"><tspan x="0" y="0">C/EBPβ</tspan></text></a></g><g class="Label" transform="translate(259.68 203.54)" color="#cc0066"  name="Preadipocyte"><use class="Icon" width="151.8166778448465" height="19.999999999999986" fill="transparent"  stroke="#cc0066" stroke-width="0" xlink:href="#b"/><text class="Text" transform="translate(75.908 14)" fill="#cc0066"  font-size="14px" font-weight="bold"  text-anchor="middle"><tspan x="0" y="0">Preadipocyte</tspan></text></g><g class="Label" transform="translate(252.85 55.014)" color="#cc0066"  name="Vascular progenitors"><use class="Icon" width="177.19971350025625" height="20" fill="transparent"  stroke="#cc0066" stroke-width="0" xlink:href="#b"/><text class="Text" transform="translate(88.6 14)" fill="#cc0066"  font-size="14px" font-weight="bold"  text-anchor="middle"><tspan x="0" y="0">Vascular progenitors</tspan></text></g><text class="Text" transform="translate(5,27)" dominant-baseline="central" fill="black"  font-size="12px" font-weight="bold" overflow="visible" ><tspan x="0" y="-9">Name: Differentiation of white and brown adipocyte</tspan> <tspan x="0" y="9">Organism: Homo sapiens</tspan></text></g></svg>
