<?xml version="1.0" encoding="UTF-8"?>
<!--
  WikiPathways page: https://www.wikipathways.org/index.php/Pathway:WP29
  URL for this compressed file: https://github.com/eweitz/cachome/tree/main/data/wikipathways/WP29.svg
  Source code for compression: https://github.com/eweitz/cachome/tree/main/src/wikipathways.py
-->
<svg class="Diagram" width="800" height="600" color="black" baseProfile="full" prefix="schema:http://schema.org/" preserveAspectRatio="xMidYMid" version="1.1" viewBox="0 0 1163.3 570.29" vocab="http://vocabularies.wikipathways.org/wp#" xmlns="http://www.w3.org/2000/svg" xmlns:xlink="http://www.w3.org/1999/xlink"><style>svg {font-family: 'Liberation Sans', Arial, sans-serif; }</style><defs><filter id="a" x="0" y="0" width="1163.3" height="570.29" filterUnits="userSpaceOnUse"><feColorMatrix in="SourceGraphic" values="-1   0   0 0 0                   0  -1   0 0 0                   0   0  -1 0 0                   0   0   0 1 0"/></filter><filter id="e" x="0" y="0" width="1163.3" height="570.29" filterUnits="userSpaceOnUse"><feColorMatrix in="SourceGraphic" values="-1   0   0 0 0.8                   0  -1   0 0 0.8                   0   0  -1 0 0.8                   0   0   0 1 0"/></filter><marker id="c" stroke-dasharray="99999" markerHeight="12" markerUnits="userSpaceOnUse" markerWidth="12" orient="auto" preserveAspectRatio="none" refX="12" refY="6" viewBox="0 0 12 12"><path transform="rotate(180 6 6)" d="M12 11L0 6l12-5z" fill="currentColor" stroke-width="0"/></marker><marker id="f" stroke-dasharray="99999" markerHeight="20" markerUnits="userSpaceOnUse" markerWidth="10" orient="auto" preserveAspectRatio="none" refX="10" refY="10" viewBox="0 0 10 20"><path d="m3 0v20" fill="currentColor" stroke="currentColor"/></marker><symbol id="g" overflow="visible" preserveAspectRatio="none" viewBox="0 0 50 50"><ellipse cx="25" cy="25" rx="25" ry="25" stroke="currentColor" vector-effect="non-scaling-stroke"/></symbol><symbol id="b" overflow="visible" preserveAspectRatio="none" viewBox="0 0 100 100"><path d="M0 25L25 0h50l25 25v50l-25 25H25L0 75z" stroke="currentColor" vector-effect="non-scaling-stroke"/></symbol><symbol id="d" preserveAspectRatio="none" viewBox="0 0 100 100"/></defs><g class="Viewport" color="black"  name="Name: Notch signaling pathway Last Modified: 10/17/2013 Organism: Mus musculus"><rect class="Icon" width="1163.3" height="570.29" fill="#fff" stroke="#000" stroke-width="0"/><g id="h" class="Edge GraphicalLine" color="#ccc" ><g color="#ccc" fill="transparent"  filter="url(#e)" stroke="#000" stroke-dasharray="354.278074866311, 0" stroke-width="2"><path class="EdgeBody" d="m278.02 104.22v354.28"   /></g></g><g id="i" class="Edge GraphicalLine" color="#ccc" ><g color="#ccc" fill="transparent"  filter="url(#e)" stroke="#000" stroke-dasharray="354.27807486631104, 0" stroke-width="2"><path class="EdgeBody" d="m292.09 104.92v354.28"   /></g></g><g id="j" class="Edge GraphicalLine" color="#ccc" ><g color="#ccc" fill="transparent"  filter="url(#e)" stroke="#000" stroke-dasharray="354.27807486631025, 0" stroke-width="2"><path class="EdgeBody" d="m50.107 116.95v354.28"   /></g></g><g id="k" class="Edge GraphicalLine" color="#ccc" ><g color="#ccc" fill="transparent"  filter="url(#e)" stroke="#000" stroke-dasharray="354.27807486631025, 0" stroke-width="2"><path class="EdgeBody" d="m64.171 117.65v354.28"   /></g></g><g id="l" class="DirectedInteraction" color="#000" ><g color="#000" fill="transparent"  filter="url(#a)" stroke="#000" stroke-dasharray="5.24, 3.15, 5.24, 3.15, 5.24, 3.15, 5.24, 3.15, 5.24, 3.15, 5.24, 3.15, 5.24, 3.15, 5.24, 3.15, 5.24, 5.8"><path class="EdgeBody" d="m606.67 520.01 78.167-0.0092667"   marker-end="url(#c)" /></g></g><g id="m" class="DirectedInteraction" color="#000" ><g color="#000" fill="transparent"  filter="url(#a)" stroke="#000" stroke-dasharray="107.75126106252142, 5.8"><path class="EdgeBody" d="m190 406.67 75.667-84.667"   marker-end="url(#c)" /></g></g><g id="n" class="Inhibition" color="#000" ><g color="#000" fill="transparent"  filter="url(#a)" stroke="#000" stroke-dasharray="70.46899021185472, 7"><path class="EdgeBody" d="m370 172-62.333 46"   marker-end="url(#f)" /></g></g><g id="o" class="DirectedInteraction" color="#000" ><g color="#000" fill="transparent"  filter="url(#a)" stroke="#000" stroke-dasharray="360.54076425584356, 5.8"><path class="EdgeBody" d="m328.67 270 366.33-2.3333"   marker-end="url(#c)" /></g></g><g id="p" class="DirectedInteraction" color="#000" ><g color="#000" fill="transparent"  filter="url(#a)" stroke="#000" stroke-dasharray="5.12, 3.07, 5.12, 3.07, 5.12, 3.07, 5.12, 3.07, 5.12, 3.07, 5.12, 3.07, 5.12, 3.07, 5.12, 3.07, 5.12, 3.07, 5.12, 3.07, 5.12, 3.07, 5.12, 3.07, 5.12, 3.07, 5.12, 3.07, 5.12, 3.07, 5.12, 3.07, 5.12, 3.07, 5.12, 3.07, 5.12, 3.07, 5.12, 3.07, 5.12, 3.07, 5.12, 3.07, 5.12, 3.07, 5.12, 3.07, 5.12, 3.07, 5.12, 3.07, 5.12, 3.07, 5.12, 3.07, 5.12, 3.07, 5.12, 3.07, 5.12, 3.07, 5.12, 3.07, 5.12, 3.07, 5.12, 3.07, 5.12, 3.07, 5.12, 3.07, 5.12, 3.07, 5.12, 3.07, 5.12, 3.07, 5.12, 3.07, 5.12, 3.07, 5.12, 3.07, 5.12, 5.8"><path class="EdgeBody" d="m328.67 270h20v250.01h84.667"   marker-end="url(#c)" /></g></g><g id="q" class="Inhibition" color="#000" ><g color="#000" fill="transparent"  filter="url(#a)" stroke="#000" stroke-dasharray="87.66197171456383, 7"><path class="EdgeBody" d="m401.33 183.33-72.667 60.667"   marker-end="url(#f)" /></g></g><g id="r" class="DirectedInteraction" color="#000" ><g color="#000" fill="transparent"  filter="url(#a)" stroke="#000" stroke-dasharray="171.51735516988862, 5.8"><path class="EdgeBody" d="m328.67 270 166-62.333"   marker-end="url(#c)" /></g></g><g id="s" class="DirectedInteraction" color="#000" ><g color="#000" fill="transparent"  filter="url(#a)" stroke="#000" stroke-dasharray="141.20037792846355, 5.8"><path class="EdgeBody" d="m97.667 270.33 147-0.33333"   marker-end="url(#c)" /></g><g class="Burr Anchor" transform="translate(178.68 270.15)" ><use class="Icon" width="0" height="0" fill="#141414" stroke-width="0" xlink:href="#d"/></g></g><g id="t" class="Inhibition" color="#000" ><g color="#000" fill="transparent"  filter="url(#a)" stroke="#000" stroke-dasharray="147.5416161139488, 7"><path class="EdgeBody" d="m98.667 346.67 146-50.667"   marker-end="url(#f)" /></g></g><g id="u" class="DirectedInteraction" color="#000" ><g color="#000" fill="transparent"  filter="url(#a)" stroke="#000" stroke-dasharray="53.34963113240973, 5.8"><path class="EdgeBody" d="m178.67 211 0.013333 59.15"   marker-end="url(#c)" /></g></g><g id="v" class="DirectedInteraction" color="#000" ><g color="#000" fill="transparent"  filter="url(#a)" stroke="#000" stroke-dasharray="88.13673994295903, 5.8"><path class="EdgeBody" d="m364.67 396.67-57-74.667"   marker-end="url(#c)" /></g></g><g id="w" class="DirectedInteraction" color="#000" ><g color="#000" fill="transparent"  filter="url(#a)" stroke="#000" stroke-dasharray="56.13365626037086, 5.8"><path class="EdgeBody" d="m766.67 198.67 49.667 37"   marker-end="url(#c)" /></g></g><g id="x" class="Interaction" color="#000" ><g color="#000" fill="transparent"  filter="url(#a)" stroke="#000" stroke-dasharray="47.72607021092118, 0"><path class="EdgeBody" d="m861.67 235.67 36-31.333"   /></g></g><g id="y" class="DirectedInteraction" color="#000" ><g color="#000" fill="transparent"  filter="url(#a)" stroke="#000" stroke-dasharray="224.03371102216963, 5.8"><path class="EdgeBody" d="m740.33 267.67 229.83 0.41667"   marker-end="url(#c)" /></g><g class="Burr Anchor" transform="translate(832.27 267.83)" ><use class="Icon" width="0" height="0" fill="#141414" stroke-width="0" xlink:href="#d"/></g></g><g id="z" class="DirectedInteraction" color="#000" ><g color="#000" fill="transparent"  filter="url(#a)" stroke="#000" stroke-dasharray="36.36740776687306, 5.8"><path class="EdgeBody" d="m1034.5 268.08 42.167 0.25"   marker-end="url(#c)" /></g></g><g id="aa" class="DirectedInteraction" color="#000" ><g color="#000" fill="transparent"  filter="url(#a)" stroke="#000" stroke-dasharray="44.4973277675419, 5.8"><path class="EdgeBody" d="m1034.5 252.54 26.833-42.542"   marker-end="url(#c)" /></g></g><g id="ab" class="Interaction" color="#000" ><g color="#000" fill="transparent"  filter="url(#a)" stroke="#000" stroke-dasharray="32.5376534016958, 0"><path class="EdgeBody" d="m832.27 267.83 6.7333 31.833"   /></g></g><g class="SingleFreeNode Shape" transform="translate(626.67 203.33)" color="#000" ><rect class="Icon" transform="matrix(.86957 0 0 .96386 .43478 .48193)" width="6.6667" height="26.667" fill="#afafaf" stroke="#000"/></g><g class="SingleFreeNode Shape" transform="translate(626.67 236.67)" color="#000" ><rect class="Icon" transform="matrix(.86957 0 0 .96386 .43478 .48193)" width="6.6667" height="26.667" fill="#afafaf" stroke="#000"/></g><g class="SingleFreeNode Shape" transform="translate(626.67 273.33)" color="#000" ><rect class="Icon" transform="matrix(.86957 0 0 .96386 .43478 .48193)" width="6.6667" height="26.667" fill="#afafaf" stroke="#000"/></g><g class="SingleFreeNode Shape" transform="translate(626.67 306.67)" color="#000" ><rect class="Icon" transform="matrix(.86957 0 0 .96386 .43478 .48193)" width="6.6667" height="26.667" fill="#afafaf" stroke="#000"/></g><g class="SingleFreeNode Shape" transform="translate(433.33 499.73)" color="#000" ><rect class="Icon" transform="matrix(.99426 0 0 .97593 .49713 .48797)" width="173.33" height="40.552" fill="transparent"  stroke="#000"/></g><g class="GroupComplex" transform="translate(970.17 237)" color="grey" ><use class="Icon" transform="matrix(.98469 0 0 .98417 .49235 .49208)" width="64.33333333333337" height="62.166666666666686" fill="#b4b464" fill-opacity=".1" stroke="grey" xlink:href="#b"/><g class="SingleFreeNode Shape" transform="translate(24.713 12)" color="#000" ><use class="Icon" transform="matrix(.93714 0 0 .93023 .46857 .46512)" width="14.907119999999999" height="13.333333333333334" fill="transparent"  stroke="#000" xlink:href="#g"/></g><g class="Label" transform="translate(12 31.167)" color="#000"  name="DNA"><use class="Icon" width="40.333333333333336" height="19" fill="transparent"  stroke="#000" stroke-width="0" xlink:href="#d"/><text class="Text" transform="translate(20.167 13.5)"   font-size="12px" font-weight="bold"  text-anchor="middle"><tspan x="0" y="0">DNA</tspan></text></g></g><g class="Label" transform="translate(695 258.17)" color="#000"  name="NICD"><use class="Icon" width="45.333333333333336" height="19" fill="transparent"  stroke="#000" stroke-width="0" xlink:href="#d"/><text class="Text" transform="translate(22.667 13.5)"   font-size="12px" font-weight="bold"  text-anchor="middle"><tspan x="0" y="0">NICD</tspan></text></g><g class="Label" transform="translate(778.83 298.67)" color="#000"  name="co-repressor complex"><use class="Icon" width="142.33333333333334" height="16" fill="transparent"  stroke="#000" stroke-width="0" xlink:href="#d"/><text class="Text" transform="translate(71.167 11)"   font-size="10px" font-weight="bold"  text-anchor="middle"><tspan x="0" y="0">co-repressor complex</tspan></text></g><g class="Label" transform="translate(647.67 276.83)" color="#000"  name="Notch Intracellular Domain"><use class="Icon" width="131.33333333333334" height="13" fill="transparent"  stroke="#000" stroke-width="0" xlink:href="#d"/><text class="Text" transform="translate(65.667 8.5)"   font-size="8px"  text-anchor="middle"><tspan x="0" y="0">Notch Intracellular Domain</tspan></text></g><g class="Label" transform="translate(438.33 512.01)" color="#000"  name="MAPK signaling pathway"><use class="Icon" width="163.33333333333334" height="16" fill="transparent"  stroke="#000" stroke-width="0" xlink:href="#d"/><text class="Text" transform="translate(81.667 11)"   font-size="10px" font-weight="bold"  text-anchor="middle"><tspan x="0" y="0">MAPK signaling pathway</tspan></text></g><g class="Label" transform="translate(684.83 512)" color="#000"  name="gene expression"><use class="Icon" width="110.33333333333333" height="16" fill="transparent"  stroke="#000" stroke-width="0" xlink:href="#d"/><text class="Text" transform="translate(55.167 11)"   font-size="10px" font-weight="bold"  text-anchor="middle"><tspan x="0" y="0">gene expression</tspan></text></g><g class="Label" transform="translate(182.67 352)" color="#000"  name="S2"><use class="Icon" width="21.333333333333332" height="16" fill="transparent"  stroke="#000" stroke-width="0" xlink:href="#d"/><text class="Text" transform="translate(10.667 11)"   font-size="10px" font-weight="bold"  text-anchor="middle"><tspan x="0" y="0">S2</tspan></text></g><g class="Label" transform="translate(336 318.67)" color="#000"  name="S3"><use class="Icon" width="21.333333333333332" height="16" fill="transparent"  stroke="#000" stroke-width="0" xlink:href="#d"/><text class="Text" transform="translate(10.667 11)"   font-size="10px" font-weight="bold"  text-anchor="middle"><tspan x="0" y="0">S3</tspan></text></g><g class="Label" transform="translate(347 498.67)" color="#000"  name="Ras/Map"><use class="Icon" width="59.333333333333336" height="16" fill="transparent"  stroke="#000" stroke-width="0" xlink:href="#d"/><text class="Text" transform="translate(29.667 11)"   font-size="10px" font-weight="bold"  text-anchor="middle"><tspan x="0" y="0">Ras/Map</tspan></text></g><a  class="GeneProduct P594_ENSMUSG00000036858 " transform="translate(1076.7 258.33)"   name="Ptcra"  ><rect class="Icon" transform="matrix(.9816 0 0 .95238 .4908 .47619)" width="53.333" height="20" fill="#fff" stroke="#000"/><text class="Text" transform="translate(26.667 13)"   font-size="10px"  text-anchor="middle"><tspan x="0" y="0">Ptcra</tspan></text></a><a  class="GeneProduct P594_ENSMUSG00000041777 " transform="translate(896.67 346.67)"   name="CIR"  ><rect class="Icon" transform="matrix(.98361 0 0 .95238 .4918 .47619)" width="60" height="20" fill="#fff" stroke="#000"/><text class="Text" transform="translate(30,13)"   font-size="10px"  text-anchor="middle"><tspan x="0" y="0">CIR</tspan></text></a><a  class="GeneProduct P594_ENSMUSG00000052593 " transform="translate(160 406.67)"   name="Adam17"  ><rect class="Icon" transform="matrix(.98361 0 0 .95238 .4918 .47619)" width="60" height="20" fill="#fff" stroke="#000"/><text class="Text" transform="translate(30,13)"   font-size="10px"  text-anchor="middle"><tspan x="0" y="0">Adam17</tspan></text></a><a  class="GeneProduct P594_ENSMUSG00000021039 " transform="translate(867.67 184.33)"   name="SKIP"  ><rect class="Icon" transform="matrix(.98361 0 0 .95238 .4918 .47619)" width="60" height="20" fill="#fff" stroke="#000"/><text class="Text" transform="translate(30,13)"   font-size="10px"  text-anchor="middle"><tspan x="0" y="0">SKIP</tspan></text></a><a  class="GeneProduct P594_ENSMUSG00000029478 " transform="translate(896.67 320)"   name="Ncor2"  ><rect class="Icon" transform="matrix(.98361 0 0 .95238 .4918 .47619)" width="60" height="20" fill="#fff" stroke="#000"/><text class="Text" transform="translate(30,13)"   font-size="10px"  text-anchor="middle"><tspan x="0" y="0">Ncor2</tspan></text></a><g class="GroupComplex" transform="translate(328,88)" color="grey" ><use class="Icon" transform="matrix(.98824 0 0 .98824 .49412 .49412)" width="84" height="84" fill="#b4b464" fill-opacity=".1" stroke="grey" xlink:href="#b"/><a  class="GeneProduct P594_ENSMUSG00000029071 " transform="translate(12,12)"   name="Dvl1"  ><rect class="Icon" transform="matrix(.98361 0 0 .95238 .4918 .47619)" width="60" height="20" fill="#fff" stroke="#000"/><text class="Text" transform="translate(30,13)"   font-size="10px"  text-anchor="middle"><tspan x="0" y="0">Dvl1</tspan></text></a><a  class="GeneProduct P594_ENSMUSG00000020888 " transform="translate(12,32)"   name="Dvl2"  ><rect class="Icon" transform="matrix(.98361 0 0 .95238 .4918 .47619)" width="60" height="20" fill="#fff" stroke="#000"/><text class="Text" transform="translate(30,13)"   font-size="10px"  text-anchor="middle"><tspan x="0" y="0">Dvl2</tspan></text></a><a  class="GeneProduct P594_ENSMUSG00000003233 " transform="translate(12,52)"   name="Dvl3"  ><rect class="Icon" transform="matrix(.98361 0 0 .95238 .4918 .47619)" width="60" height="20" fill="#fff" stroke="#000"/><text class="Text" transform="translate(30,13)"   font-size="10px"  text-anchor="middle"><tspan x="0" y="0">Dvl3</tspan></text></a></g><g class="GroupComplex" transform="translate(244.67 218)" color="grey" ><use class="Icon" transform="matrix(.98824 0 0 .99048 .49412 .49524)" width="84" height="104" fill="#b4b464" fill-opacity=".1" stroke="grey" xlink:href="#b"/><a  class="GeneProduct P594_ENSMUSG00000026923 " transform="translate(12,12)"   name="Notch1"  ><rect class="Icon" transform="matrix(.98361 0 0 .95238 .4918 .47619)" width="60" height="20" fill="#fff" stroke="#000"/><text class="Text" transform="translate(30,13)"   font-size="10px"  text-anchor="middle"><tspan x="0" y="0">Notch1</tspan></text></a><a  class="GeneProduct P594_ENSMUSG00000027878 " transform="translate(12,32)"   name="Notch2"  ><rect class="Icon" transform="matrix(.98361 0 0 .95238 .4918 .47619)" width="60" height="20" fill="#fff" stroke="#000"/><text class="Text" transform="translate(30,13)"   font-size="10px"  text-anchor="middle"><tspan x="0" y="0">Notch2</tspan></text></a><a  class="GeneProduct P594_ENSMUSG00000038146 " transform="translate(12,52)"   name="Notch3"  ><rect class="Icon" transform="matrix(.98361 0 0 .95238 .4918 .47619)" width="60" height="20" fill="#fff" stroke="#000"/><text class="Text" transform="translate(30,13)"   font-size="10px"  text-anchor="middle"><tspan x="0" y="0">Notch3</tspan></text></a><a  class="GeneProduct P594_ENSMUSG00000015468 " transform="translate(12,72)"   name="Notch4"  ><rect class="Icon" transform="matrix(.98361 0 0 .95238 .4918 .47619)" width="60" height="20" fill="#fff" stroke="#000"/><text class="Text" transform="translate(30,13)"   font-size="10px"  text-anchor="middle"><tspan x="0" y="0">Notch4</tspan></text></a></g><g class="GroupComplex" transform="translate(401.33 151.33)" color="grey" ><use class="Icon" transform="matrix(.98824 0 0 .98462 .49412 .49231)" width="84" height="64" fill="#b4b464" fill-opacity=".1" stroke="grey" xlink:href="#b"/><a  class="GeneProduct P594_ENSMUSG00000021224 " transform="translate(12,12)"   name="Numb"  ><rect class="Icon" transform="matrix(.98361 0 0 .95238 .4918 .47619)" width="60" height="20" fill="#fff" stroke="#000"/><text class="Text" transform="translate(30,13)"   font-size="10px"  text-anchor="middle"><tspan x="0" y="0">Numb</tspan></text></a><a  class="GeneProduct P594_ENSMUSG00000063160 " transform="translate(12,32)"   name="Numbl"  ><rect class="Icon" transform="matrix(.98361 0 0 .95238 .4918 .47619)" width="60" height="20" fill="#fff" stroke="#000"/><text class="Text" transform="translate(30,13)"   font-size="10px"  text-anchor="middle"><tspan x="0" y="0">Numbl</tspan></text></a></g><g class="GroupComplex" transform="translate(494.67 114.67)" color="grey" ><use class="Icon" transform="matrix(.98824 0 0 .992 .49412 .496)" width="84" height="124" fill="#b4b464" fill-opacity=".1" stroke="grey" xlink:href="#b"/><a  class="GeneProduct P594_ENSMUSG00000029603 " transform="translate(12,12)"   name="Dtx1"  ><rect class="Icon" transform="matrix(.98361 0 0 .95238 .4918 .47619)" width="60" height="20" fill="#fff" stroke="#000"/><text class="Text" transform="translate(30,13)"   font-size="10px"  text-anchor="middle"><tspan x="0" y="0">Dtx1</tspan></text></a><a  class="GeneProduct P594_ENSMUSG00000004947 " transform="translate(12,32)"   name="Dtx2"  ><rect class="Icon" transform="matrix(.98361 0 0 .95238 .4918 .47619)" width="60" height="20" fill="#fff" stroke="#000"/><text class="Text" transform="translate(30,13)"   font-size="10px"  text-anchor="middle"><tspan x="0" y="0">Dtx2</tspan></text></a><a  class="GeneProduct P594_ENSMUSG00000040415 " transform="translate(12,52)"   name="Dtx3"  ><rect class="Icon" transform="matrix(.98361 0 0 .95238 .4918 .47619)" width="60" height="20" fill="#fff" stroke="#000"/><text class="Text" transform="translate(30,13)"   font-size="10px"  text-anchor="middle"><tspan x="0" y="0">Dtx3</tspan></text></a><a  class="GeneProduct P594_ENSMUSG00000039982 " transform="translate(12,72)"   name="Dtx4"  ><rect class="Icon" transform="matrix(.98361 0 0 .95238 .4918 .47619)" width="60" height="20" fill="#fff" stroke="#000"/><text class="Text" transform="translate(30,13)"   font-size="10px"  text-anchor="middle"><tspan x="0" y="0">Dtx4</tspan></text></a><a  class="GeneProduct P594_ENSMUSG00000049502 " transform="translate(12,92)"   name="Dtx3l"  ><rect class="Icon" transform="matrix(.98361 0 0 .95238 .4918 .47619)" width="60" height="20" fill="#fff" stroke="#000"/><text class="Text" transform="translate(30,13)"   font-size="10px"  text-anchor="middle"><tspan x="0" y="0">Dtx3l</tspan></text></a></g><g class="GroupComplex" transform="translate(136.67 127)" color="grey" ><use class="Icon" transform="matrix(.98824 0 0 .98824 .49412 .49412)" width="84" height="84" fill="#b4b464" fill-opacity=".1" stroke="grey" xlink:href="#b"/><a  class="GeneProduct P594_ENSMUSG00000029570 " transform="translate(12,12)"   name="Lfng"  ><rect class="Icon" transform="matrix(.98361 0 0 .95238 .4918 .47619)" width="60" height="20" fill="#fff" stroke="#000"/><text class="Text" transform="translate(30,13)"   font-size="10px"  text-anchor="middle"><tspan x="0" y="0">Lfng</tspan></text></a><a  class="GeneProduct P594_ENSMUSG00000018169 " transform="translate(12,32)"   name="Mfng"  ><rect class="Icon" transform="matrix(.98361 0 0 .95238 .4918 .47619)" width="60" height="20" fill="#fff" stroke="#000"/><text class="Text" transform="translate(30,13)"   font-size="10px"  text-anchor="middle"><tspan x="0" y="0">Mfng</tspan></text></a><a  class="GeneProduct P594_ENSMUSG00000025158 " transform="translate(12,52)"   name="Rfng"  ><rect class="Icon" transform="matrix(.98361 0 0 .95238 .4918 .47619)" width="60" height="20" fill="#fff" stroke="#000"/><text class="Text" transform="translate(30,13)"   font-size="10px"  text-anchor="middle"><tspan x="0" y="0">Rfng</tspan></text></a></g><g class="GroupComplex" transform="translate(13.667 228.33)" color="grey" ><use class="Icon" transform="matrix(.98824 0 0 .98824 .49412 .49412)" width="84" height="83.99999999999997" fill="#b4b464" fill-opacity=".1" stroke="grey" xlink:href="#b"/><a  class="GeneProduct P594_ENSMUSG00000014773 " transform="translate(12,12)"   name="Dll1"  ><rect class="Icon" transform="matrix(.98361 0 0 .95238 .4918 .47619)" width="60" height="20" fill="#fff" stroke="#000"/><text class="Text" transform="translate(30,13)"   font-size="10px"  text-anchor="middle"><tspan x="0" y="0">Dll1</tspan></text></a><a  class="GeneProduct P594_ENSMUSG00000003436 " transform="translate(12 32)"   name="Dll3"  ><rect class="Icon" transform="matrix(.98361 0 0 .95238 .4918 .47619)" width="60" height="20" fill="#fff" stroke="#000"/><text class="Text" transform="translate(30,13)"   font-size="10px"  text-anchor="middle"><tspan x="0" y="0">Dll3</tspan></text></a><a  class="GeneProduct P594_ENSMUSG00000027314 " transform="translate(12 52)"   name="Dll4"  ><rect class="Icon" transform="matrix(.98361 0 0 .95238 .4918 .47619)" width="60" height="20" fill="#fff" stroke="#000"/><text class="Text" transform="translate(30,13)"   font-size="10px"  text-anchor="middle"><tspan x="0" y="0">Dll4</tspan></text></a></g><g class="GroupComplex" transform="translate(14.667 314.67)" color="grey" ><use class="Icon" transform="matrix(.98824 0 0 .98462 .49412 .49231)" width="84" height="64" fill="#b4b464" fill-opacity=".1" stroke="grey" xlink:href="#b"/><a  class="GeneProduct P594_ENSMUSG00000027276 " transform="translate(12,12)"   name="Jag1"  ><rect class="Icon" transform="matrix(.98361 0 0 .95238 .4918 .47619)" width="60" height="20" fill="#fff" stroke="#000"/><text class="Text" transform="translate(30,13)"   font-size="10px"  text-anchor="middle"><tspan x="0" y="0">Jag1</tspan></text></a><a  class="GeneProduct P594_ENSMUSG00000002799 " transform="translate(12,32)"   name="Jag2"  ><rect class="Icon" transform="matrix(.98361 0 0 .95238 .4918 .47619)" width="60" height="20" fill="#fff" stroke="#000"/><text class="Text" transform="translate(30,13)"   font-size="10px"  text-anchor="middle"><tspan x="0" y="0">Jag2</tspan></text></a></g><g class="GroupComplex" transform="translate(364.67 324.67)" color="grey" ><use class="Icon" transform="matrix(.98824 0 0 .9931 .49412 .49655)" width="84" height="144" fill="#b4b464" fill-opacity=".1" stroke="grey" xlink:href="#b"/><a  class="GeneProduct P594_ENSMUSG00000015750 " transform="translate(12,12)"   name="Aph1a"  ><rect class="Icon" transform="matrix(.98361 0 0 .95238 .4918 .47619)" width="60" height="20" fill="#fff" stroke="#000"/><text class="Text" transform="translate(30,13)"   font-size="10px"  text-anchor="middle"><tspan x="0" y="0">Aph1a</tspan></text></a><a  class="GeneProduct P594_ENSMUSG00000032375 " transform="translate(12,32)"   name="Aph1b"  ><rect class="Icon" transform="matrix(.98361 0 0 .95238 .4918 .47619)" width="60" height="20" fill="#fff" stroke="#000"/><text class="Text" transform="translate(30,13)"   font-size="10px"  text-anchor="middle"><tspan x="0" y="0">Aph1b</tspan></text></a><a  class="GeneProduct P594_ENSMUSG00000024401 " transform="translate(12,52)"   name="Tnf"  ><rect class="Icon" transform="matrix(.98361 0 0 .95238 .4918 .47619)" width="60" height="20" fill="#fff" stroke="#000"/><text class="Text" transform="translate(30,13)"   font-size="10px"  text-anchor="middle"><tspan x="0" y="0">Tnf</tspan></text></a><a  class="GeneProduct P594_ENSMUSG00000019969 " transform="translate(12,72)"   name="Psen1"  ><rect class="Icon" transform="matrix(.98361 0 0 .95238 .4918 .47619)" width="60" height="20" fill="#fff" stroke="#000"/><text class="Text" transform="translate(30,13)"   font-size="10px"  text-anchor="middle"><tspan x="0" y="0">Psen1</tspan></text></a><a  class="GeneProduct P594_ENSMUSG00000010609 " transform="translate(12,92)"   name="Psen2"  ><rect class="Icon" transform="matrix(.98361 0 0 .95238 .4918 .47619)" width="60" height="20" fill="#fff" stroke="#000"/><text class="Text" transform="translate(30,13)"   font-size="10px"  text-anchor="middle"><tspan x="0" y="0">Psen2</tspan></text></a><a  class="GeneProduct P594_ENSMUSG00000003458 " transform="translate(12,112)"   name="Ncstn"  ><rect class="Icon" transform="matrix(.98361 0 0 .95238 .4918 .47619)" width="60" height="20" fill="#fff" stroke="#000"/><text class="Text" transform="translate(30,13)"   font-size="10px"  text-anchor="middle"><tspan x="0" y="0">Ncstn</tspan></text></a></g><g class="GroupComplex" transform="translate(718 311.33)" color="grey" ><use class="Icon" transform="matrix(.98824 0 0 .98462 .49412 .49231)" width="84" height="64" fill="#b4b464" fill-opacity=".1" stroke="grey" xlink:href="#b"/><a  class="GeneProduct P594_ENSMUSG00000037373 " transform="translate(12,12)"   name="Ctbp1"  ><rect class="Icon" transform="matrix(.98361 0 0 .95238 .4918 .47619)" width="60" height="20" fill="#fff" stroke="#000"/><text class="Text" transform="translate(30,13)"   font-size="10px"  text-anchor="middle"><tspan x="0" y="0">Ctbp1</tspan></text></a><a  class="GeneProduct P594_ENSMUSG00000030970 " transform="translate(12,32)"   name="Ctbp2"  ><rect class="Icon" transform="matrix(.98361 0 0 .95238 .4918 .47619)" width="60" height="20" fill="#fff" stroke="#000"/><text class="Text" transform="translate(30,13)"   font-size="10px"  text-anchor="middle"><tspan x="0" y="0">Ctbp2</tspan></text></a></g><g class="GroupComplex" transform="translate(798 344.67)" color="grey" ><use class="Icon" transform="matrix(.98824 0 0 .98462 .49412 .49231)" width="84" height="64" fill="#b4b464" fill-opacity=".1" stroke="grey" xlink:href="#b"/><a  class="GeneProduct P594_ENSMUSG00000019777 " transform="translate(12,32)"   name="Hdac2"  ><rect class="Icon" transform="matrix(.98361 0 0 .95238 .4918 .47619)" width="60" height="20" fill="#fff" stroke="#000"/><text class="Text" transform="translate(30,13)"   font-size="10px"  text-anchor="middle"><tspan x="0" y="0">Hdac2</tspan></text></a><a  class="GeneProduct P594_ENSMUSG00000028800 " transform="translate(12,12)"   name="Hdac1"  ><rect class="Icon" transform="matrix(.98361 0 0 .95238 .4918 .47619)" width="60" height="20" fill="#fff" stroke="#000"/><text class="Text" transform="translate(30,13)"   font-size="10px"  text-anchor="middle"><tspan x="0" y="0">Hdac1</tspan></text></a></g><g class="GroupComplex" transform="translate(718 54.667)" color="grey" ><use class="Icon" transform="matrix(.98983 0 0 .9931 .49492 .49655)" width="97.33333333333337" height="144" fill="#b4b464" fill-opacity=".1" stroke="grey" xlink:href="#b"/><g class="GeneProduct" transform="translate(12 112)" color="#000"  name="LOC330129"><rect class="Icon" transform="matrix(.98655 0 0 .95238 .49327 .47619)" width="73.333" height="20" fill="#fff" stroke="#000"/><text class="Text" transform="translate(36.667 13)"   font-size="10px"  text-anchor="middle"><tspan x="0" y="0">LOC330129</tspan></text></g><a  class="GeneProduct P594_ENSMUSG00000022521 " transform="translate(12,52)"   name="Crebbp"  ><rect class="Icon" transform="matrix(.98655 0 0 .95238 .49327 .47619)" width="73.333" height="20" fill="#fff" stroke="#000"/><text class="Text" transform="translate(36.667 13)"   font-size="10px"  text-anchor="middle"><tspan x="0" y="0">Crebbp</tspan></text></a><a  class="GeneProduct P594_ENSMUSG00000020918 " transform="translate(12 72)"   name="GCN5L2"  ><rect class="Icon" transform="matrix(.98655 0 0 .95238 .49327 .47619)" width="73.333" height="20" fill="#fff" stroke="#000"/><text class="Text" transform="translate(36.667 13)"   font-size="10px"  text-anchor="middle"><tspan x="0" y="0">GCN5L2</tspan></text></a><a  class="Uniprot-TrEMBL_Q9JHD1 GeneProduct P594_ENSMUSG00000000708 " transform="translate(12 92)"   name="PCAF"  ><rect class="Icon" transform="matrix(.98655 0 0 .95238 .49327 .47619)" width="73.333" height="20" fill="#fff" stroke="#000"/><text class="Text" transform="translate(36.667 13)"   font-size="10px"  text-anchor="middle"><tspan x="0" y="0">PCAF</tspan></text></a><a  class="GeneProduct P594_ENSMUSG00000061143 " transform="translate(12,32)"   name="Maml3"  ><rect class="Icon" transform="matrix(.98655 0 0 .95238 .49327 .47619)" width="73.333" height="20" fill="#fff" stroke="#000"/><text class="Text" transform="translate(36.667 13)"   font-size="10px"  text-anchor="middle"><tspan x="0" y="0">Maml3</tspan></text></a><a  class="GeneProduct P594_ENSMUSG00000050567 " transform="translate(12,12)"   name="Maml1"  ><rect class="Icon" transform="matrix(.98655 0 0 .95238 .49327 .47619)" width="73.333" height="20" fill="#fff" stroke="#000"/><text class="Text" transform="translate(36.667 13)"   font-size="10px"  text-anchor="middle"><tspan x="0" y="0">Maml1</tspan></text></a></g><g class="GroupComplex" transform="translate(793.67 235.67)" color="grey" ><use class="Icon" transform="matrix(.98909 0 0 .98462 .49455 .49231)" width="90.66666666666663" height="64" fill="#b4b464" fill-opacity=".1" stroke="grey" xlink:href="#b"/><a  class="GeneProduct P594_ENSMUSG00000017007 " transform="translate(12,32)"   name="RBPSUHL"  ><rect class="Icon" transform="matrix(.98522 0 0 .95238 .49261 .47619)" width="66.667" height="20" fill="#fff" stroke="#000"/><text class="Text" transform="translate(33.333 13)"   font-size="10px"  text-anchor="middle"><tspan x="0" y="0">RBPSUHL</tspan></text></a><a  class="GeneProduct P594_ENSMUSG00000039191 " transform="translate(12,12)"   name="RBP-J"  ><rect class="Icon" transform="matrix(.98522 0 0 .95238 .49261 .47619)" width="66.667" height="20" fill="#fff" stroke="#000"/><text class="Text" transform="translate(33.333 13)"   font-size="10px"  text-anchor="middle"><tspan x="0" y="0">RBP-J</tspan></text></a></g><g class="GroupComplex" transform="translate(1061.3 178)" color="grey" ><use class="Icon" transform="matrix(.98824 0 0 .98462 .49412 .49231)" width="84" height="64" fill="#b4b464" fill-opacity=".1" stroke="grey" xlink:href="#b"/><a  class="GeneProduct P594_ENSMUSG00000022528 " transform="translate(12,12)"   name="Hes1"  ><rect class="Icon" transform="matrix(.98361 0 0 .95238 .4918 .47619)" width="60" height="20" fill="#fff" stroke="#000"/><text class="Text" transform="translate(30,13)"   font-size="10px"  text-anchor="middle"><tspan x="0" y="0">Hes1</tspan></text></a><a  class="GeneProduct P594_ENSMUSG00000048001 " transform="translate(12,32)"   name="Hes5"  ><rect class="Icon" transform="matrix(.98361 0 0 .95238 .4918 .47619)" width="60" height="20" fill="#fff" stroke="#000"/><text class="Text" transform="translate(30,13)"   font-size="10px"  text-anchor="middle"><tspan x="0" y="0">Hes5</tspan></text></a></g><text class="Text" transform="translate(5,36)" dominant-baseline="central" fill="black"  font-size="12px" font-weight="bold" overflow="visible" ><tspan x="0" y="-18">Name: Notch signaling pathway</tspan> <tspan x="0" y="0">Last Modified: 10/17/2013</tspan> <tspan x="0" y="18">Organism: Mus musculus</tspan></text></g></svg>
