<?xml version="1.0" encoding="UTF-8"?>
<!--
  WikiPathways page: https://www.wikipathways.org/index.php/Pathway:WP2942
  URL for this compressed file: https://github.com/eweitz/cachome/tree/main/data/wikipathways/WP2942.svg
  Source code for compression: https://github.com/eweitz/cachome/tree/main/src/wikipathways.py
-->
<svg class="Diagram" width="800" height="600" color="black" baseProfile="full" prefix="schema:http://schema.org/" preserveAspectRatio="xMidYMid" version="1.1" viewBox="0 0 778.31 518.05" vocab="http://vocabularies.wikipathways.org/wp#" xmlns="http://www.w3.org/2000/svg" xmlns:xlink="http://www.w3.org/1999/xlink"><style>svg {font-family: 'Liberation Sans', Arial, sans-serif; }</style><defs><filter id="a" x="0" y="0" width="778.31" height="518.05" filterUnits="userSpaceOnUse"><feColorMatrix in="SourceGraphic" values="-1   0   0 0 0                   0  -1   0 0 0                   0   0  -1 0 0                   0   0   0 1 0"/></filter><marker id="c" stroke-dasharray="99999" markerHeight="12" markerUnits="userSpaceOnUse" markerWidth="12" orient="auto" preserveAspectRatio="none" refX="12" refY="6" viewBox="0 0 12 12"><path transform="rotate(180 6 6)" d="M12 11L0 6l12-5z" fill="currentColor" stroke-width="0"/></marker><marker id="f" stroke-dasharray="99999" markerHeight="12" markerUnits="userSpaceOnUse" markerWidth="12" orient="auto" preserveAspectRatio="none" refX="12" refY="6" viewBox="0 0 12 12"><circle transform="rotate(180 6 6)" cx="6" cy="6" r="5.3" fill="none" stroke="#000"/></marker><marker id="e" stroke-dasharray="99999" markerHeight="20" markerUnits="userSpaceOnUse" markerWidth="10" orient="auto" preserveAspectRatio="none" refX="10" refY="10" viewBox="0 0 10 20"><path d="m3 0v20" fill="currentColor" stroke="currentColor"/></marker><symbol id="d" overflow="visible" preserveAspectRatio="none" viewBox="0 0 50 50"><ellipse cx="25" cy="25" rx="25" ry="25" stroke="currentColor" vector-effect="non-scaling-stroke"/></symbol><symbol id="g" overflow="visible" preserveAspectRatio="none" viewBox="0 0 100 100"><path d="M0 25L25 0h50l25 25v50l-25 25H25L0 75z" stroke="currentColor" vector-effect="non-scaling-stroke"/></symbol><symbol id="b" preserveAspectRatio="none" viewBox="0 0 100 100"/></defs><g class="Viewport" color="black"  name="Name: DDX1 as a regulatory component of the Drosha microprocessor Organism: Homo sapiens"><rect class="Icon" width="778.31" height="518.05" fill="#fff" stroke="#000" stroke-width="0"/><g class="GroupGroup" transform="translate(87.62 145.68)" color="grey" ><use class="Icon" width="378.2393135548149" height="26" fill="transparent"  stroke="grey" stroke-dasharray="5,3" stroke-width="0" xlink:href="#b"/><g id="h" class="Edge GraphicalLine" color="#000" ><g color="#000" fill="transparent"  filter="url(#a)" stroke="#000" stroke-dasharray="362.23929747530076, 0" stroke-width="2"><path class="EdgeBody" d="m8 8h362.24"   /></g></g><g id="i" class="Edge GraphicalLine" color="#000" ><g color="#000" fill="transparent"  filter="url(#a)" stroke="#000" stroke-dasharray="362.23929747530076, 0" stroke-width="2"><path class="EdgeBody" d="m8 18h362.24"   /></g></g></g><g id="j" class="DirectedInteraction" color="#000" ><g color="#000" fill="transparent"  filter="url(#a)" stroke="#000" stroke-dasharray="6, 3.6, 6, 3.6, 6, 3.6, 0, 5.8"><path class="EdgeBody" d="m126.24 100.06 0.23564 32.747"   marker-end="url(#c)" /></g></g><g id="k" class="DirectedInteraction" color="#000" ><g color="#000" fill="transparent"  filter="url(#a)" stroke="#000" stroke-dasharray="212.03208615481273, 5.8"><path class="EdgeBody" d="m126.23 446.21 217.83 0.12075"   marker-end="url(#c)" /></g><g class="Burr Anchor" transform="translate(228.73 446.27)" ><use class="Icon" width="0" height="0" fill="#141414" stroke-width="0" xlink:href="#b"/></g></g><g id="l" class="DirectedInteraction" color="#000" ><g color="#000" fill="transparent"  filter="url(#a)" stroke="#000" stroke-dasharray="46.67557948693325, 5.8"><path class="EdgeBody" d="m308.55 240.93-52.475 0.21048"   marker-end="url(#c)" /></g><g class="Burr Anchor" transform="translate(294.72 240.98)" ><use class="Icon" width="0" height="0" fill="#141414" stroke-width="0" xlink:href="#b"/></g></g><g id="m" class="Interaction" color="#000" ><g color="#000" fill="transparent"  filter="url(#a)" stroke="#000" stroke-dasharray="39.74150733411843, 11"><path class="EdgeBody" d="m294.79 190.24-0.071722 50.741"   marker-end="url(#f)" /></g></g><g id="n" class="Inhibition" color="#000" ><g color="#000" fill="transparent"  filter="url(#a)" stroke="#000" stroke-dasharray="5.36, 3.22, 5.36, 3.22, 5.36, 3.22, 5.36, 3.22, 5.36, 3.22, 5.36, 3.22, 5.36, 3.22, 5.36, 3.22, 5.36, 3.22, 0, 7"><path class="EdgeBody" d="m413.95 446.33 81.027 0.057446"   marker-end="url(#e)" /></g></g><g id="o" class="DirectedInteraction" color="#000" ><g color="#000" fill="transparent"  filter="url(#a)" stroke="#000" stroke-dasharray="57.682357522589584, 5.8"><path class="EdgeBody" d="m228.71 382.79 0.020696 63.482"   marker-end="url(#c)" /></g></g><g id="p" class="DirectedInteraction" color="#000" ><g color="#000" fill="transparent"  filter="url(#a)" stroke="#000" stroke-dasharray="61.48572188662935, 5.8"><path class="EdgeBody" d="m228.74 251.14-0.031982 67.286"   marker-end="url(#c)" /></g></g><g class="SingleFreeNode Shape" transform="translate(56.35 436.88)" color="#990099"  name="pri-miRNA"><rect class="Icon" transform="matrix(.98589 0 0 .94914 .49295 .47457)" width="69.885" height="18.661" fill="transparent"  stroke="#909"/><text class="Text" transform="translate(34.942 12.33)" fill="#990099"  font-size="10px"  text-anchor="middle"><tspan x="0" y="0">pri-miRNA</tspan></text></g><g class="Label" transform="translate(149.19 454.05)" color="#000"  name="Enhanced processing of  DDX1-dependent miRNAs"><use class="Icon" width="169.33333333333275" height="34.000000000000256" fill="transparent"  stroke="#000" stroke-width="0" xlink:href="#b"/><text class="Text" transform="translate(84.667 21)"   font-size="12px" font-weight="bold"  text-anchor="middle"><tspan x="0" y="-6.6000000000000005">Enhanced processing of </tspan> <tspan x="0" y="6.6000000000000005">DDX1-dependent miRNAs</tspan></text></g><g class="Label" transform="translate(494.98 426.06)" color="#000"  name="Epithelial-Mesenchymal Transition (EMT) and Metastasis"><use class="Icon" width="253.33333333333346" height="40.6666666666667" fill="transparent"  stroke="#000" stroke-width="0" xlink:href="#b"/><text class="Text" transform="translate(126.67 24.333)"   font-size="12px" font-weight="bold"  text-anchor="middle"><tspan x="0" y="-6.6000000000000005">Epithelial-Mesenchymal Transition (EMT)</tspan> <tspan x="0" y="6.6000000000000005">and Metastasis</tspan></text></g><g class="Label" transform="translate(65.569 80.063)" color="#000"  name="Oncogenic stress"><use class="Icon" width="121.33333333333326" height="20" fill="transparent"  stroke="#000" stroke-width="0" xlink:href="#b"/><text class="Text" transform="translate(60.667 14)"   font-size="12px" font-weight="bold"  text-anchor="middle"><tspan x="0" y="0">Oncogenic stress</tspan></text></g><g class="Label" transform="translate(74.138 132.81)" color="#000"  name="DNA damage"><use class="Icon" width="104.66666666666664" height="20" fill="transparent"  stroke="#000" stroke-width="0" xlink:href="#b"/><text class="Text" transform="translate(52.333 14)"   font-size="12px" font-weight="bold"  text-anchor="middle"><tspan x="0" y="0">DNA damage</tspan></text></g><a  class="GeneProduct DDX1 " transform="translate(308.55 232.2)"   name="DDX1"  ><rect class="Icon" transform="matrix(.98204 0 0 .94584 .49102 .47292)" width="54.667" height="17.464" fill="#fff" stroke="#000"/><text class="Text" transform="translate(27.333 11.732)"   font-size="10px"  text-anchor="middle"><tspan x="0" y="0">DDX1</tspan></text></a><g class="GroupComplex" transform="translate(163.59 318.42)" color="grey" ><use class="Icon" transform="matrix(.99238 0 0 .9847 .49619 .49235)" width="130.24323626266988" height="64.36375516177952" fill="#b4b464" fill-opacity=".1" stroke="grey" xlink:href="#g"/><a  class="GeneProduct DGCR8 " transform="translate(12 32.364)"   name="DGCR8"  ><rect class="Icon" transform="matrix(.98113 0 0 .95238 .49057 .47619)" width="52" height="20" fill="#fff" stroke="#000"/><text class="Text" transform="translate(26,13)"   font-size="10px"  text-anchor="middle"><tspan x="0" y="0">DGCR8</tspan></text></a><a  class="GeneProduct DROSHA " transform="translate(12 12.364)"   name="DROSHA"  ><rect class="Icon" transform="matrix(.98113 0 0 .95238 .49057 .47619)" width="52" height="20" fill="#fff" stroke="#000"/><text class="Text" transform="translate(26 13)"   font-size="10px"  text-anchor="middle"><tspan x="0" y="0">DROSHA</tspan></text></a><a  class="GeneProduct DDX1 " transform="translate(63.577 12)"   name="DDX1"  ><rect class="Icon" transform="matrix(.98204 0 0 .95238 .49102 .47619)" width="54.667" height="20" fill="#fff" stroke="#000"/><g class="Burr State" transform="translate(47.167 10.399)" color="#000"  name="P"><use class="Icon" transform="matrix(.9375 0 0 .9375 .46875 .46875)" width="15" height="15" fill="#fff" stroke="#000" xlink:href="#d"/><text class="Text" transform="translate(7.5,10.5)"   font-size="10px"  text-anchor="middle"><tspan x="0" y="0">P</tspan></text></g><g class="Burr State" transform="translate(47.167 -7.5)" color="#000"  name="P"><use class="Icon" transform="matrix(.9375 0 0 .9375 .46875 .46875)" width="15" height="15" fill="#fff" stroke="#000" xlink:href="#d"/><text class="Text" transform="translate(7.5,10.5)"   font-size="10px"  text-anchor="middle"><tspan x="0" y="0">P</tspan></text></g><text class="Text" transform="translate(27.333 13)"   font-size="10px"  text-anchor="middle"><tspan x="0" y="0">DDX1</tspan></text></a></g><g class="GroupGroup" transform="translate(210.79 122.24)" color="grey" ><use class="Icon" width="130.666666666668" height="75.99999999999994" fill="transparent"  stroke="grey" stroke-dasharray="5,3" stroke-width="0" xlink:href="#b"/><a  class="GeneProduct ATM " transform="translate(52 48)"   name="ATM"  ><rect class="Icon" transform="matrix(.98462 0 0 .95238 .49231 .47619)" width="64" height="20" fill="#fff" stroke="#000"/><text class="Text" transform="translate(32 13)"   font-size="10px"  text-anchor="middle"><tspan x="0" y="0">ATM</tspan></text></a><a  class="GeneProduct NBN " transform="translate(74.667 28)"   name="NBN"  ><rect class="Icon" transform="matrix(.97959 0 0 .95238 .4898 .47619)" width="48" height="20" fill="#fff" stroke="#000"/><text class="Text" transform="translate(24,13)"   font-size="10px"  text-anchor="middle"><tspan x="0" y="0">NBN</tspan></text></a><a  class="GeneProduct MRE11 " transform="translate(8 28)"   name="MRE11A"  ><rect class="Icon" transform="matrix(.98522 0 0 .95238 .49261 .47619)" width="66.667" height="20" fill="#fff" stroke="#000"/><text class="Text" transform="translate(33.333 13)"   font-size="10px"  text-anchor="middle"><tspan x="0" y="0">MRE11A</tspan></text></a><a  class="GeneProduct RAD50 " transform="translate(37.333 8)"   name="RAD50"  ><rect class="Icon" transform="matrix(.98462 0 0 .95238 .49231 .47619)" width="64" height="20" fill="#fff" stroke="#000"/><text class="Text" transform="translate(32 13)"   font-size="10px"  text-anchor="middle"><tspan x="0" y="0">RAD50</tspan></text></a></g><a  class="GeneProduct DDX1 " transform="translate(201.41 231.14)"   name="DDX1"  ><rect class="Icon" transform="matrix(.98204 0 0 .95238 .49102 .47619)" width="54.667" height="20" fill="#fff" stroke="#000"/><g class="Burr State" transform="translate(47.167 10.399)" color="#000"  name="P"><use class="Icon" transform="matrix(.9375 0 0 .9375 .46875 .46875)" width="15" height="15" fill="#fff" stroke="#000" xlink:href="#d"/><text class="Text" transform="translate(7.5,10.5)"   font-size="10px"  text-anchor="middle"><tspan x="0" y="0">P</tspan></text></g><g class="Burr State" transform="translate(47.167 -7.5)" color="#000"  name="P"><use class="Icon" transform="matrix(.9375 0 0 .9375 .46875 .46875)" width="15" height="15" fill="#fff" stroke="#000" xlink:href="#d"/><text class="Text" transform="translate(7.5,10.5)"   font-size="10px"  text-anchor="middle"><tspan x="0" y="0">P</tspan></text></g><text class="Text" transform="translate(27.333 13)"   font-size="10px"  text-anchor="middle"><tspan x="0" y="0">DDX1</tspan></text></a><g class="SingleFreeNode Shape" transform="translate(344.07 437)" color="#990099"  name="pre-miRNA"><rect class="Icon" transform="matrix(.98589 0 0 .94914 .49295 .47457)" width="69.885" height="18.661" fill="transparent"  stroke="#909"/><text class="Text" transform="translate(34.942 12.33)" fill="#990099"  font-size="10px"  text-anchor="middle"><tspan x="0" y="0">pre-miRNA</tspan></text></g><text class="Text" transform="translate(5,27)" dominant-baseline="central" fill="black"  font-size="12px" font-weight="bold" overflow="visible" ><tspan x="0" y="-9">Name: DDX1 as a regulatory component of the Drosha microprocessor</tspan> <tspan x="0" y="9">Organism: Homo sapiens</tspan></text></g></svg>
