<?xml version="1.0" encoding="UTF-8"?>
<!--
  WikiPathways page: https://www.wikipathways.org/index.php/Pathway:WP322
  URL for this compressed file: https://github.com/eweitz/cachome/tree/main/data/wikipathways/WP322.svg
  Source code for compression: https://github.com/eweitz/cachome/tree/main/src/wikipathways.py
-->
<svg class="Diagram" width="800" height="600" color="black" baseProfile="full" prefix="schema:http://schema.org/" preserveAspectRatio="xMidYMid" version="1.1" viewBox="0 0 1029.7 730" vocab="http://vocabularies.wikipathways.org/wp#" xmlns="http://www.w3.org/2000/svg" xmlns:xlink="http://www.w3.org/1999/xlink"><style>svg {font-family: 'Liberation Sans', Arial, sans-serif; }</style><defs><filter id="f" x="-50%" y="-50%" width="200%" height="200%"><feComposite in="SourceGraphic" in2="SourceGraphic" result="doubleDark"/><feMorphology in="doubleDark" operator="dilate" radius="0.16666666666666666" result="in2Double"/><feMorphology in="SourceGraphic" operator="dilate" radius="3" result="inDouble"/><feComposite in="inDouble" in2="in2Double" operator="out" result="doubleResult"/></filter><filter id="a" x="0" y="0" width="1029.7" height="730" filterUnits="userSpaceOnUse"><feColorMatrix in="SourceGraphic" values="-1   0   0 0 0                   0  -1   0 0 0                   0   0  -1 0 0                   0   0   0 1 0"/></filter><marker id="b" stroke-dasharray="99999" markerHeight="12" markerUnits="userSpaceOnUse" markerWidth="12" orient="auto" preserveAspectRatio="none" refX="12" refY="6" viewBox="0 0 12 12"><path transform="rotate(180 6 6)" d="M12 11L0 6l12-5z" fill="currentColor" stroke-width="0"/></marker><marker id="h" stroke-dasharray="99999" markerHeight="12" markerUnits="userSpaceOnUse" markerWidth="12" orient="auto" preserveAspectRatio="none" refX="12" refY="6" viewBox="0 0 12 12"><circle transform="rotate(180 6 6)" cx="6" cy="6" r="5.3" fill="none" stroke="#000"/></marker><marker id="e" stroke-dasharray="99999" markerHeight="20" markerUnits="userSpaceOnUse" markerWidth="10" orient="auto" preserveAspectRatio="none" refX="10" refY="10" viewBox="0 0 10 20"><path d="m3 0v20" fill="currentColor" stroke="currentColor"/></marker><symbol id="d" overflow="visible" preserveAspectRatio="none" viewBox="0 0 50 50"><ellipse cx="25" cy="25" rx="25" ry="25" stroke="currentColor" vector-effect="non-scaling-stroke"/></symbol><symbol id="g" overflow="visible" preserveAspectRatio="none" viewBox="0 0 100 100"><path d="M0 25L25 0h50l25 25v50l-25 25H25L0 75z" stroke="currentColor" vector-effect="non-scaling-stroke"/></symbol><symbol id="c" preserveAspectRatio="none" viewBox="0 0 100 100"/></defs><g class="Viewport" color="black"  name="Name: Osteoblast signaling License: CC BY 2.0 Last Modified: 10/16/2013 Organism: Homo sapiens"><rect class="Icon" width="1029.7" height="730" fill="#fff" stroke="#000" stroke-width="0"/><g id="i" class="DirectedInteraction" color="#000" ><g color="#000" fill="transparent"  filter="url(#a)" stroke="#000" stroke-dasharray="175.20001039313505, 5.8"><path class="EdgeBody" d="m407 425-181 6.6673e-6"   marker-end="url(#b)" /></g></g><g id="j" class="DirectedInteraction" color="#000" ><g color="#000" fill="transparent"  filter="url(#a)" stroke="#000" stroke-dasharray="220.618427416716, 5.8"><path class="EdgeBody" d="m221.63 289.99 191.37 121.01"   marker-end="url(#b)" /></g></g><g id="k" class="DirectedInteraction" color="#000" ><g color="#000" fill="transparent"  filter="url(#a)" stroke="#000" stroke-dasharray="166.27475171773355, 5.8"><path class="EdgeBody" d="m711.09 98-52.093 164"   marker-end="url(#b)" /></g></g><g id="l" class="DirectedInteraction" color="#000" ><g color="#000" fill="transparent"  filter="url(#a)" stroke="#000" stroke-dasharray="285.8667447703874, 5.8"><path class="EdgeBody" d="m566.69 296.85 283.39 69.008"   marker-end="url(#b)" /></g></g><g id="m" class="DirectedInteraction" color="#000" ><g color="#000" fill="transparent"  filter="url(#a)" stroke="#000" stroke-dasharray="40.05546670828934, 5.8"><path class="EdgeBody" d="m549.09 631.13 0.064257-45.855"   marker-end="url(#b)" /></g></g><g id="n" class="DirectedInteraction" color="#000" ><g color="#000" fill="transparent"  filter="url(#a)" stroke="#000" stroke-dasharray="73.4971887550201, 5.8"><path class="EdgeBody" d="m251 495.8h79.297"   marker-end="url(#b)" /></g></g><g id="o" class="DirectedInteraction" color="#000" ><g color="#000" fill="transparent"  filter="url(#a)" stroke="#000" stroke-dasharray="64.0167828114554, 5.8"><path class="EdgeBody" d="m860.72 121.76-36.08 59.771"   marker-end="url(#b)" /></g></g><g id="p" class="DirectedInteraction" color="#000" ><g color="#000" fill="transparent"  filter="url(#a)" stroke="#000" stroke-dasharray="120.35559624534318, 5.8"><path class="EdgeBody" d="m799.12 198.92-102.28 73.855"   marker-end="url(#b)" /></g></g><g id="q" class="DirectedInteraction" color="#000" ><g color="#000" fill="transparent"  filter="url(#a)" stroke="#000" stroke-dasharray="267.4454591619083, 5.8"><path class="EdgeBody" d="m586.53 395.52 273.02 10.996"   marker-end="url(#b)" /></g></g><g id="r" class="DirectedInteraction" color="#000" ><g color="#000" fill="transparent"  filter="url(#a)" stroke="#000" stroke-dasharray="182.17997814699197, 5.8"><path class="EdgeBody" d="m665.64 285.41 184.02 38.361"   marker-end="url(#b)" /></g></g><g id="s" class="Inhibition" color="#000" ><g color="#000" fill="transparent"  filter="url(#a)" stroke="#000" stroke-dasharray="104.46637392511536, 7"><path class="EdgeBody" d="m547.2 577.17 3.9157-111.4"   marker-end="url(#e)" /></g></g><g id="t" class="DirectedInteraction" color="#000" ><g color="#000" fill="transparent"  filter="url(#a)" stroke="#000" stroke-dasharray="226.7862373848492, 5.8"><path class="EdgeBody" d="m694.46 82.5-127.77 194.35"   marker-end="url(#b)" /></g></g><g id="u" class="DirectedInteraction" color="#000" ><g color="#000" fill="transparent"  filter="url(#a)" stroke="#000" stroke-dasharray="150.94555263700374, 5.8"><path class="EdgeBody" d="m416 154 97.353 122.85"   marker-end="url(#b)" /></g></g><g id="v" class="Inhibition" color="#000" ><g color="#000" fill="transparent"  filter="url(#a)" stroke="#000" stroke-dasharray="274.8098897885637, 7"><path class="EdgeBody" d="m222.46 277.59 260.54 107.41"   marker-end="url(#e)" /></g></g><g id="w" class="Inhibition" color="#000" ><g color="#000" fill="transparent"  filter="url(#a)" stroke="#000" stroke-dasharray="167.46445807527078, 7"><path class="EdgeBody" d="m404 156 57.574 164.69"   marker-end="url(#e)" /></g></g><g id="x" class="DirectedInteraction" color="#000" ><g color="#000" fill="transparent"  filter="url(#a)" stroke="#000" stroke-dasharray="219.8624980624746, 5.8"><path class="EdgeBody" d="m220.8 262.09 215.2 67.905"   marker-end="url(#b)" /></g></g><g id="y" class="Inhibition" color="#000" ><g color="#000" fill="transparent"  filter="url(#a)" stroke="#000" stroke-dasharray="194.74581109509802, 7"><path class="EdgeBody" d="m410.06 639.94 93.523-178.76"   marker-end="url(#e)" /></g><g class="Burr Anchor" transform="translate(429.07 603.6)" ><use class="Icon" width="0" height="0" fill="#141414" stroke-width="0" xlink:href="#c"/></g></g><g id="z" class="Interaction" color="#000" ><g color="#000" fill="transparent"  filter="url(#a)" stroke="#000" stroke-dasharray="27.78949322846924, 11"><path class="EdgeBody" d="m394.19 586.63 34.878 16.975"   marker-end="url(#h)" /></g></g><g id="aa" class="Inhibition" color="#000" ><g color="#000" fill="transparent"  filter="url(#a)" stroke="#000" stroke-dasharray="143.80514324749183, 7"><path class="EdgeBody" d="m719.25 552.5-123.8-86.114"   marker-end="url(#e)" /></g></g><g id="ab" class="DirectedInteraction" color="#000" ><g color="#000" fill="transparent"  filter="url(#a)" stroke="#000" stroke-dasharray="19.70122546074992, 5.8"><path class="EdgeBody" d="m719 631 0.25-25.5"   marker-end="url(#b)" /></g></g><g id="ac" class="DirectedInteraction" color="#000" ><g color="#000" fill="transparent"  filter="url(#a)" stroke="#000" stroke-dasharray="42.741219597369, 5.8"><path class="EdgeBody" d="m299 98.5 40 27.5"   marker-end="url(#b)" /></g></g><g class="SingleFreeNode Shape" transform="translate(278.5,134.5)" color="#c0c0c0" ><g fill="transparent"  filter="url(#f)" stroke="#c0c0c0" stroke-width="3"><rect class="Icon" transform="matrix(.97798 0 0 .97386 5.8679 5.8431)" width="533" height="447" rx="15" ry="15"   /></g></g><g class="SingleFreeNode Shape" transform="translate(334.5,189.5)" color="#c0c0c0" ><g fill="transparent"  filter="url(#f)" stroke="#c0c0c0" stroke-width="3"><use class="Icon" transform="matrix(.97248 0 0 .96375 5.8349 5.7825)" width="424" height="319"    xlink:href="#d"/></g></g><g class="Label" transform="translate(328,91)" color="#000"  name="PDGF_Ra/b complex"><use class="Icon" width="117" height="20" fill="transparent"  stroke="#000" stroke-width="0" xlink:href="#c"/><text class="Text" transform="translate(58.5,13)"   font-size="10px" font-weight="bold"  text-anchor="middle"><tspan x="0" y="0">PDGF_Ra/b complex</tspan></text></g><g class="Label" transform="translate(514 201.47)" color="#999"  name="Nucleus"><use class="Icon" width="65.25301204819289" height="34.53333333333333" fill="transparent"  stroke="#999" stroke-width="0" xlink:href="#c"/><text class="Text" transform="translate(32.627 21.267)" fill="#999"  font-size="14px" font-weight="bold" stroke="black" stroke-width="0" text-anchor="middle"><tspan x="0" y="0">Nucleus</tspan></text></g><g class="Label" transform="translate(503 108.99)" color="#999"  name="Osteoblast"><use class="Icon" width="92.63855421686753" height="30.866666666666667" fill="transparent"  stroke="#999" stroke-width="0" xlink:href="#c"/><text class="Text" transform="translate(46.319 19.433)" fill="#999"  font-size="14px" font-weight="bold" stroke="black" stroke-width="0" text-anchor="middle"><tspan x="0" y="0">Osteoblast</tspan></text></g><g class="Label" transform="translate(797,460)" color="#000"  name="avb3 integrin  complex"><use class="Icon" width="109" height="20" fill="transparent"  stroke="#000" stroke-width="0" xlink:href="#c"/><text class="Text" transform="translate(54.5,13)"   font-size="10px" font-weight="bold"  text-anchor="middle"><tspan x="0" y="-5.5">avb3 integrin </tspan> <tspan x="0" y="5.5">complex</tspan></text></g><g class="GroupComplex" transform="translate(167,31)" color="grey" ><use class="Icon" transform="matrix(.99248 0 0 .98901 .49624 .49451)" width="132" height="90" fill="#b4b464" fill-opacity=".1" stroke="grey" xlink:href="#g"/><g class="Label" transform="translate(12,12)" color="#000"  name="PDGF-BB complex"><use class="Icon" width="108" height="20" fill="transparent"  stroke="#000" stroke-width="0" xlink:href="#c"/><text class="Text" transform="translate(54,13)"   font-size="10px" font-weight="bold"  text-anchor="middle"><tspan x="0" y="0">PDGF-BB complex</tspan></text></g><a  class="Protein PDGFB " transform="translate(25,58)"   name="PDGFB"  ><rect class="Icon" transform="matrix(.98765 0 0 .95238 .49383 .47619)" width="80" height="20" fill="#fff" stroke="#000"/><text class="Text" transform="translate(40,13)"   font-size="10px"  text-anchor="middle"><tspan x="0" y="0">PDGFB</tspan></text></a><a  class="Protein PDGFB " transform="translate(25,38)"   name="PDGFB"  ><rect class="Icon" transform="matrix(.98765 0 0 .95238 .49383 .47619)" width="80" height="20" fill="#fff" stroke="#000"/><text class="Text" transform="translate(40,13)"   font-size="10px"  text-anchor="middle"><tspan x="0" y="0">PDGFB</tspan></text></a></g><a  class="Protein PTH " transform="translate(479.76 631.13)"   name="Parathyroid hormone"  ><rect class="Icon" transform="matrix(.99284 0 0 .95238 .49642 .47619)" width="138.67" height="20" fill="#fff" stroke="#000"/><text class="Text" transform="translate(69.333 13)"   font-size="10px"  text-anchor="middle"><tspan x="0" y="0">Parathyroid hormone</tspan></text></a><a  class="Protein TNFRSF11B " transform="translate(486.69 276.85)"   name="Osteoprotegerin"  ><rect class="Icon" transform="matrix(.99071 0 0 .95238 .49536 .47619)" width="106.67" height="20" fill="#fff" stroke="#000"/><text class="Text" transform="translate(53.333 13)"   font-size="10px"  text-anchor="middle"><tspan x="0" y="0">Osteoprotegerin</tspan></text></a><a  class="Protein TNFSF11 " transform="translate(609.38 265.44)"   name="RANK ligand"  ><rect class="Icon" transform="matrix(.98765 0 0 .95238 .49383 .47619)" width="80" height="20" fill="#fff" stroke="#000"/><text class="Text" transform="translate(40,13)"   font-size="10px"  text-anchor="middle"><tspan x="0" y="0">RANK ligand</tspan></text></a><a class="Metabolite ChEBI_CHEBI_28940  " transform="translate(160.46 236)" color="#00f"  name="Vitamin D"  ><use class="Icon" transform="matrix(.98519 0 0 .98413 .4926 .49206)" width="66.54216867469859" height="62" fill="#fff" stroke="#00f" xlink:href="#d"/><text class="Text" transform="translate(33.271 34)" fill="#00f"  font-size="10px"  text-anchor="middle"><tspan x="0" y="0">Vitamin D</tspan></text></a><a  class="Protein IBSP " transform="translate(489.54 384.06)"   name="Bone sialoprotein"  ><rect class="Icon" transform="matrix(.99088 0 0 .95238 .49544 .47619)" width="108.69" height="20" fill="#fff" stroke="#000"/><text class="Text" transform="translate(54.345 13)"   font-size="10px"  text-anchor="middle"><tspan x="0" y="0">Bone sialoprotein</tspan></text></a><a  class="Protein IBSP " transform="translate(868.1 397.44)"   name="Bone sialoprotein"  ><rect class="Icon" transform="matrix(.99094 0 0 .95238 .49547 .47619)" width="109.33" height="20" fill="#fff" stroke="#000"/><text class="Text" transform="translate(54.667 13)"   font-size="10px"  text-anchor="middle"><tspan x="0" y="0">Bone sialoprotein</tspan></text></a><a  class="Protein TNFSF11 " transform="translate(861.69 317.18)"   name="Soluble RANK ligand"  ><rect class="Icon" transform="matrix(.99281 0 0 .95 .4964 .475)" width="138" height="19" fill="#fff" stroke="#000"/><text class="Text" transform="translate(69,12.5)"   font-size="10px"  text-anchor="middle"><tspan x="0" y="0">Soluble RANK ligand</tspan></text></a><a class="Metabolite ChEBI_CHEBI_28940  " transform="translate(694.46 36)" color="#00f"  name="Vitamin D"  ><use class="Icon" transform="matrix(.98519 0 0 .98413 .4926 .49206)" width="66.54216867469859" height="62" fill="#fff" stroke="#00f" xlink:href="#d"/><text class="Text" transform="translate(33.271 34)" fill="#00f"  font-size="10px"  text-anchor="middle"><tspan x="0" y="0">Vitamin D</tspan></text></a><a  class="Protein PTH1R " transform="translate(762.82 182.63)"   name="PTH receptor"  ><rect class="Icon" transform="matrix(.98897 0 0 .95238 .49448 .47619)" width="89.639" height="20" fill="#fff" stroke="#000"/><text class="Text" transform="translate(44.819 13)"   font-size="10px"  text-anchor="middle"><tspan x="0" y="0">PTH receptor</tspan></text></a><a  class="Protein FGF23 " transform="translate(138.97 415.8)"   name="FGF-23"  ><rect class="Icon" transform="matrix(.98765 0 0 .95238 .49383 .47619)" width="80" height="20" fill="#fff" stroke="#000"/><text class="Text" transform="translate(40,13)"   font-size="10px"  text-anchor="middle"><tspan x="0" y="0">FGF-23</tspan></text></a><a  class="Protein COL1A1 " transform="translate(511.19 440.18)"   name="Collagen 1"  ><rect class="Icon" transform="matrix(.98765 0 0 .95238 .49383 .47619)" width="80" height="20" fill="#fff" stroke="#000"/><text class="Text" transform="translate(40,13)"   font-size="10px"  text-anchor="middle"><tspan x="0" y="0">Collagen 1</tspan></text></a><a class="ChEBI_CHEBI_29101 Metabolite  " transform="translate(330.3 484.61)" color="#00f"  name="Na+"  ><use class="Icon" transform="matrix(.95952 0 0 .95725 .47976 .47863)" width="23.702811244979898" height="22.39357429718757" fill="#fff" stroke="#00f" xlink:href="#d"/><text class="Text" transform="translate(11.851 14.197)" fill="#00f"  font-size="10px"  text-anchor="middle"><tspan x="0" y="0">Na+</tspan></text></a><a  class="Protein FGF23 " transform="translate(399.12 415.35)"   name="FGF-23"  ><rect class="Icon" transform="matrix(.98765 0 0 .95238 .49383 .47619)" width="80" height="20" fill="#fff" stroke="#000"/><text class="Text" transform="translate(40,13)"   font-size="10px"  text-anchor="middle"><tspan x="0" y="0">FGF-23</tspan></text></a><a  class="Protein PTH1R " transform="translate(504.33 565.27)"   name="PTH receptor"  ><rect class="Icon" transform="matrix(.98897 0 0 .95238 .49448 .47619)" width="89.639" height="20" fill="#fff" stroke="#000"/><text class="Text" transform="translate(44.819 13)"   font-size="10px"  text-anchor="middle"><tspan x="0" y="0">PTH receptor</tspan></text></a><a  class="Protein PTH " transform="translate(802 108.27)"   name="Parathyroid hormone"  ><rect class="Icon" transform="matrix(.992 0 0 .95238 .496 .47619)" width="124" height="20" fill="#fff" stroke="#000"/><text class="Text" transform="translate(62.002 13)"   font-size="10px"  text-anchor="middle"><tspan x="0" y="0">Parathyroid hormone</tspan></text></a><a class="ChEBI_CHEBI_29101 Metabolite  " transform="translate(229 484.61)" color="#00f"  name="Na+"  ><use class="Icon" transform="matrix(.95652 0 0 .95725 .47826 .47863)" width="22" height="22.39357429718757" fill="#fff" stroke="#00f" xlink:href="#d"/><text class="Text" transform="translate(11 14.197)" fill="#00f"  font-size="10px"  text-anchor="middle"><tspan x="0" y="0">Na+</tspan></text></a><a  class="Protein SLC17A2 " transform="translate(334.19 563.96)"   name="NPT3"  ><rect class="Icon" transform="matrix(.98765 0 0 .95775 .49383 .47887)" width="80" height="22.667" fill="#fff" stroke="#000"/><text class="Text" transform="translate(40 14.333)"   font-size="10px"  text-anchor="middle"><tspan x="0" y="0">NPT3</tspan></text></a><a class="PubChem-compound_1061 Metabolite ChEBI_CHEBI_18367  " transform="translate(381.01 612.88)" color="#00f"  name="Phosphate"  ><use class="Icon" transform="matrix(.98276 0 0 .98186 .49138 .49093)" width="56.9879518072288" height="54.12048192770931" fill="#fff" stroke="#00f" xlink:href="#d"/><text class="Text" transform="translate(28.494 30.06)" fill="#00f"  font-size="10px"  text-anchor="middle"><tspan x="0" y="0">Phosphate</tspan></text></a><a  class="Protein TNFRSF11B " transform="translate(863.1 360.06)"   name="Osteoprotegerin"  ><rect class="Icon" transform="matrix(.99083 0 0 .95238 .49541 .47619)" width="108" height="20" fill="#fff" stroke="#000"/><text class="Text" transform="translate(54,13)"   font-size="10px"  text-anchor="middle"><tspan x="0" y="0">Osteoprotegerin</tspan></text></a><a  class="Protein BGLAP " transform="translate(439.57 320.69)"   name="Osteocalcin"  ><rect class="Icon" transform="matrix(.98876 0 0 .95238 .49438 .47619)" width="88" height="20" fill="#fff" stroke="#000"/><text class="Text" transform="translate(44,13)"   font-size="10px"  text-anchor="middle"><tspan x="0" y="0">Osteocalcin</tspan></text></a><g class="GroupNone" transform="translate(338,111)" color="grey" ><rect class="Icon" transform="matrix(.9899 0 0 .98305 .49495 .49153)" width="98" height="58" fill="#b4b464" fill-opacity=".1" stroke="grey" stroke-dasharray="5,3"/><a  class="Protein PDGFRB " transform="translate(9,29)"   name="PDGFRB"  ><rect class="Icon" transform="matrix(.98765 0 0 .95238 .49383 .47619)" width="80" height="20" fill="#fff" stroke="#000"/><text class="Text" transform="translate(40,13)"   font-size="10px"  text-anchor="middle"><tspan x="0" y="0">PDGFRB</tspan></text></a><a  class="Protein PDGFRA " transform="translate(9,9)"   name="PDGFRA"  ><rect class="Icon" transform="matrix(.98765 0 0 .95238 .49383 .47619)" width="80" height="20" fill="#fff" stroke="#000"/><text class="Text" transform="translate(40,13)"   font-size="10px"  text-anchor="middle"><tspan x="0" y="0">PDGFRA</tspan></text></a></g><g class="GroupNone" transform="translate(756,483)" color="grey" ><rect class="Icon" transform="matrix(.9899 0 0 .98305 .49495 .49153)" width="98" height="58" fill="#b4b464" fill-opacity=".1" stroke="grey" stroke-dasharray="5,3"/><a  class="Protein ITGAV " transform="translate(9,9)"   name="ITGAV"  ><rect class="Icon" transform="matrix(.98765 0 0 .95238 .49383 .47619)" width="80" height="20" fill="#fff" stroke="#000"/><text class="Text" transform="translate(40,13)"   font-size="10px"  text-anchor="middle"><tspan x="0" y="0">ITGAV</tspan></text></a><a  class="Protein ITGB3 " transform="translate(9,29)"   name="ITGB3"  ><rect class="Icon" transform="matrix(.98765 0 0 .95238 .49383 .47619)" width="80" height="20" fill="#fff" stroke="#000"/><text class="Text" transform="translate(40,13)"   font-size="10px"  text-anchor="middle"><tspan x="0" y="0">ITGB3</tspan></text></a></g><g class="GroupGroup" transform="translate(675.5,552.5)" color="grey" ><use class="Icon" width="87.5" height="53" fill="transparent"  stroke="grey" stroke-dasharray="5,3" stroke-width="0" xlink:href="#c"/><a  class="GeneProduct PDGFRA " transform="translate(8,8)"   name="PDGF Ra"  ><rect class="Icon" transform="matrix(.98621 0 0 .94872 .4931 .47436)" width="71.5" height="18.5" fill="#fff" stroke="#000"/><text class="Text" transform="translate(35.75,12.25)"   font-size="10px"  text-anchor="middle"><tspan x="0" y="0">PDGF Ra</tspan></text></a><a  class="GeneProduct PDGFB " transform="translate(8,26.5)"   name="PDGF Rb"  ><rect class="Icon" transform="matrix(.98621 0 0 .94872 .4931 .47436)" width="71.5" height="18.5" fill="#fff" stroke="#000"/><text class="Text" transform="translate(35.75,12.25)"   font-size="10px"  text-anchor="middle"><tspan x="0" y="0">PDGF Rb</tspan></text></a></g><g class="GroupComplex" transform="translate(653,631)" color="grey" ><use class="Icon" transform="matrix(.99248 0 0 .9878 .49624 .4939)" width="132" height="81" fill="#b4b464" fill-opacity=".1" stroke="grey" xlink:href="#g"/><a  class="Protein PDGFB " transform="translate(26,49)"   name="PDGFB"  ><rect class="Icon" transform="matrix(.98765 0 0 .95238 .49383 .47619)" width="80" height="20" fill="#fff" stroke="#000"/><text class="Text" transform="translate(40,13)"   font-size="10px"  text-anchor="middle"><tspan x="0" y="0">PDGFB</tspan></text></a><a  class="Protein PDGFB " transform="translate(26,29)"   name="PDGFB"  ><rect class="Icon" transform="matrix(.98765 0 0 .95238 .49383 .47619)" width="80" height="20" fill="#fff" stroke="#000"/><text class="Text" transform="translate(40,13)"   font-size="10px"  text-anchor="middle"><tspan x="0" y="0">PDGFB</tspan></text></a><g class="Label" transform="translate(12,12)" color="#000"  name="PDGF-BB complex"><use class="Icon" width="108" height="20" fill="transparent"  stroke="#000" stroke-width="0" xlink:href="#c"/><text class="Text" transform="translate(54,13)"   font-size="10px" font-weight="bold"  text-anchor="middle"><tspan x="0" y="0">PDGF-BB complex</tspan></text></g></g><text class="Text" transform="translate(5,45)" dominant-baseline="central" fill="black"  font-size="12px" font-weight="bold" overflow="visible" ><tspan x="0" y="-27">Name: Osteoblast signaling</tspan> <tspan x="0" y="-9">License: CC BY 2.0</tspan> <tspan x="0" y="9">Last Modified: 10/16/2013</tspan> <tspan x="0" y="27">Organism: Homo sapiens</tspan></text></g></svg>
