<?xml version="1.0" encoding="UTF-8"?>
<!--
  WikiPathways page: https://www.wikipathways.org/index.php/Pathway:WP33
  URL for this compressed file: https://github.com/eweitz/cachome/tree/main/data/wikipathways/WP33.svg
  Source code for compression: https://github.com/eweitz/cachome/tree/main/src/wikipathways.py
-->
<svg class="Diagram" width="800" height="600" color="black" baseProfile="full" prefix="schema:http://schema.org/" preserveAspectRatio="xMidYMid" version="1.1" viewBox="0 0 630 869.5" vocab="http://vocabularies.wikipathways.org/wp#" xmlns="http://www.w3.org/2000/svg" xmlns:xlink="http://www.w3.org/1999/xlink"><style>svg {font-family: 'Liberation Sans', Arial, sans-serif; }</style><defs><filter id="b" x="0" y="0" width="630" height="869.5" filterUnits="userSpaceOnUse"><feColorMatrix in="SourceGraphic" values="-1   0   0 0 0                   0  -1   0 0 0                   0   0  -1 0 0                   0   0   0 1 0"/></filter><marker id="c" stroke-dasharray="99999" markerHeight="12" markerUnits="userSpaceOnUse" markerWidth="12" orient="auto" preserveAspectRatio="none" refX="12" refY="6" viewBox="0 0 12 12"><path transform="rotate(180 6 6)" d="M12 11L0 6l12-5z" fill="currentColor" stroke-width="0"/></marker><symbol id="d" overflow="visible" preserveAspectRatio="none" viewBox="0 0 100 100"><path d="M0 25L25 0h50l25 25v50l-25 25H25L0 75z" stroke="currentColor" vector-effect="non-scaling-stroke"/></symbol><symbol id="a" preserveAspectRatio="none" viewBox="0 0 100 100"/></defs><g class="Viewport" color="black"  name="Name: Fatty acid omega-oxidation Last Modified: 10/17/2013 Organism: Mus musculus"><rect class="Icon" width="630" height="869.5" fill="#fff" stroke="#000" stroke-width="0"/><g id="e" class="DirectedInteraction" color="#000" ><g color="#000" fill="transparent"  filter="url(#b)" stroke="#000" stroke-dasharray="236.54158628771174, 5.8"><path class="EdgeBody" d="m318.67 161.5-2 242.33"   marker-end="url(#c)" /></g><g class="Burr Anchor" transform="translate(317.87 258.43)" ><use class="Icon" width="0" height="0" fill="#141414" stroke-width="0" xlink:href="#a"/></g></g><g id="f" class="DirectedInteraction" color="#000" ><g color="#000" fill="transparent"  filter="url(#b)" stroke="#000" stroke-dasharray="178.5333333333333, 5.8"><path class="EdgeBody" d="m316.67 422.83v184.33"   marker-end="url(#c)" /></g><g class="Burr Anchor" transform="translate(316.67 496.57)" ><use class="Icon" width="0" height="0" fill="#141414" stroke-width="0" xlink:href="#a"/></g></g><g id="g" class="DirectedInteraction" color="#000" ><g color="#000" fill="transparent"  filter="url(#b)" stroke="#000" stroke-dasharray="105.2, 5.8"><path class="EdgeBody" d="m316.67 626.17v111"   marker-end="url(#c)" /></g><g class="Burr Anchor" transform="translate(316.67 670.57)" ><use class="Icon" width="0" height="0" fill="#141414" stroke-width="0" xlink:href="#a"/></g></g><g id="h" class="DirectedInteraction" color="#000" ><g color="#000" fill="transparent"  filter="url(#b)" stroke="#000" stroke-dasharray="5.52, 3.31, 5.52, 3.31, 5.52, 3.31, 5.52, 3.31, 5.52, 3.31, 5.52, 3.31, 5.52, 3.31, 0, 5.8"><path class="EdgeBody" d="m316.67 756.17-7e-14 64.333"   marker-end="url(#c)" /></g></g><g id="i" class="Interaction" color="#000" ><g color="#000" fill="transparent"  filter="url(#b)" stroke="#000" stroke-dasharray="49.068036665656585, 0"><path class="EdgeBody" d="m317.87 258.43-46.533 15.567"   /></g></g><g id="j" class="Interaction" color="#000" ><g color="#000" fill="transparent"  filter="url(#b)" stroke="#000" stroke-dasharray="41.51049398779917, 0"><path class="EdgeBody" d="m316.67 496.57-38.667 15.1"   /></g></g><g id="k" class="Interaction" color="#000" ><g color="#000" fill="transparent"  filter="url(#b)" stroke="#000" stroke-dasharray="42.7242970165169, 0"><path class="EdgeBody" d="m316.67 670.57-42.333 5.7667"   /></g></g><g class="Label" transform="translate(243.5,142.5)" color="#000"  name="CH3-(CH2)10-COO-"><use class="Icon" width="150.33333333333334" height="19" fill="transparent"  stroke="#000" stroke-width="0" xlink:href="#a"/><text class="Text" transform="translate(75.167 13.5)"   font-size="12px" font-weight="bold"  text-anchor="middle"><tspan x="0" y="0">CH3-(CH2)10-COO-</tspan></text></g><g class="Label" transform="translate(231.5 403.83)" color="#000"  name="HO-CH-(CH2)10-COO-"><use class="Icon" width="170.33333333333334" height="19" fill="transparent"  stroke="#000" stroke-width="0" xlink:href="#a"/><text class="Text" transform="translate(85.167 13.5)"   font-size="12px" font-weight="bold"  text-anchor="middle"><tspan x="0" y="0">HO-CH-(CH2)10-COO-</tspan></text></g><g class="Label" transform="translate(240 607.17)" color="#000"  name="HOC-(CH2)10-COO-"><use class="Icon" width="153.33333333333334" height="19" fill="transparent"  stroke="#000" stroke-width="0" xlink:href="#a"/><text class="Text" transform="translate(76.667 13.5)"   font-size="12px" font-weight="bold"  text-anchor="middle"><tspan x="0" y="0">HOC-(CH2)10-COO-</tspan></text></g><g class="Label" transform="translate(237.5 737.17)" color="#000"  name="-OOC-(CH2)10-COO-"><use class="Icon" width="158.33333333333334" height="19" fill="transparent"  stroke="#000" stroke-width="0" xlink:href="#a"/><text class="Text" transform="translate(79.167 13.5)"   font-size="12px" font-weight="bold"  text-anchor="middle"><tspan x="0" y="0">-OOC-(CH2)10-COO-</tspan></text></g><g class="Label" transform="translate(258,820.5)" color="#00f"  name="Beta Oxidation"><use class="Icon" width="117.33333333333333" height="19" fill="transparent"  stroke="#00f" stroke-width="0" xlink:href="#a"/><text class="Text" transform="translate(58.667 13.5)" fill="#00f"  font-size="12px" font-weight="bold"  text-anchor="middle"><tspan x="0" y="0">Beta Oxidation</tspan></text></g><g class="GroupComplex" transform="translate(271.33 192)" color="grey" ><use class="Icon" transform="matrix(.98909 0 0 .99394 .49455 .49697)" width="90.66666666666669" height="164" fill="#b4b464" fill-opacity=".1" stroke="grey" xlink:href="#d"/><a  class="GeneProduct P594_ENSMUSG00000032315 " transform="translate(12,12)"   name="Cyp1a1"  ><rect class="Icon" transform="matrix(.98522 0 0 .95238 .49261 .47619)" width="66.667" height="20" fill="#fff" stroke="#000"/><text class="Text" transform="translate(33.333 13)"   font-size="10px"  text-anchor="middle"><tspan x="0" y="0">Cyp1a1</tspan></text></a><a  class="GeneProduct P594_ENSMUSG00000032310 " transform="translate(12,32)"   name="Cyp1a2"  ><rect class="Icon" transform="matrix(.98522 0 0 .95238 .49261 .47619)" width="66.667" height="20" fill="#fff" stroke="#000"/><text class="Text" transform="translate(33.333 13)"   font-size="10px"  text-anchor="middle"><tspan x="0" y="0">Cyp1a2</tspan></text></a><g class="GeneProduct" transform="translate(12,52)" color="#000"  name="CYP3A4"><rect class="Icon" transform="matrix(.98522 0 0 .95238 .49261 .47619)" width="66.667" height="20" fill="#fff" stroke="#000"/><text class="Text" transform="translate(33.333 13)"   font-size="10px"  text-anchor="middle"><tspan x="0" y="0">CYP3A4</tspan></text></g><g class="GeneProduct" transform="translate(12,72)" color="#000"  name="CYP4A11"><rect class="Icon" transform="matrix(.98522 0 0 .95238 .49261 .47619)" width="66.667" height="20" fill="#fff" stroke="#000"/><text class="Text" transform="translate(33.333 13)"   font-size="10px"  text-anchor="middle"><tspan x="0" y="0">CYP4A11</tspan></text></g><g class="GeneProduct" transform="translate(12,92)" color="#000"  name="CYP2A6"><rect class="Icon" transform="matrix(.98522 0 0 .95238 .49261 .47619)" width="66.667" height="20" fill="#fff" stroke="#000"/><text class="Text" transform="translate(33.333 13)"   font-size="10px"  text-anchor="middle"><tspan x="0" y="0">CYP2A6</tspan></text></g><g class="GeneProduct" transform="translate(12,112)" color="#000"  name="CYP2D6"><rect class="Icon" transform="matrix(.98522 0 0 .95238 .49261 .47619)" width="66.667" height="20" fill="#fff" stroke="#000"/><text class="Text" transform="translate(33.333 13)"   font-size="10px"  text-anchor="middle"><tspan x="0" y="0">CYP2D6</tspan></text></g><a  class="GeneProduct P594_ENSMUSG00000025479 " transform="translate(12,132)"   name="Cyp2e1"  ><rect class="Icon" transform="matrix(.98522 0 0 .95238 .49261 .47619)" width="66.667" height="20" fill="#fff" stroke="#000"/><text class="Text" transform="translate(33.333 13)"   font-size="10px"  text-anchor="middle"><tspan x="0" y="0">Cyp2e1</tspan></text></a></g><g class="GroupComplex" transform="translate(278 439.67)" color="grey" ><use class="Icon" transform="matrix(.98723 0 0 .9931 .49362 .49655)" width="77.33333333333331" height="143.99999999999994" fill="#b4b464" fill-opacity=".1" stroke="grey" xlink:href="#d"/><g class="GeneProduct" transform="translate(12,12)" color="#000"  name="ADH1A"><rect class="Icon" transform="matrix(.9816 0 0 .95238 .4908 .47619)" width="53.333" height="20" fill="#fff" stroke="#000"/><text class="Text" transform="translate(26.667 13)"   font-size="10px"  text-anchor="middle"><tspan x="0" y="0">ADH1A</tspan></text></g><g class="GeneProduct" transform="translate(12,32)" color="#000"  name="ADH1B"><rect class="Icon" transform="matrix(.9816 0 0 .95238 .4908 .47619)" width="53.333" height="20" fill="#fff" stroke="#000"/><text class="Text" transform="translate(26.667 13)"   font-size="10px"  text-anchor="middle"><tspan x="0" y="0">ADH1B</tspan></text></g><g class="GeneProduct" transform="translate(12,52)" color="#000"  name="ADH1C"><rect class="Icon" transform="matrix(.9816 0 0 .95238 .4908 .47619)" width="53.333" height="20" fill="#fff" stroke="#000"/><text class="Text" transform="translate(26.667 13)"   font-size="10px"  text-anchor="middle"><tspan x="0" y="0">ADH1C</tspan></text></g><a  class="GeneProduct P594_ENSMUSG00000037797 " transform="translate(12 72)"   name="Adh4"  ><rect class="Icon" transform="matrix(.9816 0 0 .95238 .4908 .47619)" width="53.333" height="20" fill="#fff" stroke="#000"/><text class="Text" transform="translate(26.667 13)"   font-size="10px"  text-anchor="middle"><tspan x="0" y="0">Adh4</tspan></text></a><g class="GeneProduct" transform="translate(12 92)" color="#000"  name="ADH6"><rect class="Icon" transform="matrix(.9816 0 0 .95238 .4908 .47619)" width="53.333" height="20" fill="#fff" stroke="#000"/><text class="Text" transform="translate(26.667 13)"   font-size="10px"  text-anchor="middle"><tspan x="0" y="0">ADH6</tspan></text></g><a  class="GeneProduct P594_ENSMUSG00000055301 " transform="translate(12 112)"   name="Adh7"  ><rect class="Icon" transform="matrix(.9816 0 0 .95238 .4908 .47619)" width="53.333" height="20" fill="#fff" stroke="#000"/><text class="Text" transform="translate(26.667 13)"   font-size="10px"  text-anchor="middle"><tspan x="0" y="0">Adh7</tspan></text></a></g><g class="GroupComplex" transform="translate(274.33 644.33)" color="grey" ><use class="Icon" transform="matrix(.98909 0 0 .98462 .49455 .49231)" width="90.66666666666669" height="64" fill="#b4b464" fill-opacity=".1" stroke="grey" xlink:href="#d"/><a  class="GeneProduct P594_ENSMUSG00000053279 " transform="translate(12,12)"   name="Aldh1a1"  ><rect class="Icon" transform="matrix(.98522 0 0 .95238 .49261 .47619)" width="66.667" height="20" fill="#fff" stroke="#000"/><text class="Text" transform="translate(33.333 13)"   font-size="10px"  text-anchor="middle"><tspan x="0" y="0">Aldh1a1</tspan></text></a><a  class="GeneProduct P594_ENSMUSG00000029455 " transform="translate(12,32)"   name="Aldh2"  ><rect class="Icon" transform="matrix(.98522 0 0 .95238 .49261 .47619)" width="66.667" height="20" fill="#fff" stroke="#000"/><text class="Text" transform="translate(33.333 13)"   font-size="10px"  text-anchor="middle"><tspan x="0" y="0">Aldh2</tspan></text></a></g><text class="Text" transform="translate(5,36)" dominant-baseline="central" fill="black"  font-size="12px" font-weight="bold" overflow="visible" ><tspan x="0" y="-18">Name: Fatty acid omega-oxidation</tspan> <tspan x="0" y="0">Last Modified: 10/17/2013</tspan> <tspan x="0" y="18">Organism: Mus musculus</tspan></text></g></svg>
