<?xml version="1.0" encoding="UTF-8"?>
<!--
  WikiPathways page: https://www.wikipathways.org/index.php/Pathway:WP3656
  URL for this compressed file: https://github.com/eweitz/cachome/tree/main/data/wikipathways/WP3656.svg
  Source code for compression: https://github.com/eweitz/cachome/tree/main/src/wikipathways.py
-->
<svg class="Diagram" width="800" height="600" color="black" baseProfile="full" prefix="schema:http://schema.org/" preserveAspectRatio="xMidYMid" version="1.1" viewBox="0 0 853 888.56" vocab="http://vocabularies.wikipathways.org/wp#" xmlns="http://www.w3.org/2000/svg" xmlns:xlink="http://www.w3.org/1999/xlink"><style>svg {font-family: 'Liberation Sans', Arial, sans-serif; }</style><defs><filter id="b" x="0" y="0" width="853" height="888.56" filterUnits="userSpaceOnUse"><feColorMatrix in="SourceGraphic" values="-1   0   0 0 0                   0  -1   0 0 0                   0   0  -1 0 0                   0   0   0 1 0"/></filter><marker id="d" stroke-dasharray="99999" markerHeight="12" markerUnits="userSpaceOnUse" markerWidth="12" orient="auto" preserveAspectRatio="none" refX="12" refY="6" viewBox="0 0 12 12"><path transform="rotate(180 6 6)" d="M12 11L0 6l12-5z" fill="currentColor" stroke-width="0"/></marker><marker id="e" stroke-dasharray="99999" markerHeight="12" markerUnits="userSpaceOnUse" markerWidth="12" orient="auto" preserveAspectRatio="none" refX="12" refY="6" viewBox="0 0 12 12"><path transform="rotate(180 6 6)" d="M12 12L0 6l12-6-7 6z" fill="currentColor" stroke-width="0"/></marker><symbol id="a" overflow="visible" preserveAspectRatio="none" viewBox="0 0 50 50"><ellipse cx="25" cy="25" rx="25" ry="25" stroke="currentColor" vector-effect="non-scaling-stroke"/></symbol><symbol id="f" overflow="visible" preserveAspectRatio="none" viewBox="0 0 100 100"><path d="M0 25L25 0h50l25 25v50l-25 25H25L0 75z" stroke="currentColor" vector-effect="non-scaling-stroke"/></symbol><symbol id="c" preserveAspectRatio="none" viewBox="0 0 100 100"/></defs><g class="Viewport" color="black"  name="Name: Interleukin-1 induced activation of NF-kB Organism: Homo sapiens"><rect class="Icon" width="853" height="888.56" fill="#fff" stroke="#000" stroke-width="0"/><g class="GroupComplex" transform="translate(234,379)" color="grey" ><use class="Icon" transform="matrix(.99567 0 0 .992 .49784 .496)" width="230" height="124" fill="#b4b464" fill-opacity=".1" stroke="grey" xlink:href="#f"/><a  class="GeneProduct AJUBA " transform="translate(138,33)"   name="AJUBA"  ><rect class="Icon" transform="matrix(.98765 0 0 .96296 .49383 .48148)" width="80" height="26" fill="#fff" stroke="#000"/><text class="Text" transform="translate(40,16)"   font-size="10px"  text-anchor="middle"><tspan x="0" y="0">AJUBA</tspan></text></a><a  class="GeneProduct PRKCZ " transform="translate(138,59)"   name="PKCZ"  ><rect class="Icon" transform="matrix(.98765 0 0 .96296 .49383 .48148)" width="80" height="26" fill="#fff" stroke="#000"/><text class="Text" transform="translate(40,16)"   font-size="10px"  text-anchor="middle"><tspan x="0" y="0">PKCZ</tspan></text></a><a  class="GeneProduct TIFA " transform="translate(58,85)"   name="TIFA"  ><rect class="Icon" transform="matrix(.98765 0 0 .96429 .49383 .48214)" width="80" height="27" fill="#fff" stroke="#000"/><text class="Text" transform="translate(40,16.5)"   font-size="10px"  text-anchor="middle"><tspan x="0" y="0">TIFA</tspan></text></a><a  class="GeneProduct SQSTM1 " transform="translate(138,85)"   name="SQSTM1"  ><rect class="Icon" transform="matrix(.98765 0 0 .96296 .49383 .48148)" width="80" height="26" fill="#fff" stroke="#000"/><text class="Text" transform="translate(40,16)"   font-size="10px"  text-anchor="middle"><tspan x="0" y="0">SQSTM1</tspan></text></a><a  class="GeneProduct UBE2N " transform="translate(12,12)"   name="UBC13"  ><rect class="Icon" transform="matrix(.97895 0 0 .96154 .48947 .48077)" width="46.5" height="25" fill="#fff" stroke="#000"/><text class="Text" transform="translate(23.25,15.5)"   font-size="10px"  text-anchor="middle"><tspan x="0" y="0">UBC13</tspan></text></a><a  class="GeneProduct UBE2V1 " transform="translate(12,37)"   name="UEV1A"  ><rect class="Icon" transform="matrix(.97895 0 0 .96154 .48947 .48077)" width="46.5" height="25" fill="#fff" stroke="#000"/><text class="Text" transform="translate(23.25,15.5)"   font-size="10px"  text-anchor="middle"><tspan x="0" y="0">UEV1A</tspan></text></a><a  class="GeneProduct TRAF6 " transform="translate(58,30)"   name="TRAF6"  ><rect class="Icon" transform="matrix(.98765 0 0 .96552 .49383 .48276)" width="80" height="28" fill="#fff" stroke="#000"/><g class="Burr State" transform="translate(71.5 -4.7)" color="#000"  name="Ub"><use class="Icon" transform="matrix(.9375 0 0 .9375 .46875 .46875)" width="15" height="15" fill="#0066ff" stroke="#000" xlink:href="#a"/><text class="Text" transform="translate(7.5,10.5)"   font-size="10px"  text-anchor="middle"><tspan x="0" y="0">Ub</tspan></text></g><g class="Burr State" transform="translate(56.5 -4.7)" color="#000"  name="Ub"><use class="Icon" transform="matrix(.9375 0 0 .9375 .46875 .46875)" width="15" height="15" fill="#0066ff" stroke="#000" xlink:href="#a"/><text class="Text" transform="translate(7.5,10.5)"   font-size="10px"  text-anchor="middle"><tspan x="0" y="0">Ub</tspan></text></g><text class="Text" transform="translate(40,17)"   font-size="10px"  text-anchor="middle"><tspan x="0" y="0">TRAF6</tspan></text></a><a  class="GeneProduct IRAK1 " transform="translate(58,58)"   name="IRAK1"  ><rect class="Icon" transform="matrix(.98765 0 0 .96429 .49383 .48214)" width="80" height="27" fill="#fff" stroke="#000"/><g class="Burr State" transform="translate(72.5,19.5)" color="#000"  name="P"><use class="Icon" transform="matrix(.9375 0 0 .9375 .46875 .46875)" width="15" height="15" fill="#ff6666" stroke="#000" xlink:href="#a"/><text class="Text" transform="translate(7.5,10.5)"   font-size="10px"  text-anchor="middle"><tspan x="0" y="0">P</tspan></text></g><g class="Burr State" transform="translate(-7.5,16.8)" color="#000"  name="Ub"><use class="Icon" transform="matrix(.9375 0 0 .9375 .46875 .46875)" width="15" height="15" fill="#0066ff" stroke="#000" xlink:href="#a"/><text class="Text" transform="translate(7.5,10.5)"   font-size="10px"  text-anchor="middle"><tspan x="0" y="0">Ub</tspan></text></g><g class="Burr State" transform="translate(72.5 -3.45)" color="#000"  name="P"><use class="Icon" transform="matrix(.9375 0 0 .9375 .46875 .46875)" width="15" height="15" fill="#ff6666" stroke="#000" xlink:href="#a"/><text class="Text" transform="translate(7.5,10.5)"   font-size="10px"  text-anchor="middle"><tspan x="0" y="0">P</tspan></text></g><text class="Text" transform="translate(40,16.5)"   font-size="10px"  text-anchor="middle"><tspan x="0" y="0">IRAK1</tspan></text></a></g><g id="g" class="DirectedInteraction" color="#000" ><g color="#000" fill="transparent"  filter="url(#b)" stroke="#000" stroke-dasharray="68.76424526068358, 5.8"><path class="EdgeBody" d="m349 764 0.35915 74.563"   marker-end="url(#d)" /></g></g><g id="h" class="Interaction" color="#000" ><g color="#000" fill="transparent"  filter="url(#b)" stroke="#000" stroke-dasharray="155.97455582431007, 1"><path class="EdgeBody" d="m229 290 20-6e-14c20 6e-14 60 6e-14 80 9.5739 20 9.5739 20 28.722 19.85 38.296-0.15027 9.5739-0.45081 9.5739-0.60107 9.5739h-0.15027"   marker-end="url(#e)" /></g></g><g id="i" class="DirectedInteraction" color="#000" ><g color="#000" fill="transparent"  filter="url(#b)" stroke="#000" stroke-dasharray="73.74315629931128, 5.8"><path class="EdgeBody" d="m349 557.8h0.042289c0.042289 0 0.12687 0 0.16915 7.5831 0.042289 7.5831 0.042289 22.749 7.6741 30.332 7.6318 7.5831 22.896 7.5831 30.527 7.5831h7.6318"   marker-end="url(#d)" /></g></g><g id="j" class="Interaction" color="#000" ><g color="#000" fill="transparent"  filter="url(#b)" stroke="#000" stroke-dasharray="74.99422810107711, 0"><path class="EdgeBody" d="m402.01 525.04h-8.7935c-8.7935 0-26.381 0-35.174 5.4592-8.7935 5.4592-8.7935 16.378-8.8358 21.837-0.042289 5.4592-0.12687 5.4592-0.16915 5.4592h-0.042289"   /></g></g><g id="k" class="Interaction" color="#000" ><g color="#000" fill="transparent"  filter="url(#b)" stroke="#000" stroke-dasharray="161.65170944275127, 1"><path class="EdgeBody" d="m475.25 290.25h-21.042c-21.042 0-63.125 0-84.167 9.5323-21.042 9.5323-21.042 28.597-21.192 38.129-0.15027 9.5323-0.45081 9.5323-0.60107 9.5323h-0.15027"   marker-end="url(#e)" /></g></g><g id="l" class="DirectedInteraction" color="#000" ><g color="#000" fill="transparent"  filter="url(#b)" stroke="#000" stroke-dasharray="99.24284840006958, 5.8"><path class="EdgeBody" d="m346 274 3 105"   marker-end="url(#d)" /></g><g class="Burr Anchor" transform="translate(348.1 347.44)" ><use class="Icon" width="0" height="0" fill="#141414" stroke-width="0" xlink:href="#c"/></g></g><g id="m" class="Interaction" color="#000" ><g color="#000" fill="transparent"  filter="url(#b)" stroke="#000" stroke-dasharray="89.54788267227256, 1"><path class="EdgeBody" d="m646.25 332.25h-3.3333c-3.3333 0-10 0-13.333-7-3.3333-7-3.3333-21-11.167-28-7.8333-7-23.5-7-31.333-7h-7.8333"   marker-end="url(#e)" /></g></g><g id="n" class="DirectedInteraction" color="#000" ><g color="#000" fill="transparent"  filter="url(#b)" stroke="#000" stroke-dasharray="39.106848030116744, 5.8"><path class="EdgeBody" d="M349.75,103.25L346,148"   marker-end="url(#d)" /></g></g><g id="o" class="Interaction" color="#000" ><g color="#000" fill="transparent"  filter="url(#b)" stroke="#000" stroke-dasharray="88.76479407295997, 1"><path class="EdgeBody" d="m646.25 249.25-3.3333-3e-14c-3.3333 3e-14 -10 3e-14 -13.333 6.8333-3.3333 6.8333-3.3333 20.5-11.167 27.333-7.8333 6.8333-23.5 6.8333-31.333 6.8333h-7.8333"   marker-end="url(#e)" /></g></g><g id="p" class="DirectedInteraction" color="#000" ><g color="#000" fill="transparent"  filter="url(#b)" stroke="#000" stroke-dasharray="131.2, 5.8"><path class="EdgeBody" d="m349 503v137"   marker-end="url(#d)" /></g><g class="Burr Anchor" transform="translate(349 557.8)" ><use class="Icon" width="0" height="0" fill="#141414" stroke-width="0" xlink:href="#c"/></g></g><g class="Label" transform="translate(125,312)" color="#000"  name="Ajuba-mediated  IRAK-PKCz binding"><use class="Icon" width="115" height="29" fill="transparent"  stroke="#000" stroke-width="0" xlink:href="#c"/><text class="Text" transform="translate(57.5,18.5)"   font-size="12px" font-weight="bold"  text-anchor="middle"><tspan x="0" y="-6.6000000000000005">Ajuba-mediated </tspan> <tspan x="0" y="6.6000000000000005">IRAK-PKCz binding</tspan></text></g><g class="Label" transform="translate(176,566)" color="#000"  name="PKCZ Phosphorylation"><use class="Icon" width="157" height="20" fill="transparent"  stroke="#000" stroke-width="0" xlink:href="#c"/><text class="Text" transform="translate(78.5,14)"   font-size="12px" font-weight="bold"  text-anchor="middle"><tspan x="0" y="0">PKCZ Phosphorylation</tspan></text></g><g class="GroupComplex" transform="translate(475.25,258.25)" color="grey" ><use class="Icon" transform="matrix(.99048 0 0 .98462 .49524 .49231)" width="104" height="64" fill="#b4b464" fill-opacity=".1" stroke="grey" xlink:href="#f"/><a  class="GeneProduct PRKCZ " transform="translate(12,12)"   name="PKCZ"  ><rect class="Icon" transform="matrix(.98765 0 0 .95238 .49383 .47619)" width="80" height="20" fill="#fff" stroke="#000"/><text class="Text" transform="translate(40,13)"   font-size="10px"  text-anchor="middle"><tspan x="0" y="0">PKCZ</tspan></text></a><a  class="GeneProduct SQSTM1 " transform="translate(12,32)"   name="SQSTM1"  ><rect class="Icon" transform="matrix(.98765 0 0 .95238 .49383 .47619)" width="80" height="20" fill="#fff" stroke="#000"/><text class="Text" transform="translate(40,13)"   font-size="10px"  text-anchor="middle"><tspan x="0" y="0">SQSTM1</tspan></text></a></g><a  class="GeneProduct IL1A " transform="translate(309.75,83.25)"   name="IL-1"  ><rect class="Icon" transform="matrix(.98765 0 0 .95238 .49383 .47619)" width="80" height="20" fill="#fff" stroke="#000"/><text class="Text" transform="translate(40,13)"   font-size="10px"  text-anchor="middle"><tspan x="0" y="0">IL-1</tspan></text></a><a class="Metabolite ChEBI_CHEBI_15422  " transform="translate(402.01 515.04)" color="#00f"  name="ATP"  ><rect class="Icon" transform="matrix(.98765 0 0 .95238 .49383 .47619)" width="80" height="20" fill="#fff" stroke="#00f"/><text class="Text" transform="translate(40,13)" fill="#00f"  font-size="10px"  text-anchor="middle"><tspan x="0" y="0">ATP</tspan></text></a><g class="Uniprot-TrEMBL_P19838 GeneProduct NFKB1 " transform="translate(312.86 838.56)" color="#000"  name="NF-KB"><rect class="Icon" transform="matrix(.98649 0 0 .95238 .49324 .47619)" width="73" height="20" fill="#fff" stroke="#000"/><text class="Text" transform="translate(36.5,13)"   font-size="10px"  text-anchor="middle"><tspan x="0" y="0">NF-KB</tspan></text></g><g class="GroupComplex" transform="translate(272,148)" color="grey" ><use class="Icon" transform="matrix(.99329 0 0 .99213 .49664 .49606)" width="148" height="126" fill="#b4b464" fill-opacity=".1" stroke="grey" xlink:href="#f"/><a  class="GeneProduct TRAF6 " transform="translate(56,32)"   name="TRAF6"  ><rect class="Icon" transform="matrix(.98765 0 0 .96552 .49383 .48276)" width="80" height="28" fill="#fff" stroke="#000"/><g class="Burr State" transform="translate(71.5 -4.7)" color="#000"  name="Ub"><use class="Icon" transform="matrix(.9375 0 0 .9375 .46875 .46875)" width="15" height="15" fill="#0066ff" stroke="#000" xlink:href="#a"/><text class="Text" transform="translate(7.5,10.5)"   font-size="10px"  text-anchor="middle"><tspan x="0" y="0">Ub</tspan></text></g><g class="Burr State" transform="translate(56.5 -4.7)" color="#000"  name="Ub"><use class="Icon" transform="matrix(.9375 0 0 .9375 .46875 .46875)" width="15" height="15" fill="#0066ff" stroke="#000" xlink:href="#a"/><text class="Text" transform="translate(7.5,10.5)"   font-size="10px"  text-anchor="middle"><tspan x="0" y="0">Ub</tspan></text></g><text class="Text" transform="translate(40,17)"   font-size="10px"  text-anchor="middle"><tspan x="0" y="0">TRAF6</tspan></text></a><a  class="GeneProduct UBE2V1 " transform="translate(12,37)"   name="UEV1A"  ><rect class="Icon" transform="matrix(.97802 0 0 .96154 .48901 .48077)" width="44.5" height="25" fill="#fff" stroke="#000"/><text class="Text" transform="translate(22.25,15.5)"   font-size="10px"  text-anchor="middle"><tspan x="0" y="0">UEV1A</tspan></text></a><a  class="GeneProduct TIFA " transform="translate(56,87)"   name="TIFA"  ><rect class="Icon" transform="matrix(.98765 0 0 .96429 .49383 .48214)" width="80" height="27" fill="#fff" stroke="#000"/><text class="Text" transform="translate(40,16.5)"   font-size="10px"  text-anchor="middle"><tspan x="0" y="0">TIFA</tspan></text></a><a  class="GeneProduct UBE2N " transform="translate(12,12)"   name="UBC13"  ><rect class="Icon" transform="matrix(.97802 0 0 .96154 .48901 .48077)" width="44.5" height="25" fill="#fff" stroke="#000"/><text class="Text" transform="translate(22.25,15.5)"   font-size="10px"  text-anchor="middle"><tspan x="0" y="0">UBC13</tspan></text></a><a  class="GeneProduct IRAK1 " transform="translate(56,60)"   name="IRAK1"  ><rect class="Icon" transform="matrix(.98765 0 0 .96429 .49383 .48214)" width="80" height="27" fill="#fff" stroke="#000"/><g class="Burr State" transform="translate(72.5 -3.45)" color="#000"  name="P"><use class="Icon" transform="matrix(.9375 0 0 .9375 .46875 .46875)" width="15" height="15" fill="#ff6666" stroke="#000" xlink:href="#a"/><text class="Text" transform="translate(7.5,10.5)"   font-size="10px"  text-anchor="middle"><tspan x="0" y="0">P</tspan></text></g><g class="Burr State" transform="translate(72.5,19.5)" color="#000"  name="P"><use class="Icon" transform="matrix(.9375 0 0 .9375 .46875 .46875)" width="15" height="15" fill="#ff6666" stroke="#000" xlink:href="#a"/><text class="Text" transform="translate(7.5,10.5)"   font-size="10px"  text-anchor="middle"><tspan x="0" y="0">P</tspan></text></g><g class="Burr State" transform="translate(-7.5,16.8)" color="#000"  name="Ub"><use class="Icon" transform="matrix(.9375 0 0 .9375 .46875 .46875)" width="15" height="15" fill="#0066ff" stroke="#000" xlink:href="#a"/><text class="Text" transform="translate(7.5,10.5)"   font-size="10px"  text-anchor="middle"><tspan x="0" y="0">Ub</tspan></text></g><text class="Text" transform="translate(40,16.5)"   font-size="10px"  text-anchor="middle"><tspan x="0" y="0">IRAK1</tspan></text></a></g><a  class="GeneProduct AJUBA " transform="translate(172,280)"   name="AJUBA"  ><rect class="Icon" transform="matrix(.98276 0 0 .95238 .49138 .47619)" width="57" height="20" fill="#fff" stroke="#000"/><text class="Text" transform="translate(28.5,13)"   font-size="10px"  text-anchor="middle"><tspan x="0" y="0">AJUBA</tspan></text></a><a class="Metabolite ChEBI_CHEBI_16761  " transform="translate(395.04 593.3)" color="#00f"  name="ADP"  ><rect class="Icon" transform="matrix(.98765 0 0 .95238 .49383 .47619)" width="80" height="20" fill="#fff" stroke="#00f"/><text class="Text" transform="translate(40,13)" fill="#00f"  font-size="10px"  text-anchor="middle"><tspan x="0" y="0">ADP</tspan></text></a><a  class="GeneProduct PRKCZ " transform="translate(646.25,239.25)"   name="PKCZ"  ><rect class="Icon" transform="matrix(.98381 0 0 .95238 .4919 .47619)" width="60.75" height="20" fill="#fff" stroke="#000"/><text class="Text" transform="translate(30.375,13)"   font-size="10px"  text-anchor="middle"><tspan x="0" y="0">PKCZ</tspan></text></a><a  class="GeneProduct SQSTM1 " transform="translate(646.25,322.25)"   name="SQSTM1"  ><rect class="Icon" transform="matrix(.98431 0 0 .95238 .49216 .47619)" width="62.75" height="20" fill="#fff" stroke="#000"/><text class="Text" transform="translate(31.375,13)"   font-size="10px"  text-anchor="middle"><tspan x="0" y="0">SQSTM1</tspan></text></a><g class="Label" transform="translate(674,278)" color="#000"  name="PKCZ / SQST1 binding"><use class="Icon" width="149" height="29" fill="transparent"  stroke="#000" stroke-width="0" xlink:href="#c"/><text class="Text" transform="translate(74.5,18.5)"   font-size="12px" font-weight="bold"  text-anchor="middle"><tspan x="0" y="0">PKCZ / SQST1 binding</tspan></text></g><g class="GroupComplex" transform="translate(234,640)" color="grey" ><use class="Icon" transform="matrix(.99567 0 0 .992 .49784 .496)" width="230" height="124" fill="#b4b464" fill-opacity=".1" stroke="grey" xlink:href="#f"/><a  class="GeneProduct AJUBA " transform="translate(138,33)"   name="AJUBA"  ><rect class="Icon" transform="matrix(.98765 0 0 .96296 .49383 .48148)" width="80" height="26" fill="#fff" stroke="#000"/><text class="Text" transform="translate(40,16)"   font-size="10px"  text-anchor="middle"><tspan x="0" y="0">AJUBA</tspan></text></a><a  class="GeneProduct PRKCZ " transform="translate(138,59)"   name="PKCZ"  ><rect class="Icon" transform="matrix(.98765 0 0 .96296 .49383 .48148)" width="80" height="26" fill="#fff" stroke="#000"/><g class="Burr State" transform="translate(72.5,-1.5)" color="#000"  name="P"><use class="Icon" transform="matrix(.9375 0 0 .9375 .46875 .46875)" width="15" height="15" fill="#ff6666" stroke="#000" xlink:href="#a"/><text class="Text" transform="translate(7.5,10.5)"   font-size="10px"  text-anchor="middle"><tspan x="0" y="0">P</tspan></text></g><text class="Text" transform="translate(40,16)"   font-size="10px"  text-anchor="middle"><tspan x="0" y="0">PKCZ</tspan></text></a><a  class="GeneProduct TIFA " transform="translate(58,85)"   name="TIFA"  ><rect class="Icon" transform="matrix(.98765 0 0 .96429 .49383 .48214)" width="80" height="27" fill="#fff" stroke="#000"/><text class="Text" transform="translate(40,16.5)"   font-size="10px"  text-anchor="middle"><tspan x="0" y="0">TIFA</tspan></text></a><a  class="GeneProduct SQSTM1 " transform="translate(138,85)"   name="SQSTM1"  ><rect class="Icon" transform="matrix(.98765 0 0 .96296 .49383 .48148)" width="80" height="26" fill="#fff" stroke="#000"/><text class="Text" transform="translate(40,16)"   font-size="10px"  text-anchor="middle"><tspan x="0" y="0">SQSTM1</tspan></text></a><a  class="GeneProduct UBE2N " transform="translate(12,12)"   name="UBC13"  ><rect class="Icon" transform="matrix(.97895 0 0 .96154 .48947 .48077)" width="46.5" height="25" fill="#fff" stroke="#000"/><text class="Text" transform="translate(23.25,15.5)"   font-size="10px"  text-anchor="middle"><tspan x="0" y="0">UBC13</tspan></text></a><a  class="GeneProduct UBE2V1 " transform="translate(12,37)"   name="UEV1A"  ><rect class="Icon" transform="matrix(.97895 0 0 .96154 .48947 .48077)" width="46.5" height="25" fill="#fff" stroke="#000"/><text class="Text" transform="translate(23.25,15.5)"   font-size="10px"  text-anchor="middle"><tspan x="0" y="0">UEV1A</tspan></text></a><a  class="GeneProduct TRAF6 " transform="translate(58,30)"   name="TRAF6"  ><rect class="Icon" transform="matrix(.98765 0 0 .96552 .49383 .48276)" width="80" height="28" fill="#fff" stroke="#000"/><g class="Burr State" transform="translate(56.5 -4.7)" color="#000"  name="Ub"><use class="Icon" transform="matrix(.9375 0 0 .9375 .46875 .46875)" width="15" height="15" fill="#0066ff" stroke="#000" xlink:href="#a"/><text class="Text" transform="translate(7.5,10.5)"   font-size="10px"  text-anchor="middle"><tspan x="0" y="0">Ub</tspan></text></g><g class="Burr State" transform="translate(71.5 -4.7)" color="#000"  name="Ub"><use class="Icon" transform="matrix(.9375 0 0 .9375 .46875 .46875)" width="15" height="15" fill="#0066ff" stroke="#000" xlink:href="#a"/><text class="Text" transform="translate(7.5,10.5)"   font-size="10px"  text-anchor="middle"><tspan x="0" y="0">Ub</tspan></text></g><text class="Text" transform="translate(40,17)"   font-size="10px"  text-anchor="middle"><tspan x="0" y="0">TRAF6</tspan></text></a><a  class="GeneProduct IRAK1 " transform="translate(58,58)"   name="IRAK1"  ><rect class="Icon" transform="matrix(.98765 0 0 .96429 .49383 .48214)" width="80" height="27" fill="#fff" stroke="#000"/><g class="Burr State" transform="translate(72.5 -3.45)" color="#000"  name="P"><use class="Icon" transform="matrix(.9375 0 0 .9375 .46875 .46875)" width="15" height="15" fill="#ff6666" stroke="#000" xlink:href="#a"/><text class="Text" transform="translate(7.5,10.5)"   font-size="10px"  text-anchor="middle"><tspan x="0" y="0">P</tspan></text></g><g class="Burr State" transform="translate(72.5,19.5)" color="#000"  name="P"><use class="Icon" transform="matrix(.9375 0 0 .9375 .46875 .46875)" width="15" height="15" fill="#ff6666" stroke="#000" xlink:href="#a"/><text class="Text" transform="translate(7.5,10.5)"   font-size="10px"  text-anchor="middle"><tspan x="0" y="0">P</tspan></text></g><g class="Burr State" transform="translate(-7.5,16.8)" color="#000"  name="Ub"><use class="Icon" transform="matrix(.9375 0 0 .9375 .46875 .46875)" width="15" height="15" fill="#0066ff" stroke="#000" xlink:href="#a"/><text class="Text" transform="translate(7.5,10.5)"   font-size="10px"  text-anchor="middle"><tspan x="0" y="0">Ub</tspan></text></g><text class="Text" transform="translate(40,16.5)"   font-size="10px"  text-anchor="middle"><tspan x="0" y="0">IRAK1</tspan></text></a></g><text class="Text" transform="translate(5,27)" dominant-baseline="central" fill="black"  font-size="12px" font-weight="bold" overflow="visible" ><tspan x="0" y="-9">Name: Interleukin-1 induced activation of NF-kB</tspan> <tspan x="0" y="9">Organism: Homo sapiens</tspan></text></g></svg>
