<?xml version="1.0" encoding="UTF-8"?>
<!--
  WikiPathways page: https://www.wikipathways.org/index.php/Pathway:WP3640
  URL for this compressed file: https://github.com/eweitz/cachome/tree/main/data/wikipathways/WP3640.svg
  Source code for compression: https://github.com/eweitz/cachome/tree/main/src/wikipathways.py
-->
<svg class="Diagram" width="800" height="600" color="black" baseProfile="full" prefix="schema:http://schema.org/" preserveAspectRatio="xMidYMid" version="1.1" viewBox="0 0 851.21 855.18" vocab="http://vocabularies.wikipathways.org/wp#" xmlns="http://www.w3.org/2000/svg" xmlns:xlink="http://www.w3.org/1999/xlink"><style>svg {font-family: 'Liberation Sans', Arial, sans-serif; }</style><defs><filter id="a" x="0" y="0" width="851.21" height="855.18" filterUnits="userSpaceOnUse"><feColorMatrix in="SourceGraphic" values="-1   0   0 0 0                   0  -1   0 0 0                   0   0  -1 0 0                   0   0   0 1 0"/></filter><filter id="h" x="0" y="0" width="851.21" height="855.18" filterUnits="userSpaceOnUse"><feColorMatrix in="SourceGraphic" values="-1   0   0 0 0.6                   0  -1   0 0 0.6                   0   0  -1 0 0.6                   0   0   0 1 0"/></filter><marker id="c" stroke-dasharray="99999" markerHeight="12" markerUnits="userSpaceOnUse" markerWidth="12" orient="auto" preserveAspectRatio="none" refX="12" refY="6" viewBox="0 0 12 12"><path transform="rotate(180 6 6)" d="M12 11L0 6l12-5z" fill="currentColor" stroke-width="0"/></marker><marker id="f" stroke-dasharray="99999" markerHeight="24" markerUnits="userSpaceOnUse" markerWidth="20" orient="auto" preserveAspectRatio="none" refX="20" refY="12" viewBox="0 0 20 24"><g transform="rotate(180 10 12)" fill="none" stroke="#000"><path d="M15 12V5M15.5 5H8M0 5l8-4v8z"/></g></marker><marker id="g" stroke-dasharray="99999" markerHeight="20" markerUnits="userSpaceOnUse" markerWidth="10" orient="auto" preserveAspectRatio="none" refY="10" viewBox="0 0 10 20"><path transform="rotate(180 5 10)" d="m3 0v20" fill="currentColor" stroke="currentColor"/></marker><marker id="d" stroke-dasharray="99999" markerHeight="20" markerUnits="userSpaceOnUse" markerWidth="10" orient="auto" preserveAspectRatio="none" refX="10" refY="10" viewBox="0 0 10 20"><path d="m3 0v20" fill="currentColor" stroke="currentColor"/></marker><symbol id="e" overflow="visible" preserveAspectRatio="none" viewBox="0 0 50 50"><ellipse cx="25" cy="25" rx="25" ry="25" stroke="currentColor" vector-effect="non-scaling-stroke"/></symbol><symbol id="b" preserveAspectRatio="none" viewBox="0 0 100 100"/></defs><g class="Viewport" color="black"  name="Name: Imatinib and chronic myeloid leukemia Organism: Homo sapiens"><rect class="Icon" width="851.21" height="855.18" fill="#fff" stroke="#000" stroke-width="0"/><g id="i" class="DirectedInteraction" color="#000" ><g color="#000" fill="transparent"  filter="url(#a)" stroke="#000" stroke-dasharray="20.646153095008966, 5.8"><path class="EdgeBody" d="m733.99 305.32 0.14812-26.446"   marker-end="url(#c)" /></g></g><g id="j" class="Inhibition" color="#000" ><g color="#000" fill="transparent"  filter="url(#a)" stroke="#000" stroke-dasharray="471.9267539076672, 7"><path class="EdgeBody" d="m646.54 659.18h-413.93v-65"   marker-end="url(#d)" /></g></g><g id="k" class="Edge GraphicalLine" color="#999" ><g color="#999" fill="transparent"  filter="url(#h)" stroke="#000" stroke-dasharray="5.02, 3.01, 5.02, 3.01, 5.02, 3.01, 5.02, 3.01, 5.02, 3.01, 5.02, 3.01, 5.02, 3.01, 5.02, 3.01, 5.02, 3.01, 5.02, 3.01, 5.02, 3.01, 5.02, 3.01, 5.02, 3.01, 5.02, 3.01, 5.02, 3.01, 5.02, 3.01, 5.02, 3.01, 5.02, 3.01, 5.02, 3.01, 5.02, 3.01, 5.02, 3.01, 5.02, 3.01, 5.02, 3.01, 5.02, 3.01, 5.02, 3.01, 5.02, 3.01, 5.02, 3.01, 5.02, 3.01, 5.02, 3.01, 5.02, 3.01, 5.02, 3.01, 5.02, 3.01, 5.02, 3.01, 5.02, 3.01, 5.02, 3.01, 5.02, 3.01, 5.02, 3.01, 5.02, 3.01, 5.02, 3.01, 5.02, 3.01, 5.02, 3.01, 5.02, 3.01, 5.02, 3.01, 5.02, 3.01, 5.02, 3.01, 5.02, 3.01, 5.02, 3.01, 5.02, 3.01, 5.02, 3.01, 5.02, 3.01, 5.02, 3.01, 5.02, 3.01, 5.02, 3.01, 5.02, 3.01, 5.02, 3.01, 5.02, 3.01, 5.02, 3.01, 5.02, 3.01, 5.02, 3.01, 5.02, 3.01, 5.02, 3.01, 5.02, 3.01, 5.02, 3.01, 5.02, 3.01, 5.02, 3.01, 5.02, 3.01, 5.02, 3.01, 5.02, 3.01, 5.02, 3.01, 5.02, 3.01, 5.02, 3.01, 5.02, 3.01, 5.02, 3.01, 5.02, 3.01, 5.02, 3.01, 5.02, 3.01, 5.02, 3.01, 5.02, 3.01, 5.02, 3.01, 5.02, 3.01, 5.02, 3.01, 5.02, 3.01, 5.02, 3.01, 5.02, 3.01, 5.02, 3.01, 5.02, 3.01, 5.02, 3.01, 5.02, 3.01, 5.02, 3.01, 5.02, 3.01, 5.02, 0" stroke-width="3"><path class="EdgeBody" d="m44.793 176.12h727.47"   /></g></g><g id="l" class="DirectedInteraction" color="#000" ><g color="#000" fill="transparent"  filter="url(#a)" stroke="#000" stroke-dasharray="28.048656755279847, 5.8"><path class="EdgeBody" d="m314.26 574.76 0.39927-33.846"   marker-end="url(#c)" /></g></g><g id="m" class="DirectedInteraction" color="#000" ><g color="#000" fill="transparent"  filter="url(#a)" stroke="#000" stroke-dasharray="18.55110890698047, 5.8"><path class="EdgeBody" d="m460.47 349.47 7e-14 -24.351"   marker-end="url(#c)" /></g></g><g id="n" class="DirectedInteraction" color="#000" ><g color="#000" fill="transparent"  filter="url(#a)" stroke="#000" stroke-dasharray="19.827755260457497, 5.8"><path class="EdgeBody" d="m300.74 594.76 0.13826 25.627"   marker-end="url(#c)" /></g></g><g id="o" class="Inhibition" color="#000" ><g color="#000" fill="transparent"  filter="url(#a)" stroke="#000" stroke-dasharray="461.15911714916973, 7"><path class="EdgeBody" d="m697.12 381.93h-411.35v-56.807"   marker-end="url(#d)" /></g></g><g id="p" class="DirectedInteraction" color="#000" ><g color="#000" fill="transparent"  filter="url(#a)" stroke="#000" stroke-dasharray="18.2, 5.8"><path class="EdgeBody" d="m237.77 305.12-1e-13 -24"   marker-end="url(#c)" /></g></g><g id="q" class="DirectedInteraction" color="#000" ><g color="#000" fill="transparent"  filter="url(#a)" stroke="#000" stroke-dasharray="42.82317611894654, 5.8"><path class="EdgeBody" d="m505.05 328.93-0.2034-48.623"   marker-end="url(#c)" /></g></g><g id="r" class="Interaction" color="#000" ><g color="#000" fill="transparent"  filter="url(#a)" stroke="#000" stroke-dasharray="154.74126012627292, 11"><path class="EdgeBody" d="m723.62 557.67 0.52846-165.74"   marker-end="url(#f)" /></g><g class="Burr Anchor" transform="translate(723.7 531.85)" ><use class="Icon" width="0" height="0" fill="#141414" stroke-width="0" xlink:href="#b"/></g></g><g id="s" class="Inhibition" color="#000" ><g color="#000" fill="transparent"  filter="url(#a)" stroke="#000" stroke-dasharray="442.1162075364767, 7"><path class="EdgeBody" d="m235.11 448.98h430.21v-18.91"   marker-end="url(#d)" /></g></g><g id="t" class="Interaction" color="#000" ><g color="#000" fill="transparent"  filter="url(#a)" stroke="#000" stroke-dasharray="22.852825668811697, 11"><path class="EdgeBody" d="m301.41 540.91-0.66457 33.846"   marker-end="url(#f)" /></g></g><g id="u" class="DirectedInteraction" color="#000" ><g color="#000" fill="transparent"  filter="url(#a)" stroke="#000" stroke-dasharray="19.02105832809748, 5.8"><path class="EdgeBody" d="m460.47 305.12-0.62346-24.813"   marker-end="url(#c)" /></g></g><g id="v" class="Inhibition" color="#000" ><g color="#000" fill="transparent"  filter="url(#a)" stroke="#000" stroke-dasharray="388.79642900786706, 7"><path class="EdgeBody" d="m327.91 530.91 395.8 0.94398"   marker-end="url(#d)" /></g></g><g id="w" class="DirectedInteraction" color="#000" ><g color="#000" fill="transparent"  filter="url(#a)" stroke="#000" stroke-dasharray="119.1743247124494, 5.8"><path class="EdgeBody" d="m274.91 530.91h-53.044v-71.93"   marker-end="url(#c)" /></g></g><g id="x" class="Inhibition" color="#000" ><g color="#000" fill="transparent"  filter="url(#a)" stroke="#000" stroke-dasharray="489.00357401796055, 7"><path class="EdgeBody" d="m638.82 420.07h-401.05v-94.95"   marker-end="url(#d)" /></g></g><g id="y" class="Inhibition" color="#000" ><g color="#000" fill="transparent"  filter="url(#a)" stroke="#000" stroke-dasharray="386.12522719010906, 7"><path class="EdgeBody" d="m311.42 707.18h355.13v-38"   marker-end="url(#d)" /></g></g><g id="z" class="DirectedInteraction" color="#000" ><g color="#000" fill="transparent"  filter="url(#a)" stroke="#000" stroke-dasharray="21.43235251623354, 5.8"><path class="EdgeBody" d="m315.26 493.68-0.60673 27.226"   marker-end="url(#c)" /></g></g><g class="GroupGroup" transform="translate(151.11 566.18)" color="grey" ><use class="Icon" width="115.00000000000003" height="36" fill="transparent"  stroke="grey" stroke-dasharray="5,3" stroke-width="0" xlink:href="#b"/><g id="aa" class="Interaction" color="#000" ><g color="#000" fill="transparent"  filter="url(#a)" stroke="#000" stroke-dasharray="2.842170943040401e-14, 0"><path class="EdgeBody" d="m56 18h3e-14"   /></g></g><a  class="GeneProduct BCR " transform="translate(8,8)"   name="BCR"  ><rect class="Icon" transform="matrix(.97959 0 0 .95238 .4898 .47619)" width="48" height="20" fill="#fff" stroke="#000"/><text class="Text" transform="translate(24,13)"   font-size="10px"  text-anchor="middle"><tspan x="0" y="0">BCR</tspan></text></a><a  class="GeneProduct ABL1 " transform="translate(56 8)"   name="ABL1"  ><rect class="Icon" transform="matrix(.98077 0 0 .95238 .49038 .47619)" width="51" height="20" fill="#fff" stroke="#000"/><text class="Text" transform="translate(25.5,13)"   font-size="10px"  text-anchor="middle"><tspan x="0" y="0">ABL1</tspan></text></a></g><g id="ab" class="DirectedInteraction" color="#000" ><g color="#000" fill="transparent"  filter="url(#a)" stroke="#000" stroke-dasharray="101.40524074298385, 5.8"><path class="EdgeBody" d="m208.61 566.18-3.4e-13 -107.21"   marker-end="url(#c)" /></g></g><g id="ac" class="Inhibition" color="#000" ><g color="#000" fill="transparent"  filter="url(#a)" stroke="#000" stroke-dasharray="0, 7, 508.6252271901087, 0"><path class="EdgeBody" d="m306.92 785.18h399.63v-116"   marker-start="url(#g)" /></g></g><g id="ad" class="Edge GraphicalLine DirectedInteraction" color="#000" ><g color="#000" fill="transparent"  filter="url(#a)" stroke="#000" stroke-dasharray="372.14755733376313, 5.8"><path class="EdgeBody" d="m425.77 224.06h265.83v-112.12"   marker-end="url(#c)" /></g></g><g class="Label" transform="translate(28.319 188.12)" color="#666666"  name="Bone Marrow"><use class="Icon" width="119" height="20" fill="transparent"  stroke="#666666" stroke-width="0" xlink:href="#b"/><text class="Text" transform="translate(59.5,14)" fill="#666666"  font-size="14px" font-weight="bold"  text-anchor="middle"><tspan x="0" y="0">Bone Marrow</tspan></text></g><g class="Label" transform="translate(156.37 776.34)" color="#000"  name="Competitive Binding"><use class="Icon" width="80" height="20" fill="transparent"  stroke="#000" stroke-width="0" xlink:href="#b"/><text class="Text" transform="translate(40,13)"   font-size="10px"  text-anchor="middle"><tspan x="0" y="-5.5">Competitive</tspan> <tspan x="0" y="5.5">Binding</tspan></text></g><a class="WikiPathways_WP2849 Pathway " transform="translate(599.14 258.88)" color="#14961e"  name="Erythroid Differentiation"  ><use class="Icon" width="180" height="20" fill="transparent"  stroke="#14961e" stroke-width="0" xlink:href="#b"/><text class="Text" transform="translate(90,14)" fill="#14961e"  font-size="12px" font-weight="bold" stroke="black" stroke-width="0" text-anchor="middle"><tspan x="0" y="0">Erythroid Differentiation</tspan></text></a><a class="Rna PVT1 " transform="translate(273.71 574.76)" color="#990099"  name="PVT1"  ><rect class="Icon" transform="matrix(.98184 0 0 .95238 .49092 .47619)" width="54.061" height="20" fill="#fff" stroke="#909"/><text class="Text" transform="translate(27.031 13)" fill="#990099"  font-size="10px"  text-anchor="middle"><tspan x="0" y="0">PVT1</tspan></text></a><a class="Metabolite ChEBI_CHEBI_45783  " transform="translate(646.54 649.18)" color="#00f"  name="Imatinib"  ><rect class="Icon" transform="matrix(.98765 0 0 .95238 .49383 .47619)" width="80" height="20" fill="#fff" stroke="#00f"/><text class="Text" transform="translate(40,13)" fill="#00f"  font-size="10px"  text-anchor="middle"><tspan x="0" y="0">Imatinib</tspan></text></a><a  class="GeneProduct MYC " transform="translate(274.91 520.91)"   name="MYC"  ><rect class="Icon" transform="matrix(.98148 0 0 .95238 .49074 .47619)" width="53" height="20" fill="#fff" stroke="#000"/><text class="Text" transform="translate(26.5,13)"   font-size="10px"  text-anchor="middle"><tspan x="0" y="0">MYC</tspan></text></a><g class="Label" transform="translate(22.319 147.12)" color="#666666"  name="Blood"><use class="Icon" width="82" height="20" fill="transparent"  stroke="#666666" stroke-width="0" xlink:href="#b"/><text class="Text" transform="translate(41,14)" fill="#666666"  font-size="14px" font-weight="bold"  text-anchor="middle"><tspan x="0" y="0">Blood</tspan></text></g><g class="Label" transform="translate(301.21 186.84)" color="#000"  name="Hematopoietic Stem Cell (HSC)"><use class="Icon" width="213.499681258475" height="26.858000751447747" fill="transparent"  stroke="#000" stroke-width="0" xlink:href="#b"/><text class="Text" transform="translate(106.75 17.429)"   font-size="12px" font-weight="bold"  text-anchor="middle"><tspan x="0" y="0">Hematopoietic Stem Cell (HSC)</tspan></text></g><g class="SingleFreeNode Shape PhysicalEntity CellularComponent Vesicle" transform="translate(391.1 209.56)" color="#cc99ff" ><use class="Icon" transform="matrix(.92035 0 0 .90625 1.3805 1.3594)" width="34.66666666666666" height="29.000000000000018" fill="#330099" stroke="#cc99ff" stroke-width="3" xlink:href="#e"/></g><g class="Label" transform="translate(696.45 76.497)" color="#000"  name="Differntiated Erythrocyte"><use class="Icon" width="124.76077657123915" height="23.820335636722177" fill="transparent"  stroke="#000" stroke-width="0" xlink:href="#b"/><text class="Text" transform="translate(62.38 15.91)"   font-size="12px" font-weight="bold"  text-anchor="middle"><tspan x="0" y="-6.6000000000000005">Differntiated</tspan> <tspan x="0" y="6.6000000000000005">Erythrocyte</tspan></text></g><g class="GroupGroup" transform="translate(665.71 66.022)" color="grey" ><use class="Icon" width="51.77144502659098" height="45.924347095640655" fill="transparent"  stroke="grey" stroke-dasharray="5,3" stroke-width="0" xlink:href="#b"/><g class="SingleFreeNode Shape PhysicalEntity CellularComponent Vesicle" transform="translate(8,8)" color="#ff6666" ><use class="Icon" transform="matrix(.85636 0 0 .83298 2.5691 2.4989)" width="35.771445026590975" height="29.92434709564066" fill="#cc0033" stroke="#ff6666" stroke-width="6" xlink:href="#e"/></g><g class="SingleFreeNode Shape PhysicalEntity CellularComponent Vesicle" transform="translate(20.184 18.395)" color="#ff6666" ><use class="Icon" transform="matrix(.92385 0 0 .90074 .46193 .45037)" width="12.132619061793426" height="9.074410163339294" fill="#ff6666" stroke="#ff6666" xlink:href="#e"/></g></g><g class="SingleFreeNode Shape PhysicalEntity CellularComponent Vesicle" transform="translate(168.69 70.92)" color="#cc99ff" ><use class="Icon" transform="matrix(.92035 0 0 .90625 1.3805 1.3594)" width="34.66666666666666" height="29.000000000000018" fill="#cc0066" stroke="#cc99ff" stroke-width="3" xlink:href="#e"/></g><g class="Label" transform="translate(198.74 73.644)" color="#000"  name="Proliferating  CML Cell"><use class="Icon" width="113.52307502332417" height="23.820335636722177" fill="transparent"  stroke="#000" stroke-width="0" xlink:href="#b"/><text class="Text" transform="translate(56.762 15.91)"   font-size="12px" font-weight="bold"  text-anchor="middle"><tspan x="0" y="-6.6000000000000005">Proliferating </tspan> <tspan x="0" y="6.6000000000000005">CML Cell</tspan></text></g><g id="ae" class="Edge GraphicalLine DirectedInteraction" color="#000" ><g color="#000" fill="transparent"  filter="url(#a)" stroke="#000" stroke-dasharray="323.4165980134599, 5.8"><path class="EdgeBody" d="m391.1 224.06h-205.08v-124.14"   marker-end="url(#c)" /></g></g><a class="WikiPathways_WP2849 Pathway " transform="translate(184.27 261.12)" color="#14961e"  name="Proliferation"  ><use class="Icon" width="107" height="20" fill="transparent"  stroke="#14961e" stroke-width="0" xlink:href="#b"/><text class="Text" transform="translate(53.5,14)" fill="#14961e"  font-size="12px" font-weight="bold" stroke="black" stroke-width="0" text-anchor="middle"><tspan x="0" y="0">Proliferation</tspan></text></a><g class="GroupGroup" transform="translate(235.42 679.18)" color="grey" ><use class="Icon" width="76" height="56" fill="transparent"  stroke="grey" stroke-dasharray="5,3" stroke-width="0" xlink:href="#b"/><a  class="GeneProduct ABCB1 " transform="translate(8,8)"   name="ABCB1"  ><rect class="Icon" transform="matrix(.98361 0 0 .95238 .4918 .47619)" width="60" height="20" fill="#fff" stroke="#000"/><text class="Text" transform="translate(30,13)"   font-size="10px"  text-anchor="middle"><tspan x="0" y="0">ABCB1</tspan></text></a><a  class="GeneProduct ABCG2 " transform="translate(8,28)"   name="ABCG2"  ><rect class="Icon" transform="matrix(.98361 0 0 .95238 .4918 .47619)" width="60" height="20" fill="#fff" stroke="#000"/><text class="Text" transform="translate(30,13)"   font-size="10px"  text-anchor="middle"><tspan x="0" y="0">ABCG2</tspan></text></a></g><g class="GroupGroup" transform="translate(237.92 737.18)" color="grey" ><use class="Icon" width="69.00000000000023" height="95.99999999999977" fill="transparent"  stroke="grey" stroke-dasharray="5,3" stroke-width="0" xlink:href="#b"/><a  class="GeneProduct KIT " transform="translate(8,8)"   name="KIT"  ><rect class="Icon" transform="matrix(.98148 0 0 .95238 .49074 .47619)" width="53" height="20" fill="#fff" stroke="#000"/><text class="Text" transform="translate(26.5,13)"   font-size="10px"  text-anchor="middle"><tspan x="0" y="0">KIT</tspan></text></a><a  class="GeneProduct PDGFRA " transform="translate(8 28)"   name="PDGFRA"  ><rect class="Icon" transform="matrix(.98148 0 0 .95238 .49074 .47619)" width="53" height="20" fill="#fff" stroke="#000"/><text class="Text" transform="translate(26.5,13)"   font-size="10px"  text-anchor="middle"><tspan x="0" y="0">PDGFRA</tspan></text></a><a  class="GeneProduct PDGFRB " transform="translate(8 48)"   name="PDGFRB"  ><rect class="Icon" transform="matrix(.98148 0 0 .95238 .49074 .47619)" width="53" height="20" fill="#fff" stroke="#000"/><text class="Text" transform="translate(26.5,13)"   font-size="10px"  text-anchor="middle"><tspan x="0" y="0">PDGFRB</tspan></text></a><a  class="GeneProduct CSF1R " transform="translate(8 68)"   name="CSF1R"  ><rect class="Icon" transform="matrix(.98148 0 0 .95238 .49074 .47619)" width="53" height="20" fill="#fff" stroke="#000"/><text class="Text" transform="translate(26.5,13)"   font-size="10px"  text-anchor="middle"><tspan x="0" y="0">CSF1R</tspan></text></a></g><a  class="GeneProduct CDKN1B " transform="translate(638.82 410.07)"   name="CDKN1B"  ><rect class="Icon" transform="matrix(.98148 0 0 .95238 .49074 .47619)" width="53" height="20" fill="#fff" stroke="#000"/><text class="Text" transform="translate(26.5,13)"   font-size="10px"  text-anchor="middle"><tspan x="0" y="0">CDKN1B</tspan></text></a><a class="WikiPathways_WP45 Pathway " transform="translate(141.77 305.12)" color="#14961e"  name="G1/S Cell Cycle Transition"  ><use class="Icon" width="192" height="20" fill="transparent"  stroke="#14961e" stroke-width="0" xlink:href="#b"/><text class="Text" transform="translate(96,14)" fill="#14961e"  font-size="12px" font-weight="bold" stroke="black" stroke-width="0" text-anchor="middle"><tspan x="0" y="0">G1/S Cell Cycle Transition</tspan></text></a><a  class="GeneProduct SKP2 " transform="translate(182.11 438.98)"   name="SKP2"  ><rect class="Icon" transform="matrix(.98148 0 0 .95238 .49074 .47619)" width="53" height="20" fill="#fff" stroke="#000"/><text class="Text" transform="translate(26.5,13)"   font-size="10px"  text-anchor="middle"><tspan x="0" y="0">SKP2</tspan></text></a><a  class="GeneProduct GADD45A " transform="translate(697.12 371.93)"   name="GADD45A"  ><rect class="Icon" transform="matrix(.98184 0 0 .95238 .49092 .47619)" width="54.061" height="20" fill="#fff" stroke="#000"/><text class="Text" transform="translate(27.031 13)"   font-size="10px"  text-anchor="middle"><tspan x="0" y="0">GADD45A</tspan></text></a><a  class="GeneProduct FOXO3 " transform="translate(696.59 557.67)"   name="FOXO3"  ><rect class="Icon" transform="matrix(.98184 0 0 .95238 .49092 .47619)" width="54.061" height="20" fill="#fff" stroke="#000"/><text class="Text" transform="translate(27.031 13)"   font-size="10px"  text-anchor="middle"><tspan x="0" y="0">FOXO3</tspan></text></a><a  class="GeneProduct NOP2 " transform="translate(274.38 620.38)"   name="NOP2"  ><rect class="Icon" transform="matrix(.98148 0 0 .95238 .49074 .47619)" width="53" height="20" fill="#fff" stroke="#000"/><text class="Text" transform="translate(26.5,13)"   font-size="10px"  text-anchor="middle"><tspan x="0" y="0">NOP2</tspan></text></a><g class="Label" transform="translate(156.37 696.87)" color="#000"  name="Transport"><use class="Icon" width="80" height="20" fill="transparent"  stroke="#000" stroke-width="0" xlink:href="#b"/><text class="Text" transform="translate(40,13)"   font-size="10px"  text-anchor="middle"><tspan x="0" y="0">Transport</tspan></text></g><a  class="GeneProduct SPRED2 " transform="translate(720.74 305.32)"   name="SPRED2"  ><rect class="Icon" transform="matrix(.98148 0 0 .95238 .49074 .47619)" width="53" height="20" fill="#fff" stroke="#000"/><text class="Text" transform="translate(26.5,13)"   font-size="10px"  text-anchor="middle"><tspan x="0" y="0">SPRED2</tspan></text></a><a  class="GeneProduct LYL1 " transform="translate(662.42 305.45)"   name="LYL1"  ><rect class="Icon" transform="matrix(.98148 0 0 .95238 .49074 .47619)" width="53" height="20" fill="#fff" stroke="#000"/><text class="Text" transform="translate(26.5,13)"   font-size="10px"  text-anchor="middle"><tspan x="0" y="0">LYL1</tspan></text></a><g id="af" class="DirectedInteraction" color="#000" ><g color="#000" fill="transparent"  filter="url(#a)" stroke="#000" stroke-dasharray="20.770031939918898, 5.8"><path class="EdgeBody" d="m688.92 305.45 0.21088-26.569"   marker-end="url(#c)" /></g></g><g id="ag" class="Inhibition" color="#000" ><g color="#000" fill="transparent"  filter="url(#a)" stroke="#000" stroke-dasharray="140.71545588009576, 7"><path class="EdgeBody" d="m662.42 315.45h-112.57v-35.141"   marker-end="url(#d)" /></g></g><g class="GroupGroup" transform="translate(253.2 457.68)" color="grey" ><use class="Icon" width="124.12244260138135" height="36.00000000000006" fill="transparent"  stroke="grey" stroke-dasharray="5,3" stroke-width="0" xlink:href="#b"/><a  class="GeneProduct PIM1 " transform="translate(8,8)"   name="PIM1"  ><rect class="Icon" transform="matrix(.98184 0 0 .95238 .49092 .47619)" width="54.061" height="20" fill="#fff" stroke="#000"/><text class="Text" transform="translate(27.031 13)"   font-size="10px"  text-anchor="middle"><tspan x="0" y="0">PIM1</tspan></text></a><a  class="GeneProduct PIM2 " transform="translate(62.061 8)"   name="PIM2"  ><rect class="Icon" transform="matrix(.98184 0 0 .95238 .49092 .47619)" width="54.061" height="20" fill="#fff" stroke="#000"/><text class="Text" transform="translate(27.031 13)"   font-size="10px"  text-anchor="middle"><tspan x="0" y="0">PIM2</tspan></text></a></g><g class="GroupGroup" transform="translate(476.57 57.412)" color="grey" ><use class="Icon" width="61.39746147766823" height="60.07222802371906" fill="transparent"  stroke="grey" stroke-dasharray="5,3" stroke-width="0" xlink:href="#b"/><g class="SingleFreeNode Shape" transform="translate(8,8)" color="#cc99ff" ><use class="Icon" transform="matrix(.97845 0 0 .97781 .48922 .48891)" width="45.39746147766822" height="44.07222802371906" fill="#cc99ff" stroke="#cc99ff" xlink:href="#e"/></g><g class="SingleFreeNode Shape" transform="translate(33.127 20.257) rotate(-30 8.7426 7.1083)" color="#6600cc" ><use class="Icon" transform="matrix(.9459 0 0 .93428 .47295 .46714)" width="17.485243084558622" height="14.216525445520963" fill="#6600cc" stroke="#6600cc" xlink:href="#e"/></g><g class="SingleFreeNode Shape" transform="translate(13.024 25.101) rotate(-5.5425 15.804 7.2783)" color="#6600cc" ><use class="Icon" transform="matrix(.96933 0 0 .93572 .48467 .46786)" width="31.608138869296507" height="14.556603587573797" fill="#6600cc" stroke="#6600cc" xlink:href="#e"/></g></g><g class="Label" transform="translate(408.3 79.067)" color="#000"  name="Monocyte"><use class="Icon" width="83.15122611477268" height="23.820335636722177" fill="transparent"  stroke="#000" stroke-width="0" xlink:href="#b"/><text class="Text" transform="translate(41.576 15.91)"   font-size="12px" font-weight="bold"  text-anchor="middle"><tspan x="0" y="0">Monocyte</tspan></text></g><g id="ah" class="Edge GraphicalLine DirectedInteraction" color="#000" ><g color="#000" fill="transparent"  filter="url(#a)" stroke="#000" stroke-dasharray="182.28144087406923, 5.8"><path class="EdgeBody" d="m425.77 224.06h81.504v-106.58"   marker-end="url(#c)" /></g></g><a class="WikiPathways_WP2849 Pathway " transform="translate(414.85 260.31)" color="#14961e"  name="Monocyte Differentiation"  ><use class="Icon" width="180" height="20" fill="transparent"  stroke="#14961e" stroke-width="0" xlink:href="#b"/><text class="Text" transform="translate(90,14)" fill="#14961e"  font-size="12px" font-weight="bold" stroke="black" stroke-width="0" text-anchor="middle"><tspan x="0" y="0">Monocyte Differentiation</tspan></text></a><a  class="GeneProduct CSF1R " transform="translate(433.97 349.47)"   name="CSF1R"  ><rect class="Icon" transform="matrix(.98148 0 0 .95238 .49074 .47619)" width="53" height="20" fill="#fff" stroke="#000"/><text class="Text" transform="translate(26.5,13)"   font-size="10px"  text-anchor="middle"><tspan x="0" y="0">CSF1R</tspan></text></a><a  class="GeneProduct GAB2 " transform="translate(433.44 305.12)"   name="GAB2"  ><rect class="Icon" transform="matrix(.98184 0 0 .95238 .49092 .47619)" width="54.061" height="20" fill="#fff" stroke="#000"/><text class="Text" transform="translate(27.031 13)"   font-size="10px"  text-anchor="middle"><tspan x="0" y="0">GAB2</tspan></text></a><a  class="GeneProduct FLT1 " transform="translate(491.54 328.93)"   name="FLT1"  ><rect class="Icon" transform="matrix(.98184 0 0 .95238 .49092 .47619)" width="54.061" height="20" fill="#fff" stroke="#000"/><text class="Text" transform="translate(27.031 13)"   font-size="10px"  text-anchor="middle"><tspan x="0" y="0">FLT1</tspan></text></a><text class="Text" transform="translate(5,27)" dominant-baseline="central" fill="black"  font-size="12px" font-weight="bold" overflow="visible" ><tspan x="0" y="-9">Name: Imatinib and chronic myeloid leukemia</tspan> <tspan x="0" y="9">Organism: Homo sapiens</tspan></text></g></svg>
