<?xml version="1.0" encoding="UTF-8"?>
<!--
  WikiPathways page: https://www.wikipathways.org/index.php/Pathway:WP3851
  URL for this compressed file: https://github.com/eweitz/cachome/tree/main/data/wikipathways/WP3851.svg
  Source code for compression: https://github.com/eweitz/cachome/tree/main/src/wikipathways.py
-->
<svg class="Diagram" width="800" height="600" color="black" baseProfile="full" prefix="schema:http://schema.org/" preserveAspectRatio="xMidYMid" version="1.1" viewBox="0 0 1139 746" vocab="http://vocabularies.wikipathways.org/wp#" xmlns="http://www.w3.org/2000/svg" xmlns:xlink="http://www.w3.org/1999/xlink"><style>svg {font-family: 'Liberation Sans', Arial, sans-serif; }</style><defs><filter id="g" x="-50%" y="-50%" width="200%" height="200%"><feComposite in="SourceGraphic" in2="SourceGraphic" result="doubleDark"/><feMorphology in="doubleDark" operator="dilate" radius="0.16666666666666666" result="in2Double"/><feMorphology in="SourceGraphic" operator="dilate" radius="3" result="inDouble"/><feComposite in="inDouble" in2="in2Double" operator="out" result="doubleResult"/></filter><filter id="b" x="0" y="0" width="1139" height="746" filterUnits="userSpaceOnUse"><feColorMatrix in="SourceGraphic" values="-1   0   0 0 0                   0  -1   0 0 0                   0   0  -1 0 0                   0   0   0 1 0"/></filter><filter id="d" x="0" y="0" width="1139" height="746" filterUnits="userSpaceOnUse"><feColorMatrix in="SourceGraphic" values="-1   0   0 0 1                   0  -1   0 0 0                   0   0  -1 0 0                   0   0   0 1 0"/></filter><marker id="a" stroke-dasharray="99999" markerHeight="12" markerUnits="userSpaceOnUse" markerWidth="12" orient="auto" preserveAspectRatio="none" refX="12" refY="6" viewBox="0 0 12 12"><path transform="rotate(180 6 6)" d="M12 11L0 6l12-5z" fill="currentColor" stroke-width="0"/></marker><marker id="h" stroke-dasharray="99999" markerHeight="20" markerUnits="userSpaceOnUse" markerWidth="10" orient="auto" preserveAspectRatio="none" refX="10" refY="10" viewBox="0 0 10 20"><path d="m3 0v20" fill="currentColor" stroke="currentColor"/></marker><marker id="f" stroke-dasharray="99999" markerHeight="24" markerUnits="userSpaceOnUse" markerWidth="20" orient="auto" preserveAspectRatio="none" refX="20" refY="12" viewBox="0 0 20 24"><g transform="rotate(180 10 12)" fill="none" stroke="#000"><path d="M15 12V5M15.5 5H8M0 5l8-4v8z"/></g></marker><symbol id="i" overflow="visible" preserveAspectRatio="none" viewBox="0 0 50 50"><ellipse cx="25" cy="25" rx="25" ry="25" stroke="currentColor" vector-effect="non-scaling-stroke"/></symbol><symbol id="e" overflow="visible" preserveAspectRatio="none" viewBox="0 0 100 100"><path d="M0 25L25 0h50l25 25v50l-25 25H25L0 75z" stroke="currentColor" vector-effect="non-scaling-stroke"/></symbol><symbol id="c" preserveAspectRatio="none" viewBox="0 0 100 100"/></defs><g class="Viewport" color="black"  name="Name: TLR4 signaling and tolerance Organism: Homo sapiens"><rect class="Icon" width="1139" height="746" fill="#fff" stroke="#000" stroke-width="0"/><g id="j" class="DirectedInteraction" color="#000" ><g color="#000" fill="transparent"  filter="url(#b)" stroke="#000" stroke-dasharray="82.2, 5.8"><path class="EdgeBody" d="m311 519v88"   marker-end="url(#a)" /></g></g><g id="k" class="Edge GraphicalLine DirectedInteraction" color="#f00" ><g color="#f00" fill="transparent"  filter="url(#d)" stroke="#000" stroke-dasharray="89.2, 5.8"><path class="EdgeBody" d="m736 40h95"   marker-end="url(#a)" /></g></g><g id="l" class="DirectedInteraction" color="#000" ><g color="#000" fill="transparent"  filter="url(#b)" stroke="#000" stroke-dasharray="108.53722053644648, 5.8"><path class="EdgeBody" d="m692 236-73 88"   marker-end="url(#a)" /></g></g><g id="m" class="DirectedInteraction" color="#f00" ><g color="#f00" fill="transparent"  filter="url(#d)" stroke="#000" stroke-dasharray="136.2, 5.8"><path class="EdgeBody" d="m692 461v142"   marker-end="url(#a)" /></g></g><g id="n" class="DirectedInteraction" color="#000" ><g color="#000" fill="transparent"  filter="url(#b)" stroke="#000" stroke-dasharray="108.26138698087097, 5.8"><path class="EdgeBody" d="m672 226-101 53"   marker-end="url(#a)" /></g></g><g id="o" class="DirectedInteraction" color="#000" ><g color="#000" fill="transparent"  filter="url(#b)" stroke="#000" stroke-dasharray="36.92001872658766, 5.8"><path class="EdgeBody" d="m296 427 15 40"   marker-end="url(#a)" /></g></g><g id="p" class="DirectedInteraction" color="#000" ><g color="#000" fill="transparent"  filter="url(#b)" stroke="#000" stroke-dasharray="158.39706004515443, 5.8"><path class="EdgeBody" d="m426 501.5v20.833c0 20.833 0 62.5-10.167 83.333-10.167 20.833-30.5 20.833-40.667 20.833l-10.167 1e-13"   marker-end="url(#a)" /></g></g><g id="q" class="DirectedInteraction" color="#000" ><g color="#000" fill="transparent"  filter="url(#b)" stroke="#000" stroke-dasharray="64.41395872616783, 5.8"><path class="EdgeBody" d="m434 238 57 41"   marker-end="url(#a)" /></g></g><g id="r" class="DirectedInteraction" color="#f00" ><g color="#f00" fill="transparent"  filter="url(#d)" stroke="#000" stroke-dasharray="50.6003546088143, 5.8"><path class="EdgeBody" d="m712 236 45 34"   marker-end="url(#a)" /></g></g><g id="s" class="DirectedInteraction" color="#f00" ><g color="#f00" fill="transparent"  filter="url(#d)" stroke="#000" stroke-dasharray="103.60292500660117, 5.8"><path class="EdgeBody" d="m757 353-65 88"   marker-end="url(#a)" /></g></g><g id="t" class="Interaction" color="#f00" ><g color="#f00" fill="transparent"  filter="url(#d)" stroke="#000" stroke-dasharray="226, 7"><path class="EdgeBody" d="m145 286v-48h185"   marker-end="url(#h)" /></g></g><g id="u" class="Interaction" color="#f00" ><g color="#f00" fill="transparent"  filter="url(#d)" stroke="#000" stroke-dasharray="270.2508888874842, 11"><path class="EdgeBody" d="M259.25,599L145,342"   marker-end="url(#f)" /></g></g><g id="v" class="DirectedInteraction" color="#f00" ><g color="#f00" fill="transparent"  filter="url(#d)" stroke="#000" stroke-dasharray="119.00785231707178, 5.8"><path class="EdgeBody" d="m608 147 104 69"   marker-end="url(#a)" /></g></g><g id="w" class="DirectedInteraction" color="#000" ><g color="#000" fill="transparent"  filter="url(#b)" stroke="#000" stroke-dasharray="131.25838172107532, 5.8"><path class="EdgeBody" d="m510 147-128 49"   marker-end="url(#a)" /></g></g><g class="GroupGroup" transform="translate(624,595)" color="grey" ><use class="Icon" width="157.5" height="55" fill="transparent"  stroke="grey" stroke-dasharray="5,3" stroke-width="0" xlink:href="#c"/><g id="x" class="Edge GraphicalLine" color="#000" ><g color="#000" fill="transparent"  filter="url(#b)" stroke="#000" stroke-dasharray="80, 0" stroke-width="2"><path class="EdgeBody" d="m52 33h80"   /></g></g><g class="Label" transform="translate(8,27)" color="#000"  name="DNA"><use class="Icon" width="48" height="20" fill="transparent"  stroke="#000" stroke-width="0" xlink:href="#c"/><text class="Text" transform="translate(24,14)"   font-size="12px" font-weight="bold"  text-anchor="middle"><tspan x="0" y="0">DNA</tspan></text></g><a  class="GeneProduct IRF3 " transform="translate(44,8)"   name="IRF3"  ><rect class="Icon" transform="matrix(.97959 0 0 .95238 .4898 .47619)" width="48" height="20" fill="#fff" stroke="#000"/><text class="Text" transform="translate(24,13)"   font-size="10px"  text-anchor="middle"><tspan x="0" y="0">IRF3</tspan></text></a><g id="y" class="Edge GraphicalLine" color="#000" ><g color="#000" fill="transparent"  filter="url(#b)" stroke="#000" stroke-dasharray="80, 0" stroke-width="2"><path class="EdgeBody" d="m53 42h80"   /></g></g><a  class="GeneProduct IRF7 " transform="translate(100.5,8)"   name="IRF7"  ><rect class="Icon" transform="matrix(.98 0 0 .95238 .49 .47619)" width="49" height="20" fill="#fff" stroke="#000"/><text class="Text" transform="translate(24.5,13)"   font-size="10px"  text-anchor="middle"><tspan x="0" y="0">IRF7</tspan></text></a></g><g id="z" class="Interaction" color="#f00" ><g color="#f00" fill="transparent"  filter="url(#d)" stroke="#000" stroke-dasharray="117.95687522121139, 11"><path class="EdgeBody" d="m781.5 622.5 128.96-0.14815"   marker-end="url(#f)" /></g></g><g id="aa" class="Interaction" color="#000" ><g color="#000" fill="transparent"  filter="url(#b)" stroke="#000" stroke-dasharray="141, 11"><path class="EdgeBody" d="m224 626.5h-20v-78.5h-53.5"   marker-end="url(#f)" /></g></g><g id="ab" class="DirectedInteraction" color="#000" ><g color="#000" fill="transparent"  filter="url(#b)" stroke="#000" stroke-dasharray="28.258772731852805, 5.8"><path class="EdgeBody" d="m374 342-26 22"   marker-end="url(#a)" /></g></g><g id="ac" class="DirectedInteraction" color="#000" ><g color="#000" fill="transparent"  filter="url(#b)" stroke="#000" stroke-dasharray="86.7, 5.8"><path class="EdgeBody" d="m426 384v92.5"   marker-end="url(#a)" /></g></g><g id="ad" class="DirectedInteraction" color="#000" ><g color="#000" fill="transparent"  filter="url(#b)" stroke="#000" stroke-dasharray="40.16737973824482, 5.8"><path class="EdgeBody" d="m511 289-33 32"   marker-end="url(#a)" /></g></g><g class="SingleFreeNode Shape PhysicalEntity CellularComponent Nucleus" transform="translate(132.5,548.5)" color="#c0c0c0" ><g fill="transparent"  filter="url(#g)" stroke="#c0c0c0" stroke-width="3"><use class="Icon" transform="matrix(.98415 0 0 .92683 5.9049 5.561)" width="745" height="152"    xlink:href="#i"/></g></g><g class="SingleFreeNode Shape PhysicalEntity CellularComponent Cell" transform="translate(50.5,86.5)" color="#c0c0c0" ><g fill="transparent"  filter="url(#g)" stroke="#c0c0c0" stroke-width="3"><rect class="Icon" transform="matrix(.98726 0 0 .98134 5.9236 5.888)" width="930" height="631" rx="15" ry="15"   /></g></g><g class="SingleFreeNode Shape" transform="translate(730,2)" color="#000" ><rect class="Icon" transform="matrix(.99737 0 0 .98413 .49868 .49206)" width="379" height="62" fill="transparent"  stroke="#000"/></g><g class="Label" transform="translate(452,555)" color="#000"  name="Nucleus"><use class="Icon" width="80" height="20" fill="transparent"  stroke="#000" stroke-width="0" xlink:href="#c"/><text class="Text" transform="translate(40,14)"   font-size="12px" font-weight="bold"  text-anchor="middle"><tspan x="0" y="0">Nucleus</tspan></text></g><g class="Label" transform="translate(846,29)" color="#000"  name="Enhanced signaling upon subsequent TLR4 activation"><use class="Icon" width="252" height="20" fill="transparent"  stroke="#000" stroke-width="0" xlink:href="#c"/><text class="Text" transform="translate(126,13)"   font-size="10px" font-weight="bold"  text-anchor="middle"><tspan x="0" y="0">Enhanced signaling upon subsequent TLR4 activation</tspan></text></g><g class="Label" transform="translate(278,652)" color="#000"  name="MyD88 Dependent"><use class="Icon" width="126" height="20" fill="transparent"  stroke="#000" stroke-width="0" xlink:href="#c"/><text class="Text" transform="translate(63,14)"   font-size="12px" font-weight="bold"  text-anchor="middle"><tspan x="0" y="0">MyD88 Dependent</tspan></text></g><g class="Label" transform="translate(603,653)" color="#000"  name="MyD88 independent"><use class="Icon" width="136" height="20" fill="transparent"  stroke="#000" stroke-width="0" xlink:href="#c"/><text class="Text" transform="translate(68,14)"   font-size="12px" font-weight="bold"  text-anchor="middle"><tspan x="0" y="0">MyD88 independent</tspan></text></g><g class="Label" transform="translate(381,476.5)" color="#000"  name="MAP Kinases"><use class="Icon" width="90" height="25" fill="transparent"  stroke="#000" stroke-width="0" xlink:href="#c"/><text class="Text" transform="translate(45,16.5)"   font-size="12px" font-weight="bold"  text-anchor="middle"><tspan x="0" y="0">MAP Kinases</tspan></text></g><a  class="GeneProduct IRF3 " transform="translate(667.5,441)"   name="IRF3"  ><rect class="Icon" transform="matrix(.98 0 0 .95238 .49 .47619)" width="49" height="20" fill="#fff" stroke="#000"/><text class="Text" transform="translate(24.5,13)"   font-size="10px"  text-anchor="middle"><tspan x="0" y="0">IRF3</tspan></text></a><a  class="GeneProduct TRAF6 " transform="translate(491,269)"   name="TRAF6"  ><rect class="Icon" transform="matrix(.98765 0 0 .95238 .49383 .47619)" width="80" height="20" fill="#fff" stroke="#000"/><text class="Text" transform="translate(40,13)"   font-size="10px"  text-anchor="middle"><tspan x="0" y="0">TRAF6</tspan></text></a><g class="Uniprot-TrEMBL_Q8IUC6 GeneProduct TICAM1 " transform="translate(672,216)" color="#000"  name="TRIF"><rect class="Icon" transform="matrix(.98765 0 0 .95238 .49383 .47619)" width="80" height="20" fill="#fff" stroke="#000"/><text class="Text" transform="translate(40,13)"   font-size="10px"  text-anchor="middle"><tspan x="0" y="0">TRIF</tspan></text></g><g class="Uniprot-TrEMBL_Q13546 GeneProduct RIPK1 " transform="translate(539,314)" color="#000"  name="RIP1"><rect class="Icon" transform="matrix(.98765 0 0 .95238 .49383 .47619)" width="80" height="20" fill="#fff" stroke="#000"/><text class="Text" transform="translate(40,13)"   font-size="10px"  text-anchor="middle"><tspan x="0" y="0">RIP1</tspan></text></g><a  class="GeneProduct IFNB1 " transform="translate(910.46 612.85)"   name="IFNB"  ><rect class="Icon" transform="matrix(.98 0 0 .95 .49 .475)" width="49" height="19" fill="#fff" stroke="#000"/><text class="Text" transform="translate(24.5,12.5)"   font-size="10px"  text-anchor="middle"><tspan x="0" y="0">IFNB</tspan></text></a><g class="GroupComplex" transform="translate(244,343)" color="grey" ><use class="Icon" transform="matrix(.99048 0 0 .98824 .49524 .49412)" width="104" height="84" fill="#b4b464" fill-opacity=".1" stroke="grey" xlink:href="#e"/><a  class="Uniprot-TrEMBL_O15111 GeneProduct CHUK " transform="translate(12,32)"   name="IKKa"  ><rect class="Icon" transform="matrix(.98765 0 0 .95238 .49383 .47619)" width="80" height="20" fill="#fff" stroke="#000"/><text class="Text" transform="translate(40,13)"   font-size="10px"  text-anchor="middle"><tspan x="0" y="0">IKKa</tspan></text></a><a  class="Uniprot-TrEMBL_O14920 GeneProduct IKBKB " transform="translate(12,52)"   name="IKKb"  ><rect class="Icon" transform="matrix(.98765 0 0 .95238 .49383 .47619)" width="80" height="20" fill="#fff" stroke="#000"/><text class="Text" transform="translate(40,13)"   font-size="10px"  text-anchor="middle"><tspan x="0" y="0">IKKb</tspan></text></a><g class="Uniprot-TrEMBL_Q9Y6K9 GeneProduct IKBKG " transform="translate(12,12)" color="#000"  name="NEMO"><rect class="Icon" transform="matrix(.98765 0 0 .95238 .49383 .47619)" width="80" height="20" fill="#fff" stroke="#000"/><text class="Text" transform="translate(40,13)"   font-size="10px"  text-anchor="middle"><tspan x="0" y="0">NEMO</tspan></text></g></g><g class="GroupComplex" transform="translate(259,467)" color="grey" ><use class="Icon" transform="matrix(.99048 0 0 .98462 .49524 .49231)" width="104" height="64" fill="#b4b464" fill-opacity=".1" stroke="grey" xlink:href="#e"/><a  class="GeneProduct NFKB1 " transform="translate(12,32)"   name="NFKB"  ><rect class="Icon" transform="matrix(.98765 0 0 .95238 .49383 .47619)" width="80" height="20" fill="#fff" stroke="#000"/><text class="Text" transform="translate(40,13)"   font-size="10px"  text-anchor="middle"><tspan x="0" y="0">NFKB</tspan></text></a><g class="Uniprot-TrEMBL_P25963 GeneProduct NFKBIA " transform="translate(12,12)" color="#000"  name="IkBa"><rect class="Icon" transform="matrix(.98765 0 0 .95238 .49383 .47619)" width="80" height="20" fill="#fff" stroke="#000"/><text class="Text" transform="translate(40,13)"   font-size="10px"  text-anchor="middle"><tspan x="0" y="0">IkBa</tspan></text></g></g><g class="GroupComplex" transform="translate(330,196)" color="grey" ><use class="Icon" transform="matrix(.99048 0 0 .98824 .49524 .49412)" width="104" height="84" fill="#b4b464" fill-opacity=".1" stroke="grey" xlink:href="#e"/><a  class="GeneProduct IRAK1 " transform="translate(12,32)"   name="IRAK1"  ><rect class="Icon" transform="matrix(.98765 0 0 .95238 .49383 .47619)" width="80" height="20" fill="#fff" stroke="#000"/><text class="Text" transform="translate(40,13)"   font-size="10px"  text-anchor="middle"><tspan x="0" y="0">IRAK1</tspan></text></a><a  class="GeneProduct MYD88 " transform="translate(12,12)"   name="MYD88"  ><rect class="Icon" transform="matrix(.98765 0 0 .95238 .49383 .47619)" width="80" height="20" fill="#fff" stroke="#000"/><text class="Text" transform="translate(40,13)"   font-size="10px"  text-anchor="middle"><tspan x="0" y="0">MYD88</tspan></text></a><a  class="GeneProduct IRAK4 " transform="translate(12,52)"   name="IRAK4"  ><rect class="Icon" transform="matrix(.98765 0 0 .95238 .49383 .47619)" width="80" height="20" fill="#fff" stroke="#000"/><text class="Text" transform="translate(40,13)"   font-size="10px"  text-anchor="middle"><tspan x="0" y="0">IRAK4</tspan></text></a></g><g class="GroupComplex" transform="translate(665,270)" color="grey" ><use class="Icon" transform="matrix(.99459 0 0 .9881 .4973 .49405)" width="184" height="83" fill="#b4b464" fill-opacity=".1" stroke="grey" xlink:href="#e"/><g class="Uniprot-TrEMBL_Q14164 GeneProduct IKBKE " transform="translate(12,32)" color="#000"  name="Ikki"><rect class="Icon" transform="matrix(.98765 0 0 .95238 .49383 .47619)" width="80" height="20" fill="#fff" stroke="#000"/><text class="Text" transform="translate(40,13)"   font-size="10px"  text-anchor="middle"><tspan x="0" y="0">Ikki</tspan></text></g><a  class="GeneProduct TRAF3 " transform="translate(52,51)"   name="TRAF3"  ><rect class="Icon" transform="matrix(.98765 0 0 .95238 .49383 .47619)" width="80" height="20" fill="#fff" stroke="#000"/><text class="Text" transform="translate(40,13)"   font-size="10px"  text-anchor="middle"><tspan x="0" y="0">TRAF3</tspan></text></a><a  class="GeneProduct TBK1 " transform="translate(92,32)"   name="TBK1"  ><rect class="Icon" transform="matrix(.98765 0 0 .95238 .49383 .47619)" width="80" height="20" fill="#fff" stroke="#000"/><text class="Text" transform="translate(40,13)"   font-size="10px"  text-anchor="middle"><tspan x="0" y="0">TBK1</tspan></text></a><g class="Uniprot-TrEMBL_P10145 GeneProduct CXCL8 " transform="translate(51,12)" color="#000"  name="NAP1"><rect class="Icon" transform="matrix(.98765 0 0 .95238 .49383 .47619)" width="80" height="20" fill="#fff" stroke="#000"/><text class="Text" transform="translate(40,13)"   font-size="10px"  text-anchor="middle"><tspan x="0" y="0">NAP1</tspan></text></g></g><g class="GroupGroup" transform="translate(97,286)" color="grey" ><use class="Icon" width="96" height="56" fill="transparent"  stroke="grey" stroke-dasharray="5,3" stroke-width="0" xlink:href="#c"/><g class="Uniprot-TrEMBL_Q9Y616 GeneProduct IRAK3 " transform="translate(8,28)" color="#000"  name="IRAK-M"><rect class="Icon" transform="matrix(.98765 0 0 .95238 .49383 .47619)" width="80" height="20" fill="#fff" stroke="#000"/><text class="Text" transform="translate(40,13)"   font-size="10px"  text-anchor="middle"><tspan x="0" y="0">IRAK-M</tspan></text></g><g class="Uniprot-TrEMBL_Q92835 GeneProduct INPP5D " transform="translate(8,8)" color="#000"  name="SHIP1"><rect class="Icon" transform="matrix(.98765 0 0 .95238 .49383 .47619)" width="80" height="20" fill="#fff" stroke="#000"/><text class="Text" transform="translate(40,13)"   font-size="10px"  text-anchor="middle"><tspan x="0" y="0">SHIP1</tspan></text></g></g><g class="GroupComplex" transform="translate(461,62)" color="grey" ><use class="Icon" transform="matrix(.99492 0 0 .98837 .49746 .49419)" width="196" height="85" fill="#b4b464" fill-opacity=".1" stroke="grey" xlink:href="#e"/><a  class="GeneProduct TIRAP " transform="translate(12,33)"   name="TIRAP"  ><rect class="Icon" transform="matrix(.98765 0 0 .95238 .49383 .47619)" width="80" height="20" fill="#fff" stroke="#000"/><text class="Text" transform="translate(40,13)"   font-size="10px"  text-anchor="middle"><tspan x="0" y="0">TIRAP</tspan></text></a><g class="Uniprot-TrEMBL_P58753 GeneProduct TIRAP " transform="translate(12,53)" color="#000"  name="MAL"><rect class="Icon" transform="matrix(.98765 0 0 .95238 .49383 .47619)" width="80" height="20" fill="#fff" stroke="#000"/><text class="Text" transform="translate(40,13)"   font-size="10px"  text-anchor="middle"><tspan x="0" y="0">MAL</tspan></text></g><a  class="GeneProduct TRAM1 " transform="translate(104,33)"   name="TRAM"  ><rect class="Icon" transform="matrix(.98765 0 0 .95238 .49383 .47619)" width="80" height="20" fill="#fff" stroke="#000"/><text class="Text" transform="translate(40,13)"   font-size="10px"  text-anchor="middle"><tspan x="0" y="0">TRAM</tspan></text></a><a  class="GeneProduct TLR4 " transform="translate(55,12)"   name="TLR4"  ><rect class="Icon" transform="matrix(.98765 0 0 .95238 .49383 .47619)" width="80" height="20" fill="#fff" stroke="#000"/><text class="Text" transform="translate(40,13)"   font-size="10px"  text-anchor="middle"><tspan x="0" y="0">TLR4</tspan></text></a></g><g class="GroupGroup" transform="translate(87,520)" color="grey" ><use class="Icon" width="63.5" height="56" fill="transparent"  stroke="grey" stroke-dasharray="5,3" stroke-width="0" xlink:href="#c"/><g class="Uniprot-TrEMBL_P01375 GeneProduct TNF " transform="translate(8,8)" color="#000"  name="TNFa"><rect class="Icon" transform="matrix(.97917 0 0 .95238 .48958 .47619)" width="47" height="20" fill="#fff" stroke="#000"/><text class="Text" transform="translate(23.5,13)"   font-size="10px"  text-anchor="middle"><tspan x="0" y="0">TNFa</tspan></text></g><a  class="GeneProduct IL6 " transform="translate(8.5,28)"   name="IL6"  ><rect class="Icon" transform="matrix(.97917 0 0 .95238 .48958 .47619)" width="47" height="20" fill="#fff" stroke="#000"/><text class="Text" transform="translate(23.5,13)"   font-size="10px"  text-anchor="middle"><tspan x="0" y="0">IL6</tspan></text></a></g><g class="GroupComplex" transform="translate(374,300)" color="grey" ><use class="Icon" transform="matrix(.99048 0 0 .98824 .49524 .49412)" width="104" height="84" fill="#b4b464" fill-opacity=".1" stroke="grey" xlink:href="#e"/><a  class="Uniprot-TrEMBL_O43318 GeneProduct MAP3K7 " transform="translate(12,12)"   name="TAK1"  ><rect class="Icon" transform="matrix(.98765 0 0 .95238 .49383 .47619)" width="80" height="20" fill="#fff" stroke="#000"/><text class="Text" transform="translate(40,13)"   font-size="10px"  text-anchor="middle"><tspan x="0" y="0">TAK1</tspan></text></a><a  class="GeneProduct TAB2 " transform="translate(12,52)"   name="TAB2"  ><rect class="Icon" transform="matrix(.98765 0 0 .95238 .49383 .47619)" width="80" height="20" fill="#fff" stroke="#000"/><text class="Text" transform="translate(40,13)"   font-size="10px"  text-anchor="middle"><tspan x="0" y="0">TAB2</tspan></text></a><a  class="GeneProduct TAB1 " transform="translate(12,32)"   name="TAB1"  ><rect class="Icon" transform="matrix(.98765 0 0 .95238 .49383 .47619)" width="80" height="20" fill="#fff" stroke="#000"/><text class="Text" transform="translate(40,13)"   font-size="10px"  text-anchor="middle"><tspan x="0" y="0">TAB1</tspan></text></a></g><g class="GroupGroup" transform="translate(224,599)" color="grey" ><use class="Icon" width="141" height="55" fill="transparent"  stroke="grey" stroke-dasharray="5,3" stroke-width="0" xlink:href="#c"/><a  class="GeneProduct NFKB1 " transform="translate(60,8)"   name="NFKB"  ><rect class="Icon" transform="matrix(.98182 0 0 .95238 .49091 .47619)" width="54" height="20" fill="#fff" stroke="#000"/><text class="Text" transform="translate(27,13)"   font-size="10px"  text-anchor="middle"><tspan x="0" y="0">NFKB</tspan></text></a><g id="ae" class="Edge GraphicalLine" color="#000" ><g color="#000" fill="transparent"  filter="url(#b)" stroke="#000" stroke-dasharray="80, 0" stroke-width="2"><path class="EdgeBody" d="m52 33h80"   /></g></g><g class="Label" transform="translate(8,27)" color="#000"  name="DNA"><use class="Icon" width="48" height="20" fill="transparent"  stroke="#000" stroke-width="0" xlink:href="#c"/><text class="Text" transform="translate(24,14)"   font-size="12px" font-weight="bold"  text-anchor="middle"><tspan x="0" y="0">DNA</tspan></text></g><g id="af" class="Edge GraphicalLine" color="#000" ><g color="#000" fill="transparent"  filter="url(#b)" stroke="#000" stroke-dasharray="80, 0" stroke-width="2"><path class="EdgeBody" d="m53 42h80"   /></g></g></g><g class="Label" transform="translate(725,4)" color="#000"  name="Legend"><use class="Icon" width="73" height="20" fill="transparent"  stroke="#000" stroke-width="0" xlink:href="#c"/><text class="Text" transform="translate(36.5,13)"   font-size="10px" font-weight="bold"  text-anchor="middle"><tspan x="0" y="0">Legend</tspan></text></g><a  class="GeneProduct IRF7 " transform="translate(724.5,440)"   name="IRF7"  ><rect class="Icon" transform="matrix(.98 0 0 .95238 .49 .47619)" width="49" height="20" fill="#fff" stroke="#000"/><text class="Text" transform="translate(24.5,13)"   font-size="10px"  text-anchor="middle"><tspan x="0" y="0">IRF7</tspan></text></a><g id="ag" class="DirectedInteraction" color="#000" ><g color="#000" fill="transparent"  filter="url(#b)" stroke="#000" stroke-dasharray="81.56704184073077, 5.8"><path class="EdgeBody" d="m757 353-8 87"   marker-end="url(#a)" /></g></g><g id="ah" class="DirectedInteraction" color="#000" ><g color="#000" fill="transparent"  filter="url(#b)" stroke="#000" stroke-dasharray="137.2, 5.8"><path class="EdgeBody" d="m749 460v143"   marker-end="url(#a)" /></g></g><text class="Text" transform="translate(5,27)" dominant-baseline="central" fill="black"  font-size="12px" font-weight="bold" overflow="visible" ><tspan x="0" y="-9">Name: TLR4 signaling and tolerance</tspan> <tspan x="0" y="9">Organism: Homo sapiens</tspan></text></g></svg>
