<?xml version="1.0" encoding="UTF-8"?>
<!--
  WikiPathways page: https://www.wikipathways.org/index.php/Pathway:WP384
  URL for this compressed file: https://github.com/eweitz/cachome/tree/main/data/wikipathways/WP384.svg
  Source code for compression: https://github.com/eweitz/cachome/tree/main/src/wikipathways.py
-->
<svg class="Diagram" width="800" height="600" color="black" baseProfile="full" prefix="schema:http://schema.org/" preserveAspectRatio="xMidYMid" version="1.1" viewBox="0 0 928.26 683.28" vocab="http://vocabularies.wikipathways.org/wp#" xmlns="http://www.w3.org/2000/svg" xmlns:xlink="http://www.w3.org/1999/xlink"><style>svg {font-family: 'Liberation Sans', Arial, sans-serif; }</style><defs><filter id="g" x="-50%" y="-50%" width="200%" height="200%"><feComposite in="SourceGraphic" in2="SourceGraphic" result="doubleDark"/><feMorphology in="doubleDark" operator="dilate" radius="0.16666666666666666" result="in2Double"/><feMorphology in="SourceGraphic" operator="dilate" radius="3" result="inDouble"/><feComposite in="inDouble" in2="in2Double" operator="out" result="doubleResult"/></filter><filter id="b" x="0" y="0" width="928.26" height="683.28" filterUnits="userSpaceOnUse"><feColorMatrix in="SourceGraphic" values="-1   0   0 0 0                   0  -1   0 0 0                   0   0  -1 0 0                   0   0   0 1 0"/></filter><filter id="d" x="0" y="0" width="928.26" height="683.28" filterUnits="userSpaceOnUse"><feColorMatrix in="SourceGraphic" values="-1   0   0 0 1                   0  -1   0 0 0                   0   0  -1 0 0                   0   0   0 1 0"/></filter><filter id="f" x="0" y="0" width="928.26" height="683.28" filterUnits="userSpaceOnUse"><feColorMatrix in="SourceGraphic" values="-1   0   0 0 0                   0  -1   0 0 0                   0   0  -1 0 1                   0   0   0 1 0"/></filter><marker id="a" stroke-dasharray="99999" markerHeight="12" markerUnits="userSpaceOnUse" markerWidth="12" orient="auto" preserveAspectRatio="none" refX="12" refY="6" viewBox="0 0 12 12"><path transform="rotate(180 6 6)" d="M12 11L0 6l12-5z" fill="currentColor" stroke-width="0"/></marker><marker id="e" stroke-dasharray="99999" markerHeight="20" markerUnits="userSpaceOnUse" markerWidth="10" orient="auto" preserveAspectRatio="none" refX="10" refY="10" viewBox="0 0 10 20"><path d="m3 0v20" fill="currentColor" stroke="currentColor"/></marker><symbol id="h" overflow="visible" preserveAspectRatio="none" viewBox="0 0 100 100"><ellipse cx="50" cy="50" rx="50" ry="50" stroke="currentColor"/><path d="M14.895 26.347c4.364-.741 3.827 17.037 8.183 16.184 8.273.03 2.982-28.149 9.9-28.337 6.967-.187 2.246 29.948 9.204 29.44 7.633-.56.508-32.935 8.137-33.623 7.698-.689 2.919 32.04 10.628 32.225 6.547.16 3.026-27.643 9.56-26.921 7.193.793.665 29.842 7.782 31.667 4.748 1.216 4.42-18.258 9.204-17.44 11.129 7.577 8.628 37.698-2.18 44.644-3.138.699-3.966-10.502-7.113-9.905-5.59 1.059-3.982 22.284-9.603 21.8-5.24-.457-2.226-21.637-7.47-21.73-6.962-.117-3.358 28.924-10.317 28.495-6.14-.376-1.73-24.95-7.825-26.192-5.682-1.157-5.378 22.17-11.027 20.68-6.25-1.644-.47-26.673-6.76-27.865-3.728-.706-2.647 14.4-6.403 14.545-14.016-5.939-15.749-39.708-3.9-47.667z" stroke="currentColor" vector-effect="non-scaling-stroke"/></symbol><symbol id="c" preserveAspectRatio="none" viewBox="0 0 100 100"/></defs><g class="Viewport" color="black"  name="Name: Apoptosis modulation by HSP70 License: CC BY 2.0 Organism: Homo sapiens"><rect class="Icon" width="928.26" height="683.28" fill="#fff" stroke="#000" stroke-width="0"/><g id="i" class="DirectedInteraction" color="#000" ><g color="#000" fill="transparent"  filter="url(#b)" stroke="#000" stroke-dasharray="96.89551137004749, 5.8"><path class="EdgeBody" d="m384.5 219.25-41.167 94.083"   marker-end="url(#a)" /></g></g><g id="j" class="DirectedInteraction" color="#000" ><g color="#000" fill="transparent"  filter="url(#b)" stroke="#000" stroke-dasharray="56.03473718082921, 5.8"><path class="EdgeBody" d="m476.67 112.67-0.41667 61.833"   marker-end="url(#a)" /></g></g><g id="k" class="DirectedInteraction" color="#f00" ><g color="#f00" fill="transparent"  filter="url(#d)" stroke="#000" stroke-dasharray="174.33372245269126, 5.8"><path class="EdgeBody" d="m431.33 603.33-180.13 1.4026"   marker-end="url(#a)" /></g></g><g id="l" class="DirectedInteraction" color="#000" ><g color="#000" fill="transparent"  filter="url(#b)" stroke="#000" stroke-dasharray="238.79467577536133, 5.8"><path class="EdgeBody" d="m166 347.67 25.205 243.29"   marker-end="url(#a)" /></g></g><g id="m" class="DirectedInteraction" color="#000" ><g color="#000" fill="transparent"  filter="url(#b)" stroke="#000" stroke-dasharray="41.48313997027144, 5.8"><path class="EdgeBody" d="m615.28 219.13-47.283 0.12137"   marker-end="url(#a)" /></g></g><g id="n" class="DirectedInteraction" color="#00f" ><g color="#00f" fill="transparent"  filter="url(#f)" stroke="#000" stroke-dasharray="280.156616902152, 5.8"><path class="EdgeBody" d="m504.33 593.83 262.32-113.83"   marker-end="url(#a)" /></g></g><g id="o" class="DirectedInteraction" color="#000" ><g color="#000" fill="transparent"  filter="url(#b)" stroke="#000" stroke-dasharray="64.20079364629453, 5.8"><path class="EdgeBody" d="m154 154.33 0.33333 70"   marker-end="url(#a)" /></g></g><g id="p" class="DirectedInteraction" color="#000" ><g color="#000" fill="transparent"  filter="url(#b)" stroke="#000" stroke-dasharray="28.53333333333337, 5.8"><path class="EdgeBody" d="m480 559v34.333"   marker-end="url(#a)" /></g></g><g id="q" class="Inhibition" color="#f00" ><g color="#f00" fill="transparent"  filter="url(#d)" stroke="#000" stroke-dasharray="81.15453602749108, 7"><path class="EdgeBody" d="m241.67 272 71.667 51.333"   marker-end="url(#e)" /></g></g><g id="r" class="DirectedInteraction" color="#000" ><g color="#000" fill="transparent"  filter="url(#b)" stroke="#000" stroke-dasharray="78.64142377411038, 5.8"><path class="EdgeBody" d="m796.66 490 0.051329 84.441"   marker-end="url(#a)" /></g></g><g id="s" class="DirectedInteraction" color="#000" ><g color="#000" fill="transparent"  filter="url(#b)" stroke="#000" stroke-dasharray="275.1694599450611, 5.8"><path class="EdgeBody" d="m343.33 333.33-112.13 257.63"   marker-end="url(#a)" /></g></g><g id="t" class="DirectedInteraction" color="#000" ><g color="#000" fill="transparent"  filter="url(#b)" stroke="#000" stroke-dasharray="34.866666666666674, 5.8"><path class="EdgeBody" d="m737 86v40.667"   marker-end="url(#a)" /></g></g><g id="u" class="DirectedInteraction" color="#000" ><g color="#000" fill="transparent"  filter="url(#b)" stroke="#000" stroke-dasharray="64.20000000000006, 5.8"><path class="EdgeBody" d="m154.33 254.33v70"   marker-end="url(#a)" /></g></g><g id="v" class="Inhibition" color="#f00" ><g color="#f00" fill="transparent"  filter="url(#d)" stroke="#000" stroke-dasharray="65.00154319333872, 7"><path class="EdgeBody" d="m211.67 272-45.667 55.667"   marker-end="url(#e)" /></g></g><g id="w" class="DirectedInteraction" color="#000" ><g color="#000" fill="transparent"  filter="url(#b)" stroke="#000" stroke-dasharray="5.2, 3.12, 5.2, 3.12, 5.2, 3.12, 5.2, 3.12, 5.2, 3.12, 5.2, 3.12, 5.2, 3.12, 5.2, 3.12, 5.2, 3.12, 5.2, 3.12, 5.2, 3.12, 5.2, 3.12, 5.2, 3.12, 5.2, 3.12, 5.2, 3.12, 5.2, 5.8"><path class="EdgeBody" d="m797.6 334.25-0.94679 135.75"   marker-end="url(#a)" /></g></g><g id="x" class="DirectedInteraction" color="#000" ><g color="#000" fill="transparent"  filter="url(#b)" stroke="#000" stroke-dasharray="64.17817667388066, 5.8"><path class="EdgeBody" d="m740.33 193.33-65.05 25.795"   marker-end="url(#a)" /></g></g><g id="y" class="DirectedInteraction" color="#00f" ><g color="#00f" fill="transparent"  filter="url(#f)" stroke="#000" stroke-dasharray="59.86751268490556, 5.8"><path class="EdgeBody" d="m594.33 603.67-65.667-0.33333"   marker-end="url(#a)" /></g></g><g id="z" class="DirectedInteraction" color="#000" ><g color="#000" fill="transparent"  filter="url(#b)" stroke="#000" stroke-dasharray="26.869323871519338, 5.8"><path class="EdgeBody" d="m476.25 264 0.41667 32.667"   marker-end="url(#a)" /></g></g><g id="aa" class="DirectedInteraction" color="#000" ><g color="#000" fill="transparent"  filter="url(#b)" stroke="#000" stroke-dasharray="135.11894883245654, 5.8"><path class="EdgeBody" d="m796.67 173.33 0.93608 140.92"   marker-end="url(#a)" /></g></g><g id="ab" class="DirectedInteraction" color="#000" ><g color="#000" fill="transparent"  filter="url(#b)" stroke="#000" stroke-dasharray="33.533333333333346, 5.8"><path class="EdgeBody" d="m169 95v39.333"   marker-end="url(#a)" /></g></g><g id="ac" class="DirectedInteraction" color="#000" ><g color="#000" fill="transparent"  filter="url(#b)" stroke="#000" stroke-dasharray="200.24498302424496, 5.8"><path class="EdgeBody" d="m438.67 512.33-187.46 85.514"   marker-end="url(#a)" /></g><g class="Burr Anchor" transform="translate(363.68 546.54)" ><use class="Icon" width="0" height="0" fill="#141414" stroke-width="0" xlink:href="#c"/></g></g><g id="ad" class="DirectedInteraction" color="#000" ><g color="#000" fill="transparent"  filter="url(#b)" stroke="#000" stroke-dasharray="40.86666666666663, 5.8"><path class="EdgeBody" d="m476.67 316.67v46.667"   marker-end="url(#a)" /></g></g><g id="ae" class="DirectedInteraction" color="#000" ><g color="#000" fill="transparent"  filter="url(#b)" stroke="#000" stroke-dasharray="19.200000000000056, 5.8"><path class="EdgeBody" d="m476.67 439.33v25"   marker-end="url(#a)" /></g></g><g id="af" class="Inhibition" color="#f00" ><g color="#f00" fill="transparent"  filter="url(#d)" stroke="#000" stroke-dasharray="213.1903344358692, 7"><path class="EdgeBody" d="m438.67 401.33h-74.985v145.21"   marker-end="url(#e)" /></g><g class="Burr Anchor" transform="translate(383.89 401.33)" ><use class="Icon" width="0" height="0" fill="#141414" stroke-width="0" xlink:href="#c"/></g></g><g id="ag" class="DirectedInteraction" color="#000" ><g color="#000" fill="transparent"  filter="url(#b)" stroke="#000" stroke-dasharray="19.977785574976608, 5.8"><path class="EdgeBody" d="m383.76 375.56 0.12616 25.777"   marker-end="url(#a)" /></g></g><g class="SingleFreeNode Shape" transform="translate(384.5,174.5)" color="#c0c0c0"  name="Mitochondrion"><use class="Icon" transform="matrix(.98391 0 0 .96757 1.4759 1.4514)" width="183.5" height="89.5" fill="transparent"  stroke="#c0c0c0" stroke-width="3" xlink:href="#h"/><text class="Text" transform="translate(91.75,47.75)" fill="#c0c0c0"  font-size="10px" font-weight="bold" stroke="black" stroke-width="0" text-anchor="middle"><tspan x="0" y="0">Mitochondrion</tspan></text></g><g class="SingleFreeNode Shape PhysicalEntity CellularComponent Cell" transform="translate(68.112 141.74)" color="#c0c0c0" ><g fill="transparent"  filter="url(#g)" stroke="#c0c0c0" stroke-width="3"><rect class="Icon" transform="matrix(.98578 0 0 .97714 5.9147 5.8629)" width="831.65" height="513.04" rx="15" ry="15"   /></g></g><g class="Label" transform="translate(441 93.167)" color="#000"  name="STRESS"><use class="Icon" width="71.33333333333333" height="19" fill="transparent"  stroke="#000" stroke-width="0" xlink:href="#c"/><text class="Text" transform="translate(35.667 13.5)"   font-size="12px" font-style="italic" font-weight="bold"  text-anchor="middle"><tspan x="0" y="0">STRESS</tspan></text></g><g class="Label" transform="translate(737.89 574.44)" color="#660066"  name="CELL SURVIVAL"><use class="Icon" width="117.62653865091272" height="23.786065977351058" fill="transparent"  stroke="#660066" stroke-width="0" xlink:href="#c"/><text class="Text" transform="translate(58.813 15.893)" fill="#660066"  font-size="12px" font-weight="bold"  text-anchor="middle"><tspan x="0" y="0">CELL SURVIVAL</tspan></text></g><g class="Label" transform="translate(574.32 488.03)" color="#00c"  name="Degradation of Ik alpha (activation of NFkB)"><use class="Icon" width="98.33333333333333" height="39.666666666666664" fill="transparent"  stroke="#00c" stroke-width="0" xlink:href="#c"/><text class="Text" transform="translate(49.167 22.833)" fill="#00c"  font-size="10px" font-weight="bold"  text-anchor="middle"><tspan x="0" y="-11">Degradation of</tspan> <tspan x="0" y="0">Ik alpha</tspan> <tspan x="0" y="11">(activation of NFkB)</tspan></text></g><g class="Label" transform="translate(278.58 606.56)" color="#f00"  name="Degradation of proteins"><use class="Icon" width="139.5" height="16" fill="transparent"  stroke="#f00" stroke-width="0" xlink:href="#c"/><text class="Text" transform="translate(69.75,11)" fill="#f00"  font-size="10px" font-weight="bold" stroke="black" stroke-width="0" text-anchor="middle"><tspan x="0" y="0">Degradation of proteins</tspan></text></g><g class="Label" transform="translate(505 362.97)" color="#000"  name="Apoptosome"><use class="Icon" width="93.33333333333333" height="16" fill="transparent"  stroke="#000" stroke-width="0" xlink:href="#c"/><text class="Text" transform="translate(46.667 11)"   font-size="11px" font-weight="bold"  text-anchor="middle"><tspan x="0" y="0">Apoptosome</tspan></text></g><g class="Label" transform="translate(431.33 593.83)" color="#000"  name="Proteasome"><use class="Icon" width="97.33333333333333" height="19" fill="transparent"  stroke="#000" stroke-width="0" xlink:href="#c"/><text class="Text" transform="translate(48.667 13.5)"   font-size="12px" font-weight="bold"  text-anchor="middle"><tspan x="0" y="0">Proteasome</tspan></text></g><a  class="GeneProduct MAP3K1 " transform="translate(124.33 227.67)"   name="MAP3K1"  ><rect class="Icon" transform="matrix(.98361 0 0 .95238 .4918 .47619)" width="60" height="20" fill="#fff" stroke="#000"/><text class="Text" transform="translate(30,13)"   font-size="10px"  text-anchor="middle"><tspan x="0" y="0">MAP3K1</tspan></text></a><a  class="GeneProduct BID " transform="translate(615.28 209.13)"   name="BID"  ><rect class="Icon" transform="matrix(.98361 0 0 .95238 .4918 .47619)" width="60" height="20" fill="#fff" stroke="#000"/><text class="Text" transform="translate(30,13)"   font-size="10px"  text-anchor="middle"><tspan x="0" y="0">BID</tspan></text></a><a  class="GeneProduct AIFM1 " transform="translate(313.33 313.33)"   name="PDCD8"  ><rect class="Icon" transform="matrix(.98361 0 0 .95238 .4918 .47619)" width="60" height="20" fill="#fff" stroke="#000"/><text class="Text" transform="translate(30,13)"   font-size="10px"  text-anchor="middle"><tspan x="0" y="0">PDCD8</tspan></text></a><a  class="GeneProduct CYCS " transform="translate(446.67 296.67)"   name="CYCS"  ><rect class="Icon" transform="matrix(.98361 0 0 .95238 .4918 .47619)" width="60" height="20" fill="#fff" stroke="#000"/><text class="Text" transform="translate(30,13)"   font-size="10px"  text-anchor="middle"><tspan x="0" y="0">CYCS</tspan></text></a><a  class="GeneProduct NFKB1 " transform="translate(766.66 470)"   name="NFKB1"  ><rect class="Icon" transform="matrix(.98361 0 0 .95238 .4918 .47619)" width="60" height="20" fill="#fff" stroke="#000"/><text class="Text" transform="translate(30,13)"   font-size="10px"  text-anchor="middle"><tspan x="0" y="0">NFKB1</tspan></text></a><a  class="GeneProduct MAPK10 " transform="translate(121 327.67)"   name="MAPK10"  ><rect class="Icon" transform="matrix(.98361 0 0 .95238 .4918 .47619)" width="60" height="20" fill="#fff" stroke="#000"/><text class="Text" transform="translate(30,13)"   font-size="10px"  text-anchor="middle"><tspan x="0" y="0">MAPK10</tspan></text></a><a  class="GeneProduct HSPA1A " transform="translate(196.67 252)"   name="HSPA1A"  ><rect class="Icon" transform="matrix(.98361 0 0 .95238 .4918 .47619)" width="60" height="20" fill="#fff" stroke="#000"/><text class="Text" transform="translate(30,13)"   font-size="10px"  text-anchor="middle"><tspan x="0" y="0">HSPA1A</tspan></text></a><a  class="GeneProduct HSPA1A " transform="translate(353.76 355.56)"   name="HSPA1A"  ><rect class="Icon" transform="matrix(.98361 0 0 .95238 .4918 .47619)" width="60" height="20" fill="#fff" stroke="#000"/><text class="Text" transform="translate(30,13)"   font-size="10px"  text-anchor="middle"><tspan x="0" y="0">HSPA1A</tspan></text></a><a  class="GeneProduct HSPA1A " transform="translate(594.33 593.67)"   name="HSPA1A"  ><rect class="Icon" transform="matrix(.98361 0 0 .95238 .4918 .47619)" width="60" height="20" fill="#fff" stroke="#000"/><text class="Text" transform="translate(30,13)"   font-size="10px"  text-anchor="middle"><tspan x="0" y="0">HSPA1A</tspan></text></a><a class="WikiPathways_WP254 Pathway " transform="translate(171.21 590.96)" color="#14961e"  name="Apoptosis"  ><rect class="Icon" transform="matrix(.98765 0 0 .96498 .49383 .48249)" width="80" height="27.553" rx="15" ry="15" fill="#fff" stroke="#14961e"/><text class="Text" transform="translate(40 17.777)" fill="#14961e"  font-size="12px" font-weight="bold" stroke="black" stroke-width="0" text-anchor="middle"><tspan x="0" y="0">Apoptosis</tspan></text></a><a  class="GeneProduct FASLG " transform="translate(129,75)"   name="FAS-Ligand"  ><rect class="Icon" transform="matrix(.98765 0 0 .95238 .49383 .47619)" width="80" height="20" fill="#fff" stroke="#000"/><text class="Text" transform="translate(40,13)"   font-size="10px"  text-anchor="middle"><tspan x="0" y="0">FAS-Ligand</tspan></text></a><g class="Pathway" transform="translate(741.1 314.25)" color="#14961e"  name="NF-kB Pathway"><rect class="Icon" transform="matrix(.99123 0 0 .95238 .49561 .47619)" width="113" height="20" rx="15" ry="15" fill="#fff" stroke="#14961e"/><text class="Text" transform="translate(56.5,14)" fill="#14961e"  font-size="12px" font-weight="bold" stroke="black" stroke-width="0" text-anchor="middle"><tspan x="0" y="0">NF-kB Pathway</tspan></text></g><g class="GroupNone" transform="translate(130 125.33)" color="grey" ><rect class="Icon" transform="matrix(.98734 0 0 .98734 .49367 .49367)" width="78" height="78" fill="#b4b464" fill-opacity=".1" stroke="grey" stroke-dasharray="5,3"/><a  class="GeneProduct CASP8 " transform="translate(9,49)"   name="CASP8"  ><rect class="Icon" transform="matrix(.98361 0 0 .95238 .4918 .47619)" width="60" height="20" fill="#fff" stroke="#000"/><text class="Text" transform="translate(30,13)"   font-size="10px"  text-anchor="middle"><tspan x="0" y="0">CASP8</tspan></text></a><a  class="GeneProduct FADD " transform="translate(9,29)"   name="FADD"  ><rect class="Icon" transform="matrix(.98361 0 0 .95238 .4918 .47619)" width="60" height="20" fill="#fff" stroke="#000"/><text class="Text" transform="translate(30,13)"   font-size="10px"  text-anchor="middle"><tspan x="0" y="0">FADD</tspan></text></a><a  class="GeneProduct FAS " transform="translate(9,9)"   name="FAS"  ><rect class="Icon" transform="matrix(.98361 0 0 .95238 .4918 .47619)" width="60" height="20" fill="#fff" stroke="#000"/><text class="Text" transform="translate(30,13)"   font-size="10px"  text-anchor="middle"><tspan x="0" y="0">FAS</tspan></text></a></g><g class="GroupNone" transform="translate(437.67 463.33)" color="grey" ><rect class="Icon" transform="matrix(.98734 0 0 .9899 .49367 .49495)" width="78" height="98" fill="#b4b464" fill-opacity=".1" stroke="grey" stroke-dasharray="5,3"/><a  class="GeneProduct CASP3 " transform="translate(9 49)"   name="CASP3"  ><rect class="Icon" transform="matrix(.98361 0 0 .95238 .4918 .47619)" width="60" height="20" fill="#fff" stroke="#000"/><text class="Text" transform="translate(30,13)"   font-size="10px"  text-anchor="middle"><tspan x="0" y="0">CASP3</tspan></text></a><a  class="GeneProduct CASP2 " transform="translate(9 69)"   name="CASP2"  ><rect class="Icon" transform="matrix(.98361 0 0 .95238 .4918 .47619)" width="60" height="20" fill="#fff" stroke="#000"/><text class="Text" transform="translate(30,13)"   font-size="10px"  text-anchor="middle"><tspan x="0" y="0">CASP2</tspan></text></a><a  class="GeneProduct CASP6 " transform="translate(9,9)"   name="CASP6"  ><rect class="Icon" transform="matrix(.98361 0 0 .95238 .4918 .47619)" width="60" height="20" fill="#fff" stroke="#000"/><text class="Text" transform="translate(30,13)"   font-size="10px"  text-anchor="middle"><tspan x="0" y="0">CASP6</tspan></text></a><a  class="GeneProduct CASP7 " transform="translate(9,29)"   name="CASP7"  ><rect class="Icon" transform="matrix(.98361 0 0 .95238 .4918 .47619)" width="60" height="20" fill="#fff" stroke="#000"/><text class="Text" transform="translate(30,13)"   font-size="10px"  text-anchor="middle"><tspan x="0" y="0">CASP7</tspan></text></a></g><g class="GroupNone" transform="translate(437.67 362.33)" color="grey" ><rect class="Icon" transform="matrix(.98734 0 0 .98734 .49367 .49367)" width="78" height="78" fill="#b4b464" fill-opacity=".1" stroke="grey" stroke-dasharray="5,3"/><a  class="GeneProduct CYCS " transform="translate(9,9)"   name="CYCS"  ><rect class="Icon" transform="matrix(.98361 0 0 .95238 .4918 .47619)" width="60" height="20" fill="#fff" stroke="#000"/><text class="Text" transform="translate(30,13)"   font-size="10px"  text-anchor="middle"><tspan x="0" y="0">CYCS</tspan></text></a><a  class="GeneProduct APAF1 " transform="translate(9,29)"   name="APAF1"  ><rect class="Icon" transform="matrix(.98361 0 0 .95238 .4918 .47619)" width="60" height="20" fill="#fff" stroke="#000"/><text class="Text" transform="translate(30,13)"   font-size="10px"  text-anchor="middle"><tspan x="0" y="0">APAF1</tspan></text></a><a  class="GeneProduct CASP9 " transform="translate(9,49)"   name="CASP9"  ><rect class="Icon" transform="matrix(.98361 0 0 .95238 .4918 .47619)" width="60" height="20" fill="#fff" stroke="#000"/><text class="Text" transform="translate(30,13)"   font-size="10px"  text-anchor="middle"><tspan x="0" y="0">CASP9</tspan></text></a></g><g class="GroupNone" transform="translate(701.33 124.33)" color="grey" ><rect class="Icon" transform="matrix(.99242 0 0 .98734 .49621 .49367)" width="131" height="78" fill="#b4b464" fill-opacity=".1" stroke="grey" stroke-dasharray="5,3"/><a  class="GeneProduct CASP8 " transform="translate(9,49)"   name="CASP8"  ><rect class="Icon" transform="matrix(.98361 0 0 .95238 .4918 .47619)" width="60" height="20" fill="#fff" stroke="#000"/><text class="Text" transform="translate(30,13)"   font-size="10px"  text-anchor="middle"><tspan x="0" y="0">CASP8</tspan></text></a><a  class="GeneProduct FADD " transform="translate(9,29)"   name="FADD"  ><rect class="Icon" transform="matrix(.98361 0 0 .95238 .4918 .47619)" width="60" height="20" fill="#fff" stroke="#000"/><text class="Text" transform="translate(30,13)"   font-size="10px"  text-anchor="middle"><tspan x="0" y="0">FADD</tspan></text></a><a  class="GeneProduct TNFRSF1A " transform="translate(9,9)"   name="TNFRSF1A"  ><rect class="Icon" transform="matrix(.98361 0 0 .95238 .4918 .47619)" width="60" height="20" fill="#fff" stroke="#000"/><text class="Text" transform="translate(30,13)"   font-size="10px"  text-anchor="middle"><tspan x="0" y="0">TNFRSF1A</tspan></text></a><a  class="GeneProduct RIPK1 " transform="translate(68.667 29)"   name="RIPK1"  ><rect class="Icon" transform="matrix(.9816 0 0 .95238 .4908 .47619)" width="53.333" height="20" fill="#fff" stroke="#000"/><text class="Text" transform="translate(26.667 13)"   font-size="10px"  text-anchor="middle"><tspan x="0" y="0">RIPK1</tspan></text></a></g><a  class="GeneProduct " transform="translate(697,66)"   name="TNF-alpha"  ><rect class="Icon" transform="matrix(.98765 0 0 .95238 .49383 .47619)" width="80" height="20" fill="#fff" stroke="#000"/><text class="Text" transform="translate(40,13)"   font-size="10px"  text-anchor="middle"><tspan x="0" y="0">TNF-alpha</tspan></text></a><text class="Text" transform="translate(5,36)" dominant-baseline="central" fill="black"  font-size="12px" font-weight="bold" overflow="visible" ><tspan x="0" y="-18">Name: Apoptosis modulation by HSP70</tspan> <tspan x="0" y="0">License: CC BY 2.0</tspan> <tspan x="0" y="18">Organism: Homo sapiens</tspan></text></g></svg>
