<?xml version="1.0" encoding="UTF-8"?>
<!--
  WikiPathways page: https://www.wikipathways.org/index.php/Pathway:WP3874
  URL for this compressed file: https://github.com/eweitz/cachome/tree/main/data/wikipathways/WP3874.svg
  Source code for compression: https://github.com/eweitz/cachome/tree/main/src/wikipathways.py
-->
<svg class="Diagram" width="800" height="600" color="black" baseProfile="full" prefix="schema:http://schema.org/" preserveAspectRatio="xMidYMid" version="1.1" viewBox="0 0 998 782" vocab="http://vocabularies.wikipathways.org/wp#" xmlns="http://www.w3.org/2000/svg" xmlns:xlink="http://www.w3.org/1999/xlink"><style>svg {font-family: 'Liberation Sans', Arial, sans-serif; }</style><defs><filter id="h" x="-50%" y="-50%" width="200%" height="200%"><feComposite in="SourceGraphic" in2="SourceGraphic" result="doubleDark"/><feMorphology in="doubleDark" operator="dilate" radius="0.16666666666666666" result="in2Double"/><feMorphology in="SourceGraphic" operator="dilate" radius="3" result="inDouble"/><feComposite in="inDouble" in2="in2Double" operator="out" result="doubleResult"/></filter><filter id="a" x="0" y="0" width="998" height="782" filterUnits="userSpaceOnUse"><feColorMatrix in="SourceGraphic" values="-1   0   0 0 0                   0  -1   0 0 0                   0   0  -1 0 0                   0   0   0 1 0"/></filter><marker id="c" stroke-dasharray="99999" markerHeight="12" markerUnits="userSpaceOnUse" markerWidth="12" orient="auto" preserveAspectRatio="none" refX="12" refY="6" viewBox="0 0 12 12"><path transform="rotate(180 6 6)" d="M12 11L0 6l12-5z" fill="currentColor" stroke-width="0"/></marker><marker id="g" stroke-dasharray="99999" markerHeight="12" markerUnits="userSpaceOnUse" markerWidth="12" orient="auto" preserveAspectRatio="none" refX="12" refY="6" viewBox="0 0 12 12"><path transform="rotate(180 6 6)" d="M12 12L0 6l12-6-7 6z" fill="currentColor" stroke-width="0"/></marker><marker id="f" stroke-dasharray="99999" markerHeight="20" markerUnits="userSpaceOnUse" markerWidth="10" orient="auto" preserveAspectRatio="none" refX="10" refY="10" viewBox="0 0 10 20"><path d="m3 0v20" fill="currentColor" stroke="currentColor"/></marker><symbol id="d" overflow="visible" preserveAspectRatio="none" viewBox="0 0 50 50"><ellipse cx="25" cy="25" rx="25" ry="25" stroke="currentColor" vector-effect="non-scaling-stroke"/></symbol><symbol id="e" overflow="visible" preserveAspectRatio="none" viewBox="0 0 100 100"><path d="M0 25L25 0h50l25 25v50l-25 25H25L0 75z" stroke="currentColor" vector-effect="non-scaling-stroke"/></symbol><symbol id="b" preserveAspectRatio="none" viewBox="0 0 100 100"/></defs><g class="Viewport" color="black"  name="Name: Canonical and non-canonical TGF-B signaling Organism: Homo sapiens"><rect class="Icon" width="998" height="782" fill="#fff" stroke="#000" stroke-width="0"/><g id="i" class="DirectedInteraction" color="#000" ><g color="#000" fill="transparent"  filter="url(#a)" stroke="#000" stroke-dasharray="121.20024606275375, 5.8"><path class="EdgeBody" d="m711 37-127 0.25"   marker-end="url(#c)" /></g><g class="Burr Anchor" transform="translate(660.2,37.1)" ><use class="Icon" width="0" height="0" fill="#141414" stroke-width="0" xlink:href="#b"/></g></g><g id="j" class="Interaction" color="#000" ><g color="#000" fill="transparent"  filter="url(#a)" stroke="#000" stroke-dasharray="85, 1"><path class="EdgeBody" d="m751 67v86"   marker-end="url(#g)" /></g></g><g id="k" class="Interaction" color="#000" ><g color="#000" fill="transparent"  filter="url(#a)" stroke="#000" stroke-dasharray="167.04022523543227, 7"><path class="EdgeBody" d="m711 57-127 119"   marker-end="url(#f)" /></g><g class="Burr Anchor" transform="translate(660.2,104.6)" ><use class="Icon" width="0" height="0" fill="#141414" stroke-width="0" xlink:href="#b"/></g></g><g id="l" class="Interaction" color="#000" ><g color="#000" fill="transparent"  filter="url(#a)" stroke="#000" stroke-dasharray="60.5, 7"><path class="EdgeBody" d="m660.2 37.1v67.5"   marker-end="url(#f)" /></g></g><g id="m" class="Interaction" color="#000" ><g color="#000" fill="transparent"  filter="url(#a)" stroke="#000" stroke-dasharray="105.75, 1"><path class="EdgeBody" d="m544 47.25v106.75"   marker-end="url(#g)" /></g></g><g id="n" class="DirectedInteraction" color="#000" ><g color="#000" fill="transparent"  filter="url(#a)" stroke="#000" stroke-dasharray="162.3814496310458, 5.8"><path class="EdgeBody" d="m544 218-149 78"   marker-end="url(#c)" /></g></g><g id="o" class="DirectedInteraction" color="#000" ><g color="#000" fill="transparent"  filter="url(#a)" stroke="#000" stroke-dasharray="206.43303634129217, 5.8"><path class="EdgeBody" d="m369 380v212.23"   marker-end="url(#c)" /></g></g><g id="p" class="DirectedInteraction" color="#000" ><g color="#000" fill="transparent"  filter="url(#a)" stroke="#000" stroke-dasharray="142.10888522943026, 5.8"><path class="EdgeBody" d="m344.75 592.23-126.75-76.233"   marker-end="url(#c)" /></g></g><g id="q" class="DirectedInteraction" color="#000" ><g color="#000" fill="transparent"  filter="url(#a)" stroke="#000" stroke-dasharray="119.2, 5.8"><path class="EdgeBody" d="m544 446v125"   marker-end="url(#c)" /></g></g><g id="r" class="DirectedInteraction" color="#000" ><g color="#000" fill="transparent"  filter="url(#a)" stroke="#000" stroke-dasharray="115.08527619193332, 5.8"><path class="EdgeBody" d="m592 571 91.5-79"   marker-end="url(#c)" /></g></g><g id="s" class="DirectedInteraction" color="#000" ><g color="#000" fill="transparent"  filter="url(#a)" stroke="#000" stroke-dasharray="210.2, 5.8"><path class="EdgeBody" d="m791 380v216"   marker-end="url(#c)" /></g></g><g id="t" class="DirectedInteraction" color="#000" ><g color="#000" fill="transparent"  filter="url(#a)" stroke="#000" stroke-dasharray="97.3855125490008, 5.8"><path class="EdgeBody" d="m839.5 624 58.5-85"   marker-end="url(#c)" /></g></g><g class="SingleFreeNode Shape PhysicalEntity CellularComponent Cell" transform="translate(141,179)" color="#c0c0c0" ><g fill="transparent"  filter="url(#h)" stroke="#c0c0c0" stroke-width="3"><rect class="Icon" transform="matrix(.98572 0 0 .97954 5.9143 5.8772)" width="828.5" height="574.5" rx="15" ry="15"   /></g></g><g class="SingleFreeNode Shape PhysicalEntity CellularComponent Nucleus" transform="translate(199.5,529.5)" color="#c0c0c0" ><g fill="transparent"  filter="url(#h)" stroke="#c0c0c0" stroke-width="3"><use class="Icon" transform="matrix(.98429 0 0 .94175 5.9058 5.6505)" width="752" height="194"    xlink:href="#d"/></g></g><g class="Label" transform="translate(558,699)" color="#000"  name="Nucleus"><use class="Icon" width="80" height="20" fill="transparent"  stroke="#000" stroke-width="0" xlink:href="#b"/><text class="Text" transform="translate(40,14)"   font-size="12px" font-weight="bold"  text-anchor="middle"><tspan x="0" y="0">Nucleus</tspan></text></g><g class="Label" transform="translate(147,189)" color="#000"  name="Trabecular Meshwork Cell"><use class="Icon" width="163" height="20" fill="transparent"  stroke="#000" stroke-width="0" xlink:href="#b"/><text class="Text" transform="translate(81.5,14)"   font-size="12px" font-weight="bold"  text-anchor="middle"><tspan x="0" y="0">Trabecular Meshwork Cell</tspan></text></g><a  class="GeneProduct TGFB1 " transform="translate(504,27.25)"   name="TGF-Beta"  ><rect class="Icon" transform="matrix(.98765 0 0 .95238 .49383 .47619)" width="80" height="20" fill="#fff" stroke="#000"/><text class="Text" transform="translate(40,13)"   font-size="10px"  text-anchor="middle"><tspan x="0" y="0">TGF-Beta</tspan></text></a><a  class="GeneProduct MAPK14 " transform="translate(751,360)"   name="P38"  ><rect class="Icon" transform="matrix(.98765 0 0 .95238 .49383 .47619)" width="80" height="20" fill="#fff" stroke="#000"/><g class="Burr State" transform="translate(72.5,12.5)" color="#000"  name="P"><use class="Icon" transform="matrix(.9375 0 0 .9375 .46875 .46875)" width="15" height="15" fill="#fff" stroke="#000" xlink:href="#d"/><text class="Text" transform="translate(7.5,10.5)"   font-size="10px"  text-anchor="middle"><tspan x="0" y="0">P</tspan></text></g><text class="Text" transform="translate(40,13)"   font-size="10px"  text-anchor="middle"><tspan x="0" y="0">P38</tspan></text></a><g class="GroupComplex" transform="translate(492,154)" color="grey" ><use class="Icon" transform="matrix(.99048 0 0 .98462 .49524 .49231)" width="104" height="64" fill="#b4b464" fill-opacity=".1" stroke="grey" xlink:href="#e"/><a  class="GeneProduct TGFBR1 " transform="translate(12,32)"   name="TGFBR1"  ><rect class="Icon" transform="matrix(.98765 0 0 .95238 .49383 .47619)" width="80" height="20" fill="#fff" stroke="#000"/><text class="Text" transform="translate(40,13)"   font-size="10px"  text-anchor="middle"><tspan x="0" y="0">TGFBR1</tspan></text></a><a  class="GeneProduct TGFBR2 " transform="translate(12,12)"   name="TGFBR2"  ><rect class="Icon" transform="matrix(.98765 0 0 .95238 .49383 .47619)" width="80" height="20" fill="#fff" stroke="#000"/><text class="Text" transform="translate(40 13)"   font-size="10px"  text-anchor="middle"><tspan x="0" y="0">TGFBR2</tspan></text></a></g><g class="GroupComplex" transform="translate(699,15)" color="grey" ><use class="Icon" transform="matrix(.99048 0 0 .98462 .49524 .49231)" width="104" height="64" fill="#b4b464" fill-opacity=".1" stroke="grey" xlink:href="#e"/><a  class="GeneProduct GREM1 " transform="translate(12,12)"   name="Grem"  ><rect class="Icon" transform="matrix(.98765 0 0 .95238 .49383 .47619)" width="80" height="20" fill="#fff" stroke="#000"/><text class="Text" transform="translate(40,13)"   font-size="10px"  text-anchor="middle"><tspan x="0" y="0">Grem</tspan></text></a><a  class="GeneProduct BMP1 " transform="translate(12,32)"   name="BMP"  ><rect class="Icon" transform="matrix(.98765 0 0 .95238 .49383 .47619)" width="80" height="20" fill="#fff" stroke="#000"/><text class="Text" transform="translate(40,13)"   font-size="10px"  text-anchor="middle"><tspan x="0" y="0">BMP</tspan></text></a></g><g class="GroupComplex" transform="translate(699,141)" color="grey" ><use class="Icon" transform="matrix(.99048 0 0 .98462 .49524 .49231)" width="104" height="64" fill="#b4b464" fill-opacity=".1" stroke="grey" xlink:href="#e"/><a  class="GeneProduct BMPR2 " transform="translate(12,12)"   name="BMPR2"  ><rect class="Icon" transform="matrix(.98765 0 0 .95238 .49383 .47619)" width="80" height="20" fill="#fff" stroke="#000"/><text class="Text" transform="translate(40,13)"   font-size="10px"  text-anchor="middle"><tspan x="0" y="0">BMPR2</tspan></text></a><a  class="GeneProduct BMPR1A " transform="translate(12,32)"   name="BMPR1"  ><rect class="Icon" transform="matrix(.98765 0 0 .95238 .49383 .47619)" width="80" height="20" fill="#fff" stroke="#000"/><text class="Text" transform="translate(40,13)"   font-size="10px"  text-anchor="middle"><tspan x="0" y="0">BMPR1</tspan></text></a></g><g class="GroupComplex" transform="translate(317,296)" color="grey" ><use class="Icon" transform="matrix(.99048 0 0 .98824 .49524 .49412)" width="104" height="84" fill="#b4b464" fill-opacity=".1" stroke="grey" xlink:href="#e"/><a  class="GeneProduct SMAD4 " transform="translate(12,52)"   name="SMAD4"  ><rect class="Icon" transform="matrix(.98765 0 0 .95238 .49383 .47619)" width="80" height="20" fill="#fff" stroke="#000"/><text class="Text" transform="translate(40,13)"   font-size="10px"  text-anchor="middle"><tspan x="0" y="0">SMAD4</tspan></text></a><a  class="GeneProduct SMAD2 " transform="translate(12,12)"   name="SMAD2"  ><rect class="Icon" transform="matrix(.98765 0 0 .95238 .49383 .47619)" width="80" height="20" fill="#fff" stroke="#000"/><g class="Burr State" transform="translate(72.5,12.5)" color="#000"  name="P"><use class="Icon" transform="matrix(.9375 0 0 .9375 .46875 .46875)" width="15" height="15" fill="#fff" stroke="#000" xlink:href="#d"/><text class="Text" transform="translate(7.5,10.5)"   font-size="10px"  text-anchor="middle"><tspan x="0" y="0">P</tspan></text></g><text class="Text" transform="translate(40,13)"   font-size="10px"  text-anchor="middle"><tspan x="0" y="0">SMAD2</tspan></text></a><a  class="GeneProduct SMAD3 " transform="translate(12,32)"   name="SMAD3"  ><rect class="Icon" transform="matrix(.98765 0 0 .95238 .49383 .47619)" width="80" height="20" fill="#fff" stroke="#000"/><g class="Burr State" transform="translate(72.5,12.5)" color="#000"  name="P"><use class="Icon" transform="matrix(.9375 0 0 .9375 .46875 .46875)" width="15" height="15" fill="#fff" stroke="#000" xlink:href="#d"/><text class="Text" transform="translate(7.5,10.5)"   font-size="10px"  text-anchor="middle"><tspan x="0" y="0">P</tspan></text></g><text class="Text" transform="translate(40,13)"   font-size="10px"  text-anchor="middle"><tspan x="0" y="0">SMAD3</tspan></text></a></g><g class="GroupComplex" transform="translate(492,382)" color="grey" ><use class="Icon" transform="matrix(.99048 0 0 .98462 .49524 .49231)" width="104" height="64" fill="#b4b464" fill-opacity=".1" stroke="grey" xlink:href="#e"/><a  class="GeneProduct MAPK8 " transform="translate(12,12)"   name="JNK1"  ><rect class="Icon" transform="matrix(.98765 0 0 .95238 .49383 .47619)" width="80" height="20" fill="#fff" stroke="#000"/><g class="Burr State" transform="translate(72.5,12.5)" color="#000"  name="P"><use class="Icon" transform="matrix(.9375 0 0 .9375 .46875 .46875)" width="15" height="15" fill="#fff" stroke="#000" xlink:href="#d"/><text class="Text" transform="translate(7.5,10.5)"   font-size="10px"  text-anchor="middle"><tspan x="0" y="0">P</tspan></text></g><text class="Text" transform="translate(40,13)"   font-size="10px"  text-anchor="middle"><tspan x="0" y="0">JNK1</tspan></text></a><a  class="GeneProduct MAPK9 " transform="translate(12,32)"   name="JNK2"  ><rect class="Icon" transform="matrix(.98765 0 0 .95238 .49383 .47619)" width="80" height="20" fill="#fff" stroke="#000"/><g class="Burr State" transform="translate(72.5,12.5)" color="#000"  name="P"><use class="Icon" transform="matrix(.9375 0 0 .9375 .46875 .46875)" width="15" height="15" fill="#fff" stroke="#000" xlink:href="#d"/><text class="Text" transform="translate(7.5,10.5)"   font-size="10px"  text-anchor="middle"><tspan x="0" y="0">P</tspan></text></g><text class="Text" transform="translate(40,13)"   font-size="10px"  text-anchor="middle"><tspan x="0" y="0">JNK2</tspan></text></a></g><g class="GroupGroup" transform="translate(169.5,420)" color="grey" ><use class="Icon" width="97" height="96" fill="transparent"  stroke="grey" stroke-dasharray="5,3" stroke-width="0" xlink:href="#b"/><a  class="GeneProduct LOX " transform="translate(8,8)"   name="LOX"  ><rect class="Icon" transform="matrix(.9878 0 0 .95238 .4939 .47619)" width="81" height="20" fill="#fff" stroke="#000"/><text class="Text" transform="translate(40.5 13)"   font-size="10px"  text-anchor="middle"><tspan x="0" y="0">LOX</tspan></text></a><a  class="GeneProduct LOXL1 " transform="translate(8,28)"   name="LOXL1"  ><rect class="Icon" transform="matrix(.9878 0 0 .95238 .4939 .47619)" width="81" height="20" fill="#fff" stroke="#000"/><text class="Text" transform="translate(40.5 13)"   font-size="10px"  text-anchor="middle"><tspan x="0" y="0">LOXL1</tspan></text></a><a  class="GeneProduct LOXL2 " transform="translate(8,68)"   name="LOXL2"  ><rect class="Icon" transform="matrix(.9878 0 0 .95238 .4939 .47619)" width="81" height="20" fill="#fff" stroke="#000"/><text class="Text" transform="translate(40.5 13)"   font-size="10px"  text-anchor="middle"><tspan x="0" y="0">LOXL2</tspan></text></a><a  class="GeneProduct LOXL4 " transform="translate(8,48)"   name="LOXL4"  ><rect class="Icon" transform="matrix(.9878 0 0 .95238 .4939 .47619)" width="81" height="20" fill="#fff" stroke="#000"/><text class="Text" transform="translate(40.5,13)"   font-size="10px"  text-anchor="middle"><tspan x="0" y="0">LOXL4</tspan></text></a></g><g class="GroupGroup" transform="translate(320.5 592.23)" color="grey" ><use class="Icon" width="97" height="96" fill="transparent"  stroke="grey" stroke-dasharray="5,3" stroke-width="0" xlink:href="#b"/><a  class="GeneProduct LOXL4 " transform="translate(8,48)"   name="LOXL4"  ><rect class="Icon" transform="matrix(.9878 0 0 .95238 .4939 .47619)" width="81" height="20" fill="#fff" stroke="#000"/><text class="Text" transform="translate(40.5,13)"   font-size="10px"  text-anchor="middle"><tspan x="0" y="0">LOXL4</tspan></text></a><a  class="GeneProduct LOXL2 " transform="translate(8,68)"   name="LOXL2"  ><rect class="Icon" transform="matrix(.9878 0 0 .95238 .4939 .47619)" width="81" height="20" fill="#fff" stroke="#000"/><text class="Text" transform="translate(40.5,13)"   font-size="10px"  text-anchor="middle"><tspan x="0" y="0">LOXL2</tspan></text></a><a  class="GeneProduct LOXL1 " transform="translate(8,8)"   name="LOXL1"  ><rect class="Icon" transform="matrix(.9878 0 0 .95238 .4939 .47619)" width="81" height="20" fill="#fff" stroke="#000"/><text class="Text" transform="translate(40.5,13)"   font-size="10px"  text-anchor="middle"><tspan x="0" y="0">LOXL1</tspan></text></a><a  class="GeneProduct LOX " transform="translate(8,28)"   name="LOX"  ><rect class="Icon" transform="matrix(.9878 0 0 .95238 .4939 .47619)" width="81" height="20" fill="#fff" stroke="#000"/><text class="Text" transform="translate(40.5,13)"   font-size="10px"  text-anchor="middle"><tspan x="0" y="0">LOX</tspan></text></a></g><g class="GroupGroup" transform="translate(520,571)" color="grey" ><use class="Icon" width="96" height="56" fill="transparent"  stroke="grey" stroke-dasharray="5,3" stroke-width="0" xlink:href="#b"/><a  class="GeneProduct LOX " transform="translate(8,8)"   name="LOX"  ><rect class="Icon" transform="matrix(.98765 0 0 .95238 .49383 .47619)" width="80" height="20" fill="#fff" stroke="#000"/><text class="Text" transform="translate(40,13)"   font-size="10px"  text-anchor="middle"><tspan x="0" y="0">LOX</tspan></text></a><a  class="GeneProduct LOXL1 " transform="translate(8,28)"   name="LOXL1"  ><rect class="Icon" transform="matrix(.98765 0 0 .95238 .49383 .47619)" width="80" height="20" fill="#fff" stroke="#000"/><text class="Text" transform="translate(40,13)"   font-size="10px"  text-anchor="middle"><tspan x="0" y="0">LOXL1</tspan></text></a></g><g class="GroupGroup" transform="translate(596,456)" color="grey" ><use class="Icon" width="175" height="36" fill="transparent"  stroke="grey" stroke-dasharray="5,3" stroke-width="0" xlink:href="#b"/><a  class="GeneProduct LOX " transform="translate(8,8)"   name="LOX"  ><rect class="Icon" transform="matrix(.98765 0 0 .95238 .49383 .47619)" width="80" height="20" fill="#fff" stroke="#000"/><text class="Text" transform="translate(40,13)"   font-size="10px"  text-anchor="middle"><tspan x="0" y="0">LOX</tspan></text></a><a  class="GeneProduct LOXL1 " transform="translate(87,8)"   name="LOXL1"  ><rect class="Icon" transform="matrix(.98765 0 0 .95238 .49383 .47619)" width="80" height="20" fill="#fff" stroke="#000"/><text class="Text" transform="translate(40,13)"   font-size="10px"  text-anchor="middle"><tspan x="0" y="0">LOXL1</tspan></text></a></g><g class="GroupGroup" transform="translate(742.5,596)" color="grey" ><use class="Icon" width="97" height="55.999999999999886" fill="transparent"  stroke="grey" stroke-dasharray="5,3" stroke-width="0" xlink:href="#b"/><a  class="GeneProduct LOXL1 " transform="translate(8,8)"   name="LOXL1"  ><rect class="Icon" transform="matrix(.9878 0 0 .95238 .4939 .47619)" width="81" height="20" fill="#fff" stroke="#000"/><text class="Text" transform="translate(40.5 13)"   font-size="10px"  text-anchor="middle"><tspan x="0" y="0">LOXL1</tspan></text></a><a  class="GeneProduct LOXL4 " transform="translate(8 28)"   name="LOXL4"  ><rect class="Icon" transform="matrix(.9878 0 0 .95238 .4939 .47619)" width="81" height="20" fill="#fff" stroke="#000"/><text class="Text" transform="translate(40.5,13)"   font-size="10px"  text-anchor="middle"><tspan x="0" y="0">LOXL4</tspan></text></a></g><g class="GroupGroup" transform="translate(849.5,483)" color="grey" ><use class="Icon" width="97" height="56" fill="transparent"  stroke="grey" stroke-dasharray="5,3" stroke-width="0" xlink:href="#b"/><a  class="GeneProduct LOXL1 " transform="translate(8,8)"   name="LOXL1"  ><rect class="Icon" transform="matrix(.9878 0 0 .95238 .4939 .47619)" width="81" height="20" fill="#fff" stroke="#000"/><text class="Text" transform="translate(40.5,13)"   font-size="10px"  text-anchor="middle"><tspan x="0" y="0">LOXL1</tspan></text></a><a  class="GeneProduct LOXL4 " transform="translate(8,28)"   name="LOXL4"  ><rect class="Icon" transform="matrix(.9878 0 0 .95238 .4939 .47619)" width="81" height="20" fill="#fff" stroke="#000"/><text class="Text" transform="translate(40.5,13)"   font-size="10px"  text-anchor="middle"><tspan x="0" y="0">LOXL4</tspan></text></a></g><g id="u" class="DirectedInteraction" color="#000" ><g color="#000" fill="transparent"  filter="url(#a)" stroke="#000" stroke-dasharray="158.2, 5.8"><path class="EdgeBody" d="m544 218v164"   marker-end="url(#c)" /></g></g><g id="v" class="DirectedInteraction" color="#000" ><g color="#000" fill="transparent"  filter="url(#a)" stroke="#000" stroke-dasharray="279.1087573241651, 5.8"><path class="EdgeBody" d="m544 218 247 142"   marker-end="url(#c)" /></g></g><text class="Text" transform="translate(5,27)" dominant-baseline="central" fill="black"  font-size="12px" font-weight="bold" overflow="visible" ><tspan x="0" y="-9">Name: Canonical and non-canonical TGF-B signaling</tspan> <tspan x="0" y="9">Organism: Homo sapiens</tspan></text></g></svg>
