<?xml version="1.0" encoding="UTF-8"?>
<!--
  WikiPathways page: https://www.wikipathways.org/index.php/Pathway:WP3855
  URL for this compressed file: https://github.com/eweitz/cachome/tree/main/data/wikipathways/WP3855.svg
  Source code for compression: https://github.com/eweitz/cachome/tree/main/src/wikipathways.py
-->
<svg class="Diagram" width="800" height="600" color="black" baseProfile="full" prefix="schema:http://schema.org/" preserveAspectRatio="xMidYMid" version="1.1" viewBox="0 0 1309 833" vocab="http://vocabularies.wikipathways.org/wp#" xmlns="http://www.w3.org/2000/svg" xmlns:xlink="http://www.w3.org/1999/xlink"><style>svg {font-family: 'Liberation Sans', Arial, sans-serif; }</style><defs><filter id="a" x="0" y="0" width="1309" height="833" filterUnits="userSpaceOnUse"><feColorMatrix in="SourceGraphic" values="-1   0   0 0 0                   0  -1   0 0 0                   0   0  -1 0 0                   0   0   0 1 0"/></filter><marker id="b" stroke-dasharray="99999" markerHeight="12" markerUnits="userSpaceOnUse" markerWidth="12" orient="auto" preserveAspectRatio="none" refY="6" viewBox="0 0 12 12"><path d="M12 11L0 6l12-5z" fill="currentColor" stroke-width="0"/></marker><marker id="c" stroke-dasharray="99999" markerHeight="12" markerUnits="userSpaceOnUse" markerWidth="12" orient="auto" preserveAspectRatio="none" refX="12" refY="6" viewBox="0 0 12 12"><path transform="rotate(180 6 6)" d="M12 11L0 6l12-5z" fill="currentColor" stroke-width="0"/></marker><symbol id="d" preserveAspectRatio="none" viewBox="0 0 100 100"/></defs><g class="Viewport" color="black"  name="Name: Dysregulated miRNA targeting in insulin/PI3K-AKT signaling Organism: Mus musculus"><rect class="Icon" width="1309" height="833" fill="#fff" stroke="#000" stroke-width="0"/><g id="e" class="DirectedInteraction" color="#000" ><g color="#000" fill="transparent"  filter="url(#a)" stroke="#000" stroke-dasharray="60.41933252457322, 5.8"><path class="EdgeBody" d="m696 32 52 41"   marker-end="url(#c)" /></g></g><g id="f" class="DirectedInteraction" color="#000" ><g color="#000" fill="transparent"  filter="url(#a)" stroke="#000" stroke-dasharray="69.67184905645283, 5.8"><path class="EdgeBody" d="m656 32-64 40"   marker-end="url(#c)" /></g></g><g id="g" class="DirectedInteraction" color="#000" ><g color="#000" fill="transparent"  filter="url(#a)" stroke="#000" stroke-dasharray="0, 5.8, 61.803624163205924, 0"><path class="EdgeBody" d="m748 93-45.5 50"   marker-start="url(#b)" /></g></g><g id="h" class="DirectedInteraction" color="#000" ><g color="#000" fill="transparent"  filter="url(#a)" stroke="#000" stroke-dasharray="0, 5.8, 61.23170891451299, 0"><path class="EdgeBody" d="m592 92 43.5 51"   marker-start="url(#b)" /></g></g><g id="i" class="DirectedInteraction" color="#000" ><g color="#000" fill="transparent"  filter="url(#a)" stroke="#000" stroke-dasharray="516.7935322982863, 5.8"><path class="EdgeBody" d="m602 153-500 152"   marker-end="url(#c)" /></g></g><g id="j" class="DirectedInteraction" color="#000" ><g color="#000" fill="transparent"  filter="url(#a)" stroke="#000" stroke-dasharray="440.8587063967297, 5.8"><path class="EdgeBody" d="m602 153-420 152"   marker-end="url(#c)" /></g></g><g id="k" class="DirectedInteraction" color="#000" ><g color="#000" fill="transparent"  filter="url(#a)" stroke="#000" stroke-dasharray="366.6298591681392, 5.8"><path class="EdgeBody" d="m602 153-340 152"   marker-end="url(#c)" /></g></g><g id="l" class="DirectedInteraction" color="#000" ><g color="#000" fill="transparent"  filter="url(#a)" stroke="#000" stroke-dasharray="320.24639240451654, 5.8"><path class="EdgeBody" d="M635.5,163L342,305"   marker-end="url(#c)" /></g></g><g id="m" class="DirectedInteraction" color="#000" ><g color="#000" fill="transparent"  filter="url(#a)" stroke="#000" stroke-dasharray="250.61031570512137, 5.8"><path class="EdgeBody" d="M635.5,163L422,305"   marker-end="url(#c)" /></g></g><g id="n" class="DirectedInteraction" color="#000" ><g color="#000" fill="transparent"  filter="url(#a)" stroke="#000" stroke-dasharray="189.10061569938662, 5.8"><path class="EdgeBody" d="M635.5,163L502,305"   marker-end="url(#c)" /></g></g><g id="o" class="DirectedInteraction" color="#000" ><g color="#000" fill="transparent"  filter="url(#a)" stroke="#000" stroke-dasharray="160.73227915332208, 5.8"><path class="EdgeBody" d="m669 163-87 142"   marker-end="url(#c)" /></g></g><g id="p" class="DirectedInteraction" color="#000" ><g color="#000" fill="transparent"  filter="url(#a)" stroke="#000" stroke-dasharray="136.3724305201258, 5.8"><path class="EdgeBody" d="m669 163-7 142"   marker-end="url(#c)" /></g></g><g id="q" class="DirectedInteraction" color="#000" ><g color="#000" fill="transparent"  filter="url(#a)" stroke="#000" stroke-dasharray="153.86527487215244, 5.8"><path class="EdgeBody" d="m669 163 73 142"   marker-end="url(#c)" /></g></g><g id="r" class="DirectedInteraction" color="#000" ><g color="#000" fill="transparent"  filter="url(#a)" stroke="#000" stroke-dasharray="179.7916215781305, 5.8"><path class="EdgeBody" d="M702.5,163L822,305"   marker-end="url(#c)" /></g></g><g id="s" class="DirectedInteraction" color="#000" ><g color="#000" fill="transparent"  filter="url(#a)" stroke="#000" stroke-dasharray="239.07598902301547, 5.8"><path class="EdgeBody" d="M702.5,163L902,305"   marker-end="url(#c)" /></g></g><g id="t" class="DirectedInteraction" color="#000" ><g color="#000" fill="transparent"  filter="url(#a)" stroke="#000" stroke-dasharray="307.7031897764359, 5.8"><path class="EdgeBody" d="M702.5,163L982,305"   marker-end="url(#c)" /></g></g><g id="u" class="DirectedInteraction" color="#000" ><g color="#000" fill="transparent"  filter="url(#a)" stroke="#000" stroke-dasharray="353.89431466176944, 5.8"><path class="EdgeBody" d="m736 153 326 152"   marker-end="url(#c)" /></g></g><g id="v" class="DirectedInteraction" color="#000" ><g color="#000" fill="transparent"  filter="url(#a)" stroke="#000" stroke-dasharray="427.7204724116267, 5.8"><path class="EdgeBody" d="m736 153 406 152"   marker-end="url(#c)" /></g></g><g id="w" class="DirectedInteraction" color="#000" ><g color="#000" fill="transparent"  filter="url(#a)" stroke="#000" stroke-dasharray="503.4150822589606, 5.8"><path class="EdgeBody" d="m736 153 486 152"   marker-end="url(#c)" /></g></g><g id="x" class="DirectedInteraction" color="#000" ><g color="#000" fill="transparent"  filter="url(#a)" stroke="#000" stroke-dasharray="0, 5.8, 241.40234626718248, 0"><path class="EdgeBody" d="m662 325-215 122"   marker-start="url(#b)" /></g></g><g id="y" class="DirectedInteraction" color="#000" ><g color="#000" fill="transparent"  filter="url(#a)" stroke="#000" stroke-dasharray="0, 5.8, 176.15878654244756, 0"><path class="EdgeBody" d="m582 325-135 122"   marker-start="url(#b)" /></g></g><g id="z" class="DirectedInteraction" color="#000" ><g color="#000" fill="transparent"  filter="url(#a)" stroke="#000" stroke-dasharray="0, 5.8, 128.99243302203575, 0"><path class="EdgeBody" d="m502 325-75 112"   marker-start="url(#b)" /></g></g><g id="aa" class="DirectedInteraction" color="#000" ><g color="#000" fill="transparent"  filter="url(#a)" stroke="#000" stroke-dasharray="0, 5.8, 106.31155159036913, 0"><path class="EdgeBody" d="m422 325 5 112"   marker-start="url(#b)" /></g></g><g id="ab" class="DirectedInteraction" color="#000" ><g color="#000" fill="transparent"  filter="url(#a)" stroke="#000" stroke-dasharray="0, 5.8, 123.69517365523704, 0"><path class="EdgeBody" d="m342 325 65 112"   marker-start="url(#b)" /></g></g><g id="ac" class="DirectedInteraction" color="#000" ><g color="#000" fill="transparent"  filter="url(#a)" stroke="#000" stroke-dasharray="0, 5.8, 177.4184488527288, 0"><path class="EdgeBody" d="m262 325 145 112"   marker-start="url(#b)" /></g></g><g id="ad" class="DirectedInteraction" color="#000" ><g color="#000" fill="transparent"  filter="url(#a)" stroke="#000" stroke-dasharray="0, 5.8, 227.80008561642265, 0"><path class="EdgeBody" d="m182 325 205 112"   marker-start="url(#b)" /></g></g><g id="ae" class="DirectedInteraction" color="#000" ><g color="#000" fill="transparent"  filter="url(#a)" stroke="#000" stroke-dasharray="0, 5.8, 300.4172431461037, 0"><path class="EdgeBody" d="m102 325 285 112"   marker-start="url(#b)" /></g></g><g id="af" class="DirectedInteraction" color="#000" ><g color="#000" fill="transparent"  filter="url(#a)" stroke="#000" stroke-dasharray="0, 5.8, 482.1846309055235, 0"><path class="EdgeBody" d="m442 325 473 120"   marker-start="url(#b)" /></g></g><g id="ag" class="DirectedInteraction" color="#000" ><g color="#000" fill="transparent"  filter="url(#a)" stroke="#000" stroke-dasharray="0, 5.8, 424.2802250743459, 0"><path class="EdgeBody" d="m502 325 413 120"   marker-start="url(#b)" /></g></g><g id="ah" class="DirectedInteraction" color="#000" ><g color="#000" fill="transparent"  filter="url(#a)" stroke="#000" stroke-dasharray="0, 5.8, 288.5280482726714, 0"><path class="EdgeBody" d="m662 325 273 110"   marker-start="url(#b)" /></g></g><g id="ai" class="DirectedInteraction" color="#000" ><g color="#000" fill="transparent"  filter="url(#a)" stroke="#000" stroke-dasharray="0, 5.8, 216.3463481581455, 0"><path class="EdgeBody" d="m742 325 193 110"   marker-start="url(#b)" /></g></g><g id="aj" class="DirectedInteraction" color="#000" ><g color="#000" fill="transparent"  filter="url(#a)" stroke="#000" stroke-dasharray="0, 5.8, 166.79490143106776, 0"><path class="EdgeBody" d="m822 325 133 110"   marker-start="url(#b)" /></g></g><g id="ak" class="DirectedInteraction" color="#000" ><g color="#000" fill="transparent"  filter="url(#a)" stroke="#000" stroke-dasharray="0, 5.8, 116.30241602851272, 0"><path class="EdgeBody" d="m902 325 53 110"   marker-start="url(#b)" /></g></g><g id="al" class="DirectedInteraction" color="#000" ><g color="#000" fill="transparent"  filter="url(#a)" stroke="#000" stroke-dasharray="0, 5.8, 104.42250223978768, 0"><path class="EdgeBody" d="m982 325-7 110"   marker-start="url(#b)" /></g></g><g id="am" class="DirectedInteraction" color="#000" ><g color="#000" fill="transparent"  filter="url(#a)" stroke="#000" stroke-dasharray="0, 5.8, 134.44621207005912, 0"><path class="EdgeBody" d="m1062 325-87 110"   marker-start="url(#b)" /></g></g><g id="an" class="DirectedInteraction" color="#000" ><g color="#000" fill="transparent"  filter="url(#a)" stroke="#000" stroke-dasharray="0, 5.8, 183.96037521042163, 0"><path class="EdgeBody" d="m1142 325-147 120"   marker-start="url(#b)" /></g></g><g id="ao" class="DirectedInteraction" color="#000" ><g color="#000" fill="transparent"  filter="url(#a)" stroke="#000" stroke-dasharray="0, 5.8, 250.96643082770765, 0"><path class="EdgeBody" d="m1222 325-227 120"   marker-start="url(#b)" /></g></g><g id="ap" class="DirectedInteraction" color="#000" ><g color="#000" fill="transparent"  filter="url(#a)" stroke="#000" stroke-dasharray="0, 5.8, 70.20164471904539, 0"><path class="EdgeBody" d="m955 455 0.5 76"   marker-start="url(#b)" /></g></g><g id="aq" class="DirectedInteraction" color="#000" ><g color="#000" fill="transparent"  filter="url(#a)" stroke="#000" stroke-dasharray="50.52605968821182, 5.8"><path class="EdgeBody" d="m1023 541 52.75-19.75"   marker-end="url(#c)" /></g></g><g id="ar" class="DirectedInteraction" color="#000" ><g color="#000" fill="transparent"  filter="url(#a)" stroke="#000" stroke-dasharray="46.95059241373504, 5.8"><path class="EdgeBody" d="m1023 541 52.75 0.25"   marker-end="url(#c)" /></g></g><g id="as" class="DirectedInteraction" color="#000" ><g color="#000" fill="transparent"  filter="url(#a)" stroke="#000" stroke-dasharray="50.70331848661635, 5.8"><path class="EdgeBody" d="m1023 541 52.75 20.25"   marker-end="url(#c)" /></g></g><g id="at" class="DirectedInteraction" color="#000" ><g color="#000" fill="transparent"  filter="url(#a)" stroke="#000" stroke-dasharray="0, 5.8, 38.138878001150644, 0"><path class="EdgeBody" d="M1155.75,521.25L1199,529"   marker-start="url(#b)" /></g></g><g id="au" class="DirectedInteraction" color="#000" ><g color="#000" fill="transparent"  filter="url(#a)" stroke="#000" stroke-dasharray="0, 5.8, 39.1513626044862, 0"><path class="EdgeBody" d="M1155.75,541.25L1199,529"   marker-start="url(#b)" /></g></g><g id="av" class="DirectedInteraction" color="#000" ><g color="#000" fill="transparent"  filter="url(#a)" stroke="#000" stroke-dasharray="0, 5.8, 48.15020852601035, 0"><path class="EdgeBody" d="M1155.75,561.25L1199,529"   marker-start="url(#b)" /></g></g><g id="aw" class="DirectedInteraction" color="#000" ><g color="#000" fill="transparent"  filter="url(#a)" stroke="#000" stroke-dasharray="0, 5.8, 38.138878001150644, 0"><path class="EdgeBody" d="M1155.75,541.25L1199,549"   marker-start="url(#b)" /></g></g><g id="ax" class="DirectedInteraction" color="#000" ><g color="#000" fill="transparent"  filter="url(#a)" stroke="#000" stroke-dasharray="0, 5.8, 39.1513626044862, 0"><path class="EdgeBody" d="M1155.75,561.25L1199,549"   marker-start="url(#b)" /></g></g><g id="ay" class="DirectedInteraction" color="#000" ><g color="#000" fill="transparent"  filter="url(#a)" stroke="#000" stroke-dasharray="200.2074331183222, 5.8"><path class="EdgeBody" d="M921.75,551L758,676"   marker-end="url(#c)" /></g></g><g id="az" class="DirectedInteraction" color="#000" ><g color="#000" fill="transparent"  filter="url(#a)" stroke="#000" stroke-dasharray="144.66282763526678, 5.8"><path class="EdgeBody" d="M921.75,551L838,676"   marker-end="url(#c)" /></g></g><g id="ba" class="DirectedInteraction" color="#000" ><g color="#000" fill="transparent"  filter="url(#a)" stroke="#000" stroke-dasharray="124.70383136138189, 5.8"><path class="EdgeBody" d="M955.5,551L918,676"   marker-end="url(#c)" /></g></g><g id="bb" class="DirectedInteraction" color="#000" ><g color="#000" fill="transparent"  filter="url(#a)" stroke="#000" stroke-dasharray="126.22745926510895, 5.8"><path class="EdgeBody" d="M955.5,551L998,676"   marker-end="url(#c)" /></g></g><g id="bc" class="DirectedInteraction" color="#000" ><g color="#000" fill="transparent"  filter="url(#a)" stroke="#000" stroke-dasharray="147.5021933959198, 5.8"><path class="EdgeBody" d="M989.25,551L1078,676"   marker-end="url(#c)" /></g></g><g id="bd" class="DirectedInteraction" color="#000" ><g color="#000" fill="transparent"  filter="url(#a)" stroke="#000" stroke-dasharray="204.20372020514301, 5.8"><path class="EdgeBody" d="M989.25,551L1158,676"   marker-end="url(#c)" /></g></g><g id="be" class="DirectedInteraction" color="#000" ><g color="#000" fill="transparent"  filter="url(#a)" stroke="#000" stroke-dasharray="0, 5.8, 99.88348972285122, 0"><path class="EdgeBody" d="m758 696 60 87"   marker-start="url(#b)" /></g></g><g id="bf" class="DirectedInteraction" color="#000" ><g color="#000" fill="transparent"  filter="url(#a)" stroke="#000" stroke-dasharray="0, 5.8, 81.2, 0"><path class="EdgeBody" d="m838 696v87"   marker-start="url(#b)" /></g></g><g id="bg" class="DirectedInteraction" color="#000" ><g color="#000" fill="transparent"  filter="url(#a)" stroke="#000" stroke-dasharray="0, 5.8, 99.88348972285122, 0"><path class="EdgeBody" d="m918 696-60 87"   marker-start="url(#b)" /></g></g><g id="bh" class="DirectedInteraction" color="#000" ><g color="#000" fill="transparent"  filter="url(#a)" stroke="#000" stroke-dasharray="0, 5.8, 110.2, 0"><path class="EdgeBody" d="m998 696 80 84"   marker-start="url(#b)" /></g></g><g id="bi" class="DirectedInteraction" color="#000" ><g color="#000" fill="transparent"  filter="url(#a)" stroke="#000" stroke-dasharray="0, 5.8, 80.54813257969161, 0"><path class="EdgeBody" d="m1078 696 20 84"   marker-start="url(#b)" /></g></g><g id="bj" class="DirectedInteraction" color="#000" ><g color="#000" fill="transparent"  filter="url(#a)" stroke="#000" stroke-dasharray="0, 5.8, 97.42790320451152, 0"><path class="EdgeBody" d="m1158 696-60 84"   marker-start="url(#b)" /></g></g><g id="bk" class="DirectedInteraction" color="#000" ><g color="#000" fill="transparent"  filter="url(#a)" stroke="#000" stroke-dasharray="0, 5.8, 174.90971196922428, 0"><path class="EdgeBody" d="m918 696 160 84"   marker-start="url(#b)" /></g></g><g id="bl" class="DirectedInteraction" color="#000" ><g color="#000" fill="transparent"  filter="url(#a)" stroke="#000" stroke-dasharray="0, 5.8, 229.6909764725604, 0"><path class="EdgeBody" d="m838 696 220 84"   marker-start="url(#b)" /></g></g><g id="bm" class="DirectedInteraction" color="#000" ><g color="#000" fill="transparent"  filter="url(#a)" stroke="#000" stroke-dasharray="0, 5.8, 305.73811965793203, 0"><path class="EdgeBody" d="m758 696 300 84"   marker-start="url(#b)" /></g></g><g class="miRBase_Sequence_MI0000177 Rna P594_ENSMUSG00000065397" transform="translate(636,12)" color="#000"  name="mmu-miR-155-5p"><rect class="Icon" transform="matrix(.98765 0 0 .95238 .49383 .47619)" width="80" height="20" fill="#fff" stroke="#000"/><text class="Text" transform="translate(40,13)"   font-size="10px"  text-anchor="middle"><tspan x="0" y="0">mmu-miR-155-5p</tspan></text></g><a  class="GeneProduct P594_ENSMUSG00000028945 " transform="translate(552,72)"   name="Rheb"  ><rect class="Icon" transform="matrix(.98765 0 0 .95238 .49383 .47619)" width="80" height="20" fill="#fff" stroke="#000"/><text class="Text" transform="translate(40,13)"   font-size="10px"  text-anchor="middle"><tspan x="0" y="0">Rheb</tspan></text></a><a  class="GeneProduct P594_ENSMUSG00000038037 " transform="translate(708,73)"   name="Socs1"  ><rect class="Icon" transform="matrix(.98765 0 0 .95238 .49383 .47619)" width="80" height="20" fill="#fff" stroke="#000"/><text class="Text" transform="translate(40,13)"   font-size="10px"  text-anchor="middle"><tspan x="0" y="0">Socs1</tspan></text></a><a class="WikiPathways_WP65 Pathway " transform="translate(602,143)" color="#14961e"  name="Insulin Signaling"  ><use class="Icon" width="134" height="20" fill="transparent"  stroke="#14961e" stroke-width="0" xlink:href="#d"/><text class="Text" transform="translate(67,14)" fill="#14961e"  font-size="12px" font-weight="bold" stroke="black" stroke-width="0" text-anchor="middle"><tspan x="0" y="0">Insulin Signaling</tspan></text></a><a  class="GeneProduct P594_ENSMUSG00000026254 " transform="translate(62,305)"   name="Eif4e2"  ><rect class="Icon" transform="matrix(.98765 0 0 .95238 .49383 .47619)" width="80" height="20" fill="#fff" stroke="#000"/><text class="Text" transform="translate(40,13)"   font-size="10px"  text-anchor="middle"><tspan x="0" y="0">Eif4e2</tspan></text></a><a  class="GeneProduct P594_ENSMUSG00000035725 " transform="translate(142,305)"   name="Prkx"  ><rect class="Icon" transform="matrix(.98765 0 0 .95238 .49383 .47619)" width="80" height="20" fill="#fff" stroke="#000"/><text class="Text" transform="translate(40,13)"   font-size="10px"  text-anchor="middle"><tspan x="0" y="0">Prkx</tspan></text></a><a  class="GeneProduct P594_ENSMUSG00000006134 " transform="translate(222,305)"   name="Crkl"  ><rect class="Icon" transform="matrix(.98765 0 0 .95238 .49383 .47619)" width="80" height="20" fill="#fff" stroke="#000"/><text class="Text" transform="translate(40,13)"   font-size="10px"  text-anchor="middle"><tspan x="0" y="0">Crkl</tspan></text></a><a  class="GeneProduct P594_ENSMUSG00000024959 " transform="translate(302,305)"   name="Bad"  ><rect class="Icon" transform="matrix(.98765 0 0 .95238 .49383 .47619)" width="80" height="20" fill="#fff" stroke="#000"/><text class="Text" transform="translate(40,13)"   font-size="10px"  text-anchor="middle"><tspan x="0" y="0">Bad</tspan></text></a><a  class="GeneProduct P594_ENSMUSG00000020532 " transform="translate(382,305)"   name="Acaca"  ><rect class="Icon" transform="matrix(.98765 0 0 .95238 .49383 .47619)" width="80" height="20" fill="#fff" stroke="#000"/><text class="Text" transform="translate(40,13)"   font-size="10px"  text-anchor="middle"><tspan x="0" y="0">Acaca</tspan></text></a><a  class="GeneProduct P594_ENSMUSG00000041417 " transform="translate(462,305)"   name="Pik3r1"  ><rect class="Icon" transform="matrix(.98765 0 0 .95238 .49383 .47619)" width="80" height="20" fill="#fff" stroke="#000"/><text class="Text" transform="translate(40,13)"   font-size="10px"  text-anchor="middle"><tspan x="0" y="0">Pik3r1</tspan></text></a><a  class="GeneProduct P594_ENSMUSG00000032601 " transform="translate(542,305)"   name="Prkar2a"  ><rect class="Icon" transform="matrix(.98765 0 0 .95238 .49383 .47619)" width="80" height="20" fill="#fff" stroke="#000"/><text class="Text" transform="translate(40,13)"   font-size="10px"  text-anchor="middle"><tspan x="0" y="0">Prkar2a</tspan></text></a><a  class="GeneProduct P594_ENSMUSG00000024241 " transform="translate(622,305)"   name="Sos1"  ><rect class="Icon" transform="matrix(.98765 0 0 .95238 .49383 .47619)" width="80" height="20" fill="#fff" stroke="#000"/><text class="Text" transform="translate(40,13)"   font-size="10px"  text-anchor="middle"><tspan x="0" y="0">Sos1</tspan></text></a><a  class="GeneProduct P594_ENSMUSG00000028698 " transform="translate(702,305)"   name="Pik3r3"  ><rect class="Icon" transform="matrix(.98765 0 0 .95238 .49383 .47619)" width="80" height="20" fill="#fff" stroke="#000"/><text class="Text" transform="translate(40,13)"   font-size="10px"  text-anchor="middle"><tspan x="0" y="0">Pik3r3</tspan></text></a><a  class="GeneProduct P594_ENSMUSG00000025153 " transform="translate(782,305)"   name="Fasn"  ><rect class="Icon" transform="matrix(.98765 0 0 .95238 .49383 .47619)" width="80" height="20" fill="#fff" stroke="#000"/><text class="Text" transform="translate(40,13)"   font-size="10px"  text-anchor="middle"><tspan x="0" y="0">Fasn</tspan></text></a><a  class="GeneProduct P594_ENSMUSG00000020792 " transform="translate(862,305)"   name="Exoc7"  ><rect class="Icon" transform="matrix(.98765 0 0 .95238 .49383 .47619)" width="80" height="20" fill="#fff" stroke="#000"/><text class="Text" transform="translate(40,13)"   font-size="10px"  text-anchor="middle"><tspan x="0" y="0">Exoc7</tspan></text></a><a  class="GeneProduct P594_ENSMUSG00000063065 " transform="translate(942,305)"   name="Mapk3"  ><rect class="Icon" transform="matrix(.98765 0 0 .95238 .49383 .47619)" width="80" height="20" fill="#fff" stroke="#000"/><text class="Text" transform="translate(40,13)"   font-size="10px"  text-anchor="middle"><tspan x="0" y="0">Mapk3</tspan></text></a><a  class="GeneProduct P594_ENSMUSG00000061981 " transform="translate(1022,305)"   name="Flot2"  ><rect class="Icon" transform="matrix(.98765 0 0 .95238 .49383 .47619)" width="80" height="20" fill="#fff" stroke="#000"/><text class="Text" transform="translate(40,13)"   font-size="10px"  text-anchor="middle"><tspan x="0" y="0">Flot2</tspan></text></a><a  class="GeneProduct P594_ENSMUSG00000000441 " transform="translate(1102,305)"   name="Raf1"  ><rect class="Icon" transform="matrix(.98765 0 0 .95238 .49383 .47619)" width="80" height="20" fill="#fff" stroke="#000"/><text class="Text" transform="translate(40,13)"   font-size="10px"  text-anchor="middle"><tspan x="0" y="0">Raf1</tspan></text></a><a  class="GeneProduct P594_ENSMUSG00000028991 " transform="translate(1182,305)"   name="Mtor"  ><rect class="Icon" transform="matrix(.98765 0 0 .95238 .49383 .47619)" width="80" height="20" fill="#fff" stroke="#000"/><text class="Text" transform="translate(40,13)"   font-size="10px"  text-anchor="middle"><tspan x="0" y="0">Mtor</tspan></text></a><g class="miRBase_Sequence_MIMAT0004750 Rna" transform="translate(367,437)" color="#000"  name="mmu-miR-425-5p"><rect class="Icon" transform="matrix(.98765 0 0 .95238 .49383 .47619)" width="80" height="20" fill="#fff" stroke="#000"/><text class="Text" transform="translate(40,13)"   font-size="10px"  text-anchor="middle"><tspan x="0" y="0">mmu-miR-425-5p</tspan></text></g><g class="miRBase_Sequence_MIMAT0000526 Rna" transform="translate(915,435)" color="#000"  name="mmu-miR-15a-5p"><rect class="Icon" transform="matrix(.98765 0 0 .95238 .49383 .47619)" width="80" height="20" fill="#fff" stroke="#000"/><text class="Text" transform="translate(40,13)"   font-size="10px"  text-anchor="middle"><tspan x="0" y="0">mmu-miR-15a-5p</tspan></text></g><a class="WikiPathways_WP3675 Pathway " transform="translate(888,531)" color="#14961e"  name="PI3K/AKT Signalling"  ><use class="Icon" width="135" height="20" fill="transparent"  stroke="#14961e" stroke-width="0" xlink:href="#d"/><text class="Text" transform="translate(67.5,14)" fill="#14961e"  font-size="12px" font-weight="bold" stroke="black" stroke-width="0" text-anchor="middle"><tspan x="0" y="0">PI3K/AKT Signalling</tspan></text></a><a  class="GeneProduct P594_ENSMUSG00000000184 " transform="translate(1075.8 531.25)"   name="Ccnd2"  ><rect class="Icon" transform="matrix(.98765 0 0 .95238 .49383 .47619)" width="80" height="20" fill="#fff" stroke="#000"/><text class="Text" transform="translate(40,13)"   font-size="10px"  text-anchor="middle"><tspan x="0" y="0">Ccnd2</tspan></text></a><a  class="GeneProduct P594_ENSMUSG00000003031 " transform="translate(1075.8 511.25)"   name="Cdkn1b"  ><rect class="Icon" transform="matrix(.98765 0 0 .95238 .49383 .47619)" width="80" height="20" fill="#fff" stroke="#000"/><text class="Text" transform="translate(40,13)"   font-size="10px"  text-anchor="middle"><tspan x="0" y="0">Cdkn1b</tspan></text></a><a  class="GeneProduct P594_ENSMUSG00000057329 " transform="translate(1075.8 551.25)"   name="Bcl2"  ><rect class="Icon" transform="matrix(.98765 0 0 .95238 .49383 .47619)" width="80" height="20" fill="#fff" stroke="#000"/><text class="Text" transform="translate(40,13)"   font-size="10px"  text-anchor="middle"><tspan x="0" y="0">Bcl2</tspan></text></a><g class="miRBase_Sequence_MIMAT0003188 Rna" transform="translate(1199,519)" color="#000"  name="mmu-miR-503-5p"><rect class="Icon" transform="matrix(.98765 0 0 .95238 .49383 .47619)" width="80" height="20" fill="#fff" stroke="#000"/><text class="Text" transform="translate(40,13)"   font-size="10px"  text-anchor="middle"><tspan x="0" y="0">mmu-miR-503-5p</tspan></text></g><g class="miRBase_Sequence_MIMAT0000527 Rna" transform="translate(1199,539)" color="#000"  name="mmu-miR-16-5p"><rect class="Icon" transform="matrix(.98765 0 0 .95238 .49383 .47619)" width="80" height="20" fill="#fff" stroke="#000"/><text class="Text" transform="translate(40,13)"   font-size="10px"  text-anchor="middle"><tspan x="0" y="0">mmu-miR-16-5p</tspan></text></g><a  class="GeneProduct P594_ENSMUSG00000026043 " transform="translate(718,676)"   name="Col3a1"  ><rect class="Icon" transform="matrix(.98765 0 0 .95238 .49383 .47619)" width="80" height="20" fill="#fff" stroke="#000"/><text class="Text" transform="translate(40,13)"   font-size="10px"  text-anchor="middle"><tspan x="0" y="0">Col3a1</tspan></text></a><a  class="GeneProduct P594_ENSMUSG00000001506 " transform="translate(798,676)"   name="Col1a1"  ><rect class="Icon" transform="matrix(.98765 0 0 .95238 .49383 .47619)" width="80" height="20" fill="#fff" stroke="#000"/><text class="Text" transform="translate(40,13)"   font-size="10px"  text-anchor="middle"><tspan x="0" y="0">Col1a1</tspan></text></a><a  class="GeneProduct P594_ENSMUSG00000029661 " transform="translate(878,676)"   name="Col1a2"  ><rect class="Icon" transform="matrix(.98765 0 0 .95238 .49383 .47619)" width="80" height="20" fill="#fff" stroke="#000"/><text class="Text" transform="translate(40,13)"   font-size="10px"  text-anchor="middle"><tspan x="0" y="0">Col1a2</tspan></text></a><a  class="GeneProduct P594_ENSMUSG00000004098 " transform="translate(958,676)"   name="Col5a3"  ><rect class="Icon" transform="matrix(.98765 0 0 .95238 .49383 .47619)" width="80" height="20" fill="#fff" stroke="#000"/><text class="Text" transform="translate(40,13)"   font-size="10px"  text-anchor="middle"><tspan x="0" y="0">Col5a3</tspan></text></a><a  class="GeneProduct P594_ENSMUSG00000027381 " transform="translate(1038,676)"   name="Bcl2l11"  ><rect class="Icon" transform="matrix(.98765 0 0 .95238 .49383 .47619)" width="80" height="20" fill="#fff" stroke="#000"/><text class="Text" transform="translate(40,13)"   font-size="10px"  text-anchor="middle"><tspan x="0" y="0">Bcl2l11</tspan></text></a><a  class="GeneProduct P594_ENSMUSG00000031503 " transform="translate(1118,676)"   name="Col4a2"  ><rect class="Icon" transform="matrix(.98765 0 0 .95238 .49383 .47619)" width="80" height="20" fill="#fff" stroke="#000"/><text class="Text" transform="translate(40,13)"   font-size="10px"  text-anchor="middle"><tspan x="0" y="0">Col4a2</tspan></text></a><g class="miRBase_Sequence_MIMAT0000535 Rna" transform="translate(798,783)" color="#000"  name="mmu-miR-29a-3p"><rect class="Icon" transform="matrix(.98765 0 0 .95238 .49383 .47619)" width="80" height="20" fill="#fff" stroke="#000"/><text class="Text" transform="translate(40,13)"   font-size="10px"  text-anchor="middle"><tspan x="0" y="0">mmu-miR-29a-3p</tspan></text></g><g class="miRBase_Sequence_MIMAT0000127 Rna" transform="translate(1038,780)" color="#000"  name="mmu-miR-29b-3p"><rect class="Icon" transform="matrix(.98765 0 0 .95238 .49383 .47619)" width="80" height="20" fill="#fff" stroke="#000"/><text class="Text" transform="translate(40,13)"   font-size="10px"  text-anchor="middle"><tspan x="0" y="0">mmu-miR-29b-3p</tspan></text></g><text class="Text" transform="translate(5,27)" dominant-baseline="central" fill="black"  font-size="12px" font-weight="bold" overflow="visible" ><tspan x="0" y="-9">Name: Dysregulated miRNA targeting in insulin/PI3K-AKT signaling</tspan> <tspan x="0" y="9">Organism: Mus musculus</tspan></text></g></svg>
