<?xml version="1.0" encoding="UTF-8"?>
<!--
  WikiPathways page: https://www.wikipathways.org/index.php/Pathway:WP3853
  URL for this compressed file: https://github.com/eweitz/cachome/tree/main/data/wikipathways/WP3853.svg
  Source code for compression: https://github.com/eweitz/cachome/tree/main/src/wikipathways.py
-->
<svg class="Diagram" width="800" height="600" color="black" baseProfile="full" prefix="schema:http://schema.org/" preserveAspectRatio="xMidYMid" version="1.1" viewBox="0 0 1091 541" vocab="http://vocabularies.wikipathways.org/wp#" xmlns="http://www.w3.org/2000/svg" xmlns:xlink="http://www.w3.org/1999/xlink"><style>svg {font-family: 'Liberation Sans', Arial, sans-serif; }</style><defs><filter id="f" x="-50%" y="-50%" width="200%" height="200%"><feComposite in="SourceGraphic" in2="SourceGraphic" result="doubleDark"/><feMorphology in="doubleDark" operator="dilate" radius="0.16666666666666666" result="in2Double"/><feMorphology in="SourceGraphic" operator="dilate" radius="3" result="inDouble"/><feComposite in="inDouble" in2="in2Double" operator="out" result="doubleResult"/></filter><filter id="a" x="0" y="0" width="1091" height="541" filterUnits="userSpaceOnUse"><feColorMatrix in="SourceGraphic" values="-1   0   0 0 0                   0  -1   0 0 0                   0   0  -1 0 0                   0   0   0 1 0"/></filter><marker id="b" stroke-dasharray="99999" markerHeight="12" markerUnits="userSpaceOnUse" markerWidth="12" orient="auto" preserveAspectRatio="none" refX="12" refY="6" viewBox="0 0 12 12"><path transform="rotate(180 6 6)" d="M12 11L0 6l12-5z" fill="currentColor" stroke-width="0"/></marker><marker id="d" stroke-dasharray="99999" markerHeight="20" markerUnits="userSpaceOnUse" markerWidth="10" orient="auto" preserveAspectRatio="none" refX="10" refY="10" viewBox="0 0 10 20"><path d="m3 0v20" fill="currentColor" stroke="currentColor"/></marker><marker id="e" stroke-dasharray="99999" markerHeight="12" markerUnits="userSpaceOnUse" markerWidth="12" orient="auto" preserveAspectRatio="none" refX="12" refY="6" viewBox="0 0 12 12"><g transform="rotate(180 6 6)" fill="none"><path d="m12 6"/><path d="M0 6l11 5V1z" stroke="#000"/></g></marker><symbol id="h" overflow="visible" preserveAspectRatio="none" viewBox="0 0 100 100"><path d="M1.5 49.5c0-16.167 8.167-24.25 24.5-24.25S50.5 17.167 50.5 1c0 16.167 8.167 24.25 24.5 24.25s24.5 8.083 24.5 24.25" stroke="currentColor" vector-effect="non-scaling-stroke"/></symbol><symbol id="g" overflow="visible" preserveAspectRatio="none" viewBox="0 0 50 50"><ellipse cx="25" cy="25" rx="25" ry="25" stroke="currentColor" vector-effect="non-scaling-stroke"/></symbol><symbol id="c" preserveAspectRatio="none" viewBox="0 0 100 100"/></defs><g class="Viewport" color="black"  name="Name: ERK pathway in Huntington's disease Organism: Homo sapiens"><rect class="Icon" width="1091" height="541" fill="#fff" stroke="#000" stroke-width="0"/><g id="i" class="Interaction" color="#000" ><g color="#000" fill="transparent"  filter="url(#a)" stroke="#000" stroke-dasharray="175.14966373836654, 7"><path class="EdgeBody" d="M505.5,35.5L333,94"   marker-end="url(#d)" /></g></g><g id="j" class="Interaction" color="#000" ><g color="#000" fill="transparent"  filter="url(#a)" stroke="#000" stroke-dasharray="42.5, 7"><path class="EdgeBody" d="m528 35.5v49.5"   marker-end="url(#d)" /></g></g><g id="k" class="Interaction" color="#000" ><g color="#000" fill="transparent"  filter="url(#a)" stroke="#000" stroke-dasharray="191.6881841647411, 11"><path class="EdgeBody" d="M550.5,35.5L746,89"   marker-end="url(#e)" /></g></g><g id="l" class="DirectedInteraction" color="#000" ><g color="#000" fill="transparent"  filter="url(#a)" stroke="#000" stroke-dasharray="90.46006440887103, 5.8"><path class="EdgeBody" d="m294 172 79 55"   marker-end="url(#b)" /></g></g><g id="m" class="DirectedInteraction" color="#000" ><g color="#000" fill="transparent"  filter="url(#a)" stroke="#000" stroke-dasharray="96.59628899525607, 5.8"><path class="EdgeBody" d="m786 173-87 54"   marker-end="url(#b)" /></g></g><g id="n" class="DirectedInteraction" color="#000" ><g color="#000" fill="transparent"  filter="url(#a)" stroke="#000" stroke-dasharray="52.2, 5.8"><path class="EdgeBody" d="m659 237v58"   marker-end="url(#b)" /></g></g><g id="o" class="DirectedInteraction" color="#000" ><g color="#000" fill="transparent"  filter="url(#a)" stroke="#000" stroke-dasharray="23.2, 5.8"><path class="EdgeBody" d="m659 315v29"   marker-end="url(#b)" /></g></g><g id="p" class="DirectedInteraction" color="#000" ><g color="#000" fill="transparent"  filter="url(#a)" stroke="#000" stroke-dasharray="90.24686356149273, 5.8"><path class="EdgeBody" d="m528 167-75 60"   marker-end="url(#b)" /></g></g><g id="q" class="DirectedInteraction" color="#000" ><g color="#000" fill="transparent"  filter="url(#a)" stroke="#000" stroke-dasharray="36.2, 5.8"><path class="EdgeBody" d="m528 105v42"   marker-end="url(#b)" /></g></g><g id="r" class="DirectedInteraction" color="#000" ><g color="#000" fill="transparent"  filter="url(#a)" stroke="#000" stroke-dasharray="160.2, 5.8"><path class="EdgeBody" d="m453 227h166"   marker-end="url(#b)" /></g></g><g id="s" class="DirectedInteraction" color="#000" ><g color="#000" fill="transparent"  filter="url(#a)" stroke="#000" stroke-dasharray="169.8929139151605, 5.8"><path class="EdgeBody" d="m639 364-162 68"   marker-end="url(#b)" /></g></g><g id="t" class="DirectedInteraction" color="#000" ><g color="#000" fill="transparent"  filter="url(#a)" stroke="#000" stroke-dasharray="48.2, 5.8"><path class="EdgeBody" d="m786 99v54"   marker-end="url(#b)" /></g></g><g id="u" class="DirectedInteraction" color="#000" ><g color="#000" fill="transparent"  filter="url(#a)" stroke="#000" stroke-dasharray="42.21041553663122, 5.8"><path class="EdgeBody" d="m293 104 1 48"   marker-end="url(#b)" /></g></g><g id="v" class="DirectedInteraction" color="#000" ><g color="#000" fill="transparent"  filter="url(#a)" stroke="#000" stroke-dasharray="36.2, 5.8"><path class="EdgeBody" d="m659 364v42"   marker-end="url(#b)" /></g></g><g id="w" class="DirectedInteraction" color="#000" ><g color="#000" fill="transparent"  filter="url(#a)" stroke="#000" stroke-dasharray="161.64252745345192, 5.8"><path class="EdgeBody" d="m679 364 161 46"   marker-end="url(#b)" /></g></g><g class="SingleFreeNode Shape PhysicalEntity CellularComponent Cell" transform="translate(227.5,157.5)" color="#c0c0c0" ><g fill="transparent"  filter="url(#f)" stroke="#c0c0c0" stroke-width="3"><rect class="Icon" transform="matrix(.98336 0 0 .9673 5.9001 5.8038)" width="709" height="355" rx="15" ry="15"   /></g></g><g class="SingleFreeNode Shape" transform="translate(118 283.05) rotate(269.33 84.994 14.017)" color="#000" ><use class="Icon" transform="matrix(.99415 0 0 .96556 .49708 .48278)" width="169.98832272025365" height="28.03323881340264" fill="transparent"  stroke="#000" xlink:href="#h"/></g><g class="Label" transform="translate(577,469)" color="#000"  name="Transcription Factors"><use class="Icon" width="151" height="20" fill="transparent"  stroke="#000" stroke-width="0" xlink:href="#c"/><text class="Text" transform="translate(75.5,14)"   font-size="12px" font-weight="bold"  text-anchor="middle"><tspan x="0" y="0">Transcription Factors</tspan></text></g><g class="Label" transform="translate(70,287)" color="#000"  name="Signal Transducers"><use class="Icon" width="119" height="20" fill="transparent"  stroke="#000" stroke-width="0" xlink:href="#c"/><text class="Text" transform="translate(59.5,14)"   font-size="12px" font-weight="bold"  text-anchor="middle"><tspan x="0" y="0">Signal Transducers</tspan></text></g><g class="Label" transform="translate(401,467)" color="#000"  name="Downstream Kinases"><use class="Icon" width="132" height="20" fill="transparent"  stroke="#000" stroke-width="0" xlink:href="#c"/><text class="Text" transform="translate(66,14)"   font-size="12px" font-weight="bold"  text-anchor="middle"><tspan x="0" y="0">Downstream Kinases</tspan></text></g><g class="Label" transform="translate(89,154)" color="#000"  name="Receptors"><use class="Icon" width="80" height="20" fill="transparent"  stroke="#000" stroke-width="0" xlink:href="#c"/><text class="Text" transform="translate(40,14)"   font-size="12px" font-weight="bold"  text-anchor="middle"><tspan x="0" y="0">Receptors</tspan></text></g><g class="Label" transform="translate(81,422)" color="#000"  name="Downstream Targets"><use class="Icon" width="134" height="20" fill="transparent"  stroke="#000" stroke-width="0" xlink:href="#c"/><text class="Text" transform="translate(67,14)"   font-size="12px" font-weight="bold"  text-anchor="middle"><tspan x="0" y="0">Downstream Targets</tspan></text></g><g class="Label" transform="translate(776,468)" color="#000"  name="Apoptotic Molecules"><use class="Icon" width="128" height="20" fill="transparent"  stroke="#000" stroke-width="0" xlink:href="#c"/><text class="Text" transform="translate(64,14)"   font-size="12px" font-weight="bold"  text-anchor="middle"><tspan x="0" y="0">Apoptotic Molecules</tspan></text></g><g class="Label" transform="translate(91,84)" color="#000"  name="Ligands"><use class="Icon" width="80" height="20" fill="transparent"  stroke="#000" stroke-width="0" xlink:href="#c"/><text class="Text" transform="translate(40,14)"   font-size="12px" font-weight="bold"  text-anchor="middle"><tspan x="0" y="0">Ligands</tspan></text></g><a  class="GeneProduct HRAS " transform="translate(373,217)"   name="RAS"  ><rect class="Icon" transform="matrix(.98765 0 0 .95238 .49383 .47619)" width="80" height="20" fill="#fff" stroke="#000"/><text class="Text" transform="translate(40,13)"   font-size="10px"  text-anchor="middle"><tspan x="0" y="0">RAS</tspan></text></a><a  class="GeneProduct NTRK2 " transform="translate(254,152)"   name="TrkB"  ><rect class="Icon" transform="matrix(.98765 0 0 .95238 .49383 .47619)" width="80" height="20" fill="#fff" stroke="#000"/><text class="Text" transform="translate(40,13)"   font-size="10px"  text-anchor="middle"><tspan x="0" y="0">TrkB</tspan></text></a><a  class="GeneProduct RPS6KA5 " transform="translate(437,432)"   name="MSK1"  ><rect class="Icon" transform="matrix(.98765 0 0 .95238 .49383 .47619)" width="80" height="20" fill="#fff" stroke="#000"/><text class="Text" transform="translate(40,13)"   font-size="10px"  text-anchor="middle"><tspan x="0" y="0">MSK1</tspan></text></a><a  class="GeneProduct GRM1 " transform="translate(746,153)"   name="mGluR"  ><rect class="Icon" transform="matrix(.98765 0 0 .95238 .49383 .47619)" width="80" height="20" fill="#fff" stroke="#000"/><text class="Text" transform="translate(40,13)"   font-size="10px"  text-anchor="middle"><tspan x="0" y="0">mGluR</tspan></text></a><a  class="GeneProduct MAPK1 " transform="translate(619,344)"   name="ERK"  ><rect class="Icon" transform="matrix(.98765 0 0 .95238 .49383 .47619)" width="80" height="20" fill="#fff" stroke="#000"/><text class="Text" transform="translate(40,13)"   font-size="10px"  text-anchor="middle"><tspan x="0" y="0">ERK</tspan></text></a><a  class="GeneProduct BDNF " transform="translate(253,84)"   name="BDNF"  ><rect class="Icon" transform="matrix(.98765 0 0 .95238 .49383 .47619)" width="80" height="20" fill="#fff" stroke="#000"/><text class="Text" transform="translate(40,13)"   font-size="10px"  text-anchor="middle"><tspan x="0" y="0">BDNF</tspan></text></a><a  class="GeneProduct HTT " transform="translate(483,10.5)"   name="HTT"  ><rect class="Icon" transform="matrix(.98901 0 0 .96154 .49451 .48077)" width="90" height="25" fill="#fff" stroke="#000"/><g class="Burr State" transform="translate(82.5,17.5)" color="#000" ><use class="Icon" transform="matrix(.9375 0 0 .9375 .46875 .46875)" width="15" height="15" fill="#fff" stroke="#000" xlink:href="#g"/></g><text class="Text" transform="translate(45,16.5)"   font-size="12px"  text-anchor="middle"><tspan x="0" y="0">HTT</tspan></text></a><a  class="GeneProduct EGF " transform="translate(488,85)"   name="EGF"  ><rect class="Icon" transform="matrix(.98765 0 0 .95238 .49383 .47619)" width="80" height="20" fill="#fff" stroke="#000"/><text class="Text" transform="translate(40,13)"   font-size="10px"  text-anchor="middle"><tspan x="0" y="0">EGF</tspan></text></a><a  class="GeneProduct EGFR " transform="translate(488,147)"   name="EGFR"  ><rect class="Icon" transform="matrix(.98765 0 0 .95238 .49383 .47619)" width="80" height="20" fill="#fff" stroke="#000"/><text class="Text" transform="translate(40,13)"   font-size="10px"  text-anchor="middle"><tspan x="0" y="0">EGFR</tspan></text></a><a  class="GeneProduct RAF1 " transform="translate(619,217)"   name="RAF1"  ><rect class="Icon" transform="matrix(.98765 0 0 .95238 .49383 .47619)" width="80" height="20" fill="#fff" stroke="#000"/><text class="Text" transform="translate(40,13)"   font-size="10px"  text-anchor="middle"><tspan x="0" y="0">RAF1</tspan></text></a><a  class="GeneProduct MAP2K7 " transform="translate(619,295)"   name="MEK"  ><rect class="Icon" transform="matrix(.98765 0 0 .95238 .49383 .47619)" width="80" height="20" fill="#fff" stroke="#000"/><text class="Text" transform="translate(40,13)"   font-size="10px"  text-anchor="middle"><tspan x="0" y="0">MEK</tspan></text></a><a class="Metabolite ChEBI_CHEBI_16015  " transform="translate(746,79)" color="#00f"  name="Glutamate"  ><rect class="Icon" transform="matrix(.98765 0 0 .95238 .49383 .47619)" width="80" height="20" fill="#fff" stroke="#00f"/><text class="Text" transform="translate(40,13)" fill="#00f"  font-size="10px"  text-anchor="middle"><tspan x="0" y="0">Glutamate</tspan></text></a><g class="GroupGroup" transform="translate(611,406)" color="grey" ><use class="Icon" width="96" height="56" fill="transparent"  stroke="grey" stroke-dasharray="5,3" stroke-width="0" xlink:href="#c"/><a  class="GeneProduct CREB1 " transform="translate(8,28)"   name="CREB"  ><rect class="Icon" transform="matrix(.98765 0 0 .95238 .49383 .47619)" width="80" height="20" fill="#fff" stroke="#000"/><text class="Text" transform="translate(40,13)"   font-size="10px"  text-anchor="middle"><tspan x="0" y="0">CREB</tspan></text></a><a  class="GeneProduct ELK1 " transform="translate(8,8)"   name="ELK1"  ><rect class="Icon" transform="matrix(.98765 0 0 .95238 .49383 .47619)" width="80" height="20" fill="#fff" stroke="#000"/><text class="Text" transform="translate(40,13)"   font-size="10px"  text-anchor="middle"><tspan x="0" y="0">ELK1</tspan></text></a></g><g class="GroupGroup" transform="translate(792,410)" color="grey" ><use class="Icon" width="96" height="56" fill="transparent"  stroke="grey" stroke-dasharray="5,3" stroke-width="0" xlink:href="#c"/><a  class="GeneProduct CASP7 " transform="translate(8,8)"   name="CASP7"  ><rect class="Icon" transform="matrix(.98765 0 0 .95238 .49383 .47619)" width="80" height="20" fill="#fff" stroke="#000"/><text class="Text" transform="translate(40,13)"   font-size="10px"  text-anchor="middle"><tspan x="0" y="0">CASP7</tspan></text></a><a  class="GeneProduct CASP3 " transform="translate(8,28)"   name="CASP3"  ><rect class="Icon" transform="matrix(.98765 0 0 .95238 .49383 .47619)" width="80" height="20" fill="#fff" stroke="#000"/><text class="Text" transform="translate(40,13)"   font-size="10px"  text-anchor="middle"><tspan x="0" y="0">CASP3</tspan></text></a></g><text class="Text" transform="translate(5,27)" dominant-baseline="central" fill="black"  font-size="12px" font-weight="bold" overflow="visible" ><tspan x="0" y="-9">Name: ERK pathway in Huntington's disease</tspan> <tspan x="0" y="9">Organism: Homo sapiens</tspan></text></g></svg>
