<?xml version="1.0" encoding="UTF-8"?>
<!--
  WikiPathways page: https://www.wikipathways.org/index.php/Pathway:WP3869
  URL for this compressed file: https://github.com/eweitz/cachome/tree/main/data/wikipathways/WP3869.svg
  Source code for compression: https://github.com/eweitz/cachome/tree/main/src/wikipathways.py
-->
<svg class="Diagram" width="800" height="600" color="black" baseProfile="full" prefix="schema:http://schema.org/" preserveAspectRatio="xMidYMid" version="1.1" viewBox="0 0 1056.3 731" vocab="http://vocabularies.wikipathways.org/wp#" xmlns="http://www.w3.org/2000/svg" xmlns:xlink="http://www.w3.org/1999/xlink"><style>svg {font-family: 'Liberation Sans', Arial, sans-serif; }</style><defs><filter id="h" x="-50%" y="-50%" width="200%" height="200%"><feComposite in="SourceGraphic" in2="SourceGraphic" result="doubleDark"/><feMorphology in="doubleDark" operator="dilate" radius="0.16666666666666666" result="in2Double"/><feMorphology in="SourceGraphic" operator="dilate" radius="3" result="inDouble"/><feComposite in="inDouble" in2="in2Double" operator="out" result="doubleResult"/></filter><filter id="a" x="0" y="0" width="1056.3" height="731" filterUnits="userSpaceOnUse"><feColorMatrix in="SourceGraphic" values="-1   0   0 0 0                   0  -1   0 0 0                   0   0  -1 0 0                   0   0   0 1 0"/></filter><marker id="j" stroke-dasharray="99999" markerHeight="12" markerUnits="userSpaceOnUse" markerWidth="12" orient="auto" preserveAspectRatio="none" refX="12" refY="6" viewBox="0 0 12 12"><path transform="rotate(180 6 6)" d="M12 11L0 6l12-5z" fill="currentColor" stroke-width="0"/></marker><marker id="f" stroke-dasharray="99999" markerHeight="12" markerUnits="userSpaceOnUse" markerWidth="12" orient="auto" preserveAspectRatio="none" refX="12" refY="6" viewBox="0 0 12 12"><path transform="rotate(180 6 6)" d="M12 12L0 6l12-6-7 6z" fill="currentColor" stroke-width="0"/></marker><marker id="e" stroke-dasharray="99999" markerHeight="12" markerUnits="userSpaceOnUse" markerWidth="12" orient="auto" preserveAspectRatio="none" refX="12" refY="6" viewBox="0 0 12 12"><circle transform="rotate(180 6 6)" cx="6" cy="6" r="5.3" fill="none" stroke="#000"/></marker><marker id="c" stroke-dasharray="99999" markerHeight="12" markerUnits="userSpaceOnUse" markerWidth="12" orient="auto" preserveAspectRatio="none" refX="12" refY="6" viewBox="0 0 12 12"><path transform="rotate(180 6 6)" d="M12 11L0 6l12-5z" fill="currentColor" stroke-width="0"/></marker><marker id="g" stroke-dasharray="99999" markerHeight="20" markerUnits="userSpaceOnUse" markerWidth="10" orient="auto" preserveAspectRatio="none" refX="10" refY="10" viewBox="0 0 10 20"><path d="m3 0v20" fill="currentColor" stroke="currentColor"/></marker><marker id="d" stroke-dasharray="99999" markerHeight="12" markerUnits="userSpaceOnUse" markerWidth="12" orient="auto" preserveAspectRatio="none" refX="12" refY="6" viewBox="0 0 12 12"><g transform="rotate(180 6 6)" fill="none"><path d="m12 6"/><path d="M0 6l11 5V1z" stroke="#000"/></g></marker><symbol id="k" overflow="visible" preserveAspectRatio="none" viewBox="0 0 100 100"><circle cx="50" cy="50" r="49" stroke="currentColor" vector-effect="non-scaling-stroke"/><path d="m1 1 99 99" stroke="currentColor" vector-effect="non-scaling-stroke"/></symbol><symbol id="i" overflow="visible" preserveAspectRatio="none" viewBox="0 0 100 100"><path d="M0 25L25 0h50l25 25v50l-25 25H25L0 75z" stroke="currentColor" vector-effect="non-scaling-stroke"/></symbol><symbol id="b" preserveAspectRatio="none" viewBox="0 0 100 100"/></defs><g class="Viewport" color="black"  name="Name: Cannabinoid receptor signaling Organism: Homo sapiens"><rect class="Icon" width="1056.3" height="731" fill="#fff" stroke="#000" stroke-width="0"/><g class="SingleFreeNode Shape PhysicalEntity CellularComponent Cell" transform="translate(580,5.5)" color="#c0c0c0" ><g fill="transparent"  filter="url(#h)" stroke="#c0c0c0" stroke-width="3"><rect class="Icon" transform="matrix(.96197 0 0 .95539 5.7718 5.7323)" width="303.5" height="257" rx="15" ry="15"   /></g></g><g id="l" class="Interaction" color="#000" ><g color="#000" fill="transparent"  filter="url(#a)" stroke="#000" stroke-dasharray="114.24388705532276, 5.8"><path class="EdgeBody" d="m537.65 409.68-87.718 81.952"   marker-end="url(#c)" /></g><g class="Burr Anchor" transform="translate(486.72 457.26)" ><use class="Icon" width="0" height="0" fill="#141414" stroke-width="0" xlink:href="#b"/></g></g><g id="m" class="Edge GraphicalLine DirectedInteraction" color="#000" ><g color="#000" fill="transparent"  filter="url(#a)" stroke="#000" stroke-dasharray="14.714913550988577, 5.8"><path class="EdgeBody" d="m211.43 80.952 19.048-7.619"   marker-end="url(#j)" /></g></g><g id="n" class="Interaction" color="#000" ><g color="#000" fill="transparent"  filter="url(#a)" stroke="#000" stroke-dasharray="16.445452278404534, 11"><path class="EdgeBody" d="m822.15 79.018 0.58186 27.439"   marker-end="url(#d)" /></g></g><g id="o" class="Interaction" color="#000" ><g color="#000" fill="transparent"  filter="url(#a)" stroke="#000" stroke-dasharray="95.66019972597309, 5.8"><path class="EdgeBody" d="m680.69 68.418 101.46 0.59983"   marker-end="url(#c)" /></g><g class="Burr Anchor" transform="translate(726.15 68.687)" ><use class="Icon" width="0" height="0" fill="#141414" stroke-width="0" xlink:href="#b"/></g></g><g id="p" class="Interaction" color="#000" ><g color="#000" fill="transparent"  filter="url(#a)" stroke="#000" stroke-dasharray="107.15326678553711, 7"><path class="EdgeBody" d="m723.29 246 2.1348-114.13"   marker-end="url(#g)" /></g></g><g id="q" class="Interaction" color="#000" ><g color="#000" fill="transparent"  filter="url(#a)" stroke="#000" stroke-dasharray="26.261765618357142, 1"><path class="EdgeBody" d="m161.25 318.1-27.25 0.80085"   marker-end="url(#f)" /></g></g><g id="r" class="Interaction" color="#000" ><g color="#000" fill="transparent"  filter="url(#a)" stroke="#000" stroke-dasharray="129.76295750460574, 5.8"><path class="EdgeBody" d="m754.2 359.04-135.56-1.3675"   marker-end="url(#c)" /></g><g class="Burr Anchor" transform="translate(708.43 358.58)" ><use class="Icon" width="0" height="0" fill="#141414" stroke-width="0" xlink:href="#b"/></g></g><g id="s" class="Interaction" color="#000" ><g color="#000" fill="transparent"  filter="url(#a)" stroke="#000" stroke-dasharray="29.555887924584752, 11"><path class="EdgeBody" d="m375 247 23.238-33.238"   marker-end="url(#d)" /></g></g><g id="t" class="Interaction" color="#000" ><g color="#000" fill="transparent"  filter="url(#a)" stroke="#000" stroke-dasharray="55.681798869254195, 11"><path class="EdgeBody" d="m364.82 390.88-4.4851-66.531"   marker-end="url(#e)" /></g></g><g id="u" class="Interaction" color="#000" ><g color="#000" fill="transparent"  filter="url(#a)" stroke="#000" stroke-dasharray="193.80932708871427, 1"><path class="EdgeBody" d="m517.65 399.68-142.65-132.68"   marker-end="url(#f)" /></g></g><g id="v" class="Interaction" color="#000" ><g color="#000" fill="transparent"  filter="url(#a)" stroke="#000" stroke-dasharray="22.823047160749176, 11"><path class="EdgeBody" d="m267.66 597.18 0.011317 33.823"   marker-end="url(#d)" /></g></g><g id="w" class="Interaction" color="#000" ><g color="#000" fill="transparent"  filter="url(#a)" stroke="#000" stroke-dasharray="70.10777692187793, 5.8"><path class="EdgeBody" d="m670 422.63-72.355-22.952"   marker-end="url(#c)" /></g><g class="Burr Anchor" transform="translate(632.01 410.58)" ><use class="Icon" width="0" height="0" fill="#141414" stroke-width="0" xlink:href="#b"/></g></g><g id="x" class="Interaction" color="#000" ><g color="#000" fill="transparent"  filter="url(#a)" stroke="#000" stroke-dasharray="164.9523809523809, 7"><path class="EdgeBody" d="m335 247v-155.48l-16.476-2e-14"   marker-end="url(#g)" /></g></g><g id="y" class="Interaction" color="#000" ><g color="#000" fill="transparent"  filter="url(#a)" stroke="#000" stroke-dasharray="168.51481481481466, 5.8"><path class="EdgeBody" d="m181.25 328.1v29.098h-116.25v28.967"   marker-end="url(#c)" /></g><g class="Burr Anchor" transform="translate(143.88 357.2)" ><use class="Icon" width="0" height="0" fill="#141414" stroke-width="0" xlink:href="#b"/></g></g><g id="z" class="Interaction" color="#000" ><g color="#000" fill="transparent"  filter="url(#a)" stroke="#000" stroke-dasharray="167.8539094650206, 7"><path class="EdgeBody" d="m201.25 308.1v-20h133.75v-21.104"   marker-end="url(#g)" /></g></g><g id="aa" class="Interaction" color="#000" ><g color="#000" fill="transparent"  filter="url(#a)" stroke="#000" stroke-dasharray="181.3154710458101, 11"><path class="EdgeBody" d="m628 607.32h-80v-112.32"   marker-end="url(#d)" /></g></g><g id="ab" class="Interaction" color="#000" ><g color="#000" fill="transparent"  filter="url(#a)" stroke="#000" stroke-dasharray="61.18247378952769, 11"><path class="EdgeBody" d="m763.38 405.38-54.956-46.799"   marker-end="url(#e)" /></g></g><g id="ac" class="Interaction" color="#000" ><g color="#000" fill="transparent"  filter="url(#a)" stroke="#000" stroke-dasharray="26.571650821088905, 5.8"><path class="EdgeBody" d="m670 475v-32.372"   marker-end="url(#c)" /></g></g><g id="ad" class="Interaction" color="#000" ><g color="#000" fill="transparent"  filter="url(#a)" stroke="#000" stroke-dasharray="31.26227345623979, 11"><path class="EdgeBody" d="m94 308.9 1-42.25"   marker-end="url(#d)" /></g></g><g id="ae" class="Interaction" color="#000" ><g color="#000" fill="transparent"  filter="url(#a)" stroke="#000" stroke-dasharray="94.86869805881174, 11"><path class="EdgeBody" d="m548 475 84.012-64.422"   marker-end="url(#e)" /></g></g><g id="af" class="Interaction" color="#000" ><g color="#000" fill="transparent"  filter="url(#a)" stroke="#000" stroke-dasharray="15.48378624492834, 11"><path class="EdgeBody" d="m324.82 400.88-26.483 0.13063"   marker-end="url(#e)" /></g></g><g id="ag" class="Interaction" color="#000" ><g color="#000" fill="transparent"  filter="url(#a)" stroke="#000" stroke-dasharray="23.79413057133113, 11"><path class="EdgeBody" d="m158 389-14.124-31.798"   marker-end="url(#e)" /></g></g><g id="ah" class="Interaction" color="#000" ><g color="#000" fill="transparent"  filter="url(#a)" stroke="#000" stroke-dasharray="32.18613690135077, 11"><path class="EdgeBody" d="m725.42 111.87 0.72941-43.18"   marker-end="url(#e)" /></g></g><g id="ai" class="Interaction" color="#000" ><g color="#000" fill="transparent"  filter="url(#a)" stroke="#000" stroke-dasharray="78.63079665249, 1"><path class="EdgeBody" d="m806.25 314.75-62.964-48.75"   marker-end="url(#f)" /></g></g><g id="aj" class="Interaction" color="#000" ><g color="#000" fill="transparent"  filter="url(#a)" stroke="#000" stroke-dasharray="32.24763580963993, 5.8"><path class="EdgeBody" d="m434 65.095 38.048 0.035714"   marker-end="url(#c)" /></g><g class="Burr Anchor" transform="translate(451.1 65.111)" ><use class="Icon" width="0" height="0" fill="#141414" stroke-width="0" xlink:href="#b"/></g></g><g id="ak" class="Interaction" color="#000" ><g color="#000" fill="transparent"  filter="url(#a)" stroke="#000" stroke-dasharray="19.772591651660207, 11"><path class="EdgeBody" d="m461.17 440.1 25.546 17.157"   marker-end="url(#e)" /></g></g><g id="al" class="Interaction" color="#000" ><g color="#000" fill="transparent"  filter="url(#a)" stroke="#000" stroke-dasharray="52.66615216399466, 11"><path class="EdgeBody" d="m432.5 126 18.6-60.889"   marker-end="url(#e)" /></g></g><g id="am" class="Interaction" color="#000" ><g color="#000" fill="transparent"  filter="url(#a)" stroke="#000" stroke-dasharray="18.894497773615573, 11"><path class="EdgeBody" d="m512.05 75.131-0.45318 29.891"   marker-end="url(#d)" /></g></g><g id="an" class="Interaction" color="#000" ><g color="#000" fill="transparent"  filter="url(#a)" stroke="#000" stroke-dasharray="98.50473923004597, 7"><path class="EdgeBody" d="m355 247 30.5-101"   marker-end="url(#g)" /></g></g><g id="ao" class="Interaction" color="#000" ><g color="#000" fill="transparent"  filter="url(#a)" stroke="#000" stroke-dasharray="123.7737934868391, 1"><path class="EdgeBody" d="m618.65 357.68 84.64-91.676"   marker-end="url(#f)" /></g></g><g id="ap" class="Interaction" color="#000" ><g color="#000" fill="transparent"  filter="url(#a)" stroke="#000" stroke-dasharray="197.76190476190476, 7"><path class="EdgeBody" d="m335 247v-189.33l-15.429-1.5e-14"   marker-end="url(#g)" /></g></g><g class="GroupGroup" transform="translate(134,389)" color="grey" ><use class="Icon" width="96" height="55" fill="transparent"  stroke="grey" stroke-dasharray="5,3" stroke-width="0" xlink:href="#b"/><a  class="GeneProduct CYP3A4 " transform="translate(8,27)"   name="CYP3A4"  ><rect class="Icon" transform="matrix(.98765 0 0 .95238 .49383 .47619)" width="80" height="20" fill="#fff" stroke="#000"/><text class="Text" transform="translate(40,13)"   font-size="10px"  text-anchor="middle"><tspan x="0" y="0">CYP3A4</tspan></text></a><a  class="GeneProduct CYP2C19 " transform="translate(8,8)"   name="CYP2C19"  ><rect class="Icon" transform="matrix(.98765 0 0 .95238 .49383 .47619)" width="80" height="20" fill="#fff" stroke="#000"/><text class="Text" transform="translate(40,13)"   font-size="10px"  text-anchor="middle"><tspan x="0" y="0">CYP2C19</tspan></text></a></g><g id="aq" class="Interaction" color="#000" ><g color="#000" fill="transparent"  filter="url(#a)" stroke="#000" stroke-dasharray="262.4938271604942, 1"><path class="EdgeBody" d="m201.25 328.1v29.921h64.775v168.8"   marker-end="url(#f)" /></g></g><g id="ar" class="Interaction" color="#000" ><g color="#000" fill="transparent"  filter="url(#a)" stroke="#000" stroke-dasharray="208.3154710458101, 11"><path class="EdgeBody" d="m708 607.32h81.381v-137.93"   marker-end="url(#d)" /></g></g><g id="as" class="Interaction" color="#000" ><g color="#000" fill="transparent"  filter="url(#a)" stroke="#000" stroke-dasharray="78.80293541250926, 1"><path class="EdgeBody" d="m415.9 318.58-60.897-51.576"   marker-end="url(#f)" /></g></g><g id="at" class="Interaction" color="#000" ><g color="#000" fill="transparent"  filter="url(#a)" stroke="#000" stroke-dasharray="103.21834707974617, 5.8"><path class="EdgeBody" d="m297 328 2 109"   marker-end="url(#c)" /></g><g class="Burr Anchor" transform="translate(298.34 401.01)" ><use class="Icon" width="0" height="0" fill="#141414" stroke-width="0" xlink:href="#b"/></g></g><g id="au" class="Interaction" color="#000" ><g color="#000" fill="transparent"  filter="url(#a)" stroke="#000" stroke-dasharray="98, 1"><path class="EdgeBody" d="m297 308v-10.058h58v-30.942"   marker-end="url(#f)" /></g></g><g id="av" class="Interaction" color="#000" ><g color="#000" fill="transparent"  filter="url(#a)" stroke="#000" stroke-dasharray="34.50886379511492, 5.8"><path class="EdgeBody" d="m375.9 328.58-38.897-10.576"   marker-end="url(#c)" /></g><g class="Burr Anchor" transform="translate(360.34 324.35)" ><use class="Icon" width="0" height="0" fill="#141414" stroke-width="0" xlink:href="#b"/></g></g><g id="aw" class="Interaction" color="#000" ><g color="#000" fill="transparent"  filter="url(#a)" stroke="#000" stroke-dasharray="19.397899676432097, 11"><path class="EdgeBody" d="m266.02 546.82 1.6348 30.354"   marker-end="url(#d)" /></g></g><g class="SingleFreeNode Shape" transform="translate(488.22 325.36)" color="#999" ><rect class="Icon" transform="matrix(.99278 0 0 .9893 .49639 .49465)" width="137.5" height="92.5" fill="transparent"  stroke="#999"/></g><g class="SingleFreeNode Shape PhysicalEntity CellularComponent Cell" transform="translate(192,510)" color="#c0c0c0" ><g fill="transparent"  filter="url(#h)" stroke="#c0c0c0" stroke-width="3"><rect class="Icon" transform="matrix(.92995 0 0 .94132 5.5797 5.6479)" width="159.29" height="192.5" rx="15" ry="15"   /></g></g><g class="SingleFreeNode Shape" transform="translate(427.43 491.63)" color="#000" ><use class="Icon" transform="matrix(.96774 0 0 .96774 .48387 .48387)" width="30" height="30" fill="transparent"  stroke="#000" xlink:href="#k"/></g><g class="SingleFreeNode Shape PhysicalEntity CellularComponent Cell" transform="translate(264 5.1667)" color="#c0c0c0" ><g fill="transparent"  filter="url(#h)" stroke="#c0c0c0" stroke-width="3"><rect class="Icon" transform="matrix(.96197 0 0 .95528 5.7718 5.7317)" width="303.5" height="256.33" rx="15" ry="15"   /></g></g><g class="Label" transform="translate(935.89 345.61)" color="#000"  name="Relevant MAPK  subtypes"><use class="Icon" width="90" height="25" fill="transparent"  stroke="#000" stroke-width="0" xlink:href="#b"/><text class="Text" transform="translate(45,16.5)"   font-size="12px"  text-anchor="middle"><tspan x="0" y="-6.6000000000000005">Relevant MAPK </tspan> <tspan x="0" y="6.6000000000000005">subtypes</tspan></text></g><g class="Label" transform="translate(490.32 322.01)" color="#000"  name="endogenous cannabinoids"><use class="Icon" width="133" height="20" fill="transparent"  stroke="#000" stroke-width="0" xlink:href="#b"/><text class="Text" transform="translate(66.5,13)"   font-size="10px"  text-anchor="middle"><tspan x="0" y="0">endogenous cannabinoids</tspan></text></g><g class="Label" transform="translate(466,99.5)" color="#000"  name="PKA"><use class="Icon" width="90" height="25" fill="transparent"  stroke="#000" stroke-width="0" xlink:href="#b"/><text class="Text" transform="translate(45,16.5)"   font-size="12px"  text-anchor="middle"><tspan x="0" y="0">PKA</tspan></text></g><g class="Label" transform="translate(125.95 455.86)" color="#ff0033"  name="CBD catabolism"><use class="Icon" width="135.0734658599827" height="20" fill="transparent"  stroke="#ff0033" stroke-width="0" xlink:href="#b"/><text class="Text" transform="translate(67.537 15)" fill="#ff0033"  font-size="16px" stroke="black" stroke-width="0" text-anchor="middle"><tspan x="0" y="0">CBD catabolism</tspan></text></g><g class="Label" transform="translate(310.62 17.143)" color="#000"  name="Neuronal cell of CNS (hyppocampus, cerebellum or basal ganglia)"><use class="Icon" width="220" height="20" fill="transparent"  stroke="#000" stroke-width="0" xlink:href="#b"/><text class="Text" transform="translate(110,13)"   font-size="10px"  text-anchor="middle"><tspan x="0" y="-5.5">Neuronal cell of CNS</tspan> <tspan x="0" y="5.5">(hyppocampus, cerebellum or basal ganglia)</tspan></text></g><g class="Label" transform="translate(278,456)" color="#000"  name="inactive"><use class="Icon" width="80" height="20" fill="transparent"  stroke="#000" stroke-width="0" xlink:href="#b"/><text class="Text" transform="translate(40,13)"   font-size="10px"  text-anchor="middle"><tspan x="0" y="0">inactive</tspan></text></g><g class="Label" transform="translate(53.905 65.333)" color="#000"  name="Inhibition of Glutamate or GABA  release in synaptic cleft"><use class="Icon" width="172" height="20" fill="transparent"  stroke="#000" stroke-width="0" xlink:href="#b"/><text class="Text" transform="translate(86,13)"   font-size="10px"  text-anchor="middle"><tspan x="0" y="-5.5">Inhibition of Glutamate or GABA </tspan> <tspan x="0" y="5.5">release in synaptic cleft</tspan></text></g><g class="Label" transform="translate(597.14 14.514)" color="#000"  name="Leukocytes, spleen, thymus, bone marrow and other tissues associated with immune functions"><use class="Icon" width="273.33333333333326" height="20" fill="transparent"  stroke="#000" stroke-width="0" xlink:href="#b"/><text class="Text" transform="translate(136.67 13)"   font-size="10px"  text-anchor="middle"><tspan x="0" y="-5.5">Leukocytes, spleen, thymus, bone marrow</tspan> <tspan x="0" y="5.5">and other tissues associated with immune functions</tspan></text></g><g class="Label" transform="translate(201,672)" color="#000"  name="HepG2 cells"><use class="Icon" width="80" height="20" fill="transparent"  stroke="#000" stroke-width="0" xlink:href="#b"/><text class="Text" transform="translate(40,13)"   font-size="10px"  text-anchor="middle"><tspan x="0" y="0">HepG2 cells</tspan></text></g><a  class="GeneProduct ADCY1 " transform="translate(362,126)"   name="ADCY1"  ><rect class="Icon" transform="matrix(.98947 0 0 .95238 .49474 .47619)" width="94" height="20" fill="#fff" stroke="#000"/><text class="Text" transform="translate(47,13)"   font-size="10px"  text-anchor="middle"><tspan x="0" y="0">ADCY1</tspan></text></a><g class="GroupGroup" transform="translate(928.33 370.54)" color="grey" ><use class="Icon" width="106.00000000000011" height="240.99999999999994" fill="transparent"  stroke="grey" stroke-dasharray="5,3" stroke-width="0" xlink:href="#b"/><g class="Uniprot-TrEMBL_Q15759 GeneProduct MAPK11 " transform="translate(8 133)" color="#000"  name="MAPK11"><rect class="Icon" transform="matrix(.98901 0 0 .96154 .49451 .48077)" width="90" height="25" fill="#fff" stroke="#000"/><text class="Text" transform="translate(45,16.5)"   font-size="12px"  text-anchor="middle"><tspan x="0" y="0">MAPK11</tspan></text></g><g class="Uniprot-TrEMBL_P45984 GeneProduct MAPK9 " transform="translate(8,83)" color="#000"  name="MAPK9"><rect class="Icon" transform="matrix(.98901 0 0 .96154 .49451 .48077)" width="90" height="25" fill="#fff" stroke="#000"/><text class="Text" transform="translate(45,16.5)"   font-size="12px"  text-anchor="middle"><tspan x="0" y="0">MAPK9</tspan></text></g><g class="Uniprot-TrEMBL_P53779 GeneProduct MAPK10 " transform="translate(8,108)" color="#000"  name="MAPK10"><rect class="Icon" transform="matrix(.98901 0 0 .96154 .49451 .48077)" width="90" height="25" fill="#fff" stroke="#000"/><text class="Text" transform="translate(45,16.5)"   font-size="12px"  text-anchor="middle"><tspan x="0" y="0">MAPK10</tspan></text></g><g class="Uniprot-TrEMBL_Q16539 GeneProduct MAPK14 " transform="translate(8 208)" color="#000"  name="MAPK14"><rect class="Icon" transform="matrix(.98901 0 0 .96154 .49451 .48077)" width="90" height="25" fill="#fff" stroke="#000"/><text class="Text" transform="translate(45,16.5)"   font-size="12px"  text-anchor="middle"><tspan x="0" y="0">MAPK14</tspan></text></g><g class="Uniprot-TrEMBL_P45983 GeneProduct MAPK8 " transform="translate(8,58)" color="#000"  name="MAPK8"><rect class="Icon" transform="matrix(.98901 0 0 .96154 .49451 .48077)" width="90" height="25" fill="#fff" stroke="#000"/><text class="Text" transform="translate(45,16.5)"   font-size="12px"  text-anchor="middle"><tspan x="0" y="0">MAPK8</tspan></text></g><g class="Uniprot-TrEMBL_P53778 GeneProduct MAPK12 " transform="translate(8 158)" color="#000"  name="MAPK12"><rect class="Icon" transform="matrix(.98901 0 0 .96154 .49451 .48077)" width="90" height="25" fill="#fff" stroke="#000"/><text class="Text" transform="translate(45,16.5)"   font-size="12px"  text-anchor="middle"><tspan x="0" y="0">MAPK12</tspan></text></g><g class="Uniprot-TrEMBL_P27361 GeneProduct MAPK3 " transform="translate(8 33)" color="#000"  name="MAPK3"><rect class="Icon" transform="matrix(.98901 0 0 .96154 .49451 .48077)" width="90" height="25" fill="#fff" stroke="#000"/><text class="Text" transform="translate(45,16.5)"   font-size="12px"  text-anchor="middle"><tspan x="0" y="0">MAPK3</tspan></text></g><g class="Uniprot-TrEMBL_P28482 GeneProduct MAPK1 " transform="translate(8 8)" color="#000"  name="MAPK1"><rect class="Icon" transform="matrix(.98901 0 0 .96154 .49451 .48077)" width="90" height="25" fill="#fff" stroke="#000"/><text class="Text" transform="translate(45,16.5)"   font-size="12px"  text-anchor="middle"><tspan x="0" y="0">MAPK1</tspan></text></g><a  class="Uniprot-TrEMBL_O15264 GeneProduct MAPK13 " transform="translate(8 183)"   name="MAPK13"  ><rect class="Icon" transform="matrix(.98901 0 0 .96154 .49451 .48077)" width="90" height="25" fill="#fff" stroke="#000"/><text class="Text" transform="translate(45,16.5)"   font-size="12px"  text-anchor="middle"><tspan x="0" y="0">MAPK13</tspan></text></a></g><g class="GroupComplex" transform="translate(778.04 106.46)" color="grey" ><use class="Icon" transform="matrix(.98894 0 0 .99311 .49447 .49655)" width="89.38734896943856" height="144.06514734332296" fill="#b4b464" fill-opacity=".1" stroke="grey" xlink:href="#i"/><a  class="GeneProduct PRKACB " transform="translate(12 94.246)"   name="PRKACB"  ><rect class="Icon" transform="matrix(.98494 0 0 .94774 .49247 .47387)" width="65.387" height="18.137" fill="#fff" stroke="#000"/><text class="Text" transform="translate(32.694 13.068)"   font-size="12px"  text-anchor="middle"><tspan x="0" y="0">PRKACB</tspan></text></a><a  class="GeneProduct PRKACA " transform="translate(12 75.566)"   name="PRKACA"  ><rect class="Icon" transform="matrix(.98494 0 0 .94919 .49247 .47459)" width="65.387" height="18.68" fill="#fff" stroke="#000"/><text class="Text" transform="translate(32.694 13.34)"   font-size="12px"  text-anchor="middle"><tspan x="0" y="0">PRKACA</tspan></text></a><a  class="GeneProduct PRKAR1A " transform="translate(12 12)"   name="PRKAR1A"  ><rect class="Icon" transform="matrix(.98494 0 0 .9402 .49247 .4701)" width="65.387" height="15.721" fill="#fff" stroke="#000"/><text class="Text" transform="translate(32.694 11.861)"   font-size="12px"  text-anchor="middle"><tspan x="0" y="0">PRKAR1A</tspan></text></a><a  class="GeneProduct PRKAR2B " transform="translate(12 59.566)"   name="PRKAR2B"  ><rect class="Icon" transform="matrix(.98494 0 0 .94118 .49247 .47059)" width="65.387" height="16" fill="#fff" stroke="#000"/><text class="Text" transform="translate(32.694 12)"   font-size="12px"  text-anchor="middle"><tspan x="0" y="0">PRKAR2B</tspan></text></a><a  class="GeneProduct PRKAR1B " transform="translate(12 27.721)"   name="PRKAR1B"  ><rect class="Icon" transform="matrix(.98494 0 0 .93989 .49247 .46994)" width="65.387" height="15.636" fill="#fff" stroke="#000"/><text class="Text" transform="translate(32.694 11.818)"   font-size="12px"  text-anchor="middle"><tspan x="0" y="0">PRKAR1B</tspan></text></a><a  class="GeneProduct PRKACG " transform="translate(12 112.38)"   name="PRKACG"  ><rect class="Icon" transform="matrix(.98494 0 0 .95165 .49247 .47582)" width="65.387" height="19.682" fill="#fff" stroke="#000"/><text class="Text" transform="translate(32.694 13.841)"   font-size="12px"  text-anchor="middle"><tspan x="0" y="0">PRKACG</tspan></text></a><g class="EMBL_ENSG00000114302 GeneProduct" transform="translate(12 43.357)" color="#000"  name="PRKAR2A"><rect class="Icon" transform="matrix(.98494 0 0 .94189 .49247 .47095)" width="65.387" height="16.209" fill="#fff" stroke="#000"/><text class="Text" transform="translate(32.694 12.105)"   font-size="12px"  text-anchor="middle"><tspan x="0" y="0">PRKAR2A</tspan></text></g></g><a  class="GeneProduct CNR1 " transform="translate(315,247)"   name="CNR1"  ><rect class="Icon" transform="matrix(.98765 0 0 .95238 .49383 .47619)" width="80" height="20" fill="#fff" stroke="#000"/><text class="Text" transform="translate(40,13)"   font-size="10px"  text-anchor="middle"><tspan x="0" y="0">CNR1</tspan></text></a><a  class="GeneProduct CYP2C9 " transform="translate(324.82 390.88)"   name="CYP2C9"  ><rect class="Icon" transform="matrix(.98765 0 0 .95238 .49383 .47619)" width="80" height="20" fill="#fff" stroke="#000"/><text class="Text" transform="translate(40,13)"   font-size="10px"  text-anchor="middle"><tspan x="0" y="0">CYP2C9</tspan></text></a><a class="Metabolite " transform="translate(257,308)" color="#00f"  name="11-OH-THC"  ><rect class="Icon" transform="matrix(.98765 0 0 .95238 .49383 .47619)" width="80" height="20" fill="#fff" stroke="#00f"/><text class="Text" transform="translate(40,13)" fill="#00f"  font-size="10px"  text-anchor="middle"><tspan x="0" y="0">11-OH-THC</tspan></text></a><a  class="Enzyme_Nomenclature_2_7_11_24 GeneProduct " transform="translate(378.24 193.76)"   name="MAPK"  ><rect class="Icon" transform="matrix(.98765 0 0 .95238 .49383 .47619)" width="80" height="20" fill="#fff" stroke="#000"/><text class="Text" transform="translate(40,13)"   font-size="10px"  text-anchor="middle"><tspan x="0" y="0">MAPK</tspan></text></a><a class="Metabolite ChEBI_CHEBI_47767  " transform="translate(606,475)" color="#00f"  name="Phosphatidylethanolamine"  ><rect class="Icon" transform="matrix(.99225 0 0 .95238 .49612 .47619)" width="128" height="20" fill="#fff" stroke="#00f"/><text class="Text" transform="translate(64,13)" fill="#00f"  font-size="10px"  text-anchor="middle"><tspan x="0" y="0">Phosphatidylethanolamine</tspan></text></a><g class="GroupComplex" transform="translate(737.38 405.38)" color="grey" ><use class="Icon" transform="matrix(.99048 0 0 .98462 .49524 .49231)" width="104" height="64" fill="#b4b464" fill-opacity=".1" stroke="grey" xlink:href="#i"/><a  class="GeneProduct DAGLB " transform="translate(12,32)"   name="DAGLB"  ><rect class="Icon" transform="matrix(.98765 0 0 .95238 .49383 .47619)" width="80" height="20" fill="#fff" stroke="#000"/><text class="Text" transform="translate(40,13)"   font-size="10px"  text-anchor="middle"><tspan x="0" y="0">DAGLB</tspan></text></a><a  class="GeneProduct DAGLA " transform="translate(12,12)"   name="DAGLA"  ><rect class="Icon" transform="matrix(.98765 0 0 .95238 .49383 .47619)" width="80" height="20" fill="#fff" stroke="#000"/><text class="Text" transform="translate(40,13)"   font-size="10px"  text-anchor="middle"><tspan x="0" y="0">DAGLA</tspan></text></a></g><a class="Metabolite ChEBI_CHEBI_17489  " transform="translate(472.05 55.131)" color="#00f"  name="cAMP"  ><rect class="Icon" transform="matrix(.98765 0 0 .95238 .49383 .47619)" width="80" height="20" fill="#fff" stroke="#00f"/><text class="Text" transform="translate(40,13)" fill="#00f"  font-size="10px"  text-anchor="middle"><tspan x="0" y="0">cAMP</tspan></text></a><a  class="GeneProduct AHR " transform="translate(226.02 526.82)"   name="AHR"  ><rect class="Icon" transform="matrix(.98765 0 0 .95238 .49383 .47619)" width="80" height="20" fill="#fff" stroke="#000"/><text class="Text" transform="translate(40,13)"   font-size="10px"  text-anchor="middle"><tspan x="0" y="0">AHR</tspan></text></a><a  class="GeneProduct NAPEPLD " transform="translate(508,475)"   name="NAPEPLD"  ><rect class="Icon" transform="matrix(.98765 0 0 .95238 .49383 .47619)" width="80" height="20" fill="#fff" stroke="#000"/><text class="Text" transform="translate(40,13)"   font-size="10px"  text-anchor="middle"><tspan x="0" y="0">NAPEPLD</tspan></text></a><a  class="GeneProduct ADCY7 " transform="translate(685.42 111.87)"   name="ADCY7"  ><rect class="Icon" transform="matrix(.98765 0 0 .95238 .49383 .47619)" width="80" height="20" fill="#fff" stroke="#000"/><text class="Text" transform="translate(40,13)"   font-size="10px"  text-anchor="middle"><tspan x="0" y="0">ADCY7</tspan></text></a><a class="ChEBI_CHEBI_61232 Metabolite  " transform="translate(630 422.63)" color="#00f"  name="NAPE"  ><rect class="Icon" transform="matrix(.98765 0 0 .95238 .49383 .47619)" width="80" height="20" fill="#fff" stroke="#00f"/><text class="Text" transform="translate(40,13)" fill="#00f"  font-size="10px"  text-anchor="middle"><tspan x="0" y="0">NAPE</tspan></text></a><a class="Metabolite ChEBI_CHEBI_15843  " transform="translate(754.2 349.04)" color="#00f"  name="Arachidonic acid"  ><rect class="Icon" transform="matrix(.98765 0 0 .95238 .49383 .47619)" width="80" height="20" fill="#fff" stroke="#00f"/><text class="Text" transform="translate(40,13)" fill="#00f"  font-size="10px"  text-anchor="middle"><tspan x="0" y="0">Arachidonic acid</tspan></text></a><a class="Metabolite " transform="translate(375.9 318.58)" color="#00f"  name="THC"  ><rect class="Icon" transform="matrix(.98765 0 0 .95238 .49383 .47619)" width="80" height="20" fill="#fff" stroke="#00f"/><text class="Text" transform="translate(40,13)" fill="#00f"  font-size="10px"  text-anchor="middle"><tspan x="0" y="0">THC</tspan></text></a><g class="GroupGroup" transform="translate(-2 386.17)" color="grey" ><use class="Icon" width="134" height="175.99999999999977" fill="transparent"  stroke="grey" stroke-dasharray="5,3" stroke-width="0" xlink:href="#b"/><a class="ChEBI_CHEBI_133056 Metabolite  " transform="translate(8,8)" color="#00f"  name="1''-hydroxycannabidiol"  ><rect class="Icon" transform="matrix(.9916 0 0 .95238 .4958 .47619)" width="118" height="20" fill="#fff" stroke="#00f"/><text class="Text" transform="translate(59,13)" fill="#00f"  font-size="10px"  text-anchor="middle"><tspan x="0" y="0">1''-hydroxycannabidiol</tspan></text></a><a class="ChEBI_CHEBI_133058 Metabolite  " transform="translate(8,28)" color="#00f"  name="2''-hydroxycannabidiol"  ><rect class="Icon" transform="matrix(.9916 0 0 .95238 .4958 .47619)" width="118" height="20" fill="#fff" stroke="#00f"/><text class="Text" transform="translate(59,13)" fill="#00f"  font-size="10px"  text-anchor="middle"><tspan x="0" y="0">2''-hydroxycannabidiol</tspan></text></a><a class="ChEBI_CHEBI_133059 Metabolite  " transform="translate(8 48)" color="#00f"  name="3''-hydroxycannabidiol"  ><rect class="Icon" transform="matrix(.9916 0 0 .95238 .4958 .47619)" width="118" height="20" fill="#fff" stroke="#00f"/><text class="Text" transform="translate(59,13)" fill="#00f"  font-size="10px"  text-anchor="middle"><tspan x="0" y="0">3''-hydroxycannabidiol</tspan></text></a><a class="ChEBI_CHEBI_133055 Metabolite  " transform="translate(8 68)" color="#00f"  name="4''-hydroxycannabidiol"  ><rect class="Icon" transform="matrix(.9916 0 0 .95238 .4958 .47619)" width="118" height="20" fill="#fff" stroke="#00f"/><text class="Text" transform="translate(59,13)" fill="#00f"  font-size="10px"  text-anchor="middle"><tspan x="0" y="0">4''-hydroxycannabidiol</tspan></text></a><a class="ChEBI_CHEBI_133062 Metabolite  " transform="translate(8 88)" color="#00f"  name="5''-hydroxycannabidiol"  ><rect class="Icon" transform="matrix(.9916 0 0 .95238 .4958 .47619)" width="118" height="20" fill="#fff" stroke="#00f"/><text class="Text" transform="translate(59,13)" fill="#00f"  font-size="10px"  text-anchor="middle"><tspan x="0" y="0">5''-hydroxycannabidiol</tspan></text></a><a class="ChEBI_CHEBI_133049 Metabolite  " transform="translate(8 108)" color="#00f"  name="6a-hydroxycannabidiol"  ><rect class="Icon" transform="matrix(.9916 0 0 .95238 .4958 .47619)" width="118" height="20" fill="#fff" stroke="#00f"/><text class="Text" transform="translate(59,13)" fill="#00f"  font-size="10px"  text-anchor="middle"><tspan x="0" y="0">6a-hydroxycannabidiol</tspan></text></a><a class="ChEBI_CHEBI_133052 Metabolite  " transform="translate(8 128)" color="#00f"  name="6b-hydroxycannabidiol"  ><rect class="Icon" transform="matrix(.9916 0 0 .95238 .4958 .47619)" width="118" height="20" fill="#fff" stroke="#00f"/><text class="Text" transform="translate(59,13)" fill="#00f"  font-size="10px"  text-anchor="middle"><tspan x="0" y="0">6b-hydroxycannabidiol</tspan></text></a><a class="ChEBI_CHEBI_133053 Metabolite  " transform="translate(8 148)" color="#00f"  name="7-hydroxycannabidiol"  ><rect class="Icon" transform="matrix(.9916 0 0 .95238 .4958 .47619)" width="118" height="20" fill="#fff" stroke="#00f"/><text class="Text" transform="translate(59,13)" fill="#00f"  font-size="10px"  text-anchor="middle"><tspan x="0" y="0">7-hydroxycannabidiol</tspan></text></a></g><g class="GroupGroup" transform="translate(488.65 339.68)" color="grey" ><use class="Icon" width="138" height="78" fill="transparent"  stroke="grey" stroke-dasharray="5,3" stroke-width="0" xlink:href="#b"/><a class="Metabolite ChEBI_CHEBI_52392  " transform="translate(8,8)" color="#00f"  name="2-arachidonoylglycerol"  ><rect class="Icon" transform="matrix(.99187 0 0 .95238 .49593 .47619)" width="122" height="20" fill="#fff" stroke="#00f"/><text class="Text" transform="translate(61,13)" fill="#00f"  font-size="10px"  text-anchor="middle"><tspan x="0" y="0">2-arachidonoylglycerol</tspan></text></a><a class="Metabolite ChEBI_CHEBI_2700  " transform="translate(29,50)" color="#00f"  name="AEA"  ><rect class="Icon" transform="matrix(.98765 0 0 .95238 .49383 .47619)" width="80" height="20" fill="#fff" stroke="#00f"/><text class="Text" transform="translate(40,13)" fill="#00f"  font-size="10px"  text-anchor="middle"><tspan x="0" y="0">AEA</tspan></text></a></g><g class="Pathway" transform="translate(192.93 577.18)" color="#14961e"  name="protein tyrosine kinases"><use class="Icon" width="149.4547325102879" height="20" fill="transparent"  stroke="#14961e" stroke-width="0" xlink:href="#b"/><text class="Text" transform="translate(74.727 14)" fill="#14961e"  font-size="12px" font-weight="bold" stroke="black" stroke-width="0" text-anchor="middle"><tspan x="0" y="0">protein tyrosine kinases</tspan></text></g><a  class="GeneProduct FAAH " transform="translate(381.17 430.1)"   name="FAAH"  ><rect class="Icon" transform="matrix(.98765 0 0 .95238 .49383 .47619)" width="80" height="20" fill="#fff" stroke="#000"/><text class="Text" transform="translate(40,13)"   font-size="10px"  text-anchor="middle"><tspan x="0" y="0">FAAH</tspan></text></a><a class="Metabolite ChEBI_CHEBI_16015  " transform="translate(239.57 47.667)" color="#00f"  name="Glutamate"  ><rect class="Icon" transform="matrix(.98765 0 0 .95238 .49383 .47619)" width="80" height="20" fill="#fff" stroke="#00f"/><text class="Text" transform="translate(40,13)" fill="#00f"  font-size="10px"  text-anchor="middle"><tspan x="0" y="0">Glutamate</tspan></text></a><a  class="GeneProduct ADORA2A " transform="translate(54 308.9)"   name="ADORA2A"  ><rect class="Icon" transform="matrix(.98765 0 0 .95238 .49383 .47619)" width="80" height="20" fill="#fff" stroke="#000"/><text class="Text" transform="translate(40,13)"   font-size="10px"  text-anchor="middle"><tspan x="0" y="0">ADORA2A</tspan></text></a><a  class="GeneProduct CNR2 " transform="translate(683.29 246)"   name="CNR2"  ><rect class="Icon" transform="matrix(.98765 0 0 .95238 .49383 .47619)" width="80" height="20" fill="#fff" stroke="#000"/><text class="Text" transform="translate(40,13)"   font-size="10px"  text-anchor="middle"><tspan x="0" y="0">CNR2</tspan></text></a><a class="Metabolite ChEBI_CHEBI_29108  " transform="translate(628 597.32)" color="#00f"  name="Calcium"  ><rect class="Icon" transform="matrix(.98765 0 0 .95238 .49383 .47619)" width="80" height="20" fill="#fff" stroke="#00f"/><text class="Text" transform="translate(40,13)" fill="#00f"  font-size="10px"  text-anchor="middle"><tspan x="0" y="0">Calcium</tspan></text></a><a class="Metabolite ChEBI_CHEBI_16865  " transform="translate(238.52 81.524)" color="#00f"  name="GABA"  ><rect class="Icon" transform="matrix(.98765 0 0 .95238 .49383 .47619)" width="80" height="20" fill="#fff" stroke="#00f"/><text class="Text" transform="translate(40,13)" fill="#00f"  font-size="10px"  text-anchor="middle"><tspan x="0" y="0">GABA</tspan></text></a><a class="ChEBI_CHEBI_69478 Metabolite  " transform="translate(161.25 308.1)" color="#00f"  name="CBD"  ><rect class="Icon" transform="matrix(.98765 0 0 .95238 .49383 .47619)" width="80" height="20" fill="#fff" stroke="#00f"/><text class="Text" transform="translate(40,13)" fill="#00f"  font-size="10px"  text-anchor="middle"><tspan x="0" y="0">CBD</tspan></text></a><a class="Metabolite ChEBI_CHEBI_15422  " transform="translate(354 55.095)" color="#00f"  name="ATP"  ><rect class="Icon" transform="matrix(.98765 0 0 .95238 .49383 .47619)" width="80" height="20" fill="#fff" stroke="#00f"/><text class="Text" transform="translate(40,13)" fill="#00f"  font-size="10px"  text-anchor="middle"><tspan x="0" y="0">ATP</tspan></text></a><g class="Pathway" transform="translate(7 246.65)" color="#14961e"  name="Anti-inflammatory pathways"><use class="Icon" width="176" height="20" fill="transparent"  stroke="#14961e" stroke-width="0" xlink:href="#b"/><text class="Text" transform="translate(88,14)" fill="#14961e"  font-size="12px" font-weight="bold" stroke="black" stroke-width="0" text-anchor="middle"><tspan x="0" y="0">Anti-inflammatory pathways</tspan></text></g><a class="ChEBI_CHEBI_77273 Metabolite  " transform="translate(279,437)" color="#00f"  name="COOH-THC"  ><rect class="Icon" transform="matrix(.98765 0 0 .95238 .49383 .47619)" width="80" height="20" fill="#fff" stroke="#00f"/><text class="Text" transform="translate(40,13)" fill="#00f"  font-size="10px"  text-anchor="middle"><tspan x="0" y="0">COOH-THC</tspan></text></a><a  class="GeneProduct CYP1A1 " transform="translate(227.67 631)"   name="CYP1A1"  ><rect class="Icon" transform="matrix(.98765 0 0 .95238 .49383 .47619)" width="80" height="20" fill="#fff" stroke="#000"/><text class="Text" transform="translate(40,13)"   font-size="10px"  text-anchor="middle"><tspan x="0" y="0">CYP1A1</tspan></text></a><g id="ax" class="Interaction" color="#000" ><g color="#000" fill="transparent"  filter="url(#a)" stroke="#000" stroke-dasharray="142.0645893703753, 1"><path class="EdgeBody" d="m496.65 357.68-101.65-100.68"   marker-end="url(#f)" /></g></g><a class="Metabolite ChEBI_CHEBI_15422  " transform="translate(600.69 58.418)" color="#00f"  name="ATP"  ><rect class="Icon" transform="matrix(.98765 0 0 .95238 .49383 .47619)" width="80" height="20" fill="#fff" stroke="#00f"/><text class="Text" transform="translate(40,13)" fill="#00f"  font-size="10px"  text-anchor="middle"><tspan x="0" y="0">ATP</tspan></text></a><a class="Metabolite ChEBI_CHEBI_17489  " transform="translate(782.15 59.018)" color="#00f"  name="cAMP"  ><rect class="Icon" transform="matrix(.98765 0 0 .95238 .49383 .47619)" width="80" height="20" fill="#fff" stroke="#00f"/><text class="Text" transform="translate(40,13)" fill="#00f"  font-size="10px"  text-anchor="middle"><tspan x="0" y="0">cAMP</tspan></text></a><a class="ChEBI_CHEBI_69478 Metabolite  " transform="translate(786.25,314.75)" color="#00f"  name="CBD"  ><rect class="Icon" transform="matrix(.98765 0 0 .95238 .49383 .47619)" width="80" height="20" fill="#fff" stroke="#00f"/><text class="Text" transform="translate(40,13)" fill="#00f"  font-size="10px"  text-anchor="middle"><tspan x="0" y="0">CBD</tspan></text></a><g class="Label" transform="translate(567.23 509.08)" color="#ff0033"  name="endogeneous cannabinoid  synthesis"><use class="Icon" width="216.6897147796024" height="37.28608470181439" fill="transparent"  stroke="#ff0033" stroke-width="0" xlink:href="#b"/><text class="Text" transform="translate(108.34 23.643)" fill="#ff0033"  font-size="16px" stroke="black" stroke-width="0" text-anchor="middle"><tspan x="0" y="-8.8">endogeneous cannabinoid </tspan> <tspan x="0" y="8.8">synthesis</tspan></text></g><g class="GroupComplex" transform="translate(466.9 105.02)" color="grey" ><use class="Icon" transform="matrix(.98894 0 0 .99311 .49447 .49655)" width="89.38734896943873" height="144.06514734332268" fill="#b4b464" fill-opacity=".1" stroke="grey" xlink:href="#i"/><a  class="GeneProduct PRKACB " transform="translate(12 94.246)"   name="PRKACB"  ><rect class="Icon" transform="matrix(.98494 0 0 .94774 .49247 .47387)" width="65.387" height="18.137" fill="#fff" stroke="#000"/><text class="Text" transform="translate(32.694 13.068)"   font-size="12px"  text-anchor="middle"><tspan x="0" y="0">PRKACB</tspan></text></a><a  class="GeneProduct PRKACA " transform="translate(12 75.566)"   name="PRKACA"  ><rect class="Icon" transform="matrix(.98494 0 0 .94919 .49247 .47459)" width="65.387" height="18.68" fill="#fff" stroke="#000"/><text class="Text" transform="translate(32.694 13.34)"   font-size="12px"  text-anchor="middle"><tspan x="0" y="0">PRKACA</tspan></text></a><a  class="GeneProduct PRKAR1A " transform="translate(12,12)"   name="PRKAR1A"  ><rect class="Icon" transform="matrix(.98494 0 0 .9402 .49247 .4701)" width="65.387" height="15.721" fill="#fff" stroke="#000"/><text class="Text" transform="translate(32.694 11.861)"   font-size="12px"  text-anchor="middle"><tspan x="0" y="0">PRKAR1A</tspan></text></a><a  class="GeneProduct PRKAR2B " transform="translate(12 59.566)"   name="PRKAR2B"  ><rect class="Icon" transform="matrix(.98494 0 0 .94118 .49247 .47059)" width="65.387" height="16" fill="#fff" stroke="#000"/><text class="Text" transform="translate(32.694 12)"   font-size="12px"  text-anchor="middle"><tspan x="0" y="0">PRKAR2B</tspan></text></a><a  class="GeneProduct PRKAR1B " transform="translate(12 27.721)"   name="PRKAR1B"  ><rect class="Icon" transform="matrix(.98494 0 0 .93989 .49247 .46994)" width="65.387" height="15.636" fill="#fff" stroke="#000"/><text class="Text" transform="translate(32.694 11.818)"   font-size="12px"  text-anchor="middle"><tspan x="0" y="0">PRKAR1B</tspan></text></a><a  class="GeneProduct PRKACG " transform="translate(12 112.38)"   name="PRKACG"  ><rect class="Icon" transform="matrix(.98494 0 0 .95165 .49247 .47582)" width="65.387" height="19.682" fill="#fff" stroke="#000"/><text class="Text" transform="translate(32.694 13.841)"   font-size="12px"  text-anchor="middle"><tspan x="0" y="0">PRKACG</tspan></text></a><g class="EMBL_ENSG00000114302 GeneProduct" transform="translate(12 43.357)" color="#000"  name="PRKAR2A"><rect class="Icon" transform="matrix(.98494 0 0 .94189 .49247 .47095)" width="65.387" height="16.209" fill="#fff" stroke="#000"/><text class="Text" transform="translate(32.694 12.105)"   font-size="12px"  text-anchor="middle"><tspan x="0" y="0">PRKAR2A</tspan></text></g></g><g class="Label" transform="translate(929.24 22.609)" color="#000"  name="PKA regulatory  subunit type I"><use class="Icon" width="94.36214848751183" height="31.262694042091702" fill="transparent"  stroke="#000" stroke-width="0" xlink:href="#b"/><text class="Text" transform="translate(47.181 18.631)"   font-size="10px"  text-anchor="middle"><tspan x="0" y="-5.5">PKA regulatory </tspan> <tspan x="0" y="5.5">subunit type I</tspan></text></g><g class="Label" transform="translate(925.24 167.11)" color="#000"  name="PKA catalytic  subunit"><use class="Icon" width="90" height="32.24485939500505" fill="transparent"  stroke="#000" stroke-width="0" xlink:href="#b"/><text class="Text" transform="translate(45 19.122)"   font-size="10px"  text-anchor="middle"><tspan x="0" y="-11">PKA</tspan> <tspan x="0" y="0">catalytic </tspan> <tspan x="0" y="11">subunit</tspan></text></g><g class="Label" transform="translate(929.64 93.165)" color="#000"  name="PKA regulatory  subunit type II"><use class="Icon" width="90" height="25" fill="transparent"  stroke="#000" stroke-width="0" xlink:href="#b"/><text class="Text" transform="translate(45,15.5)"   font-size="10px"  text-anchor="middle"><tspan x="0" y="-5.5">PKA regulatory </tspan> <tspan x="0" y="5.5">subunit type II</tspan></text></g><a  class="GeneProduct PRKACB " transform="translate(939.61 221.14)"   name="PRKACB"  ><rect class="Icon" transform="matrix(.98494 0 0 .94774 .49247 .47387)" width="65.387" height="18.137" fill="#fff" stroke="#000"/><text class="Text" transform="translate(32.694 13.068)"   font-size="12px"  text-anchor="middle"><tspan x="0" y="0">PRKACB</tspan></text></a><a  class="GeneProduct PRKACA " transform="translate(939.69 202.46)"   name="PRKACA"  ><rect class="Icon" transform="matrix(.9849 0 0 .94919 .49245 .47459)" width="65.218" height="18.68" fill="#fff" stroke="#000"/><text class="Text" transform="translate(32.609 13.34)"   font-size="12px"  text-anchor="middle"><tspan x="0" y="0">PRKACA</tspan></text></a><a  class="GeneProduct PRKAR1A " transform="translate(943.61 51.718)"   name="PRKAR1A"  ><rect class="Icon" transform="matrix(.98448 0 0 .9402 .49224 .4701)" width="63.418" height="15.721" fill="#fff" stroke="#000"/><text class="Text" transform="translate(31.709 11.861)"   font-size="12px"  text-anchor="middle"><tspan x="0" y="0">PRKAR1A</tspan></text></a><a  class="GeneProduct PRKAR2B " transform="translate(939.78 143.45)"   name="PRKAR2B"  ><rect class="Icon" transform="matrix(.98488 0 0 .94118 .49244 .47059)" width="65.133" height="16" fill="#fff" stroke="#000"/><text class="Text" transform="translate(32.567 12)"   font-size="12px"  text-anchor="middle"><tspan x="0" y="0">PRKAR2B</tspan></text></a><a  class="GeneProduct PRKAR1B " transform="translate(943.44 67.439)"   name="PRKAR1B"  ><rect class="Icon" transform="matrix(.98456 0 0 .93989 .49228 .46994)" width="63.773" height="15.636" fill="#fff" stroke="#000"/><text class="Text" transform="translate(31.887 11.818)"   font-size="12px"  text-anchor="middle"><tspan x="0" y="0">PRKAR1B</tspan></text></a><a  class="GeneProduct PRKACG " transform="translate(939.61 239.27)"   name="PRKACG"  ><rect class="Icon" transform="matrix(.98494 0 0 .95165 .49247 .47582)" width="65.387" height="19.682" fill="#fff" stroke="#000"/><text class="Text" transform="translate(32.694 13.841)"   font-size="12px"  text-anchor="middle"><tspan x="0" y="0">PRKACG</tspan></text></a><g class="EMBL_ENSG00000114302 GeneProduct" transform="translate(939.87 127.24)" color="#000"  name="PRKAR2A"><rect class="Icon" transform="matrix(.98484 0 0 .94189 .49242 .47095)" width="64.968" height="16.209" fill="#fff" stroke="#000"/><text class="Text" transform="translate(32.484 12.105)"   font-size="12px"  text-anchor="middle"><tspan x="0" y="0">PRKAR2A</tspan></text></g><g class="Label" transform="translate(776,100.5)" color="#000"  name="PKA"><use class="Icon" width="90" height="25" fill="transparent"  stroke="#000" stroke-width="0" xlink:href="#b"/><text class="Text" transform="translate(45,16.5)"   font-size="12px"  text-anchor="middle"><tspan x="0" y="0">PKA</tspan></text></g><text class="Text" transform="translate(5,27)" dominant-baseline="central" fill="black"  font-size="12px" font-weight="bold" overflow="visible" ><tspan x="0" y="-9">Name: Cannabinoid receptor signaling</tspan> <tspan x="0" y="9">Organism: Homo sapiens</tspan></text></g></svg>
