<?xml version="1.0" encoding="UTF-8"?>
<!--
  WikiPathways page: https://www.wikipathways.org/index.php/Pathway:WP3891
  URL for this compressed file: https://github.com/eweitz/cachome/tree/main/data/wikipathways/WP3891.svg
  Source code for compression: https://github.com/eweitz/cachome/tree/main/src/wikipathways.py
-->
<svg class="Diagram" width="800" height="600" color="black" baseProfile="full" prefix="schema:http://schema.org/" preserveAspectRatio="xMidYMid" version="1.1" viewBox="0 0 701.93 568.77" vocab="http://vocabularies.wikipathways.org/wp#" xmlns="http://www.w3.org/2000/svg" xmlns:xlink="http://www.w3.org/1999/xlink"><style>svg {font-family: 'Liberation Sans', Arial, sans-serif; }</style><defs><filter id="a" x="0" y="0" width="701.93" height="568.77" filterUnits="userSpaceOnUse"><feColorMatrix in="SourceGraphic" values="-1   0   0 0 0                   0  -1   0 0 0                   0   0  -1 0 0                   0   0   0 1 0"/></filter><marker id="f" stroke-dasharray="99999" markerHeight="12" markerUnits="userSpaceOnUse" markerWidth="12" orient="auto" preserveAspectRatio="none" refY="6" viewBox="0 0 12 12"><path d="M12 11L0 6l12-5z" fill="currentColor" stroke-width="0"/></marker><marker id="d" stroke-dasharray="99999" markerHeight="12" markerUnits="userSpaceOnUse" markerWidth="12" orient="auto" preserveAspectRatio="none" refX="12" refY="6" viewBox="0 0 12 12"><circle transform="rotate(180 6 6)" cx="6" cy="6" r="5.3" fill="none" stroke="#000"/></marker><marker id="e" stroke-dasharray="99999" markerHeight="12" markerUnits="userSpaceOnUse" markerWidth="12" orient="auto" preserveAspectRatio="none" refY="6" viewBox="0 0 12 12"><path d="M12 11L0 6l12-5z" fill="currentColor" stroke-width="0"/></marker><marker id="b" stroke-dasharray="99999" markerHeight="12" markerUnits="userSpaceOnUse" markerWidth="12" orient="auto" preserveAspectRatio="none" refX="12" refY="6" viewBox="0 0 12 12"><path transform="rotate(180 6 6)" d="M12 11L0 6l12-5z" fill="currentColor" stroke-width="0"/></marker><symbol id="c" preserveAspectRatio="none" viewBox="0 0 100 100"/></defs><g class="Viewport" color="black"  name="Name: Benzene metabolism Organism: Homo sapiens"><rect class="Icon" width="701.93" height="568.77" fill="#fff" stroke="#000" stroke-width="0"/><g id="g" class="Interaction" color="#000" ><g color="#000" fill="transparent"  filter="url(#a)" stroke="#000" stroke-dasharray="61.199999999999605, 5.8"><path class="EdgeBody" d="m452.31 264.99 67-1e-13"   marker-end="url(#b)" /></g></g><g id="h" class="Interaction" color="#000" ><g color="#000" fill="transparent"  filter="url(#a)" stroke="#000" stroke-dasharray="87.98493317132444, 5.8"><path class="EdgeBody" d="m320.31 31.988v93.785"   marker-end="url(#b)" /></g><g class="Burr Anchor" transform="translate(320.31 69.502)" ><use class="Icon" width="0" height="0" fill="#141414" stroke-width="0" xlink:href="#c"/></g></g><g id="i" class="DirectedInteraction" color="#000" ><g color="#000" fill="transparent"  filter="url(#a)" stroke="#000" stroke-dasharray="0, 5.8, 65.3999999999987, 5.8"><path class="EdgeBody" d="m360.31 135.77h77"   marker-end="url(#b)" marker-start="url(#f)" /></g></g><g id="j" class="Interaction" color="#000" ><g color="#000" fill="transparent"  filter="url(#a)" stroke="#000" stroke-dasharray="102.2315917375458, 5.8"><path class="EdgeBody" d="m280.31 135.77h-108.03"   marker-end="url(#b)" /></g><g class="Burr Anchor" transform="translate(237.1 135.77)" ><use class="Icon" width="0" height="0" fill="#141414" stroke-width="0" xlink:href="#c"/></g></g><g id="k" class="Interaction" color="#000" ><g color="#000" fill="transparent"  filter="url(#a)" stroke="#000" stroke-dasharray="25.79704670630916, 11"><path class="EdgeBody" d="m238.04 98.988-0.94411 36.785"   marker-end="url(#d)" /></g></g><g id="l" class="Interaction" color="#000" ><g color="#000" fill="transparent"  filter="url(#a)" stroke="#000" stroke-dasharray="159.19999999999965, 5.8"><path class="EdgeBody" d="m199.31 452.99v-20h-125v20"   marker-end="url(#b)" /></g><g class="Burr Anchor" transform="translate(153.31 432.99)" ><use class="Icon" width="0" height="0" fill="#141414" stroke-width="0" xlink:href="#c"/></g></g><g id="m" class="Interaction" color="#000" ><g color="#000" fill="transparent"  filter="url(#a)" stroke="#000" stroke-dasharray="175.05353189805263, 5.8"><path class="EdgeBody" d="m251.31 274.99-32 178"   marker-end="url(#b)" /></g><g class="Burr Anchor" transform="translate(238.51 346.19)" ><use class="Icon" width="0" height="0" fill="#141414" stroke-width="0" xlink:href="#c"/></g></g><g id="n" class="Interaction" color="#000" ><g color="#000" fill="transparent"  filter="url(#a)" stroke="#000" stroke-dasharray="24.345155254999163, 11"><path class="EdgeBody" d="m203.31 342.99 35.2 3.2"   marker-end="url(#d)" /></g></g><g id="o" class="Interaction" color="#000" ><g color="#000" fill="transparent"  filter="url(#a)" stroke="#000" stroke-dasharray="0, 5.8, 159.19999999999965, 0"><path class="EdgeBody" d="m199.31 472.99v20h-125v-20"   marker-start="url(#e)" /></g><g class="Burr Anchor" transform="translate(153.31 492.99)" ><use class="Icon" width="0" height="0" fill="#141414" stroke-width="0" xlink:href="#c"/></g></g><g id="p" class="Interaction" color="#000" ><g color="#000" fill="transparent"  filter="url(#a)" stroke="#000" stroke-dasharray="44.020071568897876, 11"><path class="EdgeBody" d="m375.31 70.988-55-1.486"   marker-end="url(#d)" /></g></g><g id="q" class="Interaction" color="#000" ><g color="#000" fill="transparent"  filter="url(#a)" stroke="#000" stroke-dasharray="113.90351215562603, 5.8"><path class="EdgeBody" d="m300.31 145.77-49 109.22"   marker-end="url(#b)" /></g></g><g id="r" class="Interaction" color="#000" ><g color="#000" fill="transparent"  filter="url(#a)" stroke="#000" stroke-dasharray="14.58289000430014, 11"><path class="EdgeBody" d="m152.98 407.41 0.32685 25.581"   marker-end="url(#d)" /></g></g><g id="s" class="Interaction" color="#000" ><g color="#000" fill="transparent"  filter="url(#a)" stroke="#000" stroke-dasharray="14.984074080113981, 11"><path class="EdgeBody" d="m156.52 518.77-3.2108-25.785"   marker-end="url(#d)" /></g></g><g id="t" class="Interaction" color="#000" ><g color="#000" fill="transparent"  filter="url(#a)" stroke="#000" stroke-dasharray="168.60522478736272, 5.8"><path class="EdgeBody" d="m592.72 472.99v20h-134.41v-20"   marker-end="url(#b)" /></g><g class="Burr Anchor" transform="translate(542.95 492.99)" ><use class="Icon" width="0" height="0" fill="#141414" stroke-width="0" xlink:href="#c"/></g></g><g id="u" class="Interaction" color="#000" ><g color="#000" fill="transparent"  filter="url(#a)" stroke="#000" stroke-dasharray="14.81829194913066, 11"><path class="EdgeBody" d="m541.64 518.77 1.312-25.785"   marker-end="url(#d)" /></g></g><g id="v" class="Interaction" color="#000" ><g color="#000" fill="transparent"  filter="url(#a)" stroke="#000" stroke-dasharray="176.63903091169908, 5.8"><path class="EdgeBody" d="m398.31 274.99 40 178"   marker-end="url(#b)" /></g><g class="Burr Anchor" transform="translate(414.31 346.19)" ><use class="Icon" width="0" height="0" fill="#141414" stroke-width="0" xlink:href="#c"/></g></g><g id="w" class="Interaction" color="#000" ><g color="#000" fill="transparent"  filter="url(#a)" stroke="#000" stroke-dasharray="37.1065484107929, 11"><path class="EdgeBody" d="m462.31 342.99-48 3.2"   marker-end="url(#d)" /></g></g><g id="x" class="Interaction" color="#000" ><g color="#000" fill="transparent"  filter="url(#a)" stroke="#000" stroke-dasharray="168.60522478736272, 5.8"><path class="EdgeBody" d="m458.31 452.99v-20h134.41v20"   marker-end="url(#b)" /></g><g class="Burr Anchor" transform="translate(508.07 432.99)" ><use class="Icon" width="0" height="0" fill="#141414" stroke-width="0" xlink:href="#c"/></g></g><g id="y" class="Interaction" color="#000" ><g color="#000" fill="transparent"  filter="url(#a)" stroke="#000" stroke-dasharray="14.645977304146708, 11"><path class="EdgeBody" d="m509.9 407.41-1.8272 25.581"   marker-end="url(#d)" /></g></g><g id="z" class="Interaction" color="#000" ><g color="#000" fill="transparent"  filter="url(#a)" stroke="#000" stroke-dasharray="28.191967090163587, 11"><path class="EdgeBody" d="m402.31 194.99-38.8-5.529"   marker-end="url(#d)" /></g></g><g class="Label" transform="translate(174.31 184.99)" color="#000"  name="Nonenzymatic rearrangement"><use class="Icon" width="80" height="20" fill="transparent"  stroke="#000" stroke-width="0" xlink:href="#c"/><text class="Text" transform="translate(40,13)"   font-size="10px"  text-anchor="middle"><tspan x="0" y="-5.5">Nonenzymatic</tspan> <tspan x="0" y="5.5">rearrangement</tspan></text></g><a  class="GeneProduct CYP2E1 " transform="translate(375.31 60.988)"   name="CYP2E1"  ><rect class="Icon" transform="matrix(.98765 0 0 .95238 .49383 .47619)" width="80" height="20" fill="#fff" stroke="#000"/><text class="Text" transform="translate(40,13)"   font-size="10px"  text-anchor="middle"><tspan x="0" y="0">CYP2E1</tspan></text></a><a  class="GeneProduct CYP2E1 " transform="translate(123.31 332.99)"   name="CYP2E1"  ><rect class="Icon" transform="matrix(.98765 0 0 .95238 .49383 .47619)" width="80" height="20" fill="#fff" stroke="#000"/><text class="Text" transform="translate(40,13)"   font-size="10px"  text-anchor="middle"><tspan x="0" y="0">CYP2E1</tspan></text></a><a class="Metabolite ChEBI_CHEBI_17253  " transform="translate(566.31 452.99)" color="#00f"  name="1,2-Benzoquinone"  ><rect class="Icon" transform="matrix(.99062 0 0 .95238 .49531 .47619)" width="105.62" height="20" fill="#fff" stroke="#00f"/><text class="Text" transform="translate(52.81 13)" fill="#00f"  font-size="10px"  text-anchor="middle"><tspan x="0" y="0">1,2-Benzoquinone</tspan></text></a><a  class="GeneProduct NQO1 " transform="translate(482.74 387.41)"   name="NQO1"  ><rect class="Icon" transform="matrix(.98192 0 0 .95238 .49096 .47619)" width="54.318" height="20" fill="#fff" stroke="#000"/><text class="Text" transform="translate(27.159 13)"   font-size="10px"  text-anchor="middle"><tspan x="0" y="0">NQO1</tspan></text></a><a  class="Protein DHDH " transform="translate(462.31 328.99)"   name="Dihydrodiol dehydrogenase"  ><rect class="Icon" transform="matrix(.98947 0 0 .96552 .49474 .48276)" width="94" height="28" fill="#fff" stroke="#000"/><text class="Text" transform="translate(47,17)"   font-size="10px"  text-anchor="middle"><tspan x="0" y="-5.5">Dihydrodiol</tspan> <tspan x="0" y="5.5">dehydrogenase</tspan></text></a><a class="Metabolite ChEBI_CHEBI_15882  " transform="translate(211.31 254.99)" color="#00f"  name="Phenol"  ><rect class="Icon" transform="matrix(.98765 0 0 .95238 .49383 .47619)" width="80" height="20" fill="#fff" stroke="#00f"/><text class="Text" transform="translate(40,13)" fill="#00f"  font-size="10px"  text-anchor="middle"><tspan x="0" y="0">Phenol</tspan></text></a><a class="PubChem-compound_289 Metabolite ChEBI_CHEBI_18135  " transform="translate(398.31 452.99)" color="#00f"  name="Catechol"  ><rect class="Icon" transform="matrix(.98765 0 0 .95238 .49383 .47619)" width="80" height="20" fill="#fff" stroke="#00f"/><text class="Text" transform="translate(40,13)" fill="#00f"  font-size="10px"  text-anchor="middle"><tspan x="0" y="0">Catechol</tspan></text></a><a class="Metabolite ChEBI_CHEBI_16716  " transform="translate(280.31 11.988)" color="#00f"  name="Benzene"  ><rect class="Icon" transform="matrix(.98765 0 0 .95238 .49383 .47619)" width="80" height="20" fill="#fff" stroke="#00f"/><text class="Text" transform="translate(40,13)" fill="#00f"  font-size="10px"  text-anchor="middle"><tspan x="0" y="0">Benzene</tspan></text></a><a  class="GeneProduct EPHX1 " transform="translate(402.31 184.99)"   name="Microsomal Epoxide Hydrolase"  ><rect class="Icon" transform="matrix(.99374 0 0 .95238 .49687 .47619)" width="158.69" height="20" fill="#fff" stroke="#000"/><text class="Text" transform="translate(79.344 13)"   font-size="10px"  text-anchor="middle"><tspan x="0" y="0">Microsomal Epoxide Hydrolase</tspan></text></a><g class="Metabolite" transform="translate(519.31 254.99)" color="#00f"  name="Benzene diol epoxide"><rect class="Icon" transform="matrix(.99138 0 0 .95238 .49569 .47619)" width="115" height="20" fill="#fff" stroke="#00f"/><text class="Text" transform="translate(57.5,13)" fill="#00f"  font-size="10px"  text-anchor="middle"><tspan x="0" y="0">Benzene diol epoxide</tspan></text></g><g class="Metabolite " transform="translate(37.279 125.77)" color="#00f"  name="S-Phenylmercapturic acid"><rect class="Icon" transform="matrix(.99265 0 0 .95238 .49632 .47619)" width="135" height="20" fill="#fff" stroke="#00f"/><text class="Text" transform="translate(67.5,13)" fill="#00f"  font-size="10px"  text-anchor="middle"><tspan x="0" y="0">S-Phenylmercapturic acid</tspan></text></g><a class="PubChem-compound_418 Metabolite ChEBI_CHEBI_18887  " transform="translate(344.31 254.99)" color="#00f"  name="Benzene dihydrodiol"  ><rect class="Icon" transform="matrix(.99083 0 0 .95238 .49541 .47619)" width="108" height="20" fill="#fff" stroke="#00f"/><text class="Text" transform="translate(54,13)" fill="#00f"  font-size="10px"  text-anchor="middle"><tspan x="0" y="0">Benzene dihydrodiol</tspan></text></a><a  class="GeneProduct MPO " transform="translate(513.97 518.77)"   name="MPO"  ><rect class="Icon" transform="matrix(.98225 0 0 .95238 .49112 .47619)" width="55.338" height="20" fill="#fff" stroke="#000"/><text class="Text" transform="translate(27.669 13)"   font-size="10px"  text-anchor="middle"><tspan x="0" y="0">MPO</tspan></text></a><a class="PubChem-compound_6451477 Metabolite " transform="translate(437.31 125.77)" color="#00f"  name="Oxepine"  ><rect class="Icon" transform="matrix(.98765 0 0 .95238 .49383 .47619)" width="80" height="20" fill="#fff" stroke="#00f"/><text class="Text" transform="translate(40,13)" fill="#00f"  font-size="10px"  text-anchor="middle"><tspan x="0" y="0">Oxepine</tspan></text></a><a  class="GeneProduct GSTM1 " transform="translate(175.04 78.988)"   name="Glutathione S-transferase"  ><rect class="Icon" transform="matrix(.99213 0 0 .95238 .49606 .47619)" width="126" height="20" fill="#fff" stroke="#000"/><text class="Text" transform="translate(63,13)"   font-size="10px"  text-anchor="middle"><tspan x="0" y="0">Glutathione S-transferase</tspan></text></a><a class="PubChem-compound_4650 Metabolite ChEBI_CHEBI_16509  " transform="translate(14.311 452.99)" color="#00f"  name="p-benzoquinone"  ><rect class="Icon" transform="matrix(.98765 0 0 .95238 .49383 .47619)" width="80" height="20" fill="#fff" stroke="#00f"/><text class="Text" transform="translate(40,13)" fill="#00f"  font-size="10px"  text-anchor="middle"><tspan x="0" y="0">p-benzoquinone</tspan></text></a><a class="Metabolite ChEBI_CHEBI_17594  " transform="translate(179.31 452.99)" color="#00f"  name="Hydroquinone"  ><rect class="Icon" transform="matrix(.98765 0 0 .95238 .49383 .47619)" width="80" height="20" fill="#fff" stroke="#00f"/><text class="Text" transform="translate(40,13)" fill="#00f"  font-size="10px"  text-anchor="middle"><tspan x="0" y="0">Hydroquinone</tspan></text></a><a class="PubChem-compound_104944 Metabolite ChEBI_CHEBI_2817  " transform="translate(280.31 125.77)" color="#00f"  name="Benzene oxide"  ><rect class="Icon" transform="matrix(.98765 0 0 .95238 .49383 .47619)" width="80" height="20" fill="#fff" stroke="#00f"/><text class="Text" transform="translate(40,13)" fill="#00f"  font-size="10px"  text-anchor="middle"><tspan x="0" y="0">Benzene oxide</tspan></text></a><a  class="GeneProduct NQO1 " transform="translate(134.87 518.77)"   name="NQO1"  ><rect class="Icon" transform="matrix(.97743 0 0 .95238 .48871 .47619)" width="43.299" height="20" fill="#fff" stroke="#000"/><text class="Text" transform="translate(21.649 13)"   font-size="10px"  text-anchor="middle"><tspan x="0" y="0">NQO1</tspan></text></a><g id="aa" class="Interaction" color="#000" ><g color="#000" fill="transparent"  filter="url(#a)" stroke="#000" stroke-dasharray="117.86054674952761, 5.8"><path class="EdgeBody" d="m340.31 145.77 58 109.22"   marker-end="url(#b)" /></g><g class="Burr Anchor" transform="translate(363.51 189.46)" ><use class="Icon" width="0" height="0" fill="#141414" stroke-width="0" xlink:href="#c"/></g></g><a  class="GeneProduct MPO " transform="translate(126.37 387.41)"   name="MPO"  ><rect class="Icon" transform="matrix(.98156 0 0 .95238 .49078 .47619)" width="53.235" height="20" fill="#fff" stroke="#000"/><text class="Text" transform="translate(26.617 13)"   font-size="10px"  text-anchor="middle"><tspan x="0" y="0">MPO</tspan></text></a><text class="Text" transform="translate(5,27)" dominant-baseline="central" fill="black"  font-size="12px" font-weight="bold" overflow="visible" ><tspan x="0" y="-9">Name: Benzene metabolism</tspan> <tspan x="0" y="9">Organism: Homo sapiens</tspan></text></g></svg>
