<?xml version="1.0" encoding="UTF-8"?>
<!--
  WikiPathways page: https://www.wikipathways.org/index.php/Pathway:WP3926
  URL for this compressed file: https://github.com/eweitz/cachome/tree/main/data/wikipathways/WP3926.svg
  Source code for compression: https://github.com/eweitz/cachome/tree/main/src/wikipathways.py
-->
<svg class="Diagram" width="800" height="600" color="black" baseProfile="full" prefix="schema:http://schema.org/" preserveAspectRatio="xMidYMid" version="1.1" viewBox="0 0 790 688" vocab="http://vocabularies.wikipathways.org/wp#" xmlns="http://www.w3.org/2000/svg" xmlns:xlink="http://www.w3.org/1999/xlink"><style>svg {font-family: 'Liberation Sans', Arial, sans-serif; }</style><defs><filter id="h" x="-50%" y="-50%" width="200%" height="200%"><feComposite in="SourceGraphic" in2="SourceGraphic" result="doubleDark"/><feMorphology in="doubleDark" operator="dilate" radius="0.16666666666666666" result="in2Double"/><feMorphology in="SourceGraphic" operator="dilate" radius="3" result="inDouble"/><feComposite in="inDouble" in2="in2Double" operator="out" result="doubleResult"/></filter><filter id="a" x="0" y="0" width="790" height="688" filterUnits="userSpaceOnUse"><feColorMatrix in="SourceGraphic" values="-1   0   0 0 0                   0  -1   0 0 0                   0   0  -1 0 0                   0   0   0 1 0"/></filter><marker id="c" stroke-dasharray="99999" markerHeight="12" markerUnits="userSpaceOnUse" markerWidth="12" orient="auto" preserveAspectRatio="none" refX="12" refY="6" viewBox="0 0 12 12"><path transform="rotate(180 6 6)" d="M12 11L0 6l12-5z" fill="currentColor" stroke-width="0"/></marker><marker id="e" stroke-dasharray="99999" markerHeight="12" markerUnits="userSpaceOnUse" markerWidth="12" orient="auto" preserveAspectRatio="none" refX="12" refY="6" viewBox="0 0 12 12"><path transform="rotate(180 6 6)" d="M12 12L0 6l12-6-7 6z" fill="currentColor" stroke-width="0"/></marker><marker id="d" stroke-dasharray="99999" markerHeight="12" markerUnits="userSpaceOnUse" markerWidth="12" orient="auto" preserveAspectRatio="none" refX="12" refY="6" viewBox="0 0 12 12"><path transform="rotate(180 6 6)" d="M12 11L0 6l12-5z" fill="currentColor" stroke-width="0"/></marker><marker id="i" stroke-dasharray="99999" markerHeight="20" markerUnits="userSpaceOnUse" markerWidth="10" orient="auto" preserveAspectRatio="none" refX="10" refY="10" viewBox="0 0 10 20"><path d="m3 0v20" fill="currentColor" stroke="currentColor"/></marker><marker id="f" stroke-dasharray="99999" markerHeight="24" markerUnits="userSpaceOnUse" markerWidth="20" orient="auto" preserveAspectRatio="none" refX="20" refY="12" viewBox="0 0 20 24"><g transform="rotate(180 10 12)" fill="none" stroke="#000"><path d="M15 12V5M15.5 5H8M0 5l8-4v8z"/></g></marker><symbol id="g" overflow="visible" preserveAspectRatio="none" viewBox="0 0 50 50"><ellipse cx="25" cy="25" rx="25" ry="25" stroke="currentColor" vector-effect="non-scaling-stroke"/></symbol><symbol id="b" preserveAspectRatio="none" viewBox="0 0 100 100"/></defs><g class="Viewport" color="black"  name="Name: ApoE and miR-146 in inflammation and atherosclerosis Organism: Homo sapiens"><rect class="Icon" width="790" height="688" fill="#fff" stroke="#000" stroke-width="0"/><g id="j" class="DirectedInteraction" color="#000" ><g color="#000" fill="transparent"  filter="url(#a)" stroke="#000" stroke-dasharray="103.7, 5.8"><path class="EdgeBody" d="m141 468v60.5h49"   marker-end="url(#c)" /></g></g><g id="k" class="Interaction" color="#000" ><g color="#000" fill="transparent"  filter="url(#a)" stroke="#000" stroke-dasharray="52.827567997064, 1"><path class="EdgeBody" d="m275.5 60 0.33418 53.827"   marker-end="url(#e)" /></g></g><g id="l" class="Interaction" color="#000" ><g color="#000" fill="transparent"  filter="url(#a)" stroke="#000" stroke-dasharray="53, 1"><path class="EdgeBody" d="m375.5 61v54"   marker-end="url(#e)" /></g></g><g id="m" class="Interaction" color="#000" ><g color="#000" fill="transparent"  filter="url(#a)" stroke="#000" stroke-dasharray="83.2, 5.8"><path class="EdgeBody" d="m479.5 378v-89"   marker-end="url(#d)" /></g></g><g id="n" class="DirectedInteraction" color="#000" ><g color="#000" fill="transparent"  filter="url(#a)" stroke="#000" stroke-dasharray="104.53333333333354, 5.8"><path class="EdgeBody" d="m693.83 195.5v-110.33"   marker-end="url(#c)" /></g><g class="Burr Anchor" transform="translate(693.83 141.32)" ><use class="Icon" width="0" height="0" fill="#141414" stroke-width="0" xlink:href="#b"/></g></g><g id="o" class="DirectedInteraction" color="#000" ><g color="#000" fill="transparent"  filter="url(#a)" stroke="#000" stroke-dasharray="196.49682793210457, 5.8"><path class="EdgeBody" d="m626.07 275.86v-134.53h67.762"   marker-end="url(#c)" /></g></g><g id="p" class="Interaction" color="#000" ><g color="#000" fill="transparent"  filter="url(#a)" stroke="#000" stroke-dasharray="36.2, 5.8"><path class="EdgeBody" d="m479.5 440v-42"   marker-end="url(#d)" /></g></g><g id="q" class="Interaction" color="#000" ><g color="#000" fill="transparent"  filter="url(#a)" stroke="#000" stroke-dasharray="73.62055134406705, 1"><path class="EdgeBody" d="m275.83 133.83 42.834 61.102"   marker-end="url(#e)" /></g></g><g id="r" class="Interaction" color="#000" ><g color="#000" fill="transparent"  filter="url(#a)" stroke="#000" stroke-dasharray="86.32094642718621, 7"><path class="EdgeBody" d="m447 222-93.316 0.92857"   marker-end="url(#i)" /></g></g><g id="s" class="Interaction" color="#000" ><g color="#000" fill="transparent"  filter="url(#a)" stroke="#000" stroke-dasharray="81.59096889782714, 1"><path class="EdgeBody" d="m375.5 135-56.832 59.929"   marker-end="url(#e)" /></g></g><g id="t" class="DirectedInteraction" color="#000" ><g color="#000" fill="transparent"  filter="url(#a)" stroke="#000" stroke-dasharray="35.64897959183669, 5.8"><path class="EdgeBody" d="m318.67 250.93 1e-13 41.449"   marker-end="url(#c)" /></g></g><g id="u" class="Interaction" color="#000" ><g color="#000" fill="transparent"  filter="url(#a)" stroke="#000" stroke-dasharray="84.2, 5.8"><path class="EdgeBody" d="m318.67 340.38v90"   marker-end="url(#d)" /></g></g><g id="v" class="Interaction" color="#000" ><g color="#000" fill="transparent"  filter="url(#a)" stroke="#000" stroke-dasharray="82.16913232861619, 11"><path class="EdgeBody" d="m282.17 458.38-93.168-0.37755"   marker-end="url(#f)" /></g></g><g id="w" class="Interaction" color="#000" ><g color="#000" fill="transparent"  filter="url(#a)" stroke="#000" stroke-dasharray="60.832624860694736, 11"><path class="EdgeBody" d="m355.17 458.38 71.832-0.37755"   marker-end="url(#f)" /></g></g><g id="x" class="DirectedInteraction" color="#000" ><g color="#000" fill="transparent"  filter="url(#a)" stroke="#000" stroke-dasharray="138.34349426448463, 5.8"><path class="EdgeBody" d="m626.07 295.86 0.42857 144.14"   marker-end="url(#c)" /></g></g><g class="SingleFreeNode Shape PhysicalEntity CellularComponent Cell" transform="translate(44.5,122.5)" color="#c0c0c0" ><g fill="transparent"  filter="url(#h)" stroke="#c0c0c0" stroke-width="3"><rect class="Icon" transform="matrix(.98354 0 0 .97814 5.9012 5.8689)" width="717" height="537" rx="15" ry="15"   /></g></g><g class="SingleFreeNode Shape PhysicalEntity CellularComponent Nucleus" transform="translate(52.5,344.5)" color="#c0c0c0" ><g fill="transparent"  filter="url(#h)" stroke="#c0c0c0" stroke-width="3"><use class="Icon" transform="matrix(.98291 0 0 .96026 5.8974 5.7616)" width="690" height="290"    xlink:href="#g"/></g></g><a  class="ChEBI_CHEBI_16412 Metabolite  " transform="translate(213,40)"   name="Lipopolysaccharide"  ><use class="Icon" width="125" height="20" fill="transparent"  stroke="#000" stroke-width="0" xlink:href="#b"/><text class="Text" transform="translate(62.5,14)"   font-size="12px" font-weight="bold"  text-anchor="middle"><tspan x="0" y="0">Lipopolysaccharide</tspan></text></a><a  class="GeneProduct APOE " transform="translate(594 275.86)"   name="APOE"  ><rect class="Icon" transform="matrix(.98465 0 0 .95238 .49232 .47619)" width="64.143" height="20" fill="#fff" stroke="#000"/><text class="Text" transform="translate(32.071 13)"   font-size="10px"  text-anchor="middle"><tspan x="0" y="0">APOE</tspan></text></a><a class="GeneProduct MIR146A " transform="translate(447,212)" color="#990099"  name="MIR146A"  ><rect class="Icon" transform="matrix(.98507 0 0 .95238 .49254 .47619)" width="66" height="20" fill="#fff" stroke="#909"/><text class="Text" transform="translate(33,13)" fill="#990099"  font-size="10px"  text-anchor="middle"><tspan x="0" y="0">MIR146A</tspan></text></a><a class="ChEBI_CHEBI_39025 Metabolite  " transform="translate(664 195.5)" color="#00f"  name="HDL"  ><rect class="Icon" transform="matrix(.98352 0 0 .96154 .49176 .48077)" width="59.667" height="25" fill="#fff" stroke="#00f"/><text class="Text" transform="translate(29.833 16.5)" fill="#00f"  font-size="12px"  text-anchor="middle"><tspan x="0" y="0">HDL</tspan></text></a><a  class="GeneProduct TLR4 " transform="translate(247 113.83)"   name="TLR4"  ><rect class="Icon" transform="matrix(.98296 0 0 .95238 .49148 .47619)" width="57.668" height="20" fill="#fff" stroke="#000"/><text class="Text" transform="translate(28.834 13)"   font-size="10px"  text-anchor="middle"><tspan x="0" y="0">TLR4</tspan></text></a><a  class="GeneProduct TLR2 " transform="translate(344,115)"   name="TLR2"  ><rect class="Icon" transform="matrix(.98438 0 0 .95238 .49219 .47619)" width="63" height="20" fill="#fff" stroke="#000"/><text class="Text" transform="translate(31.5,13)"   font-size="10px"  text-anchor="middle"><tspan x="0" y="0">TLR2</tspan></text></a><g class="GroupGroup" transform="translate(283.65 194.93)" color="grey" ><use class="Icon" width="70.03061224489795" height="56" fill="transparent"  stroke="grey" stroke-dasharray="5,3" stroke-width="0" xlink:href="#b"/><a  class="GeneProduct IRAK1 " transform="translate(8,8)"   name="IRAK1"  ><rect class="Icon" transform="matrix(.98183 0 0 .95238 .49091 .47619)" width="54.031" height="20" fill="#fff" stroke="#000"/><text class="Text" transform="translate(27.015 13)"   font-size="10px"  text-anchor="middle"><tspan x="0" y="0">IRAK1</tspan></text></a><a  class="GeneProduct TRAF6 " transform="translate(8,28)"   name="TRAF6"  ><rect class="Icon" transform="matrix(.98183 0 0 .95238 .49091 .47619)" width="54.031" height="20" fill="#fff" stroke="#000"/><text class="Text" transform="translate(27.015 13)"   font-size="10px"  text-anchor="middle"><tspan x="0" y="0">TRAF6</tspan></text></a></g><g class="GroupGroup" transform="translate(282.17 284.38)" color="grey" ><use class="Icon" width="73" height="56" fill="transparent"  stroke="grey" stroke-dasharray="5,3" stroke-width="0" xlink:href="#b"/><a  class="GeneProduct NFKB2 " transform="translate(8,28)"   name="NFKB2"  ><rect class="Icon" transform="matrix(.98276 0 0 .95238 .49138 .47619)" width="57" height="20" fill="#fff" stroke="#000"/><text class="Text" transform="translate(28.5,13)"   font-size="10px"  text-anchor="middle"><tspan x="0" y="0">NFKB2</tspan></text></a><a  class="GeneProduct RELA " transform="translate(8,8)"   name="RELA"  ><rect class="Icon" transform="matrix(.98276 0 0 .95238 .49138 .47619)" width="57" height="20" fill="#fff" stroke="#000"/><g class="Burr State" transform="translate(48.5,-7.5)" color="#000"  name="P"><use class="Icon" transform="matrix(.9375 0 0 .9375 .46875 .46875)" width="15" height="15" fill="#fff" stroke="#000" xlink:href="#g"/><text class="Text" transform="translate(7.5,10.5)"   font-size="10px"  text-anchor="middle"><tspan x="0" y="0">P</tspan></text></g><text class="Text" transform="translate(28.5,13)"   font-size="10px"  text-anchor="middle"><tspan x="0" y="0">RELA</tspan></text></a></g><g class="GroupGroup" transform="translate(593,440)" color="grey" ><use class="Icon" width="67" height="36" fill="transparent"  stroke="grey" stroke-dasharray="5,3" stroke-width="0" xlink:href="#b"/><a  class="GeneProduct SPI1 " transform="translate(8,8)"   name="SPI1"  ><rect class="Icon" transform="matrix(.98077 0 0 .95238 .49038 .47619)" width="51" height="20" fill="#fff" stroke="#000"/><text class="Text" transform="translate(25.5,13)"   font-size="10px"  text-anchor="middle"><tspan x="0" y="0">SPI1</tspan></text></a></g><a  class="ChEBI_CHEBI_60151 Metabolite  " transform="translate(343,41)"   name="ox-LDL"  ><use class="Icon" width="65" height="20" fill="transparent"  stroke="#000" stroke-width="0" xlink:href="#b"/><text class="Text" transform="translate(32.5,14)"   font-size="12px" font-weight="bold"  text-anchor="middle"><tspan x="0" y="0">ox-LDL</tspan></text></a><g class="GroupGroup" transform="translate(282.17 430.38)" color="grey" ><use class="Icon" width="73" height="56" fill="transparent"  stroke="grey" stroke-dasharray="5,3" stroke-width="0" xlink:href="#b"/><a  class="GeneProduct RELA " transform="translate(8,8)"   name="RELA"  ><rect class="Icon" transform="matrix(.98276 0 0 .95238 .49138 .47619)" width="57" height="20" fill="#fff" stroke="#000"/><g class="Burr State" transform="translate(46.5,-7.5)" color="#000"  name="P"><use class="Icon" transform="matrix(.9375 0 0 .9375 .46875 .46875)" width="15" height="15" fill="#fff" stroke="#000" xlink:href="#g"/><text class="Text" transform="translate(7.5,10.5)"   font-size="10px"  text-anchor="middle"><tspan x="0" y="0">P</tspan></text></g><text class="Text" transform="translate(28.5,13)"   font-size="10px"  text-anchor="middle"><tspan x="0" y="0">RELA</tspan></text></a><a  class="GeneProduct NFKB2 " transform="translate(8,28)"   name="NFKB2"  ><rect class="Icon" transform="matrix(.98276 0 0 .95238 .49138 .47619)" width="57" height="20" fill="#fff" stroke="#000"/><text class="Text" transform="translate(28.5,13)"   font-size="10px"  text-anchor="middle"><tspan x="0" y="0">NFKB2</tspan></text></a></g><g class="Label" transform="translate(190,508)" color="#000"  name="Monocyte and macrophage  activation"><use class="Icon" width="195" height="41" fill="transparent"  stroke="#000" stroke-width="0" xlink:href="#b"/><text class="Text" transform="translate(97.5,24.5)"   font-size="12px" font-weight="bold"  text-anchor="middle"><tspan x="0" y="-6.6000000000000005">Monocyte and macrophage </tspan> <tspan x="0" y="6.6000000000000005">activation</tspan></text></g><g class="GroupGroup" transform="translate(427,440)" color="grey" ><use class="Icon" width="105" height="36" fill="transparent"  stroke="grey" stroke-dasharray="5,3" stroke-width="0" xlink:href="#b"/><g class="Label" transform="translate(8,8)" color="#000"  name="pri-miR-146a"><use class="Icon" width="89" height="20" fill="transparent"  stroke="#000" stroke-width="0" xlink:href="#b"/><text class="Text" transform="translate(44.5,14)"   font-size="12px" font-weight="bold"  text-anchor="middle"><tspan x="0" y="0">pri-miR-146a</tspan></text></g></g><g class="Label" transform="translate(435,378)" color="#000"  name="pre-miR-146a"><use class="Icon" width="89" height="20" fill="transparent"  stroke="#000" stroke-width="0" xlink:href="#b"/><text class="Text" transform="translate(44.5,14)"   font-size="12px" font-weight="bold"  text-anchor="middle"><tspan x="0" y="0">pre-miR-146a</tspan></text></g><g class="Label" transform="translate(435,269)" color="#000"  name="pre-miR-146a"><use class="Icon" width="89" height="20" fill="transparent"  stroke="#000" stroke-width="0" xlink:href="#b"/><text class="Text" transform="translate(44.5,14)"   font-size="12px" font-weight="bold"  text-anchor="middle"><tspan x="0" y="0">pre-miR-146a</tspan></text></g><g id="y" class="Interaction" color="#000" ><g color="#000" fill="transparent"  filter="url(#a)" stroke="#000" stroke-dasharray="31.203378224156776, 5.8"><path class="EdgeBody" d="m479.5 269 0.5-37"   marker-end="url(#d)" /></g></g><g id="z" class="Interaction" color="#000" ><g color="#000" fill="transparent"  filter="url(#a)" stroke="#000" stroke-dasharray="50, 11"><path class="EdgeBody" d="m593 458h-61"   marker-end="url(#f)" /></g></g><g class="Label" transform="translate(93,448)" color="#000"  name="cytokine genes"><use class="Icon" width="96" height="20" fill="transparent"  stroke="#000" stroke-width="0" xlink:href="#b"/><text class="Text" transform="translate(48,14)"   font-size="12px" font-weight="bold"  text-anchor="middle"><tspan x="0" y="0">cytokine genes</tspan></text></g><a class="ChEBI_CHEBI_39025 Metabolite  " transform="translate(664 60.167)" color="#00f"  name="HDL"  ><rect class="Icon" transform="matrix(.98352 0 0 .96154 .49176 .48077)" width="59.667" height="25" fill="#fff" stroke="#00f"/><text class="Text" transform="translate(29.833 16.5)" fill="#00f"  font-size="12px"  text-anchor="middle"><tspan x="0" y="0">HDL</tspan></text></a><text class="Text" transform="translate(5,27)" dominant-baseline="central" fill="black"  font-size="12px" font-weight="bold" overflow="visible" ><tspan x="0" y="-9">Name: ApoE and miR-146 in inflammation and atherosclerosis</tspan> <tspan x="0" y="9">Organism: Homo sapiens</tspan></text></g></svg>
