<?xml version="1.0" encoding="UTF-8"?>
<!--
  WikiPathways page: https://www.wikipathways.org/index.php/Pathway:WP3965
  URL for this compressed file: https://github.com/eweitz/cachome/tree/main/data/wikipathways/WP3965.svg
  Source code for compression: https://github.com/eweitz/cachome/tree/main/src/wikipathways.py
-->
<svg class="Diagram" width="800" height="600" color="black" baseProfile="full" prefix="schema:http://schema.org/" preserveAspectRatio="xMidYMid" version="1.1" viewBox="0 0 934.42 1023.4" vocab="http://vocabularies.wikipathways.org/wp#" xmlns="http://www.w3.org/2000/svg" xmlns:xlink="http://www.w3.org/1999/xlink"><style>svg {font-family: 'Liberation Sans', Arial, sans-serif; }</style><defs><filter id="a" x="0" y="0" width="934.42" height="1023.4" filterUnits="userSpaceOnUse"><feColorMatrix in="SourceGraphic" values="-1   0   0 0 0                   0  -1   0 0 0                   0   0  -1 0 0                   0   0   0 1 0"/></filter><filter id="h" x="0" y="0" width="934.42" height="1023.4" filterUnits="userSpaceOnUse"><feColorMatrix in="SourceGraphic" values="-1   0   0 0 1                   0  -1   0 0 0.6                   0   0  -1 0 0                   0   0   0 1 0"/></filter><marker id="f" stroke-dasharray="99999" markerHeight="12" markerUnits="userSpaceOnUse" markerWidth="12" orient="auto" preserveAspectRatio="none" refX="12" refY="6" viewBox="0 0 12 12"><path transform="rotate(180 6 6)" d="M12 11L0 6l12-5z" fill="currentColor" stroke-width="0"/></marker><marker id="d" stroke-dasharray="99999" markerHeight="12" markerUnits="userSpaceOnUse" markerWidth="12" orient="auto" preserveAspectRatio="none" refX="12" refY="6" viewBox="0 0 12 12"><circle transform="rotate(180 6 6)" cx="6" cy="6" r="5.3" fill="none" stroke="#000"/></marker><marker id="c" stroke-dasharray="99999" markerHeight="12" markerUnits="userSpaceOnUse" markerWidth="12" orient="auto" preserveAspectRatio="none" refX="12" refY="6" viewBox="0 0 12 12"><path transform="rotate(180 6 6)" d="M12 11L0 6l12-5z" fill="currentColor" stroke-width="0"/></marker><marker id="g" stroke-dasharray="99999" markerHeight="20" markerUnits="userSpaceOnUse" markerWidth="10" orient="auto" preserveAspectRatio="none" refX="10" refY="10" viewBox="0 0 10 20"><path d="m3 0v20" fill="currentColor" stroke="currentColor"/></marker><marker id="e" stroke-dasharray="99999" markerHeight="12" markerUnits="userSpaceOnUse" markerWidth="12" orient="auto" preserveAspectRatio="none" refX="12" refY="6" viewBox="0 0 12 12"><g transform="rotate(180 6 6)" fill="none"><path d="m12 6"/><path d="M0 6l11 5V1z" stroke="#000"/></g></marker><symbol id="k" overflow="visible" preserveAspectRatio="none" viewBox="0 0 50 50"><ellipse cx="25" cy="25" rx="25" ry="25" stroke="currentColor" vector-effect="non-scaling-stroke"/></symbol><symbol id="j" overflow="visible" preserveAspectRatio="none" viewBox="0 0 100 100"><ellipse cx="50" cy="50" rx="50" ry="50" stroke="currentColor"/><path d="M14.895 26.347c4.364-.741 3.827 17.037 8.183 16.184 8.273.03 2.982-28.149 9.9-28.337 6.967-.187 2.246 29.948 9.204 29.44 7.633-.56.508-32.935 8.137-33.623 7.698-.689 2.919 32.04 10.628 32.225 6.547.16 3.026-27.643 9.56-26.921 7.193.793.665 29.842 7.782 31.667 4.748 1.216 4.42-18.258 9.204-17.44 11.129 7.577 8.628 37.698-2.18 44.644-3.138.699-3.966-10.502-7.113-9.905-5.59 1.059-3.982 22.284-9.603 21.8-5.24-.457-2.226-21.637-7.47-21.73-6.962-.117-3.358 28.924-10.317 28.495-6.14-.376-1.73-24.95-7.825-26.192-5.682-1.157-5.378 22.17-11.027 20.68-6.25-1.644-.47-26.673-6.76-27.865-3.728-.706-2.647 14.4-6.403 14.545-14.016-5.939-15.749-39.708-3.9-47.667z" stroke="currentColor" vector-effect="non-scaling-stroke"/></symbol><symbol id="i" overflow="visible" preserveAspectRatio="none" viewBox="0 0 100 100"><path d="M0 25L25 0h50l25 25v50l-25 25H25L0 75z" stroke="currentColor" vector-effect="non-scaling-stroke"/></symbol><symbol id="b" preserveAspectRatio="none" viewBox="0 0 100 100"/></defs><g class="Viewport" color="black"  name="Name: Lipid metabolism pathway Organism: Homo sapiens"><rect class="Icon" width="934.42" height="1023.4" fill="#fff" stroke="#000" stroke-width="0"/><g class="SingleFreeNode Shape PhysicalEntity CellularComponent Vesicle" transform="translate(118.27 714.34)" color="#c0c0c0"  name="Lipid Droplet"><use class="Icon" transform="matrix(.98681 0 0 .98704 1.4802 1.4806)" width="224.5" height="228.5" fill="transparent"  stroke="#c0c0c0" stroke-width="3" xlink:href="#k"/><text class="Text" transform="translate(112.25,217.25)" fill="#c0c0c0"  font-size="15px" font-weight="bold" stroke="black" stroke-width="0" text-anchor="middle"><tspan x="0" y="0">Lipid Droplet</tspan></text></g><g class="SingleFreeNode Shape PhysicalEntity CellularComponent Mitochondria" transform="translate(156.99 14.403)" color="#c0c0c0"  name="Mitochondria"><use class="Icon" transform="matrix(.994 0 0 .98846 1.491 1.4827)" width="497.4122947742967" height="256.85388289858656" fill="transparent"  stroke="#c0c0c0" stroke-width="3" xlink:href="#j"/><text class="Text" transform="translate(8 132.43)" fill="#c0c0c0"  font-size="14px" font-weight="bold" stroke="black" stroke-width="0"><tspan x="0" y="0">Mitochondria</tspan></text></g><g id="l" class="Interaction" color="#000" ><g color="#000" fill="transparent"  filter="url(#a)" stroke="#000" stroke-dasharray="5.56, 3.34, 5.56, 3.34, 5.56, 3.34, 5.56, 3.34, 5.56, 3.34, 5.56, 3.34, 5.56, 7"><path class="EdgeBody" d="m61.5 663.25v32.506h33.427"   marker-end="url(#g)" /></g></g><g id="m" class="Edge GraphicalLine DirectedInteraction" color="#ff9900" ><g color="#ff9900" fill="transparent"  filter="url(#h)" stroke="#000" stroke-dasharray="254.51746031746035, 5.8" stroke-width="3"><path class="EdgeBody" d="m546.97 461.37v260.32"   marker-end="url(#f)" /></g></g><g id="n" class="Interaction" color="#000" ><g color="#000" fill="transparent"  filter="url(#a)" stroke="#000" stroke-dasharray="53.302535832414506, 5.8" stroke-width="3"><path class="EdgeBody" d="m478.05 444.44v59.103"   marker-end="url(#c)" /></g><g class="Burr Anchor" transform="translate(478.05 471.24)" ><use class="Icon" width="0" height="0" fill="#141414" stroke-width="0" xlink:href="#b"/></g></g><g id="o" class="Interaction" color="#000" ><g color="#000" fill="transparent"  filter="url(#a)" stroke="#000" stroke-dasharray="72.09007015886046, 5.8"><path class="EdgeBody" d="m609.06 431.94h-77.89"   marker-end="url(#c)" /></g><g class="Burr Anchor" transform="translate(575.85 431.94)" ><use class="Icon" width="0" height="0" fill="#141414" stroke-width="0" xlink:href="#b"/></g></g><g id="p" class="Interaction" color="#000" ><g color="#000" fill="transparent"  filter="url(#a)" stroke="#000" stroke-dasharray="61.0974641675855, 5.8"><path class="EdgeBody" d="m478.05 352.54v66.897"   marker-end="url(#c)" /></g><g class="Burr Anchor" transform="translate(478.05 382.35)" ><use class="Icon" width="0" height="0" fill="#141414" stroke-width="0" xlink:href="#b"/></g></g><g id="q" class="Interaction" color="#000" ><g color="#000" fill="transparent"  filter="url(#a)" stroke="#000" stroke-dasharray="17.50386938974089, 11"><path class="EdgeBody" d="m449.55 382.65 28.502-0.30003"   marker-end="url(#d)" /></g></g><g id="r" class="Interaction" color="#000" ><g color="#000" fill="transparent"  filter="url(#a)" stroke="#000" stroke-dasharray="61.2, 5.8"><path class="EdgeBody" d="m478.05 528.54v67"   marker-end="url(#c)" /></g><g class="Burr Anchor" transform="translate(478.05 561.84)" ><use class="Icon" width="0" height="0" fill="#141414" stroke-width="0" xlink:href="#b"/></g></g><g id="s" class="DirectedInteraction" color="#000" ><g color="#000" fill="transparent"  filter="url(#a)" stroke="#000" stroke-dasharray="103.31672207364943, 5.8"><path class="EdgeBody" d="m478.05 722.54 70.568 83.227"   marker-end="url(#f)" /></g></g><g id="t" class="Interaction" color="#000" ><g color="#000" fill="transparent"  filter="url(#a)" stroke="#000" stroke-dasharray="77.20000000000003, 5.8"><path class="EdgeBody" d="m478.05 244.54v83"   marker-end="url(#c)" /></g></g><g id="u" class="DirectedInteraction" color="#000" ><g color="#000" fill="transparent"  filter="url(#a)" stroke="#000" stroke-dasharray="31.42282076632404, 5.8"><path class="EdgeBody" d="m373.5 822.88-37.222 0.30191"   marker-end="url(#f)" /></g></g><g id="v" class="Interaction" color="#000" ><g color="#000" fill="transparent"  filter="url(#a)" stroke="#000" stroke-dasharray="5.42, 3.25, 5.42, 3.25, 5.42, 3.25, 5.42, 3.25, 5.42, 3.25, 5.42, 11"><path class="EdgeBody" d="m294.49 667.75h26.388v33.37"   marker-end="url(#e)" /></g></g><g id="w" class="Interaction" color="#000" ><g color="#000" fill="transparent"  filter="url(#a)" stroke="#000" stroke-dasharray="54.519521530773886, 7"><path class="EdgeBody" d="m340.88 639.6v61.52"   marker-end="url(#g)" /></g></g><g id="x" class="Interaction" color="#000" ><g color="#000" fill="transparent"  filter="url(#a)" stroke="#000" stroke-dasharray="128.0464259700728, 5.8"><path class="EdgeBody" d="m172.78 834.58v133.85"   marker-end="url(#c)" /></g></g><g id="y" class="Interaction" color="#000" ><g color="#000" fill="transparent"  filter="url(#a)" stroke="#000" stroke-dasharray="71.2, 5.8"><path class="EdgeBody" d="m478.05 620.54v77"   marker-end="url(#c)" /></g><g class="Burr Anchor" transform="translate(478.05 660.84)" ><use class="Icon" width="0" height="0" fill="#141414" stroke-width="0" xlink:href="#b"/></g></g><g id="z" class="Interaction" color="#000" ><g color="#000" fill="transparent"  filter="url(#a)" stroke="#000" stroke-dasharray="97.82433317552115, 5.8"><path class="EdgeBody" d="m478.05 115.91v103.62"   marker-end="url(#c)" /></g><g class="Burr Anchor" transform="translate(478.05 157.36)" ><use class="Icon" width="0" height="0" fill="#141414" stroke-width="0" xlink:href="#b"/></g></g><g id="aa" class="Interaction" color="#000" ><g color="#000" fill="transparent"  filter="url(#a)" stroke="#000" stroke-dasharray="16.170725824095857, 11"><path class="EdgeBody" d="m450.89 158.09 27.161-0.73033"   marker-end="url(#d)" /></g></g><g id="ab" class="Interaction" color="#000" ><g color="#000" fill="transparent"  filter="url(#a)" stroke="#000" stroke-dasharray="72.36704544157594, 11"><path class="EdgeBody" d="m561.42 471.89-83.365-0.64698"   marker-end="url(#d)" /></g></g><g id="ac" class="Interaction" color="#000" ><g color="#000" fill="transparent"  filter="url(#a)" stroke="#000" stroke-dasharray="72.38587329401783, 5.8"><path class="EdgeBody" d="m195.39 744.82h-3.7674c-3.7674-1e-13 -11.302-1e-13 -15.07 10.792-3.7674 10.792-3.7674 32.377-3.7674 43.17l3e-14 10.792"   marker-end="url(#c)" /></g><g class="Burr Anchor" transform="translate(177.93 752.4)" ><use class="Icon" width="0" height="0" fill="#141414" stroke-width="0" xlink:href="#b"/></g></g><g id="ad" class="DirectedInteraction" color="#000" ><g color="#000" fill="transparent"  filter="url(#a)" stroke="#000" stroke-dasharray="96.1657631567106, 5.8"><path class="EdgeBody" d="m478.05 722.54-58.355 83.617"   marker-end="url(#f)" /></g></g><g id="ae" class="Interaction" color="#000" ><g color="#000" fill="transparent"  filter="url(#a)" stroke="#000" stroke-dasharray="17.502431796111836, 11"><path class="EdgeBody" d="m449.55 660.75 28.502 0.089803"   marker-end="url(#d)" /></g></g><g id="af" class="Interaction" color="#000" ><g color="#000" fill="transparent"  filter="url(#a)" stroke="#000" stroke-dasharray="15.934028558203131, 11"><path class="EdgeBody" d="m451.12 561.97 26.934-0.12592"   marker-end="url(#d)" /></g></g><g id="ag" class="Interaction" color="#000" ><g color="#000" fill="transparent"  filter="url(#a)" stroke="#000" stroke-dasharray="171.30155794139313, 5.8"><path class="EdgeBody" d="m478.05 722.54v177.1"   marker-end="url(#c)" /></g></g><g id="ah" class="Interaction" color="#000" ><g color="#000" fill="transparent"  filter="url(#a)" stroke="#000" stroke-dasharray="84.5266323117412, 5.8"><path class="EdgeBody" d="m301.62 810.68-1e-13 -10.976c1e-13 -10.976 1e-13 -32.929-6.1562-43.905-6.1562-10.976-18.469-10.976-24.625-10.976h-6.1562"   marker-end="url(#c)" /></g><g class="Burr Anchor" transform="translate(294.91 754.86)" ><use class="Icon" width="0" height="0" fill="#141414" stroke-width="0" xlink:href="#b"/></g></g><g id="ai" class="Interaction" color="#000" ><g color="#000" fill="transparent"  filter="url(#a)" stroke="#000" stroke-dasharray="21.71583317676972, 11"><path class="EdgeBody" d="m575.49 399.22 0.36104 32.714"   marker-end="url(#d)" /></g></g><g id="aj" class="Interaction" color="#000" ><g color="#000" fill="transparent"  filter="url(#a)" stroke="#000" stroke-dasharray="99.29605051393223, 5.8"><path class="EdgeBody" d="m294.06 189.16v105.1"   marker-end="url(#c)" /></g><g class="Burr Anchor" transform="translate(294.06 244.58)" ><use class="Icon" width="0" height="0" fill="#141414" stroke-width="0" xlink:href="#b"/></g></g><g id="ak" class="Interaction" color="#000" ><g color="#000" fill="transparent"  filter="url(#a)" stroke="#000" stroke-dasharray="57.94867821247655, 11"><path class="EdgeBody" d="m134.93 705.76 46.667 50.756"   marker-end="url(#d)" /></g></g><g id="al" class="Interaction" color="#000" ><g color="#000" fill="transparent"  filter="url(#a)" stroke="#000" stroke-dasharray="53.67547476947284, 11"><path class="EdgeBody" d="m340.88 721.12-51.122 39.616"   marker-end="url(#d)" /></g></g><g id="am" class="Interaction" color="#000" ><g color="#000" fill="transparent"  filter="url(#a)" stroke="#000" stroke-dasharray="131.99085444199397, 11"><path class="EdgeBody" d="m229.96 351.64 139.59 31.013"   marker-end="url(#e)" /></g></g><g id="an" class="Interaction" color="#000" ><g color="#000" fill="transparent"  filter="url(#a)" stroke="#000" stroke-dasharray="96.67419966559375, 11"><path class="EdgeBody" d="m159.15 607.72 95.341 50.038"   marker-end="url(#e)" /></g></g><g id="ao" class="Interaction" color="#000" ><g color="#000" fill="transparent"  filter="url(#a)" stroke="#000" stroke-dasharray="145.45322308698672, 11"><path class="EdgeBody" d="m220.85 431.29 148.7-48.643"   marker-end="url(#e)" /></g></g><g id="ap" class="Interaction" color="#000" ><g color="#000" fill="transparent"  filter="url(#a)" stroke="#000" stroke-dasharray="70.71372619588425, 11"><path class="EdgeBody" d="m159.15 607.72-24.223 78.041"   marker-end="url(#e)" /></g></g><g id="aq" class="Interaction" color="#000" ><g color="#000" fill="transparent"  filter="url(#a)" stroke="#000" stroke-dasharray="105.80601260287733, 7"><path class="EdgeBody" d="m669.61 526.5h-68.191v-44.615"   marker-end="url(#g)" /></g></g><g id="ar" class="Interaction" color="#000" ><g color="#000" fill="transparent"  filter="url(#a)" stroke="#000" stroke-dasharray="19.79355295365908, 11"><path class="EdgeBody" d="m263.27 245.23 30.787-0.64153"   marker-end="url(#d)" /></g></g><g class="Label" transform="translate(535.76 579.32)" color="#ff9900"  name="Lipogenesis"><use class="Icon" width="136.78992121827378" height="25" fill="transparent"  stroke="#ff9900" stroke-width="0" xlink:href="#b"/><text class="Text" transform="translate(68.395 17.5)" fill="#ff9900"  font-size="16px" font-weight="bold" stroke="black" stroke-width="0" text-anchor="middle"><tspan x="0" y="0">Lipogenesis</tspan></text></g><g class="Label" transform="translate(372.63 473.44)" color="#000"  name="rate limiting step"><use class="Icon" width="110.71465812548969" height="25" fill="transparent"  stroke="#000" stroke-width="0" xlink:href="#b"/><text class="Text" transform="translate(55.357 16.5)"   font-size="12px"  text-anchor="middle"><tspan x="0" y="0">rate limiting step</tspan></text></g><g class="GroupNone" transform="translate(132.96 302.53)" color="grey" ><rect class="Icon" transform="matrix(.9899 0 0 .98992 .49495 .49496)" width="98" height="98.225" fill="#b4b464" fill-opacity=".1" stroke="grey" stroke-dasharray="5,3"/><g class="Label" transform="translate(9,9)" color="#000"  name="AKT"><use class="Icon" width="80" height="20.224905866590674" fill="transparent"  stroke="#000" stroke-width="0" xlink:href="#b"/><text class="Text" transform="translate(40 14.112)"   font-size="12px" font-weight="bold"  text-anchor="middle"><tspan x="0" y="0">AKT</tspan></text></g><a  class="GeneProduct AKT3 " transform="translate(9 69.225)"   name="AKT3"  ><rect class="Icon" transform="matrix(.98765 0 0 .95238 .49383 .47619)" width="80" height="20" fill="#fff" stroke="#000"/><text class="Text" transform="translate(40,14)"   font-size="12px"  text-anchor="middle"><tspan x="0" y="0">AKT3</tspan></text></a><a  class="GeneProduct AKT2 " transform="translate(9 49.225)"   name="AKT2"  ><rect class="Icon" transform="matrix(.98765 0 0 .95238 .49383 .47619)" width="80" height="20" fill="#fff" stroke="#000"/><text class="Text" transform="translate(40 14)"   font-size="12px"  text-anchor="middle"><tspan x="0" y="0">AKT2</tspan></text></a><a  class="GeneProduct AKT1 " transform="translate(9 29.225)"   name="AKT1"  ><rect class="Icon" transform="matrix(.98765 0 0 .95238 .49383 .47619)" width="80" height="20" fill="#fff" stroke="#000"/><text class="Text" transform="translate(40 14)"   font-size="12px"  text-anchor="middle"><tspan x="0" y="0">AKT1</tspan></text></a></g><g class="GroupComplex" transform="translate(669.61 449.5)" color="grey" ><use class="Icon" transform="matrix(.99596 0 0 .99355 .49798 .49677)" width="246.8087912746339" height="154.0000000000001" fill="#b4b464" fill-opacity=".1" stroke="grey" xlink:href="#i"/><g class="Label" transform="translate(12 12)" color="#000"  name="AMPK subunit α"><use class="Icon" width="116.73126876119692" height="25" fill="transparent"  stroke="#000" stroke-width="0" xlink:href="#b"/><text class="Text" transform="translate(58.366 16.5)"   font-size="12px" font-weight="bold"  text-anchor="middle"><tspan x="0" y="0">AMPK subunit α</tspan></text></g><a  class="GeneProduct PRKAG3 " transform="translate(136.44 108.04)"   name="PRKAG3"  ><rect class="Icon" transform="matrix(.98765 0 0 .95238 .49383 .47619)" width="80" height="20" fill="#fff" stroke="#000"/><text class="Text" transform="translate(40,14)"   font-size="12px"  text-anchor="middle"><tspan x="0" y="0">PRKAG3</tspan></text></a><a  class="GeneProduct PRKAG1 " transform="translate(136.44 68.036)"   name="PRKAG1"  ><rect class="Icon" transform="matrix(.98765 0 0 .95238 .49383 .47619)" width="80" height="20" fill="#fff" stroke="#000"/><text class="Text" transform="translate(40,14)"   font-size="12px"  text-anchor="middle"><tspan x="0" y="0">PRKAG1</tspan></text></a><a  class="GeneProduct PRKAA1 " transform="translate(30.366 37)"   name="PRKAA1"  ><rect class="Icon" transform="matrix(.98765 0 0 .95238 .49383 .47619)" width="80" height="20" fill="#fff" stroke="#000"/><text class="Text" transform="translate(40,14)"   font-size="12px"  text-anchor="middle"><tspan x="0" y="0">PRKAA1</tspan></text></a><a  class="GeneProduct PRKAB2 " transform="translate(30.366 122)"   name="PRKAB2"  ><rect class="Icon" transform="matrix(.98765 0 0 .95238 .49383 .47619)" width="80" height="20" fill="#fff" stroke="#000"/><text class="Text" transform="translate(40,14)"   font-size="12px"  text-anchor="middle"><tspan x="0" y="0">PRKAB2</tspan></text></a><a  class="GeneProduct PRKAB1 " transform="translate(30.366 102)"   name="PRKAB1"  ><rect class="Icon" transform="matrix(.98765 0 0 .95238 .49383 .47619)" width="80" height="20" fill="#fff" stroke="#000"/><text class="Text" transform="translate(40,14)"   font-size="12px"  text-anchor="middle"><tspan x="0" y="0">PRKAB1</tspan></text></a><a  class="GeneProduct PRKAA2 " transform="translate(30.366 57)"   name="PRKAA2"  ><rect class="Icon" transform="matrix(.98765 0 0 .95238 .49383 .47619)" width="80" height="20" fill="#fff" stroke="#000"/><text class="Text" transform="translate(40,14)"   font-size="12px"  text-anchor="middle"><tspan x="0" y="0">PRKAA2</tspan></text></a><a  class="GeneProduct PRKAG2 " transform="translate(136.44 88.036)"   name="PRKAG2"  ><rect class="Icon" transform="matrix(.98765 0 0 .95238 .49383 .47619)" width="80" height="20" fill="#fff" stroke="#000"/><text class="Text" transform="translate(40,14)"   font-size="12px"  text-anchor="middle"><tspan x="0" y="0">PRKAG2</tspan></text></a><g class="Label" transform="translate(12 77)" color="#000"  name="AMPK subunit β"><use class="Icon" width="116.73126876119692" height="25" fill="transparent"  stroke="#000" stroke-width="0" xlink:href="#b"/><text class="Text" transform="translate(58.366 16.5)"   font-size="12px" font-weight="bold"  text-anchor="middle"><tspan x="0" y="0">AMPK subunit β</tspan></text></g><g class="Label" transform="translate(118.08 43.036)" color="#000"  name="AMPK subunit γ"><use class="Icon" width="116.73126876119692" height="25" fill="transparent"  stroke="#000" stroke-width="0" xlink:href="#b"/><text class="Text" transform="translate(58.366 16.5)"   font-size="12px" font-weight="bold"  text-anchor="middle"><tspan x="0" y="0">AMPK subunit γ</tspan></text></g></g><a  class="GeneProduct PLIN1 " transform="translate(34,638.25)"   name="PLIN1"  ><rect class="Icon" transform="matrix(.98214 0 0 .96154 .49107 .48077)" width="55" height="25" fill="#fff" stroke="#000" stroke-dasharray="5,3"/><text class="Text" transform="translate(27.5,16.5)"   font-size="12px"  text-anchor="middle"><tspan x="0" y="0">PLIN1</tspan></text></a><g class="Pathway" transform="translate(373.5 806.16)" color="#14961e"  name="Glycerolipid metabolism"><use class="Icon" width="92.40750000000006" height="33.44749999999998" fill="transparent"  stroke="#14961e" stroke-width="0" xlink:href="#b"/><text class="Text" transform="translate(46.204 20.724)" fill="#14961e"  font-size="12px" font-weight="bold" stroke="black" stroke-width="0" text-anchor="middle"><tspan x="0" y="-6.6000000000000005">Glycerolipid</tspan> <tspan x="0" y="6.6000000000000005">metabolism</tspan></text></g><g class="Pathway" transform="translate(492.44 805.77)" color="#14961e"  name="Fatty acid elongation"><use class="Icon" width="112.35748107693738" height="37.857500000000044" fill="transparent"  stroke="#14961e" stroke-width="0" xlink:href="#b"/><text class="Text" transform="translate(56.179 22.929)" fill="#14961e"  font-size="12px" font-weight="bold" stroke="black" stroke-width="0" text-anchor="middle"><tspan x="0" y="-6.6000000000000005">Fatty acid</tspan> <tspan x="0" y="6.6000000000000005">elongation</tspan></text></g><a  class="GeneProduct HILPDA " transform="translate(313.53 614.6)"   name="HILPDA"  ><rect class="Icon" transform="matrix(.98204 0 0 .96154 .49102 .48077)" width="54.692" height="25" fill="#fff" stroke="#000"/><text class="Text" transform="translate(27.346 16.5)"   font-size="12px"  text-anchor="middle"><tspan x="0" y="0">HILPDA</tspan></text></a><g class="Pathway" transform="translate(386.86 899.64)" color="#14961e"  name="Glycerophospholipid metabolism"><use class="Icon" width="182.39250000000175" height="37.85750000000005" fill="transparent"  stroke="#14961e" stroke-width="0" xlink:href="#b"/><text class="Text" transform="translate(91.196 22.929)" fill="#14961e"  font-size="12px" font-weight="bold" stroke="black" stroke-width="0" text-anchor="middle"><tspan x="0" y="-6.6000000000000005">Glycerophospholipid</tspan> <tspan x="0" y="6.6000000000000005">metabolism</tspan></text></g><a  class="GeneProduct PNPLA2 " transform="translate(300.88 701.12)"   name="PNPLA2"  ><rect class="Icon" transform="matrix(.98765 0 0 .95238 .49383 .47619)" width="80" height="20" fill="#fff" stroke="#000"/><text class="Text" transform="translate(40 14)"   font-size="12px"  text-anchor="middle"><tspan x="0" y="0">PNPLA2</tspan></text></a><a  class="GeneProduct LIPE " transform="translate(94.927 685.76)"   name="LIPE"  ><rect class="Icon" transform="matrix(.98765 0 0 .95238 .49383 .47619)" width="80" height="20" fill="#fff" stroke="#000"/><text class="Text" transform="translate(40 14)"   font-size="12px"  text-anchor="middle"><tspan x="0" y="0">LIPE</tspan></text></a><a  class="GeneProduct ACACA " transform="translate(561.42 461.89)"   name="ACACA"  ><rect class="Icon" transform="matrix(.98765 0 0 .95238 .49383 .47619)" width="80" height="20" fill="#fff" stroke="#000"/><text class="Text" transform="translate(40,14)"   font-size="12px"  text-anchor="middle"><tspan x="0" y="0">ACACA</tspan></text></a><a  class="GeneProduct PDHA1 " transform="translate(370.89 148.09)"   name="PDHA1"  ><rect class="Icon" transform="matrix(.98765 0 0 .95238 .49383 .47619)" width="80" height="20" fill="#fff" stroke="#000"/><text class="Text" transform="translate(40,14)"   font-size="12px"  text-anchor="middle"><tspan x="0" y="0">PDHA1</tspan></text></a><a  class="GeneProduct ABHD5 " transform="translate(214.49 657.75)"   name="ABHD5"  ><rect class="Icon" transform="matrix(.98765 0 0 .95238 .49383 .47619)" width="80" height="20" fill="#fff" stroke="#000" stroke-dasharray="5,3"/><text class="Text" transform="translate(40,14)"   font-size="12px"  text-anchor="middle"><tspan x="0" y="0">ABHD5</tspan></text></a><a class="ChEBI_CHEBI_22918 Metabolite  " transform="translate(249.06 164.16)" color="#00f"  name="BCAA"  ><rect class="Icon" transform="matrix(.98901 0 0 .96154 .49451 .48077)" width="90" height="25" rx="15" ry="15" fill="#fff" stroke="#00f"/><text class="Text" transform="translate(45,16.5)" fill="#00f"  font-size="12px"  text-anchor="middle"><tspan x="0" y="0">BCAA</tspan></text></a><a  class="GeneProduct BCKDHA " transform="translate(183.27 235.23)"   name="BCKDHA"  ><rect class="Icon" transform="matrix(.98765 0 0 .95238 .49383 .47619)" width="80" height="20" fill="#fff" stroke="#000"/><text class="Text" transform="translate(40,14)"   font-size="12px"  text-anchor="middle"><tspan x="0" y="0">BCKDHA</tspan></text></a><a  class="GeneProduct FASN " transform="translate(371.12 551.97)"   name="FASN"  ><rect class="Icon" transform="matrix(.98765 0 0 .95238 .49383 .47619)" width="80" height="20" fill="#fff" stroke="#000"/><text class="Text" transform="translate(40,14)"   font-size="12px"  text-anchor="middle"><tspan x="0" y="0">FASN</tspan></text></a><a  class="GeneProduct ACLY " transform="translate(369.55 372.65)"   name="ACLY"  ><rect class="Icon" transform="matrix(.98765 0 0 .95238 .49383 .47619)" width="80" height="20" fill="#fff" stroke="#000"/><text class="Text" transform="translate(40,14)"   font-size="12px"  text-anchor="middle"><tspan x="0" y="0">ACLY</tspan></text></a><a  class="GeneProduct ACSS2 " transform="translate(535.49 379.22)"   name="ACSS2"  ><rect class="Icon" transform="matrix(.98765 0 0 .95238 .49383 .47619)" width="80" height="20" fill="#fff" stroke="#000"/><text class="Text" transform="translate(40,14)"   font-size="12px"  text-anchor="middle"><tspan x="0" y="0">ACSS2</tspan></text></a><a  class="GeneProduct ACSBG1 " transform="translate(369.55 650.75)"   name="ACSBG1"  ><rect class="Icon" transform="matrix(.98765 0 0 .95238 .49383 .47619)" width="80" height="20" fill="#fff" stroke="#000"/><text class="Text" transform="translate(40,14)"   font-size="12px"  text-anchor="middle"><tspan x="0" y="0">ACSBG1</tspan></text></a><a class="ChEBI_CHEBI_35819 Metabolite  " transform="translate(249.06 294.26)" color="#00f"  name="BCFA"  ><rect class="Icon" transform="matrix(.98901 0 0 .96154 .49451 .48077)" width="90" height="25" rx="15" ry="15" fill="#fff" stroke="#00f"/><text class="Text" transform="translate(45,16.5)" fill="#00f"  font-size="12px"  text-anchor="middle"><tspan x="0" y="0">BCFA</tspan></text></a><a class="ChEBI_CHEBI_15361 Metabolite  " transform="translate(433.05 90.914)" color="#00f"  name="Pyruvate"  ><rect class="Icon" transform="matrix(.98901 0 0 .96154 .49451 .48077)" width="90" height="25" rx="15" ry="15" fill="#fff" stroke="#00f"/><text class="Text" transform="translate(45,16.5)" fill="#00f"  font-size="12px"  text-anchor="middle"><tspan x="0" y="0">Pyruvate</tspan></text></a><a class="ChEBI_CHEBI_15351 Metabolite  " transform="translate(424.94 219.54)" color="#00f"  name="Acetyl-CoA(mit)"  ><rect class="Icon" transform="matrix(.99067 0 0 .96154 .49534 .48077)" width="106.23" height="25" rx="15" ry="15" fill="#fff" stroke="#00f"/><text class="Text" transform="translate(53.117 16.5)" fill="#00f"  font-size="12px"  text-anchor="middle"><tspan x="0" y="0">Acetyl-CoA(mit)</tspan></text></a><a class="ChEBI_CHEBI_35804 Metabolite  " transform="translate(433.05 327.54)" color="#00f"  name="Citrate"  ><rect class="Icon" transform="matrix(.98901 0 0 .96154 .49451 .48077)" width="90" height="25" rx="15" ry="15" fill="#fff" stroke="#00f"/><text class="Text" transform="translate(45,16.5)" fill="#00f"  font-size="12px"  text-anchor="middle"><tspan x="0" y="0">Citrate</tspan></text></a><a class="ChEBI_CHEBI_15351 Metabolite  " transform="translate(424.94 419.44)" color="#00f"  name="Acetyl-CoA(cyt)"  ><rect class="Icon" transform="matrix(.99067 0 0 .96154 .49534 .48077)" width="106.23" height="25" rx="15" ry="15" fill="#fff" stroke="#00f"/><text class="Text" transform="translate(53.117 16.5)" fill="#00f"  font-size="12px"  text-anchor="middle"><tspan x="0" y="0">Acetyl-CoA(cyt)</tspan></text></a><a class="ChEBI_CHEBI_15531 Metabolite  " transform="translate(433.05 503.54)" color="#00f"  name="Malonyl-CoA"  ><rect class="Icon" transform="matrix(.98901 0 0 .96154 .49451 .48077)" width="90" height="25" rx="15" ry="15" fill="#fff" stroke="#00f"/><text class="Text" transform="translate(45,16.5)" fill="#00f"  font-size="12px"  text-anchor="middle"><tspan x="0" y="0">Malonyl-CoA</tspan></text></a><a class="ChEBI_CHEBI_15756 Metabolite  " transform="translate(433.05 595.54)" color="#00f"  name="Palimitate"  ><rect class="Icon" transform="matrix(.98901 0 0 .96154 .49451 .48077)" width="90" height="25" rx="15" ry="15" fill="#fff" stroke="#00f"/><text class="Text" transform="translate(45,16.5)" fill="#00f"  font-size="12px"  text-anchor="middle"><tspan x="0" y="0">Palimitate</tspan></text></a><a class="ChEBI_CHEBI_15525 Metabolite  " transform="translate(433.05 697.54)" color="#00f"  name="Palimitate-CoA"  ><rect class="Icon" transform="matrix(.98901 0 0 .96154 .49451 .48077)" width="90" height="25" rx="15" ry="15" fill="#fff" stroke="#00f"/><text class="Text" transform="translate(45,16.5)" fill="#00f"  font-size="12px"  text-anchor="middle"><tspan x="0" y="0">Palimitate-CoA</tspan></text></a><a class="ChEBI_CHEBI_30089 Metabolite  " transform="translate(609.06 419.44)" color="#00f"  name="Acetate"  ><rect class="Icon" transform="matrix(.98901 0 0 .96154 .49451 .48077)" width="90" height="25" rx="15" ry="15" fill="#fff" stroke="#00f"/><text class="Text" transform="translate(45,16.5)" fill="#00f"  font-size="12px"  text-anchor="middle"><tspan x="0" y="0">Acetate</tspan></text></a><g id="as" class="Edge GraphicalLine DirectedInteraction" color="#ff9900" ><g color="#ff9900" fill="transparent"  filter="url(#h)" stroke="#000" stroke-dasharray="169.56734693877564, 5.8" stroke-width="3"><path class="EdgeBody" d="m104.94 752.99-1e-14 175.37"   marker-end="url(#f)" /></g></g><g class="Label" transform="translate(14.013 821.61)" color="#ff9900"  name="Lipolysis"><use class="Icon" width="90" height="25" fill="transparent"  stroke="#ff9900" stroke-width="0" xlink:href="#b"/><text class="Text" transform="translate(45,17.5)" fill="#ff9900"  font-size="16px" font-weight="bold" stroke="black" stroke-width="0" text-anchor="middle"><tspan x="0" y="0">Lipolysis</tspan></text></g><a class="ChEBI_CHEBI_17855 Metabolite  " transform="translate(266.97 810.68)" color="#00f"  name="TAG"  ><rect class="Icon" transform="matrix(.98578 0 0 .96154 .49289 .48077)" width="69.3" height="25" rx="15" ry="15" fill="#fff" stroke="#00f"/><text class="Text" transform="translate(34.65 16.5)" fill="#00f"  font-size="12px"  text-anchor="middle"><tspan x="0" y="0">TAG</tspan></text></a><a class="ChEBI_CHEBI_18035 Metabolite  " transform="translate(195.39 732.32)" color="#00f"  name="DAG"  ><rect class="Icon" transform="matrix(.98578 0 0 .96154 .49289 .48077)" width="69.3" height="25" rx="15" ry="15" fill="#fff" stroke="#00f"/><text class="Text" transform="translate(34.65 16.5)" fill="#00f"  font-size="12px"  text-anchor="middle"><tspan x="0" y="0">DAG</tspan></text></a><a class="ChEBI_CHEBI_17408 Metabolite  " transform="translate(138.13 809.58)" color="#00f"  name="MAG"  ><rect class="Icon" transform="matrix(.98578 0 0 .96154 .49289 .48077)" width="69.3" height="25" rx="15" ry="15" fill="#fff" stroke="#00f"/><text class="Text" transform="translate(34.65 16.5)" fill="#00f"  font-size="12px"  text-anchor="middle"><tspan x="0" y="0">MAG</tspan></text></a><a class="ChEBI_CHEBI_35366 Metabolite  " transform="translate(111.12 968.42)" color="#00f"  name="Free fatty acids"  ><rect class="Icon" transform="matrix(.99196 0 0 .96154 .49598 .48077)" width="123.31" height="25" rx="15" ry="15" fill="#fff" stroke="#00f"/><text class="Text" transform="translate(61.657 16.5)" fill="#00f"  font-size="12px"  text-anchor="middle"><tspan x="0" y="0">Free fatty acids</tspan></text></a><g class="GroupComplex" transform="translate(35.746 431.29)" color="grey" ><use class="Icon" transform="matrix(.99596 0 0 .99436 .49798 .49718)" width="246.808791274634" height="176.4205550764906" fill="#b4b464" fill-opacity=".1" stroke="grey" xlink:href="#i"/><g class="Label" transform="translate(12 12)" color="#000"  name="PKA regulatory  subunit type I"><use class="Icon" width="116.73126876119692" height="36.600160322490396" fill="transparent"  stroke="#000" stroke-width="0" xlink:href="#b"/><text class="Text" transform="translate(58.366 22.3)"   font-size="12px" font-weight="bold"  text-anchor="middle"><tspan x="0" y="-6.6000000000000005">PKA regulatory </tspan> <tspan x="0" y="6.6000000000000005">subunit type I</tspan></text></g><a  class="GeneProduct PRKACG " transform="translate(136.44 119.64)"   name="PRKACG"  ><rect class="Icon" transform="matrix(.98765 0 0 .95238 .49383 .47619)" width="80" height="20" fill="#fff" stroke="#000"/><text class="Text" transform="translate(40,14)"   font-size="12px"  text-anchor="middle"><tspan x="0" y="0">PRKACG</tspan></text></a><a  class="GeneProduct PRKACA " transform="translate(136.44 79.636)"   name="PRKACA"  ><rect class="Icon" transform="matrix(.98765 0 0 .95238 .49383 .47619)" width="80" height="20" fill="#fff" stroke="#000"/><text class="Text" transform="translate(40,14)"   font-size="12px"  text-anchor="middle"><tspan x="0" y="0">PRKACA</tspan></text></a><a  class="GeneProduct PRKAR1A " transform="translate(30.366 48.6)"   name="PRKAR1A"  ><rect class="Icon" transform="matrix(.98765 0 0 .95238 .49383 .47619)" width="80" height="20" fill="#fff" stroke="#000"/><text class="Text" transform="translate(40,14)"   font-size="12px"  text-anchor="middle"><tspan x="0" y="0">PRKAR1A</tspan></text></a><a  class="GeneProduct PRKAR2B " transform="translate(30.366 144.42)"   name="PRKAR2B"  ><rect class="Icon" transform="matrix(.98765 0 0 .95238 .49383 .47619)" width="80" height="20" fill="#fff" stroke="#000"/><text class="Text" transform="translate(40,14)"   font-size="12px"  text-anchor="middle"><tspan x="0" y="0">PRKAR2B</tspan></text></a><a  class="GeneProduct PRKAR2A " transform="translate(30.366 124.42)"   name="PRKAR2A"  ><rect class="Icon" transform="matrix(.98765 0 0 .95238 .49383 .47619)" width="80" height="20" fill="#fff" stroke="#000"/><text class="Text" transform="translate(40,14)"   font-size="12px"  text-anchor="middle"><tspan x="0" y="0">PRKAR2A</tspan></text></a><a  class="GeneProduct PRKAR1B " transform="translate(30.366 68.6)"   name="PRKAR1B"  ><rect class="Icon" transform="matrix(.98765 0 0 .95238 .49383 .47619)" width="80" height="20" fill="#fff" stroke="#000"/><text class="Text" transform="translate(40,14)"   font-size="12px"  text-anchor="middle"><tspan x="0" y="0">PRKAR1B</tspan></text></a><a  class="GeneProduct PRKACB " transform="translate(136.44 99.636)"   name="PRKACB"  ><rect class="Icon" transform="matrix(.98765 0 0 .95238 .49383 .47619)" width="80" height="20" fill="#fff" stroke="#000"/><text class="Text" transform="translate(40,14)"   font-size="12px"  text-anchor="middle"><tspan x="0" y="0">PRKACB</tspan></text></a><g class="Label" transform="translate(12 93.71)" color="#000"  name="PKA regulatory  subunit type II"><use class="Icon" width="116.73126876119692" height="30.71036952325045" fill="transparent"  stroke="#000" stroke-width="0" xlink:href="#b"/><text class="Text" transform="translate(58.366 19.355)"   font-size="12px" font-weight="bold"  text-anchor="middle"><tspan x="0" y="-6.6000000000000005">PKA regulatory </tspan> <tspan x="0" y="6.6000000000000005">subunit type II</tspan></text></g><g class="Label" transform="translate(118.08 46.493)" color="#000"  name="PKA catalytic  subunit"><use class="Icon" width="116.73126876119692" height="33.14306982434578" fill="transparent"  stroke="#000" stroke-width="0" xlink:href="#b"/><text class="Text" transform="translate(58.366 20.572)"   font-size="12px" font-weight="bold"  text-anchor="middle"><tspan x="0" y="-6.6000000000000005">PKA catalytic </tspan> <tspan x="0" y="6.6000000000000005">subunit</tspan></text></g></g><text class="Text" transform="translate(5,27)" dominant-baseline="central" fill="black"  font-size="12px" font-weight="bold" overflow="visible" ><tspan x="0" y="-9">Name: Lipid metabolism pathway</tspan> <tspan x="0" y="9">Organism: Homo sapiens</tspan></text></g></svg>
