<?xml version="1.0" encoding="UTF-8"?>
<!--
  WikiPathways page: https://www.wikipathways.org/index.php/Pathway:WP396
  URL for this compressed file: https://github.com/eweitz/cachome/tree/main/data/wikipathways/WP396.svg
  Source code for compression: https://github.com/eweitz/cachome/tree/main/src/wikipathways.py
-->
<svg class="Diagram" width="800" height="600" color="black" baseProfile="full" prefix="schema:http://schema.org/" preserveAspectRatio="xMidYMid" version="1.1" viewBox="0 0 635.83 550" vocab="http://vocabularies.wikipathways.org/wp#" xmlns="http://www.w3.org/2000/svg" xmlns:xlink="http://www.w3.org/1999/xlink"><style>svg {font-family: 'Liberation Sans', Arial, sans-serif; }</style><defs><filter id="d" x="0" y="0" width="635.83" height="550" filterUnits="userSpaceOnUse"><feColorMatrix in="SourceGraphic" values="-1   0   0 0 0                   0  -1   0 0 0                   0   0  -1 0 0                   0   0   0 1 0"/></filter><filter id="b" x="0" y="0" width="635.83" height="550" filterUnits="userSpaceOnUse"><feColorMatrix in="SourceGraphic" values="-1   0   0 0 0                   0  -1   0 0 0.5019607843137255                   0   0  -1 0 0                   0   0   0 1 0"/></filter><filter id="f" x="0" y="0" width="635.83" height="550" filterUnits="userSpaceOnUse"><feColorMatrix in="SourceGraphic" values="-1   0   0 0 1                   0  -1   0 0 0                   0   0  -1 0 0                   0   0   0 1 0"/></filter><marker id="a" stroke-dasharray="99999" markerHeight="12" markerUnits="userSpaceOnUse" markerWidth="12" orient="auto" preserveAspectRatio="none" refX="12" refY="6" viewBox="0 0 12 12"><path transform="rotate(180 6 6)" d="M12 11L0 6l12-5z" fill="currentColor" stroke-width="0"/></marker><marker id="e" stroke-dasharray="99999" markerHeight="20" markerUnits="userSpaceOnUse" markerWidth="10" orient="auto" preserveAspectRatio="none" refX="10" refY="10" viewBox="0 0 10 20"><path d="m3 0v20" fill="currentColor" stroke="currentColor"/></marker><symbol id="g" overflow="visible" preserveAspectRatio="none" viewBox="0 0 100 100"><path d="M99.5 50c0 27.338-22.162 49.5-49.5 49.5S.5 77.338.5 50" stroke="currentColor" vector-effect="non-scaling-stroke"/></symbol><symbol id="c" preserveAspectRatio="none" viewBox="0 0 100 100"/></defs><g class="Viewport" color="black"  name="Name: ACE inhibitor pathway Last Modified: 10/17/2013 Organism: Mus musculus"><rect class="Icon" width="635.83" height="550" fill="#fff" stroke="#000" stroke-width="0"/><g id="h" class="DirectedInteraction" color="#008000" ><g color="#008000" fill="transparent"  filter="url(#b)" stroke="#000" stroke-dasharray="91.72720418198996, 5.8"><path class="EdgeBody" d="m156.67 160-50.667 83.333"   marker-end="url(#a)" /></g><g class="Burr Anchor" transform="translate(136.4 193.33)" ><use class="Icon" width="0" height="0" fill="#141414" stroke-width="0" xlink:href="#c"/></g></g><g id="i" class="DirectedInteraction" color="#000" ><g color="#000" fill="transparent"  filter="url(#d)" stroke="#000" stroke-dasharray="4.5914494764793, 5.8"><path class="EdgeBody" d="m130.67 202 5.7333-8.6667"   marker-end="url(#a)" /></g></g><g id="j" class="Inhibition" color="#f00" ><g color="#f00" fill="transparent"  filter="url(#f)" stroke="#000" stroke-dasharray="143.32446389209062, 7"><path class="EdgeBody" d="m263.33 216.67-125.33 83"   marker-end="url(#e)" /></g></g><g id="k" class="DirectedInteraction" color="#008000" ><g color="#008000" fill="transparent"  filter="url(#b)" stroke="#000" stroke-dasharray="68.21201103724836, 5.8"><path class="EdgeBody" d="m466.67 163.33-10 73.333"   marker-end="url(#a)" /></g></g><g id="l" class="Inhibition" color="#f00" ><g color="#f00" fill="transparent"  filter="url(#f)" stroke="#000" stroke-dasharray="148.3504997667461, 7"><path class="EdgeBody" d="m310 216.67 103.33 116"   marker-end="url(#e)" /></g></g><g id="m" class="DirectedInteraction" color="#008000" ><g color="#008000" fill="transparent"  filter="url(#b)" stroke="#000" stroke-dasharray="70.36137837221403, 5.8"><path class="EdgeBody" d="m422.33 428-52.333 55.333"   marker-end="url(#a)" /></g></g><g id="n" class="DirectedInteraction" color="#008000" ><g color="#008000" fill="transparent"  filter="url(#b)" stroke="#000" stroke-dasharray="80.86730768993702, 5.8"><path class="EdgeBody" d="m106 263.33 0.33333 86.667"   marker-end="url(#a)" /></g><g class="Burr Anchor" transform="translate(106.13 298)" ><use class="Icon" width="0" height="0" fill="#141414" stroke-width="0" xlink:href="#c"/></g></g><g id="o" class="DirectedInteraction" color="#000" ><g color="#000" fill="transparent"  filter="url(#d)" stroke="#000" stroke-dasharray="22.382658182333024, 5.8"><path class="EdgeBody" d="m78 299.67 28.133-1.6667"   marker-end="url(#a)" /></g></g><g id="p" class="DirectedInteraction" color="#008000" ><g color="#008000" fill="transparent"  filter="url(#b)" stroke="#000" stroke-dasharray="149.37910798672468, 5.8"><path class="EdgeBody" d="m456.67 256.67-34.333 151.33"   marker-end="url(#a)" /></g><g class="Burr Anchor" transform="translate(439.97 330.26)" ><use class="Icon" width="0" height="0" fill="#141414" stroke-width="0" xlink:href="#c"/></g></g><g id="q" class="DirectedInteraction" color="#000" ><g color="#000" fill="transparent"  filter="url(#d)" stroke="#000" stroke-dasharray="7.056833257936494, 5.8"><path class="EdgeBody" d="m443.33 342.67-3.3623-12.409"   marker-end="url(#a)" /></g></g><g id="r" class="DirectedInteraction" color="#008000" ><g color="#008000" fill="transparent"  filter="url(#b)" stroke="#000" stroke-dasharray="5.19, 3.12, 5.19, 3.12, 5.19, 3.12, 5.19, 3.12, 5.19, 3.12, 5.19, 3.12, 5.19, 3.12, 0, 5.8"><path class="EdgeBody" d="m106.33 461.33 47 38.667"   marker-end="url(#a)" /></g></g><g id="s" class="DirectedInteraction" color="#008000" ><g color="#008000" fill="transparent"  filter="url(#b)" stroke="#000" stroke-dasharray="29.533333333333314, 5.8"><path class="EdgeBody" d="m106.33 370-3e-14 35.333"   marker-end="url(#a)" /></g></g><g class="SingleFreeNode Shape" transform="translate(49.916 416.67) rotate(180 263.42 30)" color="#000" ><use class="Icon" transform="matrix(.99811 0 0 .98361 .49905 .4918)" width="526.8354666666667" height="60" fill="#000" stroke="#000" xlink:href="#g"/></g><g class="Label" transform="translate(487.5 393.83)" color="#008000"  name="Cell Membrane"><use class="Icon" width="118.33333333333333" height="19" fill="transparent"  stroke="#008000" stroke-width="0" xlink:href="#c"/><text class="Text" transform="translate(59.167 13.5)" fill="#008000"  font-size="12px" font-weight="bold"  text-anchor="middle"><tspan x="0" y="0">Cell Membrane</tspan></text></g><a  class="GeneProduct P594_ENSMUSG00000020681 " transform="translate(78 289.67)"   name="Ace"  ><rect class="Icon" transform="matrix(.98361 0 0 .95238 .4918 .47619)" width="60" height="20" fill="#fff" stroke="#000"/><text class="Text" transform="translate(30,13)"   font-size="10px"  text-anchor="middle"><tspan x="0" y="0">Ace</tspan></text></a><a class="Metabolite ChEBI_CHEBI_3165  " transform="translate(410 236.67)" color="#00f"  name="Bradykinin"  ><rect class="Icon" transform="matrix(.9894 0 0 .95238 .4947 .47619)" width="93.333" height="20" fill="#fff" stroke="#00f"/><text class="Text" transform="translate(46.667 13)" fill="#00f"  font-size="10px"  text-anchor="middle"><tspan x="0" y="0">Bradykinin</tspan></text></a><a  class="GeneProduct P594_ENSMUSG00000022875 " transform="translate(436.67 143.33)"   name="Kng1"  ><rect class="Icon" transform="matrix(.98361 0 0 .95238 .4918 .47619)" width="60" height="20" fill="#fff" stroke="#000"/><text class="Text" transform="translate(30,13)"   font-size="10px"  text-anchor="middle"><tspan x="0" y="0">Kng1</tspan></text></a><a class="Metabolite ChEBI_CHEBI_2719  " transform="translate(59.667 350)" color="#00f"  name="Angiotensin II"  ><rect class="Icon" transform="matrix(.9894 0 0 .95238 .4947 .47619)" width="93.333" height="20" fill="#fff" stroke="#00f"/><text class="Text" transform="translate(46.667 13)" fill="#00f"  font-size="10px"  text-anchor="middle"><tspan x="0" y="0">Angiotensin II</tspan></text></a><a  class="GeneProduct P594_ENSMUSG00000020681 " transform="translate(413.33 322.67)"   name="Ace"  ><rect class="Icon" transform="matrix(.98361 0 0 .95238 .4918 .47619)" width="60" height="20" fill="#fff" stroke="#000"/><text class="Text" transform="translate(30,13)"   font-size="10px"  text-anchor="middle"><tspan x="0" y="0">Ace</tspan></text></a><a  class="GeneProduct P594_ENSMUSG00000070645 " transform="translate(100.67 182)"   name="Ren1"  ><rect class="Icon" transform="matrix(.98361 0 0 .95238 .4918 .47619)" width="60" height="20" fill="#fff" stroke="#000"/><text class="Text" transform="translate(30,13)"   font-size="10px"  text-anchor="middle"><tspan x="0" y="0">Ren1</tspan></text></a><a class="KEGG_Compound_C01780 Metabolite ChEBI_CHEBI_27584  " transform="translate(106.67 500)" color="#00f"  name="Aldosterone"  ><rect class="Icon" transform="matrix(.9894 0 0 .95238 .4947 .47619)" width="93.333" height="20" fill="#fff" stroke="#00f"/><text class="Text" transform="translate(46.667 13)" fill="#00f"  font-size="10px"  text-anchor="middle"><tspan x="0" y="0">Aldosterone</tspan></text></a><a class="PubChem-compound_3081372 Metabolite ChEBI_CHEBI_2718  " transform="translate(59.333 243.33)" color="#00f"  name="Angiotensin I"  ><rect class="Icon" transform="matrix(.9894 0 0 .95238 .4947 .47619)" width="93.333" height="20" fill="#fff" stroke="#00f"/><text class="Text" transform="translate(46.667 13)" fill="#00f"  font-size="10px"  text-anchor="middle"><tspan x="0" y="0">Angiotensin I</tspan></text></a><a class="ChEBI_CHEBI_35457 Metabolite  " transform="translate(240 196.67)" color="#f00"  name="ACE Inhibitor"  ><rect class="Icon" transform="matrix(.9894 0 0 .95238 .4947 .47619)" width="93.333" height="20" fill="#fff" stroke="#f00"/><text class="Text" transform="translate(46.667 13)" fill="#f00"  font-size="10px" stroke="black" stroke-width="0" text-anchor="middle"><tspan x="0" y="0">ACE Inhibitor</tspan></text></a><a  class="GeneProduct P594_ENSMUSG00000028978 " transform="translate(340 483.33)"   name="Nos3"  ><rect class="Icon" transform="matrix(.98361 0 0 .95238 .4918 .47619)" width="60" height="20" fill="#fff" stroke="#000"/><text class="Text" transform="translate(30,13)"   font-size="10px"  text-anchor="middle"><tspan x="0" y="0">Nos3</tspan></text></a><a  class="GeneProduct P594_ENSMUSG00000031980 " transform="translate(126.67 140)"   name="Agt"  ><rect class="Icon" transform="matrix(.98361 0 0 .95238 .4918 .47619)" width="60" height="20" fill="#fff" stroke="#000"/><text class="Text" transform="translate(30,13)"   font-size="10px"  text-anchor="middle"><tspan x="0" y="0">Agt</tspan></text></a><a  class="GeneProduct P594_ENSMUSG00000021070 " transform="translate(392.33 408)"   name="Bdkrb2"  ><rect class="Icon" transform="matrix(.98361 0 0 .95238 .4918 .47619)" width="60" height="20" fill="#fff" stroke="#000"/><text class="Text" transform="translate(30,13)"   font-size="10px"  text-anchor="middle"><tspan x="0" y="0">Bdkrb2</tspan></text></a><g class="GroupGroup" transform="translate(68.333 405.33)" color="grey"  name="Group object"><use class="Icon" width="75.99999999999999" height="56" fill="transparent"  stroke="grey" stroke-dasharray="5,3" stroke-width="0" xlink:href="#c"/><a  class="GeneProduct P594_ENSMUSG00000068122 " transform="translate(8,28)"   name="Agtr2"  ><rect class="Icon" transform="matrix(.98361 0 0 .95238 .4918 .47619)" width="60" height="20" fill="#fff" stroke="#000"/><text class="Text" transform="translate(30,13)"   font-size="10px"  text-anchor="middle"><tspan x="0" y="0">Agtr2</tspan></text></a><a  class="GeneProduct P594_ENSMUSG00000049115 " transform="translate(8,8)"   name="Agtr1"  ><rect class="Icon" transform="matrix(.98361 0 0 .95238 .4918 .47619)" width="60" height="20" fill="#fff" stroke="#000"/><text class="Text" transform="translate(30,13)"   font-size="10px"  text-anchor="middle"><tspan x="0" y="0">Agtr1</tspan></text></a><text class="Text" transform="translate(38 28)" fill="grey"  font-size="1px" font-weight="bold" stroke="black" stroke-width="0" text-anchor="middle"><tspan x="0" y="0">Group object</tspan></text></g><text class="Text" transform="translate(5,36)" dominant-baseline="central" fill="black"  font-size="12px" font-weight="bold" overflow="visible" ><tspan x="0" y="-18">Name: ACE inhibitor pathway</tspan> <tspan x="0" y="0">Last Modified: 10/17/2013</tspan> <tspan x="0" y="18">Organism: Mus musculus</tspan></text></g></svg>
