<?xml version="1.0" encoding="UTF-8"?>
<!--
  WikiPathways page: https://www.wikipathways.org/index.php/Pathway:WP3958
  URL for this compressed file: https://github.com/eweitz/cachome/tree/main/data/wikipathways/WP3958.svg
  Source code for compression: https://github.com/eweitz/cachome/tree/main/src/wikipathways.py
-->
<svg class="Diagram" width="800" height="600" color="black" baseProfile="full" prefix="schema:http://schema.org/" preserveAspectRatio="xMidYMid" version="1.1" viewBox="0 0 936 813.84" vocab="http://vocabularies.wikipathways.org/wp#" xmlns="http://www.w3.org/2000/svg" xmlns:xlink="http://www.w3.org/1999/xlink"><style>svg {font-family: 'Liberation Sans', Arial, sans-serif; }</style><defs><filter id="e" x="-50%" y="-50%" width="200%" height="200%"><feComposite in="SourceGraphic" in2="SourceGraphic" result="doubleDark"/><feMorphology in="doubleDark" operator="dilate" radius="0.16666666666666666" result="in2Double"/><feMorphology in="SourceGraphic" operator="dilate" radius="3" result="inDouble"/><feComposite in="inDouble" in2="in2Double" operator="out" result="doubleResult"/></filter><filter id="d" x="0" y="0" width="936" height="813.84" filterUnits="userSpaceOnUse"><feColorMatrix in="SourceGraphic" values="-1   0   0 0 0                   0  -1   0 0 0                   0   0  -1 0 0                   0   0   0 1 0"/></filter><marker id="c" stroke-dasharray="99999" markerHeight="12" markerUnits="userSpaceOnUse" markerWidth="12" orient="auto" preserveAspectRatio="none" refX="12" refY="6" viewBox="0 0 12 12"><path transform="rotate(180 6 6)" d="M12 11L0 6l12-5z" fill="currentColor" stroke-width="0"/></marker><symbol id="g" overflow="visible" preserveAspectRatio="none" viewBox="0 0 100 100"><path d="M99.5 50c0 27.338-22.162 49.5-49.5 49.5S.5 77.338.5 50" stroke="currentColor" vector-effect="non-scaling-stroke"/></symbol><symbol id="a" overflow="visible" preserveAspectRatio="none" viewBox="0 0 50 50"><ellipse cx="25" cy="25" rx="25" ry="25" stroke="currentColor" vector-effect="non-scaling-stroke"/></symbol><symbol id="f" overflow="visible" preserveAspectRatio="none" viewBox="0 0 100 100"><path d="M73.528 56.61c-5.625-18.607 23.514-32.434 23.401-45.066-.344-4.861-10.49-8.898-18.29-5.334C61.6 14.085 62.99 35.515 57.435 48.444c-.356 3.61-7.363 2.469-7.75-.487-5.85-11.39 17.136-24.487 5.961-29.426-19.634-8.17-28.752 21.153-22.068 28.818 7.496 14.176-2.18 24.406-6.747 15.496-2.442-5.306 6.066-11.084-.803-16.177-4.32-2.8-11.756-.646-16.155 3.094C-3.019 60.5 14.602 90.744 30.837 85.91c4.698-1.96-3.236-8.702 3.907-9.6 7.298-.812 5.176 6.19 7.687 9.227 2.307 4.051 4.833 8.355 10.763 11.624 4.786 2.537 15.294 2.112 16.771-1.958 2.032-9.263-26.11-28.359-10.689-31.282 18.556-2.714 4.749 23.846 24.31 29.695 9.502 2.028 15.64-.622 14.813-4.033-2.746-11.263-25.136-22.68-24.964-33.15" stroke="currentColor" vector-effect="non-scaling-stroke"/></symbol><symbol id="b" preserveAspectRatio="none" viewBox="0 0 100 100"/></defs><g class="Viewport" color="black"  name="Name: GPR40 pathway Organism: Homo sapiens"><rect class="Icon" width="936" height="813.84" fill="#fff" stroke="#000" stroke-width="0"/><g id="h" class="DirectedInteraction" color="#000" ><g color="#000" fill="transparent"  filter="url(#d)" stroke="#000" stroke-dasharray="120.37394461789191, 5.8"><path class="EdgeBody" d="m267 377 49.329 116.13"   marker-end="url(#c)" /></g></g><g id="i" class="DirectedInteraction" color="#000" ><g color="#000" fill="transparent"  filter="url(#d)" stroke="#000" stroke-dasharray="66.79131568946165, 5.8"><path class="EdgeBody" d="m336.33 503.13 50.026-52.601"   marker-end="url(#c)" /></g></g><g id="j" class="DirectedInteraction" color="#000" ><g color="#000" fill="transparent"  filter="url(#d)" stroke="#000" stroke-dasharray="99.14005570434448, 5.8"><path class="EdgeBody" d="m446.36 440.53 102.98-20.197"   marker-end="url(#c)" /></g></g><g id="k" class="DirectedInteraction" color="#000" ><g color="#000" fill="transparent"  filter="url(#d)" stroke="#000" stroke-dasharray="121.2132320315927, 5.8"><path class="EdgeBody" d="m631.67 197.83 77.667 100.5"   marker-end="url(#c)" /></g></g><g id="l" class="DirectedInteraction" color="#000" ><g color="#000" fill="transparent"  filter="url(#d)" stroke="#000" stroke-dasharray="83.79290646523656, 5.8"><path class="EdgeBody" d="m464.33 231 80.333-39.667"   marker-end="url(#c)" /></g></g><g id="m" class="DirectedInteraction" color="#000" ><g color="#000" fill="transparent"  filter="url(#d)" stroke="#000" stroke-dasharray="104.50160671742037, 5.8"><path class="EdgeBody" d="m420 352 44.333-101"   marker-end="url(#c)" /></g></g><g id="n" class="DirectedInteraction" color="#000" ><g color="#000" fill="transparent"  filter="url(#d)" stroke="#000" stroke-dasharray="107.83538181394033, 5.8"><path class="EdgeBody" d="m297 304 103 48"   marker-end="url(#c)" /></g></g><g id="o" class="DirectedInteraction" color="#000" ><g color="#000" fill="transparent"  filter="url(#d)" stroke="#000" stroke-dasharray="55.101559914340456, 5.8"><path class="EdgeBody" d="m297 304-30 53"   marker-end="url(#c)" /></g></g><g id="p" class="DirectedInteraction" color="#000" ><g color="#000" fill="transparent"  filter="url(#d)" stroke="#000" stroke-dasharray="34.21249804748511, 5.8"><path class="EdgeBody" d="m296 133 1 40"   marker-end="url(#c)" /></g></g><g class="SingleFreeNode Shape PhysicalEntity CellularComponent none" transform="translate(829.5 390)" color="#fff" ><use class="Icon" transform="matrix(.97015 0 0 .98712 .48507 .49356)" width="32.50000000000006" height="76.66666666666666" fill="#fff" stroke="#fff" xlink:href="#a"/></g><g class="SingleFreeNode Shape PhysicalEntity CellularComponent Cell" transform="translate(98,94)" color="#c0c0c0" ><g fill="transparent"  filter="url(#e)" stroke="#c0c0c0" stroke-width="3"><rect class="Icon" transform="matrix(.98422 0 0 .97889 5.9053 5.8734)" width="748.5" height="556.5" rx="15" ry="15"   /></g></g><g class="SingleFreeNode Shape" transform="translate(285.5 471.5) rotate(-17.56 3.75 13.75)" color="#000" ><use class="Icon" transform="matrix(.88235 0 0 .96491 .44118 .48246)" width="7.5" height="27.5" fill="#f0f" stroke="#000" xlink:href="#a"/></g><g class="SingleFreeNode Shape" transform="translate(832.83 388.83)" color="#fff" ><use class="Icon" transform="matrix(.96178 0 0 .9871 .48089 .49355)" width="25.166666666666742" height="76.49999999999984" fill="transparent"  stroke="#fff" xlink:href="#a"/></g><g class="SingleFreeNode Shape PhysicalEntity CellularComponent EndoplasmicReticulum" transform="translate(311.71 347.16) rotate(-85.393 79.293 218.34)" color="#c0c0c0" ><use class="Icon" transform="matrix(.98143 0 0 .99318 1.4722 1.4898)" width="158.58534595989147" height="436.67343409781813" fill="#ccc" stroke="#c0c0c0" stroke-width="3" xlink:href="#f"/></g><g class="SingleFreeNode Shape" transform="translate(807.96 395.58) rotate(90.546 39.934 32.492)" color="#ccc" ><use class="Icon" transform="matrix(.9638 0 0 .95587 1.4457 1.4338)" width="79.86828146453345" height="64.98451812020272" fill="#fff" stroke="#ccc" stroke-width="3" xlink:href="#g"/></g><g class="GroupGroup" transform="translate(668.83 378.17)" color="grey" ><use class="Icon" width="84.5" height="88.5" fill="transparent"  stroke="grey" stroke-dasharray="5,3" stroke-width="0" xlink:href="#b"/><g class="SingleFreeNode Shape PhysicalEntity CellularComponent Vesicle" transform="translate(8,8)" color="#c0c0c0" ><use class="Icon" transform="matrix(.95804 0 0 .96026 1.4371 1.4404)" width="68.5" height="72.5" fill="transparent"  stroke="#c0c0c0" stroke-width="3" xlink:href="#a"/></g><g class="SingleFreeNode Shape" transform="translate(47.333 57.333)" color="#6600ff" ><use class="Icon" transform="matrix(.91304 0 0 .91304 .45652 .45652)" width="10.5" height="10.5" fill="#3300cc" stroke="#6600ff" xlink:href="#a"/></g><g class="SingleFreeNode Shape" transform="translate(32.667 25.333)" color="#6600ff" ><use class="Icon" transform="matrix(.91304 0 0 .91304 .45652 .45652)" width="10.5" height="10.5" fill="#3300cc" stroke="#6600ff" xlink:href="#a"/></g><g class="SingleFreeNode Shape" transform="translate(14 35.333)" color="#6600ff" ><use class="Icon" transform="matrix(.91304 0 0 .91304 .45652 .45652)" width="10.5" height="10.5" fill="#3300cc" stroke="#6600ff" xlink:href="#a"/></g><g class="SingleFreeNode Shape" transform="translate(27.333 52.667)" color="#6600ff" ><use class="Icon" transform="matrix(.91304 0 0 .91304 .45652 .45652)" width="10.5" height="10.5" fill="#3300cc" stroke="#6600ff" xlink:href="#a"/></g><g class="SingleFreeNode Shape" transform="translate(54.667 35.333)" color="#6600ff" ><use class="Icon" transform="matrix(.91304 0 0 .91304 .45652 .45652)" width="10.5" height="10.5" fill="#3300cc" stroke="#6600ff" xlink:href="#a"/></g></g><g class="GroupGroup" transform="translate(724.74 324.49)" color="grey" ><use class="Icon" width="151.1399216478834" height="22.420234968641466" fill="transparent"  stroke="grey" stroke-dasharray="5,3" stroke-width="0" xlink:href="#b"/><g class="SingleFreeNode Shape" transform="translate(10 10) rotate(-49.676 63.88 2.2101)" color="#000" ><use class="Icon" transform="matrix(.99223 0 0 .81551 .49612 .40775)" width="127.75904941621965" height="4.420234968641386" fill="#ffcccc" stroke="#000" xlink:href="#a"/></g><g class="SingleFreeNode Shape" transform="translate(8.093 9.2789) rotate(-60.782 67.523 2.327)" color="#000" ><use class="Icon" transform="matrix(.99265 0 0 .82313 .49632 .41157)" width="135.0469455363293" height="4.653916314911985" fill="#ffcccc" stroke="#000" xlink:href="#a"/></g><g class="SingleFreeNode Shape" transform="translate(8 8) rotate(-55.625 63.88 2.2101)" color="#000" ><use class="Icon" transform="matrix(.99223 0 0 .81551 .49612 .40775)" width="127.75904941621965" height="4.420234968641386" fill="#ffcccc" stroke="#000" xlink:href="#a"/></g></g><g class="Label" transform="translate(98,66)" color="#000"  name="Pancreatic Beta cell"><use class="Icon" width="163" height="20" fill="transparent"  stroke="#000" stroke-width="0" xlink:href="#b"/><text class="Text" transform="translate(81.5,13)"   font-size="10px"  text-anchor="middle"><tspan x="0" y="0">Pancreatic Beta cell</tspan></text></g><g class="Label" transform="translate(730.67 517.33)" color="#000"  name="F-actin  filaments"><use class="Icon" width="80" height="38.000000000000064" fill="transparent"  stroke="#000" stroke-width="0" xlink:href="#b"/><text class="Text" transform="translate(40 23)"   font-size="12px"  text-anchor="middle"><tspan x="0" y="-6.6000000000000005">F-actin </tspan> <tspan x="0" y="6.6000000000000005">filaments</tspan></text></g><g class="Label" transform="translate(424,607)" color="#000"  name="Endoplasmic Reticulum"><use class="Icon" width="112" height="20" fill="transparent"  stroke="#000" stroke-width="0" xlink:href="#b"/><text class="Text" transform="translate(56,13)"   font-size="10px"  text-anchor="middle"><tspan x="0" y="0">Endoplasmic Reticulum</tspan></text></g><g class="Label" transform="translate(636 345.33)" color="#000"  name="Insulin containing       vesicle"><use class="Icon" width="96.00000000000057" height="44.66666666666662" fill="transparent"  stroke="#000" stroke-width="0" xlink:href="#b"/><text class="Text" transform="translate(48 26.333)"   font-size="12px"  text-anchor="middle"><tspan x="0" y="-6.6000000000000005">Insulin containing </tspan> <tspan x="0" y="6.6000000000000005">vesicle</tspan></text></g><g class="Label" transform="translate(709.33 265.33)" color="#000"  name="Factin Remodeling enabling insulin    exocytosis"><use class="Icon" width="101.33333333333371" height="65.99999999999999" fill="transparent"  stroke="#000" stroke-width="0" xlink:href="#b"/><text class="Text" transform="translate(50.667 37)"   font-size="12px"  text-anchor="middle"><tspan x="0" y="-13.200000000000001">Factin Remodeling</tspan> <tspan x="0" y="0">enabling insulin </tspan> <tspan x="0" y="13.200000000000001">exocytosis</tspan></text></g><g class="Label" transform="translate(549.33 404)" color="#000"  name="Insulin  Exocytosis"><use class="Icon" width="104.0000000000001" height="32.66666666666673" fill="transparent"  stroke="#000" stroke-width="0" xlink:href="#b"/><text class="Text" transform="translate(52 20.333)"   font-size="12px"  text-anchor="middle"><tspan x="0" y="-6.6000000000000005">Insulin </tspan> <tspan x="0" y="6.6000000000000005">Exocytosis</tspan></text></g><a class="ChEBI_CHEBI_16595 Metabolite  " transform="translate(212,357)" color="#00f"  name="inositol-3-phosphate"  ><rect class="Icon" transform="matrix(.99099 0 0 .95238 .4955 .47619)" width="110" height="20" fill="#fc0" stroke="#00f"/><text class="Text" transform="translate(55,13)" fill="#00f"  font-size="10px"  text-anchor="middle"><tspan x="0" y="0">inositol-3-phosphate</tspan></text></a><a class="ChEBI_CHEBI_18035 Metabolite  " transform="translate(360,352)" color="#00f"  name="DAG"  ><rect class="Icon" transform="matrix(.98765 0 0 .95238 .49383 .47619)" width="80" height="20" fill="#fff" stroke="#00f"/><text class="Text" transform="translate(40,13)" fill="#00f"  font-size="10px"  text-anchor="middle"><tspan x="0" y="0">DAG</tspan></text></a><a  class="GeneProduct PKD1 " transform="translate(424.33 231)"   name="PKD1"  ><rect class="Icon" transform="matrix(.98765 0 0 .95238 .49383 .47619)" width="80" height="20" fill="#fff" stroke="#000"/><text class="Text" transform="translate(40,13)"   font-size="10px"  text-anchor="middle"><tspan x="0" y="0">PKD1</tspan></text></a><a  class="GeneProduct ITPR3 " transform="translate(256.33 493.13)"   name="IP3R"  ><rect class="Icon" transform="matrix(.98765 0 0 .95238 .49383 .47619)" width="80" height="20" fill="#f0f" stroke="#000"/><text class="Text" transform="translate(40,13)"   font-size="10px"  text-anchor="middle"><tspan x="0" y="0">IP3R</tspan></text></a><a class="ChEBI_CHEBI_29108 Metabolite  " transform="translate(366.36 430.53)" color="#00f"  name="Ca2+"  ><rect class="Icon" transform="matrix(.98765 0 0 .95238 .49383 .47619)" width="80" height="20" fill="#0c0" stroke="#00f"/><text class="Text" transform="translate(40,13)" fill="#00f"  font-size="10px"  text-anchor="middle"><tspan x="0" y="0">Ca2+</tspan></text></a><g class="GeneProduct" transform="translate(544.67 178.33)" color="#000"  name="Unknown target  genes"><rect class="Icon" transform="matrix(.98864 0 0 .96296 .49432 .48148)" width="87" height="26" fill="#fff" stroke="#000"/><text class="Text" transform="translate(43.5,16)"   font-size="10px"  text-anchor="middle"><tspan x="0" y="-5.5">Unknown target </tspan> <tspan x="0" y="5.5">genes</tspan></text></g><g class="GroupNone" transform="translate(204,172)" color="grey" ><rect class="Icon" transform="matrix(.99465 0 0 .99254 .49733 .49627)" width="186" height="133" fill="#b4b464" fill-opacity=".1" stroke="grey" stroke-dasharray="5,3"/><a  class="GeneProduct PLCH1 " transform="translate(97,51)"   name="PLCH1"  ><rect class="Icon" transform="matrix(.98765 0 0 .95238 .49383 .47619)" width="80" height="20" fill="#fff" stroke="#000"/><text class="Text" transform="translate(40,13)"   font-size="10px"  text-anchor="middle"><tspan x="0" y="0">PLCH1</tspan></text></a><a  class="GeneProduct PLCD3 " transform="translate(97,89)"   name="PLCD3"  ><rect class="Icon" transform="matrix(.98765 0 0 .95238 .49383 .47619)" width="80" height="20" fill="#fff" stroke="#000"/><text class="Text" transform="translate(40,13)"   font-size="10px"  text-anchor="middle"><tspan x="0" y="0">PLCD3</tspan></text></a><a  class="GeneProduct PLCG2 " transform="translate(9,28)"   name="PLCG2"  ><rect class="Icon" transform="matrix(.98765 0 0 .95238 .49383 .47619)" width="80" height="20" fill="#fff" stroke="#000"/><text class="Text" transform="translate(40,13)"   font-size="10px"  text-anchor="middle"><tspan x="0" y="0">PLCG2</tspan></text></a><a  class="GeneProduct PLCD1 " transform="translate(9,104)"   name="PLCD1"  ><rect class="Icon" transform="matrix(.98765 0 0 .95238 .49383 .47619)" width="80" height="20" fill="#fff" stroke="#000"/><text class="Text" transform="translate(40,13)"   font-size="10px"  text-anchor="middle"><tspan x="0" y="0">PLCD1</tspan></text></a><a  class="GeneProduct PLCZ1 " transform="translate(97,12)"   name="PLCZ1"  ><rect class="Icon" transform="matrix(.98765 0 0 .95238 .49383 .47619)" width="80" height="20" fill="#fff" stroke="#000"/><text class="Text" transform="translate(40,13)"   font-size="10px"  text-anchor="middle"><tspan x="0" y="0">PLCZ1</tspan></text></a><a  class="GeneProduct PLCB1 " transform="translate(9,67)"   name="PLCB1"  ><rect class="Icon" transform="matrix(.98765 0 0 .95238 .49383 .47619)" width="80" height="20" fill="#fff" stroke="#000"/><text class="Text" transform="translate(40,13)"   font-size="10px"  text-anchor="middle"><tspan x="0" y="0">PLCB1</tspan></text></a><a  class="GeneProduct PLCE1 " transform="translate(9,47)"   name="PLCE1"  ><rect class="Icon" transform="matrix(.98765 0 0 .95238 .49383 .47619)" width="80" height="20" fill="#fff" stroke="#000"/><text class="Text" transform="translate(40,13)"   font-size="10px"  text-anchor="middle"><tspan x="0" y="0">PLCE1</tspan></text></a><a  class="GeneProduct PLCL1 " transform="translate(97,70)"   name="PLCL1"  ><rect class="Icon" transform="matrix(.98765 0 0 .95238 .49383 .47619)" width="80" height="20" fill="#fff" stroke="#000"/><text class="Text" transform="translate(40,13)"   font-size="10px"  text-anchor="middle"><tspan x="0" y="0">PLCL1</tspan></text></a><a  class="GeneProduct PLCB2 " transform="translate(9,85)"   name="PLCB2"  ><rect class="Icon" transform="matrix(.98765 0 0 .95238 .49383 .47619)" width="80" height="20" fill="#fff" stroke="#000"/><text class="Text" transform="translate(40,13)"   font-size="10px"  text-anchor="middle"><tspan x="0" y="0">PLCB2</tspan></text></a><a  class="GeneProduct PLCB3 " transform="translate(97,32)"   name="PLCB3"  ><rect class="Icon" transform="matrix(.98765 0 0 .95238 .49383 .47619)" width="80" height="20" fill="#fff" stroke="#000"/><text class="Text" transform="translate(40,13)"   font-size="10px"  text-anchor="middle"><tspan x="0" y="0">PLCB3</tspan></text></a><a  class="GeneProduct PLCG1 " transform="translate(9,9)"   name="PLCG1"  ><rect class="Icon" transform="matrix(.98765 0 0 .95238 .49383 .47619)" width="80" height="20" fill="#fff" stroke="#000"/><text class="Text" transform="translate(40,13)"   font-size="10px"  text-anchor="middle"><tspan x="0" y="0">PLCG1</tspan></text></a></g><g class="GroupGroup" transform="translate(248,78)" color="grey" ><use class="Icon" width="96" height="55" fill="transparent"  stroke="grey" stroke-dasharray="5,3" stroke-width="0" xlink:href="#b"/><a  class="GeneProduct GNA11 " transform="translate(8,27)"   name="GNA11"  ><rect class="Icon" transform="matrix(.98765 0 0 .95238 .49383 .47619)" width="80" height="20" fill="#fff" stroke="#000"/><text class="Text" transform="translate(40,13)"   font-size="10px"  text-anchor="middle"><tspan x="0" y="0">GNA11</tspan></text></a><a  class="GeneProduct FFAR1 " transform="translate(8,8)"   name="GPR40"  ><rect class="Icon" transform="matrix(.98765 0 0 .95238 .49383 .47619)" width="80" height="20" fill="#fff" stroke="#000"/><text class="Text" transform="translate(40,13)"   font-size="10px"  text-anchor="middle"><tspan x="0" y="0">GPR40</tspan></text></a></g><g class="SingleFreeNode Shape" transform="translate(248.5,416.5)" color="#6600ff" ><use class="Icon" transform="matrix(.91304 0 0 .91304 .45652 .45652)" width="10.5" height="10.5" fill="#ff9900" stroke="#6600ff" xlink:href="#a"/></g><g class="SingleFreeNode Shape" transform="translate(262.5,397.5)" color="#6600ff" ><use class="Icon" transform="matrix(.91304 0 0 .91304 .45652 .45652)" width="10.5" height="10.5" fill="#ff9900" stroke="#6600ff" xlink:href="#a"/></g><g class="SingleFreeNode Shape" transform="translate(247.5,379.5)" color="#6600ff" ><use class="Icon" transform="matrix(.91304 0 0 .91304 .45652 .45652)" width="10.5" height="10.5" fill="#ff9900" stroke="#6600ff" xlink:href="#a"/></g><g class="SingleFreeNode Shape" transform="translate(263.5,439.5)" color="#6600ff" ><use class="Icon" transform="matrix(.91304 0 0 .91304 .45652 .45652)" width="10.5" height="10.5" fill="#ff9900" stroke="#6600ff" xlink:href="#a"/></g><g class="SingleFreeNode Shape" transform="translate(269.5,421.5)" color="#6600ff" ><use class="Icon" transform="matrix(.91304 0 0 .91304 .45652 .45652)" width="10.5" height="10.5" fill="#ff9900" stroke="#6600ff" xlink:href="#a"/></g><g class="SingleFreeNode Shape" transform="translate(296.35 470.4) rotate(9.7824 4.3302 13.75)" color="#000" ><use class="Icon" transform="matrix(.89648 0 0 .96491 .44824 .48246)" width="8.660309887070838" height="27.5" fill="#f0f" stroke="#000" xlink:href="#a"/></g><g class="SingleFreeNode Shape" transform="translate(521.5 492.5) rotate(-17.56 3.75 13.75)" color="#000" ><use class="Icon" transform="matrix(.88235 0 0 .96491 .44118 .48246)" width="7.5" height="27.5" fill="#f0f" stroke="#000" xlink:href="#a"/></g><g class="SingleFreeNode Shape" transform="translate(532.35 491.4) rotate(9.7824 4.3302 13.75)" color="#000" ><use class="Icon" transform="matrix(.89648 0 0 .96491 .44824 .48246)" width="8.660309887070838" height="27.5" fill="#f0f" stroke="#000" xlink:href="#a"/></g><g class="SingleFreeNode Shape" transform="translate(411.5 512.5) rotate(-17.56 3.75 13.75)" color="#000" ><use class="Icon" transform="matrix(.88235 0 0 .96491 .44118 .48246)" width="7.5" height="27.5" fill="#f0f" stroke="#000" xlink:href="#a"/></g><g class="SingleFreeNode Shape" transform="translate(422.35 511.4) rotate(9.7824 4.3302 13.75)" color="#000" ><use class="Icon" transform="matrix(.89648 0 0 .96491 .44824 .48246)" width="8.660309887070838" height="27.5" fill="#f0f" stroke="#000" xlink:href="#a"/></g><g class="SingleFreeNode Shape" transform="translate(287.5,471.5)" color="#6600ff" ><use class="Icon" transform="matrix(.91304 0 0 .91304 .45652 .45652)" width="10.5" height="10.5" fill="#ff9900" stroke="#6600ff" xlink:href="#a"/></g><g class="SingleFreeNode Shape" transform="translate(285.5,443.5)" color="#6600ff" ><use class="Icon" transform="matrix(.91304 0 0 .91304 .45652 .45652)" width="10.5" height="10.5" fill="#ff9900" stroke="#6600ff" xlink:href="#a"/></g><g class="SingleFreeNode Shape" transform="translate(307.5,521.5)" color="#6600ff" ><use class="Icon" transform="matrix(.91304 0 0 .91304 .45652 .45652)" width="10.5" height="10.5" fill="#0c0" stroke="#6600ff" xlink:href="#a"/></g><g class="SingleFreeNode Shape" transform="translate(346.5,526.5)" color="#6600ff" ><use class="Icon" transform="matrix(.91304 0 0 .91304 .45652 .45652)" width="10.5" height="10.5" fill="#0c0" stroke="#6600ff" xlink:href="#a"/></g><g class="SingleFreeNode Shape" transform="translate(474.83 423.5)" color="#6600ff" ><use class="Icon" transform="matrix(.91304 0 0 .91304 .45652 .45652)" width="10.5" height="10.5" fill="#0c0" stroke="#6600ff" xlink:href="#a"/></g><g class="SingleFreeNode Shape" transform="translate(492.17 444.83)" color="#6600ff" ><use class="Icon" transform="matrix(.91304 0 0 .91304 .45652 .45652)" width="10.5" height="10.5" fill="#0c0" stroke="#6600ff" xlink:href="#a"/></g><g class="SingleFreeNode Shape" transform="translate(524.83 437.17)" color="#6600ff" ><use class="Icon" transform="matrix(.91304 0 0 .91304 .45652 .45652)" width="10.5" height="10.5" fill="#0c0" stroke="#6600ff" xlink:href="#a"/></g><g class="SingleFreeNode Shape" transform="translate(859.5 405.5)" color="#6600ff" ><use class="Icon" transform="matrix(.91304 0 0 .91304 .45652 .45652)" width="10.5" height="10.5" fill="#3300cc" stroke="#6600ff" xlink:href="#a"/></g><g class="SingleFreeNode Shape" transform="translate(832.17 404.83)" color="#6600ff" ><use class="Icon" transform="matrix(.91304 0 0 .91304 .45652 .45652)" width="10.5" height="10.5" fill="#3300cc" stroke="#6600ff" xlink:href="#a"/></g><g class="SingleFreeNode Shape" transform="translate(835.5 434.83)" color="#6600ff" ><use class="Icon" transform="matrix(.91304 0 0 .91304 .45652 .45652)" width="10.5" height="10.5" fill="#3300cc" stroke="#6600ff" xlink:href="#a"/></g><g class="SingleFreeNode Shape" transform="translate(861.5 448.83)" color="#6600ff" ><use class="Icon" transform="matrix(.91304 0 0 .91304 .45652 .45652)" width="10.5" height="10.5" fill="#3300cc" stroke="#6600ff" xlink:href="#a"/></g><g class="SingleFreeNode Shape" transform="translate(895.5 424.17)" color="#6600ff" ><use class="Icon" transform="matrix(.91304 0 0 .91304 .45652 .45652)" width="10.5" height="10.5" fill="#3300cc" stroke="#6600ff" xlink:href="#a"/></g><g class="GroupGroup" transform="translate(723.99 503.7)" color="grey" ><use class="Icon" width="150.51071296107216" height="25.205881438650067" fill="transparent"  stroke="grey" stroke-dasharray="5,3" stroke-width="0" xlink:href="#b"/><g class="SingleFreeNode Shape" transform="translate(10.085 12.786) rotate(60.501 63.88 2.2101)" color="#000" ><use class="Icon" transform="matrix(.99223 0 0 .81551 .49612 .40775)" width="127.75904941621965" height="4.420234968641386" fill="#ffcccc" stroke="#000" xlink:href="#a"/></g><g class="SingleFreeNode Shape" transform="translate(8 8) rotate(50.855 66.268 2.2621)" color="#000" ><use class="Icon" transform="matrix(.99251 0 0 .81898 .49626 .40949)" width="132.5363095683915" height="4.524296176720828" fill="#ffcccc" stroke="#000" xlink:href="#a"/></g><g class="SingleFreeNode Shape" transform="translate(14.752 10.786) rotate(60.213 63.88 2.2101)" color="#000" ><use class="Icon" transform="matrix(.99223 0 0 .81551 .49612 .40775)" width="127.75904941621965" height="4.420234968641386" fill="#ffcccc" stroke="#000" xlink:href="#a"/></g></g><text class="Text" transform="translate(5,27)" dominant-baseline="central" fill="black"  font-size="12px" font-weight="bold" overflow="visible" ><tspan x="0" y="-9">Name: GPR40 pathway</tspan> <tspan x="0" y="9">Organism: Homo sapiens</tspan></text></g></svg>
