<?xml version="1.0" encoding="UTF-8"?>
<!--
  WikiPathways page: https://www.wikipathways.org/index.php/Pathway:WP403
  URL for this compressed file: https://github.com/eweitz/cachome/tree/main/data/wikipathways/WP403.svg
  Source code for compression: https://github.com/eweitz/cachome/tree/main/src/wikipathways.py
-->
<svg class="Diagram" width="800" height="600" color="black" baseProfile="full" prefix="schema:http://schema.org/" preserveAspectRatio="xMidYMid" version="1.1" viewBox="0 0 926.7 1011" vocab="http://vocabularies.wikipathways.org/wp#" xmlns="http://www.w3.org/2000/svg" xmlns:xlink="http://www.w3.org/1999/xlink"><style>svg {font-family: 'Liberation Sans', Arial, sans-serif; }</style><defs><filter id="j" x="-50%" y="-50%" width="200%" height="200%"><feComposite in="SourceGraphic" in2="SourceGraphic" result="doubleDark"/><feMorphology in="doubleDark" operator="dilate" radius="0.16666666666666666" result="in2Double"/><feMorphology in="SourceGraphic" operator="dilate" radius="3" result="inDouble"/><feComposite in="inDouble" in2="in2Double" operator="out" result="doubleResult"/></filter><filter id="b" x="0" y="0" width="926.7" height="1011" filterUnits="userSpaceOnUse"><feColorMatrix in="SourceGraphic" values="-1   0   0 0 0                   0  -1   0 0 0                   0   0  -1 0 0                   0   0   0 1 0"/></filter><filter id="f" x="0" y="0" width="926.7" height="1011" filterUnits="userSpaceOnUse"><feColorMatrix in="SourceGraphic" values="-1   0   0 0 0.4                   0  -1   0 0 0.4                   0   0  -1 0 0.4                   0   0   0 1 0"/></filter><marker id="i" stroke-dasharray="99999" markerHeight="12" markerUnits="userSpaceOnUse" markerWidth="12" orient="auto" preserveAspectRatio="none" refY="6" viewBox="0 0 12 12"><path d="M12 11L0 6l12-5z" fill="currentColor" stroke-width="0"/></marker><marker id="c" stroke-dasharray="99999" markerHeight="12" markerUnits="userSpaceOnUse" markerWidth="12" orient="auto" preserveAspectRatio="none" refX="12" refY="6" viewBox="0 0 12 12"><path transform="rotate(180 6 6)" d="M12 11L0 6l12-5z" fill="currentColor" stroke-width="0"/></marker><marker id="d" stroke-dasharray="99999" markerHeight="20" markerUnits="userSpaceOnUse" markerWidth="10" orient="auto" preserveAspectRatio="none" refX="10" refY="10" viewBox="0 0 10 20"><path d="m3 0v20" fill="currentColor" stroke="currentColor"/></marker><symbol id="h" overflow="visible" preserveAspectRatio="none" viewBox="0 0 100 100"><path d="M1.5 49.5c0-16.167 8.167-24.25 24.5-24.25S50.5 17.167 50.5 1c0 16.167 8.167 24.25 24.5 24.25s24.5 8.083 24.5 24.25" stroke="currentColor" vector-effect="non-scaling-stroke"/></symbol><symbol id="g" overflow="visible" preserveAspectRatio="none" viewBox="0 0 50 50"><ellipse cx="25" cy="25" rx="25" ry="25" stroke="currentColor" vector-effect="non-scaling-stroke"/></symbol><symbol id="e" overflow="visible" preserveAspectRatio="none" viewBox="0 0 100 100"><path d="M0 25L25 0h50l25 25v50l-25 25H25L0 75z" stroke="currentColor" vector-effect="non-scaling-stroke"/></symbol><symbol id="a" preserveAspectRatio="none" viewBox="0 0 100 100"/></defs><g class="Viewport" color="black"  name="Name: Wnt signaling pathway Last Modified: 10/17/2013 Organism: Mus musculus"><rect class="Icon" width="926.7" height="1011" fill="#fff" stroke="#000" stroke-width="0"/><g id="k" class="Edge GraphicalLine" color="#666666" ><g color="#666666" fill="transparent"  filter="url(#f)" stroke="#000" stroke-dasharray="464.66367713004473, 0" stroke-width="2"><path class="EdgeBody" d="m60.747 147.07 464.66-6e-14"   /></g></g><g id="l" class="Edge GraphicalLine" color="#666666" ><g color="#666666" fill="transparent"  filter="url(#f)" stroke="#000" stroke-dasharray="463.168908819133, 0" stroke-width="2"><path class="EdgeBody" d="m60 130 463.17-6e-14"   /></g></g><g id="m" class="DirectedInteraction" color="#000" ><g color="#000" fill="transparent"  filter="url(#b)" stroke="#000" stroke-dasharray="66.2249281691954, 5.8"><path class="EdgeBody" d="m631.5 747 68.083 23.5"   marker-end="url(#c)" /></g></g><g id="n" class="DirectedInteraction" color="#000" ><g color="#000" fill="transparent"  filter="url(#b)" stroke="#000" stroke-dasharray="170.77008006713362, 5.8"><path class="EdgeBody" d="m288.33 613.33v-3.5556c0-3.5556 0-10.667 25.931-14.222 25.931-3.5556 77.792-3.5556 103.72 0.33333 25.931 3.8889 25.931 11.667 25.931 15.556l7e-14 3.8889"   marker-end="url(#c)" /></g><g class="Burr Anchor" transform="translate(360.5 592.94)" ><use class="Icon" width="0" height="0" fill="#141414" stroke-width="0" xlink:href="#a"/></g></g><g id="o" class="Interaction" color="#000" ><g color="#000" fill="transparent"  filter="url(#b)" stroke="#000" stroke-dasharray="22.085857190588396, 0"><path class="EdgeBody" d="m360.65 592.08-0.64791-22.076"   /></g></g><g id="p" class="DirectedInteraction" color="#000" ><g color="#000" fill="transparent"  filter="url(#b)" stroke="#000" stroke-dasharray="5.07, 3.04, 5.07, 3.04, 5.07, 3.04, 5.07, 3.04, 5.07, 3.04, 5.07, 3.04, 5.07, 3.04, 5.07, 3.04, 5.07, 3.04, 5.07, 3.04, 5.07, 3.04, 5.07, 3.04, 5.07, 3.04, 5.07, 3.04, 5.07, 3.04, 5.07, 3.04, 5.07, 3.04, 0, 5.8"><path class="EdgeBody" d="m198.33 513.33 131.67-49.667"   marker-end="url(#c)" /></g></g><g id="q" class="DirectedInteraction" color="#000" ><g color="#000" fill="transparent"  filter="url(#b)" stroke="#000" stroke-dasharray="136.40192997596375, 5.8"><path class="EdgeBody" d="m470 631.33 111.83 87.833"   marker-end="url(#c)" /></g></g><g id="r" class="DirectedInteraction" color="#000" ><g color="#000" fill="transparent"  filter="url(#b)" stroke="#000" stroke-dasharray="0, 5.8, 44.73333333333332, 5.8"><path class="EdgeBody" d="m360 473.67v56.333"   marker-end="url(#c)" marker-start="url(#i)" /></g><g class="Burr Anchor" transform="translate(360,503)" ><use class="Icon" width="0" height="0" fill="#141414" stroke-width="0" xlink:href="#a"/></g></g><g id="s" class="Inhibition" color="#000" ><g color="#000" fill="transparent"  filter="url(#b)" stroke="#000" stroke-dasharray="159.33333333333337, 7"><path class="EdgeBody" d="m466.67 443.33v59.667h-106.67"   marker-end="url(#d)" /></g></g><g id="t" class="Edge GraphicalLine" color="#000" ><g color="#000" fill="transparent"  filter="url(#b)" stroke="#000" stroke-dasharray="25.512004112608174, 0"><path class="EdgeBody" d="m455.13 573.7-21.126 14.303"   /></g></g><g id="u" class="Inhibition" color="#000" ><g color="#000" fill="transparent"  filter="url(#b)" stroke="#000" stroke-dasharray="72.00070323175048, 7"><path class="EdgeBody" d="m360.33 374.67-0.33333 79"   marker-end="url(#d)" /></g></g><g id="v" class="DirectedInteraction" color="#000" ><g color="#000" fill="transparent"  filter="url(#b)" stroke="#000" stroke-dasharray="5.1, 3.06, 5.1, 3.06, 5.1, 3.06, 5.1, 3.06, 5.1, 3.06, 5.1, 3.06, 5.1, 3.06, 5.1, 3.06, 5.1, 3.06, 5.1, 3.06, 5.1, 3.06, 5.1, 3.06, 5.1, 3.06, 5.1, 3.06, 5.1, 3.06, 5.1, 3.06, 5.1, 3.06, 5.1, 3.06, 5.1, 3.06, 5.1, 3.06, 5.1, 5.8"><path class="EdgeBody" d="m447 147.67-86.667 151"   marker-end="url(#c)" /></g></g><g id="w" class="DirectedInteraction" color="#000" ><g color="#000" fill="transparent"  filter="url(#b)" stroke="#000" stroke-dasharray="5, 3, 5, 3, 5, 3, 5, 3, 5, 3, 5, 3, 5, 3, 5, 3, 5, 3, 5, 3, 5, 3, 0, 5.8"><path class="EdgeBody" d="m379.33 298.67 82.667-37.667"   marker-end="url(#c)" /></g></g><g id="x" class="DirectedInteraction" color="#000" ><g color="#000" fill="transparent"  filter="url(#b)" stroke="#000" stroke-dasharray="5.42, 3.25, 5.42, 3.25, 5.42, 3.25, 5.42, 3.25, 5.42, 3.25, 5.42, 3.25, 5.42, 3.25, 5.42, 3.25, 0, 5.8"><path class="EdgeBody" d="m379.33 374.67 60.667 38.667"   marker-end="url(#c)" /></g></g><g id="y" class="DirectedInteraction" color="#000" ><g color="#000" fill="transparent"  filter="url(#b)" stroke="#000" stroke-dasharray="62.200816988556184, 5.8"><path class="EdgeBody" d="m730 373.33 68-0.33333"   marker-end="url(#c)" /></g></g><g id="z" class="DirectedInteraction" color="#000" ><g color="#000" fill="transparent"  filter="url(#b)" stroke="#000" stroke-dasharray="5.12, 3.07, 5.12, 3.07, 5.12, 3.07, 5.12, 3.07, 5.12, 3.07, 5.12, 3.07, 5.12, 3.07, 5.12, 3.07, 5.12, 3.07, 5.12, 3.07, 5.12, 3.07, 5.12, 3.07, 5.12, 3.07, 5.12, 3.07, 5.12, 3.07, 5.12, 3.07, 5.12, 3.07, 5.12, 3.07, 5.12, 3.07, 5.12, 3.07, 5.12, 3.07, 5.12, 3.07, 5.12, 3.07, 5.12, 3.07, 5.12, 3.07, 5.12, 3.07, 5.12, 3.07, 5.12, 5.8"><path class="EdgeBody" d="m266.67 180h-193.33l2e-14 38.667"   marker-end="url(#c)" /></g><g class="Burr Anchor" transform="translate(173.87 180)" ><use class="Icon" width="0" height="0" fill="#141414" stroke-width="0" xlink:href="#a"/></g></g><g id="aa" class="Inhibition" color="#000" ><g color="#000" fill="transparent"  filter="url(#b)" stroke="#000" stroke-dasharray="56.000881828043575, 7"><path class="EdgeBody" d="m333.67 709-0.33333 63"   marker-end="url(#d)" /></g><g class="Burr Anchor" transform="translate(333.53 734.2)" ><use class="Icon" width="0" height="0" fill="#141414" stroke-width="0" xlink:href="#a"/></g></g><g id="ab" class="Interaction" color="#000" ><g color="#000" fill="transparent"  filter="url(#b)" stroke="#000" stroke-dasharray="5.1, 3.06, 5.1, 3.06, 5.1, 3.06, 5.1, 3.06, 5.1, 3.06, 5.1, 3.06, 5.1, 3.06, 5.1, 3.06, 5.1, 3.06, 5.1, 3.06, 5.1, 3.06, 5.1, 3.06, 0, 0"><path class="EdgeBody" d="m266.67 160-92.8 20"   /></g></g><g id="ac" class="Interaction" color="#000" ><g color="#000" fill="transparent"  filter="url(#b)" stroke="#000" stroke-dasharray="5.07, 3.04, 5.07, 3.04, 5.07, 3.04, 5.07, 3.04, 5.07, 3.04, 5.07, 3.04, 5.07, 3.04, 5.07, 3.04, 5.07, 3.04, 5.07, 3.04, 5.07, 3.04, 5.07, 3.04, 5.07, 3.04, 5.07, 0"><path class="EdgeBody" d="m266.67 120-92.8 60"   /></g></g><g id="ad" class="DirectedInteraction" color="#000" ><g color="#000" fill="transparent"  filter="url(#b)" stroke="#000" stroke-dasharray="5.75, 3.45, 5.75, 3.45, 5.75, 3.45, 5.75, 3.45, 5.75, 3.45, 5.75, 5.8"><path class="EdgeBody" d="m341.33 374.67-57 7.6667"   marker-end="url(#c)" /></g></g><g id="ae" class="Inhibition" color="#000" ><g color="#000" fill="transparent"  filter="url(#b)" stroke="#000" stroke-dasharray="54.108282762831955, 7"><path class="EdgeBody" d="m284.33 446.33 60.667 7.3333"   marker-end="url(#d)" /></g></g><g id="af" class="Inhibition" color="#000" ><g color="#000" fill="transparent"  filter="url(#b)" stroke="#000" stroke-dasharray="154.73333333333335, 7"><path class="EdgeBody" d="m273.33 633.33v20h-0.33333v80.867h60.533"   marker-end="url(#d)" /></g></g><g id="ag" class="DirectedInteraction" color="#000" ><g color="#000" fill="transparent"  filter="url(#b)" stroke="#000" stroke-dasharray="115.19999999999989, 5.8"><path class="EdgeBody" d="m660 657.67h-96.667v-24.333"   marker-end="url(#c)" /></g></g><g id="ah" class="DirectedInteraction" color="#000" ><g color="#000" fill="transparent"  filter="url(#b)" stroke="#000" stroke-dasharray="38.2, 5.8"><path class="EdgeBody" d="m610 373.33 44-7e-14"   marker-end="url(#c)" /></g></g><g id="ai" class="DirectedInteraction" color="#000" ><g color="#000" fill="transparent"  filter="url(#b)" stroke="#000" stroke-dasharray="109.83400115114165, 5.8"><path class="EdgeBody" d="m398.33 336.67 109.67 36.667"   marker-end="url(#c)" /></g></g><g id="aj" class="DirectedInteraction" color="#000" ><g color="#000" fill="transparent"  filter="url(#b)" stroke="#000" stroke-dasharray="5.87, 3.52, 5.87, 3.52, 5.87, 3.52, 5.87, 3.52, 5.87, 5.8"><path class="EdgeBody" d="m296.67 278 44.667 20.667"   marker-end="url(#c)" /></g></g><g class="SingleFreeNode Shape PhysicalEntity CellularComponent Nucleus" transform="translate(-18.5,651.5)" color="#c0c0c0" ><g fill="transparent"  filter="url(#j)" stroke="#c0c0c0" stroke-width="3"><use class="Icon" transform="matrix(.97924 0 0 .96501 5.8754 5.7901)" width="566" height="331"    xlink:href="#g"/></g></g><g class="GroupGroup" transform="translate(455.13 545.17)" color="grey" ><use class="Icon" width="37.081853333333356" height="38.04092666666668" fill="transparent"  stroke="grey" stroke-dasharray="5,3" stroke-width="0" xlink:href="#a"/><g class="SingleFreeNode Shape" transform="translate(8 8.9591)" color="#000" ><use class="Icon" transform="matrix(.95471 0 0 .95471 .47736 .47736)" width="21.081853333333335" height="21.081853333333335" fill="transparent"  stroke="#000" xlink:href="#g"/></g><g class="Label" transform="translate(11.374 8)" color="#000"  name="P"><use class="Icon" width="16.333333333333332" height="19" fill="transparent"  stroke="#000" stroke-width="0" xlink:href="#a"/><text class="Text" transform="translate(8.1667 13.5)"   font-size="12px" font-weight="bold"  text-anchor="middle"><tspan x="0" y="0">P</tspan></text></g></g><g class="GroupGroup" transform="translate(528.64 72)" color="grey" ><use class="Icon" width="376.06173333333334" height="136" fill="transparent"  stroke="grey" stroke-dasharray="5,3" stroke-width="0" xlink:href="#a"/><g class="SingleFreeNode Shape" transform="translate(8,8)" color="#000" ><rect class="Icon" transform="matrix(.99723 0 0 .99174 .49862 .49587)" width="360.06" height="120" fill="transparent"  stroke="#000"/></g><g class="Label" transform="translate(111.86 11.833)" color="#000"  name="Frizzled Ligands"><use class="Icon" width="132.33333333333334" height="19" fill="transparent"  stroke="#000" stroke-width="0" xlink:href="#a"/><text class="Text" transform="translate(66.167 13.5)"   font-size="12px" font-weight="bold"  text-anchor="middle"><tspan x="0" y="0">Frizzled Ligands</tspan></text></g><a  class="GeneProduct P594_ENSMUSG00000009900 " transform="translate(101.36 38)"   name="Wnt3a"  ><rect class="Icon" transform="matrix(.98361 0 0 .95238 .4918 .47619)" width="60" height="20" fill="#fff" stroke="#000"/><text class="Text" transform="translate(30,13)"   font-size="10px"  text-anchor="middle"><tspan x="0" y="0">Wnt3a</tspan></text></a><a  class="GeneProduct P594_ENSMUSG00000030093 " transform="translate(188.03 58)"   name="Wnt7a"  ><rect class="Icon" transform="matrix(.98361 0 0 .95238 .4918 .47619)" width="60" height="20" fill="#fff" stroke="#000"/><text class="Text" transform="translate(30,13)"   font-size="10px"  text-anchor="middle"><tspan x="0" y="0">Wnt7a</tspan></text></a><a  class="GeneProduct P594_ENSMUSG00000015957 " transform="translate(274.7 58)"   name="Wnt11"  ><rect class="Icon" transform="matrix(.98361 0 0 .95238 .4918 .47619)" width="60" height="20" fill="#fff" stroke="#000"/><text class="Text" transform="translate(30,13)"   font-size="10px"  text-anchor="middle"><tspan x="0" y="0">Wnt11</tspan></text></a><a  class="GeneProduct P594_ENSMUSG00000022997 " transform="translate(14.698 38)"   name="Wnt1"  ><rect class="Icon" transform="matrix(.98361 0 0 .95238 .4918 .47619)" width="60" height="20" fill="#fff" stroke="#000"/><text class="Text" transform="translate(30,13)"   font-size="10px"  text-anchor="middle"><tspan x="0" y="0">Wnt1</tspan></text></a><a  class="GeneProduct P594_ENSMUSG00000030170 " transform="translate(101.36 98)"   name="Wnt5b"  ><rect class="Icon" transform="matrix(.98361 0 0 .95238 .4918 .47619)" width="60" height="20" fill="#fff" stroke="#000"/><text class="Text" transform="translate(30,13)"   font-size="10px"  text-anchor="middle"><tspan x="0" y="0">Wnt5b</tspan></text></a><a  class="GeneProduct P594_ENSMUSG00000010797 " transform="translate(14.698 58)"   name="Wnt2"  ><rect class="Icon" transform="matrix(.98361 0 0 .95238 .4918 .47619)" width="60" height="20" fill="#fff" stroke="#000"/><text class="Text" transform="translate(30,13)"   font-size="10px"  text-anchor="middle"><tspan x="0" y="0">Wnt2</tspan></text></a><a  class="GeneProduct P594_ENSMUSG00000027840 " transform="translate(14.698 78)"   name="Wnt2b"  ><rect class="Icon" transform="matrix(.98361 0 0 .95238 .4918 .47619)" width="60" height="20" fill="#fff" stroke="#000"/><text class="Text" transform="translate(30,13)"   font-size="10px"  text-anchor="middle"><tspan x="0" y="0">Wnt2b</tspan></text></a><a  class="GeneProduct P594_ENSMUSG00000033227 " transform="translate(188.03 38)"   name="Wnt6"  ><rect class="Icon" transform="matrix(.98361 0 0 .95238 .4918 .47619)" width="60" height="20" fill="#fff" stroke="#000"/><text class="Text" transform="translate(30,13)"   font-size="10px"  text-anchor="middle"><tspan x="0" y="0">Wnt6</tspan></text></a><a  class="GeneProduct P594_ENSMUSG00000021994 " transform="translate(101.36 78)"   name="Wnt5a"  ><rect class="Icon" transform="matrix(.98361 0 0 .95238 .4918 .47619)" width="60" height="20" fill="#fff" stroke="#000"/><text class="Text" transform="translate(30,13)"   font-size="10px"  text-anchor="middle"><tspan x="0" y="0">Wnt5a</tspan></text></a><a  class="GeneProduct P594_ENSMUSG00000029671 " transform="translate(274.7 78)"   name="Wnt16"  ><rect class="Icon" transform="matrix(.98361 0 0 .95238 .4918 .47619)" width="60" height="20" fill="#fff" stroke="#000"/><text class="Text" transform="translate(30,13)"   font-size="10px"  text-anchor="middle"><tspan x="0" y="0">Wnt16</tspan></text></a><a  class="GeneProduct P594_ENSMUSG00000036856 " transform="translate(101.36 58)"   name="Wnt4"  ><rect class="Icon" transform="matrix(.98361 0 0 .95238 .4918 .47619)" width="60" height="20" fill="#fff" stroke="#000"/><text class="Text" transform="translate(30,13)"   font-size="10px"  text-anchor="middle"><tspan x="0" y="0">Wnt4</tspan></text></a><a  class="GeneProduct P594_ENSMUSG00000000125 " transform="translate(14.698 98)"   name="Wnt3"  ><rect class="Icon" transform="matrix(.98361 0 0 .95238 .4918 .47619)" width="60" height="20" fill="#fff" stroke="#000"/><text class="Text" transform="translate(30,13)"   font-size="10px"  text-anchor="middle"><tspan x="0" y="0">Wnt3</tspan></text></a><a  class="GeneProduct P594_ENSMUSG00000022996 " transform="translate(274.7 38)"   name="Wnt10b"  ><rect class="Icon" transform="matrix(.98361 0 0 .95238 .4918 .47619)" width="60" height="20" fill="#fff" stroke="#000"/><text class="Text" transform="translate(30,13)"   font-size="10px"  text-anchor="middle"><tspan x="0" y="0">Wnt10b</tspan></text></a><a  class="GeneProduct P594_ENSMUSG00000022382 " transform="translate(188.03 78)"   name="Wnt7b"  ><rect class="Icon" transform="matrix(.98361 0 0 .95238 .4918 .47619)" width="60" height="20" fill="#fff" stroke="#000"/><text class="Text" transform="translate(30,13)"   font-size="10px"  text-anchor="middle"><tspan x="0" y="0">Wnt7b</tspan></text></a><a  class="GeneProduct P594_ENSMUSG00000026167 " transform="translate(188.03 98)"   name="Wnt10a"  ><rect class="Icon" transform="matrix(.98361 0 0 .95238 .4918 .47619)" width="60" height="20" fill="#fff" stroke="#000"/><text class="Text" transform="translate(30,13)"   font-size="10px"  text-anchor="middle"><tspan x="0" y="0">Wnt10a</tspan></text></a><a  class="GeneProduct P594_ENSMUSG00000029671 " transform="translate(274.7 98)"   name="Wnt16"  ><rect class="Icon" transform="matrix(.98361 0 0 .95238 .4918 .47619)" width="60" height="20" fill="#fff" stroke="#000"/><text class="Text" transform="translate(30,13)"   font-size="10px"  text-anchor="middle"><tspan x="0" y="0">Wnt16</tspan></text></a></g><g class="GroupComplex" transform="translate(641 625.67)" color="grey" ><use class="Icon" transform="matrix(.99244 0 0 .98462 .49622 .49231)" width="131.33333333333337" height="64" fill="#b4b464" fill-opacity=".1" stroke="grey" xlink:href="#e"/><g class="SingleFreeNode Shape" transform="translate(12 27.667) rotate(-90 23.333 4.3333)" color="#000" ><use class="Icon" transform="matrix(.97902 0 0 .89655 .48951 .44828)" width="46.666666666666664" height="8.666666666666666" fill="#000" stroke="#000" xlink:href="#h"/></g><a  class="GeneProduct P594_ENSMUSG00000020745 " transform="translate(46,32)"   name="Pafah1b1"  ><rect class="Icon" transform="matrix(.98655 0 0 .95238 .49327 .47619)" width="73.333" height="20" fill="#fff" stroke="#000"/><text class="Text" transform="translate(36.667 13)"   font-size="10px"  text-anchor="middle"><tspan x="0" y="0">Pafah1b1</tspan></text></a><a  class="GeneProduct P594_ENSMUSG00000035949 " transform="translate(46,12)"   name="Fbxw2"  ><rect class="Icon" transform="matrix(.98655 0 0 .95238 .49327 .47619)" width="73.333" height="20" fill="#fff" stroke="#000"/><text class="Text" transform="translate(36.667 13)"   font-size="10px"  text-anchor="middle"><tspan x="0" y="0">Fbxw2</tspan></text></a></g><g class="GroupComplex" transform="translate(508 341.33)" color="grey" ><use class="Icon" transform="matrix(.99191 0 0 .98462 .49596 .49231)" width="122.66666666666674" height="64" fill="#b4b464" fill-opacity=".1" stroke="grey" xlink:href="#e"/><g class="SingleFreeNode Shape" transform="translate(57.333 26) rotate(90 26.667 6)" color="#000" ><use class="Icon" transform="matrix(.9816 0 0 .92308 .4908 .46154)" width="53.333333333333336" height="12" fill="#000" stroke="#000" xlink:href="#h"/></g><a  class="GeneProduct P594_ENSMUSG00000007815 " transform="translate(12,12)"   name="Rhoa"  ><rect class="Icon" transform="matrix(.98361 0 0 .95238 .4918 .47619)" width="60" height="20" fill="#fff" stroke="#000"/><text class="Text" transform="translate(30,13)"   font-size="10px"  text-anchor="middle"><tspan x="0" y="0">Rhoa</tspan></text></a><a  class="GeneProduct P594_ENSMUSG00000001847 " transform="translate(12,32)"   name="Rac1"  ><rect class="Icon" transform="matrix(.98361 0 0 .95238 .4918 .47619)" width="60" height="20" fill="#fff" stroke="#000"/><text class="Text" transform="translate(30,13)"   font-size="10px"  text-anchor="middle"><tspan x="0" y="0">Rac1</tspan></text></a></g><g class="Label" transform="translate(557 719.17)" color="#000"  name="Ubiquitin Tagged B - Catenin"><use class="Icon" width="99.33333333333333" height="27.833333333333332" fill="transparent"  stroke="#000" stroke-width="0" xlink:href="#a"/><text class="Text" transform="translate(49.667 16.917)"   font-size="9px" font-weight="bold"  text-anchor="middle"><tspan x="0" y="-4.95">Ubiquitin Tagged</tspan> <tspan x="0" y="4.95">B - Catenin</tspan></text></g><g class="Label" transform="translate(462,251.5)" color="#000080"  name="Cytoskeleton"><use class="Icon" width="85.83333333333333" height="19" fill="transparent"  stroke="#000080" stroke-width="0" xlink:href="#a"/><text class="Text" transform="translate(42.917 13.5)" fill="#000080"  font-size="12px" font-weight="bold"  text-anchor="middle"><tspan x="0" y="0">Cytoskeleton</tspan></text></g><g class="Label" transform="translate(89.167 690.5)" color="#000"  name="Nucleus"><use class="Icon" width="68.33333333333333" height="19" fill="transparent"  stroke="#000" stroke-width="0" xlink:href="#a"/><text class="Text" transform="translate(34.167 13.5)"   font-size="12px" font-weight="bold"  text-anchor="middle"><tspan x="0" y="0">Nucleus</tspan></text></g><g class="Label" transform="translate(128.17 762.5)" color="#000"  name="Transcriptional Activation"><use class="Icon" width="150.33333333333334" height="15" fill="transparent"  stroke="#000" stroke-width="0" xlink:href="#a"/><text class="Text" transform="translate(75.167 10.5)"   font-size="9px" font-weight="bold"  text-anchor="middle"><tspan x="0" y="0">Transcriptional Activation</tspan></text></g><g class="Label" transform="translate(522.33 615.33)" color="#000"  name="B"><use class="Icon" width="15.333333333333334" height="16" fill="transparent"  stroke="#000" stroke-width="0" xlink:href="#a"/><text class="Text" transform="translate(7.6667 11)"  font-family="Symbol" font-size="10px" font-weight="bold"  text-anchor="middle"><tspan x="0" y="0">B</tspan></text></g><g class="Label" transform="translate(640 599.17)" color="#000"  name="Recruitment to Unknown"><use class="Icon" width="145.33333333333334" height="15" fill="transparent"  stroke="#000" stroke-width="0" xlink:href="#a"/><text class="Text" transform="translate(72.667 10.5)"   font-size="9px" font-weight="bold"  text-anchor="middle"><tspan x="0" y="0">Recruitment to Unknown</tspan></text></g><g class="Label" transform="translate(642.5,770.5)" color="#000080"  name="26S Proteasome Degredation"><use class="Icon" width="228.33333333333334" height="19" fill="transparent"  stroke="#000080" stroke-width="0" xlink:href="#a"/><text class="Text" transform="translate(114.17 13.5)" fill="#000080"  font-size="12px" font-weight="bold"  text-anchor="middle"><tspan x="0" y="0">26S Proteasome Degredation</tspan></text></g><g class="Label" transform="translate(534.17 615.33)" color="#000"  name="-Catenin"><use class="Icon" width="58.333333333333336" height="16" fill="transparent"  stroke="#000" stroke-width="0" xlink:href="#a"/><text class="Text" transform="translate(29.167 11)"   font-size="10px" font-weight="bold"  text-anchor="middle"><tspan x="0" y="0">-Catenin</tspan></text></g><g class="Label" transform="translate(625,610.5)" color="#000"  name="Ubiquitin Conjugating Enzyme"><use class="Icon" width="171.33333333333334" height="15" fill="transparent"  stroke="#000" stroke-width="0" xlink:href="#a"/><text class="Text" transform="translate(85.667 10.5)"   font-size="9px" font-weight="bold"  text-anchor="middle"><tspan x="0" y="0">Ubiquitin Conjugating Enzyme</tspan></text></g><g class="Label" transform="translate(417.83 615.33)" color="#000"  name="Phosphorylated"><use class="Icon" width="104.33333333333333" height="16" fill="transparent"  stroke="#000" stroke-width="0" xlink:href="#a"/><text class="Text" transform="translate(52.167 11)"   font-size="10px" font-weight="bold"  text-anchor="middle"><tspan x="0" y="0">Phosphorylated</tspan></text></g><a  class="GeneProduct P594_ENSMUSG00000067199 " transform="translate(436.67 423.33)"   name="Frat1"  ><rect class="Icon" transform="matrix(.98361 0 0 .95238 .4918 .47619)" width="60" height="20" fill="#fff" stroke="#000"/><text class="Text" transform="translate(30,13)"   font-size="10px"  text-anchor="middle"><tspan x="0" y="0">Frat1</tspan></text></a><a  class="GeneProduct P594_ENSMUSG00000022433 " transform="translate(153.33 513.33)"   name="Csnk1e"  ><rect class="Icon" transform="matrix(.98361 0 0 .95238 .4918 .47619)" width="60" height="20" fill="#fff" stroke="#000"/><text class="Text" transform="translate(30,13)"   font-size="10px"  text-anchor="middle"><tspan x="0" y="0">Csnk1e</tspan></text></a><a  class="GeneProduct P594_ENSMUSG00000032193 " transform="translate(417 127.67)"   name="Ldlr"  ><rect class="Icon" transform="matrix(.98361 0 0 .95238 .4918 .47619)" width="60" height="20" fill="#fff" stroke="#000"/><text class="Text" transform="translate(30,13)"   font-size="10px"  text-anchor="middle"><tspan x="0" y="0">Ldlr</tspan></text></a><a  class="GeneProduct P594_ENSMUSG00000006932 " transform="translate(243.33 613.33)"   name="Ctnnb1"  ><rect class="Icon" transform="matrix(.98361 0 0 .95238 .4918 .47619)" width="60" height="20" fill="#fff" stroke="#000"/><text class="Text" transform="translate(30,13)"   font-size="10px"  text-anchor="middle"><tspan x="0" y="0">Ctnnb1</tspan></text></a><a  class="GeneProduct P594_ENSMUSG00000024182 " transform="translate(330 453.67)"   name="Axin1"  ><rect class="Icon" transform="matrix(.98361 0 0 .95238 .4918 .47619)" width="60" height="20" fill="#fff" stroke="#000"/><text class="Text" transform="translate(30,13)"   font-size="10px"  text-anchor="middle"><tspan x="0" y="0">Axin1</tspan></text></a><g class="WikiPathways_1254 Pathway" transform="translate(798,363)" color="#14961e"  name="Apoptosis"><use class="Icon" width="80" height="20" fill="transparent"  stroke="#14961e" stroke-width="0" xlink:href="#a"/><text class="Text" transform="translate(40,14)" fill="#14961e"  font-size="12px" font-weight="bold" stroke="black" stroke-width="0" text-anchor="middle"><tspan x="0" y="0">Apoptosis</tspan></text></g><g class="GeneProduct" transform="translate(312,689)" color="#000"  name="TCF-1/LEF"><rect class="Icon" transform="matrix(.98859 0 0 .95238 .4943 .47619)" width="86.667" height="20" fill="#fff" stroke="#000"/><text class="Text" transform="translate(43.333 13)"   font-size="10px"  text-anchor="middle"><tspan x="0" y="0">TCF-1/LEF</tspan></text></g><g class="GroupGroup" transform="translate(322.33 298.67)" color="grey" ><use class="Icon" width="76" height="76" fill="transparent"  stroke="grey" stroke-dasharray="5,3" stroke-width="0" xlink:href="#a"/><a  class="GeneProduct P594_ENSMUSG00000003233 " transform="translate(8,48)"   name="Dvl3"  ><rect class="Icon" transform="matrix(.98361 0 0 .95238 .4918 .47619)" width="60" height="20" fill="#fff" stroke="#000"/><text class="Text" transform="translate(30,13)"   font-size="10px"  text-anchor="middle"><tspan x="0" y="0">Dvl3</tspan></text></a><a  class="GeneProduct P594_ENSMUSG00000020888 " transform="translate(8,28)"   name="Dvl2"  ><rect class="Icon" transform="matrix(.98361 0 0 .95238 .4918 .47619)" width="60" height="20" fill="#fff" stroke="#000"/><text class="Text" transform="translate(30,13)"   font-size="10px"  text-anchor="middle"><tspan x="0" y="0">Dvl2</tspan></text></a><a  class="GeneProduct P594_ENSMUSG00000029071 " transform="translate(8,8)"   name="Dvl1"  ><rect class="Icon" transform="matrix(.98361 0 0 .95238 .4918 .47619)" width="60" height="20" fill="#fff" stroke="#000"/><text class="Text" transform="translate(30,13)"   font-size="10px"  text-anchor="middle"><tspan x="0" y="0">Dvl1</tspan></text></a></g><g class="GroupGroup" transform="translate(654 345.33)" color="grey" ><use class="Icon" width="76" height="56" fill="transparent"  stroke="grey" stroke-dasharray="5,3" stroke-width="0" xlink:href="#a"/><a  class="GeneProduct P594_ENSMUSG00000020366 " transform="translate(8,8)"   name="Mapk9"  ><rect class="Icon" transform="matrix(.98361 0 0 .95238 .4918 .47619)" width="60" height="20" fill="#fff" stroke="#000"/><text class="Text" transform="translate(30,13)"   font-size="10px"  text-anchor="middle"><tspan x="0" y="0">Mapk9</tspan></text></a><a  class="GeneProduct P594_ENSMUSG00000046709 " transform="translate(8,28)"   name="Mapk10"  ><rect class="Icon" transform="matrix(.98361 0 0 .95238 .4918 .47619)" width="60" height="20" fill="#fff" stroke="#000"/><text class="Text" transform="translate(30,13)"   font-size="10px"  text-anchor="middle"><tspan x="0" y="0">Mapk10</tspan></text></a></g><g class="GroupGroup" transform="translate(35.333 218.67)" color="grey" ><use class="Icon" width="76" height="216.00000000000003" fill="transparent"  stroke="grey" stroke-dasharray="5,3" stroke-width="0" xlink:href="#a"/><a  class="GeneProduct P594_ENSMUSG00000052889 " transform="translate(8 28)"   name="Prkcb"  ><rect class="Icon" transform="matrix(.98361 0 0 .95238 .4918 .47619)" width="60" height="20" fill="#fff" stroke="#000"/><text class="Text" transform="translate(30,13)"   font-size="10px"  text-anchor="middle"><tspan x="0" y="0">Prkcb</tspan></text></a><a  class="GeneProduct P594_ENSMUSG00000021108 " transform="translate(8 128)"   name="Prkch"  ><rect class="Icon" transform="matrix(.98361 0 0 .95238 .4918 .47619)" width="60" height="20" fill="#fff" stroke="#000"/><text class="Text" transform="translate(30,13)"   font-size="10px"  text-anchor="middle"><tspan x="0" y="0">Prkch</tspan></text></a><a  class="GeneProduct P594_ENSMUSG00000002688 " transform="translate(8 148)"   name="Prkd1"  ><rect class="Icon" transform="matrix(.98361 0 0 .95238 .4918 .47619)" width="60" height="20" fill="#fff" stroke="#000"/><text class="Text" transform="translate(30,13)"   font-size="10px"  text-anchor="middle"><tspan x="0" y="0">Prkd1</tspan></text></a><a  class="GeneProduct P594_ENSMUSG00000050965 " transform="translate(8,8)"   name="Prkca"  ><rect class="Icon" transform="matrix(.98361 0 0 .95238 .4918 .47619)" width="60" height="20" fill="#fff" stroke="#000"/><text class="Text" transform="translate(30,13)"   font-size="10px"  text-anchor="middle"><tspan x="0" y="0">Prkca</tspan></text></a><a  class="GeneProduct P594_ENSMUSG00000045038 " transform="translate(8 88)"   name="Prkce"  ><rect class="Icon" transform="matrix(.98361 0 0 .95238 .4918 .47619)" width="60" height="20" fill="#fff" stroke="#000"/><text class="Text" transform="translate(30,13)"   font-size="10px"  text-anchor="middle"><tspan x="0" y="0">Prkce</tspan></text></a><a  class="GeneProduct P594_ENSMUSG00000078816 " transform="translate(8 48)"   name="Prkcc"  ><rect class="Icon" transform="matrix(.98361 0 0 .95238 .4918 .47619)" width="60" height="20" fill="#fff" stroke="#000"/><text class="Text" transform="translate(30,13)"   font-size="10px"  text-anchor="middle"><tspan x="0" y="0">Prkcc</tspan></text></a><a  class="GeneProduct P594_ENSMUSG00000026778 " transform="translate(8 168)"   name="Prkcq"  ><rect class="Icon" transform="matrix(.98361 0 0 .95238 .4918 .47619)" width="60" height="20" fill="#fff" stroke="#000"/><text class="Text" transform="translate(30,13)"   font-size="10px"  text-anchor="middle"><tspan x="0" y="0">Prkcq</tspan></text></a><a  class="GeneProduct P594_ENSMUSG00000037643 " transform="translate(8 108)"   name="Prkci"  ><rect class="Icon" transform="matrix(.98361 0 0 .95238 .4918 .47619)" width="60" height="20" fill="#fff" stroke="#000"/><text class="Text" transform="translate(30,13)"   font-size="10px"  text-anchor="middle"><tspan x="0" y="0">Prkci</tspan></text></a><a  class="GeneProduct P594_ENSMUSG00000029053 " transform="translate(8 188)"   name="Prkcz"  ><rect class="Icon" transform="matrix(.98361 0 0 .95238 .4918 .47619)" width="60" height="20" fill="#fff" stroke="#000"/><text class="Text" transform="translate(30,13)"   font-size="10px"  text-anchor="middle"><tspan x="0" y="0">Prkcz</tspan></text></a><a  class="GeneProduct P594_ENSMUSG00000021948 " transform="translate(8 68)"   name="Prkcd"  ><rect class="Icon" transform="matrix(.98361 0 0 .95238 .4918 .47619)" width="60" height="20" fill="#fff" stroke="#000"/><text class="Text" transform="translate(30,13)"   font-size="10px"  text-anchor="middle"><tspan x="0" y="0">Prkcd</tspan></text></a></g><g class="GroupGroup" transform="translate(295.33 772)" color="grey" ><use class="Icon" width="76" height="156" fill="transparent"  stroke="grey" stroke-dasharray="5,3" stroke-width="0" xlink:href="#a"/><a  class="GeneProduct P594_ENSMUSG00000021822 " transform="translate(8,128)"   name="Plau"  ><rect class="Icon" transform="matrix(.98361 0 0 .95238 .4918 .47619)" width="60" height="20" fill="#fff" stroke="#000"/><text class="Text" transform="translate(30,13)"   font-size="10px"  text-anchor="middle"><tspan x="0" y="0">Plau</tspan></text></a><a  class="GeneProduct P594_ENSMUSG00000070348 " transform="translate(8,28)"   name="Ccnd1"  ><rect class="Icon" transform="matrix(.98361 0 0 .95238 .4918 .47619)" width="60" height="20" fill="#fff" stroke="#000"/><text class="Text" transform="translate(30,13)"   font-size="10px"  text-anchor="middle"><tspan x="0" y="0">Ccnd1</tspan></text></a><a  class="GeneProduct P594_ENSMUSG00000052684 " transform="translate(8,108)"   name="Jun"  ><rect class="Icon" transform="matrix(.98361 0 0 .95238 .4918 .47619)" width="60" height="20" fill="#fff" stroke="#000"/><text class="Text" transform="translate(30,13)"   font-size="10px"  text-anchor="middle"><tspan x="0" y="0">Jun</tspan></text></a><a  class="GeneProduct P594_ENSMUSG00000034165 " transform="translate(8,68)"   name="Ccnd3"  ><rect class="Icon" transform="matrix(.98361 0 0 .95238 .4918 .47619)" width="60" height="20" fill="#fff" stroke="#000"/><text class="Text" transform="translate(30,13)"   font-size="10px"  text-anchor="middle"><tspan x="0" y="0">Ccnd3</tspan></text></a><a  class="GeneProduct P594_ENSMUSG00000024912 " transform="translate(8,88)"   name="Fosl1"  ><rect class="Icon" transform="matrix(.98361 0 0 .95238 .4918 .47619)" width="60" height="20" fill="#fff" stroke="#000"/><text class="Text" transform="translate(30,13)"   font-size="10px"  text-anchor="middle"><tspan x="0" y="0">Fosl1</tspan></text></a><a  class="GeneProduct P594_ENSMUSG00000022346 " transform="translate(8,8)"   name="Myc"  ><rect class="Icon" transform="matrix(.98361 0 0 .95238 .4918 .47619)" width="60" height="20" fill="#fff" stroke="#000"/><text class="Text" transform="translate(30,13)"   font-size="10px"  text-anchor="middle"><tspan x="0" y="0">Myc</tspan></text></a><a  class="GeneProduct P594_ENSMUSG00000000184 " transform="translate(8,48)"   name="Ccnd2"  ><rect class="Icon" transform="matrix(.98361 0 0 .95238 .4918 .47619)" width="60" height="20" fill="#fff" stroke="#000"/><text class="Text" transform="translate(30,13)"   font-size="10px"  text-anchor="middle"><tspan x="0" y="0">Ccnd2</tspan></text></a></g><g class="GroupComplex" transform="translate(318,518)" color="grey" ><use class="Icon" transform="matrix(.98824 0 0 .98462 .49412 .49231)" width="84" height="64" fill="#b4b464" fill-opacity=".1" stroke="grey" xlink:href="#e"/><a  class="GeneProduct P594_ENSMUSG00000022812 " transform="translate(12,12)"   name="Gsk3b"  ><rect class="Icon" transform="matrix(.98361 0 0 .95238 .4918 .47619)" width="60" height="20" fill="#fff" stroke="#000"/><text class="Text" transform="translate(30,13)"   font-size="10px"  text-anchor="middle"><tspan x="0" y="0">Gsk3b</tspan></text></a><a  class="GeneProduct P594_ENSMUSG00000005871 " transform="translate(12,32)"   name="Apc"  ><rect class="Icon" transform="matrix(.98361 0 0 .95238 .4918 .47619)" width="60" height="20" fill="#fff" stroke="#000"/><text class="Text" transform="translate(30,13)"   font-size="10px"  text-anchor="middle"><tspan x="0" y="0">Apc</tspan></text></a></g><g class="GroupComplex" transform="translate(239 382.33)" color="grey" ><use class="Icon" transform="matrix(.98909 0 0 .98462 .49455 .49231)" width="90.66666666666666" height="64" fill="#b4b464" fill-opacity=".1" stroke="grey" xlink:href="#e"/><a  class="GeneProduct P594_ENSMUSG00000017843 " transform="translate(12,32)"   name="Ppp2r5c"  ><rect class="Icon" transform="matrix(.98522 0 0 .95238 .49261 .47619)" width="66.667" height="20" fill="#fff" stroke="#000"/><text class="Text" transform="translate(33.333 13)"   font-size="10px"  text-anchor="middle"><tspan x="0" y="0">Ppp2r5c</tspan></text></a><a  class="GeneProduct P594_ENSMUSG00000021051 " transform="translate(12,12)"   name="Ppp2r5e"  ><rect class="Icon" transform="matrix(.98522 0 0 .95238 .49261 .47619)" width="66.667" height="20" fill="#fff" stroke="#000"/><text class="Text" transform="translate(33.333 13)"   font-size="10px"  text-anchor="middle"><tspan x="0" y="0">Ppp2r5e</tspan></text></a></g><g class="GroupGroup" transform="translate(258.67 62)" color="grey" ><use class="Icon" width="76" height="216" fill="transparent"  stroke="grey" stroke-dasharray="5,3" stroke-width="0" xlink:href="#a"/><a  class="GeneProduct P594_ENSMUSG00000007989 " transform="translate(8,48)"   name="Fzd3"  ><rect class="Icon" transform="matrix(.98361 0 0 .95238 .4918 .47619)" width="60" height="20" fill="#fff" stroke="#000"/><text class="Text" transform="translate(30,13)"   font-size="10px"  text-anchor="middle"><tspan x="0" y="0">Fzd3</tspan></text></a><a  class="GeneProduct P594_ENSMUSG00000036904 " transform="translate(8,148)"   name="Fzd8"  ><rect class="Icon" transform="matrix(.98361 0 0 .95238 .4918 .47619)" width="60" height="20" fill="#fff" stroke="#000"/><text class="Text" transform="translate(30,13)"   font-size="10px"  text-anchor="middle"><tspan x="0" y="0">Fzd8</tspan></text></a><a  class="GeneProduct P594_ENSMUSG00000081683 " transform="translate(8,188)"   name="Fzd10"  ><rect class="Icon" transform="matrix(.98361 0 0 .95238 .4918 .47619)" width="60" height="20" fill="#fff" stroke="#000"/><text class="Text" transform="translate(30,13)"   font-size="10px"  text-anchor="middle"><tspan x="0" y="0">Fzd10</tspan></text></a><a  class="GeneProduct P594_ENSMUSG00000041075 " transform="translate(8,128)"   name="Fzd7"  ><rect class="Icon" transform="matrix(.98361 0 0 .95238 .4918 .47619)" width="60" height="20" fill="#fff" stroke="#000"/><text class="Text" transform="translate(30,13)"   font-size="10px"  text-anchor="middle"><tspan x="0" y="0">Fzd7</tspan></text></a><a  class="GeneProduct P594_ENSMUSG00000021319 " transform="translate(8,68)"   name="Sfrp4"  ><rect class="Icon" transform="matrix(.98361 0 0 .95238 .4918 .47619)" width="60" height="20" fill="#fff" stroke="#000"/><text class="Text" transform="translate(30,13)"   font-size="10px"  text-anchor="middle"><tspan x="0" y="0">Sfrp4</tspan></text></a><a  class="GeneProduct P594_ENSMUSG00000044674 " transform="translate(8,8)"   name="Fzd1"  ><rect class="Icon" transform="matrix(.98361 0 0 .95238 .4918 .47619)" width="60" height="20" fill="#fff" stroke="#000"/><text class="Text" transform="translate(30,13)"   font-size="10px"  text-anchor="middle"><tspan x="0" y="0">Fzd1</tspan></text></a><a  class="GeneProduct P594_ENSMUSG00000022297 " transform="translate(8,108)"   name="Fzd6"  ><rect class="Icon" transform="matrix(.98361 0 0 .95238 .4918 .47619)" width="60" height="20" fill="#fff" stroke="#000"/><text class="Text" transform="translate(30,13)"   font-size="10px"  text-anchor="middle"><tspan x="0" y="0">Fzd6</tspan></text></a><a  class="GeneProduct P594_ENSMUSG00000045005 " transform="translate(8,88)"   name="Fzd5"  ><rect class="Icon" transform="matrix(.98361 0 0 .95238 .4918 .47619)" width="60" height="20" fill="#fff" stroke="#000"/><text class="Text" transform="translate(30,13)"   font-size="10px"  text-anchor="middle"><tspan x="0" y="0">Fzd5</tspan></text></a><a  class="GeneProduct P594_ENSMUSG00000049551 " transform="translate(8,168)"   name="Fzd9"  ><rect class="Icon" transform="matrix(.98361 0 0 .95238 .4918 .47619)" width="60" height="20" fill="#fff" stroke="#000"/><text class="Text" transform="translate(30,13)"   font-size="10px"  text-anchor="middle"><tspan x="0" y="0">Fzd9</tspan></text></a><a  class="GeneProduct P594_ENSMUSG00000050288 " transform="translate(8,28)"   name="Fzd2"  ><rect class="Icon" transform="matrix(.98361 0 0 .95238 .4918 .47619)" width="60" height="20" fill="#fff" stroke="#000"/><text class="Text" transform="translate(30,13)"   font-size="10px"  text-anchor="middle"><tspan x="0" y="0">Fzd2</tspan></text></a></g><text class="Text" transform="translate(5,36)" dominant-baseline="central" fill="black"  font-size="12px" font-weight="bold" overflow="visible" ><tspan x="0" y="-18">Name: Wnt signaling pathway</tspan> <tspan x="0" y="0">Last Modified: 10/17/2013</tspan> <tspan x="0" y="18">Organism: Mus musculus</tspan></text></g></svg>
