<?xml version="1.0" encoding="UTF-8"?>
<!--
  WikiPathways page: https://www.wikipathways.org/index.php/Pathway:WP4157
  URL for this compressed file: https://github.com/eweitz/cachome/tree/main/data/wikipathways/WP4157.svg
  Source code for compression: https://github.com/eweitz/cachome/tree/main/src/wikipathways.py
-->
<svg class="Diagram" width="800" height="600" color="black" baseProfile="full" prefix="schema:http://schema.org/" preserveAspectRatio="xMidYMid" version="1.1" viewBox="0 0 1321.8 805.12" vocab="http://vocabularies.wikipathways.org/wp#" xmlns="http://www.w3.org/2000/svg" xmlns:xlink="http://www.w3.org/1999/xlink"><style>svg {font-family: 'Liberation Sans', Arial, sans-serif; }</style><defs><filter id="a" x="0" y="0" width="1321.8" height="805.12" filterUnits="userSpaceOnUse"><feColorMatrix in="SourceGraphic" values="-1   0   0 0 0                   0  -1   0 0 0                   0   0  -1 0 0                   0   0   0 1 0"/></filter><marker id="e" stroke-dasharray="99999" markerHeight="12" markerUnits="userSpaceOnUse" markerWidth="12" orient="auto" preserveAspectRatio="none" refX="12" refY="6" viewBox="0 0 12 12"><path transform="rotate(180 6 6)" d="M12 11L0 6l12-5z" fill="currentColor" stroke-width="0"/></marker><marker id="d" stroke-dasharray="99999" markerHeight="12" markerUnits="userSpaceOnUse" markerWidth="12" orient="auto" preserveAspectRatio="none" refX="12" refY="6" viewBox="0 0 12 12"><circle transform="rotate(180 6 6)" cx="6" cy="6" r="5.3" fill="none" stroke="#000"/></marker><marker id="b" stroke-dasharray="99999" markerHeight="12" markerUnits="userSpaceOnUse" markerWidth="12" orient="auto" preserveAspectRatio="none" refX="12" refY="6" viewBox="0 0 12 12"><path transform="rotate(180 6 6)" d="M12 11L0 6l12-5z" fill="currentColor" stroke-width="0"/></marker><marker id="g" stroke-dasharray="99999" markerHeight="12" markerUnits="userSpaceOnUse" markerWidth="12" orient="auto" preserveAspectRatio="none" refX="12" refY="6" viewBox="0 0 12 12"><g transform="rotate(180 6 6)" fill="none"><path d="m12 6"/><path d="M0 6l11 5V1z" stroke="#000"/></g></marker><symbol id="f" overflow="visible" preserveAspectRatio="none" viewBox="0 0 50 50"><ellipse cx="25" cy="25" rx="25" ry="25" stroke="currentColor" vector-effect="non-scaling-stroke"/></symbol><symbol id="c" preserveAspectRatio="none" viewBox="0 0 100 100"/></defs><g class="Viewport" color="black"  name="Name: GABA metabolism (aka GHB) Organism: Homo sapiens"><rect class="Icon" width="1321.8" height="805.12" fill="#fff" stroke="#000" stroke-width="0"/><g id="h" class="DirectedInteraction" color="#000" ><g color="#000" fill="transparent"  filter="url(#a)" stroke="#000" stroke-dasharray="5.44, 3.27, 5.44, 3.27, 5.44, 5.8"><path class="EdgeBody" d="m170.47 508.04 28.661-2.3e-13"   marker-end="url(#e)" /></g></g><g id="i" class="Interaction" color="#000" ><g color="#000" fill="transparent"  filter="url(#a)" stroke="#000" stroke-dasharray="202.7171614894076, 5.8"><path class="EdgeBody" d="m642.78 287.02-0.1214 208.52"   marker-end="url(#b)" /></g></g><g id="j" class="Edge GraphicalLine" color="#000" ><g color="#000" fill="transparent"  filter="url(#a)" stroke="#000" stroke-dasharray="5.28, 3.17, 5.28, 3.17, 5.28, 3.17, 5.28, 3.17, 5.28, 3.17, 5.28, 3.17, 5.28, 3.17, 5.28, 3.17, 5.28, 3.17, 5.28, 3.17, 5.28, 3.17, 5.28, 3.17, 5.28, 3.17, 5.28, 3.17, 5.28, 3.17, 5.28, 3.17, 5.28, 3.17, 5.28, 3.17, 0, 0"><path class="EdgeBody" d="m881.45 414.91 76.429-127.88"   /></g></g><g id="k" class="Rhea_13218" color="#000" ><g color="#000" fill="transparent"  filter="url(#a)" stroke="#000" stroke-dasharray="109.58262322472866, 5.8"><path class="EdgeBody" d="m957.88 287.02 3e-13 115.38"   marker-end="url(#b)" /></g><g class="Burr Anchor" transform="translate(957.88 362.78)" ><use class="Icon" width="0" height="0" fill="#141414" stroke-width="0" xlink:href="#c"/></g></g><g id="l" class="Edge GraphicalLine DirectedInteraction" color="#000" ><g color="#000" fill="transparent"  filter="url(#a)" stroke="#000" stroke-dasharray="5.46, 3.27, 5.46, 3.27, 5.46, 3.27, 5.46, 3.27, 5.46, 3.27, 5.46, 3.27, 5.46, 3.27, 5.46, 5.8"><path class="EdgeBody" d="m957.88 362.78 72.357 1.1298"   marker-end="url(#e)" /></g></g><g id="m" class="Interaction" color="#000" ><g color="#000" fill="transparent"  filter="url(#a)" stroke="#000" stroke-dasharray="75.80621773768475, 11"><path class="EdgeBody" d="m871.08 362 86.803 0.77501"   marker-end="url(#d)" /></g></g><g id="n" class="Rhea_24735" color="#000" ><g color="#000" fill="transparent"  filter="url(#a)" stroke="#000" stroke-dasharray="429.4657563025191, 5.8"><path class="EdgeBody" d="m704.66 262.02v-91.024h253.22v91.024"   marker-end="url(#b)" /></g><g class="Burr Anchor" transform="translate(928.79 171)" ><use class="Icon" width="0" height="0" fill="#141414" stroke-width="0" xlink:href="#c"/></g><g class="Burr Anchor" transform="translate(957.6 171)" ><use class="Icon" width="0" height="0" fill="#141414" stroke-width="0" xlink:href="#c"/></g></g><g id="o" class="Rhea_24735" color="#000" ><g color="#000" fill="transparent"  filter="url(#a)" stroke="#000" stroke-dasharray="49.18159656388243, 5.8"><path class="EdgeBody" d="m957.6 171 47.895 27"   marker-end="url(#b)" /></g></g><g id="p" class="Interaction" color="#000" ><g color="#000" fill="transparent"  filter="url(#a)" stroke="#000" stroke-dasharray="68.29356725146205, 5.8"><path class="EdgeBody" d="m957.88 427.41v74.094"   marker-end="url(#b)" /></g></g><g id="q" class="Rhea_23949" color="#000" ><g color="#000" fill="transparent"  filter="url(#a)" stroke="#000" stroke-dasharray="115.03053221288378, 5.8"><path class="EdgeBody" d="m766.55 268.27h120.83"   marker-end="url(#b)" /></g><g class="Burr Anchor" transform="translate(823.52 268.27)" ><use class="Icon" width="0" height="0" fill="#141414" stroke-width="0" xlink:href="#c"/></g></g><g id="r" class="Interaction" color="#000" ><g color="#000" fill="transparent"  filter="url(#a)" stroke="#000" stroke-dasharray="44.770244646102846, 11"><path class="EdgeBody" d="m929.89 115.24-1.1069 55.759"   marker-end="url(#d)" /></g></g><g id="s" class="Interaction" color="#000" ><g color="#000" fill="transparent"  filter="url(#a)" stroke="#000" stroke-dasharray="100.7238095238093, 5.8"><path class="EdgeBody" d="m126 155.5v106.52"   marker-end="url(#b)" /></g><g class="Burr Anchor" transform="translate(126 201.79)" ><use class="Icon" width="0" height="0" fill="#141414" stroke-width="0" xlink:href="#c"/></g></g><g id="t" class="Interaction" color="#000" ><g color="#000" fill="transparent"  filter="url(#a)" stroke="#000" stroke-dasharray="24.04589925904491, 11"><path class="EdgeBody" d="m161 200-35 1.7931"   marker-end="url(#d)" /></g></g><g id="u" class="Interaction" color="#000" ><g color="#000" fill="transparent"  filter="url(#a)" stroke="#000" stroke-dasharray="35.48993063167244, 5.8"><path class="EdgeBody" d="m642.65 520.54 0.1214 41.29"   marker-end="url(#b)" /></g></g><g id="v" class="Interaction" color="#000" ><g color="#000" fill="transparent"  filter="url(#a)" stroke="#000" stroke-dasharray="318.2, 5.8"><path class="EdgeBody" d="m195 274.52h324"   marker-end="url(#b)" /></g><g class="Burr Anchor" transform="translate(324.6 274.52)" ><use class="Icon" width="0" height="0" fill="#141414" stroke-width="0" xlink:href="#c"/></g></g><g id="w" class="Rhea_26383" color="#000" ><g color="#000" fill="transparent"  filter="url(#a)" stroke="#000" stroke-dasharray="115.03053221288378, 5.8"><path class="EdgeBody" d="m887.38 280.77h-120.83"   marker-end="url(#b)" /></g><g class="Burr Anchor" transform="translate(825.46 280.77)" ><use class="Icon" width="0" height="0" fill="#141414" stroke-width="0" xlink:href="#c"/></g></g><g id="x" class="Interaction" color="#000" ><g color="#000" fill="transparent"  filter="url(#a)" stroke="#000" stroke-dasharray="16.74088283620656, 11"><path class="EdgeBody" d="m824.55 308.5 0.90274-27.726"   marker-end="url(#d)" /></g></g><g id="y" class="Interaction" color="#000" ><g color="#000" fill="transparent"  filter="url(#a)" stroke="#000" stroke-dasharray="112.07728257597941, 5.8"><path class="EdgeBody" d="m580.48 520.54-110.41 41.29"   marker-end="url(#b)" /></g></g><g id="z" class="Interaction" color="#000" ><g color="#000" fill="transparent"  filter="url(#a)" stroke="#000" stroke-dasharray="68.81596219501165, 5.8"><path class="EdgeBody" d="m704.83 520.54 62.151 41.29"   marker-end="url(#b)" /></g></g><g id="aa" class="Rhea_20402" color="#000" ><g color="#000" fill="transparent"  filter="url(#a)" stroke="#000" stroke-dasharray="191.72380952380928, 5.8"><path class="EdgeBody" d="m642.78 64.5v197.52"   marker-end="url(#b)" /></g><g class="Burr Anchor" transform="translate(642.78 121.86)" ><use class="Icon" width="0" height="0" fill="#141414" stroke-width="0" xlink:href="#c"/></g><g class="Burr Anchor" transform="translate(642.78 208.65)" ><use class="Icon" width="0" height="0" fill="#141414" stroke-width="0" xlink:href="#c"/></g></g><g id="ab" class="Interaction" color="#000" ><g color="#000" fill="transparent"  filter="url(#a)" stroke="#000" stroke-dasharray="133.27668547352522, 11"><path class="EdgeBody" d="m498.5 208 144.28 0.65248"   marker-end="url(#d)" /></g></g><g id="ac" class="Rhea_24735" color="#000" ><g color="#000" fill="transparent"  filter="url(#a)" stroke="#000" stroke-dasharray="48.2275481649272, 5.8"><path class="EdgeBody" d="m1005.5 146-47.895 25"   marker-end="url(#b)" /></g></g><g id="ad" class="Interaction" color="#000" ><g color="#000" fill="transparent"  filter="url(#a)" stroke="#000" stroke-dasharray="19.58225898063865, 11"><path class="EdgeBody" d="m324 243.95 0.6 30.576"   marker-end="url(#d)" /></g></g><g id="ae" class="Interaction" color="#000" ><g color="#000" fill="transparent"  filter="url(#a)" stroke="#000" stroke-dasharray="26.669768343291594, 11"><path class="EdgeBody" d="m582.97 377.25-1.0023 37.656"   marker-end="url(#d)" /></g></g><g id="af" class="Interaction" color="#000" ><g color="#000" fill="transparent"  filter="url(#a)" stroke="#000" stroke-dasharray="97.78373311015613, 11"><path class="EdgeBody" d="m534 120.5 108.78 1.3617"   marker-end="url(#d)" /></g></g><g id="ag" class="Interaction" color="#000" ><g color="#000" fill="transparent"  filter="url(#a)" stroke="#000" stroke-dasharray="13.820392467944593, 11"><path class="EdgeBody" d="m822 243.5 1.5199 24.774"   marker-end="url(#d)" /></g></g><g class="Label" transform="translate(1030.2 351.4)" color="#00f"  name="SSADH"><use class="Icon" transform="matrix(.98901 0 0 .96154 .49451 .48077)" width="90" height="25" fill="#ffcccc" stroke="#00f" xlink:href="#f"/><text class="Text" transform="translate(45,16.5)" fill="#00f"  font-size="12px"  text-anchor="middle"><tspan x="0" y="0">SSADH</tspan></text></g><a class="ChEBI_CHEBI_59888 Metabolite ChEBI_CHEBI_16865   " transform="translate(325.41 402.41)" color="#00f"  name="gamma-aminobutanoic acid (GABA)"  ><rect class="Icon" transform="matrix(.99546 0 0 .96154 .49773 .48077)" width="219.5" height="25" rx="15" ry="15" fill="#fff" stroke="#00f"/><text class="Text" transform="translate(109.75,16.5)" fill="#00f"  font-size="12px"  text-anchor="middle"><tspan x="0" y="0">gamma-aminobutanoic acid (GABA)</tspan></text></a><a class="ChEBI_CHEBI_30031 Metabolite  " transform="translate(912.88 402.41)" color="#00f"  name="succinic acid"  ><rect class="Icon" transform="matrix(.98901 0 0 .96154 .49451 .48077)" width="90" height="25" rx="15" ry="15" fill="#fff" stroke="#00f"/><text class="Text" transform="translate(45,16.5)" fill="#00f"  font-size="12px"  text-anchor="middle"><tspan x="0" y="0">succinic acid</tspan></text></a><a  class="Uniprot-TrEMBL_Q8IWW8 Protein ADHFE1 " transform="translate(862,72)"   name="D-2-hydroxyglutarate  transhydrogenase"  ><rect class="Icon" transform="matrix(.99269 0 0 .9774 .49634 .4887)" width="135.79" height="43.241" fill="#fff" stroke="#000"/><text class="Text" transform="translate(67.894 25.62)"   font-size="12px"  text-anchor="middle"><tspan x="0" y="-6.6000000000000005">D-2-hydroxyglutarate </tspan> <tspan x="0" y="6.6000000000000005">transhydrogenase</tspan></text></a><a class="ChEBI_CHEBI_42639 Metabolite  " transform="translate(574.78 39.5)" color="#00f"  name="4-butyrolactone"  ><rect class="Icon" transform="matrix(.9927 0 0 .96154 .49635 .48077)" width="136" height="25" rx="15" ry="15" fill="#fff" stroke="#00f"/><text class="Text" transform="translate(68,16.5)" fill="#00f"  font-size="12px"  text-anchor="middle"><tspan x="0" y="0">4-butyrolactone</tspan></text></a><a  class="Protein" transform="translate(161,187.5)"   name="ADH"  ><rect class="Icon" transform="matrix(.98901 0 0 .96154 .49451 .48077)" width="90" height="25" fill="#fff" stroke="#000"/><text class="Text" transform="translate(45,16.5)"   font-size="12px"  text-anchor="middle"><tspan x="0" y="0">ADH</tspan></text></a><a class="ChEBI_CHEBI_15801 Metabolite  " transform="translate(1005.5,185)" color="#00f"  name="D-2-hydroxyglutaric acid"  ><rect class="Icon" transform="matrix(.99373 0 0 .96296 .49687 .48148)" width="158.5" height="26" rx="15" ry="15" fill="#fff" stroke="#00f"/><text class="Text" transform="translate(79.25,17)" fill="#00f"  font-size="12px"  text-anchor="middle"><tspan x="0" y="0">D-2-hydroxyglutaric acid</tspan></text></a><a class="ChEBI_CHEBI_16724 Metabolite  " transform="translate(519 262.02)" color="#00f"  name="gamma-hydroxybutyric acid (GHB)"  ><rect class="Icon" transform="matrix(.99598 0 0 .96154 .49799 .48077)" width="247.55" height="25" rx="15" ry="15" fill="#fff" stroke="#00f"/><text class="Text" transform="translate(123.78 16.5)" fill="#00f"  font-size="12px"  text-anchor="middle"><tspan x="0" y="0">gamma-hydroxybutyric acid (GHB)</tspan></text></a><a class="ChEBI_CHEBI_41189 Metabolite  " transform="translate(81 130.5)" color="#00f"  name="1,4-butanediol"  ><rect class="Icon" transform="matrix(.98901 0 0 .96154 .49451 .48077)" width="90" height="25" rx="15" ry="15" fill="#fff" stroke="#00f"/><text class="Text" transform="translate(45,16.5)" fill="#00f"  font-size="12px"  text-anchor="middle"><tspan x="0" y="0">1,4-butanediol</tspan></text></a><a class="PubChem-compound_19793911 Metabolite " transform="translate(382.76 561.83)" color="#00f"  name="3-oxo-4-hydroxybutyric acid"  ><rect class="Icon" transform="matrix(.99431 0 0 .96154 .49715 .48077)" width="174.63" height="25" rx="15" ry="15" fill="#fff" stroke="#00f"/><text class="Text" transform="translate(87.315 16.5)" fill="#00f"  font-size="12px"  text-anchor="middle"><tspan x="0" y="0">3-oxo-4-hydroxybutyric acid</tspan></text></a><g class="Enzyme_Nomenclature_1_2_1_3 Protein " transform="translate(279 218.95)" color="#000"  name="ALDH"><rect class="Icon" transform="matrix(.98901 0 0 .96154 .49451 .48077)" width="90" height="25" fill="#fff" stroke="#000"/><text class="Text" transform="translate(45,16.5)"   font-size="12px"  text-anchor="middle"><tspan x="0" y="0">ALDH</tspan></text></g><a  class="Uniprot-TrEMBL_O43488 Protein AKR7A2 " transform="translate(774.55 308.5)"   name="SSA reductase"  ><rect class="Icon" transform="matrix(.9901 0 0 .96154 .49505 .48077)" width="100" height="25" fill="#fff" stroke="#000"/><text class="Text" transform="translate(50,16.5)"   font-size="12px"  text-anchor="middle"><tspan x="0" y="0">SSA reductase</tspan></text></a><a  class="Uniprot-TrEMBL_P80404 Protein ABAT " transform="translate(537.97 352.25)"   name="GABAT"  ><rect class="Icon" transform="matrix(.98901 0 0 .96154 .49451 .48077)" width="90" height="25" fill="#fff" stroke="#000"/><text class="Text" transform="translate(45,16.5)"   font-size="12px"  text-anchor="middle"><tspan x="0" y="0">GABAT</tspan></text></a><a class="PubChem-compound_93093 Metabolite " transform="translate(57 262.02)" color="#00f"  name="4-hydroxybutyraldehyde"  ><rect class="Icon" transform="matrix(.99281 0 0 .96154 .4964 .48077)" width="138" height="25" rx="15" ry="15" fill="#fff" stroke="#00f"/><text class="Text" transform="translate(69,16.5)" fill="#00f"  font-size="12px"  text-anchor="middle"><tspan x="0" y="0">4-hydroxybutyraldehyde</tspan></text></a><a class="WikiPathways_WP143 Pathway " transform="translate(518.31 495.54)" color="#14961e"  name="fatty acid beta-oxidation spiral"  ><use class="Icon" width="248.69238250855915" height="25" fill="transparent"  stroke="#14961e" stroke-width="0" xlink:href="#c"/><text class="Text" transform="translate(124.35 16.5)" fill="#14961e"  font-size="12px" font-weight="bold" stroke="black" stroke-width="0" text-anchor="middle"><tspan x="0" y="0">fatty acid beta-oxidation spiral</tspan></text></a><a class="ChEBI_CHEBI_57706 Metabolite  " transform="translate(887.38 262.02)" color="#00f"  name="succinic semialdehyde"  ><rect class="Icon" transform="matrix(.99296 0 0 .96154 .49648 .48077)" width="141" height="25" rx="15" ry="15" fill="#fff" stroke="#00f"/><text class="Text" transform="translate(70.5,16.5)" fill="#00f"  font-size="12px"  text-anchor="middle"><tspan x="0" y="0">succinic semialdehyde</tspan></text></a><a class="ChEBI_CHEBI_16810 Metabolite  " transform="translate(1005.5,133)" color="#00f"  name="alpha-ketoglutarate"  ><rect class="Icon" transform="matrix(.99373 0 0 .96296 .49687 .48148)" width="158.5" height="26" rx="15" ry="15" fill="#fff" stroke="#00f"/><text class="Text" transform="translate(79.25,17)" fill="#00f"  font-size="12px"  text-anchor="middle"><tspan x="0" y="0">alpha-ketoglutarate</tspan></text></a><a  class="Uniprot-TrEMBL_P16444 Protein DPEP1 " transform="translate(408.5,195.5)"   name="lactamase"  ><rect class="Icon" transform="matrix(.98901 0 0 .96154 .49451 .48077)" width="90" height="25" fill="#fff" stroke="#000"/><text class="Text" transform="translate(45,16.5)"   font-size="12px"  text-anchor="middle"><tspan x="0" y="0">lactamase</tspan></text></a><a class="WikiPathways_WP78 Pathway " transform="translate(912.88 501.5)" color="#14961e"  name="TCA cycle"  ><use class="Icon" width="90" height="25" fill="transparent"  stroke="#14961e" stroke-width="0" xlink:href="#c"/><text class="Text" transform="translate(45,16.5)" fill="#14961e"  font-size="12px" font-weight="bold" stroke="black" stroke-width="0" text-anchor="middle"><tspan x="0" y="0">TCA cycle</tspan></text></a><a class="ChEBI_CHEBI_17497 Metabolite  " transform="translate(721.98 561.83)" color="#00f"  name="glycolic acid"  ><rect class="Icon" transform="matrix(.98901 0 0 .96154 .49451 .48077)" width="90" height="25" rx="15" ry="15" fill="#fff" stroke="#00f"/><text class="Text" transform="translate(45,16.5)" fill="#00f"  font-size="12px"  text-anchor="middle"><tspan x="0" y="0">glycolic acid</tspan></text></a><a class="ChEBI_CHEBI_86371 Metabolite  " transform="translate(572.82 561.83)" color="#00f"  name="3,4-dihydroxybutyric acid"  ><rect class="Icon" transform="matrix(.9929 0 0 .96154 .49645 .48077)" width="139.91" height="25" rx="15" ry="15" fill="#fff" stroke="#00f"/><text class="Text" transform="translate(69.954 16.5)" fill="#00f"  font-size="12px"  text-anchor="middle"><tspan x="0" y="0">3,4-dihydroxybutyric acid</tspan></text></a><g class="GroupGroup" transform="translate(286,62.5)" color="grey" ><use class="Icon" width="248" height="116" fill="transparent"  stroke="grey" stroke-dasharray="5,3" stroke-width="0" xlink:href="#c"/><g class="Enzyme_Nomenclature_3_1_1_81 Protein " transform="translate(8,58)" color="#000"  name="Serum paraoxonase/lactonase 3 (b)"><rect class="Icon" transform="matrix(.99571 0 0 .96154 .49785 .48077)" width="232" height="25" fill="#fff" stroke="#000"/><text class="Text" transform="translate(116,16.5)"   font-size="12px"  text-anchor="middle"><tspan x="0" y="0">Serum paraoxonase/lactonase 3 (b)</tspan></text></g><g class="Enzyme_Nomenclature_3_1_1_2 Protein " transform="translate(8,83)" color="#000"  name="Serum paraoxonase/lactonase 3 (c)"><rect class="Icon" transform="matrix(.99571 0 0 .96154 .49785 .48077)" width="232" height="25" fill="#fff" stroke="#000"/><text class="Text" transform="translate(116,16.5)"   font-size="12px"  text-anchor="middle"><tspan x="0" y="0">Serum paraoxonase/lactonase 3 (c)</tspan></text></g><g class="Enzyme_Nomenclature_3_1_8_1 Protein " transform="translate(8,33)" color="#000"  name="Serum paraoxonase/lactonase 3 (a)"><rect class="Icon" transform="matrix(.99571 0 0 .96154 .49785 .48077)" width="232" height="25" fill="#fff" stroke="#000"/><text class="Text" transform="translate(116,16.5)"   font-size="12px"  text-anchor="middle"><tspan x="0" y="0">Serum paraoxonase/lactonase 3 (a)</tspan></text></g><a  class="Uniprot-TrEMBL_Q15166 Protein PON3 " transform="translate(8,8)"   name="Serum paraoxonase/lactonase 3"  ><rect class="Icon" transform="matrix(.99571 0 0 .96154 .49785 .48077)" width="232" height="25" fill="#fff" stroke="#000"/><text class="Text" transform="translate(116,16.5)"   font-size="12px"  text-anchor="middle"><tspan x="0" y="0">Serum paraoxonase/lactonase 3</tspan></text></a></g><g class="GroupGroup" transform="translate(752,177.5)" color="grey" ><use class="Icon" width="140" height="66" fill="transparent"  stroke="grey" stroke-dasharray="5,3" stroke-width="0" xlink:href="#c"/><g class="Enzyme_Nomenclature_1_1_1_61 Protein " transform="translate(8,8)" color="#000"  name="GHB dehydrogenase"><rect class="Icon" transform="matrix(.992 0 0 .96154 .496 .48077)" width="124" height="25" fill="#fff" stroke="#000"/><text class="Text" transform="translate(62,16.5)"   font-size="12px"  text-anchor="middle"><tspan x="0" y="0">GHB dehydrogenase</tspan></text></g><a  class="Protein" transform="translate(24,33)"   name="ADH"  ><rect class="Icon" transform="matrix(.98901 0 0 .96154 .49451 .48077)" width="90" height="25" fill="#fff" stroke="#000"/><text class="Text" transform="translate(45,16.5)"   font-size="12px"  text-anchor="middle"><tspan x="0" y="0">ADH</tspan></text></a></g><a  class="Uniprot-TrEMBL_P51649 Protein ALDH5A1 " transform="translate(781.08 349.5)"   name="SSADH"  ><rect class="Icon" transform="matrix(.98901 0 0 .96154 .49451 .48077)" width="90" height="25" fill="#fff" stroke="#000"/><text class="Text" transform="translate(45,16.5)"   font-size="12px"  text-anchor="middle"><tspan x="0" y="0">SSADH</tspan></text></a><a class="ChEBI_CHEBI_28300 Metabolite  " transform="translate(80.474 402.41)" color="#00f"  name="glutamine"  ><rect class="Icon" transform="matrix(.98901 0 0 .96154 .49451 .48077)" width="90" height="25" rx="15" ry="15" fill="#fff" stroke="#00f"/><text class="Text" transform="translate(45,16.5)" fill="#00f"  font-size="12px"  text-anchor="middle"><tspan x="0" y="0">glutamine</tspan></text></a><g id="ah" class="Interaction" color="#000" ><g color="#000" fill="transparent"  filter="url(#a)" stroke="#000" stroke-dasharray="22.86081871345034, 5.8"><path class="EdgeBody" d="m170.47 414.91 28.661 5e-14"   marker-end="url(#b)" /></g></g><a class="ChEBI_CHEBI_57706 Metabolite  " transform="translate(740.45 402.41)" color="#00f"  name="succinic semialdehyde"  ><rect class="Icon" transform="matrix(.99296 0 0 .96154 .49648 .48077)" width="141" height="25" rx="15" ry="15" fill="#fff" stroke="#00f"/><text class="Text" transform="translate(70.5,16.5)" fill="#00f"  font-size="12px"  text-anchor="middle"><tspan x="0" y="0">succinic semialdehyde</tspan></text></a><a class="ChEBI_CHEBI_16015 Metabolite  " transform="translate(199.13 402.41)" color="#00f"  name="glutamic acid"  ><rect class="Icon" transform="matrix(.98901 0 0 .96154 .49451 .48077)" width="90" height="25" rx="15" ry="15" fill="#fff" stroke="#00f"/><text class="Text" transform="translate(45,16.5)" fill="#00f"  font-size="12px"  text-anchor="middle"><tspan x="0" y="0">glutamic acid</tspan></text></a><g id="ai" class="Interaction" color="#000" ><g color="#000" fill="transparent"  filter="url(#a)" stroke="#000" stroke-dasharray="30.474888028142356, 5.8"><path class="EdgeBody" d="m289.13 414.91 36.275-5e-14"   marker-end="url(#b)" /></g></g><a  class="Uniprot-TrEMBL_P80404 Protein ABAT " transform="translate(259.18 447.17)"   name="GABAT"  ><rect class="Icon" transform="matrix(.98901 0 0 .96154 .49451 .48077)" width="90" height="25" fill="#fff" stroke="#000"/><text class="Text" transform="translate(45,16.5)"   font-size="12px"  text-anchor="middle"><tspan x="0" y="0">GABAT</tspan></text></a><g id="aj" class="Interaction" color="#000" ><g color="#000" fill="transparent"  filter="url(#a)" stroke="#000" stroke-dasharray="24.87295544450957, 11"><path class="EdgeBody" d="m304.18 472.17 0.57035 35.868"   marker-end="url(#d)" /></g></g><a class="ChEBI_CHEBI_17568 Metabolite  " transform="translate(80.474 495.54)" color="#00f"  name="uracil"  ><rect class="Icon" transform="matrix(.98901 0 0 .96154 .49451 .48077)" width="90" height="25" rx="15" ry="15" fill="#fff" stroke="#00f"/><text class="Text" transform="translate(45,16.5)" fill="#00f"  font-size="12px"  text-anchor="middle"><tspan x="0" y="0">uracil</tspan></text></a><a class="ChEBI_CHEBI_16958 Metabolite ChEBI_CHEBI_57966   " transform="translate(199.13 495.54)" color="#00f"  name="beta-alanine"  ><rect class="Icon" transform="matrix(.98901 0 0 .96154 .49451 .48077)" width="90" height="25" rx="15" ry="15" fill="#fff" stroke="#00f"/><text class="Text" transform="translate(45,16.5)" fill="#00f"  font-size="12px"  text-anchor="middle"><tspan x="0" y="0">beta-alanine</tspan></text></a><g id="ak" class="Interaction" color="#000" ><g color="#000" fill="transparent"  filter="url(#a)" stroke="#000" stroke-dasharray="63.21026814510169, 5.8"><path class="EdgeBody" d="m289.13 508.04h69.01"   marker-end="url(#b)" /></g><g class="Burr Anchor" transform="translate(304.75 508.04)" ><use class="Icon" width="0" height="0" fill="#141414" stroke-width="0" xlink:href="#c"/></g></g><a class="ChEBI_CHEBI_17960 Metabolite  " transform="translate(358.14 495.54)" color="#00f"  name="malonic semialdehyde"  ><rect class="Icon" transform="matrix(.99355 0 0 .96154 .49677 .48077)" width="154.03" height="25" rx="15" ry="15" fill="#fff" stroke="#00f"/><text class="Text" transform="translate(77.015 16.5)" fill="#00f"  font-size="12px"  text-anchor="middle"><tspan x="0" y="0">malonic semialdehyde</tspan></text></a><g id="al" class="Rhea_23353" color="#000" ><g color="#000" fill="transparent"  filter="url(#a)" stroke="#000" stroke-dasharray="189.7429900002624, 5.8"><path class="EdgeBody" d="m544.91 414.91h195.54"   marker-end="url(#b)" /></g><g class="Burr Anchor" transform="translate(581.97 414.91)" ><use class="Icon" width="0" height="0" fill="#141414" stroke-width="0" xlink:href="#c"/></g></g><g id="am" class="Interaction" color="#000" ><g color="#000" fill="transparent"  filter="url(#a)" stroke="#000" stroke-dasharray="25.628571428569625, 5.8"><path class="EdgeBody" d="m881.45 414.91h31.429"   marker-end="url(#b)" /></g></g><g id="an" class="Interaction" color="#000" ><g color="#000" fill="transparent"  filter="url(#a)" stroke="#000" stroke-dasharray="35.86666666666697, 5.8"><path class="EdgeBody" d="m1028.4 274.52h41.667"   marker-end="url(#b)" /></g></g><g class="Metabolite" transform="translate(1070 262.02)" color="#00f"  name="4,5-dihydroxyhexanoic acid"><rect class="Icon" transform="matrix(.99457 0 0 .96154 .49729 .48077)" width="183.29" height="25" rx="15" ry="15" fill="#fff" stroke="#00f"/><text class="Text" transform="translate(91.643 16.5)" fill="#00f"  font-size="12px"  text-anchor="middle"><tspan x="0" y="0">4,5-dihydroxyhexanoic acid</tspan></text></g><g class="Label" transform="translate(372.67 451.79)" color="#00f"  name="GABAT"><use class="Icon" transform="matrix(.98901 0 0 .96154 .49451 .48077)" width="90" height="25" fill="#ffcccc" stroke="#00f" xlink:href="#f"/><text class="Text" transform="translate(45,16.5)" fill="#00f"  font-size="12px"  text-anchor="middle"><tspan x="0" y="0">GABAT</tspan></text></g><g id="ao" class="Edge GraphicalLine DirectedInteraction" color="#000" ><g color="#000" fill="transparent"  filter="url(#a)" stroke="#000" stroke-dasharray="5.11, 3.07, 5.11, 3.07, 5.11, 3.07, 5.11, 3.07, 5.11, 3.07, 5.11, 3.07, 5.11, 3.07, 5.11, 3.07, 5.11, 3.07, 5.11, 3.07, 5.11, 3.07, 5.11, 3.07, 5.11, 3.07, 5.11, 5.8"><path class="EdgeBody" d="m304.75 508.04 112.92-31.255"   marker-end="url(#e)" /></g></g><a class="ChEBI_CHEBI_30830 Metabolite  " transform="translate(771 688.69)" color="#00f"  name="4-hydroxybutyric acid"  ><rect class="Icon" transform="matrix(.99373 0 0 .96154 .49687 .48077)" width="158.52" height="25" rx="15" ry="15" fill="#fff" stroke="#00f"/><text class="Text" transform="translate(79.262 16.5)" fill="#00f"  font-size="12px"  text-anchor="middle"><tspan x="0" y="0">4-hydroxybutyric acid</tspan></text></a><g id="ap" class="Interaction" color="#000" ><g color="#000" fill="transparent"  filter="url(#a)" stroke="#000" stroke-dasharray="255.51557758949116, 5.8"><path class="EdgeBody" d="m846.2 427.41 4.0595 261.28"   marker-end="url(#b)" /></g><g class="Burr Anchor" transform="translate(848.85 597.97)" ><use class="Icon" width="0" height="0" fill="#141414" stroke-width="0" xlink:href="#c"/></g></g><a class="PubChem-compound_19793911 Metabolite " transform="translate(548.73 637.74)" color="#00f"  name="3-oxo-4-hydroxybutanoic"  ><rect class="Icon" transform="matrix(.99471 0 0 .96154 .49736 .48077)" width="188.1" height="25" rx="15" ry="15" fill="#fff" stroke="#00f"/><text class="Text" transform="translate(94.048 16.5)" fill="#00f"  font-size="12px"  text-anchor="middle"><tspan x="0" y="0">3-oxo-4-hydroxybutanoic</tspan></text></a><g class="ChEBI_CHEBI_173437 Metabolite" transform="translate(548.73 688.69)" color="#00f"  name="2-oxo-4-hydroxybutanoic"><rect class="Icon" transform="matrix(.99471 0 0 .96154 .49736 .48077)" width="188.1" height="25" rx="15" ry="15" fill="#fff" stroke="#00f"/><text class="Text" transform="translate(94.048 16.5)" fill="#00f"  font-size="12px"  text-anchor="middle"><tspan x="0" y="0">2-oxo-4-hydroxybutanoic</tspan></text></g><a class="ChEBI_CHEBI_33404 Metabolite  " transform="translate(548.73 750.12)" color="#00f"  name="3-hydroxypropionic"  ><rect class="Icon" transform="matrix(.99471 0 0 .96154 .49736 .48077)" width="188.1" height="25" rx="15" ry="15" fill="#fff" stroke="#00f"/><text class="Text" transform="translate(94.048 16.5)" fill="#00f"  font-size="12px"  text-anchor="middle"><tspan x="0" y="0">3-hydroxypropionic</tspan></text></a><g id="aq" class="Interaction" color="#000" ><g color="#000" fill="transparent"  filter="url(#a)" stroke="#000" stroke-dasharray="28.377170868346592, 5.8"><path class="EdgeBody" d="m771 701.19-34.177 1e-13"   marker-end="url(#b)" /></g></g><g id="ar" class="Interaction" color="#000" ><g color="#000" fill="transparent"  filter="url(#a)" stroke="#000" stroke-dasharray="50.47061285765424, 5.8"><path class="EdgeBody" d="m771 694.94-34.177-44.702"   marker-end="url(#b)" /></g></g><g id="as" class="Interaction" color="#000" ><g color="#000" fill="transparent"  filter="url(#a)" stroke="#000" stroke-dasharray="30.628571428571103, 5.8"><path class="EdgeBody" d="m642.78 713.69v36.429"   marker-end="url(#b)" /></g></g><a class="ChEBI_CHEBI_16810 Metabolite  " transform="translate(878.62 625.36)" color="#00f"  name="2-ketoglutarate"  ><rect class="Icon" transform="matrix(.99373 0 0 .96154 .49687 .48077)" width="158.52" height="25" rx="15" ry="15" fill="#fff" stroke="#00f"/><text class="Text" transform="translate(79.262 16.5)" fill="#00f"  font-size="12px"  text-anchor="middle"><tspan x="0" y="0">2-ketoglutarate</tspan></text></a><a class="ChEBI_CHEBI_15801 Metabolite  " transform="translate(878.62 561.07)" color="#00f"  name="D-2-hydroxyglutarate"  ><rect class="Icon" transform="matrix(.99373 0 0 .96154 .49687 .48077)" width="158.52" height="25" rx="15" ry="15" fill="#fff" stroke="#00f"/><text class="Text" transform="translate(79.262 16.5)" fill="#00f"  font-size="12px"  text-anchor="middle"><tspan x="0" y="0">D-2-hydroxyglutarate</tspan></text></a><g id="at" class="Interaction" color="#000" ><g color="#000" fill="transparent"  filter="url(#a)" stroke="#000" stroke-dasharray="39.11636764771433, 5.8"><path class="EdgeBody" d="m848.85 597.97 29.767 33.637"   marker-end="url(#b)" /></g></g><g id="au" class="Interaction" color="#000" ><g color="#000" fill="transparent"  filter="url(#a)" stroke="#000" stroke-dasharray="32.688510039433815, 5.8"><path class="EdgeBody" d="m878.62 573.57-29.767 24.399"   marker-end="url(#b)" /></g></g><g id="av" class="Edge GraphicalLine" color="#000" ><g color="#000" fill="transparent"  filter="url(#a)" stroke="#000" stroke-dasharray="68.2, 5.8"><path class="EdgeBody" d="m1086.2 614h74"   marker-end="url(#b)" /></g></g><g id="aw" class="Edge GraphicalLine DirectedInteraction" color="#000" ><g color="#000" fill="transparent"  filter="url(#a)" stroke="#000" stroke-dasharray="5.59, 3.35, 5.59, 3.35, 5.59, 3.35, 5.59, 3.35, 5.59, 3.35, 5.59, 3.35, 5.59, 3.35, 5.59, 3.35, 0, 5.8"><path class="EdgeBody" d="m1087.6 727h74"   marker-end="url(#e)" /></g></g><g id="ax" class="Edge GraphicalLine" color="#000" ><g color="#000" fill="transparent"  filter="url(#a)" stroke="#000" stroke-dasharray="63, 11"><path class="EdgeBody" d="m1087.8 687h74"   marker-end="url(#d)" /></g></g><g id="ay" class="Edge GraphicalLine" color="#000" ><g color="#000" fill="transparent"  filter="url(#a)" stroke="#000" stroke-dasharray="64, 11"><path class="EdgeBody" d="m1085.7 651h75"   marker-end="url(#g)" /></g></g><g class="SingleFreeNode Shape PhysicalEntity CellularComponent Extracellular_region" transform="translate(1066.3 450)" color="#c0c0c0" ><rect class="Icon" transform="matrix(.99557 0 0 .99662 .49778 .49831)" width="224.5" height="295" rx="15" ry="15" fill="transparent"  stroke="#c0c0c0" stroke-dasharray="5,3"/></g><g class="Label" transform="translate(1080 477.5)" color="#00f"  name="Disease"><rect class="Icon" transform="matrix(.98901 0 0 .96154 .49451 .48077)" width="90" height="25" rx="15" ry="15" fill="#fcc" stroke="#00f"/><text class="Text" transform="translate(45,16.5)" fill="#00f"  font-size="12px"  text-anchor="middle"><tspan x="0" y="0">Disease</tspan></text></g><g class="Label" transform="translate(1201.8 674.5)" color="#000"  name="Catalysis"><use class="Icon" width="90" height="25" fill="transparent"  stroke="#000" stroke-width="0" xlink:href="#c"/><text class="Text" transform="translate(45,16.5)"   font-size="12px"  text-anchor="middle"><tspan x="0" y="0">Catalysis</tspan></text></g><g class="Label" transform="translate(1080 571.5)" color="#009933"  name="Pathway"><use class="Icon" width="90" height="25" fill="transparent"  stroke="#009933" stroke-width="0" xlink:href="#c"/><text class="Text" transform="translate(45,16.5)" fill="#009933"  font-size="12px" font-weight="bold" stroke="black" stroke-width="0" text-anchor="middle"><tspan x="0" y="0">Pathway</tspan></text></g><g class="Label" transform="translate(1201.8 638.49)" color="#000"  name="Stimulation"><use class="Icon" width="90" height="25" fill="transparent"  stroke="#000" stroke-width="0" xlink:href="#c"/><text class="Text" transform="translate(45,16.5)"   font-size="12px"  text-anchor="middle"><tspan x="0" y="0">Stimulation</tspan></text></g><g class="Label" transform="translate(1080 537.5)" color="#000"  name="Protein"><rect class="Icon" transform="matrix(.98901 0 0 .96154 .49451 .48077)" width="90" height="25" fill="#fff" stroke="#000"/><text class="Text" transform="translate(45,16.5)"   font-size="12px"  text-anchor="middle"><tspan x="0" y="0">Protein</tspan></text></g><g class="Label" transform="translate(1080 506.5)" color="#00f"  name="Metabolite"><rect class="Icon" transform="matrix(.98901 0 0 .96154 .49451 .48077)" width="90" height="25" rx="15" ry="15" fill="#fff" stroke="#00f"/><text class="Text" transform="translate(45,16.5)" fill="#00f"  font-size="12px"  text-anchor="middle"><tspan x="0" y="0">Metabolite</tspan></text></g><g class="Label" transform="translate(1201.8 601.49)" color="#000"  name="Conversion"><use class="Icon" width="90" height="25" fill="transparent"  stroke="#000" stroke-width="0" xlink:href="#c"/><text class="Text" transform="translate(45,16.5)"   font-size="12px"  text-anchor="middle"><tspan x="0" y="0">Conversion</tspan></text></g><g class="Label" transform="translate(1201.8 714.49)" color="#000"  name="Connection  to disease"><use class="Icon" width="90" height="25" fill="transparent"  stroke="#000" stroke-width="0" xlink:href="#c"/><text class="Text" transform="translate(45,16.5)"   font-size="12px"  text-anchor="middle"><tspan x="0" y="-6.6000000000000005">Connection </tspan> <tspan x="0" y="6.6000000000000005">to disease</tspan></text></g><g class="Label" transform="translate(1132.8 451.5)" color="#000"  name="Legend"><use class="Icon" width="90" height="25" fill="transparent"  stroke="#000" stroke-width="0" xlink:href="#c"/><text class="Text" transform="translate(45,16.5)"   font-size="12px"  text-anchor="middle"><tspan x="0" y="0">Legend</tspan></text></g><g class="Label" transform="translate(655.67 352.25)" color="#00f"  name="GABAT"><use class="Icon" transform="matrix(.98901 0 0 .96154 .49451 .48077)" width="90" height="25" fill="#ffcccc" stroke="#00f" xlink:href="#f"/><text class="Text" transform="translate(45,16.5)" fill="#00f"  font-size="12px"  text-anchor="middle"><tspan x="0" y="0">GABAT</tspan></text></g><g id="az" class="Edge GraphicalLine DirectedInteraction" color="#000" ><g color="#000" fill="transparent"  filter="url(#a)" stroke="#000" stroke-dasharray="5.07, 3.04, 5.07, 3.04, 5.07, 3.04, 5.07, 3.04, 5.07, 3.04, 5.07, 3.04, 5.07, 3.04, 5.07, 3.04, 5.07, 3.04, 5.07, 3.04, 5.07, 3.04, 5.07, 3.04, 5.07, 3.04, 5.07, 3.04, 5.07, 3.04, 0, 5.8"><path class="EdgeBody" d="m581.97 414.91 118.7-37.656"   marker-end="url(#e)" /></g></g><text class="Text" transform="translate(5,27)" dominant-baseline="central" fill="black"  font-size="12px" font-weight="bold" overflow="visible" ><tspan x="0" y="-9">Name: GABA metabolism (aka GHB)</tspan> <tspan x="0" y="9">Organism: Homo sapiens</tspan></text></g></svg>
