<?xml version="1.0" encoding="UTF-8"?>
<!--
  WikiPathways page: https://www.wikipathways.org/index.php/Pathway:WP412
  URL for this compressed file: https://github.com/eweitz/cachome/tree/main/data/wikipathways/WP412.svg
  Source code for compression: https://github.com/eweitz/cachome/tree/main/src/wikipathways.py
-->
<svg class="Diagram" width="800" height="600" color="black" baseProfile="full" prefix="schema:http://schema.org/" preserveAspectRatio="xMidYMid" version="1.1" viewBox="0 0 778.84 681.67" vocab="http://vocabularies.wikipathways.org/wp#" xmlns="http://www.w3.org/2000/svg" xmlns:xlink="http://www.w3.org/1999/xlink"><style>svg {font-family: 'Liberation Sans', Arial, sans-serif; }</style><defs><filter id="c" x="0" y="0" width="778.84" height="681.67" filterUnits="userSpaceOnUse"><feColorMatrix in="SourceGraphic" values="-1   0   0 0 0                   0  -1   0 0 0                   0   0  -1 0 0                   0   0   0 1 0"/></filter><filter id="e" x="0" y="0" width="778.84" height="681.67" filterUnits="userSpaceOnUse"><feColorMatrix in="SourceGraphic" values="-1   0   0 0 0                   0  -1   0 0 0.5019607843137255                   0   0  -1 0 0                   0   0   0 1 0"/></filter><filter id="f" x="0" y="0" width="778.84" height="681.67" filterUnits="userSpaceOnUse"><feColorMatrix in="SourceGraphic" values="-1   0   0 0 0                   0  -1   0 0 0                   0   0  -1 0 1                   0   0   0 1 0"/></filter><filter id="d" x="0" y="0" width="778.84" height="681.67" filterUnits="userSpaceOnUse"><feColorMatrix in="SourceGraphic" values="-1   0   0 0 1                   0  -1   0 0 0                   0   0  -1 0 0                   0   0   0 1 0"/></filter><marker id="b" stroke-dasharray="99999" markerHeight="12" markerUnits="userSpaceOnUse" markerWidth="12" orient="auto" preserveAspectRatio="none" refX="12" refY="6" viewBox="0 0 12 12"><path transform="rotate(180 6 6)" d="M12 11L0 6l12-5z" fill="currentColor" stroke-width="0"/></marker><symbol id="a" preserveAspectRatio="none" viewBox="0 0 100 100"/></defs><g class="Viewport" color="black"  name="Name: Oxidative stress response Organism: Mus musculus"><rect class="Icon" width="778.84" height="681.67" fill="#fff" stroke="#000" stroke-width="0"/><g id="g" class="DirectedInteraction" color="#008000" ><g color="#008000" fill="transparent"  filter="url(#e)" stroke="#000" stroke-dasharray="82.73134592475351, 5.8"><path class="EdgeBody" d="m460.83 123.33 74.046 48.528"   marker-end="url(#b)" /></g></g><g id="h" class="DirectedInteraction" color="#000" ><g color="#000" fill="transparent"  filter="url(#c)" stroke="#000" stroke-dasharray="159.0939895138018, 5.8"><path class="EdgeBody" d="m312.5 123.33-128.5 103.33"   marker-end="url(#b)" /></g></g><g id="i" class="DirectedInteraction" color="#00f" ><g color="#00f" fill="transparent"  filter="url(#f)" stroke="#000" stroke-dasharray="37.199999999999974, 5.8"><path class="EdgeBody" d="m386.67 70.833v43"   marker-end="url(#b)" /></g></g><g id="j" class="DirectedInteraction" color="#000" ><g color="#000" fill="transparent"  filter="url(#c)" stroke="#000" stroke-dasharray="142.03333333333336, 5.8"><path class="EdgeBody" d="m143.33 236.17v20h-94.833v33"   marker-end="url(#b)" /></g></g><g id="k" class="DirectedInteraction" color="#f00" ><g color="#f00" fill="transparent"  filter="url(#d)" stroke="#000" stroke-dasharray="76.9591049035962, 5.8"><path class="EdgeBody" d="m94 336.92 64.583 51.75"   marker-end="url(#b)" /></g></g><g id="l" class="DirectedInteraction" color="#000" ><g color="#000" fill="transparent"  filter="url(#c)" stroke="#000" stroke-dasharray="129.5130671506385, 5.8"><path class="EdgeBody" d="m534.88 201.53v20h-83.536v31.777"   marker-end="url(#b)" /></g></g><g id="m" class="DirectedInteraction" color="#000" ><g color="#000" fill="transparent"  filter="url(#c)" stroke="#000" stroke-dasharray="20.533333333333314, 5.8"><path class="EdgeBody" d="m451.34 306.31 3.15e-12 26.333"   marker-end="url(#b)" /></g></g><g id="n" class="DirectedInteraction" color="#000" ><g color="#000" fill="transparent"  filter="url(#c)" stroke="#000" stroke-dasharray="157.53775504218933, 5.8"><path class="EdgeBody" d="m300.33 61.333-157.67 42.667"   marker-end="url(#b)" /></g></g><g id="o" class="DirectedInteraction" color="#000" ><g color="#000" fill="transparent"  filter="url(#c)" stroke="#000" stroke-dasharray="33.372340014635604, 5.8"><path class="EdgeBody" d="m142.67 178 0.66667 39.167"   marker-end="url(#b)" /></g></g><g id="p" class="DirectedInteraction" color="#000" ><g color="#000" fill="transparent"  filter="url(#c)" stroke="#000" stroke-dasharray="131.03333333333333, 5.8"><path class="EdgeBody" d="m534.88 201.53v20h83.833v33"   marker-end="url(#b)" /></g></g><g id="q" class="DirectedInteraction" color="#000" ><g color="#000" fill="transparent"  filter="url(#c)" stroke="#000" stroke-dasharray="153.7105305791815, 5.8"><path class="EdgeBody" d="m143.33 236.17v20h102.11v37.403"   marker-end="url(#b)" /></g></g><g id="r" class="DirectedInteraction" color="#f00" ><g color="#f00" fill="transparent"  filter="url(#d)" stroke="#000" stroke-dasharray="5.82, 3.49, 5.82, 3.49, 5.82, 3.49, 5.82, 3.49, 5.82, 3.49, 0, 5.8"><path class="EdgeBody" d="m198.11 359.88-39.524 28.79"   marker-end="url(#b)" /></g></g><g id="s" class="DirectedInteraction" color="#f00" ><g color="#f00" fill="transparent"  filter="url(#d)" stroke="#000" stroke-dasharray="5.29, 3.17, 5.29, 3.17, 5.29, 3.17, 5.29, 3.17, 5.29, 3.17, 5.29, 3.17, 5.29, 3.17, 5.29, 3.17, 5.29, 3.17, 5.29, 3.17, 5.29, 3.17, 5.29, 5.8"><path class="EdgeBody" d="m198.11 337.77-104.11-0.85753"   marker-end="url(#b)" /></g></g><g class="Label" transform="translate(478.05 171.86)" color="#008000"  name="Repression of ROS- producing systems"><rect class="Icon" transform="matrix(.99128 0 0 .96739 .49564 .4837)" width="113.67" height="29.667" fill="#fff" stroke="#008000"/><text class="Text" transform="translate(56.833 17.833)" fill="#008000"  font-size="10px" font-weight="bold"  text-anchor="middle"><tspan x="0" y="-5.5">Repression of ROS-</tspan> <tspan x="0" y="5.5">producing systems</tspan></text></g><g class="Label" transform="translate(300.33 51.833)" color="#00f"  name="Reactive Oxygen Species"><rect class="Icon" transform="matrix(.99424 0 0 .95 .49712 .475)" width="172.67" height="19" fill="#fff" stroke="#00f"/><text class="Text" transform="translate(86.333 13.5)" fill="#00f"  font-size="12px" font-weight="bold"  text-anchor="middle"><tspan x="0" y="0">Reactive Oxygen Species</tspan></text></g><g class="Label" transform="translate(414.51 353.14)" color="#008000"  name="repression"><use class="Icon" width="80.33333333333333" height="19" fill="transparent"  stroke="#008000" stroke-width="0" xlink:href="#a"/><text class="Text" transform="translate(40.167 13.5)" fill="#008000"  font-size="12px" font-style="italic"  text-anchor="middle"><tspan x="0" y="0">repression</tspan></text></g><g class="Label" transform="translate(102.67 217.17)" color="#f00"  name="Activation"><use class="Icon" width="81.33333333333333" height="19" fill="transparent"  stroke="#f00" stroke-width="0" xlink:href="#a"/><text class="Text" transform="translate(40.667 13.5)" fill="#f00"  font-size="12px" font-weight="bold" stroke="black" stroke-width="0" text-anchor="middle"><tspan x="0" y="0">Activation</tspan></text></g><g class="Label" transform="translate(108.17 388.67)" color="#f00"  name="Induction of antioxidant genes"><use class="Icon" width="100.83333333333333" height="29.333333333333332" fill="transparent"  stroke="#f00" stroke-width="0" xlink:href="#a"/><text class="Text" transform="translate(50.417 17.667)" fill="#f00"  font-size="10px" font-weight="bold" stroke="black" stroke-width="0" text-anchor="middle"><tspan x="0" y="-5.5">Induction of</tspan> <tspan x="0" y="5.5">antioxidant genes</tspan></text></g><g class="Label" transform="translate(312.5 113.83)" color="#000080"  name="Adaptive response"><rect class="Icon" transform="matrix(.9933 0 0 .95 .49665 .475)" width="148.33" height="19" rx="15" ry="15" fill="#fff" stroke="#000080"/><text class="Text" transform="translate(74.167 13.5)" fill="#000080"  font-size="12px" font-weight="bold"  text-anchor="middle"><tspan x="0" y="0">Adaptive response</tspan></text></g><g class="GroupGroup" transform="translate(3 289.17)" color="grey" ><use class="Icon" width="91" height="95.5" fill="transparent"  stroke="grey" stroke-dasharray="5,3" stroke-width="0" xlink:href="#a"/><g class="Label" transform="translate(8,8)" color="#f00"  name="TF activation"><use class="Icon" width="75" height="19" fill="transparent"  stroke="#f00" stroke-width="0" xlink:href="#a"/><text class="Text" transform="translate(37.5,13.5)" fill="#f00"  font-size="12px" font-weight="bold" stroke="black" stroke-width="0" text-anchor="middle"><tspan x="0" y="0">TF activation</tspan></text></g><a  class="GeneProduct P594_ENSMUSG00000001280 " transform="translate(16.75,67.5)"   name="Sp1"  ><rect class="Icon" transform="matrix(.98361 0 0 .95238 .4918 .47619)" width="60" height="20" fill="#fff" stroke="#000"/><text class="Text" transform="translate(30,13)"   font-size="10px"  text-anchor="middle"><tspan x="0" y="0">Sp1</tspan></text></a><a  class="GeneProduct P594_ENSMUSG00000027361 " transform="translate(16.75,27.5)"   name="NRF2B1"  ><rect class="Icon" transform="matrix(.98361 0 0 .95238 .4918 .47619)" width="60" height="20" fill="#fff" stroke="#000"/><text class="Text" transform="translate(30,13)"   font-size="10px"  text-anchor="middle"><tspan x="0" y="0">NRF2B1</tspan></text></a><a  class="GeneProduct P594_ENSMUSG00000028163 " transform="translate(16.75,47.5)"   name="Nfkb1"  ><rect class="Icon" transform="matrix(.98361 0 0 .95238 .4918 .47619)" width="60" height="20" fill="#fff" stroke="#000"/><text class="Text" transform="translate(30,13)"   font-size="10px"  text-anchor="middle"><tspan x="0" y="0">Nfkb1</tspan></text></a></g><g class="GroupGroup" transform="translate(406.68 253.31)" color="grey" ><use class="Icon" width="89.33333333333331" height="53" fill="transparent"  stroke="grey" stroke-dasharray="5,3" stroke-width="0" xlink:href="#a"/><g class="Label" transform="translate(8,8)" color="#008000"  name="TF inhibition"><use class="Icon" width="73.33333333333333" height="16" fill="transparent"  stroke="#008000" stroke-width="0" xlink:href="#a"/><text class="Text" transform="translate(36.667 11)" fill="#008000"  font-size="10px" font-weight="bold"  text-anchor="middle"><tspan x="0" y="0">TF inhibition</tspan></text></g><a  class="GeneProduct P594_ENSMUSG00000001911 " transform="translate(14.667 25)"   name="Nfix"  ><rect class="Icon" transform="matrix(.98361 0 0 .95238 .4918 .47619)" width="60" height="20" fill="#fff" stroke="#000"/><text class="Text" transform="translate(30,13)"   font-size="10px"  text-anchor="middle"><tspan x="0" y="0">Nfix</tspan></text></a></g><g class="GroupGroup" transform="translate(41.5 104)" color="grey" ><use class="Icon" width="202.33333333333331" height="74" fill="transparent"  stroke="grey" stroke-dasharray="5,3" stroke-width="0" xlink:href="#a"/><g class="Label" transform="translate(8,8)" color="#f00"  name="Stress-regulated MAP kinase"><use class="Icon" width="186.33333333333334" height="16" fill="transparent"  stroke="#f00" stroke-width="0" xlink:href="#a"/><text class="Text" transform="translate(93.167 11)" fill="#f00"  font-size="10px" font-weight="bold" stroke="black" stroke-width="0" text-anchor="middle"><tspan x="0" y="0">Stress-regulated MAP kinase</tspan></text></g><a  class="GeneProduct P594_ENSMUSG00000053436 " transform="translate(64.5 46)"   name="Mapk14"  ><rect class="Icon" transform="matrix(.98361 0 0 .95238 .4918 .47619)" width="60" height="20" fill="#fff" stroke="#000"/><text class="Text" transform="translate(30,13)"   font-size="10px"  text-anchor="middle"><tspan x="0" y="0">Mapk14</tspan></text></a><a  class="GeneProduct P594_ENSMUSG00000046709 " transform="translate(64.5 26)"   name="Mapk10"  ><rect class="Icon" transform="matrix(.98361 0 0 .95238 .4918 .47619)" width="60" height="20" fill="#fff" stroke="#000"/><text class="Text" transform="translate(30,13)"   font-size="10px"  text-anchor="middle"><tspan x="0" y="0">Mapk10</tspan></text></a></g><g class="GroupGroup" transform="translate(555.71 254.53)" color="grey" ><use class="Icon" width="126" height="93.33333333333331" fill="transparent"  stroke="grey" stroke-dasharray="5,3" stroke-width="0" xlink:href="#a"/><g class="Label" transform="translate(8,8)" color="#008000"  name="Inhibition of oxidases"><use class="Icon" width="110" height="15.333333333333334" fill="transparent"  stroke="#008000" stroke-width="0" xlink:href="#a"/><text class="Text" transform="translate(55 10.667)" fill="#008000"  font-size="10px" font-weight="bold"  text-anchor="middle"><tspan x="0" y="0">Inhibition of oxidases</tspan></text></g><a  class="GeneProduct P594_ENSMUSG00000006519 " transform="translate(32.667 25.333)"   name="Cyba"  ><rect class="Icon" transform="matrix(.98361 0 0 .95238 .4918 .47619)" width="60" height="20" fill="#fff" stroke="#000"/><text class="Text" transform="translate(30,13)"   font-size="10px"  text-anchor="middle"><tspan x="0" y="0">Cyba</tspan></text></a><a  class="GeneProduct P594_ENSMUSG00000025037 " transform="translate(32.667 65.333)"   name="Maoa"  ><rect class="Icon" transform="matrix(.98361 0 0 .95238 .4918 .47619)" width="60" height="20" fill="#fff" stroke="#000"/><text class="Text" transform="translate(30,13)"   font-size="10px"  text-anchor="middle"><tspan x="0" y="0">Maoa</tspan></text></a><g class="GeneProduct" transform="translate(32.667 45.333)" color="#000"  name="Xdh"><rect class="Icon" transform="matrix(.98361 0 0 .95238 .4918 .47619)" width="60" height="20" fill="#fff" stroke="#000"/><text class="Text" transform="translate(30,13)"   font-size="10px"  text-anchor="middle"><tspan x="0" y="0">Xdh</tspan></text></g></g><g class="GroupGroup" transform="translate(198.11 293.57)" color="grey" ><use class="Icon" width="94.66666666666669" height="88.40866747671112" fill="transparent"  stroke="grey" stroke-dasharray="5,3" stroke-width="0" xlink:href="#a"/><g class="Label" transform="translate(8,8)" color="#f00"  name="Immediate-early gene induction"><use class="Icon" width="78.66666666666667" height="28" fill="transparent"  stroke="#f00" stroke-width="0" xlink:href="#a"/><text class="Text" transform="translate(39.333 17)" fill="#f00"  font-size="10px" font-weight="bold" stroke="black" stroke-width="0" text-anchor="middle"><tspan x="0" y="-5.5">Immediate-early</tspan> <tspan x="0" y="5.5">gene induction</tspan></text></g><a  class="GeneProduct P594_ENSMUSG00000021250 " transform="translate(14.667 60.409)"   name="Fos"  ><rect class="Icon" transform="matrix(.98361 0 0 .95238 .4918 .47619)" width="60" height="20" fill="#fff" stroke="#000"/><text class="Text" transform="translate(30,13)"   font-size="10px"  text-anchor="middle"><tspan x="0" y="0">Fos</tspan></text></a><a  class="GeneProduct P594_ENSMUSG00000052837 " transform="translate(14.667 40.409)"   name="Junb"  ><rect class="Icon" transform="matrix(.98361 0 0 .95238 .4918 .47619)" width="60" height="20" fill="#fff" stroke="#000"/><text class="Text" transform="translate(30,13)"   font-size="10px"  text-anchor="middle"><tspan x="0" y="0">Junb</tspan></text></a></g><a  class="GeneProduct P594_ENSMUSG00000032315 " transform="translate(421.34 332.64)"   name="Cyp1a1"  ><rect class="Icon" transform="matrix(.98361 0 0 .95238 .4918 .47619)" width="60" height="20" fill="#fff" stroke="#000"/><text class="Text" transform="translate(30,13)"   font-size="10px"  text-anchor="middle"><tspan x="0" y="0">Cyp1a1</tspan></text></a><g class="GroupGroup" transform="translate(128.67 415.33)" color="grey" ><use class="Icon" width="76" height="116.00000000000006" fill="transparent"  stroke="grey" stroke-dasharray="5,3" stroke-width="0" xlink:href="#a"/><a  class="GeneProduct P594_ENSMUSG00000089960 " transform="translate(8 88)"   name="Ugt1a1"  ><rect class="Icon" transform="matrix(.98361 0 0 .95238 .4918 .47619)" width="60" height="20" fill="#fff" stroke="#000"/><text class="Text" transform="translate(30,13)"   font-size="10px"  text-anchor="middle"><tspan x="0" y="0">Ugt1a1</tspan></text></a><a  class="GeneProduct P594_ENSMUSG00000018339 " transform="translate(8,48)"   name="Gpx3"  ><rect class="Icon" transform="matrix(.98361 0 0 .95238 .4918 .47619)" width="60" height="20" fill="#fff" stroke="#000"/><text class="Text" transform="translate(30,13)"   font-size="10px"  text-anchor="middle"><tspan x="0" y="0">Gpx3</tspan></text></a><a  class="GeneProduct P594_ENSMUSG00000003849 " transform="translate(8,68)"   name="Nqo1"  ><rect class="Icon" transform="matrix(.98361 0 0 .95238 .4918 .47619)" width="60" height="20" fill="#fff" stroke="#000"/><text class="Text" transform="translate(30,13)"   font-size="10px"  text-anchor="middle"><tspan x="0" y="0">Nqo1</tspan></text></a><a  class="GeneProduct P594_ENSMUSG00000005413 " transform="translate(8,8)"   name="Hmox1"  ><rect class="Icon" transform="matrix(.98361 0 0 .95238 .4918 .47619)" width="60" height="20" fill="#fff" stroke="#000"/><text class="Text" transform="translate(30,13)"   font-size="10px"  text-anchor="middle"><tspan x="0" y="0">Hmox1</tspan></text></a><a  class="GeneProduct P594_ENSMUSG00000063856 " transform="translate(8,28)"   name="Gpx1"  ><rect class="Icon" transform="matrix(.98361 0 0 .95238 .4918 .47619)" width="60" height="20" fill="#fff" stroke="#000"/><text class="Text" transform="translate(30,13)"   font-size="10px"  text-anchor="middle"><tspan x="0" y="0">Gpx1</tspan></text></a></g><g class="GroupGroup" transform="translate(215.33 515.33)" color="grey" ><use class="Icon" width="76.00000000000003" height="136" fill="transparent"  stroke="grey" stroke-dasharray="5,3" stroke-width="0" xlink:href="#a"/><a  class="GeneProduct P594_ENSMUSG00000033318 " transform="translate(8,28)"   name="Gstt2"  ><rect class="Icon" transform="matrix(.98361 0 0 .95238 .4918 .47619)" width="60" height="20" fill="#fff" stroke="#000"/><text class="Text" transform="translate(30,13)"   font-size="10px"  text-anchor="middle"><tspan x="0" y="0">Gstt2</tspan></text></a><a  class="GeneProduct P594_ENSMUSG00000031584 " transform="translate(8,8)"   name="Gsr"  ><rect class="Icon" transform="matrix(.98361 0 0 .95238 .4918 .47619)" width="60" height="20" fill="#fff" stroke="#000"/><text class="Text" transform="translate(30,13)"   font-size="10px"  text-anchor="middle"><tspan x="0" y="0">Gsr</tspan></text></a><a  class="GeneProduct P594_ENSMUSG00000072941 " transform="translate(8,108)"   name="Sod3"  ><rect class="Icon" transform="matrix(.98361 0 0 .95238 .4918 .47619)" width="60" height="20" fill="#fff" stroke="#000"/><text class="Text" transform="translate(30,13)"   font-size="10px"  text-anchor="middle"><tspan x="0" y="0">Sod3</tspan></text></a><a  class="GeneProduct P594_ENSMUSG00000006818 " transform="translate(8,88)"   name="Sod2"  ><rect class="Icon" transform="matrix(.98361 0 0 .95238 .4918 .47619)" width="60" height="20" fill="#fff" stroke="#000"/><text class="Text" transform="translate(30,13)"   font-size="10px"  text-anchor="middle"><tspan x="0" y="0">Sod2</tspan></text></a><a  class="GeneProduct P594_ENSMUSG00000008540 " transform="translate(8,48)"   name="Mgst1"  ><rect class="Icon" transform="matrix(.98361 0 0 .95238 .4918 .47619)" width="60" height="20" fill="#fff" stroke="#000"/><text class="Text" transform="translate(30,13)"   font-size="10px"  text-anchor="middle"><tspan x="0" y="0">Mgst1</tspan></text></a><a  class="GeneProduct P594_ENSMUSG00000022982 " transform="translate(8,68)"   name="Sod1"  ><rect class="Icon" transform="matrix(.98361 0 0 .95238 .4918 .47619)" width="60" height="20" fill="#fff" stroke="#000"/><text class="Text" transform="translate(30,13)"   font-size="10px"  text-anchor="middle"><tspan x="0" y="0">Sod1</tspan></text></a></g><g class="GroupGroup" transform="translate(45.333 515.33)" color="grey" ><use class="Icon" width="76" height="136" fill="transparent"  stroke="grey" stroke-dasharray="5,3" stroke-width="0" xlink:href="#a"/><a  class="GeneProduct P594_ENSMUSG00000075704 " transform="translate(8,68)"   name="Txnrd2"  ><rect class="Icon" transform="matrix(.98361 0 0 .95238 .4918 .47619)" width="60" height="20" fill="#fff" stroke="#000"/><text class="Text" transform="translate(30,13)"   font-size="10px"  text-anchor="middle"><tspan x="0" y="0">Txnrd2</tspan></text></a><a  class="GeneProduct P594_ENSMUSG00000027187 " transform="translate(8,8)"   name="Cat"  ><rect class="Icon" transform="matrix(.98361 0 0 .95238 .4918 .47619)" width="60" height="20" fill="#fff" stroke="#000"/><text class="Text" transform="translate(30,13)"   font-size="10px"  text-anchor="middle"><tspan x="0" y="0">Cat</tspan></text></a><a  class="GeneProduct P594_ENSMUSG00000032350 " transform="translate(8,88)"   name="Gclc"  ><rect class="Icon" transform="matrix(.98361 0 0 .95238 .4918 .47619)" width="60" height="20" fill="#fff" stroke="#000"/><text class="Text" transform="translate(30,13)"   font-size="10px"  text-anchor="middle"><tspan x="0" y="0">Gclc</tspan></text></a><a  class="GeneProduct P594_ENSMUSG00000031765 " transform="translate(8,108)"   name="Mt1"  ><rect class="Icon" transform="matrix(.98361 0 0 .95238 .4918 .47619)" width="60" height="20" fill="#fff" stroke="#000"/><text class="Text" transform="translate(30,13)"   font-size="10px"  text-anchor="middle"><tspan x="0" y="0">Mt1</tspan></text></a><a  class="GeneProduct P594_ENSMUSG00000020250 " transform="translate(8,48)"   name="Txnrd1"  ><rect class="Icon" transform="matrix(.98361 0 0 .95238 .4918 .47619)" width="60" height="20" fill="#fff" stroke="#000"/><text class="Text" transform="translate(30,13)"   font-size="10px"  text-anchor="middle"><tspan x="0" y="0">Txnrd1</tspan></text></a><a  class="GeneProduct P594_ENSMUSG00000005354 " transform="translate(8,28)"   name="Txn2"  ><rect class="Icon" transform="matrix(.98361 0 0 .95238 .4918 .47619)" width="60" height="20" fill="#fff" stroke="#000"/><text class="Text" transform="translate(30,13)"   font-size="10px"  text-anchor="middle"><tspan x="0" y="0">Txn2</tspan></text></a></g><text class="Text" transform="translate(5,27)" dominant-baseline="central" fill="black"  font-size="12px" font-weight="bold" overflow="visible" ><tspan x="0" y="-9">Name: Oxidative stress response</tspan> <tspan x="0" y="9">Organism: Mus musculus</tspan></text></g></svg>
