<?xml version="1.0" encoding="UTF-8"?>
<!--
  WikiPathways page: https://www.wikipathways.org/index.php/Pathway:WP4153
  URL for this compressed file: https://github.com/eweitz/cachome/tree/main/data/wikipathways/WP4153.svg
  Source code for compression: https://github.com/eweitz/cachome/tree/main/src/wikipathways.py
-->
<svg class="Diagram" width="800" height="600" color="black" baseProfile="full" prefix="schema:http://schema.org/" preserveAspectRatio="xMidYMid" version="1.1" viewBox="0 0 1346.3 1006.1" vocab="http://vocabularies.wikipathways.org/wp#" xmlns="http://www.w3.org/2000/svg" xmlns:xlink="http://www.w3.org/1999/xlink"><style>svg {font-family: 'Liberation Sans', Arial, sans-serif; }</style><defs><filter id="a" x="0" y="0" width="1346.3" height="1006.1" filterUnits="userSpaceOnUse"><feColorMatrix in="SourceGraphic" values="-1   0   0 0 0                   0  -1   0 0 0                   0   0  -1 0 0                   0   0   0 1 0"/></filter><marker id="e" stroke-dasharray="99999" markerHeight="12" markerUnits="userSpaceOnUse" markerWidth="12" orient="auto" preserveAspectRatio="none" refX="12" refY="6" viewBox="0 0 12 12"><path transform="rotate(180 6 6)" d="M12 11L0 6l12-5z" fill="currentColor" stroke-width="0"/></marker><marker id="d" stroke-dasharray="99999" markerHeight="12" markerUnits="userSpaceOnUse" markerWidth="12" orient="auto" preserveAspectRatio="none" refX="12" refY="6" viewBox="0 0 12 12"><circle transform="rotate(180 6 6)" cx="6" cy="6" r="5.3" fill="none" stroke="#000"/></marker><marker id="c" stroke-dasharray="99999" markerHeight="12" markerUnits="userSpaceOnUse" markerWidth="12" orient="auto" preserveAspectRatio="none" refX="12" refY="6" viewBox="0 0 12 12"><path transform="rotate(180 6 6)" d="M12 11L0 6l12-5z" fill="currentColor" stroke-width="0"/></marker><symbol id="f" overflow="visible" preserveAspectRatio="none" viewBox="0 0 100 100"><path d="M0 25L25 0h50l25 25v50l-25 25H25L0 75z" stroke="currentColor" vector-effect="non-scaling-stroke"/></symbol><symbol id="b" preserveAspectRatio="none" viewBox="0 0 100 100"/></defs><g class="Viewport" color="black"  name="Name: Degradation pathway of sphingolipids, including diseases Organism: Homo sapiens"><rect class="Icon" width="1346.3" height="1006.1" fill="#fff" stroke="#000" stroke-width="0"/><g id="g" class="Interaction" color="#000" ><g color="#000" fill="transparent"  filter="url(#a)" stroke="#000" stroke-dasharray="331.5169243065921, 5.8"><path class="EdgeBody" d="m1049.1 320.1h-337.32"   marker-end="url(#c)" /></g><g class="Burr Anchor" transform="translate(914.19 320.1)" ><use class="Icon" width="0" height="0" fill="#141414" stroke-width="0" xlink:href="#b"/></g></g><g id="h" class="DirectedInteraction" color="#000" ><g color="#000" fill="transparent"  filter="url(#a)" stroke="#000" stroke-dasharray="5.09, 3.05, 5.09, 3.05, 5.09, 3.05, 5.09, 5.8"><path class="EdgeBody" d="m914.19 320.1-1.2934-35.27"   marker-end="url(#e)" /></g></g><g id="i" class="DirectedInteraction" color="#000" ><g color="#000" fill="transparent"  filter="url(#a)" stroke="#000" stroke-dasharray="6, 3.6, 6, 3.6, 0, 5.8"><path class="EdgeBody" d="m426.02 320.1-0.44158-24.245"   marker-end="url(#e)" /></g></g><g id="j" class="DirectedInteraction" color="#000" ><g color="#000" fill="transparent"  filter="url(#a)" stroke="#000" stroke-dasharray="5.63, 3.38, 5.63, 3.38, 5.63, 3.38, 5.63, 5.8"><path class="EdgeBody" d="m658.54 132.39-38.427 0.64289"   marker-end="url(#e)" /></g></g><g id="k" class="DirectedInteraction" color="#000" ><g color="#000" fill="transparent"  filter="url(#a)" stroke="#000" stroke-dasharray="5.06, 3.04, 5.06, 3.04, 5.06, 3.04, 5.06, 3.04, 5.06, 3.04, 5.06, 3.04, 5.06, 3.04, 0, 5.8"><path class="EdgeBody" d="m658.54 878.88-59.477 0.55825"   marker-end="url(#e)" /></g></g><g id="l" class="Interaction" color="#000" ><g color="#000" fill="transparent"  filter="url(#a)" stroke="#000" stroke-dasharray="5.19, 3.11, 5.19, 3.11, 5.19, 3.11, 5.19, 5.8"><path class="EdgeBody" d="m900.91 818.22-0.14211 35.875"   marker-end="url(#c)" /></g></g><g id="m" class="DirectedInteraction" color="#000" ><g color="#000" fill="transparent"  filter="url(#a)" stroke="#000" stroke-dasharray="5.06, 3.04, 5.06, 3.04, 5.06, 3.04, 5.06, 3.04, 5.06, 3.04, 5.06, 3.04, 5.06, 3.04, 0, 5.8"><path class="EdgeBody" d="m658.54 687.71-59.477 0.22711"   marker-end="url(#e)" /></g></g><g id="n" class="DirectedInteraction" color="#000" ><g color="#000" fill="transparent"  filter="url(#a)" stroke="#000" stroke-dasharray="6, 3.6, 6, 3.6, 6, 3.6, 6, 3.6, 6, 3.6, 0, 5.8"><path class="EdgeBody" d="m1119.1 905.61-49.026 11.776"   marker-end="url(#e)" /></g></g><g id="o" class="Interaction" color="#000" ><g color="#000" fill="transparent"  filter="url(#a)" stroke="#000" stroke-dasharray="38.34083480348894, 11"><path class="EdgeBody" d="m421.38 768.88 0.15751 49.341"   marker-end="url(#d)" /></g></g><g id="p" class="DirectedInteraction" color="#000" ><g color="#000" fill="transparent"  filter="url(#a)" stroke="#000" stroke-dasharray="5.19, 3.12, 5.19, 3.12, 5.19, 3.12, 5.19, 3.12, 5.19, 3.12, 5.19, 3.12, 5.19, 5.8"><path class="EdgeBody" d="m241.19 145.71-60.008-10.025"   marker-end="url(#e)" /></g></g><g id="q" class="Interaction" color="#000" ><g color="#000" fill="transparent"  filter="url(#a)" stroke="#000" stroke-dasharray="73.26413608932654, 11"><path class="EdgeBody" d="m324.29 159.68-83.099-13.965"   marker-end="url(#d)" /></g></g><g id="r" class="Interaction" color="#000" ><g color="#000" fill="transparent"  filter="url(#a)" stroke="#000" stroke-dasharray="182.8851210690521, 5.8"><path class="EdgeBody" d="m1119.5 617.03-0.35676 188.68"   marker-end="url(#c)" /></g><g class="Burr Anchor" transform="translate(1119.4 687.99)" ><use class="Icon" width="0" height="0" fill="#141414" stroke-width="0" xlink:href="#b"/></g></g><g id="s" class="Interaction" color="#000" ><g color="#000" fill="transparent"  filter="url(#a)" stroke="#000" stroke-dasharray="113.31599646981478, 5.8"><path class="EdgeBody" d="m1117 188.5 2.1432 119.1"   marker-end="url(#c)" /></g><g class="Burr Anchor" transform="translate(1118 242.02)" ><use class="Icon" width="0" height="0" fill="#141414" stroke-width="0" xlink:href="#b"/></g></g><g id="t" class="DirectedInteraction" color="#000" ><g color="#000" fill="transparent"  filter="url(#a)" stroke="#000" stroke-dasharray="5.16, 3.1, 5.16, 3.1, 5.16, 3.1, 5.16, 3.1, 5.16, 3.1, 5.16, 5.8"><path class="EdgeBody" d="m1119.4 687.99-52.238 0.40796"   marker-end="url(#e)" /></g></g><g id="u" class="DirectedInteraction" color="#000" ><g color="#000" fill="transparent"  filter="url(#a)" stroke="#000" stroke-dasharray="6, 3.6, 6, 3.6, 6, 3.6, 0, 5.8"><path class="EdgeBody" d="m421.54 818.22-1.9505 31.283"   marker-end="url(#e)" /></g></g><g id="v" class="Interaction" color="#000" ><g color="#000" fill="transparent"  filter="url(#a)" stroke="#000" stroke-dasharray="22.63325519794001, 11"><path class="EdgeBody" d="m1153 688.52-33.629-0.53124"   marker-end="url(#d)" /></g></g><g id="w" class="Interaction" color="#000" ><g color="#000" fill="transparent"  filter="url(#a)" stroke="#000" stroke-dasharray="70.40580937715804, 11"><path class="EdgeBody" d="m305.69 73.652-64.498 49.668"   marker-end="url(#d)" /></g></g><g id="x" class="DirectedInteraction" color="#000" ><g color="#000" fill="transparent"  filter="url(#a)" stroke="#000" stroke-dasharray="5.43, 3.26, 5.43, 3.26, 5.43, 3.26, 5.43, 3.26, 5.43, 5.8"><path class="EdgeBody" d="m1118 242.02-45.963-0.021951"   marker-end="url(#e)" /></g></g><g id="y" class="Interaction" color="#000" ><g color="#000" fill="transparent"  filter="url(#a)" stroke="#000" stroke-dasharray="31.275935129087323, 11"><path class="EdgeBody" d="m1160.2 241.71-42.275 0.31317"   marker-end="url(#d)" /></g></g><g id="z" class="Interaction" color="#000" ><g color="#000" fill="transparent"  filter="url(#a)" stroke="#000" stroke-dasharray="10.652232401666286, 11"><path class="EdgeBody" d="m901.4 796.57-0.48918 21.647"   marker-end="url(#d)" /></g></g><g id="aa" class="DirectedInteraction" color="#000" ><g color="#000" fill="transparent"  filter="url(#a)" stroke="#000" stroke-dasharray="6, 3.6, 6, 3.6, 6, 3.6, 0, 5.8"><path class="EdgeBody" d="m241.19 250.39-33.622 0.32585"   marker-end="url(#e)" /></g></g><g id="ab" class="Interaction" color="#000" ><g color="#000" fill="transparent"  filter="url(#a)" stroke="#000" stroke-dasharray="22.80468030916905, 11"><path class="EdgeBody" d="m691.94 137.63-33.397-5.2328"   marker-end="url(#d)" /></g></g><g id="ac" class="Interaction" color="#000" ><g color="#000" fill="transparent"  filter="url(#a)" stroke="#000" stroke-dasharray="23.57140239874346, 11"><path class="EdgeBody" d="m693.11 878.63-34.57 0.25196"   marker-end="url(#d)" /></g></g><g id="ad" class="Interaction" color="#000" ><g color="#000" fill="transparent"  filter="url(#a)" stroke="#000" stroke-dasharray="23.76601549602797, 11"><path class="EdgeBody" d="m692.38 251.61-33.836-7.9874"   marker-end="url(#d)" /></g></g><g id="ae" class="Interaction" color="#000" ><g color="#000" fill="transparent"  filter="url(#a)" stroke="#000" stroke-dasharray="15.417549753685133, 11"><path class="EdgeBody" d="m425.9 346.51 0.12354-26.417"   marker-end="url(#d)" /></g></g><g id="af" class="Interaction" color="#000" ><g color="#000" fill="transparent"  filter="url(#a)" stroke="#000" stroke-dasharray="12.417149671826454, 11"><path class="EdgeBody" d="m260.33 236.89-19.136 13.497"   marker-end="url(#d)" /></g></g><g id="ag" class="Interaction" color="#000" ><g color="#000" fill="transparent"  filter="url(#a)" stroke="#000" stroke-dasharray="36.39300588641759, 11"><path class="EdgeBody" d="m705.93 688.52-47.386-0.81314"   marker-end="url(#d)" /></g></g><g id="ah" class="Interaction" color="#000" ><g color="#000" fill="transparent"  filter="url(#a)" stroke="#000" stroke-dasharray="18.03281641780134, 11"><path class="EdgeBody" d="m913.91 349.13 0.28073-29.031"   marker-end="url(#d)" /></g></g><g id="ai" class="Interaction" color="#000" ><g color="#000" fill="transparent"  filter="url(#a)" stroke="#000" stroke-dasharray="17.992178369152345, 11"><path class="EdgeBody" d="m686.37 480.07-27.828-8.1316"   marker-end="url(#d)" /></g></g><g id="aj" class="Interaction" color="#000" ><g color="#000" fill="transparent"  filter="url(#a)" stroke="#000" stroke-dasharray="41.34717788771784, 11"><path class="EdgeBody" d="m1171.5 905.36-52.347 0.2551"   marker-end="url(#d)" /></g></g><g id="ak" class="Interaction" color="#000" ><g color="#000" fill="transparent"  filter="url(#a)" stroke="#000" stroke-dasharray="313.2892549932541, 5.8"><path class="EdgeBody" d="m286.19 320.1h319.09"   marker-end="url(#c)" /></g><g class="Burr Anchor" transform="translate(426.02 320.1)" ><use class="Icon" width="0" height="0" fill="#141414" stroke-width="0" xlink:href="#b"/></g></g><g id="al" class="Interaction" color="#000" ><g color="#000" fill="transparent"  filter="url(#a)" stroke="#000" stroke-dasharray="66.01162252004441, 5.8"><path class="EdgeBody" d="m658.54 94.595v71.812"   marker-end="url(#c)" /></g><g class="Burr Anchor" transform="translate(658.54 132.39)" ><use class="Icon" width="0" height="0" fill="#141414" stroke-width="0" xlink:href="#b"/></g></g><g id="am" class="Interaction" color="#000" ><g color="#000" fill="transparent"  filter="url(#a)" stroke="#000" stroke-dasharray="110.38989285169977, 5.8"><path class="EdgeBody" d="m658.54 191.41-4e-13 116.19"   marker-end="url(#c)" /></g><g class="Burr Anchor" transform="translate(658.54 243.62)" ><use class="Icon" width="0" height="0" fill="#141414" stroke-width="0" xlink:href="#b"/></g></g><g id="an" class="Interaction" color="#000" ><g color="#000" fill="transparent"  filter="url(#a)" stroke="#000" stroke-dasharray="114.61425091215013, 5.8"><path class="EdgeBody" d="m658.54 830.72v120.41"   marker-end="url(#c)" /></g><g class="Burr Anchor" transform="translate(658.54 878.88)" ><use class="Icon" width="0" height="0" fill="#141414" stroke-width="0" xlink:href="#b"/></g></g><g id="ao" class="Interaction" color="#000" ><g color="#000" fill="transparent"  filter="url(#a)" stroke="#000" stroke-dasharray="245.6366372535913, 5.8"><path class="EdgeBody" d="m658.54 332.6 4e-13 251.44"   marker-end="url(#c)" /></g><g class="Burr Anchor" transform="translate(658.54 471.94)" ><use class="Icon" width="0" height="0" fill="#141414" stroke-width="0" xlink:href="#b"/></g></g><g id="ap" class="Interaction" color="#000" ><g color="#000" fill="transparent"  filter="url(#a)" stroke="#000" stroke-dasharray="347.00203808708915, 5.8"><path class="EdgeBody" d="m1052.4 818.22h-352.8"   marker-end="url(#c)" /></g><g class="Burr Anchor" transform="translate(900.91 818.22)" ><use class="Icon" width="0" height="0" fill="#141414" stroke-width="0" xlink:href="#b"/></g></g><g id="aq" class="Interaction" color="#000" ><g color="#000" fill="transparent"  filter="url(#a)" stroke="#000" stroke-dasharray="190.8847837926466, 5.8"><path class="EdgeBody" d="m658.54 609.03v196.68"   marker-end="url(#c)" /></g><g class="Burr Anchor" transform="translate(658.54 687.71)" ><use class="Icon" width="0" height="0" fill="#141414" stroke-width="0" xlink:href="#b"/></g></g><g id="ar" class="Interaction" color="#000" ><g color="#000" fill="transparent"  filter="url(#a)" stroke="#000" stroke-dasharray="114.61425091215035, 5.8"><path class="EdgeBody" d="m1119.1 951.13v-120.41"   marker-end="url(#c)" /></g><g class="Burr Anchor" transform="translate(1119.1 905.61)" ><use class="Icon" width="0" height="0" fill="#141414" stroke-width="0" xlink:href="#b"/></g></g><g id="as" class="Interaction" color="#000" ><g color="#000" fill="transparent"  filter="url(#a)" stroke="#000" stroke-dasharray="320.8316870738676, 5.8"><path class="EdgeBody" d="m290.88 818.22h326.63"   marker-end="url(#c)" /></g><g class="Burr Anchor" transform="translate(421.54 818.22)" ><use class="Icon" width="0" height="0" fill="#141414" stroke-width="0" xlink:href="#b"/></g></g><g class="Label" transform="translate(380.58 270.85)" color="#00f"  name="Sialidosis"><rect class="Icon" transform="matrix(.98901 0 0 .96154 .49451 .48077)" width="90" height="25" rx="15" ry="15" fill="#fcc" stroke="#00f"/><text class="Text" transform="translate(45,16.5)" fill="#00f"  font-size="12px"  text-anchor="middle"><tspan x="0" y="0">Sialidosis</tspan></text></g><g class="Label" transform="translate(488.02 120.54)" color="#00f"  name="GM1-gangliosidosis"><rect class="Icon" transform="matrix(.99249 0 0 .96154 .49624 .48077)" width="132.1" height="25" rx="15" ry="15" fill="#fcc" stroke="#00f"/><text class="Text" transform="translate(66.05 16.5)" fill="#00f"  font-size="12px"  text-anchor="middle"><tspan x="0" y="0">GM1-gangliosidosis</tspan></text></g><g class="Label" transform="translate(867.9 259.83)" color="#00f"  name="Fabry"><rect class="Icon" transform="matrix(.98901 0 0 .96154 .49451 .48077)" width="90" height="25" rx="15" ry="15" fill="#fcc" stroke="#00f"/><text class="Text" transform="translate(45,16.5)" fill="#00f"  font-size="12px"  text-anchor="middle"><tspan x="0" y="0">Fabry</tspan></text></g><g class="Label" transform="translate(855.77 854.09)" color="#00f"  name="Krabbe"><rect class="Icon" transform="matrix(.98901 0 0 .96154 .49451 .48077)" width="90" height="25" rx="15" ry="15" fill="#fcc" stroke="#00f"/><text class="Text" transform="translate(45,16.5)" fill="#00f"  font-size="12px"  text-anchor="middle"><tspan x="0" y="0">Krabbe</tspan></text></g><g class="Label" transform="translate(982,229.5)" color="#00f"  name="Sandhoff"><rect class="Icon" transform="matrix(.98901 0 0 .96154 .49451 .48077)" width="90" height="25" rx="15" ry="15" fill="#fcc" stroke="#00f"/><text class="Text" transform="translate(45,16.5)" fill="#00f"  font-size="12px"  text-anchor="middle"><tspan x="0" y="0">Sandhoff</tspan></text></g><g class="GroupGroup" transform="translate(2.2927 205.22)" color="grey" ><use class="Icon" width="205.27783902976842" height="90.99999999999972" fill="transparent"  stroke="grey" stroke-dasharray="5,3" stroke-width="0" xlink:href="#b"/><g class="Label" transform="translate(57.639 8)" color="#00f"  name="Tay-Sachs"><rect class="Icon" transform="matrix(.98901 0 0 .96154 .49451 .48077)" width="90" height="25" rx="15" ry="15" fill="#fcc" stroke="#00f"/><text class="Text" transform="translate(45,16.5)" fill="#00f"  font-size="12px"  text-anchor="middle"><tspan x="0" y="0">Tay-Sachs</tspan></text></g><g class="Label" transform="translate(57.639 33)" color="#00f"  name="Sandhoff"><rect class="Icon" transform="matrix(.98901 0 0 .96154 .49451 .48077)" width="90" height="25" rx="15" ry="15" fill="#fcc" stroke="#00f"/><text class="Text" transform="translate(45,16.5)" fill="#00f"  font-size="12px"  text-anchor="middle"><tspan x="0" y="0">Sandhoff</tspan></text></g><g class="Label" transform="translate(8 58)" color="#00f"  name="GM2-gangliosidosis AB-variant"><rect class="Icon" transform="matrix(.99474 0 0 .96154 .49737 .48077)" width="189.28" height="25" rx="15" ry="15" fill="#fcc" stroke="#00f"/><text class="Text" transform="translate(94.639 16.5)" fill="#00f"  font-size="12px"  text-anchor="middle"><tspan x="0" y="0">GM2-gangliosidosis AB-variant</tspan></text></g></g><g class="Enzyme_Nomenclature_3_1_4_12 Protein " transform="translate(361.89 743.88)" color="#000"  name="sphingomyelinase"><rect class="Icon" transform="matrix(.99167 0 0 .96154 .49583 .48077)" width="118.98" height="25" fill="#fff" stroke="#000"/><text class="Text" transform="translate(59.49 16.5)"   font-size="12px"  text-anchor="middle"><tspan x="0" y="0">sphingomyelinase</tspan></text></g><a class="PubChem-compound_66616222 Metabolite " transform="translate(1049.1 307.6)" color="#00f"  name="globotriaosylceramide"  ><rect class="Icon" transform="matrix(.99291 0 0 .96154 .49646 .48077)" width="140.05" height="25" fill="#fff" stroke="#00f"/><text class="Text" transform="translate(70.023 16.5)" fill="#00f"  font-size="12px"  text-anchor="middle"><tspan x="0" y="0">globotriaosylceramide</tspan></text></a><g class="GroupGroup" transform="translate(1153 655.52)" color="grey" ><use class="Icon" width="159.214285714286" height="66" fill="transparent"  stroke="grey" stroke-dasharray="5,3" stroke-width="0" xlink:href="#b"/><a  class="Protein GLA " transform="translate(8,8)"   name="alpha-galactosidase A"  ><rect class="Icon" transform="matrix(.99307 0 0 .96154 .49653 .48077)" width="143.21" height="25" fill="#fff" stroke="#000"/><text class="Text" transform="translate(71.607 16.5)"   font-size="12px"  text-anchor="middle"><tspan x="0" y="0">alpha-galactosidase A</tspan></text></a><g class="InterPro_IPR008139 Protein " transform="translate(8,33)" color="#000"  name="Sap-B"><rect class="Icon" transform="matrix(.99307 0 0 .96154 .49653 .48077)" width="143.21" height="25" fill="#fff" stroke="#000"/><text class="Text" transform="translate(71.607 16.5)"   font-size="12px"  text-anchor="middle"><tspan x="0" y="0">Sap-B</tspan></text></g></g><g class="GroupComplex" transform="translate(324.29 122.68)" color="grey" ><use class="Icon" transform="matrix(.99144 0 0 .98667 .49572 .49333)" width="115.85408299866128" height="74" fill="#b4b464" fill-opacity=".1" stroke="grey" xlink:href="#f"/><a  class="Uniprot-TrEMBL_P06865 Protein HEXA " transform="translate(12.927 37)"   name="HEXA"  ><rect class="Icon" transform="matrix(.98901 0 0 .96154 .49451 .48077)" width="90" height="25" fill="#fff" stroke="#000"/><text class="Text" transform="translate(45,16.5)"   font-size="12px"  text-anchor="middle"><tspan x="0" y="0">HEXA</tspan></text></a><a  class="Protein GM2A " transform="translate(12,12)"   name="GM2A"  ><rect class="Icon" transform="matrix(.98923 0 0 .96154 .49462 .48077)" width="91.854" height="25" fill="#fff" stroke="#000"/><text class="Text" transform="translate(45.927 16.5)"   font-size="12px"  text-anchor="middle"><tspan x="0" y="0">GM2A</tspan></text></a></g><g class="GroupGroup" transform="translate(951,551.5)" color="grey" ><use class="Icon" width="337" height="65.53335063773989" fill="transparent"  stroke="grey" stroke-dasharray="5,3" stroke-width="0" xlink:href="#b"/><g class="ChEBI_CHEBI_28811 Metabolite" transform="translate(99.249 32.533)" color="#00f"  name="digalactosylceramide"><rect class="Icon" transform="matrix(.99247 0 0 .96154 .49623 .48077)" width="131.79" height="25" fill="#fff" stroke="#00f"/><text class="Text" transform="translate(65.894 16.5)" fill="#00f"  font-size="12px"  text-anchor="middle"><tspan x="0" y="0">digalactosylceramide</tspan></text></g><a class="ChEBI_CHEBI_134507 Metabolite  " transform="translate(165,8)" color="#00f"  name="digalactosylceramide beta"  ><rect class="Icon" transform="matrix(.99394 0 0 .96154 .49697 .48077)" width="164" height="25" fill="#fff" stroke="#00f"/><text class="Text" transform="translate(82,16.5)" fill="#00f"  font-size="12px"  text-anchor="middle"><tspan x="0" y="0">digalactosylceramide beta</tspan></text></a><a class="ChEBI_CHEBI_134506 Metabolite  " transform="translate(8,8)" color="#00f"  name="digalactosylceramide alpha"  ><rect class="Icon" transform="matrix(.99375 0 0 .96154 .49688 .48077)" width="159" height="25" fill="#fff" stroke="#00f"/><text class="Text" transform="translate(79.5,16.5)" fill="#00f"  font-size="12px"  text-anchor="middle"><tspan x="0" y="0">digalactosylceramide alpha</tspan></text></a></g><g class="GroupGroup" transform="translate(1047,97.5)" color="grey" ><use class="Icon" width="140" height="91" fill="transparent"  stroke="grey" stroke-dasharray="5,3" stroke-width="0" xlink:href="#b"/><a class="ChEBI_CHEBI_61360 Metabolite  " transform="translate(8,58)" color="#00f"  name="Globoside"  ><rect class="Icon" transform="matrix(.992 0 0 .96154 .496 .48077)" width="124" height="25" fill="#fff" stroke="#00f"/><text class="Text" transform="translate(62,16.5)" fill="#00f"  font-size="12px"  text-anchor="middle"><tspan x="0" y="0">Globoside</tspan></text></a><a class="ChEBI_CHEBI_88167 Metabolite  " transform="translate(8,8)" color="#00f"  name="Globoside example 1"  ><rect class="Icon" transform="matrix(.992 0 0 .96154 .496 .48077)" width="124" height="25" fill="#fff" stroke="#00f"/><text class="Text" transform="translate(62,16.5)" fill="#00f"  font-size="12px"  text-anchor="middle"><tspan x="0" y="0">Globoside example 1</tspan></text></a><a class="ChEBI_CHEBI_18259 Metabolite  " transform="translate(8,33)" color="#00f"  name="Globoside example 2"  ><rect class="Icon" transform="matrix(.992 0 0 .96154 .496 .48077)" width="124" height="25" fill="#fff" stroke="#00f"/><text class="Text" transform="translate(62,16.5)" fill="#00f"  font-size="12px"  text-anchor="middle"><tspan x="0" y="0">Globoside example 2</tspan></text></a></g><g class="GroupGroup" transform="translate(305.69 28.152)" color="grey" ><use class="Icon" width="202" height="91" fill="transparent"  stroke="grey" stroke-dasharray="5,3" stroke-width="0" xlink:href="#b"/><g class="Enzyme_Nomenclature_3_2_1_23 Protein " transform="translate(8,33)" color="#000"  name="GM1-beta-galactosidase (GLB)"><rect class="Icon" transform="matrix(.99465 0 0 .96154 .49733 .48077)" width="186" height="25" fill="#fff" stroke="#000"/><text class="Text" transform="translate(93,16.5)"   font-size="12px"  text-anchor="middle"><tspan x="0" y="0">GM1-beta-galactosidase (GLB)</tspan></text></g><g class="InterPro_IPR008139 Protein " transform="translate(8,8)" color="#000"  name="Sap-B"><rect class="Icon" transform="matrix(.99465 0 0 .96154 .49733 .48077)" width="186" height="25" fill="#fff" stroke="#000"/><text class="Text" transform="translate(93,16.5)"   font-size="12px"  text-anchor="middle"><tspan x="0" y="0">Sap-B</tspan></text></g><a  class="GeneProduct GLB1 " transform="translate(8,58)"   name="GLB1"  ><rect class="Icon" transform="matrix(.99465 0 0 .96154 .49733 .48077)" width="186" height="25" fill="#fff" stroke="#000"/><text class="Text" transform="translate(93,16.5)"   font-size="12px"  text-anchor="middle"><tspan x="0" y="0">GLB1</tspan></text></a></g><g class="GroupGroup" transform="translate(693.11 845.63)" color="grey" ><use class="Icon" width="128.60204081632662" height="66" fill="transparent"  stroke="grey" stroke-dasharray="5,3" stroke-width="0" xlink:href="#b"/><g class="Enzyme_Nomenclature_3_5_1_23 Protein " transform="translate(8,8)" color="#000"  name="acid ceramidase"><rect class="Icon" transform="matrix(.9912 0 0 .96154 .4956 .48077)" width="112.6" height="25" fill="#fff" stroke="#000"/><text class="Text" transform="translate(56.301 16.5)"   font-size="12px"  text-anchor="middle"><tspan x="0" y="0">acid ceramidase</tspan></text></g><g class="Protein" transform="translate(8,33)" color="#000"  name="Sap-C"><rect class="Icon" transform="matrix(.9912 0 0 .96154 .4956 .48077)" width="112.6" height="25" fill="#fff" stroke="#000"/><text class="Text" transform="translate(56.301 16.5)"   font-size="12px"  text-anchor="middle"><tspan x="0" y="0">Sap-C</tspan></text></g></g><g class="GroupGroup" transform="translate(692.38 193.61)" color="grey" ><use class="Icon" width="164.07898259705507" height="116" fill="transparent"  stroke="grey" stroke-dasharray="5,3" stroke-width="0" xlink:href="#b"/><a  class="Uniprot-TrEMBL_P07686 Protein HEXB " transform="translate(8 58)"   name="HEXB"  ><rect class="Icon" transform="matrix(.99329 0 0 .96154 .49665 .48077)" width="148.08" height="25" fill="#fff" stroke="#000"/><text class="Text" transform="translate(74.039 16.5)"   font-size="12px"  text-anchor="middle"><tspan x="0" y="0">HEXB</tspan></text></a><g class="Enzyme_Nomenclature_3_2_1_52 Protein " transform="translate(8 8)" color="#000"  name="beta-hexosaminidase A, B"><rect class="Icon" transform="matrix(.99329 0 0 .96154 .49665 .48077)" width="148.08" height="25" fill="#fff" stroke="#000"/><text class="Text" transform="translate(74.039 16.5)"   font-size="12px"  text-anchor="middle"><tspan x="0" y="0">beta-hexosaminidase A, B</tspan></text></g><a  class="Protein HEXA " transform="translate(8 33)"   name="HEXA"  ><rect class="Icon" transform="matrix(.99329 0 0 .96154 .49665 .48077)" width="148.08" height="25" fill="#fff" stroke="#000"/><text class="Text" transform="translate(74.039 16.5)"   font-size="12px"  text-anchor="middle"><tspan x="0" y="0">HEXA</tspan></text></a><a  class="Protein GM2A " transform="translate(8,83)"   name="GM2-activator"  ><rect class="Icon" transform="matrix(.99329 0 0 .96154 .49665 .48077)" width="148.08" height="25" fill="#fff" stroke="#000"/><text class="Text" transform="translate(74.039 16.5)"   font-size="12px"  text-anchor="middle"><tspan x="0" y="0">GM2-activator</tspan></text></a></g><g class="GroupGroup" transform="translate(372.9 346.51)" color="grey" ><use class="Icon" width="106" height="166" fill="transparent"  stroke="grey" stroke-dasharray="5,3" stroke-width="0" xlink:href="#b"/><a  class="Uniprot-TrEMBL_Q9Y3R4 Protein NEU2 " transform="translate(8,33)"   name="sialidase 2"  ><rect class="Icon" transform="matrix(.98901 0 0 .96154 .49451 .48077)" width="90" height="25" fill="#fff" stroke="#000"/><text class="Text" transform="translate(45,16.5)"   font-size="12px"  text-anchor="middle"><tspan x="0" y="0">sialidase 2</tspan></text></a><a  class="Uniprot-TrEMBL_Q99519 Protein NEU1 " transform="translate(8,58)"   name="sialidase 1"  ><rect class="Icon" transform="matrix(.98901 0 0 .96154 .49451 .48077)" width="90" height="25" fill="#fff" stroke="#000"/><text class="Text" transform="translate(45,16.5)"   font-size="12px"  text-anchor="middle"><tspan x="0" y="0">sialidase 1</tspan></text></a><g class="InterPro_IPR004124 Protein " transform="translate(8,8)" color="#000"  name="sialidase"><rect class="Icon" transform="matrix(.98901 0 0 .96154 .49451 .48077)" width="90" height="25" fill="#fff" stroke="#000"/><text class="Text" transform="translate(45,16.5)"   font-size="12px"  text-anchor="middle"><tspan x="0" y="0">sialidase</tspan></text></g><a  class="Uniprot-TrEMBL_Q9UQ49 Protein NEU3 " transform="translate(8,83)"   name="sialidase 3"  ><rect class="Icon" transform="matrix(.98901 0 0 .96154 .49451 .48077)" width="90" height="25" fill="#fff" stroke="#000"/><text class="Text" transform="translate(45,16.5)"   font-size="12px"  text-anchor="middle"><tspan x="0" y="0">sialidase 3</tspan></text></a><a  class="Uniprot-TrEMBL_Q8WWR8 Protein NEU4 " transform="translate(8,108)"   name="sialidase 4"  ><rect class="Icon" transform="matrix(.98901 0 0 .96154 .49451 .48077)" width="90" height="25" fill="#fff" stroke="#000"/><text class="Text" transform="translate(45,16.5)"   font-size="12px"  text-anchor="middle"><tspan x="0" y="0">sialidase 4</tspan></text></a><g class="InterPro_IPR008139 Protein " transform="translate(8,133)" color="#000"  name="Sap-B"><rect class="Icon" transform="matrix(.98901 0 0 .96154 .49451 .48077)" width="90" height="25" fill="#fff" stroke="#000"/><text class="Text" transform="translate(45,16.5)"   font-size="12px"  text-anchor="middle"><tspan x="0" y="0">Sap-B</tspan></text></g></g><g class="GroupGroup" transform="translate(705.93 655.52)" color="grey" ><use class="Icon" width="217.88775510204096" height="66" fill="transparent"  stroke="grey" stroke-dasharray="5,3" stroke-width="0" xlink:href="#b"/><g class="Protein" transform="translate(8 8)" color="#000"  name="glucosylceramide-beta-glucosidase"><rect class="Icon" transform="matrix(.99507 0 0 .96154 .49754 .48077)" width="201.89" height="25" fill="#fff" stroke="#000"/><text class="Text" transform="translate(100.94 16.5)"   font-size="12px"  text-anchor="middle"><tspan x="0" y="0">glucosylceramide-beta-glucosidase</tspan></text></g><g class="Protein" transform="translate(8,33)" color="#000"  name="Sap-C"><rect class="Icon" transform="matrix(.99507 0 0 .96154 .49754 .48077)" width="201.89" height="25" fill="#fff" stroke="#000"/><text class="Text" transform="translate(100.94 16.5)"   font-size="12px"  text-anchor="middle"><tspan x="0" y="0">Sap-C</tspan></text></g></g><g class="GroupGroup" transform="translate(831.87 349.13)" color="grey" ><use class="Icon" width="164.07898259705553" height="66" fill="transparent"  stroke="grey" stroke-dasharray="5,3" stroke-width="0" xlink:href="#b"/><a  class="Protein GLA " transform="translate(8,8)"   name="alpha-galactosidase A"  ><rect class="Icon" transform="matrix(.99329 0 0 .96154 .49665 .48077)" width="148.08" height="25" fill="#fff" stroke="#000"/><text class="Text" transform="translate(74.039 16.5)"   font-size="12px"  text-anchor="middle"><tspan x="0" y="0">alpha-galactosidase A</tspan></text></a><g class="InterPro_IPR008139 Protein " transform="translate(8,33)" color="#000"  name="Sap-B"><rect class="Icon" transform="matrix(.99329 0 0 .96154 .49665 .48077)" width="148.08" height="25" fill="#fff" stroke="#000"/><text class="Text" transform="translate(74.039 16.5)"   font-size="12px"  text-anchor="middle"><tspan x="0" y="0">Sap-B</tspan></text></g></g><g class="GroupGroup" transform="translate(686.37 409.57)" color="grey" ><use class="Icon" width="202.0000000000001" height="141" fill="transparent"  stroke="grey" stroke-dasharray="5,3" stroke-width="0" xlink:href="#b"/><a  class="Enzyme_Nomenclature_3_2_1_46 Protein " transform="translate(8,58)"   name="GalCer-beta-galactosidase"  ><rect class="Icon" transform="matrix(.99465 0 0 .96154 .49733 .48077)" width="186" height="25" fill="#fff" stroke="#000"/><text class="Text" transform="translate(93,16.5)"   font-size="12px"  text-anchor="middle"><tspan x="0" y="0">GalCer-beta-galactosidase</tspan></text></a><g class="InterPro_IPR008139 Protein " transform="translate(8 83)" color="#000"  name="Sap-B"><rect class="Icon" transform="matrix(.99465 0 0 .96154 .49733 .48077)" width="186" height="25" fill="#fff" stroke="#000"/><text class="Text" transform="translate(93,16.5)"   font-size="12px"  text-anchor="middle"><tspan x="0" y="0">Sap-B</tspan></text></g><g class="Protein" transform="translate(8 108)" color="#000"  name="Sap-C"><rect class="Icon" transform="matrix(.99465 0 0 .96154 .49733 .48077)" width="186" height="25" fill="#fff" stroke="#000"/><text class="Text" transform="translate(93,16.5)"   font-size="12px"  text-anchor="middle"><tspan x="0" y="0">Sap-C</tspan></text></g><g class="Enzyme_Nomenclature_3_2_1_23 Protein " transform="translate(8,8)" color="#000"  name="GM1-beta-galactosidase (GLB)"><rect class="Icon" transform="matrix(.99465 0 0 .96154 .49733 .48077)" width="186" height="25" fill="#fff" stroke="#000"/><text class="Text" transform="translate(93,16.5)"   font-size="12px"  text-anchor="middle"><tspan x="0" y="0">GM1-beta-galactosidase (GLB)</tspan></text></g><a  class="GeneProduct GLB1 " transform="translate(8 33)"   name="GLB1"  ><rect class="Icon" transform="matrix(.99465 0 0 .96154 .49733 .48077)" width="186" height="25" fill="#fff" stroke="#000"/><text class="Text" transform="translate(93,16.5)"   font-size="12px"  text-anchor="middle"><tspan x="0" y="0">GLB1</tspan></text></a></g><g class="GroupGroup" transform="translate(1171.5 872.36)" color="grey" ><use class="Icon" width="127.32653061224528" height="66" fill="transparent"  stroke="grey" stroke-dasharray="5,3" stroke-width="0" xlink:href="#b"/><a  class="Protein ARSA " transform="translate(8,8)"   name="acrylsulfatase A"  ><rect class="Icon" transform="matrix(.9911 0 0 .96154 .49555 .48077)" width="111.33" height="25" fill="#fff" stroke="#000"/><text class="Text" transform="translate(55.663 16.5)"   font-size="12px"  text-anchor="middle"><tspan x="0" y="0">acrylsulfatase A</tspan></text></a><g class="InterPro_IPR008139 Protein " transform="translate(8 33)" color="#000"  name="Sap-B"><rect class="Icon" transform="matrix(.9911 0 0 .96154 .49555 .48077)" width="111.33" height="25" fill="#fff" stroke="#000"/><text class="Text" transform="translate(55.663 16.5)"   font-size="12px"  text-anchor="middle"><tspan x="0" y="0">Sap-B</tspan></text></g></g><a class="ChEBI_CHEBI_27731 Metabolite  " transform="translate(613.54 166.41)" color="#00f"  name="GA2"  ><rect class="Icon" transform="matrix(.98901 0 0 .96154 .49451 .48077)" width="90" height="25" fill="#fff" stroke="#00f"/><text class="Text" transform="translate(45,16.5)" fill="#00f"  font-size="12px"  text-anchor="middle"><tspan x="0" y="0">GA2</tspan></text></a><a class="ChEBI_CHEBI_15681 Metabolite  " transform="translate(196.19 307.6)" color="#00f"  name="GM3"  ><rect class="Icon" transform="matrix(.98901 0 0 .96154 .49451 .48077)" width="90" height="25" fill="#fff" stroke="#00f"/><text class="Text" transform="translate(45,16.5)" fill="#00f"  font-size="12px"  text-anchor="middle"><tspan x="0" y="0">GM3</tspan></text></a><a class="ChEBI_CHEBI_17761 Metabolite  " transform="translate(617.51 805.72)" color="#00f"  name="Ceramide"  ><rect class="Icon" transform="matrix(.98796 0 0 .96154 .49398 .48077)" width="82.057" height="25" fill="#fff" stroke="#00f"/><text class="Text" transform="translate(41.028 16.5)" fill="#00f"  font-size="12px"  text-anchor="middle"><tspan x="0" y="0">Ceramide</tspan></text></a><a class="Metabolite ChEBI_CHEBI_16393  " transform="translate(614.29 951.13)" color="#00f"  name="Sphingosine"  ><rect class="Icon" transform="matrix(.98883 0 0 .96154 .49441 .48077)" width="88.509" height="25" fill="#fff" stroke="#00f"/><text class="Text" transform="translate(44.255 16.5)" fill="#00f"  font-size="12px"  text-anchor="middle"><tspan x="0" y="0">Sphingosine</tspan></text></a><a class="Metabolite ChEBI_CHEBI_36498 " transform="translate(1052.4 805.72)" color="#00f"  name="galactosyl-ceramide"  ><rect class="Icon" transform="matrix(.99257 0 0 .96154 .49628 .48077)" width="133.54" height="25" fill="#fff" stroke="#00f"/><text class="Text" transform="translate(66.77 16.5)" fill="#00f"  font-size="12px"  text-anchor="middle"><tspan x="0" y="0">galactosyl-ceramide</tspan></text></a><a class="Metabolite ChEBI_CHEBI_64583  " transform="translate(191.5 805.72)" color="#00f"  name="Sphingomyelin"  ><rect class="Icon" transform="matrix(.99004 0 0 .96154 .49502 .48077)" width="99.379" height="25" fill="#fff" stroke="#00f"/><text class="Text" transform="translate(49.689 16.5)" fill="#00f"  font-size="12px"  text-anchor="middle"><tspan x="0" y="0">Sphingomyelin</tspan></text></a><a class="Metabolite ChEBI_CHEBI_36500  " transform="translate(601.99 584.03)" color="#00f"  name="glucosylceramide"  ><rect class="Icon" transform="matrix(.99124 0 0 .96154 .49562 .48077)" width="113.11" height="25" fill="#fff" stroke="#00f"/><text class="Text" transform="translate(56.556 16.5)" fill="#00f"  font-size="12px"  text-anchor="middle"><tspan x="0" y="0">glucosylceramide</tspan></text></a><a class="Metabolite ChEBI_CHEBI_76069  " transform="translate(1079.1 951.13)" color="#00f"  name="Sulfatide"  ><rect class="Icon" transform="matrix(.98767 0 0 .96154 .49383 .48077)" width="80.094" height="25" fill="#fff" stroke="#00f"/><text class="Text" transform="translate(40.047 16.5)" fill="#00f"  font-size="12px"  text-anchor="middle"><tspan x="0" y="0">Sulfatide</tspan></text></a><a class="Metabolite" transform="translate(605.28 307.6)" color="#00f"  name="lactosylceramide"  ><rect class="Icon" transform="matrix(.9907 0 0 .96154 .49535 .48077)" width="106.52" height="25" fill="#fff" stroke="#00f"/><text class="Text" transform="translate(53.26 16.5)" fill="#00f"  font-size="12px"  text-anchor="middle"><tspan x="0" y="0">lactosylceramide</tspan></text></a><g class="ChEBI_CHEBI_51013 Metabolite " transform="translate(196.19 166.41)" color="#00f"  name="GM2"><rect class="Icon" transform="matrix(.98901 0 0 .96154 .49451 .48077)" width="90" height="25" fill="#fff" stroke="#00f"/><text class="Text" transform="translate(45,16.5)" fill="#00f"  font-size="12px"  text-anchor="middle"><tspan x="0" y="0">GM2</tspan></text></g><a class="ChEBI_CHEBI_18216 Metabolite  " transform="translate(196.19 69.595)" color="#00f"  name="GM1a"  ><rect class="Icon" transform="matrix(.98901 0 0 .96154 .49451 .48077)" width="90" height="25" fill="#fff" stroke="#00f"/><text class="Text" transform="translate(45,16.5)" fill="#00f"  font-size="12px"  text-anchor="middle"><tspan x="0" y="0">GM1a</tspan></text></a><a class="ChEBI_CHEBI_27938 Metabolite  " transform="translate(613.54 69.595)" color="#00f"  name="GA1"  ><rect class="Icon" transform="matrix(.98901 0 0 .96154 .49451 .48077)" width="90" height="25" fill="#fff" stroke="#00f"/><text class="Text" transform="translate(45,16.5)" fill="#00f"  font-size="12px"  text-anchor="middle"><tspan x="0" y="0">GA1</tspan></text></a><g id="at" class="Rhea_RHEA_48282" color="#000" ><g color="#000" fill="transparent"  filter="url(#a)" stroke="#000" stroke-dasharray="66.01162252004441, 5.8"><path class="EdgeBody" d="m241.19 94.595v71.812"   marker-end="url(#c)" /></g><g class="Burr Anchor" transform="translate(241.19 145.71)" ><use class="Icon" width="0" height="0" fill="#141414" stroke-width="0" xlink:href="#b"/></g><g class="Burr Anchor" transform="translate(241.19 123.32)" ><use class="Icon" width="0" height="0" fill="#141414" stroke-width="0" xlink:href="#b"/></g></g><g id="au" class="Rhea_RHEA_47969" color="#000" ><g color="#000" fill="transparent"  filter="url(#a)" stroke="#000" stroke-dasharray="110.38989285169977, 5.8"><path class="EdgeBody" d="m241.19 191.41v116.19"   marker-end="url(#c)" /></g><g class="Burr Anchor" transform="translate(241.19 250.39)" ><use class="Icon" width="0" height="0" fill="#141414" stroke-width="0" xlink:href="#b"/></g></g><g class="GroupComplex" transform="translate(260.33 199.89)" color="grey" ><use class="Icon" transform="matrix(.99144 0 0 .98667 .49572 .49333)" width="115.85408299866128" height="74.00000000000003" fill="#b4b464" fill-opacity=".1" stroke="grey" xlink:href="#f"/><a  class="Protein GM2A " transform="translate(12,37)"   name="GM2-activator"  ><rect class="Icon" transform="matrix(.98923 0 0 .96154 .49462 .48077)" width="91.854" height="25" fill="#fff" stroke="#000"/><text class="Text" transform="translate(45.927 16.5)"   font-size="12px"  text-anchor="middle"><tspan x="0" y="0">GM2-activator</tspan></text></a><a  class="Protein HEXA " transform="translate(12,12)"   name="HEXA"  ><rect class="Icon" transform="matrix(.98923 0 0 .96154 .49462 .48077)" width="91.854" height="25" fill="#fff" stroke="#000"/><text class="Text" transform="translate(45.927 16.5)"   font-size="12px"  text-anchor="middle"><tspan x="0" y="0">HEXA</tspan></text></a></g><g class="GroupGroup" transform="translate(691.94 104.63)" color="grey" ><use class="Icon" width="205.06024096385545" height="66" fill="transparent"  stroke="grey" stroke-dasharray="5,3" stroke-width="0" xlink:href="#b"/><g class="Enzyme_Nomenclature_3_2_1_23 Protein " transform="translate(8,8)" color="#000"  name="GM1-beta-galactosidease (GLB)"><rect class="Icon" transform="matrix(.99474 0 0 .96154 .49737 .48077)" width="189.06" height="25" fill="#fff" stroke="#000"/><text class="Text" transform="translate(94.53 16.5)"   font-size="12px"  text-anchor="middle"><tspan x="0" y="0">GM1-beta-galactosidease (GLB)</tspan></text></g><a  class="GeneProduct GLB1 " transform="translate(8 33)"   name="GLB1"  ><rect class="Icon" transform="matrix(.99474 0 0 .96154 .49737 .48077)" width="189.06" height="25" fill="#fff" stroke="#000"/><text class="Text" transform="translate(94.53 16.5)"   font-size="12px"  text-anchor="middle"><tspan x="0" y="0">GLB1</tspan></text></a></g><g class="GroupGroup" transform="translate(792.46 730.57)" color="grey" ><use class="Icon" width="217.88775510204096" height="66" fill="transparent"  stroke="grey" stroke-dasharray="5,3" stroke-width="0" xlink:href="#b"/><g class="Protein" transform="translate(8,8)" color="#000"  name="glucosylceramide-beta-glucosidase"><rect class="Icon" transform="matrix(.99507 0 0 .96154 .49754 .48077)" width="201.89" height="25" fill="#fff" stroke="#000"/><text class="Text" transform="translate(100.94 16.5)"   font-size="12px"  text-anchor="middle"><tspan x="0" y="0">glucosylceramide-beta-glucosidase</tspan></text></g><g class="InterPro_IPR003119 Protein " transform="translate(8,33)" color="#000"  name="Sap-A"><rect class="Icon" transform="matrix(.99507 0 0 .96154 .49754 .48077)" width="201.89" height="25" fill="#fff" stroke="#000"/><text class="Text" transform="translate(100.94 16.5)"   font-size="12px"  text-anchor="middle"><tspan x="0" y="0">Sap-A</tspan></text></g></g><g class="GroupGroup" transform="translate(1160.2 196.21)" color="grey" ><use class="Icon" width="164.07898259705485" height="91" fill="transparent"  stroke="grey" stroke-dasharray="5,3" stroke-width="0" xlink:href="#b"/><a  class="Uniprot-TrEMBL_P07686 Protein HEXB " transform="translate(8,33)"   name="HEXB"  ><rect class="Icon" transform="matrix(.99329 0 0 .96154 .49665 .48077)" width="148.08" height="25" fill="#fff" stroke="#000"/><text class="Text" transform="translate(74.039 16.5)"   font-size="12px"  text-anchor="middle"><tspan x="0" y="0">HEXB</tspan></text></a><g class="Enzyme_Nomenclature_3_2_1_52 Protein " transform="translate(8,8)" color="#000"  name="beta-hexosaminidase A, B"><rect class="Icon" transform="matrix(.99329 0 0 .96154 .49665 .48077)" width="148.08" height="25" fill="#fff" stroke="#000"/><text class="Text" transform="translate(74.039 16.5)"   font-size="12px"  text-anchor="middle"><tspan x="0" y="0">beta-hexosaminidase A, B</tspan></text></g><a  class="Protein HEXA " transform="translate(8,58)"   name="HEXA"  ><rect class="Icon" transform="matrix(.99329 0 0 .96154 .49665 .48077)" width="148.08" height="25" fill="#fff" stroke="#000"/><text class="Text" transform="translate(74.039 16.5)"   font-size="12px"  text-anchor="middle"><tspan x="0" y="0">HEXA</tspan></text></a></g><g id="av" class="DirectedInteraction" color="#000" ><g color="#000" fill="transparent"  filter="url(#a)" stroke="#000" stroke-dasharray="5.06, 3.04, 5.06, 3.04, 5.06, 3.04, 5.06, 3.04, 5.06, 3.04, 5.06, 3.04, 5.06, 3.04, 0, 5.8"><path class="EdgeBody" d="m658.54 243.62-59.477-0.26549"   marker-end="url(#e)" /></g></g><g class="Label" transform="translate(509.07 230.86)" color="#00f"  name="Sandhoff"><rect class="Icon" transform="matrix(.98901 0 0 .96154 .49451 .48077)" width="90" height="25" rx="15" ry="15" fill="#fcc" stroke="#00f"/><text class="Text" transform="translate(45,16.5)" fill="#00f"  font-size="12px"  text-anchor="middle"><tspan x="0" y="0">Sandhoff</tspan></text></g><g class="Label" transform="translate(49.085 123.19)" color="#00f"  name="GM1-gangliosidosis"><rect class="Icon" transform="matrix(.99249 0 0 .96154 .49624 .48077)" width="132.1" height="25" rx="15" ry="15" fill="#fcc" stroke="#00f"/><text class="Text" transform="translate(66.05 16.5)" fill="#00f"  font-size="12px"  text-anchor="middle"><tspan x="0" y="0">GM1-gangliosidosis</tspan></text></g><g class="Label" transform="translate(977.13 675.9)" color="#00f"  name="Fabry"><rect class="Icon" transform="matrix(.98901 0 0 .96154 .49451 .48077)" width="90" height="25" rx="15" ry="15" fill="#fcc" stroke="#00f"/><text class="Text" transform="translate(45,16.5)" fill="#00f"  font-size="12px"  text-anchor="middle"><tspan x="0" y="0">Fabry</tspan></text></g><g class="Label" transform="translate(509.07 866.94)" color="#00f"  name="Farber"><rect class="Icon" transform="matrix(.98901 0 0 .96154 .49451 .48077)" width="90" height="25" rx="15" ry="15" fill="#fcc" stroke="#00f"/><text class="Text" transform="translate(45,16.5)" fill="#00f"  font-size="12px"  text-anchor="middle"><tspan x="0" y="0">Farber</tspan></text></g><g class="Label" transform="translate(882.14 904.89)" color="#00f"  name="Metachromatic leukodystrophy"><rect class="Icon" transform="matrix(.99471 0 0 .96154 .49735 .48077)" width="187.98" height="25" rx="15" ry="15" fill="#fcc" stroke="#00f"/><text class="Text" transform="translate(93.989 16.5)" fill="#00f"  font-size="12px"  text-anchor="middle"><tspan x="0" y="0">Metachromatic leukodystrophy</tspan></text></g><g class="Label" transform="translate(509.07 675.43)" color="#00f"  name="Gaucher"><rect class="Icon" transform="matrix(.98901 0 0 .96154 .49451 .48077)" width="90" height="25" rx="15" ry="15" fill="#fcc" stroke="#00f"/><text class="Text" transform="translate(45,16.5)" fill="#00f"  font-size="12px"  text-anchor="middle"><tspan x="0" y="0">Gaucher</tspan></text></g><g class="GroupGroup" transform="translate(354.86 849.5)" color="grey" ><use class="Icon" width="129.44318725291964" height="66.00000000000023" fill="transparent"  stroke="grey" stroke-dasharray="5,3" stroke-width="0" xlink:href="#b"/><g class="Label" transform="translate(8,8)" color="#00f"  name="Niemann-Pick A"><rect class="Icon" transform="matrix(.99126 0 0 .96154 .49563 .48077)" width="113.44" height="25" rx="15" ry="15" fill="#fcc" stroke="#00f"/><text class="Text" transform="translate(56.722 16.5)" fill="#00f"  font-size="12px"  text-anchor="middle"><tspan x="0" y="0">Niemann-Pick A</tspan></text></g><g class="Label" transform="translate(8 33)" color="#00f"  name="Niemann-Pick B"><rect class="Icon" transform="matrix(.99126 0 0 .96154 .49563 .48077)" width="113.44" height="25" rx="15" ry="15" fill="#fcc" stroke="#00f"/><text class="Text" transform="translate(56.722 16.5)" fill="#00f"  font-size="12px"  text-anchor="middle"><tspan x="0" y="0">Niemann-Pick B</tspan></text></g></g><text class="Text" transform="translate(5,27)" dominant-baseline="central" fill="black"  font-size="12px" font-weight="bold" overflow="visible" ><tspan x="0" y="-9">Name: Degradation pathway of sphingolipids, including diseases</tspan> <tspan x="0" y="9">Organism: Homo sapiens</tspan></text></g></svg>
