<?xml version="1.0" encoding="UTF-8"?>
<!--
  WikiPathways page: https://www.wikipathways.org/index.php/Pathway:WP4183
  URL for this compressed file: https://github.com/eweitz/cachome/tree/main/data/wikipathways/WP4183.svg
  Source code for compression: https://github.com/eweitz/cachome/tree/main/src/wikipathways.py
-->
<svg class="Diagram" width="800" height="600" color="black" baseProfile="full" prefix="schema:http://schema.org/" preserveAspectRatio="xMidYMid" version="1.1" viewBox="0 0 1146.7 752.5" vocab="http://vocabularies.wikipathways.org/wp#" xmlns="http://www.w3.org/2000/svg" xmlns:xlink="http://www.w3.org/1999/xlink"><style>svg {font-family: 'Liberation Sans', Arial, sans-serif; }</style><defs><filter id="j" x="-50%" y="-50%" width="200%" height="200%"><feMorphology in="SourceGraphic" operator="dilate" radius="3" result="in2Double"/><feMorphology in="SourceGraphic" radius="3" result="inDouble"/><feComposite in="inDouble" in2="in2Double" operator="atop" result="doubleResult"/></filter><filter id="c" x="0" y="0" width="1146.7" height="752.5" filterUnits="userSpaceOnUse"><feColorMatrix in="SourceGraphic" values="-1   0   0 0 0                   0  -1   0 0 0                   0   0  -1 0 0                   0   0   0 1 0"/></filter><marker id="g" stroke-dasharray="99999" markerHeight="12" markerUnits="userSpaceOnUse" markerWidth="12" orient="auto" preserveAspectRatio="none" refX="12" refY="6" viewBox="0 0 12 12"><path transform="rotate(180 6 6)" d="M12 11L0 6l12-5z" fill="currentColor" stroke-width="0"/></marker><marker id="f" stroke-dasharray="99999" markerHeight="12" markerUnits="userSpaceOnUse" markerWidth="12" orient="auto" preserveAspectRatio="none" refX="12" refY="6" viewBox="0 0 12 12"><path transform="rotate(180 6 6)" d="M12 11L0 6l12-5z" fill="currentColor" stroke-width="0"/></marker><marker id="i" stroke-dasharray="99999" markerHeight="12" markerUnits="userSpaceOnUse" markerWidth="12" orient="auto" preserveAspectRatio="none" refX="12" refY="6" viewBox="0 0 12 12"><path transform="rotate(180 6 6)" d="M0 6l11 5V1z" fill="currentColor" stroke-width="0"/></marker><symbol id="d" overflow="visible" preserveAspectRatio="none" viewBox="0 0 100 100"><path d="M1.5 49.5c0-16.167 8.167-24.25 24.5-24.25S50.5 17.167 50.5 1c0 16.167 8.167 24.25 24.5 24.25s24.5 8.083 24.5 24.25" stroke="currentColor" vector-effect="non-scaling-stroke"/></symbol><symbol id="a" overflow="visible" preserveAspectRatio="none" viewBox="0 0 50 50"><ellipse cx="25" cy="25" rx="25" ry="25" stroke="currentColor" vector-effect="non-scaling-stroke"/></symbol><symbol id="e" overflow="visible" preserveAspectRatio="none" viewBox="0 8 100 86"><path transform="scale(1 .85)" d="M1.42 50.996l21.073-42.14h56.191l21.067 42.14-21.067 42.145H22.493L1.42 50.996z" stroke="currentColor" vector-effect="non-scaling-stroke"/></symbol><symbol id="h" overflow="visible" preserveAspectRatio="none" viewBox="0 0 100 100"><path d="M0 25L25 0h50l25 25v50l-25 25H25L0 75z" stroke="currentColor" vector-effect="non-scaling-stroke"/></symbol><symbol id="b" preserveAspectRatio="none" viewBox="0 0 100 100"/></defs><g class="Viewport" color="black"  name="Name: Distal convoluted tubule 1 (DCT1) cell Organism: Mus musculus"><rect class="Icon" width="1146.7" height="752.5" fill="#fff" stroke="#000" stroke-width="0"/><g class="SingleFreeNode Shape" transform="translate(-1.5504 45.168)" color="#000" ><rect class="Icon" transform="matrix(.99896 0 0 .99474 .49948 .49737)" width="959.53" height="189.08" fill="#ffc" stroke="#000"/></g><g class="SingleFreeNode Shape PhysicalEntity CellularComponent Cell" transform="translate(24.965 168.88)" color="#c0c0c0" ><g fill="#fff" filter="url(#j)" stroke="#c0c0c0" stroke-width="3"><rect class="Icon" transform="matrix(.97351 0 0 .97333 5.8411 5.84)" width="441" height="438" rx="15" ry="15"   /></g></g><g class="SingleFreeNode Shape PhysicalEntity CellularComponent Cell" transform="translate(489.5 170.44)" color="#c0c0c0" ><g fill="#fff" filter="url(#j)" stroke="#c0c0c0" stroke-width="3"><rect class="Icon" transform="matrix(.97351 0 0 .97333 5.8411 5.84)" width="441" height="438" rx="15" ry="15"   /></g></g><g id="k" class="DirectedInteraction" color="#000" ><g color="#000" fill="transparent"  filter="url(#c)" stroke="#000" stroke-dasharray="74.44590816208031, 5.8"><path class="EdgeBody" d="m693.41 137.44-22.294 77.087"   marker-end="url(#g)" /></g></g><g id="l" class="Interaction" color="#000" ><g color="#000" fill="transparent"  filter="url(#c)" stroke="#000" stroke-dasharray="104.0928249746073, 5.8"><path class="EdgeBody" d="m400.79 552.06-2.4568 109.87"   marker-end="url(#f)" /></g></g><g id="m" class="Interaction" color="#000" ><g color="#000" fill="transparent"  filter="url(#c)" stroke="#000" stroke-dasharray="49.5291229504221, 11"><path class="EdgeBody" d="m250 249.83-1.5907-60.508"   marker-end="url(#i)" /></g></g><g id="n" class="DirectedInteraction" color="#000" ><g color="#000" fill="transparent"  filter="url(#c)" stroke="#000" stroke-dasharray="104.44849334652851, 5.8"><path class="EdgeBody" d="m574.9 563.45-38.933 103.15"   marker-end="url(#g)" /></g></g><g id="o" class="DirectedInteraction" color="#000" ><g color="#000" fill="transparent"  filter="url(#c)" stroke="#000" stroke-dasharray="101.38718518927838, 5.8"><path class="EdgeBody" d="m897.98 663.07-37.975-100.23"   marker-end="url(#g)" /></g></g><g id="p" class="Interaction" color="#000" ><g color="#000" fill="transparent"  filter="url(#c)" stroke="#000" stroke-dasharray="79.06026260257818, 5.8"><path class="EdgeBody" d="m227.88 133.65-20 82.47"   marker-end="url(#f)" /></g></g><g id="q" class="Interaction" color="#000" ><g color="#000" fill="transparent"  filter="url(#c)" stroke="#000" stroke-dasharray="117.16987298620776, 11"><path class="EdgeBody" d="m249.32 398 0.68036-128.17"   marker-end="url(#i)" /></g></g><g class="SingleFreeNode Shape" transform="translate(298.17 425.01) rotate(88.948 51.827 14.986)" color="#000" ><use class="Icon" transform="matrix(.99044 0 0 .96771 .49522 .48386)" width="103.65414492711699" height="29.97276675432604" fill="transparent"  stroke="#000" xlink:href="#d"/></g><g class="Label" transform="translate(431.25 51.702)" color="#000"  name="Pro-Urine"><use class="Icon" width="90" height="25" fill="transparent"  stroke="#000" stroke-width="0" xlink:href="#b"/><text class="Text" transform="translate(45,18.5)"   font-size="20px" font-weight="bold"  text-anchor="middle"><tspan x="0" y="0">Pro-Urine</tspan></text></g><g class="Label" transform="translate(32,177.5)" color="#000"  name="Apical Membrane"><use class="Icon" width="116" height="25" fill="transparent"  stroke="#000" stroke-width="0" xlink:href="#b"/><text class="Text" transform="translate(58,16.5)"   font-size="12px" font-weight="bold"  text-anchor="middle"><tspan x="0" y="0">Apical Membrane</tspan></text></g><g class="Label" transform="translate(205,697.5)" color="#000"  name="ACTIVE"><use class="Icon" width="90" height="25" fill="transparent"  stroke="#000" stroke-width="0" xlink:href="#b"/><text class="Text" transform="translate(45,18.5)"   font-size="20px" font-weight="bold"  text-anchor="middle"><tspan x="0" y="0">ACTIVE</tspan></text></g><g class="Label" transform="translate(628.53 667.5)" color="#000"  name="High Potassium"><use class="Icon" width="162.93924665856605" height="25" fill="transparent"  stroke="#000" stroke-width="0" xlink:href="#b"/><text class="Text" transform="translate(81.47 18.5)"   font-size="20px" font-weight="bold"  text-anchor="middle"><tspan x="0" y="0">High Potassium</tspan></text></g><g class="Label" transform="translate(355,427.5)" color="#000"  name="Active Complex"><use class="Icon" width="90" height="25" fill="transparent"  stroke="#000" stroke-width="0" xlink:href="#b"/><text class="Text" transform="translate(45,16.5)"   font-size="12px" font-weight="bold"  text-anchor="middle"><tspan x="0" y="-6.6000000000000005">Active</tspan> <tspan x="0" y="6.6000000000000005">Complex</tspan></text></g><g class="GroupComplex" transform="translate(977.14 79.996)" color="grey" ><use class="Icon" transform="matrix(.99344 0 0 .98 .49672 .49)" width="151.54708383961326" height="49.010631834750995" fill="#b4b464" fill-opacity=".1" stroke="grey" xlink:href="#h"/><g class="Label" transform="translate(49.547 12)" color="#000"  name="Phosphorylated Protein"><use class="Icon" width="90" height="25" fill="transparent"  stroke="#000" stroke-width="0" xlink:href="#b"/><text class="Text" transform="translate(45,16.5)"   font-size="12px" font-weight="bold"  text-anchor="middle"><tspan x="0" y="-6.6000000000000005">Phosphorylated</tspan> <tspan x="0" y="6.6000000000000005">Protein</tspan></text></g><g class="SingleFreeNode Shape" transform="translate(12 12.011)" color="#000"  name="P"><use class="Icon" transform="matrix(.96154 0 0 .96154 .48077 .48077)" width="25" height="25" fill="#ffcccc" stroke="#000" xlink:href="#e"/><text class="Text" transform="translate(12.5,16.5)"   font-size="12px" font-weight="bold"  text-anchor="middle"><tspan x="0" y="0">P</tspan></text></g></g><a  class="Uniprot-TrEMBL_Q9Z307 Protein P594_ENSMUSG00000051497 " transform="translate(370,590)"   name="kir5.1"  ><rect class="Icon" transform="matrix(.98361 0 0 .95238 .4918 .47619)" width="60" height="20" fill="#fff" stroke="#000"/><text class="Text" transform="translate(30,13)"   font-size="10px"  text-anchor="middle"><tspan x="0" y="0">kir5.1</tspan></text></a><a class="Metabolite ChEBI_CHEBI_29101  " transform="translate(213.88 111.65)" color="#ff0033"  name="Na+"  ><use class="Icon" transform="matrix(.96552 0 0 .95652 .48276 .47826)" width="28" height="22" fill="#fff" stroke="#ff0033" xlink:href="#a"/><text class="Text" transform="translate(14,15)" fill="#ff0033"  font-size="12px" font-weight="bold" stroke="black" stroke-width="0" text-anchor="middle"><tspan x="0" y="0">Na+</tspan></text></a><a class="Metabolite ChEBI_CHEBI_17996  " transform="translate(245.7 112.71)" color="#006600"  name="Cl-"  ><use class="Icon" transform="matrix(.96552 0 0 .95652 .48276 .47826)" width="28" height="22" fill="#fff" stroke="#006600" xlink:href="#a"/><text class="Text" transform="translate(14,15)" fill="#006600"  font-size="12px" font-weight="bold"  text-anchor="middle"><tspan x="0" y="0">Cl-</tspan></text></a><g class="Uniprot-TrEMBL_Q9jm63 Protein" transform="translate(370,610)" color="#000"  name="kir4.1"><rect class="Icon" transform="matrix(.98361 0 0 .95238 .4918 .47619)" width="60" height="20" fill="#fff" stroke="#000"/><text class="Text" transform="translate(30,13)"   font-size="10px"  text-anchor="middle"><tspan x="0" y="0">kir4.1</tspan></text></g><g class="GroupComplex" transform="translate(174.64 398)" color="grey" ><use class="Icon" transform="matrix(.99335 0 0 .98824 .49667 .49412)" width="149.36071249560342" height="83.99999999999972" fill="#b4b464" fill-opacity=".1" stroke="grey" xlink:href="#h"/><g class="Uniprot-TrEMBL_P83741-7 Protein" transform="translate(57.361 32)" color="#000"  name="KS-WNK1"><rect class="Icon" transform="matrix(.98765 0 0 .95238 .49383 .47619)" width="80" height="20" fill="#fff" stroke="#000"/><text class="Text" transform="translate(40,13)"   font-size="10px"  text-anchor="middle"><tspan x="0" y="0">KS-WNK1</tspan></text></g><a  class="Uniprot-TrEMBL_Q80UE6 Protein P594_ENSMUSG00000035112 " transform="translate(12,12)"   name="WNK4"  ><rect class="Icon" transform="matrix(.98361 0 0 .95238 .4918 .47619)" width="60" height="20" fill="#fff" stroke="#000"/><g class="Burr State" transform="translate(47.5,-12.5)" color="#000"  name="P"><use class="Icon" transform="matrix(.96154 0 0 .96154 .48077 .48077)" width="25" height="25" fill="#ffcccc" stroke="#000" xlink:href="#e"/><text class="Text" transform="translate(12.5,15.5)"   font-size="10px"  text-anchor="middle"><tspan x="0" y="0">P</tspan></text></g><text class="Text" transform="translate(30,13)"   font-size="10px"  text-anchor="middle"><tspan x="0" y="0">WNK4</tspan></text></a><a  class="Uniprot-TrEMBL_P83741 Protein P594_ENSMUSG00000045962 " transform="translate(57.361 52)"   name="WNK1"  ><rect class="Icon" transform="matrix(.98765 0 0 .95238 .49383 .47619)" width="80" height="20" fill="#fff" stroke="#000"/><g class="Burr State" transform="translate(67.5,7.5)" color="#000"  name="P"><use class="Icon" transform="matrix(.96154 0 0 .96154 .48077 .48077)" width="25" height="25" fill="#ffcccc" stroke="#000" xlink:href="#e"/><text class="Text" transform="translate(12.5,15.5)"   font-size="10px"  text-anchor="middle"><tspan x="0" y="0">P</tspan></text></g><text class="Text" transform="translate(40,13)"   font-size="10px"  text-anchor="middle"><tspan x="0" y="0">WNK1</tspan></text></a></g><a class="Metabolite ChEBI_CHEBI_29103  " transform="translate(393.79 530.06)" color="#00f"  name="K+"  ><use class="Icon" transform="matrix(.96552 0 0 .95652 .48276 .47826)" width="28" height="22" fill="#fff" stroke="#00f" xlink:href="#a"/><text class="Text" transform="translate(14,15)" fill="#00f"  font-size="12px" font-weight="bold"  text-anchor="middle"><tspan x="0" y="0">K+</tspan></text></a><a class="Metabolite ChEBI_CHEBI_17996  " transform="translate(101.11 538.85)" color="#006600"  name="Cl-"  ><use class="Icon" transform="matrix(.96552 0 0 .95652 .48276 .47826)" width="28" height="22" fill="#fff" stroke="#006600" xlink:href="#a"/><text class="Text" transform="translate(14,15)" fill="#006600"  font-size="12px" font-weight="bold"  text-anchor="middle"><tspan x="0" y="0">Cl-</tspan></text></a><g class="Label" transform="translate(170.1 667.5)" color="#000"  name="Low Potassium"><use class="Icon" width="159.80437424058334" height="25" fill="transparent"  stroke="#000" stroke-width="0" xlink:href="#b"/><text class="Text" transform="translate(79.902 18.5)"   font-size="20px" font-weight="bold"  text-anchor="middle"><tspan x="0" y="0">Low Potassium</tspan></text></g><g class="SingleFreeNode Shape" transform="translate(327.03 324.85) rotate(88.948 22.969 14.986)" color="#000" ><use class="Icon" transform="matrix(.97869 0 0 .96771 .48935 .48386)" width="45.93714462781923" height="29.97276675432604" fill="transparent"  stroke="#000" xlink:href="#d"/></g><g class="Label" transform="translate(355 327.33)" color="#000"  name="Kinase Scaffold"><use class="Icon" width="90" height="25" fill="transparent"  stroke="#000" stroke-width="0" xlink:href="#b"/><text class="Text" transform="translate(45,16.5)"   font-size="12px" font-weight="bold"  text-anchor="middle"><tspan x="0" y="-6.6000000000000005">Kinase</tspan> <tspan x="0" y="6.6000000000000005">Scaffold</tspan></text></g><a  class="Uniprot-TrEMBL_Q06138 Protein P594_ENSMUSG00000036707 " transform="translate(250 329.83)"   name="Cab39"  ><rect class="Icon" transform="matrix(.98361 0 0 .95238 .4918 .47619)" width="60" height="20" fill="#fff" stroke="#000"/><text class="Text" transform="translate(30,13)"   font-size="10px"  text-anchor="middle"><tspan x="0" y="0">Cab39</tspan></text></a><g class="SingleFreeNode Shape" transform="translate(327.03 244.85) rotate(88.948 22.969 14.986)" color="#000" ><use class="Icon" transform="matrix(.97869 0 0 .96771 .48935 .48386)" width="45.93714462781923" height="29.97276675432604" fill="transparent"  stroke="#000" xlink:href="#d"/></g><g class="Label" transform="translate(355 247.33)" color="#000"  name="Terminal Kinase"><use class="Icon" width="90" height="25" fill="transparent"  stroke="#000" stroke-width="0" xlink:href="#b"/><text class="Text" transform="translate(45,16.5)"   font-size="12px" font-weight="bold"  text-anchor="middle"><tspan x="0" y="-6.6000000000000005">Terminal</tspan> <tspan x="0" y="6.6000000000000005">Kinase</tspan></text></g><a  class="Uniprot-TrEMBL_Q9Z1W9 Protein P594_ENSMUSG00000027030 " transform="translate(220 249.83)"   name="SPAK"  ><rect class="Icon" transform="matrix(.98361 0 0 .95238 .4918 .47619)" width="60" height="20" fill="#fff" stroke="#000"/><g class="Burr State" transform="translate(47.5,7.5)" color="#000"  name="P"><use class="Icon" transform="matrix(.96154 0 0 .96154 .48077 .48077)" width="25" height="25" fill="#ffcccc" stroke="#000" xlink:href="#e"/><text class="Text" transform="translate(12.5,15.5)"   font-size="10px"  text-anchor="middle"><tspan x="0" y="0">P</tspan></text></g><text class="Text" transform="translate(30,13)"   font-size="10px"  text-anchor="middle"><tspan x="0" y="0">SPAK</tspan></text></a><g class="SingleFreeNode Shape" transform="translate(922.14 208.72)" color="#000" ><use class="Icon" transform="matrix(.97523 0 0 .98371 .48761 .49185)" width="39.365546218487125" height="60.3739495798319" fill="#999" stroke="#000" xlink:href="#a"/></g><g class="SingleFreeNode Shape" transform="translate(459.79 206.37)" color="#000" ><use class="Icon" transform="matrix(.97523 0 0 .98371 .48761 .49185)" width="39.365546218487125" height="60.3739495798319" fill="#999" stroke="#000" xlink:href="#a"/></g><g class="SingleFreeNode Shape" transform="translate(-4.4307 204.01)" color="#000" ><use class="Icon" transform="matrix(.97523 0 0 .98371 .48761 .49185)" width="39.365546218487125" height="60.3739495798319" fill="#999" stroke="#000" xlink:href="#a"/></g><g class="GroupComplex" transform="translate(618,397)" color="grey" ><use class="Icon" transform="matrix(.99355 0 0 .98824 .49677 .49412)" width="154" height="84" fill="#b4b464" fill-opacity=".1" stroke="grey" xlink:href="#h"/><g class="Uniprot-TrEMBL_P83741-7 Protein" transform="translate(62,32)" color="#000"  name="KS-WNK1"><rect class="Icon" transform="matrix(.98765 0 0 .95238 .49383 .47619)" width="80" height="20" fill="#fff" stroke="#000"/><text class="Text" transform="translate(40,13)"   font-size="10px"  text-anchor="middle"><tspan x="0" y="0">KS-WNK1</tspan></text></g><a  class="Uniprot-TrEMBL_P83741 Protein P594_ENSMUSG00000045962 " transform="translate(62,52)"   name="WNK1"  ><rect class="Icon" transform="matrix(.98765 0 0 .95238 .49383 .47619)" width="80" height="20" fill="#fff" stroke="#000"/><text class="Text" transform="translate(40,13)"   font-size="10px"  text-anchor="middle"><tspan x="0" y="0">WNK1</tspan></text></a><a  class="Uniprot-TrEMBL_Q80UE6 Protein P594_ENSMUSG00000035112 " transform="translate(12,12)"   name="WNK4"  ><rect class="Icon" transform="matrix(.98361 0 0 .95238 .4918 .47619)" width="60" height="20" fill="#fff" stroke="#000"/><text class="Text" transform="translate(30,13)"   font-size="10px"  text-anchor="middle"><tspan x="0" y="0">WNK4</tspan></text></a><a class="Metabolite ChEBI_CHEBI_17996  " transform="translate(28 36.832)" color="#006600"  name="Cl-"  ><use class="Icon" transform="matrix(.96552 0 0 .95652 .48276 .47826)" width="28" height="22" fill="#fff" stroke="#006600" xlink:href="#a"/><text class="Text" transform="translate(14,15)" fill="#006600"  font-size="12px" font-weight="bold"  text-anchor="middle"><tspan x="0" y="0">Cl-</tspan></text></a></g><a  class="Uniprot-TrEMBL_Q06138 Protein P594_ENSMUSG00000036707 " transform="translate(710 329.83)"   name="Cab39"  ><rect class="Icon" transform="matrix(.98361 0 0 .95238 .4918 .47619)" width="60" height="20" fill="#fff" stroke="#000"/><text class="Text" transform="translate(30,13)"   font-size="10px"  text-anchor="middle"><tspan x="0" y="0">Cab39</tspan></text></a><a  class="Uniprot-TrEMBL_Q9Z1W9 Protein P594_ENSMUSG00000027030 " transform="translate(680 249.83)"   name="SPAK"  ><rect class="Icon" transform="matrix(.98361 0 0 .95238 .4918 .47619)" width="60" height="20" fill="#fff" stroke="#000"/><text class="Text" transform="translate(30,13)"   font-size="10px"  text-anchor="middle"><tspan x="0" y="0">SPAK</tspan></text></a><g class="SingleFreeNode Shape" transform="translate(750.43 425.01) rotate(88.948 51.827 14.986)" color="#000" ><use class="Icon" transform="matrix(.99044 0 0 .96771 .49522 .48386)" width="103.65414492711699" height="29.97276675432604" fill="transparent"  stroke="#000" xlink:href="#d"/></g><g class="Label" transform="translate(807.25 427.5)" color="#000"  name="Inactive Complex"><use class="Icon" width="90" height="25" fill="transparent"  stroke="#000" stroke-width="0" xlink:href="#b"/><text class="Text" transform="translate(45,16.5)"   font-size="12px" font-weight="bold"  text-anchor="middle"><tspan x="0" y="-6.6000000000000005">Inactive</tspan> <tspan x="0" y="6.6000000000000005">Complex</tspan></text></g><g class="SingleFreeNode Shape" transform="translate(779.28 324.85) rotate(88.948 22.969 14.986)" color="#000" ><use class="Icon" transform="matrix(.97869 0 0 .96771 .48935 .48386)" width="45.93714462781923" height="29.97276675432604" fill="transparent"  stroke="#000" xlink:href="#d"/></g><g class="Label" transform="translate(807.25 327.33)" color="#000"  name="Kinase Scaffold"><use class="Icon" width="90" height="25" fill="transparent"  stroke="#000" stroke-width="0" xlink:href="#b"/><text class="Text" transform="translate(45,16.5)"   font-size="12px" font-weight="bold"  text-anchor="middle"><tspan x="0" y="-6.6000000000000005">Kinase</tspan> <tspan x="0" y="6.6000000000000005">Scaffold</tspan></text></g><g class="SingleFreeNode Shape" transform="translate(779.28 244.85) rotate(88.948 22.969 14.986)" color="#000" ><use class="Icon" transform="matrix(.97869 0 0 .96771 .48935 .48386)" width="45.93714462781923" height="29.97276675432604" fill="transparent"  stroke="#000" xlink:href="#d"/></g><g class="Label" transform="translate(808.25 247.33)" color="#000"  name="Terminal Kinase"><use class="Icon" width="90" height="25" fill="transparent"  stroke="#000" stroke-width="0" xlink:href="#b"/><text class="Text" transform="translate(45,16.5)"   font-size="12px" font-weight="bold"  text-anchor="middle"><tspan x="0" y="-6.6000000000000005">Terminal</tspan> <tspan x="0" y="6.6000000000000005">Kinase</tspan></text></g><a  class="Uniprot-TrEMBL_Q9Z307 Protein P594_ENSMUSG00000051497 " transform="translate(830,590)"   name="kir5.1"  ><rect class="Icon" transform="matrix(.98361 0 0 .95238 .4918 .47619)" width="60" height="20" fill="#fff" stroke="#000"/><text class="Text" transform="translate(30,13)"   font-size="10px"  text-anchor="middle"><tspan x="0" y="0">kir5.1</tspan></text></a><a  class="Uniprot-TrEMBL_Q9WUB6 Protein P594_ENSMUSG00000006216 " transform="translate(530,600)"   name="CLC-K2"  ><rect class="Icon" transform="matrix(.98361 0 0 .95238 .4918 .47619)" width="60" height="20" fill="#fff" stroke="#000"/><text class="Text" transform="translate(30,13)"   font-size="10px"  text-anchor="middle"><tspan x="0" y="0">CLC-K2</tspan></text></a><g class="Uniprot-TrEMBL_Q9jm63 Protein" transform="translate(830,610)" color="#000"  name="kir4.1"><rect class="Icon" transform="matrix(.98361 0 0 .95238 .4918 .47619)" width="60" height="20" fill="#fff" stroke="#000"/><text class="Text" transform="translate(30,13)"   font-size="10px"  text-anchor="middle"><tspan x="0" y="0">kir4.1</tspan></text></g><a class="Metabolite ChEBI_CHEBI_29103  " transform="translate(846 540.83)" color="#00f"  name="K+"  ><use class="Icon" transform="matrix(.96552 0 0 .95652 .48276 .47826)" width="28" height="22" fill="#fff" stroke="#00f" xlink:href="#a"/><text class="Text" transform="translate(14,15)" fill="#00f"  font-size="12px" font-weight="bold"  text-anchor="middle"><tspan x="0" y="0">K+</tspan></text></a><a class="Metabolite ChEBI_CHEBI_29101  " transform="translate(679.41 115.44)" color="#ff0033"  name="Na+"  ><use class="Icon" transform="matrix(.96552 0 0 .95652 .48276 .47826)" width="28" height="22" fill="#fff" stroke="#ff0033" xlink:href="#a"/><text class="Text" transform="translate(14,15)" fill="#ff0033"  font-size="12px" font-weight="bold" stroke="black" stroke-width="0" text-anchor="middle"><tspan x="0" y="0">Na+</tspan></text></a><a class="Metabolite ChEBI_CHEBI_17996  " transform="translate(715.65 114.21)" color="#006600"  name="Cl-"  ><use class="Icon" transform="matrix(.96552 0 0 .95652 .48276 .47826)" width="28" height="22" fill="#fff" stroke="#006600" xlink:href="#a"/><text class="Text" transform="translate(14,15)" fill="#006600"  font-size="12px" font-weight="bold"  text-anchor="middle"><tspan x="0" y="0">Cl-</tspan></text></a><g class="Label" transform="translate(492,177.5)" color="#000"  name="Apical Membrane"><use class="Icon" width="116" height="25" fill="transparent"  stroke="#000" stroke-width="0" xlink:href="#b"/><text class="Text" transform="translate(58,16.5)"   font-size="12px" font-weight="bold"  text-anchor="middle"><tspan x="0" y="0">Apical Membrane</tspan></text></g><g id="r" class="Interaction" color="#000" ><g color="#000" fill="transparent"  filter="url(#c)" stroke="#000" stroke-dasharray="104.4484933465286, 5.8"><path class="EdgeBody" d="m108.11 560.85-38.933 103.15"   marker-end="url(#f)" /></g></g><a  class="Uniprot-TrEMBL_Q9WUB6 Protein P594_ENSMUSG00000006216 " transform="translate(70,600)"   name="CLC-K2"  ><rect class="Icon" transform="matrix(.98361 0 0 .95238 .4918 .47619)" width="60" height="20" fill="#fff" stroke="#000"/><text class="Text" transform="translate(30,13)"   font-size="10px"  text-anchor="middle"><tspan x="0" y="0">CLC-K2</tspan></text></a><a class="Metabolite ChEBI_CHEBI_17996  " transform="translate(55.177 664)" color="#006600"  name="Cl-"  ><use class="Icon" transform="matrix(.96552 0 0 .95652 .48276 .47826)" width="28" height="22" fill="#fff" stroke="#006600" xlink:href="#a"/><text class="Text" transform="translate(14,15)" fill="#006600"  font-size="12px" font-weight="bold"  text-anchor="middle"><tspan x="0" y="0">Cl-</tspan></text></a><a class="Metabolite ChEBI_CHEBI_29103  " transform="translate(384.34 661.92)" color="#00f"  name="K+"  ><use class="Icon" transform="matrix(.96552 0 0 .95652 .48276 .47826)" width="28" height="22" fill="#fff" stroke="#00f" xlink:href="#a"/><text class="Text" transform="translate(14,15)" fill="#00f"  font-size="12px" font-weight="bold"  text-anchor="middle"><tspan x="0" y="0">K+</tspan></text></a><g id="s" class="Interaction" color="#000" ><g color="#000" fill="transparent"  filter="url(#c)" stroke="#000" stroke-dasharray="75.66013595319019, 5.8"><path class="EdgeBody" d="m259.7 134.71 13.409 80.349"   marker-end="url(#f)" /></g></g><a class="Metabolite ChEBI_CHEBI_29101  " transform="translate(193.88 216.12)" color="#ff0033"  name="Na+"  ><use class="Icon" transform="matrix(.96552 0 0 .95652 .48276 .47826)" width="28" height="22" fill="#fff" stroke="#ff0033" xlink:href="#a"/><text class="Text" transform="translate(14,15)" fill="#ff0033"  font-size="12px" font-weight="bold" stroke="black" stroke-width="0" text-anchor="middle"><tspan x="0" y="0">Na+</tspan></text></a><a class="Metabolite ChEBI_CHEBI_17996  " transform="translate(259.11 215.06)" color="#006600"  name="Cl-"  ><use class="Icon" transform="matrix(.96552 0 0 .95652 .48276 .47826)" width="28" height="22" fill="#fff" stroke="#006600" xlink:href="#a"/><text class="Text" transform="translate(14,15)" fill="#006600"  font-size="12px" font-weight="bold"  text-anchor="middle"><tspan x="0" y="0">Cl-</tspan></text></a><a  class="Uniprot-TrEMBL_P59158 Protein P594_ENSMUSG00000031766 " transform="translate(208.41 169.32)"   name="NCC"  ><rect class="Icon" transform="matrix(.98765 0 0 .95238 .49383 .47619)" width="80" height="20" fill="#fff" stroke="#000"/><g class="Burr State" transform="translate(67.5,7.5)" color="#000"  name="P"><use class="Icon" transform="matrix(.96154 0 0 .96154 .48077 .48077)" width="25" height="25" fill="#ffcccc" stroke="#000" xlink:href="#e"/><text class="Text" transform="translate(12.5,15.5)"   font-size="10px"  text-anchor="middle"><tspan x="0" y="0">P</tspan></text></g><text class="Text" transform="translate(40,13)"   font-size="10px"  text-anchor="middle"><tspan x="0" y="0">NCC</tspan></text></a><g class="Label" transform="translate(654.11 697.5)" color="#000"  name="INACTIVE"><use class="Icon" width="111.78614823815317" height="25" fill="transparent"  stroke="#000" stroke-width="0" xlink:href="#b"/><text class="Text" transform="translate(55.893 18.5)"   font-size="20px" font-weight="bold"  text-anchor="middle"><tspan x="0" y="0">INACTIVE</tspan></text></g><a class="Metabolite ChEBI_CHEBI_29101  " transform="translate(657.12 214.53)" color="#ff0033"  name="Na+"  ><use class="Icon" transform="matrix(.96552 0 0 .95652 .48276 .47826)" width="28" height="22" fill="#fff" stroke="#ff0033" xlink:href="#a"/><text class="Text" transform="translate(14,15)" fill="#ff0033"  font-size="12px" font-weight="bold" stroke="black" stroke-width="0" text-anchor="middle"><tspan x="0" y="0">Na+</tspan></text></a><g id="t" class="DirectedInteraction" color="#000" ><g color="#000" fill="transparent"  filter="url(#c)" stroke="#000" stroke-dasharray="74.13189855871276, 5.8"><path class="EdgeBody" d="m729.65 136.21 21.136 77.087"   marker-end="url(#g)" /></g></g><a class="Metabolite ChEBI_CHEBI_17996  " transform="translate(736.79 213.3)" color="#006600"  name="Cl-"  ><use class="Icon" transform="matrix(.96552 0 0 .95652 .48276 .47826)" width="28" height="22" fill="#fff" stroke="#006600" xlink:href="#a"/><text class="Text" transform="translate(14,15)" fill="#006600"  font-size="12px" font-weight="bold"  text-anchor="middle"><tspan x="0" y="0">Cl-</tspan></text></a><a  class="Uniprot-TrEMBL_P59158 Protein P594_ENSMUSG00000031766 " transform="translate(670 165.08)"   name="NCC"  ><rect class="Icon" transform="matrix(.98765 0 0 .95238 .49383 .47619)" width="80" height="20" fill="#fff" stroke="#000"/><text class="Text" transform="translate(40,13)"   font-size="10px"  text-anchor="middle"><tspan x="0" y="0">NCC</tspan></text></a><a class="Metabolite ChEBI_CHEBI_29103  " transform="translate(897.98 652.07)" color="#00f"  name="K+"  ><use class="Icon" transform="matrix(.96552 0 0 .95652 .48276 .47826)" width="28" height="22" fill="#fff" stroke="#00f" xlink:href="#a"/><text class="Text" transform="translate(14,15)" fill="#00f"  font-size="12px" font-weight="bold"  text-anchor="middle"><tspan x="0" y="0">K+</tspan></text></a><a class="Metabolite ChEBI_CHEBI_17996  " transform="translate(567.9 541.45)" color="#006600"  name="Cl-"  ><use class="Icon" transform="matrix(.96552 0 0 .95652 .48276 .47826)" width="28" height="22" fill="#fff" stroke="#006600" xlink:href="#a"/><text class="Text" transform="translate(14,15)" fill="#006600"  font-size="12px" font-weight="bold"  text-anchor="middle"><tspan x="0" y="0">Cl-</tspan></text></a><a class="Metabolite ChEBI_CHEBI_17996  " transform="translate(521.97 666.59)" color="#006600"  name="Cl-"  ><use class="Icon" transform="matrix(.96552 0 0 .95652 .48276 .47826)" width="28" height="22" fill="#fff" stroke="#006600" xlink:href="#a"/><text class="Text" transform="translate(14,15)" fill="#006600"  font-size="12px" font-weight="bold"  text-anchor="middle"><tspan x="0" y="0">Cl-</tspan></text></a><text class="Text" transform="translate(5,27)" dominant-baseline="central" fill="black"  font-size="12px" font-weight="bold" overflow="visible" ><tspan x="0" y="-9">Name: Distal convoluted tubule 1 (DCT1) cell</tspan> <tspan x="0" y="9">Organism: Mus musculus</tspan></text></g></svg>
