<?xml version="1.0" encoding="UTF-8"?>
<!--
  WikiPathways page: https://www.wikipathways.org/index.php/Pathway:WP4299
  URL for this compressed file: https://github.com/eweitz/cachome/tree/main/data/wikipathways/WP4299.svg
  Source code for compression: https://github.com/eweitz/cachome/tree/main/src/wikipathways.py
-->
<svg class="Diagram" width="800" height="600" color="black" baseProfile="full" prefix="schema:http://schema.org/" preserveAspectRatio="xMidYMid" version="1.1" viewBox="0 0 1283.5 484.87" vocab="http://vocabularies.wikipathways.org/wp#" xmlns="http://www.w3.org/2000/svg" xmlns:xlink="http://www.w3.org/1999/xlink"><style>svg {font-family: 'Liberation Sans', Arial, sans-serif; }</style><defs><filter id="a" x="0" y="0" width="1283.5" height="484.87" filterUnits="userSpaceOnUse"><feColorMatrix in="SourceGraphic" values="-1   0   0 0 0                   0  -1   0 0 0                   0   0  -1 0 0                   0   0   0 1 0"/></filter><filter id="i" x="0" y="0" width="1283.5" height="484.87" filterUnits="userSpaceOnUse"><feColorMatrix in="SourceGraphic" values="-1   0   0 0 1                   0  -1   0 0 0                   0   0  -1 0 0                   0   0   0 1 0"/></filter><marker id="h" stroke-dasharray="99999" markerHeight="12" markerUnits="userSpaceOnUse" markerWidth="12" orient="auto" preserveAspectRatio="none" refX="12" refY="6" viewBox="0 0 12 12"><path transform="rotate(180 6 6)" d="M12 11L0 6l12-5z" fill="currentColor" stroke-width="0"/></marker><marker id="e" stroke-dasharray="99999" markerHeight="12" markerUnits="userSpaceOnUse" markerWidth="12" orient="auto" preserveAspectRatio="none" refX="12" refY="6" viewBox="0 0 12 12"><circle transform="rotate(180 6 6)" cx="6" cy="6" r="5.3" fill="none" stroke="#000"/></marker><marker id="g" stroke-dasharray="99999" markerHeight="30" markerUnits="userSpaceOnUse" markerWidth="20" orient="auto" preserveAspectRatio="none" refX="20" refY="15" viewBox="0 0 20 30"><g transform="rotate(180 10 15)" stroke="#000"><path d="m18 14.5v15.5l-18-30"/></g></marker><marker id="d" stroke-dasharray="99999" markerHeight="12" markerUnits="userSpaceOnUse" markerWidth="12" orient="auto" preserveAspectRatio="none" refX="12" refY="6" viewBox="0 0 12 12"><path transform="rotate(180 6 6)" d="M12 11L0 6l12-5z" fill="currentColor" stroke-width="0"/></marker><marker id="f" stroke-dasharray="99999" markerHeight="24" markerUnits="userSpaceOnUse" markerWidth="20" orient="auto" preserveAspectRatio="none" refX="20" refY="12" viewBox="0 0 20 24"><g transform="rotate(180 10 12)" fill="none" stroke="#000"><path d="M15 12V5M15.5 5H8M0 5l8-4v8z"/></g></marker><symbol id="c" overflow="visible" preserveAspectRatio="none" viewBox="0 0 50 50"><ellipse cx="25" cy="25" rx="25" ry="25" stroke="currentColor" vector-effect="non-scaling-stroke"/></symbol><symbol id="b" preserveAspectRatio="none" viewBox="0 0 100 100"/></defs><g class="Viewport" color="black"  name="Name: Lamin A-processing pathway Organism: Homo sapiens"><rect class="Icon" width="1283.5" height="484.87" fill="#fff" stroke="#000" stroke-width="0"/><a class="ChEBI_CHEBI_15356 Metabolite ChEBI_CHEBI_35237   " transform="translate(1012.6 261.47)" color="#00f"  name="C"  ><rect class="Icon" transform="matrix(.98871 0 0 .9666 .49436 .4833)" width="87.598" height="28.941" fill="#fff" stroke="#00f"/><text class="Text" transform="translate(43.799 18.47)" fill="#00f"  font-size="12px"  text-anchor="middle"><tspan x="0" y="0">C</tspan></text></a><g id="j" class="Interaction" color="#000" ><g color="#000" fill="transparent"  filter="url(#a)" stroke="#000" stroke-dasharray="34.43615374034319, 18"><path class="EdgeBody" d="m532.58 276.24-0.67679 52.432"   marker-end="url(#g)" /></g></g><g id="k" class="Interaction" color="#000" ><g color="#000" fill="transparent"  filter="url(#a)" stroke="#000" stroke-dasharray="174.74358074492184, 5.8"><path class="EdgeBody" d="m380.3 275.99 180.54 0.3025"   marker-end="url(#d)" /></g><g class="Burr Anchor" transform="translate(510.79 276.21)" ><use class="Icon" width="0" height="0" fill="#141414" stroke-width="0" xlink:href="#b"/></g><g class="Burr Anchor" transform="translate(532.58 276.24)" ><use class="Icon" width="0" height="0" fill="#141414" stroke-width="0" xlink:href="#b"/></g></g><g class="Label" transform="translate(380.3 262.91)" color="#000"  name="CaaX group"><rect class="Icon" transform="matrix(.99033 0 0 .96317 .49516 .48158)" width="102.4" height="26.15" fill="#fff" stroke="#000"/><text class="Text" transform="translate(51.2 17.075)"   font-size="12px"  text-anchor="middle"><tspan x="0" y="0">CaaX group</tspan></text></g><g id="l" class="Interaction" color="#000" ><g color="#000" fill="transparent"  filter="url(#a)" stroke="#000" stroke-dasharray="47.29705628311757, 11"><path class="EdgeBody" d="m510.85 217.91-0.060756 58.297"   marker-end="url(#e)" /></g></g><g id="m" class="DirectedInteraction" color="#f00" ><g color="#f00" fill="transparent"  filter="url(#i)" stroke="#000" stroke-dasharray="5.14, 3.08, 5.14, 3.08, 5.14, 3.08, 5.14, 3.08, 5.14, 3.08, 5.14, 3.08, 5.14, 3.08, 5.14, 3.08, 5.14, 3.08, 5.14, 3.08, 5.14, 3.08, 5.14, 3.08, 5.14, 3.08, 5.14, 3.08, 5.14, 3.08, 5.14, 3.08, 5.14, 3.08, 5.14, 3.08, 5.14, 3.08, 5.14, 3.08, 5.14, 3.08, 5.14, 3.08, 5.14, 3.08, 0, 5.8"><path class="EdgeBody" d="m979.34 345.57 176.15 75.957"   marker-end="url(#h)" /></g></g><g id="n" class="Interaction" color="#000" ><g color="#000" fill="transparent"  filter="url(#a)" stroke="#000" stroke-dasharray="43.68608970657322, 11"><path class="EdgeBody" d="m784.79 221.39 0.014189 54.686"   marker-end="url(#e)" /></g></g><g id="o" class="Interaction" color="#000" ><g color="#000" fill="transparent"  filter="url(#a)" stroke="#000" stroke-dasharray="50.93645588434467, 11"><path class="EdgeBody" d="m757.3 447.93 0.52132-61.934"   marker-end="url(#f)" /></g></g><g id="p" class="Interaction" color="#000" ><g color="#000" fill="transparent"  filter="url(#a)" stroke="#000" stroke-dasharray="23.417944786020335, 11"><path class="EdgeBody" d="m511.63 158.5-0.78333 34.409"   marker-end="url(#f)" /></g></g><g id="q" class="Interaction" color="#000" ><g color="#000" fill="transparent"  filter="url(#a)" stroke="#000" stroke-dasharray="120.64715979314332, 5.8"><path class="EdgeBody" d="m979.15 290.38 0.4208 126.45"   marker-end="url(#d)" /></g><g class="Burr Anchor" transform="translate(979.34 345.57)" ><use class="Icon" width="0" height="0" fill="#141414" stroke-width="0" xlink:href="#b"/></g><g class="Burr Anchor" transform="translate(979.43 374.07)" ><use class="Icon" width="0" height="0" fill="#141414" stroke-width="0" xlink:href="#b"/></g></g><g id="r" class="Interaction" color="#000" ><g color="#000" fill="transparent"  filter="url(#a)" stroke="#000" stroke-dasharray="30.845225622946288, 11"><path class="EdgeBody" d="m246.08 234.15 0.80902 41.837"   marker-end="url(#e)" /></g></g><g id="s" class="Interaction" color="#000" ><g color="#000" fill="transparent"  filter="url(#a)" stroke="#000" stroke-dasharray="49.28387101389811, 11"><path class="EdgeBody" d="m919.15 373.5 60.281 0.5685"   marker-end="url(#e)" /></g></g><g id="t" class="Interaction" color="#000" ><g color="#000" fill="transparent"  filter="url(#a)" stroke="#000" stroke-dasharray="41.76246595127107, 11"><path class="EdgeBody" d="m63.483 210.15-0.080751 52.762"   marker-end="url(#f)" /></g></g><g id="u" class="Interaction" color="#000" ><g color="#000" fill="transparent"  filter="url(#a)" stroke="#000" stroke-dasharray="198.09965962988517, 5.8"><path class="EdgeBody" d="m672.64 276.29 203.9-0.38419"   marker-end="url(#d)" /></g><g class="Burr Anchor" transform="translate(784.8 276.08)" ><use class="Icon" width="0" height="0" fill="#141414" stroke-width="0" xlink:href="#b"/></g></g><g id="v" class="Interaction" color="#000" ><g color="#000" fill="transparent"  filter="url(#a)" stroke="#000" stroke-dasharray="161.45001802196361, 5.8"><path class="EdgeBody" d="m114.6 275.99h167.25"   marker-end="url(#d)" /></g><g class="Burr Anchor" transform="translate(246.89 275.99)" ><use class="Icon" width="0" height="0" fill="#141414" stroke-width="0" xlink:href="#b"/></g></g><g id="w" class="Interaction" color="#000" ><g color="#000" fill="transparent"  filter="url(#a)" stroke="#000" stroke-dasharray="105.06785617457496, 18"><path class="EdgeBody" d="m979.34 345.57 123.07 0.047512"   marker-end="url(#g)" /></g></g><g class="Label" transform="translate(114.3 262.91)" color="#000"  name="CaaX group"><rect class="Icon" transform="matrix(.99033 0 0 .96317 .49516 .48158)" width="102.4" height="26.15" fill="#fff" stroke="#000"/><text class="Text" transform="translate(51.2 17.075)"   font-size="12px"  text-anchor="middle"><tspan x="0" y="0">CaaX group</tspan></text></g><g class="Label" transform="translate(54.767 389)" color="#000"  name="CH3"><use class="Icon" width="90" height="25" fill="transparent"  stroke="#000" stroke-width="0" xlink:href="#b"/><text class="Text" transform="translate(45,16.5)"   font-size="12px"  text-anchor="middle"><tspan x="0" y="0">CH3</tspan></text></g><g class="Label" transform="translate(80.317 350.07)" color="#000"  name="Farnesyl group"><use class="Icon" width="90" height="25" fill="transparent"  stroke="#000" stroke-width="0" xlink:href="#b"/><text class="Text" transform="translate(45,16.5)"   font-size="12px"  text-anchor="middle"><tspan x="0" y="0">Farnesyl group</tspan></text></g><a class="WikiPathways_WP4320 Pathway " transform="translate(1122.8 421.53)" color="#14961e"  name="Progeria syndrome"  ><use class="Icon" width="130.6481481481482" height="25" fill="transparent"  stroke="#14961e" stroke-width="0" xlink:href="#b"/><text class="Text" transform="translate(65.324 16.5)" fill="#14961e"  font-size="12px" font-weight="bold" stroke="black" stroke-width="0" text-anchor="middle"><tspan x="0" y="0">Progeria syndrome</tspan></text></a><g class="GroupGroup" transform="translate(1102.4 313.08)" color="grey" ><use class="Icon" width="106" height="65.07918154761973" fill="transparent"  stroke="grey" stroke-dasharray="5,3" stroke-width="0" xlink:href="#b"/><g class="Unknown" transform="translate(8 32.079)" color="#000"  name="15 amino acids"><rect class="Icon" transform="matrix(.98901 0 0 .96154 .49451 .48077)" width="90" height="25" fill="#fff" stroke="#000"/><text class="Text" transform="translate(45 16.5)"   font-size="12px"  text-anchor="middle"><tspan x="0" y="0">15 amino acids</tspan></text></g><a class="ChEBI_CHEBI_15356 Metabolite ChEBI_CHEBI_35237   " transform="translate(8,8)" color="#00f"  name="C"  ><rect class="Icon" transform="matrix(.98901 0 0 .96154 .49451 .48077)" width="90" height="25" fill="#fff" stroke="#00f"/><g class="Burr State" transform="translate(82.5,-7.5)" color="#ff3300" ><use class="Icon" transform="matrix(.9375 0 0 .9375 .46875 .46875)" width="15" height="15" fill="#ff3300" stroke="#ff3300" xlink:href="#c"/></g><g class="Burr State" transform="translate(82.5 17.5)" color="#0cc" ><use class="Icon" transform="matrix(.9375 0 0 .9375 .46875 .46875)" width="15" height="15" fill="#0cc" stroke="#0cc" xlink:href="#c"/></g><text class="Text" transform="translate(45 16.5)" fill="#00f"  font-size="12px"  text-anchor="middle"><tspan x="0" y="0">C</tspan></text></a></g><a  class="GeneProduct ZMPSTE24 " transform="translate(466.63 133.5)"   name="ZMPSTE24"  ><rect class="Icon" transform="matrix(.98901 0 0 .96154 .49451 .48077)" width="90" height="25" fill="#fff" stroke="#000"/><text class="Text" transform="translate(45,16.5)"   font-size="12px"  text-anchor="middle"><tspan x="0" y="0">ZMPSTE24</tspan></text></a><g class="Protein" transform="translate(176.33 209.15)" color="#000"  name="Farnesyl transferase"><rect class="Icon" transform="matrix(.99288 0 0 .96154 .49644 .48077)" width="139.5" height="25" fill="#fff" stroke="#000"/><text class="Text" transform="translate(69.75 16.5)"   font-size="12px"  text-anchor="middle"><tspan x="0" y="0">Farnesyl transferase</tspan></text></g><a  class="GeneProduct LMNA " transform="translate(18.483 185.15)"   name="LMNA"  ><rect class="Icon" transform="matrix(.98901 0 0 .96154 .49451 .48077)" width="90" height="25" fill="transparent"  stroke="#000"/><text class="Text" transform="translate(45,16.5)"   font-size="12px"  text-anchor="middle"><tspan x="0" y="0">LMNA</tspan></text></a><g class="Protein" transform="translate(486.91 328.67)" color="#000"  name="aaX"><rect class="Icon" transform="matrix(.98901 0 0 .96154 .49451 .48077)" width="90" height="25" fill="#fff" stroke="#000"/><text class="Text" transform="translate(45,16.5)"   font-size="12px"  text-anchor="middle"><tspan x="0" y="0">aaX</tspan></text></g><a  class="Uniprot-TrEMBL_O75844 Protein ZMPSTE24 " transform="translate(403.3 192.91)"   name="CAAX prenyl protease 1 homolog"  ><rect class="Icon" transform="matrix(.99537 0 0 .96154 .49769 .48077)" width="215.1" height="25" fill="#fff" stroke="#000"/><text class="Text" transform="translate(107.55,16.5)"   font-size="12px"  text-anchor="middle"><tspan x="0" y="0">CAAX prenyl protease 1 homolog</tspan></text></a><g class="Protein" transform="translate(908.57 416.82)" color="#000"  name="Mature lamin A"><rect class="Icon" transform="matrix(.99301 0 0 .97439 .4965 .48719)" width="142.01" height="38.046" fill="#fff" stroke="#000"/><text class="Text" transform="translate(71.006 23.023)"   font-size="12px"  text-anchor="middle"><tspan x="0" y="0">Mature lamin A</tspan></text></g><a  class="Uniprot-TrEMBL_O60725 Protein ICMT " transform="translate(642.79 196.39)"   name="Protein-S-isoprenylcysteine O-methyltransferase"  ><rect class="Icon" transform="matrix(.99649 0 0 .96154 .49825 .48077)" width="284" height="25" fill="#fff" stroke="#000"/><text class="Text" transform="translate(142,16.5)"   font-size="12px"  text-anchor="middle"><tspan x="0" y="0">Protein-S-isoprenylcysteine O-methyltransferase</tspan></text></a><a  class="Uniprot-TrEMBL_P02545 GeneProduct LMNA " transform="translate(281.85 262.91)"   name="Pre-lamin A"  ><rect class="Icon" transform="matrix(.99033 0 0 .96317 .49516 .48158)" width="102.4" height="26.15" fill="#fff" stroke="#000"/><g class="Burr State" transform="translate(94.9 18.65)" color="#0cc" ><use class="Icon" transform="matrix(.9375 0 0 .9375 .46875 .46875)" width="15" height="15" fill="#0cc" stroke="#0cc" xlink:href="#c"/></g><text class="Text" transform="translate(51.2 17.075)"   font-size="12px"  text-anchor="middle"><tspan x="0" y="0">Pre-lamin A</tspan></text></a><a  class="Uniprot-TrEMBL_P02545 GeneProduct LMNA " transform="translate(560.84 263.21)"   name="Pre-lamin A"  ><rect class="Icon" transform="matrix(.99113 0 0 .96317 .49557 .48158)" width="111.8" height="26.15" fill="#fff" stroke="#000"/><g class="Burr State" transform="translate(104.3 18.65)" color="#0cc" ><use class="Icon" transform="matrix(.9375 0 0 .9375 .46875 .46875)" width="15" height="15" fill="#0cc" stroke="#0cc" xlink:href="#c"/></g><text class="Text" transform="translate(55.9 17.075)"   font-size="12px"  text-anchor="middle"><tspan x="0" y="0">Pre-lamin A</tspan></text></a><a class="ChEBI_CHEBI_15356 Metabolite ChEBI_CHEBI_35237   " transform="translate(672.19 263.19)" color="#00f"  name="C"  ><rect class="Icon" transform="matrix(.98092 0 0 .96317 .49046 .48158)" width="51.4" height="26.15" fill="#fff" stroke="#00f"/><text class="Text" transform="translate(25.7 17.075)" fill="#00f"  font-size="12px"  text-anchor="middle"><tspan x="0" y="0">C</tspan></text></a><a  class="Uniprot-TrEMBL_P02545 GeneProduct LMNA " transform="translate(876.54 261.44)"   name="Pre-lamin A"  ><rect class="Icon" transform="matrix(.99274 0 0 .9666 .49637 .4833)" width="136.81" height="28.941" fill="#fff" stroke="#000"/><g class="Burr State" transform="translate(129.31 21.441)" color="#0cc" ><use class="Icon" transform="matrix(.9375 0 0 .9375 .46875 .46875)" width="15" height="15" fill="#0cc" stroke="#0cc" xlink:href="#c"/></g><g class="Burr State" transform="translate(129.31 -7.5)" color="#ff3300" ><use class="Icon" transform="matrix(.9375 0 0 .9375 .46875 .46875)" width="15" height="15" fill="#ff3300" stroke="#ff3300" xlink:href="#c"/></g><text class="Text" transform="translate(68.407 18.47)"   font-size="12px"  text-anchor="middle"><tspan x="0" y="0">Pre-lamin A</tspan></text></a><a  class="Uniprot-TrEMBL_O75844 Protein ZMPSTE24 " transform="translate(704.05 361)"   name="CAAX prenyl protease 1 homolog"  ><rect class="Icon" transform="matrix(.99537 0 0 .96154 .49769 .48077)" width="215.1" height="25" fill="#fff" stroke="#000"/><text class="Text" transform="translate(107.55,16.5)"   font-size="12px"  text-anchor="middle"><tspan x="0" y="0">CAAX prenyl protease 1 homolog</tspan></text></a><a  class="GeneProduct ZMPSTE24 " transform="translate(712.3 422.93)"   name="ZMPSTE24"  ><rect class="Icon" transform="matrix(.98901 0 0 .96154 .49451 .48077)" width="90" height="25" fill="#fff" stroke="#000"/><text class="Text" transform="translate(45,16.5)"   font-size="12px"  text-anchor="middle"><tspan x="0" y="0">ZMPSTE24</tspan></text></a><a  class="Uniprot-TrEMBL_P02545 GeneProduct LMNA " transform="translate(12.203 262.91)"   name="Pre-lamin A"  ><rect class="Icon" transform="matrix(.99033 0 0 .96317 .49516 .48158)" width="102.4" height="26.15" fill="#fff" stroke="#000"/><text class="Text" transform="translate(51.2 17.075)"   font-size="12px"  text-anchor="middle"><tspan x="0" y="0">Pre-lamin A</tspan></text></a><g class="SingleFreeNode Shape" transform="translate(55.967 350.4)" color="#0cc" ><use class="Icon" transform="matrix(.95633 0 0 .95388 .47817 .47694)" width="21.900108131783874" height="20.683435457795785" fill="#0cc" stroke="#0cc" xlink:href="#c"/></g><g class="SingleFreeNode Shape" transform="translate(55.967 389.34)" color="#ff3300" ><use class="Icon" transform="matrix(.95633 0 0 .95388 .47817 .47694)" width="21.900108131783874" height="20.683435457795785" fill="#ff3300" stroke="#ff3300" xlink:href="#c"/></g><text class="Text" transform="translate(5,27)" dominant-baseline="central" fill="black"  font-size="12px" font-weight="bold" overflow="visible" ><tspan x="0" y="-9">Name: Lamin A-processing pathway</tspan> <tspan x="0" y="9">Organism: Homo sapiens</tspan></text></g></svg>
