<?xml version="1.0" encoding="UTF-8"?>
<!--
  WikiPathways page: https://www.wikipathways.org/index.php/Pathway:WP4259
  URL for this compressed file: https://github.com/eweitz/cachome/tree/main/data/wikipathways/WP4259.svg
  Source code for compression: https://github.com/eweitz/cachome/tree/main/src/wikipathways.py
-->
<svg class="Diagram" width="800" height="600" color="black" baseProfile="full" prefix="schema:http://schema.org/" preserveAspectRatio="xMidYMid" version="1.1" viewBox="0 0 1544.4 1245" vocab="http://vocabularies.wikipathways.org/wp#" xmlns="http://www.w3.org/2000/svg" xmlns:xlink="http://www.w3.org/1999/xlink"><style>svg {font-family: 'Liberation Sans', Arial, sans-serif; }</style><defs><filter id="i" x="-50%" y="-50%" width="200%" height="200%"><feComposite in="SourceGraphic" in2="SourceGraphic" result="doubleDark"/><feMorphology in="doubleDark" operator="dilate" radius="0.16666666666666666" result="in2Double"/><feMorphology in="SourceGraphic" operator="dilate" radius="3" result="inDouble"/><feComposite in="inDouble" in2="in2Double" operator="out" result="doubleResult"/></filter><filter id="a" x="0" y="0" width="1544.4" height="1245" filterUnits="userSpaceOnUse"><feColorMatrix in="SourceGraphic" values="-1   0   0 0 0                   0  -1   0 0 0                   0   0  -1 0 0                   0   0   0 1 0"/></filter><filter id="h" x="0" y="0" width="1544.4" height="1245" filterUnits="userSpaceOnUse"><feColorMatrix in="SourceGraphic" values="-1   0   0 0 0                   0  -1   0 0 0.6                   0   0  -1 0 0.2                   0   0   0 1 0"/></filter><filter id="f" x="0" y="0" width="1544.4" height="1245" filterUnits="userSpaceOnUse"><feColorMatrix in="SourceGraphic" values="-1   0   0 0 1                   0  -1   0 0 0                   0   0  -1 0 0.6                   0   0   0 1 0"/></filter><marker id="d" stroke-dasharray="99999" markerHeight="12" markerUnits="userSpaceOnUse" markerWidth="12" orient="auto" preserveAspectRatio="none" refX="12" refY="6" viewBox="0 0 12 12"><path transform="rotate(180 6 6)" d="M12 11L0 6l12-5z" fill="currentColor" stroke-width="0"/></marker><marker id="e" stroke-dasharray="99999" markerHeight="12" markerUnits="userSpaceOnUse" markerWidth="12" orient="auto" preserveAspectRatio="none" refX="12" refY="6" viewBox="0 0 12 12"><circle transform="rotate(180 6 6)" cx="6" cy="6" r="5.3" fill="none" stroke="#000"/></marker><marker id="g" stroke-dasharray="99999" markerHeight="12" markerUnits="userSpaceOnUse" markerWidth="12" orient="auto" preserveAspectRatio="none" refY="6" viewBox="0 0 12 12"><path d="M12 11L0 6l12-5z" fill="currentColor" stroke-width="0"/></marker><marker id="b" stroke-dasharray="99999" markerHeight="12" markerUnits="userSpaceOnUse" markerWidth="12" orient="auto" preserveAspectRatio="none" refX="12" refY="6" viewBox="0 0 12 12"><path transform="rotate(180 6 6)" d="M12 11L0 6l12-5z" fill="currentColor" stroke-width="0"/></marker><symbol id="c" preserveAspectRatio="none" viewBox="0 0 100 100"/></defs><g class="Viewport" color="black"  name="Name: Disorders of folate metabolism and transport Organism: Homo sapiens"><rect class="Icon" width="1544.4" height="1245" fill="#fff" stroke="#000" stroke-width="0"/><g id="j" class="Edge GraphicalLine DirectedInteraction" color="#ff0099" ><g color="#ff0099" fill="transparent"  filter="url(#f)" stroke="#000" stroke-dasharray="41.17411506552349, 5.8"><path class="EdgeBody" d="m535.58 800.72-35.697 30.534"   marker-end="url(#d)" /></g></g><g id="k" class="Interaction" color="#000" ><g color="#000" fill="transparent"  filter="url(#a)" stroke="#000" stroke-dasharray="114.531294923975, 5.8"><path class="EdgeBody" d="m263.96 516.38-92.52 76.939"   marker-end="url(#b)" /></g><g class="Burr Anchor" transform="translate(227.8 546.45)" ><use class="Icon" width="0" height="0" fill="#141414" stroke-width="0" xlink:href="#c"/></g></g><g id="l" class="DirectedInteraction" color="#009933" ><g color="#009933" fill="transparent"  filter="url(#h)" stroke="#000" stroke-dasharray="104.89046148584646, 5.8" stroke-width="3"><path class="EdgeBody" d="m1189.8 894.29 110.68 1.2056"   marker-end="url(#d)" /></g></g><g id="m" class="Interaction" color="#000" ><g color="#000" fill="transparent"  filter="url(#a)" stroke="#000" stroke-dasharray="21.762947111314304, 11"><path class="EdgeBody" d="m506.36 785.89 29.215 14.828"   marker-end="url(#e)" /></g></g><g id="n" class="Interaction" color="#000" ><g color="#000" fill="transparent"  filter="url(#a)" stroke="#000" stroke-dasharray="142.87460449276242, 0"><path class="EdgeBody" d="m1044.3 968.5-24.847-140.7"   /></g></g><g id="o" class="DirectedInteraction" color="#000" ><g color="#000" fill="transparent"  filter="url(#a)" stroke="#000" stroke-dasharray="5.18, 3.11, 5.18, 3.11, 5.18, 3.11, 5.18, 3.11, 5.18, 3.11, 5.18, 3.11, 5.18, 3.11, 5.18, 3.11, 5.18, 3.11, 5.18, 3.11, 5.18, 3.11, 5.18, 3.11, 5.18, 3.11, 5.18, 3.11, 5.18, 3.11, 5.18, 3.11, 5.18, 3.11, 5.18, 3.11, 5.18, 5.8"><path class="EdgeBody" d="m756.75 999.8-2.7689 160.02"   marker-end="url(#d)" /></g><g class="Burr Anchor" transform="translate(755.64 1063.8)" ><use class="Icon" width="0" height="0" fill="#141414" stroke-width="0" xlink:href="#c"/></g></g><g id="p" class="Interaction" color="#000" ><g color="#000" fill="transparent"  filter="url(#a)" stroke="#000" stroke-dasharray="18.24953000982401, 5.8"><path class="EdgeBody" d="m1189.9 881.8-0.26741 24.048"   marker-end="url(#b)" /></g><g class="Burr Anchor" transform="translate(1189.8 894.29)" ><use class="Icon" width="0" height="0" fill="#141414" stroke-width="0" xlink:href="#c"/></g></g><g id="q" class="Interaction" color="#000" ><g color="#000" fill="transparent"  filter="url(#a)" stroke="#000" stroke-dasharray="108.00553068325269, 11"><path class="EdgeBody" d="m121.95 492.06 105.85 54.383"   marker-end="url(#e)" /></g></g><g id="r" class="Interaction" color="#000" ><g color="#000" fill="transparent"  filter="url(#a)" stroke="#000" stroke-dasharray="154.5363981153613, 11"><path class="EdgeBody" d="m573.07 678.81-162.74 30.304"   marker-end="url(#e)" /></g></g><g id="s" class="DirectedInteraction" color="#000" ><g color="#000" fill="transparent"  filter="url(#a)" stroke="#000" stroke-dasharray="112.88501084633074, 5.8"><path class="EdgeBody" d="m535.58 510.13 114.94-29.573"   marker-end="url(#d)" /></g></g><g id="t" class="Interaction" color="#000" ><g color="#000" fill="transparent"  filter="url(#a)" stroke="#000" stroke-dasharray="22.46358634099282, 11"><path class="EdgeBody" d="m761.38 631.5 33.437 1.3414"   marker-end="url(#e)" /></g></g><g id="u" class="Interaction" color="#000" ><g color="#000" fill="transparent"  filter="url(#a)" stroke="#000" stroke-dasharray="0, 5.8, 241.11357686221334, 5.8"><path class="EdgeBody" d="m338.05 781.59v-252.71"   marker-end="url(#b)" marker-start="url(#g)" /></g><g class="Burr Anchor" transform="translate(338.05 669.92)" ><use class="Icon" width="0" height="0" fill="#141414" stroke-width="0" xlink:href="#c"/></g></g><g id="v" class="Interaction" color="#000" ><g color="#000" fill="transparent"  filter="url(#a)" stroke="#000" stroke-dasharray="86.04263307366828, 5.8"><path class="EdgeBody" d="m150.41 774.85 77.394-49.449"   marker-end="url(#b)" /></g></g><g id="w" class="Interaction" color="#000" ><g color="#000" fill="transparent"  filter="url(#a)" stroke="#000" stroke-dasharray="35.34408259834034, 5.8"><path class="EdgeBody" d="m338.05 899.08-41.018-3.217"   marker-end="url(#b)" /></g></g><g id="x" class="Interaction" color="#000" ><g color="#000" fill="transparent"  filter="url(#a)" stroke="#000" stroke-dasharray="0, 5.8, 296.9791138971132, 5.8"><path class="EdgeBody" d="m412.15 800.34 308.58 0.93662"   marker-end="url(#b)" marker-start="url(#g)" /></g><g class="Burr Anchor" transform="translate(535.58 800.72)" ><use class="Icon" width="0" height="0" fill="#141414" stroke-width="0" xlink:href="#c"/></g></g><g id="y" class="Interaction" color="#000" ><g color="#000" fill="transparent"  filter="url(#a)" stroke="#000" stroke-dasharray="128.50642470090713, 5.8"><path class="EdgeBody" d="m433.82 660.8-58.715 120.79"   marker-end="url(#b)" /></g><g class="Burr Anchor" transform="translate(415.72 698.02)" ><use class="Icon" width="0" height="0" fill="#141414" stroke-width="0" xlink:href="#c"/></g><g class="Burr Anchor" transform="translate(410.33 709.12)" ><use class="Icon" width="0" height="0" fill="#141414" stroke-width="0" xlink:href="#c"/></g></g><g id="z" class="Interaction" color="#000" ><g color="#000" fill="transparent"  filter="url(#a)" stroke="#000" stroke-dasharray="71.8305669634549, 5.8"><path class="EdgeBody" d="m634.07 889.58 76.629 12.431"   marker-end="url(#b)" /></g></g><g id="aa" class="Interaction" color="#000" ><g color="#000" fill="transparent"  filter="url(#a)" stroke="#000" stroke-dasharray="17.565253126067287, 11"><path class="EdgeBody" d="m990.96 825.23 28.449 2.5737"   marker-end="url(#e)" /></g></g><g id="ab" class="DirectedInteraction" color="#009933" ><g color="#009933" fill="transparent"  filter="url(#h)" stroke="#000" stroke-dasharray="141.43484992893912, 5.8" stroke-width="3"><path class="EdgeBody" d="m1154.2 450.6 147.22-2.3762"   marker-end="url(#d)" /></g></g><g id="ac" class="Interaction" color="#000" ><g color="#000" fill="transparent"  filter="url(#a)" stroke="#000" stroke-dasharray="111.39705554647306, 5.8"><path class="EdgeBody" d="m945.08 918.42 74.326-90.614"   marker-end="url(#b)" /></g></g><g id="ad" class="DirectedInteraction" color="#000" ><g color="#000" fill="transparent"  filter="url(#a)" stroke="#000" stroke-dasharray="5.14, 3.08, 5.14, 3.08, 5.14, 3.08, 5.14, 3.08, 5.14, 5.8"><path class="EdgeBody" d="m794.82 211.23 3.9e-12 43.824"   marker-end="url(#d)" /></g></g><g id="ae" class="Interaction" color="#000" ><g color="#000" fill="transparent"  filter="url(#a)" stroke="#000" stroke-dasharray="254.10019658052323, 5.8"><path class="EdgeBody" d="m794.82 528.88-6.8e-12 259.9"   marker-end="url(#b)" /></g><g class="Burr Anchor" transform="translate(794.82 632.84)" ><use class="Icon" width="0" height="0" fill="#141414" stroke-width="0" xlink:href="#c"/></g></g><g id="af" class="Interaction" color="#000" ><g color="#000" fill="transparent"  filter="url(#a)" stroke="#000" stroke-dasharray="764.0632566246281, 5.8"><path class="EdgeBody" d="m870.95 987.3h148.45v-470.92h-150.49"   marker-end="url(#b)" /></g><g class="Burr Anchor" transform="translate(1019.4 827.8)" ><use class="Icon" width="0" height="0" fill="#141414" stroke-width="0" xlink:href="#c"/></g></g><g id="ag" class="Interaction" color="#000" ><g color="#000" fill="transparent"  filter="url(#a)" stroke="#000" stroke-dasharray="302.7776924488144, 5.8"><path class="EdgeBody" d="m412.15 510.13h24.973c24.973-6e-14 74.918-6e-14 99.891-6e-14 24.973-4e-14 24.973-4e-14 51.43-1.4e-13 26.457 1e-13 79.371 1e-13 105.83 0l26.457 1e-13"   marker-end="url(#b)" /></g><g class="Burr Anchor" transform="translate(535.58 510.13)" ><use class="Icon" width="0" height="0" fill="#141414" stroke-width="0" xlink:href="#c"/></g></g><g id="ah" class="Interaction" color="#000" ><g color="#000" fill="transparent"  filter="url(#a)" stroke="#000" stroke-dasharray="65.01761706691278, 5.8"><path class="EdgeBody" d="m227.8 546.45 9.201-70.217"   marker-end="url(#b)" /></g></g><g id="ai" class="Interaction" color="#000" ><g color="#000" fill="transparent"  filter="url(#a)" stroke="#000" stroke-dasharray="155.21743090924696, 5.8"><path class="EdgeBody" d="m794.82 813.78 6.4e-12 161.02"   marker-end="url(#b)" /></g><g class="Burr Anchor" transform="translate(794.82 934.05)" ><use class="Icon" width="0" height="0" fill="#141414" stroke-width="0" xlink:href="#c"/></g></g><g id="aj" class="Interaction" color="#000" ><g color="#000" fill="transparent"  filter="url(#a)" stroke="#000" stroke-dasharray="95.61243184440822, 5.8"><path class="EdgeBody" d="m127.91 563.93 99.894-17.481"   marker-end="url(#b)" /></g></g><g id="ak" class="Interaction" color="#000" ><g color="#000" fill="transparent"  filter="url(#a)" stroke="#000" stroke-dasharray="40.488416492130185, 5.8"><path class="EdgeBody" d="m1168.9 831.59h21.077v25.211"   marker-end="url(#b)" /></g></g><g id="al" class="Interaction" color="#000" ><g color="#000" fill="transparent"  filter="url(#a)" stroke="#000" stroke-dasharray="25.187080302110715, 5.8"><path class="EdgeBody" d="m1019.4 827.8 30.755 3.7814"   marker-end="url(#b)" /></g></g><g id="am" class="DirectedInteraction" color="#009933" ><g color="#009933" fill="transparent"  filter="url(#h)" stroke="#000" stroke-dasharray="266.84697288863384, 5.8" stroke-width="3"><path class="EdgeBody" d="m237.01 451.23-2.4219-272.64"   marker-end="url(#d)" /></g></g><g id="an" class="Edge GraphicalLine DirectedInteraction" color="#ff0099" ><g color="#ff0099" fill="transparent"  filter="url(#f)" stroke="#000" stroke-dasharray="38.87990323331279, 5.8"><path class="EdgeBody" d="m899.57 1093.6 42.035-15.146"   marker-end="url(#d)" /></g></g><g id="ao" class="Interaction" color="#000" ><g color="#000" fill="transparent"  filter="url(#a)" stroke="#000" stroke-dasharray="98.93243358607548, 5.8"><path class="EdgeBody" d="m1043.2 553.2 21.016-102.6"   marker-end="url(#b)" /></g></g><g id="ap" class="Edge GraphicalLine DirectedInteraction" color="#ff0099" ><g color="#ff0099" fill="transparent"  filter="url(#f)" stroke="#000" stroke-dasharray="36.76080938156808, 5.8"><path class="EdgeBody" d="m410.33 709.12 40.02 14.485"   marker-end="url(#d)" /></g></g><g id="aq" class="Interaction" color="#000" ><g color="#000" fill="transparent"  filter="url(#a)" stroke="#000" stroke-dasharray="0, 5.8, 100.89256521837741, 5.8"><path class="EdgeBody" d="m375.1 528.88 58.715 95.954"   marker-end="url(#b)" marker-start="url(#g)" /></g><g class="Burr Anchor" transform="translate(398.59 567.26)" ><use class="Icon" width="0" height="0" fill="#141414" stroke-width="0" xlink:href="#c"/></g></g><g id="ar" class="Interaction" color="#000" ><g color="#000" fill="transparent"  filter="url(#a)" stroke="#000" stroke-dasharray="62.38777101625466, 11"><path class="EdgeBody" d="m588 946.7 46.077-57.12"   marker-end="url(#e)" /></g></g><g id="as" class="Interaction" color="#000" ><g color="#000" fill="transparent"  filter="url(#a)" stroke="#000" stroke-dasharray="5.02, 3.01, 5.02, 3.01, 5.02, 3.01, 5.02, 3.01, 5.02, 3.01, 5.02, 3.01, 5.02, 3.01, 5.02, 3.01, 5.02, 3.01, 5.02, 3.01, 5.02, 3.01, 5.02, 3.01, 5.02, 3.01, 5.02, 3.01, 5.02, 3.01, 5.02, 3.01, 5.02, 3.01, 5.02, 3.01, 5.02, 3.01, 5.02, 3.01, 5.02, 3.01, 5.02, 3.01, 5.02, 3.01, 5.02, 3.01, 5.02, 3.01, 5.02, 3.01, 5.02, 3.01, 5.02, 3.01, 5.02, 3.01, 5.02, 3.01, 5.02, 3.01, 5.02, 3.01, 5.02, 3.01, 5.02, 3.01, 5.02, 3.01, 5.02, 3.01, 5.02, 3.01, 5.02, 3.01, 5.02, 3.01, 5.02, 3.01, 5.02, 3.01, 5.02, 3.01, 5.02, 3.01, 5.02, 3.01, 5.02, 3.01, 5.02, 3.01, 5.02, 3.01, 5.02, 3.01, 5.02, 3.01, 5.02, 3.01, 5.02, 3.01, 5.02, 3.01, 5.02, 3.01, 5.02, 3.01, 5.02, 3.01, 5.02, 3.01, 5.02, 3.01, 5.02, 3.01, 5.02, 3.01, 5.02, 3.01, 5.02, 3.01, 5.02, 3.01, 5.02, 3.01, 5.02, 3.01, 5.02, 0"><path class="EdgeBody" d="m245.53 612.07 512.24-83.189"   /></g></g><g id="at" class="Interaction" color="#000" ><g color="#000" fill="transparent"  filter="url(#a)" stroke="#000" stroke-dasharray="107.5119141325127, 5.8"><path class="EdgeBody" d="m794.82 390.57v113.31"   marker-end="url(#b)" /></g><g class="Burr Anchor" transform="translate(794.82 447.38)" ><use class="Icon" width="0" height="0" fill="#141414" stroke-width="0" xlink:href="#c"/></g></g><g id="au" class="DirectedInteraction" color="#000" ><g color="#000" fill="transparent"  filter="url(#a)" stroke="#000" stroke-dasharray="5.79, 3.47, 5.79, 3.47, 5.79, 5.8"><path class="EdgeBody" d="m794.82 155.09-4.1e-12 30.103"   marker-end="url(#d)" /></g></g><g id="av" class="Edge GraphicalLine DirectedInteraction" color="#ff0099" ><g color="#ff0099" fill="transparent"  filter="url(#f)" stroke="#000" stroke-dasharray="18.935199617976515, 5.8"><path class="EdgeBody" d="m794.82 934.05 22.663 9.9102"   marker-end="url(#d)" /></g></g><g id="aw" class="Interaction" color="#000" ><g color="#000" fill="transparent"  filter="url(#a)" stroke="#000" stroke-dasharray="20.869083667285945, 11"><path class="EdgeBody" d="m1075.1 553.07-31.869 0.13787"   marker-end="url(#e)" /></g></g><g id="ax" class="Interaction" color="#000" ><g color="#000" fill="transparent"  filter="url(#a)" stroke="#000" stroke-dasharray="116.77876566910393, 11"><path class="EdgeBody" d="m210.6 660.88 127.46 9.0454"   marker-end="url(#e)" /></g></g><g id="ay" class="Interaction" color="#000" ><g color="#000" fill="transparent"  filter="url(#a)" stroke="#000" stroke-dasharray="56.90687446422534, 11"><path class="EdgeBody" d="m815.46 869.35-20.641 64.694"   marker-end="url(#e)" /></g></g><g id="az" class="Interaction" color="#000" ><g color="#000" fill="transparent"  filter="url(#a)" stroke="#000" stroke-dasharray="175.03179851974375, 5.8"><path class="EdgeBody" d="m338.05 987.43v-180.83"   marker-end="url(#b)" /></g><g class="Burr Anchor" transform="translate(338.05 899.08)" ><use class="Icon" width="0" height="0" fill="#141414" stroke-width="0" xlink:href="#c"/></g></g><g id="ba" class="DirectedInteraction" color="#000" ><g color="#000" fill="transparent"  filter="url(#a)" stroke="#000" stroke-dasharray="5.06, 3.03, 5.06, 3.03, 5.06, 3.03, 5.06, 3.03, 5.06, 3.03, 5.06, 3.03, 5.06, 3.03, 5.06, 3.03, 5.06, 3.03, 5.06, 5.8"><path class="EdgeBody" d="m832.89 999.8 4.7661 83.513"   marker-end="url(#d)" /></g></g><g id="bb" class="Edge GraphicalLine DirectedInteraction" color="#ff0099" ><g color="#ff0099" fill="transparent"  filter="url(#f)" stroke="#000" stroke-dasharray="90.3768697719804, 5.8"><path class="EdgeBody" d="m843.9 185.19 88.563-37.505"   marker-end="url(#d)" /></g></g><g id="bc" class="Interaction" color="#000" ><g color="#000" fill="transparent"  filter="url(#a)" stroke="#000" stroke-dasharray="58.574847964185395, 5.8"><path class="EdgeBody" d="m1189.7 930.85v37.657h-26.718"   marker-end="url(#b)" /></g></g><g id="bd" class="Interaction" color="#000" ><g color="#000" fill="transparent"  filter="url(#a)" stroke="#000" stroke-dasharray="69.67607685594908, 5.8"><path class="EdgeBody" d="m709.02 880.7-74.951 8.8847"   marker-end="url(#b)" /></g></g><g id="be" class="Interaction" color="#000" ><g color="#000" fill="transparent"  filter="url(#a)" stroke="#000" stroke-dasharray="177.4647564905885, 11"><path class="EdgeBody" d="m621.9 372.42 172.92 74.96"   marker-end="url(#e)" /></g></g><g id="bf" class="Interaction" color="#000" ><g color="#000" fill="transparent"  filter="url(#a)" stroke="#000" stroke-dasharray="84.68258734405798, 0"><path class="EdgeBody" d="m850.56 569.09-55.737 63.754"   /></g></g><g id="bg" class="Interaction" color="#000" ><g color="#000" fill="transparent"  filter="url(#a)" stroke="#000" stroke-dasharray="79.71046668683228, 5.8"><path class="EdgeBody" d="m794.82 280.06v85.51"   marker-end="url(#b)" /></g><g class="Burr Anchor" transform="translate(794.82 314.26)" ><use class="Icon" width="0" height="0" fill="#141414" stroke-width="0" xlink:href="#c"/></g></g><g id="bh" class="DirectedInteraction" color="#000" ><g color="#000" fill="transparent"  filter="url(#a)" stroke="#000" stroke-dasharray="5.01, 3.01, 5.01, 3.01, 5.01, 3.01, 5.01, 3.01, 5.01, 3.01, 5.01, 3.01, 5.01, 3.01, 5.01, 3.01, 5.01, 3.01, 5.01, 3.01, 5.01, 5.8"><path class="EdgeBody" d="m82.91 654.87v-90.946"   marker-end="url(#d)" /></g></g><g id="bi" class="Interaction" color="#000" ><g color="#000" fill="transparent"  filter="url(#a)" stroke="#000" stroke-dasharray="773.8230678307716, 5.8"><path class="EdgeBody" d="m720.72 522.63h-86.651v471.05h-221.93"   marker-end="url(#b)" /></g><g class="Burr Anchor" transform="translate(634.07 889.58)" ><use class="Icon" width="0" height="0" fill="#141414" stroke-width="0" xlink:href="#c"/></g></g><g id="bj" class="Interaction" color="#000" ><g color="#000" fill="transparent"  filter="url(#a)" stroke="#000" stroke-dasharray="66.46585158734352, 11"><path class="EdgeBody" d="m150.41 722.08 77.394 3.3242"   marker-end="url(#e)" /></g></g><g id="bk" class="Edge GraphicalLine DirectedInteraction" color="#ff0099" ><g color="#ff0099" fill="transparent"  filter="url(#f)" stroke="#000" stroke-dasharray="95.41254541157774, 5.8"><path class="EdgeBody" d="m794.82 314.26 96.072 31.846"   marker-end="url(#d)" /></g></g><g id="bl" class="Interaction" color="#000" ><g color="#000" fill="transparent"  filter="url(#a)" stroke="#000" stroke-dasharray="79.10710604625073, 11"><path class="EdgeBody" d="m266.48 953.82 71.578-54.735"   marker-end="url(#e)" /></g></g><g id="bm" class="Interaction" color="#000" ><g color="#000" fill="transparent"  filter="url(#a)" stroke="#000" stroke-dasharray="48.41446789444057, 11"><path class="EdgeBody" d="m453.95 545.69-55.359 21.575"   marker-end="url(#e)" /></g></g><g id="bn" class="DirectedInteraction" color="#000" ><g color="#000" fill="transparent"  filter="url(#a)" stroke="#000" stroke-dasharray="5.89, 3.54, 5.89, 3.54, 5.89, 3.54, 5.89, 3.54, 5.89, 3.54, 0, 5.8"><path class="EdgeBody" d="m794.55 80.667 0.27227 49.422"   marker-end="url(#d)" /></g></g><g id="bo" class="Interaction" color="#000" ><g color="#000" fill="transparent"  filter="url(#a)" stroke="#000" stroke-dasharray="766.0382565051375, 5.8"><path class="EdgeBody" d="m868.91 801.28h174.31v-423.21h-174.31"   marker-end="url(#b)" /></g><g class="Burr Anchor" transform="translate(1043.2 553.2)" ><use class="Icon" width="0" height="0" fill="#141414" stroke-width="0" xlink:href="#c"/></g></g><g id="bp" class="DirectedInteraction" color="#000" ><g color="#000" fill="transparent"  filter="url(#a)" stroke="#000" stroke-dasharray="5.45, 3.27, 5.45, 3.27, 5.45, 3.27, 5.45, 3.27, 5.45, 3.27, 5.45, 3.27, 5.45, 3.27, 0, 5.8"><path class="EdgeBody" d="m837.65 1124.4-52.803 35.451"   marker-end="url(#d)" /></g></g><g id="bq" class="Interaction" color="#000" ><g color="#000" fill="transparent"  filter="url(#a)" stroke="#000" stroke-dasharray="17.871920628194562, 11"><path class="EdgeBody" d="m534.55 481.28 1.0258 28.854"   marker-end="url(#e)" /></g></g><g class="SingleFreeNode Shape PhysicalEntity CellularComponent Cell" transform="translate(34.935 199.98)" color="#c0c0c0" ><g fill="transparent"  filter="url(#i)" stroke="#c0c0c0" stroke-width="3"><rect class="Icon" transform="matrix(.99039 0 0 .98576 5.9423 5.9146)" width="1236.1" height="830.63" rx="15" ry="15"   /></g></g><g class="SingleFreeNode Shape PhysicalEntity CellularComponent Cell" transform="translate(691.47 1107.8)" color="#c0c0c0" ><g fill="transparent"  filter="url(#i)" stroke="#c0c0c0" stroke-width="3"><rect class="Icon" transform="matrix(.94624 0 0 .90058 5.6775 5.4035)" width="211.23" height="108.7" rx="15" ry="15"   /></g></g><g class="Label" transform="translate(706.26 25.913)" color="#fff"  name="Intestines"><rect class="Icon" transform="matrix(.99437 0 0 .98206 .49718 .49103)" width="176.57" height="54.753" fill="#009" stroke="#fff"/><text class="Text" transform="translate(88.286 37.377)" fill="#fff"  font-size="32px" font-weight="bold" stroke="black" stroke-width="0" text-anchor="middle"><tspan x="0" y="0">Intestines</tspan></text></g><g class="Label" transform="translate(817.48 937.71)" color="#00f"  name="MTHFR deficiency"><rect class="Icon" transform="matrix(.99363 0 0 .96154 .49682 .48077)" width="156.04" height="25" rx="15" ry="15" fill="#fcc" stroke="#00f"/><text class="Text" transform="translate(78.018 17.5)" fill="#00f"  font-size="16px"  text-anchor="middle"><tspan x="0" y="0">MTHFR deficiency</tspan></text></g><g class="Label" transform="translate(415.32 831.25)" color="#00f"  name="MTHFD1 deficiency"><rect class="Icon" transform="matrix(.99412 0 0 .96693 .49706 .48346)" width="169.13" height="29.237" rx="15" ry="15" fill="#fcc" stroke="#00f"/><text class="Text" transform="translate(84.563 19.618)" fill="#00f"  font-size="16px"  text-anchor="middle"><tspan x="0" y="0">MTHFD1 deficiency</tspan></text></g><g class="Label" transform="translate(450.35 715.18)" color="#00f"  name="MTHFS deficiency"><rect class="Icon" transform="matrix(.99335 0 0 .97116 .49668 .48558)" width="149.46" height="33.676" rx="15" ry="15" fill="#fcc" stroke="#00f"/><text class="Text" transform="translate(74.732 21.838)" fill="#00f"  font-size="16px"  text-anchor="middle"><tspan x="0" y="0">MTHFS deficiency</tspan></text></g><g class="Label" transform="translate(941.6 1047.3)" color="#00f"  name="Folate Receptor Alpha Deficiency"><rect class="Icon" transform="matrix(.99309 0 0 .97645 .49654 .48823)" width="143.7" height="41.468" rx="15" ry="15" fill="#fcc" stroke="#00f"/><text class="Text" transform="translate(71.851 25.734)" fill="#00f"  font-size="16px"  text-anchor="middle"><tspan x="0" y="-8.8">Folate Receptor</tspan> <tspan x="0" y="8.8">Alpha Deficiency</tspan></text></g><g class="Label" transform="translate(890.89 334.15)" color="#00f"  name="DHFR deficiency"><rect class="Icon" transform="matrix(.99263 0 0 .95987 .49631 .47994)" width="134.66" height="23.919" rx="15" ry="15" fill="#fcc" stroke="#00f"/><text class="Text" transform="translate(67.33 16.96)" fill="#00f"  font-size="16px"  text-anchor="middle"><tspan x="0" y="0">DHFR deficiency</tspan></text></g><g class="Label" transform="translate(932.47 126.88)" color="#00f"  name="Heriditary Folate  Malabsorption"><rect class="Icon" transform="matrix(.99301 0 0 .97654 .49651 .48827)" width="142.08" height="41.622" rx="15" ry="15" fill="#fcc" stroke="#00f"/><text class="Text" transform="translate(71.042 25.811)" fill="#00f"  font-size="16px"  text-anchor="middle"><tspan x="0" y="-8.8">Heriditary Folate </tspan> <tspan x="0" y="8.8">Malabsorption</tspan></text></g><g class="Uniprot-TrEMBL_C9JKQ7 Protein GART " transform="translate(60.41 709.58)" color="#000"  name="GARTF"><rect class="Icon" transform="matrix(.98901 0 0 .96154 .49451 .48077)" width="90" height="25" fill="#fff" stroke="#000"/><text class="Text" transform="translate(45,17.5)"   font-size="16px"  text-anchor="middle"><tspan x="0" y="0">GARTF</tspan></text></g><a class="ChEBI_CHEBI_67040 Metabolite  " transform="translate(1130.6 856.8)" color="#00f"  name="SAM"  ><rect class="Icon" transform="matrix(.99165 0 0 .96154 .49582 .48077)" width="118.71" height="25" fill="#fff" stroke="#00f"/><text class="Text" transform="translate(59.353 17.5)" fill="#00f"  font-size="16px"  text-anchor="middle"><tspan x="0" y="0">SAM</tspan></text></a><a class="ChEBI_CHEBI_17822 Metabolite  " transform="translate(849.44 704.35)" color="#00f"  name="serine"  ><rect class="Icon" transform="matrix(.98901 0 0 .96154 .49451 .48077)" width="90" height="25" fill="#fff" stroke="#00f"/><text class="Text" transform="translate(45,17.5)" fill="#00f"  font-size="16px"  text-anchor="middle"><tspan x="0" y="0">serine</tspan></text></a><a class="ChEBI_CHEBI_20506 Metabolite  " transform="translate(720.72 503.88)" color="#00f"  name="THF"  ><rect class="Icon" transform="matrix(.9933 0 0 .96154 .49665 .48077)" width="148.19" height="25" fill="#fff" stroke="#00f"/><text class="Text" transform="translate(74.094 17.5)" fill="#00f"  font-size="16px"  text-anchor="middle"><tspan x="0" y="0">THF</tspan></text></a><a class="ChEBI_CHEBI_15641 Metabolite  " transform="translate(718.68 974.8)" color="#00f"  name="5-Methyl-THF"  ><rect class="Icon" transform="matrix(.99348 0 0 .96154 .49674 .48077)" width="152.27" height="25" fill="#fff" stroke="#00f"/><text class="Text" transform="translate(76.136 17.5)" fill="#00f"  font-size="16px"  text-anchor="middle"><tspan x="0" y="0">5-Methyl-THF</tspan></text></a><g class="Enzyme_Nomenclature_2_1_2_5 Protein " transform="translate(498 934.2)" color="#000"  name="FIGLU"><rect class="Icon" transform="matrix(.98901 0 0 .96154 .49451 .48077)" width="90" height="25" fill="#fff" stroke="#000"/><text class="Text" transform="translate(45,17.5)"   font-size="16px"  text-anchor="middle"><tspan x="0" y="0">FIGLU</tspan></text></g><a  class="Protein MTHFS " transform="translate(483.07 666.31)"   name="MTHFS"  ><rect class="Icon" transform="matrix(.98901 0 0 .96154 .49451 .48077)" width="90" height="25" fill="#fff" stroke="#000"/><text class="Text" transform="translate(45,17.5)"   font-size="16px"  text-anchor="middle"><tspan x="0" y="0">MTHFS</tspan></text></a><a class="ChEBI_CHEBI_28938 Metabolite  " transform="translate(207.04 883.36)" color="#00f"  name="NH4+"  ><rect class="Icon" transform="matrix(.98901 0 0 .96154 .49451 .48077)" width="90" height="25" fill="#fff" stroke="#00f"/><text class="Text" transform="translate(45,17.5)" fill="#00f"  font-size="16px"  text-anchor="middle"><tspan x="0" y="0">NH4+</tspan></text></a><g class="Enzyme_Nomenclature_3_5_4_9 Protein " transform="translate(210.6 648.38)" color="#000"  name="MTHFCH"><rect class="Icon" transform="matrix(.98901 0 0 .96154 .49451 .48077)" width="90" height="25" fill="#fff" stroke="#000"/><text class="Text" transform="translate(45,17.5)"   font-size="16px"  text-anchor="middle"><tspan x="0" y="0">MTHFCH</tspan></text></g><a class="ChEBI_CHEBI_16015 Metabolite  " transform="translate(644.88 902.02)" color="#00f"  name="L-glutamic acid"  ><rect class="Icon" transform="matrix(.99246 0 0 .96154 .49623 .48077)" width="131.65" height="25" fill="#fff" stroke="#00f"/><text class="Text" transform="translate(65.823 17.5)" fill="#00f"  font-size="16px"  text-anchor="middle"><tspan x="0" y="0">L-glutamic acid</tspan></text></a><a class="ChEBI_CHEBI_16680 Metabolite ChEBI_CHEBI_57856   " transform="translate(1130.3 905.85)" color="#00f"  name="SAH"  ><rect class="Icon" transform="matrix(.99165 0 0 .96154 .49582 .48077)" width="118.71" height="25" fill="#fff" stroke="#00f"/><text class="Text" transform="translate(59.353 17.5)" fill="#00f"  font-size="16px"  text-anchor="middle"><tspan x="0" y="0">SAH</tspan></text></a><a class="ChEBI_CHEBI_16526 Metabolite  " transform="translate(605.52 455.56)" color="#00f"  name="CO2"  ><rect class="Icon" transform="matrix(.98901 0 0 .96154 .49451 .48077)" width="90" height="25" fill="#fff" stroke="#00f"/><text class="Text" transform="translate(45,17.5)" fill="#00f"  font-size="16px"  text-anchor="middle"><tspan x="0" y="0">CO2</tspan></text></a><a class="ChEBI_CHEBI_15428 Metabolite ChEBI_CHEBI_57305   " transform="translate(850.56 562.84)" color="#00f"  name="glycine"  ><rect class="Icon" transform="matrix(.98901 0 0 .96154 .49451 .48077)" width="90" height="25" fill="#fff" stroke="#00f"/><text class="Text" transform="translate(45,17.5)" fill="#00f"  font-size="16px"  text-anchor="middle"><tspan x="0" y="0">glycine</tspan></text></a><a class="ChEBI_CHEBI_15971 Metabolite ChEBI_CHEBI_57595   " transform="translate(686.52 855.7)" color="#00f"  name="L-histidine"  ><rect class="Icon" transform="matrix(.98901 0 0 .96154 .49451 .48077)" width="90" height="25" fill="#fff" stroke="#00f"/><text class="Text" transform="translate(45,17.5)" fill="#00f"  font-size="16px"  text-anchor="middle"><tspan x="0" y="0">L-histidine</tspan></text></a><a class="ChEBI_CHEBI_17230 Metabolite  " transform="translate(1044.3 956)" color="#00f"  name="Homocysteine"  ><rect class="Icon" transform="matrix(.99165 0 0 .96154 .49582 .48077)" width="118.71" height="25" fill="#fff" stroke="#00f"/><text class="Text" transform="translate(59.353 17.5)" fill="#00f"  font-size="16px"  text-anchor="middle"><tspan x="0" y="0">Homocysteine</tspan></text></a><a class="ChEBI_CHEBI_15633 Metabolite  " transform="translate(720.72 365.57)" color="#00f"  name="DHF"  ><rect class="Icon" transform="matrix(.9933 0 0 .96154 .49665 .48077)" width="148.19" height="25" fill="#fff" stroke="#00f"/><text class="Text" transform="translate(74.094 17.5)" fill="#00f"  font-size="16px"  text-anchor="middle"><tspan x="0" y="0">DHF</tspan></text></a><a class="WikiPathways_WP4225 Pathway " transform="translate(1301.5 430.8)" color="#009933"  name="Pyrimidine metabolism"  ><rect class="Icon" transform="matrix(.99532 0 0 .97211 .49766 .48605)" width="212.9" height="34.852" fill="#fff" stroke="#093"/><text class="Text" transform="translate(106.45 23.426)" fill="#009933"  font-size="18px" font-weight="bold" stroke="black" stroke-width="0" text-anchor="middle"><tspan x="0" y="0">Pyrimidine metabolism</tspan></text></a><g class="GroupGroup" transform="translate(1300.5 852.78)" color="grey" ><use class="Icon" width="202.59072622104418" height="85.42392909896864" fill="transparent"  stroke="grey" stroke-dasharray="5,3" stroke-width="0" xlink:href="#c"/><g class="WikiPathways_WP3359 Pathway" transform="translate(15.386 8)" color="#14961e"  name="DNA methylation"><rect class="Icon" transform="matrix(.99421 0 0 .97346 .49711 .48673)" width="171.82" height="36.677" fill="#fff" stroke="#14961e"/><text class="Text" transform="translate(85.91 24.338)" fill="#14961e"  font-size="18px" font-weight="bold" stroke="black" stroke-width="0" text-anchor="middle"><tspan x="0" y="0">DNA methylation</tspan></text></g><g class="WikiPathways_WP4073 Pathway" transform="translate(8 44.677)" color="#14961e"  name="Protein methylation"><rect class="Icon" transform="matrix(.99467 0 0 .97037 .49733 .48518)" width="186.59" height="32.747" fill="#fff" stroke="#14961e"/><text class="Text" transform="translate(93.295 22.373)" fill="#14961e"  font-size="18px" font-weight="bold" stroke="black" stroke-width="0" text-anchor="middle"><tspan x="0" y="0">Protein methylation</tspan></text></g></g><a class="ChEBI_CHEBI_16643 Metabolite ChEBI_CHEBI_57844   " transform="translate(1050.2 819.09)" color="#00f"  name="Methionine"  ><rect class="Icon" transform="matrix(.99165 0 0 .96154 .49582 .48077)" width="118.71" height="25" fill="#fff" stroke="#00f"/><text class="Text" transform="translate(59.353 17.5)" fill="#00f"  font-size="16px"  text-anchor="middle"><tspan x="0" y="0">Methionine</tspan></text></a><a class="ChEBI_CHEBI_27470 Metabolite  " transform="translate(720.72 255.06)" color="#00f"  name="Folic acid"  ><rect class="Icon" transform="matrix(.9933 0 0 .96154 .49665 .48077)" width="148.19" height="25" fill="#fff" stroke="#00f"/><text class="Text" transform="translate(74.094 17.5)" fill="#00f"  font-size="16px"  text-anchor="middle"><tspan x="0" y="0">Folic acid</tspan></text></a><a class="WikiPathways_WP4224 Pathway " transform="translate(134.62 139.65)" color="#14961e"  name="Purine Metabolism"  ><rect class="Icon" transform="matrix(.99502 0 0 .97496 .49751 .48748)" width="199.93" height="38.943" fill="#fff" stroke="#14961e"/><text class="Text" transform="translate(99.964 25.471)" fill="#14961e"  font-size="18px" font-weight="bold" stroke="black" stroke-width="0" text-anchor="middle"><tspan x="0" y="0">Purine Metabolism</tspan></text></a><a class="ChEBI_CHEBI_1989 Metabolite  " transform="translate(720.72 788.78)" color="#00f"  name="5,10-Methylene-THF"  ><rect class="Icon" transform="matrix(.9933 0 0 .96154 .49665 .48077)" width="148.19" height="25" fill="#fff" stroke="#00f"/><text class="Text" transform="translate(74.094 17.5)" fill="#00f"  font-size="16px"  text-anchor="middle"><tspan x="0" y="0">5,10-Methylene-THF</tspan></text></a><a  class="Uniprot-TrEMBL_Q96NT5 Protein SLC46A1 " transform="translate(696.65 185.19)"   name="PCFT"  ><rect class="Icon" transform="matrix(.99493 0 0 .96302 .49747 .48151)" width="196.34" height="26.043" fill="#fff" stroke="#000"/><text class="Text" transform="translate(98.169 18.021)"   font-size="16px"  text-anchor="middle"><tspan x="0" y="0">PCFT</tspan></text></a><a  class="Uniprot-TrEMBL_P15328 Protein FOLR1 " transform="translate(775.74 1083.3)"   name="Folate receptor  alpha"  ><rect class="Icon" transform="matrix(.99199 0 0 .97622 .49599 .48811)" width="123.82" height="41.056" fill="#fff" stroke="#000"/><text class="Text" transform="translate(61.912 25.528)"   font-size="16px"  text-anchor="middle"><tspan x="0" y="-8.8">Folate receptor </tspan> <tspan x="0" y="8.8">alpha</tspan></text></a><a class="ChEBI_CHEBI_30411 Metabolite  " transform="translate(900.08 893.42)" color="#00f"  name="Vitamin B12"  ><rect class="Icon" transform="matrix(.98901 0 0 .96154 .49451 .48077)" width="90" height="25" fill="#fff" stroke="#00f"/><text class="Text" transform="translate(45,17.5)" fill="#00f"  font-size="16px"  text-anchor="middle"><tspan x="0" y="0">Vitamin B12</tspan></text></a><a class="ChEBI_CHEBI_15639 Metabolite  " transform="translate(263.96 987.43)" color="#00f"  name="5-formimino-THF"  ><rect class="Icon" transform="matrix(.9933 0 0 .96154 .49665 .48077)" width="148.19" height="25" fill="#fff" stroke="#00f"/><text class="Text" transform="translate(74.094 17.5)" fill="#00f"  font-size="16px"  text-anchor="middle"><tspan x="0" y="0">5-formimino-THF</tspan></text></a><a class="ChEBI_CHEBI_15638 Metabolite  " transform="translate(263.96 781.59)" color="#00f"  name="5,10-Methenyl-THF"  ><rect class="Icon" transform="matrix(.9933 0 0 .96154 .49665 .48077)" width="148.19" height="25" fill="#fff" stroke="#00f"/><text class="Text" transform="translate(74.094 17.5)" fill="#00f"  font-size="16px"  text-anchor="middle"><tspan x="0" y="0">5,10-Methenyl-THF</tspan></text></a><a class="ChEBI_CHEBI_18349 Metabolite  " transform="translate(60.41 762.35)" color="#00f"  name="GAR"  ><rect class="Icon" transform="matrix(.98901 0 0 .96154 .49451 .48077)" width="90" height="25" fill="#fff" stroke="#00f"/><text class="Text" transform="translate(45,17.5)" fill="#00f"  font-size="16px"  text-anchor="middle"><tspan x="0" y="0">GAR</tspan></text></a><a class="ChEBI_CHEBI_18272 Metabolite  " transform="translate(60.41 654.87)" color="#00f"  name="Formyl-GAR"  ><rect class="Icon" transform="matrix(.98901 0 0 .96154 .49451 .48077)" width="90" height="25" fill="#fff" stroke="#00f"/><text class="Text" transform="translate(45,17.5)" fill="#00f"  font-size="16px"  text-anchor="middle"><tspan x="0" y="0">Formyl-GAR</tspan></text></a><a class="ChEBI_CHEBI_2030 Metabolite  " transform="translate(60.41 538.93)" color="#00f"  name="AICAR"  ><rect class="Icon" transform="matrix(.98901 0 0 .96154 .49451 .48077)" width="90" height="25" fill="#fff" stroke="#00f"/><text class="Text" transform="translate(45,17.5)" fill="#00f"  font-size="16px"  text-anchor="middle"><tspan x="0" y="0">AICAR</tspan></text></a><a class="ChEBI_CHEBI_18381 Metabolite  " transform="translate(192.01 451.23)" color="#00f"  name="FAICAR"  ><rect class="Icon" transform="matrix(.98901 0 0 .96154 .49451 .48077)" width="90" height="25" fill="#fff" stroke="#00f"/><text class="Text" transform="translate(45,17.5)" fill="#00f"  font-size="16px"  text-anchor="middle"><tspan x="0" y="0">FAICAR</tspan></text></a><a class="ChEBI_CHEBI_15637 Metabolite  " transform="translate(263.96 503.88)" color="#00f"  name="10-Formyl-THF"  ><rect class="Icon" transform="matrix(.9933 0 0 .96154 .49665 .48077)" width="148.19" height="25" fill="#fff" stroke="#00f"/><text class="Text" transform="translate(74.094 17.5)" fill="#00f"  font-size="16px"  text-anchor="middle"><tspan x="0" y="0">10-Formyl-THF</tspan></text></a><a class="ChEBI_CHEBI_15640 Metabolite  " transform="translate(365.95 624.83)" color="#00f"  name="5-Formyl-THF"  ><rect class="Icon" transform="matrix(.99269 0 0 .97295 .49634 .48647)" width="135.72" height="35.968" fill="#fff" stroke="#00f"/><text class="Text" transform="translate(67.861 22.984)" fill="#00f"  font-size="16px"  text-anchor="middle"><tspan x="0" y="0">5-Formyl-THF</tspan></text></a><a class="ChEBI_CHEBI_17013 Metabolite  " transform="translate(1064.2 438.1)" color="#00f"  name="dTMP"  ><rect class="Icon" transform="matrix(.98901 0 0 .96154 .49451 .48077)" width="90" height="25" fill="#fff" stroke="#00f"/><text class="Text" transform="translate(45,17.5)" fill="#00f"  font-size="16px"  text-anchor="middle"><tspan x="0" y="0">dTMP</tspan></text></a><a class="ChEBI_CHEBI_17622 Metabolite  " transform="translate(1068.9 590.21)" color="#00f"  name="dUMP"  ><rect class="Icon" transform="matrix(.98901 0 0 .96154 .49451 .48077)" width="90" height="25" fill="#fff" stroke="#00f"/><text class="Text" transform="translate(45,17.5)" fill="#00f"  font-size="16px"  text-anchor="middle"><tspan x="0" y="0">dUMP</tspan></text></a><a  class="Uniprot-TrEMBL_P31939 Protein ATIC " transform="translate(76.952 456.49)"   name="AICART"  ><rect class="Icon" transform="matrix(.98901 0 0 .97265 .49451 .48633)" width="90" height="35.569" fill="#fff" stroke="#000"/><text class="Text" transform="translate(45 22.785)"   font-size="16px"  text-anchor="middle"><tspan x="0" y="0">AICART</tspan></text></a><a  class="Uniprot-TrEMBL_P04818 Protein TYMS " transform="translate(1075.1 540.57)"   name="TS"  ><rect class="Icon" transform="matrix(.98901 0 0 .96154 .49451 .48077)" width="90" height="25" fill="#fff" stroke="#000"/><text class="Text" transform="translate(45,17.5)"   font-size="16px"  text-anchor="middle"><tspan x="0" y="0">TS</tspan></text></a><g class="Protein" transform="translate(453.95 533.19)" color="#000"  name="FTHFI"><rect class="Icon" transform="matrix(.98901 0 0 .96154 .49451 .48077)" width="90" height="25" fill="#fff" stroke="#000"/><text class="Text" transform="translate(45,17.5)"   font-size="16px"  text-anchor="middle"><tspan x="0" y="0">FTHFI</tspan></text></g><a  class="Uniprot-TrEMBL_O75891 Protein ALDH1L1 " transform="translate(489.55 456.28)"   name="FTHFDH"  ><rect class="Icon" transform="matrix(.98901 0 0 .96154 .49451 .48077)" width="90" height="25" fill="#fff" stroke="#000"/><text class="Text" transform="translate(45,17.5)"   font-size="16px"  text-anchor="middle"><tspan x="0" y="0">FTHFDH</tspan></text></a><a  class="Uniprot-TrEMBL_Q99707 Protein MTR " transform="translate(900.96 812.73)"   name="MS"  ><rect class="Icon" transform="matrix(.98901 0 0 .96154 .49451 .48077)" width="90" height="25" fill="#fff" stroke="#000"/><text class="Text" transform="translate(45,17.5)"   font-size="16px"  text-anchor="middle"><tspan x="0" y="0">MS</tspan></text></a><a  class="Uniprot-TrEMBL_P34897 Protein SHMT2 " transform="translate(671.38 619)"   name="SHMT"  ><rect class="Icon" transform="matrix(.98901 0 0 .96154 .49451 .48077)" width="90" height="25" fill="#fff" stroke="#000"/><text class="Text" transform="translate(45,17.5)"   font-size="16px"  text-anchor="middle"><tspan x="0" y="0">SHMT</tspan></text></a><a  class="Uniprot-TrEMBL_O95954 Protein FTCD " transform="translate(176.48 941.32)"   name="FITHFCH"  ><rect class="Icon" transform="matrix(.98901 0 0 .96154 .49451 .48077)" width="90" height="25" fill="#fff" stroke="#000"/><text class="Text" transform="translate(45,17.5)"   font-size="16px"  text-anchor="middle"><tspan x="0" y="0">FITHFCH</tspan></text></a><g class="Uniprot-TrEMBL_B0YJ76 Protein DHFR " transform="translate(576.9 347.42)" color="#000"  name="DHFR"><rect class="Icon" transform="matrix(.98901 0 0 .96154 .49451 .48077)" width="90" height="25" fill="#fff" stroke="#000"/><text class="Text" transform="translate(45,17.5)"   font-size="16px"  text-anchor="middle"><tspan x="0" y="0">DHFR</tspan></text></g><a  class="Uniprot-TrEMBL_P42898 Protein MTHFR " transform="translate(815.46 856.85)"   name="MTHFR"  ><rect class="Icon" transform="matrix(.98901 0 0 .96154 .49451 .48077)" width="90" height="25" fill="#fff" stroke="#000"/><text class="Text" transform="translate(45,17.5)"   font-size="16px"  text-anchor="middle"><tspan x="0" y="0">MTHFR</tspan></text></a><a  class="GeneProduct MTHFD1 " transform="translate(461.36 760.89)"   name="MTHFD1"  ><rect class="Icon" transform="matrix(.98901 0 0 .96154 .49451 .48077)" width="90" height="25" fill="#fff" stroke="#000"/><text class="Text" transform="translate(45,17.5)"   font-size="16px"  text-anchor="middle"><tspan x="0" y="0">MTHFD1</tspan></text></a><a class="ChEBI_CHEBI_27470 Metabolite  " transform="translate(720.72 130.09)" color="#00f"  name="Folic acid"  ><rect class="Icon" transform="matrix(.9933 0 0 .96154 .49665 .48077)" width="148.19" height="25" fill="#fff" stroke="#00f"/><text class="Text" transform="translate(74.094 17.5)" fill="#00f"  font-size="16px"  text-anchor="middle"><tspan x="0" y="0">Folic acid</tspan></text></a><g class="Label" transform="translate(1048.7 219.95)" color="#fff"  name="Liver"><rect class="Icon" transform="matrix(.98998 0 0 .97418 .49499 .48709)" width="98.779" height="37.724" fill="#009" stroke="#fff"/><text class="Text" transform="translate(49.39 28.862)" fill="#fff"  font-size="32px" font-weight="bold" stroke="black" stroke-width="0" text-anchor="middle"><tspan x="0" y="0">Liver</tspan></text></g><g class="Label" transform="translate(723.11 1159.8)" color="#fff"  name="Brain"><rect class="Icon" transform="matrix(.99197 0 0 .97295 .49598 .48647)" width="123.47" height="35.963" fill="#009" stroke="#fff"/><text class="Text" transform="translate(61.735 27.982)" fill="#fff"  font-size="32px" font-weight="bold" stroke="black" stroke-width="0" text-anchor="middle"><tspan x="0" y="0">Brain</tspan></text></g><g id="br" class="Interaction" color="#000" ><g color="#000" fill="transparent"  filter="url(#a)" stroke="#000" stroke-dasharray="165.06684291377204, 11"><path class="EdgeBody" d="m621.9 347.42 172.92-33.159"   marker-end="url(#e)" /></g></g><g id="bs" class="Interaction" color="#000" ><g color="#000" fill="transparent"  filter="url(#a)" stroke="#000" stroke-dasharray="90.93450126200587, 5.8"><path class="EdgeBody" d="m227.8 725.41-77.394-58.032"   marker-end="url(#b)" /></g></g><a class="ChEBI_CHEBI_20506 Metabolite  " transform="translate(97.346 593.32)" color="#00f"  name="THF"  ><rect class="Icon" transform="matrix(.9933 0 0 .96154 .49665 .48077)" width="148.19" height="25" fill="#fff" stroke="#00f"/><text class="Text" transform="translate(74.094 17.5)" fill="#00f"  font-size="16px"  text-anchor="middle"><tspan x="0" y="0">THF</tspan></text></a><g id="bt" class="Interaction" color="#000" ><g color="#000" fill="transparent"  filter="url(#a)" stroke="#000" stroke-dasharray="192.83694981005993, 5.8"><path class="EdgeBody" d="m263.96 794.09-92.52-175.77"   marker-end="url(#b)" /></g><g class="Burr Anchor" transform="translate(227.8 725.41)" ><use class="Icon" width="0" height="0" fill="#141414" stroke-width="0" xlink:href="#c"/></g></g><g id="bu" class="Interaction" color="#000" ><g color="#000" fill="transparent"  filter="url(#a)" stroke="#000" stroke-dasharray="99.69905494433574, 5.8"><path class="EdgeBody" d="m794.82 632.84 54.626 90.256"   marker-end="url(#b)" /></g></g><g id="bv" class="Interaction" color="#000" ><g color="#000" fill="transparent"  filter="url(#a)" stroke="#000" stroke-dasharray="78.88258734405798, 5.8"><path class="EdgeBody" d="m794.82 632.84 55.737-63.754"   marker-end="url(#b)" /></g></g><g id="bw" class="Interaction" color="#000" ><g color="#000" fill="transparent"  filter="url(#a)" stroke="#000" stroke-dasharray="105.49905494433574, 0"><path class="EdgeBody" d="m849.44 723.1-54.626-90.256"   /></g></g><g id="bx" class="Edge GraphicalLine DirectedInteraction" color="#ff0099" ><g color="#ff0099" fill="transparent"  filter="url(#f)" stroke="#000" stroke-dasharray="35.81193819340555, 5.8"><path class="EdgeBody" d="m755.64 1063.8-41.163 6.0964"   marker-end="url(#d)" /></g></g><g class="Label" transform="translate(481.66 1048.3)" color="#00f"  name="Cerebral folate deficiency due to FOLR1 autoantibodies"><rect class="Icon" transform="matrix(.99572 0 0 .97737 .49786 .48869)" width="232.82" height="43.19" rx="15" ry="15" fill="#fcc" stroke="#00f"/><text class="Text" transform="translate(116.41 26.595)" fill="#00f"  font-size="16px"  text-anchor="middle"><tspan x="0" y="-8.8">Cerebral folate deficiency</tspan> <tspan x="0" y="8.8">due to FOLR1 autoantibodies</tspan></text></g><g id="by" class="Interaction" color="#000" ><g color="#000" fill="transparent"  filter="url(#a)" stroke="#000" stroke-dasharray="55.764315303938744, 0"><path class="EdgeBody" d="m1068.9 602.71-25.667-49.506"   /></g></g><text class="Text" transform="translate(5,27)" dominant-baseline="central" fill="black"  font-size="12px" font-weight="bold" overflow="visible" ><tspan x="0" y="-9">Name: Disorders of folate metabolism and transport</tspan> <tspan x="0" y="9">Organism: Homo sapiens</tspan></text></g></svg>
