<?xml version="1.0" encoding="UTF-8"?>
<!--
  WikiPathways page: https://www.wikipathways.org/index.php/Pathway:WP4236
  URL for this compressed file: https://github.com/eweitz/cachome/tree/main/data/wikipathways/WP4236.svg
  Source code for compression: https://github.com/eweitz/cachome/tree/main/src/wikipathways.py
-->
<svg class="Diagram" width="800" height="600" color="black" baseProfile="full" prefix="schema:http://schema.org/" preserveAspectRatio="xMidYMid" version="1.1" viewBox="0 0 1114.8 968.63" vocab="http://vocabularies.wikipathways.org/wp#" xmlns="http://www.w3.org/2000/svg" xmlns:xlink="http://www.w3.org/1999/xlink"><style>svg {font-family: 'Liberation Sans', Arial, sans-serif; }</style><defs><filter id="a" x="0" y="0" width="1114.8" height="968.63" filterUnits="userSpaceOnUse"><feColorMatrix in="SourceGraphic" values="-1   0   0 0 0                   0  -1   0 0 0                   0   0  -1 0 0                   0   0   0 1 0"/></filter><marker id="c" stroke-dasharray="99999" markerHeight="12" markerUnits="userSpaceOnUse" markerWidth="12" orient="auto" preserveAspectRatio="none" refX="12" refY="6" viewBox="0 0 12 12"><path transform="rotate(180 6 6)" d="M12 11L0 6l12-5z" fill="currentColor" stroke-width="0"/></marker><marker id="g" stroke-dasharray="99999" markerHeight="12" markerUnits="userSpaceOnUse" markerWidth="12" orient="auto" preserveAspectRatio="none" refX="12" refY="6" viewBox="0 0 12 12"><path transform="rotate(180 6 6)" d="M12 12L0 6l12-6-7 6z" fill="currentColor" stroke-width="0"/></marker><marker id="f" stroke-dasharray="99999" markerHeight="12" markerUnits="userSpaceOnUse" markerWidth="12" orient="auto" preserveAspectRatio="none" refX="12" refY="6" viewBox="0 0 12 12"><circle transform="rotate(180 6 6)" cx="6" cy="6" r="5.3" fill="none" stroke="#000"/></marker><marker id="b" stroke-dasharray="99999" markerHeight="12" markerUnits="userSpaceOnUse" markerWidth="12" orient="auto" preserveAspectRatio="none" refX="12" refY="6" viewBox="0 0 12 12"><path transform="rotate(180 6 6)" d="M12 11L0 6l12-5z" fill="currentColor" stroke-width="0"/></marker><symbol id="e" overflow="visible" preserveAspectRatio="none" viewBox="0 0 100 100"><path d="M0 25L25 0h50l25 25v50l-25 25H25L0 75z" stroke="currentColor" vector-effect="non-scaling-stroke"/></symbol><symbol id="d" preserveAspectRatio="none" viewBox="0 0 100 100"/></defs><g class="Viewport" color="black"  name="Name: Krebs cycle disorders Organism: Homo sapiens"><rect class="Icon" width="1114.8" height="968.63" fill="#fff" stroke="#000" stroke-width="0"/><g id="h" class="DirectedInteraction" color="#000" ><g color="#000" fill="transparent"  filter="url(#a)" stroke="#000" stroke-dasharray="175.58525465376437, 5.8"><path class="EdgeBody" d="m765.18 820.6 155.85 92.804"   marker-end="url(#c)" /></g></g><g id="i" class="Interaction" color="#000" ><g color="#000" fill="transparent"  filter="url(#a)" stroke="#000" stroke-dasharray="47.58106539746223, 1"><path class="EdgeBody" d="m1024.8 634.23-9.6594 47.611"   marker-end="url(#g)" /></g><g class="Burr Anchor" transform="translate(1017 672.73)" ><use class="Icon" width="0" height="0" fill="#141414" stroke-width="0" xlink:href="#d"/></g></g><g id="j" class="Edge GraphicalLine DirectedInteraction" color="#000" ><g color="#000" fill="transparent"  filter="url(#a)" stroke="#000" stroke-dasharray="5.05, 3.03, 5.05, 3.03, 5.05, 3.03, 5.05, 3.03, 5.05, 3.03, 5.05, 3.03, 5.05, 3.03, 5.05, 3.03, 5.05, 3.03, 5.05, 3.03, 5.05, 3.03, 5.05, 3.03, 5.05, 3.03, 5.05, 3.03, 5.05, 3.03, 5.05, 3.03, 5.05, 3.03, 5.05, 3.03, 5.05, 3.03, 5.05, 3.03, 5.05, 3.03, 5.05, 3.03, 5.05, 3.03, 5.05, 3.03, 5.05, 3.03, 5.05, 3.03, 5.05, 3.03, 5.05, 3.03, 5.05, 3.03, 5.05, 3.03, 5.05, 3.03, 5.05, 3.03, 5.05, 3.03, 5.05, 3.03, 5.05, 3.03, 5.05, 3.03, 5.05, 3.03, 5.05, 3.03, 5.05, 3.03, 5.05, 3.03, 5.05, 3.03, 5.05, 3.03, 5.05, 3.03, 5.05, 3.03, 5.05, 3.03, 0, 5.8"><path class="EdgeBody" d="m320 661.88 366.69-0.26852"   marker-end="url(#c)" /></g></g><g id="k" class="Interaction" color="#000" ><g color="#000" fill="transparent"  filter="url(#a)" stroke="#000" stroke-dasharray="96.56361934424405, 1"><path class="EdgeBody" d="m923.02 646.37 93.935 26.362"   marker-end="url(#g)" /></g></g><g class="Label" transform="translate(811.62 785.14)" color="#000"  name="Complex formation of  SCS with NDPK  is inprotant for  deoxyribonucleotide salvation,  which is needed for mtDNA  synthesis and integrity."><use class="Icon" width="193.14814814814827" height="93.51851851851916" fill="transparent"  stroke="#000" stroke-width="0" xlink:href="#d"/><text class="Text" transform="translate(96.574 50.759)"   font-size="12px"  text-anchor="middle"><tspan x="0" y="-33">Complex formation of </tspan> <tspan x="0" y="-19.8">SCS with NDPK </tspan> <tspan x="0" y="-6.6000000000000005">is inprotant for </tspan> <tspan x="0" y="6.6000000000000005">deoxyribonucleotide salvation, </tspan> <tspan x="0" y="19.8">which is needed for mtDNA </tspan> <tspan x="0" y="33">synthesis and integrity.</tspan></text></g><g class="Label" transform="translate(239.29 310.99)" color="#000"  name="Relevant metabolic pathways, illustrating the metabolic  effects of succinyl-CoA  sythethase deficiency"><rect class="Icon" transform="matrix(.99388 0 0 .98702 .49694 .49351)" width="162.48" height="76.016" fill="#cfc" stroke="#000"/><text class="Text" transform="translate(81.241 42.008)"   font-size="12px"  text-anchor="middle"><tspan x="0" y="-19.8">Relevant metabolic pathways,</tspan> <tspan x="0" y="-6.6000000000000005">illustrating the metabolic </tspan> <tspan x="0" y="6.6000000000000005">effects of succinyl-CoA </tspan> <tspan x="0" y="19.8">sythethase deficiency</tspan></text></g><g class="Enzyme_Nomenclature_2_7_4_6 Protein " transform="translate(855.52 621.37)" color="#000"  name="NDPK"><rect class="Icon" transform="matrix(.98901 0 0 .96154 .49451 .48077)" width="90" height="25" fill="#fff" stroke="#000"/><text class="Text" transform="translate(45,16.5)"   font-size="12px"  text-anchor="middle"><tspan x="0" y="0">NDPK</tspan></text></g><a class="WikiPathways_WP111 Pathway " transform="translate(888.94 913.4)" color="#14961e"  name="mtDNA synthesis"  ><use class="Icon" width="128.33333333333354" height="25.231481481481524" fill="transparent"  stroke="#14961e" stroke-width="0" xlink:href="#d"/><text class="Text" transform="translate(64.167 16.616)" fill="#14961e"  font-size="12px" font-weight="bold" stroke="black" stroke-width="0" text-anchor="middle"><tspan x="0" y="0">mtDNA synthesis</tspan></text></a><g class="GroupComplex" transform="translate(165,604.5)" color="grey" ><use class="Icon" transform="matrix(.99359 0 0 .9871 .49679 .49355)" width="155" height="76.5" fill="#b4b464" fill-opacity=".1" stroke="grey" xlink:href="#e"/><a  class="Uniprot-TrEMBL_Q9P2R7 Protein SUCLA2 " transform="translate(12,39.5)"   name="SUCLA2"  ><rect class="Icon" transform="matrix(.98507 0 0 .96154 .49254 .48077)" width="66" height="25" fill="#fff" stroke="#000"/><text class="Text" transform="translate(33,16.5)"   font-size="12px"  text-anchor="middle"><tspan x="0" y="0">SUCLA2</tspan></text></a><g class="Enzyme_Nomenclature_6_2_1_5 Protein " transform="translate(12,12)" color="#000"  name="ADP-forming (A-SCS)"><rect class="Icon" transform="matrix(.99242 0 0 .96491 .49621 .48246)" width="131" height="27.5" fill="#fff" stroke="#000"/><text class="Text" transform="translate(65.5,17.75)"   font-size="12px"  text-anchor="middle"><tspan x="0" y="0">ADP-forming (A-SCS)</tspan></text></g><a  class="Uniprot-TrEMBL_P53597 Protein SUCLG1 " transform="translate(78,39.5)"   name="SUCLG1"  ><rect class="Icon" transform="matrix(.98485 0 0 .96154 .49242 .48077)" width="65" height="25" fill="#fff" stroke="#000"/><text class="Text" transform="translate(32.5,16.5)"   font-size="12px"  text-anchor="middle"><tspan x="0" y="0">SUCLG1</tspan></text></a></g><g id="l" class="Interaction" color="#000" ><g color="#000" fill="transparent"  filter="url(#a)" stroke="#000" stroke-dasharray="10.21718139989185, 11"><path class="EdgeBody" d="m274 514.5 5.4698-20.5"   marker-end="url(#f)" /></g></g><g id="m" class="Edge GraphicalLine DirectedInteraction" color="#000" ><g color="#000" fill="transparent"  filter="url(#a)" stroke="#000" stroke-dasharray="5.12, 3.07, 5.12, 3.07, 5.12, 3.07, 5.12, 3.07, 5.12, 3.07, 5.12, 3.07, 5.12, 3.07, 5.12, 3.07, 5.12, 3.07, 5.12, 3.07, 5.12, 3.07, 5.12, 5.8"><path class="EdgeBody" d="m410.58 348 100.12 13.35"   marker-end="url(#c)" /></g></g><g id="n" class="Interaction" color="#000" ><g color="#000" fill="transparent"  filter="url(#a)" stroke="#000" stroke-dasharray="81.28572595730583, 11"><path class="EdgeBody" d="m493.5 307.5-82.924 40.5"   marker-end="url(#f)" /></g></g><g id="o" class="Interaction" color="#000" ><g color="#000" fill="transparent"  filter="url(#a)" stroke="#000" stroke-dasharray="60.72818951391959, 5.8"><path class="EdgeBody" d="m95 258.5 49-45"   marker-end="url(#b)" /></g></g><g id="p" class="Interaction" color="#000" ><g color="#000" fill="transparent"  filter="url(#a)" stroke="#000" stroke-dasharray="75.41030031194198, 11"><path class="EdgeBody" d="M177.5,277L95,302.7"   marker-end="url(#f)" /></g></g><g id="q" class="Edge GraphicalLine DirectedInteraction" color="#000" ><g color="#000" fill="transparent"  filter="url(#a)" stroke="#000" stroke-dasharray="6, 3.6, 6, 3.6, 6, 3.6, 6, 3.6, 0, 5.8"><path class="EdgeBody" d="m612 314 6.7 41.1"   marker-end="url(#c)" /></g></g><g id="r" class="Interaction" color="#000" ><g color="#000" fill="transparent"  filter="url(#a)" stroke="#000" stroke-dasharray="103.93459114619542, 5.8"><path class="EdgeBody" d="m279.47 494-94.47-55.831"   marker-end="url(#b)" /></g></g><g id="s" class="Interaction" color="#000" ><g color="#000" fill="transparent"  filter="url(#a)" stroke="#000" stroke-dasharray="101.40605376990588, 5.8"><path class="EdgeBody" d="m105.95 762.47 94.045-51.465"   marker-end="url(#b)" /></g></g><g id="t" class="Interaction" color="#000" ><g color="#000" fill="transparent"  filter="url(#a)" stroke="#000" stroke-dasharray="336.096264678293, 5.8"><path class="EdgeBody" d="m117.5 416.88v55.117h205.41v-61.367h20"   marker-end="url(#b)" /></g><g class="Burr Anchor" transform="translate(199.14 472)" ><use class="Icon" width="0" height="0" fill="#141414" stroke-width="0" xlink:href="#d"/></g></g><g id="u" class="Interaction" color="#000" ><g color="#000" fill="transparent"  filter="url(#a)" stroke="#000" stroke-dasharray="26.2, 5.8"><path class="EdgeBody" d="m95 315.5v-32"   marker-end="url(#b)" /></g><g class="Burr Anchor" transform="translate(95,302.7)" ><use class="Icon" width="0" height="0" fill="#141414" stroke-width="0" xlink:href="#d"/></g></g><g id="v" class="Interaction" color="#000" ><g color="#000" fill="transparent"  filter="url(#a)" stroke="#000" stroke-dasharray="51.38177933696052, 5.8"><path class="EdgeBody" d="m291.82 438.17-12.354 55.831"   marker-end="url(#b)" /></g></g><g id="w" class="Edge GraphicalLine DirectedInteraction" color="#000" ><g color="#000" fill="transparent"  filter="url(#a)" stroke="#000" stroke-dasharray="5.06, 3.04, 5.06, 3.04, 5.06, 3.04, 5.06, 3.04, 5.06, 3.04, 5.06, 3.04, 5.06, 3.04, 5.06, 3.04, 5.06, 3.04, 5.06, 3.04, 5.06, 3.04, 5.06, 3.04, 5.06, 3.04, 5.06, 3.04, 5.06, 3.04, 5.06, 3.04, 5.06, 3.04, 5.06, 3.04, 5.06, 3.04, 5.06, 3.04, 5.06, 3.04, 5.06, 3.04, 5.06, 3.04, 5.06, 3.04, 5.06, 3.04, 5.06, 3.04, 5.06, 3.04, 5.06, 5.8"><path class="EdgeBody" d="m612 264 215-80.25"   marker-end="url(#c)" /></g></g><g id="x" class="Edge GraphicalLine DirectedInteraction" color="#000" ><g color="#000" fill="transparent"  filter="url(#a)" stroke="#000" stroke-dasharray="5.65, 3.39, 5.65, 3.39, 5.65, 3.39, 5.65, 3.39, 5.65, 3.39, 5.65, 5.8"><path class="EdgeBody" d="m95 302.7 54.706 14.561"   marker-end="url(#c)" /></g></g><g id="y" class="Interaction" color="#000" ><g color="#000" fill="transparent"  filter="url(#a)" stroke="#000" stroke-dasharray="48.41012119159495, 11"><path class="EdgeBody" d="M281.25,681L298,738"   marker-end="url(#f)" /></g></g><g id="z" class="Interaction" color="#000" ><g color="#000" fill="transparent"  filter="url(#a)" stroke="#000" stroke-dasharray="76.69758580971592, 5.8"><path class="EdgeBody" d="m189 201 82.491 1.0336"   marker-end="url(#b)" /></g><g class="Burr Anchor" transform="translate(222 201.41)" ><use class="Icon" width="0" height="0" fill="#141414" stroke-width="0" xlink:href="#d"/></g></g><g id="aa" class="Interaction" color="#000" ><g color="#000" fill="transparent"  filter="url(#a)" stroke="#000" stroke-dasharray="430.1781974514022, 5.8"><path class="EdgeBody" d="m376.74 416.88v77.117h-281.74v-77.117"   marker-end="url(#b)" /></g><g class="Burr Anchor" transform="translate(279.47 494)" ><use class="Icon" width="0" height="0" fill="#141414" stroke-width="0" xlink:href="#d"/></g></g><g id="ab" class="Edge GraphicalLine DirectedInteraction" color="#000" ><g color="#000" fill="transparent"  filter="url(#a)" stroke="#000" stroke-dasharray="5.07, 3.04, 5.07, 3.04, 5.07, 3.04, 5.07, 3.04, 5.07, 3.04, 5.07, 3.04, 5.07, 3.04, 5.07, 3.04, 5.07, 3.04, 5.07, 3.04, 5.07, 3.04, 5.07, 3.04, 5.07, 3.04, 5.07, 3.04, 5.07, 3.04, 5.07, 3.04, 5.07, 3.04, 5.07, 3.04, 5.07, 3.04, 5.07, 3.04, 5.07, 3.04, 5.07, 3.04, 5.07, 3.04, 5.07, 3.04, 5.07, 3.04, 5.07, 3.04, 5.07, 3.04, 5.07, 3.04, 5.07, 3.04, 5.07, 3.04, 5.07, 3.04, 5.07, 3.04, 5.07, 3.04, 5.07, 3.04, 5.07, 3.04, 5.07, 3.04, 5.07, 3.04, 0, 5.8"><path class="EdgeBody" d="m654.7 367.6 279.55-116.6"   marker-end="url(#c)" /></g></g><g id="ac" class="Interaction" color="#000" ><g color="#000" fill="transparent"  filter="url(#a)" stroke="#000" stroke-dasharray="31.59602830136766, 11"><path class="EdgeBody" d="m202 514.5-2.8586-42.5"   marker-end="url(#f)" /></g></g><g id="ad" class="Interaction" color="#000" ><g color="#000" fill="transparent"  filter="url(#a)" stroke="#000" stroke-dasharray="920.5101302245116, 5.8"><path class="EdgeBody" d="m72.5 416.88v294.12h338.08v-294.12"   marker-end="url(#b)" /></g><g class="Burr Anchor" transform="translate(200 711)" ><use class="Icon" width="0" height="0" fill="#141414" stroke-width="0" xlink:href="#d"/></g></g><g id="ae" class="Interaction" color="#000" ><g color="#000" fill="transparent"  filter="url(#a)" stroke="#000" stroke-dasharray="107.36075768221674, 5.8"><path class="EdgeBody" d="m478.24 398.13h113.16"   marker-end="url(#b)" /></g><g class="Burr Anchor" transform="translate(504.09 398.13)" ><use class="Icon" width="0" height="0" fill="#141414" stroke-width="0" xlink:href="#d"/></g></g><g id="af" class="DirectedInteraction" color="#000" ><g color="#000" fill="transparent"  filter="url(#a)" stroke="#000" stroke-dasharray="104.66501458729434, 5.8"><path class="EdgeBody" d="m836.18 416.88 1.4771 110.46"   marker-end="url(#c)" /></g></g><g id="ag" class="DirectedInteraction" color="#000" ><g color="#000" fill="transparent"  filter="url(#a)" stroke="#000" stroke-dasharray="204.8404506992449, 5.8"><path class="EdgeBody" d="m521.94 410.63-19.828 209.71"   marker-end="url(#c)" /></g></g><g id="ah" class="Interaction" color="#000" ><g color="#000" fill="transparent"  filter="url(#a)" stroke="#000" stroke-dasharray="107.36075768221674, 5.8"><path class="EdgeBody" d="m591.4 410.63h-113.16"   marker-end="url(#b)" /></g><g class="Burr Anchor" transform="translate(521.94 410.63)" ><use class="Icon" width="0" height="0" fill="#141414" stroke-width="0" xlink:href="#d"/></g></g><g id="ai" class="Interaction" color="#000" ><g color="#000" fill="transparent"  filter="url(#a)" stroke="#000" stroke-dasharray="74.99083036464198, 5.8"><path class="EdgeBody" d="m327.36 84.438h-80.791"   marker-end="url(#b)" /></g></g><g id="aj" class="DirectedInteraction" color="#000" ><g color="#000" fill="transparent"  filter="url(#a)" stroke="#000" stroke-dasharray="49.021720233154745, 5.8"><path class="EdgeBody" d="m620.54 416.88 1.5729 54.799"   marker-end="url(#c)" /></g></g><g id="ak" class="Interaction" color="#000" ><g color="#000" fill="transparent"  filter="url(#a)" stroke="#000" stroke-dasharray="1077.0920629976208, 5.8"><path class="EdgeBody" d="m444.41 416.88v321.12h-414.41l7e-15 -327.37h20"   marker-end="url(#b)" /></g><g class="Burr Anchor" transform="translate(298 738)" ><use class="Icon" width="0" height="0" fill="#141414" stroke-width="0" xlink:href="#d"/></g></g><g id="al" class="Interaction" color="#000" ><g color="#000" fill="transparent"  filter="url(#a)" stroke="#000" stroke-dasharray="79.68372867686493, 5.8"><path class="EdgeBody" d="m410.58 306.4v3.3333c-1e-13 3.3333-1e-13 10 0 13.333v14.247c0 10.914 0 32.742 3e-14 43.656v10.914"   marker-end="url(#b)" /></g><g class="Burr Anchor" transform="translate(410.58 348)" ><use class="Icon" width="0" height="0" fill="#141414" stroke-width="0" xlink:href="#d"/></g></g><g id="am" class="DirectedInteraction" color="#000" ><g color="#000" fill="transparent"  filter="url(#a)" stroke="#000" stroke-dasharray="58.67632241225172, 5.8"><path class="EdgeBody" d="m813.68 416.88-24.109 59.799"   marker-end="url(#c)" /></g></g><g id="an" class="DirectedInteraction" color="#000" ><g color="#000" fill="transparent"  filter="url(#a)" stroke="#000" stroke-dasharray="104.66852066059748, 5.8"><path class="EdgeBody" d="m678.81 416.88 1.7194 110.46"   marker-end="url(#c)" /></g></g><g id="ao" class="Interaction" color="#000" ><g color="#000" fill="transparent"  filter="url(#a)" stroke="#000" stroke-dasharray="77.43629560057123, 5.8"><path class="EdgeBody" d="m791.18 410.63h-83.236"   marker-end="url(#b)" /></g></g><g id="ap" class="Interaction" color="#000" ><g color="#000" fill="transparent"  filter="url(#a)" stroke="#000" stroke-dasharray="35.09270147546701, 5.8"><path class="EdgeBody" d="m324.47 769.17-26.471-31.169"   marker-end="url(#b)" /></g></g><g id="aq" class="Interaction" color="#000" ><g color="#000" fill="transparent"  filter="url(#a)" stroke="#000" stroke-dasharray="36.390476190476164, 5.8"><path class="EdgeBody" d="m201.57 90.688v42.19"   marker-end="url(#b)" /></g></g><g id="ar" class="Interaction" color="#000" ><g color="#000" fill="transparent"  filter="url(#a)" stroke="#000" stroke-dasharray="42.28968216427063, 5.8"><path class="EdgeBody" d="m201.57 157.88 20.428 43.535"   marker-end="url(#b)" /></g></g><g id="as" class="Interaction" color="#000" ><g color="#000" fill="transparent"  filter="url(#a)" stroke="#000" stroke-dasharray="45.58288834073046, 5.8"><path class="EdgeBody" d="m95 391.88v-51.383"   marker-end="url(#b)" /></g></g><g id="at" class="DirectedInteraction" color="#000" ><g color="#000" fill="transparent"  filter="url(#a)" stroke="#000" stroke-dasharray="61.78145350312468, 5.8"><path class="EdgeBody" d="m858.68 416.88 31.485 59.799"   marker-end="url(#c)" /></g></g><g id="au" class="Interaction" color="#000" ><g color="#000" fill="transparent"  filter="url(#a)" stroke="#000" stroke-dasharray="165.3064299181451, 5.8"><path class="EdgeBody" d="m298 738-169.35 24.465"   marker-end="url(#b)" /></g></g><g id="av" class="Interaction" color="#000" ><g color="#000" fill="transparent"  filter="url(#a)" stroke="#000" stroke-dasharray="77.43629560057123, 5.8"><path class="EdgeBody" d="m707.94 398.13h83.236"   marker-end="url(#b)" /></g></g><g id="aw" class="Interaction" color="#000" ><g color="#000" fill="transparent"  filter="url(#a)" stroke="#000" stroke-dasharray="74.99083036464198, 5.8"><path class="EdgeBody" d="m246.57 71.938h80.791"   marker-end="url(#b)" /></g></g><g id="ax" class="Edge GraphicalLine DirectedInteraction" color="#000" ><g color="#000" fill="transparent"  filter="url(#a)" stroke="#000" stroke-dasharray="71.79221193068538, 5.8"><path class="EdgeBody" d="m361.49 202.03h8.645c8.645 0 25.935 0 34.58 6.1597 8.645 6.1597 8.645 18.479 8.645 24.639-4e-14 6.1597-4e-14 6.1597 0 6.1597v4e-14"   marker-end="url(#c)" /></g></g><g id="ay" class="Edge GraphicalLine" color="#000" ><g color="#000" fill="transparent"  filter="url(#a)" stroke="#000" stroke-dasharray="33.46227147120026, 5.8"><path class="EdgeBody" d="m411.26 242.14-0.6846 39.256"   marker-end="url(#b)" /></g></g><g class="Label" transform="translate(510.7 355.1)" color="#00f"  name="2-oxoglutaric aciduria"><rect class="Icon" transform="matrix(.9931 0 0 .96154 .49655 .48077)" width="144" height="25" rx="15" ry="15" fill="#fcc" stroke="#00f"/><text class="Text" transform="translate(72,16.5)" fill="#00f"  font-size="12px"  text-anchor="middle"><tspan x="0" y="0">2-oxoglutaric aciduria</tspan></text></g><g class="Label" transform="translate(666,255)" color="#000"  name='In most patient, E2 subunit seems  responsible for "classic metabolic"  presentation of disease'><use class="Icon" width="195" height="62" fill="transparent"  stroke="#000" stroke-width="0" xlink:href="#d"/><text class="Text" transform="translate(97.5,35)"   font-size="12px"  text-anchor="middle"><tspan x="0" y="-13.200000000000001">In most patient, E2 subunit seems </tspan> <tspan x="0" y="0">responsible for "classic metabolic" </tspan> <tspan x="0" y="13.200000000000001">presentation of disease</tspan></text></g><g class="Label" transform="translate(658,209.5)" color="#000"  name="Encephalopathic form is related  to E2 subunit deficiency"><use class="Icon" width="178" height="25" fill="transparent"  stroke="#000" stroke-width="0" xlink:href="#d"/><text class="Text" transform="translate(89,16.5)"   font-size="12px"  text-anchor="middle"><tspan x="0" y="-6.6000000000000005">Encephalopathic form is related </tspan> <tspan x="0" y="6.6000000000000005">to E2 subunit deficiency</tspan></text></g><a class="ChEBI_CHEBI_16810 Metabolite  " transform="translate(353.69 281.4)" color="#00f"  name="alpha-ketoglutarate"  ><rect class="Icon" transform="matrix(.99129 0 0 .96154 .49564 .48077)" width="113.77" height="25" fill="#fff" stroke="#00f"/><text class="Text" transform="translate(56.887 16.5)" fill="#00f"  font-size="12px"  text-anchor="middle"><tspan x="0" y="0">alpha-ketoglutarate</tspan></text></a><a class="ChEBI_CHEBI_18012 Metabolite  " transform="translate(50 315.5)" color="#00f"  name="Fumarate"  ><rect class="Icon" transform="matrix(.98901 0 0 .96154 .49451 .48077)" width="90" height="25" fill="#fff" stroke="#00f"/><text class="Text" transform="translate(45,16.5)" fill="#00f"  font-size="12px"  text-anchor="middle"><tspan x="0" y="0">Fumarate</tspan></text></a><g class="GroupComplex" transform="translate(493.5,214.5)" color="grey" ><use class="Icon" transform="matrix(.99324 0 0 .992 .49662 .496)" width="147" height="124" fill="#b4b464" fill-opacity=".1" stroke="grey" xlink:href="#e"/><a  class="Uniprot-TrEMBL_Q96HY7 Protein DHTKD1 " transform="translate(28.5,37)"   name="E1-subunit"  ><rect class="Icon" transform="matrix(.98901 0 0 .96154 .49451 .48077)" width="90" height="25" fill="#fff" stroke="#000"/><text class="Text" transform="translate(45,16.5)"   font-size="12px"  text-anchor="middle"><tspan x="0" y="0">E1-subunit</tspan></text></a><g class="Uniprot-TrEMBL_Q1B4V6 Protein" transform="translate(12,12)" color="#000"  name="2-KGD complex"><rect class="Icon" transform="matrix(.99194 0 0 .96154 .49597 .48077)" width="123" height="25" fill="#fff" stroke="#000"/><text class="Text" transform="translate(61.5,16.5)"   font-size="12px"  text-anchor="middle"><tspan x="0" y="0">2-KGD complex</tspan></text></g><a  class="Uniprot-TrEMBL_P36957 Protein DLST " transform="translate(28.5,62)"   name="E2-subunit"  ><rect class="Icon" transform="matrix(.98901 0 0 .96154 .49451 .48077)" width="90" height="25" fill="#fff" stroke="#000"/><text class="Text" transform="translate(45,16.5)"   font-size="12px"  text-anchor="middle"><tspan x="0" y="0">E2-subunit</tspan></text></a><a  class="Uniprot-TrEMBL_O00330 Protein PDHX " transform="translate(28.5,87)"   name="E3-subunit"  ><rect class="Icon" transform="matrix(.98901 0 0 .96154 .49451 .48077)" width="90" height="25" fill="#fff" stroke="#000"/><text class="Text" transform="translate(45,16.5)"   font-size="12px"  text-anchor="middle"><tspan x="0" y="0">E3-subunit</tspan></text></a></g><g class="GroupComplex" transform="translate(166,514.5)" color="grey" ><use class="Icon" transform="matrix(.9931 0 0 .98758 .49655 .49379)" width="144" height="79.5" fill="#b4b464" fill-opacity=".1" stroke="grey" xlink:href="#e"/><g class="Enzyme_Nomenclature_6_2_1_4 Protein " transform="translate(12,12)" color="#000"  name="GDP-forming(G-SCS)"><rect class="Icon" transform="matrix(.99174 0 0 .96923 .49587 .48462)" width="120" height="31.5" fill="#fff" stroke="#000"/><text class="Text" transform="translate(60,19.75)"   font-size="12px"  text-anchor="middle"><tspan x="0" y="0">GDP-forming(G-SCS)</tspan></text></g><a  class="Uniprot-TrEMBL_P53597 Protein SUCLG1 " transform="translate(13,42.5)"   name="SUCLG1"  ><rect class="Icon" transform="matrix(.98438 0 0 .96154 .49219 .48077)" width="63" height="25" fill="#fff" stroke="#000"/><text class="Text" transform="translate(31.5,16.5)"   font-size="12px"  text-anchor="middle"><tspan x="0" y="0">SUCLG1</tspan></text></a><a  class="Uniprot-TrEMBL_Q96I99 Protein SUCLG2 " transform="translate(70,42.5)"   name="SUCLG2"  ><rect class="Icon" transform="matrix(.98413 0 0 .96154 .49206 .48077)" width="62" height="25" fill="#fff" stroke="#000"/><text class="Text" transform="translate(31,16.5)"   font-size="12px"  text-anchor="middle"><tspan x="0" y="0">SUCLG2</tspan></text></a></g><a  class="GeneProduct FH " transform="translate(177.5,264.5)"   name="FH"  ><rect class="Icon" transform="matrix(.98246 0 0 .96154 .49123 .48077)" width="56" height="25" fill="#fff" stroke="#000"/><text class="Text" transform="translate(28,16.5)"   font-size="12px"  text-anchor="middle"><tspan x="0" y="0">FH</tspan></text></a><a class="Metabolite ChEBI_CHEBI_30744  " transform="translate(99,188.5)" color="#00f"  name="Oxaloacetate"  ><rect class="Icon" transform="matrix(.98901 0 0 .96154 .49451 .48077)" width="90" height="25" fill="#fff" stroke="#00f"/><text class="Text" transform="translate(45,16.5)" fill="#00f"  font-size="12px"  text-anchor="middle"><tspan x="0" y="0">Oxaloacetate</tspan></text></a><a class="Metabolite ChEBI_CHEBI_15466  " transform="translate(591.4 391.88)" color="#00f"  name="Methylmalonyl-CoA"  ><rect class="Icon" transform="matrix(.99149 0 0 .96154 .49575 .48077)" width="116.54" height="25" fill="#fff" stroke="#00f"/><text class="Text" transform="translate(58.271 16.5)" fill="#00f"  font-size="12px"  text-anchor="middle"><tspan x="0" y="0">Methylmalonyl-CoA</tspan></text></a><a class="Metabolite ChEBI_CHEBI_30797  " transform="translate(50,258.5)" color="#00f"  name="(S)-malate"  ><rect class="Icon" transform="matrix(.98901 0 0 .96154 .49451 .48077)" width="90" height="25" fill="#fff" stroke="#00f"/><text class="Text" transform="translate(45,16.5)" fill="#00f"  font-size="12px"  text-anchor="middle"><tspan x="0" y="0">(S)-malate</tspan></text></a><a class="ChEBI_CHEBI_15361 Metabolite  " transform="translate(156.57 65.688)" color="#00f"  name="pyruvate"  ><rect class="Icon" transform="matrix(.98901 0 0 .96154 .49451 .48077)" width="90" height="25" fill="#fff" stroke="#00f"/><text class="Text" transform="translate(45,16.5)" fill="#00f"  font-size="12px"  text-anchor="middle"><tspan x="0" y="0">pyruvate</tspan></text></a><a  class="ChEBI_CHEBI_24996 Metabolite  " transform="translate(327.36 65.688)"   name="lactate"  ><rect class="Icon" transform="matrix(.98901 0 0 .96154 .49451 .48077)" width="90" height="25" fill="#cfc" stroke="#000"/><text class="Text" transform="translate(45,16.5)"   font-size="12px"  text-anchor="middle"><tspan x="0" y="0">lactate</tspan></text></a><a class="ChEBI_CHEBI_15380 Metabolite  " transform="translate(342.91 391.88)" color="#00f"  name="Succinyl coenzyme A"  ><rect class="Icon" transform="matrix(.99266 0 0 .96154 .49633 .48077)" width="135.33" height="25" fill="#fff" stroke="#00f"/><text class="Text" transform="translate(67.664 16.5)" fill="#00f"  font-size="12px"  text-anchor="middle"><tspan x="0" y="0">Succinyl coenzyme A</tspan></text></a><a class="Metabolite ChEBI_CHEBI_15351  " transform="translate(156.57 132.88)" color="#00f"  name="Acetyl-CoA"  ><rect class="Icon" transform="matrix(.98901 0 0 .96154 .49451 .48077)" width="90" height="25" fill="#fff" stroke="#00f"/><text class="Text" transform="translate(45,16.5)" fill="#00f"  font-size="12px"  text-anchor="middle"><tspan x="0" y="0">Acetyl-CoA</tspan></text></a><a class="ChEBI_CHEBI_16761 Metabolite  " transform="translate(289 769.17)" color="#00f"  name="ADP"  ><rect class="Icon" transform="matrix(.97929 0 0 .96154 .48965 .48077)" width="47.295" height="25" fill="#fff" stroke="#00f"/><text class="Text" transform="translate(23.647 16.5)" fill="#00f"  font-size="12px"  text-anchor="middle"><tspan x="0" y="0">ADP</tspan></text></a><a class="ChEBI_CHEBI_26294 Metabolite  " transform="translate(791.18 391.88)" color="#00f"  name="propionyl"  ><rect class="Icon" transform="matrix(.98901 0 0 .96154 .49451 .48077)" width="90" height="25" fill="#fff" stroke="#00f"/><text class="Text" transform="translate(45,16.5)" fill="#00f"  font-size="12px"  text-anchor="middle"><tspan x="0" y="0">propionyl</tspan></text></a><a class="ChEBI_CHEBI_15422 Metabolite  " transform="translate(94.607 762.47)" color="#00f"  name="ATP"  ><rect class="Icon" transform="matrix(.97845 0 0 .96154 .48922 .48077)" width="45.393" height="25" fill="#fff" stroke="#00f"/><text class="Text" transform="translate(22.697 16.5)" fill="#00f"  font-size="12px"  text-anchor="middle"><tspan x="0" y="0">ATP</tspan></text></a><a  class="ChEBI_CHEBI_30860 Metabolite  " transform="translate(528.48 471.68)"   name="METHYLMALONIC  ACID"  ><rect class="Icon" transform="matrix(.99205 0 0 .97247 .49603 .48623)" width="124.84" height="35.318" fill="#cfc" stroke="#000"/><text class="Text" transform="translate(62.421 21.659)"   font-size="12px"  text-anchor="middle"><tspan x="0" y="-6.6000000000000005">METHYLMALONIC </tspan> <tspan x="0" y="6.6000000000000005">ACID</tspan></text></a><a class="ChEBI_CHEBI_15996 Metabolite  " transform="translate(149 413.17)" color="#00f"  name="GTP"  ><rect class="Icon" transform="matrix(.97959 0 0 .96154 .4898 .48077)" width="48" height="25" fill="#fff" stroke="#00f"/><text class="Text" transform="translate(24,16.5)" fill="#00f"  font-size="12px"  text-anchor="middle"><tspan x="0" y="0">GTP</tspan></text></a><a  class="ChEBI_CHEBI_133748 Metabolite  " transform="translate(271.49 189.53)"   name="citrate"  ><rect class="Icon" transform="matrix(.98901 0 0 .96154 .49451 .48077)" width="90" height="25" fill="#cfc" stroke="#000"/><text class="Text" transform="translate(45,16.5)"   font-size="12px"  text-anchor="middle"><tspan x="0" y="0">citrate</tspan></text></a><a class="ChEBI_CHEBI_30031 Metabolite  " transform="translate(50 391.88)" color="#00f"  name="succinate"  ><rect class="Icon" transform="matrix(.98901 0 0 .96154 .49451 .48077)" width="90" height="25" fill="#fff" stroke="#00f"/><text class="Text" transform="translate(45,16.5)" fill="#00f"  font-size="12px"  text-anchor="middle"><tspan x="0" y="0">succinate</tspan></text></a><a  class="Metabolite ChEBI_CHEBI_30835  " transform="translate(695.27 476.68)"   name="methylcitrate"  ><rect class="Icon" transform="matrix(.99211 0 0 .96154 .49605 .48077)" width="125.73" height="25" fill="#cfc" stroke="#000"/><text class="Text" transform="translate(62.863 16.5)"   font-size="12px"  text-anchor="middle"><tspan x="0" y="0">methylcitrate</tspan></text></a><a  class="Metabolite ChEBI_CHEBI_85473  " transform="translate(540.93 527.34)"   name="METHYLMALONYL CARNITINE  ESTER (C4DC)"  ><rect class="Icon" transform="matrix(.99466 0 0 .97077 .49733 .48539)" width="186.13" height="33.212" fill="#cfc" stroke="#000"/><text class="Text" transform="translate(93.066 20.606)"   font-size="12px"  text-anchor="middle"><tspan x="0" y="-6.6000000000000005">METHYLMALONYL CARNITINE </tspan> <tspan x="0" y="6.6000000000000005">ESTER (C4DC)</tspan></text></a><g class="Metabolite" transform="translate(455.58 620.34)" color="#000"  name="SUCCINYL CARNITINE ESTER (C4DC)"><rect class="Icon" transform="matrix(.99466 0 0 .97077 .49733 .48539)" width="186.13" height="33.212" fill="#cfc" stroke="#000"/><text class="Text" transform="translate(93.066 20.606)"   font-size="12px"  text-anchor="middle"><tspan x="0" y="-6.6000000000000005">SUCCINYL CARNITINE</tspan> <tspan x="0" y="6.6000000000000005">ESTER (C4DC)</tspan></text></g><a  class="Metabolite ChEBI_CHEBI_16510  " transform="translate(744.59 527.34)"   name="3-HYDROXYPROPIONATE"  ><rect class="Icon" transform="matrix(.99466 0 0 .97077 .49733 .48539)" width="186.13" height="33.212" fill="#cfc" stroke="#000"/><text class="Text" transform="translate(93.066 20.606)"   font-size="12px"  text-anchor="middle"><tspan x="0" y="0">3-HYDROXYPROPIONATE</tspan></text></a><a  class="Metabolite ChEBI_CHEBI_28867  " transform="translate(847.48 476.68)"   name="PROPIONYLCARNITINE (C3)"  ><rect class="Icon" transform="matrix(.99418 0 0 .96154 .49709 .48077)" width="170.73" height="25" fill="#cfc" stroke="#000"/><text class="Text" transform="translate(85.363 16.5)"   font-size="12px"  text-anchor="middle"><tspan x="0" y="0">PROPIONYLCARNITINE (C3)</tspan></text></a><g class="Label" transform="translate(827,218.5)" color="#00f"  name="2-oxoglutaric aciduria: encephalopathic form"><rect class="Icon" transform="matrix(.99306 0 0 .97015 .49653 .48507)" width="143" height="32.5" rx="15" ry="15" fill="#fcc" stroke="#00f"/><text class="Text" transform="translate(71.5,20.25)" fill="#00f"  font-size="12px"  text-anchor="middle"><tspan x="0" y="-6.6000000000000005">2-oxoglutaric aciduria:</tspan> <tspan x="0" y="6.6000000000000005">encephalopathic form</tspan></text></g><g class="Label" transform="translate(827,167.5)" color="#00f"  name="2-oxoglutaric aciduria: 'DOOR syndrome&quot;"><rect class="Icon" transform="matrix(.99306 0 0 .97015 .49653 .48507)" width="143" height="32.5" rx="15" ry="15" fill="#fcc" stroke="#00f"/><text class="Text" transform="translate(71.5,20.25)" fill="#00f"  font-size="12px"  text-anchor="middle"><tspan x="0" y="-6.6000000000000005">2-oxoglutaric aciduria:</tspan> <tspan x="0" y="6.6000000000000005">'DOOR syndrome"</tspan></text></g><g id="az" class="Edge GraphicalLine DirectedInteraction" color="#000" ><g color="#000" fill="transparent"  filter="url(#a)" stroke="#000" stroke-dasharray="5.07, 3.04, 5.07, 3.04, 5.07, 3.04, 5.07, 3.04, 5.07, 3.04, 5.07, 3.04, 5.07, 3.04, 5.07, 3.04, 5.07, 3.04, 5.07, 3.04, 5.07, 3.04, 5.07, 3.04, 5.07, 3.04, 5.07, 3.04, 5.07, 3.04, 5.07, 3.04, 5.07, 3.04, 5.07, 3.04, 5.07, 3.04, 5.07, 3.04, 5.07, 3.04, 5.07, 3.04, 5.07, 3.04, 5.07, 3.04, 5.07, 3.04, 5.07, 3.04, 5.07, 5.8"><path class="EdgeBody" d="m612 289 215-54.25"   marker-end="url(#c)" /></g></g><g class="Label" transform="translate(622,120)" color="#000"  name="Clinically recognisable form of: deafness, onycho-osteodystrophy, thumbs and sensorineural deafness, is related to defect of E1 subunit."><use class="Icon" width="209" height="69.5" fill="transparent"  stroke="#000" stroke-width="0" xlink:href="#d"/><text class="Text" transform="translate(104.5,38.75)"   font-size="12px"  text-anchor="middle"><tspan x="0" y="-19.8">Clinically recognisable form of:</tspan> <tspan x="0" y="-6.6000000000000005">deafness, onycho-osteodystrophy,</tspan> <tspan x="0" y="6.6000000000000005">thumbs and sensorineural deafness,</tspan> <tspan x="0" y="19.8">is related to defect of E1 subunit.</tspan></text></g><g class="Label" transform="translate(149.71 308.89)" color="#00f"  name="Fumarase  deficiency"><rect class="Icon" transform="matrix(.98837 0 0 .97101 .49419 .48551)" width="85" height="33.5" rx="15" ry="15" fill="#fcc" stroke="#00f"/><text class="Text" transform="translate(42.5,20.75)" fill="#00f"  font-size="12px"  text-anchor="middle"><tspan x="0" y="-6.6000000000000005">Fumarase </tspan> <tspan x="0" y="6.6000000000000005">deficiency</tspan></text></g><g class="Label" transform="translate(80,588.5)" color="#00f"  name="SCS  deficiency SUCLA2"><rect class="Icon" transform="matrix(.98718 0 0 .98058 .49359 .49029)" width="77" height="50.5" rx="15" ry="15" fill="#fcc" stroke="#00f"/><text class="Text" transform="translate(38.5,29.25)" fill="#00f"  font-size="12px"  text-anchor="middle"><tspan x="0" y="-13.200000000000001">SCS </tspan> <tspan x="0" y="0">deficiency</tspan> <tspan x="0" y="13.200000000000001">SUCLA2</tspan></text></g><g class="Label" transform="translate(82,506.5)" color="#00f"  name="SCS  deficiency SUCLG1"><rect class="Icon" transform="matrix(.98611 0 0 .98058 .49306 .49029)" width="71" height="50.5" rx="15" ry="15" fill="#fcc" stroke="#00f"/><text class="Text" transform="translate(35.5,29.25)" fill="#00f"  font-size="12px"  text-anchor="middle"><tspan x="0" y="-13.200000000000001">SCS </tspan> <tspan x="0" y="0">deficiency</tspan> <tspan x="0" y="13.200000000000001">SUCLG1</tspan></text></g><g id="ba" class="Interaction" color="#000" ><g color="#000" fill="transparent"  filter="url(#a)" stroke="#000" stroke-dasharray="110.60027117948222, 5.8"><path class="EdgeBody" d="m200 711 100.82 58.169"   marker-end="url(#b)" /></g></g><a class="ChEBI_CHEBI_17552 Metabolite  " transform="translate(249.29 413.17)" color="#00f"  name="GDP"  ><rect class="Icon" transform="matrix(.98267 0 0 .96154 .49134 .48077)" width="56.705" height="25" fill="#fff" stroke="#00f"/><text class="Text" transform="translate(28.353 16.5)" fill="#00f"  font-size="12px"  text-anchor="middle"><tspan x="0" y="0">GDP</tspan></text></a><g id="bb" class="Interaction" color="#000" ><g color="#000" fill="transparent"  filter="url(#a)" stroke="#000" stroke-dasharray="45.1835664252814, 5.8"><path class="EdgeBody" d="m161 438.17 38.141 33.831"   marker-end="url(#b)" /></g></g><g id="bc" class="Interaction" color="#000" ><g color="#000" fill="transparent"  filter="url(#a)" stroke="#000" stroke-dasharray="66.88346838915983, 5.8"><path class="EdgeBody" d="m199.14 472 64.33-33.831"   marker-end="url(#b)" /></g></g><g id="bd" class="Interaction" color="#000" ><g color="#000" fill="transparent"  filter="url(#a)" stroke="#000" stroke-dasharray="19.233466556119563, 11"><path class="EdgeBody" d="m203.75 681-3.75 30"   marker-end="url(#f)" /></g></g><g id="be" class="Edge GraphicalLine DirectedInteraction" color="#000" ><g color="#000" fill="transparent"  filter="url(#a)" stroke="#000" stroke-dasharray="6, 3.6, 6, 3.6, 6, 3.6, 6, 3.6, 0, 5.8"><path class="EdgeBody" d="m179 563.25-26-31.5"   marker-end="url(#c)" /></g></g><g id="bf" class="Edge GraphicalLine DirectedInteraction" color="#000" ><g color="#000" fill="transparent"  filter="url(#a)" stroke="#000" stroke-dasharray="6, 3.6, 6, 3.6, 6, 3.6, 6, 3.6, 0, 5.8"><path class="EdgeBody" d="M177,650.25L137.75,639"   marker-end="url(#c)" /></g></g><g class="GroupComplex" transform="translate(952.77 554.73)" color="grey" ><use class="Icon" transform="matrix(.9931 0 0 .98758 .49655 .49379)" width="144" height="79.5" fill="#b4b464" fill-opacity=".1" stroke="grey" xlink:href="#e"/><g class="Enzyme_Nomenclature_6_2_1_4 Protein " transform="translate(12,12)" color="#000"  name="GDP-forming(G-SCS)"><rect class="Icon" transform="matrix(.99174 0 0 .96923 .49587 .48462)" width="120" height="31.5" fill="#fff" stroke="#000"/><text class="Text" transform="translate(60,19.75)"   font-size="12px"  text-anchor="middle"><tspan x="0" y="0">GDP-forming(G-SCS)</tspan></text></g><a  class="Uniprot-TrEMBL_P53597 Protein SUCLG1 " transform="translate(13 42.5)"   name="SUCLG1"  ><rect class="Icon" transform="matrix(.98438 0 0 .96154 .49219 .48077)" width="63" height="25" fill="#fff" stroke="#000"/><text class="Text" transform="translate(31.5,16.5)"   font-size="12px"  text-anchor="middle"><tspan x="0" y="0">SUCLG1</tspan></text></a><a  class="Uniprot-TrEMBL_Q96I99 Protein SUCLG2 " transform="translate(70 42.5)"   name="SUCLG2"  ><rect class="Icon" transform="matrix(.98413 0 0 .96154 .49206 .48077)" width="62" height="25" fill="#fff" stroke="#000"/><text class="Text" transform="translate(31,16.5)"   font-size="12px"  text-anchor="middle"><tspan x="0" y="0">SUCLG2</tspan></text></a></g><g class="GroupComplex" transform="translate(686.69 604.23)" color="grey" ><use class="Icon" transform="matrix(.99359 0 0 .9871 .49679 .49355)" width="155" height="76.5" fill="#b4b464" fill-opacity=".1" stroke="grey" xlink:href="#e"/><a  class="Uniprot-TrEMBL_Q9P2R7 Protein SUCLA2 " transform="translate(12,39.5)"   name="SUCLA2"  ><rect class="Icon" transform="matrix(.98507 0 0 .96154 .49254 .48077)" width="66" height="25" fill="#fff" stroke="#000"/><text class="Text" transform="translate(33,16.5)"   font-size="12px"  text-anchor="middle"><tspan x="0" y="0">SUCLA2</tspan></text></a><g class="Enzyme_Nomenclature_6_2_1_5 Protein " transform="translate(12,12)" color="#000"  name="ADP-forming (A-SCS)"><rect class="Icon" transform="matrix(.99242 0 0 .96491 .49621 .48246)" width="131" height="27.5" fill="#fff" stroke="#000"/><text class="Text" transform="translate(65.5,17.75)"   font-size="12px"  text-anchor="middle"><tspan x="0" y="0">ADP-forming (A-SCS)</tspan></text></g><a  class="Uniprot-TrEMBL_P53597 Protein SUCLG1 " transform="translate(78,39.5)"   name="SUCLG1"  ><rect class="Icon" transform="matrix(.98485 0 0 .96154 .49242 .48077)" width="65" height="25" fill="#fff" stroke="#000"/><text class="Text" transform="translate(32.5,16.5)"   font-size="12px"  text-anchor="middle"><tspan x="0" y="0">SUCLG1</tspan></text></a></g><g class="GroupComplex" transform="translate(943.11 681.84)" color="grey" ><use class="Icon" transform="matrix(.9931 0 0 .99057 .49655 .49528)" width="144.0000000000008" height="105" fill="#b4b464" fill-opacity=".1" stroke="grey" xlink:href="#e"/><g class="Enzyme_Nomenclature_6_2_1_4 Protein " transform="translate(12,12)" color="#000"  name="GDP-forming(G-SCS)"><rect class="Icon" transform="matrix(.99174 0 0 .96923 .49587 .48462)" width="120" height="31.5" fill="#fff" stroke="#000"/><text class="Text" transform="translate(60,19.75)"   font-size="12px"  text-anchor="middle"><tspan x="0" y="0">GDP-forming(G-SCS)</tspan></text></g><a  class="Uniprot-TrEMBL_P53597 Protein SUCLG1 " transform="translate(13 42.5)"   name="SUCLG1"  ><rect class="Icon" transform="matrix(.98438 0 0 .96154 .49219 .48077)" width="63" height="25" fill="#fff" stroke="#000"/><text class="Text" transform="translate(31.5,16.5)"   font-size="12px"  text-anchor="middle"><tspan x="0" y="0">SUCLG1</tspan></text></a><a  class="Uniprot-TrEMBL_Q96I99 Protein SUCLG2 " transform="translate(70 42.5)"   name="SUCLG2"  ><rect class="Icon" transform="matrix(.98413 0 0 .96154 .49206 .48077)" width="62" height="25" fill="#fff" stroke="#000"/><text class="Text" transform="translate(31,16.5)"   font-size="12px"  text-anchor="middle"><tspan x="0" y="0">SUCLG2</tspan></text></a><g class="Enzyme_Nomenclature_2_7_4_6 Protein " transform="translate(27,68)" color="#000"  name="NDPK"><rect class="Icon" transform="matrix(.98901 0 0 .96154 .49451 .48077)" width="90" height="25" fill="#fff" stroke="#000"/><text class="Text" transform="translate(45,16.5)"   font-size="12px"  text-anchor="middle"><tspan x="0" y="0">NDPK</tspan></text></g></g><g class="GroupComplex" transform="translate(687.68 719.6)" color="grey" ><use class="Icon" transform="matrix(.99359 0 0 .9902 .49679 .4951)" width="155" height="101" fill="#b4b464" fill-opacity=".1" stroke="grey" xlink:href="#e"/><a  class="Uniprot-TrEMBL_Q9P2R7 Protein SUCLA2 " transform="translate(12,39.5)"   name="SUCLA2"  ><rect class="Icon" transform="matrix(.98507 0 0 .96154 .49254 .48077)" width="66" height="25" fill="#fff" stroke="#000"/><text class="Text" transform="translate(33,16.5)"   font-size="12px"  text-anchor="middle"><tspan x="0" y="0">SUCLA2</tspan></text></a><g class="Enzyme_Nomenclature_6_2_1_5 Protein " transform="translate(12,12)" color="#000"  name="ADP-forming (A-SCS)"><rect class="Icon" transform="matrix(.99242 0 0 .96491 .49621 .48246)" width="131" height="27.5" fill="#fff" stroke="#000"/><text class="Text" transform="translate(65.5,17.75)"   font-size="12px"  text-anchor="middle"><tspan x="0" y="0">ADP-forming (A-SCS)</tspan></text></g><a  class="Uniprot-TrEMBL_P53597 Protein SUCLG1 " transform="translate(78,39.5)"   name="SUCLG1"  ><rect class="Icon" transform="matrix(.98485 0 0 .96154 .49242 .48077)" width="65" height="25" fill="#fff" stroke="#000"/><text class="Text" transform="translate(32.5,16.5)"   font-size="12px"  text-anchor="middle"><tspan x="0" y="0">SUCLG1</tspan></text></a><g class="Enzyme_Nomenclature_2_7_4_6 Protein " transform="translate(32,64)" color="#000"  name="NDPK"><rect class="Icon" transform="matrix(.98901 0 0 .96154 .49451 .48077)" width="90" height="25" fill="#fff" stroke="#000"/><text class="Text" transform="translate(45,16.5)"   font-size="12px"  text-anchor="middle"><tspan x="0" y="0">NDPK</tspan></text></g></g><g id="bg" class="Interaction" color="#000" ><g color="#000" fill="transparent"  filter="url(#a)" stroke="#000" stroke-dasharray="37.87938734770538, 1"><path class="EdgeBody" d="m764.19 680.73 0.99512 38.867"   marker-end="url(#g)" /></g><g class="Burr Anchor" transform="translate(764.85 706.53)" ><use class="Icon" width="0" height="0" fill="#141414" stroke-width="0" xlink:href="#d"/></g></g><g id="bh" class="Interaction" color="#000" ><g color="#000" fill="transparent"  filter="url(#a)" stroke="#000" stroke-dasharray="127.17452681247357, 1"><path class="EdgeBody" d="m878.02 646.37-113.18 60.164"   marker-end="url(#g)" /></g></g><g id="bi" class="Edge GraphicalLine DirectedInteraction" color="#000" ><g color="#000" fill="transparent"  filter="url(#a)" stroke="#000" stroke-dasharray="5.06, 3.04, 5.06, 3.04, 5.06, 3.04, 5.06, 3.04, 5.06, 3.04, 5.06, 3.04, 5.06, 3.04, 5.06, 3.04, 5.06, 3.04, 5.06, 3.04, 5.06, 3.04, 5.06, 3.04, 5.06, 3.04, 5.06, 3.04, 5.06, 3.04, 5.06, 3.04, 5.06, 3.04, 5.06, 3.04, 5.06, 3.04, 5.06, 3.04, 5.06, 3.04, 5.06, 3.04, 5.06, 3.04, 5.06, 3.04, 5.06, 3.04, 5.06, 3.04, 5.06, 3.04, 5.06, 3.04, 5.06, 3.04, 5.06, 3.04, 5.06, 3.04, 5.06, 3.04, 5.06, 3.04, 5.06, 3.04, 5.06, 3.04, 5.06, 3.04, 5.06, 3.04, 5.06, 3.04, 5.06, 3.04, 5.06, 3.04, 5.06, 3.04, 5.06, 3.04, 5.06, 3.04, 5.06, 3.04, 5.06, 3.04, 5.06, 3.04, 5.06, 3.04, 5.06, 3.04, 5.06, 3.04, 5.06, 3.04, 5.06, 3.04, 5.06, 3.04, 5.06, 3.04, 5.06, 3.04, 5.06, 3.04, 5.06, 3.04, 5.06, 3.04, 5.06, 3.04, 5.06, 3.04, 5.06, 3.04, 5.06, 3.04, 5.06, 3.04, 5.06, 3.04, 5.06, 3.04, 5.06, 3.04, 5.06, 3.04, 5.06, 3.04, 5.06, 3.04, 5.06, 3.04, 5.06, 3.04, 5.06, 3.04, 5.06, 3.04, 5.06, 3.04, 5.06, 3.04, 5.06, 3.04, 5.06, 3.04, 5.06, 3.04, 5.06, 3.04, 5.06, 3.04, 0, 5.8"><path class="EdgeBody" d="m310 574.12 642.77 0.48148"   marker-end="url(#c)" /></g></g><g id="bj" class="DirectedInteraction" color="#000" ><g color="#000" fill="transparent"  filter="url(#a)" stroke="#000" stroke-dasharray="124.24764928720047, 5.8"><path class="EdgeBody" d="m1015.1 786.84-29.916 126.56"   marker-end="url(#c)" /></g></g><g id="bk" class="DirectedInteraction" color="#000" ><g color="#000" fill="transparent"  filter="url(#a)" stroke="#000" stroke-dasharray="216.41394305620787, 5.8"><path class="EdgeBody" d="m504.09 398.13-1.9781 222.21"   marker-end="url(#c)" /></g></g><text class="Text" transform="translate(5,27)" dominant-baseline="central" fill="black"  font-size="12px" font-weight="bold" overflow="visible" ><tspan x="0" y="-9">Name: Krebs cycle disorders</tspan> <tspan x="0" y="9">Organism: Homo sapiens</tspan></text></g></svg>
