<?xml version="1.0" encoding="UTF-8"?>
<!--
  WikiPathways page: https://www.wikipathways.org/index.php/Pathway:WP4249
  URL for this compressed file: https://github.com/eweitz/cachome/tree/main/data/wikipathways/WP4249.svg
  Source code for compression: https://github.com/eweitz/cachome/tree/main/src/wikipathways.py
-->
<svg class="Diagram" width="800" height="600" color="black" baseProfile="full" prefix="schema:http://schema.org/" preserveAspectRatio="xMidYMid" version="1.1" viewBox="0 0 1487 1450" vocab="http://vocabularies.wikipathways.org/wp#" xmlns="http://www.w3.org/2000/svg" xmlns:xlink="http://www.w3.org/1999/xlink"><style>svg {font-family: 'Liberation Sans', Arial, sans-serif; }</style><defs><filter id="g" x="-50%" y="-50%" width="200%" height="200%"><feComposite in="SourceGraphic" in2="SourceGraphic" result="doubleDark"/><feMorphology in="doubleDark" operator="dilate" radius="0.16666666666666666" result="in2Double"/><feMorphology in="SourceGraphic" operator="dilate" radius="3" result="inDouble"/><feComposite in="inDouble" in2="in2Double" operator="out" result="doubleResult"/></filter><filter id="a" x="0" y="0" width="1487" height="1450" filterUnits="userSpaceOnUse"><feColorMatrix in="SourceGraphic" values="-1   0   0 0 0                   0  -1   0 0 0                   0   0  -1 0 0                   0   0   0 1 0"/></filter><filter id="i" x="0" y="0" width="1487" height="1450" filterUnits="userSpaceOnUse"><feColorMatrix in="SourceGraphic" values="-1   0   0 0 0.8                   0  -1   0 0 0.8                   0   0  -1 0 0.8                   0   0   0 1 0"/></filter><marker id="c" stroke-dasharray="99999" markerHeight="12" markerUnits="userSpaceOnUse" markerWidth="12" orient="auto" preserveAspectRatio="none" refX="12" refY="6" viewBox="0 0 12 12"><path transform="rotate(180 6 6)" d="M12 11L0 6l12-5z" fill="currentColor" stroke-width="0"/></marker><marker id="h" stroke-dasharray="99999" markerHeight="12" markerUnits="userSpaceOnUse" markerWidth="12" orient="auto" preserveAspectRatio="none" refX="12" refY="6" viewBox="0 0 12 12"><circle transform="rotate(180 6 6)" cx="6" cy="6" r="5.3" fill="none" stroke="#000"/></marker><marker id="f" stroke-dasharray="99999" markerHeight="20" markerUnits="userSpaceOnUse" markerWidth="10" orient="auto" preserveAspectRatio="none" refX="10" refY="10" viewBox="0 0 10 20"><path d="m3 0v20" fill="currentColor" stroke="currentColor"/></marker><marker id="e" stroke-dasharray="99999" markerHeight="24" markerUnits="userSpaceOnUse" markerWidth="20" orient="auto" preserveAspectRatio="none" refX="20" refY="12" viewBox="0 0 20 24"><g transform="rotate(180 10 12)" fill="none" stroke="#000"><path d="M15 12V5M15.5 5H8M0 5l8-4v8z"/></g></marker><symbol id="d" overflow="visible" preserveAspectRatio="none" viewBox="0 0 50 50"><ellipse cx="25" cy="25" rx="25" ry="25" stroke="currentColor" vector-effect="non-scaling-stroke"/></symbol><symbol id="b" preserveAspectRatio="none" viewBox="0 0 100 100"/></defs><g class="Viewport" color="black"  name="Name: Hedgehog signaling pathway Organism: Homo sapiens"><rect class="Icon" width="1487" height="1450" fill="#fff" stroke="#000" stroke-width="0"/><g id="j" class="DirectedInteraction" color="#000" ><g color="#000" fill="transparent"  filter="url(#a)" stroke="#000" stroke-dasharray="59.25622568209796, 5.8"><path class="EdgeBody" d="m1013.5 626.67-51.5-39.75"   marker-end="url(#c)" /></g></g><g id="k" class="Edge GraphicalLine" color="#ccc" ><g color="#ccc" fill="transparent"  filter="url(#i)" stroke="#000" stroke-dasharray="1709.2447477245341, 0" stroke-width="4"><path class="EdgeBody" d="m21.667 421.67 604.33-0.66667 29-197 42.667-75 50.667-58.667 82.667-29.333 81.333-1.3333 82.667 33.333 54.667 78.667 22.667 97.333 4 145.33h142.67"   /></g></g><g id="l" class="DirectedInteraction" color="#000" ><g color="#000" fill="transparent"  filter="url(#a)" stroke="#000" stroke-dasharray="5.41, 3.24, 5.41, 3.24, 5.41, 3.24, 5.41, 3.24, 5.41, 3.24, 5.41, 3.24, 5.41, 3.24, 5.41, 3.24, 0, 5.8"><path class="EdgeBody" d="m605 417 37-61.5"   marker-end="url(#c)" /></g></g><g id="m" class="DirectedInteraction" color="#000" ><g color="#000" fill="transparent"  filter="url(#a)" stroke="#000" stroke-dasharray="5.58, 3.35, 5.58, 3.35, 5.58, 3.35, 5.58, 3.35, 5.58, 3.35, 5.58, 5.8"><path class="EdgeBody" d="m934 593.17v56"   marker-end="url(#c)" /></g></g><g id="n" class="DirectedInteraction" color="#000" ><g color="#000" fill="transparent"  filter="url(#a)" stroke="#000" stroke-dasharray="5.4, 3.24, 5.4, 3.24, 5.4, 3.24, 5.4, 3.24, 5.4, 3.24, 5.4, 3.24, 5.4, 5.8"><path class="EdgeBody" d="m580 492.5v-63"   marker-end="url(#c)" /></g></g><g id="o" class="DirectedInteraction" color="#000" ><g color="#000" fill="transparent"  filter="url(#a)" stroke="#000" stroke-dasharray="5.15, 3.09, 5.15, 3.09, 5.15, 3.09, 5.15, 3.09, 5.15, 3.09, 5.15, 3.09, 5.15, 3.09, 5.15, 3.09, 5.15, 3.09, 5.15, 3.09, 5.15, 3.09, 5.15, 3.09, 5.15, 3.09, 5.15, 3.09, 5.15, 3.09, 5.15, 3.09, 5.15, 3.09, 5.15, 3.09, 5.15, 3.09, 5.15, 3.09, 5.15, 5.8"><path class="EdgeBody" d="m928.33 298h-3.5556c-3.5556-6e-14 -10.667-6e-14 -14.222 25.333-3.5556 25.333-3.5556 76 1 101.33 4.5556 25.333 13.667 25.333 18.222 25.333h4.5556"   marker-end="url(#c)" /></g></g><g id="p" class="Interaction" color="#000" ><g color="#000" fill="transparent"  filter="url(#a)" stroke="#000" stroke-dasharray="152.2761563009043, 0"><path class="EdgeBody" d="m784.5 248 143.83 50"   /></g></g><g id="q" class="Interaction" color="#000" ><g color="#000" fill="transparent"  filter="url(#a)" stroke="#000" stroke-dasharray="104.905910224353, 0"><path class="EdgeBody" d="m667 343 44.5-95"   /></g></g><g id="r" class="DirectedInteraction" color="#000" ><g color="#000" fill="transparent"  filter="url(#a)" stroke="#000" stroke-dasharray="183.57033822644965, 5.8"><path class="EdgeBody" d="m761.25 513.5-94.25-164.25"   marker-end="url(#c)" /></g></g><g id="s" class="DirectedInteraction" color="#000" ><g color="#000" fill="transparent"  filter="url(#a)" stroke="#000" stroke-dasharray="39.69755793202342, 5.8"><path class="EdgeBody" d="m1005.5 567.33-43.5 13.333"   marker-end="url(#c)" /></g></g><g id="t" class="DirectedInteraction" color="#000" ><g color="#000" fill="transparent"  filter="url(#a)" stroke="#000" stroke-dasharray="5.01, 3, 5.01, 3, 5.01, 3, 5.01, 3, 5.01, 3, 5.01, 3, 5.01, 3, 5.01, 3, 5.01, 3, 5.01, 3, 5.01, 3, 5.01, 3, 5.01, 3, 5.01, 3, 5.01, 3, 5.01, 3, 5.01, 3, 5.01, 3, 5.01, 3, 5.01, 5.8"><path class="EdgeBody" d="m282.5 453.5v163"   marker-end="url(#c)" /></g></g><g id="u" class="DirectedInteraction" color="#000" ><g color="#000" fill="transparent"  filter="url(#a)" stroke="#000" stroke-dasharray="61.20000000000017, 5.8"><path class="EdgeBody" d="m386 649.5h-67"   marker-end="url(#c)" /></g></g><g id="v" class="DirectedInteraction" color="#000" ><g color="#000" fill="transparent"  filter="url(#a)" stroke="#000" stroke-dasharray="5.4, 3.24, 5.4, 3.24, 5.4, 3.24, 5.4, 3.24, 5.4, 3.24, 5.4, 3.24, 5.4, 5.8"><path class="EdgeBody" d="m282.5 682.5-1.5 63"   marker-end="url(#c)" /></g></g><g id="w" class="Interaction" color="#000" ><g color="#000" fill="transparent"  filter="url(#a)" stroke="#000" stroke-dasharray="164.15740740740722, 7"><path class="EdgeBody" d="m667 343h134.17v36.991"   marker-end="url(#f)" /></g></g><g id="x" class="DirectedInteraction" color="#000" ><g color="#000" fill="transparent"  filter="url(#a)" stroke="#000" stroke-dasharray="130.70000000000005, 5.8"><path class="EdgeBody" d="m283 175-2e-13 136.5"   marker-end="url(#c)" /></g></g><g id="y" class="DirectedInteraction" color="#000" ><g color="#000" fill="transparent"  filter="url(#a)" stroke="#000" stroke-dasharray="29.203571246374278, 5.8"><path class="EdgeBody" d="m283 352.5-0.5 35"   marker-end="url(#c)" /></g></g><g id="z" class="Interaction" color="#000" ><g color="#000" fill="transparent"  filter="url(#a)" stroke="#000" stroke-dasharray="98.0487981844629, 7"><path class="EdgeBody" d="m193.5 407.5 89.5-55"   marker-end="url(#f)" /></g></g><g id="aa" class="Interaction" color="#000" ><g color="#000" fill="transparent"  filter="url(#a)" stroke="#000" stroke-dasharray="9, 0"><path class="EdgeBody" d="m642 321.5v9"   /></g></g><g id="ab" class="Interaction" color="#000" ><g color="#000" fill="transparent"  filter="url(#a)" stroke="#000" stroke-dasharray="259.83333333333053, 11"><path class="EdgeBody" d="m880.33 824.17v156.17h-68.167v46.5"   marker-end="url(#e)" /></g></g><g id="ac" class="DirectedInteraction" color="#000" ><g color="#000" fill="transparent"  filter="url(#a)" stroke="#000" stroke-dasharray="5.08, 3.05, 5.08, 3.05, 5.08, 3.05, 5.08, 3.05, 5.08, 3.05, 5.08, 3.05, 5.08, 3.05, 5.08, 3.05, 5.08, 3.05, 5.08, 3.05, 5.08, 3.05, 5.08, 3.05, 5.08, 3.05, 5.08, 3.05, 5.08, 3.05, 5.08, 3.05, 5.08, 3.05, 5.08, 3.05, 5.08, 3.05, 5.08, 3.05, 5.08, 3.05, 5.08, 3.05, 5.08, 3.05, 5.08, 3.05, 5.08, 3.05, 5.08, 3.05, 5.08, 3.05, 5.08, 3.05, 5.08, 3.05, 5.08, 3.05, 5.08, 3.05, 5.08, 3.05, 5.08, 3.05, 5.08, 3.05, 5.08, 3.05, 5.08, 3.05, 5.08, 3.05, 5.08, 3.05, 5.08, 3.05, 5.08, 3.05, 5.08, 3.05, 5.08, 3.05, 5.08, 3.05, 5.08, 3.05, 5.08, 3.05, 5.08, 3.05, 5.08, 3.05, 5.08, 3.05, 5.08, 3.05, 5.08, 3.05, 5.08, 3.05, 5.08, 3.05, 5.08, 3.05, 5.08, 3.05, 5.08, 3.05, 5.08, 3.05, 5.08, 3.05, 5.08, 3.05, 5.08, 3.05, 0, 5.8"><path class="EdgeBody" d="m879.33 220.5 1 482.67"   marker-end="url(#c)" /></g><g class="Burr Anchor" transform="translate(879.38 245.26)" ><use class="Icon" width="0" height="0" fill="#141414" stroke-width="0" xlink:href="#b"/></g><g class="Burr Anchor" transform="translate(879.88 482.09)" ><use class="Icon" width="0" height="0" fill="#141414" stroke-width="0" xlink:href="#b"/></g></g><g id="ad" class="DirectedInteraction" color="#000" ><g color="#000" fill="transparent"  filter="url(#a)" stroke="#000" stroke-dasharray="5.14, 3.09, 5.14, 3.09, 5.14, 3.09, 5.14, 3.09, 5.14, 3.09, 5.14, 3.09, 5.14, 3.09, 5.14, 3.09, 5.14, 3.09, 5.14, 3.09, 5.14, 3.09, 5.14, 3.09, 5.14, 3.09, 5.14, 3.09, 5.14, 3.09, 5.14, 5.8"><path class="EdgeBody" d="m880.33 824.17-1e-13 11.694c1e-13 11.694 1e-13 35.083-14 46.778s-42 11.694-56 11.694l-14 1e-13"   marker-end="url(#c)" /></g><g class="Burr Anchor" transform="translate(834.59 893.33)" ><use class="Icon" width="0" height="0" fill="#141414" stroke-width="0" xlink:href="#b"/></g></g><g id="ae" class="DirectedInteraction" color="#000" ><g color="#000" fill="transparent"  filter="url(#a)" stroke="#000" stroke-dasharray="5.3, 3.18, 5.3, 3.18, 5.3, 3.18, 5.3, 3.18, 5.3, 3.18, 5.3, 3.18, 5.3, 3.18, 5.3, 3.18, 5.3, 3.18, 5.3, 3.18, 5.3, 3.18, 5.3, 3.18, 5.3, 5.8"><path class="EdgeBody" d="m879.88 482.09 0.076338-1.1e-13c0.076338 7e-14 0.22901 7e-14 0.30535 16.429 0.076338 16.429 0.076338 49.287 4.3541 65.716 4.2778 16.429 12.833 16.429 17.111 16.429h4.2778"   marker-end="url(#c)" /></g></g><g id="af" class="DirectedInteraction" color="#000" ><g color="#000" fill="transparent"  filter="url(#a)" stroke="#000" stroke-dasharray="89.12408889220958, 5.8"><path class="EdgeBody" d="m784.5 248 94.885-2.7364"   marker-end="url(#c)" /></g></g><g id="ag" class="Interaction" color="#000" ><g color="#000" fill="transparent"  filter="url(#a)" stroke="#000" stroke-dasharray="82.2117083703143, 11"><path class="EdgeBody" d="m779.67 810.33 50.961 78.047"   marker-end="url(#h)" /></g></g><g class="SingleFreeNode Shape PhysicalEntity CellularComponent Nucleus" transform="translate(602.17 918.17)" color="#c0c0c0"  name="Nucleus"><g fill="transparent"  filter="url(#g)" stroke="#c0c0c0" stroke-width="3"><use class="Icon" transform="matrix(.97834 0 0 .95 5.87 5.7)" width="542" height="228"    xlink:href="#d"/></g><text class="Text" transform="translate(271,217.4)" fill="#c0c0c0"  font-size="12px" stroke="black" stroke-width="0" text-anchor="middle"><tspan x="0" y="0">Nucleus</tspan></text></g><g class="SingleFreeNode Shape PhysicalEntity CellularComponent Cell" transform="translate(181.5 73.5)" color="#c0c0c0"  name="HH-producing cell"><g fill="transparent"  filter="url(#g)" stroke="#c0c0c0" stroke-width="3"><rect class="Icon" transform="matrix(.94419 0 0 .89565 5.6651 5.3739)" width="203" height="103" rx="15" ry="15"   /></g><text class="Text" transform="translate(101.5,55.5)" fill="#c0c0c0"  font-size="12px" font-weight="bold" stroke="black" stroke-width="0" text-anchor="middle"><tspan x="0" y="0">HH-producing cell</tspan></text></g><g class="SingleFreeNode Shape PhysicalEntity CellularComponent Vesicle" transform="translate(211 619)" color="#c0c0c0" ><use class="Icon" transform="matrix(.96 0 0 .95833 1.44 1.4375)" width="72" height="69" fill="transparent"  stroke="#c0c0c0" stroke-width="3" xlink:href="#d"/></g><g class="Label" transform="translate(1134 461.83)" color="#999"  name="Cytoplasm"><use class="Icon" width="90" height="25" fill="transparent"  stroke="#999" stroke-width="0" xlink:href="#b"/><text class="Text" transform="translate(45,16.5)" fill="#999"  font-size="12px" font-weight="bold" stroke="black" stroke-width="0" text-anchor="middle"><tspan x="0" y="0">Cytoplasm</tspan></text></g><g class="Label" transform="translate(236 745.5)" color="#000"  name="Degradation"><use class="Icon" width="90" height="25" fill="transparent"  stroke="#000" stroke-width="0" xlink:href="#b"/><text class="Text" transform="translate(45,16.5)"   font-size="12px" font-weight="bold"  text-anchor="middle"><tspan x="0" y="0">Degradation</tspan></text></g><g class="Label" transform="translate(27.333 430.5)" color="#999"  name="HH-recieving cell"><use class="Icon" width="118.33333333333323" height="25" fill="transparent"  stroke="#999" stroke-width="0" xlink:href="#b"/><text class="Text" transform="translate(59.167 16.5)" fill="#999"  font-size="12px" font-weight="bold" stroke="black" stroke-width="0" text-anchor="middle"><tspan x="0" y="0">HH-recieving cell</tspan></text></g><g class="Label" transform="translate(971.33 143.17)" color="#999"  name="Cilium"><use class="Icon" width="70.33333333333343" height="25" fill="transparent"  stroke="#999" stroke-width="0" xlink:href="#b"/><text class="Text" transform="translate(35.167 16.5)" fill="#999"  font-size="12px" font-weight="bold" stroke="black" stroke-width="0" text-anchor="middle"><tspan x="0" y="0">Cilium</tspan></text></g><g class="GroupGroup" transform="translate(822.33 703.17)" color="grey" ><use class="Icon" width="116" height="121" fill="transparent"  stroke="grey" stroke-dasharray="5,3" stroke-width="0" xlink:href="#b"/><g class="Label" transform="translate(8,8)" color="#000"  name="Activated form"><use class="Icon" width="100" height="25" fill="transparent"  stroke="#000" stroke-width="0" xlink:href="#b"/><text class="Text" transform="translate(50,16.5)"   font-size="12px" font-weight="bold"  text-anchor="middle"><tspan x="0" y="0">Activated form</tspan></text></g><a  class="GeneProduct GLI1 " transform="translate(33,38)"   name="GLI1"  ><rect class="Icon" transform="matrix(.97778 0 0 .96154 .48889 .48077)" width="44" height="25" fill="#fff" stroke="#000"/><text class="Text" transform="translate(22,16.5)"   font-size="12px"  text-anchor="middle"><tspan x="0" y="0">GLI1</tspan></text></a><a  class="GeneProduct GLI2 " transform="translate(33,63)"   name="GLI2"  ><rect class="Icon" transform="matrix(.97778 0 0 .96154 .48889 .48077)" width="44" height="25" fill="#fff" stroke="#000"/><text class="Text" transform="translate(22,16.5)"   font-size="12px"  text-anchor="middle"><tspan x="0" y="0">GLI2</tspan></text></a><a  class="GeneProduct GLI3 " transform="translate(33,88)"   name="GLI3"  ><rect class="Icon" transform="matrix(.97778 0 0 .96154 .48889 .48077)" width="44" height="25" fill="#fff" stroke="#000"/><text class="Text" transform="translate(22,16.5)"   font-size="12px"  text-anchor="middle"><tspan x="0" y="0">GLI3</tspan></text></a></g><a  class="GeneProduct FBXL17 " transform="translate(1013.5 614.17)"   name="FBXL17"  ><rect class="Icon" transform="matrix(.98387 0 0 .96154 .49194 .48077)" width="61" height="25" fill="#fff" stroke="#000"/><text class="Text" transform="translate(30.5 16.5)"   font-size="12px"  text-anchor="middle"><tspan x="0" y="0">FBXL17</tspan></text></a><a  class="GeneProduct HHIP " transform="translate(859.67 1044.8)"   name="HHIP"  ><rect class="Icon" transform="matrix(.98113 0 0 .96154 .49057 .48077)" width="52" height="25" fill="#fff" stroke="#000"/><text class="Text" transform="translate(26,16.5)"   font-size="12px"  text-anchor="middle"><tspan x="0" y="0">HHIP</tspan></text></a><a  class="GeneProduct SMO " transform="translate(555 404.5)"   name="SMO"  ><rect class="Icon" transform="matrix(.98039 0 0 .96154 .4902 .48077)" width="50" height="25" fill="#fff" stroke="#000"/><text class="Text" transform="translate(25,16.5)"   font-size="12px"  text-anchor="middle"><tspan x="0" y="0">SMO</tspan></text></a><g class="GroupGroup" transform="translate(711.5 202.5)" color="grey" ><use class="Icon" width="73" height="91.00000000000009" fill="transparent"  stroke="grey" stroke-dasharray="5,3" stroke-width="0" xlink:href="#b"/><a  class="GeneProduct ARRB1 " transform="translate(8,33)"   name="ARRB1"  ><rect class="Icon" transform="matrix(.98276 0 0 .96154 .49138 .48077)" width="57" height="25" fill="#fff" stroke="#000"/><text class="Text" transform="translate(28.5,16.5)"   font-size="12px"  text-anchor="middle"><tspan x="0" y="0">ARRB1</tspan></text></a><a  class="GeneProduct KIF3A " transform="translate(8,8)"   name="KIF3A"  ><rect class="Icon" transform="matrix(.98276 0 0 .96154 .49138 .48077)" width="57" height="25" fill="#fff" stroke="#000"/><text class="Text" transform="translate(28.5,16.5)"   font-size="12px"  text-anchor="middle"><tspan x="0" y="0">KIF3A</tspan></text></a><a  class="GeneProduct ARRB2 " transform="translate(8 58)"   name="ARRB2"  ><rect class="Icon" transform="matrix(.98276 0 0 .96154 .49138 .48077)" width="57" height="25" fill="#fff" stroke="#000"/><text class="Text" transform="translate(28.5,16.5)"   font-size="12px"  text-anchor="middle"><tspan x="0" y="0">ARRB2</tspan></text></a></g><g class="GroupGroup" transform="translate(692 513.5)" color="grey" ><use class="Icon" width="138.5" height="191" fill="transparent"  stroke="grey" stroke-dasharray="5,3" stroke-width="0" xlink:href="#b"/><a  class="GeneProduct CSNK1G2 " transform="translate(62,108)"   name="CSNK1G2"  ><rect class="Icon" transform="matrix(.98561 0 0 .96154 .49281 .48077)" width="68.5" height="25" fill="#fff" stroke="#000"/><text class="Text" transform="translate(34.25,16.5)"   font-size="12px"  text-anchor="middle"><tspan x="0" y="0">CSNK1G2</tspan></text></a><a  class="GeneProduct GRK2 " transform="translate(8,67)"   name="GRK2"  ><rect class="Icon" transform="matrix(.97826 0 0 .96154 .48913 .48077)" width="45" height="25" fill="#fff" stroke="#000"/><text class="Text" transform="translate(22.5,16.5)"   font-size="12px"  text-anchor="middle"><tspan x="0" y="0">GRK2</tspan></text></a><a  class="GeneProduct CSNK1A1L " transform="translate(62,8)"   name="CSNK1A1L"  ><rect class="Icon" transform="matrix(.98561 0 0 .96154 .49281 .48077)" width="68.5" height="25" fill="#fff" stroke="#000"/><text class="Text" transform="translate(34.25,16.5)"   font-size="12px"  text-anchor="middle"><tspan x="0" y="0">CSNK1A1L</tspan></text></a><a  class="GeneProduct CSNK1A1 " transform="translate(62,33)"   name="CSNK1A1"  ><rect class="Icon" transform="matrix(.98561 0 0 .96154 .49281 .48077)" width="68.5" height="25" fill="#fff" stroke="#000"/><text class="Text" transform="translate(34.25,16.5)"   font-size="12px"  text-anchor="middle"><tspan x="0" y="0">CSNK1A1</tspan></text></a><a  class="GeneProduct CSNK1G3 " transform="translate(62,133)"   name="CSNK1G3"  ><rect class="Icon" transform="matrix(.98561 0 0 .96154 .49281 .48077)" width="68.5" height="25" fill="#fff" stroke="#000"/><text class="Text" transform="translate(34.25,16.5)"   font-size="12px"  text-anchor="middle"><tspan x="0" y="0">CSNK1G3</tspan></text></a><a  class="GeneProduct CSNK1D " transform="translate(62,58)"   name="CSNK1D"  ><rect class="Icon" transform="matrix(.98561 0 0 .96154 .49281 .48077)" width="68.5" height="25" fill="#fff" stroke="#000"/><text class="Text" transform="translate(34.25,16.5)"   font-size="12px"  text-anchor="middle"><tspan x="0" y="0">CSNK1D</tspan></text></a><a  class="GeneProduct CSNK1G1 " transform="translate(62,158)"   name="CSNK1G1"  ><rect class="Icon" transform="matrix(.98561 0 0 .96154 .49281 .48077)" width="68.5" height="25" fill="#fff" stroke="#000"/><text class="Text" transform="translate(34.25,16.5)"   font-size="12px"  text-anchor="middle"><tspan x="0" y="0">CSNK1G1</tspan></text></a><a  class="GeneProduct CSNK1E " transform="translate(62,83)"   name="CSNK1E"  ><rect class="Icon" transform="matrix(.98561 0 0 .96154 .49281 .48077)" width="68.5" height="25" fill="#fff" stroke="#000"/><text class="Text" transform="translate(34.25,16.5)"   font-size="12px"  text-anchor="middle"><tspan x="0" y="0">CSNK1E</tspan></text></a><a  class="GeneProduct GRK3 " transform="translate(8,92)"   name="GRK3"  ><rect class="Icon" transform="matrix(.97826 0 0 .96154 .48913 .48077)" width="45" height="25" fill="#fff" stroke="#000"/><text class="Text" transform="translate(22.5,16.5)"   font-size="12px"  text-anchor="middle"><tspan x="0" y="0">GRK3</tspan></text></a></g><g class="GroupGroup" transform="translate(246 387.5)" color="grey" ><use class="Icon" width="73" height="66" fill="transparent"  stroke="grey" stroke-dasharray="5,3" stroke-width="0" xlink:href="#b"/><a  class="GeneProduct PTCH1 " transform="translate(8,8)"   name="PTCH1"  ><rect class="Icon" transform="matrix(.98276 0 0 .96154 .49138 .48077)" width="57" height="25" fill="#fff" stroke="#000"/><text class="Text" transform="translate(28.5,16.5)"   font-size="12px"  text-anchor="middle"><tspan x="0" y="0">PTCH1</tspan></text></a><a  class="GeneProduct PTCH2 " transform="translate(8,33)"   name="PTCH2"  ><rect class="Icon" transform="matrix(.98276 0 0 .96154 .49138 .48077)" width="57" height="25" fill="#fff" stroke="#000"/><text class="Text" transform="translate(28.5,16.5)"   font-size="12px"  text-anchor="middle"><tspan x="0" y="0">PTCH2</tspan></text></a></g><g class="GroupGroup" transform="translate(760.25 379.99)" color="grey" ><use class="Icon" width="81.83333333333326" height="90.99999999999994" fill="transparent"  stroke="grey" stroke-dasharray="5,3" stroke-width="0" xlink:href="#b"/><a  class="GeneProduct PRKACA " transform="translate(8,8)"   name="PRKACA"  ><rect class="Icon" transform="matrix(.98504 0 0 .96154 .49252 .48077)" width="65.833" height="25" fill="#fff" stroke="#000"/><text class="Text" transform="translate(32.917 16.5)"   font-size="12px"  text-anchor="middle"><tspan x="0" y="0">PRKACA</tspan></text></a><a  class="GeneProduct PRKACB " transform="translate(8,33)"   name="PRKACB"  ><rect class="Icon" transform="matrix(.98504 0 0 .96154 .49252 .48077)" width="65.833" height="25" fill="#fff" stroke="#000"/><text class="Text" transform="translate(32.917 16.5)"   font-size="12px"  text-anchor="middle"><tspan x="0" y="0">PRKACB</tspan></text></a><a  class="GeneProduct PRKACG " transform="translate(8 58)"   name="PRKACG"  ><rect class="Icon" transform="matrix(.98504 0 0 .96154 .49252 .48077)" width="65.833" height="25" fill="#fff" stroke="#000"/><text class="Text" transform="translate(32.917 16.5)"   font-size="12px"  text-anchor="middle"><tspan x="0" y="0">PRKACG</tspan></text></a></g><g class="GroupGroup" transform="translate(188 311.5)" color="grey" ><use class="Icon" width="190" height="41" fill="transparent"  stroke="grey" stroke-dasharray="5,3" stroke-width="0" xlink:href="#b"/><a  class="GeneProduct DHH " transform="translate(8,8)"   name="DHH"  ><rect class="Icon" transform="matrix(.98305 0 0 .96154 .49153 .48077)" width="58" height="25" fill="#fff" stroke="#000"/><text class="Text" transform="translate(29,16.5)"   font-size="12px"  text-anchor="middle"><tspan x="0" y="0">DHH</tspan></text></a><a  class="GeneProduct SHH " transform="translate(65.5 8)"   name="SHH"  ><rect class="Icon" transform="matrix(.98305 0 0 .96154 .49153 .48077)" width="58" height="25" fill="#fff" stroke="#000"/><text class="Text" transform="translate(29,16.5)"   font-size="12px"  text-anchor="middle"><tspan x="0" y="0">SHH</tspan></text></a><a  class="GeneProduct IHH " transform="translate(124,8)"   name="IHH"  ><rect class="Icon" transform="matrix(.98305 0 0 .96154 .49153 .48077)" width="58" height="25" fill="#fff" stroke="#000"/><text class="Text" transform="translate(29,16.5)"   font-size="12px"  text-anchor="middle"><tspan x="0" y="0">IHH</tspan></text></a></g><g class="GroupGroup" transform="translate(609.5 255.5)" color="grey" ><use class="Icon" width="65" height="66" fill="transparent"  stroke="grey" stroke-dasharray="5,3" stroke-width="0" xlink:href="#b"/><a  class="EVC GeneProduct " transform="translate(8,8)"   name="EVC"  ><rect class="Icon" transform="matrix(.98 0 0 .96154 .49 .48077)" width="49" height="25" fill="#fff" stroke="#000"/><text class="Text" transform="translate(24.5,16.5)"   font-size="12px"  text-anchor="middle"><tspan x="0" y="0">EVC</tspan></text></a><a  class="GeneProduct EVC2 " transform="translate(8,33)"   name="EVC2"  ><rect class="Icon" transform="matrix(.98 0 0 .96154 .49 .48077)" width="49" height="25" fill="#fff" stroke="#000"/><text class="Text" transform="translate(24.5,16.5)"   font-size="12px"  text-anchor="middle"><tspan x="0" y="0">EVC2</tspan></text></a></g><g class="GroupGroup" transform="translate(843.33 79.5)" color="grey" ><use class="Icon" width="72" height="140.99999999999994" fill="transparent"  stroke="grey" stroke-dasharray="5,3" stroke-width="0" xlink:href="#b"/><a  class="GeneProduct SUFU " transform="translate(8,8)"   name="SUFU"  ><rect class="Icon" transform="matrix(.98246 0 0 .96154 .49123 .48077)" width="56" height="25" fill="#fff" stroke="#000"/><text class="Text" transform="translate(28,16.5)"   font-size="12px"  text-anchor="middle"><tspan x="0" y="0">SUFU</tspan></text></a><a  class="GeneProduct GLI1 " transform="translate(14 58)"   name="GLI1"  ><rect class="Icon" transform="matrix(.97778 0 0 .96154 .48889 .48077)" width="44" height="25" fill="#fff" stroke="#000"/><text class="Text" transform="translate(22,16.5)"   font-size="12px"  text-anchor="middle"><tspan x="0" y="0">GLI1</tspan></text></a><a  class="GeneProduct GLI2 " transform="translate(14 83)"   name="GLI2"  ><rect class="Icon" transform="matrix(.97778 0 0 .96154 .48889 .48077)" width="44" height="25" fill="#fff" stroke="#000"/><text class="Text" transform="translate(22,16.5)"   font-size="12px"  text-anchor="middle"><tspan x="0" y="0">GLI2</tspan></text></a><a  class="GeneProduct GLI3 " transform="translate(14 108)"   name="GLI3"  ><rect class="Icon" transform="matrix(.97778 0 0 .96154 .48889 .48077)" width="44" height="25" fill="#fff" stroke="#000"/><text class="Text" transform="translate(22,16.5)"   font-size="12px"  text-anchor="middle"><tspan x="0" y="0">GLI3</tspan></text></a><a  class="GeneProduct KIF7 " transform="translate(8,33)"   name="KIF7"  ><rect class="Icon" transform="matrix(.98246 0 0 .96154 .49123 .48077)" width="56" height="25" fill="#fff" stroke="#000"/><text class="Text" transform="translate(28,16.5)"   font-size="12px"  text-anchor="middle"><tspan x="0" y="0">KIF7</tspan></text></a></g><g class="GroupGroup" transform="translate(360 379.5)" color="grey" ><use class="Icon" width="108" height="66" fill="transparent"  stroke="grey" stroke-dasharray="5,3" stroke-width="0" xlink:href="#b"/><a  class="GeneProduct GAS1 " transform="translate(8,8)"   name="GAS1"  ><rect class="Icon" transform="matrix(.97872 0 0 .96154 .48936 .48077)" width="46" height="25" fill="#fff" stroke="#000"/><text class="Text" transform="translate(23,16.5)"   font-size="12px"  text-anchor="middle"><tspan x="0" y="0">GAS1</tspan></text></a><a  class="GeneProduct LRP2 " transform="translate(8,33)"   name="LRP2"  ><rect class="Icon" transform="matrix(.97872 0 0 .96154 .48936 .48077)" width="46" height="25" fill="#fff" stroke="#000"/><text class="Text" transform="translate(23,16.5)"   font-size="12px"  text-anchor="middle"><tspan x="0" y="0">LRP2</tspan></text></a><a  class="GeneProduct CDON " transform="translate(54,8)"   name="CDON"  ><rect class="Icon" transform="matrix(.97872 0 0 .96154 .48936 .48077)" width="46" height="25" fill="#fff" stroke="#000"/><text class="Text" transform="translate(23,16.5)"   font-size="12px"  text-anchor="middle"><tspan x="0" y="0">CDON</tspan></text></a><a  class="GeneProduct BOC " transform="translate(54,33)"   name="BOC"  ><rect class="Icon" transform="matrix(.97872 0 0 .96154 .48936 .48077)" width="46" height="25" fill="#fff" stroke="#000"/><text class="Text" transform="translate(23,16.5)"   font-size="12px"  text-anchor="middle"><tspan x="0" y="0">BOC</tspan></text></a></g><a  class="GeneProduct HHIP " transform="translate(165 407.5)"   name="HHIP"  ><rect class="Icon" transform="matrix(.98276 0 0 .96154 .49138 .48077)" width="57" height="25" fill="#fff" stroke="#000"/><text class="Text" transform="translate(28.5,16.5)"   font-size="12px"  text-anchor="middle"><tspan x="0" y="0">HHIP</tspan></text></a><g class="GroupGroup" transform="translate(246 616.5)" color="grey" ><use class="Icon" width="73" height="66" fill="transparent"  stroke="grey" stroke-dasharray="5,3" stroke-width="0" xlink:href="#b"/><a  class="GeneProduct PTCH1 " transform="translate(8,8)"   name="PTCH1"  ><rect class="Icon" transform="matrix(.98276 0 0 .96154 .49138 .48077)" width="57" height="25" fill="#fff" stroke="#000"/><g class="Burr State" transform="translate(48.5 -1.5)" color="#000"  name="Ub"><use class="Icon" transform="matrix(.94444 0 0 .94444 .47222 .47222)" width="17" height="17" fill="#fff" stroke="#000" xlink:href="#d"/><text class="Text" transform="translate(8.5,11.5)"   font-size="10px"  text-anchor="middle"><tspan x="0" y="0">Ub</tspan></text></g><text class="Text" transform="translate(28.5,16.5)"   font-size="12px"  text-anchor="middle"><tspan x="0" y="0">PTCH1</tspan></text></a><a  class="GeneProduct PTCH2 " transform="translate(8,33)"   name="PTCH2"  ><rect class="Icon" transform="matrix(.98276 0 0 .96154 .49138 .48077)" width="57" height="25" fill="#fff" stroke="#000"/><g class="Burr State" transform="translate(48.5,1.5)" color="#000"  name="Ub"><use class="Icon" transform="matrix(.94444 0 0 .94444 .47222 .47222)" width="17" height="17" fill="#fff" stroke="#000" xlink:href="#d"/><text class="Text" transform="translate(8.5,11.5)"   font-size="10px"  text-anchor="middle"><tspan x="0" y="0">Ub</tspan></text></g><text class="Text" transform="translate(28.5,16.5)"   font-size="12px"  text-anchor="middle"><tspan x="0" y="0">PTCH2</tspan></text></a></g><g class="GroupGroup" transform="translate(386 616.5)" color="grey" ><use class="Icon" width="73" height="66" fill="transparent"  stroke="grey" stroke-dasharray="5,3" stroke-width="0" xlink:href="#b"/><a  class="GeneProduct SMURF1 " transform="translate(8,8)"   name="SMURF1"  ><rect class="Icon" transform="matrix(.98276 0 0 .96154 .49138 .48077)" width="57" height="25" fill="#fff" stroke="#000"/><text class="Text" transform="translate(28.5,16.5)"   font-size="12px"  text-anchor="middle"><tspan x="0" y="0">SMURF1</tspan></text></a><a  class="GeneProduct SMURF2 " transform="translate(8,33)"   name="SMURF2"  ><rect class="Icon" transform="matrix(.98276 0 0 .96154 .49138 .48077)" width="57" height="25" fill="#fff" stroke="#000"/><text class="Text" transform="translate(28.5,16.5)"   font-size="12px"  text-anchor="middle"><tspan x="0" y="0">SMURF2</tspan></text></a></g><g id="ah" class="DirectedInteraction" color="#000" ><g color="#000" fill="transparent"  filter="url(#a)" stroke="#000" stroke-dasharray="127.95350462698171, 5.8"><path class="EdgeBody" d="m283 352.5 131 27"   marker-end="url(#c)" /></g></g><a  class="GeneProduct SMO " transform="translate(617 330.5)"   name="SMO"  ><rect class="Icon" transform="matrix(.98039 0 0 .96154 .4902 .48077)" width="50" height="25" fill="#fff" stroke="#000"/><text class="Text" transform="translate(25,16.5)"   font-size="12px"  text-anchor="middle"><tspan x="0" y="0">SMO</tspan></text></a><g id="ai" class="DirectedInteraction" color="#000" ><g color="#000" fill="transparent"  filter="url(#a)" stroke="#000" stroke-dasharray="5.23, 3.14, 5.23, 3.14, 5.23, 3.14, 5.23, 3.14, 5.23, 3.14, 5.23, 3.14, 5.23, 3.14, 5.23, 3.14, 5.23, 3.14, 5.23, 3.14, 5.23, 3.14, 5.23, 3.14, 5.23, 3.14, 5.23, 3.14, 5.23, 3.14, 5.23, 3.14, 5.23, 3.14, 5.23, 3.14, 5.23, 3.14, 5.23, 3.14, 5.23, 3.14, 0, 5.8"><path class="EdgeBody" d="m605 505 8.25-1e-13c8.25 4e-14 24.75 4e-14 33-24.917 8.25-24.917 8.25-74.75 8.25-99.667l1e-13 -24.917"   marker-end="url(#c)" /></g></g><a  class="GeneProduct GPR161 " transform="translate(928.33 285.5)"   name="GPR161"  ><rect class="Icon" transform="matrix(.98246 0 0 .96154 .49123 .48077)" width="56" height="25" fill="#fff" stroke="#000"/><text class="Text" transform="translate(28,16.5)"   font-size="12px"  text-anchor="middle"><tspan x="0" y="0">GPR161</tspan></text></a><a  class="GeneProduct GPR161 " transform="translate(934.33 437.5)"   name="GPR161"  ><rect class="Icon" transform="matrix(.98246 0 0 .96154 .49123 .48077)" width="56" height="25" fill="#fff" stroke="#000"/><text class="Text" transform="translate(28,16.5)"   font-size="12px"  text-anchor="middle"><tspan x="0" y="0">GPR161</tspan></text></a><a  class="GeneProduct SUFU " transform="translate(906 568.17)"   name="SUFU"  ><rect class="Icon" transform="matrix(.98246 0 0 .96154 .49123 .48077)" width="56" height="25" fill="#fff" stroke="#000"/><g class="Burr State" transform="translate(47.5,-5.5)" color="#000"  name="Ub"><use class="Icon" transform="matrix(.94444 0 0 .94444 .47222 .47222)" width="17" height="17" fill="#fff" stroke="#000" xlink:href="#d"/><text class="Text" transform="translate(8.5,11.5)"   font-size="10px"  text-anchor="middle"><tspan x="0" y="0">Ub</tspan></text></g><text class="Text" transform="translate(28,16.5)"   font-size="12px"  text-anchor="middle"><tspan x="0" y="0">SUFU</tspan></text></a><g class="Label" transform="translate(889 649.17)" color="#000"  name="Degradation"><use class="Icon" width="90" height="25" fill="transparent"  stroke="#000" stroke-width="0" xlink:href="#b"/><text class="Text" transform="translate(45,16.5)"   font-size="12px" font-weight="bold"  text-anchor="middle"><tspan x="0" y="0">Degradation</tspan></text></g><g class="GroupGroup" transform="translate(1005.5 521.83)" color="grey" ><use class="Icon" width="76.99999999999989" height="91" fill="transparent"  stroke="grey" stroke-dasharray="5,3" stroke-width="0" xlink:href="#b"/><a  class="GeneProduct SPOP " transform="translate(8,8)"   name="SPOP"  ><rect class="Icon" transform="matrix(.98387 0 0 .96154 .49194 .48077)" width="61" height="25" fill="#fff" stroke="#000"/><text class="Text" transform="translate(30.5 16.5)"   font-size="12px"  text-anchor="middle"><tspan x="0" y="0">SPOP</tspan></text></a><a  class="GeneProduct SPOPL " transform="translate(8,33)"   name="SPOPL"  ><rect class="Icon" transform="matrix(.98387 0 0 .96154 .49194 .48077)" width="61" height="25" fill="#fff" stroke="#000"/><text class="Text" transform="translate(30.5 16.5)"   font-size="12px"  text-anchor="middle"><tspan x="0" y="0">SPOPL</tspan></text></a><a  class="GeneProduct CUL3 " transform="translate(8,58)"   name="CUL3"  ><rect class="Icon" transform="matrix(.98387 0 0 .96154 .49194 .48077)" width="61" height="25" fill="#fff" stroke="#000"/><text class="Text" transform="translate(30.5 16.5)"   font-size="12px"  text-anchor="middle"><tspan x="0" y="0">CUL3</tspan></text></a></g><g class="GroupGroup" transform="translate(707.67 764.83)" color="grey" ><use class="Icon" width="72" height="91" fill="transparent"  stroke="grey" stroke-dasharray="5,3" stroke-width="0" xlink:href="#b"/><a  class="GeneProduct SPOP " transform="translate(8,8)"   name="SPOP"  ><rect class="Icon" transform="matrix(.98246 0 0 .96154 .49123 .48077)" width="56" height="25" fill="#fff" stroke="#000"/><text class="Text" transform="translate(28,16.5)"   font-size="12px"  text-anchor="middle"><tspan x="0" y="0">SPOP</tspan></text></a><a  class="GeneProduct SPOPL " transform="translate(8,33)"   name="SPOPL"  ><rect class="Icon" transform="matrix(.98246 0 0 .96154 .49123 .48077)" width="56" height="25" fill="#fff" stroke="#000"/><text class="Text" transform="translate(28,16.5)"   font-size="12px"  text-anchor="middle"><tspan x="0" y="0">SPOPL</tspan></text></a><a  class="GeneProduct CUL3 " transform="translate(8,58)"   name="CUL3"  ><rect class="Icon" transform="matrix(.98246 0 0 .96154 .49123 .48077)" width="56" height="25" fill="#fff" stroke="#000"/><text class="Text" transform="translate(28,16.5)"   font-size="12px"  text-anchor="middle"><tspan x="0" y="0">CUL3</tspan></text></a></g><g class="GroupGroup" transform="translate(700.67 1019.8)" color="grey" ><use class="Icon" width="60" height="91" fill="transparent"  stroke="grey" stroke-dasharray="5,3" stroke-width="0" xlink:href="#b"/><a  class="GeneProduct GLI1 " transform="translate(8,8)"   name="GLI1"  ><rect class="Icon" transform="matrix(.97778 0 0 .96154 .48889 .48077)" width="44" height="25" fill="#fff" stroke="#000"/><text class="Text" transform="translate(22,16.5)"   font-size="12px"  text-anchor="middle"><tspan x="0" y="0">GLI1</tspan></text></a><a  class="GeneProduct GLI2 " transform="translate(8,33)"   name="GLI2"  ><rect class="Icon" transform="matrix(.97778 0 0 .96154 .48889 .48077)" width="44" height="25" fill="#fff" stroke="#000"/><text class="Text" transform="translate(22,16.5)"   font-size="12px"  text-anchor="middle"><tspan x="0" y="0">GLI2</tspan></text></a><a  class="GeneProduct GLI3 " transform="translate(8,58)"   name="GLI3"  ><rect class="Icon" transform="matrix(.97778 0 0 .96154 .48889 .48077)" width="44" height="25" fill="#fff" stroke="#000"/><text class="Text" transform="translate(22,16.5)"   font-size="12px"  text-anchor="middle"><tspan x="0" y="0">GLI3</tspan></text></a></g><g class="GroupGroup" transform="translate(775.67 1026.8)" color="grey" ><use class="Icon" width="73" height="66" fill="transparent"  stroke="grey" stroke-dasharray="5,3" stroke-width="0" xlink:href="#b"/><a  class="GeneProduct PTCH1 " transform="translate(8,8)"   name="PTCH1"  ><rect class="Icon" transform="matrix(.98276 0 0 .96154 .49138 .48077)" width="57" height="25" fill="#fff" stroke="#000"/><text class="Text" transform="translate(28.5,16.5)"   font-size="12px"  text-anchor="middle"><tspan x="0" y="0">PTCH1</tspan></text></a><a  class="GeneProduct PTCH2 " transform="translate(8,33)"   name="PTCH2"  ><rect class="Icon" transform="matrix(.98276 0 0 .96154 .49138 .48077)" width="57" height="25" fill="#fff" stroke="#000"/><text class="Text" transform="translate(28.5,16.5)"   font-size="12px"  text-anchor="middle"><tspan x="0" y="0">PTCH2</tspan></text></a></g><g class="GroupGroup" transform="translate(924.67 1020.8)" color="grey" ><use class="Icon" width="68" height="66" fill="transparent"  stroke="grey" stroke-dasharray="5,3" stroke-width="0" xlink:href="#b"/><a  class="GeneProduct CCND1 " transform="translate(8,8)"   name="CCND1"  ><rect class="Icon" transform="matrix(.98113 0 0 .96154 .49057 .48077)" width="52" height="25" fill="#fff" stroke="#000"/><text class="Text" transform="translate(26,16.5)"   font-size="12px"  text-anchor="middle"><tspan x="0" y="0">CCND1</tspan></text></a><a  class="GeneProduct CCND2 " transform="translate(8,33)"   name="CCND2"  ><rect class="Icon" transform="matrix(.98113 0 0 .96154 .49057 .48077)" width="52" height="25" fill="#fff" stroke="#000"/><text class="Text" transform="translate(26,16.5)"   font-size="12px"  text-anchor="middle"><tspan x="0" y="0">CCND2</tspan></text></a></g><a  class="GeneProduct BCL2 " transform="translate(1005.7 1043.8)"   name="BCL2"  ><rect class="Icon" transform="matrix(.98113 0 0 .96154 .49057 .48077)" width="52" height="25" fill="#fff" stroke="#000"/><text class="Text" transform="translate(26,16.5)"   font-size="12px"  text-anchor="middle"><tspan x="0" y="0">BCL2</tspan></text></a><g id="aj" class="Interaction" color="#000" ><g color="#000" fill="transparent"  filter="url(#a)" stroke="#000" stroke-dasharray="334.33333333333053, 11"><path class="EdgeBody" d="m880.33 824.17v156.17h-149.67v39.5"   marker-end="url(#e)" /></g></g><g id="ak" class="Interaction" color="#000" ><g color="#000" fill="transparent"  filter="url(#a)" stroke="#000" stroke-dasharray="214.999999999995, 11"><path class="EdgeBody" d="m880.33 824.17v156.17h5.3333v64.5"   marker-end="url(#e)" /></g></g><g id="al" class="Interaction" color="#000" ><g color="#000" fill="transparent"  filter="url(#a)" stroke="#000" stroke-dasharray="263.999999999995, 11"><path class="EdgeBody" d="m880.33 824.17v156.17h78.333v40.5"   marker-end="url(#e)" /></g></g><g id="am" class="Interaction" color="#000" ><g color="#000" fill="transparent"  filter="url(#a)" stroke="#000" stroke-dasharray="359.9999999999949, 11"><path class="EdgeBody" d="m880.33 824.17v156.17h151.33v63.5"   marker-end="url(#e)" /></g></g><g class="Label" transform="translate(706.33 881.83)" color="#000"  name="Degradation"><use class="Icon" width="90" height="25" fill="transparent"  stroke="#000" stroke-width="0" xlink:href="#b"/><text class="Text" transform="translate(45,16.5)"   font-size="12px" font-weight="bold"  text-anchor="middle"><tspan x="0" y="0">Degradation</tspan></text></g><g class="SingleFreeNode Shape PhysicalEntity CellularComponent Vesicle" transform="translate(504 471)" color="#c0c0c0" ><use class="Icon" transform="matrix(.96 0 0 .95833 1.44 1.4375)" width="72" height="69" fill="transparent"  stroke="#c0c0c0" stroke-width="3" xlink:href="#d"/></g><a  class="GeneProduct SMO " transform="translate(555 492.5)"   name="SMO"  ><rect class="Icon" transform="matrix(.98039 0 0 .96154 .4902 .48077)" width="50" height="25" fill="#fff" stroke="#000"/><text class="Text" transform="translate(25,16.5)"   font-size="12px"  text-anchor="middle"><tspan x="0" y="0">SMO</tspan></text></a><text class="Text" transform="translate(5,27)" dominant-baseline="central" fill="black"  font-size="12px" font-weight="bold" overflow="visible" ><tspan x="0" y="-9">Name: Hedgehog signaling pathway</tspan> <tspan x="0" y="9">Organism: Homo sapiens</tspan></text></g></svg>
