<?xml version="1.0" encoding="UTF-8"?>
<!--
  WikiPathways page: https://www.wikipathways.org/index.php/Pathway:WP4342
  URL for this compressed file: https://github.com/eweitz/cachome/tree/main/data/wikipathways/WP4342.svg
  Source code for compression: https://github.com/eweitz/cachome/tree/main/src/wikipathways.py
-->
<svg class="Diagram" width="800" height="600" color="black" baseProfile="full" prefix="schema:http://schema.org/" preserveAspectRatio="xMidYMid" version="1.1" viewBox="0 0 1253.2 693.75" vocab="http://vocabularies.wikipathways.org/wp#" xmlns="http://www.w3.org/2000/svg" xmlns:xlink="http://www.w3.org/1999/xlink"><style>svg {font-family: 'Liberation Sans', Arial, sans-serif; }</style><defs><filter id="f" x="-50%" y="-50%" width="200%" height="200%"><feComposite in="SourceGraphic" in2="SourceGraphic" result="doubleDark"/><feMorphology in="doubleDark" operator="dilate" radius="0.16666666666666666" result="in2Double"/><feMorphology in="SourceGraphic" operator="dilate" radius="3" result="inDouble"/><feComposite in="inDouble" in2="in2Double" operator="out" result="doubleResult"/></filter><filter id="a" x="0" y="0" width="1253.2" height="693.75" filterUnits="userSpaceOnUse"><feColorMatrix in="SourceGraphic" values="-1   0   0 0 0                   0  -1   0 0 0                   0   0  -1 0 0                   0   0   0 1 0"/></filter><marker id="d" stroke-dasharray="99999" markerHeight="12" markerUnits="userSpaceOnUse" markerWidth="12" orient="auto" preserveAspectRatio="none" refX="12" refY="6" viewBox="0 0 12 12"><path transform="rotate(180 6 6)" d="M12 11L0 6l12-5z" fill="currentColor" stroke-width="0"/></marker><marker id="e" stroke-dasharray="99999" markerHeight="12" markerUnits="userSpaceOnUse" markerWidth="12" orient="auto" preserveAspectRatio="none" refX="12" refY="6" viewBox="0 0 12 12"><path transform="rotate(180 6 6)" d="M12 12L0 6l12-6-7 6z" fill="currentColor" stroke-width="0"/></marker><marker id="c" stroke-dasharray="99999" markerHeight="12" markerUnits="userSpaceOnUse" markerWidth="12" orient="auto" preserveAspectRatio="none" refX="12" refY="6" viewBox="0 0 12 12"><path transform="rotate(180 6 6)" d="M12 11L0 6l12-5z" fill="currentColor" stroke-width="0"/></marker><marker id="g" stroke-dasharray="99999" markerHeight="24" markerUnits="userSpaceOnUse" markerWidth="20" orient="auto" preserveAspectRatio="none" refX="20" refY="12" viewBox="0 0 20 24"><g transform="rotate(180 10 12)" fill="none" stroke="#000"><path d="M15 12V5M15.5 5H8M0 5l8-4v8z"/></g></marker><symbol id="i" overflow="visible" preserveAspectRatio="none" viewBox="0 0 50 50"><ellipse cx="25" cy="25" rx="25" ry="25" stroke="currentColor" vector-effect="non-scaling-stroke"/></symbol><symbol id="h" overflow="visible" preserveAspectRatio="none" viewBox="0 0 100 100"><path d="M0 25L25 0h50l25 25v50l-25 25H25L0 75z" stroke="currentColor" vector-effect="non-scaling-stroke"/></symbol><symbol id="b" preserveAspectRatio="none" viewBox="0 0 100 100"/></defs><g class="Viewport" color="black"  name="Name: Vitamins A and D - action mechanisms Organism: Homo sapiens"><rect class="Icon" width="1253.2" height="693.75" fill="#fff" stroke="#000" stroke-width="0"/><g class="SingleFreeNode Shape" transform="translate(182.36 66)" color="#000" ><rect class="Icon" transform="matrix(.98642 0 0 .96154 .49321 .48077)" width="72.636" height="25" rx="15" ry="15" fill="transparent"  stroke="#000"/></g><g class="SingleFreeNode Shape" transform="translate(23.364 114)" color="#000" ><rect class="Icon" transform="matrix(.9872 0 0 .97807 .4936 .48904)" width="77.15" height="44.6" rx="15" ry="15" fill="transparent"  stroke="#000"/></g><g id="j" class="DirectedInteraction" color="#000" ><g color="#000" fill="transparent"  filter="url(#a)" stroke="#000" stroke-dasharray="54.17934936396755, 5.8"><path class="EdgeBody" d="m219.27 90.229-47.769 36.271"   marker-end="url(#d)" /></g></g><g id="k" class="DirectedInteraction" color="#000" ><g color="#000" fill="transparent"  filter="url(#a)" stroke="#000" stroke-dasharray="62.237496576897044, 5.8"><path class="EdgeBody" d="m1009.9 160.88 2.6e-12 68.037"   marker-end="url(#d)" /></g></g><g id="l" class="Interaction" color="#000" ><g color="#000" fill="transparent"  filter="url(#a)" stroke="#000" stroke-dasharray="34.157761794289385, 5.8"><path class="EdgeBody" d="m850.11 188.96v39.958"   marker-end="url(#c)" /></g></g><g id="m" class="Interaction" color="#000" ><g color="#000" fill="transparent"  filter="url(#a)" stroke="#000" stroke-dasharray="189.72748208807764, 1"><path class="EdgeBody" d="m789.33 373.98 148.54 119.64"   marker-end="url(#e)" /></g></g><g id="n" class="Interaction" color="#000" ><g color="#000" fill="transparent"  filter="url(#a)" stroke="#000" stroke-dasharray="109.01463022452018, 5.8"><path class="EdgeBody" d="m1009.9 177.13-114.81-0.67469"   marker-end="url(#c)" /></g></g><g id="o" class="Interaction" color="#000" ><g color="#000" fill="transparent"  filter="url(#a)" stroke="#000" stroke-dasharray="64.01264782608912, 5.8"><path class="EdgeBody" d="m964.93 241.42h-69.813"   marker-end="url(#c)" /></g></g><g id="p" class="Interaction" color="#000" ><g color="#000" fill="transparent"  filter="url(#a)" stroke="#000" stroke-dasharray="20.2, 5.8"><path class="EdgeBody" d="m171.5 151.5v26"   marker-end="url(#c)" /></g></g><g id="q" class="Interaction" color="#000" ><g color="#000" fill="transparent"  filter="url(#a)" stroke="#000" stroke-dasharray="58.61578115248234, 5.8"><path class="EdgeBody" d="m850.11 253.92 0.73987 64.412"   marker-end="url(#c)" /></g></g><g id="r" class="Interaction" color="#000" ><g color="#000" fill="transparent"  filter="url(#a)" stroke="#000" stroke-dasharray="135.19412610899667, 1"><path class="EdgeBody" d="m923.78 373.98 65.078 119.64"   marker-end="url(#e)" /></g></g><g id="s" class="Interaction" color="#000" ><g color="#000" fill="transparent"  filter="url(#a)" stroke="#000" stroke-dasharray="119.15923555174109, 1"><path class="EdgeBody" d="m761.96 373.98 11.163 119.64"   marker-end="url(#e)" /></g></g><g id="t" class="Interaction" color="#000" ><g color="#000" fill="transparent"  filter="url(#a)" stroke="#000" stroke-dasharray="28.921510869565463, 5.8"><path class="EdgeBody" d="m844.06 355.23h34.722"   marker-end="url(#c)" /></g></g><g id="u" class="Edge GraphicalLine" color="#000" ><g color="#000" fill="transparent"  filter="url(#a)" stroke="#000" stroke-dasharray="220.4244814762494, 11"><path class="EdgeBody" d="m144.8 532.71 231.42 1.1098"   marker-end="url(#g)" /></g></g><g id="v" class="Interaction" color="#000" ><g color="#000" fill="transparent"  filter="url(#a)" stroke="#000" stroke-dasharray="28.921510869565463, 5.8"><path class="EdgeBody" d="m878.78 367.73h-34.722"   marker-end="url(#c)" /></g></g><g id="w" class="DirectedInteraction" color="#000" ><g color="#000" fill="transparent"  filter="url(#a)" stroke="#000" stroke-dasharray="274.6996185302734, 5.8"><path class="EdgeBody" d="m300 151.5v188.5h-92"   marker-end="url(#d)" /></g></g><g id="x" class="DirectedInteraction" color="#000" ><g color="#000" fill="transparent"  filter="url(#a)" stroke="#000" stroke-dasharray="142.69961853027343, 5.8"><path class="EdgeBody" d="m217 241h30v-102h16.5"   marker-end="url(#d)" /></g></g><g id="y" class="Interaction" color="#000" ><g color="#000" fill="transparent"  filter="url(#a)" stroke="#000" stroke-dasharray="22.7, 5.8"><path class="EdgeBody" d="m336.5 139h28.5"   marker-end="url(#c)" /></g></g><g id="z" class="Interaction" color="#000" ><g color="#000" fill="transparent"  filter="url(#a)" stroke="#000" stroke-dasharray="97.1098313198546, 1"><path class="EdgeBody" d="m171.5 400.5 30.8 93.15"   marker-end="url(#e)" /></g></g><g id="aa" class="Interaction" color="#000" ><g color="#000" fill="transparent"  filter="url(#a)" stroke="#000" stroke-dasharray="68.2, 5.8"><path class="EdgeBody" d="m171.5 253.5v74"   marker-end="url(#c)" /></g></g><g id="ab" class="DirectedInteraction" color="#000" ><g color="#000" fill="transparent"  filter="url(#a)" stroke="#000" stroke-dasharray="424.1996185302734, 5.8"><path class="EdgeBody" d="m413 151.5v236.5h-193.5"   marker-end="url(#d)" /></g></g><g id="ac" class="Interaction" color="#000" ><g color="#000" fill="transparent"  filter="url(#a)" stroke="#000" stroke-dasharray="17.2, 5.8"><path class="EdgeBody" d="m171.5 352.5v23"   marker-end="url(#c)" /></g></g><g id="ad" class="DirectedInteraction" color="#000" ><g color="#000" fill="transparent"  filter="url(#a)" stroke="#000" stroke-dasharray="140.66119303689004, 5.8"><path class="EdgeBody" d="m61.939 158.6v82.4h64.061"   marker-end="url(#d)" /></g></g><g id="ae" class="Interaction" color="#000" ><g color="#000" fill="transparent"  filter="url(#a)" stroke="#000" stroke-dasharray="20.2, 5.8"><path class="EdgeBody" d="m171.5 202.5v26"   marker-end="url(#c)" /></g></g><g class="SingleFreeNode Shape PhysicalEntity CellularComponent Cell" transform="translate(75.75,297.25)" color="#c0c0c0" ><g fill="transparent"  filter="url(#f)" stroke="#c0c0c0" stroke-width="3"><rect class="Icon" transform="matrix(.97535 0 0 .96584 5.8521 5.795)" width="474.75" height="339.25" rx="15" ry="15"   /></g></g><g class="SingleFreeNode Shape" transform="translate(717.55 320.24)" color="#000" ><rect class="Icon" transform="matrix(.99622 0 0 .98372 .49811 .49186)" width="263.52" height="60.43" fill="transparent"  stroke="#000"/></g><g class="SingleFreeNode Shape PhysicalEntity CellularComponent Nucleus" transform="translate(110.85,434.25)" color="#c0c0c0" ><g fill="transparent"  filter="url(#f)" stroke="#c0c0c0" stroke-width="3"><use class="Icon" transform="matrix(.96856 0 0 .94025 5.8113 5.6415)" width="369.65000000000015" height="188.8499999999997"    xlink:href="#i"/></g></g><g class="Label" transform="translate(805.85 318.33)" color="#000"  name="Retinoic acid"><use class="Icon" width="90" height="25" fill="transparent"  stroke="#000" stroke-width="0" xlink:href="#b"/><text class="Text" transform="translate(45,16.5)"   font-size="12px"  text-anchor="middle"><tspan x="0" y="0">Retinoic acid</tspan></text></g><g class="Label" transform="translate(11,89.5)" color="#000"  name="Gut"><use class="Icon" width="90" height="25" fill="transparent"  stroke="#000" stroke-width="0" xlink:href="#b"/><text class="Text" transform="translate(45,16.5)"   font-size="12px" font-weight="bold"  text-anchor="middle"><tspan x="0" y="0">Gut</tspan></text></g><g class="Label" transform="translate(159.75 536.65)" color="#000"  name="VDRE"><use class="Icon" width="90" height="25" fill="transparent"  stroke="#000" stroke-width="0" xlink:href="#b"/><text class="Text" transform="translate(45,16.5)"   font-size="12px"  text-anchor="middle"><tspan x="0" y="0">VDRE</tspan></text></g><g class="Label" transform="translate(457.36 638.75)" color="#000"  name="Effector cell"><use class="Icon" width="90" height="25" fill="transparent"  stroke="#000" stroke-width="0" xlink:href="#b"/><text class="Text" transform="translate(45,16.5)"   font-size="12px"  text-anchor="middle"><tspan x="0" y="0">Effector cell</tspan></text></g><g class="Label" transform="translate(27,110.75)" color="#000"  name="Vitamin D- rich diet"><use class="Icon" width="66" height="56.5" fill="transparent"  stroke="#000" stroke-width="0" xlink:href="#b"/><text class="Text" transform="translate(33,32.25)"   font-size="12px"  text-anchor="middle"><tspan x="0" y="-6.6000000000000005">Vitamin D-</tspan> <tspan x="0" y="6.6000000000000005">rich diet</tspan></text></g><g class="GroupGroup" transform="translate(963.35 104.63)" color="grey" ><use class="Icon" width="93.14999999999986" height="72.5" fill="transparent"  stroke="grey" stroke-dasharray="5,3" stroke-width="0" xlink:href="#b"/><g class="SingleFreeNode Shape" transform="translate(8 11.646)" color="#000" ><rect class="Icon" transform="matrix(.9872 0 0 .97807 .4936 .48904)" width="77.15" height="44.6" rx="15" ry="15" fill="transparent"  stroke="#000"/></g><g class="Label" transform="translate(13.575 8)" color="#000"  name="Vitamin A- rich diet"><use class="Icon" width="66" height="56.5" fill="transparent"  stroke="#000" stroke-width="0" xlink:href="#b"/><text class="Text" transform="translate(33,32.25)"   font-size="12px"  text-anchor="middle"><tspan x="0" y="-6.6000000000000005">Vitamin A-</tspan> <tspan x="0" y="6.6000000000000005">rich diet</tspan></text></g></g><g class="Label" transform="translate(186.27 66.229)" color="#000"  name="UV-B light"><use class="Icon" width="66" height="24" fill="transparent"  stroke="#000" stroke-width="0" xlink:href="#b"/><text class="Text" transform="translate(33,16)"   font-size="12px"  text-anchor="middle"><tspan x="0" y="0">UV-B light</tspan></text></g><g class="Label" transform="translate(127.5,88.5)" color="#000"  name="Skin"><use class="Icon" width="90" height="25" fill="transparent"  stroke="#000" stroke-width="0" xlink:href="#b"/><text class="Text" transform="translate(45,16.5)"   font-size="12px" font-weight="bold"  text-anchor="middle"><tspan x="0" y="0">Skin</tspan></text></g><g class="Label" transform="translate(255,89.5)" color="#000"  name="Liver"><use class="Icon" width="90" height="25" fill="transparent"  stroke="#000" stroke-width="0" xlink:href="#b"/><text class="Text" transform="translate(45,16.5)"   font-size="12px" font-weight="bold"  text-anchor="middle"><tspan x="0" y="0">Liver</tspan></text></g><g class="Label" transform="translate(368,89.5)" color="#000"  name="Kidney"><use class="Icon" width="90" height="25" fill="transparent"  stroke="#000" stroke-width="0" xlink:href="#b"/><text class="Text" transform="translate(45,16.5)"   font-size="12px" font-weight="bold"  text-anchor="middle"><tspan x="0" y="0">Kidney</tspan></text></g><a class="ChEBI_CHEBI_17579 Metabolite  " transform="translate(964.93 228.92)" color="#00f"  name="beta-carotene"  ><rect class="Icon" transform="matrix(.98901 0 0 .96154 .49451 .48077)" width="90" height="25" fill="#fff" stroke="#00f"/><text class="Text" transform="translate(45,16.5)" fill="#00f"  font-size="12px"  text-anchor="middle"><tspan x="0" y="0">beta-carotene</tspan></text></a><a class="Metabolite ChEBI_CHEBI_17759  " transform="translate(106 126.5)" color="#00f"  name="7-Dehydrocholesterol"  ><rect class="Icon" transform="matrix(.99242 0 0 .96154 .49621 .48077)" width="131" height="25" fill="#fff" stroke="#00f"/><text class="Text" transform="translate(65.5,16.5)" fill="#00f"  font-size="12px"  text-anchor="middle"><tspan x="0" y="0">7-Dehydrocholesterol</tspan></text></a><a class="ChEBI_CHEBI_17336 Metabolite  " transform="translate(805.11 163.96)" color="#00f"  name="retinol (vit A)"  ><rect class="Icon" transform="matrix(.98901 0 0 .96154 .49451 .48077)" width="90" height="25" fill="#fff" stroke="#00f"/><text class="Text" transform="translate(45,16.5)" fill="#00f"  font-size="12px"  text-anchor="middle"><tspan x="0" y="0">retinol (vit A)</tspan></text></a><a class="ChEBI_CHEBI_15035 Metabolite  " transform="translate(805.11 228.92)" color="#00f"  name="retinal"  ><rect class="Icon" transform="matrix(.98901 0 0 .96154 .49451 .48077)" width="90" height="25" fill="#fff" stroke="#00f"/><text class="Text" transform="translate(45,16.5)" fill="#00f"  font-size="12px"  text-anchor="middle"><tspan x="0" y="0">retinal</tspan></text></a><a class="ChEBI_CHEBI_50648 Metabolite  " transform="translate(878.78 348.98)" color="#00f"  name="ATRA"  ><rect class="Icon" transform="matrix(.98901 0 0 .96154 .49451 .48077)" width="90" height="25" fill="#fff" stroke="#00f"/><text class="Text" transform="translate(45,16.5)" fill="#00f"  font-size="12px"  text-anchor="middle"><tspan x="0" y="0">ATRA</tspan></text></a><a class="Metabolite ChEBI_CHEBI_50648  " transform="translate(734.59 348.98)" color="#00f"  name="9-cis-Retinoic acid"  ><rect class="Icon" transform="matrix(.99095 0 0 .96154 .49547 .48077)" width="109.47" height="25" fill="#fff" stroke="#00f"/><text class="Text" transform="translate(54.737 16.5)" fill="#00f"  font-size="12px"  text-anchor="middle"><tspan x="0" y="0">9-cis-Retinoic acid</tspan></text></a><a class="ChEBI_CHEBI_17933 Metabolite  " transform="translate(263.5,126.5)" color="#00f"  name="25(OH)D3"  ><rect class="Icon" transform="matrix(.98649 0 0 .96154 .49324 .48077)" width="73" height="25" fill="#fff" stroke="#00f"/><text class="Text" transform="translate(36.5,16.5)" fill="#00f"  font-size="12px"  text-anchor="middle"><tspan x="0" y="0">25(OH)D3</tspan></text></a><g class="GroupComplex" transform="translate(151.3 493.65)" color="grey" ><use class="Icon" transform="matrix(.99512 0 0 .98 .49756 .49)" width="203.99999999999997" height="49" fill="#b4b464" fill-opacity=".1" stroke="grey" xlink:href="#h"/><a  class="GeneProduct VDR " transform="translate(12,12)"   name="VDR"  ><rect class="Icon" transform="matrix(.98901 0 0 .96154 .49451 .48077)" width="90" height="25" fill="transparent"  stroke="#000"/><text class="Text" transform="translate(45,16.5)"   font-size="12px"  text-anchor="middle"><tspan x="0" y="0">VDR</tspan></text></a><a  class="GeneProduct RXRA " transform="translate(102 12)"   name="RXR"  ><rect class="Icon" transform="matrix(.98901 0 0 .96154 .49451 .48077)" width="90" height="25" fill="transparent"  stroke="#000"/><text class="Text" transform="translate(45 16.5)"   font-size="12px"  text-anchor="middle"><tspan x="0" y="0">RXR</tspan></text></a></g><a class="ChEBI_CHEBI_28940 Metabolite  " transform="translate(126 228.5)" color="#00f"  name="Vitamin D3"  ><rect class="Icon" transform="matrix(.98913 0 0 .96154 .49457 .48077)" width="91" height="25" fill="#fff" stroke="#00f"/><text class="Text" transform="translate(45.5,16.5)" fill="#00f"  font-size="12px"  text-anchor="middle"><tspan x="0" y="0">Vitamin D3</tspan></text></a><a class="Metabolite " transform="translate(126.5 177.5)" color="#00f"  name="Previtamin D3"  ><rect class="Icon" transform="matrix(.98901 0 0 .96154 .49451 .48077)" width="90" height="25" fill="#fff" stroke="#00f"/><text class="Text" transform="translate(45,16.5)" fill="#00f"  font-size="12px"  text-anchor="middle"><tspan x="0" y="0">Previtamin D3</tspan></text></a><a class="Metabolite " transform="translate(365,126.5)" color="#00f"  name="1,25(OH)2D3"  ><rect class="Icon" transform="matrix(.98969 0 0 .96154 .49485 .48077)" width="96" height="25" fill="#fff" stroke="#00f"/><text class="Text" transform="translate(48,16.5)" fill="#00f"  font-size="12px"  text-anchor="middle"><tspan x="0" y="0">1,25(OH)2D3</tspan></text></a><a class="ChEBI_CHEBI_17933 Metabolite  " transform="translate(135 327.5)" color="#00f"  name="25(OH)D3"  ><rect class="Icon" transform="matrix(.98649 0 0 .96154 .49324 .48077)" width="73" height="25" fill="#fff" stroke="#00f"/><text class="Text" transform="translate(36.5,16.5)" fill="#00f"  font-size="12px"  text-anchor="middle"><tspan x="0" y="0">25(OH)D3</tspan></text></a><a class="Metabolite " transform="translate(123.5 375.5)" color="#00f"  name="1,25(OH)2D3"  ><rect class="Icon" transform="matrix(.98969 0 0 .96154 .49485 .48077)" width="96" height="25" fill="#fff" stroke="#00f"/><text class="Text" transform="translate(48,16.5)" fill="#00f"  font-size="12px"  text-anchor="middle"><tspan x="0" y="0">1,25(OH)2D3</tspan></text></a><g class="Label" transform="translate(81.002 580.21)" color="#000"  name="Nucleus"><use class="Icon" width="90" height="25" fill="transparent"  stroke="#000" stroke-width="0" xlink:href="#b"/><text class="Text" transform="translate(45,16.5)"   font-size="12px"  text-anchor="middle"><tspan x="0" y="0">Nucleus</tspan></text></g><g class="SingleFreeNode Shape PhysicalEntity CellularComponent Cell" transform="translate(641.71 298.79)" color="#c0c0c0" ><g fill="transparent"  filter="url(#f)" stroke="#c0c0c0" stroke-width="3"><rect class="Icon" transform="matrix(.9796 0 0 .96584 5.8776 5.795)" width="576.35" height="339.25" rx="15" ry="15"   /></g></g><g class="SingleFreeNode Shape PhysicalEntity CellularComponent Nucleus" transform="translate(651.83 439.25) rotate(.0022937 236.08 88.171)" color="#c0c0c0" ><g fill="transparent"  filter="url(#f)" stroke="#c0c0c0" stroke-width="3"><use class="Icon" transform="matrix(.97521 0 0 .93629 5.8513 5.6177)" width="472.158646934241" height="176.34154916215334"    xlink:href="#i"/></g></g><g class="GroupComplex" transform="translate(670.76 493.62)" color="grey" ><use class="Icon" transform="matrix(.99514 0 0 .98 .49757 .49)" width="204.7291141304363" height="49" fill="#b4b464" fill-opacity=".1" stroke="grey" xlink:href="#h"/><a  class="GeneProduct RARA " transform="translate(12,12)"   name="RXR"  ><rect class="Icon" transform="matrix(.98901 0 0 .96154 .49451 .48077)" width="90" height="25" fill="transparent"  stroke="#000"/><text class="Text" transform="translate(45,16.5)"   font-size="12px"  text-anchor="middle"><tspan x="0" y="0">RXR</tspan></text></a><a  class="GeneProduct RXRA " transform="translate(102.73 12)"   name="RXR"  ><rect class="Icon" transform="matrix(.98901 0 0 .96154 .49451 .48077)" width="90" height="25" fill="transparent"  stroke="#000"/><text class="Text" transform="translate(45 16.5)"   font-size="12px"  text-anchor="middle"><tspan x="0" y="0">RXR</tspan></text></a></g><g id="af" class="Edge GraphicalLine" color="#000" ><g color="#000" fill="transparent"  filter="url(#a)" stroke="#000" stroke-dasharray="199.9056119680541, 11"><path class="EdgeBody" d="m891.51 534.46 210.91-0.48734"   marker-end="url(#g)" /></g></g><g class="Label" transform="translate(896.33 539.24)" color="#000"  name="RARE"><use class="Icon" width="90" height="25" fill="transparent"  stroke="#000" stroke-width="0" xlink:href="#b"/><text class="Text" transform="translate(45,16.5)"   font-size="12px"  text-anchor="middle"><tspan x="0" y="0">RARE</tspan></text></g><g class="GroupComplex" transform="translate(886.86 493.62)" color="grey" ><use class="Icon" transform="matrix(.99512 0 0 .98 .49756 .49)" width="204" height="49" fill="#b4b464" fill-opacity=".1" stroke="grey" xlink:href="#h"/><a  class="GeneProduct RARA " transform="translate(12,12)"   name="RAR"  ><rect class="Icon" transform="matrix(.98901 0 0 .96154 .49451 .48077)" width="90" height="25" fill="transparent"  stroke="#000"/><text class="Text" transform="translate(45,16.5)"   font-size="12px"  text-anchor="middle"><tspan x="0" y="0">RAR</tspan></text></a><a  class="GeneProduct RXRA " transform="translate(102,12)"   name="RXR"  ><rect class="Icon" transform="matrix(.98901 0 0 .96154 .49451 .48077)" width="90" height="25" fill="transparent"  stroke="#000"/><text class="Text" transform="translate(45 16.5)"   font-size="12px"  text-anchor="middle"><tspan x="0" y="0">RXR</tspan></text></a></g><g id="ag" class="Edge GraphicalLine" color="#000" ><g color="#000" fill="transparent"  filter="url(#a)" stroke="#000" stroke-dasharray="199.90561196805442, 11"><path class="EdgeBody" d="m675.16 536.11 210.91-0.48734"   marker-end="url(#g)" /></g></g><g class="Label" transform="translate(639.57 580.21)" color="#000"  name="Nucleus"><use class="Icon" width="90" height="25" fill="transparent"  stroke="#000" stroke-width="0" xlink:href="#b"/><text class="Text" transform="translate(45,16.5)"   font-size="12px"  text-anchor="middle"><tspan x="0" y="0">Nucleus</tspan></text></g><g class="Label" transform="translate(1133.2 638.75)" color="#000"  name="Effector cell"><use class="Icon" width="90" height="25" fill="transparent"  stroke="#000" stroke-width="0" xlink:href="#b"/><text class="Text" transform="translate(45,16.5)"   font-size="12px"  text-anchor="middle"><tspan x="0" y="0">Effector cell</tspan></text></g><text class="Text" transform="translate(5,27)" dominant-baseline="central" fill="black"  font-size="12px" font-weight="bold" overflow="visible" ><tspan x="0" y="-9">Name: Vitamins A and D - action mechanisms</tspan> <tspan x="0" y="9">Organism: Homo sapiens</tspan></text></g></svg>
