<?xml version="1.0" encoding="UTF-8"?>
<!--
  WikiPathways page: https://www.wikipathways.org/index.php/Pathway:WP434
  URL for this compressed file: https://github.com/eweitz/cachome/tree/main/data/wikipathways/WP434.svg
  Source code for compression: https://github.com/eweitz/cachome/tree/main/src/wikipathways.py
-->
<svg class="Diagram" width="800" height="600" color="black" baseProfile="full" prefix="schema:http://schema.org/" preserveAspectRatio="xMidYMid" version="1.1" viewBox="0 0 1125.1 869.14" vocab="http://vocabularies.wikipathways.org/wp#" xmlns="http://www.w3.org/2000/svg" xmlns:xlink="http://www.w3.org/1999/xlink"><style>svg {font-family: 'Liberation Sans', Arial, sans-serif; }</style><defs><filter id="f" x="-50%" y="-50%" width="200%" height="200%"><feComposite in="SourceGraphic" in2="SourceGraphic" result="doubleDark"/><feMorphology in="doubleDark" operator="dilate" radius="0.16666666666666666" result="in2Double"/><feMorphology in="SourceGraphic" operator="dilate" radius="3" result="inDouble"/><feComposite in="inDouble" in2="in2Double" operator="out" result="doubleResult"/></filter><filter id="a" x="0" y="0" width="1125.1" height="869.14" filterUnits="userSpaceOnUse"><feColorMatrix in="SourceGraphic" values="-1   0   0 0 0                   0  -1   0 0 0                   0   0  -1 0 0                   0   0   0 1 0"/></filter><marker id="d" stroke-dasharray="99999" markerHeight="12" markerUnits="userSpaceOnUse" markerWidth="12" orient="auto" preserveAspectRatio="none" refY="6" viewBox="0 0 12 12"><path d="M12 11L0 6l12-5z" fill="currentColor" stroke-width="0"/></marker><marker id="b" stroke-dasharray="99999" markerHeight="12" markerUnits="userSpaceOnUse" markerWidth="12" orient="auto" preserveAspectRatio="none" refX="12" refY="6" viewBox="0 0 12 12"><path transform="rotate(180 6 6)" d="M12 11L0 6l12-5z" fill="currentColor" stroke-width="0"/></marker><marker id="e" stroke-dasharray="99999" markerHeight="20" markerUnits="userSpaceOnUse" markerWidth="10" orient="auto" preserveAspectRatio="none" refX="10" refY="10" viewBox="0 0 10 20"><path d="m3 0v20" fill="currentColor" stroke="currentColor"/></marker><symbol id="c" preserveAspectRatio="none" viewBox="0 0 100 100"/></defs><g class="Viewport" color="black"  name="Name: TCA cycle Organism: Mus musculus"><rect class="Icon" width="1125.1" height="869.14" fill="#fff" stroke="#000" stroke-width="0"/><g id="g" class="DirectedInteraction" color="#000" ><g color="#000" fill="transparent"  filter="url(#a)" stroke="#000" stroke-dasharray="0, 5.8, 116.924969471997, 5.8"><path class="EdgeBody" d="m743.47 460.17 2.5333 128.5"   marker-end="url(#b)" marker-start="url(#d)" /></g><g class="Burr Anchor" transform="translate(744.48 511.57)" ><use class="Icon" width="0" height="0" fill="#141414" stroke-width="0" xlink:href="#c"/></g></g><g id="h" class="DirectedInteraction" color="#000" ><g color="#000" fill="transparent"  filter="url(#a)" stroke="#000" stroke-dasharray="5.14, 3.08, 5.14, 3.08, 5.14, 3.08, 5.14, 3.08, 5.14, 3.08, 5.14, 3.08, 5.14, 3.08, 5.14, 3.08, 5.14, 3.08, 5.14, 3.08, 5.14, 3.08, 5.14, 3.08, 5.14, 3.08, 5.14, 3.08, 5.14, 3.08, 5.14, 3.08, 5.14, 3.08, 5.14, 3.08, 5.14, 3.08, 5.14, 3.08, 5.14, 3.08, 0, 5.8"><path class="EdgeBody" d="m692.09 267.54-174.59 16.491"   marker-end="url(#b)" /></g></g><g id="i" class="DirectedInteraction" color="#000" ><g color="#000" fill="transparent"  filter="url(#a)" stroke="#000" stroke-dasharray="74.33905487074651, 5.8"><path class="EdgeBody" d="m720.47 801.54-29.852-74.372"   marker-end="url(#b)" /></g></g><g id="j" class="DirectedInteraction" color="#000" ><g color="#000" fill="transparent"  filter="url(#a)" stroke="#000" stroke-dasharray="156.19846821380403, 5.8"><path class="EdgeBody" d="m535 729-160.32 23.289"   marker-end="url(#b)" /></g></g><g id="k" class="DirectedInteraction" color="#000" ><g color="#000" fill="transparent"  filter="url(#a)" stroke="#000" stroke-dasharray="143.93416814845943, 5.8"><path class="EdgeBody" d="m474 125.17 0.5 149.73"   marker-end="url(#b)" /></g><g class="Burr Anchor" transform="translate(474.2,185.06)" ><use class="Icon" width="0" height="0" fill="#141414" stroke-width="0" xlink:href="#c"/></g></g><g id="l" class="DirectedInteraction" color="#000" ><g color="#000" fill="transparent"  filter="url(#a)" stroke="#000" stroke-dasharray="283.8833333333334, 5.8"><path class="EdgeBody" d="m440.33 115.53h-54.983v234.7"   marker-end="url(#b)" /></g><g class="Burr Anchor" transform="translate(385.35 239.8)" ><use class="Icon" width="0" height="0" fill="#141414" stroke-width="0" xlink:href="#c"/></g></g><g id="m" class="DirectedInteraction" color="#000" ><g color="#000" fill="transparent"  filter="url(#a)" stroke="#000" stroke-dasharray="5.169244444387567, 5.8"><path class="EdgeBody" d="m385 228.83 0.35 10.964"   marker-end="url(#b)" /></g></g><g id="n" class="DirectedInteraction" color="#000" ><g color="#000" fill="transparent"  filter="url(#a)" stroke="#000" stroke-dasharray="0, 5.8, 142.2181113812313, 5.8"><path class="EdgeBody" d="m147.28 461.03 153.82-0.66667"   marker-end="url(#b)" marker-start="url(#d)" /></g></g><g id="o" class="DirectedInteraction" color="#000" ><g color="#000" fill="transparent"  filter="url(#a)" stroke="#000" stroke-dasharray="305.9726753494623, 5.8"><path class="EdgeBody" d="m402.18 350.23 7e-14 -6.2056c-7e-14 -6.2056-7e-14 -18.617 45.757-24.822 45.757-6.2056 137.27-6.2056 183.03 0.77778 45.757 6.9833 45.757 20.95 45.757 27.933v6.9833"   marker-end="url(#b)" /></g><g class="Burr Anchor" transform="translate(541.89 314.66)" ><use class="Icon" width="0" height="0" fill="#141414" stroke-width="0" xlink:href="#c"/></g><g class="Burr Anchor" transform="translate(487.98 315.8)" ><use class="Icon" width="0" height="0" fill="#141414" stroke-width="0" xlink:href="#c"/></g></g><g id="p" class="DirectedInteraction" color="#000" ><g color="#000" fill="transparent"  filter="url(#a)" stroke="#000" stroke-dasharray="0, 5.8, 112.26165221281722, 5.8"><path class="EdgeBody" d="m746 608.67-72.767 100.23"   marker-end="url(#b)" marker-start="url(#d)" /></g><g class="Burr Anchor" transform="translate(716.89 648.76)" ><use class="Icon" width="0" height="0" fill="#141414" stroke-width="0" xlink:href="#c"/></g></g><g id="q" class="DirectedInteraction" color="#000" ><g color="#000" fill="transparent"  filter="url(#a)" stroke="#000" stroke-dasharray="5.19, 3.11, 5.19, 3.11, 5.19, 3.11, 5.19, 3.11, 5.19, 3.11, 5.19, 3.11, 0, 5.8"><path class="EdgeBody" d="m474.18 53.385-0.17833 52.515"   marker-end="url(#b)" /></g></g><g id="r" class="DirectedInteraction" color="#000" ><g color="#000" fill="transparent"  filter="url(#a)" stroke="#000" stroke-dasharray="5.72, 3.43, 5.72, 3.43, 5.72, 3.43, 5.72, 3.43, 5.72, 3.43, 5.72, 3.43, 5.72, 3.43, 0, 5.8"><path class="EdgeBody" d="m113.47 358.23-0.65697-66.442"   marker-end="url(#b)" /></g></g><g id="s" class="DirectedInteraction" color="#000" ><g color="#000" fill="transparent"  filter="url(#a)" stroke="#000" stroke-dasharray="81.6704585052068, 5.8"><path class="EdgeBody" d="m689.37 373.17 54.1 68.733"   marker-end="url(#b)" /></g><g class="Burr Anchor" transform="translate(713.72 404.1)" ><use class="Icon" width="0" height="0" fill="#141414" stroke-width="0" xlink:href="#c"/></g></g><g id="t" class="DirectedInteraction" color="#000" ><g color="#000" fill="transparent"  filter="url(#a)" stroke="#000" stroke-dasharray="5.52, 3.31, 5.52, 3.31, 5.52, 3.31, 5.52, 3.31, 5.52, 3.31, 5.52, 3.31, 0, 5.8"><path class="EdgeBody" d="m714.67 364.03 55.506 1.0601"   marker-end="url(#b)" /></g></g><g id="u" class="DirectedInteraction" color="#000" ><g color="#000" fill="transparent"  filter="url(#a)" stroke="#000" stroke-dasharray="0, 5.8, 63.79999999999998, 5.8"><path class="EdgeBody" d="m113.47 451.9v-75.4"   marker-end="url(#b)" marker-start="url(#d)" /></g><g class="Burr Anchor" transform="translate(113.47 415)" ><use class="Icon" width="0" height="0" fill="#141414" stroke-width="0" xlink:href="#c"/></g></g><g id="v" class="DirectedInteraction" color="#000" ><g color="#000" fill="transparent"  filter="url(#a)" stroke="#000" stroke-dasharray="4.866666666667462, 5.8"><path class="EdgeBody" d="m113.47 425.67-4.069e-6 -10.667"   marker-end="url(#b)" /></g></g><g id="w" class="DirectedInteraction" color="#000" ><g color="#000" fill="transparent"  filter="url(#a)" stroke="#000" stroke-dasharray="6.396474620410738, 5.8"><path class="EdgeBody" d="m712.33 416.22 1.3835-12.118"   marker-end="url(#b)" /></g></g><g id="x" class="DirectedInteraction" color="#000" ><g color="#000" fill="transparent"  filter="url(#a)" stroke="#000" stroke-dasharray="270.6993840182979, 5.8"><path class="EdgeBody" d="m655.85 727.17 1e-13 5.1389c-1e-13 5.1389-1e-13 15.417-40.553 20.556-40.553 5.1389-121.66 5.1389-162.21-1.4444-40.553-6.5833-40.553-19.75-40.553-26.333l-4e-14 -6.5833"   marker-end="url(#b)" /></g><g class="Burr Anchor" transform="translate(543.93 756.54)" ><use class="Icon" width="0" height="0" fill="#141414" stroke-width="0" xlink:href="#c"/></g></g><g id="y" class="DirectedInteraction" color="#000" ><g color="#000" fill="transparent"  filter="url(#a)" stroke="#000" stroke-dasharray="8.292458004802441, 5.8"><path class="EdgeBody" d="m544.16 299.17-2.5187 13.866"   marker-end="url(#b)" /></g></g><g id="z" class="DirectedInteraction" color="#000" ><g color="#000" fill="transparent"  filter="url(#a)" stroke="#000" stroke-dasharray="151.16154164493787, 5.8"><path class="EdgeBody" d="m380.93 700.23-64.567-143.07"   marker-end="url(#b)" /></g><g class="Burr Anchor" transform="translate(350.14 632.01)" ><use class="Icon" width="0" height="0" fill="#141414" stroke-width="0" xlink:href="#c"/></g><g class="Burr Anchor" transform="translate(365.44 665.9)" ><use class="Icon" width="0" height="0" fill="#141414" stroke-width="0" xlink:href="#c"/></g></g><g id="aa" class="DirectedInteraction" color="#000" ><g color="#000" fill="transparent"  filter="url(#a)" stroke="#000" stroke-dasharray="5.15, 3.09, 5.15, 3.09, 5.15, 3.09, 5.15, 3.09, 5.15, 3.09, 5.15, 3.09, 5.15, 3.09, 5.15, 3.09, 5.15, 3.09, 5.15, 3.09, 5.15, 3.09, 5.15, 3.09, 5.15, 3.09, 5.15, 3.09, 5.15, 3.09, 5.15, 3.09, 5.15, 3.09, 5.15, 3.09, 5.15, 5.8"><path class="EdgeBody" d="m365.44 701.6h20v23.329h-95.925v20"   marker-end="url(#b)" /></g><g class="Burr Anchor" transform="translate(330.78 724.93)" ><use class="Icon" width="0" height="0" fill="#141414" stroke-width="0" xlink:href="#c"/></g></g><g id="ab" class="DirectedInteraction" color="#000" ><g color="#000" fill="transparent"  filter="url(#a)" stroke="#000" stroke-dasharray="0, 5.8, 90.23901375318907, 5.8"><path class="EdgeBody" d="m325.97 451.23 59.383-82.733"   marker-end="url(#b)" marker-start="url(#d)" /></g><g class="Burr Anchor" transform="translate(354.36 411.68)" ><use class="Icon" width="0" height="0" fill="#141414" stroke-width="0" xlink:href="#c"/></g></g><g id="ac" class="DirectedInteraction" color="#000" ><g color="#000" fill="transparent"  filter="url(#a)" stroke="#000" stroke-dasharray="72.3329591811402, 5.8"><path class="EdgeBody" d="m359.67 652.33-28.888 72.597"   marker-end="url(#b)" /></g></g><g id="ad" class="DirectedInteraction" color="#000" ><g color="#000" fill="transparent"  filter="url(#a)" stroke="#000" stroke-dasharray="0, 5.8, 58.460830711603734, 5.8"><path class="EdgeBody" d="m316.37 538.9 9.6-69.4"   marker-end="url(#b)" marker-start="url(#d)" /></g><g class="Burr Anchor" transform="translate(321.2 503.95)" ><use class="Icon" width="0" height="0" fill="#141414" stroke-width="0" xlink:href="#c"/></g></g><g id="ae" class="DirectedInteraction" color="#000" ><g color="#000" fill="transparent"  filter="url(#a)" stroke="#000" stroke-dasharray="5.955879972615162, 5.8"><path class="EdgeBody" d="m319.33 515.55 1.8682-11.606"   marker-end="url(#b)" /></g></g><g id="af" class="DirectedInteraction" color="#000" ><g color="#000" fill="transparent"  filter="url(#a)" stroke="#000" stroke-dasharray="20.88143289522764, 5.8"><path class="EdgeBody" d="m474.5 293.17 15.333 21.836"   marker-end="url(#b)" /></g></g><g id="ag" class="DirectedInteraction" color="#000" ><g color="#000" fill="transparent"  filter="url(#a)" stroke="#000" stroke-dasharray="6.431289824311736, 5.8"><path class="EdgeBody" d="m353.67 423.89 0.69301-12.212"   marker-end="url(#b)" /></g></g><g id="ah" class="DirectedInteraction" color="#000" ><g color="#000" fill="transparent"  filter="url(#a)" stroke="#000" stroke-dasharray="77.68735844035272, 5.8"><path class="EdgeBody" d="m587.17 220.67-75.167-36.333"   marker-end="url(#b)" /></g></g><g id="ai" class="Inhibition" color="#000" ><g color="#000" fill="transparent"  filter="url(#a)" stroke="#000" stroke-dasharray="70.69241347204446, 7"><path class="EdgeBody" d="m587.33 146.33-75.333 19"   marker-end="url(#e)" /></g></g><g id="aj" class="DirectedInteraction" color="#000" ><g color="#000" fill="transparent"  filter="url(#a)" stroke="#000" stroke-dasharray="20.70574864272109, 5.8"><path class="EdgeBody" d="m455 203.33 19.2-18.273"   marker-end="url(#b)" /></g></g><g id="ak" class="DirectedInteraction" color="#000" ><g color="#000" fill="transparent"  filter="url(#a)" stroke="#000" stroke-dasharray="51.87589598591228, 5.8"><path class="EdgeBody" d="m683.33 695.67 33.56-46.907"   marker-end="url(#b)" /></g></g><g id="al" class="DirectedInteraction" color="#000" ><g color="#000" fill="transparent"  filter="url(#a)" stroke="#000" stroke-dasharray="53.31191231704295, 5.8"><path class="EdgeBody" d="m745.67 570.67-1.1867-59.1"   marker-end="url(#b)" /></g></g><g id="am" class="DirectedInteraction" color="#000" ><g color="#000" fill="transparent"  filter="url(#a)" stroke="#000" stroke-dasharray="71.47359215439936, 5.8"><path class="EdgeBody" d="m474 262.33 0.2-77.273"   marker-end="url(#b)" /></g></g><g class="SingleFreeNode Shape PhysicalEntity CellularComponent Cell" transform="translate(199.51 69.546)" color="#c0c0c0" ><g fill="transparent"  filter="url(#f)" stroke="#c0c0c0" stroke-width="3"><rect class="Icon" transform="matrix(.9868 0 0 .98468 5.9208 5.9081)" width="897.1" height="771.1" rx="15" ry="15"   /></g></g><g class="Label" transform="translate(221.26 129.47)" color="#0f0"  name="Mitochondrion"><use class="Icon" width="115.90842911877414" height="15.2" fill="transparent"  stroke="#0f0" stroke-width="0" xlink:href="#c"/><text class="Text" transform="translate(57.954 11.6)" fill="#0f0"  font-size="13px" font-weight="bold" stroke="black" stroke-width="0" text-anchor="middle"><tspan x="0" y="0">Mitochondrion</tspan></text></g><g class="Label" transform="translate(111.11 109.89)" color="#0f0"  name="Cytosol"><use class="Icon" width="64.47423294608264" height="15.2" fill="transparent"  stroke="#0f0" stroke-width="0" xlink:href="#c"/><text class="Text" transform="translate(32.237 11.6)" fill="#0f0"  font-size="12px" font-weight="bold" stroke="black" stroke-width="0" text-anchor="middle"><tspan x="0" y="0">Cytosol</tspan></text></g><a  class="GeneProduct P594_ENSMUSG00000024892 " transform="translate(355 228.83)"   name="Pcx"  ><rect class="Icon" transform="matrix(.98361 0 0 .95238 .4918 .47619)" width="60" height="20" fill="#fff" stroke="#000"/><text class="Text" transform="translate(30,13)"   font-size="10px"  text-anchor="middle"><tspan x="0" y="0">Pcx</tspan></text></a><a class="Metabolite ChEBI_CHEBI_30744  " transform="translate(351.7 350.23)" color="#00f"  name="Oxaloacetate"  ><rect class="Icon" transform="matrix(.98536 0 0 .9481 .49268 .47405)" width="67.3" height="18.267" fill="#fff" stroke="#00f"/><text class="Text" transform="translate(33.65 12.133)" fill="#00f"  font-size="10px"  text-anchor="middle"><tspan x="0" y="0">Oxaloacetate</tspan></text></a><a class="WikiPathways_WP336 Pathway " transform="translate(770.17 347.2)" color="#14961e"  name="Fatty Acid Synthesis"  ><rect class="Icon" transform="matrix(.99363 0 0 .97281 .49681 .48641)" width="155.96" height="35.781" rx="15" ry="15" fill="#fff" stroke="#14961e"/><text class="Text" transform="translate(77.979 21.891)" fill="#14961e"  font-size="12px" font-weight="bold" stroke="black" stroke-width="0" text-anchor="middle"><tspan x="0" y="0">Fatty Acid Synthesis</tspan></text></a><a class="WikiPathways_WP157 Pathway " transform="translate(431.95 18.221)" color="#14961e"  name="Glycolysis"  ><rect class="Icon" transform="matrix(.9883 0 0 .97235 .49415 .48617)" width="84.448" height="35.164" rx="15" ry="15" fill="#fff" stroke="#14961e"/><text class="Text" transform="translate(42.224 21.582)" fill="#14961e"  font-size="12px" font-weight="bold" stroke="black" stroke-width="0" text-anchor="middle"><tspan x="0" y="0">Glycolysis</tspan></text></a><a class="Metabolite ChEBI_CHEBI_30797  " transform="translate(79.65 451.9)" color="#00f"  name="Malate"  ><rect class="Icon" transform="matrix(.98543 0 0 .9481 .49271 .47405)" width="67.633" height="18.267" fill="#fff" stroke="#00f"/><text class="Text" transform="translate(33.817 12.133)" fill="#00f"  font-size="10px"  text-anchor="middle"><tspan x="0" y="0">Malate</tspan></text></a><a class="Metabolite ChEBI_CHEBI_30887  " transform="translate(707.93 441.9)" color="#00f"  name="Isocitrate"  ><rect class="Icon" transform="matrix(.98612 0 0 .9481 .49306 .47405)" width="71.067" height="18.267" fill="#fff" stroke="#00f"/><text class="Text" transform="translate(35.533 12.133)" fill="#00f"  font-size="10px"  text-anchor="middle"><tspan x="0" y="0">Isocitrate</tspan></text></a><a  class="GeneProduct P594_ENSMUSG00000020321 " transform="translate(79.65 405.67)"   name="Mdh1"  ><rect class="Icon" transform="matrix(.98543 0 0 .95238 .49271 .47619)" width="67.633" height="20" fill="#fff" stroke="#000"/><text class="Text" transform="translate(33.817 13)"   font-size="10px"  text-anchor="middle"><tspan x="0" y="0">Mdh1</tspan></text></a><a  class="GeneProduct P594_ENSMUSG00000022477 " transform="translate(682.33 396.22)"   name="Aco2"  ><rect class="Icon" transform="matrix(.98361 0 0 .95238 .4918 .47619)" width="60" height="20" fill="#fff" stroke="#000"/><text class="Text" transform="translate(30,13)"   font-size="10px"  text-anchor="middle"><tspan x="0" y="0">Aco2</tspan></text></a><a class="Metabolite ChEBI_CHEBI_30797  " transform="translate(301.1 451.23)" color="#00f"  name="Malate"  ><rect class="Icon" transform="matrix(.98029 0 0 .9481 .49014 .47405)" width="49.733" height="18.267" fill="#fff" stroke="#00f"/><text class="Text" transform="translate(24.867 12.133)" fill="#00f"  font-size="10px"  text-anchor="middle"><tspan x="0" y="0">Malate</tspan></text></a><a class="Metabolite ChEBI_CHEBI_15741  " transform="translate(365.13 700.23)" color="#00f"  name="Succinate"  ><rect class="Icon" transform="matrix(.98442 0 0 .9481 .49221 .47405)" width="63.2" height="18.267" fill="#fff" stroke="#00f"/><text class="Text" transform="translate(31.6 12.133)" fill="#00f"  font-size="10px"  text-anchor="middle"><tspan x="0" y="0">Succinate</tspan></text></a><a class="Metabolite ChEBI_CHEBI_30744  " transform="translate(79.65 358.23)" color="#00f"  name="Oxaloacetate"  ><rect class="Icon" transform="matrix(.98543 0 0 .9481 .49271 .47405)" width="67.633" height="18.267" fill="#fff" stroke="#00f"/><text class="Text" transform="translate(33.817 12.133)" fill="#00f"  font-size="10px"  text-anchor="middle"><tspan x="0" y="0">Oxaloacetate</tspan></text></a><a class="Metabolite ChEBI_CHEBI_32816  " transform="translate(440.33 105.9)" color="#00f"  name="Pyruvate"  ><rect class="Icon" transform="matrix(.98537 0 0 .95066 .49268 .47533)" width="67.333" height="19.267" fill="#fff" stroke="#00f"/><text class="Text" transform="translate(33.667 12.633)" fill="#00f"  font-size="10px"  text-anchor="middle"><tspan x="0" y="0">Pyruvate</tspan></text></a><a class="Metabolite ChEBI_CHEBI_15351  " transform="translate(431.5 274.9)" color="#00f"  name="Acetyl-CoA"  ><rect class="Icon" transform="matrix(.98851 0 0 .9481 .49425 .47405)" width="86" height="18.267" fill="#fff" stroke="#00f"/><text class="Text" transform="translate(43 12.133)" fill="#00f"  font-size="10px"  text-anchor="middle"><tspan x="0" y="0">Acetyl-CoA</tspan></text></a><g class="Metabolite" transform="translate(699 588.67)" color="#00f"  name="alpha-Ketoglutarate"><rect class="Icon" transform="matrix(.98947 0 0 .95238 .49474 .47619)" width="94" height="20" fill="#fff" stroke="#00f"/><text class="Text" transform="translate(47,13)" fill="#00f"  font-size="10px"  text-anchor="middle"><tspan x="0" y="0">alpha-Ketoglutarate</tspan></text></g><a class="WikiPathways_WP157 Pathway " transform="translate(60.694 261.44)" color="#14961e"  name="Gluconeogenesis"  ><rect class="Icon" transform="matrix(.9905 0 0 .9681 .49525 .48405)" width="104.23" height="30.351" rx="15" ry="15" fill="#fff" stroke="#14961e"/><text class="Text" transform="translate(52.116 19.175)" fill="#14961e"  font-size="12px" font-weight="bold" stroke="black" stroke-width="0" text-anchor="middle"><tspan x="0" y="0">Gluconeogenesis</tspan></text></a><a  class="GeneProduct P594_ENSMUSG00000005683 " transform="translate(514.16 299.17)"   name="Cs"  ><rect class="Icon" transform="matrix(.98361 0 0 .95238 .4918 .47619)" width="60" height="20" fill="#fff" stroke="#000"/><text class="Text" transform="translate(30,13)"   font-size="10px"  text-anchor="middle"><tspan x="0" y="0">Cs</tspan></text></a><a class="Metabolite ChEBI_CHEBI_30769  " transform="translate(664.07 354.9)" color="#00f"  name="Citrate"  ><rect class="Icon" transform="matrix(.98062 0 0 .9481 .49031 .47405)" width="50.6" height="18.267" fill="#fff" stroke="#00f"/><text class="Text" transform="translate(25.3 12.133)" fill="#00f"  font-size="10px"  text-anchor="middle"><tspan x="0" y="0">Citrate</tspan></text></a><a class="WikiPathways_WP295 Pathway " transform="translate(204.34 744.93)" color="#14961e"  name="Electron Transport Chain"  ><rect class="Icon" transform="matrix(.99416 0 0 .93638 .49708 .46819)" width="170.34" height="14.718" rx="15" ry="15" fill="#fff" stroke="#14961e"/><text class="Text" transform="translate(85.171 11.359)" fill="#14961e"  font-size="12px" font-weight="bold" stroke="black" stroke-width="0" text-anchor="middle"><tspan x="0" y="0">Electron Transport Chain</tspan></text></a><a class="WikiPathways_WP1269 Pathway " transform="translate(692.09 254.75)" color="#14961e"  name="Degradation of Fatty Acids Containing an Even Number of Carbons"  ><rect class="Icon" transform="matrix(.99739 0 0 .96238 .4987 .48119)" width="382.63" height="25.578" rx="15" ry="15" fill="#fff" stroke="#14961e"/><text class="Text" transform="translate(191.31 16.789)" fill="#14961e"  font-size="12px" font-weight="bold" stroke="black" stroke-width="0" text-anchor="middle"><tspan x="0" y="0">Degradation of Fatty Acids Containing an Even Number of Carbons</tspan></text></a><a  class="GeneProduct P594_ENSMUSG00000026526 " transform="translate(289.33 495.55)"   name="Fh1"  ><rect class="Icon" transform="matrix(.98361 0 0 .95238 .4918 .47619)" width="60" height="20" fill="#fff" stroke="#000"/><text class="Text" transform="translate(30,13)"   font-size="10px"  text-anchor="middle"><tspan x="0" y="0">Fh1</tspan></text></a><a class="Metabolite ChEBI_CHEBI_18012  " transform="translate(280.4,538.9)" color="#00f"  name="Fumarate"  ><rect class="Icon" transform="matrix(.98629 0 0 .9481 .49314 .47405)" width="71.933" height="18.267" fill="#fff" stroke="#00f"/><text class="Text" transform="translate(35.967 12.133)" fill="#00f"  font-size="10px"  text-anchor="middle"><tspan x="0" y="0">Fumarate</tspan></text></a><a  class="GeneProduct P594_ENSMUSG00000019179 " transform="translate(323.67 403.89)"   name="Mdh2"  ><rect class="Icon" transform="matrix(.98361 0 0 .95238 .4918 .47619)" width="60" height="20" fill="#fff" stroke="#000"/><text class="Text" transform="translate(30,13)"   font-size="10px"  text-anchor="middle"><tspan x="0" y="0">Mdh2</tspan></text></a><a class="Metabolite ChEBI_CHEBI_15380  " transform="translate(638.47 708.9)" color="#00f"  name="Succinyl-CoA"  ><rect class="Icon" transform="matrix(.98582 0 0 .9481 .49291 .47405)" width="69.533" height="18.267" fill="#fff" stroke="#00f"/><text class="Text" transform="translate(34.767 12.133)" fill="#00f"  font-size="10px"  text-anchor="middle"><tspan x="0" y="0">Succinyl-CoA</tspan></text></a><g class="GroupNone" transform="translate(496,720)" color="grey" ><rect class="Icon" transform="matrix(.98734 0 0 .98734 .49367 .49367)" width="78" height="78" fill="#b4b464" fill-opacity=".1" stroke="grey" stroke-dasharray="5,3"/><a  class="GeneProduct P594_ENSMUSG00000061838 " transform="translate(9,29)"   name="Suclg2"  ><rect class="Icon" transform="matrix(.98361 0 0 .95238 .4918 .47619)" width="60" height="20" fill="#fff" stroke="#000"/><text class="Text" transform="translate(30,13)"   font-size="10px"  text-anchor="middle"><tspan x="0" y="0">Suclg2</tspan></text></a><a  class="GeneProduct P594_ENSMUSG00000052738 " transform="translate(9,9)"   name="Suclg1"  ><rect class="Icon" transform="matrix(.98361 0 0 .95238 .4918 .47619)" width="60" height="20" fill="#fff" stroke="#000"/><text class="Text" transform="translate(30,13)"   font-size="10px"  text-anchor="middle"><tspan x="0" y="0">Suclg1</tspan></text></a><a  class="GeneProduct P594_ENSMUSG00000022110 " transform="translate(9,49)"   name="Sucla2"  ><rect class="Icon" transform="matrix(.98361 0 0 .95238 .4918 .47619)" width="60" height="20" fill="#fff" stroke="#000"/><text class="Text" transform="translate(30,13)"   font-size="10px"  text-anchor="middle"><tspan x="0" y="0">Sucla2</tspan></text></a></g><g class="GroupNone" transform="translate(586.33 97.333)" color="grey" ><rect class="Icon" transform="matrix(.98734 0 0 .9899 .49367 .49495)" width="78" height="98" fill="#b4b464" fill-opacity=".1" stroke="grey" stroke-dasharray="5,3"/><a  class="GeneProduct P594_ENSMUSG00000019577 " transform="translate(9 69)"   name="Pdk4"  ><rect class="Icon" transform="matrix(.98361 0 0 .95238 .4918 .47619)" width="60" height="20" fill="#fff" stroke="#000"/><text class="Text" transform="translate(30,13)"   font-size="10px"  text-anchor="middle"><tspan x="0" y="0">Pdk4</tspan></text></a><a  class="GeneProduct P594_ENSMUSG00000038967 " transform="translate(9 29)"   name="Pdk2"  ><rect class="Icon" transform="matrix(.98361 0 0 .95238 .4918 .47619)" width="60" height="20" fill="#fff" stroke="#000"/><text class="Text" transform="translate(30,13)"   font-size="10px"  text-anchor="middle"><tspan x="0" y="0">Pdk2</tspan></text></a><a  class="GeneProduct P594_ENSMUSG00000006494 " transform="translate(9,9)"   name="Pdk1"  ><rect class="Icon" transform="matrix(.98361 0 0 .95238 .4918 .47619)" width="60" height="20" fill="#fff" stroke="#000"/><text class="Text" transform="translate(30,13)"   font-size="10px"  text-anchor="middle"><tspan x="0" y="0">Pdk1</tspan></text></a><a  class="GeneProduct P594_ENSMUSG00000035232 " transform="translate(9 49)"   name="Pdk3"  ><rect class="Icon" transform="matrix(.98361 0 0 .95238 .4918 .47619)" width="60" height="20" fill="#fff" stroke="#000"/><text class="Text" transform="translate(30,13)"   font-size="10px"  text-anchor="middle"><tspan x="0" y="0">Pdk3</tspan></text></a></g><g class="GroupNone" transform="translate(586.17 191.67)" color="grey" ><rect class="Icon" transform="matrix(.98739 0 0 .98305 .4937 .49153)" width="78.333" height="58" fill="#b4b464" fill-opacity=".1" stroke="grey" stroke-dasharray="5,3"/><a  class="GeneProduct P594_ENSMUSG00000049225 " transform="translate(9,9)"   name="Ppm2c"  ><rect class="Icon" transform="matrix(.9837 0 0 .95238 .49185 .47619)" width="60.333" height="20" fill="#fff" stroke="#000"/><text class="Text" transform="translate(30.167 13)"   font-size="10px"  text-anchor="middle"><tspan x="0" y="0">Ppm2c</tspan></text></a><a  class="GeneProduct P594_ENSMUSG00000048371 " transform="translate(9.1666 29)"   name="4833426J09Rik"  ><rect class="Icon" transform="matrix(.98361 0 0 .95238 .4918 .47619)" width="60" height="20" fill="#fff" stroke="#000"/><text class="Text" transform="translate(30,13)"   font-size="10px"  text-anchor="middle"><tspan x="0" y="0">4833426J09Rik</tspan></text></a></g><g class="GroupNone" transform="translate(435 126.33)" color="grey" ><rect class="Icon" transform="matrix(.98734 0 0 .98734 .49367 .49367)" width="78" height="78" fill="#b4b464" fill-opacity=".1" stroke="grey" stroke-dasharray="5,3"/><a  class="GeneProduct P594_ENSMUSG00000031299 " transform="translate(9,9)"   name="Pdha1"  ><rect class="Icon" transform="matrix(.98361 0 0 .95238 .4918 .47619)" width="60" height="20" fill="#fff" stroke="#000"/><text class="Text" transform="translate(30,13)"   font-size="10px"  text-anchor="middle"><tspan x="0" y="0">Pdha1</tspan></text></a><a  class="GeneProduct P594_ENSMUSG00000021748 " transform="translate(9,49)"   name="Pdhb"  ><rect class="Icon" transform="matrix(.98361 0 0 .95238 .4918 .47619)" width="60" height="20" fill="#fff" stroke="#000"/><text class="Text" transform="translate(30,13)"   font-size="10px"  text-anchor="middle"><tspan x="0" y="0">Pdhb</tspan></text></a><a  class="GeneProduct P594_ENSMUSG00000047674 " transform="translate(9,29)"   name="Pdha2"  ><rect class="Icon" transform="matrix(.98361 0 0 .95238 .4918 .47619)" width="60" height="20" fill="#fff" stroke="#000"/><text class="Text" transform="translate(30,13)"   font-size="10px"  text-anchor="middle"><tspan x="0" y="0">Pdha2</tspan></text></a></g><g class="GroupNone" transform="translate(663.33 618.67)" color="grey" ><rect class="Icon" transform="matrix(.98734 0 0 .98734 .49367 .49367)" width="78" height="78" fill="#b4b464" fill-opacity=".1" stroke="grey" stroke-dasharray="5,3"/><a  class="GeneProduct P594_ENSMUSG00000004789 " transform="translate(9,29)"   name="Dlst"  ><rect class="Icon" transform="matrix(.98361 0 0 .95238 .4918 .47619)" width="60" height="20" fill="#fff" stroke="#000"/><text class="Text" transform="translate(30,13)"   font-size="10px"  text-anchor="middle"><tspan x="0" y="0">Dlst</tspan></text></a><a  class="GeneProduct P594_ENSMUSG00000020664 " transform="translate(9,49)"   name="Dld"  ><rect class="Icon" transform="matrix(.98361 0 0 .95238 .4918 .47619)" width="60" height="20" fill="#fff" stroke="#000"/><text class="Text" transform="translate(30,13)"   font-size="10px"  text-anchor="middle"><tspan x="0" y="0">Dld</tspan></text></a><a  class="GeneProduct P594_ENSMUSG00000020456 " transform="translate(9,9)"   name="Ogdh"  ><rect class="Icon" transform="matrix(.98361 0 0 .95238 .4918 .47619)" width="60" height="20" fill="#fff" stroke="#000"/><text class="Text" transform="translate(30,13)"   font-size="10px"  text-anchor="middle"><tspan x="0" y="0">Ogdh</tspan></text></a></g><g class="GroupNone" transform="translate(706.67 473.67)" color="grey" ><rect class="Icon" transform="matrix(.98734 0 0 .9899 .49367 .49495)" width="78" height="98" fill="#b4b464" fill-opacity=".1" stroke="grey" stroke-dasharray="5,3"/><a  class="GeneProduct P594_ENSMUSG00000027406 " transform="translate(9 29)"   name="Idh3b"  ><rect class="Icon" transform="matrix(.98361 0 0 .95238 .4918 .47619)" width="60" height="20" fill="#fff" stroke="#000"/><text class="Text" transform="translate(30,13)"   font-size="10px"  text-anchor="middle"><tspan x="0" y="0">Idh3b</tspan></text></a><a  class="GeneProduct P594_ENSMUSG00000002010 " transform="translate(9 49)"   name="Idh3g"  ><rect class="Icon" transform="matrix(.98361 0 0 .95238 .4918 .47619)" width="60" height="20" fill="#fff" stroke="#000"/><text class="Text" transform="translate(30,13)"   font-size="10px"  text-anchor="middle"><tspan x="0" y="0">Idh3g</tspan></text></a><a  class="GeneProduct P594_ENSMUSG00000032279 " transform="translate(9,9)"   name="Idh3a"  ><rect class="Icon" transform="matrix(.98361 0 0 .95238 .4918 .47619)" width="60" height="20" fill="#fff" stroke="#000"/><text class="Text" transform="translate(30,13)"   font-size="10px"  text-anchor="middle"><tspan x="0" y="0">Idh3a</tspan></text></a><a  class="GeneProduct P594_ENSMUSG00000030541 " transform="translate(9 69)"   name="Idh2"  ><rect class="Icon" transform="matrix(.98361 0 0 .95238 .4918 .47619)" width="60" height="20" fill="#fff" stroke="#000"/><text class="Text" transform="translate(30,13)"   font-size="10px"  text-anchor="middle"><tspan x="0" y="0">Idh2</tspan></text></a></g><g class="GroupNone" transform="translate(305.67 563.33)" color="grey" ><rect class="Icon" transform="matrix(.98734 0 0 .9899 .49367 .49495)" width="78" height="98" fill="#b4b464" fill-opacity=".1" stroke="grey" stroke-dasharray="5,3"/><a  class="GeneProduct P594_ENSMUSG00000021577 " transform="translate(9,9)"   name="Sdha"  ><rect class="Icon" transform="matrix(.98361 0 0 .95238 .4918 .47619)" width="60" height="20" fill="#fff" stroke="#000"/><text class="Text" transform="translate(30,13)"   font-size="10px"  text-anchor="middle"><tspan x="0" y="0">Sdha</tspan></text></a><a  class="GeneProduct P594_ENSMUSG00000058076 " transform="translate(9,49)"   name="Sdhc"  ><rect class="Icon" transform="matrix(.98361 0 0 .95238 .4918 .47619)" width="60" height="20" fill="#fff" stroke="#000"/><text class="Text" transform="translate(30,13)"   font-size="10px"  text-anchor="middle"><tspan x="0" y="0">Sdhc</tspan></text></a><a  class="GeneProduct P594_ENSMUSG00000000171 " transform="translate(9,69)"   name="Sdhd"  ><rect class="Icon" transform="matrix(.98361 0 0 .95238 .4918 .47619)" width="60" height="20" fill="#fff" stroke="#000"/><text class="Text" transform="translate(30,13)"   font-size="10px"  text-anchor="middle"><tspan x="0" y="0">Sdhd</tspan></text></a><a  class="GeneProduct P594_ENSMUSG00000009863 " transform="translate(9,29)"   name="Sdhb"  ><rect class="Icon" transform="matrix(.98361 0 0 .95238 .4918 .47619)" width="60" height="20" fill="#fff" stroke="#000"/><text class="Text" transform="translate(30,13)"   font-size="10px"  text-anchor="middle"><tspan x="0" y="0">Sdhb</tspan></text></a></g><g class="GroupNone" transform="translate(435 186.33)" color="grey" ><rect class="Icon" transform="matrix(.98734 0 0 .98718 .49367 .49359)" width="78" height="77" fill="#b4b464" fill-opacity=".1" stroke="grey" stroke-dasharray="5,3"/><a  class="GeneProduct P594_ENSMUSG00000010914 " transform="translate(9,48)"   name="Pdhx"  ><rect class="Icon" transform="matrix(.98361 0 0 .95238 .4918 .47619)" width="60" height="20" fill="#fff" stroke="#000"/><text class="Text" transform="translate(30,13)"   font-size="10px"  text-anchor="middle"><tspan x="0" y="0">Pdhx</tspan></text></a><a  class="GeneProduct P594_ENSMUSG00000000168 " transform="translate(9,9)"   name="Dlat"  ><rect class="Icon" transform="matrix(.98361 0 0 .95238 .4918 .47619)" width="60" height="20" fill="#fff" stroke="#000"/><text class="Text" transform="translate(30,13)"   font-size="10px"  text-anchor="middle"><tspan x="0" y="0">Dlat</tspan></text></a><a  class="GeneProduct P594_ENSMUSG00000020664 " transform="translate(9,29)"   name="Dld"  ><rect class="Icon" transform="matrix(.98361 0 0 .95238 .4918 .47619)" width="60" height="20" fill="#fff" stroke="#000"/><text class="Text" transform="translate(30,13)"   font-size="10px"  text-anchor="middle"><tspan x="0" y="0">Dld</tspan></text></a></g><a class="WikiPathways_WP1269 Pathway " transform="translate(524.9 801.54)" color="#14961e"  name="Degradation of Fatty Acids Containing an Even Number of Carbons"  ><rect class="Icon" transform="matrix(.99745 0 0 .96238 .49872 .48119)" width="391.13" height="25.578" rx="15" ry="15" fill="#fff" stroke="#14961e"/><text class="Text" transform="translate(195.56 16.789)" fill="#14961e"  font-size="12px" font-weight="bold" stroke="black" stroke-width="0" text-anchor="middle"><tspan x="0" y="0">Degradation of Fatty Acids Containing an Even Number of Carbons</tspan></text></a><text class="Text" transform="translate(5,27)" dominant-baseline="central" fill="black"  font-size="12px" font-weight="bold" overflow="visible" ><tspan x="0" y="-9">Name: TCA cycle</tspan> <tspan x="0" y="9">Organism: Mus musculus</tspan></text></g></svg>
