<?xml version="1.0" encoding="UTF-8"?>
<!--
  WikiPathways page: https://www.wikipathways.org/index.php/Pathway:WP4539
  URL for this compressed file: https://github.com/eweitz/cachome/tree/main/data/wikipathways/WP4539.svg
  Source code for compression: https://github.com/eweitz/cachome/tree/main/src/wikipathways.py
-->
<svg class="Diagram" width="800" height="600" color="black" baseProfile="full" prefix="schema:http://schema.org/" preserveAspectRatio="xMidYMid" version="1.1" viewBox="0 0 1034.7 1042" vocab="http://vocabularies.wikipathways.org/wp#" xmlns="http://www.w3.org/2000/svg" xmlns:xlink="http://www.w3.org/1999/xlink"><style>svg {font-family: 'Liberation Sans', Arial, sans-serif; }</style><defs><filter id="i" x="-50%" y="-50%" width="200%" height="200%"><feComposite in="SourceGraphic" in2="SourceGraphic" result="doubleDark"/><feMorphology in="doubleDark" operator="dilate" radius="0.16666666666666666" result="in2Double"/><feMorphology in="SourceGraphic" operator="dilate" radius="3" result="inDouble"/><feComposite in="inDouble" in2="in2Double" operator="out" result="doubleResult"/></filter><filter id="a" x="0" y="0" width="1034.7" height="1042" filterUnits="userSpaceOnUse"><feColorMatrix in="SourceGraphic" values="-1   0   0 0 0                   0  -1   0 0 0                   0   0  -1 0 0                   0   0   0 1 0"/></filter><marker id="c" stroke-dasharray="99999" markerHeight="12" markerUnits="userSpaceOnUse" markerWidth="12" orient="auto" preserveAspectRatio="none" refX="12" refY="6" viewBox="0 0 12 12"><path transform="rotate(180 6 6)" d="M12 11L0 6l12-5z" fill="currentColor" stroke-width="0"/></marker><marker id="h" stroke-dasharray="99999" markerHeight="12" markerUnits="userSpaceOnUse" markerWidth="12" orient="auto" preserveAspectRatio="none" refX="12" refY="6" viewBox="0 0 12 12"><path transform="rotate(180 6 6)" d="M12 12L0 6l12-6-7 6z" fill="currentColor" stroke-width="0"/></marker><marker id="f" stroke-dasharray="99999" markerHeight="12" markerUnits="userSpaceOnUse" markerWidth="12" orient="auto" preserveAspectRatio="none" refX="12" refY="6" viewBox="0 0 12 12"><circle transform="rotate(180 6 6)" cx="6" cy="6" r="5.3" fill="none" stroke="#000"/></marker><marker id="d" stroke-dasharray="99999" markerHeight="20" markerUnits="userSpaceOnUse" markerWidth="10" orient="auto" preserveAspectRatio="none" refX="10" refY="10" viewBox="0 0 10 20"><path d="m3 0v20" fill="currentColor" stroke="currentColor"/></marker><marker id="g" stroke-dasharray="99999" markerHeight="20" markerUnits="userSpaceOnUse" markerWidth="10" orient="auto" preserveAspectRatio="none" refX="10" refY="10" viewBox="0 0 10 20"><path d="m3 0v20" fill="currentColor" stroke="currentColor"/></marker><symbol id="e" overflow="visible" preserveAspectRatio="none" viewBox="0 0 100 100"><path d="M0 25L25 0h50l25 25v50l-25 25H25L0 75z" stroke="currentColor" vector-effect="non-scaling-stroke"/></symbol><symbol id="b" preserveAspectRatio="none" viewBox="0 0 100 100"/></defs><g class="Viewport" color="black"  name="Name: Synaptic signaling pathways associated with autism spectrum disorder Organism: Homo sapiens"><rect class="Icon" width="1034.7" height="1042" fill="#fff" stroke="#000" stroke-width="0"/><g id="j" class="DirectedInteraction" color="#000" ><g color="#000" fill="transparent"  filter="url(#a)" stroke="#000" stroke-dasharray="154.0336809172446, 5.8"><path class="EdgeBody" d="m870.67 170.67 0.33333 159.83"   marker-end="url(#c)" /></g></g><g id="k" class="DirectedInteraction" color="#000" ><g color="#000" fill="transparent"  filter="url(#a)" stroke="#000" stroke-dasharray="109.69230373588634, 5.8"><path class="EdgeBody" d="m796.5 268 62.167-97.333"   marker-end="url(#c)" /></g></g><g id="l" class="DirectedInteraction" color="#000" ><g color="#000" fill="transparent"  filter="url(#a)" stroke="#000" stroke-dasharray="140.3138254923195, 5.8"><path class="EdgeBody" d="M295.5,761L395,868"   marker-end="url(#c)" /></g></g><g id="m" class="Interaction" color="#000" ><g color="#000" fill="transparent"  filter="url(#a)" stroke="#000" stroke-dasharray="63.5, 7"><path class="EdgeBody" d="m392 751h-70.5"   marker-end="url(#d)" /></g></g><g id="n" class="DirectedInteraction" color="#000" ><g color="#000" fill="transparent"  filter="url(#a)" stroke="#000" stroke-dasharray="97.86666666666672, 5.8"><path class="EdgeBody" d="m689 97.5v103.67"   marker-end="url(#c)" /></g><g class="Burr Anchor" transform="translate(689 166.67)" ><use class="Icon" width="0" height="0" fill="#141414" stroke-width="0" xlink:href="#b"/></g></g><g id="o" class="DirectedInteraction" color="#000" ><g color="#000" fill="transparent"  filter="url(#a)" stroke="#000" stroke-dasharray="67.7, 5.8"><path class="EdgeBody" d="m295.5 887v73.5"   marker-end="url(#c)" /></g></g><g id="p" class="Interaction" color="#000" ><g color="#000" fill="transparent"  filter="url(#a)" stroke="#000" stroke-dasharray="44.33333333333336, 1"><path class="EdgeBody" d="m375 104.67v45.333"   marker-end="url(#h)" /></g></g><g id="q" class="Interaction" color="#000" ><g color="#000" fill="transparent"  filter="url(#a)" stroke="#000" stroke-dasharray="29.399394934962963, 11"><path class="EdgeBody" d="m729 161-40 5.6667"   marker-end="url(#f)" /></g></g><g id="r" class="Interaction" color="#000" ><g color="#000" fill="transparent"  filter="url(#a)" stroke="#000" stroke-dasharray="142.90830530694421, 7"><path class="EdgeBody" d="M295.5,761L190,867.5"   marker-end="url(#d)" /></g></g><g id="s" class="DirectedInteraction" color="#000" ><g color="#000" fill="transparent"  filter="url(#a)" stroke="#000" stroke-dasharray="40.2, 5.8"><path class="EdgeBody" d="m320 675v46"   marker-end="url(#c)" /></g></g><g id="t" class="DirectedInteraction" color="#000" ><g color="#000" fill="transparent"  filter="url(#a)" stroke="#000" stroke-dasharray="48.700573391479104, 5.8"><path class="EdgeBody" d="m395 888 0.25 54.5"   marker-end="url(#c)" /></g></g><g id="u" class="DirectedInteraction" color="#000" ><g color="#000" fill="transparent"  filter="url(#a)" stroke="#000" stroke-dasharray="100.2, 5.8"><path class="EdgeBody" d="m295.5 761v106"   marker-end="url(#c)" /></g></g><g id="v" class="DirectedInteraction" color="#000" ><g color="#000" fill="transparent"  filter="url(#a)" stroke="#000" stroke-dasharray="58.2, 5.8"><path class="EdgeBody" d="m356 654.5h64"   marker-end="url(#c)" /></g><g class="Burr Anchor" transform="translate(381.6,654.5)" ><use class="Icon" width="0" height="0" fill="#141414" stroke-width="0" xlink:href="#b"/></g></g><g id="w" class="DirectedInteraction" color="#000" ><g color="#000" fill="transparent"  filter="url(#a)" stroke="#000" stroke-dasharray="96.59750973534463, 5.8"><path class="EdgeBody" d="m375 170-67.5 77"   marker-end="url(#c)" /></g></g><g id="x" class="Interaction" color="#000" ><g color="#000" fill="transparent"  filter="url(#a)" stroke="#000" stroke-dasharray="113.04206893553349, 7"><path class="EdgeBody" d="m170 236v5c0 5 0 15 17.167 20 17.167 5 51.5 5 68.667 5l17.167 6e-14"   marker-end="url(#d)" /></g></g><g id="y" class="DirectedInteraction" color="#000" ><g color="#000" fill="transparent"  filter="url(#a)" stroke="#000" stroke-dasharray="61.2, 5.8"><path class="EdgeBody" d="m307.5 323v67"   marker-end="url(#c)" /></g></g><g id="z" class="Interaction" color="#000" ><g color="#000" fill="transparent"  filter="url(#a)" stroke="#000" stroke-dasharray="73, 7"><path class="EdgeBody" d="m193 285h80"   marker-end="url(#d)" /></g></g><g id="aa" class="Interaction" color="#000" ><g color="#000" fill="transparent"  filter="url(#a)" stroke="#000" stroke-dasharray="75.5000578034489, 11"><path class="EdgeBody" d="m381.5 568 0.1 86.5"   marker-end="url(#f)" /></g></g><g id="ab" class="Interaction" color="#000" ><g color="#000" fill="transparent"  filter="url(#a)" stroke="#000" stroke-dasharray="81.7144294914869, 7"><path class="EdgeBody" d="m307.5 446 54.5 70"   marker-end="url(#d)" /></g></g><g id="ac" class="DirectedInteraction" color="#000" ><g color="#000" fill="transparent"  filter="url(#a)" stroke="#000" stroke-dasharray="68.7, 5.8"><path class="EdgeBody" d="m495 548h-74.5"   marker-end="url(#c)" /></g></g><g id="ad" class="DirectedInteraction" color="#000" ><g color="#000" fill="transparent"  filter="url(#a)" stroke="#000" stroke-dasharray="58.7, 5.8"><path class="EdgeBody" d="m278 548h64.5"   marker-end="url(#c)" /></g></g><g id="ae" class="DirectedInteraction" color="#000" ><g color="#000" fill="transparent"  filter="url(#a)" stroke="#000" stroke-dasharray="58.20195309519859, 5.8"><path class="EdgeBody" d="m516 193-44.5 46"   marker-end="url(#c)" /></g></g><g id="af" class="DirectedInteraction" color="#000" ><g color="#000" fill="transparent"  filter="url(#a)" stroke="#000" stroke-dasharray="86.29777413162599, 5.8"><path class="EdgeBody" d="m375 170 61 69"   marker-end="url(#c)" /></g></g><g id="ag" class="Interaction" color="#000" ><g color="#000" fill="transparent"  filter="url(#a)" stroke="#000" stroke-dasharray="54.32087735836792, 7"><path class="EdgeBody" d="m436.5 466-35.5 50"   marker-end="url(#d)" /></g></g><g id="ah" class="DirectedInteraction" color="#000" ><g color="#000" fill="transparent"  filter="url(#a)" stroke="#000" stroke-dasharray="61.20186564566691, 5.8"><path class="EdgeBody" d="m436 323 0.5 67"   marker-end="url(#c)" /></g><g class="Burr Anchor" transform="translate(436.2 349.8)" ><use class="Icon" width="0" height="0" fill="#141414" stroke-width="0" xlink:href="#b"/></g></g><g id="ai" class="DirectedInteraction" color="#000" ><g color="#000" fill="transparent"  filter="url(#a)" stroke="#000" stroke-dasharray="33.70000000000003, 5.8"><path class="EdgeBody" d="m689 226.17v39.5"   marker-end="url(#c)" /></g></g><g id="aj" class="Inhibition" color="#000" ><g color="#000" fill="transparent"  filter="url(#a)" stroke="#000" stroke-dasharray="52.80535093116669, 7"><path class="EdgeBody" d="m496 349-59.8 0.8"   marker-end="url(#g)" /></g></g><g class="SingleFreeNode Shape PhysicalEntity CellularComponent Cell" transform="translate(19.833 159.83)" color="#c0c0c0" ><g fill="transparent"  filter="url(#i)" stroke="#c0c0c0" stroke-width="3"><rect class="Icon" transform="matrix(.98797 0 0 .98614 5.9278 5.9168)" width="985.67" height="853.67" rx="15" ry="15"   /></g></g><g class="Label" transform="translate(825,126.5)" color="#000"  name="AMPR"><use class="Icon" width="90" height="25" fill="transparent"  stroke="#000" stroke-width="0" xlink:href="#b"/><text class="Text" transform="translate(45,16.5)"   font-size="12px" font-weight="bold"  text-anchor="middle"><tspan x="0" y="0">AMPR</tspan></text></g><g class="Label" transform="translate(145,867.5)" color="#000"  name="Autophagy"><use class="Icon" width="90" height="25" fill="transparent"  stroke="#000" stroke-width="0" xlink:href="#b"/><text class="Text" transform="translate(45,16.5)"   font-size="12px" font-weight="bold"  text-anchor="middle"><tspan x="0" y="0">Autophagy</tspan></text></g><g class="Label" transform="translate(826,330.5)" color="#000"  name="Proteasome"><use class="Icon" width="90" height="25" fill="transparent"  stroke="#000" stroke-width="0" xlink:href="#b"/><text class="Text" transform="translate(45,16.5)"   font-size="12px" font-weight="bold"  text-anchor="middle"><tspan x="0" y="0">Proteasome</tspan></text></g><g class="Label" transform="translate(125,70.5)" color="#000"  name="NMDA receptor"><use class="Icon" width="90" height="25" fill="transparent"  stroke="#000" stroke-width="0" xlink:href="#b"/><text class="Text" transform="translate(45,16.5)"   font-size="12px" font-weight="bold"  text-anchor="middle"><tspan x="0" y="0">NMDA receptor</tspan></text></g><g class="Label" transform="translate(935.67 134.83)" color="#000"  name="Synapse"><use class="Icon" width="69" height="25" fill="transparent"  stroke="#000" stroke-width="0" xlink:href="#b"/><text class="Text" transform="translate(34.5,16.5)"   font-size="12px" font-weight="bold"  text-anchor="middle"><tspan x="0" y="0">Synapse</tspan></text></g><g class="Label" transform="translate(541,595.5)" color="#000"  name="AMPK"><use class="Icon" width="59" height="25" fill="transparent"  stroke="#000" stroke-width="0" xlink:href="#b"/><text class="Text" transform="translate(29.5,16.5)"   font-size="12px" font-weight="bold"  text-anchor="middle"><tspan x="0" y="0">AMPK</tspan></text></g><a  class="GeneProduct GSK3B " transform="translate(222,535.5)"   name="GSK3B"  ><rect class="Icon" transform="matrix(.98246 0 0 .96154 .49123 .48077)" width="56" height="25" fill="#fff" stroke="#000"/><text class="Text" transform="translate(28,16.5)"   font-size="12px"  text-anchor="middle"><tspan x="0" y="0">GSK3B</tspan></text></a><a class="ChEBI_CHEBI_9168 Metabolite  " transform="translate(392,738.5)" color="#00f"  name="rapamycin"  ><rect class="Icon" transform="matrix(.98734 0 0 .96154 .49367 .48077)" width="78" height="25" fill="#fff" stroke="#00f"/><text class="Text" transform="translate(39,16.5)" fill="#00f"  font-size="12px"  text-anchor="middle"><tspan x="0" y="0">rapamycin</tspan></text></a><a  class="GeneProduct NTRK2 " transform="translate(346 150)"   name="NTRK2"  ><rect class="Icon" transform="matrix(.98305 0 0 .95238 .49153 .47619)" width="58" height="20" fill="#fff" stroke="#000"/><text class="Text" transform="translate(29,14)"   font-size="12px"  text-anchor="middle"><tspan x="0" y="0">NTRK2</tspan></text></a><a  class="GeneProduct RPS6KB1 " transform="translate(263,867)"   name="RPS6KB1"  ><rect class="Icon" transform="matrix(.98485 0 0 .95238 .49242 .47619)" width="65" height="20" fill="#fff" stroke="#000"/><text class="Text" transform="translate(32.5,14)"   font-size="12px"  text-anchor="middle"><tspan x="0" y="0">RPS6KB1</tspan></text></a><a  class="GeneProduct EIF4EBP1 " transform="translate(363,868)"   name="EIF4EBP1"  ><rect class="Icon" transform="matrix(.98462 0 0 .95238 .49231 .47619)" width="64" height="20" fill="#fff" stroke="#000"/><text class="Text" transform="translate(32,14)"   font-size="12px"  text-anchor="middle"><tspan x="0" y="0">EIF4EBP1</tspan></text></a><a class="ChEBI_CHEBI_29108 Metabolite  " transform="translate(663.5,72.5)" color="#00f"  name="Ca 2+"  ><rect class="Icon" transform="matrix(.98077 0 0 .96154 .49038 .48077)" width="51" height="25" fill="#fff" stroke="#00f"/><text class="Text" transform="translate(25.5,16.5)" fill="#00f"  font-size="12px"  text-anchor="middle"><tspan x="0" y="0">Ca 2+</tspan></text></a><a  class="GeneProduct NF1 " transform="translate(139,275)"   name="NF1"  ><rect class="Icon" transform="matrix(.98182 0 0 .95238 .49091 .47619)" width="54" height="20" fill="#fff" stroke="#000"/><text class="Text" transform="translate(27,14)"   font-size="12px"  text-anchor="middle"><tspan x="0" y="0">NF1</tspan></text></a><a  class="GeneProduct UBE3A " transform="translate(768,268)"   name="UBE3A"  ><rect class="Icon" transform="matrix(.98276 0 0 .95238 .49138 .47619)" width="57" height="20" fill="#fff" stroke="#000"/><text class="Text" transform="translate(28.5,14)"   font-size="12px"  text-anchor="middle"><tspan x="0" y="0">UBE3A</tspan></text></a><a  class="GeneProduct BDNF " transform="translate(346.5 84.667)"   name="BDNF"  ><rect class="Icon" transform="matrix(.98276 0 0 .95238 .49138 .47619)" width="57" height="20" fill="#fff" stroke="#000"/><text class="Text" transform="translate(28.5,14)"   font-size="12px"  text-anchor="middle"><tspan x="0" y="0">BDNF</tspan></text></a><a  class="GeneProduct PTEN " transform="translate(496,339)"   name="PTEN"  ><rect class="Icon" transform="matrix(.98361 0 0 .95238 .4918 .47619)" width="60" height="20" fill="#fff" stroke="#000"/><text class="Text" transform="translate(30,14)"   font-size="12px"  text-anchor="middle"><tspan x="0" y="0">PTEN</tspan></text></a><a  class="GeneProduct ARC " transform="translate(846.67 150.67)"   name="ARC"  ><rect class="Icon" transform="matrix(.97959 0 0 .95238 .4898 .47619)" width="48" height="20" fill="#fff" stroke="#000"/><text class="Text" transform="translate(24,14)"   font-size="12px"  text-anchor="middle"><tspan x="0" y="0">ARC</tspan></text></a><a  class="GeneProduct CACNA1C " transform="translate(649,151)"   name="CACNA1C"  ><rect class="Icon" transform="matrix(.98765 0 0 .95238 .49383 .47619)" width="80" height="20" fill="#fff" stroke="#000"/><text class="Text" transform="translate(40,14)"   font-size="12px"  text-anchor="middle"><tspan x="0" y="0">CACNA1C</tspan></text></a><g class="GroupComplex" transform="translate(93,92)" color="grey" ><use class="Icon" transform="matrix(.99355 0 0 .9931 .49677 .49655)" width="154" height="144" fill="#b4b464" fill-opacity=".1" stroke="grey" xlink:href="#e"/><a  class="GeneProduct GRIN1 " transform="translate(12,12)"   name="GRIN1"  ><rect class="Icon" transform="matrix(.98485 0 0 .95238 .49242 .47619)" width="65" height="20" fill="#fff" stroke="#000"/><text class="Text" transform="translate(32.5,14)"   font-size="12px"  text-anchor="middle"><tspan x="0" y="0">GRIN1</tspan></text></a><a  class="GeneProduct GRIN2A " transform="translate(12,32)"   name="GRIN2A"  ><rect class="Icon" transform="matrix(.98485 0 0 .95238 .49242 .47619)" width="65" height="20" fill="#fff" stroke="#000"/><text class="Text" transform="translate(32.5,14)"   font-size="12px"  text-anchor="middle"><tspan x="0" y="0">GRIN2A</tspan></text></a><a  class="GeneProduct GRIN2B " transform="translate(12,52)"   name="GRIN2B"  ><rect class="Icon" transform="matrix(.98485 0 0 .95238 .49242 .47619)" width="65" height="20" fill="#fff" stroke="#000"/><text class="Text" transform="translate(32.5,14)"   font-size="12px"  text-anchor="middle"><tspan x="0" y="0">GRIN2B</tspan></text></a><a  class="GeneProduct GRIN2D " transform="translate(77,18)"   name="GRIN2D"  ><rect class="Icon" transform="matrix(.98485 0 0 .95238 .49242 .47619)" width="65" height="20" fill="#fff" stroke="#000"/><text class="Text" transform="translate(32.5,14)"   font-size="12px"  text-anchor="middle"><tspan x="0" y="0">GRIN2D</tspan></text></a><a  class="GeneProduct DLG4 " transform="translate(62.5,92)"   name="DLG4"  ><rect class="Icon" transform="matrix(.98438 0 0 .95238 .49219 .47619)" width="63" height="20" fill="#fff" stroke="#000"/><text class="Text" transform="translate(31.5,14)"   font-size="12px"  text-anchor="middle"><tspan x="0" y="0">DLG4</tspan></text></a><a  class="GeneProduct SYNGAP1 " transform="translate(62.5,112)"   name="SYNGAP1"  ><rect class="Icon" transform="matrix(.98438 0 0 .95238 .49219 .47619)" width="63" height="20" fill="#fff" stroke="#000"/><text class="Text" transform="translate(31.5,14)"   font-size="12px"  text-anchor="middle"><tspan x="0" y="0">SYNGAP1</tspan></text></a><a  class="GeneProduct GRIN3B " transform="translate(77,58)"   name="GRIN3B"  ><rect class="Icon" transform="matrix(.98485 0 0 .95238 .49242 .47619)" width="65" height="20" fill="#fff" stroke="#000"/><text class="Text" transform="translate(32.5,14)"   font-size="12px"  text-anchor="middle"><tspan x="0" y="0">GRIN3B</tspan></text></a><a  class="GeneProduct GRIN3A " transform="translate(77,38)"   name="GRIN3A"  ><rect class="Icon" transform="matrix(.98485 0 0 .95238 .49242 .47619)" width="65" height="20" fill="#fff" stroke="#000"/><text class="Text" transform="translate(32.5,14)"   font-size="12px"  text-anchor="middle"><tspan x="0" y="0">GRIN3A</tspan></text></a><a  class="GeneProduct GRIN2C " transform="translate(12,72)"   name="GRIN2C"  ><rect class="Icon" transform="matrix(.98485 0 0 .95238 .49242 .47619)" width="65" height="20" fill="#fff" stroke="#000"/><text class="Text" transform="translate(32.5,14)"   font-size="12px"  text-anchor="middle"><tspan x="0" y="0">GRIN2C</tspan></text></a></g><g class="GroupComplex" transform="translate(495,496)" color="grey" ><use class="Icon" transform="matrix(.99342 0 0 .99048 .49671 .49524)" width="151" height="104" fill="#b4b464" fill-opacity=".1" stroke="grey" xlink:href="#e"/><a  class="GeneProduct PRKAA1 " transform="translate(12,12)"   name="PRKAA1"  ><rect class="Icon" transform="matrix(.98485 0 0 .95238 .49242 .47619)" width="65" height="20" fill="#fff" stroke="#000"/><text class="Text" transform="translate(32.5,14)"   font-size="12px"  text-anchor="middle"><tspan x="0" y="0">PRKAA1</tspan></text></a><a  class="GeneProduct PRKAA2 " transform="translate(12,32)"   name="PRKAA2"  ><rect class="Icon" transform="matrix(.98485 0 0 .95238 .49242 .47619)" width="65" height="20" fill="#fff" stroke="#000"/><text class="Text" transform="translate(32.5,14)"   font-size="12px"  text-anchor="middle"><tspan x="0" y="0">PRKAA2</tspan></text></a><a  class="GeneProduct PRKAB1 " transform="translate(12,52)"   name="PRKAB1"  ><rect class="Icon" transform="matrix(.98485 0 0 .95238 .49242 .47619)" width="65" height="20" fill="#fff" stroke="#000"/><text class="Text" transform="translate(32.5,14)"   font-size="12px"  text-anchor="middle"><tspan x="0" y="0">PRKAB1</tspan></text></a><a  class="GeneProduct PRKAB2 " transform="translate(12,72)"   name="PRKAB2"  ><rect class="Icon" transform="matrix(.98485 0 0 .95238 .49242 .47619)" width="65" height="20" fill="#fff" stroke="#000"/><text class="Text" transform="translate(32.5,14)"   font-size="12px"  text-anchor="middle"><tspan x="0" y="0">PRKAB2</tspan></text></a><a  class="GeneProduct PRKAG1 " transform="translate(77,21)"   name="PRKAG1"  ><rect class="Icon" transform="matrix(.98413 0 0 .95238 .49206 .47619)" width="62" height="20" fill="#fff" stroke="#000"/><text class="Text" transform="translate(31,14)"   font-size="12px"  text-anchor="middle"><tspan x="0" y="0">PRKAG1</tspan></text></a><a  class="GeneProduct PRKAG2 " transform="translate(77,41)"   name="PRKAG2"  ><rect class="Icon" transform="matrix(.98413 0 0 .95238 .49206 .47619)" width="62" height="20" fill="#fff" stroke="#000"/><text class="Text" transform="translate(31,14)"   font-size="12px"  text-anchor="middle"><tspan x="0" y="0">PRKAG2</tspan></text></a><a  class="GeneProduct PRKAG3 " transform="translate(77,61)"   name="PRKAG3"  ><rect class="Icon" transform="matrix(.98413 0 0 .95238 .49206 .47619)" width="62" height="20" fill="#fff" stroke="#000"/><text class="Text" transform="translate(31,14)"   font-size="12px"  text-anchor="middle"><tspan x="0" y="0">PRKAG3</tspan></text></a></g><g class="GroupGroup" transform="translate(420,631)" color="grey" ><use class="Icon" width="119" height="47" fill="transparent"  stroke="grey" stroke-dasharray="5,3" stroke-width="0" xlink:href="#b"/><a  class="GeneProduct RHEB " transform="translate(8,19)"   name="RHEB"  ><rect class="Icon" transform="matrix(.98246 0 0 .95238 .49123 .47619)" width="56" height="20" fill="#fff" stroke="#000"/><text class="Text" transform="translate(28,14)"   font-size="12px"  text-anchor="middle"><tspan x="0" y="0">RHEB</tspan></text></a><a class="ChEBI_CHEBI_17552 Metabolite  " transform="translate(61,8)" color="#00f"  name="GDP"  ><rect class="Icon" transform="matrix(.98039 0 0 .95238 .4902 .47619)" width="50" height="20" fill="#fff" stroke="#00f"/><text class="Text" transform="translate(25,14)" fill="#00f"  font-size="12px"  text-anchor="middle"><tspan x="0" y="0">GDP</tspan></text></a></g><g class="GroupComplex" transform="translate(257.5,709)" color="grey" ><use class="Icon" transform="matrix(.99043 0 0 .98462 .49522 .49231)" width="103.5" height="64" fill="#b4b464" fill-opacity=".1" stroke="grey" xlink:href="#e"/><a  class="GeneProduct MTOR " transform="translate(12,32)"   name="MTOR"  ><rect class="Icon" transform="matrix(.98113 0 0 .95238 .49057 .47619)" width="52" height="20" fill="#fff" stroke="#000"/><text class="Text" transform="translate(26,14)"   font-size="12px"  text-anchor="middle"><tspan x="0" y="0">MTOR</tspan></text></a><a  class="GeneProduct RPTOR " transform="translate(33.5,12)"   name="RPTOR"  ><rect class="Icon" transform="matrix(.98305 0 0 .95238 .49153 .47619)" width="58" height="20" fill="#fff" stroke="#000"/><text class="Text" transform="translate(29,14)"   font-size="12px"  text-anchor="middle"><tspan x="0" y="0">RPTOR</tspan></text></a></g><g class="GroupGroup" transform="translate(270,390)" color="grey" ><use class="Icon" width="75" height="56" fill="transparent"  stroke="grey" stroke-dasharray="5,3" stroke-width="0" xlink:href="#b"/><a  class="GeneProduct MAPK3 " transform="translate(8,28)"   name="MAPK3"  ><rect class="Icon" transform="matrix(.98333 0 0 .95238 .49167 .47619)" width="59" height="20" fill="#fff" stroke="#000"/><text class="Text" transform="translate(29.5,14)"   font-size="12px"  text-anchor="middle"><tspan x="0" y="0">MAPK3</tspan></text></a><a  class="GeneProduct MAPK1 " transform="translate(8,8)"   name="MAPK1"  ><rect class="Icon" transform="matrix(.98333 0 0 .95238 .49167 .47619)" width="59" height="20" fill="#fff" stroke="#000"/><text class="Text" transform="translate(29.5,14)"   font-size="12px"  text-anchor="middle"><tspan x="0" y="0">MAPK1</tspan></text></a></g><g class="GroupGroup" transform="translate(262,626)" color="grey" ><use class="Icon" width="94" height="57" fill="transparent"  stroke="grey" stroke-dasharray="5,3" stroke-width="0" xlink:href="#b"/><a class="ChEBI_CHEBI_15996 Metabolite  " transform="translate(8,8)" color="#00f"  name="GTP"  ><rect class="Icon" transform="matrix(.98113 0 0 .95238 .49057 .47619)" width="52" height="20" fill="#fff" stroke="#00f"/><text class="Text" transform="translate(26,14)" fill="#00f"  font-size="12px"  text-anchor="middle"><tspan x="0" y="0">GTP</tspan></text></a><a  class="GeneProduct RHEB " transform="translate(30,29)"   name="RHEB"  ><rect class="Icon" transform="matrix(.98246 0 0 .95238 .49123 .47619)" width="56" height="20" fill="#fff" stroke="#000"/><text class="Text" transform="translate(28,14)"   font-size="12px"  text-anchor="middle"><tspan x="0" y="0">RHEB</tspan></text></a></g><g class="GroupGroup" transform="translate(273,247)" color="grey" ><use class="Icon" width="69" height="76" fill="transparent"  stroke="grey" stroke-dasharray="5,3" stroke-width="0" xlink:href="#b"/><a  class="GeneProduct HRAS " transform="translate(8,8)"   name="HRAS"  ><rect class="Icon" transform="matrix(.98148 0 0 .95238 .49074 .47619)" width="53" height="20" fill="#fff" stroke="#000"/><text class="Text" transform="translate(26.5,14)"   font-size="12px"  text-anchor="middle"><tspan x="0" y="0">HRAS</tspan></text></a><a  class="GeneProduct KRAS " transform="translate(8,28)"   name="KRAS"  ><rect class="Icon" transform="matrix(.98148 0 0 .95238 .49074 .47619)" width="53" height="20" fill="#fff" stroke="#000"/><text class="Text" transform="translate(26.5,14)"   font-size="12px"  text-anchor="middle"><tspan x="0" y="0">KRAS</tspan></text></a><a  class="GeneProduct NRAS " transform="translate(8,48)"   name="NRAS"  ><rect class="Icon" transform="matrix(.98148 0 0 .95238 .49074 .47619)" width="53" height="20" fill="#fff" stroke="#000"/><text class="Text" transform="translate(26.5,14)"   font-size="12px"  text-anchor="middle"><tspan x="0" y="0">NRAS</tspan></text></a></g><g class="GroupComplex" transform="translate(472.5,109)" color="grey" ><use class="Icon" transform="matrix(.98864 0 0 .98824 .49432 .49412)" width="87" height="84" fill="#b4b464" fill-opacity=".1" stroke="grey" xlink:href="#e"/><a  class="GeneProduct GRM1 " transform="translate(16.5,12)"   name="GRM1"  ><rect class="Icon" transform="matrix(.98182 0 0 .95238 .49091 .47619)" width="54" height="20" fill="#fff" stroke="#000"/><text class="Text" transform="translate(27,14)"   font-size="12px"  text-anchor="middle"><tspan x="0" y="0">GRM1</tspan></text></a><a  class="GeneProduct HOMER1 " transform="translate(12,32)"   name="HOMER1"  ><rect class="Icon" transform="matrix(.98438 0 0 .95238 .49219 .47619)" width="63" height="20" fill="#fff" stroke="#000"/><text class="Text" transform="translate(31.5,14)"   font-size="12px"  text-anchor="middle"><tspan x="0" y="0">HOMER1</tspan></text></a><a  class="GeneProduct SHANK3 " transform="translate(12,52)"   name="SHANK3"  ><rect class="Icon" transform="matrix(.98438 0 0 .95238 .49219 .47619)" width="63" height="20" fill="#fff" stroke="#000"/><text class="Text" transform="translate(31.5,14)"   font-size="12px"  text-anchor="middle"><tspan x="0" y="0">SHANK3</tspan></text></a></g><g class="GroupComplex" transform="translate(342.5,516)" color="grey" ><use class="Icon" transform="matrix(.98734 0 0 .98462 .49367 .49231)" width="78" height="64" fill="#b4b464" fill-opacity=".1" stroke="grey" xlink:href="#e"/><a  class="GeneProduct TSC1 " transform="translate(12,12)"   name="TSC1"  ><rect class="Icon" transform="matrix(.98182 0 0 .95238 .49091 .47619)" width="54" height="20" fill="#fff" stroke="#000"/><text class="Text" transform="translate(27,14)"   font-size="12px"  text-anchor="middle"><tspan x="0" y="0">TSC1</tspan></text></a><a  class="GeneProduct TSC2 " transform="translate(12,32)"   name="TSC2"  ><rect class="Icon" transform="matrix(.98182 0 0 .95238 .49091 .47619)" width="54" height="20" fill="#fff" stroke="#000"/><text class="Text" transform="translate(27,14)"   font-size="12px"  text-anchor="middle"><tspan x="0" y="0">TSC2</tspan></text></a></g><g class="GroupComplex" transform="translate(365,239)" color="grey" ><use class="Icon" transform="matrix(.99301 0 0 .98824 .4965 .49412)" width="142" height="84" fill="#b4b464" fill-opacity=".1" stroke="grey" xlink:href="#e"/><a  class="GeneProduct PIK3CA " transform="translate(12,12)"   name="PIK3CA"  ><rect class="Icon" transform="matrix(.98413 0 0 .95238 .49206 .47619)" width="62" height="20" fill="#fff" stroke="#000"/><text class="Text" transform="translate(31,14)"   font-size="12px"  text-anchor="middle"><tspan x="0" y="0">PIK3CA</tspan></text></a><a  class="GeneProduct PIK3CB " transform="translate(12,32)"   name="PIK3CB"  ><rect class="Icon" transform="matrix(.98413 0 0 .95238 .49206 .47619)" width="62" height="20" fill="#fff" stroke="#000"/><text class="Text" transform="translate(31,14)"   font-size="12px"  text-anchor="middle"><tspan x="0" y="0">PIK3CB</tspan></text></a><a  class="GeneProduct PIK3CD " transform="translate(12,52)"   name="PIK3CD"  ><rect class="Icon" transform="matrix(.98413 0 0 .95238 .49206 .47619)" width="62" height="20" fill="#fff" stroke="#000"/><text class="Text" transform="translate(31,14)"   font-size="12px"  text-anchor="middle"><tspan x="0" y="0">PIK3CD</tspan></text></a><a  class="GeneProduct PIK3R3 " transform="translate(75,52)"   name="PIK3R3"  ><rect class="Icon" transform="matrix(.98214 0 0 .95238 .49107 .47619)" width="55" height="20" fill="#fff" stroke="#000"/><text class="Text" transform="translate(27.5,14)"   font-size="12px"  text-anchor="middle"><tspan x="0" y="0">PIK3R3</tspan></text></a><a  class="GeneProduct PIK3R2 " transform="translate(75,32)"   name="PIK3R2"  ><rect class="Icon" transform="matrix(.98214 0 0 .95238 .49107 .47619)" width="55" height="20" fill="#fff" stroke="#000"/><text class="Text" transform="translate(27.5,14)"   font-size="12px"  text-anchor="middle"><tspan x="0" y="0">PIK3R2</tspan></text></a><a  class="GeneProduct PIK3R1 " transform="translate(75,12)"   name="PIK3R1"  ><rect class="Icon" transform="matrix(.98214 0 0 .95238 .49107 .47619)" width="55" height="20" fill="#fff" stroke="#000"/><text class="Text" transform="translate(27.5,14)"   font-size="12px"  text-anchor="middle"><tspan x="0" y="0">PIK3R1</tspan></text></a></g><g class="GroupGroup" transform="translate(404,390)" color="grey" ><use class="Icon" width="65" height="76" fill="transparent"  stroke="grey" stroke-dasharray="5,3" stroke-width="0" xlink:href="#b"/><a  class="GeneProduct AKT2 " transform="translate(8,28)"   name="AKT2"  ><rect class="Icon" transform="matrix(.98 0 0 .95238 .49 .47619)" width="49" height="20" fill="#fff" stroke="#000"/><text class="Text" transform="translate(24.5,14)"   font-size="12px"  text-anchor="middle"><tspan x="0" y="0">AKT2</tspan></text></a><a  class="GeneProduct AKT1 " transform="translate(8,8)"   name="AKT1"  ><rect class="Icon" transform="matrix(.98 0 0 .95238 .49 .47619)" width="49" height="20" fill="#fff" stroke="#000"/><text class="Text" transform="translate(24.5,14)"   font-size="12px"  text-anchor="middle"><tspan x="0" y="0">AKT1</tspan></text></a><a  class="GeneProduct AKT3 " transform="translate(8,48)"   name="AKT3"  ><rect class="Icon" transform="matrix(.98 0 0 .95238 .49 .47619)" width="49" height="20" fill="#fff" stroke="#000"/><text class="Text" transform="translate(24.5,14)"   font-size="12px"  text-anchor="middle"><tspan x="0" y="0">AKT3</tspan></text></a></g><g class="GroupGroup" transform="translate(650.5 265.67)" color="grey" ><use class="Icon" width="77" height="56" fill="transparent"  stroke="grey" stroke-dasharray="5,3" stroke-width="0" xlink:href="#b"/><a  class="GeneProduct CAMK2B " transform="translate(8,8)"   name="CAMK2B"  ><rect class="Icon" transform="matrix(.98387 0 0 .95238 .49194 .47619)" width="61" height="20" fill="#fff" stroke="#000"/><text class="Text" transform="translate(30.5,14)"   font-size="12px"  text-anchor="middle"><tspan x="0" y="0">CAMK2B</tspan></text></a><a  class="GeneProduct CAMK4 " transform="translate(8,28)"   name="CAMK4"  ><rect class="Icon" transform="matrix(.98387 0 0 .95238 .49194 .47619)" width="61" height="20" fill="#fff" stroke="#000"/><text class="Text" transform="translate(30.5,14)"   font-size="12px"  text-anchor="middle"><tspan x="0" y="0">CAMK4</tspan></text></a></g><a class="ChEBI_CHEBI_29108 Metabolite  " transform="translate(663.5 201.17)" color="#00f"  name="Ca 2+"  ><rect class="Icon" transform="matrix(.98077 0 0 .96154 .49038 .48077)" width="51" height="25" fill="#fff" stroke="#00f"/><text class="Text" transform="translate(25.5,16.5)" fill="#00f"  font-size="12px"  text-anchor="middle"><tspan x="0" y="0">Ca 2+</tspan></text></a><g class="Label" transform="translate(250.5,960.5)" color="#000"  name="Cell  proliferation"><use class="Icon" width="90" height="25" fill="transparent"  stroke="#000" stroke-width="0" xlink:href="#b"/><text class="Text" transform="translate(45,16.5)"   font-size="12px" font-weight="bold"  text-anchor="middle"><tspan x="0" y="-6.6000000000000005">Cell </tspan> <tspan x="0" y="6.6000000000000005">proliferation</tspan></text></g><g class="Label" transform="translate(327.5,942.5)" color="#000"  name="mRNA translation and protein synthesis"><use class="Icon" width="135.5" height="25" fill="transparent"  stroke="#000" stroke-width="0" xlink:href="#b"/><text class="Text" transform="translate(67.75,16.5)"   font-size="12px" font-weight="bold"  text-anchor="middle"><tspan x="0" y="-6.6000000000000005">mRNA translation</tspan> <tspan x="0" y="6.6000000000000005">and protein synthesis</tspan></text></g><g class="Label" transform="translate(492,269.5)" color="#000"  name="PI3K"><use class="Icon" width="59" height="25" fill="transparent"  stroke="#000" stroke-width="0" xlink:href="#b"/><text class="Text" transform="translate(29.5,16.5)"   font-size="12px" font-weight="bold"  text-anchor="middle"><tspan x="0" y="0">PI3K</tspan></text></g><text class="Text" transform="translate(5,27)" dominant-baseline="central" fill="black"  font-size="12px" font-weight="bold" overflow="visible" ><tspan x="0" y="-9">Name: Synaptic signaling pathways associated with autism spectrum disorder</tspan> <tspan x="0" y="9">Organism: Homo sapiens</tspan></text></g></svg>
