<?xml version="1.0" encoding="UTF-8"?>
<!--
  WikiPathways page: https://www.wikipathways.org/index.php/Pathway:WP4561
  URL for this compressed file: https://github.com/eweitz/cachome/tree/main/data/wikipathways/WP4561.svg
  Source code for compression: https://github.com/eweitz/cachome/tree/main/src/wikipathways.py
-->
<svg class="Diagram" width="800" height="600" color="black" baseProfile="full" prefix="schema:http://schema.org/" preserveAspectRatio="xMidYMid" version="1.1" viewBox="0 0 1449 860.21" vocab="http://vocabularies.wikipathways.org/wp#" xmlns="http://www.w3.org/2000/svg" xmlns:xlink="http://www.w3.org/1999/xlink"><style>svg {font-family: 'Liberation Sans', Arial, sans-serif; }</style><defs><filter id="f" x="-50%" y="-50%" width="200%" height="200%"><feComposite in="SourceGraphic" in2="SourceGraphic" result="doubleDark"/><feMorphology in="doubleDark" operator="dilate" radius="0.16666666666666666" result="in2Double"/><feMorphology in="SourceGraphic" operator="dilate" radius="3" result="inDouble"/><feComposite in="inDouble" in2="in2Double" operator="out" result="doubleResult"/></filter><filter id="a" x="0" y="0" width="1449" height="860.21" filterUnits="userSpaceOnUse"><feColorMatrix in="SourceGraphic" values="-1   0   0 0 0                   0  -1   0 0 0                   0   0  -1 0 0                   0   0   0 1 0"/></filter><filter id="g" x="0" y="0" width="1449" height="860.21" filterUnits="userSpaceOnUse"><feColorMatrix in="SourceGraphic" values="-1   0   0 0 1                   0  -1   0 0 0.2                   0   0  -1 0 0.2                   0   0   0 1 0"/></filter><marker id="e" stroke-dasharray="99999" markerHeight="12" markerUnits="userSpaceOnUse" markerWidth="12" orient="auto" preserveAspectRatio="none" refY="6" viewBox="0 0 12 12"><path d="M12 11L0 6l12-5z" fill="currentColor" stroke-width="0"/></marker><marker id="d" stroke-dasharray="99999" markerHeight="12" markerUnits="userSpaceOnUse" markerWidth="12" orient="auto" preserveAspectRatio="none" refX="12" refY="6" viewBox="0 0 12 12"><path transform="rotate(180 6 6)" d="M12 11L0 6l12-5z" fill="currentColor" stroke-width="0"/></marker><marker id="b" stroke-dasharray="99999" markerHeight="12" markerUnits="userSpaceOnUse" markerWidth="12" orient="auto" preserveAspectRatio="none" refX="12" refY="6" viewBox="0 0 12 12"><path transform="rotate(180 6 6)" d="M12 12L0 6l12-6-7 6z" fill="currentColor" stroke-width="0"/></marker><marker id="j" stroke-dasharray="99999" markerHeight="20" markerUnits="userSpaceOnUse" markerWidth="10" orient="auto" preserveAspectRatio="none" refX="10" refY="10" viewBox="0 0 10 20"><path d="m3 0v20" fill="currentColor" stroke="currentColor"/></marker><marker id="i" stroke-dasharray="99999" markerHeight="12" markerUnits="userSpaceOnUse" markerWidth="12" orient="auto" preserveAspectRatio="none" refX="12" refY="6" viewBox="0 0 12 12"><path transform="rotate(180 6 6)" d="M0 6l11 5V1z" fill="currentColor" stroke-width="0"/></marker><symbol id="k" overflow="visible" preserveAspectRatio="none" viewBox="0 0 50 50"><ellipse cx="25" cy="25" rx="25" ry="25" stroke="currentColor" vector-effect="non-scaling-stroke"/></symbol><symbol id="h" overflow="visible" preserveAspectRatio="none" viewBox="0 0 100 100"><path d="M0 25L25 0h50l25 25v50l-25 25H25L0 75z" stroke="currentColor" vector-effect="non-scaling-stroke"/></symbol><symbol id="c" preserveAspectRatio="none" viewBox="0 0 100 100"/></defs><g class="Viewport" color="black"  name="Name: Cell migration and invasion through p75NTR Organism: Homo sapiens"><rect class="Icon" width="1449" height="860.21" fill="#fff" stroke="#000" stroke-width="0"/><g id="l" class="DirectedInteraction" color="#000" ><g color="#000" fill="transparent"  filter="url(#a)" stroke="#000" stroke-dasharray="62.15692087799792, 5.8"><path class="EdgeBody" d="m697.96 446.93 41.68-53.674"   marker-end="url(#d)" /></g></g><g id="m" class="Edge GraphicalLine" color="#000" ><g color="#000" fill="transparent"  filter="url(#a)" stroke="#000" stroke-dasharray="279.8046902048506, 0"><path class="EdgeBody" d="m208.87 679.8 279.8-0.98522"   /></g></g><g id="n" class="Interaction" color="#000" ><g color="#000" fill="transparent"  filter="url(#a)" stroke="#000" stroke-dasharray="54, 1"><path class="EdgeBody" d="m910 456.93h-55"   marker-end="url(#b)" /></g></g><g id="o" class="Edge GraphicalLine DirectedInteraction" color="#ff3333" ><g color="#ff3333" fill="transparent"  filter="url(#g)" stroke="#000" stroke-dasharray="0, 5.8, 26.2, 0"><path class="EdgeBody" d="m467 617v32"   marker-start="url(#e)" /></g></g><g id="p" class="Interaction" color="#000" ><g color="#000" fill="transparent"  filter="url(#a)" stroke="#000" stroke-dasharray="172.11570018554994, 11"><path class="EdgeBody" d="m343 393 2.1182 183.1"   marker-end="url(#i)" /></g></g><g id="q" class="Interaction" color="#000" ><g color="#000" fill="transparent"  filter="url(#a)" stroke="#000" stroke-dasharray="41.59631125423607, 1"><path class="EdgeBody" d="m623 299.75 32.784-27.196"   marker-end="url(#b)" /></g></g><g id="r" class="Interaction" color="#000" ><g color="#000" fill="transparent"  filter="url(#a)" stroke="#000" stroke-dasharray="93.25470592580406, 1"><path class="EdgeBody" d="m138.64 180-60.908 71.931"   marker-end="url(#b)" /></g></g><g id="s" class="Interaction" color="#000" ><g color="#000" fill="transparent"  filter="url(#a)" stroke="#000" stroke-dasharray="40.04433497536934, 7"><path class="EdgeBody" d="m765 456.93h-47.044"   marker-end="url(#j)" /></g></g><g id="t" class="Interaction" color="#000" ><g color="#000" fill="transparent"  filter="url(#a)" stroke="#000" stroke-dasharray="79.08763545531235, 1"><path class="EdgeBody" d="m138.64 180 33.092 72.931"   marker-end="url(#b)" /></g></g><g id="u" class="DirectedInteraction" color="#000" ><g color="#000" fill="transparent"  filter="url(#a)" stroke="#000" stroke-dasharray="208.78146915010768, 5.8"><path class="EdgeBody" d="m762.14 368.25-3.2635-214.56"   marker-end="url(#d)" /></g></g><g id="v" class="DirectedInteraction" color="#000" ><g color="#000" fill="transparent"  filter="url(#a)" stroke="#000" stroke-dasharray="94.57652749401336, 5.8"><path class="EdgeBody" d="m678.28 247.55 35.588-93.856"   marker-end="url(#d)" /></g></g><g id="w" class="Interaction" color="#000" ><g color="#000" fill="transparent"  filter="url(#a)" stroke="#000" stroke-dasharray="350.9025552368533, 1"><path class="EdgeBody" d="m410 281.5-6e-14 29.238c6e-14 29.238 6e-14 87.714 37.993 116.95 37.993 29.238 113.98 29.238 151.97 29.238l37.993 1e-13"   marker-end="url(#b)" /></g><g class="Burr Anchor" transform="translate(436.47 416.69)" ><use class="Icon" width="0" height="0" fill="#141414" stroke-width="0" xlink:href="#c"/></g></g><g id="x" class="Interaction" color="#000" ><g color="#000" fill="transparent"  filter="url(#a)" stroke="#000" stroke-dasharray="124.41630675474381, 1"><path class="EdgeBody" d="M410,281.5L533,306"   marker-end="url(#b)" /></g></g><g id="y" class="Interaction" color="#000" ><g color="#000" fill="transparent"  filter="url(#a)" stroke="#000" stroke-dasharray="142.4244078935663, 1"><path class="EdgeBody" d="m410 281.5-142.27 18.181"   marker-end="url(#b)" /></g></g><g id="z" class="Interaction" color="#000" ><g color="#000" fill="transparent"  filter="url(#a)" stroke="#000" stroke-dasharray="112.40745125431573, 1"><path class="EdgeBody" d="m410 281.5-67 91.5"   marker-end="url(#b)" /></g></g><g id="aa" class="Interaction" color="#000" ><g color="#000" fill="transparent"  filter="url(#a)" stroke="#000" stroke-dasharray="136.71392449567327, 1"><path class="EdgeBody" d="M1267.25,295.25L1210,420.5"   marker-end="url(#b)" /></g></g><g id="ab" class="Interaction" color="#000" ><g color="#000" fill="transparent"  filter="url(#a)" stroke="#000" stroke-dasharray="145.93316100443133, 1"><path class="EdgeBody" d="m1020.4 330.43v126.5h-20.433"   marker-end="url(#b)" /></g></g><g id="ac" class="Interaction" color="#000" ><g color="#000" fill="transparent"  filter="url(#a)" stroke="#000" stroke-dasharray="21.4138005492631, 0"><path class="EdgeBody" d="m438 401.5 20.767-5.222"   /></g></g><g id="ad" class="DirectedInteraction" color="#000" ><g color="#000" fill="transparent"  filter="url(#a)" stroke="#000" stroke-dasharray="162.39278373342893, 5.8"><path class="EdgeBody" d="m1183.5 511.5-153.5 68.75"   marker-end="url(#d)" /></g></g><g id="ae" class="Interaction" color="#000" ><g color="#000" fill="transparent"  filter="url(#a)" stroke="#000" stroke-dasharray="230.5, 1"><path class="EdgeBody" d="m924 603h-169v62.5"   marker-end="url(#b)" /></g></g><g class="SingleFreeNode Shape PhysicalEntity CellularComponent Cell" transform="translate(10.5 256.5)" color="#c0c0c0" ><g fill="transparent"  filter="url(#f)" stroke="#c0c0c0" stroke-width="3"><rect class="Icon" transform="matrix(.99156 0 0 .97956 5.9494 5.8774)" width="1410" height="575.21" rx="15" ry="15"   /></g></g><g class="SingleFreeNode Shape PhysicalEntity CellularComponent Nucleus" transform="translate(113.77 491.36)" color="#c0c0c0" ><g fill="transparent"  filter="url(#f)" stroke="#c0c0c0" stroke-width="3"><use class="Icon" transform="matrix(.98926 0 0 .96305 5.9356 5.7783)" width="1105.729064039409" height="312.788943140652"    xlink:href="#k"/></g></g><g class="Label" transform="translate(26.665 782.8)" color="#000"  name="cytoplasm"><use class="Icon" width="90" height="27.935501653803783" fill="transparent"  stroke="#000" stroke-width="0" xlink:href="#c"/><text class="Text" transform="translate(45 17.968)"   font-size="12px"  text-anchor="middle"><tspan x="0" y="0">cytoplasm</tspan></text></g><g class="Label" transform="translate(286,298.5)" color="#000"  name="P"><rect class="Icon" transform="matrix(.96552 0 0 .96154 .48276 .48077)" width="28" height="25" fill="#fff" stroke="#000"/><text class="Text" transform="translate(14,16.5)"   font-size="12px"  text-anchor="middle"><tspan x="0" y="0">P</tspan></text></g><g class="Label" transform="translate(691.37 128.7)" color="#000"  name="Invasion"><use class="Icon" width="90" height="25" fill="transparent"  stroke="#000" stroke-width="0" xlink:href="#c"/><text class="Text" transform="translate(45,16.5)"   font-size="12px"  text-anchor="middle"><tspan x="0" y="0">Invasion</tspan></text></g><g class="Label" transform="translate(314.61 679.13)" color="#000"  name="DNA"><rect class="Icon" transform="matrix(.98901 0 0 .96154 .49451 .48077)" width="90" height="25" fill="#fff" stroke="#000"/><text class="Text" transform="translate(45,16.5)"   font-size="12px"  text-anchor="middle"><tspan x="0" y="0">DNA</tspan></text></g><g class="GroupGroup" transform="translate(444.25 -1.5)" color="grey" ><use class="Icon" width="106.00000000000011" height="240.99999999999997" fill="transparent"  stroke="grey" stroke-dasharray="5,3" stroke-width="0" xlink:href="#c"/><g class="Label" transform="translate(8,8)" color="#000"  name="Ephrin"><use class="Icon" width="90" height="25" fill="transparent"  stroke="#000" stroke-width="0" xlink:href="#c"/><text class="Text" transform="translate(45,16.5)"   font-size="12px"  text-anchor="middle"><tspan x="0" y="0">Ephrin</tspan></text></g><a  class="GeneProduct EFNA5 " transform="translate(8 133)"   name="EFNA5"  ><rect class="Icon" transform="matrix(.98901 0 0 .96154 .49451 .48077)" width="90" height="25" fill="#fff" stroke="#000"/><text class="Text" transform="translate(45,16.5)"   font-size="12px"  text-anchor="middle"><tspan x="0" y="0">EFNA5</tspan></text></a><a  class="GeneProduct EFNA2 " transform="translate(8 58)"   name="EFNA2"  ><rect class="Icon" transform="matrix(.98901 0 0 .96154 .49451 .48077)" width="90" height="25" fill="#fff" stroke="#000"/><text class="Text" transform="translate(45,16.5)"   font-size="12px"  text-anchor="middle"><tspan x="0" y="0">EFNA2</tspan></text></a><a  class="GeneProduct EFNA4 " transform="translate(8 108)"   name="EFNA4"  ><rect class="Icon" transform="matrix(.98901 0 0 .96154 .49451 .48077)" width="90" height="25" fill="#fff" stroke="#000"/><text class="Text" transform="translate(45,16.5)"   font-size="12px"  text-anchor="middle"><tspan x="0" y="0">EFNA4</tspan></text></a><a  class="GeneProduct EFNA1 " transform="translate(8,33)"   name="EFNA1"  ><rect class="Icon" transform="matrix(.98901 0 0 .96154 .49451 .48077)" width="90" height="25" fill="#fff" stroke="#000"/><text class="Text" transform="translate(45,16.5)"   font-size="12px"  text-anchor="middle"><tspan x="0" y="0">EFNA1</tspan></text></a><a  class="GeneProduct EFNA3 " transform="translate(8 83)"   name="EFNA3"  ><rect class="Icon" transform="matrix(.98901 0 0 .96154 .49451 .48077)" width="90" height="25" fill="#fff" stroke="#000"/><text class="Text" transform="translate(45,16.5)"   font-size="12px"  text-anchor="middle"><tspan x="0" y="0">EFNA3</tspan></text></a><a  class="GeneProduct EFNB2 " transform="translate(8 183)"   name="EFNB2"  ><rect class="Icon" transform="matrix(.98901 0 0 .96154 .49451 .48077)" width="90" height="25" fill="#fff" stroke="#000"/><text class="Text" transform="translate(45,16.5)"   font-size="12px"  text-anchor="middle"><tspan x="0" y="0">EFNB2</tspan></text></a><a  class="GeneProduct EFNB3 " transform="translate(8 208)"   name="EFNB3"  ><rect class="Icon" transform="matrix(.98901 0 0 .96154 .49451 .48077)" width="90" height="25" fill="#fff" stroke="#000"/><text class="Text" transform="translate(45,16.5)"   font-size="12px"  text-anchor="middle"><tspan x="0" y="0">EFNB3</tspan></text></a><a  class="GeneProduct EFNB1 " transform="translate(8 158)"   name="EFNB1"  ><rect class="Icon" transform="matrix(.98901 0 0 .96154 .49451 .48077)" width="90" height="25" fill="#fff" stroke="#000"/><text class="Text" transform="translate(45,16.5)"   font-size="12px"  text-anchor="middle"><tspan x="0" y="0">EFNB1</tspan></text></a></g><g class="GroupGroup" transform="translate(357,165.5)" color="grey" ><use class="Icon" width="106.00000000000006" height="116" fill="transparent"  stroke="grey" stroke-dasharray="5,3" stroke-width="0" xlink:href="#c"/><g class="Label" transform="translate(8,8)" color="#000"  name="Ephrin B"><use class="Icon" width="90" height="25" fill="transparent"  stroke="#000" stroke-width="0" xlink:href="#c"/><text class="Text" transform="translate(45,16.5)"   font-size="12px"  text-anchor="middle"><tspan x="0" y="0">Ephrin B</tspan></text></g><a  class="GeneProduct EFNB2 " transform="translate(8 58)"   name="EFNB2"  ><rect class="Icon" transform="matrix(.98901 0 0 .96154 .49451 .48077)" width="90" height="25" fill="#fff" stroke="#000"/><text class="Text" transform="translate(45,16.5)"   font-size="12px"  text-anchor="middle"><tspan x="0" y="0">EFNB2</tspan></text></a><a  class="GeneProduct EFNB3 " transform="translate(8 83)"   name="EFNB3"  ><rect class="Icon" transform="matrix(.98901 0 0 .96154 .49451 .48077)" width="90" height="25" fill="#fff" stroke="#000"/><text class="Text" transform="translate(45,16.5)"   font-size="12px"  text-anchor="middle"><tspan x="0" y="0">EFNB3</tspan></text></a><a  class="GeneProduct EFNB1 " transform="translate(8 33)"   name="EFNB1"  ><rect class="Icon" transform="matrix(.98901 0 0 .96154 .49451 .48077)" width="90" height="25" fill="#fff" stroke="#000"/><text class="Text" transform="translate(45,16.5)"   font-size="12px"  text-anchor="middle"><tspan x="0" y="0">EFNB1</tspan></text></a></g><a  class="GeneProduct STAT3 " transform="translate(303,373)"   name="STAT3"  ><rect class="Icon" transform="matrix(.98765 0 0 .95238 .49383 .47619)" width="80" height="20" fill="#fff" stroke="#000"/><text class="Text" transform="translate(40,14)"   font-size="12px"  text-anchor="middle"><tspan x="0" y="0">STAT3</tspan></text></a><a  class="GeneProduct MMP8 " transform="translate(633.28 247.55)"   name="MMP8"  ><rect class="Icon" transform="matrix(.98901 0 0 .96154 .49451 .48077)" width="90" height="25" fill="#fff" stroke="#000"/><text class="Text" transform="translate(45,16.5)"   font-size="12px"  text-anchor="middle"><tspan x="0" y="0">MMP8</tspan></text></a><a  class="GeneProduct MMP2 " transform="translate(268,223.5)"   name="MMP2"  ><rect class="Icon" transform="matrix(.98901 0 0 .96154 .49451 .48077)" width="90" height="25" fill="#fff" stroke="#000"/><text class="Text" transform="translate(45,16.5)"   font-size="12px"  text-anchor="middle"><tspan x="0" y="0">MMP2</tspan></text></a><a  class="GeneProduct MMP9 " transform="translate(268,248.5)"   name="MMP9"  ><rect class="Icon" transform="matrix(.98901 0 0 .96154 .49451 .48077)" width="90" height="25" fill="#fff" stroke="#000"/><text class="Text" transform="translate(45,16.5)"   font-size="12px"  text-anchor="middle"><tspan x="0" y="0">MMP9</tspan></text></a><a  class="GeneProduct TWIST1 " transform="translate(965.61 718.28)"   name="TWIST1"  ><rect class="Icon" transform="matrix(.98901 0 0 .96154 .49451 .48077)" width="90" height="25" fill="#fff" stroke="#000"/><text class="Text" transform="translate(45,16.5)"   font-size="12px"  text-anchor="middle"><tspan x="0" y="0">TWIST1</tspan></text></a><a  class="GeneProduct ARF1 " transform="translate(533,293.5)"   name="ARF1"  ><rect class="Icon" transform="matrix(.98901 0 0 .96154 .49451 .48077)" width="90" height="25" fill="#fff" stroke="#000"/><text class="Text" transform="translate(45,16.5)"   font-size="12px"  text-anchor="middle"><tspan x="0" y="0">ARF1</tspan></text></a><a  class="GeneProduct BDNF " transform="translate(98.641 160)"   name="BDNF"  ><rect class="Icon" transform="matrix(.98765 0 0 .95238 .49383 .47619)" width="80" height="20" fill="#fff" stroke="#000"/><text class="Text" transform="translate(40,14)"   font-size="12px"  text-anchor="middle"><tspan x="0" y="0">BDNF</tspan></text></a><a  class="GeneProduct RAC1 " transform="translate(404,401.5)"   name="RAC1"  ><rect class="Icon" transform="matrix(.98551 0 0 .96154 .49275 .48077)" width="68" height="25" fill="#fff" stroke="#000"/><text class="Text" transform="translate(34,16.5)"   font-size="12px"  text-anchor="middle"><tspan x="0" y="0">RAC1</tspan></text></a><a  class="GeneProduct JUN " transform="translate(710,665.5)"   name="JUN"  ><rect class="Icon" transform="matrix(.98901 0 0 .96154 .49451 .48077)" width="90" height="25" fill="#fff" stroke="#000"/><text class="Text" transform="translate(45,16.5)"   font-size="12px"  text-anchor="middle"><tspan x="0" y="0">JUN</tspan></text></a><a  class="GeneProduct ADAMTS13 " transform="translate(268,198.5)"   name="ADAMTS13"  ><rect class="Icon" transform="matrix(.98901 0 0 .96154 .49451 .48077)" width="90" height="25" fill="#fff" stroke="#000"/><text class="Text" transform="translate(45,16.5)"   font-size="12px"  text-anchor="middle"><tspan x="0" y="0">ADAMTS13</tspan></text></a><a  class="GeneProduct PAK1 " transform="translate(765 444.43)"   name="PAK1"  ><rect class="Icon" transform="matrix(.98901 0 0 .96154 .49451 .48077)" width="90" height="25" fill="#fff" stroke="#000"/><text class="Text" transform="translate(45,16.5)"   font-size="12px"  text-anchor="middle"><tspan x="0" y="0">PAK1</tspan></text></a><a  class="GeneProduct RHOA " transform="translate(637.96 446.93)"   name="RHOA"  ><rect class="Icon" transform="matrix(.98765 0 0 .95238 .49383 .47619)" width="80" height="20" fill="#fff" stroke="#000"/><text class="Text" transform="translate(40,14)"   font-size="12px"  text-anchor="middle"><tspan x="0" y="0">RHOA</tspan></text></a><g class="GroupComplex" transform="translate(20.733 239.93)" color="grey" ><use class="Icon" transform="matrix(.99615 0 0 .98734 .49808 .49367)" width="259" height="77.99999999999943" fill="#b4b464" fill-opacity=".1" stroke="grey" xlink:href="#h"/><a  class="GeneProduct NGFR " transform="translate(106 13)"   name="NGFR"  ><rect class="Icon" transform="matrix(.98901 0 0 .96154 .49451 .48077)" width="90" height="25" fill="#fff" stroke="#000"/><text class="Text" transform="translate(45,16.5)"   font-size="12px"  text-anchor="middle"><tspan x="0" y="0">NGFR</tspan></text></a><a  class="GeneProduct KIDINS220 " transform="translate(77 41)"   name="KIDINS220"  ><rect class="Icon" transform="matrix(.99415 0 0 .96154 .49708 .48077)" width="170" height="25" fill="#fff" stroke="#000"/><text class="Text" transform="translate(85,16.5)"   font-size="12px"  text-anchor="middle"><tspan x="0" y="0">KIDINS220</tspan></text></a><a  class="GeneProduct NTRK2 " transform="translate(12,12)"   name="NTRK2"  ><rect class="Icon" transform="matrix(.98901 0 0 .96154 .49451 .48077)" width="90" height="25" fill="#fff" stroke="#000"/><text class="Text" transform="translate(45,16.5)"   font-size="12px"  text-anchor="middle"><tspan x="0" y="0">NTRK2</tspan></text></a></g><g class="GroupGroup" transform="translate(1157,420.5)" color="grey" ><use class="Icon" width="106" height="91" fill="transparent"  stroke="grey" stroke-dasharray="5,3" stroke-width="0" xlink:href="#c"/><a  class="GeneProduct AKT2 " transform="translate(8,33)"   name="AKT2"  ><rect class="Icon" transform="matrix(.98901 0 0 .96154 .49451 .48077)" width="90" height="25" fill="#fff" stroke="#000"/><text class="Text" transform="translate(45,16.5)"   font-size="12px"  text-anchor="middle"><tspan x="0" y="0">AKT2</tspan></text></a><a  class="GeneProduct AKT1 " transform="translate(8,8)"   name="AKT1"  ><rect class="Icon" transform="matrix(.98901 0 0 .96154 .49451 .48077)" width="90" height="25" fill="#fff" stroke="#000"/><text class="Text" transform="translate(45,16.5)"   font-size="12px"  text-anchor="middle"><tspan x="0" y="0">AKT1</tspan></text></a><a  class="GeneProduct AKT3 " transform="translate(8,58)"   name="AKT3"  ><rect class="Icon" transform="matrix(.98901 0 0 .96154 .49451 .48077)" width="90" height="25" fill="#fff" stroke="#000"/><text class="Text" transform="translate(45,16.5)"   font-size="12px"  text-anchor="middle"><tspan x="0" y="0">AKT3</tspan></text></a></g><g class="GroupComplex" transform="translate(910 233.78)" color="grey" ><use class="Icon" transform="matrix(.99774 0 0 .98976 .49887 .49488)" width="441.7326440177253" height="96.64784646621547" fill="#b4b464" fill-opacity=".1" stroke="grey" xlink:href="#h"/><a  class="GeneProduct TIAM1 " transform="translate(103 34.648)"   name="TIAM1"  ><rect class="Icon" transform="matrix(.98901 0 0 .96154 .49451 .48077)" width="90" height="25" fill="#fff" stroke="#000"/><text class="Text" transform="translate(45,16.5)"   font-size="12px"  text-anchor="middle"><tspan x="0" y="0">TIAM1</tspan></text></a><a  class="GeneProduct TRIO " transform="translate(12 59.648)"   name="TRIO"  ><rect class="Icon" transform="matrix(.98901 0 0 .96154 .49451 .48077)" width="90" height="25" fill="#fff" stroke="#000"/><text class="Text" transform="translate(45,16.5)"   font-size="12px"  text-anchor="middle"><tspan x="0" y="0">TRIO</tspan></text></a><g class="GeneProduct" transform="translate(312.25 36.469)" color="#000"  name="PI3K"><rect class="Icon" transform="matrix(.98901 0 0 .96154 .49451 .48077)" width="90" height="25" fill="#fff" stroke="#000"/><text class="Text" transform="translate(45,16.5)"   font-size="12px"  text-anchor="middle"><tspan x="0" y="0">PI3K</tspan></text></g><a  class="GeneProduct PARD3 " transform="translate(147.75,12)"   name="PARD3"  ><rect class="Icon" transform="matrix(.98901 0 0 .96154 .49451 .48077)" width="90" height="25" fill="#fff" stroke="#000"/><text class="Text" transform="translate(45,16.5)"   font-size="12px"  text-anchor="middle"><tspan x="0" y="0">PARD3</tspan></text></a><a  class="GeneProduct CDH11 " transform="translate(63.611 14.5)"   name="CDH11"  ><rect class="Icon" transform="matrix(.98765 0 0 .95238 .49383 .47619)" width="80" height="20" fill="#fff" stroke="#000"/><text class="Text" transform="translate(40,14)"   font-size="12px"  text-anchor="middle"><tspan x="0" y="0">CDH11</tspan></text></a><a  class="GeneProduct RAC1 " transform="translate(12 34.648)"   name="RAC1"  ><rect class="Icon" transform="matrix(.98901 0 0 .96154 .49451 .48077)" width="90" height="25" fill="#fff" stroke="#000"/><text class="Text" transform="translate(45,16.5)"   font-size="12px"  text-anchor="middle"><tspan x="0" y="0">RAC1</tspan></text></a><a  class="GeneProduct NGFR " transform="translate(242.73 12)"   name="NGFR"  ><rect class="Icon" transform="matrix(.98901 0 0 .96154 .49451 .48077)" width="90" height="25" fill="#fff" stroke="#000"/><text class="Text" transform="translate(45,16.5)"   font-size="12px"  text-anchor="middle"><tspan x="0" y="0">NGFR</tspan></text></a><a  class="GeneProduct NTRK2 " transform="translate(339.73 12)"   name="NTRK2"  ><rect class="Icon" transform="matrix(.98901 0 0 .96154 .49451 .48077)" width="90" height="25" fill="#fff" stroke="#000"/><text class="Text" transform="translate(45,16.5)"   font-size="12px"  text-anchor="middle"><tspan x="0" y="0">NTRK2</tspan></text></a></g><g class="GroupGroup" transform="translate(268.69 542.62)" color="grey" ><use class="Icon" width="187.1083743842371" height="141.3694581280772" fill="transparent"  stroke="grey" stroke-dasharray="5,3" stroke-width="0" xlink:href="#c"/><a  class="GeneProduct TWIST1 " transform="translate(89.108 108.37)"   name="TWIST1"  ><rect class="Icon" transform="matrix(.98901 0 0 .96154 .49451 .48077)" width="90" height="25" fill="#fff" stroke="#000"/><text class="Text" transform="translate(45,16.5)"   font-size="12px"  text-anchor="middle"><tspan x="0" y="0">TWIST1</tspan></text></a><a  class="GeneProduct STAT3 " transform="translate(36.424 33.485)"   name="STAT3"  ><rect class="Icon" transform="matrix(.98765 0 0 .95238 .49383 .47619)" width="80" height="20" fill="#fff" stroke="#000"/><text class="Text" transform="translate(40,14)"   font-size="12px"  text-anchor="middle"><tspan x="0" y="0">STAT3</tspan></text></a><g class="Label" transform="translate(33.468 8)" color="#000"  name="P"><rect class="Icon" transform="matrix(.96552 0 0 .96154 .48276 .48077)" width="28" height="25" fill="#fff" stroke="#000"/><text class="Text" transform="translate(14,16.5)"   font-size="12px"  text-anchor="middle"><tspan x="0" y="0">P</tspan></text></g><a  class="GeneProduct STAT3 " transform="translate(8 57.278)"   name="STAT3"  ><rect class="Icon" transform="matrix(.98765 0 0 .95238 .49383 .47619)" width="80" height="20" fill="#fff" stroke="#000"/><text class="Text" transform="translate(40,14)"   font-size="12px"  text-anchor="middle"><tspan x="0" y="0">STAT3</tspan></text></a><g class="Label" transform="translate(8 32.778)" color="#000"  name="P"><rect class="Icon" transform="matrix(.96552 0 0 .96154 .48276 .48077)" width="28" height="25" fill="#fff" stroke="#000"/><text class="Text" transform="translate(14,16.5)"   font-size="12px"  text-anchor="middle"><tspan x="0" y="0">P</tspan></text></g><a  class="GeneProduct MMP2 " transform="translate(89.108 58.369)"   name="MMP2"  ><rect class="Icon" transform="matrix(.98901 0 0 .96154 .49451 .48077)" width="90" height="25" fill="#fff" stroke="#000"/><text class="Text" transform="translate(45,16.5)"   font-size="12px"  text-anchor="middle"><tspan x="0" y="0">MMP2</tspan></text></a><a  class="GeneProduct MMP9 " transform="translate(89.108 83.369)"   name="MMP9"  ><rect class="Icon" transform="matrix(.98901 0 0 .96154 .49451 .48077)" width="90" height="25" fill="#fff" stroke="#000"/><text class="Text" transform="translate(45,16.5)"   font-size="12px"  text-anchor="middle"><tspan x="0" y="0">MMP9</tspan></text></a></g><g class="Label" transform="translate(303,348.5)" color="#000"  name="P"><rect class="Icon" transform="matrix(.96552 0 0 .96154 .48276 .48077)" width="28" height="25" fill="#fff" stroke="#000"/><text class="Text" transform="translate(14,16.5)"   font-size="12px"  text-anchor="middle"><tspan x="0" y="0">P</tspan></text></g><g class="Label" transform="translate(717.14 368.25)" color="#000"  name="Cytoskeleton remodelling"><use class="Icon" width="90" height="25" fill="transparent"  stroke="#000" stroke-width="0" xlink:href="#c"/><text class="Text" transform="translate(45,16.5)"   font-size="12px"  text-anchor="middle"><tspan x="0" y="-6.6000000000000005">Cytoskeleton</tspan> <tspan x="0" y="6.6000000000000005">remodelling</tspan></text></g><g id="af" class="Edge GraphicalLine" color="#000" ><g color="#000" fill="transparent"  filter="url(#a)" stroke="#000" stroke-dasharray="279.8046902048504, 0"><path class="EdgeBody" d="m208.03 704.58 279.8-0.98522"   /></g></g><g class="Label" transform="translate(408,375.5)" color="#000"  name="P"><rect class="Icon" transform="matrix(.96552 0 0 .96154 .48276 .48077)" width="28" height="25" fill="#fff" stroke="#000"/><text class="Text" transform="translate(14,16.5)"   font-size="12px"  text-anchor="middle"><tspan x="0" y="0">P</tspan></text></g><a  class="GeneProduct RAC1 " transform="translate(910 444.43)"   name="RAC1"  ><rect class="Icon" transform="matrix(.98901 0 0 .96154 .49451 .48077)" width="90" height="25" fill="#fff" stroke="#000"/><text class="Text" transform="translate(45,16.5)"   font-size="12px"  text-anchor="middle"><tspan x="0" y="0">RAC1</tspan></text></a><g class="Label" transform="translate(968,421.5)" color="#000"  name="P"><rect class="Icon" transform="matrix(.96552 0 0 .96154 .48276 .48077)" width="28" height="25" fill="#fff" stroke="#000"/><text class="Text" transform="translate(14,16.5)"   font-size="12px"  text-anchor="middle"><tspan x="0" y="0">P</tspan></text></g><a  class="GeneProduct BDNF " transform="translate(1210.6 164)"   name="BDNF"  ><rect class="Icon" transform="matrix(.98765 0 0 .95238 .49383 .47619)" width="80" height="20" fill="#fff" stroke="#000"/><text class="Text" transform="translate(40,14)"   font-size="12px"  text-anchor="middle"><tspan x="0" y="0">BDNF</tspan></text></a><g id="ag" class="Interaction" color="#000" ><g color="#000" fill="transparent"  filter="url(#a)" stroke="#000" stroke-dasharray="74.90081197850671, 1"><path class="EdgeBody" d="m1250.6 184 44.092 61.781"   marker-end="url(#b)" /></g></g><g id="ah" class="Interaction" color="#000" ><g color="#000" fill="transparent"  filter="url(#a)" stroke="#000" stroke-dasharray="80.33982199124117, 1"><path class="EdgeBody" d="m1250.6 184-52.908 61.781"   marker-end="url(#b)" /></g></g><g class="GroupGroup" transform="translate(924,557.5)" color="grey" ><use class="Icon" width="106" height="91" fill="transparent"  stroke="grey" stroke-dasharray="5,3" stroke-width="0" xlink:href="#c"/><a  class="GeneProduct AKT2 " transform="translate(8,33)"   name="AKT2"  ><rect class="Icon" transform="matrix(.98901 0 0 .96154 .49451 .48077)" width="90" height="25" fill="#fff" stroke="#000"/><text class="Text" transform="translate(45,16.5)"   font-size="12px"  text-anchor="middle"><tspan x="0" y="0">AKT2</tspan></text></a><a  class="GeneProduct AKT1 " transform="translate(8,8)"   name="AKT1"  ><rect class="Icon" transform="matrix(.98901 0 0 .96154 .49451 .48077)" width="90" height="25" fill="#fff" stroke="#000"/><text class="Text" transform="translate(45,16.5)"   font-size="12px"  text-anchor="middle"><tspan x="0" y="0">AKT1</tspan></text></a><a  class="GeneProduct AKT3 " transform="translate(8,58)"   name="AKT3"  ><rect class="Icon" transform="matrix(.98901 0 0 .96154 .49451 .48077)" width="90" height="25" fill="#fff" stroke="#000"/><text class="Text" transform="translate(45,16.5)"   font-size="12px"  text-anchor="middle"><tspan x="0" y="0">AKT3</tspan></text></a></g><g id="ai" class="Edge GraphicalLine" color="#000" ><g color="#000" fill="transparent"  filter="url(#a)" stroke="#000" stroke-dasharray="279.8046902048506, 0"><path class="EdgeBody" d="m652.87 693.8 279.8-0.98522"   /></g></g><g class="Label" transform="translate(758.61 693.13)" color="#000"  name="DNA"><rect class="Icon" transform="matrix(.98901 0 0 .96154 .49451 .48077)" width="90" height="25" fill="#fff" stroke="#000"/><text class="Text" transform="translate(45,16.5)"   font-size="12px"  text-anchor="middle"><tspan x="0" y="0">DNA</tspan></text></g><g id="aj" class="Edge GraphicalLine" color="#000" ><g color="#000" fill="transparent"  filter="url(#a)" stroke="#000" stroke-dasharray="279.8046902048504, 0"><path class="EdgeBody" d="m652.03 718.58 279.8-0.98522"   /></g></g><a  class="GeneProduct CDH11 " transform="translate(965.61 695.78)"   name="CDH11"  ><rect class="Icon" transform="matrix(.98901 0 0 .96154 .49451 .48077)" width="90" height="25" fill="#fff" stroke="#000"/><text class="Text" transform="translate(45,16.5)"   font-size="12px"  text-anchor="middle"><tspan x="0" y="0">CDH11</tspan></text></a><g id="ak" class="Edge GraphicalLine DirectedInteraction" color="#ff3333" ><g color="#ff3333" fill="transparent"  filter="url(#g)" stroke="#000" stroke-dasharray="0, 5.8, 26.2, 0"><path class="EdgeBody" d="m1073 704v32"   marker-start="url(#e)" /></g></g><g class="Label" transform="translate(356.4 744.29)" color="#000"  name="nucleus"><use class="Icon" width="90" height="27.935501653803783" fill="transparent"  stroke="#000" stroke-width="0" xlink:href="#c"/><text class="Text" transform="translate(45 17.968)"   font-size="12px"  text-anchor="middle"><tspan x="0" y="0">nucleus</tspan></text></g><text class="Text" transform="translate(5,27)" dominant-baseline="central" fill="black"  font-size="12px" font-weight="bold" overflow="visible" ><tspan x="0" y="-9">Name: Cell migration and invasion through p75NTR</tspan> <tspan x="0" y="9">Organism: Homo sapiens</tspan></text></g></svg>
