<?xml version="1.0" encoding="UTF-8"?>
<!--
  WikiPathways page: https://www.wikipathways.org/index.php/Pathway:WP4532
  URL for this compressed file: https://github.com/eweitz/cachome/tree/main/data/wikipathways/WP4532.svg
  Source code for compression: https://github.com/eweitz/cachome/tree/main/src/wikipathways.py
-->
<svg class="Diagram" width="800" height="600" color="black" baseProfile="full" prefix="schema:http://schema.org/" preserveAspectRatio="xMidYMid" version="1.1" viewBox="0 0 634 741.5" vocab="http://vocabularies.wikipathways.org/wp#" xmlns="http://www.w3.org/2000/svg" xmlns:xlink="http://www.w3.org/1999/xlink"><style>svg {font-family: 'Liberation Sans', Arial, sans-serif; }</style><defs><filter id="b" x="0" y="0" width="634" height="741.5" filterUnits="userSpaceOnUse"><feColorMatrix in="SourceGraphic" values="-1   0   0 0 0                   0  -1   0 0 0                   0   0  -1 0 0                   0   0   0 1 0"/></filter><marker id="c" stroke-dasharray="99999" markerHeight="12" markerUnits="userSpaceOnUse" markerWidth="12" orient="auto" preserveAspectRatio="none" refX="12" refY="6" viewBox="0 0 12 12"><path transform="rotate(180 6 6)" d="M12 12L0 6l12-6-7 6z" fill="currentColor" stroke-width="0"/></marker><symbol id="d" overflow="visible" preserveAspectRatio="none" viewBox="0 0 100 100"><path d="M0 25L25 0h50l25 25v50l-25 25H25L0 75z" stroke="currentColor" vector-effect="non-scaling-stroke"/></symbol><symbol id="a" preserveAspectRatio="none" viewBox="0 0 100 100"/></defs><g class="Viewport" color="black"  name="Name: Intraflagellar transport proteins binding to dynein Organism: Homo sapiens"><rect class="Icon" width="634" height="741.5" fill="#fff" stroke="#000" stroke-width="0"/><g id="e" class="Edge GraphicalLine" color="#000" ><g color="#000" fill="transparent"  filter="url(#b)" stroke="#000" stroke-dasharray="521.003838757451, 0"><path class="EdgeBody" d="m83 115 521 2"   /></g></g><g id="f" class="Interaction" color="#000" ><g color="#000" fill="transparent"  filter="url(#b)" stroke="#000" stroke-dasharray="29, 1"><path class="EdgeBody" d="m368.5 317.5v-30"   marker-end="url(#c)" /></g></g><g id="g" class="Interaction" color="#000" ><g color="#000" fill="transparent"  filter="url(#b)" stroke="#000" stroke-dasharray="28, 1"><path class="EdgeBody" d="m215.5 316.5v-29"   marker-end="url(#c)" /></g></g><g class="SingleFreeNode Shape" transform="translate(142,173)" color="#000" ><rect class="Icon" transform="matrix(.99668 0 0 .99123 .49834 .49561)" width="300" height="113" fill="transparent"  stroke="#000"/></g><g class="Label" transform="translate(225,386.5)" color="#000"  name="intermediate  chain/s"><use class="Icon" width="130" height="25" fill="transparent"  stroke="#000" stroke-width="0" xlink:href="#a"/><text class="Text" transform="translate(65,16.5)"   font-size="12px"  text-anchor="middle"><tspan x="0" y="-6.6000000000000005">intermediate </tspan> <tspan x="0" y="6.6000000000000005">chain/s</tspan></text></g><g class="Label" transform="translate(245,340.5)" color="#000"  name="heavy chain"><use class="Icon" width="90" height="25" fill="transparent"  stroke="#000" stroke-width="0" xlink:href="#a"/><text class="Text" transform="translate(45,16.5)"   font-size="12px"  text-anchor="middle"><tspan x="0" y="0">heavy chain</tspan></text></g><g class="Label" transform="translate(352,153.5)" color="#000"  name="IFT-B2"><use class="Icon" width="90" height="25" fill="transparent"  stroke="#000" stroke-width="0" xlink:href="#a"/><text class="Text" transform="translate(45,16.5)"   font-size="12px"  text-anchor="middle"><tspan x="0" y="0">IFT-B2</tspan></text></g><g class="Label" transform="translate(250,154.5)" color="#000"  name="IFT-B1"><use class="Icon" width="90" height="25" fill="transparent"  stroke="#000" stroke-width="0" xlink:href="#a"/><text class="Text" transform="translate(45,16.5)"   font-size="12px"  text-anchor="middle"><tspan x="0" y="0">IFT-B1</tspan></text></g><g class="Label" transform="translate(142,297.5)" color="#000"  name="dynein 1"><use class="Icon" width="90" height="25" fill="transparent"  stroke="#000" stroke-width="0" xlink:href="#a"/><text class="Text" transform="translate(45,16.5)"   font-size="12px"  text-anchor="middle"><tspan x="0" y="0">dynein 1</tspan></text></g><g class="Label" transform="translate(73,116.5)" color="#000"  name="Microtubules"><use class="Icon" width="90" height="25" fill="transparent"  stroke="#000" stroke-width="0" xlink:href="#a"/><text class="Text" transform="translate(45,16.5)"   font-size="12px"  text-anchor="middle"><tspan x="0" y="0">Microtubules</tspan></text></g><g class="Label" transform="translate(3,157.5)" color="#000"  name="Intraflagellar transport proteins"><use class="Icon" width="149" height="27.5" fill="transparent"  stroke="#000" stroke-width="0" xlink:href="#a"/><text class="Text" transform="translate(74.5,17.75)"   font-size="12px"  text-anchor="middle"><tspan x="0" y="-6.6000000000000005">Intraflagellar transport</tspan> <tspan x="0" y="6.6000000000000005">proteins</tspan></text></g><g class="Label" transform="translate(142,152.5)" color="#000"  name="IFT-A"><use class="Icon" width="90" height="25" fill="transparent"  stroke="#000" stroke-width="0" xlink:href="#a"/><text class="Text" transform="translate(45,16.5)"   font-size="12px"  text-anchor="middle"><tspan x="0" y="0">IFT-A</tspan></text></g><g class="GroupGroup" transform="translate(139,169.5)" color="grey" ><use class="Icon" width="306" height="118" fill="transparent"  stroke="grey" stroke-dasharray="5,3" stroke-width="0" xlink:href="#a"/><a  class="GeneProduct WDR35 " transform="translate(8,8)"   name="WDR35"  ><rect class="Icon" transform="matrix(.98765 0 0 .95238 .49383 .47619)" width="80" height="20" fill="#fff" stroke="#000"/><text class="Text" transform="translate(40,14)"   font-size="12px"  text-anchor="middle"><tspan x="0" y="0">WDR35</tspan></text></a><a  class="GeneProduct IFT122 " transform="translate(8,28)"   name="IFT122"  ><rect class="Icon" transform="matrix(.98765 0 0 .95238 .49383 .47619)" width="80" height="20" fill="#fff" stroke="#000"/><text class="Text" transform="translate(40,14)"   font-size="12px"  text-anchor="middle"><tspan x="0" y="0">IFT122</tspan></text></a><a  class="GeneProduct IFT140 " transform="translate(8,48)"   name="IFT140"  ><rect class="Icon" transform="matrix(.98765 0 0 .95238 .49383 .47619)" width="80" height="20" fill="#fff" stroke="#000"/><text class="Text" transform="translate(40,14)"   font-size="12px"  text-anchor="middle"><tspan x="0" y="0">IFT140</tspan></text></a><a  class="GeneProduct WDR19 " transform="translate(8,68)"   name="WDR19"  ><rect class="Icon" transform="matrix(.98765 0 0 .95238 .49383 .47619)" width="80" height="20" fill="#fff" stroke="#000"/><text class="Text" transform="translate(40,14)"   font-size="12px"  text-anchor="middle"><tspan x="0" y="0">WDR19</tspan></text></a><a  class="GeneProduct IFT22 " transform="translate(116,10)"   name="IFT22"  ><rect class="Icon" transform="matrix(.98765 0 0 .95238 .49383 .47619)" width="80" height="20" fill="#fff" stroke="#000"/><text class="Text" transform="translate(40,14)"   font-size="12px"  text-anchor="middle"><tspan x="0" y="0">IFT22</tspan></text></a><a  class="GeneProduct HSPB11 " transform="translate(116,30)"   name="HSPB11"  ><rect class="Icon" transform="matrix(.98765 0 0 .95238 .49383 .47619)" width="80" height="20" fill="#fff" stroke="#000"/><text class="Text" transform="translate(40,14)"   font-size="12px"  text-anchor="middle"><tspan x="0" y="0">HSPB11</tspan></text></a><a  class="GeneProduct IFT27 " transform="translate(116,50)"   name="IFT27"  ><rect class="Icon" transform="matrix(.98765 0 0 .95238 .49383 .47619)" width="80" height="20" fill="#fff" stroke="#000"/><text class="Text" transform="translate(40,14)"   font-size="12px"  text-anchor="middle"><tspan x="0" y="0">IFT27</tspan></text></a><a  class="GeneProduct IFT43 " transform="translate(8,88)"   name="IFT43"  ><rect class="Icon" transform="matrix(.98765 0 0 .95238 .49383 .47619)" width="80" height="20" fill="#fff" stroke="#000"/><text class="Text" transform="translate(40,14)"   font-size="12px"  text-anchor="middle"><tspan x="0" y="0">IFT43</tspan></text></a><a  class="GeneProduct IFT46 " transform="translate(116,70)"   name="IFT46"  ><rect class="Icon" transform="matrix(.98765 0 0 .95238 .49383 .47619)" width="80" height="20" fill="#fff" stroke="#000"/><text class="Text" transform="translate(40,14)"   font-size="12px"  text-anchor="middle"><tspan x="0" y="0">IFT46</tspan></text></a><a  class="GeneProduct IFT80 " transform="translate(218,11)"   name="IFT80"  ><rect class="Icon" transform="matrix(.98765 0 0 .95238 .49383 .47619)" width="80" height="20" fill="#fff" stroke="#000"/><text class="Text" transform="translate(40,14)"   font-size="12px"  text-anchor="middle"><tspan x="0" y="0">IFT80</tspan></text></a><a  class="GeneProduct IFT81 " transform="translate(116,90)"   name="IFT81"  ><rect class="Icon" transform="matrix(.98765 0 0 .95238 .49383 .47619)" width="80" height="20" fill="#fff" stroke="#000"/><text class="Text" transform="translate(40,14)"   font-size="12px"  text-anchor="middle"><tspan x="0" y="0">IFT81</tspan></text></a></g><g class="GroupComplex" transform="translate(340,317.5)" color="grey" ><use class="Icon" transform="matrix(.9913 0 0 .99747 .49565 .49873)" width="114" height="394" fill="#b4b464" fill-opacity=".1" stroke="grey" xlink:href="#d"/><a  class="GeneProduct TCTEX1D2 " transform="translate(12,357)"   name="TCTEX1D2"  ><rect class="Icon" transform="matrix(.98901 0 0 .96154 .49451 .48077)" width="90" height="25" fill="#fff" stroke="#000"/><text class="Text" transform="translate(45,16.5)"   font-size="12px"  text-anchor="middle"><tspan x="0" y="0">TCTEX1D2</tspan></text></a><a  class="GeneProduct WDR34 " transform="translate(12,90)"   name="WDR34"  ><rect class="Icon" transform="matrix(.98901 0 0 .96154 .49451 .48077)" width="90" height="25" fill="#fff" stroke="#000"/><text class="Text" transform="translate(45,16.5)"   font-size="12px"  text-anchor="middle"><tspan x="0" y="0">WDR34</tspan></text></a><a  class="GeneProduct DYNC2H1 " transform="translate(12,12)"   name="DYNC2H1"  ><rect class="Icon" transform="matrix(.98901 0 0 .96154 .49451 .48077)" width="90" height="25" fill="#fff" stroke="#000"/><text class="Text" transform="translate(45,16.5)"   font-size="12px"  text-anchor="middle"><tspan x="0" y="0">DYNC2H1</tspan></text></a><a  class="GeneProduct DYNC2LI1 " transform="translate(12,129)"   name="DYNC2LI1"  ><rect class="Icon" transform="matrix(.98901 0 0 .96154 .49451 .48077)" width="90" height="25" fill="#fff" stroke="#000"/><text class="Text" transform="translate(45,16.5)"   font-size="12px"  text-anchor="middle"><tspan x="0" y="0">DYNC2LI1</tspan></text></a><a  class="GeneProduct WDR60 " transform="translate(12,65)"   name="WDR60"  ><rect class="Icon" transform="matrix(.98901 0 0 .96154 .49451 .48077)" width="90" height="25" fill="#fff" stroke="#000"/><text class="Text" transform="translate(45,16.5)"   font-size="12px"  text-anchor="middle"><tspan x="0" y="0">WDR60</tspan></text></a><a  class="GeneProduct DYNLL2 " transform="translate(12,282)"   name="DYNLL2"  ><rect class="Icon" transform="matrix(.98901 0 0 .96154 .49451 .48077)" width="90" height="25" fill="#fff" stroke="#000"/><text class="Text" transform="translate(45,16.5)"   font-size="12px"  text-anchor="middle"><tspan x="0" y="0">DYNLL2</tspan></text></a><a  class="GeneProduct DYNLT1 " transform="translate(12,307)"   name="DYNLT1"  ><rect class="Icon" transform="matrix(.98901 0 0 .96154 .49451 .48077)" width="90" height="25" fill="#fff" stroke="#000"/><text class="Text" transform="translate(45,16.5)"   font-size="12px"  text-anchor="middle"><tspan x="0" y="0">DYNLT1</tspan></text></a><a  class="GeneProduct DYNLRB1 " transform="translate(12,207)"   name="DYNLRB1"  ><rect class="Icon" transform="matrix(.98901 0 0 .96154 .49451 .48077)" width="90" height="25" fill="#fff" stroke="#000"/><text class="Text" transform="translate(45,16.5)"   font-size="12px"  text-anchor="middle"><tspan x="0" y="0">DYNLRB1</tspan></text></a><a  class="GeneProduct DYNLL1 " transform="translate(12,257)"   name="DYNLL1"  ><rect class="Icon" transform="matrix(.98901 0 0 .96154 .49451 .48077)" width="90" height="25" fill="#fff" stroke="#000"/><text class="Text" transform="translate(45,16.5)"   font-size="12px"  text-anchor="middle"><tspan x="0" y="0">DYNLL1</tspan></text></a><a  class="GeneProduct DYNLRB2 " transform="translate(12,232)"   name="DYNLRB2"  ><rect class="Icon" transform="matrix(.98901 0 0 .96154 .49451 .48077)" width="90" height="25" fill="#fff" stroke="#000"/><text class="Text" transform="translate(45,16.5)"   font-size="12px"  text-anchor="middle"><tspan x="0" y="0">DYNLRB2</tspan></text></a><a  class="GeneProduct DYNLT3 " transform="translate(12,332)"   name="DYNLT3"  ><rect class="Icon" transform="matrix(.98901 0 0 .96154 .49451 .48077)" width="90" height="25" fill="#fff" stroke="#000"/><text class="Text" transform="translate(45,16.5)"   font-size="12px"  text-anchor="middle"><tspan x="0" y="0">DYNLT3</tspan></text></a></g><g class="GroupComplex" transform="translate(130,316.5)" color="grey" ><use class="Icon" transform="matrix(.9913 0 0 .9973 .49565 .49865)" width="114" height="369" fill="#b4b464" fill-opacity=".1" stroke="grey" xlink:href="#d"/><a  class="GeneProduct DYNLL2 " transform="translate(12,282)"   name="DYNLL2"  ><rect class="Icon" transform="matrix(.98901 0 0 .96154 .49451 .48077)" width="90" height="25" fill="#fff" stroke="#000"/><text class="Text" transform="translate(45,16.5)"   font-size="12px"  text-anchor="middle"><tspan x="0" y="0">DYNLL2</tspan></text></a><a  class="GeneProduct DYNLT1 " transform="translate(12,307)"   name="DYNLT1"  ><rect class="Icon" transform="matrix(.98901 0 0 .96154 .49451 .48077)" width="90" height="25" fill="#fff" stroke="#000"/><text class="Text" transform="translate(45,16.5)"   font-size="12px"  text-anchor="middle"><tspan x="0" y="0">DYNLT1</tspan></text></a><a  class="GeneProduct DYNC1LI1 " transform="translate(12,128)"   name="DYNC1LI1"  ><rect class="Icon" transform="matrix(.98901 0 0 .96154 .49451 .48077)" width="90" height="25" fill="#fff" stroke="#000"/><text class="Text" transform="translate(45,16.5)"   font-size="12px"  text-anchor="middle"><tspan x="0" y="0">DYNC1LI1</tspan></text></a><a  class="GeneProduct DYNC1H1 " transform="translate(12,12)"   name="DYNC1H1"  ><rect class="Icon" transform="matrix(.98901 0 0 .96154 .49451 .48077)" width="90" height="25" fill="#fff" stroke="#000"/><text class="Text" transform="translate(45,16.5)"   font-size="12px"  text-anchor="middle"><tspan x="0" y="0">DYNC1H1</tspan></text></a><a  class="GeneProduct DYNLRB1 " transform="translate(12,207)"   name="DYNLRB1"  ><rect class="Icon" transform="matrix(.98901 0 0 .96154 .49451 .48077)" width="90" height="25" fill="#fff" stroke="#000"/><text class="Text" transform="translate(45,16.5)"   font-size="12px"  text-anchor="middle"><tspan x="0" y="0">DYNLRB1</tspan></text></a><a  class="GeneProduct DYNLL1 " transform="translate(12,257)"   name="DYNLL1"  ><rect class="Icon" transform="matrix(.98901 0 0 .96154 .49451 .48077)" width="90" height="25" fill="#fff" stroke="#000"/><text class="Text" transform="translate(45,16.5)"   font-size="12px"  text-anchor="middle"><tspan x="0" y="0">DYNLL1</tspan></text></a><a  class="GeneProduct DYNC1I2 " transform="translate(12,91)"   name="DYNC1I2"  ><rect class="Icon" transform="matrix(.98901 0 0 .96154 .49451 .48077)" width="90" height="25" fill="#fff" stroke="#000"/><text class="Text" transform="translate(45,16.5)"   font-size="12px"  text-anchor="middle"><tspan x="0" y="0">DYNC1I2</tspan></text></a><a  class="GeneProduct DYNC1I1 " transform="translate(12,66)"   name="DYNC1I1"  ><rect class="Icon" transform="matrix(.98901 0 0 .96154 .49451 .48077)" width="90" height="25" fill="#fff" stroke="#000"/><text class="Text" transform="translate(45,16.5)"   font-size="12px"  text-anchor="middle"><tspan x="0" y="0">DYNC1I1</tspan></text></a><a  class="GeneProduct DYNLRB2 " transform="translate(12,232)"   name="DYNLRB2"  ><rect class="Icon" transform="matrix(.98901 0 0 .96154 .49451 .48077)" width="90" height="25" fill="#fff" stroke="#000"/><text class="Text" transform="translate(45,16.5)"   font-size="12px"  text-anchor="middle"><tspan x="0" y="0">DYNLRB2</tspan></text></a><a  class="GeneProduct DYNLT3 " transform="translate(12,332)"   name="DYNLT3"  ><rect class="Icon" transform="matrix(.98901 0 0 .96154 .49451 .48077)" width="90" height="25" fill="#fff" stroke="#000"/><text class="Text" transform="translate(45,16.5)"   font-size="12px"  text-anchor="middle"><tspan x="0" y="0">DYNLT3</tspan></text></a><a  class="GeneProduct DYNC1LI2 " transform="translate(12,153)"   name="DYNC1LI2"  ><rect class="Icon" transform="matrix(.98901 0 0 .96154 .49451 .48077)" width="90" height="25" fill="#fff" stroke="#000"/><text class="Text" transform="translate(45,16.5)"   font-size="12px"  text-anchor="middle"><tspan x="0" y="0">DYNC1LI2</tspan></text></a></g><g id="h" class="Edge GraphicalLine" color="#000" ><g color="#000" fill="transparent"  filter="url(#b)" stroke="#000" stroke-dasharray="521.003838757451, 0"><path class="EdgeBody" d="m82 143 521 2"   /></g></g><g class="Label" transform="translate(351,298.5)" color="#000"  name="dynein 2"><use class="Icon" width="90" height="25" fill="transparent"  stroke="#000" stroke-width="0" xlink:href="#a"/><text class="Text" transform="translate(45,16.5)"   font-size="12px"  text-anchor="middle"><tspan x="0" y="0">dynein 2</tspan></text></g><g class="Label" transform="translate(245.5,533.5)" color="#000"  name="light chains"><use class="Icon" width="89" height="25" fill="transparent"  stroke="#000" stroke-width="0" xlink:href="#a"/><text class="Text" transform="translate(44.5,16.5)"   font-size="12px"  text-anchor="middle"><tspan x="0" y="0">light chains</tspan></text></g><g class="Label" transform="translate(225,438.5)" color="#000"  name="light  intermediate  chain/s"><use class="Icon" width="130" height="54.5" fill="transparent"  stroke="#000" stroke-width="0" xlink:href="#a"/><text class="Text" transform="translate(65,31.25)"   font-size="12px"  text-anchor="middle"><tspan x="0" y="-13.200000000000001">light </tspan> <tspan x="0" y="0">intermediate </tspan> <tspan x="0" y="13.200000000000001">chain/s</tspan></text></g><text class="Text" transform="translate(5,27)" dominant-baseline="central" fill="black"  font-size="12px" font-weight="bold" overflow="visible" ><tspan x="0" y="-9">Name: Intraflagellar transport proteins binding to dynein</tspan> <tspan x="0" y="9">Organism: Homo sapiens</tspan></text></g></svg>
