<?xml version="1.0" encoding="UTF-8"?>
<!--
  WikiPathways page: https://www.wikipathways.org/index.php/Pathway:WP4873
  URL for this compressed file: https://github.com/eweitz/cachome/tree/main/data/wikipathways/WP4873.svg
  Source code for compression: https://github.com/eweitz/cachome/tree/main/src/wikipathways.py
-->
<svg class="Diagram" width="800" height="600" color="black" baseProfile="full" prefix="schema:http://schema.org/" preserveAspectRatio="xMidYMid" version="1.1" viewBox="0 0 1198.9 611.5" vocab="http://vocabularies.wikipathways.org/wp#" xmlns="http://www.w3.org/2000/svg" xmlns:xlink="http://www.w3.org/1999/xlink"><style>svg {font-family: 'Liberation Sans', Arial, sans-serif; }</style><defs><filter id="a" x="0" y="0" width="1198.9" height="611.5" filterUnits="userSpaceOnUse"><feColorMatrix in="SourceGraphic" values="-1   0   0 0 0                   0  -1   0 0 0                   0   0  -1 0 0                   0   0   0 1 0"/></filter><marker id="e" stroke-dasharray="99999" markerHeight="12" markerUnits="userSpaceOnUse" markerWidth="12" orient="auto" preserveAspectRatio="none" refX="12" refY="6" viewBox="0 0 12 12"><path transform="rotate(180 6 6)" d="M12 12L0 6l12-6-7 6z" fill="currentColor" stroke-width="0"/></marker><marker id="d" stroke-dasharray="99999" markerHeight="20" markerUnits="userSpaceOnUse" markerWidth="10" orient="auto" preserveAspectRatio="none" refX="10" refY="10" viewBox="0 0 10 20"><path d="m3 0v20" fill="currentColor" stroke="currentColor"/></marker><marker id="b" stroke-dasharray="99999" markerHeight="12" markerUnits="userSpaceOnUse" markerWidth="12" orient="auto" preserveAspectRatio="none" refX="12" refY="6" viewBox="0 0 12 12"><g transform="rotate(180 6 6)" fill="none"><path d="m12 6"/><path d="M0 6l11 5V1z" stroke="#000"/></g></marker><symbol id="f" overflow="visible" preserveAspectRatio="none" viewBox="0 0 100 100"><ellipse cx="50" cy="50" rx="50" ry="50" stroke="currentColor"/><path d="M14.895 26.347c4.364-.741 3.827 17.037 8.183 16.184 8.273.03 2.982-28.149 9.9-28.337 6.967-.187 2.246 29.948 9.204 29.44 7.633-.56.508-32.935 8.137-33.623 7.698-.689 2.919 32.04 10.628 32.225 6.547.16 3.026-27.643 9.56-26.921 7.193.793.665 29.842 7.782 31.667 4.748 1.216 4.42-18.258 9.204-17.44 11.129 7.577 8.628 37.698-2.18 44.644-3.138.699-3.966-10.502-7.113-9.905-5.59 1.059-3.982 22.284-9.603 21.8-5.24-.457-2.226-21.637-7.47-21.73-6.962-.117-3.358 28.924-10.317 28.495-6.14-.376-1.73-24.95-7.825-26.192-5.682-1.157-5.378 22.17-11.027 20.68-6.25-1.644-.47-26.673-6.76-27.865-3.728-.706-2.647 14.4-6.403 14.545-14.016-5.939-15.749-39.708-3.9-47.667z" stroke="currentColor" vector-effect="non-scaling-stroke"/></symbol><symbol id="c" preserveAspectRatio="none" viewBox="0 0 100 100"/></defs><g class="Viewport" color="black"  name="Name: Peroxiredoxin 2 induced ovarian failure Organism: Homo sapiens"><rect class="Icon" width="1198.9" height="611.5" fill="#fff" stroke="#000" stroke-width="0"/><g id="g" class="Interaction" color="#000" ><g color="#000" fill="transparent"  filter="url(#a)" stroke="#000" stroke-dasharray="21.333333333333087, 11"><path class="EdgeBody" d="m634 336.83v32.333"   marker-end="url(#b)" /></g></g><g id="h" class="Interaction" color="#000" ><g color="#000" fill="transparent"  filter="url(#a)" stroke="#000" stroke-dasharray="160.7579689025879, 7"><path class="EdgeBody" d="m95.371 446.94v62.129h105.63"   marker-end="url(#d)" /></g></g><g id="i" class="Interaction" color="#000" ><g color="#000" fill="transparent"  filter="url(#a)" stroke="#000" stroke-dasharray="87.854040505897, 11"><path class="EdgeBody" d="m221.87 364.75 80.629 57.194"   marker-end="url(#b)" /></g></g><g id="j" class="Interaction" color="#000" ><g color="#000" fill="transparent"  filter="url(#a)" stroke="#000" stroke-dasharray="91, 11"><path class="EdgeBody" d="m996.85 215v102"   marker-end="url(#b)" /></g></g><g id="k" class="Interaction" color="#000" ><g color="#000" fill="transparent"  filter="url(#a)" stroke="#000" stroke-dasharray="378.8977578481038, 7"><path class="EdgeBody" d="m217.19 86.083h20v-38.083h327.81"   marker-end="url(#d)" /></g></g><g id="l" class="Interaction" color="#000" ><g color="#000" fill="transparent"  filter="url(#a)" stroke="#000" stroke-dasharray="88.5658577450775, 11"><path class="EdgeBody" d="m176.87 364.75-81.5 57.194"   marker-end="url(#b)" /></g></g><g id="m" class="Interaction" color="#000" ><g color="#000" fill="transparent"  filter="url(#a)" stroke="#000" stroke-dasharray="140.32604280746844, 11"><path class="EdgeBody" d="m996.85 345.5-1 151.32"   marker-end="url(#b)" /></g></g><g id="n" class="Interaction" color="#000" ><g color="#000" fill="transparent"  filter="url(#a)" stroke="#000" stroke-dasharray="389.62921524047846, 7"><path class="EdgeBody" d="m589 128h-20v52h-324.63"   marker-end="url(#d)" /></g></g><g id="o" class="Interaction" color="#000" ><g color="#000" fill="transparent"  filter="url(#a)" stroke="#000" stroke-dasharray="53.5, 1"><path class="EdgeBody" d="m199.37 285.25v54.5"   marker-end="url(#e)" /></g></g><g id="p" class="Interaction" color="#000" ><g color="#000" fill="transparent"  filter="url(#a)" stroke="#000" stroke-dasharray="368.10009765624994, 11"><path class="EdgeBody" d="m679 121.75h317.85v61.25"   marker-end="url(#b)" /></g></g><g id="q" class="Interaction" color="#000" ><g color="#000" fill="transparent"  filter="url(#a)" stroke="#000" stroke-dasharray="214.85009765625, 11"><path class="EdgeBody" d="m903.85 509.07h-225.85"   marker-end="url(#b)" /></g></g><g id="r" class="Interaction" color="#000" ><g color="#000" fill="transparent"  filter="url(#a)" stroke="#000" stroke-dasharray="37.773060202342265, 11"><path class="EdgeBody" d="m635.5 60.5-1.4996 48.75"   marker-end="url(#b)" /></g></g><g id="s" class="Interaction" color="#000" ><g color="#000" fill="transparent"  filter="url(#a)" stroke="#000" stroke-dasharray="173.0003662109375, 11"><path class="EdgeBody" d="m404 509.07h184"   marker-end="url(#b)" /></g></g><g id="t" class="Interaction" color="#000" ><g color="#000" fill="transparent"  filter="url(#a)" stroke="#000" stroke-dasharray="155, 11"><path class="EdgeBody" d="m872 48-166 1e-14"   marker-end="url(#b)" /></g></g><g id="u" class="Interaction" color="#000" ><g color="#000" fill="transparent"  filter="url(#a)" stroke="#000" stroke-dasharray="91.41095438738809, 11"><path class="EdgeBody" d="m634 394.17-1 102.41"   marker-end="url(#b)" /></g></g><g id="v" class="Interaction" color="#000" ><g color="#000" fill="transparent"  filter="url(#a)" stroke="#000" stroke-dasharray="51.9166666666666, 11"><path class="EdgeBody" d="m634 134.25v62.917"   marker-end="url(#b)" /></g></g><g id="w" class="Interaction" color="#000" ><g color="#000" fill="transparent"  filter="url(#a)" stroke="#000" stroke-dasharray="40.879119873046875, 7"><path class="EdgeBody" d="m302.5 446.94v47.879"   marker-end="url(#d)" /></g></g><g id="x" class="Interaction" color="#000" ><g color="#000" fill="transparent"  filter="url(#a)" stroke="#000" stroke-dasharray="23.941573885395727, 11"><path class="EdgeBody" d="m633 521.57 1 34.927"   marker-end="url(#b)" /></g></g><g id="y" class="Interaction" color="#000" ><g color="#000" fill="transparent"  filter="url(#a)" stroke="#000" stroke-dasharray="20.00000000000003, 11"><path class="EdgeBody" d="m634 222.17v31"   marker-end="url(#b)" /></g></g><g id="z" class="Interaction" color="#000" ><g color="#000" fill="transparent"  filter="url(#a)" stroke="#000" stroke-dasharray="353.52735900878906, 11"><path class="EdgeBody" d="m995.85 521.32v47.677h-316.85"   marker-end="url(#b)" /></g></g><g id="aa" class="Interaction" color="#000" ><g color="#000" fill="transparent"  filter="url(#a)" stroke="#000" stroke-dasharray="321.17762756347656, 11"><path class="EdgeBody" d="m302.5 523.32v45.677h286.5"   marker-end="url(#b)" /></g></g><g id="ab" class="Interaction" color="#000" ><g color="#000" fill="transparent"  filter="url(#a)" stroke="#000" stroke-dasharray="22.666666666666572, 11"><path class="EdgeBody" d="m634 278.17v33.667"   marker-end="url(#b)" /></g></g><g id="ac" class="Interaction" color="#000" ><g color="#000" fill="transparent"  filter="url(#a)" stroke="#000" stroke-dasharray="394.23145739237475, 7"><path class="EdgeBody" d="m217.19 92.333h20v29.417h351.81"   marker-end="url(#d)" /></g></g><g id="ad" class="Interaction" color="#000" ><g color="#000" fill="transparent"  filter="url(#a)" stroke="#000" stroke-dasharray="60.5, 1"><path class="EdgeBody" d="m199.37 198.75v61.5"   marker-end="url(#e)" /></g></g><g class="SingleFreeNode Shape PhysicalEntity CellularComponent Mitochondria" transform="translate(391 172) rotate(181.35 100 50)" color="#c0c0c0" ><use class="Icon" transform="matrix(.98522 0 0 .97087 1.4778 1.4563)" width="200" height="100" fill="transparent"  stroke="#c0c0c0" stroke-width="3" xlink:href="#f"/></g><g class="Label" transform="translate(830.35 183)" color="#000"  name="The number of follicles and Corpora lutea declines"><use class="Icon" width="333" height="32" fill="transparent"  stroke="#000" stroke-width="0" xlink:href="#c"/><text class="Text" transform="translate(166.5,20)"   font-size="12px"  text-anchor="middle"><tspan x="0" y="0">The number of follicles and Corpora lutea declines</tspan></text></g><g class="Label" transform="translate(872,35.5)" color="#000"  name="Aging"><use class="Icon" width="90" height="25" fill="transparent"  stroke="#000" stroke-width="0" xlink:href="#c"/><text class="Text" transform="translate(45,16.5)"   font-size="12px"  text-anchor="middle"><tspan x="0" y="0">Aging</tspan></text></g><g class="Label" transform="translate(903.85 496.82)" color="#000"  name="Ovarian structural degeneration"><use class="Icon" width="184" height="24.5" fill="transparent"  stroke="#000" stroke-width="0" xlink:href="#c"/><text class="Text" transform="translate(92,16.25)"   font-size="12px"  text-anchor="middle"><tspan x="0" y="0">Ovarian structural degeneration</tspan></text></g><g class="Label" transform="translate(588 496.57)" color="#000"  name="Apoptosis"><use class="Icon" width="90" height="25" fill="transparent"  stroke="#000" stroke-width="0" xlink:href="#c"/><text class="Text" transform="translate(45,16.5)"   font-size="12px"  text-anchor="middle"><tspan x="0" y="0">Apoptosis</tspan></text></g><g class="Label" transform="translate(589 556.5)" color="#000"  name="Ovarian failure"><use class="Icon" width="90" height="25" fill="transparent"  stroke="#000" stroke-width="0" xlink:href="#c"/><text class="Text" transform="translate(45,16.5)"   font-size="12px"  text-anchor="middle"><tspan x="0" y="0">Ovarian failure</tspan></text></g><g class="Label" transform="translate(201 494.82)" color="#000"  name="Ovarian functional degeneration"><use class="Icon" width="203" height="28.5" fill="transparent"  stroke="#000" stroke-width="0" xlink:href="#c"/><text class="Text" transform="translate(101.5,18.25)"   font-size="12px"  text-anchor="middle"><tspan x="0" y="0">Ovarian functional degeneration</tspan></text></g><g class="Label" transform="translate(824.85 317)" color="#000"  name="Size of ovaries decline"><use class="Icon" width="344" height="28.5" fill="transparent"  stroke="#000" stroke-width="0" xlink:href="#c"/><text class="Text" transform="translate(172,18.25)"   font-size="12px"  text-anchor="middle"><tspan x="0" y="0">Size of ovaries decline</tspan></text></g><a  class="ChEBI_CHEBI_18070 Metabolite  " transform="translate(589 253.17)"   name="Cytochrome C"  ><rect class="Icon" transform="matrix(.98901 0 0 .96154 .49451 .48077)" width="90" height="25" fill="#fff" stroke="#000"/><text class="Text" transform="translate(45,16.5)"   font-size="12px"  text-anchor="middle"><tspan x="0" y="0">Cytochrome C</tspan></text></a><a class="ChEBI_CHEBI_26523 Metabolite  " transform="translate(565 35.5)" color="#00f"  name="Reactive oxygen species"  ><rect class="Icon" transform="matrix(.99296 0 0 .96154 .49648 .48077)" width="141" height="25" fill="#fff" stroke="#00f"/><text class="Text" transform="translate(70.5,16.5)" fill="#00f"  font-size="12px"  text-anchor="middle"><tspan x="0" y="0">Reactive oxygen species</tspan></text></a><a class="ChEBI_CHEBI_16469 Metabolite  " transform="translate(257.5 421.94)" color="#00f"  name="Estradiol-17beta"  ><rect class="Icon" transform="matrix(.98901 0 0 .96154 .49451 .48077)" width="90" height="25" fill="#fff" stroke="#00f"/><text class="Text" transform="translate(45,16.5)" fill="#00f"  font-size="12px"  text-anchor="middle"><tspan x="0" y="0">Estradiol-17beta</tspan></text></a><a  class="Protein CYP11A1 " transform="translate(154.37 260.25)"   name="CYP11A1"  ><rect class="Icon" transform="matrix(.98901 0 0 .96154 .49451 .48077)" width="90" height="25" fill="#fff" stroke="#000"/><text class="Text" transform="translate(45,16.5)"   font-size="12px"  text-anchor="middle"><tspan x="0" y="0">CYP11A1</tspan></text></a><a  class="Protein HSD3B2 " transform="translate(154.37 339.75)"   name="HSD3B2"  ><rect class="Icon" transform="matrix(.98901 0 0 .96154 .49451 .48077)" width="90" height="25" fill="#fff" stroke="#000"/><text class="Text" transform="translate(45,16.5)"   font-size="12px"  text-anchor="middle"><tspan x="0" y="0">HSD3B2</tspan></text></a><g class="Uniprot-TrEMBL_P53779 Protein MAPK10 " transform="translate(589 109.25)" color="#000"  name="JNK"><rect class="Icon" transform="matrix(.98901 0 0 .96154 .49451 .48077)" width="90" height="25" fill="#fff" stroke="#000"/><text class="Text" transform="translate(45,16.5)"   font-size="12px"  text-anchor="middle"><tspan x="0" y="0">JNK</tspan></text></g><a  class="Protein CASP3 " transform="translate(589 311.83)"   name="CASP3"  ><rect class="Icon" transform="matrix(.98901 0 0 .96154 .49451 .48077)" width="90" height="25" fill="#fff" stroke="#000"/><text class="Text" transform="translate(45,16.5)"   font-size="12px"  text-anchor="middle"><tspan x="0" y="0">CASP3</tspan></text></a><a class="DrugBank_DB00396 Metabolite ChEBI_CHEBI_17026  " transform="translate(50.371 421.94)" color="#00f"  name="Progesterone"  ><rect class="Icon" transform="matrix(.98901 0 0 .96154 .49451 .48077)" width="90" height="25" fill="#fff" stroke="#00f"/><text class="Text" transform="translate(45,16.5)" fill="#00f"  font-size="12px"  text-anchor="middle"><tspan x="0" y="0">Progesterone</tspan></text></a><a  class="Protein STAR " transform="translate(154.37 173.75)"   name="STAR"  ><rect class="Icon" transform="matrix(.98901 0 0 .96154 .49451 .48077)" width="90" height="25" fill="#fff" stroke="#000"/><text class="Text" transform="translate(45,16.5)"   font-size="12px"  text-anchor="middle"><tspan x="0" y="0">STAR</tspan></text></a><g class="Uniprot-TrEMBL_P32119 Protein PRDX2 " transform="translate(127.19 79.833)" color="#000"  name="Peroxiredoxin-2"><rect class="Icon" transform="matrix(.98901 0 0 .96154 .49451 .48077)" width="90" height="25" fill="#fff" stroke="#000"/><text class="Text" transform="translate(45,16.5)"   font-size="12px"  text-anchor="middle"><tspan x="0" y="0">Peroxiredoxin-2</tspan></text></g><a  class="GeneProduct BAX " transform="translate(589 197.17)"   name="BAX"  ><rect class="Icon" transform="matrix(.98901 0 0 .96154 .49451 .48077)" width="90" height="25" fill="#fff" stroke="#000"/><text class="Text" transform="translate(45,16.5)"   font-size="12px"  text-anchor="middle"><tspan x="0" y="0">BAX</tspan></text></a><a  class="GeneProduct PARP2 " transform="translate(589 369.17)"   name="PARP2"  ><rect class="Icon" transform="matrix(.98901 0 0 .96154 .49451 .48077)" width="90" height="25" fill="#fff" stroke="#000"/><text class="Text" transform="translate(45,16.5)"   font-size="12px"  text-anchor="middle"><tspan x="0" y="0">PARP2</tspan></text></a><text class="Text" transform="translate(5,27)" dominant-baseline="central" fill="black"  font-size="12px" font-weight="bold" overflow="visible" ><tspan x="0" y="-9">Name: Peroxiredoxin 2 induced ovarian failure</tspan> <tspan x="0" y="9">Organism: Homo sapiens</tspan></text></g></svg>
