<?xml version="1.0" encoding="UTF-8"?>
<!--
  WikiPathways page: https://www.wikipathways.org/index.php/Pathway:WP4829
  URL for this compressed file: https://github.com/eweitz/cachome/tree/main/data/wikipathways/WP4829.svg
  Source code for compression: https://github.com/eweitz/cachome/tree/main/src/wikipathways.py
-->
<svg class="Diagram" width="800" height="600" color="black" baseProfile="full" prefix="schema:http://schema.org/" preserveAspectRatio="xMidYMid" version="1.1" viewBox="0 0 1202.9 851.43" vocab="http://vocabularies.wikipathways.org/wp#" xmlns="http://www.w3.org/2000/svg" xmlns:xlink="http://www.w3.org/1999/xlink"><style>svg {font-family: 'Liberation Sans', Arial, sans-serif; }</style><defs><filter id="f" x="-50%" y="-50%" width="200%" height="200%"><feComposite in="SourceGraphic" in2="SourceGraphic" result="doubleDark"/><feMorphology in="doubleDark" operator="dilate" radius="0.16666666666666666" result="in2Double"/><feMorphology in="SourceGraphic" operator="dilate" radius="3" result="inDouble"/><feComposite in="inDouble" in2="in2Double" operator="out" result="doubleResult"/></filter><filter id="a" x="0" y="0" width="1202.9" height="851.43" filterUnits="userSpaceOnUse"><feColorMatrix in="SourceGraphic" values="-1   0   0 0 0                   0  -1   0 0 0                   0   0  -1 0 0                   0   0   0 1 0"/></filter><marker id="b" stroke-dasharray="99999" markerHeight="12" markerUnits="userSpaceOnUse" markerWidth="12" orient="auto" preserveAspectRatio="none" refX="12" refY="6" viewBox="0 0 12 12"><path transform="rotate(180 6 6)" d="M12 11L0 6l12-5z" fill="currentColor" stroke-width="0"/></marker><marker id="e" stroke-dasharray="99999" markerHeight="12" markerUnits="userSpaceOnUse" markerWidth="12" orient="auto" preserveAspectRatio="none" refX="12" refY="6" viewBox="0 0 12 12"><path transform="rotate(180 6 6)" d="M12 12L0 6l12-6-7 6z" fill="currentColor" stroke-width="0"/></marker><marker id="d" stroke-dasharray="99999" markerHeight="20" markerUnits="userSpaceOnUse" markerWidth="10" orient="auto" preserveAspectRatio="none" refX="10" refY="10" viewBox="0 0 10 20"><path d="m3 0v20" fill="currentColor" stroke="currentColor"/></marker><symbol id="h" overflow="visible" preserveAspectRatio="none" viewBox="0 0 50 50"><ellipse cx="25" cy="25" rx="25" ry="25" stroke="currentColor" vector-effect="non-scaling-stroke"/></symbol><symbol id="g" overflow="visible" preserveAspectRatio="none" viewBox="0 0 100 100"><path d="M0 25L25 0h50l25 25v50l-25 25H25L0 75z" stroke="currentColor" vector-effect="non-scaling-stroke"/></symbol><symbol id="c" preserveAspectRatio="none" viewBox="0 0 100 100"/></defs><g class="Viewport" color="black"  name="Name: mBDNF and proBDNF regulation of GABA neurotransmission Organism: Homo sapiens"><rect class="Icon" width="1202.9" height="851.43" fill="#fff" stroke="#000" stroke-width="0"/><g id="i" class="Interaction" color="#000" ><g color="#000" fill="transparent"  filter="url(#a)" stroke="#000" stroke-dasharray="67.45918367346985, 7"><path class="EdgeBody" d="m321.97 705.45 74.459-1e-13"   marker-end="url(#d)" /></g></g><g id="j" class="DirectedInteraction" color="#000" ><g color="#000" fill="transparent"  filter="url(#a)" stroke="#000" stroke-dasharray="524.3806288738652, 5.8"><path class="EdgeBody" d="m1034.1 500.97v204.48h-325.7"   marker-end="url(#b)" /></g></g><g id="k" class="DirectedInteraction" color="#000" ><g color="#000" fill="transparent"  filter="url(#a)" stroke="#000" stroke-dasharray="147.05714285714285, 5.8"><path class="EdgeBody" d="m125.5 171.64v152.86"   marker-end="url(#b)" /></g></g><g id="l" class="DirectedInteraction" color="#000" ><g color="#000" fill="transparent"  filter="url(#a)" stroke="#000" stroke-dasharray="516.9316492820283, 5.8"><path class="EdgeBody" d="m939.64 413.93v291.52h-231.21"   marker-end="url(#b)" /></g></g><g id="m" class="DirectedInteraction" color="#000" ><g color="#000" fill="transparent"  filter="url(#a)" stroke="#000" stroke-dasharray="140.36022071059853, 5.8"><path class="EdgeBody" d="m288.47 546.79 3e-14 146.16"   marker-end="url(#b)" /></g></g><g id="n" class="Interaction" color="#000" ><g color="#000" fill="transparent"  filter="url(#a)" stroke="#000" stroke-dasharray="90.28571428571446, 1"><path class="EdgeBody" d="m938.35 58.918v91.286"   marker-end="url(#e)" /></g></g><g id="o" class="DirectedInteraction" color="#000" ><g color="#000" fill="transparent"  filter="url(#a)" stroke="#000" stroke-dasharray="324.7127551020412, 5.8"><path class="EdgeBody" d="m923.73 175.2v140.51h-152.5v37.5"   marker-end="url(#b)" /></g></g><g id="p" class="DirectedInteraction" color="#000" ><g color="#000" fill="transparent"  filter="url(#a)" stroke="#000" stroke-dasharray="61.50612244897896, 5.8"><path class="EdgeBody" d="m618.43 705.45h-67.306"   marker-end="url(#b)" /></g></g><g id="q" class="DirectedInteraction" color="#000" ><g color="#000" fill="transparent"  filter="url(#a)" stroke="#000" stroke-dasharray="351.29438775510374, 5.8"><path class="EdgeBody" d="m923.73 175.2v140.51h-83.472v133.11"   marker-end="url(#b)" /></g></g><g id="r" class="Interaction" color="#000" ><g color="#000" fill="transparent"  filter="url(#a)" stroke="#000" stroke-dasharray="67.85714285714286, 1"><path class="EdgeBody" d="m288.47 77.5v68.857"   marker-end="url(#e)" /></g></g><g id="s" class="DirectedInteraction" color="#000" ><g color="#000" fill="transparent"  filter="url(#a)" stroke="#000" stroke-dasharray="305.7220742833072, 5.8"><path class="EdgeBody" d="m952.98 175.2 81.156 300.77"   marker-end="url(#b)" /></g></g><g id="t" class="DirectedInteraction" color="#000" ><g color="#000" fill="transparent"  filter="url(#a)" stroke="#000" stroke-dasharray="72.14427166784397, 5.8"><path class="EdgeBody" d="m288.47 443.84v77.944"   marker-end="url(#b)" /></g></g><g id="u" class="DirectedInteraction" color="#000" ><g color="#000" fill="transparent"  filter="url(#a)" stroke="#000" stroke-dasharray="357.64593499631286, 5.8"><path class="EdgeBody" d="m840.26 473.83v231.62h-131.83"   marker-end="url(#b)" /></g></g><g id="v" class="DirectedInteraction" color="#000" ><g color="#000" fill="transparent"  filter="url(#a)" stroke="#000" stroke-dasharray="241.68429976072784, 5.8"><path class="EdgeBody" d="m288.47 171.36-3e-14 247.48"   marker-end="url(#b)" /></g></g><g id="w" class="DirectedInteraction" color="#000" ><g color="#000" fill="transparent"  filter="url(#a)" stroke="#000" stroke-dasharray="5.02, 3.01, 5.02, 3.01, 5.02, 3.01, 5.02, 3.01, 5.02, 3.01, 5.02, 3.01, 5.02, 3.01, 5.02, 3.01, 5.02, 3.01, 5.02, 3.01, 5.02, 3.01, 5.02, 3.01, 5.02, 3.01, 5.02, 3.01, 5.02, 3.01, 5.02, 3.01, 5.02, 3.01, 5.02, 3.01, 5.02, 3.01, 5.02, 3.01, 5.02, 3.01, 5.02, 3.01, 5.02, 3.01, 5.02, 3.01, 5.02, 5.8"><path class="EdgeBody" d="m273.84 171.36v9.9184c0 9.9184 0 29.755-21.391 39.673-21.391 9.9184-64.172 9.9184-85.563 0.047619-21.391-9.8707-21.391-29.612-21.391-39.483v-9.8707"   marker-end="url(#b)" /></g></g><g id="x" class="DirectedInteraction" color="#000" ><g color="#000" fill="transparent"  filter="url(#a)" stroke="#000" stroke-dasharray="5.01, 3, 5.01, 3, 5.01, 3, 5.01, 3, 5.01, 3, 5.01, 3, 5.01, 3, 5.01, 3, 5.01, 3, 5.01, 3, 5.01, 3, 5.01, 3, 5.01, 3, 5.01, 3, 5.01, 3, 5.01, 3, 5.01, 3, 0, 5.8"><path class="EdgeBody" d="m952.98 175.2-1e-13 4.3707c1e-13 4.3707 1e-13 13.112 18.104 17.483 18.104 4.3707 54.312 4.3707 72.417-0.5s18.104-14.612 18.104-19.483v-4.8707"   marker-end="url(#b)" /></g></g><g id="y" class="DirectedInteraction" color="#000" ><g color="#000" fill="transparent"  filter="url(#a)" stroke="#000" stroke-dasharray="255.485714285715, 5.8"><path class="EdgeBody" d="m399.93 454.21v92.071h169.21"   marker-end="url(#b)" /></g></g><g id="z" class="DirectedInteraction" color="#000" ><g color="#000" fill="transparent"  filter="url(#a)" stroke="#000" stroke-dasharray="307.8913265306124, 5.8"><path class="EdgeBody" d="m303.09 171.36v162.93h96.834v53.929"   marker-end="url(#b)" /></g></g><g id="aa" class="Interaction" color="#000" ><g color="#000" fill="transparent"  filter="url(#a)" stroke="#000" stroke-dasharray="39.00344549473694, 7"><path class="EdgeBody" d="m600.71 533.79 0.56303-46"   marker-end="url(#d)" /></g></g><g id="ab" class="DirectedInteraction" color="#000" ><g color="#000" fill="transparent"  filter="url(#a)" stroke="#000" stroke-dasharray="152.22701080432103, 5.8"><path class="EdgeBody" d="m771.22 378.21v60.071h-97.956"   marker-end="url(#b)" /></g></g><g id="ac" class="DirectedInteraction" color="#000" ><g color="#000" fill="transparent"  filter="url(#a)" stroke="#000" stroke-dasharray="89.20020525215787, 5.8"><path class="EdgeBody" d="m601.27 388.79-0.19748-95"   marker-end="url(#b)" /></g></g><g class="SingleFreeNode Shape PhysicalEntity CellularComponent Nucleus" transform="translate(211.36 615.64)" color="#c0c0c0"  name="Nucleus"><g fill="transparent"  filter="url(#f)" stroke="#c0c0c0" stroke-width="3"><use class="Icon" transform="matrix(.97781 0 0 .93935 5.8668 5.6361)" width="528.7142857142858" height="185.85714285714272"    xlink:href="#h"/></g><text class="Text" transform="translate(264.36 175.26)" fill="#c0c0c0"  font-size="12px" stroke="black" stroke-width="0" text-anchor="middle"><tspan x="0" y="0">Nucleus</tspan></text></g><g class="SingleFreeNode Shape PhysicalEntity CellularComponent Cell" transform="translate(21.357 158.5)" color="#c0c0c0"  name="Neuron"><g fill="transparent"  filter="url(#f)" stroke="#c0c0c0" stroke-width="3"><rect class="Icon" transform="matrix(.9897 0 0 .98226 5.9382 5.8936)" width="1153" height="664.43" rx="15" ry="15"   /></g><text class="Text" transform="translate(576.5 653.83)" fill="#c0c0c0"  font-size="12px" stroke="black" stroke-width="0" text-anchor="middle"><tspan x="0" y="0">Neuron</tspan></text></g><g class="Label" transform="translate(30,239.5)" color="#000"  name="Endocytosis?"><use class="Icon" width="101" height="25" fill="transparent"  stroke="#000" stroke-width="0" xlink:href="#c"/><text class="Text" transform="translate(50.5,16.5)"   font-size="12px" font-weight="bold"  text-anchor="middle"><tspan x="0" y="0">Endocytosis?</tspan></text></g><g class="Label" transform="translate(396.43 692.95)" color="#000"  name="GABA gene expression"><use class="Icon" width="154.69387755102005" height="25" fill="transparent"  stroke="#000" stroke-width="0" xlink:href="#c"/><text class="Text" transform="translate(77.347 16.5)"   font-size="12px" font-weight="bold"  text-anchor="middle"><tspan x="0" y="0">GABA gene expression</tspan></text></g><g class="Label" transform="translate(985.1 175.2)" color="#000"  name="?"><use class="Icon" width="42" height="25" fill="transparent"  stroke="#000" stroke-width="0" xlink:href="#c"/><text class="Text" transform="translate(21,16.5)" direction="neutral"   font-size="12px" font-weight="bold"  text-anchor="middle"><tspan x="0" y="0">?</tspan></text></g><a  class="GeneProduct PLCG1 " transform="translate(905.71 388.93)"   name="PLCG1"  ><rect class="Icon" transform="matrix(.98548 0 0 .96154 .49274 .48077)" width="67.857" height="25" fill="#fff" stroke="#000"/><text class="Text" transform="translate(33.929 16.5)"   font-size="12px"  text-anchor="middle"><tspan x="0" y="0">PLCG1</tspan></text></a><a  class="GeneProduct BDNF " transform="translate(252.69 52.5)"   name="proBDNF"  ><rect class="Icon" transform="matrix(.98622 0 0 .96154 .49311 .48077)" width="71.551" height="25" fill="#fff" stroke="#000"/><text class="Text" transform="translate(35.776 16.5)"   font-size="12px"  text-anchor="middle"><tspan x="0" y="0">proBDNF</tspan></text></a><a  class="GeneProduct CREM " transform="translate(254.97 692.95)"   name="CREM"  ><rect class="Icon" transform="matrix(.98529 0 0 .96154 .49265 .48077)" width="67" height="25" fill="#fff" stroke="#000"/><text class="Text" transform="translate(33.5,16.5)"   font-size="12px"  text-anchor="middle"><tspan x="0" y="0">CREM</tspan></text></a><a  class="GeneProduct CREB1 " transform="translate(618.43 692.95)"   name="CREB1"  ><rect class="Icon" transform="matrix(.98901 0 0 .96154 .49451 .48077)" width="90" height="25" fill="#fff" stroke="#000"/><text class="Text" transform="translate(45,16.5)"   font-size="12px"  text-anchor="middle"><tspan x="0" y="0">CREB1</tspan></text></a><g class="GeneProduct" transform="translate(737.24 353.21)" color="#000"  name="PKC"><rect class="Icon" transform="matrix(.9855 0 0 .96154 .49275 .48077)" width="67.959" height="25" fill="#fff" stroke="#000"/><text class="Text" transform="translate(33.98 16.5)"   font-size="12px"  text-anchor="middle"><tspan x="0" y="0">PKC</tspan></text></g><a  class="GeneProduct STAT3 " transform="translate(253.83 521.79)"   name="STAT3"  ><rect class="Icon" transform="matrix(.98577 0 0 .96154 .49289 .48077)" width="69.286" height="25" fill="#fff" stroke="#000"/><text class="Text" transform="translate(34.643 16.5)"   font-size="12px"  text-anchor="middle"><tspan x="0" y="0">STAT3</tspan></text></a><a class="WikiPathways_WP382 Pathway " transform="translate(1001.4 475.97)" color="#14961e"  name="MAPK"  ><rect class="Icon" transform="matrix(.98494 0 0 .96154 .49247 .48077)" width="65.408" height="25" fill="#fff" stroke="#14961e"/><text class="Text" transform="translate(32.704 16.5)" fill="#14961e"  font-size="12px" font-weight="bold" stroke="black" stroke-width="0" text-anchor="middle"><tspan x="0" y="0">MAPK</tspan></text></a><g class="GroupGroup" transform="translate(363.43 388.21)" color="grey" ><use class="Icon" width="73" height="66" fill="transparent"  stroke="grey" stroke-dasharray="5,3" stroke-width="0" xlink:href="#c"/><a  class="GeneProduct RHOA " transform="translate(8,8)"   name="RHOA"  ><rect class="Icon" transform="matrix(.98276 0 0 .96154 .49138 .48077)" width="57" height="25" fill="#fff" stroke="#000"/><text class="Text" transform="translate(28.5,16.5)"   font-size="12px"  text-anchor="middle"><tspan x="0" y="0">RHOA</tspan></text></a><a  class="GeneProduct ROCK1 " transform="translate(8,33)"   name="ROCK1"  ><rect class="Icon" transform="matrix(.98276 0 0 .96154 .49138 .48077)" width="57" height="25" fill="#fff" stroke="#000"/><text class="Text" transform="translate(28.5,16.5)"   font-size="12px"  text-anchor="middle"><tspan x="0" y="0">ROCK1</tspan></text></a></g><g class="GroupComplex" transform="translate(453.71 68.786)" color="grey" ><use class="Icon" transform="matrix(.99662 0 0 .99558 .49831 .49779)" width="294.71428571428595" height="224.99999999999983" fill="#b4b464" fill-opacity=".1" stroke="grey" xlink:href="#g"/><a  class="GeneProduct GABRA1 " transform="translate(12,12)"   name="GABRA1"  ><rect class="Icon" transform="matrix(.98548 0 0 .96154 .49274 .48077)" width="67.857" height="25" fill="#fff" stroke="#000"/><text class="Text" transform="translate(33.929 16.5)"   font-size="12px"  text-anchor="middle"><tspan x="0" y="0">GABRA1</tspan></text></a><a  class="GeneProduct AP2A1 " transform="translate(82.143 138)"   name="AP2A1"  ><rect class="Icon" transform="matrix(.98113 0 0 .96154 .49057 .48077)" width="52" height="25" fill="#fff" stroke="#000"/><text class="Text" transform="translate(26,16.5)"   font-size="12px"  text-anchor="middle"><tspan x="0" y="0">AP2A1</tspan></text></a><a  class="GeneProduct AP2A2 " transform="translate(82.143 163)"   name="AP2A2"  ><rect class="Icon" transform="matrix(.98113 0 0 .96154 .49057 .48077)" width="52" height="25" fill="#fff" stroke="#000"/><text class="Text" transform="translate(26,16.5)"   font-size="12px"  text-anchor="middle"><tspan x="0" y="0">AP2A2</tspan></text></a><a  class="GeneProduct AP2B1 " transform="translate(82.143 188)"   name="AP2B1"  ><rect class="Icon" transform="matrix(.98113 0 0 .96154 .49057 .48077)" width="52" height="25" fill="#fff" stroke="#000"/><text class="Text" transform="translate(26,16.5)"   font-size="12px"  text-anchor="middle"><tspan x="0" y="0">AP2B1</tspan></text></a><a  class="GeneProduct GABRA2 " transform="translate(12 37)"   name="GABRA2"  ><rect class="Icon" transform="matrix(.98548 0 0 .96154 .49274 .48077)" width="67.857" height="25" fill="#fff" stroke="#000"/><text class="Text" transform="translate(33.929 16.5)"   font-size="12px"  text-anchor="middle"><tspan x="0" y="0">GABRA2</tspan></text></a><a  class="GeneProduct GABRA3 " transform="translate(12 62)"   name="GABRA3"  ><rect class="Icon" transform="matrix(.98548 0 0 .96154 .49274 .48077)" width="67.857" height="25" fill="#fff" stroke="#000"/><text class="Text" transform="translate(33.929 16.5)"   font-size="12px"  text-anchor="middle"><tspan x="0" y="0">GABRA3</tspan></text></a><a  class="GeneProduct GABRA4 " transform="translate(12 87)"   name="GABRA4"  ><rect class="Icon" transform="matrix(.98548 0 0 .96154 .49274 .48077)" width="67.857" height="25" fill="#fff" stroke="#000"/><text class="Text" transform="translate(33.929 16.5)"   font-size="12px"  text-anchor="middle"><tspan x="0" y="0">GABRA4</tspan></text></a><a  class="GeneProduct GABRA5 " transform="translate(12 112)"   name="GABRA5"  ><rect class="Icon" transform="matrix(.98548 0 0 .96154 .49274 .48077)" width="67.857" height="25" fill="#fff" stroke="#000"/><text class="Text" transform="translate(33.929 16.5)"   font-size="12px"  text-anchor="middle"><tspan x="0" y="0">GABRA5</tspan></text></a><a  class="GeneProduct GABRA6 " transform="translate(12 137)"   name="GABRA6"  ><rect class="Icon" transform="matrix(.98548 0 0 .96154 .49274 .48077)" width="67.857" height="25" fill="#fff" stroke="#000"/><text class="Text" transform="translate(33.929 16.5)"   font-size="12px"  text-anchor="middle"><tspan x="0" y="0">GABRA6</tspan></text></a><a  class="GeneProduct GABRB1 " transform="translate(79.143 47.714)"   name="GABRB1"  ><rect class="Icon" transform="matrix(.98548 0 0 .96154 .49274 .48077)" width="67.857" height="25" fill="#fff" stroke="#000"/><text class="Text" transform="translate(33.929 16.5)"   font-size="12px"  text-anchor="middle"><tspan x="0" y="0">GABRB1</tspan></text></a><a  class="GeneProduct GABRB2 " transform="translate(79.143 72.714)"   name="GABRB2"  ><rect class="Icon" transform="matrix(.98548 0 0 .96154 .49274 .48077)" width="67.857" height="25" fill="#fff" stroke="#000"/><text class="Text" transform="translate(33.929 16.5)"   font-size="12px"  text-anchor="middle"><tspan x="0" y="0">GABRB2</tspan></text></a><a  class="GeneProduct GABRB3 " transform="translate(79.143 97.714)"   name="GABRB3"  ><rect class="Icon" transform="matrix(.98548 0 0 .96154 .49274 .48077)" width="67.857" height="25" fill="#fff" stroke="#000"/><text class="Text" transform="translate(33.929 16.5)"   font-size="12px"  text-anchor="middle"><tspan x="0" y="0">GABRB3</tspan></text></a><a  class="GeneProduct GABRG1 " transform="translate(146.29 47.714)"   name="GABRG1"  ><rect class="Icon" transform="matrix(.98548 0 0 .96154 .49274 .48077)" width="67.857" height="25" fill="#fff" stroke="#000"/><text class="Text" transform="translate(33.929 16.5)"   font-size="12px"  text-anchor="middle"><tspan x="0" y="0">GABRG1</tspan></text></a><a  class="GeneProduct GABRG2 " transform="translate(146.29 72.714)"   name="GABRG2"  ><rect class="Icon" transform="matrix(.98548 0 0 .96154 .49274 .48077)" width="67.857" height="25" fill="#fff" stroke="#000"/><text class="Text" transform="translate(33.929 16.5)"   font-size="12px"  text-anchor="middle"><tspan x="0" y="0">GABRG2</tspan></text></a><a  class="GeneProduct GABRG3 " transform="translate(146.29 97.714)"   name="GABRG3"  ><rect class="Icon" transform="matrix(.98548 0 0 .96154 .49274 .48077)" width="67.857" height="25" fill="#fff" stroke="#000"/><text class="Text" transform="translate(33.929 16.5)"   font-size="12px"  text-anchor="middle"><tspan x="0" y="0">GABRG3</tspan></text></a><a  class="GeneProduct GABRD " transform="translate(214.86 34.857)"   name="GABRD"  ><rect class="Icon" transform="matrix(.98548 0 0 .96154 .49274 .48077)" width="67.857" height="25" fill="#fff" stroke="#000"/><text class="Text" transform="translate(33.929 16.5)"   font-size="12px"  text-anchor="middle"><tspan x="0" y="0">GABRD</tspan></text></a><a  class="GeneProduct GABRE " transform="translate(214.86 59.857)"   name="GABRE"  ><rect class="Icon" transform="matrix(.98548 0 0 .96154 .49274 .48077)" width="67.857" height="25" fill="#fff" stroke="#000"/><text class="Text" transform="translate(33.929 16.5)"   font-size="12px"  text-anchor="middle"><tspan x="0" y="0">GABRE</tspan></text></a><a  class="GeneProduct GABRP " transform="translate(214.86 84.857)"   name="GABRP"  ><rect class="Icon" transform="matrix(.98548 0 0 .96154 .49274 .48077)" width="67.857" height="25" fill="#fff" stroke="#000"/><text class="Text" transform="translate(33.929 16.5)"   font-size="12px"  text-anchor="middle"><tspan x="0" y="0">GABRP</tspan></text></a><a  class="GeneProduct GABRQ " transform="translate(214.86 109.86)"   name="GABRQ"  ><rect class="Icon" transform="matrix(.98548 0 0 .96154 .49274 .48077)" width="67.857" height="25" fill="#fff" stroke="#000"/><text class="Text" transform="translate(33.929 16.5)"   font-size="12px"  text-anchor="middle"><tspan x="0" y="0">GABRQ</tspan></text></a></g><a  class="GeneProduct SLC12A5 " transform="translate(85.5 146.64)"   name="SLC12A5"  ><rect class="Icon" transform="matrix(.98765 0 0 .96154 .49383 .48077)" width="80" height="25" fill="#fff" stroke="#000"/><text class="Text" transform="translate(40,16.5)"   font-size="12px"  text-anchor="middle"><tspan x="0" y="0">SLC12A5</tspan></text></a><a  class="GeneProduct NTRK2 " transform="translate(909.1 150.2)"   name="NTRK2"  ><rect class="Icon" transform="matrix(.98319 0 0 .96154 .4916 .48077)" width="58.5" height="25" fill="#fff" stroke="#000"/><text class="Text" transform="translate(29.25,16.5)"   font-size="12px"  text-anchor="middle"><tspan x="0" y="0">NTRK2</tspan></text></a><a  class="GeneProduct NGFR " transform="translate(259.22 146.36)"   name="NGFR"  ><rect class="Icon" transform="matrix(.98319 0 0 .96154 .4916 .48077)" width="58.5" height="25" fill="#fff" stroke="#000"/><text class="Text" transform="translate(29.25,16.5)"   font-size="12px"  text-anchor="middle"><tspan x="0" y="0">NGFR</tspan></text></a><a  class="GeneProduct PTEN " transform="translate(569.14 533.79)"   name="PTEN"  ><rect class="Icon" transform="matrix(.98441 0 0 .96154 .4922 .48077)" width="63.126" height="25" fill="#fff" stroke="#000"/><text class="Text" transform="translate(31.563 16.5)"   font-size="12px"  text-anchor="middle"><tspan x="0" y="0">PTEN</tspan></text></a><g class="GroupComplex" transform="translate(529.27 388.79)" color="grey" ><use class="Icon" transform="matrix(.9931 0 0 .99 .49655 .495)" width="144.0000000000001" height="98.99999999999994" fill="#b4b464" fill-opacity=".1" stroke="grey" xlink:href="#g"/><a  class="GeneProduct PIK3CA " transform="translate(12,12)"   name="PIK3CA"  ><rect class="Icon" transform="matrix(.98361 0 0 .96154 .4918 .48077)" width="60" height="25" fill="#fff" stroke="#000"/><text class="Text" transform="translate(30,16.5)"   font-size="12px"  text-anchor="middle"><tspan x="0" y="0">PIK3CA</tspan></text></a><a  class="GeneProduct PIK3CB " transform="translate(12,37)"   name="PIK3CB"  ><rect class="Icon" transform="matrix(.98361 0 0 .96154 .4918 .48077)" width="60" height="25" fill="#fff" stroke="#000"/><text class="Text" transform="translate(30,16.5)"   font-size="12px"  text-anchor="middle"><tspan x="0" y="0">PIK3CB</tspan></text></a><a  class="GeneProduct PIK3R1 " transform="translate(72 12)"   name="PIK3R1"  ><rect class="Icon" transform="matrix(.98361 0 0 .96154 .4918 .48077)" width="60" height="25" fill="#fff" stroke="#000"/><text class="Text" transform="translate(30,16.5)"   font-size="12px"  text-anchor="middle"><tspan x="0" y="0">PIK3R1</tspan></text></a><a  class="GeneProduct PIK3R2 " transform="translate(72 37)"   name="PIK3R2"  ><rect class="Icon" transform="matrix(.98361 0 0 .96154 .4918 .48077)" width="60" height="25" fill="#fff" stroke="#000"/><text class="Text" transform="translate(30,16.5)"   font-size="12px"  text-anchor="middle"><tspan x="0" y="0">PIK3R2</tspan></text></a><a  class="GeneProduct PIK3R3 " transform="translate(72 62)"   name="PIK3R3"  ><rect class="Icon" transform="matrix(.98361 0 0 .96154 .4918 .48077)" width="60" height="25" fill="#fff" stroke="#000"/><text class="Text" transform="translate(30,16.5)"   font-size="12px"  text-anchor="middle"><tspan x="0" y="0">PIK3R3</tspan></text></a><a  class="GeneProduct PIK3CG " transform="translate(12 62)"   name="PIK3CG"  ><rect class="Icon" transform="matrix(.98361 0 0 .96154 .4918 .48077)" width="60" height="25" fill="#fff" stroke="#000"/><text class="Text" transform="translate(30,16.5)"   font-size="12px"  text-anchor="middle"><tspan x="0" y="0">PIK3CG</tspan></text></a></g><a  class="GeneProduct SLC12A5 " transform="translate(85.5,324.5)"   name="SLC12A5"  ><rect class="Icon" transform="matrix(.98765 0 0 .96154 .49383 .48077)" width="80" height="25" fill="#fff" stroke="#000"/><text class="Text" transform="translate(40,16.5)"   font-size="12px"  text-anchor="middle"><tspan x="0" y="0">SLC12A5</tspan></text></a><a  class="GeneProduct BDNF " transform="translate(909.1 33.918)"   name="mBDNF"  ><rect class="Icon" transform="matrix(.98319 0 0 .96154 .4916 .48077)" width="58.5" height="25" fill="#fff" stroke="#000"/><text class="Text" transform="translate(29.25,16.5)"   font-size="12px"  text-anchor="middle"><tspan x="0" y="0">mBDNF</tspan></text></a><a  class="GeneProduct SLC12A5 " transform="translate(1041.6 147.2)"   name="SLC12A5"  ><rect class="Icon" transform="matrix(.98765 0 0 .96154 .49383 .48077)" width="80" height="25" fill="#fff" stroke="#000"/><text class="Text" transform="translate(40,16.5)"   font-size="12px"  text-anchor="middle"><tspan x="0" y="0">SLC12A5</tspan></text></a><a  class="GeneProduct JAK2 " transform="translate(258.47 418.84)"   name="JAK2"  ><rect class="Icon" transform="matrix(.98361 0 0 .96154 .4918 .48077)" width="60" height="25" fill="#fff" stroke="#000"/><text class="Text" transform="translate(30,16.5)"   font-size="12px"  text-anchor="middle"><tspan x="0" y="0">JAK2</tspan></text></a><g class="Label" transform="translate(190.05 202.31)" color="#000"  name="?"><use class="Icon" width="41.51020408163242" height="25" fill="transparent"  stroke="#000" stroke-width="0" xlink:href="#c"/><text class="Text" transform="translate(20.755 16.5)" direction="neutral"   font-size="12px" font-weight="bold"  text-anchor="middle"><tspan x="0" y="0">?</tspan></text></g><a  class="GeneProduct SHC1 " transform="translate(804.29 448.83)"   name="SHC1"  ><rect class="Icon" transform="matrix(.98629 0 0 .96154 .49314 .48077)" width="71.939" height="25" fill="#fff" stroke="#000"/><text class="Text" transform="translate(35.969 16.5)"   font-size="12px"  text-anchor="middle"><tspan x="0" y="0">SHC1</tspan></text></a><g id="ad" class="DirectedInteraction" color="#000" ><g color="#000" fill="transparent"  filter="url(#a)" stroke="#000" stroke-dasharray="207.92838778532527, 5.8"><path class="EdgeBody" d="m938.35 175.2 1.2908 213.72"   marker-end="url(#b)" /></g></g><text class="Text" transform="translate(5,27)" dominant-baseline="central" fill="black"  font-size="12px" font-weight="bold" overflow="visible" ><tspan x="0" y="-9">Name: mBDNF and proBDNF regulation of GABA neurotransmission</tspan> <tspan x="0" y="9">Organism: Homo sapiens</tspan></text></g></svg>
