<?xml version="1.0" encoding="UTF-8"?>
<!--
  WikiPathways page: https://www.wikipathways.org/index.php/Pathway:WP4860
  URL for this compressed file: https://github.com/eweitz/cachome/tree/main/data/wikipathways/WP4860.svg
  Source code for compression: https://github.com/eweitz/cachome/tree/main/src/wikipathways.py
-->
<svg class="Diagram" width="800" height="600" color="black" baseProfile="full" prefix="schema:http://schema.org/" preserveAspectRatio="xMidYMid" version="1.1" viewBox="0 0 359.64 259.65" vocab="http://vocabularies.wikipathways.org/wp#" xmlns="http://www.w3.org/2000/svg" xmlns:xlink="http://www.w3.org/1999/xlink"><style>svg {font-family: 'Liberation Sans', Arial, sans-serif; }</style><defs><filter id="c" x="0" y="0" width="359.64" height="259.65" filterUnits="userSpaceOnUse"><feColorMatrix in="SourceGraphic" values="-1   0   0 0 0                   0  -1   0 0 0                   0   0  -1 0 0                   0   0   0 1 0"/></filter><filter id="g" x="0" y="0" width="359.64" height="259.65" filterUnits="userSpaceOnUse"><feColorMatrix in="SourceGraphic" values="-1   0   0 0 0.9215686274509803                   0  -1   0 0 0                   0   0  -1 0 0                   0   0   0 1 0"/></filter><marker id="b" stroke-dasharray="99999" markerHeight="12" markerUnits="userSpaceOnUse" markerWidth="12" orient="auto" preserveAspectRatio="none" refX="12" refY="6" viewBox="0 0 12 12"><path transform="rotate(180 6 6)" d="M12 11L0 6l12-5z" fill="currentColor" stroke-width="0"/></marker><marker id="f" stroke-dasharray="99999" markerHeight="20" markerUnits="userSpaceOnUse" markerWidth="10" orient="auto" preserveAspectRatio="none" refX="10" refY="10" viewBox="0 0 10 20"><path d="m3 0v20" fill="currentColor" stroke="currentColor"/></marker><symbol id="a" overflow="visible" preserveAspectRatio="none" viewBox="0 0 50 50"><ellipse cx="25" cy="25" rx="25" ry="25" stroke="currentColor" vector-effect="non-scaling-stroke"/></symbol><symbol id="e" overflow="visible" preserveAspectRatio="none" viewBox="0 0 100 100"><path d="M0 25L25 0h50l25 25v50l-25 25H25L0 75z" stroke="currentColor" vector-effect="non-scaling-stroke"/></symbol><symbol id="d" preserveAspectRatio="none" viewBox="0 0 100 100"/></defs><g class="Viewport" color="black"  name="Name: Hijack of ubiquitination by SARS-CoV-2 Organism: Homo sapiens"><rect class="Icon" width="359.64" height="259.65" fill="#fff" stroke="#000" stroke-width="0"/><g id="h" class="DirectedInteraction" color="#000" ><g color="#000" fill="transparent"  filter="url(#c)" stroke="#000" stroke-dasharray="5.29, 3.17, 5.29, 3.17, 5.29, 3.17, 5.29, 3.17, 5.29, 3.17, 5.29, 3.17, 5.29, 5.8"><path class="EdgeBody" d="m248.71 185.88-61.82-0.87345"   marker-end="url(#b)" /></g></g><g id="i" class="DirectedInteraction" color="#000" ><g color="#000" fill="transparent"  filter="url(#c)" stroke="#000" stroke-dasharray="35.169284281918706, 5.8"><path class="EdgeBody" d="m113.18 110.06 0.049808-40.969"   marker-end="url(#b)" /></g></g><g id="j" class="DirectedInteraction" color="#000" ><g color="#000" fill="transparent"  filter="url(#c)" stroke="#000" stroke-dasharray="5.56, 3.33, 5.56, 3.33, 5.56, 3.33, 5.56, 3.33, 5.56, 3.33, 5.56, 3.33, 5.56, 5.8"><path class="EdgeBody" d="m170.86 100.98v-3.2795c0-3.2795 0-9.8384-6.5523-13.118-6.5523-3.2795-19.657-3.2795-26.209 0.013512-6.5523 3.293-6.5523 9.879-6.5523 13.172v3.293"   marker-end="url(#b)" /></g></g><g id="k" class="Interaction" color="#eb0000" ><g color="#eb0000" fill="transparent"  filter="url(#g)" stroke="#000" stroke-dasharray="29.02070761875406, 7"><path class="EdgeBody" d="m285.31 112.86-0.096736 36.021"   marker-end="url(#f)" /></g></g><g class="GroupComplex" transform="translate(18.363 92.323)" color="grey" ><use class="Icon" transform="matrix(.99528 0 0 .99235 .49764 .49617)" width="210.83826149385828" height="129.6837606837605" fill="#b4b464" fill-opacity=".1" stroke="grey" xlink:href="#e"/><a  class="Protein " transform="translate(12,12)"   name="Orf10"  ><use class="Icon" transform="matrix(.98214 0 0 .96774 .49107 .48387)" width="55" height="30" fill="#ffcccc" stroke="#000" xlink:href="#a"/><text class="Text" transform="translate(27.5,19)"   font-size="14px" font-weight="bold"  text-anchor="middle"><tspan x="0" y="0">Orf10</tspan></text></a><a  class="GeneProduct CUL2 " transform="translate(104.53 67.684)"   name="CUL2"  ><rect class="Icon" transform="matrix(.98214 0 0 .96154 .49107 .48077)" width="55" height="25" fill="#fff" stroke="#000"/><g class="Burr State" transform="translate(46,16)" color="#000"  name="N8"><use class="Icon" transform="matrix(.94737 0 0 .94737 .47368 .47368)" width="18" height="18" fill="#fff" stroke="#000" xlink:href="#a"/><text class="Text" transform="translate(9,12)"   font-size="10px"  text-anchor="middle"><tspan x="0" y="0">N8</tspan></text></g><text class="Text" transform="translate(27.5,16.5)"   font-size="12px"  text-anchor="middle"><tspan x="0" y="0">CUL2</tspan></text></a><a  class="GeneProduct ELOC " transform="translate(49.529 67.684)"   name="ELOC"  ><rect class="Icon" transform="matrix(.98214 0 0 .96154 .49107 .48077)" width="55" height="25" fill="#fff" stroke="#000"/><text class="Text" transform="translate(27.5,16.5)"   font-size="12px"  text-anchor="middle"><tspan x="0" y="0">ELOC</tspan></text></a><a  class="GeneProduct ELOB " transform="translate(34.378 92.684)"   name="ELOB"  ><rect class="Icon" transform="matrix(.98214 0 0 .96154 .49107 .48077)" width="55" height="25" fill="#fff" stroke="#000"/><text class="Text" transform="translate(27.5,16.5)"   font-size="12px"  text-anchor="middle"><tspan x="0" y="0">ELOB</tspan></text></a><a  class="GeneProduct RBX1 " transform="translate(127.77 42.654)"   name="RBX1"  ><rect class="Icon" transform="matrix(.98214 0 0 .96154 .49107 .48077)" width="55" height="25" fill="#fff" stroke="#000"/><text class="Text" transform="translate(27.5,16.5)"   font-size="12px"  text-anchor="middle"><tspan x="0" y="0">RBX1</tspan></text></a><a  class="GeneProduct CBFB " transform="translate(143.84 17.654)"   name="E2"  ><rect class="Icon" transform="matrix(.98214 0 0 .96154 .49107 .48077)" width="55" height="25" fill="#fff" stroke="#000"/><g class="Burr State" transform="translate(-.34199 -9)" color="#000"  name="Ub"><use class="Icon" transform="matrix(.94737 0 0 .94737 .47368 .47368)" width="18" height="18" fill="#fff" stroke="#000" xlink:href="#a"/><text class="Text" transform="translate(9,12)"   font-size="10px"  text-anchor="middle"><tspan x="0" y="0">Ub</tspan></text></g><text class="Text" transform="translate(27.5,16.5)"   font-size="12px"  text-anchor="middle"><tspan x="0" y="0">E2</tspan></text></a><a  class="GeneProduct ZYG11B " transform="translate(32.077 42.684)"   name="ZYG11B"  ><rect class="Icon" transform="matrix(.98214 0 0 .96154 .49107 .48077)" width="55" height="25" fill="#fff" stroke="#000"/><text class="Text" transform="translate(27.5,16.5)"   font-size="12px"  text-anchor="middle"><tspan x="0" y="0">ZYG11B</tspan></text></a></g><g class="GroupComplex" transform="translate(245.71 148.88)" color="grey" ><use class="Icon" transform="matrix(.9875 0 0 .98667 .49375 .49333)" width="79.00000000000011" height="74.00000000000003" fill="#b4b464" fill-opacity=".1" stroke="grey" xlink:href="#e"/><a  class="GeneProduct NAE1 " transform="translate(12,12)"   name="NAE1"  ><rect class="Icon" transform="matrix(.98214 0 0 .96154 .49107 .48077)" width="55" height="25" fill="#fff" stroke="#000"/><text class="Text" transform="translate(27.5,16.5)"   font-size="12px"  text-anchor="middle"><tspan x="0" y="0">NAE1</tspan></text></a><a  class="GeneProduct UBA3 " transform="translate(12 37)"   name="UBA3"  ><rect class="Icon" transform="matrix(.98214 0 0 .96154 .49107 .48077)" width="55" height="25" fill="#fff" stroke="#000"/><g class="Burr State" transform="translate(-9 -9)" color="#000"  name="N8"><use class="Icon" transform="matrix(.94737 0 0 .94737 .47368 .47368)" width="18" height="18" fill="#fff" stroke="#000" xlink:href="#a"/><text class="Text" transform="translate(9,12)"   font-size="10px"  text-anchor="middle"><tspan x="0" y="0">N8</tspan></text></g><text class="Text" transform="translate(27.5,16.5)"   font-size="12px"  text-anchor="middle"><tspan x="0" y="0">UBA3</tspan></text></a></g><a class="Metabolite ChEBI_CHEBI_95028 " transform="translate(240.97 92.859)" color="#00f"  name="pevonedistat"  ><rect class="Icon" transform="matrix(.98885 0 0 .95238 .49442 .47619)" width="88.669" height="20" rx="15" ry="15" fill="#fff" stroke="#00f"/><text class="Text" transform="translate(44.334 14)" fill="#00f"  font-size="12px"  text-anchor="middle"><tspan x="0" y="0">pevonedistat</tspan></text></a><a class="WikiPathways_WP183 Pathway " transform="translate(27.022 44.089)" color="#14961e"  name="Proteasome Degradation"  ><rect class="Icon" transform="matrix(.99423 0 0 .96154 .49712 .48077)" width="172.42" height="25" rx="15" ry="15" fill="#fff" stroke="#14961e"/><text class="Text" transform="translate(86.212 15.5)" fill="#14961e"  font-size="11px" font-weight="bold" stroke="black" stroke-width="0" text-anchor="middle"><tspan x="0" y="0">Proteasome Degradation</tspan></text></a><g class="GeneProduct" transform="translate(85.684 110.06)" color="#666666"  name="Substrate"><rect class="Icon" transform="matrix(.98214 0 0 .96154 .49107 .48077)" width="55" height="25" fill="#fff" stroke="#666"/><g class="Burr State" transform="translate(36.861 -9)" color="#000"  name="Ub"><use class="Icon" transform="matrix(.94737 0 0 .94737 .47368 .47368)" width="18" height="18" fill="#fff" stroke="#000" xlink:href="#a"/><text class="Text" transform="translate(9,12)"   font-size="10px"  text-anchor="middle"><tspan x="0" y="0">Ub</tspan></text></g><text class="Text" transform="translate(27.5,15.5)" fill="#666666"  font-size="11px" font-style="italic"  text-anchor="middle"><tspan x="0" y="0">Substrate</tspan></text></g><g class="Label" transform="translate(259.43 143.36)" color="#666666"  name="NAE"><use class="Icon" width="51" height="25" fill="transparent"  stroke="#666666" stroke-width="0" xlink:href="#d"/><text class="Text" transform="translate(25.5,15.5)" fill="#666666"  font-size="10px" font-weight="bold"  text-anchor="middle"><tspan x="0" y="0">NAE</tspan></text></g><g class="Label" transform="translate(78.402 204.65)" color="#666666"  name="CUL2(ZYG11B)"><use class="Icon" width="87.79316493623583" height="25" fill="transparent"  stroke="#666666" stroke-width="0" xlink:href="#d"/><text class="Text" transform="translate(43.897 15.5)" fill="#666666"  font-size="10px" font-weight="bold"  text-anchor="middle"><tspan x="0" y="0">CUL2(ZYG11B)</tspan></text></g><text class="Text" transform="translate(5,27)" dominant-baseline="central" fill="black"  font-size="12px" font-weight="bold" overflow="visible" ><tspan x="0" y="-9">Name: Hijack of ubiquitination by SARS-CoV-2</tspan> <tspan x="0" y="9">Organism: Homo sapiens</tspan></text></g></svg>
