<?xml version="1.0" encoding="UTF-8"?>
<!--
  WikiPathways page: https://www.wikipathways.org/index.php/Pathway:WP4877
  URL for this compressed file: https://github.com/eweitz/cachome/tree/main/data/wikipathways/WP4877.svg
  Source code for compression: https://github.com/eweitz/cachome/tree/main/src/wikipathways.py
-->
<svg class="Diagram" width="800" height="600" color="black" baseProfile="full" prefix="schema:http://schema.org/" preserveAspectRatio="xMidYMid" version="1.1" viewBox="0 0 1110.5 756.84" vocab="http://vocabularies.wikipathways.org/wp#" xmlns="http://www.w3.org/2000/svg" xmlns:xlink="http://www.w3.org/1999/xlink"><style>svg {font-family: 'Liberation Sans', Arial, sans-serif; }</style><defs><filter id="a" x="0" y="0" width="1110.5" height="756.84" filterUnits="userSpaceOnUse"><feColorMatrix in="SourceGraphic" values="-1   0   0 0 0                   0  -1   0 0 0                   0   0  -1 0 0                   0   0   0 1 0"/></filter><marker id="f" stroke-dasharray="99999" markerHeight="20" markerUnits="userSpaceOnUse" markerWidth="10" orient="auto" preserveAspectRatio="none" refX="10" refY="10" viewBox="0 0 10 20"><path d="m3 0v20" fill="currentColor" stroke="currentColor"/></marker><marker id="b" stroke-dasharray="99999" markerHeight="12" markerUnits="userSpaceOnUse" markerWidth="12" orient="auto" preserveAspectRatio="none" refX="12" refY="6" viewBox="0 0 12 12"><g transform="rotate(180 6 6)" fill="none"><path d="m12 6"/><path d="M0 6l11 5V1z" stroke="#000"/></g></marker><marker id="e" stroke-dasharray="99999" markerHeight="24" markerUnits="userSpaceOnUse" markerWidth="20" orient="auto" preserveAspectRatio="none" refX="20" refY="12" viewBox="0 0 20 24"><g transform="rotate(180 10 12)" fill="none" stroke="#000"><path d="M15 12V5M15.5 5H8M0 5l8-4v8z"/></g></marker><symbol id="d" overflow="visible" preserveAspectRatio="none" viewBox="0 0 50 50"><ellipse cx="25" cy="25" rx="25" ry="25" stroke="currentColor" vector-effect="non-scaling-stroke"/></symbol><symbol id="g" overflow="visible" preserveAspectRatio="none" viewBox="0 0 100 100"><path d="M0 25L25 0h50l25 25v50l-25 25H25L0 75z" stroke="currentColor" vector-effect="non-scaling-stroke"/></symbol><symbol id="c" preserveAspectRatio="none" viewBox="0 0 100 100"/></defs><g class="Viewport" color="black"  name="Name: Host-pathogen interaction of human coronaviruses - MAPK signaling Organism: Homo sapiens"><rect class="Icon" width="1110.5" height="756.84" fill="#fff" stroke="#000" stroke-width="0"/><g id="h" class="Interaction" color="#000" ><g color="#000" fill="transparent"  filter="url(#a)" stroke="#000" stroke-dasharray="67.50887250024579, 11"><path class="EdgeBody" d="m522.22 432.27-50.507 60.106"   marker-end="url(#b)" /></g></g><g id="i" class="Interaction" color="#000" ><g color="#000" fill="transparent"  filter="url(#a)" stroke="#000" stroke-dasharray="51.361711322384906, 11"><path class="EdgeBody" d="m890.45 430.63 1e-13 62.362"   marker-end="url(#b)" /></g></g><g id="j" class="Interaction" color="#000" ><g color="#000" fill="transparent"  filter="url(#a)" stroke="#000" stroke-dasharray="281.1957649092498, 7"><path class="EdgeBody" d="m850.45 420.63h-20v86.469h-181.73"   marker-end="url(#f)" /></g></g><g id="k" class="Interaction" color="#000" ><g color="#000" fill="transparent"  filter="url(#a)" stroke="#000" stroke-dasharray="27.771929824561653, 11"><path class="EdgeBody" d="m614.69 657.59h20v-1.2281h17.544"   marker-end="url(#e)" /></g><g class="Burr Anchor" transform="translate(630.2 657.59)" ><use class="Icon" width="0" height="0" fill="#141414" stroke-width="0" xlink:href="#c"/></g></g><g id="l" class="Interaction" color="#000" ><g color="#000" fill="transparent"  filter="url(#a)" stroke="#000" stroke-dasharray="49.85657209028532, 11"><path class="EdgeBody" d="m612.97 433.75-0.94857 60.849"   marker-end="url(#b)" /></g></g><g id="m" class="Interaction" color="#000" ><g color="#000" fill="transparent"  filter="url(#a)" stroke="#000" stroke-dasharray="38.35953125251126, 11"><path class="EdgeBody" d="m838.48 647.68 49.357-0.52632"   marker-end="url(#e)" /></g><g class="Burr Anchor" transform="translate(858.22 647.47)" ><use class="Icon" width="0" height="0" fill="#141414" stroke-width="0" xlink:href="#c"/></g></g><g id="n" class="Interaction" color="#000" ><g color="#000" fill="transparent"  filter="url(#a)" stroke="#000" stroke-dasharray="54.37010203291781, 11"><path class="EdgeBody" d="m994.81 210.35-58.539-29.093"   marker-end="url(#b)" /></g></g><g id="o" class="Interaction" color="#000" ><g color="#000" fill="transparent"  filter="url(#a)" stroke="#000" stroke-dasharray="768.2431572365963, 11"><path class="EdgeBody" d="m149.97 446.22v152.78h601.14v-25.322"   marker-end="url(#b)" /></g></g><g id="p" class="Interaction" color="#000" ><g color="#000" fill="transparent"  filter="url(#a)" stroke="#000" stroke-dasharray="72.1809989940699, 11"><path class="EdgeBody" d="m173.97 446.22 68.359 47.393"   marker-end="url(#b)" /></g></g><g id="q" class="Interaction" color="#000" ><g color="#000" fill="transparent"  filter="url(#a)" stroke="#000" stroke-dasharray="21.115168539325907, 11"><path class="EdgeBody" d="m891.27 136.64v32.115"   marker-end="url(#b)" /></g></g><g id="r" class="Interaction" color="#000" ><g color="#000" fill="transparent"  filter="url(#a)" stroke="#000" stroke-dasharray="73.72845618900793, 11"><path class="EdgeBody" d="m629.19 89.871 69.36 48.664"   marker-end="url(#b)" /></g></g><g id="s" class="Interaction" color="#000" ><g color="#000" fill="transparent"  filter="url(#a)" stroke="#000" stroke-dasharray="31.45095073466004, 11"><path class="EdgeBody" d="m891.27 193.75v42.451"   marker-end="url(#b)" /></g></g><g id="t" class="Interaction" color="#000" ><g color="#000" fill="transparent"  filter="url(#a)" stroke="#000" stroke-dasharray="60.39229854057828, 11"><path class="EdgeBody" d="m994.81 210.35-55.539 44.858"   marker-end="url(#b)" /></g></g><g id="u" class="Interaction" color="#000" ><g color="#000" fill="transparent"  filter="url(#a)" stroke="#000" stroke-dasharray="44.430974909139294, 11"><path class="EdgeBody" d="m982.53 308.87-43.255-34.665"   marker-end="url(#b)" /></g></g><g id="v" class="Interaction" color="#000" ><g color="#000" fill="transparent"  filter="url(#a)" stroke="#000" stroke-dasharray="139.34216958525604, 11"><path class="EdgeBody" d="m738.55 158.54 128.73 77.67"   marker-end="url(#b)" /></g></g><g id="w" class="Interaction" color="#000" ><g color="#000" fill="transparent"  filter="url(#a)" stroke="#000" stroke-dasharray="91.42525968726154, 7"><path class="EdgeBody" d="m891.27 312.2-0.82757 98.422"   marker-end="url(#f)" /></g></g><g id="x" class="Interaction" color="#000" ><g color="#000" fill="transparent"  filter="url(#a)" stroke="#000" stroke-dasharray="118.92329579719544, 11"><path class="EdgeBody" d="m867.27 312.2-91.63 92.109"   marker-end="url(#b)" /></g></g><g id="y" class="Interaction" color="#000" ><g color="#000" fill="transparent"  filter="url(#a)" stroke="#000" stroke-dasharray="169.6856571511795, 11"><path class="EdgeBody" d="m775.65 486.76 82.575 160.71"   marker-end="url(#b)" /></g></g><g id="z" class="Interaction" color="#000" ><g color="#000" fill="transparent"  filter="url(#a)" stroke="#000" stroke-dasharray="44.260232507950164, 11"><path class="EdgeBody" d="m749.61 486.76 1.5059 55.24"   marker-end="url(#b)" /></g></g><g id="aa" class="Interaction" color="#000" ><g color="#000" fill="transparent"  filter="url(#a)" stroke="#000" stroke-dasharray="33.738605838723316, 11"><path class="EdgeBody" d="m413.98 452.89 21.031 39.487"   marker-end="url(#b)" /></g></g><g id="ab" class="Interaction" color="#000" ><g color="#000" fill="transparent"  filter="url(#a)" stroke="#000" stroke-dasharray="65.78054656700775, 11"><path class="EdgeBody" d="m365.98 452.89-65.091 40.723"   marker-end="url(#b)" /></g></g><g id="ac" class="Interaction" color="#000" ><g color="#000" fill="transparent"  filter="url(#a)" stroke="#000" stroke-dasharray="80.84293261857587, 11"><path class="EdgeBody" d="m390.25 129.3 31.824 86.153"   marker-end="url(#b)" /></g></g><g id="ad" class="Interaction" color="#000" ><g color="#000" fill="transparent"  filter="url(#a)" stroke="#000" stroke-dasharray="49.43018418678243, 11"><path class="EdgeBody" d="m156.44 212.05 53.301-28.475"   marker-end="url(#b)" /></g></g><g id="ae" class="Interaction" color="#000" ><g color="#000" fill="transparent"  filter="url(#a)" stroke="#000" stroke-dasharray="41.15829791415168, 11"><path class="EdgeBody" d="m256.01 89.443 1.7286 52.13"   marker-end="url(#b)" /></g></g><g id="af" class="Interaction" color="#000" ><g color="#000" fill="transparent"  filter="url(#a)" stroke="#000" stroke-dasharray="21.38579045527608, 11"><path class="EdgeBody" d="m390.25 129.3 27.788 16.634"   marker-end="url(#b)" /></g></g><g id="ag" class="Interaction" color="#000" ><g color="#000" fill="transparent"  filter="url(#a)" stroke="#000" stroke-dasharray="68.23996649401661, 11"><path class="EdgeBody" d="m581.19 89.871-67.153 42.065"   marker-end="url(#b)" /></g></g><g id="ah" class="Interaction" color="#000" ><g color="#000" fill="transparent"  filter="url(#a)" stroke="#000" stroke-dasharray="87.74078278045694, 11"><path class="EdgeBody" d="m514.04 159.94 36.239 91.85"   marker-end="url(#b)" /></g></g><g id="ai" class="Interaction" color="#000" ><g color="#000" fill="transparent"  filter="url(#a)" stroke="#000" stroke-dasharray="95.66075199314548, 7"><path class="EdgeBody" d="m574.28 323.79-52.059 88.482"   marker-end="url(#f)" /></g></g><g id="aj" class="Interaction" color="#000" ><g color="#000" fill="transparent"  filter="url(#a)" stroke="#000" stroke-dasharray="145.5935595033542, 11"><path class="EdgeBody" d="m550.28 299.79-136.3 77.101"   marker-end="url(#b)" /></g><g class="Burr Anchor" transform="translate(495.76 330.63)" ><use class="Icon" width="0" height="0" fill="#141414" stroke-width="0" xlink:href="#c"/></g></g><g id="ak" class="Interaction" color="#000" ><g color="#000" fill="transparent"  filter="url(#a)" stroke="#000" stroke-dasharray="80.15225968099422, 11"><path class="EdgeBody" d="m598.28 323.79 14.693 89.96"   marker-end="url(#b)" /></g></g><g id="al" class="Interaction" color="#000" ><g color="#000" fill="transparent"  filter="url(#a)" stroke="#000" stroke-dasharray="118.4012895590653, 11"><path class="EdgeBody" d="m622.28 323.79 101.29 80.527"   marker-end="url(#b)" /></g></g><g id="am" class="Interaction" color="#000" ><g color="#000" fill="transparent"  filter="url(#a)" stroke="#000" stroke-dasharray="95.90376064049349, 11"><path class="EdgeBody" d="m698.55 158.54-52.274 93.252"   marker-end="url(#b)" /></g></g><g id="an" class="Interaction" color="#000" ><g color="#000" fill="transparent"  filter="url(#a)" stroke="#000" stroke-dasharray="44.846893652786115, 11"><path class="EdgeBody" d="m501.57 248.46 48.702 27.331"   marker-end="url(#b)" /></g></g><g id="ao" class="Interaction" color="#000" ><g color="#000" fill="transparent"  filter="url(#a)" stroke="#000" stroke-dasharray="58.76391428168671, 11"><path class="EdgeBody" d="m156.44 212.05 53.301 45.011"   marker-end="url(#b)" /></g></g><g id="ap" class="Interaction" color="#000" ><g color="#000" fill="transparent"  filter="url(#a)" stroke="#000" stroke-dasharray="31.59058519225853, 11"><path class="EdgeBody" d="m171.26 303.31 38.484-18.247"   marker-end="url(#b)" /></g></g><g id="aq" class="Interaction" color="#000" ><g color="#000" fill="transparent"  filter="url(#a)" stroke="#000" stroke-dasharray="112.80152959144453, 11"><path class="EdgeBody" d="m233.74 299.06-83.767 91.159"   marker-end="url(#b)" /></g></g><g id="ar" class="Interaction" color="#000" ><g color="#000" fill="transparent"  filter="url(#a)" stroke="#000" stroke-dasharray="34.48660328435537, 11"><path class="EdgeBody" d="m257.74 197.57v45.487"   marker-end="url(#b)" /></g></g><g id="as" class="Interaction" color="#000" ><g color="#000" fill="transparent"  filter="url(#a)" stroke="#000" stroke-dasharray="103.68855924169539, 11"><path class="EdgeBody" d="m281.74 299.06 84.239 77.829"   marker-end="url(#b)" /></g><g class="Burr Anchor" transform="translate(315.44 330.19)" ><use class="Icon" width="0" height="0" fill="#141414" stroke-width="0" xlink:href="#c"/></g></g><g id="at" class="Interaction" color="#000" ><g color="#000" fill="transparent"  filter="url(#a)" stroke="#000" stroke-dasharray="61.38457095119634, 11"><path class="EdgeBody" d="m424.4 318.46 71.355 12.163"   marker-end="url(#b)" /></g></g><g id="au" class="Interaction" color="#000" ><g color="#000" fill="transparent"  filter="url(#a)" stroke="#000" stroke-dasharray="58.03221587968231, 7"><path class="EdgeBody" d="m379.4 318.46-63.966 11.727"   marker-end="url(#f)" /></g></g><g class="Pathway" transform="translate(356.9 293.46)" color="#cc0033"  name="SARS infection"><rect class="Icon" transform="matrix(.98901 0 0 .96154 .49451 .48077)" width="90" height="25" rx="15" ry="15" fill="#fff" stroke="#c03"/><text class="Text" transform="translate(45,16.5)" fill="#cc0033"  font-size="12px" font-weight="bold"  text-anchor="middle"><tspan x="0" y="-6.6000000000000005">SARS</tspan> <tspan x="0" y="6.6000000000000005">infection</tspan></text></g><g class="Label" transform="translate(212,305.5)" color="#0033cc"  name="p38 pathway"><use class="Icon" width="90" height="25" fill="transparent"  stroke="#0033cc" stroke-width="0" xlink:href="#c"/><text class="Text" transform="translate(45,16.5)" fill="#0033cc"  font-size="12px"  text-anchor="middle"><tspan x="0" y="0">p38 pathway</tspan></text></g><g class="Label" transform="translate(9.4512 272.72)" color="#cc0033"  name="SARS"><use class="Icon" width="57.10025929127054" height="25" fill="transparent"  stroke="#cc0033" stroke-width="0" xlink:href="#c"/><text class="Text" transform="translate(28.55 16.5)" fill="#cc0033"  font-size="12px" font-weight="bold"  text-anchor="middle"><tspan x="0" y="0">SARS</tspan></text></g><g class="Label" transform="translate(249.73 337.54)" color="#000"  name="phos-T573"><use class="Icon" width="90" height="25" fill="transparent"  stroke="#000" stroke-width="0" xlink:href="#c"/><text class="Text" transform="translate(45,16.5)"   font-size="12px"  text-anchor="middle"><tspan x="0" y="0">phos-T573</tspan></text></g><a  class="GeneProduct DDIT3 " transform="translate(572.97 413.75)"   name="DDIT3"  ><rect class="Icon" transform="matrix(.98765 0 0 .95238 .49383 .47619)" width="80" height="20" fill="#fff" stroke="#000"/><text class="Text" transform="translate(40,14)"   font-size="12px"  text-anchor="middle"><tspan x="0" y="0">DDIT3</tspan></text></a><a  class="GeneProduct MAP2K7 " transform="translate(846.27 168.75)"   name="MAP2K7"  ><rect class="Icon" transform="matrix(.98901 0 0 .96154 .49451 .48077)" width="90" height="25" fill="#fff" stroke="#000"/><text class="Text" transform="translate(45,16.5)"   font-size="12px"  text-anchor="middle"><tspan x="0" y="0">MAP2K7</tspan></text></a><a  class="GeneProduct MAP2K4 " transform="translate(678.55 138.54)"   name="MAP2K4"  ><rect class="Icon" transform="matrix(.98765 0 0 .95238 .49383 .47619)" width="80" height="20" fill="#fff" stroke="#000"/><text class="Text" transform="translate(40,14)"   font-size="12px"  text-anchor="middle"><tspan x="0" y="0">MAP2K4</tspan></text></a><a  class="GeneProduct EIF4E " transform="translate(482.22 412.27)"   name="EIF4E"  ><rect class="Icon" transform="matrix(.98765 0 0 .95238 .49383 .47619)" width="80" height="20" fill="#fff" stroke="#000"/><text class="Text" transform="translate(40,14)"   font-size="12px"  text-anchor="middle"><tspan x="0" y="0">EIF4E</tspan></text></a><a  class="GeneProduct BCL2 " transform="translate(850.45 410.63)"   name="BCL2"  ><rect class="Icon" transform="matrix(.98765 0 0 .95238 .49383 .47619)" width="80" height="20" fill="#fff" stroke="#000"/><text class="Text" transform="translate(40,14)"   font-size="12px"  text-anchor="middle"><tspan x="0" y="0">BCL2</tspan></text></a><a  class="GeneProduct RAF1 " transform="translate(216.01 69.443)"   name="RAF1"  ><rect class="Icon" transform="matrix(.98765 0 0 .95238 .49383 .47619)" width="80" height="20" fill="#fff" stroke="#000"/><text class="Text" transform="translate(40,14)"   font-size="12px"  text-anchor="middle"><tspan x="0" y="0">RAF1</tspan></text></a><g class="GroupGroup" transform="translate(101.97 390.22)" color="grey" ><use class="Icon" width="96" height="56" fill="transparent"  stroke="grey" stroke-dasharray="5,3" stroke-width="0" xlink:href="#c"/><a  class="GeneProduct ATF2 " transform="translate(8,8)"   name="ATF2"  ><rect class="Icon" transform="matrix(.98765 0 0 .95238 .49383 .47619)" width="80" height="20" fill="#fff" stroke="#000"/><text class="Text" transform="translate(40,14)"   font-size="12px"  text-anchor="middle"><tspan x="0" y="0">ATF2</tspan></text></a><a  class="GeneProduct FOS " transform="translate(8,28)"   name="FOS"  ><rect class="Icon" transform="matrix(.98765 0 0 .95238 .49383 .47619)" width="80" height="20" fill="#fff" stroke="#000"/><text class="Text" transform="translate(40,14)"   font-size="12px"  text-anchor="middle"><tspan x="0" y="0">FOS</tspan></text></a></g><g class="GroupGroup" transform="translate(843.27 60.639)" color="grey" ><use class="Icon" width="96" height="75.99999999999974" fill="transparent"  stroke="grey" stroke-dasharray="5,3" stroke-width="0" xlink:href="#c"/><a  class="GeneProduct MAP3K9 " transform="translate(8,8)"   name="MAP3K9"  ><rect class="Icon" transform="matrix(.98765 0 0 .95238 .49383 .47619)" width="80" height="20" fill="#fff" stroke="#000"/><text class="Text" transform="translate(40,14)"   font-size="12px"  text-anchor="middle"><tspan x="0" y="0">MAP3K9</tspan></text></a><a  class="GeneProduct MAP3K10 " transform="translate(8 28)"   name="MAP3K10"  ><rect class="Icon" transform="matrix(.98765 0 0 .95238 .49383 .47619)" width="80" height="20" fill="#fff" stroke="#000"/><text class="Text" transform="translate(40,14)"   font-size="12px"  text-anchor="middle"><tspan x="0" y="0">MAP3K10</tspan></text></a><a  class="GeneProduct MAP3K11 " transform="translate(8 48)"   name="MAP3K11"  ><rect class="Icon" transform="matrix(.98765 0 0 .95238 .49383 .47619)" width="80" height="20" fill="#fff" stroke="#000"/><text class="Text" transform="translate(40,14)"   font-size="12px"  text-anchor="middle"><tspan x="0" y="0">MAP3K11</tspan></text></a></g><g class="GroupGroup" transform="translate(557.19 33.871)" color="grey" ><use class="Icon" width="96" height="55.99999999999974" fill="transparent"  stroke="grey" stroke-dasharray="5,3" stroke-width="0" xlink:href="#c"/><a  class="GeneProduct MAP3K1 " transform="translate(8,8)"   name="MAP3K1"  ><rect class="Icon" transform="matrix(.98765 0 0 .95238 .49383 .47619)" width="80" height="20" fill="#fff" stroke="#000"/><text class="Text" transform="translate(40,14)"   font-size="12px"  text-anchor="middle"><tspan x="0" y="0">MAP3K1</tspan></text></a><a  class="GeneProduct MAP3K4 " transform="translate(8 28)"   name="MAP3K4"  ><rect class="Icon" transform="matrix(.98765 0 0 .95238 .49383 .47619)" width="80" height="20" fill="#fff" stroke="#000"/><text class="Text" transform="translate(40,14)"   font-size="12px"  text-anchor="middle"><tspan x="0" y="0">MAP3K4</tspan></text></a></g><g class="GroupGroup" transform="translate(843.27 236.2)" color="grey" ><use class="Icon" width="96" height="75.99999999999994" fill="transparent"  stroke="grey" stroke-dasharray="5,3" stroke-width="0" xlink:href="#c"/><a  class="GeneProduct MAPK9 " transform="translate(8,28)"   name="MAPK9"  ><rect class="Icon" transform="matrix(.98765 0 0 .95238 .49383 .47619)" width="80" height="20" fill="#fff" stroke="#000"/><text class="Text" transform="translate(40,14)"   font-size="12px"  text-anchor="middle"><tspan x="0" y="0">MAPK9</tspan></text></a><a  class="GeneProduct MAPK8 " transform="translate(8,8)"   name="MAPK8"  ><rect class="Icon" transform="matrix(.98765 0 0 .95238 .49383 .47619)" width="80" height="20" fill="#fff" stroke="#000"/><text class="Text" transform="translate(40,14)"   font-size="12px"  text-anchor="middle"><tspan x="0" y="0">MAPK8</tspan></text></a><a  class="GeneProduct MAPK10 " transform="translate(8 48)"   name="MAPK10"  ><rect class="Icon" transform="matrix(.98765 0 0 .95238 .49383 .47619)" width="80" height="20" fill="#fff" stroke="#000"/><text class="Text" transform="translate(40,14)"   font-size="12px"  text-anchor="middle"><tspan x="0" y="0">MAPK10</tspan></text></a></g><g class="GroupComplex" transform="translate(697.53 404.31)" color="grey" ><use class="Icon" transform="matrix(.99049 0 0 .98802 .49525 .49401)" width="104.15484618927132" height="82.44654886290971" fill="#b4b464" fill-opacity=".1" stroke="grey" xlink:href="#g"/><a  class="GeneProduct JUN " transform="translate(12,12)"   name="JUN"  ><rect class="Icon" transform="matrix(.98765 0 0 .95238 .49383 .47619)" width="80" height="20" fill="#fff" stroke="#000"/><text class="Text" transform="translate(40 14)"   font-size="12px"  text-anchor="middle"><tspan x="0" y="0">JUN</tspan></text></a><a  class="GeneProduct FOS " transform="translate(12,32)"   name="FOS"  ><rect class="Icon" transform="matrix(.98765 0 0 .95238 .49383 .47619)" width="80" height="20" fill="#fff" stroke="#000"/><text class="Text" transform="translate(40,14)"   font-size="12px"  text-anchor="middle"><tspan x="0" y="0">FOS</tspan></text></a><a  class="GeneProduct JUNB " transform="translate(12.155 50.447)"   name="JUNB"  ><rect class="Icon" transform="matrix(.98765 0 0 .95238 .49383 .47619)" width="80" height="20" fill="#fff" stroke="#000"/><text class="Text" transform="translate(40 14)"   font-size="12px"  text-anchor="middle"><tspan x="0" y="0">JUNB</tspan></text></a></g><g class="GroupGroup" transform="translate(341.98 376.89)" color="grey" ><use class="Icon" width="96" height="75.99999999999994" fill="transparent"  stroke="grey" stroke-dasharray="5,3" stroke-width="0" xlink:href="#c"/><a  class="GeneProduct RPS6KA3 " transform="translate(8,28)"   name="RPS6KA3"  ><rect class="Icon" transform="matrix(.98765 0 0 .95238 .49383 .47619)" width="80" height="20" fill="#fff" stroke="#000"/><g class="Burr State" transform="translate(72.5 10.771)" color="#000" ><use class="Icon" transform="matrix(.9375 0 0 .9375 .46875 .46875)" width="15" height="15" fill="#fff" stroke="#000" xlink:href="#d"/></g><text class="Text" transform="translate(40,14)"   font-size="12px"  text-anchor="middle"><tspan x="0" y="0">RPS6KA3</tspan></text></a><a  class="GeneProduct RPS6KA2 " transform="translate(8 48)"   name="RPS6KA2"  ><rect class="Icon" transform="matrix(.98765 0 0 .95238 .49383 .47619)" width="80" height="20" fill="#fff" stroke="#000"/><g class="Burr State" transform="translate(72.5 10.771)" color="#000" ><use class="Icon" transform="matrix(.9375 0 0 .9375 .46875 .46875)" width="15" height="15" fill="#fff" stroke="#000" xlink:href="#d"/></g><text class="Text" transform="translate(40,14)"   font-size="12px"  text-anchor="middle"><tspan x="0" y="0">RPS6KA2</tspan></text></a><a  class="GeneProduct RPS6KA1 " transform="translate(8,8)"   name="RPS6KA1"  ><rect class="Icon" transform="matrix(.98765 0 0 .95238 .49383 .47619)" width="80" height="20" fill="#fff" stroke="#000"/><g class="Burr State" transform="translate(72.5 10.771)" color="#000" ><use class="Icon" transform="matrix(.9375 0 0 .9375 .46875 .46875)" width="15" height="15" fill="#fff" stroke="#000" xlink:href="#d"/></g><text class="Text" transform="translate(40,14)"   font-size="12px"  text-anchor="middle"><tspan x="0" y="0">RPS6KA1</tspan></text></a></g><g class="GroupGroup" transform="translate(395.57 215.46)" color="grey" ><use class="Icon" width="106" height="66.00000000000009" fill="transparent"  stroke="grey" stroke-dasharray="5,3" stroke-width="0" xlink:href="#c"/><g class="Uniprot-TrEMBL_P59632 Protein " transform="translate(8,8)" color="#000"  name="3a"><use class="Icon" transform="matrix(.98901 0 0 .96154 .49451 .48077)" width="90" height="25" fill="#ffcccc" stroke="#000" xlink:href="#d"/><text class="Text" transform="translate(45,16.5)"   font-size="12px"  text-anchor="middle"><tspan x="0" y="0">3a</tspan></text></g><g class="Uniprot-TrEMBL_P59635 Protein " transform="translate(8 33)" color="#000"  name="7a"><use class="Icon" transform="matrix(.98901 0 0 .96154 .49451 .48077)" width="90" height="25" fill="#ffcccc" stroke="#000" xlink:href="#d"/><text class="Text" transform="translate(45,16.5)"   font-size="12px"  text-anchor="middle"><tspan x="0" y="0">7a</tspan></text></g></g><g class="GroupGroup" transform="translate(209.74 141.57)" color="grey" ><use class="Icon" width="96" height="56.00000000000003" fill="transparent"  stroke="grey" stroke-dasharray="5,3" stroke-width="0" xlink:href="#c"/><a  class="GeneProduct MAP2K1 " transform="translate(8,8)"   name="MAP2K1"  ><rect class="Icon" transform="matrix(.98765 0 0 .95238 .49383 .47619)" width="80" height="20" fill="#fff" stroke="#000"/><text class="Text" transform="translate(40,14)"   font-size="12px"  text-anchor="middle"><tspan x="0" y="0">MAP2K1</tspan></text></a><a  class="GeneProduct MAP2K2 " transform="translate(8 28)"   name="MAP2K2"  ><rect class="Icon" transform="matrix(.98765 0 0 .95238 .49383 .47619)" width="80" height="20" fill="#fff" stroke="#000"/><text class="Text" transform="translate(40,14)"   font-size="12px"  text-anchor="middle"><tspan x="0" y="0">MAP2K2</tspan></text></a></g><g class="GroupGroup" transform="translate(418.04 117.94)" color="grey" ><use class="Icon" width="96" height="56" fill="transparent"  stroke="grey" stroke-dasharray="5,3" stroke-width="0" xlink:href="#c"/><a  class="GeneProduct MAP2K3 " transform="translate(8,8)"   name="MAP2K3"  ><rect class="Icon" transform="matrix(.98765 0 0 .95238 .49383 .47619)" width="80" height="20" fill="#fff" stroke="#000"/><text class="Text" transform="translate(40,14)"   font-size="12px"  text-anchor="middle"><tspan x="0" y="0">MAP2K3</tspan></text></a><a  class="GeneProduct MAP2K6 " transform="translate(8,28)"   name="MAP2K6"  ><rect class="Icon" transform="matrix(.98765 0 0 .95238 .49383 .47619)" width="80" height="20" fill="#fff" stroke="#000"/><text class="Text" transform="translate(40,14)"   font-size="12px"  text-anchor="middle"><tspan x="0" y="0">MAP2K6</tspan></text></a></g><g class="GroupGroup" transform="translate(64.545 257.81)" color="grey" ><use class="Icon" width="106.71073205401564" height="91" fill="transparent"  stroke="grey" stroke-dasharray="5,3" stroke-width="0" xlink:href="#c"/><a  class="Protein " transform="translate(8,8)"   name="S"  ><use class="Icon" transform="matrix(.98901 0 0 .96154 .49451 .48077)" width="90" height="25" fill="#ffcccc" stroke="#000" xlink:href="#d"/><text class="Text" transform="translate(45,16.5)"   font-size="12px"  text-anchor="middle"><tspan x="0" y="0">S</tspan></text></a><g class="Uniprot-TrEMBL_P59633 Protein " transform="translate(8.7107 33)" color="#000"  name="3b"><use class="Icon" transform="matrix(.98901 0 0 .96154 .49451 .48077)" width="90" height="25" fill="#ffcccc" stroke="#000" xlink:href="#d"/><text class="Text" transform="translate(45,16.5)"   font-size="12px"  text-anchor="middle"><tspan x="0" y="0">3b</tspan></text></g><g class="Protein" transform="translate(8 58)" color="#000"  name="VLP"><use class="Icon" transform="matrix(.98901 0 0 .96154 .49451 .48077)" width="90" height="25" fill="#ffcccc" stroke="#000" xlink:href="#d"/><text class="Text" transform="translate(45,16.5)"   font-size="12px"  text-anchor="middle"><tspan x="0" y="0">VLP</tspan></text></g></g><g class="GroupGroup" transform="translate(550.28 227.79)" color="grey" ><use class="Icon" width="96" height="96.00000000000006" fill="transparent"  stroke="grey" stroke-dasharray="5,3" stroke-width="0" xlink:href="#c"/><a  class="GeneProduct MAPK11 " transform="translate(8,8)"   name="MAPK11"  ><rect class="Icon" transform="matrix(.98765 0 0 .95238 .49383 .47619)" width="80" height="20" fill="#fff" stroke="#000"/><text class="Text" transform="translate(40,14)"   font-size="12px"  text-anchor="middle"><tspan x="0" y="0">MAPK11</tspan></text></a><a  class="GeneProduct MAPK13 " transform="translate(8 48)"   name="MAPK13"  ><rect class="Icon" transform="matrix(.98765 0 0 .95238 .49383 .47619)" width="80" height="20" fill="#fff" stroke="#000"/><text class="Text" transform="translate(40,14)"   font-size="12px"  text-anchor="middle"><tspan x="0" y="0">MAPK13</tspan></text></a><a  class="GeneProduct MAPK12 " transform="translate(8 28)"   name="MAPK12"  ><rect class="Icon" transform="matrix(.98765 0 0 .95238 .49383 .47619)" width="80" height="20" fill="#fff" stroke="#000"/><text class="Text" transform="translate(40,14)"   font-size="12px"  text-anchor="middle"><tspan x="0" y="0">MAPK12</tspan></text></a><a  class="GeneProduct MAPK14 " transform="translate(8 68)"   name="MAPK14"  ><rect class="Icon" transform="matrix(.98765 0 0 .95238 .49383 .47619)" width="80" height="20" fill="#fff" stroke="#000"/><text class="Text" transform="translate(40,14)"   font-size="12px"  text-anchor="middle"><tspan x="0" y="0">MAPK14</tspan></text></a></g><g class="GroupGroup" transform="translate(209.74 243.06)" color="grey" ><use class="Icon" width="96" height="56.00000000000006" fill="transparent"  stroke="grey" stroke-dasharray="5,3" stroke-width="0" xlink:href="#c"/><a  class="GeneProduct MAPK3 " transform="translate(8,8)"   name="MAPK3"  ><rect class="Icon" transform="matrix(.98765 0 0 .95238 .49383 .47619)" width="80" height="20" fill="#fff" stroke="#000"/><text class="Text" transform="translate(40,14)"   font-size="12px"  text-anchor="middle"><tspan x="0" y="0">MAPK3</tspan></text></a><a  class="GeneProduct MAPK1 " transform="translate(8 28)"   name="MAPK1"  ><rect class="Icon" transform="matrix(.98765 0 0 .95238 .49383 .47619)" width="80" height="20" fill="#fff" stroke="#000"/><text class="Text" transform="translate(40,14)"   font-size="12px"  text-anchor="middle"><tspan x="0" y="0">MAPK1</tspan></text></a></g><g class="Label" transform="translate(443.82 339.76)" color="#000"  name="phos-S380"><use class="Icon" width="90" height="25" fill="transparent"  stroke="#000" stroke-width="0" xlink:href="#c"/><text class="Text" transform="translate(45,16.5)"   font-size="12px"  text-anchor="middle"><tspan x="0" y="0">phos-S380</tspan></text></g><g class="Pathway" transform="translate(29.823 205.8)" color="#cc0033"  name="SARS, MERS, 229E infection"><rect class="Icon" transform="matrix(.99216 0 0 .96154 .49608 .48077)" width="126.62" height="25" rx="15" ry="15" fill="#fff" stroke="#c03"/><text class="Text" transform="translate(63.308 16.5)" fill="#cc0033"  font-size="12px" font-weight="bold"  text-anchor="middle"><tspan x="0" y="-6.6000000000000005">SARS, MERS, 229E</tspan> <tspan x="0" y="6.6000000000000005">infection</tspan></text></g><g class="Label" transform="translate(354.8 236.91)" color="#cc0033"  name="SARS"><use class="Icon" width="57.10025929127054" height="25" fill="transparent"  stroke="#cc0033" stroke-width="0" xlink:href="#c"/><text class="Text" transform="translate(28.55 16.5)" fill="#cc0033"  font-size="12px" font-weight="bold"  text-anchor="middle"><tspan x="0" y="0">SARS</tspan></text></g><g class="Pathway" transform="translate(313.81 95.073)" color="#cc0033"  name="SARS, MERS,  229E infection"><rect class="Icon" transform="matrix(.99028 0 0 .97161 .49514 .48581)" width="101.92" height="34.229" rx="15" ry="15" fill="#fff" stroke="#c03"/><text class="Text" transform="translate(50.962 21.114)" fill="#cc0033"  font-size="12px" font-weight="bold"  text-anchor="middle"><tspan x="0" y="-6.6000000000000005">SARS, MERS, </tspan> <tspan x="0" y="6.6000000000000005">229E infection</tspan></text></g><g class="Pathway" transform="translate(994.81 193.23)" color="#cc0033"  name="SARS, 229E IBV infection"><rect class="Icon" transform="matrix(.98816 0 0 .97161 .49408 .48581)" width="83.466" height="34.229" rx="15" ry="15" fill="#fff" stroke="#c03"/><text class="Text" transform="translate(41.733 21.114)" fill="#cc0033"  font-size="12px" font-weight="bold"  text-anchor="middle"><tspan x="0" y="-6.6000000000000005">SARS, 229E</tspan> <tspan x="0" y="6.6000000000000005">IBV infection</tspan></text></g><g class="GroupGroup" transform="translate(982.53 267.37)" color="grey" ><use class="Icon" width="106.00000000000023" height="166" fill="transparent"  stroke="grey" stroke-dasharray="5,3" stroke-width="0" xlink:href="#c"/><a  class="Protein " transform="translate(8 8)"   name="S"  ><use class="Icon" transform="matrix(.98901 0 0 .96154 .49451 .48077)" width="90" height="25" fill="#ffcccc" stroke="#000" xlink:href="#d"/><text class="Text" transform="translate(45,16.5)"   font-size="12px"  text-anchor="middle"><tspan x="0" y="0">S</tspan></text></a><g class="Uniprot-TrEMBL_P59632 Protein " transform="translate(8 33)" color="#000"  name="3a"><use class="Icon" transform="matrix(.98901 0 0 .96154 .49451 .48077)" width="90" height="25" fill="#ffcccc" stroke="#000" xlink:href="#d"/><text class="Text" transform="translate(45,16.5)"   font-size="12px"  text-anchor="middle"><tspan x="0" y="0">3a</tspan></text></g><g class="Uniprot-TrEMBL_P59635 Protein " transform="translate(8,133)" color="#000"  name="7a"><use class="Icon" transform="matrix(.98901 0 0 .96154 .49451 .48077)" width="90" height="25" fill="#ffcccc" stroke="#000" xlink:href="#d"/><text class="Text" transform="translate(45,16.5)"   font-size="12px"  text-anchor="middle"><tspan x="0" y="0">7a</tspan></text></g><a  class="Protein " transform="translate(8 83)"   name="N"  ><use class="Icon" transform="matrix(.98901 0 0 .96154 .49451 .48077)" width="90" height="25" fill="#ffcccc" stroke="#000" xlink:href="#d"/><text class="Text" transform="translate(45,16.5)"   font-size="12px"  text-anchor="middle"><tspan x="0" y="0">N</tspan></text></a><g class="Uniprot-TrEMBL_P59633 Protein " transform="translate(8 108)" color="#000"  name="3b"><use class="Icon" transform="matrix(.98901 0 0 .96154 .49451 .48077)" width="90" height="25" fill="#ffcccc" stroke="#000" xlink:href="#d"/><text class="Text" transform="translate(45,16.5)"   font-size="12px"  text-anchor="middle"><tspan x="0" y="0">3b</tspan></text></g><g class="Uniprot-TrEMBL_P59634 Protein " transform="translate(8 58)" color="#000"  name="6"><use class="Icon" transform="matrix(.98901 0 0 .96154 .49451 .48077)" width="90" height="25" fill="#ffcccc" stroke="#000" xlink:href="#d"/><text class="Text" transform="translate(45,16.5)" direction="neutral"   font-size="12px"  text-anchor="middle"><tspan x="0" y="0">6</tspan></text></g></g><g class="Label" transform="translate(1007 250.37)" color="#cc0033"  name="SARS"><use class="Icon" width="57.10025929127054" height="25" fill="transparent"  stroke="#cc0033" stroke-width="0" xlink:href="#c"/><text class="Text" transform="translate(28.55 16.5)" fill="#cc0033"  font-size="12px" font-weight="bold"  text-anchor="middle"><tspan x="0" y="0">SARS</tspan></text></g><g class="Pathway" transform="translate(213.06 493.61)" color="#14961e"  name="Cell survival  and proliferation"><use class="Icon" width="117.10890233361984" height="34.389369057908425" fill="transparent"  stroke="#14961e" stroke-width="0" xlink:href="#c"/><text class="Text" transform="translate(58.554 21.195)" fill="#14961e"  font-size="12px" font-weight="bold" stroke="black" stroke-width="0" text-anchor="middle"><tspan x="0" y="-6.6000000000000005">Cell survival </tspan> <tspan x="0" y="6.6000000000000005">and proliferation</tspan></text></g><g class="Pathway" transform="translate(416.66 492.37)" color="#14961e"  name="Protein synthesis"><rect class="Icon" transform="matrix(.98656 0 0 .97112 .49328 .48556)" width="73.401" height="33.625" rx="15" ry="15" fill="#fff" stroke="#14961e"/><text class="Text" transform="translate(36.701 20.813)" fill="#14961e"  font-size="12px" font-weight="bold" stroke="black" stroke-width="0" text-anchor="middle"><tspan x="0" y="-6.6000000000000005">Protein</tspan> <tspan x="0" y="6.6000000000000005">synthesis</tspan></text></g><g class="Pathway" transform="translate(575.32 494.6)" color="#14961e"  name="Apoptosis"><rect class="Icon" transform="matrix(.98656 0 0 .96154 .49328 .48077)" width="73.401" height="25" rx="15" ry="15" fill="#fff" stroke="#14961e"/><text class="Text" transform="translate(36.701 16.5)" fill="#14961e"  font-size="12px" font-weight="bold" stroke="black" stroke-width="0" text-anchor="middle"><tspan x="0" y="0">Apoptosis</tspan></text></g><g class="Pathway" transform="translate(706.26 542)" color="#000"  name="Innate immunity"><rect class="Icon" transform="matrix(.98897 0 0 .9694 .49449 .4847)" width="89.702" height="31.678" rx="15" ry="15" fill="#fff" stroke="#000"/><text class="Text" transform="translate(44.851 19.839)"   font-size="12px" font-weight="bold"  text-anchor="middle"><tspan x="0" y="-6.6000000000000005">Innate</tspan> <tspan x="0" y="6.6000000000000005">immunity</tspan></text></g><g class="Pathway" transform="translate(853.75 492.99)" color="#14961e"  name="Autophagy"><rect class="Icon" transform="matrix(.98656 0 0 .96154 .49328 .48077)" width="73.401" height="25" rx="15" ry="15" fill="#fff" stroke="#14961e"/><text class="Text" transform="translate(36.701 16.5)" fill="#14961e"  font-size="12px" font-weight="bold" stroke="black" stroke-width="0" text-anchor="middle"><tspan x="0" y="0">Autophagy</tspan></text></g><a  class="GeneProduct IFI27 " transform="translate(652.23 646.36)"   name="IFI27"  ><rect class="Icon" transform="matrix(.98592 0 0 .95238 .49296 .47619)" width="70" height="20" fill="#fff" stroke="#000"/><text class="Text" transform="translate(35,14)"   font-size="12px" font-style="italic"  text-anchor="middle"><tspan x="0" y="0">IFI27</tspan></text></a><a  class="GeneProduct BST2 " transform="translate(652.5 666.9)"   name="BST2"  ><rect class="Icon" transform="matrix(.98592 0 0 .95238 .49296 .47619)" width="70" height="20" fill="#fff" stroke="#000"/><text class="Text" transform="translate(35 14)"   font-size="12px" font-style="italic"  text-anchor="middle"><tspan x="0" y="0">BST2</tspan></text></a><a  class="Protein IFITM2 " transform="translate(768.48 658.3)"   name="IFITM2"  ><rect class="Icon" transform="matrix(.98592 0 0 .95238 .49296 .47619)" width="70" height="20" fill="#fff" stroke="#000"/><text class="Text" transform="translate(35,14)"   font-size="12px"  text-anchor="middle"><tspan x="0" y="0">IFITM2</tspan></text></a><a  class="Protein IFITM3 " transform="translate(768.48 677.48)"   name="IFITM3"  ><rect class="Icon" transform="matrix(.98592 0 0 .95238 .49296 .47619)" width="70" height="20" fill="#fff" stroke="#000"/><text class="Text" transform="translate(35,14)"   font-size="12px"  text-anchor="middle"><tspan x="0" y="0">IFITM3</tspan></text></a><a  class="Protein IFITM1 " transform="translate(768.48 637.68)"   name="IFITM1"  ><rect class="Icon" transform="matrix(.98592 0 0 .95238 .49296 .47619)" width="70" height="20" fill="#fff" stroke="#000"/><text class="Text" transform="translate(35,14)"   font-size="12px"  text-anchor="middle"><tspan x="0" y="0">IFITM1</tspan></text></a><g class="Label" transform="translate(665.17 693.25)" color="#c00"  name="Effectors to fight virus"><use class="Icon" width="148.38063504747223" height="33.591570373737454" fill="transparent"  stroke="#c00" stroke-width="0" xlink:href="#c"/><text class="Text" transform="translate(74.19 20.796)" fill="#c00"  font-size="12px" font-weight="bold"  text-anchor="middle"><tspan x="0" y="0">Effectors to fight virus</tspan></text></g><a  class="GeneProduct IFI27 " transform="translate(544.69 647.59)"   name="IFI27"  ><rect class="Icon" transform="matrix(.98592 0 0 .95238 .49296 .47619)" width="70" height="20" fill="#fff" stroke="#000"/><text class="Text" transform="translate(35,14)"   font-size="12px" font-style="italic"  text-anchor="middle"><tspan x="0" y="0">IFI27</tspan></text></a><a  class="GeneProduct BST2 " transform="translate(544.95 668.12)"   name="BST2"  ><rect class="Icon" transform="matrix(.98592 0 0 .95238 .49296 .47619)" width="70" height="20" fill="#fff" stroke="#000"/><text class="Text" transform="translate(35 14)"   font-size="12px" font-style="italic"  text-anchor="middle"><tspan x="0" y="0">BST2</tspan></text></a><g id="av" class="Interaction" color="#000" ><g color="#000" fill="transparent"  filter="url(#a)" stroke="#000" stroke-dasharray="27.771929824561653, 11"><path class="EdgeBody" d="m614.95 678.12h20v-1.2281h17.544"   marker-end="url(#e)" /></g><g class="Burr Anchor" transform="translate(630.46 678.12)" ><use class="Icon" width="0" height="0" fill="#141414" stroke-width="0" xlink:href="#c"/></g></g><g id="aw" class="Interaction" color="#000" ><g color="#000" fill="transparent"  filter="url(#a)" stroke="#000" stroke-dasharray="183.68283142642903, 11"><path class="EdgeBody" d="m723.57 486.76-93.372 170.83"   marker-end="url(#b)" /></g></g><g id="ax" class="Interaction" color="#000" ><g color="#000" fill="transparent"  filter="url(#a)" stroke="#000" stroke-dasharray="201.81160036518648, 11"><path class="EdgeBody" d="m723.57 486.76-93.105 191.36"   marker-end="url(#b)" /></g></g><a  class="Protein IFITM2 " transform="translate(887.83 657.16)"   name="IFITM2"  ><rect class="Icon" transform="matrix(.98592 0 0 .95238 .49296 .47619)" width="70" height="20" fill="#fff" stroke="#000"/><text class="Text" transform="translate(35,14)"   font-size="12px"  text-anchor="middle"><tspan x="0" y="0">IFITM2</tspan></text></a><a  class="Protein IFITM3 " transform="translate(887.83 677.16)"   name="IFITM3"  ><rect class="Icon" transform="matrix(.98592 0 0 .95238 .49296 .47619)" width="70" height="20" fill="#fff" stroke="#000"/><text class="Text" transform="translate(35,14)"   font-size="12px"  text-anchor="middle"><tspan x="0" y="0">IFITM3</tspan></text></a><a  class="Protein IFITM1 " transform="translate(887.83 637.16)"   name="IFITM1"  ><rect class="Icon" transform="matrix(.98592 0 0 .95238 .49296 .47619)" width="70" height="20" fill="#fff" stroke="#000"/><text class="Text" transform="translate(35,14)"   font-size="12px"  text-anchor="middle"><tspan x="0" y="0">IFITM1</tspan></text></a><g id="ay" class="Interaction" color="#000" ><g color="#000" fill="transparent"  filter="url(#a)" stroke="#000" stroke-dasharray="38.36983215075929, 11"><path class="EdgeBody" d="m838.48 668.3 49.357-1.1375"   marker-end="url(#e)" /></g><g class="Burr Anchor" transform="translate(858.22 667.84)" ><use class="Icon" width="0" height="0" fill="#141414" stroke-width="0" xlink:href="#c"/></g></g><g id="az" class="Interaction" color="#000" ><g color="#000" fill="transparent"  filter="url(#a)" stroke="#000" stroke-dasharray="38.35781042070803, 11"><path class="EdgeBody" d="m838.48 687.48 49.357-0.32731"   marker-end="url(#e)" /></g><g class="Burr Anchor" transform="translate(858.22 687.35)" ><use class="Icon" width="0" height="0" fill="#141414" stroke-width="0" xlink:href="#c"/></g></g><g id="ba" class="Interaction" color="#000" ><g color="#000" fill="transparent"  filter="url(#a)" stroke="#000" stroke-dasharray="188.01888056150878, 11"><path class="EdgeBody" d="m775.65 486.76 82.575 181.08"   marker-end="url(#b)" /></g></g><g id="bb" class="Interaction" color="#000" ><g color="#000" fill="transparent"  filter="url(#a)" stroke="#000" stroke-dasharray="205.92496264837598, 11"><path class="EdgeBody" d="m775.65 486.76 82.575 200.59"   marker-end="url(#b)" /></g></g><g class="Label" transform="translate(552,204.5)" color="#0033cc"  name="ERK pathway"><use class="Icon" width="90" height="25" fill="transparent"  stroke="#0033cc" stroke-width="0" xlink:href="#c"/><text class="Text" transform="translate(45,16.5)" fill="#0033cc"  font-size="12px"  text-anchor="middle"><tspan x="0" y="0">ERK pathway</tspan></text></g><g class="Label" transform="translate(771,298.5)" color="#0033cc"  name="JNK pathway"><use class="Icon" width="90" height="25" fill="transparent"  stroke="#0033cc" stroke-width="0" xlink:href="#c"/><text class="Text" transform="translate(45,16.5)" fill="#0033cc"  font-size="12px"  text-anchor="middle"><tspan x="0" y="0">JNK pathway</tspan></text></g><g class="Label" transform="translate(703.73 373.54)" color="#000"  name="AP-1 complex"><use class="Icon" width="90" height="25" fill="transparent"  stroke="#000" stroke-width="0" xlink:href="#c"/><text class="Text" transform="translate(45,16.5)"   font-size="12px"  text-anchor="middle"><tspan x="0" y="0">AP-1 complex</tspan></text></g><text class="Text" transform="translate(5,27)" dominant-baseline="central" fill="black"  font-size="12px" font-weight="bold" overflow="visible" ><tspan x="0" y="-9">Name: Host-pathogen interaction of human coronaviruses - MAPK signaling</tspan> <tspan x="0" y="9">Organism: Homo sapiens</tspan></text></g></svg>
