<?xml version="1.0" encoding="UTF-8"?>
<!--
  WikiPathways page: https://www.wikipathways.org/index.php/Pathway:WP4962
  URL for this compressed file: https://github.com/eweitz/cachome/tree/main/data/wikipathways/WP4962.svg
  Source code for compression: https://github.com/eweitz/cachome/tree/main/src/wikipathways.py
-->
<svg class="Diagram" width="800" height="600" color="black" baseProfile="full" prefix="schema:http://schema.org/" preserveAspectRatio="xMidYMid" version="1.1" viewBox="0 0 1021 702.5" vocab="http://vocabularies.wikipathways.org/wp#" xmlns="http://www.w3.org/2000/svg" xmlns:xlink="http://www.w3.org/1999/xlink"><style>svg {font-family: 'Liberation Sans', Arial, sans-serif; }</style><defs><filter id="k" x="-50%" y="-50%" width="200%" height="200%"><feComposite in="SourceGraphic" in2="SourceGraphic" result="doubleDark"/><feMorphology in="doubleDark" operator="dilate" radius="0.16666666666666666" result="in2Double"/><feMorphology in="SourceGraphic" operator="dilate" radius="3" result="inDouble"/><feComposite in="inDouble" in2="in2Double" operator="out" result="doubleResult"/></filter><filter id="a" x="0" y="0" width="1021" height="702.5" filterUnits="userSpaceOnUse"><feColorMatrix in="SourceGraphic" values="-1   0   0 0 0                   0  -1   0 0 0                   0   0  -1 0 0                   0   0   0 1 0"/></filter><marker id="j" stroke-dasharray="99999" markerHeight="12" markerUnits="userSpaceOnUse" markerWidth="12" orient="auto" preserveAspectRatio="none" refX="12" refY="6" viewBox="0 0 12 12"><path transform="rotate(180 6 6)" d="M12 11L0 6l12-5z" fill="currentColor" stroke-width="0"/></marker><marker id="i" stroke-dasharray="99999" markerHeight="12" markerUnits="userSpaceOnUse" markerWidth="12" orient="auto" preserveAspectRatio="none" refX="12" refY="6" viewBox="0 0 12 12"><path transform="rotate(180 6 6)" d="M12 12L0 6l12-6-7 6z" fill="currentColor" stroke-width="0"/></marker><marker id="f" stroke-dasharray="99999" markerHeight="12" markerUnits="userSpaceOnUse" markerWidth="12" orient="auto" preserveAspectRatio="none" refX="12" refY="6" viewBox="0 0 12 12"><circle transform="rotate(180 6 6)" cx="6" cy="6" r="5.3" fill="none" stroke="#000"/></marker><marker id="h" stroke-dasharray="99999" markerHeight="30" markerUnits="userSpaceOnUse" markerWidth="20" orient="auto" preserveAspectRatio="none" refX="20" refY="15" viewBox="0 0 20 30"><g transform="rotate(180 10 15)" stroke="#000"><path d="m18 14.5v15.5l-18-30"/></g></marker><marker id="d" stroke-dasharray="99999" markerHeight="12" markerUnits="userSpaceOnUse" markerWidth="12" orient="auto" preserveAspectRatio="none" refX="12" refY="6" viewBox="0 0 12 12"><path transform="rotate(180 6 6)" d="M12 11L0 6l12-5z" fill="currentColor" stroke-width="0"/></marker><marker id="g" stroke-dasharray="99999" markerHeight="20" markerUnits="userSpaceOnUse" markerWidth="10" orient="auto" preserveAspectRatio="none" refX="10" refY="10" viewBox="0 0 10 20"><path d="m3 0v20" fill="currentColor" stroke="currentColor"/></marker><marker id="c" stroke-dasharray="99999" markerHeight="12" markerUnits="userSpaceOnUse" markerWidth="12" orient="auto" preserveAspectRatio="none" refX="12" refY="6" viewBox="0 0 12 12"><g transform="rotate(180 6 6)" fill="none"><path d="m12 6"/><path d="M0 6l11 5V1z" stroke="#000"/></g></marker><symbol id="e" overflow="visible" preserveAspectRatio="none" viewBox="0 0 50 50"><ellipse cx="25" cy="25" rx="25" ry="25" stroke="currentColor" vector-effect="non-scaling-stroke"/></symbol><symbol id="l" overflow="visible" preserveAspectRatio="none" viewBox="0 0 100 100"><path d="M46.602 1.407C14.23 2.75 10.282 24.177 20.099 39.535c9.318 18.343-18.766 30.15 2.57 49.378 16.82 13.116 46.33 6.105 52.126-8.568 5.899-15.249-10.951-26.027-3.294-40.962 10.854-19.884-.776-38.13-24.9-37.976z" vector-effect="non-scaling-stroke"/></symbol><symbol id="b" preserveAspectRatio="none" viewBox="0 0 100 100"/></defs><g class="Viewport" color="black"  name="Name: Airway smooth muscle cell contraction Organism: Homo sapiens"><rect class="Icon" width="1021" height="702.5" fill="#fff" stroke="#000" stroke-width="0"/><g id="m" class="Interaction" color="#000" ><g color="#000" fill="transparent"  filter="url(#a)" stroke="#000" stroke-dasharray="50.708848864580496, 5.8"><path class="EdgeBody" d="m707 331.5 1 56.5"   marker-end="url(#d)" /></g><g class="Burr Anchor" transform="translate(707.4,354.1)" ><use class="Icon" width="0" height="0" fill="#141414" stroke-width="0" xlink:href="#b"/></g></g><g id="n" class="Interaction" color="#000" ><g color="#000" fill="transparent"  filter="url(#a)" stroke="#000" stroke-dasharray="57.46897107449476, 11"><path class="EdgeBody" d="m812 410.5-8 68"   marker-end="url(#c)" /></g></g><g id="o" class="Interaction" color="#000" ><g color="#000" fill="transparent"  filter="url(#a)" stroke="#000" stroke-dasharray="106.06835610018618, 11"><path class="EdgeBody" d="m708 411.5 96 67"   marker-end="url(#c)" /></g></g><g id="p" class="Interaction" color="#000" ><g color="#000" fill="transparent"  filter="url(#a)" stroke="#000" stroke-dasharray="70.2, 5.8"><path class="EdgeBody" d="m673 540h76"   marker-end="url(#d)" /></g><g class="Burr Anchor" transform="translate(714,540)" ><use class="Icon" width="0" height="0" fill="#141414" stroke-width="0" xlink:href="#b"/></g></g><g id="q" class="Interaction" color="#000" ><g color="#000" fill="transparent"  filter="url(#a)" stroke="#000" stroke-dasharray="25.5, 11"><path class="EdgeBody" d="m714 503.5v36.5"   marker-end="url(#c)" /></g></g><g id="r" class="Interaction" color="#000" ><g color="#000" fill="transparent"  filter="url(#a)" stroke="#000" stroke-dasharray="46, 11"><path class="EdgeBody" d="m298 181.5v57"   marker-end="url(#c)" /></g></g><g id="s" class="Interaction" color="#000" ><g color="#000" fill="transparent"  filter="url(#a)" stroke="#000" stroke-dasharray="117.7, 5.8"><path class="EdgeBody" d="m701 73.5v123.5"   marker-end="url(#d)" /></g><g class="Burr Anchor" transform="translate(701 122.9)" ><use class="Icon" width="0" height="0" fill="#141414" stroke-width="0" xlink:href="#b"/></g></g><g id="t" class="DirectedInteraction" color="#000" ><g color="#000" fill="transparent"  filter="url(#a)" stroke="#000" stroke-dasharray="20.204807247891686, 5.8"><path class="EdgeBody" d="m923 106.5 0.5 26"   marker-end="url(#j)" /></g></g><g id="u" class="Interaction" color="#000" ><g color="#000" fill="transparent"  filter="url(#a)" stroke="#000" stroke-dasharray="35.2, 5.8"><path class="EdgeBody" d="m451.5 554.5v41"   marker-end="url(#d)" /></g><g class="Burr Anchor" transform="translate(451.5,570.9)" ><use class="Icon" width="0" height="0" fill="#141414" stroke-width="0" xlink:href="#b"/></g></g><g id="v" class="Interaction" color="#000" ><g color="#000" fill="transparent"  filter="url(#a)" stroke="#000" stroke-dasharray="329.65, 11"><path class="EdgeBody" d="m493 311.75h20v259.15h-61.5"   marker-end="url(#c)" /></g></g><g id="w" class="Interaction" color="#000" ><g color="#000" fill="transparent"  filter="url(#a)" stroke="#000" stroke-dasharray="67.44616030891996, 5.8"><path class="EdgeBody" d="m514 154.5 57 46"   marker-end="url(#d)" /></g></g><g id="x" class="Interaction" color="#000" ><g color="#000" fill="transparent"  filter="url(#a)" stroke="#000" stroke-dasharray="5.06, 3.04, 5.06, 3.04, 5.06, 3.04, 5.06, 3.04, 5.06, 3.04, 5.06, 3.04, 5.06, 3.04, 5.06, 3.04, 5.06, 3.04, 5.06, 3.04, 5.06, 0"><path class="EdgeBody" d="m923.5 157.5-0.5 86"   /></g></g><g id="y" class="Interaction" color="#000" ><g color="#000" fill="transparent"  filter="url(#a)" stroke="#000" stroke-dasharray="31, 11"><path class="EdgeBody" d="m285 90.5v42"   marker-end="url(#c)" /></g></g><g id="z" class="Interaction" color="#000" ><g color="#000" fill="transparent"  filter="url(#a)" stroke="#000" stroke-dasharray="202.5, 11"><path class="EdgeBody" d="m571 225.5v125.5h88"   marker-end="url(#c)" /></g></g><g id="aa" class="Interaction" color="#000" ><g color="#000" fill="transparent"  filter="url(#a)" stroke="#000" stroke-dasharray="47.008620049092706, 11"><path class="EdgeBody" d="m324 169 58 1"   marker-end="url(#c)" /></g></g><g id="ab" class="Interaction" color="#000" ><g color="#000" fill="transparent"  filter="url(#a)" stroke="#000" stroke-dasharray="71.91904528492357, 5.8"><path class="EdgeBody" d="m514 154.5-59.5 50"   marker-end="url(#d)" /></g></g><g id="ac" class="Interaction" color="#000" ><g color="#000" fill="transparent"  filter="url(#a)" stroke="#000" stroke-dasharray="341, 7"><path class="EdgeBody" d="m488 608h-27v-1h253v-67"   marker-end="url(#g)" /></g></g><g id="ad" class="Interaction" color="#000" ><g color="#000" fill="transparent"  filter="url(#a)" stroke="#000" stroke-dasharray="160.25, 11"><path class="EdgeBody" d="m923 268.5v86.25h-85"   marker-end="url(#c)" /></g></g><g id="ae" class="Interaction" color="#000" ><g color="#000" fill="transparent"  filter="url(#a)" stroke="#000" stroke-dasharray="12, 11"><path class="EdgeBody" d="m454.5 276v23"   marker-end="url(#c)" /></g></g><g id="af" class="Interaction" color="#000" ><g color="#000" fill="transparent"  filter="url(#a)" stroke="#000" stroke-dasharray="11.5, 11"><path class="EdgeBody" d="m454.5 229.5v22.5"   marker-end="url(#c)" /></g></g><g id="ag" class="Interaction" color="#000" ><g color="#000" fill="transparent"  filter="url(#a)" stroke="#000" stroke-dasharray="31.637805994211313, 11"><path class="EdgeBody" d="m749 344.75-41.6 9.35"   marker-end="url(#c)" /></g></g><g id="ah" class="Interaction" color="#000" ><g color="#000" fill="transparent"  filter="url(#a)" stroke="#000" stroke-dasharray="20.808903620667245, 11"><path class="EdgeBody" d="m780 354.75 31.332-5.4869"   marker-end="url(#c)" /></g></g><g id="ai" class="Interaction" color="#000" ><g color="#000" fill="transparent"  filter="url(#a)" stroke="#000" stroke-dasharray="133.95, 5.8"><path class="EdgeBody" d="m214.25 367.25v-139.75"   marker-end="url(#d)" /></g><g class="Burr Anchor" transform="translate(214.25 335.88)" ><use class="Icon" width="0" height="0" fill="#141414" stroke-width="0" xlink:href="#b"/></g></g><g id="aj" class="Interaction" color="#000" ><g color="#000" fill="transparent"  filter="url(#a)" stroke="#000" stroke-dasharray="133.95, 5.8"><path class="EdgeBody" d="m172.75 227.5v139.75"   marker-end="url(#d)" /></g><g class="Burr Anchor" transform="translate(172.75,283.4)" ><use class="Icon" width="0" height="0" fill="#141414" stroke-width="0" xlink:href="#b"/></g></g><g id="ak" class="Interaction" color="#000" ><g color="#000" fill="transparent"  filter="url(#a)" stroke="#000" stroke-dasharray="135.60000000000002, 11"><path class="EdgeBody" d="m336.5 562.5v20h115v-11.6"   marker-end="url(#c)" /></g></g><g id="al" class="Interaction" color="#000" ><g color="#000" fill="transparent"  filter="url(#a)" stroke="#000" stroke-dasharray="119.64999999999998, 11"><path class="EdgeBody" d="m271 251h-20v32.4h-78.25"   marker-end="url(#c)" /></g></g><g id="am" class="Interaction" color="#000" ><g color="#000" fill="transparent"  filter="url(#a)" stroke="#000" stroke-dasharray="43.750136929076284, 11"><path class="EdgeBody" d="m269 336-54.75-0.12245"   marker-end="url(#f)" /></g></g><g id="an" class="Interaction" color="#000" ><g color="#000" fill="transparent"  filter="url(#a)" stroke="#000" stroke-dasharray="41.9717849425522, 11"><path class="EdgeBody" d="m649 133 52-10.1"   marker-end="url(#f)" /></g></g><g id="ao" class="Interaction" color="#000" ><g color="#000" fill="transparent"  filter="url(#a)" stroke="#000" stroke-dasharray="131, 1"><path class="EdgeBody" d="m193.5 432.5v132"   marker-end="url(#i)" /></g><g class="Burr Anchor" transform="translate(193.5,530)" ><use class="Icon" width="0" height="0" fill="#141414" stroke-width="0" xlink:href="#b"/></g></g><g id="ap" class="Interaction" color="#000" ><g color="#000" fill="transparent"  filter="url(#a)" stroke="#000" stroke-dasharray="95.70123151962247, 5.8"><path class="EdgeBody" d="m193.5 530 101.5-0.5"   marker-end="url(#d)" /></g></g><g class="SingleFreeNode Shape PhysicalEntity CellularComponent Cell" transform="translate(132.5,140)" color="#c0c0c0" ><g fill="transparent"  filter="url(#k)" stroke="#c0c0c0" stroke-width="3"><rect class="Icon" transform="matrix(.98624 0 0 .97767 5.9174 5.866)" width="860" height="525.5" rx="15" ry="15"   /></g></g><g class="SingleFreeNode Shape PhysicalEntity CellularComponent SarcoplasmicReticulum" transform="translate(610.5,233.5)" color="#c0c0c0"  name="sarcoplasmic reticulum"><use class="Icon" transform="matrix(.98915 0 0 .98007 1.4837 1.4701)" width="273.5" height="147.5" fill="transparent"  stroke="#c0c0c0" stroke-width="3" xlink:href="#l"/><text class="Text" transform="translate(136.75,77.75)" fill="#c0c0c0"  font-size="12px" stroke="black" stroke-width="0" text-anchor="middle"><tspan x="0" y="0">sarcoplasmic reticulum</tspan></text></g><g class="Label" transform="translate(589 72.5)" color="#000"  name="Ca2+ channels"><use class="Icon" width="90" height="25" fill="transparent"  stroke="#000" stroke-width="0" xlink:href="#b"/><text class="Text" transform="translate(45,16.5)"   font-size="12px"  text-anchor="middle"><tspan x="0" y="0">Ca2+ channels</tspan></text></g><g class="Label" transform="translate(189,478.5)" color="#000"  name="autophosphorylation"><use class="Icon" width="131" height="25" fill="transparent"  stroke="#000" stroke-width="0" xlink:href="#b"/><text class="Text" transform="translate(65.5,16.5)"   font-size="12px"  text-anchor="middle"><tspan x="0" y="0">autophosphorylation</tspan></text></g><g class="Label" transform="translate(271,238.5)" color="#000"  name="GEFs"><use class="Icon" width="54" height="25" fill="transparent"  stroke="#000" stroke-width="0" xlink:href="#b"/><text class="Text" transform="translate(27,16.5)"   font-size="12px"  text-anchor="middle"><tspan x="0" y="0">GEFs</tspan></text></g><g class="Label" transform="translate(240,65.5)" color="#000"  name="Beta agonists"><use class="Icon" width="90" height="25" fill="transparent"  stroke="#000" stroke-width="0" xlink:href="#b"/><text class="Text" transform="translate(45,16.5)"   font-size="12px"  text-anchor="middle"><tspan x="0" y="0">Beta agonists</tspan></text></g><g class="Label" transform="translate(355,624.5)" color="#000"  name="Myosin light chain phosphatase"><use class="Icon" width="189" height="25" fill="transparent"  stroke="#000" stroke-width="0" xlink:href="#b"/><text class="Text" transform="translate(94.5,16.5)"   font-size="12px"  text-anchor="middle"><tspan x="0" y="0">Myosin light chain phosphatase</tspan></text></g><g class="Label" transform="translate(736,562.5)" color="#000"  name="Muscle contraction"><use class="Icon" width="138" height="25" fill="transparent"  stroke="#000" stroke-width="0" xlink:href="#b"/><text class="Text" transform="translate(69,16.5)"   font-size="12px"  text-anchor="middle"><tspan x="0" y="0">Muscle contraction</tspan></text></g><g class="Label" transform="translate(884,80.5)" color="#000"  name="Label"><use class="Icon" width="90" height="25" fill="transparent"  stroke="#000" stroke-width="0" xlink:href="#b"/><text class="Text" transform="translate(45,16.5)"   font-size="12px"  text-anchor="middle"><tspan x="0" y="0">Label</tspan></text></g><g class="GroupGroup" transform="translate(152,111.5)" color="grey" ><use class="Icon" width="83" height="116" fill="transparent"  stroke="grey" stroke-dasharray="5,3" stroke-width="0" xlink:href="#b"/><g class="Label" transform="translate(8,8)" color="#000"  name="inactive"><use class="Icon" width="66" height="25" fill="transparent"  stroke="#000" stroke-width="0" xlink:href="#b"/><text class="Text" transform="translate(33,16.5)"   font-size="12px"  text-anchor="middle"><tspan x="0" y="0">inactive</tspan></text></g><a  class="GeneProduct GDI1 " transform="translate(20,83)"   name="GDI"  ><rect class="Icon" transform="matrix(.97727 0 0 .96154 .48864 .48077)" width="43" height="25" fill="#fff" stroke="#000"/><text class="Text" transform="translate(21.5,16.5)"   font-size="12px"  text-anchor="middle"><tspan x="0" y="0">GDI</tspan></text></a><a  class="GeneProduct RHOA " transform="translate(8,34.75)"   name="RHOA"  ><rect class="Icon" transform="matrix(.98529 0 0 .96154 .49265 .48077)" width="67" height="25" fill="#fff" stroke="#000"/><text class="Text" transform="translate(33.5,16.5)"   font-size="12px"  text-anchor="middle"><tspan x="0" y="0">RHOA</tspan></text></a><a class="ChEBI_CHEBI_17552 Metabolite  " transform="translate(8,59)" color="#00f"  name="GDP"  ><rect class="Icon" transform="matrix(.98529 0 0 .96154 .49265 .48077)" width="67" height="25" fill="#fff" stroke="#00f"/><text class="Text" transform="translate(33.5,16.5)" fill="#00f"  font-size="12px"  text-anchor="middle"><tspan x="0" y="0">GDP</tspan></text></a></g><g class="GroupGroup" transform="translate(408,291)" color="grey" ><use class="Icon" width="93" height="59.5" fill="transparent"  stroke="grey" stroke-dasharray="5,3" stroke-width="0" xlink:href="#b"/><g class="Label" transform="translate(10,26.5)" color="#000"  name="aka CP-17"><use class="Icon" width="73" height="25" fill="transparent"  stroke="#000" stroke-width="0" xlink:href="#b"/><text class="Text" transform="translate(36.5,16.5)"   font-size="12px"  text-anchor="middle"><tspan x="0" y="0">aka CP-17</tspan></text></g><a  class="GeneProduct PPP1R14A " transform="translate(8,8)"   name="PPP1R14A"  ><rect class="Icon" transform="matrix(.98718 0 0 .96226 .49359 .48113)" width="77" height="25.5" fill="#fff" stroke="#000"/><g class="Burr State" transform="translate(69.5,-7.5)" color="#000"  name="P"><use class="Icon" transform="matrix(.9375 0 0 .9375 .46875 .46875)" width="15" height="15" fill="#fff" stroke="#000" xlink:href="#e"/><text class="Text" transform="translate(7.5,10.5)"   font-size="10px"  text-anchor="middle"><tspan x="0" y="0">P</tspan></text></g><text class="Text" transform="translate(38.5,16.75)"   font-size="12px"  text-anchor="middle"><tspan x="0" y="0">PPP1R14A</tspan></text></a></g><a class="ChEBI_CHEBI_29108 Metabolite  " transform="translate(678,308)" color="#00f"  name="Ca2+"  ><rect class="Icon" transform="matrix(.98305 0 0 .95918 .49153 .47959)" width="58" height="23.5" fill="#fff" stroke="#00f"/><text class="Text" transform="translate(29,15.75)" fill="#00f"  font-size="12px"  text-anchor="middle"><tspan x="0" y="0">Ca2+</tspan></text></a><a  class="GeneProduct CD38 " transform="translate(893,132.5)"   name="CD38"  ><rect class="Icon" transform="matrix(.98387 0 0 .96154 .49194 .48077)" width="61" height="25" fill="#fff" stroke="#000"/><text class="Text" transform="translate(30.5,16.5)"   font-size="12px"  text-anchor="middle"><tspan x="0" y="0">CD38</tspan></text></a><a class="ChEBI_CHEBI_16595 Metabolite  " transform="translate(544,200.5)" color="#00f"  name="IP3"  ><rect class="Icon" transform="matrix(.98182 0 0 .96154 .49091 .48077)" width="54" height="25" fill="#fff" stroke="#00f"/><text class="Text" transform="translate(27,16.5)" fill="#00f"  font-size="12px"  text-anchor="middle"><tspan x="0" y="0">IP3</tspan></text></a><a  class="GeneProduct MYL1 " transform="translate(583,527.5)"   name="MYL"  ><rect class="Icon" transform="matrix(.98901 0 0 .96154 .49451 .48077)" width="90" height="25" fill="#fff" stroke="#000"/><text class="Text" transform="translate(45,16.5)"   font-size="12px"  text-anchor="middle"><tspan x="0" y="0">MYL</tspan></text></a><a class="ChEBI_CHEBI_18348 Metabolite  " transform="translate(485,129.5)" color="#00f"  name="PIP2"  ><rect class="Icon" transform="matrix(.98305 0 0 .96154 .49153 .48077)" width="58" height="25" fill="#fff" stroke="#00f"/><text class="Text" transform="translate(29,16.5)" fill="#00f"  font-size="12px"  text-anchor="middle"><tspan x="0" y="0">PIP2</tspan></text></a><a  class="GeneProduct PLCB1 " transform="translate(382,157.5)"   name="PLCB1"  ><rect class="Icon" transform="matrix(.98333 0 0 .96154 .49167 .48077)" width="59" height="25" fill="#fff" stroke="#000"/><text class="Text" transform="translate(29.5,16.5)"   font-size="12px"  text-anchor="middle"><tspan x="0" y="0">PLCB1</tspan></text></a><a class="ChEBI_CHEBI_18035 Metabolite  " transform="translate(426.5,204.5)" color="#00f"  name="DAG"  ><rect class="Icon" transform="matrix(.98246 0 0 .96154 .49123 .48077)" width="56" height="25" fill="#fff" stroke="#00f"/><text class="Text" transform="translate(28,16.5)" fill="#00f"  font-size="12px"  text-anchor="middle"><tspan x="0" y="0">DAG</tspan></text></a><a  class="GeneProduct ITPR3 " transform="translate(659,338.5)"   name="ITPR3 (IP3R)"  ><rect class="Icon" transform="matrix(.98901 0 0 .96154 .49451 .48077)" width="90" height="25" fill="#fff" stroke="#000"/><text class="Text" transform="translate(45,16.5)"   font-size="12px"  text-anchor="middle"><tspan x="0" y="0">ITPR3 (IP3R)</tspan></text></a><a  class="GeneProduct PPP1CB " transform="translate(415,529.5)"   name="MLCP"  ><rect class="Icon" transform="matrix(.98649 0 0 .96154 .49324 .48077)" width="73" height="25" fill="#fff" stroke="#000"/><text class="Text" transform="translate(36.5,16.5)"   font-size="12px"  text-anchor="middle"><tspan x="0" y="0">MLCP</tspan></text></a><a  class="GeneProduct GNAQ " transform="translate(272,156.5)"   name="GNAQ"  ><rect class="Icon" transform="matrix(.98113 0 0 .96154 .49057 .48077)" width="52" height="25" fill="#fff" stroke="#000"/><text class="Text" transform="translate(26,16.5)"   font-size="12px"  text-anchor="middle"><tspan x="0" y="0">GNAQ</tspan></text></a><g class="Ensembl_L7RSM7 Protein" transform="translate(429.5,252)" color="#000"  name="PKC"><rect class="Icon" transform="matrix(.98039 0 0 .96 .4902 .48)" width="50" height="24" fill="#fff" stroke="#000"/><text class="Text" transform="translate(25,16)"   font-size="12px"  text-anchor="middle"><tspan x="0" y="0">PKC</tspan></text></g><g class="Protein" transform="translate(269,323.5)" color="#000"  name="RhoGAP"><rect class="Icon" transform="matrix(.98413 0 0 .96154 .49206 .48077)" width="62" height="25" fill="#fff" stroke="#000"/><text class="Text" transform="translate(31,16.5)"   font-size="12px"  text-anchor="middle"><tspan x="0" y="0">RhoGAP</tspan></text></g><a  class="GeneProduct ADRB2 " transform="translate(240,132.5)"   name="GCPR"  ><rect class="Icon" transform="matrix(.98901 0 0 .96154 .49451 .48077)" width="90" height="25" fill="#fff" stroke="#000"/><text class="Text" transform="translate(45,16.5)"   font-size="12px"  text-anchor="middle"><tspan x="0" y="0">GCPR</tspan></text></a><a class="Protein IL13 " transform="translate(878,81.5)" color="#00f"  name="IL13"  ><rect class="Icon" transform="matrix(.98901 0 0 .96154 .49451 .48077)" width="90" height="25" fill="#fff" stroke="#00f"/><text class="Text" transform="translate(45,16.5)" fill="#00f"  font-size="12px"  text-anchor="middle"><tspan x="0" y="0">IL13</tspan></text></a><a class="ChEBI_CHEBI_31445 Metabolite  " transform="translate(878,243.5)" color="#00f"  name="cADPR"  ><rect class="Icon" transform="matrix(.98901 0 0 .96154 .49451 .48077)" width="90" height="25" fill="#fff" stroke="#00f"/><text class="Text" transform="translate(45,16.5)" fill="#00f"  font-size="12px"  text-anchor="middle"><tspan x="0" y="0">cADPR</tspan></text></a><g class="GroupGroup" transform="translate(295,496.5)" color="grey" ><use class="Icon" width="83" height="66" fill="transparent"  stroke="grey" stroke-dasharray="5,3" stroke-width="0" xlink:href="#b"/><a  class="GeneProduct ROCK1 " transform="translate(8,8)"   name="ROCK1"  ><rect class="Icon" transform="matrix(.98529 0 0 .96154 .49265 .48077)" width="67" height="25" fill="#fff" stroke="#000"/><g class="Burr State" transform="translate(59.5,-5.5)" color="#000"  name="P"><use class="Icon" transform="matrix(.9375 0 0 .9375 .46875 .46875)" width="15" height="15" fill="#fff" stroke="#000" xlink:href="#e"/><text class="Text" transform="translate(7.5,10.5)"   font-size="10px"  text-anchor="middle"><tspan x="0" y="0">P</tspan></text></g><text class="Text" transform="translate(33.5,16.5)"   font-size="12px"  text-anchor="middle"><tspan x="0" y="0">ROCK1</tspan></text></a><a  class="GeneProduct ROCK2 " transform="translate(8,33)"   name="ROCK2"  ><rect class="Icon" transform="matrix(.98529 0 0 .96154 .49265 .48077)" width="67" height="25" fill="#fff" stroke="#000"/><text class="Text" transform="translate(33.5,16.5)"   font-size="12px"  text-anchor="middle"><tspan x="0" y="0">ROCK2</tspan></text></a></g><g class="GroupGroup" transform="translate(649 87.5)" color="grey" ><use class="Icon" width="106" height="91" fill="transparent"  stroke="grey" stroke-dasharray="5,3" stroke-width="0" xlink:href="#b"/><g class="Complex" transform="translate(8,8)" color="#000"  name="VGCC"><rect class="Icon" transform="matrix(.98901 0 0 .96154 .49451 .48077)" width="90" height="25" fill="#fff" stroke="#000"/><text class="Text" transform="translate(45,16.5)"   font-size="12px"  text-anchor="middle"><tspan x="0" y="0">VGCC</tspan></text></g><g class="Complex" transform="translate(8,33)" color="#000"  name="SOCC"><rect class="Icon" transform="matrix(.98901 0 0 .96154 .49451 .48077)" width="90" height="25" fill="#fff" stroke="#000"/><text class="Text" transform="translate(45,16.5)"   font-size="12px"  text-anchor="middle"><tspan x="0" y="0">SOCC</tspan></text></g><g class="Complex" transform="translate(8,58)" color="#000"  name="ROCC"><rect class="Icon" transform="matrix(.98901 0 0 .96154 .49451 .48077)" width="90" height="25" fill="#fff" stroke="#000"/><text class="Text" transform="translate(45,16.5)"   font-size="12px"  text-anchor="middle"><tspan x="0" y="0">ROCC</tspan></text></g></g><g class="GroupGroup" transform="translate(661,470.5)" color="grey" ><use class="Icon" width="196" height="41" fill="transparent"  stroke="grey" stroke-dasharray="5,3" stroke-width="0" xlink:href="#b"/><a  class="GeneProduct MYLK " transform="translate(8,8)"   name="MYLK"  ><rect class="Icon" transform="matrix(.98901 0 0 .96154 .49451 .48077)" width="90" height="25" fill="#fff" stroke="#000"/><text class="Text" transform="translate(45,16.5)"   font-size="12px"  text-anchor="middle"><tspan x="0" y="0">MYLK</tspan></text></a><g class="Uniprot-TrEMBL_G3V226 Protein CALM1 " transform="translate(98,8)" color="#000"  name="Calmodulin"><rect class="Icon" transform="matrix(.98901 0 0 .96154 .49451 .48077)" width="90" height="25" fill="#fff" stroke="#000"/><text class="Text" transform="translate(45,16.5)"   font-size="12px"  text-anchor="middle"><tspan x="0" y="0">Calmodulin</tspan></text></g></g><a class="ChEBI_CHEBI_29108 Metabolite  " transform="translate(679,388)" color="#00f"  name="Ca2+"  ><rect class="Icon" transform="matrix(.98305 0 0 .95918 .49153 .47959)" width="58" height="23.5" fill="#fff" stroke="#00f"/><text class="Text" transform="translate(29,15.75)" fill="#00f"  font-size="12px"  text-anchor="middle"><tspan x="0" y="0">Ca2+</tspan></text></a><a  class="GeneProduct MYL1 " transform="translate(749,527.5)"   name="MYL"  ><rect class="Icon" transform="matrix(.98901 0 0 .96154 .49451 .48077)" width="90" height="25" fill="#fff" stroke="#000"/><g class="Burr State" transform="translate(82.5,-4.5)" color="#000"  name="P"><use class="Icon" transform="matrix(.9375 0 0 .9375 .46875 .46875)" width="15" height="15" fill="#fff" stroke="#000" xlink:href="#e"/><text class="Text" transform="translate(7.5,10.5)"   font-size="10px"  text-anchor="middle"><tspan x="0" y="0">P</tspan></text></g><text class="Text" transform="translate(45,16.5)"   font-size="12px"  text-anchor="middle"><tspan x="0" y="0">MYL</tspan></text></a><a class="ChEBI_CHEBI_29108 Metabolite  " transform="translate(782,307)" color="#00f"  name="Ca2+"  ><rect class="Icon" transform="matrix(.98305 0 0 .95918 .49153 .47959)" width="58" height="23.5" fill="#fff" stroke="#00f"/><text class="Text" transform="translate(29,15.75)" fill="#00f"  font-size="12px"  text-anchor="middle"><tspan x="0" y="0">Ca2+</tspan></text></a><a class="ChEBI_CHEBI_29108 Metabolite  " transform="translate(783,387)" color="#00f"  name="Ca2+"  ><rect class="Icon" transform="matrix(.98305 0 0 .95918 .49153 .47959)" width="58" height="23.5" fill="#fff" stroke="#00f"/><text class="Text" transform="translate(29,15.75)" fill="#00f"  font-size="12px"  text-anchor="middle"><tspan x="0" y="0">Ca2+</tspan></text></a><g id="aq" class="Interaction" color="#000" ><g color="#000" fill="transparent"  filter="url(#a)" stroke="#000" stroke-dasharray="50.708848864580496, 5.8"><path class="EdgeBody" d="m811 330.5 1 56.5"   marker-end="url(#d)" /></g><g class="Burr Anchor" transform="translate(811.33 349.26)" ><use class="Icon" width="0" height="0" fill="#141414" stroke-width="0" xlink:href="#b"/></g></g><a  class="Protein RYR1 " transform="translate(780,340)"   name="RYR"  ><rect class="Icon" transform="matrix(.98305 0 0 .96721 .49153 .48361)" width="58" height="29.5" fill="#fff" stroke="#000"/><text class="Text" transform="translate(29,18.75)"   font-size="12px"  text-anchor="middle"><tspan x="0" y="0">RYR</tspan></text></a><a class="ChEBI_CHEBI_29108 Metabolite  " transform="translate(672 50)" color="#00f"  name="Ca2+"  ><rect class="Icon" transform="matrix(.98305 0 0 .95918 .49153 .47959)" width="58" height="23.5" fill="#fff" stroke="#00f"/><text class="Text" transform="translate(29,15.75)" fill="#00f"  font-size="12px"  text-anchor="middle"><tspan x="0" y="0">Ca2+</tspan></text></a><a class="ChEBI_CHEBI_29108 Metabolite  " transform="translate(672 197)" color="#00f"  name="Ca2+"  ><rect class="Icon" transform="matrix(.98305 0 0 .95918 .49153 .47959)" width="58" height="23.5" fill="#fff" stroke="#00f"/><text class="Text" transform="translate(29,15.75)" fill="#00f"  font-size="12px"  text-anchor="middle"><tspan x="0" y="0">Ca2+</tspan></text></a><a  class="Protein PPP1CB " transform="translate(415,595.5)"   name="MLCP"  ><rect class="Icon" transform="matrix(.98649 0 0 .96154 .49324 .48077)" width="73" height="25" fill="#fff" stroke="#000"/><g class="Burr State" transform="translate(65.5,-5.5)" color="#000"  name="P"><use class="Icon" transform="matrix(.9375 0 0 .9375 .46875 .46875)" width="15" height="15" fill="#fff" stroke="#000" xlink:href="#e"/><text class="Text" transform="translate(7.5,10.5)"   font-size="10px"  text-anchor="middle"><tspan x="0" y="0">P</tspan></text></g><text class="Text" transform="translate(36.5,16.5)"   font-size="12px"  text-anchor="middle"><tspan x="0" y="0">MLCP</tspan></text></a><g class="GroupGroup" transform="translate(152,367.25)" color="grey" ><use class="Icon" width="83" height="65.25" fill="transparent"  stroke="grey" stroke-dasharray="5,3" stroke-width="0" xlink:href="#b"/><a class="ChEBI_CHEBI_37565 Metabolite  " transform="translate(8,32.25)" color="#00f"  name="GTP"  ><rect class="Icon" transform="matrix(.98529 0 0 .96154 .49265 .48077)" width="67" height="25" fill="#fff" stroke="#00f"/><text class="Text" transform="translate(33.5,16.5)" fill="#00f"  font-size="12px"  text-anchor="middle"><tspan x="0" y="0">GTP</tspan></text></a><a  class="GeneProduct RHOA " transform="translate(8,8)"   name="RHOA"  ><rect class="Icon" transform="matrix(.98529 0 0 .96154 .49265 .48077)" width="67" height="25" fill="#fff" stroke="#000"/><text class="Text" transform="translate(33.5,16.5)"   font-size="12px"  text-anchor="middle"><tspan x="0" y="0">RHOA</tspan></text></a></g><g id="ar" class="Interaction" color="#000" ><g color="#000" fill="transparent"  filter="url(#a)" stroke="#000" stroke-dasharray="34.15361924162119, 18"><path class="EdgeBody" d="m441 170 44-28"   marker-end="url(#h)" /></g></g><g class="GroupGroup" transform="translate(152,564.5)" color="grey" ><use class="Icon" width="83" height="66" fill="transparent"  stroke="grey" stroke-dasharray="5,3" stroke-width="0" xlink:href="#b"/><a  class="GeneProduct ROCK1 " transform="translate(8,8)"   name="ROCK1"  ><rect class="Icon" transform="matrix(.98529 0 0 .96154 .49265 .48077)" width="67" height="25" fill="#fff" stroke="#000"/><text class="Text" transform="translate(33.5,16.5)"   font-size="12px"  text-anchor="middle"><tspan x="0" y="0">ROCK1</tspan></text></a><a  class="GeneProduct ROCK2 " transform="translate(8,33)"   name="ROCK2"  ><rect class="Icon" transform="matrix(.98529 0 0 .96154 .49265 .48077)" width="67" height="25" fill="#fff" stroke="#000"/><text class="Text" transform="translate(33.5,16.5)"   font-size="12px"  text-anchor="middle"><tspan x="0" y="0">ROCK2</tspan></text></a></g><text class="Text" transform="translate(5,27)" dominant-baseline="central" fill="black"  font-size="12px" font-weight="bold" overflow="visible" ><tspan x="0" y="-9">Name: Airway smooth muscle cell contraction</tspan> <tspan x="0" y="9">Organism: Homo sapiens</tspan></text></g></svg>
