<?xml version="1.0" encoding="UTF-8"?>
<!--
  WikiPathways page: https://www.wikipathways.org/index.php/Pathway:WP4944
  URL for this compressed file: https://github.com/eweitz/cachome/tree/main/data/wikipathways/WP4944.svg
  Source code for compression: https://github.com/eweitz/cachome/tree/main/src/wikipathways.py
-->
<svg class="Diagram" width="800" height="600" color="black" baseProfile="full" prefix="schema:http://schema.org/" preserveAspectRatio="xMidYMid" version="1.1" viewBox="0 0 821.97 1016.1" vocab="http://vocabularies.wikipathways.org/wp#" xmlns="http://www.w3.org/2000/svg" xmlns:xlink="http://www.w3.org/1999/xlink"><style>svg {font-family: 'Liberation Sans', Arial, sans-serif; }</style><defs><filter id="a" x="0" y="0" width="821.97" height="1016.1" filterUnits="userSpaceOnUse"><feColorMatrix in="SourceGraphic" values="-1   0   0 0 0                   0  -1   0 0 0                   0   0  -1 0 0                   0   0   0 1 0"/></filter><marker id="b" stroke-dasharray="99999" markerHeight="12" markerUnits="userSpaceOnUse" markerWidth="12" orient="auto" preserveAspectRatio="none" refX="12" refY="6" viewBox="0 0 12 12"><path transform="rotate(180 6 6)" d="M12 11L0 6l12-5z" fill="currentColor" stroke-width="0"/></marker></defs><g class="Viewport" color="black"  name="Name: Mitochondrial complex I inhibition leading to chemical-induced Fanconi syndrome Organism: Homo sapiens"><rect class="Icon" width="821.97" height="1016.1" fill="#fff" stroke="#000" stroke-width="0"/><g id="c" class="Interaction" color="#000" ><g color="#000" fill="transparent"  filter="url(#a)" stroke="#000" stroke-dasharray="30.902288980876513, 0"><path class="EdgeBody" d="m517.54 151.55 13.431 27.831"   /></g></g><g id="d" class="Interaction" color="#000" ><g color="#000" fill="transparent"  filter="url(#a)" stroke="#000" stroke-dasharray="0, 0"><path class="EdgeBody" d="m555.29 555.19"   /></g></g><g id="e" class="Interaction" color="#000" ><g color="#000" fill="transparent"  filter="url(#a)" stroke="#000" stroke-dasharray="2.842170943040401e-14, 0"><path class="EdgeBody" d="m179.94 553.97h3e-14"   /></g></g><g id="f" class="Interaction" color="#000" ><g color="#000" fill="transparent"  filter="url(#a)" stroke="#000" stroke-dasharray="25, 0"><path class="EdgeBody" d="m555.29 555.19v25"   /></g></g><g id="g" class="Interaction" color="#000" ><g color="#000" fill="transparent"  filter="url(#a)" stroke="#000" stroke-dasharray="24.999999999999886, 0"><path class="EdgeBody" d="m179.94 553.97 3e-14 25"   /></g></g><g id="h" class="Interaction" color="#000" ><g color="#000" fill="transparent"  filter="url(#a)" stroke="#000" stroke-dasharray="50, 0"><path class="EdgeBody" d="m555.29 555.19v50"   /></g></g><g id="i" class="Interaction" color="#000" ><g color="#000" fill="transparent"  filter="url(#a)" stroke="#000" stroke-dasharray="75, 0"><path class="EdgeBody" d="m555.29 555.19 1e-13 75"   /></g></g><g id="j" class="Interaction" color="#000" ><g color="#000" fill="transparent"  filter="url(#a)" stroke="#000" stroke-dasharray="31.364217230903378, 0"><path class="EdgeBody" d="m517.54 207.72 13.431-28.343"   /></g></g><g id="k" class="Interaction" color="#000" ><g color="#000" fill="transparent"  filter="url(#a)" stroke="#000" stroke-dasharray="1.6077746776921858e-13, 0"><path class="EdgeBody" d="m371.25 831.46 1.4e-13 -1e-13"   /></g></g><g id="l" class="Interaction" color="#000" ><g color="#000" fill="transparent"  filter="url(#a)" stroke="#000" stroke-dasharray="69.76481137543482, 0"><path class="EdgeBody" d="m436.97 390-64.938 25.5"   /></g></g><g id="m" class="Interaction" color="#000" ><g color="#000" fill="transparent"  filter="url(#a)" stroke="#000" stroke-dasharray="92.87928994129967, 0"><path class="EdgeBody" d="m372.04 314.5 92-12.75"   /></g></g><g id="n" class="DirectedInteraction" color="#000" ><g color="#000" fill="transparent"  filter="url(#a)" stroke="#000" stroke-dasharray="14.874140532126159, 5.8"><path class="EdgeBody" d="m372.04 169.3 1.2e-13 20.674"   marker-end="url(#b)" /></g></g><g class="AOP-Wiki_KE_888 Event" transform="translate(226.54 133.8)" color="#000"  name="KE888: Binding of inhibitor,  NADH-ubiquinone oxidoreductase (complex I)"><rect class="Icon" transform="matrix(.99658 0 0 .9726 .49829 .4863)" width="291" height="35.5" fill="#fff" stroke="#000"/><text class="Text" transform="translate(145.5,21.75)"   font-size="12px"  text-anchor="middle"><tspan x="0" y="-6.6000000000000005">KE888: Binding of inhibitor, </tspan> <tspan x="0" y="6.6000000000000005">NADH-ubiquinone oxidoreductase (complex I)</tspan></text></g><g id="o" class="DirectedInteraction" color="#000" ><g color="#000" fill="transparent"  filter="url(#a)" stroke="#000" stroke-dasharray="75.28149877938495, 5.8"><path class="EdgeBody" d="m434 81.5-61.963 52.295"   marker-end="url(#b)" /></g></g><g id="p" class="DirectedInteraction" color="#000" ><g color="#000" fill="transparent"  filter="url(#a)" stroke="#000" stroke-dasharray="57.73053783044669, 5.8"><path class="EdgeBody" d="m372.04 225.47-5e-14 63.531"   marker-end="url(#b)" /></g></g><g id="q" class="DirectedInteraction" color="#000" ><g color="#000" fill="transparent"  filter="url(#a)" stroke="#000" stroke-dasharray="217.0554175094018, 5.8"><path class="EdgeBody" d="m372.04 415.5-192.1 112.97"   marker-end="url(#b)" /></g></g><g id="r" class="DirectedInteraction" color="#000" ><g color="#000" fill="transparent"  filter="url(#a)" stroke="#000" stroke-dasharray="305.25726942259246, 5.8"><path class="EdgeBody" d="m555.29 555.19-184.04 250.77"   marker-end="url(#b)" /></g></g><g id="s" class="DirectedInteraction" color="#000" ><g color="#000" fill="transparent"  filter="url(#a)" stroke="#000" stroke-dasharray="210.12048664465257, 5.8"><path class="EdgeBody" d="m372.04 415.5 183.25 114.19"   marker-end="url(#b)" /></g></g><g id="t" class="DirectedInteraction" color="#000" ><g color="#000" fill="transparent"  filter="url(#a)" stroke="#000" stroke-dasharray="182.83651588878874, 5.8"><path class="EdgeBody" d="m275.98 541.22 188.63 1.2186"   marker-end="url(#b)" /></g></g><g id="u" class="DirectedInteraction" color="#000" ><g color="#000" fill="transparent"  filter="url(#a)" stroke="#000" stroke-dasharray="123.37830322092078, 5.8"><path class="EdgeBody" d="m371.25 831.46 0.7837 129.18"   marker-end="url(#b)" /></g></g><g id="v" class="DirectedInteraction" color="#000" ><g color="#000" fill="transparent"  filter="url(#a)" stroke="#000" stroke-dasharray="67.9743443803873, 5.8"><path class="EdgeBody" d="m320 81.5 52.037 52.295"   marker-end="url(#b)" /></g></g><g id="w" class="DirectedInteraction" color="#000" ><g color="#000" fill="transparent"  filter="url(#a)" stroke="#000" stroke-dasharray="310.58689444262995, 5.8"><path class="EdgeBody" d="m179.94 553.97 191.31 251.99"   marker-end="url(#b)" /></g></g><a class="WikiPathways_WP4923 Pathway " transform="translate(502.98 605.19)" color="#14961e"  name="Autophagy"  ><rect class="Icon" transform="matrix(.99053 0 0 .96154 .49527 .48077)" width="104.62" height="25" rx="15" ry="15" fill="#fff" stroke="#14961e"/><text class="Text" transform="translate(52.31 16.5)" fill="#14961e"  font-size="12px" font-weight="bold" stroke="black" stroke-width="0" text-anchor="middle"><tspan x="0" y="0">Autophagy</tspan></text></a><g class="WikiPathways_WP5022 Pathway" transform="translate(502.98 580.19)" color="#14961e"  name="Necrosis"><rect class="Icon" transform="matrix(.99053 0 0 .96154 .49527 .48077)" width="104.62" height="25" rx="15" ry="15" fill="#fff" stroke="#14961e"/><text class="Text" transform="translate(52.31 16.5)" fill="#14961e"  font-size="12px" font-weight="bold" stroke="black" stroke-width="0" text-anchor="middle"><tspan x="0" y="0">Necrosis</tspan></text></g><a class="ChEBI_CHEBI_4357 Metabolite  " transform="translate(275,56.5)" color="#00f"  name="Deguelin"  ><rect class="Icon" transform="matrix(.98901 0 0 .96154 .49451 .48077)" width="90" height="25" fill="#fff" stroke="#00f"/><text class="Text" transform="translate(45,16.5)" fill="#00f"  font-size="12px"  text-anchor="middle"><tspan x="0" y="0">Deguelin</tspan></text></a><a class="WikiPathways_WP4917 Pathway " transform="translate(206.72 831.46)" color="#14961e"  name="Decreased proximal tubule vectorial transport"  ><rect class="Icon" transform="matrix(.99697 0 0 .96154 .49849 .48077)" width="329.06" height="25" rx="15" ry="15" fill="#fff" stroke="#14961e"/><text class="Text" transform="translate(164.53 16.5)" fill="#14961e"  font-size="12px" font-weight="bold" stroke="black" stroke-width="0" text-anchor="middle"><tspan x="0" y="0">Decreased proximal tubule vectorial transport</tspan></text></a><a class="WikiPathways_WP111 Pathway " transform="translate(187.79 314.5)" color="#14961e"  name="Decreased mitochondrial oxidative phosphorylation"  ><rect class="Icon" transform="matrix(.99729 0 0 .96226 .49865 .48113)" width="368.5" height="25.5" rx="15" ry="15" fill="#fff" stroke="#14961e"/><text class="Text" transform="translate(184.25,16.75)" fill="#14961e"  font-size="12px" font-weight="bold" stroke="black" stroke-width="0" text-anchor="middle"><tspan x="0" y="0">Decreased mitochondrial oxidative phosphorylation</tspan></text></a><a class="WikiPathways_WP1772 Pathway " transform="translate(502.98 555.19)" color="#14961e"  name="Apoptosis"  ><rect class="Icon" transform="matrix(.99053 0 0 .96154 .49527 .48077)" width="104.62" height="25" rx="15" ry="15" fill="#fff" stroke="#14961e"/><text class="Text" transform="translate(52.31 16.5)" fill="#14961e"  font-size="12px" font-weight="bold" stroke="black" stroke-width="0" text-anchor="middle"><tspan x="0" y="0">Apoptosis</tspan></text></a><a class="WikiPathways_WP4313 Pathway " transform="translate(502.98 630.19)" color="#14961e"  name="Ferroptosis"  ><rect class="Icon" transform="matrix(.99053 0 0 .96154 .49527 .48077)" width="104.62" height="25" rx="15" ry="15" fill="#fff" stroke="#14961e"/><text class="Text" transform="translate(52.31 16.5)" fill="#14961e"  font-size="12px" font-weight="bold" stroke="black" stroke-width="0" text-anchor="middle"><tspan x="0" y="0">Ferroptosis</tspan></text></a><a class="WikiPathways_WP4324 Pathway " transform="translate(530.97 166.88)" color="#14961e"  name="Assembly of mitochondrial complex I"  ><rect class="Icon" transform="matrix(.99618 0 0 .96154 .49809 .48077)" width="261" height="25" rx="15" ry="15" fill="#fff" stroke="#14961e"/><text class="Text" transform="translate(130.5,16.5)" fill="#14961e"  font-size="12px" font-weight="bold" stroke="black" stroke-width="0" text-anchor="middle"><tspan x="0" y="0">Assembly of mitochondrial complex I</tspan></text></a><a class="WikiPathways_WP3941 Pathway " transform="translate(278.09 415.5)" color="#14961e"  name="Oxidative stress response"  ><rect class="Icon" transform="matrix(.99471 0 0 .96154 .49735 .48077)" width="187.89" height="25" rx="15" ry="15" fill="#fff" stroke="#14961e"/><text class="Text" transform="translate(93.945 16.5)" fill="#14961e"  font-size="12px" font-weight="bold" stroke="black" stroke-width="0" text-anchor="middle"><tspan x="0" y="0">Oxidative stress response</tspan></text></a><a class="WikiPathways_WP4918 Pathway " transform="translate(94.787 553.97)" color="#14961e"  name="Impaired proteostasis"  ><rect class="Icon" transform="matrix(.99416 0 0 .96154 .49708 .48077)" width="170.3" height="25" rx="15" ry="15" fill="#fff" stroke="#14961e"/><text class="Text" transform="translate(85.151 16.5)" fill="#14961e"  font-size="12px" font-weight="bold" stroke="black" stroke-width="0" text-anchor="middle"><tspan x="0" y="0">Impaired proteostasis</tspan></text></a><a class="WikiPathways_WP4925 Pathway " transform="translate(82.351 578.97)" color="#14961e"  name="Unfolded Protein Response"  ><rect class="Icon" transform="matrix(.9949 0 0 .96154 .49745 .48077)" width="195.17" height="25" rx="15" ry="15" fill="#fff" stroke="#14961e"/><text class="Text" transform="translate(97.587 16.5)" fill="#14961e"  font-size="12px" font-weight="bold" stroke="black" stroke-width="0" text-anchor="middle"><tspan x="0" y="0">Unfolded Protein Response</tspan></text></a><g class="AOP-Wiki_Stressor_50 Event" transform="translate(389,56.5)" color="#00f"  name="Rotenone"><rect class="Icon" transform="matrix(.98901 0 0 .96154 .49451 .48077)" width="90" height="25" fill="#fff" stroke="#00f"/><text class="Text" transform="translate(45,16.5)" fill="#00f"  font-size="12px"  text-anchor="middle"><tspan x="0" y="0">Rotenone</tspan></text></g><g class="AOP-Wiki_KE_887 Event" transform="translate(226.54 189.97)" color="#000"  name="KE887: Inhibition,  NADH-ubiquinone oxidoreductase (complex I)"><rect class="Icon" transform="matrix(.99658 0 0 .9726 .49829 .4863)" width="291" height="35.5" fill="#fff" stroke="#000"/><text class="Text" transform="translate(145.5,21.75)"   font-size="12px"  text-anchor="middle"><tspan x="0" y="-6.6000000000000005">KE887: Inhibition, </tspan> <tspan x="0" y="6.6000000000000005">NADH-ubiquinone oxidoreductase (complex I)</tspan></text></g><g class="AOP-Wiki_KE_1477 Event" transform="translate(280.04 289)" color="#000"  name="KE1477: Decrease, OXPHOS"><rect class="Icon" transform="matrix(.99459 0 0 .96226 .4973 .48113)" width="184" height="25.5" fill="#fff" stroke="#000"/><text class="Text" transform="translate(92,16.75)"   font-size="12px"  text-anchor="middle"><tspan x="0" y="0">KE1477: Decrease, OXPHOS</tspan></text></g><g class="AOP-Wiki_KE_1562 Event" transform="translate(242.16 390)" color="#000"  name="KE1562: Decreased Na/K ATPase activity"><rect class="Icon" transform="matrix(.99616 0 0 .96226 .49808 .48113)" width="259.75" height="25.5" fill="#fff" stroke="#000"/><text class="Text" transform="translate(129.88 16.75)"   font-size="12px"  text-anchor="middle"><tspan x="0" y="0">KE1562: Decreased Na/K ATPase activity</tspan></text></g><g id="x" class="DirectedInteraction" color="#000" ><g color="#000" fill="transparent"  filter="url(#a)" stroke="#000" stroke-dasharray="69.7, 5.8"><path class="EdgeBody" d="m372.04 314.5 5e-14 75.5"   marker-end="url(#b)" /></g></g><g class="AOP-Wiki_KE_1563 Event" transform="translate(195.25 805.96)" color="#000"  name="KE1563: Decreased proximal tubular vectorial transport"><rect class="Icon" transform="matrix(.99717 0 0 .96226 .49858 .48113)" width="352" height="25.5" fill="#fff" stroke="#000"/><text class="Text" transform="translate(176,16.75)"   font-size="12px"  text-anchor="middle"><tspan x="0" y="0">KE1563: Decreased proximal tubular vectorial transport</tspan></text></g><g class="AOP-Wiki_KE_1564 Event" transform="translate(225.54 960.64)" color="#000"  name="KE1564: Chemical induced Fanconi syndrome"><rect class="Icon" transform="matrix(.9966 0 0 .96226 .4983 .48113)" width="292.99" height="25.5" fill="#fff" stroke="#000"/><text class="Text" transform="translate(146.5 16.75)"   font-size="12px"  text-anchor="middle"><tspan x="0" y="0">KE1564: Chemical induced Fanconi syndrome</tspan></text></g><g class="AOP-Wiki_KE_55 Event" transform="translate(464.61 529.69)" color="#000"  name="KE55: N/A, Cell injury/death"><rect class="Icon" transform="matrix(.99452 0 0 .96226 .49726 .48113)" width="181.37" height="25.5" fill="#fff" stroke="#000"/><text class="Text" transform="translate(90.683 16.75)"   font-size="12px"  text-anchor="middle"><tspan x="0" y="0">KE55: N/A, Cell injury/death</tspan></text></g><g class="AOP-Wiki_KE_889 Event" transform="translate(83.902 528.47)" color="#000"  name="KE889: Impaired, Proteostasis"><rect class="Icon" transform="matrix(.99482 0 0 .96226 .49741 .48113)" width="192.07" height="25.5" fill="#fff" stroke="#000"/><text class="Text" transform="translate(96.037 16.75)"   font-size="12px"  text-anchor="middle"><tspan x="0" y="0">KE889: Impaired, Proteostasis</tspan></text></g><text class="Text" transform="translate(5,27)" dominant-baseline="central" fill="black"  font-size="12px" font-weight="bold" overflow="visible" ><tspan x="0" y="-9">Name: Mitochondrial complex I inhibition leading to chemical-induced Fanconi syndrome</tspan> <tspan x="0" y="9">Organism: Homo sapiens</tspan></text></g></svg>
