<?xml version="1.0" encoding="UTF-8"?>
<!--
  WikiPathways page: https://www.wikipathways.org/index.php/Pathway:WP509
  URL for this compressed file: https://github.com/eweitz/cachome/tree/main/data/wikipathways/WP509.svg
  Source code for compression: https://github.com/eweitz/cachome/tree/main/src/wikipathways.py
-->
<svg class="Diagram" width="800" height="600" color="black" baseProfile="full" prefix="schema:http://schema.org/" preserveAspectRatio="xMidYMid" version="1.1" viewBox="0 0 1003.2 810" vocab="http://vocabularies.wikipathways.org/wp#" xmlns="http://www.w3.org/2000/svg" xmlns:xlink="http://www.w3.org/1999/xlink"><style>svg {font-family: 'Liberation Sans', Arial, sans-serif; }</style><defs><symbol id="a" preserveAspectRatio="none" viewBox="0 0 100 100"/></defs><g class="Viewport" color="black"  name="Name: Nuclear Receptors Organism: Mus musculus"><rect class="Icon" width="1003.2" height="810" fill="#fff" stroke="#000" stroke-width="0"/><g class="Label" transform="translate(14.167 97.167)" color="#000"  name="Thyroid Receptor"><use class="Icon" width="138.33333333333334" height="19" fill="transparent"  stroke="#000" stroke-width="0" xlink:href="#a"/><text class="Text" transform="translate(69.167 13.5)"   font-size="12px" font-weight="bold"  text-anchor="middle"><tspan x="0" y="0">Thyroid Receptor</tspan></text></g><g class="Label" transform="translate(477.33 95.167)" color="#000"  name="Peroxisome Proliferator Activated Receptor"><use class="Icon" width="151.66666666666666" height="30.833333333333332" fill="transparent"  stroke="#000" stroke-width="0" xlink:href="#a"/><text class="Text" transform="translate(75.833 19.417)"   font-size="12px" font-weight="bold"  text-anchor="middle"><tspan x="0" y="-6.6000000000000005">Peroxisome Proliferator</tspan> <tspan x="0" y="6.6000000000000005">Activated Receptor</tspan></text></g><g class="Label" transform="translate(60.833 240.5)" color="#000"  name="Nuclear Receptor ROR"><use class="Icon" width="178.33333333333334" height="19" fill="transparent"  stroke="#000" stroke-width="0" xlink:href="#a"/><text class="Text" transform="translate(89.167 13.5)"   font-size="12px" font-weight="bold"  text-anchor="middle"><tspan x="0" y="0">Nuclear Receptor ROR</tspan></text></g><g class="Label" transform="translate(302.67 240.5)" color="#000"  name="Oxysterols Receptor"><use class="Icon" width="161.33333333333334" height="19" fill="transparent"  stroke="#000" stroke-width="0" xlink:href="#a"/><text class="Text" transform="translate(80.667 13.5)"   font-size="12px" font-weight="bold"  text-anchor="middle"><tspan x="0" y="0">Oxysterols Receptor</tspan></text></g><g class="Label" transform="translate(516,240.5)" color="#000"  name="Vitamin D3 Receptor"><use class="Icon" width="161.33333333333334" height="19" fill="transparent"  stroke="#000" stroke-width="0" xlink:href="#a"/><text class="Text" transform="translate(80.667 13.5)"   font-size="12px" font-weight="bold"  text-anchor="middle"><tspan x="0" y="0">Vitamin D3 Receptor</tspan></text></g><g class="Label" transform="translate(19.167 407.17)" color="#000"  name="Hepatocyte Nuclear Factor"><use class="Icon" width="208.33333333333334" height="19" fill="transparent"  stroke="#000" stroke-width="0" xlink:href="#a"/><text class="Text" transform="translate(104.17 13.5)"   font-size="12px" font-weight="bold"  text-anchor="middle"><tspan x="0" y="0">Hepatocyte Nuclear Factor</tspan></text></g><g class="Label" transform="translate(240.33 407.17)" color="#000"  name="Retinoic Acid Receptor RXR"><use class="Icon" width="219.33333333333334" height="19" fill="transparent"  stroke="#000" stroke-width="0" xlink:href="#a"/><text class="Text" transform="translate(109.67 13.5)"   font-size="12px" font-weight="bold"  text-anchor="middle"><tspan x="0" y="0">Retinoic Acid Receptor RXR</tspan></text></g><g class="Label" transform="translate(477 407.17)" color="#000"  name="Orphan Nuclear Receptor"><use class="Icon" width="199.33333333333334" height="19" fill="transparent"  stroke="#000" stroke-width="0" xlink:href="#a"/><text class="Text" transform="translate(99.667 13.5)"   font-size="12px" font-weight="bold"  text-anchor="middle"><tspan x="0" y="0">Orphan Nuclear Receptor</tspan></text></g><g class="Label" transform="translate(39.667 480.5)" color="#000"  name="Nuclear receptor TLX"><use class="Icon" width="167.33333333333334" height="19" fill="transparent"  stroke="#000" stroke-width="0" xlink:href="#a"/><text class="Text" transform="translate(83.667 13.5)"   font-size="12px" font-weight="bold"  text-anchor="middle"><tspan x="0" y="0">Nuclear receptor TLX</tspan></text></g><g class="Label" transform="translate(693.5 407.17)" color="#000"  name="Coup Transcription Factor"><use class="Icon" width="206.33333333333334" height="19" fill="transparent"  stroke="#000" stroke-width="0" xlink:href="#a"/><text class="Text" transform="translate(103.17 13.5)"   font-size="12px" font-weight="bold"  text-anchor="middle"><tspan x="0" y="0">Coup Transcription Factor</tspan></text></g><g class="Label" transform="translate(5.3333 597.17)" color="#000"  name="Estrogen Receptor"><use class="Icon" width="149.33333333333334" height="19" fill="transparent"  stroke="#000" stroke-width="0" xlink:href="#a"/><text class="Text" transform="translate(74.667 13.5)"   font-size="12px" font-weight="bold"  text-anchor="middle"><tspan x="0" y="0">Estrogen Receptor</tspan></text></g><g class="Label" transform="translate(165.33 597.17)" color="#000"  name="Steroid Hormone Receptor"><use class="Icon" width="209.33333333333334" height="19" fill="transparent"  stroke="#000" stroke-width="0" xlink:href="#a"/><text class="Text" transform="translate(104.67 13.5)"   font-size="12px" font-weight="bold"  text-anchor="middle"><tspan x="0" y="0">Steroid Hormone Receptor</tspan></text></g><g class="Label" transform="translate(387.67 597.17)" color="#000"  name="Glucocorticoid Receptor"><use class="Icon" width="191.33333333333334" height="19" fill="transparent"  stroke="#000" stroke-width="0" xlink:href="#a"/><text class="Text" transform="translate(95.667 13.5)"   font-size="12px" font-weight="bold"  text-anchor="middle"><tspan x="0" y="0">Glucocorticoid Receptor</tspan></text></g><g class="Label" transform="translate(391.67 657.17)" color="#000"  name="Progesterone Receptor"><use class="Icon" width="183.33333333333334" height="19" fill="transparent"  stroke="#000" stroke-width="0" xlink:href="#a"/><text class="Text" transform="translate(91.667 13.5)"   font-size="12px" font-weight="bold"  text-anchor="middle"><tspan x="0" y="0">Progesterone Receptor</tspan></text></g><g class="Label" transform="translate(405.67 730.5)" color="#000"  name="Androgen Receptor"><use class="Icon" width="155.33333333333334" height="19" fill="transparent"  stroke="#000" stroke-width="0" xlink:href="#a"/><text class="Text" transform="translate(77.667 13.5)"   font-size="12px" font-weight="bold"  text-anchor="middle"><tspan x="0" y="0">Androgen Receptor</tspan></text></g><g class="Label" transform="translate(801.33 557.17)" color="#000"  name="NR5 SUPERFAMILY"><rect class="Icon" transform="matrix(.99368 0 0 .96273 .49684 .48137)" width="157.33" height="25.833" fill="#fff" stroke="#000"/><text class="Text" transform="translate(78.667 16.917)"   font-size="12px" font-weight="bold"  text-anchor="middle"><tspan x="0" y="0">NR5 SUPERFAMILY</tspan></text></g><g class="Label" transform="translate(786.83 597.17)" color="#000"  name="Steroidogenic Receptor"><use class="Icon" width="186.33333333333334" height="19" fill="transparent"  stroke="#000" stroke-width="0" xlink:href="#a"/><text class="Text" transform="translate(93.167 13.5)"   font-size="12px" font-weight="bold"  text-anchor="middle"><tspan x="0" y="0">Steroidogenic Receptor</tspan></text></g><g class="Label" transform="translate(825.17 97.167)" color="#000"  name="Orphan Receptor"><use class="Icon" width="136.33333333333334" height="19" fill="transparent"  stroke="#000" stroke-width="0" xlink:href="#a"/><text class="Text" transform="translate(68.167 13.5)"   font-size="12px" font-weight="bold"  text-anchor="middle"><tspan x="0" y="0">Orphan Receptor</tspan></text></g><g class="Label" transform="translate(814.67 60.5)" color="#000"  name="NR0 SUPERFAMILY"><rect class="Icon" transform="matrix(.99368 0 0 .96226 .49684 .48113)" width="157.33" height="25.5" fill="#fff" stroke="#000"/><text class="Text" transform="translate(78.667 16.75)"   font-size="12px" font-weight="bold"  text-anchor="middle"><tspan x="0" y="0">NR0 SUPERFAMILY</tspan></text></g><g class="Label" transform="translate(321.33 60.5)" color="#000"  name="NR1 SUPERFAMILY"><rect class="Icon" transform="matrix(.99368 0 0 .95918 .49684 .47959)" width="157.33" height="23.5" fill="#fff" stroke="#000"/><text class="Text" transform="translate(78.667 15.75)"   font-size="12px" font-weight="bold"  text-anchor="middle"><tspan x="0" y="0">NR1 SUPERFAMILY</tspan></text></g><g class="Label" transform="translate(380.33 369.17)" color="#000"  name="NR2 SUPERFAMILY"><rect class="Icon" transform="matrix(.99368 0 0 .96532 .49684 .48266)" width="157.33" height="27.833" fill="#fff" stroke="#000"/><text class="Text" transform="translate(78.667 17.917)"   font-size="12px" font-weight="bold"  text-anchor="middle"><tspan x="0" y="0">NR2 SUPERFAMILY</tspan></text></g><g class="Label" transform="translate(211.33 557.17)" color="#000"  name="NR3 SUPERFAMILY"><rect class="Icon" transform="matrix(.99368 0 0 .96532 .49684 .48266)" width="157.33" height="27.833" fill="#fff" stroke="#000"/><text class="Text" transform="translate(78.667 17.917)"   font-size="12px" font-weight="bold"  text-anchor="middle"><tspan x="0" y="0">NR3 SUPERFAMILY</tspan></text></g><g class="Label" transform="translate(621.33 557.17)" color="#000"  name="NR4 SUPERFAMILY"><rect class="Icon" transform="matrix(.99368 0 0 .96273 .49684 .48137)" width="157.33" height="25.833" fill="#fff" stroke="#000"/><text class="Text" transform="translate(78.667 16.917)"   font-size="12px" font-weight="bold"  text-anchor="middle"><tspan x="0" y="0">NR4 SUPERFAMILY</tspan></text></g><g class="Label" transform="translate(631.83 597.17)" color="#000"  name="Orphan Receptor"><use class="Icon" width="136.33333333333334" height="19" fill="transparent"  stroke="#000" stroke-width="0" xlink:href="#a"/><text class="Text" transform="translate(68.167 13.5)"   font-size="12px" font-weight="bold"  text-anchor="middle"><tspan x="0" y="0">Orphan Receptor</tspan></text></g><g class="Label" transform="translate(678 101.83)" color="#000"  name="Orphan Nuclear Receptor"><use class="Icon" width="105" height="29.166666666666668" fill="transparent"  stroke="#000" stroke-width="0" xlink:href="#a"/><text class="Text" transform="translate(52.5 18.583)"   font-size="12px" font-weight="bold"  text-anchor="middle"><tspan x="0" y="-6.6000000000000005">Orphan Nuclear</tspan> <tspan x="0" y="6.6000000000000005">Receptor</tspan></text></g><g class="Label" transform="translate(226.5 97.167)" color="#000"  name="Retinoic Acid Receptor"><use class="Icon" width="180.33333333333334" height="19" fill="transparent"  stroke="#000" stroke-width="0" xlink:href="#a"/><text class="Text" transform="translate(90.167 13.5)"   font-size="12px" font-weight="bold"  text-anchor="middle"><tspan x="0" y="0">Retinoic Acid Receptor</tspan></text></g><a  class="GeneProduct P594_ENSMUSG00000021775 " transform="translate(703.33 136.67)"   name="Nr1d2"  ><rect class="Icon" transform="matrix(.98361 0 0 .95238 .4918 .47619)" width="60" height="20" fill="#fff" stroke="#000"/><text class="Text" transform="translate(30,13)"   font-size="10px"  text-anchor="middle"><tspan x="0" y="0">Nr1d2</tspan></text></a><a  class="GeneProduct P594_ENSMUSG00000025056 " transform="translate(863.33 136.67)"   name="Nr0b1"  ><rect class="Icon" transform="matrix(.98361 0 0 .95238 .4918 .47619)" width="60" height="20" fill="#fff" stroke="#000"/><text class="Text" transform="translate(30,13)"   font-size="10px"  text-anchor="middle"><tspan x="0" y="0">Nr0b1</tspan></text></a><a  class="GeneProduct P594_ENSMUSG00000017950 " transform="translate(93.333 440)"   name="Hnf4a"  ><rect class="Icon" transform="matrix(.98361 0 0 .95238 .4918 .47619)" width="60" height="20" fill="#fff" stroke="#000"/><text class="Text" transform="translate(30,13)"   font-size="10px"  text-anchor="middle"><tspan x="0" y="0">Hnf4a</tspan></text></a><a  class="GeneProduct P594_ENSMUSG00000005893 " transform="translate(546.67 440)"   name="Nr2c2"  ><rect class="Icon" transform="matrix(.98361 0 0 .95238 .4918 .47619)" width="60" height="20" fill="#fff" stroke="#000"/><text class="Text" transform="translate(30,13)"   font-size="10px"  text-anchor="middle"><tspan x="0" y="0">Nr2c2</tspan></text></a><a  class="GeneProduct P594_ENSMUSG00000019803 " transform="translate(93.333 510)"   name="Nr2e1"  ><rect class="Icon" transform="matrix(.98361 0 0 .95238 .4918 .47619)" width="60" height="20" fill="#fff" stroke="#000"/><text class="Text" transform="translate(30,13)"   font-size="10px"  text-anchor="middle"><tspan x="0" y="0">Nr2e1</tspan></text></a><a  class="GeneProduct P594_ENSMUSG00000024431 " transform="translate(453.33 630)"   name="Nr3c1"  ><rect class="Icon" transform="matrix(.98361 0 0 .95238 .4918 .47619)" width="60" height="20" fill="#fff" stroke="#000"/><text class="Text" transform="translate(30,13)"   font-size="10px"  text-anchor="middle"><tspan x="0" y="0">Nr3c1</tspan></text></a><a  class="GeneProduct P594_ENSMUSG00000031870 " transform="translate(453.33 700)"   name="Pgr"  ><rect class="Icon" transform="matrix(.98361 0 0 .95238 .4918 .47619)" width="60" height="20" fill="#fff" stroke="#000"/><text class="Text" transform="translate(30,13)"   font-size="10px"  text-anchor="middle"><tspan x="0" y="0">Pgr</tspan></text></a><a  class="GeneProduct P594_ENSMUSG00000046532 " transform="translate(453.33 760)"   name="Ar"  ><rect class="Icon" transform="matrix(.98361 0 0 .95238 .4918 .47619)" width="60" height="20" fill="#fff" stroke="#000"/><text class="Text" transform="translate(30,13)"   font-size="10px"  text-anchor="middle"><tspan x="0" y="0">Ar</tspan></text></a><g class="GroupNone" transform="translate(37.667 631)" color="grey" ><rect class="Icon" transform="matrix(.98734 0 0 .98305 .49367 .49153)" width="78" height="58" fill="#b4b464" fill-opacity=".1" stroke="grey" stroke-dasharray="5,3"/><a  class="GeneProduct P594_ENSMUSG00000019768 " transform="translate(9,9)"   name="Esr1"  ><rect class="Icon" transform="matrix(.98361 0 0 .95238 .4918 .47619)" width="60" height="20" fill="#fff" stroke="#000"/><text class="Text" transform="translate(30,13)"   font-size="10px"  text-anchor="middle"><tspan x="0" y="0">Esr1</tspan></text></a><a  class="GeneProduct P594_ENSMUSG00000021055 " transform="translate(9,29)"   name="Esr2"  ><rect class="Icon" transform="matrix(.98361 0 0 .95238 .4918 .47619)" width="60" height="20" fill="#fff" stroke="#000"/><text class="Text" transform="translate(30,13)"   font-size="10px"  text-anchor="middle"><tspan x="0" y="0">Esr2</tspan></text></a></g><g class="GroupNone" transform="translate(231,631)" color="grey" ><rect class="Icon" transform="matrix(.98734 0 0 .98305 .49367 .49153)" width="78" height="58" fill="#b4b464" fill-opacity=".1" stroke="grey" stroke-dasharray="5,3"/><a  class="GeneProduct P594_ENSMUSG00000024955 " transform="translate(9,9)"   name="Esrra"  ><rect class="Icon" transform="matrix(.98361 0 0 .95238 .4918 .47619)" width="60" height="20" fill="#fff" stroke="#000"/><text class="Text" transform="translate(30,13)"   font-size="10px"  text-anchor="middle"><tspan x="0" y="0">Esrra</tspan></text></a><a  class="GeneProduct P594_ENSMUSG00000021255 " transform="translate(9,29)"   name="Esrrb"  ><rect class="Icon" transform="matrix(.98361 0 0 .95238 .4918 .47619)" width="60" height="20" fill="#fff" stroke="#000"/><text class="Text" transform="translate(30,13)"   font-size="10px"  text-anchor="middle"><tspan x="0" y="0">Esrrb</tspan></text></a></g><g class="GroupNone" transform="translate(661 624.33)" color="grey" ><rect class="Icon" transform="matrix(.98734 0 0 .98305 .49367 .49153)" width="78" height="58" fill="#b4b464" fill-opacity=".1" stroke="grey" stroke-dasharray="5,3"/><a  class="GeneProduct P594_ENSMUSG00000023034 " transform="translate(9,9)"   name="Nr4a1"  ><rect class="Icon" transform="matrix(.98361 0 0 .95238 .4918 .47619)" width="60" height="20" fill="#fff" stroke="#000"/><text class="Text" transform="translate(30,13)"   font-size="10px"  text-anchor="middle"><tspan x="0" y="0">Nr4a1</tspan></text></a><a  class="GeneProduct P594_ENSMUSG00000026826 " transform="translate(9,29)"   name="Nr4a2"  ><rect class="Icon" transform="matrix(.98361 0 0 .95238 .4918 .47619)" width="60" height="20" fill="#fff" stroke="#000"/><text class="Text" transform="translate(30,13)"   font-size="10px"  text-anchor="middle"><tspan x="0" y="0">Nr4a2</tspan></text></a></g><g class="GroupNone" transform="translate(841 624.33)" color="grey" ><rect class="Icon" transform="matrix(.98734 0 0 .98305 .49367 .49153)" width="78" height="58" fill="#b4b464" fill-opacity=".1" stroke="grey" stroke-dasharray="5,3"/><a  class="GeneProduct P594_ENSMUSG00000026751 " transform="translate(9,9)"   name="Nr5a1"  ><rect class="Icon" transform="matrix(.98361 0 0 .95238 .4918 .47619)" width="60" height="20" fill="#fff" stroke="#000"/><text class="Text" transform="translate(30,13)"   font-size="10px"  text-anchor="middle"><tspan x="0" y="0">Nr5a1</tspan></text></a><a  class="GeneProduct P594_ENSMUSG00000026398 " transform="translate(9,29)"   name="Nr5a2"  ><rect class="Icon" transform="matrix(.98361 0 0 .95238 .4918 .47619)" width="60" height="20" fill="#fff" stroke="#000"/><text class="Text" transform="translate(30,13)"   font-size="10px"  text-anchor="middle"><tspan x="0" y="0">Nr5a2</tspan></text></a></g><g class="GroupNone" transform="translate(757.67 431)" color="grey" ><rect class="Icon" transform="matrix(.98734 0 0 .98734 .49367 .49367)" width="78" height="78" fill="#b4b464" fill-opacity=".1" stroke="grey" stroke-dasharray="5,3"/><a  class="GeneProduct P594_ENSMUSG00000069171 " transform="translate(9,9)"   name="Nr2f1"  ><rect class="Icon" transform="matrix(.98361 0 0 .95238 .4918 .47619)" width="60" height="20" fill="#fff" stroke="#000"/><text class="Text" transform="translate(30,13)"   font-size="10px"  text-anchor="middle"><tspan x="0" y="0">Nr2f1</tspan></text></a><a  class="GeneProduct P594_ENSMUSG00000030551 " transform="translate(9,29)"   name="Nr2f2"  ><rect class="Icon" transform="matrix(.98361 0 0 .95238 .4918 .47619)" width="60" height="20" fill="#fff" stroke="#000"/><text class="Text" transform="translate(30,13)"   font-size="10px"  text-anchor="middle"><tspan x="0" y="0">Nr2f2</tspan></text></a><a  class="GeneProduct P594_ENSMUSG00000002393 " transform="translate(9,49)"   name="Nr2f6"  ><rect class="Icon" transform="matrix(.98361 0 0 .95238 .4918 .47619)" width="60" height="20" fill="#fff" stroke="#000"/><text class="Text" transform="translate(30,13)"   font-size="10px"  text-anchor="middle"><tspan x="0" y="0">Nr2f6</tspan></text></a></g><g class="GroupNone" transform="translate(311,431)" color="grey" ><rect class="Icon" transform="matrix(.98734 0 0 .98734 .49367 .49367)" width="78" height="78" fill="#b4b464" fill-opacity=".1" stroke="grey" stroke-dasharray="5,3"/><a  class="GeneProduct P594_ENSMUSG00000015846 " transform="translate(9,9)"   name="Rxra"  ><rect class="Icon" transform="matrix(.98361 0 0 .95238 .4918 .47619)" width="60" height="20" fill="#fff" stroke="#000"/><text class="Text" transform="translate(30,13)"   font-size="10px"  text-anchor="middle"><tspan x="0" y="0">Rxra</tspan></text></a><a  class="GeneProduct P594_ENSMUSG00000039656 " transform="translate(9,29)"   name="Rxrb"  ><rect class="Icon" transform="matrix(.98361 0 0 .95238 .4918 .47619)" width="60" height="20" fill="#fff" stroke="#000"/><text class="Text" transform="translate(30,13)"   font-size="10px"  text-anchor="middle"><tspan x="0" y="0">Rxrb</tspan></text></a><a  class="GeneProduct P594_ENSMUSG00000015843 " transform="translate(9,49)"   name="Rxrg"  ><rect class="Icon" transform="matrix(.98361 0 0 .95238 .4918 .47619)" width="60" height="20" fill="#fff" stroke="#000"/><text class="Text" transform="translate(30,13)"   font-size="10px"  text-anchor="middle"><tspan x="0" y="0">Rxrg</tspan></text></a></g><g class="GroupNone" transform="translate(111 264.33)" color="grey" ><rect class="Icon" transform="matrix(.98734 0 0 .98734 .49367 .49367)" width="78" height="78" fill="#b4b464" fill-opacity=".1" stroke="grey" stroke-dasharray="5,3"/><a  class="GeneProduct P594_ENSMUSG00000035305 " transform="translate(9,9)"   name="Ror1"  ><rect class="Icon" transform="matrix(.98361 0 0 .95238 .4918 .47619)" width="60" height="20" fill="#fff" stroke="#000"/><text class="Text" transform="translate(30,13)"   font-size="10px"  text-anchor="middle"><tspan x="0" y="0">Ror1</tspan></text></a><a  class="GeneProduct P594_ENSMUSG00000032238 " transform="translate(9,29)"   name="Rora"  ><rect class="Icon" transform="matrix(.98361 0 0 .95238 .4918 .47619)" width="60" height="20" fill="#fff" stroke="#000"/><text class="Text" transform="translate(30,13)"   font-size="10px"  text-anchor="middle"><tspan x="0" y="0">Rora</tspan></text></a><a  class="GeneProduct P594_ENSMUSG00000028150 " transform="translate(9,49)"   name="Rorc"  ><rect class="Icon" transform="matrix(.98361 0 0 .95238 .4918 .47619)" width="60" height="20" fill="#fff" stroke="#000"/><text class="Text" transform="translate(30,13)"   font-size="10px"  text-anchor="middle"><tspan x="0" y="0">Rorc</tspan></text></a></g><g class="GroupNone" transform="translate(44.333 127.67)" color="grey" ><rect class="Icon" transform="matrix(.98734 0 0 .98734 .49367 .49367)" width="78" height="78" fill="#b4b464" fill-opacity=".1" stroke="grey" stroke-dasharray="5,3"/><a  class="GeneProduct P594_ENSMUSG00000058756 " transform="translate(9,9)"   name="Thra"  ><rect class="Icon" transform="matrix(.98361 0 0 .95238 .4918 .47619)" width="60" height="20" fill="#fff" stroke="#000"/><text class="Text" transform="translate(30,13)"   font-size="10px"  text-anchor="middle"><tspan x="0" y="0">Thra</tspan></text></a><a  class="GeneProduct P594_ENSMUSG00000021779 " transform="translate(9,29)"   name="Thrb"  ><rect class="Icon" transform="matrix(.98361 0 0 .95238 .4918 .47619)" width="60" height="20" fill="#fff" stroke="#000"/><text class="Text" transform="translate(30,13)"   font-size="10px"  text-anchor="middle"><tspan x="0" y="0">Thrb</tspan></text></a><a  class="GeneProduct P594_ENSMUSG00000021779 " transform="translate(9,49)"   name="Thrb"  ><rect class="Icon" transform="matrix(.98361 0 0 .95238 .4918 .47619)" width="60" height="20" fill="#fff" stroke="#000"/><text class="Text" transform="translate(30,13)"   font-size="10px"  text-anchor="middle"><tspan x="0" y="0">Thrb</tspan></text></a></g><g class="GroupNone" transform="translate(277.67 127.67)" color="grey" ><rect class="Icon" transform="matrix(.98734 0 0 .9899 .49367 .49495)" width="78" height="98" fill="#b4b464" fill-opacity=".1" stroke="grey" stroke-dasharray="5,3"/><a  class="GeneProduct P594_ENSMUSG00000037992 " transform="translate(9,9)"   name="Rara"  ><rect class="Icon" transform="matrix(.98361 0 0 .95238 .4918 .47619)" width="60" height="20" fill="#fff" stroke="#000"/><text class="Text" transform="translate(30,13)"   font-size="10px"  text-anchor="middle"><tspan x="0" y="0">Rara</tspan></text></a><a  class="GeneProduct P594_ENSMUSG00000017491 " transform="translate(9,29)"   name="Rarb"  ><rect class="Icon" transform="matrix(.98361 0 0 .95238 .4918 .47619)" width="60" height="20" fill="#fff" stroke="#000"/><text class="Text" transform="translate(30,13)"   font-size="10px"  text-anchor="middle"><tspan x="0" y="0">Rarb</tspan></text></a><a  class="GeneProduct P594_ENSMUSG00000001288 " transform="translate(9,49)"   name="Rarg"  ><rect class="Icon" transform="matrix(.98361 0 0 .95238 .4918 .47619)" width="60" height="20" fill="#fff" stroke="#000"/><text class="Text" transform="translate(30,13)"   font-size="10px"  text-anchor="middle"><tspan x="0" y="0">Rarg</tspan></text></a><a  class="GeneProduct P594_ENSMUSG00000001288 " transform="translate(9,69)"   name="Rarg"  ><rect class="Icon" transform="matrix(.98361 0 0 .95238 .4918 .47619)" width="60" height="20" fill="#fff" stroke="#000"/><text class="Text" transform="translate(30,13)"   font-size="10px"  text-anchor="middle"><tspan x="0" y="0">Rarg</tspan></text></a></g><g class="GroupNone" transform="translate(514.33 127.67)" color="grey" ><rect class="Icon" transform="matrix(.98734 0 0 .9899 .49367 .49495)" width="78" height="98" fill="#b4b464" fill-opacity=".1" stroke="grey" stroke-dasharray="5,3"/><a  class="GeneProduct P594_ENSMUSG00000022383 " transform="translate(9,9)"   name="Ppara"  ><rect class="Icon" transform="matrix(.98361 0 0 .95238 .4918 .47619)" width="60" height="20" fill="#fff" stroke="#000"/><text class="Text" transform="translate(30,13)"   font-size="10px"  text-anchor="middle"><tspan x="0" y="0">Ppara</tspan></text></a><a  class="GeneProduct P594_ENSMUSG00000002250 " transform="translate(9,29)"   name="Ppard"  ><rect class="Icon" transform="matrix(.98361 0 0 .95238 .4918 .47619)" width="60" height="20" fill="#fff" stroke="#000"/><text class="Text" transform="translate(30,13)"   font-size="10px"  text-anchor="middle"><tspan x="0" y="0">Ppard</tspan></text></a><a  class="GeneProduct P594_ENSMUSG00000000440 " transform="translate(9,49)"   name="Pparg"  ><rect class="Icon" transform="matrix(.98361 0 0 .95238 .4918 .47619)" width="60" height="20" fill="#fff" stroke="#000"/><text class="Text" transform="translate(30,13)"   font-size="10px"  text-anchor="middle"><tspan x="0" y="0">Pparg</tspan></text></a><a  class="GeneProduct P594_ENSMUSG00000000440 " transform="translate(9,69)"   name="Pparg"  ><rect class="Icon" transform="matrix(.98361 0 0 .95238 .4918 .47619)" width="60" height="20" fill="#fff" stroke="#000"/><text class="Text" transform="translate(30,13)"   font-size="10px"  text-anchor="middle"><tspan x="0" y="0">Pparg</tspan></text></a></g><g class="GroupNone" transform="translate(561 264.33)" color="grey" ><rect class="Icon" transform="matrix(.98734 0 0 .98734 .49367 .49367)" width="78" height="78" fill="#b4b464" fill-opacity=".1" stroke="grey" stroke-dasharray="5,3"/><a  class="GeneProduct P594_ENSMUSG00000022479 " transform="translate(9,9)"   name="Vdr"  ><rect class="Icon" transform="matrix(.98361 0 0 .95238 .4918 .47619)" width="60" height="20" fill="#fff" stroke="#000"/><text class="Text" transform="translate(30,13)"   font-size="10px"  text-anchor="middle"><tspan x="0" y="0">Vdr</tspan></text></a><a  class="GeneProduct P594_ENSMUSG00000022809 " transform="translate(9,29)"   name="Nr1i2"  ><rect class="Icon" transform="matrix(.98361 0 0 .95238 .4918 .47619)" width="60" height="20" fill="#fff" stroke="#000"/><text class="Text" transform="translate(30,13)"   font-size="10px"  text-anchor="middle"><tspan x="0" y="0">Nr1i2</tspan></text></a><a  class="GeneProduct P594_ENSMUSG00000005677 " transform="translate(9,49)"   name="Nr1i3"  ><rect class="Icon" transform="matrix(.98361 0 0 .95238 .4918 .47619)" width="60" height="20" fill="#fff" stroke="#000"/><text class="Text" transform="translate(30,13)"   font-size="10px"  text-anchor="middle"><tspan x="0" y="0">Nr1i3</tspan></text></a></g><g class="GroupNone" transform="translate(347.67 264.33)" color="grey" ><rect class="Icon" transform="matrix(.98734 0 0 .98305 .49367 .49153)" width="78" height="58" fill="#b4b464" fill-opacity=".1" stroke="grey" stroke-dasharray="5,3"/><a  class="GeneProduct P594_ENSMUSG00000060601 " transform="translate(9,9)"   name="Nr1h2"  ><rect class="Icon" transform="matrix(.98361 0 0 .95238 .4918 .47619)" width="60" height="20" fill="#fff" stroke="#000"/><text class="Text" transform="translate(30,13)"   font-size="10px"  text-anchor="middle"><tspan x="0" y="0">Nr1h2</tspan></text></a><a  class="GeneProduct P594_ENSMUSG00000002108 " transform="translate(9,29)"   name="Nr1h3"  ><rect class="Icon" transform="matrix(.98361 0 0 .95238 .4918 .47619)" width="60" height="20" fill="#fff" stroke="#000"/><text class="Text" transform="translate(30,13)"   font-size="10px"  text-anchor="middle"><tspan x="0" y="0">Nr1h3</tspan></text></a></g><text class="Text" transform="translate(5,27)" dominant-baseline="central" fill="black"  font-size="12px" font-weight="bold" overflow="visible" ><tspan x="0" y="-9">Name: Nuclear Receptors</tspan> <tspan x="0" y="9">Organism: Mus musculus</tspan></text></g></svg>
