<?xml version="1.0" encoding="UTF-8"?>
<!--
  WikiPathways page: https://www.wikipathways.org/index.php/Pathway:WP5112
  URL for this compressed file: https://github.com/eweitz/cachome/tree/main/data/wikipathways/WP5112.svg
  Source code for compression: https://github.com/eweitz/cachome/tree/main/src/wikipathways.py
-->
<svg class="Diagram" width="800" height="600" color="black" baseProfile="full" prefix="schema:http://schema.org/" preserveAspectRatio="xMidYMid" version="1.1" viewBox="0 0 1507.8 844.66" vocab="http://vocabularies.wikipathways.org/wp#" xmlns="http://www.w3.org/2000/svg" xmlns:xlink="http://www.w3.org/1999/xlink"><style>svg {font-family: 'Liberation Sans', Arial, sans-serif; }</style><defs><filter id="j" x="-50%" y="-50%" width="200%" height="200%"><feComposite in="SourceGraphic" in2="SourceGraphic" result="doubleDark"/><feMorphology in="doubleDark" operator="dilate" radius="0.16666666666666666" result="in2Double"/><feMorphology in="SourceGraphic" operator="dilate" radius="3" result="inDouble"/><feComposite in="inDouble" in2="in2Double" operator="out" result="doubleResult"/></filter><filter id="a" x="0" y="0" width="1507.8" height="844.66" filterUnits="userSpaceOnUse"><feColorMatrix in="SourceGraphic" values="-1   0   0 0 0                   0  -1   0 0 0                   0   0  -1 0 0                   0   0   0 1 0"/></filter><filter id="f" x="0" y="0" width="1507.8" height="844.66" filterUnits="userSpaceOnUse"><feColorMatrix in="SourceGraphic" values="-1   0   0 0 1                   0  -1   0 0 0                   0   0  -1 0 0                   0   0   0 1 0"/></filter><marker id="c" stroke-dasharray="99999" markerHeight="12" markerUnits="userSpaceOnUse" markerWidth="12" orient="auto" preserveAspectRatio="none" refX="12" refY="6" viewBox="0 0 12 12"><path transform="rotate(180 6 6)" d="M12 11L0 6l12-5z" fill="currentColor" stroke-width="0"/></marker><marker id="h" stroke-dasharray="99999" markerHeight="12" markerUnits="userSpaceOnUse" markerWidth="12" orient="auto" preserveAspectRatio="none" refX="12" refY="6" viewBox="0 0 12 12"><path transform="rotate(180 6 6)" d="M12 12L0 6l12-6-7 6z" fill="currentColor" stroke-width="0"/></marker><marker id="d" stroke-dasharray="99999" markerHeight="12" markerUnits="userSpaceOnUse" markerWidth="12" orient="auto" preserveAspectRatio="none" refX="12" refY="6" viewBox="0 0 12 12"><circle transform="rotate(180 6 6)" cx="6" cy="6" r="5.3" fill="none" stroke="#000"/></marker><marker id="e" stroke-dasharray="99999" markerHeight="12" markerUnits="userSpaceOnUse" markerWidth="12" orient="auto" preserveAspectRatio="none" refX="12" refY="6" viewBox="0 0 12 12"><path transform="rotate(180 6 6)" d="M12 11L0 6l12-5z" fill="currentColor" stroke-width="0"/></marker><marker id="g" stroke-dasharray="99999" markerHeight="12" markerUnits="userSpaceOnUse" markerWidth="12" orient="auto" preserveAspectRatio="none" refX="12" refY="6" viewBox="0 0 12 12"><g transform="rotate(180 6 6)" fill="none"><path d="m12 6"/><path d="M0 6l11 5V1z" stroke="#000"/></g></marker><symbol id="i" overflow="visible" preserveAspectRatio="none" viewBox="0 0 100 100"><path d="M0 25L25 0h50l25 25v50l-25 25H25L0 75z" stroke="currentColor" vector-effect="non-scaling-stroke"/></symbol><symbol id="b" preserveAspectRatio="none" viewBox="0 0 100 100"/></defs><g class="Viewport" color="black"  name="Name: Familial hyperlipidemia type 5 Organism: Homo sapiens"><rect class="Icon" width="1507.8" height="844.66" fill="#fff" stroke="#000" stroke-width="0"/><g id="k" class="DirectedInteraction" color="#000" ><g color="#000" fill="transparent"  filter="url(#a)" stroke="#000" stroke-dasharray="5.01, 3.01, 5.01, 3.01, 5.01, 3.01, 5.01, 3.01, 5.01, 3.01, 5.01, 3.01, 5.01, 3.01, 5.01, 3.01, 5.01, 3.01, 5.01, 3.01, 5.01, 3.01, 5.01, 3.01, 5.01, 3.01, 5.01, 3.01, 5.01, 3.01, 5.01, 3.01, 5.01, 3.01, 5.01, 3.01, 5.01, 3.01, 5.01, 3.01, 5.01, 3.01, 5.01, 3.01, 5.01, 3.01, 5.01, 3.01, 5.01, 3.01, 5.01, 3.01, 5.01, 3.01, 5.01, 3.01, 5.01, 3.01, 5.01, 3.01, 5.01, 3.01, 5.01, 3.01, 5.01, 3.01, 5.01, 3.01, 5.01, 3.01, 5.01, 3.01, 5.01, 3.01, 5.01, 3.01, 5.01, 3.01, 5.01, 3.01, 5.01, 3.01, 5.01, 3.01, 5.01, 3.01, 5.01, 3.01, 5.01, 3.01, 5.01, 3.01, 5.01, 3.01, 5.01, 3.01, 5.01, 3.01, 5.01, 3.01, 5.01, 3.01, 5.01, 3.01, 0, 5.8"><path class="EdgeBody" d="m1039.5 209.55h116.91v189.99h63.943v-49.11"   marker-end="url(#c)" /></g></g><g id="l" class="Edge GraphicalLine DirectedInteraction" color="#f00" ><g color="#f00" fill="transparent"  filter="url(#f)" stroke="#000" stroke-dasharray="146.27531597918, 5.8"><path class="EdgeBody" d="m769.8 196.38-152.08 3e-14"   marker-end="url(#c)" /></g></g><g id="m" class="Edge GraphicalLine DirectedInteraction" color="#f00" ><g color="#f00" fill="transparent"  filter="url(#f)" stroke="#000" stroke-dasharray="205.29304234452178, 5.8"><path class="EdgeBody" d="m527.72 196.38h-97.128v113.97"   marker-end="url(#c)" /></g></g><g id="n" class="Interaction" color="#000" ><g color="#000" fill="transparent"  filter="url(#a)" stroke="#000" stroke-dasharray="122.22997341094727, 5.8"><path class="EdgeBody" d="m973.96 135.3v39.683h88.347"   marker-end="url(#e)" /></g></g><g id="o" class="Interaction" color="#000" ><g color="#000" fill="transparent"  filter="url(#a)" stroke="#000" stroke-dasharray="85.60726882410255, 11"><path class="EdgeBody" d="m776.16 124.49 96.607 1.9249e-5"   marker-end="url(#g)" /></g><g class="Burr Anchor" transform="translate(814.8 124.49)" ><use class="Icon" width="0" height="0" fill="#141414" stroke-width="0" xlink:href="#b"/></g></g><g id="p" class="Interaction" color="#000" ><g color="#000" fill="transparent"  filter="url(#a)" stroke="#000" stroke-dasharray="48.39019611059537, 11"><path class="EdgeBody" d="m814.8 183.88 9.4331e-6 -59.39"   marker-end="url(#d)" /></g></g><g class="Label" transform="translate(527.72 434.6)" color="#000"  name="VLDL  increase"><use class="Icon" width="89.99999999999997" height="39.05943100400971" fill="transparent"  stroke="#000" stroke-width="0" xlink:href="#b"/><text class="Text" transform="translate(45 23.53)"   font-size="12px"  text-anchor="middle"><tspan x="0" y="-6.6000000000000005">VLDL </tspan> <tspan x="0" y="6.6000000000000005">increase</tspan></text></g><g class="Label" transform="translate(527.72 176.85)" color="#000"  name="Chylomicron  increase"><use class="Icon" width="90" height="39.05943100400972" fill="transparent"  stroke="#000" stroke-width="0" xlink:href="#b"/><text class="Text" transform="translate(45 23.53)"   font-size="12px"  text-anchor="middle"><tspan x="0" y="-6.6000000000000005">Chylomicron </tspan> <tspan x="0" y="6.6000000000000005">increase</tspan></text></g><a  class="Unknown" transform="translate(347.55 310.35)"   name="Hyperlipoproteinemia type V"  ><rect class="Icon" transform="matrix(.99402 0 0 .96154 .49701 .48077)" width="166.1" height="25" rx="15" ry="15" fill="#fff" stroke="#000"/><text class="Text" transform="translate(83.05 16.5)"   font-size="12px"  text-anchor="middle"><tspan x="0" y="0">Hyperlipoproteinemia type V</tspan></text></a><a  class="Unknown" transform="translate(33.333 310.35)"   name="Familial hyperlipidemia"  ><rect class="Icon" transform="matrix(.99272 0 0 .96154 .49636 .48077)" width="136.44" height="25" rx="15" ry="15" fill="#fff" stroke="#000"/><text class="Text" transform="translate(68.222 16.5)"   font-size="12px"  text-anchor="middle"><tspan x="0" y="0">Familial hyperlipidemia</tspan></text></a><g class="Label" transform="translate(221.39 310.35)" color="#000"  name="Type V"><use class="Icon" width="90" height="25" fill="transparent"  stroke="#000" stroke-width="0" xlink:href="#b"/><text class="Text" transform="translate(45,16.5)"   font-size="12px"  text-anchor="middle"><tspan x="0" y="0">Type V</tspan></text></g><g id="q" class="Edge GraphicalLine DirectedInteraction" color="#000" ><g color="#000" fill="transparent"  filter="url(#a)" stroke="#000" stroke-dasharray="45.816941174815994, 5.8"><path class="EdgeBody" d="m169.78 322.85h51.617"   marker-end="url(#c)" /></g></g><g id="r" class="Edge GraphicalLine DirectedInteraction" color="#000" ><g color="#000" fill="transparent"  filter="url(#a)" stroke="#000" stroke-dasharray="30.353042168748697, 5.8"><path class="EdgeBody" d="m311.39 322.85h36.153"   marker-end="url(#c)" /></g></g><g class="SingleFreeNode Shape PhysicalEntity CellularComponent Cell" transform="translate(1180.5 155.72)" color="#c0c0c0" ><g fill="transparent"  filter="url(#j)" stroke="#c0c0c0" stroke-width="3"><rect class="Icon" transform="matrix(.9614 0 0 .93862 5.7684 5.6317)" width="298.86" height="183.49" rx="15" ry="15"   /></g></g><g id="s" class="Interaction" color="#000" ><g color="#000" fill="transparent"  filter="url(#a)" stroke="#000" stroke-dasharray="216.84029029228827, 11"><path class="EdgeBody" d="m829.92 76.205h42.849v83.793h101.2"   marker-end="url(#d)" /></g><g class="Burr Anchor" transform="translate(872.76 124.49)" ><use class="Icon" width="0" height="0" fill="#141414" stroke-width="0" xlink:href="#b"/></g></g><g id="t" class="DirectedInteraction" color="#000" ><g color="#000" fill="transparent"  filter="url(#a)" stroke="#000" stroke-dasharray="5.03, 3.02, 5.03, 3.02, 5.03, 3.02, 5.03, 3.02, 5.03, 3.02, 5.03, 3.02, 5.03, 3.02, 5.03, 3.02, 5.03, 3.02, 5.03, 3.02, 5.03, 3.02, 5.03, 3.02, 5.03, 3.02, 5.03, 3.02, 5.03, 3.02, 5.03, 3.02, 5.03, 3.02, 5.03, 3.02, 5.03, 3.02, 5.03, 3.02, 5.03, 3.02, 5.03, 3.02, 5.03, 3.02, 5.03, 3.02, 5.03, 3.02, 5.03, 3.02, 5.03, 3.02, 5.03, 3.02, 5.03, 3.02, 5.03, 3.02, 5.03, 3.02, 5.03, 3.02, 5.03, 3.02, 5.03, 3.02, 5.03, 3.02, 5.03, 3.02, 5.03, 3.02, 5.03, 3.02, 5.03, 3.02, 5.03, 3.02, 5.03, 3.02, 5.03, 3.02, 5.03, 3.02, 5.03, 3.02, 5.03, 3.02, 5.03, 3.02, 5.03, 3.02, 5.03, 3.02, 5.03, 3.02, 5.03, 3.02, 5.03, 3.02, 5.03, 3.02, 5.03, 3.02, 5.03, 3.02, 5.03, 3.02, 5.03, 3.02, 5.03, 3.02, 5.03, 3.02, 5.03, 3.02, 5.03, 3.02, 5.03, 3.02, 5.03, 3.02, 5.03, 3.02, 5.03, 3.02, 5.03, 3.02, 5.03, 3.02, 5.03, 3.02, 5.03, 3.02, 5.03, 3.02, 5.03, 3.02, 5.03, 3.02, 5.03, 3.02, 5.03, 5.8"><path class="EdgeBody" d="m1039.5 209.55h117.03v189.99h233.93v-49.115"   marker-end="url(#c)" /></g></g><g id="u" class="Interaction" color="#000" ><g color="#000" fill="transparent"  filter="url(#a)" stroke="#000" stroke-dasharray="55.94626865671687, 5.8"><path class="EdgeBody" d="m973.96 135.3 3.6e-12 61.746"   marker-end="url(#e)" /></g><g class="Burr Anchor" transform="translate(973.96 160)" ><use class="Icon" width="0" height="0" fill="#141414" stroke-width="0" xlink:href="#b"/></g></g><g id="v" class="Interaction" color="#000" ><g color="#000" fill="transparent"  filter="url(#a)" stroke="#000" stroke-dasharray="42.27013974418311, 11"><path class="EdgeBody" d="m886.46 582.08 53.27 3.663e-6"   marker-end="url(#d)" /></g></g><g id="w" class="Interaction" color="#000" ><g color="#000" fill="transparent"  filter="url(#a)" stroke="#000" stroke-dasharray="128.0085952333472, 11"><path class="EdgeBody" d="m1070 377.6-2.0677e-5 139.01"   marker-end="url(#d)" /></g><g class="Burr Anchor" transform="translate(1070 396.73)" ><use class="Icon" width="0" height="0" fill="#141414" stroke-width="0" xlink:href="#b"/></g><g class="Burr Anchor" transform="translate(1070 433.2)" ><use class="Icon" width="0" height="0" fill="#141414" stroke-width="0" xlink:href="#b"/></g></g><g id="x" class="Interaction" color="#000" ><g color="#000" fill="transparent"  filter="url(#a)" stroke="#000" stroke-dasharray="29.43227036338743, 11"><path class="EdgeBody" d="m773.67 287.53v40.432"   marker-end="url(#g)" /></g><g class="Burr Anchor" transform="translate(773.67 303.7)" ><use class="Icon" width="0" height="0" fill="#141414" stroke-width="0" xlink:href="#b"/></g></g><g id="y" class="Interaction" color="#000" ><g color="#000" fill="transparent"  filter="url(#a)" stroke="#000" stroke-dasharray="54.71428571428703, 1"><path class="EdgeBody" d="m818.67 340.46h55.714"   marker-end="url(#h)" /></g></g><g id="z" class="Interaction" color="#000" ><g color="#000" fill="transparent"  filter="url(#a)" stroke="#000" stroke-dasharray="73.35837084627232, 11"><path class="EdgeBody" d="m985.61 396.59 84.358 0.14129"   marker-end="url(#g)" /></g><g class="Burr Anchor" transform="translate(1015.1 396.64)" ><use class="Icon" width="0" height="0" fill="#141414" stroke-width="0" xlink:href="#b"/></g></g><g id="aa" class="Interaction" color="#000" ><g color="#000" fill="transparent"  filter="url(#a)" stroke="#000" stroke-dasharray="52.2844594404991, 11"><path class="EdgeBody" d="m710.39 303.7 63.284-1.6686e-5"   marker-end="url(#d)" /></g></g><g id="ab" class="Interaction" color="#000" ><g color="#000" fill="transparent"  filter="url(#a)" stroke="#000" stroke-dasharray="33.992220593467586, 11"><path class="EdgeBody" d="m1015.1 441.63-4.7057e-4 -44.992"   marker-end="url(#d)" /></g></g><g id="ac" class="Interaction" color="#000" ><g color="#000" fill="transparent"  filter="url(#a)" stroke="#000" stroke-dasharray="42.77780343233139, 5.8"><path class="EdgeBody" d="m964.39 340.46 48.578 0.13585"   marker-end="url(#e)" /></g></g><g id="ad" class="Edge GraphicalLine DirectedInteraction" color="#000" ><g color="#000" fill="transparent"  filter="url(#a)" stroke="#000" stroke-dasharray="5.29, 3.18, 5.29, 3.18, 5.29, 3.18, 5.29, 3.18, 5.29, 3.18, 5.29, 3.18, 5.29, 3.18, 5.29, 5.8"><path class="EdgeBody" d="m43.371 202.96 70.366 1.4719e-4"   marker-end="url(#c)" /></g></g><g class="SingleFreeNode Shape" transform="translate(37.169 88.381)" color="#000"  name="x"><rect class="Icon" transform="matrix(.9877 0 0 .95977 .49385 .47989)" width="80.302" height="23.858" fill="transparent"  stroke="#000"/><text class="Text" transform="translate(40.151 15.929)"   font-size="12px"  text-anchor="middle"><tspan x="0" y="0">x</tspan></text></g><g class="Label" transform="translate(1161.6 166.73)" color="#000"  name="Liver"><use class="Icon" width="90" height="25" fill="transparent"  stroke="#000" stroke-width="0" xlink:href="#b"/><text class="Text" transform="translate(45,16.5)"   font-size="12px"  text-anchor="middle"><tspan x="0" y="0">Liver</tspan></text></g><g class="Label" transform="translate(113.74 190.46)" color="#000"  name="Transport"><use class="Icon" width="90" height="25" fill="transparent"  stroke="#000" stroke-width="0" xlink:href="#b"/><text class="Text" transform="translate(45,16.5)"   font-size="12px"  text-anchor="middle"><tspan x="0" y="0">Transport</tspan></text></g><a class="Metabolite" transform="translate(928.96 110.3)" color="#00f"  name="Chylomicron"  ><rect class="Icon" transform="matrix(.98901 0 0 .96154 .49451 .48077)" width="90" height="25" fill="#fff" stroke="#00f"/><text class="Text" transform="translate(45,16.5)" fill="#00f"  font-size="12px"  text-anchor="middle"><tspan x="0" y="0">Chylomicron</tspan></text></a><a class="Metabolite" transform="translate(908.46 197.05)" color="#00f"  name="Chylomicron remnant"  ><rect class="Icon" transform="matrix(.99242 0 0 .96154 .49621 .48077)" width="130.99" height="25" fill="#fff" stroke="#00f"/><text class="Text" transform="translate(65.497 16.5)" fill="#00f"  font-size="12px"  text-anchor="middle"><tspan x="0" y="0">Chylomicron remnant</tspan></text></a><a  class="GeneProduct SEL1L " transform="translate(620.39 291.2)"   name="SEL1L"  ><rect class="Icon" transform="matrix(.98901 0 0 .96154 .49451 .48077)" width="90" height="25" fill="#fff" stroke="#000"/><text class="Text" transform="translate(45,16.5)"   font-size="12px"  text-anchor="middle"><tspan x="0" y="0">SEL1L</tspan></text></a><g id="ae" class="Interaction" color="#000" ><g color="#000" fill="transparent"  filter="url(#a)" stroke="#000" stroke-dasharray="49.90866238058831, 11"><path class="EdgeBody" d="m1007.3 725.22 60.909-0.0051226"   marker-end="url(#d)" /></g></g><g id="af" class="Interaction" color="#000" ><g color="#000" fill="transparent"  filter="url(#a)" stroke="#000" stroke-dasharray="55.81137391428946, 11"><path class="EdgeBody" d="m1309.6 585.69-66.811-6.8812e-6"   marker-end="url(#d)" /></g></g><g id="ag" class="Interaction" color="#000" ><g color="#000" fill="transparent"  filter="url(#a)" stroke="#000" stroke-dasharray="203.19365244853844, 5.8"><path class="EdgeBody" d="m1171.6 789.66v-38.951h-58.382v-111.66"   marker-end="url(#e)" /></g><g class="Burr Anchor" transform="translate(1113.2 726.04)" ><use class="Icon" width="0" height="0" fill="#141414" stroke-width="0" xlink:href="#b"/></g></g><g id="ah" class="Interaction" color="#000" ><g color="#000" fill="transparent"  filter="url(#a)" stroke="#000" stroke-dasharray="207.27549332041548, 5.8"><path class="EdgeBody" d="m984.73 516.61h213.08"   marker-end="url(#e)" /></g><g class="Burr Anchor" transform="translate(1070 516.61)" ><use class="Icon" width="0" height="0" fill="#141414" stroke-width="0" xlink:href="#b"/></g></g><g id="ai" class="DirectedInteraction" color="#000" ><g color="#000" fill="transparent"  filter="url(#a)" stroke="#000" stroke-dasharray="5.24, 3.15, 5.24, 3.15, 5.24, 3.15, 5.24, 3.15, 5.24, 3.15, 5.24, 3.15, 5.24, 3.15, 5.24, 3.15, 5.24, 3.15, 5.24, 3.15, 5.24, 3.15, 5.24, 3.15, 5.24, 3.15, 5.24, 3.15, 5.24, 3.15, 5.24, 3.15, 5.24, 3.15, 5.24, 3.15, 0, 5.8"><path class="EdgeBody" d="m1242.8 504.11v-153.68"   marker-end="url(#c)" /></g></g><g id="aj" class="Interaction" color="#000" ><g color="#000" fill="transparent"  filter="url(#a)" stroke="#000" stroke-dasharray="203.12569418593245, 5.8"><path class="EdgeBody" d="m1009.9 789.66v-36.164h58.314v-114.45"   marker-end="url(#e)" /></g><g class="Burr Anchor" transform="translate(1068.2 725.22)" ><use class="Icon" width="0" height="0" fill="#141414" stroke-width="0" xlink:href="#b"/></g></g><g id="ak" class="Interaction" color="#000" ><g color="#000" fill="transparent"  filter="url(#a)" stroke="#000" stroke-dasharray="111.20565079420342, 11"><path class="EdgeBody" d="m1235.4 726.02-122.21 0.022672"   marker-end="url(#d)" /></g></g><g id="al" class="Interaction" color="#000" ><g color="#000" fill="transparent"  filter="url(#a)" stroke="#000" stroke-dasharray="204.97815578351202, 5.8"><path class="EdgeBody" d="m1135.7 632.8h107.08v-103.69"   marker-end="url(#e)" /></g><g class="Burr Anchor" transform="translate(1242.8 585.69)" ><use class="Icon" width="0" height="0" fill="#141414" stroke-width="0" xlink:href="#b"/></g></g><g id="am" class="DirectedInteraction" color="#000" ><g color="#000" fill="transparent"  filter="url(#a)" stroke="#000" stroke-dasharray="5.23, 3.14, 5.23, 3.14, 5.23, 3.14, 5.23, 3.14, 5.23, 3.14, 5.23, 3.14, 5.23, 3.14, 5.23, 3.14, 5.23, 3.14, 5.23, 3.14, 5.23, 3.14, 5.23, 3.14, 5.23, 3.14, 5.23, 3.14, 5.23, 5.8"><path class="EdgeBody" d="m1412.9 325.42v-20h-87.741v-20.337"   marker-end="url(#c)" /></g></g><g id="an" class="Interaction" color="#000" ><g color="#000" fill="transparent"  filter="url(#a)" stroke="#000" stroke-dasharray="203.887140450127, 5.8"><path class="EdgeBody" d="m1045.7 632.8h-105.99v-103.69"   marker-end="url(#e)" /></g><g class="Burr Anchor" transform="translate(939.73 582.08)" ><use class="Icon" width="0" height="0" fill="#141414" stroke-width="0" xlink:href="#b"/></g></g><g id="ao" class="DirectedInteraction" color="#000" ><g color="#000" fill="transparent"  filter="url(#a)" stroke="#000" stroke-dasharray="5.24, 3.15, 5.24, 3.15, 5.24, 3.15, 5.24, 3.15, 5.24, 3.15, 5.24, 3.15, 5.24, 3.15, 5.24, 3.15, 5.24, 3.15, 5.24, 3.15, 5.24, 3.15, 5.24, 3.15, 5.24, 3.15, 5.24, 3.15, 5.24, 3.15, 5.24, 3.15, 5.24, 3.15, 5.24, 3.15, 0, 5.8"><path class="EdgeBody" d="m1412.9 504.11v-153.68"   marker-end="url(#c)" /></g></g><g id="ap" class="Interaction" color="#000" ><g color="#000" fill="transparent"  filter="url(#a)" stroke="#000" stroke-dasharray="74.30895066640069, 5.8"><path class="EdgeBody" d="m1287.8 516.61h80.109"   marker-end="url(#e)" /></g><g class="Burr Anchor" transform="translate(1319.9 516.61)" ><use class="Icon" width="0" height="0" fill="#141414" stroke-width="0" xlink:href="#b"/></g></g><g id="aq" class="Interaction" color="#000" ><g color="#000" fill="transparent"  filter="url(#a)" stroke="#000" stroke-dasharray="38.213332697586615, 11"><path class="EdgeBody" d="m1319.9 467.39-3.1967e-4 49.213"   marker-end="url(#d)" /></g></g><g id="ar" class="DirectedInteraction" color="#000" ><g color="#000" fill="transparent"  filter="url(#a)" stroke="#000" stroke-dasharray="5.36, 3.22, 5.36, 3.22, 5.36, 3.22, 5.36, 3.22, 5.36, 3.22, 5.36, 3.22, 5.36, 3.22, 5.36, 3.22, 5.36, 3.22, 5.36, 3.22, 5.36, 3.22, 5.36, 3.22, 5.36, 3.22, 5.36, 5.8"><path class="EdgeBody" d="m1242.8 325.42v-20h82.368v-20.337"   marker-end="url(#c)" /></g></g><a class="ChEBI_CHEBI_39027 Metabolite  " transform="translate(894.73 504.11)" color="#00f"  name="VLDL"  ><rect class="Icon" transform="matrix(.98901 0 0 .96154 .49451 .48077)" width="90" height="25" fill="#fff" stroke="#00f"/><text class="Text" transform="translate(45,16.5)" fill="#00f"  font-size="12px"  text-anchor="middle"><tspan x="0" y="0">VLDL</tspan></text></a><g class="GroupComplex" transform="translate(1235.4 664.02)" color="grey" ><use class="Icon" transform="matrix(.9913 0 0 .992 .49565 .496)" width="114" height="123.99999999999716" fill="#b4b464" fill-opacity=".1" stroke="grey" xlink:href="#i"/><a  class="GeneProduct APOA2 " transform="translate(12 37)"   name="APOA2"  ><rect class="Icon" transform="matrix(.98901 0 0 .96154 .49451 .48077)" width="90" height="25" fill="#fff" stroke="#000"/><text class="Text" transform="translate(45,16.5)"   font-size="12px"  text-anchor="middle"><tspan x="0" y="0">APOA2</tspan></text></a><a  class="GeneProduct APOA4 " transform="translate(12 62)"   name="APOA4"  ><rect class="Icon" transform="matrix(.98901 0 0 .96154 .49451 .48077)" width="90" height="25" fill="#fff" stroke="#000"/><text class="Text" transform="translate(45,16.5)"   font-size="12px"  text-anchor="middle"><tspan x="0" y="0">APOA4</tspan></text></a><a  class="GeneProduct APOA1 " transform="translate(12,12)"   name="APOA1"  ><rect class="Icon" transform="matrix(.98901 0 0 .96154 .49451 .48077)" width="90" height="25" fill="#fff" stroke="#000"/><text class="Text" transform="translate(45,16.5)"   font-size="12px"  text-anchor="middle"><tspan x="0" y="0">APOA1</tspan></text></a><a  class="GeneProduct PLTP " transform="translate(12 87)"   name="PLTP"  ><rect class="Icon" transform="matrix(.98901 0 0 .96154 .49451 .48077)" width="90" height="25" fill="#fff" stroke="#000"/><text class="Text" transform="translate(45,16.5)"   font-size="12px"  text-anchor="middle"><tspan x="0" y="0">PLTP</tspan></text></a></g><a class="ChEBI_CHEBI_16113 Metabolite  " transform="translate(964.91 789.66)" color="#00f"  name="Cholesterol"  ><rect class="Icon" transform="matrix(.98901 0 0 .96154 .49451 .48077)" width="90" height="25" fill="#fff" stroke="#00f"/><text class="Text" transform="translate(45,16.5)" fill="#00f"  font-size="12px"  text-anchor="middle"><tspan x="0" y="0">Cholesterol</tspan></text></a><a class="ChEBI_CHEBI_47775 Metabolite  " transform="translate(1045.7 614.05)" color="#00f"  name="HDL"  ><rect class="Icon" transform="matrix(.98901 0 0 .96154 .49451 .48077)" width="90" height="25" fill="#fff" stroke="#00f"/><text class="Text" transform="translate(45,16.5)" fill="#00f"  font-size="12px"  text-anchor="middle"><tspan x="0" y="0">HDL</tspan></text></a><a class="ChEBI_CHEBI_47774 Metabolite  " transform="translate(1367.9 504.11)" color="#00f"  name="LDL"  ><rect class="Icon" transform="matrix(.98901 0 0 .96154 .49451 .48077)" width="90" height="25" fill="#fff" stroke="#00f"/><text class="Text" transform="translate(45,16.5)" fill="#00f"  font-size="12px"  text-anchor="middle"><tspan x="0" y="0">LDL</tspan></text></a><a  class="GeneProduct LRP1 " transform="translate(1197.8 325.42)"   name="LRP1"  ><rect class="Icon" transform="matrix(.98901 0 0 .96154 .49451 .48077)" width="90" height="25" fill="#fff" stroke="#000"/><text class="Text" transform="translate(45,16.5)"   font-size="12px"  text-anchor="middle"><tspan x="0" y="0">LRP1</tspan></text></a><a class="ChEBI_CHEBI_6495 Metabolite  " transform="translate(1126.6 789.66)" color="#00f"  name="Lipoprotein"  ><rect class="Icon" transform="matrix(.98901 0 0 .96154 .49451 .48077)" width="90" height="25" fill="#fff" stroke="#00f"/><text class="Text" transform="translate(45,16.5)" fill="#00f"  font-size="12px"  text-anchor="middle"><tspan x="0" y="0">Lipoprotein</tspan></text></a><a class="ChEBI_CHEBI_132933 Metabolite  " transform="translate(1197.8 504.11)" color="#00f"  name="IDL"  ><rect class="Icon" transform="matrix(.98901 0 0 .96154 .49451 .48077)" width="90" height="25" fill="#fff" stroke="#00f"/><text class="Text" transform="translate(45,16.5)" fill="#00f"  font-size="12px"  text-anchor="middle"><tspan x="0" y="0">IDL</tspan></text></a><g id="as" class="Edge GraphicalLine DirectedInteraction" color="#f00" ><g color="#f00" fill="transparent"  filter="url(#f)" stroke="#000" stroke-dasharray="346.60392825310674, 5.8"><path class="EdgeBody" d="m970.13 454.13-352.4-5e-14"   marker-end="url(#c)" /></g></g><a  class="GeneProduct CETP " transform="translate(1309.6 573.19)"   name="CETP"  ><rect class="Icon" transform="matrix(.98901 0 0 .96154 .49451 .48077)" width="90" height="25" fill="#fff" stroke="#000"/><text class="Text" transform="translate(45,16.5)"   font-size="12px"  text-anchor="middle"><tspan x="0" y="0">CETP</tspan></text></a><a  class="GeneProduct LIPC " transform="translate(1274.9 442.39)"   name="LIPC"  ><rect class="Icon" transform="matrix(.98901 0 0 .96154 .49451 .48077)" width="90" height="25" fill="#fff" stroke="#000"/><text class="Text" transform="translate(45,16.5)"   font-size="12px"  text-anchor="middle"><tspan x="0" y="0">LIPC</tspan></text></a><a  class="GeneProduct LCAT " transform="translate(917.32 712.72)"   name="LCAT"  ><rect class="Icon" transform="matrix(.98901 0 0 .96154 .49451 .48077)" width="90" height="25" fill="#fff" stroke="#000"/><text class="Text" transform="translate(45,16.5)"   font-size="12px"  text-anchor="middle"><tspan x="0" y="0">LCAT</tspan></text></a><a  class="GeneProduct LDLR " transform="translate(1367.9 325.42)"   name="LDLR"  ><rect class="Icon" transform="matrix(.98901 0 0 .96154 .49451 .48077)" width="90" height="25" fill="#fff" stroke="#000"/><text class="Text" transform="translate(45,16.5)"   font-size="12px"  text-anchor="middle"><tspan x="0" y="0">LDLR</tspan></text></a><g class="GroupGroup" transform="translate(1272.2 194.09)" color="grey" ><use class="Icon" width="106.00000000000045" height="90.99999999999986" fill="transparent"  stroke="grey" stroke-dasharray="5,3" stroke-width="0" xlink:href="#b"/><a class="ChEBI_CHEBI_16113 Metabolite  " transform="translate(8 58)" color="#00f"  name="Cholesterol"  ><rect class="Icon" transform="matrix(.98901 0 0 .96154 .49451 .48077)" width="90" height="25" fill="#fff" stroke="#00f"/><text class="Text" transform="translate(45,16.5)" fill="#00f"  font-size="12px"  text-anchor="middle"><tspan x="0" y="0">Cholesterol</tspan></text></a><a class="ChEBI_CHEBI_17855 Metabolite  " transform="translate(8 33)" color="#00f"  name="Triglyceride"  ><rect class="Icon" transform="matrix(.98901 0 0 .96154 .49451 .48077)" width="90" height="25" fill="#fff" stroke="#00f"/><text class="Text" transform="translate(45,16.5)" fill="#00f"  font-size="12px"  text-anchor="middle"><tspan x="0" y="0">Triglyceride</tspan></text></a><a class="ChEBI_CHEBI_16247 Metabolite  " transform="translate(8,8)" color="#00f"  name="Phospholipid"  ><rect class="Icon" transform="matrix(.98901 0 0 .96154 .49451 .48077)" width="90" height="25" fill="#fff" stroke="#00f"/><text class="Text" transform="translate(45,16.5)" fill="#00f"  font-size="12px"  text-anchor="middle"><tspan x="0" y="0">Phospholipid</tspan></text></a></g><a  class="GeneProduct LPL " transform="translate(728.67 327.96)"   name="LPL"  ><rect class="Icon" transform="matrix(.98901 0 0 .96154 .49451 .48077)" width="90" height="25" fill="#fff" stroke="#000"/><text class="Text" transform="translate(45,16.5)"   font-size="12px"  text-anchor="middle"><tspan x="0" y="0">LPL</tspan></text></a><a  class="GeneProduct LMF1 " transform="translate(728.67 262.53)"   name="LMF1"  ><rect class="Icon" transform="matrix(.98901 0 0 .96154 .49451 .48077)" width="90" height="25" fill="#fff" stroke="#000"/><text class="Text" transform="translate(45,16.5)"   font-size="12px"  text-anchor="middle"><tspan x="0" y="0">LMF1</tspan></text></a><a  class="GeneProduct GPIHBP1 " transform="translate(874.39 327.96)"   name="GPIHBP1"  ><rect class="Icon" transform="matrix(.98901 0 0 .96154 .49451 .48077)" width="90" height="25" fill="#fff" stroke="#000"/><text class="Text" transform="translate(45,16.5)"   font-size="12px"  text-anchor="middle"><tspan x="0" y="0">GPIHBP1</tspan></text></a><g class="GroupComplex" transform="translate(1013 303.6)" color="grey" ><use class="Icon" transform="matrix(.9913 0 0 .98667 .49565 .49333)" width="114" height="73.99999999999966" fill="#b4b464" fill-opacity=".1" stroke="grey" xlink:href="#i"/><a  class="GeneProduct GPIHBP1 " transform="translate(12 37)"   name="GPIHBP1"  ><rect class="Icon" transform="matrix(.98901 0 0 .96154 .49451 .48077)" width="90" height="25" fill="#fff" stroke="#000"/><text class="Text" transform="translate(45,16.5)"   font-size="12px"  text-anchor="middle"><tspan x="0" y="0">GPIHBP1</tspan></text></a><a  class="GeneProduct LPL " transform="translate(12,12)"   name="LPL"  ><rect class="Icon" transform="matrix(.98901 0 0 .96154 .49451 .48077)" width="90" height="25" fill="#fff" stroke="#000"/><text class="Text" transform="translate(45,16.5)"   font-size="12px"  text-anchor="middle"><tspan x="0" y="0">LPL</tspan></text></a></g><a  class="GeneProduct APOC2 " transform="translate(895.61 384.09)"   name="APOC2"  ><rect class="Icon" transform="matrix(.98901 0 0 .96154 .49451 .48077)" width="90" height="25" fill="#fff" stroke="#000"/><text class="Text" transform="translate(45,16.5)"   font-size="12px"  text-anchor="middle"><tspan x="0" y="0">APOC2</tspan></text></a><a  class="GeneProduct APOA5 " transform="translate(970.13 441.63)"   name="APOA5"  ><rect class="Icon" transform="matrix(.98901 0 0 .96154 .49451 .48077)" width="90" height="25" fill="#fff" stroke="#000"/><text class="Text" transform="translate(45,16.5)"   font-size="12px"  text-anchor="middle"><tspan x="0" y="0">APOA5</tspan></text></a><a  class="GeneProduct CETP " transform="translate(796.46 569.58)"   name="CETP"  ><rect class="Icon" transform="matrix(.98901 0 0 .96154 .49451 .48077)" width="90" height="25" fill="#fff" stroke="#000"/><text class="Text" transform="translate(45,16.5)"   font-size="12px"  text-anchor="middle"><tspan x="0" y="0">CETP</tspan></text></a><g id="at" class="Edge GraphicalLine" color="#000" ><g color="#000" fill="transparent"  filter="url(#a)" stroke="#000" stroke-dasharray="60.114524591267106, 1"><path class="EdgeBody" d="m221.45 198.52 61.115-4.5817e-4"   marker-end="url(#h)" /></g></g><g id="au" class="Edge GraphicalLine" color="#000" ><g color="#000" fill="transparent"  filter="url(#a)" stroke="#000" stroke-dasharray="57.21019204705097, 5.8"><path class="EdgeBody" d="m219.55 80.421 63.01-3.3488e-4"   marker-end="url(#e)" /></g></g><g id="av" class="Edge GraphicalLine" color="#000" ><g color="#000" fill="transparent"  filter="url(#a)" stroke="#000" stroke-dasharray="50.1145245904927, 11"><path class="EdgeBody" d="m221.45 119.72 61.115-3.3951e-4"   marker-end="url(#g)" /></g></g><g id="aw" class="Edge GraphicalLine" color="#000" ><g color="#000" fill="transparent"  filter="url(#a)" stroke="#000" stroke-dasharray="49.39379977832677, 11"><path class="EdgeBody" d="m222.17 160.63 60.394-1.2123e-4"   marker-end="url(#d)" /></g></g><g class="Label" transform="translate(282.56 186.02)" color="#000"  name="Binding"><use class="Icon" width="90" height="25" fill="transparent"  stroke="#000" stroke-width="0" xlink:href="#b"/><text class="Text" transform="translate(45,16.5)"   font-size="12px"  text-anchor="middle"><tspan x="0" y="0">Binding</tspan></text></g><g class="Label" transform="translate(282.56 67.921)" color="#000"  name="Conversion"><use class="Icon" width="90" height="25" fill="transparent"  stroke="#000" stroke-width="0" xlink:href="#b"/><text class="Text" transform="translate(45,16.5)"   font-size="12px"  text-anchor="middle"><tspan x="0" y="0">Conversion</tspan></text></g><g class="Label" transform="translate(113.74 90.113)" color="#000"  name="Gene/protein"><use class="Icon" width="89.99999999999999" height="24.999999999999993" fill="transparent"  stroke="#000" stroke-width="0" xlink:href="#b"/><text class="Text" transform="translate(45 16.5)"   font-size="12px"  text-anchor="middle"><tspan x="0" y="0">Gene/protein</tspan></text></g><g class="Label" transform="translate(113.74 120.26)" color="#000"  name="Metabolite"><use class="Icon" width="89.99999999999999" height="24.999999999999993" fill="transparent"  stroke="#000" stroke-width="0" xlink:href="#b"/><text class="Text" transform="translate(45 16.5)"   font-size="12px"  text-anchor="middle"><tspan x="0" y="0">Metabolite</tspan></text></g><g class="Label" transform="translate(282.56 148.13)" color="#000"  name="Catalysis"><use class="Icon" width="90" height="25" fill="transparent"  stroke="#000" stroke-width="0" xlink:href="#b"/><text class="Text" transform="translate(45,16.5)"   font-size="12px"  text-anchor="middle"><tspan x="0" y="0">Catalysis</tspan></text></g><g class="Label" transform="translate(282.56 107.22)" color="#000"  name="Stimulation"><use class="Icon" width="90" height="25" fill="transparent"  stroke="#000" stroke-width="0" xlink:href="#b"/><text class="Text" transform="translate(45,16.5)"   font-size="12px"  text-anchor="middle"><tspan x="0" y="0">Stimulation</tspan></text></g><g id="ax" class="Edge GraphicalLine DirectedInteraction" color="#f00" ><g color="#f00" fill="transparent"  filter="url(#f)" stroke="#000" stroke-dasharray="64.71301894249741, 5.8"><path class="EdgeBody" d="m43.225 171.76 70.513-3.4148e-4"   marker-end="url(#c)" /></g></g><g class="SingleFreeNode Shape" transform="translate(18.659 51.04)" color="#000" ><rect class="Icon" transform="matrix(.9973 0 0 .99432 .49865 .49716)" width="368.77" height="174.97" fill="transparent"  stroke="#000"/></g><g class="Label" transform="translate(113.74 159.26)" color="#000"  name="Mutations"><use class="Icon" width="89.99999999999999" height="25.00000000000001" fill="transparent"  stroke="#000" stroke-width="0" xlink:href="#b"/><text class="Text" transform="translate(45 16.5)"   font-size="12px"  text-anchor="middle"><tspan x="0" y="0">Mutations</tspan></text></g><g class="Label" transform="translate(27.044 56.916)" color="#000"  name="Legend"><use class="Icon" width="50.05263157894808" height="25" fill="transparent"  stroke="#000" stroke-width="0" xlink:href="#b"/><text class="Text" transform="translate(25.026 16.5)"   font-size="12px"  text-anchor="middle"><tspan x="0" y="0">Legend</tspan></text></g><g class="SingleFreeNode Shape" transform="translate(37.169 122.24)" color="#00f"  name="x"><rect class="Icon" transform="matrix(.9877 0 0 .95977 .49385 .47989)" width="80.302" height="23.858" fill="transparent"  stroke="#00f"/><text class="Text" transform="translate(40.151 15.929)" fill="#00f"  font-size="12px"  text-anchor="middle"><tspan x="0" y="0">x</tspan></text></g><g id="ay" class="Interaction" color="#000" ><g color="#000" fill="transparent"  filter="url(#a)" stroke="#000" stroke-dasharray="168.887140450127, 5.8"><path class="EdgeBody" d="m962.23 529.11v91.195h83.492"   marker-end="url(#e)" /></g><g class="Burr Anchor" transform="translate(962.23 573.04)" ><use class="Icon" width="0" height="0" fill="#141414" stroke-width="0" xlink:href="#b"/></g></g><g id="az" class="Interaction" color="#000" ><g color="#000" fill="transparent"  filter="url(#a)" stroke="#000" stroke-dasharray="169.97815578351202, 5.8"><path class="EdgeBody" d="m1220.3 529.11v91.195h-84.583"   marker-end="url(#e)" /></g><g class="Burr Anchor" transform="translate(1220.3 573.04)" ><use class="Icon" width="0" height="0" fill="#141414" stroke-width="0" xlink:href="#b"/></g></g><a  class="GeneProduct CETP " transform="translate(1045.7 560.54)"   name="CETP"  ><rect class="Icon" transform="matrix(.98901 0 0 .96154 .49451 .48077)" width="90" height="25" fill="#fff" stroke="#000"/><text class="Text" transform="translate(45,16.5)"   font-size="12px"  text-anchor="middle"><tspan x="0" y="0">CETP</tspan></text></a><g id="ba" class="Interaction" color="#000" ><g color="#000" fill="transparent"  filter="url(#a)" stroke="#000" stroke-dasharray="72.49223899351523, 11"><path class="EdgeBody" d="m1045.7 573.04-83.492-1e-13"   marker-end="url(#d)" /></g></g><g id="bb" class="Interaction" color="#000" ><g color="#000" fill="transparent"  filter="url(#a)" stroke="#000" stroke-dasharray="73.58325432690026, 11"><path class="EdgeBody" d="m1135.7 573.04 84.583-1e-13"   marker-end="url(#d)" /></g></g><a  class="GeneProduct LPL " transform="translate(739.92 63.705)"   name="LPL"  ><rect class="Icon" transform="matrix(.98901 0 0 .96154 .49451 .48077)" width="90" height="25" fill="#fff" stroke="#000"/><text class="Text" transform="translate(45,16.5)"   font-size="12px"  text-anchor="middle"><tspan x="0" y="0">LPL</tspan></text></a><g id="bc" class="Edge GraphicalLine DirectedInteraction" color="#f00" ><g color="#f00" fill="transparent"  filter="url(#f)" stroke="#000" stroke-dasharray="210.11286978006666, 5.8"><path class="EdgeBody" d="m527.72 454.13h-97.128v-118.78"   marker-end="url(#c)" /></g></g><a  class="GeneProduct APOC2 " transform="translate(686.16 111.99)"   name="APOC2"  ><rect class="Icon" transform="matrix(.98901 0 0 .96154 .49451 .48077)" width="90" height="25" fill="#fff" stroke="#000"/><text class="Text" transform="translate(45,16.5)"   font-size="12px"  text-anchor="middle"><tspan x="0" y="0">APOC2</tspan></text></a><a  class="GeneProduct APOA5 " transform="translate(769.8 183.88)"   name="APOA5"  ><rect class="Icon" transform="matrix(.98901 0 0 .96154 .49451 .48077)" width="90" height="25" fill="#fff" stroke="#000"/><text class="Text" transform="translate(45,16.5)"   font-size="12px"  text-anchor="middle"><tspan x="0" y="0">APOA5</tspan></text></a><a class="ChEBI_CHEBI_47775 Metabolite  " transform="translate(1062.3 162.48)" color="#00f"  name="HDL"  ><rect class="Icon" transform="matrix(.98901 0 0 .96154 .49451 .48077)" width="90" height="25" fill="#fff" stroke="#00f"/><text class="Text" transform="translate(45,16.5)" fill="#00f"  font-size="12px"  text-anchor="middle"><tspan x="0" y="0">HDL</tspan></text></a><g id="bd" class="Edge GraphicalLine DirectedInteraction" color="#f00" ><g color="#f00" fill="transparent"  filter="url(#f)" stroke="#000" stroke-dasharray="251.31873004077642, 5.8"><path class="EdgeBody" d="m773.67 352.96v101.17h-155.95"   marker-end="url(#c)" /></g></g><text class="Text" transform="translate(5,27)" dominant-baseline="central" fill="black"  font-size="12px" font-weight="bold" overflow="visible" ><tspan x="0" y="-9">Name: Familial hyperlipidemia type 5</tspan> <tspan x="0" y="9">Organism: Homo sapiens</tspan></text></g></svg>
