<?xml version="1.0" encoding="UTF-8"?>
<!--
  WikiPathways page: https://www.wikipathways.org/index.php/Pathway:WP5120
  URL for this compressed file: https://github.com/eweitz/cachome/tree/main/data/wikipathways/WP5120.svg
  Source code for compression: https://github.com/eweitz/cachome/tree/main/src/wikipathways.py
-->
<svg class="Diagram" width="800" height="600" color="black" baseProfile="full" prefix="schema:http://schema.org/" preserveAspectRatio="xMidYMid" version="1.1" viewBox="0 0 1194.3 654.72" vocab="http://vocabularies.wikipathways.org/wp#" xmlns="http://www.w3.org/2000/svg" xmlns:xlink="http://www.w3.org/1999/xlink"><style>svg {font-family: 'Liberation Sans', Arial, sans-serif; }</style><defs><filter id="a" x="0" y="0" width="1194.3" height="654.72" filterUnits="userSpaceOnUse"><feColorMatrix in="SourceGraphic" values="-1   0   0 0 0                   0  -1   0 0 0                   0   0  -1 0 0                   0   0   0 1 0"/></filter><filter id="c" x="0" y="0" width="1194.3" height="654.72" filterUnits="userSpaceOnUse"><feColorMatrix in="SourceGraphic" values="-1   0   0 0 0.8                   0  -1   0 0 0                   0   0  -1 0 0                   0   0   0 1 0"/></filter><marker id="e" stroke-dasharray="99999" markerHeight="12" markerUnits="userSpaceOnUse" markerWidth="12" orient="auto" preserveAspectRatio="none" refX="12" refY="6" viewBox="0 0 12 12"><path transform="rotate(180 6 6)" d="M12 11L0 6l12-5z" fill="currentColor" stroke-width="0"/></marker><marker id="f" stroke-dasharray="99999" markerHeight="12" markerUnits="userSpaceOnUse" markerWidth="12" orient="auto" preserveAspectRatio="none" refX="12" refY="6" viewBox="0 0 12 12"><path transform="rotate(180 6 6)" d="M12 11L0 6l12-5z" fill="currentColor" stroke-width="0"/></marker><marker id="h" stroke-dasharray="99999" markerHeight="20" markerUnits="userSpaceOnUse" markerWidth="10" orient="auto" preserveAspectRatio="none" refX="10" refY="10" viewBox="0 0 10 20"><path d="m3 0v20" fill="currentColor" stroke="currentColor"/></marker><marker id="b" stroke-dasharray="99999" markerHeight="12" markerUnits="userSpaceOnUse" markerWidth="12" orient="auto" preserveAspectRatio="none" refX="12" refY="6" viewBox="0 0 12 12"><g transform="rotate(180 6 6)" fill="none"><path d="m12 6"/><path d="M0 6l11 5V1z" stroke="#000"/></g></marker><marker id="g" stroke-dasharray="99999" markerHeight="24" markerUnits="userSpaceOnUse" markerWidth="20" orient="auto" preserveAspectRatio="none" refX="20" refY="12" viewBox="0 0 20 24"><g transform="rotate(180 10 12)" fill="none" stroke="#000"><path d="M15 12V5M15.5 5H8M0 5l8-4v8z"/></g></marker><symbol id="i" overflow="visible" preserveAspectRatio="none" viewBox="0 0 100 100"><path d="M0 25L25 0h50l25 25v50l-25 25H25L0 75z" stroke="currentColor" vector-effect="non-scaling-stroke"/></symbol><symbol id="d" preserveAspectRatio="none" viewBox="0 0 100 100"/></defs><g class="Viewport" color="black"  name="Name: Inclusion body myositis Organism: Homo sapiens"><rect class="Icon" width="1194.3" height="654.72" fill="#fff" stroke="#000" stroke-width="0"/><g id="j" class="Interaction" color="#000" ><g color="#000" fill="transparent"  filter="url(#a)" stroke="#000" stroke-dasharray="60.73358334813889, 5.8"><path class="EdgeBody" d="m508.14 404.71 63.175 20.871"   marker-end="url(#f)" /></g></g><g id="k" class="Edge GraphicalLine" color="#000" ><g color="#000" fill="transparent"  filter="url(#a)" stroke="#000" stroke-dasharray="33.66117699922218, 11"><path class="EdgeBody" d="m75.255 570.15 44.643 1.2755"   marker-end="url(#b)" /></g></g><g id="l" class="Interaction" color="#000" ><g color="#000" fill="transparent"  filter="url(#a)" stroke="#000" stroke-dasharray="66.95880596585668, 11"><path class="EdgeBody" d="m511.97 521.79 2.2281 77.927"   marker-end="url(#b)" /></g></g><g id="m" class="Interaction" color="#000" ><g color="#000" fill="transparent"  filter="url(#a)" stroke="#000" stroke-dasharray="213.39737283308295, 11"><path class="EdgeBody" d="m811.61 452.49 205.38 90.396"   marker-end="url(#b)" /></g></g><g id="n" class="Interaction" color="#000" ><g color="#000" fill="transparent"  filter="url(#a)" stroke="#000" stroke-dasharray="119.9491990916996, 11"><path class="EdgeBody" d="m811.61 452.49 92.342 92.848"   marker-end="url(#b)" /></g></g><g id="o" class="Interaction" color="#000" ><g color="#000" fill="transparent"  filter="url(#a)" stroke="#000" stroke-dasharray="27.860873035179146, 11"><path class="EdgeBody" d="m939.8 154.96 20.919-32.75"   marker-end="url(#b)" /></g></g><g id="p" class="Interaction" color="#000" ><g color="#000" fill="transparent"  filter="url(#a)" stroke="#000" stroke-dasharray="839.308442147865, 11"><path class="EdgeBody" d="m584.11 612.22h513.24v-337.07"   marker-end="url(#b)" /></g></g><g id="q" class="Interaction" color="#000" ><g color="#000" fill="transparent"  filter="url(#a)" stroke="#000" stroke-dasharray="62.432362561924364, 11"><path class="EdgeBody" d="m720.94 180.21-34.105 65.032"   marker-end="url(#b)" /></g></g><g id="r" class="Interaction" color="#000" ><g color="#000" fill="transparent"  filter="url(#a)" stroke="#000" stroke-dasharray="44.86354694820521, 11"><path class="EdgeBody" d="m229.9 404.46 55.863 0.17089"   marker-end="url(#b)" /></g></g><g id="s" class="Interaction" color="#000" ><g color="#000" fill="transparent"  filter="url(#a)" stroke="#000" stroke-dasharray="173.17640573318704, 11"><path class="EdgeBody" d="m564.19 173.96h-184.18"   marker-end="url(#b)" /></g></g><g id="t" class="Interaction" color="#000" ><g color="#000" fill="transparent"  filter="url(#a)" stroke="#000" stroke-dasharray="1275.9420419642565, 11"><path class="EdgeBody" d="m139.9 404.46h-94.693v-305.07l831.6 1e-14v55.573"   marker-end="url(#b)" /></g></g><g id="u" class="Interaction" color="#000" ><g color="#000" fill="transparent"  filter="url(#a)" stroke="#000" stroke-dasharray="126.96685417710924, 11"><path class="EdgeBody" d="m837.32 254.31-116.38-74.101"   marker-end="url(#b)" /></g></g><g id="v" class="Interaction" color="#000" ><g color="#000" fill="transparent"  filter="url(#a)" stroke="#000" stroke-dasharray="120.44253033388335, 11"><path class="EdgeBody" d="m638.82 438.08-75.98 107.26"   marker-end="url(#b)" /></g></g><g id="w" class="DirectedInteraction" color="#c00" ><g color="#c00" fill="transparent"  filter="url(#c)" stroke="#000" stroke-dasharray="60.207575322837, 5.8"><path class="EdgeBody" d="m148 247.75 66-1"   marker-end="url(#e)" /></g></g><g id="x" class="Interaction" color="#000" ><g color="#000" fill="transparent"  filter="url(#a)" stroke="#000" stroke-dasharray="15.25, 11"><path class="EdgeBody" d="m152.77 167.71h26.25"   marker-end="url(#b)" /></g></g><g id="y" class="Interaction" color="#000" ><g color="#000" fill="transparent"  filter="url(#a)" stroke="#000" stroke-dasharray="38.20076100201606, 11"><path class="EdgeBody" d="m418.79 348.13 21.85 44.083"   marker-end="url(#b)" /></g></g><g id="z" class="Interaction" color="#000" ><g color="#000" fill="transparent"  filter="url(#a)" stroke="#000" stroke-dasharray="87.22420379966383, 11"><path class="EdgeBody" d="m661.32 419.33 95.068-24.699"   marker-end="url(#b)" /></g></g><g id="aa" class="Interaction" color="#c00" ><g color="#c00" fill="transparent"  filter="url(#c)" stroke="#000" stroke-dasharray="133.2646833475701, 5.8"><path class="EdgeBody" d="m184.9 391.96 57.853-126.46"   marker-end="url(#f)" /></g></g><g id="ab" class="Interaction" color="#000" ><g color="#000" fill="transparent"  filter="url(#a)" stroke="#000" stroke-dasharray="84.29646825496533, 11"><path class="EdgeBody" d="m661.32 425.58 94.201 14.41"   marker-end="url(#b)" /></g></g><g id="ac" class="DirectedInteraction" color="#c00" ><g color="#c00" fill="transparent"  filter="url(#c)" stroke="#000" stroke-dasharray="60.207575322837, 5.8"><path class="EdgeBody" d="m214 259.25-66 1"   marker-end="url(#e)" /></g></g><g id="ad" class="DirectedInteraction" color="#c00" ><g color="#c00" fill="transparent"  filter="url(#c)" stroke="#000" stroke-dasharray="144.02438177585063, 5.8"><path class="EdgeBody" d="m184.9 391.96-81.897-125.46"   marker-end="url(#e)" /></g></g><g id="ae" class="Interaction" color="#000" ><g color="#000" fill="transparent"  filter="url(#a)" stroke="#000" stroke-dasharray="131.39317234180825, 11"><path class="EdgeBody" d="m811.61 452.49-107.96 92.848"   marker-end="url(#b)" /></g></g><g id="af" class="Interaction" color="#000" ><g color="#000" fill="transparent"  filter="url(#a)" stroke="#000" stroke-dasharray="116.62379225567656, 11"><path class="EdgeBody" d="m242.75 240.5-112.48-60.293"   marker-end="url(#b)" /></g></g><g id="ag" class="Interaction" color="#000" ><g color="#000" fill="transparent"  filter="url(#a)" stroke="#000" stroke-dasharray="52.80587179315858, 11"><path class="EdgeBody" d="m901.82 243.93 6.4839-63.476"   marker-end="url(#b)" /></g></g><g id="ah" class="Interaction" color="#000" ><g color="#000" fill="transparent"  filter="url(#a)" stroke="#000" stroke-dasharray="453.31024497955434, 11"><path class="EdgeBody" d="m837.32 254.31-457.3-80.351"   marker-end="url(#b)" /></g></g><g id="ai" class="Interaction" color="#000" ><g color="#000" fill="transparent"  filter="url(#a)" stroke="#000" stroke-dasharray="52.57287598044902, 11"><path class="EdgeBody" d="m876.8 180.46 3.5161 63.476"   marker-end="url(#b)" /></g></g><g id="aj" class="DirectedInteraction" color="#c00" ><g color="#c00" fill="transparent"  filter="url(#c)" stroke="#000" stroke-dasharray="144.02438177585063, 5.8"><path class="EdgeBody" d="m80.5 266.5 81.897 125.46"   marker-end="url(#e)" /></g></g><g id="ak" class="Interaction" color="#000" ><g color="#000" fill="transparent"  filter="url(#a)" stroke="#000" stroke-dasharray="96.04732216622315, 11"><path class="EdgeBody" d="m923.32 264.68 107.03-2.0299"   marker-end="url(#b)" /></g></g><g id="al" class="Interaction" color="#000" ><g color="#000" fill="transparent"  filter="url(#a)" stroke="#000" stroke-dasharray="216.53245255087333, 11"><path class="EdgeBody" d="m610.68 295.2 226.64-20.143"   marker-end="url(#b)" /></g></g><g id="am" class="DirectedInteraction" color="#c00" ><g color="#c00" fill="transparent"  filter="url(#c)" stroke="#000" stroke-dasharray="135.97871967423436, 5.8"><path class="EdgeBody" d="m271.5 265.5-64.103 126.46"   marker-end="url(#e)" /></g></g><g id="an" class="Interaction" color="#000" ><g color="#000" fill="transparent"  filter="url(#a)" stroke="#000" stroke-dasharray="173.17640573318704, 11"><path class="EdgeBody" d="m380.02 161.46h184.18"   marker-end="url(#b)" /></g></g><g id="ao" class="Interaction" color="#000" ><g color="#000" fill="transparent"  filter="url(#a)" stroke="#000" stroke-dasharray="109.51629691961344, 11"><path class="EdgeBody" d="m125.5 241.5 103.77-61.293"   marker-end="url(#b)" /></g></g><g id="ap" class="Interaction" color="#000" ><g color="#000" fill="transparent"  filter="url(#a)" stroke="#000" stroke-dasharray="49.82313569410791, 11"><path class="EdgeBody" d="m271.5 240.5 8.0161-60.293"   marker-end="url(#b)" /></g></g><g id="aq" class="Interaction" color="#000" ><g color="#000" fill="transparent"  filter="url(#a)" stroke="#000" stroke-dasharray="202.90569828297376, 11"><path class="EdgeBody" d="m811.61 452.49-192.7 92.848"   marker-end="url(#b)" /></g></g><g id="ar" class="Interaction" color="#000" ><g color="#000" fill="transparent"  filter="url(#a)" stroke="#000" stroke-dasharray="357.4238677486955, 11"><path class="EdgeBody" d="m638.82 438.08 353.2 104.81"   marker-end="url(#b)" /></g></g><g id="as" class="Interaction" color="#000" ><g color="#000" fill="transparent"  filter="url(#a)" stroke="#000" stroke-dasharray="50.47761462780465, 11"><path class="EdgeBody" d="m103 241.5 4.7661-61.293"   marker-end="url(#b)" /></g></g><g id="at" class="Interaction" color="#000" ><g color="#000" fill="transparent"  filter="url(#a)" stroke="#000" stroke-dasharray="65.11244979919684, 7"><path class="EdgeBody" d="m773.19 167.71h72.112"   marker-end="url(#h)" /></g></g><g id="au" class="Interaction" color="#000" ><g color="#000" fill="transparent"  filter="url(#a)" stroke="#000" stroke-dasharray="383.4892668800899, 11"><path class="EdgeBody" d="m867.7 439.99h229.65v-164.84"   marker-end="url(#b)" /></g></g><g id="av" class="Interaction" color="#000" ><g color="#000" fill="transparent"  filter="url(#a)" stroke="#000" stroke-dasharray="31.38154766884167, 11"><path class="EdgeBody" d="m375.76 404.63 42.381 0.077178"   marker-end="url(#g)" /></g></g><g id="aw" class="Interaction" color="#000" ><g color="#000" fill="transparent"  filter="url(#a)" stroke="#000" stroke-dasharray="251.60574390807687, 11"><path class="EdgeBody" d="m638.82 438.08 239.7 107.26"   marker-end="url(#b)" /></g></g><g id="ax" class="Interaction" color="#000" ><g color="#000" fill="transparent"  filter="url(#a)" stroke="#000" stroke-dasharray="108.73158373784881, 11"><path class="EdgeBody" d="m616.32 438.08-104.35 58.714"   marker-end="url(#b)" /></g></g><g id="ay" class="Interaction" color="#000" ><g color="#000" fill="transparent"  filter="url(#a)" stroke="#000" stroke-dasharray="103.54659150821507, 11"><path class="EdgeBody" d="m340.94 473.61 99.697-56.404"   marker-end="url(#b)" /></g></g><g id="az" class="Interaction" color="#000" ><g color="#000" fill="transparent"  filter="url(#a)" stroke="#000" stroke-dasharray="49.61366717562131, 11"><path class="EdgeBody" d="m743.82 337.06 60.597-1.419"   marker-end="url(#b)" /></g></g><g id="ba" class="Interaction" color="#000" ><g color="#000" fill="transparent"  filter="url(#a)" stroke="#000" stroke-dasharray="37.32262649882936, 11"><path class="EdgeBody" d="m686.84 270.24-0.016064 48.323"   marker-end="url(#b)" /></g></g><g class="Label" transform="translate(548.69 567)" color="#000"  name="abnormal"><use class="Icon" width="90" height="25" fill="transparent"  stroke="#000" stroke-width="0" xlink:href="#d"/><text class="Text" transform="translate(45,16.5)"   font-size="12px"  text-anchor="middle"><tspan x="0" y="0">abnormal</tspan></text></g><g class="Label" transform="translate(837.32 243.93)" color="#000"  name="Misfolded proteins"><rect class="Icon" transform="matrix(.98851 0 0 .97647 .49425 .48824)" width="86" height="41.5" rx="15" ry="15" fill="#fff" stroke="#000"/><text class="Text" transform="translate(43,24.75)"   font-size="12px"  text-anchor="middle"><tspan x="0" y="-6.6000000000000005">Misfolded</tspan> <tspan x="0" y="6.6000000000000005">proteins</tspan></text></g><g class="Label" transform="translate(133.57 482.14)" color="#000"  name="Legend Interaction Conversion Translation Stimulation Inhibition"><use class="Icon" width="122.80612244897969" height="118.62244897959164" fill="transparent"  stroke="#000" stroke-width="0" xlink:href="#d"/><text class="Text" transform="translate(8 64.311)"   font-size="16px" ><tspan x="0" y="-44">Legend</tspan> <tspan x="0" y="-26.400000000000002">Interaction</tspan> <tspan x="0" y="-8.8">Conversion</tspan> <tspan x="0" y="8.8">Translation</tspan> <tspan x="0" y="26.400000000000002">Stimulation</tspan> <tspan x="0" y="44">Inhibition</tspan></text></g><a  class="GeneProduct BACE1 " transform="translate(373.79 323.13)"   name="BACE1"  ><rect class="Icon" transform="matrix(.98901 0 0 .96154 .49451 .48077)" width="90" height="25" fill="#fff" stroke="#000"/><text class="Text" transform="translate(45,16.5)"   font-size="12px"  text-anchor="middle"><tspan x="0" y="0">BACE1</tspan></text></a><a  class="Unknown" transform="translate(58,241.5)"   name="Risk gene"  ><rect class="Icon" transform="matrix(.98901 0 0 .96154 .49451 .48077)" width="90" height="25" rx="15" ry="15" fill="#fff" stroke="#000"/><text class="Text" transform="translate(45,16.5)"   font-size="12px"  text-anchor="middle"><tspan x="0" y="0">Risk gene</tspan></text></a><g class="Unknown" transform="translate(444.29 599.72)" color="#000"  name="Paired helical filaments"><rect class="Icon" transform="matrix(.9929 0 0 .96154 .49645 .48077)" width="139.82" height="25" rx="15" ry="15" fill="#fff" stroke="#000"/><text class="Text" transform="translate(69.909 16.5)"   font-size="12px"  text-anchor="middle"><tspan x="0" y="0">Paired helical filaments</tspan></text></g><a  class="GeneProduct MSTN " transform="translate(804.42 323.14)"   name="MSTN"  ><rect class="Icon" transform="matrix(.98901 0 0 .96154 .49451 .48077)" width="90" height="25" fill="#fff" stroke="#000"/><text class="Text" transform="translate(45,16.5)"   font-size="12px"  text-anchor="middle"><tspan x="0" y="0">MSTN</tspan></text></a><a class="WikiPathways_WP183 Pathway " transform="translate(463.68 282.7)" color="#14961e"  name="Proteasome degradation"  ><rect class="Icon" transform="matrix(.99324 0 0 .96154 .49662 .48077)" width="147" height="25" rx="15" ry="15" fill="#fff" stroke="#14961e"/><text class="Text" transform="translate(73.5,16.5)" fill="#14961e"  font-size="12px" font-weight="bold" stroke="black" stroke-width="0" text-anchor="middle"><tspan x="0" y="0">Proteasome degradation</tspan></text></a><a class="WikiPathways_WP453 Pathway " transform="translate(179.02 155.21)" color="#14961e"  name="Inflammatory response pathway"  ><rect class="Icon" transform="matrix(.99505 0 0 .96154 .49752 .48077)" width="201" height="25" rx="15" ry="15" fill="#fff" stroke="#14961e"/><text class="Text" transform="translate(100.5,16.5)" fill="#14961e"  font-size="12px" font-weight="bold" stroke="black" stroke-width="0" text-anchor="middle"><tspan x="0" y="0">Inflammatory response pathway</tspan></text></a><g class="Unknown" transform="translate(1030.3 250.15)" color="#000"  name="Congophilic inclusions"><rect class="Icon" transform="matrix(.99259 0 0 .96154 .4963 .48077)" width="134" height="25" rx="15" ry="15" fill="#fff" stroke="#000"/><text class="Text" transform="translate(67,16.5)"   font-size="12px"  text-anchor="middle"><tspan x="0" y="0">Congophilic inclusions</tspan></text></g><g class="WikiPathways_WP3549 Pathway" transform="translate(758.18 545.34)" color="#14961e"  name="Mitophagy"><rect class="Icon" transform="matrix(.98901 0 0 .96154 .49451 .48077)" width="90" height="25" rx="15" ry="15" fill="#fff" stroke="#14961e"/><text class="Text" transform="translate(45,16.5)" fill="#14961e"  font-size="12px" font-weight="bold" stroke="black" stroke-width="0" text-anchor="middle"><tspan x="0" y="0">Mitophagy</tspan></text></g><a  class="GeneProduct SIRT1 " transform="translate(641.84 245.24)"   name="SIRT1"  ><rect class="Icon" transform="matrix(.98901 0 0 .96154 .49451 .48077)" width="90" height="25" fill="#fff" stroke="#000"/><text class="Text" transform="translate(45,16.5)"   font-size="12px"  text-anchor="middle"><tspan x="0" y="0">SIRT1</tspan></text></a><a  class="Unknown" transform="translate(907.72 97.207)"   name="Autophagosome"  ><rect class="Icon" transform="matrix(.99065 0 0 .96154 .49533 .48077)" width="106" height="25" rx="15" ry="15" fill="#fff" stroke="#000"/><text class="Text" transform="translate(53,16.5)"   font-size="12px"  text-anchor="middle"><tspan x="0" y="0">Autophagosome</tspan></text></a><a  class="Unknown" transform="translate(967.05 542.89)"   name="Neuromuscular  junction"  ><rect class="Icon" transform="matrix(.99009 0 0 .96764 .49504 .48382)" width="99.886" height="29.903" rx="15" ry="15" fill="#fff" stroke="#000"/><text class="Text" transform="translate(49.943 18.951)"   font-size="12px"  text-anchor="middle"><tspan x="0" y="-6.6000000000000005">Neuromuscular </tspan> <tspan x="0" y="6.6000000000000005">junction</tspan></text></a><g class="Unknown" transform="translate(756.39 382.13)" color="#000"  name="Non-congophilic diffuse inclusions"><rect class="Icon" transform="matrix(.99501 0 0 .96154 .4975 .48077)" width="199.36" height="25" rx="15" ry="15" fill="#fff" stroke="#000"/><text class="Text" transform="translate(99.678 16.5)"   font-size="12px"  text-anchor="middle"><tspan x="0" y="0">Non-congophilic diffuse inclusions</tspan></text></g><g class="WikiPathways_WP1822 Pathway" transform="translate(658.65 545.34)" color="#14961e"  name="Transcription"><rect class="Icon" transform="matrix(.98901 0 0 .96154 .49451 .48077)" width="90" height="25" rx="15" ry="15" fill="#fff" stroke="#14961e"/><text class="Text" transform="translate(45,16.5)" fill="#14961e"  font-size="12px" font-weight="bold" stroke="black" stroke-width="0" text-anchor="middle"><tspan x="0" y="0">Transcription</tspan></text></g><g class="WikiPathways_WP1939 Pathway" transform="translate(564.19 155.21)" color="#14961e"  name="Unfolded Protein Response (UPR)"><rect class="Icon" transform="matrix(.99524 0 0 .96154 .49762 .48077)" width="209" height="25" rx="15" ry="15" fill="#fff" stroke="#14961e"/><text class="Text" transform="translate(104.5,16.5)" fill="#14961e"  font-size="12px" font-weight="bold" stroke="black" stroke-width="0" text-anchor="middle"><tspan x="0" y="0">Unfolded Protein Response (UPR)</tspan></text></g><a  class="GeneProduct MAPT " transform="translate(466.97 496.79)"   name="MAPT"  ><rect class="Icon" transform="matrix(.98901 0 0 .96154 .49451 .48077)" width="90" height="25" fill="#fff" stroke="#000"/><text class="Text" transform="translate(45,16.5)"   font-size="12px"  text-anchor="middle"><tspan x="0" y="0">MAPT</tspan></text></a><a  class="Unknown" transform="translate(139.9 391.96)"   name="Aging"  ><rect class="Icon" transform="matrix(.98901 0 0 .96154 .49451 .48077)" width="90" height="25" rx="15" ry="15" fill="#fff" stroke="#000"/><text class="Text" transform="translate(45,16.5)"   font-size="12px"  text-anchor="middle"><tspan x="0" y="0">Aging</tspan></text></a><a  class="Unknown" transform="translate(214,240.5)"   name="Environmental factor"  ><rect class="Icon" transform="matrix(.99138 0 0 .96154 .49569 .48077)" width="115" height="25" rx="15" ry="15" fill="#fff" stroke="#000"/><text class="Text" transform="translate(57.5,16.5)"   font-size="12px"  text-anchor="middle"><tspan x="0" y="0">Environmental factor</tspan></text></a><a class="Rna APP " transform="translate(285.76 392.13)" color="#990099"  name="AbPP-mRNA"  ><rect class="Icon" transform="matrix(.98901 0 0 .96154 .49451 .48077)" width="90" height="25" fill="#fff" stroke="#909"/><text class="Text" transform="translate(45,16.5)" fill="#990099"  font-size="12px"  text-anchor="middle"><tspan x="0" y="0">AbPP-mRNA</tspan></text></a><a  class="Unknown" transform="translate(62.766 155.21)"   name="Autoimmunity"  ><rect class="Icon" transform="matrix(.98901 0 0 .96154 .49451 .48077)" width="90" height="25" rx="15" ry="15" fill="#fff" stroke="#000"/><text class="Text" transform="translate(45,16.5)"   font-size="12px"  text-anchor="middle"><tspan x="0" y="0">Autoimmunity</tspan></text></a><g class="Pfam_PF03494 GeneProduct" transform="translate(571.32 413.08)" color="#000"  name="beta-APP"><rect class="Icon" transform="matrix(.98901 0 0 .96154 .49451 .48077)" width="90" height="25" fill="#fff" stroke="#000"/><text class="Text" transform="translate(45,16.5)"   font-size="12px"  text-anchor="middle"><tspan x="0" y="0">beta-APP</tspan></text></g><a class="WikiPathways_WP4923 Pathway " transform="translate(845.3 154.96)" color="#14961e"  name="Autophagy"  ><rect class="Icon" transform="matrix(.99213 0 0 .96226 .49606 .48113)" width="126" height="25.5" rx="15" ry="15" fill="#fff" stroke="#14961e"/><text class="Text" transform="translate(63,16.75)" fill="#14961e"  font-size="12px" font-weight="bold" stroke="black" stroke-width="0" text-anchor="middle"><tspan x="0" y="0">Autophagy</tspan></text></a><a  class="Unknown" transform="translate(534.81 545.34)"   name="Signal transduction"  ><rect class="Icon" transform="matrix(.99116 0 0 .96154 .49558 .48077)" width="112.13" height="25" rx="15" ry="15" fill="#fff" stroke="#000"/><text class="Text" transform="translate(56.065 16.5)"   font-size="12px"  text-anchor="middle"><tspan x="0" y="0">Signal transduction</tspan></text></a><a class="WikiPathways_WP408 Pathway " transform="translate(853.09 545.34)" color="#14961e"  name="Oxidative stress"  ><rect class="Icon" transform="matrix(.99026 0 0 .96154 .49513 .48077)" width="101.71" height="25" rx="15" ry="15" fill="#fff" stroke="#14961e"/><text class="Text" transform="translate(50.856 16.5)" fill="#14961e"  font-size="12px" font-weight="bold" stroke="black" stroke-width="0" text-anchor="middle"><tspan x="0" y="0">Oxidative stress</tspan></text></a><g class="GroupComplex" transform="translate(268.41 473.61)" color="grey" ><use class="Icon" transform="matrix(.99315 0 0 .99333 .49658 .49667)" width="145.07497243660418" height="149" fill="#b4b464" fill-opacity=".1" stroke="grey" xlink:href="#i"/><a  class="GeneProduct PSEN1 " transform="translate(27.537 37)"   name="PSEN1"  ><rect class="Icon" transform="matrix(.98901 0 0 .96154 .49451 .48077)" width="90" height="25" fill="#fff" stroke="#000"/><text class="Text" transform="translate(45,16.5)"   font-size="12px"  text-anchor="middle"><tspan x="0" y="0">PSEN1</tspan></text></a><a  class="GeneProduct NCSTN " transform="translate(27.537 87)"   name="NCSTN"  ><rect class="Icon" transform="matrix(.98901 0 0 .96154 .49451 .48077)" width="90" height="25" fill="#fff" stroke="#000"/><text class="Text" transform="translate(45,16.5)"   font-size="12px"  text-anchor="middle"><tspan x="0" y="0">NCSTN</tspan></text></a><a  class="GeneProduct PSENEN " transform="translate(27.537 112)"   name="PSENEN"  ><rect class="Icon" transform="matrix(.98901 0 0 .96154 .49451 .48077)" width="90" height="25" fill="#fff" stroke="#000"/><text class="Text" transform="translate(45,16.5)"   font-size="12px"  text-anchor="middle"><tspan x="0" y="0">PSENEN</tspan></text></a><a  class="GeneProduct PSEN2 " transform="translate(27.537 62)"   name="PSEN2"  ><rect class="Icon" transform="matrix(.98901 0 0 .96154 .49451 .48077)" width="90" height="25" fill="#fff" stroke="#000"/><text class="Text" transform="translate(45,16.5)"   font-size="12px"  text-anchor="middle"><tspan x="0" y="0">PSEN2</tspan></text></a><g class="Complex" transform="translate(12,12)" color="#000"  name="Y-sectretase complex"><rect class="Icon" transform="matrix(.99181 0 0 .96154 .4959 .48077)" width="121.07" height="25" rx="15" ry="15" fill="#fff" stroke="#000"/><text class="Text" transform="translate(60.537 16.5)"   font-size="12px"  text-anchor="middle"><tspan x="0" y="0">Y-sectretase complex</tspan></text></g></g><g class="GroupComplex" transform="translate(629.82 318.56)" color="grey" ><use class="Icon" transform="matrix(.9913 0 0 .98667 .49565 .49333)" width="114" height="74" fill="#b4b464" fill-opacity=".1" stroke="grey" xlink:href="#i"/><a  class="GeneProduct NFKB1 " transform="translate(12,12)"   name="NFKB1"  ><rect class="Icon" transform="matrix(.98901 0 0 .96154 .49451 .48077)" width="90" height="25" fill="#fff" stroke="#000"/><text class="Text" transform="translate(45,16.5)"   font-size="12px"  text-anchor="middle"><tspan x="0" y="0">NFKB1</tspan></text></a><a  class="GeneProduct NFKB2 " transform="translate(12,37)"   name="NFKB2"  ><rect class="Icon" transform="matrix(.98901 0 0 .96154 .49451 .48077)" width="90" height="25" fill="#fff" stroke="#000"/><text class="Text" transform="translate(45,16.5)"   font-size="12px"  text-anchor="middle"><tspan x="0" y="0">NFKB2</tspan></text></a></g><a  class="Protein APP " transform="translate(418.14 392.21)"   name="AbPP"  ><rect class="Icon" transform="matrix(.98901 0 0 .96154 .49451 .48077)" width="90" height="25" fill="#fff" stroke="#000"/><text class="Text" transform="translate(45,16.5)"   font-size="12px"  text-anchor="middle"><tspan x="0" y="0">AbPP</tspan></text></a><g class="Pfam_PF03494 GeneProduct" transform="translate(755.52 427.49)" color="#000"  name="fibrillar beta-APP"><rect class="Icon" transform="matrix(.99116 0 0 .96154 .49558 .48077)" width="112.18" height="25" fill="#fff" stroke="#000"/><text class="Text" transform="translate(56.089 16.5)"   font-size="12px"  text-anchor="middle"><tspan x="0" y="0">fibrillar beta-APP</tspan></text></g><g class="Label" transform="translate(655.92 565.42)" color="#000"  name="abnormal"><use class="Icon" width="90" height="25" fill="transparent"  stroke="#000" stroke-width="0" xlink:href="#d"/><text class="Text" transform="translate(45,16.5)"   font-size="12px"  text-anchor="middle"><tspan x="0" y="0">abnormal</tspan></text></g><g id="bb" class="Interaction" color="#000" ><g color="#000" fill="transparent"  filter="url(#a)" stroke="#000" stroke-dasharray="104.3085969783179, 11"><path class="EdgeBody" d="m638.82 438.08 42.33 107.26"   marker-end="url(#b)" /></g></g><g class="Label" transform="translate(760.82 566.17)" color="#000"  name="abnormal"><use class="Icon" width="90" height="25" fill="transparent"  stroke="#000" stroke-width="0" xlink:href="#d"/><text class="Text" transform="translate(45,16.5)"   font-size="12px"  text-anchor="middle"><tspan x="0" y="0">abnormal</tspan></text></g><g id="bc" class="Interaction" color="#000" ><g color="#000" fill="transparent"  filter="url(#a)" stroke="#000" stroke-dasharray="82.22872486336291, 11"><path class="EdgeBody" d="m811.61 452.49-8.422 92.848"   marker-end="url(#b)" /></g></g><g id="bd" class="Interaction" color="#000" ><g color="#000" fill="transparent"  filter="url(#a)" stroke="#000" stroke-dasharray="166.8498760529424, 11"><path class="EdgeBody" d="m638.82 438.08 141.87 107.26"   marker-end="url(#b)" /></g></g><g class="Label" transform="translate(971.63 566.79)" color="#000"  name="abnormal"><use class="Icon" width="90" height="25" fill="transparent"  stroke="#000" stroke-width="0" xlink:href="#d"/><text class="Text" transform="translate(45,16.5)"   font-size="12px"  text-anchor="middle"><tspan x="0" y="0">abnormal</tspan></text></g><g id="be" class="Interaction" color="#c00" ><g color="#c00" fill="transparent"  filter="url(#c)" stroke="#000" stroke-dasharray="42.66967132043797, 5.8"><path class="EdgeBody" d="m75.255 513.9 48.469 0.13265"   marker-end="url(#f)" /></g></g><g id="bf" class="Edge GraphicalLine" color="#000" ><g color="#000" fill="transparent"  filter="url(#a)" stroke="#000" stroke-dasharray="36.3862023836866, 7"><path class="EdgeBody" d="m75.255 588.01 43.367 1.2755"   marker-end="url(#h)" /></g></g><g id="bg" class="Edge GraphicalLine" color="#000" ><g color="#000" fill="transparent"  filter="url(#a)" stroke="#000" stroke-dasharray="37.481043210859994, 5.8"><path class="EdgeBody" d="m75.255 530.78 43.269 1.0254"   marker-end="url(#f)" /></g></g><g id="bh" class="Interaction" color="#000" ><g color="#000" fill="transparent"  filter="url(#a)" stroke="#000" stroke-dasharray="33.64295918367347, 11"><path class="EdgeBody" d="m75.255 545.92h44.643"   marker-end="url(#g)" /></g></g><text class="Text" transform="translate(5,27)" dominant-baseline="central" fill="black"  font-size="12px" font-weight="bold" overflow="visible" ><tspan x="0" y="-9">Name: Inclusion body myositis</tspan> <tspan x="0" y="9">Organism: Homo sapiens</tspan></text></g></svg>
