<?xml version="1.0" encoding="UTF-8"?>
<!--
  WikiPathways page: https://www.wikipathways.org/index.php/Pathway:WP522
  URL for this compressed file: https://github.com/eweitz/cachome/tree/main/data/wikipathways/WP522.svg
  Source code for compression: https://github.com/eweitz/cachome/tree/main/src/wikipathways.py
-->
<svg class="Diagram" width="800" height="600" color="black" baseProfile="full" prefix="schema:http://schema.org/" preserveAspectRatio="xMidYMid" version="1.1" viewBox="0 0 700.4 706.05" vocab="http://vocabularies.wikipathways.org/wp#" xmlns="http://www.w3.org/2000/svg" xmlns:xlink="http://www.w3.org/1999/xlink"><style>svg {font-family: 'Liberation Sans', Arial, sans-serif; }</style><defs><filter id="a" x="0" y="0" width="700.4" height="706.05" filterUnits="userSpaceOnUse"><feColorMatrix in="SourceGraphic" values="-1   0   0 0 0                   0  -1   0 0 0                   0   0  -1 0 0                   0   0   0 1 0"/></filter><marker id="e" stroke-dasharray="99999" markerHeight="12" markerUnits="userSpaceOnUse" markerWidth="12" orient="auto" preserveAspectRatio="none" refX="12" refY="6" viewBox="0 0 12 12"><path transform="rotate(180 6 6)" d="M12 11L0 6l12-5z" fill="currentColor" stroke-width="0"/></marker><marker id="c" stroke-dasharray="99999" markerHeight="12" markerUnits="userSpaceOnUse" markerWidth="12" orient="auto" preserveAspectRatio="none" refX="12" refY="6" viewBox="0 0 12 12"><circle transform="rotate(180 6 6)" cx="6" cy="6" r="5.3" fill="none" stroke="#000"/></marker><marker id="d" stroke-dasharray="99999" markerHeight="12" markerUnits="userSpaceOnUse" markerWidth="12" orient="auto" preserveAspectRatio="none" refX="12" refY="6" viewBox="0 0 12 12"><path transform="rotate(180 6 6)" d="M12 11L0 6l12-5z" fill="currentColor" stroke-width="0"/></marker><symbol id="f" overflow="visible" preserveAspectRatio="none" viewBox="0 0 100 100"><circle cx="50" cy="50" r="49" stroke="currentColor" vector-effect="non-scaling-stroke"/><path d="m1 1 99 99" stroke="currentColor" vector-effect="non-scaling-stroke"/></symbol><symbol id="b" preserveAspectRatio="none" viewBox="0 0 100 100"/></defs><g class="Viewport" color="black"  name="Name: Biogenic amine synthesis Organism: Mus musculus"><rect class="Icon" width="700.4" height="706.05" fill="#fff" stroke="#000" stroke-width="0"/><g id="g" class="Interaction" color="#000" ><g color="#000" fill="transparent"  filter="url(#a)" stroke="#000" stroke-dasharray="66.2, 5.8"><path class="EdgeBody" d="m416.67 343.73v72"   marker-end="url(#d)" /></g><g class="Burr Anchor" transform="translate(416.67 379.35)" ><use class="Icon" width="0" height="0" fill="#141414" stroke-width="0" xlink:href="#b"/></g></g><g id="h" class="Interaction" color="#000" ><g color="#000" fill="transparent"  filter="url(#a)" stroke="#000" stroke-dasharray="68.53333333333335, 5.8"><path class="EdgeBody" d="m416.67 167.07v74.333"   marker-end="url(#d)" /></g><g class="Burr Anchor" transform="translate(416.67 196.8)" ><use class="Icon" width="0" height="0" fill="#141414" stroke-width="0" xlink:href="#b"/></g></g><g id="i" class="Interaction" color="#000" ><g color="#000" fill="transparent"  filter="url(#a)" stroke="#000" stroke-dasharray="80.03398058008393, 5.8"><path class="EdgeBody" d="m257.74 243.53 0.33333 85.833"   marker-end="url(#d)" /></g><g class="Burr Anchor" transform="translate(257.87 277.02)" ><use class="Icon" width="0" height="0" fill="#141414" stroke-width="0" xlink:href="#b"/></g></g><g id="j" class="Interaction" color="#000" ><g color="#000" fill="transparent"  filter="url(#a)" stroke="#000" stroke-dasharray="26.366190897952457, 11"><path class="EdgeBody" d="m454 195.23-37.333 1.5667"   marker-end="url(#c)" /></g></g><g id="k" class="Interaction" color="#000" ><g color="#000" fill="transparent"  filter="url(#a)" stroke="#000" stroke-dasharray="26.361674606755855, 11"><path class="EdgeBody" d="m454 377.9-37.333 1.455"   marker-end="url(#c)" /></g></g><g id="l" class="DirectedInteraction" color="#000" ><g color="#000" fill="transparent"  filter="url(#a)" stroke="#000" stroke-dasharray="5, 3, 5, 3, 5, 3, 5, 3, 5, 3, 5, 3, 5, 3, 5, 3, 5, 3, 5, 3, 5, 3, 5, 3, 5, 3, 5, 3, 5, 3, 5, 3, 5, 3, 5, 3, 5, 3, 5, 3, 5, 3, 5, 3, 5, 3, 5, 3, 5, 3, 5, 3, 5, 3, 5, 3, 5, 3, 5, 3, 5, 3, 5, 3, 5, 3, 5, 3, 5, 3, 5, 3, 5, 3, 5, 3, 5, 3, 5, 3, 5, 3, 5, 3, 5, 3, 5, 3, 5, 3, 5, 3, 5, 3, 5, 3, 5, 3, 5, 3, 5, 3, 5, 3, 5, 3, 5, 3, 5, 3, 5, 3, 5, 3, 5, 3, 5, 3, 5, 3, 0, 5.8"><path class="EdgeBody" d="m618 333.37h72.043v292.69h-98.464v20"   marker-end="url(#e)" /></g><g class="Burr Anchor" transform="translate(690.04 520.35)" ><use class="Icon" width="0" height="0" fill="#141414" stroke-width="0" xlink:href="#b"/></g><g class="Burr Anchor" transform="translate(690.04 584.42)" ><use class="Icon" width="0" height="0" fill="#141414" stroke-width="0" xlink:href="#b"/></g><g class="Burr Anchor" transform="translate(690.04 422.51)" ><use class="Icon" width="0" height="0" fill="#141414" stroke-width="0" xlink:href="#b"/></g></g><g id="m" class="DirectedInteraction" color="#000" ><g color="#000" fill="transparent"  filter="url(#a)" stroke="#000" stroke-dasharray="5.54, 3.33, 5.54, 3.33, 5.54, 3.33, 5.54, 3.33, 5.54, 3.33, 5.54, 3.33, 5.54, 5.8"><path class="EdgeBody" d="m65.333 348.87 0.15 64.554"   marker-end="url(#e)" /></g><g class="Burr Anchor" transform="translate(65.393 374.69)" ><use class="Icon" width="0" height="0" fill="#141414" stroke-width="0" xlink:href="#b"/></g></g><g id="n" class="DirectedInteraction" color="#000" ><g color="#000" fill="transparent"  filter="url(#a)" stroke="#000" stroke-dasharray="5.04, 3.02, 5.04, 3.02, 5.04, 3.02, 5.04, 3.02, 5.04, 3.02, 5.04, 3.02, 5.04, 3.02, 5.04, 3.02, 5.04, 3.02, 5.04, 3.02, 5.04, 3.02, 5.04, 3.02, 5.04, 3.02, 5.04, 3.02, 5.04, 3.02, 5.04, 3.02, 5.04, 3.02, 5.04, 3.02, 5.04, 3.02, 5.04, 3.02, 5.04, 3.02, 5.04, 3.02, 5.04, 3.02, 5.04, 3.02, 5.04, 3.02, 5.04, 3.02, 5.04, 3.02, 5.04, 3.02, 5.04, 3.02, 5.04, 3.02, 5.04, 3.02, 5.04, 3.02, 5.04, 3.02, 5.04, 3.02, 5.04, 3.02, 5.04, 3.02, 5.04, 3.02, 5.04, 3.02, 5.04, 3.02, 5.04, 3.02, 5.04, 3.02, 5.04, 5.8"><path class="EdgeBody" d="m376.5 334.23h-15.447v249.19h56.536v20"   marker-end="url(#e)" /></g><g class="Burr Anchor" transform="translate(361.05 548.2)" ><use class="Icon" width="0" height="0" fill="#141414" stroke-width="0" xlink:href="#b"/></g></g><g id="o" class="Interaction" color="#000" ><g color="#000" fill="transparent"  filter="url(#a)" stroke="#000" stroke-dasharray="25.721998979033508, 11"><path class="EdgeBody" d="m324.33 547.75 36.719 0.44536"   marker-end="url(#c)" /></g></g><g id="p" class="Interaction" color="#000" ><g color="#000" fill="transparent"  filter="url(#a)" stroke="#000" stroke-dasharray="72.33333333333333, 5.8"><path class="EdgeBody" d="m576.33 432.87v78.133"   marker-end="url(#d)" /></g><g class="Burr Anchor" transform="translate(576.33 472.27)" ><use class="Icon" width="0" height="0" fill="#141414" stroke-width="0" xlink:href="#b"/></g></g><g id="q" class="Interaction" color="#000" ><g color="#000" fill="transparent"  filter="url(#a)" stroke="#000" stroke-dasharray="68.53333333333332, 5.8"><path class="EdgeBody" d="m576.33 166.2-2e-13 74.333"   marker-end="url(#d)" /></g><g class="Burr Anchor" transform="translate(576.33 195.93)" ><use class="Icon" width="0" height="0" fill="#141414" stroke-width="0" xlink:href="#b"/></g></g><g id="r" class="Interaction" color="#000" ><g color="#000" fill="transparent"  filter="url(#a)" stroke="#000" stroke-dasharray="58.533333333333374, 5.8"><path class="EdgeBody" d="m576.33 259.53v64.333"   marker-end="url(#d)" /></g><g class="Burr Anchor" transform="translate(576.33 290)" ><use class="Icon" width="0" height="0" fill="#141414" stroke-width="0" xlink:href="#b"/></g></g><g id="s" class="Interaction" color="#000" ><g color="#000" fill="transparent"  filter="url(#a)" stroke="#000" stroke-dasharray="23.081012757222183, 11"><path class="EdgeBody" d="m610.4 290.89-34.069-0.89481"   marker-end="url(#c)" /></g></g><g id="t" class="Interaction" color="#000" ><g color="#000" fill="transparent"  filter="url(#a)" stroke="#000" stroke-dasharray="58.53333333333332, 5.8"><path class="EdgeBody" d="m416.67 260.4 1.1e-13 64.333"   marker-end="url(#d)" /></g><g class="Burr Anchor" transform="translate(416.67 286.13)" ><use class="Icon" width="0" height="0" fill="#141414" stroke-width="0" xlink:href="#b"/></g></g><g id="u" class="Interaction" color="#000" ><g color="#000" fill="transparent"  filter="url(#a)" stroke="#000" stroke-dasharray="20.946191870623217, 11"><path class="EdgeBody" d="m97.339 374.52-31.946 0.16402"   marker-end="url(#c)" /></g></g><g id="v" class="Interaction" color="#000" ><g color="#000" fill="transparent"  filter="url(#a)" stroke="#000" stroke-dasharray="26.333345985529007, 11"><path class="EdgeBody" d="m454 286.16-37.333-0.030736"   marker-end="url(#c)" /></g></g><g id="w" class="Interaction" color="#000" ><g color="#000" fill="transparent"  filter="url(#a)" stroke="#000" stroke-dasharray="80.53333333333329, 5.8"><path class="EdgeBody" d="m45.125 243.53v86.333"   marker-end="url(#d)" /></g><g class="Burr Anchor" transform="translate(45.125 278.07)" ><use class="Icon" width="0" height="0" fill="#141414" stroke-width="0" xlink:href="#b"/></g></g><g id="x" class="Interaction" color="#000" ><g color="#000" fill="transparent"  filter="url(#a)" stroke="#000" stroke-dasharray="5.13, 3.08, 5.13, 3.08, 5.13, 3.08, 5.13, 3.08, 5.13, 3.08, 5.13, 3.08, 5.13, 3.08, 5.13, 3.08, 5.13, 0"><path class="EdgeBody" d="m619.25 423.37 70.793-0.85584"   /></g></g><g id="y" class="Interaction" color="#000" ><g color="#000" fill="transparent"  filter="url(#a)" stroke="#000" stroke-dasharray="23.0778891951814, 11"><path class="EdgeBody" d="m610.4 196.7-34.069-0.76667"   marker-end="url(#c)" /></g></g><g id="z" class="Interaction" color="#000" ><g color="#000" fill="transparent"  filter="url(#a)" stroke="#000" stroke-dasharray="80.53333333333332, 5.8"><path class="EdgeBody" d="m146.33 243.53-3e-14 86.333"   marker-end="url(#d)" /></g><g class="Burr Anchor" transform="translate(146.33 278.07)" ><use class="Icon" width="0" height="0" fill="#141414" stroke-width="0" xlink:href="#b"/></g></g><g id="aa" class="Interaction" color="#000" ><g color="#000" fill="transparent"  filter="url(#a)" stroke="#000" stroke-dasharray="12.832278149965319, 11"><path class="EdgeBody" d="m68.952 277.57-23.827 0.50005"   marker-end="url(#c)" /></g></g><g id="ab" class="Interaction" color="#000" ><g color="#000" fill="transparent"  filter="url(#a)" stroke="#000" stroke-dasharray="72.33333333333339, 5.8"><path class="EdgeBody" d="m416.67 434.73v78.133"   marker-end="url(#d)" /></g><g class="Burr Anchor" transform="translate(416.67 465.99)" ><use class="Icon" width="0" height="0" fill="#141414" stroke-width="0" xlink:href="#b"/></g></g><g id="ac" class="Interaction" color="#000" ><g color="#000" fill="transparent"  filter="url(#a)" stroke="#000" stroke-dasharray="26.337838418657448, 11"><path class="EdgeBody" d="m454 466.57-37.333-0.58"   marker-end="url(#c)" /></g></g><g id="ad" class="Interaction" color="#000" ><g color="#000" fill="transparent"  filter="url(#a)" stroke="#000" stroke-dasharray="23.1144258866384, 11"><path class="EdgeBody" d="m610.4 474.03-34.069-1.7548"   marker-end="url(#c)" /></g></g><g id="ae" class="Interaction" color="#000" ><g color="#000" fill="transparent"  filter="url(#a)" stroke="#000" stroke-dasharray="71.86666666666666, 5.8"><path class="EdgeBody" d="m576.33 69.533v77.667"   marker-end="url(#d)" /></g><g class="Burr Anchor" transform="translate(576.33 100.6)" ><use class="Icon" width="0" height="0" fill="#141414" stroke-width="0" xlink:href="#b"/></g></g><g id="af" class="Interaction" color="#000" ><g color="#000" fill="transparent"  filter="url(#a)" stroke="#000" stroke-dasharray="23.075134180233263, 11"><path class="EdgeBody" d="m610.4 101.23-34.069-0.63247"   marker-end="url(#c)" /></g></g><g id="ag" class="Interaction" color="#000" ><g color="#000" fill="transparent"  filter="url(#a)" stroke="#000" stroke-dasharray="65.2, 5.8"><path class="EdgeBody" d="m576.33 342.87 2e-13 71"   marker-end="url(#d)" /></g><g class="Burr Anchor" transform="translate(576.33 371.27)" ><use class="Icon" width="0" height="0" fill="#141414" stroke-width="0" xlink:href="#b"/></g></g><g id="ah" class="Interaction" color="#000" ><g color="#000" fill="transparent"  filter="url(#a)" stroke="#000" stroke-dasharray="23.07057726969672, 11"><path class="EdgeBody" d="m610.4 371.57-34.069-0.29913"   marker-end="url(#c)" /></g></g><g id="ai" class="Interaction" color="#000" ><g color="#000" fill="transparent"  filter="url(#a)" stroke="#000" stroke-dasharray="12.242721998517219, 11"><path class="EdgeBody" d="m169.38 281.08-23.047-3.0135"   marker-end="url(#c)" /></g></g><g id="aj" class="Interaction" color="#000" ><g color="#000" fill="transparent"  filter="url(#a)" stroke="#000" stroke-dasharray="60.459182986340636, 11"><path class="EdgeBody" d="m618.59 583.81 71.457 0.60804"   marker-end="url(#c)" /></g></g><g id="ak" class="Interaction" color="#000" ><g color="#000" fill="transparent"  filter="url(#a)" stroke="#000" stroke-dasharray="10.755280449705818, 11"><path class="EdgeBody" d="m279.42 280.04-21.545-3.0155"   marker-end="url(#c)" /></g></g><g class="SingleFreeNode Shape" transform="translate(50.483 413.42)" color="#000" ><use class="Icon" transform="matrix(.96774 0 0 .96774 .48387 .48387)" width="30" height="30" fill="transparent"  stroke="#000" xlink:href="#f"/></g><g class="SingleFreeNode Shape" transform="translate(576.58 646.05)" color="#000" ><use class="Icon" transform="matrix(.96774 0 0 .96774 .48387 .48387)" width="30" height="30" fill="transparent"  stroke="#000" xlink:href="#f"/></g><g class="Label" transform="translate(37.377 85.914)" color="#000"  name="Synthesis pathways for biogenic amines follow solid arrows through enzymatic steps, while degradation steps follow dashed arrows."><rect class="Icon" transform="matrix(.99661 0 0 .98361 .4983 .4918)" width="293.67" height="60" fill="#fff" stroke="#000"/><text class="Text" transform="translate(146.83 33)"   font-size="10px" font-weight="bold"  text-anchor="middle"><tspan x="0" y="-11">Synthesis pathways for biogenic amines</tspan> <tspan x="0" y="0">follow solid arrows through enzymatic steps,</tspan> <tspan x="0" y="11">while degradation steps follow dashed arrows.</tspan></text></g><a class="Metabolite ChEBI_CHEBI_15354  " transform="translate(24.917 224.53)" color="#00f"  name="Choline"  ><rect class="Icon" transform="matrix(.98778 0 0 .95 .49389 .475)" width="80.833" height="19" fill="#fff" stroke="#00f"/><text class="Text" transform="translate(40.417 12.5)" fill="#00f"  font-size="10px"  text-anchor="middle"><tspan x="0" y="0">Choline</tspan></text></a><a class="Metabolite ChEBI_CHEBI_28918  " transform="translate(536.33 511)" color="#00f"  name="Epinephrine"  ><rect class="Icon" transform="matrix(.98765 0 0 .95238 .49383 .47619)" width="80" height="20" fill="#fff" stroke="#00f"/><text class="Text" transform="translate(40,13)" fill="#00f"  font-size="10px"  text-anchor="middle"><tspan x="0" y="0">Epinephrine</tspan></text></a><a class="Metabolite ChEBI_CHEBI_17780  " transform="translate(353.5 241.4)" color="#00f"  name="5-Hydroxy-tryptophan"  ><rect class="Icon" transform="matrix(.99215 0 0 .95 .49607 .475)" width="126.33" height="19" fill="#fff" stroke="#00f"/><text class="Text" transform="translate(63.167 12.5)" fill="#00f"  font-size="10px"  text-anchor="middle"><tspan x="0" y="0">5-Hydroxy-tryptophan</tspan></text></a><a  class="GeneProduct P594_ENSMUSG00000040046 " transform="translate(454 185.23)"   name="Tph1"  ><rect class="Icon" transform="matrix(.98361 0 0 .95238 .4918 .47619)" width="60" height="20" fill="#fff" stroke="#000"/><text class="Text" transform="translate(30,13)"   font-size="10px"  text-anchor="middle"><tspan x="0" y="0">Tph1</tspan></text></a><a class="Metabolite ChEBI_CHEBI_17697  " transform="translate(371.5 415.73)" color="#00f"  name="Acetylserotonin"  ><rect class="Icon" transform="matrix(.98905 0 0 .95 .49453 .475)" width="90.333" height="19" fill="#fff" stroke="#00f"/><text class="Text" transform="translate(45.167 12.5)" fill="#00f"  font-size="10px"  text-anchor="middle"><tspan x="0" y="0">Acetylserotonin</tspan></text></a><a class="Metabolite ChEBI_CHEBI_16865  " transform="translate(218.07 329.37)" color="#00f"  name="GABA"  ><rect class="Icon" transform="matrix(.98765 0 0 .95238 .49383 .47619)" width="80" height="20" fill="#fff" stroke="#00f"/><text class="Text" transform="translate(40,13)" fill="#00f"  font-size="10px"  text-anchor="middle"><tspan x="0" y="0">GABA</tspan></text></a><a  class="GeneProduct P594_ENSMUSG00000000889 " transform="translate(610.4 361.57)"   name="Dbh"  ><rect class="Icon" transform="matrix(.98361 0 0 .95238 .4918 .47619)" width="60" height="20" fill="#fff" stroke="#000"/><text class="Text" transform="translate(30,13)"   font-size="10px"  text-anchor="middle"><tspan x="0" y="0">Dbh</tspan></text></a><a  class="GeneProduct P594_ENSMUSG00000020182 " transform="translate(454 276.16)"   name="Ddc"  ><rect class="Icon" transform="matrix(.98361 0 0 .95238 .4918 .47619)" width="60" height="20" fill="#fff" stroke="#000"/><text class="Text" transform="translate(30,13)"   font-size="10px"  text-anchor="middle"><tspan x="0" y="0">Ddc</tspan></text></a><a  class="GeneProduct P594_ENSMUSG00000000214 " transform="translate(610.4 186.7)"   name="Th"  ><rect class="Icon" transform="matrix(.98361 0 0 .95238 .4918 .47619)" width="60" height="20" fill="#fff" stroke="#000"/><text class="Text" transform="translate(30,13)"   font-size="10px"  text-anchor="middle"><tspan x="0" y="0">Th</tspan></text></a><a class="Metabolite ChEBI_CHEBI_15765  " transform="translate(543.17 240.53)" color="#00f"  name="L-Dopa"  ><rect class="Icon" transform="matrix(.98515 0 0 .95 .49257 .475)" width="66.333" height="19" fill="#fff" stroke="#00f"/><text class="Text" transform="translate(33.167 12.5)" fill="#00f"  font-size="10px"  text-anchor="middle"><tspan x="0" y="0">L-Dopa</tspan></text></a><a class="Metabolite ChEBI_CHEBI_15971  " transform="translate(126 224.53)" color="#00f"  name="Histidine"  ><rect class="Icon" transform="matrix(.98785 0 0 .95 .49393 .475)" width="81.333" height="19" fill="#fff" stroke="#00f"/><text class="Text" transform="translate(40.667 12.5)" fill="#00f"  font-size="10px"  text-anchor="middle"><tspan x="0" y="0">Histidine</tspan></text></a><a  class="GeneProduct P594_ENSMUSG00000038216 " transform="translate(610.4 464.03)"   name="Pnmt"  ><rect class="Icon" transform="matrix(.98361 0 0 .95238 .4918 .47619)" width="60" height="20" fill="#fff" stroke="#000"/><text class="Text" transform="translate(30,13)"   font-size="10px"  text-anchor="middle"><tspan x="0" y="0">Pnmt</tspan></text></a><a class="Metabolite ChEBI_CHEBI_18243  " transform="translate(534.67 323.87)" color="#00f"  name="Dopamine"  ><rect class="Icon" transform="matrix(.98814 0 0 .95 .49407 .475)" width="83.333" height="19" fill="#fff" stroke="#00f"/><text class="Text" transform="translate(41.667 12.5)" fill="#00f"  font-size="10px"  text-anchor="middle"><tspan x="0" y="0">Dopamine</tspan></text></a><a  class="GeneProduct P594_ENSMUSG00000023328 " transform="translate(97.339 364.52)"   name="Ache"  ><rect class="Icon" transform="matrix(.98361 0 0 .95238 .4918 .47619)" width="60" height="20" fill="#fff" stroke="#000"/><text class="Text" transform="translate(30,13)"   font-size="10px"  text-anchor="middle"><tspan x="0" y="0">Ache</tspan></text></a><a class="Metabolite ChEBI_CHEBI_15355  " transform="translate(24.917 329.87)" color="#00f"  name="Acetylcholine"  ><rect class="Icon" transform="matrix(.98778 0 0 .95 .49389 .475)" width="80.833" height="19" fill="#fff" stroke="#00f"/><text class="Text" transform="translate(40.417 12.5)" fill="#00f"  font-size="10px"  text-anchor="middle"><tspan x="0" y="0">Acetylcholine</tspan></text></a><a  class="GeneProduct P594_ENSMUSG00000020051 " transform="translate(610.4 91.232)"   name="Pah"  ><rect class="Icon" transform="matrix(.98361 0 0 .95238 .4918 .47619)" width="60" height="20" fill="#fff" stroke="#000"/><text class="Text" transform="translate(30,13)"   font-size="10px"  text-anchor="middle"><tspan x="0" y="0">Pah</tspan></text></a><a class="Metabolite ChEBI_CHEBI_17895  " transform="translate(540.17 147.2)" color="#00f"  name="Tyrosine"  ><rect class="Icon" transform="matrix(.98636 0 0 .95 .49318 .475)" width="72.333" height="19" fill="#fff" stroke="#00f"/><text class="Text" transform="translate(36.167 12.5)" fill="#00f"  font-size="10px"  text-anchor="middle"><tspan x="0" y="0">Tyrosine</tspan></text></a><a  class="GeneProduct P594_ENSMUSG00000021919 " transform="translate(68.952 267.57)"   name="Chat"  ><rect class="Icon" transform="matrix(.98361 0 0 .95238 .4918 .47619)" width="60" height="20" fill="#fff" stroke="#000"/><text class="Text" transform="translate(30,13)"   font-size="10px"  text-anchor="middle"><tspan x="0" y="0">Chat</tspan></text></a><a class="Metabolite ChEBI_CHEBI_28790  " transform="translate(376.5 324.73)" color="#00f"  name="Serotonin"  ><rect class="Icon" transform="matrix(.9877 0 0 .95 .49385 .475)" width="80.333" height="19" fill="#fff" stroke="#00f"/><text class="Text" transform="translate(40.167 12.5)" fill="#00f"  font-size="10px"  text-anchor="middle"><tspan x="0" y="0">Serotonin</tspan></text></a><a  class="GeneProduct P594_ENSMUSG00000020804 " transform="translate(454 367.9)"   name="Aanat"  ><rect class="Icon" transform="matrix(.98361 0 0 .95238 .4918 .47619)" width="60" height="20" fill="#fff" stroke="#000"/><text class="Text" transform="translate(30,13)"   font-size="10px"  text-anchor="middle"><tspan x="0" y="0">Aanat</tspan></text></a><a class="Metabolite ChEBI_CHEBI_17295  " transform="translate(519.67 50.533)" color="#00f"  name="Phenylalanine"  ><rect class="Icon" transform="matrix(.99125 0 0 .95 .49563 .475)" width="113.33" height="19" fill="#fff" stroke="#00f"/><text class="Text" transform="translate(56.667 12.5)" fill="#00f"  font-size="10px"  text-anchor="middle"><tspan x="0" y="0">Phenylalanine</tspan></text></a><a class="Metabolite ChEBI_CHEBI_16796  " transform="translate(376.67 512.87)" color="#00f"  name="Melatonin"  ><rect class="Icon" transform="matrix(.98765 0 0 .95238 .49383 .47619)" width="80" height="20" fill="#fff" stroke="#00f"/><text class="Text" transform="translate(40,13)" fill="#00f"  font-size="10px"  text-anchor="middle"><tspan x="0" y="0">Melatonin</tspan></text></a><a class="Metabolite ChEBI_CHEBI_15966  " transform="translate(216.57 224.53)" color="#00f"  name="Glutamate"  ><rect class="Icon" transform="matrix(.988 0 0 .95 .494 .475)" width="82.333" height="19" fill="#fff" stroke="#00f"/><text class="Text" transform="translate(41.167 12.5)" fill="#00f"  font-size="10px"  text-anchor="middle"><tspan x="0" y="0">Glutamate</tspan></text></a><a  class="GeneProduct P594_ENSMUSG00000025037 " transform="translate(264.33 537.75)"   name="Maoa"  ><rect class="Icon" transform="matrix(.98361 0 0 .95238 .4918 .47619)" width="60" height="20" fill="#fff" stroke="#000"/><text class="Text" transform="translate(30,13)"   font-size="10px"  text-anchor="middle"><tspan x="0" y="0">Maoa</tspan></text></a><a class="Metabolite ChEBI_CHEBI_16828  " transform="translate(369.5 148.07)" color="#00f"  name="Tryptophan"  ><rect class="Icon" transform="matrix(.98951 0 0 .95 .49476 .475)" width="94.333" height="19" fill="#fff" stroke="#00f"/><text class="Text" transform="translate(47.167 12.5)" fill="#00f"  font-size="10px"  text-anchor="middle"><tspan x="0" y="0">Tryptophan</tspan></text></a><a  class="GeneProduct P594_ENSMUSG00000093806 " transform="translate(454 456.57)"   name="ASMT"  ><rect class="Icon" transform="matrix(.98361 0 0 .95238 .4918 .47619)" width="60" height="20" fill="#fff" stroke="#000"/><text class="Text" transform="translate(30,13)"   font-size="10px"  text-anchor="middle"><tspan x="0" y="0">ASMT</tspan></text></a><a class="Metabolite ChEBI_CHEBI_18357  " transform="translate(533.42 413.87)" color="#00f"  name="Norepinephrine"  ><rect class="Icon" transform="matrix(.98848 0 0 .95 .49424 .475)" width="85.833" height="19" fill="#fff" stroke="#00f"/><text class="Text" transform="translate(42.917 12.5)" fill="#00f"  font-size="10px"  text-anchor="middle"><tspan x="0" y="0">Norepinephrine</tspan></text></a><a class="Metabolite ChEBI_CHEBI_18295  " transform="translate(126 329.87)" color="#00f"  name="Histamine"  ><rect class="Icon" transform="matrix(.98785 0 0 .95 .49393 .475)" width="81.333" height="19" fill="#fff" stroke="#00f"/><text class="Text" transform="translate(40.667 12.5)" fill="#00f"  font-size="10px"  text-anchor="middle"><tspan x="0" y="0">Histamine</tspan></text></a><a  class="GeneProduct P594_ENSMUSG00000020182 " transform="translate(610.4 280.89)"   name="Ddc"  ><rect class="Icon" transform="matrix(.98361 0 0 .95238 .4918 .47619)" width="60" height="20" fill="#fff" stroke="#000"/><text class="Text" transform="translate(30,13)"   font-size="10px"  text-anchor="middle"><tspan x="0" y="0">Ddc</tspan></text></a><g class="GroupNone" transform="translate(168.38 252.08)" color="grey" ><rect class="Icon" transform="matrix(.98734 0 0 .98305 .49367 .49153)" width="78" height="58" fill="#b4b464" fill-opacity=".1" stroke="grey" stroke-dasharray="5,3"/><a  class="GeneProduct P594_ENSMUSG00000020182 " transform="translate(9,29)"   name="Ddc"  ><rect class="Icon" transform="matrix(.98361 0 0 .95238 .4918 .47619)" width="60" height="20" fill="#fff" stroke="#000"/><text class="Text" transform="translate(30,13)"   font-size="10px"  text-anchor="middle"><tspan x="0" y="0">Ddc</tspan></text></a><a  class="GeneProduct P594_ENSMUSG00000027360 " transform="translate(9,9)"   name="Hdc"  ><rect class="Icon" transform="matrix(.98361 0 0 .95238 .4918 .47619)" width="60" height="20" fill="#fff" stroke="#000"/><text class="Text" transform="translate(30,13)"   font-size="10px"  text-anchor="middle"><tspan x="0" y="0">Hdc</tspan></text></a></g><g class="GroupNone" transform="translate(541.59 554.81)" color="grey" ><rect class="Icon" transform="matrix(.98734 0 0 .98305 .49367 .49153)" width="78" height="58" fill="#b4b464" fill-opacity=".1" stroke="grey" stroke-dasharray="5,3"/><a  class="GeneProduct P594_ENSMUSG00000000326 " transform="translate(9,29)"   name="Comt1"  ><rect class="Icon" transform="matrix(.98361 0 0 .95238 .4918 .47619)" width="60" height="20" fill="#fff" stroke="#000"/><text class="Text" transform="translate(30,13)"   font-size="10px"  text-anchor="middle"><tspan x="0" y="0">Comt1</tspan></text></a><a  class="GeneProduct P594_ENSMUSG00000025037 " transform="translate(9,9)"   name="Maoa"  ><rect class="Icon" transform="matrix(.98361 0 0 .95238 .4918 .47619)" width="60" height="20" fill="#fff" stroke="#000"/><text class="Text" transform="translate(30,13)"   font-size="10px"  text-anchor="middle"><tspan x="0" y="0">Maoa</tspan></text></a></g><g class="GroupNone" transform="translate(278.42 251.04)" color="grey" ><rect class="Icon" transform="matrix(.98734 0 0 .98305 .49367 .49153)" width="78" height="58" fill="#b4b464" fill-opacity=".1" stroke="grey" stroke-dasharray="5,3"/><a  class="GeneProduct P594_ENSMUSG00000026787 " transform="translate(9,29)"   name="Gad2"  ><rect class="Icon" transform="matrix(.98361 0 0 .95238 .4918 .47619)" width="60" height="20" fill="#fff" stroke="#000"/><text class="Text" transform="translate(30,13)"   font-size="10px"  text-anchor="middle"><tspan x="0" y="0">Gad2</tspan></text></a><a  class="GeneProduct P594_ENSMUSG00000070880 " transform="translate(9,9)"   name="Gad1"  ><rect class="Icon" transform="matrix(.98361 0 0 .95238 .4918 .47619)" width="60" height="20" fill="#fff" stroke="#000"/><text class="Text" transform="translate(30,13)"   font-size="10px"  text-anchor="middle"><tspan x="0" y="0">Gad1</tspan></text></a></g><g class="SingleFreeNode Shape" transform="translate(402.59 603.42)" color="#000" ><use class="Icon" transform="matrix(.96774 0 0 .96774 .48387 .48387)" width="30" height="30" fill="transparent"  stroke="#000" xlink:href="#f"/></g><g id="al" class="Interaction" color="#000" ><g color="#000" fill="transparent"  filter="url(#a)" stroke="#000" stroke-dasharray="5.34, 3.2, 5.34, 3.2, 5.34, 3.2, 5.34, 3.2, 5.34, 3.2, 5.34, 3.2, 5.34, 3.2, 5.34, 3.2, 5.34, 3.2, 0, 0"><path class="EdgeBody" d="m616.33 521 73.71-0.65368"   /></g></g><text class="Text" transform="translate(5,27)" dominant-baseline="central" fill="black"  font-size="12px" font-weight="bold" overflow="visible" ><tspan x="0" y="-9">Name: Biogenic amine synthesis</tspan> <tspan x="0" y="9">Organism: Mus musculus</tspan></text></g></svg>
