<?xml version="1.0" encoding="UTF-8"?>
<!--
  WikiPathways page: https://www.wikipathways.org/index.php/Pathway:WP554
  URL for this compressed file: https://github.com/eweitz/cachome/tree/main/data/wikipathways/WP554.svg
  Source code for compression: https://github.com/eweitz/cachome/tree/main/src/wikipathways.py
-->
<svg class="Diagram" width="800" height="600" color="black" baseProfile="full" prefix="schema:http://schema.org/" preserveAspectRatio="xMidYMid" version="1.1" viewBox="0 0 991 651" vocab="http://vocabularies.wikipathways.org/wp#" xmlns="http://www.w3.org/2000/svg" xmlns:xlink="http://www.w3.org/1999/xlink"><style>svg {font-family: 'Liberation Sans', Arial, sans-serif; }</style><defs><filter id="h" x="-50%" y="-50%" width="200%" height="200%"><feComposite in="SourceGraphic" in2="SourceGraphic" result="doubleDark"/><feMorphology in="doubleDark" operator="dilate" radius="0.16666666666666666" result="in2Double"/><feMorphology in="SourceGraphic" operator="dilate" radius="3" result="inDouble"/><feComposite in="inDouble" in2="in2Double" operator="out" result="doubleResult"/></filter><filter id="a" x="0" y="0" width="991" height="651" filterUnits="userSpaceOnUse"><feColorMatrix in="SourceGraphic" values="-1   0   0 0 0                   0  -1   0 0 0                   0   0  -1 0 0                   0   0   0 1 0"/></filter><filter id="i" x="0" y="0" width="991" height="651" filterUnits="userSpaceOnUse"><feColorMatrix in="SourceGraphic" values="-1   0   0 0 1                   0  -1   0 0 0                   0   0  -1 0 0                   0   0   0 1 0"/></filter><marker id="e" stroke-dasharray="99999" markerHeight="12" markerUnits="userSpaceOnUse" markerWidth="12" orient="auto" preserveAspectRatio="none" refX="12" refY="6" viewBox="0 0 12 12"><path transform="rotate(180 6 6)" d="M12 11L0 6l12-5z" fill="currentColor" stroke-width="0"/></marker><marker id="f" stroke-dasharray="99999" markerHeight="12" markerUnits="userSpaceOnUse" markerWidth="12" orient="auto" preserveAspectRatio="none" refX="12" refY="6" viewBox="0 0 12 12"><path transform="rotate(180 6 6)" d="M12 12L0 6l12-6-7 6z" fill="currentColor" stroke-width="0"/></marker><marker id="d" stroke-dasharray="99999" markerHeight="12" markerUnits="userSpaceOnUse" markerWidth="12" orient="auto" preserveAspectRatio="none" refX="12" refY="6" viewBox="0 0 12 12"><circle transform="rotate(180 6 6)" cx="6" cy="6" r="5.3" fill="none" stroke="#000"/></marker><marker id="c" stroke-dasharray="99999" markerHeight="12" markerUnits="userSpaceOnUse" markerWidth="12" orient="auto" preserveAspectRatio="none" refX="12" refY="6" viewBox="0 0 12 12"><path transform="rotate(180 6 6)" d="M12 11L0 6l12-5z" fill="currentColor" stroke-width="0"/></marker><marker id="g" stroke-dasharray="99999" markerHeight="20" markerUnits="userSpaceOnUse" markerWidth="10" orient="auto" preserveAspectRatio="none" refX="10" refY="10" viewBox="0 0 10 20"><path d="m3 0v20" fill="currentColor" stroke="currentColor"/></marker><marker id="j" stroke-dasharray="99999" markerHeight="24" markerUnits="userSpaceOnUse" markerWidth="20" orient="auto" preserveAspectRatio="none" refX="20" refY="12" viewBox="0 0 20 24"><g transform="rotate(180 10 12)" fill="none" stroke="#000"><path d="M15 12V5M15.5 5H8M0 5l8-4v8z"/></g></marker><symbol id="b" preserveAspectRatio="none" viewBox="0 0 100 100"/></defs><g class="Viewport" color="black"  name="Name: ACE inhibitor pathway Organism: Homo sapiens"><rect class="Icon" width="991" height="651" fill="#fff" stroke="#000" stroke-width="0"/><g id="k" class="Interaction" color="#000" ><g color="#000" fill="transparent"  filter="url(#a)" stroke="#000" stroke-dasharray="37.00328933131973, 1"><path class="EdgeBody" d="m563 540 0.5 38"   marker-end="url(#f)" /></g></g><g id="l" class="Interaction" color="#000" ><g color="#000" fill="transparent"  filter="url(#a)" stroke="#000" stroke-dasharray="106.2, 5.8"><path class="EdgeBody" d="m342 201h-112"   marker-end="url(#c)" /></g><g class="Burr Anchor" transform="translate(281.87 201)" ><use class="Icon" width="0" height="0" fill="#141414" stroke-width="0" xlink:href="#b"/></g></g><g id="m" class="Interaction" color="#000" ><g color="#000" fill="transparent"  filter="url(#a)" stroke="#000" stroke-dasharray="99.20476179678711, 5.8"><path class="EdgeBody" d="m362 211 1 105"   marker-end="url(#c)" /></g><g class="Burr Anchor" transform="translate(362.6 274)" ><use class="Icon" width="0" height="0" fill="#141414" stroke-width="0" xlink:href="#b"/></g></g><g id="n" class="Interaction" color="#000" ><g color="#000" fill="transparent"  filter="url(#a)" stroke="#000" stroke-dasharray="24.88442307375326, 11"><path class="EdgeBody" d="m331 257 31.6 17.004"   marker-end="url(#d)" /></g></g><g id="o" class="DirectedInteraction" color="#000" ><g color="#000" fill="transparent"  filter="url(#a)" stroke="#000" stroke-dasharray="87.20238945556423, 5.8"><path class="EdgeBody" d="m382.67 98-0.66667 93"   marker-end="url(#e)" /></g><g class="Burr Anchor" transform="translate(382.51 120)" ><use class="Icon" width="0" height="0" fill="#141414" stroke-width="0" xlink:href="#b"/></g></g><g id="p" class="Interaction" color="#000" ><g color="#000" fill="transparent"  filter="url(#a)" stroke="#000" stroke-dasharray="45.87096756292542, 5.8"><path class="EdgeBody" d="m717.67 257.33-0.66667 51.667"   marker-end="url(#c)" /></g><g class="Burr Anchor" transform="translate(717.33 283.41)" ><use class="Icon" width="0" height="0" fill="#141414" stroke-width="0" xlink:href="#b"/></g></g><g id="q" class="DirectedInteraction" color="#000" ><g color="#000" fill="transparent"  filter="url(#a)" stroke="#000" stroke-dasharray="5.3, 3.18, 5.3, 3.18, 5.3, 3.18, 5.3, 3.18, 5.3, 3.18, 5.3, 3.18, 5.3, 3.18, 5.3, 3.18, 5.3, 3.18, 5.3, 3.18, 5.3, 3.18, 5.3, 5.8"><path class="EdgeBody" d="m759.33 398-0.33333 104.33"   marker-end="url(#e)" /></g></g><g id="r" class="Interaction" color="#000" ><g color="#000" fill="transparent"  filter="url(#a)" stroke="#000" stroke-dasharray="63.754236240659225, 1"><path class="EdgeBody" d="m717 329 42.333 49"   marker-end="url(#f)" /></g></g><g id="s" class="Interaction" color="#000" ><g color="#000" fill="transparent"  filter="url(#a)" stroke="#000" stroke-dasharray="53.48139335793663, 1"><path class="EdgeBody" d="m383 336-31.667 44.333"   marker-end="url(#f)" /></g></g><g id="t" class="Interaction" color="#f00" ><g color="#f00" fill="transparent"  filter="url(#i)" stroke="#000" stroke-dasharray="186.00064766730702, 7"><path class="EdgeBody" d="m467.5 50.667 0.5 193"   marker-end="url(#g)" /></g></g><g id="u" class="Interaction" color="#000" ><g color="#000" fill="transparent"  filter="url(#a)" stroke="#000" stroke-dasharray="62.4078508984144, 1"><path class="EdgeBody" d="m383 336 45.333 44.333"   marker-end="url(#f)" /></g></g><g id="v" class="DirectedInteraction" color="#000" ><g color="#000" fill="transparent"  filter="url(#a)" stroke="#000" stroke-dasharray="5.03, 3.02, 5.03, 3.02, 5.03, 3.02, 5.03, 3.02, 5.03, 3.02, 5.03, 3.02, 5.03, 3.02, 5.03, 5.8"><path class="EdgeBody" d="m744.33 398-33.833 58"   marker-end="url(#e)" /></g></g><g id="w" class="DirectedInteraction" color="#000" ><g color="#000" fill="transparent"  filter="url(#a)" stroke="#000" stroke-dasharray="5.29, 3.17, 5.29, 3.17, 5.29, 3.17, 5.29, 3.17, 5.29, 3.17, 5.29, 3.17, 5.29, 5.8"><path class="EdgeBody" d="m78 399 10.25 61"   marker-end="url(#e)" /></g></g><g id="x" class="Interaction" color="#000" ><g color="#000" fill="transparent"  filter="url(#a)" stroke="#000" stroke-dasharray="99.20476179678711, 5.8"><path class="EdgeBody" d="m402 211 1 105"   marker-end="url(#c)" /></g><g class="Burr Anchor" transform="translate(402.4,253)" ><use class="Icon" width="0" height="0" fill="#141414" stroke-width="0" xlink:href="#b"/></g></g><g id="y" class="Interaction" color="#000" ><g color="#000" fill="transparent"  filter="url(#a)" stroke="#000" stroke-dasharray="24.60624165008778, 11"><path class="EdgeBody" d="m438 253.67-35.6-0.66667"   marker-end="url(#d)" /></g></g><g id="z" class="Interaction" color="#000" ><g color="#000" fill="transparent"  filter="url(#a)" stroke="#000" stroke-dasharray="30.107884772573996, 11"><path class="EdgeBody" d="m341.41 118.95 41.094 1.0541"   marker-end="url(#d)" /></g></g><g id="aa" class="Interaction" color="#000" ><g color="#000" fill="transparent"  filter="url(#a)" stroke="#000" stroke-dasharray="99.2, 5.8"><path class="EdgeBody" d="m204.5 211v105"   marker-end="url(#c)" /></g></g><g id="ab" class="DirectedInteraction" color="#000" ><g color="#000" fill="transparent"  filter="url(#a)" stroke="#000" stroke-dasharray="5.42, 3.25, 5.42, 3.25, 5.42, 3.25, 5.42, 3.25, 5.42, 3.25, 5.42, 3.25, 5.42, 5.8"><path class="EdgeBody" d="m428.33 400.33-23.583 58.667"   marker-end="url(#e)" /></g></g><g id="ac" class="Interaction" color="#000" ><g color="#000" fill="transparent"  filter="url(#a)" stroke="#000" stroke-dasharray="45.25888818666789, 11"><path class="EdgeBody" d="m106.75 480 56.25 1"   marker-end="url(#j)" /></g></g><g id="ad" class="Interaction" color="#000" ><g color="#000" fill="transparent"  filter="url(#a)" stroke="#000" stroke-dasharray="44.25, 11"><path class="EdgeBody" d="m404.75 479h55.25"   marker-end="url(#j)" /></g></g><g id="ae" class="Interaction" color="#000" ><g color="#000" fill="transparent"  filter="url(#a)" stroke="#000" stroke-dasharray="52.450536478216236, 5.8"><path class="EdgeBody" d="M464.75,529.75L523,530"   marker-end="url(#c)" /></g><g class="Burr Anchor" transform="translate(492 529.87)" ><use class="Icon" width="0" height="0" fill="#141414" stroke-width="0" xlink:href="#b"/></g></g><g id="af" class="Interaction" color="#000" ><g color="#000" fill="transparent"  filter="url(#a)" stroke="#000" stroke-dasharray="29.87920220552293, 11"><path class="EdgeBody" d="m491 489 1.0006 40.867"   marker-end="url(#d)" /></g></g><g id="ag" class="DirectedInteraction" color="#000" ><g color="#000" fill="transparent"  filter="url(#a)" stroke="#000" stroke-dasharray="488.998319327731, 5.8"><path class="EdgeBody" d="m296.75 118.95h-234.75v260.05"   marker-end="url(#e)" /></g></g><g id="ah" class="DirectedInteraction" color="#000" ><g color="#000" fill="transparent"  filter="url(#a)" stroke="#000" stroke-dasharray="5.34, 3.2, 5.34, 3.2, 5.34, 3.2, 5.34, 3.2, 5.34, 3.2, 5.34, 3.2, 5.34, 3.2, 5.34, 5.8"><path class="EdgeBody" d="m774.33 398 23.167 67"   marker-end="url(#e)" /></g></g><g id="ai" class="Interaction" color="#000" ><g color="#000" fill="transparent"  filter="url(#a)" stroke="#000" stroke-dasharray="42.00290687848904, 1"><path class="EdgeBody" d="m204.5 336-0.5 43"   marker-end="url(#f)" /></g></g><g id="aj" class="Interaction" color="#000" ><g color="#000" fill="transparent"  filter="url(#a)" stroke="#000" stroke-dasharray="12.008526060313905, 11"><path class="EdgeBody" d="m282.5 178-0.62632 23"   marker-end="url(#d)" /></g></g><g id="ak" class="Interaction" color="#000" ><g color="#000" fill="transparent"  filter="url(#a)" stroke="#000" stroke-dasharray="99.20476179678711, 5.8"><path class="EdgeBody" d="m382 211 1 105"   marker-end="url(#c)" /></g><g class="Burr Anchor" transform="translate(382.37 250.02)" ><use class="Icon" width="0" height="0" fill="#141414" stroke-width="0" xlink:href="#b"/></g></g><g id="al" class="Interaction" color="#000" ><g color="#000" fill="transparent"  filter="url(#a)" stroke="#000" stroke-dasharray="25.258016995983752, 11"><path class="EdgeBody" d="m351.5 231 30.872 19.016"   marker-end="url(#d)" /></g></g><g id="am" class="Interaction" color="#f00" ><g color="#f00" fill="transparent"  filter="url(#i)" stroke="#000" stroke-dasharray="365.33333333333326, 7"><path class="EdgeBody" d="m513 40.667h139.33v233"   marker-end="url(#g)" /></g></g><g id="an" class="Interaction" color="#000" ><g color="#000" fill="transparent"  filter="url(#a)" stroke="#000" stroke-dasharray="23.997749232610964, 11"><path class="EdgeBody" d="m682.33 283.67 34.997-0.25408"   marker-end="url(#d)" /></g></g><g id="ao" class="DirectedInteraction" color="#000" ><g color="#000" fill="transparent"  filter="url(#a)" stroke="#000" stroke-dasharray="5.39, 3.23, 5.39, 3.23, 5.39, 5.8"><path class="EdgeBody" d="m371 435 15.25 24"   marker-end="url(#e)" /></g></g><g id="ap" class="Interaction" color="#000" ><g color="#000" fill="transparent"  filter="url(#a)" stroke="#000" stroke-dasharray="44.2, 5.8"><path class="EdgeBody" d="m179 326h-50"   marker-end="url(#c)" /></g><g class="Burr Anchor" transform="translate(155,326)" ><use class="Icon" width="0" height="0" fill="#141414" stroke-width="0" xlink:href="#b"/></g></g><g id="aq" class="Interaction" color="#000" ><g color="#000" fill="transparent"  filter="url(#a)" stroke="#000" stroke-dasharray="38.33333333333337, 11"><path class="EdgeBody" d="m155 276.67v49.333"   marker-end="url(#d)" /></g></g><g id="ar" class="Interaction" color="#000" ><g color="#000" fill="transparent"  filter="url(#a)" stroke="#000" stroke-dasharray="32.33564822542821, 11"><path class="EdgeBody" d="m274 282.67-0.44792 43.333"   marker-end="url(#d)" /></g></g><g class="SingleFreeNode Shape" transform="translate(630.5,383.5)" color="#c0c0c0" ><g fill="transparent"  filter="url(#h)" stroke="#c0c0c0" stroke-width="3"><rect class="Icon" transform="matrix(.95142 0 0 .952 5.7085 5.712)" width="235" height="238" rx="15" ry="15"   /></g></g><g class="SingleFreeNode Shape" transform="translate(276.5,384.5)" color="#c0c0c0" ><g fill="transparent"  filter="url(#h)" stroke="#c0c0c0" stroke-width="3"><rect class="Icon" transform="matrix(.96657 0 0 .952 5.7994 5.712)" width="347" height="238" rx="15" ry="15"   /></g></g><g class="SingleFreeNode Shape" transform="translate(11.5,386.5)" color="#c0c0c0" ><g fill="transparent"  filter="url(#h)" stroke="#c0c0c0" stroke-width="3"><rect class="Icon" transform="matrix(.95539 0 0 .95142 5.7323 5.7085)" width="257" height="235" rx="15" ry="15"   /></g></g><g class="Label" transform="translate(308,568)" color="#999"  name="Zona glomerulosa  of the adrenal gland"><use class="Icon" width="184" height="35" fill="transparent"  stroke="#999" stroke-width="0" xlink:href="#b"/><text class="Text" transform="translate(92,21.5)" fill="#999"  font-size="14px" font-weight="bold" stroke="black" stroke-width="0" text-anchor="middle"><tspan x="0" y="-7.700000000000001">Zona glomerulosa </tspan> <tspan x="0" y="7.700000000000001">of the adrenal gland</tspan></text></g><g class="Label" transform="translate(787,465)" color="#000"  name="EDHF"><use class="Icon" width="42" height="20" fill="transparent"  stroke="#000" stroke-width="0" xlink:href="#b"/><text class="Text" transform="translate(21,13)"   font-size="10px" font-weight="bold"  text-anchor="middle"><tspan x="0" y="0">EDHF</tspan></text></g><g class="Label" transform="translate(657,562)" color="#999"  name="Blood vessels"><use class="Icon" width="184" height="35" fill="transparent"  stroke="#999" stroke-width="0" xlink:href="#b"/><text class="Text" transform="translate(92,21.5)" fill="#999"  font-size="14px" font-weight="bold" stroke="black" stroke-width="0" text-anchor="middle"><tspan x="0" y="0">Blood vessels</tspan></text></g><g class="Label" transform="translate(28,566)" color="#999"  name="Mesangial cells around blood vessels in the kidneys"><use class="Icon" width="222" height="35" fill="transparent"  stroke="#999" stroke-width="0" xlink:href="#b"/><text class="Text" transform="translate(111,21.5)" fill="#999"  font-size="14px" font-weight="bold" stroke="black" stroke-width="0" text-anchor="middle"><tspan x="0" y="-7.700000000000001">Mesangial cells around</tspan> <tspan x="0" y="7.700000000000001">blood vessels in the kidneys</tspan></text></g><a  class="GeneProduct NOS3 " transform="translate(729 502.33)"   name="NOS3"  ><rect class="Icon" transform="matrix(.98361 0 0 .95238 .4918 .47619)" width="60" height="20" fill="#fff" stroke="#000"/><text class="Text" transform="translate(30,13)"   font-size="10px"  text-anchor="middle"><tspan x="0" y="0">NOS3</tspan></text></a><a  class="GeneProduct AGTR2 " transform="translate(321.33 380.33)"   name="AGTR2"  ><rect class="Icon" transform="matrix(.98361 0 0 .95238 .4918 .47619)" width="60" height="20" fill="#fff" stroke="#000"/><text class="Text" transform="translate(30,13)"   font-size="10px"  text-anchor="middle"><tspan x="0" y="0">AGTR2</tspan></text></a><a class="KEGG_Compound_C15852 Metabolite ChEBI_CHEBI_80129  " transform="translate(75,316)" color="#00f"  name="Ang 1-5"  ><rect class="Icon" transform="matrix(.98182 0 0 .95238 .49091 .47619)" width="54" height="20" fill="#fff" stroke="#00f"/><text class="Text" transform="translate(27,13)" fill="#00f"  font-size="10px"  text-anchor="middle"><tspan x="0" y="0">Ang 1-5</tspan></text></a><a  class="GeneProduct BDKRB1 " transform="translate(653,378)"   name="BDKRB1"  ><rect class="Icon" transform="matrix(.98276 0 0 .95238 .49138 .47619)" width="57" height="20" fill="#fff" stroke="#000"/><text class="Text" transform="translate(28.5,13)"   font-size="10px"  text-anchor="middle"><tspan x="0" y="0">BDKRB1</tspan></text></a><g class="GeneProduct" transform="translate(377,459)" color="#000"  name="TFs"><rect class="Icon" transform="matrix(.97368 0 0 .95238 .48684 .47619)" width="37" height="20" fill="#fff" stroke="#000"/><text class="Text" transform="translate(18.5,13)"   font-size="10px"  text-anchor="middle"><tspan x="0" y="0">TFs</tspan></text></g><a  class="GeneProduct AGTR1 " transform="translate(398.33 380.33)"   name="AGTR1"  ><rect class="Icon" transform="matrix(.98361 0 0 .95238 .4918 .47619)" width="60" height="20" fill="#fff" stroke="#000"/><text class="Text" transform="translate(30,13)"   font-size="10px"  text-anchor="middle"><tspan x="0" y="0">AGTR1</tspan></text></a><a class="Metabolite ChEBI_CHEBI_27584  " transform="translate(523,520)" color="#00f"  name="Aldosterone"  ><rect class="Icon" transform="matrix(.98765 0 0 .95238 .49383 .47619)" width="80" height="20" fill="#fff" stroke="#00f"/><text class="Text" transform="translate(40,13)" fill="#00f"  font-size="10px"  text-anchor="middle"><tspan x="0" y="0">Aldosterone</tspan></text></a><a  class="GeneProduct TGFB1 " transform="translate(163,471)"   name="TGFB1"  ><rect class="Icon" transform="matrix(.98333 0 0 .95238 .49167 .47619)" width="59" height="20" fill="#fff" stroke="#000"/><text class="Text" transform="translate(29.5,13)"   font-size="10px"  text-anchor="middle"><tspan x="0" y="0">TGFB1</tspan></text></a><a class="Metabolite ChEBI_CHEBI_3165  " transform="translate(677,309)" color="#00f"  name="Bradykinin"  ><rect class="Icon" transform="matrix(.98765 0 0 .95238 .49383 .47619)" width="80" height="20" fill="#fff" stroke="#00f"/><text class="Text" transform="translate(40,13)" fill="#00f"  font-size="10px"  text-anchor="middle"><tspan x="0" y="0">Bradykinin</tspan></text></a><a  class="GeneProduct CTSG " transform="translate(291.5,221)"   name="CTSG"  ><rect class="Icon" transform="matrix(.98361 0 0 .95238 .4918 .47619)" width="60" height="20" fill="#fff" stroke="#000"/><text class="Text" transform="translate(30,13)"   font-size="10px"  text-anchor="middle"><tspan x="0" y="0">CTSG</tspan></text></a><a class="Metabolite ChEBI_CHEBI_2719  " transform="translate(343,316)" color="#00f"  name="Angiotensin II"  ><rect class="Icon" transform="matrix(.98765 0 0 .95238 .49383 .47619)" width="80" height="20" fill="#fff" stroke="#00f"/><text class="Text" transform="translate(40,13)" fill="#00f"  font-size="10px"  text-anchor="middle"><tspan x="0" y="0">Angiotensin II</tspan></text></a><a  class="GeneProduct KNG1 " transform="translate(687.67 237.33)"   name="KNG1"  ><rect class="Icon" transform="matrix(.98361 0 0 .95238 .4918 .47619)" width="60" height="20" fill="#fff" stroke="#000"/><text class="Text" transform="translate(30,13)"   font-size="10px"  text-anchor="middle"><tspan x="0" y="0">KNG1</tspan></text></a><a class="Metabolite ChEBI_CHEBI_29108  " transform="translate(355,415)" color="#00f"  name="Ca++"  ><rect class="Icon" transform="matrix(.9697 0 0 .95238 .48485 .47619)" width="32" height="20" fill="#fff" stroke="#00f"/><text class="Text" transform="translate(16,13)" fill="#00f"  font-size="10px"  text-anchor="middle"><tspan x="0" y="0">Ca++</tspan></text></a><a class="PubChem-compound_3081372 Metabolite ChEBI_CHEBI_2718  " transform="translate(342,191)" color="#00f"  name="Angiotensin I"  ><rect class="Icon" transform="matrix(.98765 0 0 .95238 .49383 .47619)" width="80" height="20" fill="#fff" stroke="#00f"/><text class="Text" transform="translate(40,13)" fill="#00f"  font-size="10px"  text-anchor="middle"><tspan x="0" y="0">Angiotensin I</tspan></text></a><a  class="GeneProduct ACE " transform="translate(622.33 273.67)"   name="ACE"  ><rect class="Icon" transform="matrix(.98361 0 0 .95238 .4918 .47619)" width="60" height="20" fill="#fff" stroke="#000"/><text class="Text" transform="translate(30,13)"   font-size="10px"  text-anchor="middle"><tspan x="0" y="0">ACE</tspan></text></a><a class="ChEBI_CHEBI_35457 Metabolite  " transform="translate(422 30.667)" color="#c00"  name="ACE Inhibitor"  ><rect class="Icon" transform="matrix(.98913 0 0 .95238 .49457 .47619)" width="91" height="20" fill="#fff" stroke="#c00"/><text class="Text" transform="translate(45.5,13)" fill="#c00"  font-size="10px"  text-anchor="middle"><tspan x="0" y="0">ACE Inhibitor</tspan></text></a><a class="Metabolite ChEBI_CHEBI_16973  " transform="translate(351,519.75)" color="#00f"  name="Deoxycorticosterone"  ><rect class="Icon" transform="matrix(.99129 0 0 .95238 .49564 .47619)" width="113.75" height="20" fill="#fff" stroke="#00f"/><text class="Text" transform="translate(56.875,13)" fill="#00f"  font-size="10px"  text-anchor="middle"><tspan x="0" y="0">Deoxycorticosterone</tspan></text></a><a  class="GeneProduct CMA1 " transform="translate(271,247)"   name="CMA1"  ><rect class="Icon" transform="matrix(.98361 0 0 .95238 .4918 .47619)" width="60" height="20" fill="#fff" stroke="#000"/><text class="Text" transform="translate(30,13)"   font-size="10px"  text-anchor="middle"><tspan x="0" y="0">CMA1</tspan></text></a><a class="Chemspider_110354 Metabolite ChEBI_CHEBI_55438  " transform="translate(179,316)" color="#00f"  name="Ang 1-7"  ><rect class="Icon" transform="matrix(.98077 0 0 .95238 .49038 .47619)" width="51" height="20" fill="#fff" stroke="#00f"/><text class="Text" transform="translate(25.5,13)" fill="#00f"  font-size="10px"  text-anchor="middle"><tspan x="0" y="0">Ang 1-7</tspan></text></a><a class="PubChem-compound_114805 Metabolite " transform="translate(658,456)" color="#00f"  name="Prostacyclin"  ><rect class="Icon" transform="matrix(.98592 0 0 .95238 .49296 .47619)" width="70" height="20" fill="#fff" stroke="#00f"/><text class="Text" transform="translate(35,13)" fill="#00f"  font-size="10px"  text-anchor="middle"><tspan x="0" y="0">Prostacyclin</tspan></text></a><a  class="GeneProduct REN " transform="translate(296.75 108.95)"   name="REN"  ><rect class="Icon" transform="matrix(.9781 0 0 .95238 .48905 .47619)" width="44.667" height="20" fill="#fff" stroke="#000"/><text class="Text" transform="translate(22.333 13)"   font-size="10px"  text-anchor="middle"><tspan x="0" y="0">REN</tspan></text></a><a  class="GeneProduct CYP11B2 " transform="translate(460,469)"   name="CYP11B2"  ><rect class="Icon" transform="matrix(.98413 0 0 .95238 .49206 .47619)" width="62" height="20" fill="#fff" stroke="#000"/><text class="Text" transform="translate(31,13)"   font-size="10px"  text-anchor="middle"><tspan x="0" y="0">CYP11B2</tspan></text></a><a  class="GeneProduct MAS1 " transform="translate(178,379)"   name="MAS1"  ><rect class="Icon" transform="matrix(.98113 0 0 .95238 .49057 .47619)" width="52" height="20" fill="#fff" stroke="#000"/><text class="Text" transform="translate(26,13)"   font-size="10px"  text-anchor="middle"><tspan x="0" y="0">MAS1</tspan></text></a><a  class="GeneProduct ACE2 " transform="translate(252.5,158)"   name="ACE2"  ><rect class="Icon" transform="matrix(.98361 0 0 .95238 .4918 .47619)" width="60" height="20" fill="#fff" stroke="#000"/><text class="Text" transform="translate(30,13)"   font-size="10px"  text-anchor="middle"><tspan x="0" y="0">ACE2</tspan></text></a><a  class="GeneProduct AGT " transform="translate(352.67 78)"   name="AGT"  ><rect class="Icon" transform="matrix(.98361 0 0 .95238 .4918 .47619)" width="60" height="20" fill="#fff" stroke="#000"/><text class="Text" transform="translate(30,13)"   font-size="10px"  text-anchor="middle"><tspan x="0" y="0">AGT</tspan></text></a><a  class="GeneProduct NR3C2 " transform="translate(536,578)"   name="NR3C2"  ><rect class="Icon" transform="matrix(.98214 0 0 .95238 .49107 .47619)" width="55" height="20" fill="#fff" stroke="#000"/><text class="Text" transform="translate(27.5,13)"   font-size="10px"  text-anchor="middle"><tspan x="0" y="0">NR3C2</tspan></text></a><a  class="GeneProduct ATP6AP2 " transform="translate(46,379)"   name="ATP6AP2"  ><rect class="Icon" transform="matrix(.98462 0 0 .95238 .49231 .47619)" width="64" height="20" fill="#fff" stroke="#000"/><text class="Text" transform="translate(32,13)"   font-size="10px"  text-anchor="middle"><tspan x="0" y="0">ATP6AP2</tspan></text></a><a  class="GeneProduct ACE " transform="translate(438 243.67)"   name="ACE"  ><rect class="Icon" transform="matrix(.98361 0 0 .95238 .4918 .47619)" width="60" height="20" fill="#fff" stroke="#000"/><text class="Text" transform="translate(30,13)"   font-size="10px"  text-anchor="middle"><tspan x="0" y="0">ACE</tspan></text></a><a  class="GeneProduct BDKRB2 " transform="translate(729.33 378)"   name="BDKRB2"  ><rect class="Icon" transform="matrix(.98361 0 0 .95238 .4918 .47619)" width="60" height="20" fill="#fff" stroke="#000"/><text class="Text" transform="translate(30,13)"   font-size="10px"  text-anchor="middle"><tspan x="0" y="0">BDKRB2</tspan></text></a><a class="KEGG_Compound_C15851 Metabolite ChEBI_CHEBI_80128  " transform="translate(179,191)" color="#00f"  name="Ang 1-9"  ><rect class="Icon" transform="matrix(.98077 0 0 .95238 .49038 .47619)" width="51" height="20" fill="#fff" stroke="#00f"/><text class="Text" transform="translate(25.5,13)" fill="#00f"  font-size="10px"  text-anchor="middle"><tspan x="0" y="0">Ang 1-9</tspan></text></a><g class="GeneProduct" transform="translate(79,460)" color="#000"  name="TFs"><rect class="Icon" transform="matrix(.97368 0 0 .95238 .48684 .47619)" width="37" height="20" fill="#fff" stroke="#000"/><text class="Text" transform="translate(18.5,13)"   font-size="10px"  text-anchor="middle"><tspan x="0" y="0">TFs</tspan></text></g><g id="as" class="Interaction" color="#000" ><g color="#000" fill="transparent"  filter="url(#a)" stroke="#000" stroke-dasharray="107.2, 5.8"><path class="EdgeBody" d="m343 326h-113"   marker-end="url(#c)" /></g><g class="Burr Anchor" transform="translate(273.55 326)" ><use class="Icon" width="0" height="0" fill="#141414" stroke-width="0" xlink:href="#b"/></g></g><a  class="GeneProduct ACE " transform="translate(125 276.67)"   name="ACE"  ><rect class="Icon" transform="matrix(.98361 0 0 .95238 .4918 .47619)" width="60" height="20" fill="#fff" stroke="#000"/><text class="Text" transform="translate(30,13)"   font-size="10px"  text-anchor="middle"><tspan x="0" y="0">ACE</tspan></text></a><a  class="GeneProduct ACE2 " transform="translate(244 282.67)"   name="ACE2"  ><rect class="Icon" transform="matrix(.98361 0 0 .95238 .4918 .47619)" width="60" height="20" fill="#fff" stroke="#000"/><text class="Text" transform="translate(30,13)"   font-size="10px"  text-anchor="middle"><tspan x="0" y="0">ACE2</tspan></text></a><g id="at" class="Interaction" color="#f00" ><g color="#f00" fill="transparent"  filter="url(#i)" stroke="#000" stroke-dasharray="496, 7"><path class="EdgeBody" d="m422 40.667h-267v236"   marker-end="url(#g)" /></g></g><g id="au" class="Interaction" color="#000" ><g color="#000" fill="transparent"  filter="url(#a)" stroke="#000" stroke-dasharray="59.508263898413084, 1"><path class="EdgeBody" d="m717 329-35.5 49"   marker-end="url(#f)" /></g></g><text class="Text" transform="translate(5,27)" dominant-baseline="central" fill="black"  font-size="12px" font-weight="bold" overflow="visible" ><tspan x="0" y="-9">Name: ACE inhibitor pathway</tspan> <tspan x="0" y="9">Organism: Homo sapiens</tspan></text></g></svg>
