<?xml version="1.0" encoding="UTF-8"?>
<!--
  WikiPathways page: https://www.wikipathways.org/index.php/Pathway:WP560
  URL for this compressed file: https://github.com/eweitz/cachome/tree/main/data/wikipathways/WP560.svg
  Source code for compression: https://github.com/eweitz/cachome/tree/main/src/wikipathways.py
-->
<svg class="Diagram" width="800" height="600" color="black" baseProfile="full" prefix="schema:http://schema.org/" preserveAspectRatio="xMidYMid" version="1.1" viewBox="0 0 1079.3 774" vocab="http://vocabularies.wikipathways.org/wp#" xmlns="http://www.w3.org/2000/svg" xmlns:xlink="http://www.w3.org/1999/xlink"><style>svg {font-family: 'Liberation Sans', Arial, sans-serif; }</style><defs><filter id="h" x="-50%" y="-50%" width="200%" height="200%"><feComposite in="SourceGraphic" in2="SourceGraphic" result="doubleDark"/><feMorphology in="doubleDark" operator="dilate" radius="0.16666666666666666" result="in2Double"/><feMorphology in="SourceGraphic" operator="dilate" radius="3" result="inDouble"/><feComposite in="inDouble" in2="in2Double" operator="out" result="doubleResult"/></filter><filter id="a" x="0" y="0" width="1079.3" height="774" filterUnits="userSpaceOnUse"><feColorMatrix in="SourceGraphic" values="-1   0   0 0 0                   0  -1   0 0 0                   0   0  -1 0 0                   0   0   0 1 0"/></filter><marker id="b" stroke-dasharray="99999" markerHeight="12" markerUnits="userSpaceOnUse" markerWidth="12" orient="auto" preserveAspectRatio="none" refX="12" refY="6" viewBox="0 0 12 12"><path transform="rotate(180 6 6)" d="M12 11L0 6l12-5z" fill="currentColor" stroke-width="0"/></marker><marker id="e" stroke-dasharray="99999" markerHeight="12" markerUnits="userSpaceOnUse" markerWidth="12" orient="auto" preserveAspectRatio="none" refX="12" refY="6" viewBox="0 0 12 12"><path transform="rotate(180 6 6)" d="M12 12L0 6l12-6-7 6z" fill="currentColor" stroke-width="0"/></marker><marker id="i" stroke-dasharray="99999" markerHeight="12" markerUnits="userSpaceOnUse" markerWidth="12" orient="auto" preserveAspectRatio="none" refX="12" refY="6" viewBox="0 0 12 12"><path transform="rotate(180 6 6)" d="M0 6l11 5V1z" fill="currentColor" stroke-width="0"/></marker><marker id="d" stroke-dasharray="99999" markerHeight="20" markerUnits="userSpaceOnUse" markerWidth="10" orient="auto" preserveAspectRatio="none" refX="10" refY="10" viewBox="0 0 10 20"><path d="m3 0v20" fill="currentColor" stroke="currentColor"/></marker><symbol id="g" overflow="visible" preserveAspectRatio="none" viewBox="0 0 100 100"><path d="M1.5 49.5c0-16.167 8.167-24.25 24.5-24.25S50.5 17.167 50.5 1c0 16.167 8.167 24.25 24.5 24.25s24.5 8.083 24.5 24.25" stroke="currentColor" vector-effect="non-scaling-stroke"/></symbol><symbol id="f" overflow="visible" preserveAspectRatio="none" viewBox="0 0 50 50"><ellipse cx="25" cy="25" rx="25" ry="25" stroke="currentColor" vector-effect="non-scaling-stroke"/></symbol><symbol id="c" preserveAspectRatio="none" viewBox="0 0 100 100"/></defs><g class="Viewport" color="black"  name="Name: TGF-beta receptor signaling License: CC BY 2.0 Last Modified: 2/21/2013 Organism: Homo sapiens"><rect class="Icon" width="1079.3" height="774" fill="#fff" stroke="#000" stroke-width="0"/><g id="j" class="DirectedInteraction" color="#000" ><g color="#000" fill="transparent"  filter="url(#a)" stroke="#000" stroke-dasharray="28.19999999999943, 5.8"><path class="EdgeBody" d="m190 493.33h34"   marker-end="url(#b)" /></g></g><g id="k" class="Edge GraphicalLine" color="#000" ><g color="#000" fill="transparent"  filter="url(#a)" stroke="#000" stroke-dasharray="261.0000000000009, 0"><path class="EdgeBody" d="m630 572h261"   /></g></g><g id="l" class="DirectedInteraction" color="#000" ><g color="#000" fill="transparent"  filter="url(#a)" stroke="#000" stroke-dasharray="191.86666666666616, 5.8"><path class="EdgeBody" d="m903.33 430h6.6667v191"   marker-end="url(#b)" /></g></g><g id="m" class="DirectedInteraction" color="#000" ><g color="#000" fill="transparent"  filter="url(#a)" stroke="#000" stroke-dasharray="21.2, 5.8"><path class="EdgeBody" d="m729 350h27"   marker-end="url(#b)" /></g></g><g id="n" class="DirectedInteraction" color="#000" ><g color="#000" fill="transparent"  filter="url(#a)" stroke="#000" stroke-dasharray="21.2, 5.8"><path class="EdgeBody" d="m729 376.67h27"   marker-end="url(#b)" /></g></g><g id="o" class="Inhibition" color="#000" ><g color="#000" fill="transparent"  filter="url(#a)" stroke="#000" stroke-dasharray="49.66666666666663, 7"><path class="EdgeBody" d="m512 77.5-56.667-1e-14"   marker-end="url(#d)" /></g></g><g id="p" class="DirectedInteraction" color="#000" ><g color="#000" fill="transparent"  filter="url(#a)" stroke="#000" stroke-dasharray="28.19999999999943, 5.8"><path class="EdgeBody" d="m190 516.67 34-1e-13"   marker-end="url(#b)" /></g></g><g id="q" class="DirectedInteraction" color="#000" ><g color="#000" fill="transparent"  filter="url(#a)" stroke="#000" stroke-dasharray="21.533333333333257, 5.8"><path class="EdgeBody" d="m816 403.33h27.333"   marker-end="url(#b)" /></g></g><g id="r" class="DirectedInteraction" color="#000" ><g color="#000" fill="transparent"  filter="url(#a)" stroke="#000" stroke-dasharray="249.2000000000006, 5.8"><path class="EdgeBody" d="m284 566.67h135v-120"   marker-end="url(#b)" /></g></g><g id="s" class="Inhibition" color="#000" ><g color="#000" fill="transparent"  filter="url(#a)" stroke="#000" stroke-dasharray="49.66764705034353, 7"><path class="EdgeBody" d="m512 133-56.667 0.33333"   marker-end="url(#d)" /></g></g><g id="t" class="DirectedInteraction" color="#000" ><g color="#000" fill="transparent"  filter="url(#a)" stroke="#000" stroke-dasharray="192.53333333333399, 5.8"><path class="EdgeBody" d="m284 540h105v-93.333"   marker-end="url(#b)" /></g></g><g id="u" class="DirectedInteraction" color="#000" ><g color="#000" fill="transparent"  filter="url(#a)" stroke="#000" stroke-dasharray="196.53333333333393, 5.8"><path class="EdgeBody" d="m284 540h70.667v-131.67"   marker-end="url(#b)" /></g></g><g id="v" class="Inhibition" color="#000" ><g color="#000" fill="transparent"  filter="url(#a)" stroke="#000" stroke-dasharray="34.333333333333485, 7"><path class="EdgeBody" d="m613.33 77.5h-41.333"   marker-end="url(#d)" /></g></g><g id="w" class="DirectedInteraction" color="#000" ><g color="#000" fill="transparent"  filter="url(#a)" stroke="#000" stroke-dasharray="160.8666666666673, 5.8"><path class="EdgeBody" d="m284 493.33h120v-46.667"   marker-end="url(#b)" /></g></g><g id="x" class="DirectedInteraction" color="#000" ><g color="#000" fill="transparent"  filter="url(#a)" stroke="#000" stroke-dasharray="184.2000000000006, 5.8"><path class="EdgeBody" d="m284 516.67h120v-70"   marker-end="url(#b)" /></g></g><g id="y" class="DirectedInteraction" color="#000" ><g color="#000" fill="transparent"  filter="url(#a)" stroke="#000" stroke-dasharray="21.2, 5.8"><path class="EdgeBody" d="m729 403.33h27"   marker-end="url(#b)" /></g></g><g id="z" class="DirectedInteraction" color="#000" ><g color="#000" fill="transparent"  filter="url(#a)" stroke="#000" stroke-dasharray="27.53333333333337, 5.8"><path class="EdgeBody" d="m517.33 546.67v-33.333"   marker-end="url(#b)" /></g></g><g id="aa" class="DirectedInteraction" color="#000" ><g color="#000" fill="transparent"  filter="url(#a)" stroke="#000" stroke-dasharray="28.19999999999943, 5.8"><path class="EdgeBody" d="m190 566.67h34"   marker-end="url(#b)" /></g></g><g id="ab" class="DirectedInteraction" color="#000" ><g color="#000" fill="transparent"  filter="url(#a)" stroke="#000" stroke-dasharray="143.20000000000056, 5.8"><path class="EdgeBody" d="m284 516.67h40.667v-108.33"   marker-end="url(#b)" /></g></g><g id="ac" class="DirectedInteraction" color="#000" ><g color="#000" fill="transparent"  filter="url(#a)" stroke="#000" stroke-dasharray="21.533333333333257, 5.8"><path class="EdgeBody" d="m816 376.67h27.333"   marker-end="url(#b)" /></g></g><g id="ad" class="Inhibition" color="#000" ><g color="#000" fill="transparent"  filter="url(#a)" stroke="#000" stroke-dasharray="22.66853926674218, 7"><path class="EdgeBody" d="m557.33 37-0.33333 29.667"   marker-end="url(#d)" /></g></g><g id="ae" class="Inhibition" color="#000" ><g color="#000" fill="transparent"  filter="url(#a)" stroke="#000" stroke-dasharray="49.66666666666663, 7"><path class="EdgeBody" d="m512 103.33-56.667-2e-14"   marker-end="url(#d)" /></g></g><g id="af" class="DirectedInteraction" color="#000" ><g color="#000" fill="transparent"  filter="url(#a)" stroke="#000" stroke-dasharray="28.19999999999943, 5.8"><path class="EdgeBody" d="m190 540h34"   marker-end="url(#b)" /></g></g><g id="ag" class="Interaction" color="#000" ><g color="#000" fill="transparent"  filter="url(#a)" stroke="#000" stroke-dasharray="56.59083690048072, 1"><path class="EdgeBody" d="m298.67 225.67-6e-14 3.3333c6e-14 3.3333 6e-14 10 5 13.333 5 3.3333 15 3.3333 20-0.055556 5-3.3889 5-10.167 5-13.556v-3.3889"   marker-end="url(#e)" /></g><g class="Burr Anchor" transform="translate(314.73 244.8)" ><use class="Icon" width="0" height="0" fill="#141414" stroke-width="0" xlink:href="#c"/></g></g><g id="ah" class="DirectedInteraction" color="#000" ><g color="#000" fill="transparent"  filter="url(#a)" stroke="#000" stroke-dasharray="154.20000000000135, 5.8"><path class="EdgeBody" d="m409.33 618.67h108v-52"   marker-end="url(#b)" /></g></g><g id="ai" class="DirectedInteraction" color="#000" ><g color="#000" fill="transparent"  filter="url(#a)" stroke="#000" stroke-dasharray="21.533333333333257, 5.8"><path class="EdgeBody" d="m816 350h27.333"   marker-end="url(#b)" /></g></g><g id="aj" class="DirectedInteraction" color="#000" ><g color="#000" fill="transparent"  filter="url(#a)" stroke="#000" stroke-dasharray="195.86666666666605, 5.8"><path class="EdgeBody" d="m903.33 403.33h26.667v175"   marker-end="url(#b)" /></g></g><g id="ak" class="Interaction" color="#000" ><g color="#000" fill="transparent"  filter="url(#a)" stroke="#000" stroke-dasharray="36.44329045369829, 1"><path class="EdgeBody" d="m215.33 256.67-21-31"   marker-end="url(#e)" /></g></g><g id="al" class="Interaction" color="#000" ><g color="#000" fill="transparent"  filter="url(#a)" stroke="#000" stroke-dasharray="37.80005727372607, 1"><path class="EdgeBody" d="m245.33 256.67 23.333-31"   marker-end="url(#e)" /></g></g><g id="am" class="DirectedInteraction" color="#000" ><g color="#000" fill="transparent"  filter="url(#a)" stroke="#000" stroke-dasharray="336.86666666666423, 5.8"><path class="EdgeBody" d="m532.33 566.67v93h249.67"   marker-end="url(#b)" /></g></g><g id="an" class="Inhibition" color="#000" ><g color="#000" fill="transparent"  filter="url(#a)" stroke="#000" stroke-dasharray="21.66666666666663, 7"><path class="EdgeBody" d="m839 621.67 9e-13 -28.667"   marker-end="url(#d)" /></g></g><g id="ao" class="Inhibition" color="#000" ><g color="#000" fill="transparent"  filter="url(#a)" stroke="#000" stroke-dasharray="21.74060119311607, 7"><path class="EdgeBody" d="m314.33 274.33 0.37146-28.738"   marker-end="url(#d)" /></g></g><g id="ap" class="DirectedInteraction" color="#000" ><g color="#000" fill="transparent"  filter="url(#a)" stroke="#000" stroke-dasharray="25.159209084337668, 5.8"><path class="EdgeBody" d="m680 256-30.954-0.58746"   marker-end="url(#b)" /></g></g><g id="aq" class="DirectedInteraction" color="#000" ><g color="#000" fill="transparent"  filter="url(#a)" stroke="#000" stroke-dasharray="240.74545105762226, 5.8"><path class="EdgeBody" d="m518.5 362 169.89 178.67"   marker-end="url(#b)" /></g><g class="Burr Anchor" transform="translate(561.14 406.84)" ><use class="Icon" width="0" height="0" fill="#141414" stroke-width="0" xlink:href="#c"/></g><g class="Burr Anchor" transform="translate(580.54 427.25)" ><use class="Icon" width="0" height="0" fill="#141414" stroke-width="0" xlink:href="#c"/></g><g class="Burr Anchor" transform="translate(526.95 370.88)" ><use class="Icon" width="0" height="0" fill="#141414" stroke-width="0" xlink:href="#c"/></g><g class="Burr Anchor" transform="translate(617.59 466.2)" ><use class="Icon" width="0" height="0" fill="#141414" stroke-width="0" xlink:href="#c"/></g></g><g id="ar" class="Interaction" color="#000" ><g color="#000" fill="transparent"  filter="url(#a)" stroke="#000" stroke-dasharray="50.397377963673556, 1"><path class="EdgeBody" d="m498.94 238.47 19.558 47.531"   marker-end="url(#e)" /></g><g class="Burr Anchor" transform="translate(506.21 256.14)" ><use class="Icon" width="0" height="0" fill="#141414" stroke-width="0" xlink:href="#c"/></g></g><g id="as" class="Interaction" color="#000" ><g color="#000" fill="transparent"  filter="url(#a)" stroke="#000" stroke-dasharray="39.982807962250575, 11"><path class="EdgeBody" d="m536.94 238.47-18.442 47.531"   marker-end="url(#i)" /></g><g class="Burr Anchor" transform="translate(530.51 255.04)" ><use class="Icon" width="0" height="0" fill="#141414" stroke-width="0" xlink:href="#c"/></g></g><g id="at" class="DirectedInteraction" color="#000" ><g color="#000" fill="transparent"  filter="url(#a)" stroke="#000" stroke-dasharray="34.564450471512195, 5.8"><path class="EdgeBody" d="m614 404.67-33.457 22.581"   marker-end="url(#b)" /></g></g><g id="au" class="Inhibition" color="#000" ><g color="#000" fill="transparent"  filter="url(#a)" stroke="#000" stroke-dasharray="123.59085815251072, 7"><path class="EdgeBody" d="m434 436.67 127.14-29.825"   marker-end="url(#d)" /></g></g><g id="av" class="DirectedInteraction" color="#000" ><g color="#000" fill="transparent"  filter="url(#a)" stroke="#000" stroke-dasharray="135.5988135124131, 5.8"><path class="EdgeBody" d="m387.33 90.417h-7.2778c-7.2778 0-21.833 0-29.111 19.153-7.2778 19.153-7.2778 57.458-7.2778 76.611v19.153"   marker-end="url(#b)" /></g></g><g id="aw" class="Inhibition" color="#000" ><g color="#000" fill="transparent"  filter="url(#a)" stroke="#000" stroke-dasharray="152.65687930789332, 7"><path class="EdgeBody" d="m369.67 398.33 157.28-27.451"   marker-end="url(#d)" /></g></g><g id="ax" class="DirectedInteraction" color="#000" ><g color="#000" fill="transparent"  filter="url(#a)" stroke="#000" stroke-dasharray="184.8660883926611, 5.8"><path class="EdgeBody" d="m387.33 90.417h-17.278c-17.278 0-51.833 0-69.111 19.208-17.278 19.208-17.278 57.625-17.278 76.833l6e-14 19.208"   marker-end="url(#b)" /></g></g><g id="ay" class="Inhibition" color="#000" ><g color="#000" fill="transparent"  filter="url(#a)" stroke="#000" stroke-dasharray="82.46460638978849, 7"><path class="EdgeBody" d="m532.33 493.33 85.252-27.13"   marker-end="url(#d)" /></g></g><g id="az" class="DirectedInteraction" color="#000" ><g color="#000" fill="transparent"  filter="url(#a)" stroke="#000" stroke-dasharray="37.15297224955532, 5.8"><path class="EdgeBody" d="m463.26 255.79 42.952 0.34343"   marker-end="url(#b)" /></g></g><g class="SingleFreeNode Shape" transform="translate(452.67 286)" color="#000" ><rect class="Icon" transform="matrix(.99248 0 0 .98712 .49624 .49356)" width="132" height="76.667" fill="transparent"  stroke="#000"/></g><g class="SingleFreeNode Shape" transform="translate(574.5 494.5)" color="#c0c0c0" ><g fill="transparent"  filter="url(#h)" stroke="#c0c0c0" stroke-width="3"><use class="Icon" transform="matrix(.97339 0 0 .94915 5.8404 5.6949)" width="439" height="224"    xlink:href="#f"/></g></g><g class="SingleFreeNode Shape" transform="translate(360.5 87.5) rotate(-90 27.5 4)" color="#000" ><use class="Icon" transform="matrix(.98214 0 0 .88889 .49107 .44444)" width="55" height="8" fill="transparent"  stroke="#000" xlink:href="#g"/></g><g class="SingleFreeNode Shape" transform="translate(830.67 526.33)" color="#000" ><use class="Icon" transform="matrix(.97087 0 0 .98361 .48544 .4918)" width="33.333333333333336" height="60" fill="transparent"  stroke="#000" xlink:href="#f"/></g><g class="SingleFreeNode Shape" transform="translate(688.39 522.33)" color="#000" ><use class="Icon" transform="matrix(.97593 0 0 .98655 .48797 .49327)" width="40.551746666666666" height="73.33333333333333" fill="#afc5c5" stroke="#000" xlink:href="#f"/></g><g class="SingleFreeNode Shape" transform="translate(74.5 209.17)" color="#c0c0c0" ><g fill="transparent"  filter="url(#h)" stroke="#c0c0c0" stroke-width="3"><rect class="Icon" transform="matrix(.98779 0 0 .97812 5.9268 5.8687)" width="971" height="536.33" rx="15" ry="15"   /></g></g><g class="SingleFreeNode Shape" transform="translate(740.53 529.33)" color="#000" ><rect class="Icon" transform="matrix(.9877 0 0 .96386 .49385 .48193)" width="80.277" height="26.667" fill="transparent"  stroke="#000"/></g><g class="SingleFreeNode Shape" transform="translate(740.67 556.67)" color="#000" ><rect class="Icon" transform="matrix(.98765 0 0 .96386 .49383 .48193)" width="80" height="26.667" fill="#fff" stroke="#000"/></g><g class="SingleFreeNode Shape" transform="translate(918.33 242.33) rotate(90 20 4.3333)" color="#000" ><use class="Icon" transform="matrix(.97561 0 0 .89655 .4878 .44828)" width="40" height="8.666666666666666" fill="#000" stroke="#000" xlink:href="#g"/></g><g class="SingleFreeNode Shape" transform="translate(829.33 385.67) rotate(90 110 4.3333)" color="#000" ><use class="Icon" transform="matrix(.99548 0 0 .89655 .49774 .44828)" width="220" height="8.666666666666666" fill="#000" stroke="#000" xlink:href="#g"/></g><g class="Label" transform="translate(939.17 240)" color="#000"  name="Repressors"><use class="Icon" width="74.33333333333333" height="16" fill="transparent"  stroke="#000" stroke-width="0" xlink:href="#c"/><text class="Text" transform="translate(37.167 11)"   font-size="10px" font-weight="bold"  text-anchor="middle"><tspan x="0" y="0">Repressors</tspan></text></g><g class="Label" transform="translate(747.5 565.33)" color="#000"  name="R-Smads"><use class="Icon" width="66.33333333333333" height="16" fill="transparent"  stroke="#000" stroke-width="0" xlink:href="#c"/><text class="Text" transform="translate(33.167 11)"   font-size="11px" font-weight="bold"  text-anchor="middle"><tspan x="0" y="0">R-Smads</tspan></text></g><g class="Label" transform="translate(622 571)" color="#000"  name="DNA"><use class="Icon" width="38" height="20" fill="transparent"  stroke="#000" stroke-width="0" xlink:href="#c"/><text class="Text" transform="translate(19,13)"   font-size="10px"  text-anchor="middle"><tspan x="0" y="0">DNA</tspan></text></g><g class="Label" transform="translate(741 535.33)" color="#000"  name="Co-Smads"><use class="Icon" width="75.33333333333333" height="16" fill="transparent"  stroke="#000" stroke-width="0" xlink:href="#c"/><text class="Text" transform="translate(37.667 11)"   font-size="11px" font-weight="bold"  text-anchor="middle"><tspan x="0" y="0">Co-Smads</tspan></text></g><g class="Label" transform="translate(679.5 550)" color="#000"  name="Cofactor"><use class="Icon" width="58.333333333333336" height="16" fill="transparent"  stroke="#000" stroke-width="0" xlink:href="#c"/><text class="Text" transform="translate(29.167 11)"   font-size="10px" font-weight="bold"  text-anchor="middle"><tspan x="0" y="0">Cofactor</tspan></text></g><g class="Label" transform="translate(124.67 182)" color="#000"  name="Accessory receptor"><use class="Icon" width="112.33333333333334" height="16" fill="transparent"  stroke="#000" stroke-width="0" xlink:href="#c"/><text class="Text" transform="translate(56.167 11)"   font-size="10px" font-weight="bold"  text-anchor="middle"><tspan x="0" y="0">Accessory receptor</tspan></text></g><g class="Label" transform="translate(441.76 268.4)" color="#000"  name="Rsmads"><use class="Icon" width="68.33333333333333" height="19" fill="transparent"  stroke="#000" stroke-width="0" xlink:href="#c"/><text class="Text" transform="translate(34.167 13.5)"   font-size="12px" font-weight="bold"  text-anchor="middle"><tspan x="0" y="0">Rsmads</tspan></text></g><g class="Label" transform="translate(940.5 380.67)" color="#000"  name="Cofactors"><use class="Icon" width="64.33333333333333" height="16" fill="transparent"  stroke="#000" stroke-width="0" xlink:href="#c"/><text class="Text" transform="translate(32.167 11)"   font-size="10px" font-weight="bold"  text-anchor="middle"><tspan x="0" y="0">Cofactors</tspan></text></g><g class="Label" transform="translate(574.67 363.17)" color="#000"  name="Co-smads"><use class="Icon" width="83.33333333333333" height="19" fill="transparent"  stroke="#000" stroke-width="0" xlink:href="#c"/><text class="Text" transform="translate(41.667 13.5)"   font-size="12px" font-weight="bold"  text-anchor="middle"><tspan x="0" y="0">Co-smads</tspan></text></g><g class="Label" transform="translate(392.67 41.5)" color="#000"  name="Ligands"><use class="Icon" width="67.33333333333333" height="19" fill="transparent"  stroke="#000" stroke-width="0" xlink:href="#c"/><text class="Text" transform="translate(33.667 13.5)"   font-size="12px" font-weight="bold"  text-anchor="middle"><tspan x="0" y="0">Ligands</tspan></text></g><a  class="GeneProduct TGFBR3 " transform="translate(149.33 205.67)"   name="TGFBR3"  ><rect class="Icon" transform="matrix(.98361 0 0 .95238 .4918 .47619)" width="60" height="20" fill="#fff" stroke="#000"/><text class="Text" transform="translate(30,13)"   font-size="10px"  text-anchor="middle"><tspan x="0" y="0">TGFBR3</tspan></text></a><a  class="GeneProduct ZEB2 " transform="translate(843.33 246.67)"   name="ZFHX1B"  ><rect class="Icon" transform="matrix(.98361 0 0 .95238 .4918 .47619)" width="60" height="20" fill="#fff" stroke="#000"/><text class="Text" transform="translate(30,13)"   font-size="10px"  text-anchor="middle"><tspan x="0" y="0">ZFHX1B</tspan></text></a><a  class="GeneProduct JAK1 " transform="translate(756 366.67)"   name="JAK1"  ><rect class="Icon" transform="matrix(.98361 0 0 .95238 .4918 .47619)" width="60" height="20" fill="#fff" stroke="#000"/><text class="Text" transform="translate(30,13)"   font-size="10px"  text-anchor="middle"><tspan x="0" y="0">JAK1</tspan></text></a><a  class="GeneProduct MAPK9 " transform="translate(756 393.33)"   name="MAPK9"  ><rect class="Icon" transform="matrix(.98361 0 0 .95238 .4918 .47619)" width="60" height="20" fill="#fff" stroke="#000"/><text class="Text" transform="translate(30,13)"   font-size="10px"  text-anchor="middle"><tspan x="0" y="0">MAPK9</tspan></text></a><a  class="GeneProduct RUNX2 " transform="translate(843.33 286.67)"   name="RUNX2"  ><rect class="Icon" transform="matrix(.98361 0 0 .95238 .4918 .47619)" width="60" height="20" fill="#fff" stroke="#000"/><text class="Text" transform="translate(30,13)"   font-size="10px"  text-anchor="middle"><tspan x="0" y="0">RUNX2</tspan></text></a><a  class="GeneProduct SMAD4 " transform="translate(584 381.33)"   name="SMAD4"  ><rect class="Icon" transform="matrix(.98361 0 0 .95238 .4918 .47619)" width="60" height="20" fill="#fff" stroke="#000"/><text class="Text" transform="translate(30,13)"   font-size="10px"  text-anchor="middle"><tspan x="0" y="0">SMAD4</tspan></text></a><a  class="GeneProduct BMP4 " transform="translate(395.33 123.33)"   name="BMP4"  ><rect class="Icon" transform="matrix(.98361 0 0 .95238 .4918 .47619)" width="60" height="20" fill="#fff" stroke="#000"/><text class="Text" transform="translate(30,13)"   font-size="10px"  text-anchor="middle"><tspan x="0" y="0">BMP4</tspan></text></a><a  class="GeneProduct TNF " transform="translate(130 556.67)"   name="TNF"  ><rect class="Icon" transform="matrix(.98361 0 0 .95238 .4918 .47619)" width="60" height="20" fill="#fff" stroke="#000"/><text class="Text" transform="translate(30,13)"   font-size="10px"  text-anchor="middle"><tspan x="0" y="0">TNF</tspan></text></a><a  class="GeneProduct FST " transform="translate(512 93.333)"   name="FST"  ><rect class="Icon" transform="matrix(.98361 0 0 .95238 .4918 .47619)" width="60" height="20" fill="#fff" stroke="#000"/><text class="Text" transform="translate(30,13)"   font-size="10px"  text-anchor="middle"><tspan x="0" y="0">FST</tspan></text></a><a  class="GeneProduct SPP1 " transform="translate(843.33 226.67)"   name="SPP1"  ><rect class="Icon" transform="matrix(.98361 0 0 .95238 .4918 .47619)" width="60" height="20" fill="#fff" stroke="#000"/><text class="Text" transform="translate(30,13)"   font-size="10px"  text-anchor="middle"><tspan x="0" y="0">SPP1</tspan></text></a><a  class="GeneProduct WNT1 " transform="translate(669 340)"   name="WNT1"  ><rect class="Icon" transform="matrix(.98361 0 0 .95238 .4918 .47619)" width="60" height="20" fill="#fff" stroke="#000"/><text class="Text" transform="translate(30,13)"   font-size="10px"  text-anchor="middle"><tspan x="0" y="0">WNT1</tspan></text></a><a  class="GeneProduct TGFBR2 " transform="translate(313.67 205.33)"   name="TGFBR2"  ><rect class="Icon" transform="matrix(.98361 0 0 .95238 .4918 .47619)" width="60" height="20" fill="#fff" stroke="#000"/><text class="Text" transform="translate(30,13)"   font-size="10px"  text-anchor="middle"><tspan x="0" y="0">TGFBR2</tspan></text></a><a  class="GeneProduct THBS1 " transform="translate(613.33 67.5)"   name="THBS1"  ><rect class="Icon" transform="matrix(.98361 0 0 .95238 .4918 .47619)" width="60" height="20" fill="#fff" stroke="#000"/><text class="Text" transform="translate(30,13)"   font-size="10px"  text-anchor="middle"><tspan x="0" y="0">THBS1</tspan></text></a><a  class="GeneProduct LIF " transform="translate(669 366.67)"   name="LIF"  ><rect class="Icon" transform="matrix(.98361 0 0 .95238 .4918 .47619)" width="60" height="20" fill="#fff" stroke="#000"/><text class="Text" transform="translate(30,13)"   font-size="10px"  text-anchor="middle"><tspan x="0" y="0">LIF</tspan></text></a><a  class="GeneProduct NOG " transform="translate(512 123)"   name="NOG"  ><rect class="Icon" transform="matrix(.98361 0 0 .95238 .4918 .47619)" width="60" height="20" fill="#fff" stroke="#000"/><text class="Text" transform="translate(30,13)"   font-size="10px"  text-anchor="middle"><tspan x="0" y="0">NOG</tspan></text></a><a  class="GeneProduct LEF1 " transform="translate(843.33 340)"   name="LEF1"  ><rect class="Icon" transform="matrix(.98361 0 0 .95238 .4918 .47619)" width="60" height="20" fill="#fff" stroke="#000"/><text class="Text" transform="translate(30,13)"   font-size="10px"  text-anchor="middle"><tspan x="0" y="0">LEF1</tspan></text></a><a  class="GeneProduct ENG " transform="translate(200.33 256.67)"   name="ENG"  ><rect class="Icon" transform="matrix(.98361 0 0 .95238 .4918 .47619)" width="60" height="20" fill="#fff" stroke="#000"/><text class="Text" transform="translate(30,13)"   font-size="10px"  text-anchor="middle"><tspan x="0" y="0">ENG</tspan></text></a><a  class="GeneProduct SMAD6 " transform="translate(309.67 388.33)"   name="SMAD6"  ><rect class="Icon" transform="matrix(.98361 0 0 .95238 .4918 .47619)" width="60" height="20" fill="#fff" stroke="#000"/><text class="Text" transform="translate(30,13)"   font-size="10px"  text-anchor="middle"><tspan x="0" y="0">SMAD6</tspan></text></a><a  class="GeneProduct BMP4 " transform="translate(130 530)"   name="BMP4"  ><rect class="Icon" transform="matrix(.98361 0 0 .95238 .4918 .47619)" width="60" height="20" fill="#fff" stroke="#000"/><text class="Text" transform="translate(30,13)"   font-size="10px"  text-anchor="middle"><tspan x="0" y="0">BMP4</tspan></text></a><a  class="GeneProduct ZNF423 " transform="translate(843.33 476.67)"   name="ZNF423"  ><rect class="Icon" transform="matrix(.98361 0 0 .95238 .4918 .47619)" width="60" height="20" fill="#fff" stroke="#000"/><text class="Text" transform="translate(30,13)"   font-size="10px"  text-anchor="middle"><tspan x="0" y="0">ZNF423</tspan></text></a><a  class="GeneProduct MAPK3 " transform="translate(487.33 493.33)"   name="MAPK3"  ><rect class="Icon" transform="matrix(.98361 0 0 .95238 .4918 .47619)" width="60" height="20" fill="#fff" stroke="#000"/><text class="Text" transform="translate(30,13)"   font-size="10px"  text-anchor="middle"><tspan x="0" y="0">MAPK3</tspan></text></a><a  class="GeneProduct RUNX3 " transform="translate(843.33 313.33)"   name="RUNX3"  ><rect class="Icon" transform="matrix(.98361 0 0 .95238 .4918 .47619)" width="60" height="20" fill="#fff" stroke="#000"/><text class="Text" transform="translate(30,13)"   font-size="10px"  text-anchor="middle"><tspan x="0" y="0">RUNX3</tspan></text></a><a  class="GeneProduct NFKB1 " transform="translate(224 556.67)"   name="NFKB1"  ><rect class="Icon" transform="matrix(.98361 0 0 .95238 .4918 .47619)" width="60" height="20" fill="#fff" stroke="#000"/><text class="Text" transform="translate(30,13)"   font-size="10px"  text-anchor="middle"><tspan x="0" y="0">NFKB1</tspan></text></a><a  class="GeneProduct EP300 " transform="translate(817.33 536.67)"   name="EP300"  ><rect class="Icon" transform="matrix(.98361 0 0 .95238 .4918 .47619)" width="60" height="20" fill="#fff" stroke="#000"/><text class="Text" transform="translate(30,13)"   font-size="10px"  text-anchor="middle"><tspan x="0" y="0">EP300</tspan></text></a><a  class="GeneProduct SERPINE1 " transform="translate(891.67 621)"   name="SERPINE1"  ><rect class="Icon" transform="matrix(.98655 0 0 .95238 .49327 .47619)" width="73.333" height="20" fill="#fff" stroke="#000"/><text class="Text" transform="translate(36.667 13)"   font-size="10px"  text-anchor="middle"><tspan x="0" y="0">SERPINE1</tspan></text></a><a  class="GeneProduct SMAD1 " transform="translate(224 530)"   name="SMAD1"  ><rect class="Icon" transform="matrix(.98361 0 0 .95238 .4918 .47619)" width="60" height="20" fill="#fff" stroke="#000"/><text class="Text" transform="translate(30,13)"   font-size="10px"  text-anchor="middle"><tspan x="0" y="0">SMAD1</tspan></text></a><a  class="GeneProduct LTBP1 " transform="translate(512 67.5)"   name="LTBP1"  ><rect class="Icon" transform="matrix(.98361 0 0 .95238 .4918 .47619)" width="60" height="20" fill="#fff" stroke="#000"/><text class="Text" transform="translate(30,13)"   font-size="10px"  text-anchor="middle"><tspan x="0" y="0">LTBP1</tspan></text></a><a  class="GeneProduct STAT3 " transform="translate(843.33 366.67)"   name="STAT3"  ><rect class="Icon" transform="matrix(.98361 0 0 .95238 .4918 .47619)" width="60" height="20" fill="#fff" stroke="#000"/><text class="Text" transform="translate(30,13)"   font-size="10px"  text-anchor="middle"><tspan x="0" y="0">STAT3</tspan></text></a><a  class="GeneProduct MIR302A " transform="translate(680,246)"   name="MIR302A"  ><rect class="Icon" transform="matrix(.98361 0 0 .95238 .4918 .47619)" width="60" height="20" fill="#fff" stroke="#000"/><text class="Text" transform="translate(30,13)"   font-size="10px"  text-anchor="middle"><tspan x="0" y="0">MIR302A</tspan></text></a><a  class="GeneProduct ZFYVE9 " transform="translate(403.26 245.79)"   name="ZFYVE9"  ><rect class="Icon" transform="matrix(.98361 0 0 .95238 .4918 .47619)" width="60" height="20" fill="#fff" stroke="#000"/><text class="Text" transform="translate(30,13)"   font-size="10px"  text-anchor="middle"><tspan x="0" y="0">ZFYVE9</tspan></text></a><a  class="GeneProduct IFNG " transform="translate(130 483.33)"   name="IFNG"  ><rect class="Icon" transform="matrix(.98361 0 0 .95238 .4918 .47619)" width="60" height="20" fill="#fff" stroke="#000"/><text class="Text" transform="translate(30,13)"   font-size="10px"  text-anchor="middle"><tspan x="0" y="0">IFNG</tspan></text></a><a  class="GeneProduct TGFB1 " transform="translate(130 506.67)"   name="TGFB1"  ><rect class="Icon" transform="matrix(.98361 0 0 .95238 .4918 .47619)" width="60" height="20" fill="#fff" stroke="#000"/><text class="Text" transform="translate(30,13)"   font-size="10px"  text-anchor="middle"><tspan x="0" y="0">TGFB1</tspan></text></a><a  class="GeneProduct JUN " transform="translate(843.33 393.33)"   name="JUN"  ><rect class="Icon" transform="matrix(.98361 0 0 .95238 .4918 .47619)" width="60" height="20" fill="#fff" stroke="#000"/><text class="Text" transform="translate(30,13)"   font-size="10px"  text-anchor="middle"><tspan x="0" y="0">JUN</tspan></text></a><a  class="GeneProduct SMAD2 " transform="translate(224 506.67)"   name="SMAD2"  ><rect class="Icon" transform="matrix(.98361 0 0 .95238 .4918 .47619)" width="60" height="20" fill="#fff" stroke="#000"/><text class="Text" transform="translate(30,13)"   font-size="10px"  text-anchor="middle"><tspan x="0" y="0">SMAD2</tspan></text></a><a  class="GeneProduct SMAD7 " transform="translate(374 426.67)"   name="SMAD7"  ><rect class="Icon" transform="matrix(.98361 0 0 .95238 .4918 .47619)" width="60" height="20" fill="#fff" stroke="#000"/><text class="Text" transform="translate(30,13)"   font-size="10px"  text-anchor="middle"><tspan x="0" y="0">SMAD7</tspan></text></a><a  class="GeneProduct FOXH1 " transform="translate(843.33 450)"   name="FOXH1"  ><rect class="Icon" transform="matrix(.98361 0 0 .95238 .4918 .47619)" width="60" height="20" fill="#fff" stroke="#000"/><text class="Text" transform="translate(30,13)"   font-size="10px"  text-anchor="middle"><tspan x="0" y="0">FOXH1</tspan></text></a><a  class="GeneProduct HRAS " transform="translate(487.33 546.67)"   name="HRAS"  ><rect class="Icon" transform="matrix(.98361 0 0 .95238 .4918 .47619)" width="60" height="20" fill="#fff" stroke="#000"/><text class="Text" transform="translate(30,13)"   font-size="10px"  text-anchor="middle"><tspan x="0" y="0">HRAS</tspan></text></a><a  class="GeneProduct CTNNB1 " transform="translate(756 340)"   name="CTNNB1"  ><rect class="Icon" transform="matrix(.98361 0 0 .95238 .4918 .47619)" width="60" height="20" fill="#fff" stroke="#000"/><text class="Text" transform="translate(30,13)"   font-size="10px"  text-anchor="middle"><tspan x="0" y="0">CTNNB1</tspan></text></a><a  class="GeneProduct TNF " transform="translate(669 393.33)"   name="TNF"  ><rect class="Icon" transform="matrix(.98361 0 0 .95238 .4918 .47619)" width="60" height="20" fill="#fff" stroke="#000"/><text class="Text" transform="translate(30,13)"   font-size="10px"  text-anchor="middle"><tspan x="0" y="0">TNF</tspan></text></a><a  class="GeneProduct FOS " transform="translate(915 578.33)"   name="FOS"  ><rect class="Icon" transform="matrix(.98361 0 0 .95238 .4918 .47619)" width="60" height="20" fill="#fff" stroke="#000"/><text class="Text" transform="translate(30,13)"   font-size="10px"  text-anchor="middle"><tspan x="0" y="0">FOS</tspan></text></a><a  class="GeneProduct TFE3 " transform="translate(843.33 420)"   name="TFE3"  ><rect class="Icon" transform="matrix(.98361 0 0 .95238 .4918 .47619)" width="60" height="20" fill="#fff" stroke="#000"/><text class="Text" transform="translate(30,13)"   font-size="10px"  text-anchor="middle"><tspan x="0" y="0">TFE3</tspan></text></a><a  class="GeneProduct EGF " transform="translate(349.33 608.67)"   name="EGF"  ><rect class="Icon" transform="matrix(.98361 0 0 .95238 .4918 .47619)" width="60" height="20" fill="#fff" stroke="#000"/><text class="Text" transform="translate(30,13)"   font-size="10px"  text-anchor="middle"><tspan x="0" y="0">EGF</tspan></text></a><a  class="GeneProduct STAT1 " transform="translate(224 483.33)"   name="STAT1"  ><rect class="Icon" transform="matrix(.98361 0 0 .95238 .4918 .47619)" width="60" height="20" fill="#fff" stroke="#000"/><text class="Text" transform="translate(30,13)"   font-size="10px"  text-anchor="middle"><tspan x="0" y="0">STAT1</tspan></text></a><a  class="GeneProduct CREBBP " transform="translate(817.33 560)"   name="CREBBP"  ><rect class="Icon" transform="matrix(.98361 0 0 .95238 .4918 .47619)" width="60" height="20" fill="#fff" stroke="#000"/><text class="Text" transform="translate(30,13)"   font-size="10px"  text-anchor="middle"><tspan x="0" y="0">CREBBP</tspan></text></a><a  class="GeneProduct TGFBR1 " transform="translate(253.67 205.67)"   name="TGFBR1"  ><rect class="Icon" transform="matrix(.98361 0 0 .95238 .4918 .47619)" width="60" height="20" fill="#fff" stroke="#000"/><text class="Text" transform="translate(30,13)"   font-size="10px"  text-anchor="middle"><tspan x="0" y="0">TGFBR1</tspan></text></a><a  class="GeneProduct ITGB6 " transform="translate(542.33 17)"   name="ITGB6"  ><rect class="Icon" transform="matrix(.98361 0 0 .95238 .4918 .47619)" width="60" height="20" fill="#fff" stroke="#000"/><text class="Text" transform="translate(30,13)"   font-size="10px"  text-anchor="middle"><tspan x="0" y="0">ITGB6</tspan></text></a><g class="GroupNone" transform="translate(781 620.67)" color="grey" ><rect class="Icon" transform="matrix(.98734 0 0 .98734 .49367 .49367)" width="78" height="78" fill="#b4b464" fill-opacity=".1" stroke="grey" stroke-dasharray="5,3"/><a  class="GeneProduct TGIF1 " transform="translate(9,9)"   name="TGIF"  ><rect class="Icon" transform="matrix(.98361 0 0 .95238 .4918 .47619)" width="60" height="20" fill="#fff" stroke="#000"/><text class="Text" transform="translate(30,13)"   font-size="10px"  text-anchor="middle"><tspan x="0" y="0">TGIF</tspan></text></a><a  class="GeneProduct SKI " transform="translate(9,49)"   name="SKI"  ><rect class="Icon" transform="matrix(.98361 0 0 .95238 .4918 .47619)" width="60" height="20" fill="#fff" stroke="#000"/><text class="Text" transform="translate(30,13)"   font-size="10px"  text-anchor="middle"><tspan x="0" y="0">SKI</tspan></text></a><a  class="GeneProduct SKIL " transform="translate(9,29)"   name="SKIL"  ><rect class="Icon" transform="matrix(.98361 0 0 .95238 .4918 .47619)" width="60" height="20" fill="#fff" stroke="#000"/><text class="Text" transform="translate(30,13)"   font-size="10px"  text-anchor="middle"><tspan x="0" y="0">SKIL</tspan></text></a></g><g class="GroupNone" transform="translate(275.33 273.33)" color="grey" ><rect class="Icon" transform="matrix(.98734 0 0 .98305 .49367 .49153)" width="78" height="58" fill="#b4b464" fill-opacity=".1" stroke="grey" stroke-dasharray="5,3"/><a  class="GeneProduct FKBP1A " transform="translate(9,9)"   name="FKBP1A"  ><rect class="Icon" transform="matrix(.98361 0 0 .95238 .4918 .47619)" width="60" height="20" fill="#fff" stroke="#000"/><text class="Text" transform="translate(30,13)"   font-size="10px"  text-anchor="middle"><tspan x="0" y="0">FKBP1A</tspan></text></a><a  class="GeneProduct BAMBI " transform="translate(9,29)"   name="BAMBI"  ><rect class="Icon" transform="matrix(.98361 0 0 .95238 .4918 .47619)" width="60" height="20" fill="#fff" stroke="#000"/><text class="Text" transform="translate(30,13)"   font-size="10px"  text-anchor="middle"><tspan x="0" y="0">BAMBI</tspan></text></a></g><g class="GroupGroup" transform="translate(450.33 286)" color="grey" ><use class="Icon" width="136.33333333333377" height="76" fill="transparent"  stroke="grey" stroke-dasharray="5,3" stroke-width="0" xlink:href="#c"/><a  class="GeneProduct SMAD9 " transform="translate(8,48)"   name="SMAD9"  ><rect class="Icon" transform="matrix(.98361 0 0 .95238 .4918 .47619)" width="60" height="20" fill="#fff" stroke="#000"/><text class="Text" transform="translate(30,13)"   font-size="10px"  text-anchor="middle"><tspan x="0" y="0">SMAD9</tspan></text></a><a  class="GeneProduct SMAD1 " transform="translate(8,8)"   name="SMAD1"  ><rect class="Icon" transform="matrix(.98361 0 0 .95238 .4918 .47619)" width="60" height="20" fill="#fff" stroke="#000"/><text class="Text" transform="translate(30,13)"   font-size="10px"  text-anchor="middle"><tspan x="0" y="0">SMAD1</tspan></text></a><a  class="GeneProduct SMAD3 " transform="translate(68.333 24.667)"   name="SMAD3"  ><rect class="Icon" transform="matrix(.98361 0 0 .95238 .4918 .47619)" width="60" height="20" fill="#fff" stroke="#000"/><text class="Text" transform="translate(30,13)"   font-size="10px"  text-anchor="middle"><tspan x="0" y="0">SMAD3</tspan></text></a><a  class="GeneProduct SMAD2 " transform="translate(68.333 8)"   name="SMAD2"  ><rect class="Icon" transform="matrix(.98361 0 0 .95238 .4918 .47619)" width="60" height="20" fill="#fff" stroke="#000"/><text class="Text" transform="translate(30,13)"   font-size="10px"  text-anchor="middle"><tspan x="0" y="0">SMAD2</tspan></text></a><a  class="GeneProduct SMAD5 " transform="translate(8,28)"   name="SMAD5"  ><rect class="Icon" transform="matrix(.98361 0 0 .95238 .4918 .47619)" width="60" height="20" fill="#fff" stroke="#000"/><text class="Text" transform="translate(30,13)"   font-size="10px"  text-anchor="middle"><tspan x="0" y="0">SMAD5</tspan></text></a></g><g class="GroupNone" transform="translate(478.94 181.47)" color="grey" ><rect class="Icon" transform="matrix(.98734 0 0 .98305 .49367 .49153)" width="78" height="58" fill="#b4b464" fill-opacity=".1" stroke="grey" stroke-dasharray="5,3"/><a  class="GeneProduct TGFBR1 " transform="translate(9,9)"   name="TGFBR1"  ><rect class="Icon" transform="matrix(.98361 0 0 .95238 .4918 .47619)" width="60" height="20" fill="#fff" stroke="#000"/><text class="Text" transform="translate(30,13)"   font-size="10px"  text-anchor="middle"><tspan x="0" y="0">TGFBR1</tspan></text></a><a  class="GeneProduct TGFBR2 " transform="translate(9 29)"   name="TGFBR2"  ><rect class="Icon" transform="matrix(.98361 0 0 .95238 .4918 .47619)" width="60" height="20" fill="#fff" stroke="#000"/><text class="Text" transform="translate(30,13)"   font-size="10px"  text-anchor="middle"><tspan x="0" y="0">TGFBR2</tspan></text></a></g><g class="GroupGroup" transform="translate(387.33 59.5)" color="grey" ><use class="Icon" width="76" height="61.83333333333333" fill="transparent"  stroke="grey" stroke-dasharray="5,3" stroke-width="0" xlink:href="#c"/><a  class="GeneProduct TGFB1 " transform="translate(8,8)"   name="TGFB1"  ><rect class="Icon" transform="matrix(.98361 0 0 .95238 .4918 .47619)" width="60" height="20" fill="#fff" stroke="#000"/><text class="Text" transform="translate(30,13)"   font-size="10px"  text-anchor="middle"><tspan x="0" y="0">TGFB1</tspan></text></a><a  class="GeneProduct INHBA " transform="translate(8 33.833)"   name="INHBA"  ><rect class="Icon" transform="matrix(.98361 0 0 .95238 .4918 .47619)" width="60" height="20" fill="#fff" stroke="#000"/><text class="Text" transform="translate(30,13)"   font-size="10px"  text-anchor="middle"><tspan x="0" y="0">INHBA</tspan></text></a></g><g class="GroupGroup" transform="translate(573.05 227.41)" color="grey" ><use class="Icon" width="76" height="56" fill="transparent"  stroke="grey" stroke-dasharray="5,3" stroke-width="0" xlink:href="#c"/><a  class="GeneProduct LEFTY1 " transform="translate(8,8)"   name="LEFTY1"  ><rect class="Icon" transform="matrix(.98361 0 0 .95238 .4918 .47619)" width="60" height="20" fill="#fff" stroke="#000"/><text class="Text" transform="translate(30,13)"   font-size="10px"  text-anchor="middle"><tspan x="0" y="0">LEFTY1</tspan></text></a><a  class="GeneProduct LEFTY2 " transform="translate(8,28)"   name="LEFTY2"  ><rect class="Icon" transform="matrix(.98361 0 0 .95238 .4918 .47619)" width="60" height="20" fill="#fff" stroke="#000"/><text class="Text" transform="translate(30,13)"   font-size="10px"  text-anchor="middle"><tspan x="0" y="0">LEFTY2</tspan></text></a></g><g id="ba" class="Inhibition" color="#000" ><g color="#000" fill="transparent"  filter="url(#a)" stroke="#000" stroke-dasharray="35.53401462899414, 7"><path class="EdgeBody" d="m573.05 255.41-42.532-0.37708"   marker-end="url(#d)" /></g></g><text class="Text" transform="translate(5,45)" dominant-baseline="central" fill="black"  font-size="12px" font-weight="bold" overflow="visible" ><tspan x="0" y="-27">Name: TGF-beta receptor signaling</tspan> <tspan x="0" y="-9">License: CC BY 2.0</tspan> <tspan x="0" y="9">Last Modified: 2/21/2013</tspan> <tspan x="0" y="27">Organism: Homo sapiens</tspan></text></g></svg>
