<?xml version="1.0" encoding="UTF-8"?>
<!--
  WikiPathways page: https://www.wikipathways.org/index.php/Pathway:WP661
  URL for this compressed file: https://github.com/eweitz/cachome/tree/main/data/wikipathways/WP661.svg
  Source code for compression: https://github.com/eweitz/cachome/tree/main/src/wikipathways.py
-->
<svg class="Diagram" width="800" height="600" color="black" baseProfile="full" prefix="schema:http://schema.org/" preserveAspectRatio="xMidYMid" version="1.1" viewBox="0 0 764 561" vocab="http://vocabularies.wikipathways.org/wp#" xmlns="http://www.w3.org/2000/svg" xmlns:xlink="http://www.w3.org/1999/xlink"><style>svg {font-family: 'Liberation Sans', Arial, sans-serif; }</style><defs><filter id="a" x="0" y="0" width="764" height="561" filterUnits="userSpaceOnUse"><feColorMatrix in="SourceGraphic" values="-1   0   0 0 0                   0  -1   0 0 0                   0   0  -1 0 0                   0   0   0 1 0"/></filter><filter id="e" x="0" y="0" width="764" height="561" filterUnits="userSpaceOnUse"><feColorMatrix in="SourceGraphic" values="-1   0   0 0 0.6                   0  -1   0 0 0.6                   0   0  -1 0 0.6                   0   0   0 1 0"/></filter><marker id="d" stroke-dasharray="99999" markerHeight="12" markerUnits="userSpaceOnUse" markerWidth="12" orient="auto" preserveAspectRatio="none" refX="12" refY="6" viewBox="0 0 12 12"><path transform="rotate(180 6 6)" d="M12 11L0 6l12-5z" fill="currentColor" stroke-width="0"/></marker><marker id="c" stroke-dasharray="99999" markerHeight="20" markerUnits="userSpaceOnUse" markerWidth="10" orient="auto" preserveAspectRatio="none" refX="10" refY="10" viewBox="0 0 10 20"><path d="m3 0v20" fill="currentColor" stroke="currentColor"/></marker><symbol id="b" preserveAspectRatio="none" viewBox="0 0 100 100"/></defs><g class="Viewport" color="black"  name="Name: Glucose homeostasis License: CC BY 2.0 Organism: Homo sapiens"><rect class="Icon" width="764" height="561" fill="#fff" stroke="#000" stroke-width="0"/><g id="f" class="DirectedInteraction" color="#000" ><g color="#000" fill="transparent"  filter="url(#a)" stroke="#000" stroke-dasharray="87.2, 5.8"><path class="EdgeBody" d="m362 463v-93"   marker-end="url(#d)" /></g></g><g id="g" class="Edge GraphicalLine" color="#999" ><g color="#999" fill="transparent"  filter="url(#e)" stroke="#000" stroke-dasharray="617, 0" stroke-width="2"><path class="EdgeBody" d="m76 219 617-6e-14"   /></g></g><g id="h" class="DirectedInteraction" color="#000" ><g color="#000" fill="transparent"  filter="url(#a)" stroke="#000" stroke-dasharray="193.20251254695253, 5.8"><path class="EdgeBody" d="m402 360 199-1"   marker-end="url(#d)" /></g></g><g id="i" class="Inhibition" color="#000" ><g color="#000" fill="transparent"  filter="url(#a)" stroke="#000" stroke-dasharray="201.806130178211, 7"><path class="EdgeBody" d="m362 350 196-72"   marker-end="url(#c)" /></g></g><g id="j" class="Inhibition" color="#000" ><g color="#000" fill="transparent"  filter="url(#a)" stroke="#000" stroke-dasharray="95.95751551003939, 7"><path class="EdgeBody" d="m362 350 75.5-70"   marker-end="url(#c)" /></g></g><g id="k" class="DirectedInteraction" color="#000" ><g color="#000" fill="transparent"  filter="url(#a)" stroke="#000" stroke-dasharray="204.8086417980041, 5.8"><path class="EdgeBody" d="m362 350-200-66"   marker-end="url(#d)" /></g></g><g id="l" class="Inhibition" color="#000" ><g color="#000" fill="transparent"  filter="url(#a)" stroke="#000" stroke-dasharray="85.63368717696602, 7"><path class="EdgeBody" d="m362 350-65-66"   marker-end="url(#c)" /></g></g><g class="Label" transform="translate(601,349)" color="#00f"  name="Bile salts"><use class="Icon" width="80" height="20" fill="transparent"  stroke="#00f" stroke-width="0" xlink:href="#b"/><text class="Text" transform="translate(40,14)" fill="#00f"  font-size="12px" font-weight="bold"  text-anchor="middle"><tspan x="0" y="0">Bile salts</tspan></text></g><a class="Metabolite ChEBI_CHEBI_17754  " transform="translate(260,229)" color="#00f"  name="Glycerol"  ><rect class="Icon" transform="matrix(.98765 0 0 .95238 .49383 .47619)" width="80" height="20" fill="#fff" stroke="#00f"/><text class="Text" transform="translate(40,13)" fill="#00f"  font-size="10px"  text-anchor="middle"><tspan x="0" y="0">Glycerol</tspan></text></a><a class="Metabolite ChEBI_CHEBI_17191  " transform="translate(535,229)" color="#00f"  name="Isoleucine"  ><rect class="Icon" transform="matrix(.98765 0 0 .95238 .49383 .47619)" width="80" height="20" fill="#fff" stroke="#00f"/><text class="Text" transform="translate(40,13)" fill="#00f"  font-size="10px"  text-anchor="middle"><tspan x="0" y="0">Isoleucine</tspan></text></a><a class="Metabolite ChEBI_CHEBI_16643  " transform="translate(535,91)" color="#00f"  name="Methionine"  ><rect class="Icon" transform="matrix(.98765 0 0 .95238 .49383 .47619)" width="80" height="20" fill="#fff" stroke="#00f"/><text class="Text" transform="translate(40,13)" fill="#00f"  font-size="10px"  text-anchor="middle"><tspan x="0" y="0">Methionine</tspan></text></a><a class="Metabolite ChEBI_CHEBI_17687  " transform="translate(604.5,371)" color="#00f"  name="GCA"  ><rect class="Icon" transform="matrix(.98765 0 0 .95238 .49383 .47619)" width="80" height="20" fill="#fff" stroke="#00f"/><text class="Text" transform="translate(40,13)" fill="#00f"  font-size="10px"  text-anchor="middle"><tspan x="0" y="0">GCA</tspan></text></a><a class="WikiPathways_WP534 Pathway " transform="translate(122,264)" color="#14961e"  name="Glycolysis"  ><rect class="Icon" transform="matrix(.98765 0 0 .95238 .49383 .47619)" width="80" height="20" rx="15" ry="15" fill="#fff" stroke="#14961e"/><text class="Text" transform="translate(40,14)" fill="#14961e"  font-size="12px" font-weight="bold" stroke="black" stroke-width="0" text-anchor="middle"><tspan x="0" y="0">Glycolysis</tspan></text></a><a class="Metabolite ChEBI_CHEBI_15903  " transform="translate(322,463)" color="#00f"  name="Glucose"  ><rect class="Icon" transform="matrix(.98765 0 0 .95238 .49383 .47619)" width="80" height="20" fill="#fff" stroke="#00f"/><text class="Text" transform="translate(40,13)" fill="#00f"  font-size="10px"  text-anchor="middle"><tspan x="0" y="0">Glucose</tspan></text></a><a class="Metabolite ChEBI_CHEBI_15729  " transform="translate(654,170)" color="#00f"  name="Ornithine"  ><rect class="Icon" transform="matrix(.98765 0 0 .95238 .49383 .47619)" width="80" height="20" fill="#fff" stroke="#00f"/><text class="Text" transform="translate(40,13)" fill="#00f"  font-size="10px"  text-anchor="middle"><tspan x="0" y="0">Ornithine</tspan></text></a><a class="Metabolite ChEBI_CHEBI_422  " transform="translate(118,229)" color="#00f"  name="Lactate"  ><rect class="Icon" transform="matrix(.98765 0 0 .95238 .49383 .47619)" width="80" height="20" fill="#fff" stroke="#00f"/><text class="Text" transform="translate(40,13)" fill="#00f"  font-size="10px"  text-anchor="middle"><tspan x="0" y="0">Lactate</tspan></text></a><a class="Metabolite ChEBI_CHEBI_16467  " transform="translate(654,190)" color="#00f"  name="Arginine"  ><rect class="Icon" transform="matrix(.98765 0 0 .95238 .49383 .47619)" width="80" height="20" fill="#fff" stroke="#00f"/><text class="Text" transform="translate(40,13)" fill="#00f"  font-size="10px"  text-anchor="middle"><tspan x="0" y="0">Arginine</tspan></text></a><a class="Metabolite ChEBI_CHEBI_17368  " transform="translate(199,511)" color="#00f"  name="Hypoxanthine"  ><rect class="Icon" transform="matrix(.98765 0 0 .95238 .49383 .47619)" width="80" height="20" fill="#fff" stroke="#00f"/><text class="Text" transform="translate(40,13)" fill="#00f"  font-size="10px"  text-anchor="middle"><tspan x="0" y="0">Hypoxanthine</tspan></text></a><a class="Metabolite ChEBI_CHEBI_15971  " transform="translate(535,151)" color="#00f"  name="Histidine"  ><rect class="Icon" transform="matrix(.98765 0 0 .95238 .49383 .47619)" width="80" height="20" fill="#fff" stroke="#00f"/><text class="Text" transform="translate(40,13)" fill="#00f"  font-size="10px"  text-anchor="middle"><tspan x="0" y="0">Histidine</tspan></text></a><a class="Metabolite ChEBI_CHEBI_17066  " transform="translate(393,229)" color="#00f"  name="B-OH-butyrate"  ><rect class="Icon" transform="matrix(.98765 0 0 .95238 .49383 .47619)" width="80" height="20" fill="#fff" stroke="#00f"/><text class="Text" transform="translate(40,13)" fill="#00f"  font-size="10px"  text-anchor="middle"><tspan x="0" y="0">B-OH-butyrate</tspan></text></a><a class="Metabolite ChEBI_CHEBI_36274  " transform="translate(604.5,391)" color="#00f"  name="GCDCA"  ><rect class="Icon" transform="matrix(.98765 0 0 .95238 .49383 .47619)" width="80" height="20" fill="#fff" stroke="#00f"/><text class="Text" transform="translate(40,13)" fill="#00f"  font-size="10px"  text-anchor="middle"><tspan x="0" y="0">GCDCA</tspan></text></a><a class="Metabolite ChEBI_CHEBI_32816  " transform="translate(118,170)" color="#00f"  name="Pyruvate"  ><rect class="Icon" transform="matrix(.98765 0 0 .95238 .49383 .47619)" width="80" height="20" fill="#fff" stroke="#00f"/><text class="Text" transform="translate(40,13)" fill="#00f"  font-size="10px"  text-anchor="middle"><tspan x="0" y="0">Pyruvate</tspan></text></a><a class="Metabolite ChEBI_CHEBI_16525  " transform="translate(604.5,411)" color="#00f"  name="TCDCA"  ><rect class="Icon" transform="matrix(.98765 0 0 .95238 .49383 .47619)" width="80" height="20" fill="#fff" stroke="#00f"/><text class="Text" transform="translate(40,13)" fill="#00f"  font-size="10px"  text-anchor="middle"><tspan x="0" y="0">TCDCA</tspan></text></a><g class="Pathway" transform="translate(257,264)" color="#14961e"  name="Lipolysis"><use class="Icon" width="80" height="20" fill="transparent"  stroke="#14961e" stroke-width="0" xlink:href="#b"/><text class="Text" transform="translate(40,14)" fill="#14961e"  font-size="12px" font-weight="bold" stroke="black" stroke-width="0" text-anchor="middle"><tspan x="0" y="0">Lipolysis</tspan></text></g><g class="Pathway" transform="translate(391,260)" color="#14961e"  name="Ketogenesis"><use class="Icon" width="93" height="20" fill="transparent"  stroke="#14961e" stroke-width="0" xlink:href="#b"/><text class="Text" transform="translate(46.5,14)" fill="#14961e"  font-size="12px" font-weight="bold" stroke="black" stroke-width="0" text-anchor="middle"><tspan x="0" y="0">Ketogenesis</tspan></text></g><a class="Metabolite ChEBI_CHEBI_30797  " transform="translate(118,190)" color="#00f"  name="Malate"  ><rect class="Icon" transform="matrix(.98765 0 0 .95238 .49383 .47619)" width="80" height="20" fill="#fff" stroke="#00f"/><text class="Text" transform="translate(40,13)" fill="#00f"  font-size="10px"  text-anchor="middle"><tspan x="0" y="0">Malate</tspan></text></a><a  class="GeneProduct INS " transform="translate(322,350)"   name="Insulin"  ><rect class="Icon" transform="matrix(.98765 0 0 .95238 .49383 .47619)" width="80" height="20" fill="#fff" stroke="#000"/><text class="Text" transform="translate(40,13)"   font-size="10px"  text-anchor="middle"><tspan x="0" y="0">Insulin</tspan></text></a><a class="Metabolite ChEBI_CHEBI_17895  " transform="translate(535,111)" color="#00f"  name="Tyrosine"  ><rect class="Icon" transform="matrix(.98765 0 0 .95238 .49383 .47619)" width="80" height="20" fill="#fff" stroke="#00f"/><text class="Text" transform="translate(40,13)" fill="#00f"  font-size="10px"  text-anchor="middle"><tspan x="0" y="0">Tyrosine</tspan></text></a><g class="Pathway" transform="translate(538,258)" color="#14961e"  name="Proteolysis"><use class="Icon" width="80" height="20" fill="transparent"  stroke="#14961e" stroke-width="0" xlink:href="#b"/><text class="Text" transform="translate(40,14)" fill="#14961e"  font-size="12px" font-weight="bold" stroke="black" stroke-width="0" text-anchor="middle"><tspan x="0" y="0">Proteolysis</tspan></text></g><a class="Metabolite ChEBI_CHEBI_17295  " transform="translate(535,191)" color="#00f"  name="Phenylalanine"  ><rect class="Icon" transform="matrix(.98765 0 0 .95238 .49383 .47619)" width="80" height="20" fill="#fff" stroke="#00f"/><text class="Text" transform="translate(40,13)" fill="#00f"  font-size="10px"  text-anchor="middle"><tspan x="0" y="0">Phenylalanine</tspan></text></a><a class="Metabolite ChEBI_CHEBI_16349  " transform="translate(654,150)" color="#00f"  name="Citrulline"  ><rect class="Icon" transform="matrix(.98765 0 0 .95238 .49383 .47619)" width="80" height="20" fill="#fff" stroke="#00f"/><text class="Text" transform="translate(40,13)" fill="#00f"  font-size="10px"  text-anchor="middle"><tspan x="0" y="0">Citrulline</tspan></text></a><a class="Metabolite ChEBI_CHEBI_18019  " transform="translate(535,171)" color="#00f"  name="Lysine"  ><rect class="Icon" transform="matrix(.98765 0 0 .95238 .49383 .47619)" width="80" height="20" fill="#fff" stroke="#00f"/><text class="Text" transform="translate(40,13)" fill="#00f"  font-size="10px"  text-anchor="middle"><tspan x="0" y="0">Lysine</tspan></text></a><a class="Metabolite ChEBI_CHEBI_18089  " transform="translate(199,463)" color="#00f"  name="Hippuric acid"  ><rect class="Icon" transform="matrix(.98765 0 0 .95238 .49383 .47619)" width="80" height="20" fill="#fff" stroke="#00f"/><text class="Text" transform="translate(40,13)" fill="#00f"  font-size="10px"  text-anchor="middle"><tspan x="0" y="0">Hippuric acid</tspan></text></a><a class="Metabolite ChEBI_CHEBI_16414  " transform="translate(535,131)" color="#00f"  name="valine"  ><rect class="Icon" transform="matrix(.98765 0 0 .95238 .49383 .47619)" width="80" height="20" fill="#fff" stroke="#00f"/><text class="Text" transform="translate(40,13)" fill="#00f"  font-size="10px"  text-anchor="middle"><tspan x="0" y="0">valine</tspan></text></a><text class="Text" transform="translate(5,36)" dominant-baseline="central" fill="black"  font-size="12px" font-weight="bold" overflow="visible" ><tspan x="0" y="-18">Name: Glucose homeostasis</tspan> <tspan x="0" y="0">License: CC BY 2.0</tspan> <tspan x="0" y="18">Organism: Homo sapiens</tspan></text></g></svg>
