<?xml version="1.0" encoding="UTF-8"?>
<!--
  WikiPathways page: https://www.wikipathways.org/index.php/Pathway:WP678
  URL for this compressed file: https://github.com/eweitz/cachome/tree/main/data/wikipathways/WP678.svg
  Source code for compression: https://github.com/eweitz/cachome/tree/main/src/wikipathways.py
-->
<svg class="Diagram" width="800" height="600" color="black" baseProfile="full" prefix="schema:http://schema.org/" preserveAspectRatio="xMidYMid" version="1.1" viewBox="0 0 738 503" vocab="http://vocabularies.wikipathways.org/wp#" xmlns="http://www.w3.org/2000/svg" xmlns:xlink="http://www.w3.org/1999/xlink"><style>svg {font-family: 'Liberation Sans', Arial, sans-serif; }</style><defs><filter id="a" x="0" y="0" width="738" height="503" filterUnits="userSpaceOnUse"><feColorMatrix in="SourceGraphic" values="-1   0   0 0 0                   0  -1   0 0 0                   0   0  -1 0 0                   0   0   0 1 0"/></filter><marker id="c" stroke-dasharray="99999" markerHeight="12" markerUnits="userSpaceOnUse" markerWidth="12" orient="auto" preserveAspectRatio="none" refX="12" refY="6" viewBox="0 0 12 12"><path transform="rotate(180 6 6)" d="M12 11L0 6l12-5z" fill="currentColor" stroke-width="0"/></marker><marker id="e" stroke-dasharray="99999" markerHeight="12" markerUnits="userSpaceOnUse" markerWidth="12" orient="auto" preserveAspectRatio="none" refY="6" viewBox="0 0 12 12"><circle cx="6" cy="6" r="5.3" fill="none" stroke="#000"/></marker><marker id="d" stroke-dasharray="99999" markerHeight="12" markerUnits="userSpaceOnUse" markerWidth="12" orient="auto" preserveAspectRatio="none" refX="12" refY="6" viewBox="0 0 12 12"><circle transform="rotate(180 6 6)" cx="6" cy="6" r="5.3" fill="none" stroke="#000"/></marker><symbol id="b" preserveAspectRatio="none" viewBox="0 0 100 100"/></defs><g class="Viewport" color="black"  name="Name: Arachidonate epoxygenase / epoxide hydrolase License: CC BY 2.0 Organism: Homo sapiens"><rect class="Icon" width="738" height="503" fill="#fff" stroke="#000" stroke-width="0"/><g id="f" class="DirectedInteraction" color="#000" ><g color="#000" fill="transparent"  filter="url(#a)" stroke="#000" stroke-dasharray="152.14302770302967, 5.8"><path class="EdgeBody" d="m489 307 139 75"   marker-end="url(#c)" /></g><g class="Burr Anchor" transform="translate(544.6,337)" ><use class="Icon" width="0" height="0" fill="#141414" stroke-width="0" xlink:href="#b"/></g></g><g id="g" class="DirectedInteraction" color="#000" ><g color="#000" fill="transparent"  filter="url(#a)" stroke="#000" stroke-dasharray="51.2, 5.8"><path class="EdgeBody" d="m176 207v-57"   marker-end="url(#c)" /></g><g class="Burr Anchor" transform="translate(176,184.2)" ><use class="Icon" width="0" height="0" fill="#141414" stroke-width="0" xlink:href="#b"/></g></g><g id="h" class="Interaction" color="#000" ><g color="#000" fill="transparent"  filter="url(#a)" stroke="#000" stroke-dasharray="21.522146300636436, 11"><path class="EdgeBody" d="m143.5 183 32.5 1.2"   marker-end="url(#d)" /></g></g><g id="i" class="DirectedInteraction" color="#000" ><g color="#000" fill="transparent"  filter="url(#a)" stroke="#000" stroke-dasharray="135.3523999087511, 5.8"><path class="EdgeBody" d="m348 267-132-50"   marker-end="url(#c)" /></g><g class="Burr Anchor" transform="translate(295.2,247)" ><use class="Icon" width="0" height="0" fill="#141414" stroke-width="0" xlink:href="#b"/></g></g><g id="j" class="Interaction" color="#000" ><g color="#000" fill="transparent"  filter="url(#a)" stroke="#000" stroke-dasharray="19.191099681859875, 11"><path class="EdgeBody" d="m270.25 264 24.95-17"   marker-end="url(#d)" /></g></g><g id="k" class="DirectedInteraction" color="#000" ><g color="#000" fill="transparent"  filter="url(#a)" stroke="#000" stroke-dasharray="172.57040113202638, 5.8"><path class="EdgeBody" d="m349 307-154 90"   marker-end="url(#c)" /></g><g class="Burr Anchor" transform="translate(287.4,343)" ><use class="Icon" width="0" height="0" fill="#141414" stroke-width="0" xlink:href="#b"/></g></g><g id="l" class="Interaction" color="#000" ><g color="#000" fill="transparent"  filter="url(#a)" stroke="#000" stroke-dasharray="37.5372022267456, 11"><path class="EdgeBody" d="m586.5 312.5-41.9 24.5"   marker-end="url(#d)" /></g></g><g id="m" class="Interaction" color="#000" ><g color="#000" fill="transparent"  filter="url(#a)" stroke="#000" stroke-dasharray="13.092996907815337, 11"><path class="EdgeBody" d="M273.25,323.5L287.4,343"   marker-end="url(#d)" /></g></g><g id="n" class="DirectedInteraction" color="#000" ><g color="#000" fill="transparent"  filter="url(#a)" stroke="#000" stroke-dasharray="144.28018690020343, 5.8"><path class="EdgeBody" d="M489.25,267L625,203"   marker-end="url(#c)" /></g><g class="Burr Anchor" transform="translate(543.55,241.4)" ><use class="Icon" width="0" height="0" fill="#141414" stroke-width="0" xlink:href="#b"/></g></g><g id="o" class="Interaction" color="#000" ><g color="#000" fill="transparent"  filter="url(#a)" stroke="#000" stroke-dasharray="20.573129398271597, 11"><path class="EdgeBody" d="m571 257-27.45-15.6"   marker-end="url(#d)" /></g></g><g id="p" class="DirectedInteraction" color="#000" ><g color="#000" fill="transparent"  filter="url(#a)" stroke="#000" stroke-dasharray="80.2, 5.8"><path class="EdgeBody" d="m348 267v-86"   marker-end="url(#c)" /></g><g class="Burr Anchor" transform="translate(348,232.6)" ><use class="Icon" width="0" height="0" fill="#141414" stroke-width="0" xlink:href="#b"/></g></g><g id="q" class="Interaction" color="#000" ><g color="#000" fill="transparent"  filter="url(#a)" stroke="#000" stroke-dasharray="11.590318722851165, 11"><path class="EdgeBody" d="M329.25,220L348,232.6"   marker-end="url(#d)" /></g></g><g id="r" class="DirectedInteraction" color="#000" ><g color="#000" fill="transparent"  filter="url(#a)" stroke="#000" stroke-dasharray="128.83335628662013, 5.8"><path class="EdgeBody" d="m419.12 315 71.625 114"   marker-end="url(#c)" /></g><g class="Burr Anchor" transform="translate(447.78 360.6)" ><use class="Icon" width="0" height="0" fill="#141414" stroke-width="0" xlink:href="#b"/></g></g><g id="s" class="DirectedInteraction" color="#000" ><g color="#000" fill="transparent"  filter="url(#a)" stroke="#000" stroke-dasharray="146.20046258153295, 5.8"><path class="EdgeBody" d="m419.5 107-0.375 152"   marker-end="url(#c)" /></g><g class="Burr Anchor" transform="translate(419.35,167.8)" ><use class="Icon" width="0" height="0" fill="#141414" stroke-width="0" xlink:href="#b"/></g></g><g id="t" class="DirectedInteraction" color="#000" ><g color="#000" fill="transparent"  filter="url(#a)" stroke="#000" stroke-dasharray="121.7118254319967, 5.8"><path class="EdgeBody" d="M419.125,315L362,429"   marker-end="url(#c)" /></g><g class="Burr Anchor" transform="translate(396.28 360.6)" ><use class="Icon" width="0" height="0" fill="#141414" stroke-width="0" xlink:href="#b"/></g></g><g id="u" class="Interaction" color="#000" ><g color="#000" fill="transparent"  filter="url(#a)" stroke="#000" stroke-dasharray="6.47528612069058, 11"><path class="EdgeBody" d="m465.25 360.5-17.475 0.1"   marker-end="url(#d)" /></g></g><g id="v" class="Interaction" color="#000" ><g color="#000" fill="transparent"  filter="url(#a)" stroke="#000" stroke-dasharray="17.525175284299284, 11"><path class="EdgeBody" d="m367.75 360.5 28.525 0.1"   marker-end="url(#d)" /></g></g><g id="w" class="Interaction" color="#000" ><g color="#000" fill="transparent"  filter="url(#a)" stroke="#000" stroke-dasharray="0, 11, 32.66615000489507, 0"><path class="EdgeBody" d="m419.35 167.8 43.65 1.1875"   marker-start="url(#e)" /></g></g><g class="Label" transform="translate(303,453)" color="#000"  name="Product"><use class="Icon" width="119" height="20" fill="transparent"  stroke="#000" stroke-width="0" xlink:href="#b"/><text class="Text" transform="translate(59.5,13)"   font-size="10px"  text-anchor="middle"><tspan x="0" y="0">Product</tspan></text></g><g class="Label" transform="translate(429,451)" color="#000"  name="Product"><use class="Icon" width="119" height="20" fill="transparent"  stroke="#000" stroke-width="0" xlink:href="#b"/><text class="Text" transform="translate(59.5,13)"   font-size="10px"  text-anchor="middle"><tspan x="0" y="0">Product</tspan></text></g><g class="Metabolite" transform="translate(311.5,429)" color="#00f"  name="Glutathionyl-HETrEs"><rect class="Icon" transform="matrix(.9902 0 0 .95238 .4951 .47619)" width="101" height="20" fill="#fff" stroke="#00f"/><text class="Text" transform="translate(50.5,13)" fill="#00f"  font-size="10px"  text-anchor="middle"><tspan x="0" y="0">Glutathionyl-HETrEs</tspan></text></g><g class="Metabolite" transform="translate(132,130)" color="#00f"  name="5,6-DiH-PGF1a"><rect class="Icon" transform="matrix(.98876 0 0 .95238 .49438 .47619)" width="88" height="20" fill="#fff" stroke="#00f"/><text class="Text" transform="translate(44,13)" fill="#00f"  font-size="10px"  text-anchor="middle"><tspan x="0" y="0">5,6-DiH-PGF1a</tspan></text></g><a  class="GeneProduct EPHX2 " transform="translate(226.75,313.5)"   name="EPHX2"  ><rect class="Icon" transform="matrix(.97895 0 0 .95238 .48947 .47619)" width="46.5" height="20" fill="#fff" stroke="#000"/><text class="Text" transform="translate(23.25,13)"   font-size="10px"  text-anchor="middle"><tspan x="0" y="0">EPHX2</tspan></text></a><g class="Metabolite" transform="translate(438,429)" color="#00f"  name="Phosphotidyl-EpETrEs"><rect class="Icon" transform="matrix(.99061 0 0 .95238 .49531 .47619)" width="105.5" height="20" fill="#fff" stroke="#00f"/><text class="Text" transform="translate(52.75,13)" fill="#00f"  font-size="10px"  text-anchor="middle"><tspan x="0" y="0">Phosphotidyl-EpETrEs</tspan></text></g><a class="Metabolite ChEBI_CHEBI_63969  " transform="translate(625,193)" color="#00f"  name="11,12-DiHETrE"  ><rect class="Icon" transform="matrix(.98765 0 0 .95238 .49383 .47619)" width="80" height="20" fill="#fff" stroke="#00f"/><text class="Text" transform="translate(40,13)" fill="#00f"  font-size="10px"  text-anchor="middle"><tspan x="0" y="0">11,12-DiHETrE</tspan></text></a><a  class="GeneProduct COX5A " transform="translate(282.75,210)"   name="COX"  ><rect class="Icon" transform="matrix(.97895 0 0 .95238 .48947 .47619)" width="46.5" height="20" fill="#fff" stroke="#000"/><text class="Text" transform="translate(23.25,13)"   font-size="10px"  text-anchor="middle"><tspan x="0" y="0">COX</tspan></text></a><a  class="GeneProduct EPHX2 " transform="translate(586.5,302.5)"   name="EPHX2"  ><rect class="Icon" transform="matrix(.97895 0 0 .95238 .48947 .47619)" width="46.5" height="20" fill="#fff" stroke="#000"/><text class="Text" transform="translate(23.25,13)"   font-size="10px"  text-anchor="middle"><tspan x="0" y="0">EPHX2</tspan></text></a><a  class="GeneProduct EPHX2 " transform="translate(547.75,257)"   name="EPHX2"  ><rect class="Icon" transform="matrix(.97895 0 0 .95238 .48947 .47619)" width="46.5" height="20" fill="#fff" stroke="#000"/><text class="Text" transform="translate(23.25,13)"   font-size="10px"  text-anchor="middle"><tspan x="0" y="0">EPHX2</tspan></text></a><a class="PubChem-compound_53481368 Metabolite " transform="translate(282,161)" color="#00f"  name="5(6)-Epoxy-PGE1"  ><rect class="Icon" transform="matrix(.98876 0 0 .95238 .49438 .47619)" width="88" height="20" fill="#fff" stroke="#00f"/><text class="Text" transform="translate(44,13)" fill="#00f"  font-size="10px"  text-anchor="middle"><tspan x="0" y="0">5(6)-Epoxy-PGE1</tspan></text></a><a class="Metabolite ChEBI_CHEBI_63974  " transform="translate(136,207)" color="#00f"  name="5,6-DiHETrE"  ><rect class="Icon" transform="matrix(.98765 0 0 .95238 .49383 .47619)" width="80" height="20" fill="#fff" stroke="#00f"/><text class="Text" transform="translate(40,13)" fill="#00f"  font-size="10px"  text-anchor="middle"><tspan x="0" y="0">5,6-DiHETrE</tspan></text></a><a  class="GeneProduct GSTP1 " transform="translate(321.25,350.5)"   name="GST3"  ><rect class="Icon" transform="matrix(.97895 0 0 .95238 .48947 .47619)" width="46.5" height="20" fill="#fff" stroke="#000"/><text class="Text" transform="translate(23.25,13)"   font-size="10px"  text-anchor="middle"><tspan x="0" y="0">GST3</tspan></text></a><g class="GeneProduct" transform="translate(465.25,350.5)" color="#000"  name="Catalyst"><rect class="Icon" transform="matrix(.97895 0 0 .95238 .48947 .47619)" width="46.5" height="20" fill="#fff" stroke="#000"/><text class="Text" transform="translate(23.25,13)"   font-size="10px"  text-anchor="middle"><tspan x="0" y="0">Catalyst</tspan></text></g><a  class="GeneProduct COX8A " transform="translate(97,173)"   name="COX"  ><rect class="Icon" transform="matrix(.97895 0 0 .95238 .48947 .47619)" width="46.5" height="20" fill="#fff" stroke="#000"/><text class="Text" transform="translate(23.25,13)"   font-size="10px"  text-anchor="middle"><tspan x="0" y="0">COX</tspan></text></a><a  class="GeneProduct EPHX2 " transform="translate(247,264)"   name="EPHX2"  ><rect class="Icon" transform="matrix(.97895 0 0 .95238 .48947 .47619)" width="46.5" height="20" fill="#fff" stroke="#000"/><text class="Text" transform="translate(23.25,13)"   font-size="10px"  text-anchor="middle"><tspan x="0" y="0">EPHX2</tspan></text></a><a class="Metabolite ChEBI_CHEBI_63970  " transform="translate(115,387)" color="#00f"  name="8,9-DiHETrE"  ><rect class="Icon" transform="matrix(.98765 0 0 .95238 .49383 .47619)" width="80" height="20" fill="#fff" stroke="#00f"/><text class="Text" transform="translate(40,13)" fill="#00f"  font-size="10px"  text-anchor="middle"><tspan x="0" y="0">8,9-DiHETrE</tspan></text></a><a class="Metabolite ChEBI_CHEBI_63966  " transform="translate(628,372)" color="#00f"  name="14,15-DiHETrE"  ><rect class="Icon" transform="matrix(.98765 0 0 .95238 .49383 .47619)" width="80" height="20" fill="#fff" stroke="#00f"/><text class="Text" transform="translate(40,13)" fill="#00f"  font-size="10px"  text-anchor="middle"><tspan x="0" y="0">14,15-DiHETrE</tspan></text></a><a class="Metabolite ChEBI_CHEBI_15843  " transform="translate(373,87)" color="#00f"  name="Arachidonic acid"  ><rect class="Icon" transform="matrix(.98936 0 0 .95238 .49468 .47619)" width="93" height="20" fill="#fff" stroke="#00f"/><text class="Text" transform="translate(46.5,13)" fill="#00f"  font-size="10px"  text-anchor="middle"><tspan x="0" y="0">Arachidonic acid</tspan></text></a><g class="GroupGroup" transform="translate(463 132.48)" color="grey" ><use class="Icon" width="96" height="73.00833333333335" fill="transparent"  stroke="grey" stroke-dasharray="5,3" stroke-width="0" xlink:href="#b"/><a  class="GeneProduct CYP2C9 " transform="translate(8 45.008)"   name="CYP2C9"  ><rect class="Icon" transform="matrix(.98765 0 0 .95238 .49383 .47619)" width="80" height="20" fill="#fff" stroke="#000"/><text class="Text" transform="translate(40,13)"   font-size="10px"  text-anchor="middle"><tspan x="0" y="0">CYP2C9</tspan></text></a><a  class="GeneProduct CYP2C8 " transform="translate(8,28)"   name="CYP2C8"  ><rect class="Icon" transform="matrix(.98765 0 0 .95238 .49383 .47619)" width="80" height="20" fill="#fff" stroke="#000"/><text class="Text" transform="translate(40,13)"   font-size="10px"  text-anchor="middle"><tspan x="0" y="0">CYP2C8</tspan></text></a><a  class="GeneProduct CYP2J2 " transform="translate(8,8)"   name="CYP2J2"  ><rect class="Icon" transform="matrix(.98765 0 0 .95238 .49383 .47619)" width="80" height="20" fill="#fff" stroke="#000"/><text class="Text" transform="translate(40,13)"   font-size="10px"  text-anchor="middle"><tspan x="0" y="0">CYP2J2</tspan></text></a></g><g class="GroupGroup" transform="translate(317,259)" color="grey" ><use class="Icon" width="204.25" height="56" fill="transparent"  stroke="grey" stroke-dasharray="5,3" stroke-width="0" xlink:href="#b"/><a class="Metabolite ChEBI_CHEBI_34157  " transform="translate(100,28)" color="#00f"  name="14(15)-EpETrE"  ><rect class="Icon" transform="matrix(.98969 0 0 .95238 .49485 .47619)" width="96" height="20" fill="#fff" stroke="#00f"/><text class="Text" transform="translate(48,13)" fill="#00f"  font-size="10px"  text-anchor="middle"><tspan x="0" y="0">14(15)-EpETrE</tspan></text></a><a class="Metabolite ChEBI_CHEBI_34490  " transform="translate(8,28)" color="#00f"  name="8(9)-EpETrE"  ><rect class="Icon" transform="matrix(.98969 0 0 .95238 .49485 .47619)" width="96" height="20" fill="#fff" stroke="#00f"/><text class="Text" transform="translate(48,13)" fill="#00f"  font-size="10px"  text-anchor="middle"><tspan x="0" y="0">8(9)-EpETrE</tspan></text></a><a class="Metabolite ChEBI_CHEBI_34450  " transform="translate(8,8)" color="#00f"  name="5(6)-EpETrE"  ><rect class="Icon" transform="matrix(.98925 0 0 .95238 .49462 .47619)" width="92" height="20" fill="#fff" stroke="#00f"/><text class="Text" transform="translate(46,13)" fill="#00f"  font-size="10px"  text-anchor="middle"><tspan x="0" y="0">5(6)-EpETrE</tspan></text></a><a class="Metabolite " transform="translate(100.25,8)" color="#00f"  name="11(12)-EpETrE"  ><rect class="Icon" transform="matrix(.98969 0 0 .95238 .49485 .47619)" width="96" height="20" fill="#fff" stroke="#00f"/><text class="Text" transform="translate(48,13)" fill="#00f"  font-size="10px"  text-anchor="middle"><tspan x="0" y="0">11(12)-EpETrE</tspan></text></a></g><text class="Text" transform="translate(5,36)" dominant-baseline="central" fill="black"  font-size="12px" font-weight="bold" overflow="visible" ><tspan x="0" y="-18">Name: Arachidonate epoxygenase / epoxide hydrolase</tspan> <tspan x="0" y="0">License: CC BY 2.0</tspan> <tspan x="0" y="18">Organism: Homo sapiens</tspan></text></g></svg>
