<?xml version="1.0" encoding="UTF-8"?>
<!--
  WikiPathways page: https://www.wikipathways.org/index.php/Pathway:WP694
  URL for this compressed file: https://github.com/eweitz/cachome/tree/main/data/wikipathways/WP694.svg
  Source code for compression: https://github.com/eweitz/cachome/tree/main/src/wikipathways.py
-->
<svg class="Diagram" width="800" height="600" color="black" baseProfile="full" prefix="schema:http://schema.org/" preserveAspectRatio="xMidYMid" version="1.1" viewBox="0 0 659.21 626" vocab="http://vocabularies.wikipathways.org/wp#" xmlns="http://www.w3.org/2000/svg" xmlns:xlink="http://www.w3.org/1999/xlink"><style>svg {font-family: 'Liberation Sans', Arial, sans-serif; }</style><defs><filter id="a" x="0" y="0" width="659.21" height="626" filterUnits="userSpaceOnUse"><feColorMatrix in="SourceGraphic" values="-1   0   0 0 0                   0  -1   0 0 0                   0   0  -1 0 0                   0   0   0 1 0"/></filter><marker id="f" stroke-dasharray="99999" markerHeight="12" markerUnits="userSpaceOnUse" markerWidth="12" orient="auto" preserveAspectRatio="none" refX="12" refY="6" viewBox="0 0 12 12"><path transform="rotate(180 6 6)" d="M12 11L0 6l12-5z" fill="currentColor" stroke-width="0"/></marker><marker id="d" stroke-dasharray="99999" markerHeight="12" markerUnits="userSpaceOnUse" markerWidth="12" orient="auto" preserveAspectRatio="none" refX="12" refY="6" viewBox="0 0 12 12"><circle transform="rotate(180 6 6)" cx="6" cy="6" r="5.3" fill="none" stroke="#000"/></marker><marker id="c" stroke-dasharray="99999" markerHeight="12" markerUnits="userSpaceOnUse" markerWidth="12" orient="auto" preserveAspectRatio="none" refX="12" refY="6" viewBox="0 0 12 12"><path transform="rotate(180 6 6)" d="M12 11L0 6l12-5z" fill="currentColor" stroke-width="0"/></marker><symbol id="e" overflow="visible" preserveAspectRatio="none" viewBox="0 0 100 100"><path d="M0 25L25 0h50l25 25v50l-25 25H25L0 75z" stroke="currentColor" vector-effect="non-scaling-stroke"/></symbol><symbol id="b" preserveAspectRatio="none" viewBox="0 0 100 100"/></defs><g class="Viewport" color="black"  name="Name: Arylamine metabolism Organism: Homo sapiens"><rect class="Icon" width="659.21" height="626" fill="#fff" stroke="#000" stroke-width="0"/><g id="g" class="DirectedInteraction" color="#000" ><g color="#000" fill="transparent"  filter="url(#a)" stroke="#000" stroke-dasharray="273.95, 5.8"><path class="EdgeBody" d="m493.75 216v20h-234.75v-25"   marker-end="url(#f)" /></g><g class="Burr Anchor" transform="translate(371.75 236)" ><use class="Icon" width="0" height="0" fill="#141414" stroke-width="0" xlink:href="#b"/></g></g><g id="h" class="Interaction" color="#000" ><g color="#000" fill="transparent"  filter="url(#a)" stroke="#000" stroke-dasharray="200.2, 5.8"><path class="EdgeBody" d="m239 211v206"   marker-end="url(#c)" /></g><g class="Burr Anchor" transform="translate(239,323)" ><use class="Icon" width="0" height="0" fill="#141414" stroke-width="0" xlink:href="#b"/></g></g><g id="i" class="Interaction" color="#000" ><g color="#000" fill="transparent"  filter="url(#a)" stroke="#000" stroke-dasharray="125.2, 5.8"><path class="EdgeBody" d="m219 211v43h-88"   marker-end="url(#c)" /></g></g><g id="j" class="Interaction" color="#000" ><g color="#000" fill="transparent"  filter="url(#a)" stroke="#000" stroke-dasharray="57.2, 5.8"><path class="EdgeBody" d="m199 201h-63"   marker-end="url(#c)" /></g><g class="Burr Anchor" transform="translate(170,201)" ><use class="Icon" width="0" height="0" fill="#141414" stroke-width="0" xlink:href="#b"/></g></g><g id="k" class="DirectedInteraction" color="#000" ><g color="#000" fill="transparent"  filter="url(#a)" stroke="#000" stroke-dasharray="273.95, 5.8"><path class="EdgeBody" d="m259 191v-20h234.75v25"   marker-end="url(#f)" /></g><g class="Burr Anchor" transform="translate(371.85 171)" ><use class="Icon" width="0" height="0" fill="#141414" stroke-width="0" xlink:href="#b"/></g><g class="Burr Anchor" transform="translate(372.35 171)" ><use class="Icon" width="0" height="0" fill="#141414" stroke-width="0" xlink:href="#b"/></g></g><g id="l" class="Interaction" color="#000" ><g color="#000" fill="transparent"  filter="url(#a)" stroke="#000" stroke-dasharray="79.50038826234851, 11"><path class="EdgeBody" d="m329.5 323h-90.5"   marker-end="url(#d)" /></g></g><g id="m" class="Interaction" color="#000" ><g color="#000" fill="transparent"  filter="url(#a)" stroke="#000" stroke-dasharray="166.20038826234855, 5.8"><path class="EdgeBody" d="m239 437v91h81"   marker-end="url(#c)" /></g><g class="Burr Anchor" transform="translate(239 479.32)" ><use class="Icon" width="0" height="0" fill="#141414" stroke-width="0" xlink:href="#b"/></g></g><g id="n" class="Interaction" color="#000" ><g color="#000" fill="transparent"  filter="url(#a)" stroke="#000" stroke-dasharray="64.2, 5.8"><path class="EdgeBody" d="m187 427h-70"   marker-end="url(#c)" /></g><g class="Burr Anchor" transform="translate(153.67 427)" ><use class="Icon" width="0" height="0" fill="#141414" stroke-width="0" xlink:href="#b"/></g></g><g id="o" class="Interaction" color="#000" ><g color="#000" fill="transparent"  filter="url(#a)" stroke="#000" stroke-dasharray="195.2006218895852, 5.8"><path class="EdgeBody" d="m521.5 216-0.5 201"   marker-end="url(#c)" /></g><g class="Burr Anchor" transform="translate(521.23 323)" ><use class="Icon" width="0" height="0" fill="#141414" stroke-width="0" xlink:href="#b"/></g></g><g id="p" class="Interaction" color="#000" ><g color="#000" fill="transparent"  filter="url(#a)" stroke="#000" stroke-dasharray="100.73343499072115, 11"><path class="EdgeBody" d="m409.5 323 111.73 0.0030692"   marker-end="url(#d)" /></g></g><g id="q" class="DirectedInteraction" color="#000" ><g color="#000" fill="transparent"  filter="url(#a)" stroke="#000" stroke-dasharray="5.55, 3.33, 5.55, 3.33, 5.55, 3.33, 5.55, 3.33, 0, 5.8"><path class="EdgeBody" d="m369.5 538v38"   marker-end="url(#f)" /></g></g><g id="r" class="Interaction" color="#000" ><g color="#000" fill="transparent"  filter="url(#a)" stroke="#000" stroke-dasharray="20.64586667138386, 11"><path class="EdgeBody" d="m371.96 267.65-0.21129-31.645"   marker-end="url(#d)" /></g></g><g id="s" class="Interaction" color="#000" ><g color="#000" fill="transparent"  filter="url(#a)" stroke="#000" stroke-dasharray="187.19961173765142, 5.8"><path class="EdgeBody" d="m521 437v91h-102"   marker-end="url(#c)" /></g><g class="Burr Anchor" transform="translate(521 479.32)" ><use class="Icon" width="0" height="0" fill="#141414" stroke-width="0" xlink:href="#b"/></g></g><g id="t" class="Interaction" color="#000" ><g color="#000" fill="transparent"  filter="url(#a)" stroke="#000" stroke-dasharray="157.2, 5.8"><path class="EdgeBody" d="m454 427h-163"   marker-end="url(#c)" /></g><g class="Burr Anchor" transform="translate(371.47 427)" ><use class="Icon" width="0" height="0" fill="#141414" stroke-width="0" xlink:href="#b"/></g></g><g id="u" class="Interaction" color="#000" ><g color="#000" fill="transparent"  filter="url(#a)" stroke="#000" stroke-dasharray="15.184829776510881, 11"><path class="EdgeBody" d="m371.32 400.82 0.15235 26.184"   marker-end="url(#d)" /></g></g><g id="v" class="Interaction" color="#000" ><g color="#000" fill="transparent"  filter="url(#a)" stroke="#000" stroke-dasharray="80.822423104495, 0"><path class="EdgeBody" d="m299 136 72.851 35"   /></g></g><g id="w" class="Interaction" color="#000" ><g color="#000" fill="transparent"  filter="url(#a)" stroke="#000" stroke-dasharray="71.3030879572515, 5.8"><path class="EdgeBody" d="m371.85 171 70.149-32"   marker-end="url(#c)" /></g></g><g id="x" class="Interaction" color="#000" ><g color="#000" fill="transparent"  filter="url(#a)" stroke="#000" stroke-dasharray="23.798522311415198, 11"><path class="EdgeBody" d="m154.05 392.2-0.38423 34.796"   marker-end="url(#d)" /></g></g><g id="y" class="Interaction" color="#000" ><g color="#000" fill="transparent"  filter="url(#a)" stroke="#000" stroke-dasharray="88.50192202749784, 11"><path class="EdgeBody" d="m421.5 480 99.5-0.67805"   marker-end="url(#d)" /></g></g><g id="z" class="Interaction" color="#000" ><g color="#000" fill="transparent"  filter="url(#a)" stroke="#000" stroke-dasharray="67.50331654498649, 11"><path class="EdgeBody" d="m317.5 480-78.5-0.67805"   marker-end="url(#d)" /></g></g><g id="aa" class="Interaction" color="#000" ><g color="#000" fill="transparent"  filter="url(#a)" stroke="#000" stroke-dasharray="33.35496819071351, 11"><path class="EdgeBody" d="m371.96 126.65-0.10717 44.355"   marker-end="url(#d)" /></g></g><g id="ab" class="Interaction" color="#000" ><g color="#000" fill="transparent"  filter="url(#a)" stroke="#000" stroke-dasharray="14, 11"><path class="EdgeBody" d="m170 176v25"   marker-end="url(#d)" /></g></g><g class="Label" transform="translate(522.21 497.14)" color="#000"  name="N,O-Transacetylation"><use class="Icon" width="107" height="20" fill="transparent"  stroke="#000" stroke-width="0" xlink:href="#b"/><text class="Text" transform="translate(53.5,13)"   font-size="10px"  text-anchor="middle"><tspan x="0" y="0">N,O-Transacetylation</tspan></text></g><g class="Label" transform="translate(156.15 494.06)" color="#000"  name="O-acetylation"><use class="Icon" width="80" height="20" fill="transparent"  stroke="#000" stroke-width="0" xlink:href="#b"/><text class="Text" transform="translate(40,13)"   font-size="10px"  text-anchor="middle"><tspan x="0" y="0">O-acetylation</tspan></text></g><g class="Label" transform="translate(329.5 576)" color="#000"  name="DNA adducts"><use class="Icon" width="80" height="20" fill="transparent"  stroke="#000" stroke-width="0" xlink:href="#b"/><text class="Text" transform="translate(40,13)"   font-size="10px"  text-anchor="middle"><tspan x="0" y="0">DNA adducts</tspan></text></g><a  class="GeneProduct CYP1A2 " transform="translate(329.5 313)"   name="CYP1A2"  ><rect class="Icon" transform="matrix(.98765 0 0 .95238 .49383 .47619)" width="80" height="20" fill="#fff" stroke="#000"/><text class="Text" transform="translate(40,13)"   font-size="10px"  text-anchor="middle"><tspan x="0" y="0">CYP1A2</tspan></text></a><a class="Metabolite ChEBI_CHEBI_28884  " transform="translate(466,196)" color="#00f"  name="N-Acetylarylamine"  ><rect class="Icon" transform="matrix(.99107 0 0 .95238 .49554 .47619)" width="111" height="20" fill="#fff" stroke="#00f"/><text class="Text" transform="translate(55.5,13)" fill="#00f"  font-size="10px"  text-anchor="middle"><tspan x="0" y="0">N-Acetylarylamine</tspan></text></a><g class="Metabolite" transform="translate(320 518)" color="#00f"  name="O-acetylarylamine"><rect class="Icon" transform="matrix(.99 0 0 .95238 .495 .47619)" width="99" height="20" fill="#fff" stroke="#00f"/><text class="Text" transform="translate(49.5,13)" fill="#00f"  font-size="10px"  text-anchor="middle"><tspan x="0" y="0">O-acetylarylamine</tspan></text></g><g class="Metabolite" transform="translate(20,244)" color="#00f"  name="N-aryl sulfamic acid"><rect class="Icon" transform="matrix(.99107 0 0 .95238 .49554 .47619)" width="111" height="20" fill="#fff" stroke="#00f"/><text class="Text" transform="translate(55.5,13)" fill="#00f"  font-size="10px"  text-anchor="middle"><tspan x="0" y="0">N-aryl sulfamic acid</tspan></text></g><g class="GeneProduct" transform="translate(331.96 267.65)" color="#000"  name="Deacetylase"><rect class="Icon" transform="matrix(.98765 0 0 .95238 .49383 .47619)" width="80" height="20" fill="#fff" stroke="#000"/><text class="Text" transform="translate(40,13)"   font-size="10px"  text-anchor="middle"><tspan x="0" y="0">Deacetylase</tspan></text></g><a class="Metabolite ChEBI_CHEBI_15351  " transform="translate(239,116)" color="#00f"  name="Acetyl-CoA"  ><rect class="Icon" transform="matrix(.98765 0 0 .95238 .49383 .47619)" width="80" height="20" fill="#fff" stroke="#00f"/><text class="Text" transform="translate(40,13)" fill="#00f"  font-size="10px"  text-anchor="middle"><tspan x="0" y="0">Acetyl-CoA</tspan></text></a><a class="ChEBI_CHEBI_50471 Metabolite  " transform="translate(199,191)" color="#00f"  name="Arylamine"  ><rect class="Icon" transform="matrix(.98765 0 0 .95238 .49383 .47619)" width="80" height="20" fill="#fff" stroke="#00f"/><text class="Text" transform="translate(40,13)" fill="#00f"  font-size="10px"  text-anchor="middle"><tspan x="0" y="0">Arylamine</tspan></text></a><a class="ChEBI_CHEBI_13792 Metabolite  " transform="translate(187,417)" color="#00f"  name="an N-hydroxyarylamine"  ><rect class="Icon" transform="matrix(.99048 0 0 .95238 .49524 .47619)" width="104" height="20" fill="#fff" stroke="#00f"/><text class="Text" transform="translate(52,13)" fill="#00f"  font-size="10px"  text-anchor="middle"><tspan x="0" y="0">an N-hydroxyarylamine</tspan></text></a><g class="Metabolite" transform="translate(11,191)" color="#00f"  name="Arylamine N-glucuronide"><rect class="Icon" transform="matrix(.99206 0 0 .95238 .49603 .47619)" width="125" height="20" fill="#fff" stroke="#00f"/><text class="Text" transform="translate(62.5,13)" fill="#00f"  font-size="10px"  text-anchor="middle"><tspan x="0" y="0">Arylamine N-glucuronide</tspan></text></g><g class="Metabolite" transform="translate(454,417)" color="#00f"  name="N-hydroxy-N-acetylamine"><rect class="Icon" transform="matrix(.99259 0 0 .95238 .4963 .47619)" width="134" height="20" fill="#fff" stroke="#00f"/><text class="Text" transform="translate(67,13)" fill="#00f"  font-size="10px"  text-anchor="middle"><tspan x="0" y="0">N-hydroxy-N-acetylamine</tspan></text></g><a class="Metabolite ChEBI_CHEBI_15346  " transform="translate(422,119)" color="#00f"  name="Coenzyme A"  ><rect class="Icon" transform="matrix(.98765 0 0 .95238 .49383 .47619)" width="80" height="20" fill="#fff" stroke="#00f"/><text class="Text" transform="translate(40,13)" fill="#00f"  font-size="10px"  text-anchor="middle"><tspan x="0" y="0">Coenzyme A</tspan></text></a><g class="Metabolite" transform="translate(7,417)" color="#00f"  name="Arylamine N,O-sulfate"><rect class="Icon" transform="matrix(.99099 0 0 .95238 .4955 .47619)" width="110" height="20" fill="#fff" stroke="#00f"/><text class="Text" transform="translate(55,13)" fill="#00f"  font-size="10px"  text-anchor="middle"><tspan x="0" y="0">Arylamine N,O-sulfate</tspan></text></g><g class="GeneProduct" transform="translate(331.32 380.82)" color="#000"  name="Deacetylase"><rect class="Icon" transform="matrix(.98765 0 0 .95238 .49383 .47619)" width="80" height="20" fill="#fff" stroke="#000"/><text class="Text" transform="translate(40,13)"   font-size="10px"  text-anchor="middle"><tspan x="0" y="0">Deacetylase</tspan></text></g><g class="GroupComplex" transform="translate(102.05 328.2)" color="grey" ><use class="Icon" transform="matrix(.99048 0 0 .98462 .49524 .49231)" width="104" height="64" fill="#b4b464" fill-opacity=".1" stroke="grey" xlink:href="#e"/><a  class="GeneProduct SULT1A2 " transform="translate(12,32)"   name="SULT1A2"  ><rect class="Icon" transform="matrix(.98765 0 0 .95238 .49383 .47619)" width="80" height="20" fill="#fff" stroke="#000"/><text class="Text" transform="translate(40,13)"   font-size="10px"  text-anchor="middle"><tspan x="0" y="0">SULT1A2</tspan></text></a><a  class="GeneProduct SULT1A1 " transform="translate(12,12)"   name="SULT1A1"  ><rect class="Icon" transform="matrix(.98765 0 0 .95238 .49383 .47619)" width="80" height="20" fill="#fff" stroke="#000"/><text class="Text" transform="translate(40,13)"   font-size="10px"  text-anchor="middle"><tspan x="0" y="0">SULT1A1</tspan></text></a></g><g class="GroupComplex" transform="translate(317.5 448)" color="grey" ><use class="Icon" transform="matrix(.99048 0 0 .98462 .49524 .49231)" width="104" height="64" fill="#b4b464" fill-opacity=".1" stroke="grey" xlink:href="#e"/><a  class="GeneProduct NAT1 " transform="translate(12,12)"   name="NAT1"  ><rect class="Icon" transform="matrix(.98765 0 0 .95238 .49383 .47619)" width="80" height="20" fill="#fff" stroke="#000"/><text class="Text" transform="translate(40,13)"   font-size="10px"  text-anchor="middle"><tspan x="0" y="0">NAT1</tspan></text></a><a  class="GeneProduct NAT2 " transform="translate(12,32)"   name="NAT2"  ><rect class="Icon" transform="matrix(.98765 0 0 .95238 .49383 .47619)" width="80" height="20" fill="#fff" stroke="#000"/><text class="Text" transform="translate(40,13)"   font-size="10px"  text-anchor="middle"><tspan x="0" y="0">NAT2</tspan></text></a></g><g class="GroupComplex" transform="translate(319.96 62.645)" color="grey" ><use class="Icon" transform="matrix(.99048 0 0 .98462 .49524 .49231)" width="104" height="64" fill="#b4b464" fill-opacity=".1" stroke="grey" xlink:href="#e"/><a  class="GeneProduct NAT1 " transform="translate(12,12)"   name="NAT1"  ><rect class="Icon" transform="matrix(.98765 0 0 .95238 .49383 .47619)" width="80" height="20" fill="#fff" stroke="#000"/><text class="Text" transform="translate(40,13)"   font-size="10px"  text-anchor="middle"><tspan x="0" y="0">NAT1</tspan></text></a><a  class="GeneProduct NAT2 " transform="translate(12,32)"   name="NAT2"  ><rect class="Icon" transform="matrix(.98765 0 0 .95238 .49383 .47619)" width="80" height="20" fill="#fff" stroke="#000"/><text class="Text" transform="translate(40,13)"   font-size="10px"  text-anchor="middle"><tspan x="0" y="0">NAT2</tspan></text></a></g><g class="GroupComplex" transform="translate(118,112)" color="grey" ><use class="Icon" transform="matrix(.99048 0 0 .98462 .49524 .49231)" width="104" height="64" fill="#b4b464" fill-opacity=".1" stroke="grey" xlink:href="#e"/><a  class="GeneProduct UGT1A9 " transform="translate(12,32)"   name="UGT1A9"  ><rect class="Icon" transform="matrix(.98765 0 0 .95238 .49383 .47619)" width="80" height="20" fill="#fff" stroke="#000"/><text class="Text" transform="translate(40,13)"   font-size="10px"  text-anchor="middle"><tspan x="0" y="0">UGT1A9</tspan></text></a><a  class="GeneProduct UGT1A4 " transform="translate(12,12)"   name="UGT1A4"  ><rect class="Icon" transform="matrix(.98765 0 0 .95238 .49383 .47619)" width="80" height="20" fill="#fff" stroke="#000"/><text class="Text" transform="translate(40,13)"   font-size="10px"  text-anchor="middle"><tspan x="0" y="0">UGT1A4</tspan></text></a></g><text class="Text" transform="translate(5,27)" dominant-baseline="central" fill="black"  font-size="12px" font-weight="bold" overflow="visible" ><tspan x="0" y="-9">Name: Arylamine metabolism</tspan> <tspan x="0" y="9">Organism: Homo sapiens</tspan></text></g></svg>
