<?xml version="1.0" encoding="UTF-8"?>
<!--
  WikiPathways page: https://www.wikipathways.org/index.php/Pathway:WP704
  URL for this compressed file: https://github.com/eweitz/cachome/tree/main/data/wikipathways/WP704.svg
  Source code for compression: https://github.com/eweitz/cachome/tree/main/src/wikipathways.py
-->
<svg class="Diagram" width="800" height="600" color="black" baseProfile="full" prefix="schema:http://schema.org/" preserveAspectRatio="xMidYMid" version="1.1" viewBox="0 0 907 442" vocab="http://vocabularies.wikipathways.org/wp#" xmlns="http://www.w3.org/2000/svg" xmlns:xlink="http://www.w3.org/1999/xlink"><style>svg {font-family: 'Liberation Sans', Arial, sans-serif; }</style><defs><filter id="b" x="0" y="0" width="907" height="442" filterUnits="userSpaceOnUse"><feColorMatrix in="SourceGraphic" values="-1   0   0 0 0                   0  -1   0 0 0                   0   0  -1 0 0                   0   0   0 1 0"/></filter><marker id="a" stroke-dasharray="99999" markerHeight="12" markerUnits="userSpaceOnUse" markerWidth="12" orient="auto" preserveAspectRatio="none" refX="12" refY="6" viewBox="0 0 12 12"><path transform="rotate(180 6 6)" d="M12 11L0 6l12-5z" fill="currentColor" stroke-width="0"/></marker><symbol id="d" overflow="visible" preserveAspectRatio="none" viewBox="0 0 100 100"><path d="M0 25L25 0h50l25 25v50l-25 25H25L0 75z" stroke="currentColor" vector-effect="non-scaling-stroke"/></symbol><symbol id="c" preserveAspectRatio="none" viewBox="0 0 100 100"/></defs><g class="Viewport" color="black"  name="Name: Methylation pathways Last Modified: 2/22/2013 Organism: Homo sapiens"><rect class="Icon" width="907" height="442" fill="#fff" stroke="#000" stroke-width="0"/><g id="e" class="DirectedInteraction" color="#000" ><g color="#000" fill="transparent"  filter="url(#b)" stroke="#000" stroke-dasharray="260.6106733776403, 5.8"><path class="EdgeBody" d="m453 236v5.6667c0 5.6667 0 17 39.167 22.667 39.167 5.6667 117.5 5.6667 156.67 0.16667s39.167-16.5 39.167-22l1e-13 -5.5"   marker-end="url(#a)" /></g></g><g id="f" class="DirectedInteraction" color="#000" ><g color="#000" fill="transparent"  filter="url(#b)" stroke="#000" stroke-dasharray="543.2, 5.8"><path class="EdgeBody" d="m348 269h20v-145h384"   marker-end="url(#a)" /></g><g class="Burr Anchor" transform="translate(565.56 124)" ><use class="Icon" width="0" height="0" fill="#141414" stroke-width="0" xlink:href="#c"/></g></g><g id="g" class="DirectedInteraction" color="#000" ><g color="#000" fill="transparent"  filter="url(#b)" stroke="#000" stroke-dasharray="402.2, 5.8"><path class="EdgeBody" d="m348 269h408"   marker-end="url(#a)" /></g><g class="Burr Anchor" transform="translate(567,269)" ><use class="Icon" width="0" height="0" fill="#141414" stroke-width="0" xlink:href="#c"/></g></g><g id="h" class="DirectedInteraction" color="#000" ><g color="#000" fill="transparent"  filter="url(#b)" stroke="#000" stroke-dasharray="250.27121865971765, 5.8"><path class="EdgeBody" d="m451 369-1e-13 4.1667c4e-14 4.1667 4e-14 12.5 39.167 16.667 39.167 4.1667 117.5 4.1667 156.67 0.16667 39.167-4 39.167-12 39.167-16v-4"   marker-end="url(#a)" /></g></g><g id="i" class="DirectedInteraction" color="#000" ><g color="#000" fill="transparent"  filter="url(#b)" stroke="#000" stroke-dasharray="351.2, 5.8"><path class="EdgeBody" d="m169 226h188v133h36"   marker-end="url(#a)" /></g></g><g id="j" class="DirectedInteraction" color="#000" ><g color="#000" fill="transparent"  filter="url(#b)" stroke="#000" stroke-dasharray="252.49166146662554, 5.8"><path class="EdgeBody" d="m449 98-6e-14 4.5c6e-14 4.5 6e-14 13.5 39.167 18 39.167 4.5 117.5 4.5 156.67 0.16667 39.167-4.3333 39.167-13 39.167-17.333v-4.3333"   marker-end="url(#a)" /></g></g><g id="k" class="DirectedInteraction" color="#000" ><g color="#000" fill="transparent"  filter="url(#b)" stroke="#000" stroke-dasharray="167.36323843070656, 5.8"><path class="EdgeBody" d="m167 187v6.5c0 6.5 0 19.5 22.667 26 22.667 6.5 68 6.5 90.667 1.6667 22.667-4.8333 22.667-14.5 22.667-19.333v-4.8333"   marker-end="url(#a)" /></g></g><g id="l" class="DirectedInteraction" color="#000" ><g color="#000" fill="transparent"  filter="url(#b)" stroke="#000" stroke-dasharray="529.2, 5.8"><path class="EdgeBody" d="m348 269h20v124h391"   marker-end="url(#a)" /></g><g class="Burr Anchor" transform="translate(566.19 393)" ><use class="Icon" width="0" height="0" fill="#141414" stroke-width="0" xlink:href="#c"/></g></g><g id="m" class="DirectedInteraction" color="#000" ><g color="#000" fill="transparent"  filter="url(#b)" stroke="#000" stroke-dasharray="22.200649784449627, 5.8"><path class="EdgeBody" d="m566 365 0.19076 28"   marker-end="url(#a)" /></g></g><g id="n" class="DirectedInteraction" color="#000" ><g color="#000" fill="transparent"  filter="url(#b)" stroke="#000" stroke-dasharray="220.2, 5.8"><path class="EdgeBody" d="m169 226h226"   marker-end="url(#a)" /></g></g><g id="o" class="DirectedInteraction" color="#000" ><g color="#000" fill="transparent"  filter="url(#b)" stroke="#000" stroke-dasharray="27.204756703981584, 5.8"><path class="EdgeBody" d="m565 91 0.56033 33"   marker-end="url(#a)" /></g></g><g id="p" class="DirectedInteraction" color="#000" ><g color="#000" fill="transparent"  filter="url(#b)" stroke="#000" stroke-dasharray="354.2, 5.8"><path class="EdgeBody" d="m169 226h188v-138h34"   marker-end="url(#a)" /></g><g class="Burr Anchor" transform="translate(234.79 226)" ><use class="Icon" width="0" height="0" fill="#141414" stroke-width="0" xlink:href="#c"/></g></g><g id="q" class="DirectedInteraction" color="#000" ><g color="#000" fill="transparent"  filter="url(#b)" stroke="#000" stroke-dasharray="64.20440188234177, 5.8"><path class="EdgeBody" d="m234 156 0.78504 70"   marker-end="url(#a)" /></g></g><g id="r" class="DirectedInteraction" color="#000" ><g color="#000" fill="transparent"  filter="url(#b)" stroke="#000" stroke-dasharray="13.2, 5.8"><path class="EdgeBody" d="m567 250v19"   marker-end="url(#a)" /></g></g><g class="SingleFreeNode Shape" transform="translate(84,58)" color="#999" ><rect class="Icon" transform="matrix(.99628 0 0 .99474 .49814 .49737)" width="268" height="189" fill="transparent"  stroke="#999"/></g><g class="Label" transform="translate(524,123)" color="#000"  name="O-methylation"><use class="Icon" width="80" height="20" fill="transparent"  stroke="#000" stroke-width="0" xlink:href="#c"/><text class="Text" transform="translate(40,13)"   font-size="10px"  text-anchor="middle"><tspan x="0" y="0">O-methylation</tspan></text></g><g class="Label" transform="translate(525,269)" color="#000"  name="N-methylation"><use class="Icon" width="80" height="20" fill="transparent"  stroke="#000" stroke-width="0" xlink:href="#c"/><text class="Text" transform="translate(40,13)"   font-size="10px"  text-anchor="middle"><tspan x="0" y="0">N-methylation</tspan></text></g><g class="Label" transform="translate(83,55)" color="#999"  name="SAM synthesis (co-substrate)"><use class="Icon" width="143" height="20" fill="transparent"  stroke="#999" stroke-width="0" xlink:href="#c"/><text class="Text" transform="translate(71.5,13)" fill="#999"  font-size="10px" stroke="black" stroke-width="0" text-anchor="middle"><tspan x="0" y="0">SAM synthesis (co-substrate)</tspan></text></g><g class="Label" transform="translate(525,392)" color="#000"  name="S-methylation"><use class="Icon" width="80" height="20" fill="transparent"  stroke="#000" stroke-width="0" xlink:href="#c"/><text class="Text" transform="translate(40,13)"   font-size="10px"  text-anchor="middle"><tspan x="0" y="0">S-methylation</tspan></text></g><g class="Metabolite" transform="translate(756,259)" color="#339900"  name="N-methylated substrate"><rect class="Icon" transform="matrix(.9916 0 0 .95238 .4958 .47619)" width="118" height="20" fill="#fff" stroke="#390"/><text class="Text" transform="translate(59,13)" fill="#339900"  font-size="10px" stroke="black" stroke-width="0" text-anchor="middle"><tspan x="0" y="0">N-methylated substrate</tspan></text></g><a class="Metabolite ChEBI_CHEBI_16680  " transform="translate(621,79)" color="#00f"  name="S-Adenosylhomocysteine"  ><rect class="Icon" transform="matrix(.99213 0 0 .95238 .49606 .47619)" width="126" height="20" fill="#fff" stroke="#00f"/><text class="Text" transform="translate(63,13)" fill="#00f"  font-size="10px"  text-anchor="middle"><tspan x="0" y="0">S-Adenosylhomocysteine</tspan></text></a><g class="Metabolite" transform="translate(759,383)" color="#00f"  name="S-methylated substrate"><rect class="Icon" transform="matrix(.9916 0 0 .95238 .4958 .47619)" width="118" height="20" fill="#fff" stroke="#00f"/><text class="Text" transform="translate(59,13)" fill="#00f"  font-size="10px"  text-anchor="middle"><tspan x="0" y="0">S-methylated substrate</tspan></text></g><g class="Metabolite" transform="translate(268,259)" color="#339900"  name="Substrate"><rect class="Icon" transform="matrix(.98765 0 0 .95238 .49383 .47619)" width="80" height="20" fill="#fff" stroke="#390"/><text class="Text" transform="translate(40,13)" fill="#339900"  font-size="10px" stroke="black" stroke-width="0" text-anchor="middle"><tspan x="0" y="0">Substrate</tspan></text></g><g class="Metabolite" transform="translate(752,114)" color="#00f"  name="O-methylated substrate"><rect class="Icon" transform="matrix(.9916 0 0 .95238 .4958 .47619)" width="118" height="20" fill="#fff" stroke="#00f"/><text class="Text" transform="translate(59,13)" fill="#00f"  font-size="10px"  text-anchor="middle"><tspan x="0" y="0">O-methylated substrate</tspan></text></g><a class="GeneProduct TPMT " transform="translate(526,345)" color="#ff3333"  name="TPMT"  ><rect class="Icon" transform="matrix(.98765 0 0 .95238 .49383 .47619)" width="80" height="20" fill="#fff" stroke="#f33"/><text class="Text" transform="translate(40,13)" fill="#ff3333"  font-size="10px" stroke="black" stroke-width="0" text-anchor="middle"><tspan x="0" y="0">TPMT</tspan></text></a><a class="Metabolite ChEBI_CHEBI_15414  " transform="translate(395,216)" color="#00f"  name="S-Adenosylmethionine"  ><rect class="Icon" transform="matrix(.99145 0 0 .95238 .49573 .47619)" width="116" height="20" fill="#fff" stroke="#00f"/><text class="Text" transform="translate(58,13)" fill="#00f"  font-size="10px"  text-anchor="middle"><tspan x="0" y="0">S-Adenosylmethionine</tspan></text></a><a class="Metabolite ChEBI_CHEBI_15422  " transform="translate(127,167)" color="#00f"  name="ATP"  ><rect class="Icon" transform="matrix(.98765 0 0 .95238 .49383 .47619)" width="80" height="20" fill="#fff" stroke="#00f"/><text class="Text" transform="translate(40,13)" fill="#00f"  font-size="10px"  text-anchor="middle"><tspan x="0" y="0">ATP</tspan></text></a><a class="Metabolite ChEBI_CHEBI_15414  " transform="translate(393,349)" color="#00f"  name="S-Adenosylmethionine"  ><rect class="Icon" transform="matrix(.99145 0 0 .95238 .49573 .47619)" width="116" height="20" fill="#fff" stroke="#00f"/><text class="Text" transform="translate(58,13)" fill="#00f"  font-size="10px"  text-anchor="middle"><tspan x="0" y="0">S-Adenosylmethionine</tspan></text></a><a class="Metabolite ChEBI_CHEBI_16643  " transform="translate(89,216)" color="#00f"  name="L-Methionine"  ><rect class="Icon" transform="matrix(.98765 0 0 .95238 .49383 .47619)" width="80" height="20" fill="#fff" stroke="#00f"/><text class="Text" transform="translate(40,13)" fill="#00f"  font-size="10px"  text-anchor="middle"><tspan x="0" y="0">L-Methionine</tspan></text></a><a class="Metabolite ChEBI_CHEBI_15414  " transform="translate(391,78)" color="#00f"  name="S-Adenosylmethionine"  ><rect class="Icon" transform="matrix(.99145 0 0 .95238 .49573 .47619)" width="116" height="20" fill="#fff" stroke="#00f"/><text class="Text" transform="translate(58,13)" fill="#00f"  font-size="10px"  text-anchor="middle"><tspan x="0" y="0">S-Adenosylmethionine</tspan></text></a><a class="Metabolite ChEBI_CHEBI_16680  " transform="translate(623,350)" color="#00f"  name="S-Adenosylhomocysteine"  ><rect class="Icon" transform="matrix(.99213 0 0 .95238 .49606 .47619)" width="126" height="20" fill="#fff" stroke="#00f"/><text class="Text" transform="translate(63,13)" fill="#00f"  font-size="10px"  text-anchor="middle"><tspan x="0" y="0">S-Adenosylhomocysteine</tspan></text></a><a class="Metabolite ChEBI_CHEBI_16680  " transform="translate(625,217)" color="#00f"  name="S-Adenosylhomocysteine"  ><rect class="Icon" transform="matrix(.99213 0 0 .95238 .49606 .47619)" width="126" height="20" fill="#fff" stroke="#00f"/><text class="Text" transform="translate(63,13)" fill="#00f"  font-size="10px"  text-anchor="middle"><tspan x="0" y="0">S-Adenosylhomocysteine</tspan></text></a><a class="GeneProduct COMT " transform="translate(525,71)" color="#ff3333"  name="COMT"  ><rect class="Icon" transform="matrix(.98765 0 0 .95238 .49383 .47619)" width="80" height="20" fill="#fff" stroke="#f33"/><text class="Text" transform="translate(40,13)" fill="#ff3333"  font-size="10px" stroke="black" stroke-width="0" text-anchor="middle"><tspan x="0" y="0">COMT</tspan></text></a><g class="GroupGroup" transform="translate(255,149)" color="grey" ><use class="Icon" width="96" height="56" fill="transparent"  stroke="grey" stroke-dasharray="5,3" stroke-width="0" xlink:href="#c"/><a class="Metabolite ChEBI_CHEBI_26078  " transform="translate(8,8)" color="#00f"  name="Phosphate"  ><rect class="Icon" transform="matrix(.98765 0 0 .95238 .49383 .47619)" width="80" height="20" fill="#fff" stroke="#00f"/><text class="Text" transform="translate(40,13)" fill="#00f"  font-size="10px"  text-anchor="middle"><tspan x="0" y="0">Phosphate</tspan></text></a><a class="Metabolite ChEBI_CHEBI_26078  " transform="translate(8,28)" color="#00f"  name="Phosphate"  ><rect class="Icon" transform="matrix(.98765 0 0 .95238 .49383 .47619)" width="80" height="20" fill="#fff" stroke="#00f"/><text class="Text" transform="translate(40,13)" fill="#00f"  font-size="10px"  text-anchor="middle"><tspan x="0" y="0">Phosphate</tspan></text></a></g><g class="GroupComplex" transform="translate(182,72)" color="grey" ><use class="Icon" transform="matrix(.99048 0 0 .98824 .49524 .49412)" width="104" height="84" fill="#b4b464" fill-opacity=".1" stroke="grey" xlink:href="#d"/><a  class="GeneProduct MAT1A " transform="translate(12,12)"   name="MAT1A"  ><rect class="Icon" transform="matrix(.98765 0 0 .95238 .49383 .47619)" width="80" height="20" fill="#fff" stroke="#000"/><text class="Text" transform="translate(40,13)"   font-size="10px"  text-anchor="middle"><tspan x="0" y="0">MAT1A</tspan></text></a><a  class="GeneProduct MAT2A " transform="translate(12,32)"   name="MAT2A"  ><rect class="Icon" transform="matrix(.98765 0 0 .95238 .49383 .47619)" width="80" height="20" fill="#fff" stroke="#000"/><text class="Text" transform="translate(40,13)"   font-size="10px"  text-anchor="middle"><tspan x="0" y="0">MAT2A</tspan></text></a><a  class="GeneProduct MAT2B " transform="translate(12,52)"   name="MAT2B"  ><rect class="Icon" transform="matrix(.98765 0 0 .95238 .49383 .47619)" width="80" height="20" fill="#fff" stroke="#000"/><text class="Text" transform="translate(40,13)"   font-size="10px"  text-anchor="middle"><tspan x="0" y="0">MAT2B</tspan></text></a></g><g class="GroupComplex" transform="translate(515,146)" color="grey" ><use class="Icon" transform="matrix(.99048 0 0 .99048 .49524 .49524)" width="104" height="104" fill="#b4b464" fill-opacity=".1" stroke="grey" xlink:href="#d"/><a class="GeneProduct PNMT " transform="translate(12,12)" color="#ff3333"  name="PNMT"  ><rect class="Icon" transform="matrix(.98765 0 0 .95238 .49383 .47619)" width="80" height="20" fill="#fff" stroke="#f33"/><text class="Text" transform="translate(40,13)" fill="#ff3333"  font-size="10px" stroke="black" stroke-width="0" text-anchor="middle"><tspan x="0" y="0">PNMT</tspan></text></a><a class="GeneProduct HNMT " transform="translate(12,52)" color="#ff3333"  name="HNMT"  ><rect class="Icon" transform="matrix(.98765 0 0 .95238 .49383 .47619)" width="80" height="20" fill="#fff" stroke="#f33"/><text class="Text" transform="translate(40,13)" fill="#ff3333"  font-size="10px" stroke="black" stroke-width="0" text-anchor="middle"><tspan x="0" y="0">HNMT</tspan></text></a><a class="GeneProduct INMT " transform="translate(12,32)" color="#ff3333"  name="INMT"  ><rect class="Icon" transform="matrix(.98765 0 0 .95238 .49383 .47619)" width="80" height="20" fill="#fff" stroke="#f33"/><text class="Text" transform="translate(40,13)" fill="#ff3333"  font-size="10px" stroke="black" stroke-width="0" text-anchor="middle"><tspan x="0" y="0">INMT</tspan></text></a><a class="GeneProduct NNMT " transform="translate(12,72)" color="#ff3333"  name="NNMT"  ><rect class="Icon" transform="matrix(.98765 0 0 .95238 .49383 .47619)" width="80" height="20" fill="#fff" stroke="#f33"/><text class="Text" transform="translate(40,13)" fill="#ff3333"  font-size="10px" stroke="black" stroke-width="0" text-anchor="middle"><tspan x="0" y="0">NNMT</tspan></text></a></g><text class="Text" transform="translate(5,36)" dominant-baseline="central" fill="black"  font-size="12px" font-weight="bold" overflow="visible" ><tspan x="0" y="-18">Name: Methylation pathways</tspan> <tspan x="0" y="0">Last Modified: 2/22/2013</tspan> <tspan x="0" y="18">Organism: Homo sapiens</tspan></text></g></svg>
